G04 #@! TF.GenerationSoftware,KiCad,Pcbnew,(5.1.2)-2*
G04 #@! TF.CreationDate,2019-12-07T11:30:44-05:00*
G04 #@! TF.ProjectId,LEDsign,4c454473-6967-46e2-9e6b-696361645f70,rev?*
G04 #@! TF.SameCoordinates,Original*
G04 #@! TF.FileFunction,Copper,L2,Bot*
G04 #@! TF.FilePolarity,Positive*
%FSLAX46Y46*%
G04 Gerber Fmt 4.6, Leading zero omitted, Abs format (unit mm)*
G04 Created by KiCad (PCBNEW (5.1.2)-2) date 2019-12-07 11:30:44*
%MOMM*%
%LPD*%
G04 APERTURE LIST*
%ADD10C,0.800000*%
%ADD11C,0.250000*%
%ADD12C,0.254000*%
G04 APERTURE END LIST*
D10*
X210312000Y-76898500D03*
X234378500Y-76835000D03*
X226377500Y-76835000D03*
X218757500Y-76581000D03*
X202311000Y-76898500D03*
X194310000Y-76835000D03*
X186245500Y-76898500D03*
X178308000Y-76835000D03*
X170243500Y-76835000D03*
X162179000Y-76835000D03*
X154686000Y-76708000D03*
X146304000Y-76771500D03*
X138176000Y-76835000D03*
X130175000Y-76835000D03*
X122047000Y-76835000D03*
X114173000Y-76835000D03*
X106172000Y-76835000D03*
X97980500Y-76898500D03*
X89916000Y-76898500D03*
X81978500Y-76835000D03*
X73977500Y-76835000D03*
X65214500Y-76898500D03*
X141605000Y-74168000D03*
X133794500Y-74168000D03*
X125603000Y-74104500D03*
X117665500Y-74231500D03*
X109601000Y-74168000D03*
X101536500Y-74168000D03*
X93599000Y-74168000D03*
X85661500Y-74231500D03*
X77470000Y-74168000D03*
X69405500Y-74168000D03*
X238125000Y-74168000D03*
X229870000Y-74168000D03*
X221996000Y-74168000D03*
X213931500Y-74168000D03*
X205613000Y-74231500D03*
X197802500Y-74231500D03*
X189801500Y-74168000D03*
X181737000Y-74231500D03*
X173799500Y-74231500D03*
X165862000Y-74231500D03*
X157797500Y-74231500D03*
X149606000Y-74168000D03*
X150876000Y-57848500D03*
X163766500Y-57848500D03*
X163703000Y-63309500D03*
X150876000Y-63309500D03*
X169354500Y-60896500D03*
X167957500Y-66294000D03*
X169037000Y-66294000D03*
X163893500Y-68389500D03*
X152781000Y-72072500D03*
X157607000Y-65620900D03*
X170929300Y-69215000D03*
X166687500Y-69151500D03*
X165709600Y-71755000D03*
X152806400Y-67576700D03*
X152552400Y-65659000D03*
D11*
X152806400Y-65913000D02*
X152552400Y-65659000D01*
X152806400Y-67576700D02*
X152806400Y-65913000D01*
D12*
G36*
X173158910Y-71745955D02*
G01*
X173196117Y-71761901D01*
X173205253Y-71764729D01*
X173430671Y-71832786D01*
X173491560Y-71844842D01*
X173552299Y-71857753D01*
X173561811Y-71858753D01*
X173796155Y-71881731D01*
X173796169Y-71881731D01*
X173829325Y-71884998D01*
X194158424Y-71885858D01*
X240353672Y-72193621D01*
X240357701Y-72231954D01*
X240357700Y-80614795D01*
X240348478Y-80708846D01*
X240347967Y-80710537D01*
X100078211Y-80960662D01*
X65041518Y-80960001D01*
X64947454Y-80950778D01*
X64889213Y-80933194D01*
X64835500Y-80904635D01*
X64788354Y-80866183D01*
X64749577Y-80819310D01*
X64720642Y-80765796D01*
X64702651Y-80707677D01*
X64693000Y-80615855D01*
X64693000Y-72233005D01*
X64697284Y-72189317D01*
X104292562Y-71884738D01*
X147417142Y-71885000D01*
X147446584Y-71882100D01*
X147454006Y-71882152D01*
X147463525Y-71881219D01*
X147697703Y-71856606D01*
X147758501Y-71844125D01*
X147819506Y-71832488D01*
X147828662Y-71829723D01*
X148053599Y-71760093D01*
X148110817Y-71736041D01*
X148168396Y-71712777D01*
X148176841Y-71708287D01*
X148383969Y-71596293D01*
X148406569Y-71581049D01*
X173158910Y-71745955D01*
X173158910Y-71745955D01*
G37*
X173158910Y-71745955D02*
X173196117Y-71761901D01*
X173205253Y-71764729D01*
X173430671Y-71832786D01*
X173491560Y-71844842D01*
X173552299Y-71857753D01*
X173561811Y-71858753D01*
X173796155Y-71881731D01*
X173796169Y-71881731D01*
X173829325Y-71884998D01*
X194158424Y-71885858D01*
X240353672Y-72193621D01*
X240357701Y-72231954D01*
X240357700Y-80614795D01*
X240348478Y-80708846D01*
X240347967Y-80710537D01*
X100078211Y-80960662D01*
X65041518Y-80960001D01*
X64947454Y-80950778D01*
X64889213Y-80933194D01*
X64835500Y-80904635D01*
X64788354Y-80866183D01*
X64749577Y-80819310D01*
X64720642Y-80765796D01*
X64702651Y-80707677D01*
X64693000Y-80615855D01*
X64693000Y-72233005D01*
X64697284Y-72189317D01*
X104292562Y-71884738D01*
X147417142Y-71885000D01*
X147446584Y-71882100D01*
X147454006Y-71882152D01*
X147463525Y-71881219D01*
X147697703Y-71856606D01*
X147758501Y-71844125D01*
X147819506Y-71832488D01*
X147828662Y-71829723D01*
X148053599Y-71760093D01*
X148110817Y-71736041D01*
X148168396Y-71712777D01*
X148176841Y-71708287D01*
X148383969Y-71596293D01*
X148406569Y-71581049D01*
X173158910Y-71745955D01*
G36*
X170578500Y-56029632D02*
G01*
X170900738Y-56126921D01*
X171197944Y-56284949D01*
X171458795Y-56497695D01*
X171673354Y-56757052D01*
X171833451Y-57053144D01*
X171932988Y-57374697D01*
X171971500Y-57741111D01*
X171971501Y-70027147D01*
X171974400Y-70056579D01*
X171974348Y-70064006D01*
X171975281Y-70073525D01*
X171999894Y-70307703D01*
X172012375Y-70368501D01*
X172024012Y-70429506D01*
X172026777Y-70438662D01*
X172096407Y-70663599D01*
X172120459Y-70720817D01*
X172143723Y-70778396D01*
X172148213Y-70786841D01*
X172260207Y-70993969D01*
X172294931Y-71045449D01*
X172328920Y-71097390D01*
X172334965Y-71104802D01*
X172485058Y-71286233D01*
X172529095Y-71329964D01*
X172572550Y-71374338D01*
X172579919Y-71380434D01*
X172762393Y-71529256D01*
X172814111Y-71563617D01*
X172865331Y-71598688D01*
X172873744Y-71603238D01*
X173081650Y-71713783D01*
X173139030Y-71737434D01*
X173196117Y-71761901D01*
X173205253Y-71764729D01*
X173430671Y-71832786D01*
X173491560Y-71844842D01*
X173552299Y-71857753D01*
X173561811Y-71858753D01*
X173796155Y-71881731D01*
X173796169Y-71881731D01*
X173829325Y-71884998D01*
X178054000Y-71885177D01*
X178054000Y-72071540D01*
X147762536Y-71843355D01*
X147819506Y-71832488D01*
X147828662Y-71829723D01*
X148053599Y-71760093D01*
X148110817Y-71736041D01*
X148168396Y-71712777D01*
X148176841Y-71708287D01*
X148383969Y-71596293D01*
X148435449Y-71561569D01*
X148487390Y-71527580D01*
X148494802Y-71521535D01*
X148676233Y-71371442D01*
X148719964Y-71327405D01*
X148764338Y-71283950D01*
X148770434Y-71276581D01*
X148919256Y-71094107D01*
X148953617Y-71042389D01*
X148988688Y-70991169D01*
X148993238Y-70982756D01*
X149103783Y-70774850D01*
X149127434Y-70717470D01*
X149151901Y-70660383D01*
X149154729Y-70651247D01*
X149222786Y-70425829D01*
X149234842Y-70364940D01*
X149247753Y-70304201D01*
X149248753Y-70294689D01*
X149271731Y-70060345D01*
X149271731Y-70060337D01*
X149275000Y-70027147D01*
X149275000Y-65557061D01*
X151517400Y-65557061D01*
X151517400Y-65760939D01*
X151557174Y-65960898D01*
X151635195Y-66149256D01*
X151748463Y-66318774D01*
X151892626Y-66462937D01*
X152046401Y-66565686D01*
X152046400Y-66872989D01*
X152002463Y-66916926D01*
X151889195Y-67086444D01*
X151811174Y-67274802D01*
X151771400Y-67474761D01*
X151771400Y-67678639D01*
X151811174Y-67878598D01*
X151889195Y-68066956D01*
X152002463Y-68236474D01*
X152146626Y-68380637D01*
X152316144Y-68493905D01*
X152504502Y-68571926D01*
X152704461Y-68611700D01*
X152908339Y-68611700D01*
X153108298Y-68571926D01*
X153296656Y-68493905D01*
X153466174Y-68380637D01*
X153610337Y-68236474D01*
X153723605Y-68066956D01*
X153801626Y-67878598D01*
X153841400Y-67678639D01*
X153841400Y-67474761D01*
X153801626Y-67274802D01*
X153723605Y-67086444D01*
X153610337Y-66916926D01*
X153566400Y-66872989D01*
X153566400Y-65950322D01*
X153570076Y-65912999D01*
X153566400Y-65875676D01*
X153566400Y-65875667D01*
X153565797Y-65869545D01*
X153587400Y-65760939D01*
X153587400Y-65557061D01*
X153547626Y-65357102D01*
X153469605Y-65168744D01*
X153356337Y-64999226D01*
X153212174Y-64855063D01*
X153042656Y-64741795D01*
X152854298Y-64663774D01*
X152654339Y-64624000D01*
X152450461Y-64624000D01*
X152250502Y-64663774D01*
X152062144Y-64741795D01*
X151892626Y-64855063D01*
X151748463Y-64999226D01*
X151635195Y-65168744D01*
X151557174Y-65357102D01*
X151517400Y-65557061D01*
X149275000Y-65557061D01*
X149275000Y-60594212D01*
X153954500Y-60594212D01*
X153954500Y-60817788D01*
X153998117Y-61037067D01*
X154083676Y-61243624D01*
X154207888Y-61429520D01*
X154365980Y-61587612D01*
X154551876Y-61711824D01*
X154758433Y-61797383D01*
X154977712Y-61841000D01*
X155201288Y-61841000D01*
X155420567Y-61797383D01*
X155627124Y-61711824D01*
X155813020Y-61587612D01*
X155971112Y-61429520D01*
X156095324Y-61243624D01*
X156180883Y-61037067D01*
X156224500Y-60817788D01*
X156224500Y-60594212D01*
X158354500Y-60594212D01*
X158354500Y-60817788D01*
X158398117Y-61037067D01*
X158483676Y-61243624D01*
X158607888Y-61429520D01*
X158765980Y-61587612D01*
X158951876Y-61711824D01*
X159158433Y-61797383D01*
X159377712Y-61841000D01*
X159601288Y-61841000D01*
X159820567Y-61797383D01*
X160027124Y-61711824D01*
X160213020Y-61587612D01*
X160371112Y-61429520D01*
X160495324Y-61243624D01*
X160580883Y-61037067D01*
X160624500Y-60817788D01*
X160624500Y-60594212D01*
X160580883Y-60374933D01*
X160495324Y-60168376D01*
X160371112Y-59982480D01*
X160213020Y-59824388D01*
X160027124Y-59700176D01*
X159820567Y-59614617D01*
X159601288Y-59571000D01*
X159377712Y-59571000D01*
X159158433Y-59614617D01*
X158951876Y-59700176D01*
X158765980Y-59824388D01*
X158607888Y-59982480D01*
X158483676Y-60168376D01*
X158398117Y-60374933D01*
X158354500Y-60594212D01*
X156224500Y-60594212D01*
X156180883Y-60374933D01*
X156095324Y-60168376D01*
X155971112Y-59982480D01*
X155813020Y-59824388D01*
X155627124Y-59700176D01*
X155420567Y-59614617D01*
X155201288Y-59571000D01*
X154977712Y-59571000D01*
X154758433Y-59614617D01*
X154551876Y-59700176D01*
X154365980Y-59824388D01*
X154207888Y-59982480D01*
X154083676Y-60168376D01*
X153998117Y-60374933D01*
X153954500Y-60594212D01*
X149275000Y-60594212D01*
X149275000Y-57755004D01*
X149311132Y-57386500D01*
X149408421Y-57064262D01*
X149566449Y-56767056D01*
X149779195Y-56506205D01*
X150038552Y-56291646D01*
X150334644Y-56131549D01*
X150656197Y-56032012D01*
X151022611Y-55993500D01*
X170209996Y-55993500D01*
X170578500Y-56029632D01*
X170578500Y-56029632D01*
G37*
X170578500Y-56029632D02*
X170900738Y-56126921D01*
X171197944Y-56284949D01*
X171458795Y-56497695D01*
X171673354Y-56757052D01*
X171833451Y-57053144D01*
X171932988Y-57374697D01*
X171971500Y-57741111D01*
X171971501Y-70027147D01*
X171974400Y-70056579D01*
X171974348Y-70064006D01*
X171975281Y-70073525D01*
X171999894Y-70307703D01*
X172012375Y-70368501D01*
X172024012Y-70429506D01*
X172026777Y-70438662D01*
X172096407Y-70663599D01*
X172120459Y-70720817D01*
X172143723Y-70778396D01*
X172148213Y-70786841D01*
X172260207Y-70993969D01*
X172294931Y-71045449D01*
X172328920Y-71097390D01*
X172334965Y-71104802D01*
X172485058Y-71286233D01*
X172529095Y-71329964D01*
X172572550Y-71374338D01*
X172579919Y-71380434D01*
X172762393Y-71529256D01*
X172814111Y-71563617D01*
X172865331Y-71598688D01*
X172873744Y-71603238D01*
X173081650Y-71713783D01*
X173139030Y-71737434D01*
X173196117Y-71761901D01*
X173205253Y-71764729D01*
X173430671Y-71832786D01*
X173491560Y-71844842D01*
X173552299Y-71857753D01*
X173561811Y-71858753D01*
X173796155Y-71881731D01*
X173796169Y-71881731D01*
X173829325Y-71884998D01*
X178054000Y-71885177D01*
X178054000Y-72071540D01*
X147762536Y-71843355D01*
X147819506Y-71832488D01*
X147828662Y-71829723D01*
X148053599Y-71760093D01*
X148110817Y-71736041D01*
X148168396Y-71712777D01*
X148176841Y-71708287D01*
X148383969Y-71596293D01*
X148435449Y-71561569D01*
X148487390Y-71527580D01*
X148494802Y-71521535D01*
X148676233Y-71371442D01*
X148719964Y-71327405D01*
X148764338Y-71283950D01*
X148770434Y-71276581D01*
X148919256Y-71094107D01*
X148953617Y-71042389D01*
X148988688Y-70991169D01*
X148993238Y-70982756D01*
X149103783Y-70774850D01*
X149127434Y-70717470D01*
X149151901Y-70660383D01*
X149154729Y-70651247D01*
X149222786Y-70425829D01*
X149234842Y-70364940D01*
X149247753Y-70304201D01*
X149248753Y-70294689D01*
X149271731Y-70060345D01*
X149271731Y-70060337D01*
X149275000Y-70027147D01*
X149275000Y-65557061D01*
X151517400Y-65557061D01*
X151517400Y-65760939D01*
X151557174Y-65960898D01*
X151635195Y-66149256D01*
X151748463Y-66318774D01*
X151892626Y-66462937D01*
X152046401Y-66565686D01*
X152046400Y-66872989D01*
X152002463Y-66916926D01*
X151889195Y-67086444D01*
X151811174Y-67274802D01*
X151771400Y-67474761D01*
X151771400Y-67678639D01*
X151811174Y-67878598D01*
X151889195Y-68066956D01*
X152002463Y-68236474D01*
X152146626Y-68380637D01*
X152316144Y-68493905D01*
X152504502Y-68571926D01*
X152704461Y-68611700D01*
X152908339Y-68611700D01*
X153108298Y-68571926D01*
X153296656Y-68493905D01*
X153466174Y-68380637D01*
X153610337Y-68236474D01*
X153723605Y-68066956D01*
X153801626Y-67878598D01*
X153841400Y-67678639D01*
X153841400Y-67474761D01*
X153801626Y-67274802D01*
X153723605Y-67086444D01*
X153610337Y-66916926D01*
X153566400Y-66872989D01*
X153566400Y-65950322D01*
X153570076Y-65912999D01*
X153566400Y-65875676D01*
X153566400Y-65875667D01*
X153565797Y-65869545D01*
X153587400Y-65760939D01*
X153587400Y-65557061D01*
X153547626Y-65357102D01*
X153469605Y-65168744D01*
X153356337Y-64999226D01*
X153212174Y-64855063D01*
X153042656Y-64741795D01*
X152854298Y-64663774D01*
X152654339Y-64624000D01*
X152450461Y-64624000D01*
X152250502Y-64663774D01*
X152062144Y-64741795D01*
X151892626Y-64855063D01*
X151748463Y-64999226D01*
X151635195Y-65168744D01*
X151557174Y-65357102D01*
X151517400Y-65557061D01*
X149275000Y-65557061D01*
X149275000Y-60594212D01*
X153954500Y-60594212D01*
X153954500Y-60817788D01*
X153998117Y-61037067D01*
X154083676Y-61243624D01*
X154207888Y-61429520D01*
X154365980Y-61587612D01*
X154551876Y-61711824D01*
X154758433Y-61797383D01*
X154977712Y-61841000D01*
X155201288Y-61841000D01*
X155420567Y-61797383D01*
X155627124Y-61711824D01*
X155813020Y-61587612D01*
X155971112Y-61429520D01*
X156095324Y-61243624D01*
X156180883Y-61037067D01*
X156224500Y-60817788D01*
X156224500Y-60594212D01*
X158354500Y-60594212D01*
X158354500Y-60817788D01*
X158398117Y-61037067D01*
X158483676Y-61243624D01*
X158607888Y-61429520D01*
X158765980Y-61587612D01*
X158951876Y-61711824D01*
X159158433Y-61797383D01*
X159377712Y-61841000D01*
X159601288Y-61841000D01*
X159820567Y-61797383D01*
X160027124Y-61711824D01*
X160213020Y-61587612D01*
X160371112Y-61429520D01*
X160495324Y-61243624D01*
X160580883Y-61037067D01*
X160624500Y-60817788D01*
X160624500Y-60594212D01*
X160580883Y-60374933D01*
X160495324Y-60168376D01*
X160371112Y-59982480D01*
X160213020Y-59824388D01*
X160027124Y-59700176D01*
X159820567Y-59614617D01*
X159601288Y-59571000D01*
X159377712Y-59571000D01*
X159158433Y-59614617D01*
X158951876Y-59700176D01*
X158765980Y-59824388D01*
X158607888Y-59982480D01*
X158483676Y-60168376D01*
X158398117Y-60374933D01*
X158354500Y-60594212D01*
X156224500Y-60594212D01*
X156180883Y-60374933D01*
X156095324Y-60168376D01*
X155971112Y-59982480D01*
X155813020Y-59824388D01*
X155627124Y-59700176D01*
X155420567Y-59614617D01*
X155201288Y-59571000D01*
X154977712Y-59571000D01*
X154758433Y-59614617D01*
X154551876Y-59700176D01*
X154365980Y-59824388D01*
X154207888Y-59982480D01*
X154083676Y-60168376D01*
X153998117Y-60374933D01*
X153954500Y-60594212D01*
X149275000Y-60594212D01*
X149275000Y-57755004D01*
X149311132Y-57386500D01*
X149408421Y-57064262D01*
X149566449Y-56767056D01*
X149779195Y-56506205D01*
X150038552Y-56291646D01*
X150334644Y-56131549D01*
X150656197Y-56032012D01*
X151022611Y-55993500D01*
X170209996Y-55993500D01*
X170578500Y-56029632D01*
M02*
