G04 #@! TF.GenerationSoftware,KiCad,Pcbnew,(5.1.2)-2*
G04 #@! TF.CreationDate,2019-12-07T11:30:44-05:00*
G04 #@! TF.ProjectId,LEDsign,4c454473-6967-46e2-9e6b-696361645f70,rev?*
G04 #@! TF.SameCoordinates,Original*
G04 #@! TF.FileFunction,Paste,Top*
G04 #@! TF.FilePolarity,Positive*
%FSLAX46Y46*%
G04 Gerber Fmt 4.6, Leading zero omitted, Abs format (unit mm)*
G04 Created by KiCad (PCBNEW (5.1.2)-2) date 2019-12-07 11:30:44*
%MOMM*%
%LPD*%
G04 APERTURE LIST*
%ADD10C,0.100000*%
%ADD11C,0.600000*%
%ADD12C,0.920000*%
%ADD13R,1.000000X1.500000*%
%ADD14C,0.875000*%
%ADD15R,1.500000X2.000000*%
%ADD16R,3.800000X2.000000*%
%ADD17R,2.000000X1.700000*%
%ADD18R,0.500000X2.000000*%
G04 APERTURE END LIST*
D10*
G36*
X155590703Y-69614222D02*
G01*
X155605264Y-69616382D01*
X155619543Y-69619959D01*
X155633403Y-69624918D01*
X155646710Y-69631212D01*
X155659336Y-69638780D01*
X155671159Y-69647548D01*
X155682066Y-69657434D01*
X155691952Y-69668341D01*
X155700720Y-69680164D01*
X155708288Y-69692790D01*
X155714582Y-69706097D01*
X155719541Y-69719957D01*
X155723118Y-69734236D01*
X155725278Y-69748797D01*
X155726000Y-69763500D01*
X155726000Y-70063500D01*
X155725278Y-70078203D01*
X155723118Y-70092764D01*
X155719541Y-70107043D01*
X155714582Y-70120903D01*
X155708288Y-70134210D01*
X155700720Y-70146836D01*
X155691952Y-70158659D01*
X155682066Y-70169566D01*
X155671159Y-70179452D01*
X155659336Y-70188220D01*
X155646710Y-70195788D01*
X155633403Y-70202082D01*
X155619543Y-70207041D01*
X155605264Y-70210618D01*
X155590703Y-70212778D01*
X155576000Y-70213500D01*
X153926000Y-70213500D01*
X153911297Y-70212778D01*
X153896736Y-70210618D01*
X153882457Y-70207041D01*
X153868597Y-70202082D01*
X153855290Y-70195788D01*
X153842664Y-70188220D01*
X153830841Y-70179452D01*
X153819934Y-70169566D01*
X153810048Y-70158659D01*
X153801280Y-70146836D01*
X153793712Y-70134210D01*
X153787418Y-70120903D01*
X153782459Y-70107043D01*
X153778882Y-70092764D01*
X153776722Y-70078203D01*
X153776000Y-70063500D01*
X153776000Y-69763500D01*
X153776722Y-69748797D01*
X153778882Y-69734236D01*
X153782459Y-69719957D01*
X153787418Y-69706097D01*
X153793712Y-69692790D01*
X153801280Y-69680164D01*
X153810048Y-69668341D01*
X153819934Y-69657434D01*
X153830841Y-69647548D01*
X153842664Y-69638780D01*
X153855290Y-69631212D01*
X153868597Y-69624918D01*
X153882457Y-69619959D01*
X153896736Y-69616382D01*
X153911297Y-69614222D01*
X153926000Y-69613500D01*
X155576000Y-69613500D01*
X155590703Y-69614222D01*
X155590703Y-69614222D01*
G37*
D11*
X154751000Y-69913500D03*
D10*
G36*
X155590703Y-68344222D02*
G01*
X155605264Y-68346382D01*
X155619543Y-68349959D01*
X155633403Y-68354918D01*
X155646710Y-68361212D01*
X155659336Y-68368780D01*
X155671159Y-68377548D01*
X155682066Y-68387434D01*
X155691952Y-68398341D01*
X155700720Y-68410164D01*
X155708288Y-68422790D01*
X155714582Y-68436097D01*
X155719541Y-68449957D01*
X155723118Y-68464236D01*
X155725278Y-68478797D01*
X155726000Y-68493500D01*
X155726000Y-68793500D01*
X155725278Y-68808203D01*
X155723118Y-68822764D01*
X155719541Y-68837043D01*
X155714582Y-68850903D01*
X155708288Y-68864210D01*
X155700720Y-68876836D01*
X155691952Y-68888659D01*
X155682066Y-68899566D01*
X155671159Y-68909452D01*
X155659336Y-68918220D01*
X155646710Y-68925788D01*
X155633403Y-68932082D01*
X155619543Y-68937041D01*
X155605264Y-68940618D01*
X155590703Y-68942778D01*
X155576000Y-68943500D01*
X153926000Y-68943500D01*
X153911297Y-68942778D01*
X153896736Y-68940618D01*
X153882457Y-68937041D01*
X153868597Y-68932082D01*
X153855290Y-68925788D01*
X153842664Y-68918220D01*
X153830841Y-68909452D01*
X153819934Y-68899566D01*
X153810048Y-68888659D01*
X153801280Y-68876836D01*
X153793712Y-68864210D01*
X153787418Y-68850903D01*
X153782459Y-68837043D01*
X153778882Y-68822764D01*
X153776722Y-68808203D01*
X153776000Y-68793500D01*
X153776000Y-68493500D01*
X153776722Y-68478797D01*
X153778882Y-68464236D01*
X153782459Y-68449957D01*
X153787418Y-68436097D01*
X153793712Y-68422790D01*
X153801280Y-68410164D01*
X153810048Y-68398341D01*
X153819934Y-68387434D01*
X153830841Y-68377548D01*
X153842664Y-68368780D01*
X153855290Y-68361212D01*
X153868597Y-68354918D01*
X153882457Y-68349959D01*
X153896736Y-68346382D01*
X153911297Y-68344222D01*
X153926000Y-68343500D01*
X155576000Y-68343500D01*
X155590703Y-68344222D01*
X155590703Y-68344222D01*
G37*
D11*
X154751000Y-68643500D03*
D10*
G36*
X155590703Y-67074222D02*
G01*
X155605264Y-67076382D01*
X155619543Y-67079959D01*
X155633403Y-67084918D01*
X155646710Y-67091212D01*
X155659336Y-67098780D01*
X155671159Y-67107548D01*
X155682066Y-67117434D01*
X155691952Y-67128341D01*
X155700720Y-67140164D01*
X155708288Y-67152790D01*
X155714582Y-67166097D01*
X155719541Y-67179957D01*
X155723118Y-67194236D01*
X155725278Y-67208797D01*
X155726000Y-67223500D01*
X155726000Y-67523500D01*
X155725278Y-67538203D01*
X155723118Y-67552764D01*
X155719541Y-67567043D01*
X155714582Y-67580903D01*
X155708288Y-67594210D01*
X155700720Y-67606836D01*
X155691952Y-67618659D01*
X155682066Y-67629566D01*
X155671159Y-67639452D01*
X155659336Y-67648220D01*
X155646710Y-67655788D01*
X155633403Y-67662082D01*
X155619543Y-67667041D01*
X155605264Y-67670618D01*
X155590703Y-67672778D01*
X155576000Y-67673500D01*
X153926000Y-67673500D01*
X153911297Y-67672778D01*
X153896736Y-67670618D01*
X153882457Y-67667041D01*
X153868597Y-67662082D01*
X153855290Y-67655788D01*
X153842664Y-67648220D01*
X153830841Y-67639452D01*
X153819934Y-67629566D01*
X153810048Y-67618659D01*
X153801280Y-67606836D01*
X153793712Y-67594210D01*
X153787418Y-67580903D01*
X153782459Y-67567043D01*
X153778882Y-67552764D01*
X153776722Y-67538203D01*
X153776000Y-67523500D01*
X153776000Y-67223500D01*
X153776722Y-67208797D01*
X153778882Y-67194236D01*
X153782459Y-67179957D01*
X153787418Y-67166097D01*
X153793712Y-67152790D01*
X153801280Y-67140164D01*
X153810048Y-67128341D01*
X153819934Y-67117434D01*
X153830841Y-67107548D01*
X153842664Y-67098780D01*
X153855290Y-67091212D01*
X153868597Y-67084918D01*
X153882457Y-67079959D01*
X153896736Y-67076382D01*
X153911297Y-67074222D01*
X153926000Y-67073500D01*
X155576000Y-67073500D01*
X155590703Y-67074222D01*
X155590703Y-67074222D01*
G37*
D11*
X154751000Y-67373500D03*
D10*
G36*
X155590703Y-65804222D02*
G01*
X155605264Y-65806382D01*
X155619543Y-65809959D01*
X155633403Y-65814918D01*
X155646710Y-65821212D01*
X155659336Y-65828780D01*
X155671159Y-65837548D01*
X155682066Y-65847434D01*
X155691952Y-65858341D01*
X155700720Y-65870164D01*
X155708288Y-65882790D01*
X155714582Y-65896097D01*
X155719541Y-65909957D01*
X155723118Y-65924236D01*
X155725278Y-65938797D01*
X155726000Y-65953500D01*
X155726000Y-66253500D01*
X155725278Y-66268203D01*
X155723118Y-66282764D01*
X155719541Y-66297043D01*
X155714582Y-66310903D01*
X155708288Y-66324210D01*
X155700720Y-66336836D01*
X155691952Y-66348659D01*
X155682066Y-66359566D01*
X155671159Y-66369452D01*
X155659336Y-66378220D01*
X155646710Y-66385788D01*
X155633403Y-66392082D01*
X155619543Y-66397041D01*
X155605264Y-66400618D01*
X155590703Y-66402778D01*
X155576000Y-66403500D01*
X153926000Y-66403500D01*
X153911297Y-66402778D01*
X153896736Y-66400618D01*
X153882457Y-66397041D01*
X153868597Y-66392082D01*
X153855290Y-66385788D01*
X153842664Y-66378220D01*
X153830841Y-66369452D01*
X153819934Y-66359566D01*
X153810048Y-66348659D01*
X153801280Y-66336836D01*
X153793712Y-66324210D01*
X153787418Y-66310903D01*
X153782459Y-66297043D01*
X153778882Y-66282764D01*
X153776722Y-66268203D01*
X153776000Y-66253500D01*
X153776000Y-65953500D01*
X153776722Y-65938797D01*
X153778882Y-65924236D01*
X153782459Y-65909957D01*
X153787418Y-65896097D01*
X153793712Y-65882790D01*
X153801280Y-65870164D01*
X153810048Y-65858341D01*
X153819934Y-65847434D01*
X153830841Y-65837548D01*
X153842664Y-65828780D01*
X153855290Y-65821212D01*
X153868597Y-65814918D01*
X153882457Y-65809959D01*
X153896736Y-65806382D01*
X153911297Y-65804222D01*
X153926000Y-65803500D01*
X155576000Y-65803500D01*
X155590703Y-65804222D01*
X155590703Y-65804222D01*
G37*
D11*
X154751000Y-66103500D03*
D10*
G36*
X160540703Y-65804222D02*
G01*
X160555264Y-65806382D01*
X160569543Y-65809959D01*
X160583403Y-65814918D01*
X160596710Y-65821212D01*
X160609336Y-65828780D01*
X160621159Y-65837548D01*
X160632066Y-65847434D01*
X160641952Y-65858341D01*
X160650720Y-65870164D01*
X160658288Y-65882790D01*
X160664582Y-65896097D01*
X160669541Y-65909957D01*
X160673118Y-65924236D01*
X160675278Y-65938797D01*
X160676000Y-65953500D01*
X160676000Y-66253500D01*
X160675278Y-66268203D01*
X160673118Y-66282764D01*
X160669541Y-66297043D01*
X160664582Y-66310903D01*
X160658288Y-66324210D01*
X160650720Y-66336836D01*
X160641952Y-66348659D01*
X160632066Y-66359566D01*
X160621159Y-66369452D01*
X160609336Y-66378220D01*
X160596710Y-66385788D01*
X160583403Y-66392082D01*
X160569543Y-66397041D01*
X160555264Y-66400618D01*
X160540703Y-66402778D01*
X160526000Y-66403500D01*
X158876000Y-66403500D01*
X158861297Y-66402778D01*
X158846736Y-66400618D01*
X158832457Y-66397041D01*
X158818597Y-66392082D01*
X158805290Y-66385788D01*
X158792664Y-66378220D01*
X158780841Y-66369452D01*
X158769934Y-66359566D01*
X158760048Y-66348659D01*
X158751280Y-66336836D01*
X158743712Y-66324210D01*
X158737418Y-66310903D01*
X158732459Y-66297043D01*
X158728882Y-66282764D01*
X158726722Y-66268203D01*
X158726000Y-66253500D01*
X158726000Y-65953500D01*
X158726722Y-65938797D01*
X158728882Y-65924236D01*
X158732459Y-65909957D01*
X158737418Y-65896097D01*
X158743712Y-65882790D01*
X158751280Y-65870164D01*
X158760048Y-65858341D01*
X158769934Y-65847434D01*
X158780841Y-65837548D01*
X158792664Y-65828780D01*
X158805290Y-65821212D01*
X158818597Y-65814918D01*
X158832457Y-65809959D01*
X158846736Y-65806382D01*
X158861297Y-65804222D01*
X158876000Y-65803500D01*
X160526000Y-65803500D01*
X160540703Y-65804222D01*
X160540703Y-65804222D01*
G37*
D11*
X159701000Y-66103500D03*
D10*
G36*
X160540703Y-67074222D02*
G01*
X160555264Y-67076382D01*
X160569543Y-67079959D01*
X160583403Y-67084918D01*
X160596710Y-67091212D01*
X160609336Y-67098780D01*
X160621159Y-67107548D01*
X160632066Y-67117434D01*
X160641952Y-67128341D01*
X160650720Y-67140164D01*
X160658288Y-67152790D01*
X160664582Y-67166097D01*
X160669541Y-67179957D01*
X160673118Y-67194236D01*
X160675278Y-67208797D01*
X160676000Y-67223500D01*
X160676000Y-67523500D01*
X160675278Y-67538203D01*
X160673118Y-67552764D01*
X160669541Y-67567043D01*
X160664582Y-67580903D01*
X160658288Y-67594210D01*
X160650720Y-67606836D01*
X160641952Y-67618659D01*
X160632066Y-67629566D01*
X160621159Y-67639452D01*
X160609336Y-67648220D01*
X160596710Y-67655788D01*
X160583403Y-67662082D01*
X160569543Y-67667041D01*
X160555264Y-67670618D01*
X160540703Y-67672778D01*
X160526000Y-67673500D01*
X158876000Y-67673500D01*
X158861297Y-67672778D01*
X158846736Y-67670618D01*
X158832457Y-67667041D01*
X158818597Y-67662082D01*
X158805290Y-67655788D01*
X158792664Y-67648220D01*
X158780841Y-67639452D01*
X158769934Y-67629566D01*
X158760048Y-67618659D01*
X158751280Y-67606836D01*
X158743712Y-67594210D01*
X158737418Y-67580903D01*
X158732459Y-67567043D01*
X158728882Y-67552764D01*
X158726722Y-67538203D01*
X158726000Y-67523500D01*
X158726000Y-67223500D01*
X158726722Y-67208797D01*
X158728882Y-67194236D01*
X158732459Y-67179957D01*
X158737418Y-67166097D01*
X158743712Y-67152790D01*
X158751280Y-67140164D01*
X158760048Y-67128341D01*
X158769934Y-67117434D01*
X158780841Y-67107548D01*
X158792664Y-67098780D01*
X158805290Y-67091212D01*
X158818597Y-67084918D01*
X158832457Y-67079959D01*
X158846736Y-67076382D01*
X158861297Y-67074222D01*
X158876000Y-67073500D01*
X160526000Y-67073500D01*
X160540703Y-67074222D01*
X160540703Y-67074222D01*
G37*
D11*
X159701000Y-67373500D03*
D10*
G36*
X160540703Y-68344222D02*
G01*
X160555264Y-68346382D01*
X160569543Y-68349959D01*
X160583403Y-68354918D01*
X160596710Y-68361212D01*
X160609336Y-68368780D01*
X160621159Y-68377548D01*
X160632066Y-68387434D01*
X160641952Y-68398341D01*
X160650720Y-68410164D01*
X160658288Y-68422790D01*
X160664582Y-68436097D01*
X160669541Y-68449957D01*
X160673118Y-68464236D01*
X160675278Y-68478797D01*
X160676000Y-68493500D01*
X160676000Y-68793500D01*
X160675278Y-68808203D01*
X160673118Y-68822764D01*
X160669541Y-68837043D01*
X160664582Y-68850903D01*
X160658288Y-68864210D01*
X160650720Y-68876836D01*
X160641952Y-68888659D01*
X160632066Y-68899566D01*
X160621159Y-68909452D01*
X160609336Y-68918220D01*
X160596710Y-68925788D01*
X160583403Y-68932082D01*
X160569543Y-68937041D01*
X160555264Y-68940618D01*
X160540703Y-68942778D01*
X160526000Y-68943500D01*
X158876000Y-68943500D01*
X158861297Y-68942778D01*
X158846736Y-68940618D01*
X158832457Y-68937041D01*
X158818597Y-68932082D01*
X158805290Y-68925788D01*
X158792664Y-68918220D01*
X158780841Y-68909452D01*
X158769934Y-68899566D01*
X158760048Y-68888659D01*
X158751280Y-68876836D01*
X158743712Y-68864210D01*
X158737418Y-68850903D01*
X158732459Y-68837043D01*
X158728882Y-68822764D01*
X158726722Y-68808203D01*
X158726000Y-68793500D01*
X158726000Y-68493500D01*
X158726722Y-68478797D01*
X158728882Y-68464236D01*
X158732459Y-68449957D01*
X158737418Y-68436097D01*
X158743712Y-68422790D01*
X158751280Y-68410164D01*
X158760048Y-68398341D01*
X158769934Y-68387434D01*
X158780841Y-68377548D01*
X158792664Y-68368780D01*
X158805290Y-68361212D01*
X158818597Y-68354918D01*
X158832457Y-68349959D01*
X158846736Y-68346382D01*
X158861297Y-68344222D01*
X158876000Y-68343500D01*
X160526000Y-68343500D01*
X160540703Y-68344222D01*
X160540703Y-68344222D01*
G37*
D11*
X159701000Y-68643500D03*
D10*
G36*
X160540703Y-69614222D02*
G01*
X160555264Y-69616382D01*
X160569543Y-69619959D01*
X160583403Y-69624918D01*
X160596710Y-69631212D01*
X160609336Y-69638780D01*
X160621159Y-69647548D01*
X160632066Y-69657434D01*
X160641952Y-69668341D01*
X160650720Y-69680164D01*
X160658288Y-69692790D01*
X160664582Y-69706097D01*
X160669541Y-69719957D01*
X160673118Y-69734236D01*
X160675278Y-69748797D01*
X160676000Y-69763500D01*
X160676000Y-70063500D01*
X160675278Y-70078203D01*
X160673118Y-70092764D01*
X160669541Y-70107043D01*
X160664582Y-70120903D01*
X160658288Y-70134210D01*
X160650720Y-70146836D01*
X160641952Y-70158659D01*
X160632066Y-70169566D01*
X160621159Y-70179452D01*
X160609336Y-70188220D01*
X160596710Y-70195788D01*
X160583403Y-70202082D01*
X160569543Y-70207041D01*
X160555264Y-70210618D01*
X160540703Y-70212778D01*
X160526000Y-70213500D01*
X158876000Y-70213500D01*
X158861297Y-70212778D01*
X158846736Y-70210618D01*
X158832457Y-70207041D01*
X158818597Y-70202082D01*
X158805290Y-70195788D01*
X158792664Y-70188220D01*
X158780841Y-70179452D01*
X158769934Y-70169566D01*
X158760048Y-70158659D01*
X158751280Y-70146836D01*
X158743712Y-70134210D01*
X158737418Y-70120903D01*
X158732459Y-70107043D01*
X158728882Y-70092764D01*
X158726722Y-70078203D01*
X158726000Y-70063500D01*
X158726000Y-69763500D01*
X158726722Y-69748797D01*
X158728882Y-69734236D01*
X158732459Y-69719957D01*
X158737418Y-69706097D01*
X158743712Y-69692790D01*
X158751280Y-69680164D01*
X158760048Y-69668341D01*
X158769934Y-69657434D01*
X158780841Y-69647548D01*
X158792664Y-69638780D01*
X158805290Y-69631212D01*
X158818597Y-69624918D01*
X158832457Y-69619959D01*
X158846736Y-69616382D01*
X158861297Y-69614222D01*
X158876000Y-69613500D01*
X160526000Y-69613500D01*
X160540703Y-69614222D01*
X160540703Y-69614222D01*
G37*
D11*
X159701000Y-69913500D03*
D10*
G36*
X156908544Y-66654608D02*
G01*
X156930871Y-66657919D01*
X156952765Y-66663404D01*
X156974017Y-66671008D01*
X156994421Y-66680658D01*
X157013781Y-66692262D01*
X157031910Y-66705708D01*
X157048635Y-66720865D01*
X157063792Y-66737590D01*
X157077238Y-66755719D01*
X157088842Y-66775079D01*
X157098492Y-66795483D01*
X157106096Y-66816735D01*
X157111581Y-66838629D01*
X157114892Y-66860956D01*
X157116000Y-66883500D01*
X157116000Y-67633500D01*
X157114892Y-67656044D01*
X157111581Y-67678371D01*
X157106096Y-67700265D01*
X157098492Y-67721517D01*
X157088842Y-67741921D01*
X157077238Y-67761281D01*
X157063792Y-67779410D01*
X157048635Y-67796135D01*
X157031910Y-67811292D01*
X157013781Y-67824738D01*
X156994421Y-67836342D01*
X156974017Y-67845992D01*
X156952765Y-67853596D01*
X156930871Y-67859081D01*
X156908544Y-67862392D01*
X156886000Y-67863500D01*
X156426000Y-67863500D01*
X156403456Y-67862392D01*
X156381129Y-67859081D01*
X156359235Y-67853596D01*
X156337983Y-67845992D01*
X156317579Y-67836342D01*
X156298219Y-67824738D01*
X156280090Y-67811292D01*
X156263365Y-67796135D01*
X156248208Y-67779410D01*
X156234762Y-67761281D01*
X156223158Y-67741921D01*
X156213508Y-67721517D01*
X156205904Y-67700265D01*
X156200419Y-67678371D01*
X156197108Y-67656044D01*
X156196000Y-67633500D01*
X156196000Y-66883500D01*
X156197108Y-66860956D01*
X156200419Y-66838629D01*
X156205904Y-66816735D01*
X156213508Y-66795483D01*
X156223158Y-66775079D01*
X156234762Y-66755719D01*
X156248208Y-66737590D01*
X156263365Y-66720865D01*
X156280090Y-66705708D01*
X156298219Y-66692262D01*
X156317579Y-66680658D01*
X156337983Y-66671008D01*
X156359235Y-66663404D01*
X156381129Y-66657919D01*
X156403456Y-66654608D01*
X156426000Y-66653500D01*
X156886000Y-66653500D01*
X156908544Y-66654608D01*
X156908544Y-66654608D01*
G37*
D12*
X156656000Y-67258500D03*
D10*
G36*
X156908544Y-68154608D02*
G01*
X156930871Y-68157919D01*
X156952765Y-68163404D01*
X156974017Y-68171008D01*
X156994421Y-68180658D01*
X157013781Y-68192262D01*
X157031910Y-68205708D01*
X157048635Y-68220865D01*
X157063792Y-68237590D01*
X157077238Y-68255719D01*
X157088842Y-68275079D01*
X157098492Y-68295483D01*
X157106096Y-68316735D01*
X157111581Y-68338629D01*
X157114892Y-68360956D01*
X157116000Y-68383500D01*
X157116000Y-69133500D01*
X157114892Y-69156044D01*
X157111581Y-69178371D01*
X157106096Y-69200265D01*
X157098492Y-69221517D01*
X157088842Y-69241921D01*
X157077238Y-69261281D01*
X157063792Y-69279410D01*
X157048635Y-69296135D01*
X157031910Y-69311292D01*
X157013781Y-69324738D01*
X156994421Y-69336342D01*
X156974017Y-69345992D01*
X156952765Y-69353596D01*
X156930871Y-69359081D01*
X156908544Y-69362392D01*
X156886000Y-69363500D01*
X156426000Y-69363500D01*
X156403456Y-69362392D01*
X156381129Y-69359081D01*
X156359235Y-69353596D01*
X156337983Y-69345992D01*
X156317579Y-69336342D01*
X156298219Y-69324738D01*
X156280090Y-69311292D01*
X156263365Y-69296135D01*
X156248208Y-69279410D01*
X156234762Y-69261281D01*
X156223158Y-69241921D01*
X156213508Y-69221517D01*
X156205904Y-69200265D01*
X156200419Y-69178371D01*
X156197108Y-69156044D01*
X156196000Y-69133500D01*
X156196000Y-68383500D01*
X156197108Y-68360956D01*
X156200419Y-68338629D01*
X156205904Y-68316735D01*
X156213508Y-68295483D01*
X156223158Y-68275079D01*
X156234762Y-68255719D01*
X156248208Y-68237590D01*
X156263365Y-68220865D01*
X156280090Y-68205708D01*
X156298219Y-68192262D01*
X156317579Y-68180658D01*
X156337983Y-68171008D01*
X156359235Y-68163404D01*
X156381129Y-68157919D01*
X156403456Y-68154608D01*
X156426000Y-68153500D01*
X156886000Y-68153500D01*
X156908544Y-68154608D01*
X156908544Y-68154608D01*
G37*
D12*
X156656000Y-68758500D03*
D10*
G36*
X158048544Y-66654608D02*
G01*
X158070871Y-66657919D01*
X158092765Y-66663404D01*
X158114017Y-66671008D01*
X158134421Y-66680658D01*
X158153781Y-66692262D01*
X158171910Y-66705708D01*
X158188635Y-66720865D01*
X158203792Y-66737590D01*
X158217238Y-66755719D01*
X158228842Y-66775079D01*
X158238492Y-66795483D01*
X158246096Y-66816735D01*
X158251581Y-66838629D01*
X158254892Y-66860956D01*
X158256000Y-66883500D01*
X158256000Y-67633500D01*
X158254892Y-67656044D01*
X158251581Y-67678371D01*
X158246096Y-67700265D01*
X158238492Y-67721517D01*
X158228842Y-67741921D01*
X158217238Y-67761281D01*
X158203792Y-67779410D01*
X158188635Y-67796135D01*
X158171910Y-67811292D01*
X158153781Y-67824738D01*
X158134421Y-67836342D01*
X158114017Y-67845992D01*
X158092765Y-67853596D01*
X158070871Y-67859081D01*
X158048544Y-67862392D01*
X158026000Y-67863500D01*
X157566000Y-67863500D01*
X157543456Y-67862392D01*
X157521129Y-67859081D01*
X157499235Y-67853596D01*
X157477983Y-67845992D01*
X157457579Y-67836342D01*
X157438219Y-67824738D01*
X157420090Y-67811292D01*
X157403365Y-67796135D01*
X157388208Y-67779410D01*
X157374762Y-67761281D01*
X157363158Y-67741921D01*
X157353508Y-67721517D01*
X157345904Y-67700265D01*
X157340419Y-67678371D01*
X157337108Y-67656044D01*
X157336000Y-67633500D01*
X157336000Y-66883500D01*
X157337108Y-66860956D01*
X157340419Y-66838629D01*
X157345904Y-66816735D01*
X157353508Y-66795483D01*
X157363158Y-66775079D01*
X157374762Y-66755719D01*
X157388208Y-66737590D01*
X157403365Y-66720865D01*
X157420090Y-66705708D01*
X157438219Y-66692262D01*
X157457579Y-66680658D01*
X157477983Y-66671008D01*
X157499235Y-66663404D01*
X157521129Y-66657919D01*
X157543456Y-66654608D01*
X157566000Y-66653500D01*
X158026000Y-66653500D01*
X158048544Y-66654608D01*
X158048544Y-66654608D01*
G37*
D12*
X157796000Y-67258500D03*
D10*
G36*
X158048544Y-68154608D02*
G01*
X158070871Y-68157919D01*
X158092765Y-68163404D01*
X158114017Y-68171008D01*
X158134421Y-68180658D01*
X158153781Y-68192262D01*
X158171910Y-68205708D01*
X158188635Y-68220865D01*
X158203792Y-68237590D01*
X158217238Y-68255719D01*
X158228842Y-68275079D01*
X158238492Y-68295483D01*
X158246096Y-68316735D01*
X158251581Y-68338629D01*
X158254892Y-68360956D01*
X158256000Y-68383500D01*
X158256000Y-69133500D01*
X158254892Y-69156044D01*
X158251581Y-69178371D01*
X158246096Y-69200265D01*
X158238492Y-69221517D01*
X158228842Y-69241921D01*
X158217238Y-69261281D01*
X158203792Y-69279410D01*
X158188635Y-69296135D01*
X158171910Y-69311292D01*
X158153781Y-69324738D01*
X158134421Y-69336342D01*
X158114017Y-69345992D01*
X158092765Y-69353596D01*
X158070871Y-69359081D01*
X158048544Y-69362392D01*
X158026000Y-69363500D01*
X157566000Y-69363500D01*
X157543456Y-69362392D01*
X157521129Y-69359081D01*
X157499235Y-69353596D01*
X157477983Y-69345992D01*
X157457579Y-69336342D01*
X157438219Y-69324738D01*
X157420090Y-69311292D01*
X157403365Y-69296135D01*
X157388208Y-69279410D01*
X157374762Y-69261281D01*
X157363158Y-69241921D01*
X157353508Y-69221517D01*
X157345904Y-69200265D01*
X157340419Y-69178371D01*
X157337108Y-69156044D01*
X157336000Y-69133500D01*
X157336000Y-68383500D01*
X157337108Y-68360956D01*
X157340419Y-68338629D01*
X157345904Y-68316735D01*
X157353508Y-68295483D01*
X157363158Y-68275079D01*
X157374762Y-68255719D01*
X157388208Y-68237590D01*
X157403365Y-68220865D01*
X157420090Y-68205708D01*
X157438219Y-68192262D01*
X157457579Y-68180658D01*
X157477983Y-68171008D01*
X157499235Y-68163404D01*
X157521129Y-68157919D01*
X157543456Y-68154608D01*
X157566000Y-68153500D01*
X158026000Y-68153500D01*
X158048544Y-68154608D01*
X158048544Y-68154608D01*
G37*
D12*
X157796000Y-68758500D03*
D13*
X78898500Y-74194500D03*
X75698500Y-74194500D03*
X78898500Y-79094500D03*
X75698500Y-79094500D03*
X102962500Y-74194500D03*
X99762500Y-74194500D03*
X102962500Y-79094500D03*
X99762500Y-79094500D03*
X127022500Y-74194500D03*
X123822500Y-74194500D03*
X127022500Y-79094500D03*
X123822500Y-79094500D03*
X207222500Y-74194500D03*
X204022500Y-74194500D03*
X207222500Y-79094500D03*
X204022500Y-79094500D03*
X239302500Y-74194500D03*
X236102500Y-74194500D03*
X239302500Y-79094500D03*
X236102500Y-79094500D03*
X231282500Y-74194500D03*
X228082500Y-74194500D03*
X231282500Y-79094500D03*
X228082500Y-79094500D03*
X223262500Y-74194500D03*
X220062500Y-74194500D03*
X223262500Y-79094500D03*
X220062500Y-79094500D03*
X215242500Y-74194500D03*
X212042500Y-74194500D03*
X215242500Y-79094500D03*
X212042500Y-79094500D03*
X199202500Y-74194500D03*
X196002500Y-74194500D03*
X199202500Y-79094500D03*
X196002500Y-79094500D03*
X191182500Y-74194500D03*
X187982500Y-74194500D03*
X191182500Y-79094500D03*
X187982500Y-79094500D03*
X183162500Y-74194500D03*
X179962500Y-74194500D03*
X183162500Y-79094500D03*
X179962500Y-79094500D03*
X175142500Y-74194500D03*
X171942500Y-74194500D03*
X175142500Y-79094500D03*
X171942500Y-79094500D03*
X167122500Y-74194500D03*
X163922500Y-74194500D03*
X167122500Y-79094500D03*
X163922500Y-79094500D03*
X159102500Y-74194500D03*
X155902500Y-74194500D03*
X159102500Y-79094500D03*
X155902500Y-79094500D03*
X151082500Y-74194500D03*
X147882500Y-74194500D03*
X151082500Y-79094500D03*
X147882500Y-79094500D03*
X143062500Y-74194500D03*
X139862500Y-74194500D03*
X143062500Y-79094500D03*
X139862500Y-79094500D03*
X135042500Y-74194500D03*
X131842500Y-74194500D03*
X135042500Y-79094500D03*
X131842500Y-79094500D03*
X119002500Y-74194500D03*
X115802500Y-74194500D03*
X119002500Y-79094500D03*
X115802500Y-79094500D03*
X110982500Y-74194500D03*
X107782500Y-74194500D03*
X110982500Y-79094500D03*
X107782500Y-79094500D03*
X94942500Y-74194500D03*
X91742500Y-74194500D03*
X94942500Y-79094500D03*
X91742500Y-79094500D03*
X86922500Y-74194500D03*
X83722500Y-74194500D03*
X86922500Y-79094500D03*
X83722500Y-79094500D03*
D10*
G36*
X233912191Y-77681053D02*
G01*
X233933426Y-77684203D01*
X233954250Y-77689419D01*
X233974462Y-77696651D01*
X233993868Y-77705830D01*
X234012281Y-77716866D01*
X234029524Y-77729654D01*
X234045430Y-77744070D01*
X234059846Y-77759976D01*
X234072634Y-77777219D01*
X234083670Y-77795632D01*
X234092849Y-77815038D01*
X234100081Y-77835250D01*
X234105297Y-77856074D01*
X234108447Y-77877309D01*
X234109500Y-77898750D01*
X234109500Y-78336250D01*
X234108447Y-78357691D01*
X234105297Y-78378926D01*
X234100081Y-78399750D01*
X234092849Y-78419962D01*
X234083670Y-78439368D01*
X234072634Y-78457781D01*
X234059846Y-78475024D01*
X234045430Y-78490930D01*
X234029524Y-78505346D01*
X234012281Y-78518134D01*
X233993868Y-78529170D01*
X233974462Y-78538349D01*
X233954250Y-78545581D01*
X233933426Y-78550797D01*
X233912191Y-78553947D01*
X233890750Y-78555000D01*
X233378250Y-78555000D01*
X233356809Y-78553947D01*
X233335574Y-78550797D01*
X233314750Y-78545581D01*
X233294538Y-78538349D01*
X233275132Y-78529170D01*
X233256719Y-78518134D01*
X233239476Y-78505346D01*
X233223570Y-78490930D01*
X233209154Y-78475024D01*
X233196366Y-78457781D01*
X233185330Y-78439368D01*
X233176151Y-78419962D01*
X233168919Y-78399750D01*
X233163703Y-78378926D01*
X233160553Y-78357691D01*
X233159500Y-78336250D01*
X233159500Y-77898750D01*
X233160553Y-77877309D01*
X233163703Y-77856074D01*
X233168919Y-77835250D01*
X233176151Y-77815038D01*
X233185330Y-77795632D01*
X233196366Y-77777219D01*
X233209154Y-77759976D01*
X233223570Y-77744070D01*
X233239476Y-77729654D01*
X233256719Y-77716866D01*
X233275132Y-77705830D01*
X233294538Y-77696651D01*
X233314750Y-77689419D01*
X233335574Y-77684203D01*
X233356809Y-77681053D01*
X233378250Y-77680000D01*
X233890750Y-77680000D01*
X233912191Y-77681053D01*
X233912191Y-77681053D01*
G37*
D14*
X233634500Y-78117500D03*
D10*
G36*
X233912191Y-79256053D02*
G01*
X233933426Y-79259203D01*
X233954250Y-79264419D01*
X233974462Y-79271651D01*
X233993868Y-79280830D01*
X234012281Y-79291866D01*
X234029524Y-79304654D01*
X234045430Y-79319070D01*
X234059846Y-79334976D01*
X234072634Y-79352219D01*
X234083670Y-79370632D01*
X234092849Y-79390038D01*
X234100081Y-79410250D01*
X234105297Y-79431074D01*
X234108447Y-79452309D01*
X234109500Y-79473750D01*
X234109500Y-79911250D01*
X234108447Y-79932691D01*
X234105297Y-79953926D01*
X234100081Y-79974750D01*
X234092849Y-79994962D01*
X234083670Y-80014368D01*
X234072634Y-80032781D01*
X234059846Y-80050024D01*
X234045430Y-80065930D01*
X234029524Y-80080346D01*
X234012281Y-80093134D01*
X233993868Y-80104170D01*
X233974462Y-80113349D01*
X233954250Y-80120581D01*
X233933426Y-80125797D01*
X233912191Y-80128947D01*
X233890750Y-80130000D01*
X233378250Y-80130000D01*
X233356809Y-80128947D01*
X233335574Y-80125797D01*
X233314750Y-80120581D01*
X233294538Y-80113349D01*
X233275132Y-80104170D01*
X233256719Y-80093134D01*
X233239476Y-80080346D01*
X233223570Y-80065930D01*
X233209154Y-80050024D01*
X233196366Y-80032781D01*
X233185330Y-80014368D01*
X233176151Y-79994962D01*
X233168919Y-79974750D01*
X233163703Y-79953926D01*
X233160553Y-79932691D01*
X233159500Y-79911250D01*
X233159500Y-79473750D01*
X233160553Y-79452309D01*
X233163703Y-79431074D01*
X233168919Y-79410250D01*
X233176151Y-79390038D01*
X233185330Y-79370632D01*
X233196366Y-79352219D01*
X233209154Y-79334976D01*
X233223570Y-79319070D01*
X233239476Y-79304654D01*
X233256719Y-79291866D01*
X233275132Y-79280830D01*
X233294538Y-79271651D01*
X233314750Y-79264419D01*
X233335574Y-79259203D01*
X233356809Y-79256053D01*
X233378250Y-79255000D01*
X233890750Y-79255000D01*
X233912191Y-79256053D01*
X233912191Y-79256053D01*
G37*
D14*
X233634500Y-79692500D03*
D10*
G36*
X225892191Y-77681053D02*
G01*
X225913426Y-77684203D01*
X225934250Y-77689419D01*
X225954462Y-77696651D01*
X225973868Y-77705830D01*
X225992281Y-77716866D01*
X226009524Y-77729654D01*
X226025430Y-77744070D01*
X226039846Y-77759976D01*
X226052634Y-77777219D01*
X226063670Y-77795632D01*
X226072849Y-77815038D01*
X226080081Y-77835250D01*
X226085297Y-77856074D01*
X226088447Y-77877309D01*
X226089500Y-77898750D01*
X226089500Y-78336250D01*
X226088447Y-78357691D01*
X226085297Y-78378926D01*
X226080081Y-78399750D01*
X226072849Y-78419962D01*
X226063670Y-78439368D01*
X226052634Y-78457781D01*
X226039846Y-78475024D01*
X226025430Y-78490930D01*
X226009524Y-78505346D01*
X225992281Y-78518134D01*
X225973868Y-78529170D01*
X225954462Y-78538349D01*
X225934250Y-78545581D01*
X225913426Y-78550797D01*
X225892191Y-78553947D01*
X225870750Y-78555000D01*
X225358250Y-78555000D01*
X225336809Y-78553947D01*
X225315574Y-78550797D01*
X225294750Y-78545581D01*
X225274538Y-78538349D01*
X225255132Y-78529170D01*
X225236719Y-78518134D01*
X225219476Y-78505346D01*
X225203570Y-78490930D01*
X225189154Y-78475024D01*
X225176366Y-78457781D01*
X225165330Y-78439368D01*
X225156151Y-78419962D01*
X225148919Y-78399750D01*
X225143703Y-78378926D01*
X225140553Y-78357691D01*
X225139500Y-78336250D01*
X225139500Y-77898750D01*
X225140553Y-77877309D01*
X225143703Y-77856074D01*
X225148919Y-77835250D01*
X225156151Y-77815038D01*
X225165330Y-77795632D01*
X225176366Y-77777219D01*
X225189154Y-77759976D01*
X225203570Y-77744070D01*
X225219476Y-77729654D01*
X225236719Y-77716866D01*
X225255132Y-77705830D01*
X225274538Y-77696651D01*
X225294750Y-77689419D01*
X225315574Y-77684203D01*
X225336809Y-77681053D01*
X225358250Y-77680000D01*
X225870750Y-77680000D01*
X225892191Y-77681053D01*
X225892191Y-77681053D01*
G37*
D14*
X225614500Y-78117500D03*
D10*
G36*
X225892191Y-79256053D02*
G01*
X225913426Y-79259203D01*
X225934250Y-79264419D01*
X225954462Y-79271651D01*
X225973868Y-79280830D01*
X225992281Y-79291866D01*
X226009524Y-79304654D01*
X226025430Y-79319070D01*
X226039846Y-79334976D01*
X226052634Y-79352219D01*
X226063670Y-79370632D01*
X226072849Y-79390038D01*
X226080081Y-79410250D01*
X226085297Y-79431074D01*
X226088447Y-79452309D01*
X226089500Y-79473750D01*
X226089500Y-79911250D01*
X226088447Y-79932691D01*
X226085297Y-79953926D01*
X226080081Y-79974750D01*
X226072849Y-79994962D01*
X226063670Y-80014368D01*
X226052634Y-80032781D01*
X226039846Y-80050024D01*
X226025430Y-80065930D01*
X226009524Y-80080346D01*
X225992281Y-80093134D01*
X225973868Y-80104170D01*
X225954462Y-80113349D01*
X225934250Y-80120581D01*
X225913426Y-80125797D01*
X225892191Y-80128947D01*
X225870750Y-80130000D01*
X225358250Y-80130000D01*
X225336809Y-80128947D01*
X225315574Y-80125797D01*
X225294750Y-80120581D01*
X225274538Y-80113349D01*
X225255132Y-80104170D01*
X225236719Y-80093134D01*
X225219476Y-80080346D01*
X225203570Y-80065930D01*
X225189154Y-80050024D01*
X225176366Y-80032781D01*
X225165330Y-80014368D01*
X225156151Y-79994962D01*
X225148919Y-79974750D01*
X225143703Y-79953926D01*
X225140553Y-79932691D01*
X225139500Y-79911250D01*
X225139500Y-79473750D01*
X225140553Y-79452309D01*
X225143703Y-79431074D01*
X225148919Y-79410250D01*
X225156151Y-79390038D01*
X225165330Y-79370632D01*
X225176366Y-79352219D01*
X225189154Y-79334976D01*
X225203570Y-79319070D01*
X225219476Y-79304654D01*
X225236719Y-79291866D01*
X225255132Y-79280830D01*
X225274538Y-79271651D01*
X225294750Y-79264419D01*
X225315574Y-79259203D01*
X225336809Y-79256053D01*
X225358250Y-79255000D01*
X225870750Y-79255000D01*
X225892191Y-79256053D01*
X225892191Y-79256053D01*
G37*
D14*
X225614500Y-79692500D03*
D10*
G36*
X217872191Y-77681053D02*
G01*
X217893426Y-77684203D01*
X217914250Y-77689419D01*
X217934462Y-77696651D01*
X217953868Y-77705830D01*
X217972281Y-77716866D01*
X217989524Y-77729654D01*
X218005430Y-77744070D01*
X218019846Y-77759976D01*
X218032634Y-77777219D01*
X218043670Y-77795632D01*
X218052849Y-77815038D01*
X218060081Y-77835250D01*
X218065297Y-77856074D01*
X218068447Y-77877309D01*
X218069500Y-77898750D01*
X218069500Y-78336250D01*
X218068447Y-78357691D01*
X218065297Y-78378926D01*
X218060081Y-78399750D01*
X218052849Y-78419962D01*
X218043670Y-78439368D01*
X218032634Y-78457781D01*
X218019846Y-78475024D01*
X218005430Y-78490930D01*
X217989524Y-78505346D01*
X217972281Y-78518134D01*
X217953868Y-78529170D01*
X217934462Y-78538349D01*
X217914250Y-78545581D01*
X217893426Y-78550797D01*
X217872191Y-78553947D01*
X217850750Y-78555000D01*
X217338250Y-78555000D01*
X217316809Y-78553947D01*
X217295574Y-78550797D01*
X217274750Y-78545581D01*
X217254538Y-78538349D01*
X217235132Y-78529170D01*
X217216719Y-78518134D01*
X217199476Y-78505346D01*
X217183570Y-78490930D01*
X217169154Y-78475024D01*
X217156366Y-78457781D01*
X217145330Y-78439368D01*
X217136151Y-78419962D01*
X217128919Y-78399750D01*
X217123703Y-78378926D01*
X217120553Y-78357691D01*
X217119500Y-78336250D01*
X217119500Y-77898750D01*
X217120553Y-77877309D01*
X217123703Y-77856074D01*
X217128919Y-77835250D01*
X217136151Y-77815038D01*
X217145330Y-77795632D01*
X217156366Y-77777219D01*
X217169154Y-77759976D01*
X217183570Y-77744070D01*
X217199476Y-77729654D01*
X217216719Y-77716866D01*
X217235132Y-77705830D01*
X217254538Y-77696651D01*
X217274750Y-77689419D01*
X217295574Y-77684203D01*
X217316809Y-77681053D01*
X217338250Y-77680000D01*
X217850750Y-77680000D01*
X217872191Y-77681053D01*
X217872191Y-77681053D01*
G37*
D14*
X217594500Y-78117500D03*
D10*
G36*
X217872191Y-79256053D02*
G01*
X217893426Y-79259203D01*
X217914250Y-79264419D01*
X217934462Y-79271651D01*
X217953868Y-79280830D01*
X217972281Y-79291866D01*
X217989524Y-79304654D01*
X218005430Y-79319070D01*
X218019846Y-79334976D01*
X218032634Y-79352219D01*
X218043670Y-79370632D01*
X218052849Y-79390038D01*
X218060081Y-79410250D01*
X218065297Y-79431074D01*
X218068447Y-79452309D01*
X218069500Y-79473750D01*
X218069500Y-79911250D01*
X218068447Y-79932691D01*
X218065297Y-79953926D01*
X218060081Y-79974750D01*
X218052849Y-79994962D01*
X218043670Y-80014368D01*
X218032634Y-80032781D01*
X218019846Y-80050024D01*
X218005430Y-80065930D01*
X217989524Y-80080346D01*
X217972281Y-80093134D01*
X217953868Y-80104170D01*
X217934462Y-80113349D01*
X217914250Y-80120581D01*
X217893426Y-80125797D01*
X217872191Y-80128947D01*
X217850750Y-80130000D01*
X217338250Y-80130000D01*
X217316809Y-80128947D01*
X217295574Y-80125797D01*
X217274750Y-80120581D01*
X217254538Y-80113349D01*
X217235132Y-80104170D01*
X217216719Y-80093134D01*
X217199476Y-80080346D01*
X217183570Y-80065930D01*
X217169154Y-80050024D01*
X217156366Y-80032781D01*
X217145330Y-80014368D01*
X217136151Y-79994962D01*
X217128919Y-79974750D01*
X217123703Y-79953926D01*
X217120553Y-79932691D01*
X217119500Y-79911250D01*
X217119500Y-79473750D01*
X217120553Y-79452309D01*
X217123703Y-79431074D01*
X217128919Y-79410250D01*
X217136151Y-79390038D01*
X217145330Y-79370632D01*
X217156366Y-79352219D01*
X217169154Y-79334976D01*
X217183570Y-79319070D01*
X217199476Y-79304654D01*
X217216719Y-79291866D01*
X217235132Y-79280830D01*
X217254538Y-79271651D01*
X217274750Y-79264419D01*
X217295574Y-79259203D01*
X217316809Y-79256053D01*
X217338250Y-79255000D01*
X217850750Y-79255000D01*
X217872191Y-79256053D01*
X217872191Y-79256053D01*
G37*
D14*
X217594500Y-79692500D03*
D10*
G36*
X209852191Y-77681053D02*
G01*
X209873426Y-77684203D01*
X209894250Y-77689419D01*
X209914462Y-77696651D01*
X209933868Y-77705830D01*
X209952281Y-77716866D01*
X209969524Y-77729654D01*
X209985430Y-77744070D01*
X209999846Y-77759976D01*
X210012634Y-77777219D01*
X210023670Y-77795632D01*
X210032849Y-77815038D01*
X210040081Y-77835250D01*
X210045297Y-77856074D01*
X210048447Y-77877309D01*
X210049500Y-77898750D01*
X210049500Y-78336250D01*
X210048447Y-78357691D01*
X210045297Y-78378926D01*
X210040081Y-78399750D01*
X210032849Y-78419962D01*
X210023670Y-78439368D01*
X210012634Y-78457781D01*
X209999846Y-78475024D01*
X209985430Y-78490930D01*
X209969524Y-78505346D01*
X209952281Y-78518134D01*
X209933868Y-78529170D01*
X209914462Y-78538349D01*
X209894250Y-78545581D01*
X209873426Y-78550797D01*
X209852191Y-78553947D01*
X209830750Y-78555000D01*
X209318250Y-78555000D01*
X209296809Y-78553947D01*
X209275574Y-78550797D01*
X209254750Y-78545581D01*
X209234538Y-78538349D01*
X209215132Y-78529170D01*
X209196719Y-78518134D01*
X209179476Y-78505346D01*
X209163570Y-78490930D01*
X209149154Y-78475024D01*
X209136366Y-78457781D01*
X209125330Y-78439368D01*
X209116151Y-78419962D01*
X209108919Y-78399750D01*
X209103703Y-78378926D01*
X209100553Y-78357691D01*
X209099500Y-78336250D01*
X209099500Y-77898750D01*
X209100553Y-77877309D01*
X209103703Y-77856074D01*
X209108919Y-77835250D01*
X209116151Y-77815038D01*
X209125330Y-77795632D01*
X209136366Y-77777219D01*
X209149154Y-77759976D01*
X209163570Y-77744070D01*
X209179476Y-77729654D01*
X209196719Y-77716866D01*
X209215132Y-77705830D01*
X209234538Y-77696651D01*
X209254750Y-77689419D01*
X209275574Y-77684203D01*
X209296809Y-77681053D01*
X209318250Y-77680000D01*
X209830750Y-77680000D01*
X209852191Y-77681053D01*
X209852191Y-77681053D01*
G37*
D14*
X209574500Y-78117500D03*
D10*
G36*
X209852191Y-79256053D02*
G01*
X209873426Y-79259203D01*
X209894250Y-79264419D01*
X209914462Y-79271651D01*
X209933868Y-79280830D01*
X209952281Y-79291866D01*
X209969524Y-79304654D01*
X209985430Y-79319070D01*
X209999846Y-79334976D01*
X210012634Y-79352219D01*
X210023670Y-79370632D01*
X210032849Y-79390038D01*
X210040081Y-79410250D01*
X210045297Y-79431074D01*
X210048447Y-79452309D01*
X210049500Y-79473750D01*
X210049500Y-79911250D01*
X210048447Y-79932691D01*
X210045297Y-79953926D01*
X210040081Y-79974750D01*
X210032849Y-79994962D01*
X210023670Y-80014368D01*
X210012634Y-80032781D01*
X209999846Y-80050024D01*
X209985430Y-80065930D01*
X209969524Y-80080346D01*
X209952281Y-80093134D01*
X209933868Y-80104170D01*
X209914462Y-80113349D01*
X209894250Y-80120581D01*
X209873426Y-80125797D01*
X209852191Y-80128947D01*
X209830750Y-80130000D01*
X209318250Y-80130000D01*
X209296809Y-80128947D01*
X209275574Y-80125797D01*
X209254750Y-80120581D01*
X209234538Y-80113349D01*
X209215132Y-80104170D01*
X209196719Y-80093134D01*
X209179476Y-80080346D01*
X209163570Y-80065930D01*
X209149154Y-80050024D01*
X209136366Y-80032781D01*
X209125330Y-80014368D01*
X209116151Y-79994962D01*
X209108919Y-79974750D01*
X209103703Y-79953926D01*
X209100553Y-79932691D01*
X209099500Y-79911250D01*
X209099500Y-79473750D01*
X209100553Y-79452309D01*
X209103703Y-79431074D01*
X209108919Y-79410250D01*
X209116151Y-79390038D01*
X209125330Y-79370632D01*
X209136366Y-79352219D01*
X209149154Y-79334976D01*
X209163570Y-79319070D01*
X209179476Y-79304654D01*
X209196719Y-79291866D01*
X209215132Y-79280830D01*
X209234538Y-79271651D01*
X209254750Y-79264419D01*
X209275574Y-79259203D01*
X209296809Y-79256053D01*
X209318250Y-79255000D01*
X209830750Y-79255000D01*
X209852191Y-79256053D01*
X209852191Y-79256053D01*
G37*
D14*
X209574500Y-79692500D03*
D10*
G36*
X201832191Y-77681053D02*
G01*
X201853426Y-77684203D01*
X201874250Y-77689419D01*
X201894462Y-77696651D01*
X201913868Y-77705830D01*
X201932281Y-77716866D01*
X201949524Y-77729654D01*
X201965430Y-77744070D01*
X201979846Y-77759976D01*
X201992634Y-77777219D01*
X202003670Y-77795632D01*
X202012849Y-77815038D01*
X202020081Y-77835250D01*
X202025297Y-77856074D01*
X202028447Y-77877309D01*
X202029500Y-77898750D01*
X202029500Y-78336250D01*
X202028447Y-78357691D01*
X202025297Y-78378926D01*
X202020081Y-78399750D01*
X202012849Y-78419962D01*
X202003670Y-78439368D01*
X201992634Y-78457781D01*
X201979846Y-78475024D01*
X201965430Y-78490930D01*
X201949524Y-78505346D01*
X201932281Y-78518134D01*
X201913868Y-78529170D01*
X201894462Y-78538349D01*
X201874250Y-78545581D01*
X201853426Y-78550797D01*
X201832191Y-78553947D01*
X201810750Y-78555000D01*
X201298250Y-78555000D01*
X201276809Y-78553947D01*
X201255574Y-78550797D01*
X201234750Y-78545581D01*
X201214538Y-78538349D01*
X201195132Y-78529170D01*
X201176719Y-78518134D01*
X201159476Y-78505346D01*
X201143570Y-78490930D01*
X201129154Y-78475024D01*
X201116366Y-78457781D01*
X201105330Y-78439368D01*
X201096151Y-78419962D01*
X201088919Y-78399750D01*
X201083703Y-78378926D01*
X201080553Y-78357691D01*
X201079500Y-78336250D01*
X201079500Y-77898750D01*
X201080553Y-77877309D01*
X201083703Y-77856074D01*
X201088919Y-77835250D01*
X201096151Y-77815038D01*
X201105330Y-77795632D01*
X201116366Y-77777219D01*
X201129154Y-77759976D01*
X201143570Y-77744070D01*
X201159476Y-77729654D01*
X201176719Y-77716866D01*
X201195132Y-77705830D01*
X201214538Y-77696651D01*
X201234750Y-77689419D01*
X201255574Y-77684203D01*
X201276809Y-77681053D01*
X201298250Y-77680000D01*
X201810750Y-77680000D01*
X201832191Y-77681053D01*
X201832191Y-77681053D01*
G37*
D14*
X201554500Y-78117500D03*
D10*
G36*
X201832191Y-79256053D02*
G01*
X201853426Y-79259203D01*
X201874250Y-79264419D01*
X201894462Y-79271651D01*
X201913868Y-79280830D01*
X201932281Y-79291866D01*
X201949524Y-79304654D01*
X201965430Y-79319070D01*
X201979846Y-79334976D01*
X201992634Y-79352219D01*
X202003670Y-79370632D01*
X202012849Y-79390038D01*
X202020081Y-79410250D01*
X202025297Y-79431074D01*
X202028447Y-79452309D01*
X202029500Y-79473750D01*
X202029500Y-79911250D01*
X202028447Y-79932691D01*
X202025297Y-79953926D01*
X202020081Y-79974750D01*
X202012849Y-79994962D01*
X202003670Y-80014368D01*
X201992634Y-80032781D01*
X201979846Y-80050024D01*
X201965430Y-80065930D01*
X201949524Y-80080346D01*
X201932281Y-80093134D01*
X201913868Y-80104170D01*
X201894462Y-80113349D01*
X201874250Y-80120581D01*
X201853426Y-80125797D01*
X201832191Y-80128947D01*
X201810750Y-80130000D01*
X201298250Y-80130000D01*
X201276809Y-80128947D01*
X201255574Y-80125797D01*
X201234750Y-80120581D01*
X201214538Y-80113349D01*
X201195132Y-80104170D01*
X201176719Y-80093134D01*
X201159476Y-80080346D01*
X201143570Y-80065930D01*
X201129154Y-80050024D01*
X201116366Y-80032781D01*
X201105330Y-80014368D01*
X201096151Y-79994962D01*
X201088919Y-79974750D01*
X201083703Y-79953926D01*
X201080553Y-79932691D01*
X201079500Y-79911250D01*
X201079500Y-79473750D01*
X201080553Y-79452309D01*
X201083703Y-79431074D01*
X201088919Y-79410250D01*
X201096151Y-79390038D01*
X201105330Y-79370632D01*
X201116366Y-79352219D01*
X201129154Y-79334976D01*
X201143570Y-79319070D01*
X201159476Y-79304654D01*
X201176719Y-79291866D01*
X201195132Y-79280830D01*
X201214538Y-79271651D01*
X201234750Y-79264419D01*
X201255574Y-79259203D01*
X201276809Y-79256053D01*
X201298250Y-79255000D01*
X201810750Y-79255000D01*
X201832191Y-79256053D01*
X201832191Y-79256053D01*
G37*
D14*
X201554500Y-79692500D03*
D10*
G36*
X193812191Y-77681053D02*
G01*
X193833426Y-77684203D01*
X193854250Y-77689419D01*
X193874462Y-77696651D01*
X193893868Y-77705830D01*
X193912281Y-77716866D01*
X193929524Y-77729654D01*
X193945430Y-77744070D01*
X193959846Y-77759976D01*
X193972634Y-77777219D01*
X193983670Y-77795632D01*
X193992849Y-77815038D01*
X194000081Y-77835250D01*
X194005297Y-77856074D01*
X194008447Y-77877309D01*
X194009500Y-77898750D01*
X194009500Y-78336250D01*
X194008447Y-78357691D01*
X194005297Y-78378926D01*
X194000081Y-78399750D01*
X193992849Y-78419962D01*
X193983670Y-78439368D01*
X193972634Y-78457781D01*
X193959846Y-78475024D01*
X193945430Y-78490930D01*
X193929524Y-78505346D01*
X193912281Y-78518134D01*
X193893868Y-78529170D01*
X193874462Y-78538349D01*
X193854250Y-78545581D01*
X193833426Y-78550797D01*
X193812191Y-78553947D01*
X193790750Y-78555000D01*
X193278250Y-78555000D01*
X193256809Y-78553947D01*
X193235574Y-78550797D01*
X193214750Y-78545581D01*
X193194538Y-78538349D01*
X193175132Y-78529170D01*
X193156719Y-78518134D01*
X193139476Y-78505346D01*
X193123570Y-78490930D01*
X193109154Y-78475024D01*
X193096366Y-78457781D01*
X193085330Y-78439368D01*
X193076151Y-78419962D01*
X193068919Y-78399750D01*
X193063703Y-78378926D01*
X193060553Y-78357691D01*
X193059500Y-78336250D01*
X193059500Y-77898750D01*
X193060553Y-77877309D01*
X193063703Y-77856074D01*
X193068919Y-77835250D01*
X193076151Y-77815038D01*
X193085330Y-77795632D01*
X193096366Y-77777219D01*
X193109154Y-77759976D01*
X193123570Y-77744070D01*
X193139476Y-77729654D01*
X193156719Y-77716866D01*
X193175132Y-77705830D01*
X193194538Y-77696651D01*
X193214750Y-77689419D01*
X193235574Y-77684203D01*
X193256809Y-77681053D01*
X193278250Y-77680000D01*
X193790750Y-77680000D01*
X193812191Y-77681053D01*
X193812191Y-77681053D01*
G37*
D14*
X193534500Y-78117500D03*
D10*
G36*
X193812191Y-79256053D02*
G01*
X193833426Y-79259203D01*
X193854250Y-79264419D01*
X193874462Y-79271651D01*
X193893868Y-79280830D01*
X193912281Y-79291866D01*
X193929524Y-79304654D01*
X193945430Y-79319070D01*
X193959846Y-79334976D01*
X193972634Y-79352219D01*
X193983670Y-79370632D01*
X193992849Y-79390038D01*
X194000081Y-79410250D01*
X194005297Y-79431074D01*
X194008447Y-79452309D01*
X194009500Y-79473750D01*
X194009500Y-79911250D01*
X194008447Y-79932691D01*
X194005297Y-79953926D01*
X194000081Y-79974750D01*
X193992849Y-79994962D01*
X193983670Y-80014368D01*
X193972634Y-80032781D01*
X193959846Y-80050024D01*
X193945430Y-80065930D01*
X193929524Y-80080346D01*
X193912281Y-80093134D01*
X193893868Y-80104170D01*
X193874462Y-80113349D01*
X193854250Y-80120581D01*
X193833426Y-80125797D01*
X193812191Y-80128947D01*
X193790750Y-80130000D01*
X193278250Y-80130000D01*
X193256809Y-80128947D01*
X193235574Y-80125797D01*
X193214750Y-80120581D01*
X193194538Y-80113349D01*
X193175132Y-80104170D01*
X193156719Y-80093134D01*
X193139476Y-80080346D01*
X193123570Y-80065930D01*
X193109154Y-80050024D01*
X193096366Y-80032781D01*
X193085330Y-80014368D01*
X193076151Y-79994962D01*
X193068919Y-79974750D01*
X193063703Y-79953926D01*
X193060553Y-79932691D01*
X193059500Y-79911250D01*
X193059500Y-79473750D01*
X193060553Y-79452309D01*
X193063703Y-79431074D01*
X193068919Y-79410250D01*
X193076151Y-79390038D01*
X193085330Y-79370632D01*
X193096366Y-79352219D01*
X193109154Y-79334976D01*
X193123570Y-79319070D01*
X193139476Y-79304654D01*
X193156719Y-79291866D01*
X193175132Y-79280830D01*
X193194538Y-79271651D01*
X193214750Y-79264419D01*
X193235574Y-79259203D01*
X193256809Y-79256053D01*
X193278250Y-79255000D01*
X193790750Y-79255000D01*
X193812191Y-79256053D01*
X193812191Y-79256053D01*
G37*
D14*
X193534500Y-79692500D03*
D10*
G36*
X185792191Y-77681053D02*
G01*
X185813426Y-77684203D01*
X185834250Y-77689419D01*
X185854462Y-77696651D01*
X185873868Y-77705830D01*
X185892281Y-77716866D01*
X185909524Y-77729654D01*
X185925430Y-77744070D01*
X185939846Y-77759976D01*
X185952634Y-77777219D01*
X185963670Y-77795632D01*
X185972849Y-77815038D01*
X185980081Y-77835250D01*
X185985297Y-77856074D01*
X185988447Y-77877309D01*
X185989500Y-77898750D01*
X185989500Y-78336250D01*
X185988447Y-78357691D01*
X185985297Y-78378926D01*
X185980081Y-78399750D01*
X185972849Y-78419962D01*
X185963670Y-78439368D01*
X185952634Y-78457781D01*
X185939846Y-78475024D01*
X185925430Y-78490930D01*
X185909524Y-78505346D01*
X185892281Y-78518134D01*
X185873868Y-78529170D01*
X185854462Y-78538349D01*
X185834250Y-78545581D01*
X185813426Y-78550797D01*
X185792191Y-78553947D01*
X185770750Y-78555000D01*
X185258250Y-78555000D01*
X185236809Y-78553947D01*
X185215574Y-78550797D01*
X185194750Y-78545581D01*
X185174538Y-78538349D01*
X185155132Y-78529170D01*
X185136719Y-78518134D01*
X185119476Y-78505346D01*
X185103570Y-78490930D01*
X185089154Y-78475024D01*
X185076366Y-78457781D01*
X185065330Y-78439368D01*
X185056151Y-78419962D01*
X185048919Y-78399750D01*
X185043703Y-78378926D01*
X185040553Y-78357691D01*
X185039500Y-78336250D01*
X185039500Y-77898750D01*
X185040553Y-77877309D01*
X185043703Y-77856074D01*
X185048919Y-77835250D01*
X185056151Y-77815038D01*
X185065330Y-77795632D01*
X185076366Y-77777219D01*
X185089154Y-77759976D01*
X185103570Y-77744070D01*
X185119476Y-77729654D01*
X185136719Y-77716866D01*
X185155132Y-77705830D01*
X185174538Y-77696651D01*
X185194750Y-77689419D01*
X185215574Y-77684203D01*
X185236809Y-77681053D01*
X185258250Y-77680000D01*
X185770750Y-77680000D01*
X185792191Y-77681053D01*
X185792191Y-77681053D01*
G37*
D14*
X185514500Y-78117500D03*
D10*
G36*
X185792191Y-79256053D02*
G01*
X185813426Y-79259203D01*
X185834250Y-79264419D01*
X185854462Y-79271651D01*
X185873868Y-79280830D01*
X185892281Y-79291866D01*
X185909524Y-79304654D01*
X185925430Y-79319070D01*
X185939846Y-79334976D01*
X185952634Y-79352219D01*
X185963670Y-79370632D01*
X185972849Y-79390038D01*
X185980081Y-79410250D01*
X185985297Y-79431074D01*
X185988447Y-79452309D01*
X185989500Y-79473750D01*
X185989500Y-79911250D01*
X185988447Y-79932691D01*
X185985297Y-79953926D01*
X185980081Y-79974750D01*
X185972849Y-79994962D01*
X185963670Y-80014368D01*
X185952634Y-80032781D01*
X185939846Y-80050024D01*
X185925430Y-80065930D01*
X185909524Y-80080346D01*
X185892281Y-80093134D01*
X185873868Y-80104170D01*
X185854462Y-80113349D01*
X185834250Y-80120581D01*
X185813426Y-80125797D01*
X185792191Y-80128947D01*
X185770750Y-80130000D01*
X185258250Y-80130000D01*
X185236809Y-80128947D01*
X185215574Y-80125797D01*
X185194750Y-80120581D01*
X185174538Y-80113349D01*
X185155132Y-80104170D01*
X185136719Y-80093134D01*
X185119476Y-80080346D01*
X185103570Y-80065930D01*
X185089154Y-80050024D01*
X185076366Y-80032781D01*
X185065330Y-80014368D01*
X185056151Y-79994962D01*
X185048919Y-79974750D01*
X185043703Y-79953926D01*
X185040553Y-79932691D01*
X185039500Y-79911250D01*
X185039500Y-79473750D01*
X185040553Y-79452309D01*
X185043703Y-79431074D01*
X185048919Y-79410250D01*
X185056151Y-79390038D01*
X185065330Y-79370632D01*
X185076366Y-79352219D01*
X185089154Y-79334976D01*
X185103570Y-79319070D01*
X185119476Y-79304654D01*
X185136719Y-79291866D01*
X185155132Y-79280830D01*
X185174538Y-79271651D01*
X185194750Y-79264419D01*
X185215574Y-79259203D01*
X185236809Y-79256053D01*
X185258250Y-79255000D01*
X185770750Y-79255000D01*
X185792191Y-79256053D01*
X185792191Y-79256053D01*
G37*
D14*
X185514500Y-79692500D03*
D10*
G36*
X177772191Y-77681053D02*
G01*
X177793426Y-77684203D01*
X177814250Y-77689419D01*
X177834462Y-77696651D01*
X177853868Y-77705830D01*
X177872281Y-77716866D01*
X177889524Y-77729654D01*
X177905430Y-77744070D01*
X177919846Y-77759976D01*
X177932634Y-77777219D01*
X177943670Y-77795632D01*
X177952849Y-77815038D01*
X177960081Y-77835250D01*
X177965297Y-77856074D01*
X177968447Y-77877309D01*
X177969500Y-77898750D01*
X177969500Y-78336250D01*
X177968447Y-78357691D01*
X177965297Y-78378926D01*
X177960081Y-78399750D01*
X177952849Y-78419962D01*
X177943670Y-78439368D01*
X177932634Y-78457781D01*
X177919846Y-78475024D01*
X177905430Y-78490930D01*
X177889524Y-78505346D01*
X177872281Y-78518134D01*
X177853868Y-78529170D01*
X177834462Y-78538349D01*
X177814250Y-78545581D01*
X177793426Y-78550797D01*
X177772191Y-78553947D01*
X177750750Y-78555000D01*
X177238250Y-78555000D01*
X177216809Y-78553947D01*
X177195574Y-78550797D01*
X177174750Y-78545581D01*
X177154538Y-78538349D01*
X177135132Y-78529170D01*
X177116719Y-78518134D01*
X177099476Y-78505346D01*
X177083570Y-78490930D01*
X177069154Y-78475024D01*
X177056366Y-78457781D01*
X177045330Y-78439368D01*
X177036151Y-78419962D01*
X177028919Y-78399750D01*
X177023703Y-78378926D01*
X177020553Y-78357691D01*
X177019500Y-78336250D01*
X177019500Y-77898750D01*
X177020553Y-77877309D01*
X177023703Y-77856074D01*
X177028919Y-77835250D01*
X177036151Y-77815038D01*
X177045330Y-77795632D01*
X177056366Y-77777219D01*
X177069154Y-77759976D01*
X177083570Y-77744070D01*
X177099476Y-77729654D01*
X177116719Y-77716866D01*
X177135132Y-77705830D01*
X177154538Y-77696651D01*
X177174750Y-77689419D01*
X177195574Y-77684203D01*
X177216809Y-77681053D01*
X177238250Y-77680000D01*
X177750750Y-77680000D01*
X177772191Y-77681053D01*
X177772191Y-77681053D01*
G37*
D14*
X177494500Y-78117500D03*
D10*
G36*
X177772191Y-79256053D02*
G01*
X177793426Y-79259203D01*
X177814250Y-79264419D01*
X177834462Y-79271651D01*
X177853868Y-79280830D01*
X177872281Y-79291866D01*
X177889524Y-79304654D01*
X177905430Y-79319070D01*
X177919846Y-79334976D01*
X177932634Y-79352219D01*
X177943670Y-79370632D01*
X177952849Y-79390038D01*
X177960081Y-79410250D01*
X177965297Y-79431074D01*
X177968447Y-79452309D01*
X177969500Y-79473750D01*
X177969500Y-79911250D01*
X177968447Y-79932691D01*
X177965297Y-79953926D01*
X177960081Y-79974750D01*
X177952849Y-79994962D01*
X177943670Y-80014368D01*
X177932634Y-80032781D01*
X177919846Y-80050024D01*
X177905430Y-80065930D01*
X177889524Y-80080346D01*
X177872281Y-80093134D01*
X177853868Y-80104170D01*
X177834462Y-80113349D01*
X177814250Y-80120581D01*
X177793426Y-80125797D01*
X177772191Y-80128947D01*
X177750750Y-80130000D01*
X177238250Y-80130000D01*
X177216809Y-80128947D01*
X177195574Y-80125797D01*
X177174750Y-80120581D01*
X177154538Y-80113349D01*
X177135132Y-80104170D01*
X177116719Y-80093134D01*
X177099476Y-80080346D01*
X177083570Y-80065930D01*
X177069154Y-80050024D01*
X177056366Y-80032781D01*
X177045330Y-80014368D01*
X177036151Y-79994962D01*
X177028919Y-79974750D01*
X177023703Y-79953926D01*
X177020553Y-79932691D01*
X177019500Y-79911250D01*
X177019500Y-79473750D01*
X177020553Y-79452309D01*
X177023703Y-79431074D01*
X177028919Y-79410250D01*
X177036151Y-79390038D01*
X177045330Y-79370632D01*
X177056366Y-79352219D01*
X177069154Y-79334976D01*
X177083570Y-79319070D01*
X177099476Y-79304654D01*
X177116719Y-79291866D01*
X177135132Y-79280830D01*
X177154538Y-79271651D01*
X177174750Y-79264419D01*
X177195574Y-79259203D01*
X177216809Y-79256053D01*
X177238250Y-79255000D01*
X177750750Y-79255000D01*
X177772191Y-79256053D01*
X177772191Y-79256053D01*
G37*
D14*
X177494500Y-79692500D03*
D10*
G36*
X169752191Y-77681053D02*
G01*
X169773426Y-77684203D01*
X169794250Y-77689419D01*
X169814462Y-77696651D01*
X169833868Y-77705830D01*
X169852281Y-77716866D01*
X169869524Y-77729654D01*
X169885430Y-77744070D01*
X169899846Y-77759976D01*
X169912634Y-77777219D01*
X169923670Y-77795632D01*
X169932849Y-77815038D01*
X169940081Y-77835250D01*
X169945297Y-77856074D01*
X169948447Y-77877309D01*
X169949500Y-77898750D01*
X169949500Y-78336250D01*
X169948447Y-78357691D01*
X169945297Y-78378926D01*
X169940081Y-78399750D01*
X169932849Y-78419962D01*
X169923670Y-78439368D01*
X169912634Y-78457781D01*
X169899846Y-78475024D01*
X169885430Y-78490930D01*
X169869524Y-78505346D01*
X169852281Y-78518134D01*
X169833868Y-78529170D01*
X169814462Y-78538349D01*
X169794250Y-78545581D01*
X169773426Y-78550797D01*
X169752191Y-78553947D01*
X169730750Y-78555000D01*
X169218250Y-78555000D01*
X169196809Y-78553947D01*
X169175574Y-78550797D01*
X169154750Y-78545581D01*
X169134538Y-78538349D01*
X169115132Y-78529170D01*
X169096719Y-78518134D01*
X169079476Y-78505346D01*
X169063570Y-78490930D01*
X169049154Y-78475024D01*
X169036366Y-78457781D01*
X169025330Y-78439368D01*
X169016151Y-78419962D01*
X169008919Y-78399750D01*
X169003703Y-78378926D01*
X169000553Y-78357691D01*
X168999500Y-78336250D01*
X168999500Y-77898750D01*
X169000553Y-77877309D01*
X169003703Y-77856074D01*
X169008919Y-77835250D01*
X169016151Y-77815038D01*
X169025330Y-77795632D01*
X169036366Y-77777219D01*
X169049154Y-77759976D01*
X169063570Y-77744070D01*
X169079476Y-77729654D01*
X169096719Y-77716866D01*
X169115132Y-77705830D01*
X169134538Y-77696651D01*
X169154750Y-77689419D01*
X169175574Y-77684203D01*
X169196809Y-77681053D01*
X169218250Y-77680000D01*
X169730750Y-77680000D01*
X169752191Y-77681053D01*
X169752191Y-77681053D01*
G37*
D14*
X169474500Y-78117500D03*
D10*
G36*
X169752191Y-79256053D02*
G01*
X169773426Y-79259203D01*
X169794250Y-79264419D01*
X169814462Y-79271651D01*
X169833868Y-79280830D01*
X169852281Y-79291866D01*
X169869524Y-79304654D01*
X169885430Y-79319070D01*
X169899846Y-79334976D01*
X169912634Y-79352219D01*
X169923670Y-79370632D01*
X169932849Y-79390038D01*
X169940081Y-79410250D01*
X169945297Y-79431074D01*
X169948447Y-79452309D01*
X169949500Y-79473750D01*
X169949500Y-79911250D01*
X169948447Y-79932691D01*
X169945297Y-79953926D01*
X169940081Y-79974750D01*
X169932849Y-79994962D01*
X169923670Y-80014368D01*
X169912634Y-80032781D01*
X169899846Y-80050024D01*
X169885430Y-80065930D01*
X169869524Y-80080346D01*
X169852281Y-80093134D01*
X169833868Y-80104170D01*
X169814462Y-80113349D01*
X169794250Y-80120581D01*
X169773426Y-80125797D01*
X169752191Y-80128947D01*
X169730750Y-80130000D01*
X169218250Y-80130000D01*
X169196809Y-80128947D01*
X169175574Y-80125797D01*
X169154750Y-80120581D01*
X169134538Y-80113349D01*
X169115132Y-80104170D01*
X169096719Y-80093134D01*
X169079476Y-80080346D01*
X169063570Y-80065930D01*
X169049154Y-80050024D01*
X169036366Y-80032781D01*
X169025330Y-80014368D01*
X169016151Y-79994962D01*
X169008919Y-79974750D01*
X169003703Y-79953926D01*
X169000553Y-79932691D01*
X168999500Y-79911250D01*
X168999500Y-79473750D01*
X169000553Y-79452309D01*
X169003703Y-79431074D01*
X169008919Y-79410250D01*
X169016151Y-79390038D01*
X169025330Y-79370632D01*
X169036366Y-79352219D01*
X169049154Y-79334976D01*
X169063570Y-79319070D01*
X169079476Y-79304654D01*
X169096719Y-79291866D01*
X169115132Y-79280830D01*
X169134538Y-79271651D01*
X169154750Y-79264419D01*
X169175574Y-79259203D01*
X169196809Y-79256053D01*
X169218250Y-79255000D01*
X169730750Y-79255000D01*
X169752191Y-79256053D01*
X169752191Y-79256053D01*
G37*
D14*
X169474500Y-79692500D03*
D10*
G36*
X161732191Y-77681053D02*
G01*
X161753426Y-77684203D01*
X161774250Y-77689419D01*
X161794462Y-77696651D01*
X161813868Y-77705830D01*
X161832281Y-77716866D01*
X161849524Y-77729654D01*
X161865430Y-77744070D01*
X161879846Y-77759976D01*
X161892634Y-77777219D01*
X161903670Y-77795632D01*
X161912849Y-77815038D01*
X161920081Y-77835250D01*
X161925297Y-77856074D01*
X161928447Y-77877309D01*
X161929500Y-77898750D01*
X161929500Y-78336250D01*
X161928447Y-78357691D01*
X161925297Y-78378926D01*
X161920081Y-78399750D01*
X161912849Y-78419962D01*
X161903670Y-78439368D01*
X161892634Y-78457781D01*
X161879846Y-78475024D01*
X161865430Y-78490930D01*
X161849524Y-78505346D01*
X161832281Y-78518134D01*
X161813868Y-78529170D01*
X161794462Y-78538349D01*
X161774250Y-78545581D01*
X161753426Y-78550797D01*
X161732191Y-78553947D01*
X161710750Y-78555000D01*
X161198250Y-78555000D01*
X161176809Y-78553947D01*
X161155574Y-78550797D01*
X161134750Y-78545581D01*
X161114538Y-78538349D01*
X161095132Y-78529170D01*
X161076719Y-78518134D01*
X161059476Y-78505346D01*
X161043570Y-78490930D01*
X161029154Y-78475024D01*
X161016366Y-78457781D01*
X161005330Y-78439368D01*
X160996151Y-78419962D01*
X160988919Y-78399750D01*
X160983703Y-78378926D01*
X160980553Y-78357691D01*
X160979500Y-78336250D01*
X160979500Y-77898750D01*
X160980553Y-77877309D01*
X160983703Y-77856074D01*
X160988919Y-77835250D01*
X160996151Y-77815038D01*
X161005330Y-77795632D01*
X161016366Y-77777219D01*
X161029154Y-77759976D01*
X161043570Y-77744070D01*
X161059476Y-77729654D01*
X161076719Y-77716866D01*
X161095132Y-77705830D01*
X161114538Y-77696651D01*
X161134750Y-77689419D01*
X161155574Y-77684203D01*
X161176809Y-77681053D01*
X161198250Y-77680000D01*
X161710750Y-77680000D01*
X161732191Y-77681053D01*
X161732191Y-77681053D01*
G37*
D14*
X161454500Y-78117500D03*
D10*
G36*
X161732191Y-79256053D02*
G01*
X161753426Y-79259203D01*
X161774250Y-79264419D01*
X161794462Y-79271651D01*
X161813868Y-79280830D01*
X161832281Y-79291866D01*
X161849524Y-79304654D01*
X161865430Y-79319070D01*
X161879846Y-79334976D01*
X161892634Y-79352219D01*
X161903670Y-79370632D01*
X161912849Y-79390038D01*
X161920081Y-79410250D01*
X161925297Y-79431074D01*
X161928447Y-79452309D01*
X161929500Y-79473750D01*
X161929500Y-79911250D01*
X161928447Y-79932691D01*
X161925297Y-79953926D01*
X161920081Y-79974750D01*
X161912849Y-79994962D01*
X161903670Y-80014368D01*
X161892634Y-80032781D01*
X161879846Y-80050024D01*
X161865430Y-80065930D01*
X161849524Y-80080346D01*
X161832281Y-80093134D01*
X161813868Y-80104170D01*
X161794462Y-80113349D01*
X161774250Y-80120581D01*
X161753426Y-80125797D01*
X161732191Y-80128947D01*
X161710750Y-80130000D01*
X161198250Y-80130000D01*
X161176809Y-80128947D01*
X161155574Y-80125797D01*
X161134750Y-80120581D01*
X161114538Y-80113349D01*
X161095132Y-80104170D01*
X161076719Y-80093134D01*
X161059476Y-80080346D01*
X161043570Y-80065930D01*
X161029154Y-80050024D01*
X161016366Y-80032781D01*
X161005330Y-80014368D01*
X160996151Y-79994962D01*
X160988919Y-79974750D01*
X160983703Y-79953926D01*
X160980553Y-79932691D01*
X160979500Y-79911250D01*
X160979500Y-79473750D01*
X160980553Y-79452309D01*
X160983703Y-79431074D01*
X160988919Y-79410250D01*
X160996151Y-79390038D01*
X161005330Y-79370632D01*
X161016366Y-79352219D01*
X161029154Y-79334976D01*
X161043570Y-79319070D01*
X161059476Y-79304654D01*
X161076719Y-79291866D01*
X161095132Y-79280830D01*
X161114538Y-79271651D01*
X161134750Y-79264419D01*
X161155574Y-79259203D01*
X161176809Y-79256053D01*
X161198250Y-79255000D01*
X161710750Y-79255000D01*
X161732191Y-79256053D01*
X161732191Y-79256053D01*
G37*
D14*
X161454500Y-79692500D03*
D10*
G36*
X153712191Y-77681053D02*
G01*
X153733426Y-77684203D01*
X153754250Y-77689419D01*
X153774462Y-77696651D01*
X153793868Y-77705830D01*
X153812281Y-77716866D01*
X153829524Y-77729654D01*
X153845430Y-77744070D01*
X153859846Y-77759976D01*
X153872634Y-77777219D01*
X153883670Y-77795632D01*
X153892849Y-77815038D01*
X153900081Y-77835250D01*
X153905297Y-77856074D01*
X153908447Y-77877309D01*
X153909500Y-77898750D01*
X153909500Y-78336250D01*
X153908447Y-78357691D01*
X153905297Y-78378926D01*
X153900081Y-78399750D01*
X153892849Y-78419962D01*
X153883670Y-78439368D01*
X153872634Y-78457781D01*
X153859846Y-78475024D01*
X153845430Y-78490930D01*
X153829524Y-78505346D01*
X153812281Y-78518134D01*
X153793868Y-78529170D01*
X153774462Y-78538349D01*
X153754250Y-78545581D01*
X153733426Y-78550797D01*
X153712191Y-78553947D01*
X153690750Y-78555000D01*
X153178250Y-78555000D01*
X153156809Y-78553947D01*
X153135574Y-78550797D01*
X153114750Y-78545581D01*
X153094538Y-78538349D01*
X153075132Y-78529170D01*
X153056719Y-78518134D01*
X153039476Y-78505346D01*
X153023570Y-78490930D01*
X153009154Y-78475024D01*
X152996366Y-78457781D01*
X152985330Y-78439368D01*
X152976151Y-78419962D01*
X152968919Y-78399750D01*
X152963703Y-78378926D01*
X152960553Y-78357691D01*
X152959500Y-78336250D01*
X152959500Y-77898750D01*
X152960553Y-77877309D01*
X152963703Y-77856074D01*
X152968919Y-77835250D01*
X152976151Y-77815038D01*
X152985330Y-77795632D01*
X152996366Y-77777219D01*
X153009154Y-77759976D01*
X153023570Y-77744070D01*
X153039476Y-77729654D01*
X153056719Y-77716866D01*
X153075132Y-77705830D01*
X153094538Y-77696651D01*
X153114750Y-77689419D01*
X153135574Y-77684203D01*
X153156809Y-77681053D01*
X153178250Y-77680000D01*
X153690750Y-77680000D01*
X153712191Y-77681053D01*
X153712191Y-77681053D01*
G37*
D14*
X153434500Y-78117500D03*
D10*
G36*
X153712191Y-79256053D02*
G01*
X153733426Y-79259203D01*
X153754250Y-79264419D01*
X153774462Y-79271651D01*
X153793868Y-79280830D01*
X153812281Y-79291866D01*
X153829524Y-79304654D01*
X153845430Y-79319070D01*
X153859846Y-79334976D01*
X153872634Y-79352219D01*
X153883670Y-79370632D01*
X153892849Y-79390038D01*
X153900081Y-79410250D01*
X153905297Y-79431074D01*
X153908447Y-79452309D01*
X153909500Y-79473750D01*
X153909500Y-79911250D01*
X153908447Y-79932691D01*
X153905297Y-79953926D01*
X153900081Y-79974750D01*
X153892849Y-79994962D01*
X153883670Y-80014368D01*
X153872634Y-80032781D01*
X153859846Y-80050024D01*
X153845430Y-80065930D01*
X153829524Y-80080346D01*
X153812281Y-80093134D01*
X153793868Y-80104170D01*
X153774462Y-80113349D01*
X153754250Y-80120581D01*
X153733426Y-80125797D01*
X153712191Y-80128947D01*
X153690750Y-80130000D01*
X153178250Y-80130000D01*
X153156809Y-80128947D01*
X153135574Y-80125797D01*
X153114750Y-80120581D01*
X153094538Y-80113349D01*
X153075132Y-80104170D01*
X153056719Y-80093134D01*
X153039476Y-80080346D01*
X153023570Y-80065930D01*
X153009154Y-80050024D01*
X152996366Y-80032781D01*
X152985330Y-80014368D01*
X152976151Y-79994962D01*
X152968919Y-79974750D01*
X152963703Y-79953926D01*
X152960553Y-79932691D01*
X152959500Y-79911250D01*
X152959500Y-79473750D01*
X152960553Y-79452309D01*
X152963703Y-79431074D01*
X152968919Y-79410250D01*
X152976151Y-79390038D01*
X152985330Y-79370632D01*
X152996366Y-79352219D01*
X153009154Y-79334976D01*
X153023570Y-79319070D01*
X153039476Y-79304654D01*
X153056719Y-79291866D01*
X153075132Y-79280830D01*
X153094538Y-79271651D01*
X153114750Y-79264419D01*
X153135574Y-79259203D01*
X153156809Y-79256053D01*
X153178250Y-79255000D01*
X153690750Y-79255000D01*
X153712191Y-79256053D01*
X153712191Y-79256053D01*
G37*
D14*
X153434500Y-79692500D03*
D10*
G36*
X145692191Y-77681053D02*
G01*
X145713426Y-77684203D01*
X145734250Y-77689419D01*
X145754462Y-77696651D01*
X145773868Y-77705830D01*
X145792281Y-77716866D01*
X145809524Y-77729654D01*
X145825430Y-77744070D01*
X145839846Y-77759976D01*
X145852634Y-77777219D01*
X145863670Y-77795632D01*
X145872849Y-77815038D01*
X145880081Y-77835250D01*
X145885297Y-77856074D01*
X145888447Y-77877309D01*
X145889500Y-77898750D01*
X145889500Y-78336250D01*
X145888447Y-78357691D01*
X145885297Y-78378926D01*
X145880081Y-78399750D01*
X145872849Y-78419962D01*
X145863670Y-78439368D01*
X145852634Y-78457781D01*
X145839846Y-78475024D01*
X145825430Y-78490930D01*
X145809524Y-78505346D01*
X145792281Y-78518134D01*
X145773868Y-78529170D01*
X145754462Y-78538349D01*
X145734250Y-78545581D01*
X145713426Y-78550797D01*
X145692191Y-78553947D01*
X145670750Y-78555000D01*
X145158250Y-78555000D01*
X145136809Y-78553947D01*
X145115574Y-78550797D01*
X145094750Y-78545581D01*
X145074538Y-78538349D01*
X145055132Y-78529170D01*
X145036719Y-78518134D01*
X145019476Y-78505346D01*
X145003570Y-78490930D01*
X144989154Y-78475024D01*
X144976366Y-78457781D01*
X144965330Y-78439368D01*
X144956151Y-78419962D01*
X144948919Y-78399750D01*
X144943703Y-78378926D01*
X144940553Y-78357691D01*
X144939500Y-78336250D01*
X144939500Y-77898750D01*
X144940553Y-77877309D01*
X144943703Y-77856074D01*
X144948919Y-77835250D01*
X144956151Y-77815038D01*
X144965330Y-77795632D01*
X144976366Y-77777219D01*
X144989154Y-77759976D01*
X145003570Y-77744070D01*
X145019476Y-77729654D01*
X145036719Y-77716866D01*
X145055132Y-77705830D01*
X145074538Y-77696651D01*
X145094750Y-77689419D01*
X145115574Y-77684203D01*
X145136809Y-77681053D01*
X145158250Y-77680000D01*
X145670750Y-77680000D01*
X145692191Y-77681053D01*
X145692191Y-77681053D01*
G37*
D14*
X145414500Y-78117500D03*
D10*
G36*
X145692191Y-79256053D02*
G01*
X145713426Y-79259203D01*
X145734250Y-79264419D01*
X145754462Y-79271651D01*
X145773868Y-79280830D01*
X145792281Y-79291866D01*
X145809524Y-79304654D01*
X145825430Y-79319070D01*
X145839846Y-79334976D01*
X145852634Y-79352219D01*
X145863670Y-79370632D01*
X145872849Y-79390038D01*
X145880081Y-79410250D01*
X145885297Y-79431074D01*
X145888447Y-79452309D01*
X145889500Y-79473750D01*
X145889500Y-79911250D01*
X145888447Y-79932691D01*
X145885297Y-79953926D01*
X145880081Y-79974750D01*
X145872849Y-79994962D01*
X145863670Y-80014368D01*
X145852634Y-80032781D01*
X145839846Y-80050024D01*
X145825430Y-80065930D01*
X145809524Y-80080346D01*
X145792281Y-80093134D01*
X145773868Y-80104170D01*
X145754462Y-80113349D01*
X145734250Y-80120581D01*
X145713426Y-80125797D01*
X145692191Y-80128947D01*
X145670750Y-80130000D01*
X145158250Y-80130000D01*
X145136809Y-80128947D01*
X145115574Y-80125797D01*
X145094750Y-80120581D01*
X145074538Y-80113349D01*
X145055132Y-80104170D01*
X145036719Y-80093134D01*
X145019476Y-80080346D01*
X145003570Y-80065930D01*
X144989154Y-80050024D01*
X144976366Y-80032781D01*
X144965330Y-80014368D01*
X144956151Y-79994962D01*
X144948919Y-79974750D01*
X144943703Y-79953926D01*
X144940553Y-79932691D01*
X144939500Y-79911250D01*
X144939500Y-79473750D01*
X144940553Y-79452309D01*
X144943703Y-79431074D01*
X144948919Y-79410250D01*
X144956151Y-79390038D01*
X144965330Y-79370632D01*
X144976366Y-79352219D01*
X144989154Y-79334976D01*
X145003570Y-79319070D01*
X145019476Y-79304654D01*
X145036719Y-79291866D01*
X145055132Y-79280830D01*
X145074538Y-79271651D01*
X145094750Y-79264419D01*
X145115574Y-79259203D01*
X145136809Y-79256053D01*
X145158250Y-79255000D01*
X145670750Y-79255000D01*
X145692191Y-79256053D01*
X145692191Y-79256053D01*
G37*
D14*
X145414500Y-79692500D03*
D10*
G36*
X137672191Y-77681053D02*
G01*
X137693426Y-77684203D01*
X137714250Y-77689419D01*
X137734462Y-77696651D01*
X137753868Y-77705830D01*
X137772281Y-77716866D01*
X137789524Y-77729654D01*
X137805430Y-77744070D01*
X137819846Y-77759976D01*
X137832634Y-77777219D01*
X137843670Y-77795632D01*
X137852849Y-77815038D01*
X137860081Y-77835250D01*
X137865297Y-77856074D01*
X137868447Y-77877309D01*
X137869500Y-77898750D01*
X137869500Y-78336250D01*
X137868447Y-78357691D01*
X137865297Y-78378926D01*
X137860081Y-78399750D01*
X137852849Y-78419962D01*
X137843670Y-78439368D01*
X137832634Y-78457781D01*
X137819846Y-78475024D01*
X137805430Y-78490930D01*
X137789524Y-78505346D01*
X137772281Y-78518134D01*
X137753868Y-78529170D01*
X137734462Y-78538349D01*
X137714250Y-78545581D01*
X137693426Y-78550797D01*
X137672191Y-78553947D01*
X137650750Y-78555000D01*
X137138250Y-78555000D01*
X137116809Y-78553947D01*
X137095574Y-78550797D01*
X137074750Y-78545581D01*
X137054538Y-78538349D01*
X137035132Y-78529170D01*
X137016719Y-78518134D01*
X136999476Y-78505346D01*
X136983570Y-78490930D01*
X136969154Y-78475024D01*
X136956366Y-78457781D01*
X136945330Y-78439368D01*
X136936151Y-78419962D01*
X136928919Y-78399750D01*
X136923703Y-78378926D01*
X136920553Y-78357691D01*
X136919500Y-78336250D01*
X136919500Y-77898750D01*
X136920553Y-77877309D01*
X136923703Y-77856074D01*
X136928919Y-77835250D01*
X136936151Y-77815038D01*
X136945330Y-77795632D01*
X136956366Y-77777219D01*
X136969154Y-77759976D01*
X136983570Y-77744070D01*
X136999476Y-77729654D01*
X137016719Y-77716866D01*
X137035132Y-77705830D01*
X137054538Y-77696651D01*
X137074750Y-77689419D01*
X137095574Y-77684203D01*
X137116809Y-77681053D01*
X137138250Y-77680000D01*
X137650750Y-77680000D01*
X137672191Y-77681053D01*
X137672191Y-77681053D01*
G37*
D14*
X137394500Y-78117500D03*
D10*
G36*
X137672191Y-79256053D02*
G01*
X137693426Y-79259203D01*
X137714250Y-79264419D01*
X137734462Y-79271651D01*
X137753868Y-79280830D01*
X137772281Y-79291866D01*
X137789524Y-79304654D01*
X137805430Y-79319070D01*
X137819846Y-79334976D01*
X137832634Y-79352219D01*
X137843670Y-79370632D01*
X137852849Y-79390038D01*
X137860081Y-79410250D01*
X137865297Y-79431074D01*
X137868447Y-79452309D01*
X137869500Y-79473750D01*
X137869500Y-79911250D01*
X137868447Y-79932691D01*
X137865297Y-79953926D01*
X137860081Y-79974750D01*
X137852849Y-79994962D01*
X137843670Y-80014368D01*
X137832634Y-80032781D01*
X137819846Y-80050024D01*
X137805430Y-80065930D01*
X137789524Y-80080346D01*
X137772281Y-80093134D01*
X137753868Y-80104170D01*
X137734462Y-80113349D01*
X137714250Y-80120581D01*
X137693426Y-80125797D01*
X137672191Y-80128947D01*
X137650750Y-80130000D01*
X137138250Y-80130000D01*
X137116809Y-80128947D01*
X137095574Y-80125797D01*
X137074750Y-80120581D01*
X137054538Y-80113349D01*
X137035132Y-80104170D01*
X137016719Y-80093134D01*
X136999476Y-80080346D01*
X136983570Y-80065930D01*
X136969154Y-80050024D01*
X136956366Y-80032781D01*
X136945330Y-80014368D01*
X136936151Y-79994962D01*
X136928919Y-79974750D01*
X136923703Y-79953926D01*
X136920553Y-79932691D01*
X136919500Y-79911250D01*
X136919500Y-79473750D01*
X136920553Y-79452309D01*
X136923703Y-79431074D01*
X136928919Y-79410250D01*
X136936151Y-79390038D01*
X136945330Y-79370632D01*
X136956366Y-79352219D01*
X136969154Y-79334976D01*
X136983570Y-79319070D01*
X136999476Y-79304654D01*
X137016719Y-79291866D01*
X137035132Y-79280830D01*
X137054538Y-79271651D01*
X137074750Y-79264419D01*
X137095574Y-79259203D01*
X137116809Y-79256053D01*
X137138250Y-79255000D01*
X137650750Y-79255000D01*
X137672191Y-79256053D01*
X137672191Y-79256053D01*
G37*
D14*
X137394500Y-79692500D03*
D10*
G36*
X129652191Y-77681053D02*
G01*
X129673426Y-77684203D01*
X129694250Y-77689419D01*
X129714462Y-77696651D01*
X129733868Y-77705830D01*
X129752281Y-77716866D01*
X129769524Y-77729654D01*
X129785430Y-77744070D01*
X129799846Y-77759976D01*
X129812634Y-77777219D01*
X129823670Y-77795632D01*
X129832849Y-77815038D01*
X129840081Y-77835250D01*
X129845297Y-77856074D01*
X129848447Y-77877309D01*
X129849500Y-77898750D01*
X129849500Y-78336250D01*
X129848447Y-78357691D01*
X129845297Y-78378926D01*
X129840081Y-78399750D01*
X129832849Y-78419962D01*
X129823670Y-78439368D01*
X129812634Y-78457781D01*
X129799846Y-78475024D01*
X129785430Y-78490930D01*
X129769524Y-78505346D01*
X129752281Y-78518134D01*
X129733868Y-78529170D01*
X129714462Y-78538349D01*
X129694250Y-78545581D01*
X129673426Y-78550797D01*
X129652191Y-78553947D01*
X129630750Y-78555000D01*
X129118250Y-78555000D01*
X129096809Y-78553947D01*
X129075574Y-78550797D01*
X129054750Y-78545581D01*
X129034538Y-78538349D01*
X129015132Y-78529170D01*
X128996719Y-78518134D01*
X128979476Y-78505346D01*
X128963570Y-78490930D01*
X128949154Y-78475024D01*
X128936366Y-78457781D01*
X128925330Y-78439368D01*
X128916151Y-78419962D01*
X128908919Y-78399750D01*
X128903703Y-78378926D01*
X128900553Y-78357691D01*
X128899500Y-78336250D01*
X128899500Y-77898750D01*
X128900553Y-77877309D01*
X128903703Y-77856074D01*
X128908919Y-77835250D01*
X128916151Y-77815038D01*
X128925330Y-77795632D01*
X128936366Y-77777219D01*
X128949154Y-77759976D01*
X128963570Y-77744070D01*
X128979476Y-77729654D01*
X128996719Y-77716866D01*
X129015132Y-77705830D01*
X129034538Y-77696651D01*
X129054750Y-77689419D01*
X129075574Y-77684203D01*
X129096809Y-77681053D01*
X129118250Y-77680000D01*
X129630750Y-77680000D01*
X129652191Y-77681053D01*
X129652191Y-77681053D01*
G37*
D14*
X129374500Y-78117500D03*
D10*
G36*
X129652191Y-79256053D02*
G01*
X129673426Y-79259203D01*
X129694250Y-79264419D01*
X129714462Y-79271651D01*
X129733868Y-79280830D01*
X129752281Y-79291866D01*
X129769524Y-79304654D01*
X129785430Y-79319070D01*
X129799846Y-79334976D01*
X129812634Y-79352219D01*
X129823670Y-79370632D01*
X129832849Y-79390038D01*
X129840081Y-79410250D01*
X129845297Y-79431074D01*
X129848447Y-79452309D01*
X129849500Y-79473750D01*
X129849500Y-79911250D01*
X129848447Y-79932691D01*
X129845297Y-79953926D01*
X129840081Y-79974750D01*
X129832849Y-79994962D01*
X129823670Y-80014368D01*
X129812634Y-80032781D01*
X129799846Y-80050024D01*
X129785430Y-80065930D01*
X129769524Y-80080346D01*
X129752281Y-80093134D01*
X129733868Y-80104170D01*
X129714462Y-80113349D01*
X129694250Y-80120581D01*
X129673426Y-80125797D01*
X129652191Y-80128947D01*
X129630750Y-80130000D01*
X129118250Y-80130000D01*
X129096809Y-80128947D01*
X129075574Y-80125797D01*
X129054750Y-80120581D01*
X129034538Y-80113349D01*
X129015132Y-80104170D01*
X128996719Y-80093134D01*
X128979476Y-80080346D01*
X128963570Y-80065930D01*
X128949154Y-80050024D01*
X128936366Y-80032781D01*
X128925330Y-80014368D01*
X128916151Y-79994962D01*
X128908919Y-79974750D01*
X128903703Y-79953926D01*
X128900553Y-79932691D01*
X128899500Y-79911250D01*
X128899500Y-79473750D01*
X128900553Y-79452309D01*
X128903703Y-79431074D01*
X128908919Y-79410250D01*
X128916151Y-79390038D01*
X128925330Y-79370632D01*
X128936366Y-79352219D01*
X128949154Y-79334976D01*
X128963570Y-79319070D01*
X128979476Y-79304654D01*
X128996719Y-79291866D01*
X129015132Y-79280830D01*
X129034538Y-79271651D01*
X129054750Y-79264419D01*
X129075574Y-79259203D01*
X129096809Y-79256053D01*
X129118250Y-79255000D01*
X129630750Y-79255000D01*
X129652191Y-79256053D01*
X129652191Y-79256053D01*
G37*
D14*
X129374500Y-79692500D03*
D10*
G36*
X121632191Y-77681053D02*
G01*
X121653426Y-77684203D01*
X121674250Y-77689419D01*
X121694462Y-77696651D01*
X121713868Y-77705830D01*
X121732281Y-77716866D01*
X121749524Y-77729654D01*
X121765430Y-77744070D01*
X121779846Y-77759976D01*
X121792634Y-77777219D01*
X121803670Y-77795632D01*
X121812849Y-77815038D01*
X121820081Y-77835250D01*
X121825297Y-77856074D01*
X121828447Y-77877309D01*
X121829500Y-77898750D01*
X121829500Y-78336250D01*
X121828447Y-78357691D01*
X121825297Y-78378926D01*
X121820081Y-78399750D01*
X121812849Y-78419962D01*
X121803670Y-78439368D01*
X121792634Y-78457781D01*
X121779846Y-78475024D01*
X121765430Y-78490930D01*
X121749524Y-78505346D01*
X121732281Y-78518134D01*
X121713868Y-78529170D01*
X121694462Y-78538349D01*
X121674250Y-78545581D01*
X121653426Y-78550797D01*
X121632191Y-78553947D01*
X121610750Y-78555000D01*
X121098250Y-78555000D01*
X121076809Y-78553947D01*
X121055574Y-78550797D01*
X121034750Y-78545581D01*
X121014538Y-78538349D01*
X120995132Y-78529170D01*
X120976719Y-78518134D01*
X120959476Y-78505346D01*
X120943570Y-78490930D01*
X120929154Y-78475024D01*
X120916366Y-78457781D01*
X120905330Y-78439368D01*
X120896151Y-78419962D01*
X120888919Y-78399750D01*
X120883703Y-78378926D01*
X120880553Y-78357691D01*
X120879500Y-78336250D01*
X120879500Y-77898750D01*
X120880553Y-77877309D01*
X120883703Y-77856074D01*
X120888919Y-77835250D01*
X120896151Y-77815038D01*
X120905330Y-77795632D01*
X120916366Y-77777219D01*
X120929154Y-77759976D01*
X120943570Y-77744070D01*
X120959476Y-77729654D01*
X120976719Y-77716866D01*
X120995132Y-77705830D01*
X121014538Y-77696651D01*
X121034750Y-77689419D01*
X121055574Y-77684203D01*
X121076809Y-77681053D01*
X121098250Y-77680000D01*
X121610750Y-77680000D01*
X121632191Y-77681053D01*
X121632191Y-77681053D01*
G37*
D14*
X121354500Y-78117500D03*
D10*
G36*
X121632191Y-79256053D02*
G01*
X121653426Y-79259203D01*
X121674250Y-79264419D01*
X121694462Y-79271651D01*
X121713868Y-79280830D01*
X121732281Y-79291866D01*
X121749524Y-79304654D01*
X121765430Y-79319070D01*
X121779846Y-79334976D01*
X121792634Y-79352219D01*
X121803670Y-79370632D01*
X121812849Y-79390038D01*
X121820081Y-79410250D01*
X121825297Y-79431074D01*
X121828447Y-79452309D01*
X121829500Y-79473750D01*
X121829500Y-79911250D01*
X121828447Y-79932691D01*
X121825297Y-79953926D01*
X121820081Y-79974750D01*
X121812849Y-79994962D01*
X121803670Y-80014368D01*
X121792634Y-80032781D01*
X121779846Y-80050024D01*
X121765430Y-80065930D01*
X121749524Y-80080346D01*
X121732281Y-80093134D01*
X121713868Y-80104170D01*
X121694462Y-80113349D01*
X121674250Y-80120581D01*
X121653426Y-80125797D01*
X121632191Y-80128947D01*
X121610750Y-80130000D01*
X121098250Y-80130000D01*
X121076809Y-80128947D01*
X121055574Y-80125797D01*
X121034750Y-80120581D01*
X121014538Y-80113349D01*
X120995132Y-80104170D01*
X120976719Y-80093134D01*
X120959476Y-80080346D01*
X120943570Y-80065930D01*
X120929154Y-80050024D01*
X120916366Y-80032781D01*
X120905330Y-80014368D01*
X120896151Y-79994962D01*
X120888919Y-79974750D01*
X120883703Y-79953926D01*
X120880553Y-79932691D01*
X120879500Y-79911250D01*
X120879500Y-79473750D01*
X120880553Y-79452309D01*
X120883703Y-79431074D01*
X120888919Y-79410250D01*
X120896151Y-79390038D01*
X120905330Y-79370632D01*
X120916366Y-79352219D01*
X120929154Y-79334976D01*
X120943570Y-79319070D01*
X120959476Y-79304654D01*
X120976719Y-79291866D01*
X120995132Y-79280830D01*
X121014538Y-79271651D01*
X121034750Y-79264419D01*
X121055574Y-79259203D01*
X121076809Y-79256053D01*
X121098250Y-79255000D01*
X121610750Y-79255000D01*
X121632191Y-79256053D01*
X121632191Y-79256053D01*
G37*
D14*
X121354500Y-79692500D03*
D10*
G36*
X113612191Y-77681053D02*
G01*
X113633426Y-77684203D01*
X113654250Y-77689419D01*
X113674462Y-77696651D01*
X113693868Y-77705830D01*
X113712281Y-77716866D01*
X113729524Y-77729654D01*
X113745430Y-77744070D01*
X113759846Y-77759976D01*
X113772634Y-77777219D01*
X113783670Y-77795632D01*
X113792849Y-77815038D01*
X113800081Y-77835250D01*
X113805297Y-77856074D01*
X113808447Y-77877309D01*
X113809500Y-77898750D01*
X113809500Y-78336250D01*
X113808447Y-78357691D01*
X113805297Y-78378926D01*
X113800081Y-78399750D01*
X113792849Y-78419962D01*
X113783670Y-78439368D01*
X113772634Y-78457781D01*
X113759846Y-78475024D01*
X113745430Y-78490930D01*
X113729524Y-78505346D01*
X113712281Y-78518134D01*
X113693868Y-78529170D01*
X113674462Y-78538349D01*
X113654250Y-78545581D01*
X113633426Y-78550797D01*
X113612191Y-78553947D01*
X113590750Y-78555000D01*
X113078250Y-78555000D01*
X113056809Y-78553947D01*
X113035574Y-78550797D01*
X113014750Y-78545581D01*
X112994538Y-78538349D01*
X112975132Y-78529170D01*
X112956719Y-78518134D01*
X112939476Y-78505346D01*
X112923570Y-78490930D01*
X112909154Y-78475024D01*
X112896366Y-78457781D01*
X112885330Y-78439368D01*
X112876151Y-78419962D01*
X112868919Y-78399750D01*
X112863703Y-78378926D01*
X112860553Y-78357691D01*
X112859500Y-78336250D01*
X112859500Y-77898750D01*
X112860553Y-77877309D01*
X112863703Y-77856074D01*
X112868919Y-77835250D01*
X112876151Y-77815038D01*
X112885330Y-77795632D01*
X112896366Y-77777219D01*
X112909154Y-77759976D01*
X112923570Y-77744070D01*
X112939476Y-77729654D01*
X112956719Y-77716866D01*
X112975132Y-77705830D01*
X112994538Y-77696651D01*
X113014750Y-77689419D01*
X113035574Y-77684203D01*
X113056809Y-77681053D01*
X113078250Y-77680000D01*
X113590750Y-77680000D01*
X113612191Y-77681053D01*
X113612191Y-77681053D01*
G37*
D14*
X113334500Y-78117500D03*
D10*
G36*
X113612191Y-79256053D02*
G01*
X113633426Y-79259203D01*
X113654250Y-79264419D01*
X113674462Y-79271651D01*
X113693868Y-79280830D01*
X113712281Y-79291866D01*
X113729524Y-79304654D01*
X113745430Y-79319070D01*
X113759846Y-79334976D01*
X113772634Y-79352219D01*
X113783670Y-79370632D01*
X113792849Y-79390038D01*
X113800081Y-79410250D01*
X113805297Y-79431074D01*
X113808447Y-79452309D01*
X113809500Y-79473750D01*
X113809500Y-79911250D01*
X113808447Y-79932691D01*
X113805297Y-79953926D01*
X113800081Y-79974750D01*
X113792849Y-79994962D01*
X113783670Y-80014368D01*
X113772634Y-80032781D01*
X113759846Y-80050024D01*
X113745430Y-80065930D01*
X113729524Y-80080346D01*
X113712281Y-80093134D01*
X113693868Y-80104170D01*
X113674462Y-80113349D01*
X113654250Y-80120581D01*
X113633426Y-80125797D01*
X113612191Y-80128947D01*
X113590750Y-80130000D01*
X113078250Y-80130000D01*
X113056809Y-80128947D01*
X113035574Y-80125797D01*
X113014750Y-80120581D01*
X112994538Y-80113349D01*
X112975132Y-80104170D01*
X112956719Y-80093134D01*
X112939476Y-80080346D01*
X112923570Y-80065930D01*
X112909154Y-80050024D01*
X112896366Y-80032781D01*
X112885330Y-80014368D01*
X112876151Y-79994962D01*
X112868919Y-79974750D01*
X112863703Y-79953926D01*
X112860553Y-79932691D01*
X112859500Y-79911250D01*
X112859500Y-79473750D01*
X112860553Y-79452309D01*
X112863703Y-79431074D01*
X112868919Y-79410250D01*
X112876151Y-79390038D01*
X112885330Y-79370632D01*
X112896366Y-79352219D01*
X112909154Y-79334976D01*
X112923570Y-79319070D01*
X112939476Y-79304654D01*
X112956719Y-79291866D01*
X112975132Y-79280830D01*
X112994538Y-79271651D01*
X113014750Y-79264419D01*
X113035574Y-79259203D01*
X113056809Y-79256053D01*
X113078250Y-79255000D01*
X113590750Y-79255000D01*
X113612191Y-79256053D01*
X113612191Y-79256053D01*
G37*
D14*
X113334500Y-79692500D03*
D10*
G36*
X105592191Y-77681053D02*
G01*
X105613426Y-77684203D01*
X105634250Y-77689419D01*
X105654462Y-77696651D01*
X105673868Y-77705830D01*
X105692281Y-77716866D01*
X105709524Y-77729654D01*
X105725430Y-77744070D01*
X105739846Y-77759976D01*
X105752634Y-77777219D01*
X105763670Y-77795632D01*
X105772849Y-77815038D01*
X105780081Y-77835250D01*
X105785297Y-77856074D01*
X105788447Y-77877309D01*
X105789500Y-77898750D01*
X105789500Y-78336250D01*
X105788447Y-78357691D01*
X105785297Y-78378926D01*
X105780081Y-78399750D01*
X105772849Y-78419962D01*
X105763670Y-78439368D01*
X105752634Y-78457781D01*
X105739846Y-78475024D01*
X105725430Y-78490930D01*
X105709524Y-78505346D01*
X105692281Y-78518134D01*
X105673868Y-78529170D01*
X105654462Y-78538349D01*
X105634250Y-78545581D01*
X105613426Y-78550797D01*
X105592191Y-78553947D01*
X105570750Y-78555000D01*
X105058250Y-78555000D01*
X105036809Y-78553947D01*
X105015574Y-78550797D01*
X104994750Y-78545581D01*
X104974538Y-78538349D01*
X104955132Y-78529170D01*
X104936719Y-78518134D01*
X104919476Y-78505346D01*
X104903570Y-78490930D01*
X104889154Y-78475024D01*
X104876366Y-78457781D01*
X104865330Y-78439368D01*
X104856151Y-78419962D01*
X104848919Y-78399750D01*
X104843703Y-78378926D01*
X104840553Y-78357691D01*
X104839500Y-78336250D01*
X104839500Y-77898750D01*
X104840553Y-77877309D01*
X104843703Y-77856074D01*
X104848919Y-77835250D01*
X104856151Y-77815038D01*
X104865330Y-77795632D01*
X104876366Y-77777219D01*
X104889154Y-77759976D01*
X104903570Y-77744070D01*
X104919476Y-77729654D01*
X104936719Y-77716866D01*
X104955132Y-77705830D01*
X104974538Y-77696651D01*
X104994750Y-77689419D01*
X105015574Y-77684203D01*
X105036809Y-77681053D01*
X105058250Y-77680000D01*
X105570750Y-77680000D01*
X105592191Y-77681053D01*
X105592191Y-77681053D01*
G37*
D14*
X105314500Y-78117500D03*
D10*
G36*
X105592191Y-79256053D02*
G01*
X105613426Y-79259203D01*
X105634250Y-79264419D01*
X105654462Y-79271651D01*
X105673868Y-79280830D01*
X105692281Y-79291866D01*
X105709524Y-79304654D01*
X105725430Y-79319070D01*
X105739846Y-79334976D01*
X105752634Y-79352219D01*
X105763670Y-79370632D01*
X105772849Y-79390038D01*
X105780081Y-79410250D01*
X105785297Y-79431074D01*
X105788447Y-79452309D01*
X105789500Y-79473750D01*
X105789500Y-79911250D01*
X105788447Y-79932691D01*
X105785297Y-79953926D01*
X105780081Y-79974750D01*
X105772849Y-79994962D01*
X105763670Y-80014368D01*
X105752634Y-80032781D01*
X105739846Y-80050024D01*
X105725430Y-80065930D01*
X105709524Y-80080346D01*
X105692281Y-80093134D01*
X105673868Y-80104170D01*
X105654462Y-80113349D01*
X105634250Y-80120581D01*
X105613426Y-80125797D01*
X105592191Y-80128947D01*
X105570750Y-80130000D01*
X105058250Y-80130000D01*
X105036809Y-80128947D01*
X105015574Y-80125797D01*
X104994750Y-80120581D01*
X104974538Y-80113349D01*
X104955132Y-80104170D01*
X104936719Y-80093134D01*
X104919476Y-80080346D01*
X104903570Y-80065930D01*
X104889154Y-80050024D01*
X104876366Y-80032781D01*
X104865330Y-80014368D01*
X104856151Y-79994962D01*
X104848919Y-79974750D01*
X104843703Y-79953926D01*
X104840553Y-79932691D01*
X104839500Y-79911250D01*
X104839500Y-79473750D01*
X104840553Y-79452309D01*
X104843703Y-79431074D01*
X104848919Y-79410250D01*
X104856151Y-79390038D01*
X104865330Y-79370632D01*
X104876366Y-79352219D01*
X104889154Y-79334976D01*
X104903570Y-79319070D01*
X104919476Y-79304654D01*
X104936719Y-79291866D01*
X104955132Y-79280830D01*
X104974538Y-79271651D01*
X104994750Y-79264419D01*
X105015574Y-79259203D01*
X105036809Y-79256053D01*
X105058250Y-79255000D01*
X105570750Y-79255000D01*
X105592191Y-79256053D01*
X105592191Y-79256053D01*
G37*
D14*
X105314500Y-79692500D03*
D10*
G36*
X97572191Y-77681053D02*
G01*
X97593426Y-77684203D01*
X97614250Y-77689419D01*
X97634462Y-77696651D01*
X97653868Y-77705830D01*
X97672281Y-77716866D01*
X97689524Y-77729654D01*
X97705430Y-77744070D01*
X97719846Y-77759976D01*
X97732634Y-77777219D01*
X97743670Y-77795632D01*
X97752849Y-77815038D01*
X97760081Y-77835250D01*
X97765297Y-77856074D01*
X97768447Y-77877309D01*
X97769500Y-77898750D01*
X97769500Y-78336250D01*
X97768447Y-78357691D01*
X97765297Y-78378926D01*
X97760081Y-78399750D01*
X97752849Y-78419962D01*
X97743670Y-78439368D01*
X97732634Y-78457781D01*
X97719846Y-78475024D01*
X97705430Y-78490930D01*
X97689524Y-78505346D01*
X97672281Y-78518134D01*
X97653868Y-78529170D01*
X97634462Y-78538349D01*
X97614250Y-78545581D01*
X97593426Y-78550797D01*
X97572191Y-78553947D01*
X97550750Y-78555000D01*
X97038250Y-78555000D01*
X97016809Y-78553947D01*
X96995574Y-78550797D01*
X96974750Y-78545581D01*
X96954538Y-78538349D01*
X96935132Y-78529170D01*
X96916719Y-78518134D01*
X96899476Y-78505346D01*
X96883570Y-78490930D01*
X96869154Y-78475024D01*
X96856366Y-78457781D01*
X96845330Y-78439368D01*
X96836151Y-78419962D01*
X96828919Y-78399750D01*
X96823703Y-78378926D01*
X96820553Y-78357691D01*
X96819500Y-78336250D01*
X96819500Y-77898750D01*
X96820553Y-77877309D01*
X96823703Y-77856074D01*
X96828919Y-77835250D01*
X96836151Y-77815038D01*
X96845330Y-77795632D01*
X96856366Y-77777219D01*
X96869154Y-77759976D01*
X96883570Y-77744070D01*
X96899476Y-77729654D01*
X96916719Y-77716866D01*
X96935132Y-77705830D01*
X96954538Y-77696651D01*
X96974750Y-77689419D01*
X96995574Y-77684203D01*
X97016809Y-77681053D01*
X97038250Y-77680000D01*
X97550750Y-77680000D01*
X97572191Y-77681053D01*
X97572191Y-77681053D01*
G37*
D14*
X97294500Y-78117500D03*
D10*
G36*
X97572191Y-79256053D02*
G01*
X97593426Y-79259203D01*
X97614250Y-79264419D01*
X97634462Y-79271651D01*
X97653868Y-79280830D01*
X97672281Y-79291866D01*
X97689524Y-79304654D01*
X97705430Y-79319070D01*
X97719846Y-79334976D01*
X97732634Y-79352219D01*
X97743670Y-79370632D01*
X97752849Y-79390038D01*
X97760081Y-79410250D01*
X97765297Y-79431074D01*
X97768447Y-79452309D01*
X97769500Y-79473750D01*
X97769500Y-79911250D01*
X97768447Y-79932691D01*
X97765297Y-79953926D01*
X97760081Y-79974750D01*
X97752849Y-79994962D01*
X97743670Y-80014368D01*
X97732634Y-80032781D01*
X97719846Y-80050024D01*
X97705430Y-80065930D01*
X97689524Y-80080346D01*
X97672281Y-80093134D01*
X97653868Y-80104170D01*
X97634462Y-80113349D01*
X97614250Y-80120581D01*
X97593426Y-80125797D01*
X97572191Y-80128947D01*
X97550750Y-80130000D01*
X97038250Y-80130000D01*
X97016809Y-80128947D01*
X96995574Y-80125797D01*
X96974750Y-80120581D01*
X96954538Y-80113349D01*
X96935132Y-80104170D01*
X96916719Y-80093134D01*
X96899476Y-80080346D01*
X96883570Y-80065930D01*
X96869154Y-80050024D01*
X96856366Y-80032781D01*
X96845330Y-80014368D01*
X96836151Y-79994962D01*
X96828919Y-79974750D01*
X96823703Y-79953926D01*
X96820553Y-79932691D01*
X96819500Y-79911250D01*
X96819500Y-79473750D01*
X96820553Y-79452309D01*
X96823703Y-79431074D01*
X96828919Y-79410250D01*
X96836151Y-79390038D01*
X96845330Y-79370632D01*
X96856366Y-79352219D01*
X96869154Y-79334976D01*
X96883570Y-79319070D01*
X96899476Y-79304654D01*
X96916719Y-79291866D01*
X96935132Y-79280830D01*
X96954538Y-79271651D01*
X96974750Y-79264419D01*
X96995574Y-79259203D01*
X97016809Y-79256053D01*
X97038250Y-79255000D01*
X97550750Y-79255000D01*
X97572191Y-79256053D01*
X97572191Y-79256053D01*
G37*
D14*
X97294500Y-79692500D03*
D10*
G36*
X89552191Y-77681053D02*
G01*
X89573426Y-77684203D01*
X89594250Y-77689419D01*
X89614462Y-77696651D01*
X89633868Y-77705830D01*
X89652281Y-77716866D01*
X89669524Y-77729654D01*
X89685430Y-77744070D01*
X89699846Y-77759976D01*
X89712634Y-77777219D01*
X89723670Y-77795632D01*
X89732849Y-77815038D01*
X89740081Y-77835250D01*
X89745297Y-77856074D01*
X89748447Y-77877309D01*
X89749500Y-77898750D01*
X89749500Y-78336250D01*
X89748447Y-78357691D01*
X89745297Y-78378926D01*
X89740081Y-78399750D01*
X89732849Y-78419962D01*
X89723670Y-78439368D01*
X89712634Y-78457781D01*
X89699846Y-78475024D01*
X89685430Y-78490930D01*
X89669524Y-78505346D01*
X89652281Y-78518134D01*
X89633868Y-78529170D01*
X89614462Y-78538349D01*
X89594250Y-78545581D01*
X89573426Y-78550797D01*
X89552191Y-78553947D01*
X89530750Y-78555000D01*
X89018250Y-78555000D01*
X88996809Y-78553947D01*
X88975574Y-78550797D01*
X88954750Y-78545581D01*
X88934538Y-78538349D01*
X88915132Y-78529170D01*
X88896719Y-78518134D01*
X88879476Y-78505346D01*
X88863570Y-78490930D01*
X88849154Y-78475024D01*
X88836366Y-78457781D01*
X88825330Y-78439368D01*
X88816151Y-78419962D01*
X88808919Y-78399750D01*
X88803703Y-78378926D01*
X88800553Y-78357691D01*
X88799500Y-78336250D01*
X88799500Y-77898750D01*
X88800553Y-77877309D01*
X88803703Y-77856074D01*
X88808919Y-77835250D01*
X88816151Y-77815038D01*
X88825330Y-77795632D01*
X88836366Y-77777219D01*
X88849154Y-77759976D01*
X88863570Y-77744070D01*
X88879476Y-77729654D01*
X88896719Y-77716866D01*
X88915132Y-77705830D01*
X88934538Y-77696651D01*
X88954750Y-77689419D01*
X88975574Y-77684203D01*
X88996809Y-77681053D01*
X89018250Y-77680000D01*
X89530750Y-77680000D01*
X89552191Y-77681053D01*
X89552191Y-77681053D01*
G37*
D14*
X89274500Y-78117500D03*
D10*
G36*
X89552191Y-79256053D02*
G01*
X89573426Y-79259203D01*
X89594250Y-79264419D01*
X89614462Y-79271651D01*
X89633868Y-79280830D01*
X89652281Y-79291866D01*
X89669524Y-79304654D01*
X89685430Y-79319070D01*
X89699846Y-79334976D01*
X89712634Y-79352219D01*
X89723670Y-79370632D01*
X89732849Y-79390038D01*
X89740081Y-79410250D01*
X89745297Y-79431074D01*
X89748447Y-79452309D01*
X89749500Y-79473750D01*
X89749500Y-79911250D01*
X89748447Y-79932691D01*
X89745297Y-79953926D01*
X89740081Y-79974750D01*
X89732849Y-79994962D01*
X89723670Y-80014368D01*
X89712634Y-80032781D01*
X89699846Y-80050024D01*
X89685430Y-80065930D01*
X89669524Y-80080346D01*
X89652281Y-80093134D01*
X89633868Y-80104170D01*
X89614462Y-80113349D01*
X89594250Y-80120581D01*
X89573426Y-80125797D01*
X89552191Y-80128947D01*
X89530750Y-80130000D01*
X89018250Y-80130000D01*
X88996809Y-80128947D01*
X88975574Y-80125797D01*
X88954750Y-80120581D01*
X88934538Y-80113349D01*
X88915132Y-80104170D01*
X88896719Y-80093134D01*
X88879476Y-80080346D01*
X88863570Y-80065930D01*
X88849154Y-80050024D01*
X88836366Y-80032781D01*
X88825330Y-80014368D01*
X88816151Y-79994962D01*
X88808919Y-79974750D01*
X88803703Y-79953926D01*
X88800553Y-79932691D01*
X88799500Y-79911250D01*
X88799500Y-79473750D01*
X88800553Y-79452309D01*
X88803703Y-79431074D01*
X88808919Y-79410250D01*
X88816151Y-79390038D01*
X88825330Y-79370632D01*
X88836366Y-79352219D01*
X88849154Y-79334976D01*
X88863570Y-79319070D01*
X88879476Y-79304654D01*
X88896719Y-79291866D01*
X88915132Y-79280830D01*
X88934538Y-79271651D01*
X88954750Y-79264419D01*
X88975574Y-79259203D01*
X88996809Y-79256053D01*
X89018250Y-79255000D01*
X89530750Y-79255000D01*
X89552191Y-79256053D01*
X89552191Y-79256053D01*
G37*
D14*
X89274500Y-79692500D03*
D10*
G36*
X81532191Y-77681053D02*
G01*
X81553426Y-77684203D01*
X81574250Y-77689419D01*
X81594462Y-77696651D01*
X81613868Y-77705830D01*
X81632281Y-77716866D01*
X81649524Y-77729654D01*
X81665430Y-77744070D01*
X81679846Y-77759976D01*
X81692634Y-77777219D01*
X81703670Y-77795632D01*
X81712849Y-77815038D01*
X81720081Y-77835250D01*
X81725297Y-77856074D01*
X81728447Y-77877309D01*
X81729500Y-77898750D01*
X81729500Y-78336250D01*
X81728447Y-78357691D01*
X81725297Y-78378926D01*
X81720081Y-78399750D01*
X81712849Y-78419962D01*
X81703670Y-78439368D01*
X81692634Y-78457781D01*
X81679846Y-78475024D01*
X81665430Y-78490930D01*
X81649524Y-78505346D01*
X81632281Y-78518134D01*
X81613868Y-78529170D01*
X81594462Y-78538349D01*
X81574250Y-78545581D01*
X81553426Y-78550797D01*
X81532191Y-78553947D01*
X81510750Y-78555000D01*
X80998250Y-78555000D01*
X80976809Y-78553947D01*
X80955574Y-78550797D01*
X80934750Y-78545581D01*
X80914538Y-78538349D01*
X80895132Y-78529170D01*
X80876719Y-78518134D01*
X80859476Y-78505346D01*
X80843570Y-78490930D01*
X80829154Y-78475024D01*
X80816366Y-78457781D01*
X80805330Y-78439368D01*
X80796151Y-78419962D01*
X80788919Y-78399750D01*
X80783703Y-78378926D01*
X80780553Y-78357691D01*
X80779500Y-78336250D01*
X80779500Y-77898750D01*
X80780553Y-77877309D01*
X80783703Y-77856074D01*
X80788919Y-77835250D01*
X80796151Y-77815038D01*
X80805330Y-77795632D01*
X80816366Y-77777219D01*
X80829154Y-77759976D01*
X80843570Y-77744070D01*
X80859476Y-77729654D01*
X80876719Y-77716866D01*
X80895132Y-77705830D01*
X80914538Y-77696651D01*
X80934750Y-77689419D01*
X80955574Y-77684203D01*
X80976809Y-77681053D01*
X80998250Y-77680000D01*
X81510750Y-77680000D01*
X81532191Y-77681053D01*
X81532191Y-77681053D01*
G37*
D14*
X81254500Y-78117500D03*
D10*
G36*
X81532191Y-79256053D02*
G01*
X81553426Y-79259203D01*
X81574250Y-79264419D01*
X81594462Y-79271651D01*
X81613868Y-79280830D01*
X81632281Y-79291866D01*
X81649524Y-79304654D01*
X81665430Y-79319070D01*
X81679846Y-79334976D01*
X81692634Y-79352219D01*
X81703670Y-79370632D01*
X81712849Y-79390038D01*
X81720081Y-79410250D01*
X81725297Y-79431074D01*
X81728447Y-79452309D01*
X81729500Y-79473750D01*
X81729500Y-79911250D01*
X81728447Y-79932691D01*
X81725297Y-79953926D01*
X81720081Y-79974750D01*
X81712849Y-79994962D01*
X81703670Y-80014368D01*
X81692634Y-80032781D01*
X81679846Y-80050024D01*
X81665430Y-80065930D01*
X81649524Y-80080346D01*
X81632281Y-80093134D01*
X81613868Y-80104170D01*
X81594462Y-80113349D01*
X81574250Y-80120581D01*
X81553426Y-80125797D01*
X81532191Y-80128947D01*
X81510750Y-80130000D01*
X80998250Y-80130000D01*
X80976809Y-80128947D01*
X80955574Y-80125797D01*
X80934750Y-80120581D01*
X80914538Y-80113349D01*
X80895132Y-80104170D01*
X80876719Y-80093134D01*
X80859476Y-80080346D01*
X80843570Y-80065930D01*
X80829154Y-80050024D01*
X80816366Y-80032781D01*
X80805330Y-80014368D01*
X80796151Y-79994962D01*
X80788919Y-79974750D01*
X80783703Y-79953926D01*
X80780553Y-79932691D01*
X80779500Y-79911250D01*
X80779500Y-79473750D01*
X80780553Y-79452309D01*
X80783703Y-79431074D01*
X80788919Y-79410250D01*
X80796151Y-79390038D01*
X80805330Y-79370632D01*
X80816366Y-79352219D01*
X80829154Y-79334976D01*
X80843570Y-79319070D01*
X80859476Y-79304654D01*
X80876719Y-79291866D01*
X80895132Y-79280830D01*
X80914538Y-79271651D01*
X80934750Y-79264419D01*
X80955574Y-79259203D01*
X80976809Y-79256053D01*
X80998250Y-79255000D01*
X81510750Y-79255000D01*
X81532191Y-79256053D01*
X81532191Y-79256053D01*
G37*
D14*
X81254500Y-79692500D03*
D10*
G36*
X73512191Y-77681053D02*
G01*
X73533426Y-77684203D01*
X73554250Y-77689419D01*
X73574462Y-77696651D01*
X73593868Y-77705830D01*
X73612281Y-77716866D01*
X73629524Y-77729654D01*
X73645430Y-77744070D01*
X73659846Y-77759976D01*
X73672634Y-77777219D01*
X73683670Y-77795632D01*
X73692849Y-77815038D01*
X73700081Y-77835250D01*
X73705297Y-77856074D01*
X73708447Y-77877309D01*
X73709500Y-77898750D01*
X73709500Y-78336250D01*
X73708447Y-78357691D01*
X73705297Y-78378926D01*
X73700081Y-78399750D01*
X73692849Y-78419962D01*
X73683670Y-78439368D01*
X73672634Y-78457781D01*
X73659846Y-78475024D01*
X73645430Y-78490930D01*
X73629524Y-78505346D01*
X73612281Y-78518134D01*
X73593868Y-78529170D01*
X73574462Y-78538349D01*
X73554250Y-78545581D01*
X73533426Y-78550797D01*
X73512191Y-78553947D01*
X73490750Y-78555000D01*
X72978250Y-78555000D01*
X72956809Y-78553947D01*
X72935574Y-78550797D01*
X72914750Y-78545581D01*
X72894538Y-78538349D01*
X72875132Y-78529170D01*
X72856719Y-78518134D01*
X72839476Y-78505346D01*
X72823570Y-78490930D01*
X72809154Y-78475024D01*
X72796366Y-78457781D01*
X72785330Y-78439368D01*
X72776151Y-78419962D01*
X72768919Y-78399750D01*
X72763703Y-78378926D01*
X72760553Y-78357691D01*
X72759500Y-78336250D01*
X72759500Y-77898750D01*
X72760553Y-77877309D01*
X72763703Y-77856074D01*
X72768919Y-77835250D01*
X72776151Y-77815038D01*
X72785330Y-77795632D01*
X72796366Y-77777219D01*
X72809154Y-77759976D01*
X72823570Y-77744070D01*
X72839476Y-77729654D01*
X72856719Y-77716866D01*
X72875132Y-77705830D01*
X72894538Y-77696651D01*
X72914750Y-77689419D01*
X72935574Y-77684203D01*
X72956809Y-77681053D01*
X72978250Y-77680000D01*
X73490750Y-77680000D01*
X73512191Y-77681053D01*
X73512191Y-77681053D01*
G37*
D14*
X73234500Y-78117500D03*
D10*
G36*
X73512191Y-79256053D02*
G01*
X73533426Y-79259203D01*
X73554250Y-79264419D01*
X73574462Y-79271651D01*
X73593868Y-79280830D01*
X73612281Y-79291866D01*
X73629524Y-79304654D01*
X73645430Y-79319070D01*
X73659846Y-79334976D01*
X73672634Y-79352219D01*
X73683670Y-79370632D01*
X73692849Y-79390038D01*
X73700081Y-79410250D01*
X73705297Y-79431074D01*
X73708447Y-79452309D01*
X73709500Y-79473750D01*
X73709500Y-79911250D01*
X73708447Y-79932691D01*
X73705297Y-79953926D01*
X73700081Y-79974750D01*
X73692849Y-79994962D01*
X73683670Y-80014368D01*
X73672634Y-80032781D01*
X73659846Y-80050024D01*
X73645430Y-80065930D01*
X73629524Y-80080346D01*
X73612281Y-80093134D01*
X73593868Y-80104170D01*
X73574462Y-80113349D01*
X73554250Y-80120581D01*
X73533426Y-80125797D01*
X73512191Y-80128947D01*
X73490750Y-80130000D01*
X72978250Y-80130000D01*
X72956809Y-80128947D01*
X72935574Y-80125797D01*
X72914750Y-80120581D01*
X72894538Y-80113349D01*
X72875132Y-80104170D01*
X72856719Y-80093134D01*
X72839476Y-80080346D01*
X72823570Y-80065930D01*
X72809154Y-80050024D01*
X72796366Y-80032781D01*
X72785330Y-80014368D01*
X72776151Y-79994962D01*
X72768919Y-79974750D01*
X72763703Y-79953926D01*
X72760553Y-79932691D01*
X72759500Y-79911250D01*
X72759500Y-79473750D01*
X72760553Y-79452309D01*
X72763703Y-79431074D01*
X72768919Y-79410250D01*
X72776151Y-79390038D01*
X72785330Y-79370632D01*
X72796366Y-79352219D01*
X72809154Y-79334976D01*
X72823570Y-79319070D01*
X72839476Y-79304654D01*
X72856719Y-79291866D01*
X72875132Y-79280830D01*
X72894538Y-79271651D01*
X72914750Y-79264419D01*
X72935574Y-79259203D01*
X72956809Y-79256053D01*
X72978250Y-79255000D01*
X73490750Y-79255000D01*
X73512191Y-79256053D01*
X73512191Y-79256053D01*
G37*
D14*
X73234500Y-79692500D03*
D15*
X170765500Y-64604500D03*
X166165500Y-64604500D03*
X168465500Y-64604500D03*
D16*
X168465500Y-70904500D03*
D10*
G36*
X151713191Y-66899553D02*
G01*
X151734426Y-66902703D01*
X151755250Y-66907919D01*
X151775462Y-66915151D01*
X151794868Y-66924330D01*
X151813281Y-66935366D01*
X151830524Y-66948154D01*
X151846430Y-66962570D01*
X151860846Y-66978476D01*
X151873634Y-66995719D01*
X151884670Y-67014132D01*
X151893849Y-67033538D01*
X151901081Y-67053750D01*
X151906297Y-67074574D01*
X151909447Y-67095809D01*
X151910500Y-67117250D01*
X151910500Y-67629750D01*
X151909447Y-67651191D01*
X151906297Y-67672426D01*
X151901081Y-67693250D01*
X151893849Y-67713462D01*
X151884670Y-67732868D01*
X151873634Y-67751281D01*
X151860846Y-67768524D01*
X151846430Y-67784430D01*
X151830524Y-67798846D01*
X151813281Y-67811634D01*
X151794868Y-67822670D01*
X151775462Y-67831849D01*
X151755250Y-67839081D01*
X151734426Y-67844297D01*
X151713191Y-67847447D01*
X151691750Y-67848500D01*
X151254250Y-67848500D01*
X151232809Y-67847447D01*
X151211574Y-67844297D01*
X151190750Y-67839081D01*
X151170538Y-67831849D01*
X151151132Y-67822670D01*
X151132719Y-67811634D01*
X151115476Y-67798846D01*
X151099570Y-67784430D01*
X151085154Y-67768524D01*
X151072366Y-67751281D01*
X151061330Y-67732868D01*
X151052151Y-67713462D01*
X151044919Y-67693250D01*
X151039703Y-67672426D01*
X151036553Y-67651191D01*
X151035500Y-67629750D01*
X151035500Y-67117250D01*
X151036553Y-67095809D01*
X151039703Y-67074574D01*
X151044919Y-67053750D01*
X151052151Y-67033538D01*
X151061330Y-67014132D01*
X151072366Y-66995719D01*
X151085154Y-66978476D01*
X151099570Y-66962570D01*
X151115476Y-66948154D01*
X151132719Y-66935366D01*
X151151132Y-66924330D01*
X151170538Y-66915151D01*
X151190750Y-66907919D01*
X151211574Y-66902703D01*
X151232809Y-66899553D01*
X151254250Y-66898500D01*
X151691750Y-66898500D01*
X151713191Y-66899553D01*
X151713191Y-66899553D01*
G37*
D14*
X151473000Y-67373500D03*
D10*
G36*
X150138191Y-66899553D02*
G01*
X150159426Y-66902703D01*
X150180250Y-66907919D01*
X150200462Y-66915151D01*
X150219868Y-66924330D01*
X150238281Y-66935366D01*
X150255524Y-66948154D01*
X150271430Y-66962570D01*
X150285846Y-66978476D01*
X150298634Y-66995719D01*
X150309670Y-67014132D01*
X150318849Y-67033538D01*
X150326081Y-67053750D01*
X150331297Y-67074574D01*
X150334447Y-67095809D01*
X150335500Y-67117250D01*
X150335500Y-67629750D01*
X150334447Y-67651191D01*
X150331297Y-67672426D01*
X150326081Y-67693250D01*
X150318849Y-67713462D01*
X150309670Y-67732868D01*
X150298634Y-67751281D01*
X150285846Y-67768524D01*
X150271430Y-67784430D01*
X150255524Y-67798846D01*
X150238281Y-67811634D01*
X150219868Y-67822670D01*
X150200462Y-67831849D01*
X150180250Y-67839081D01*
X150159426Y-67844297D01*
X150138191Y-67847447D01*
X150116750Y-67848500D01*
X149679250Y-67848500D01*
X149657809Y-67847447D01*
X149636574Y-67844297D01*
X149615750Y-67839081D01*
X149595538Y-67831849D01*
X149576132Y-67822670D01*
X149557719Y-67811634D01*
X149540476Y-67798846D01*
X149524570Y-67784430D01*
X149510154Y-67768524D01*
X149497366Y-67751281D01*
X149486330Y-67732868D01*
X149477151Y-67713462D01*
X149469919Y-67693250D01*
X149464703Y-67672426D01*
X149461553Y-67651191D01*
X149460500Y-67629750D01*
X149460500Y-67117250D01*
X149461553Y-67095809D01*
X149464703Y-67074574D01*
X149469919Y-67053750D01*
X149477151Y-67033538D01*
X149486330Y-67014132D01*
X149497366Y-66995719D01*
X149510154Y-66978476D01*
X149524570Y-66962570D01*
X149540476Y-66948154D01*
X149557719Y-66935366D01*
X149576132Y-66924330D01*
X149595538Y-66915151D01*
X149615750Y-66907919D01*
X149636574Y-66902703D01*
X149657809Y-66899553D01*
X149679250Y-66898500D01*
X150116750Y-66898500D01*
X150138191Y-66899553D01*
X150138191Y-66899553D01*
G37*
D14*
X149898000Y-67373500D03*
D17*
X152839500Y-57856000D03*
X152839500Y-63306000D03*
X161739500Y-57856000D03*
X161739500Y-63306000D03*
D18*
X155689500Y-63406000D03*
X156489500Y-63406000D03*
X157289500Y-63406000D03*
X158089500Y-63406000D03*
X158889500Y-63406000D03*
D13*
X67678500Y-79094500D03*
X70878500Y-79094500D03*
X67678500Y-74194500D03*
X70878500Y-74194500D03*
D10*
G36*
X151788691Y-71026553D02*
G01*
X151809926Y-71029703D01*
X151830750Y-71034919D01*
X151850962Y-71042151D01*
X151870368Y-71051330D01*
X151888781Y-71062366D01*
X151906024Y-71075154D01*
X151921930Y-71089570D01*
X151936346Y-71105476D01*
X151949134Y-71122719D01*
X151960170Y-71141132D01*
X151969349Y-71160538D01*
X151976581Y-71180750D01*
X151981797Y-71201574D01*
X151984947Y-71222809D01*
X151986000Y-71244250D01*
X151986000Y-71681750D01*
X151984947Y-71703191D01*
X151981797Y-71724426D01*
X151976581Y-71745250D01*
X151969349Y-71765462D01*
X151960170Y-71784868D01*
X151949134Y-71803281D01*
X151936346Y-71820524D01*
X151921930Y-71836430D01*
X151906024Y-71850846D01*
X151888781Y-71863634D01*
X151870368Y-71874670D01*
X151850962Y-71883849D01*
X151830750Y-71891081D01*
X151809926Y-71896297D01*
X151788691Y-71899447D01*
X151767250Y-71900500D01*
X151254750Y-71900500D01*
X151233309Y-71899447D01*
X151212074Y-71896297D01*
X151191250Y-71891081D01*
X151171038Y-71883849D01*
X151151632Y-71874670D01*
X151133219Y-71863634D01*
X151115976Y-71850846D01*
X151100070Y-71836430D01*
X151085654Y-71820524D01*
X151072866Y-71803281D01*
X151061830Y-71784868D01*
X151052651Y-71765462D01*
X151045419Y-71745250D01*
X151040203Y-71724426D01*
X151037053Y-71703191D01*
X151036000Y-71681750D01*
X151036000Y-71244250D01*
X151037053Y-71222809D01*
X151040203Y-71201574D01*
X151045419Y-71180750D01*
X151052651Y-71160538D01*
X151061830Y-71141132D01*
X151072866Y-71122719D01*
X151085654Y-71105476D01*
X151100070Y-71089570D01*
X151115976Y-71075154D01*
X151133219Y-71062366D01*
X151151632Y-71051330D01*
X151171038Y-71042151D01*
X151191250Y-71034919D01*
X151212074Y-71029703D01*
X151233309Y-71026553D01*
X151254750Y-71025500D01*
X151767250Y-71025500D01*
X151788691Y-71026553D01*
X151788691Y-71026553D01*
G37*
D14*
X151511000Y-71463000D03*
D10*
G36*
X151788691Y-69451553D02*
G01*
X151809926Y-69454703D01*
X151830750Y-69459919D01*
X151850962Y-69467151D01*
X151870368Y-69476330D01*
X151888781Y-69487366D01*
X151906024Y-69500154D01*
X151921930Y-69514570D01*
X151936346Y-69530476D01*
X151949134Y-69547719D01*
X151960170Y-69566132D01*
X151969349Y-69585538D01*
X151976581Y-69605750D01*
X151981797Y-69626574D01*
X151984947Y-69647809D01*
X151986000Y-69669250D01*
X151986000Y-70106750D01*
X151984947Y-70128191D01*
X151981797Y-70149426D01*
X151976581Y-70170250D01*
X151969349Y-70190462D01*
X151960170Y-70209868D01*
X151949134Y-70228281D01*
X151936346Y-70245524D01*
X151921930Y-70261430D01*
X151906024Y-70275846D01*
X151888781Y-70288634D01*
X151870368Y-70299670D01*
X151850962Y-70308849D01*
X151830750Y-70316081D01*
X151809926Y-70321297D01*
X151788691Y-70324447D01*
X151767250Y-70325500D01*
X151254750Y-70325500D01*
X151233309Y-70324447D01*
X151212074Y-70321297D01*
X151191250Y-70316081D01*
X151171038Y-70308849D01*
X151151632Y-70299670D01*
X151133219Y-70288634D01*
X151115976Y-70275846D01*
X151100070Y-70261430D01*
X151085654Y-70245524D01*
X151072866Y-70228281D01*
X151061830Y-70209868D01*
X151052651Y-70190462D01*
X151045419Y-70170250D01*
X151040203Y-70149426D01*
X151037053Y-70128191D01*
X151036000Y-70106750D01*
X151036000Y-69669250D01*
X151037053Y-69647809D01*
X151040203Y-69626574D01*
X151045419Y-69605750D01*
X151052651Y-69585538D01*
X151061830Y-69566132D01*
X151072866Y-69547719D01*
X151085654Y-69530476D01*
X151100070Y-69514570D01*
X151115976Y-69500154D01*
X151133219Y-69487366D01*
X151151632Y-69476330D01*
X151171038Y-69467151D01*
X151191250Y-69459919D01*
X151212074Y-69454703D01*
X151233309Y-69451553D01*
X151254750Y-69450500D01*
X151767250Y-69450500D01*
X151788691Y-69451553D01*
X151788691Y-69451553D01*
G37*
D14*
X151511000Y-69888000D03*
D10*
G36*
X164171191Y-66708553D02*
G01*
X164192426Y-66711703D01*
X164213250Y-66716919D01*
X164233462Y-66724151D01*
X164252868Y-66733330D01*
X164271281Y-66744366D01*
X164288524Y-66757154D01*
X164304430Y-66771570D01*
X164318846Y-66787476D01*
X164331634Y-66804719D01*
X164342670Y-66823132D01*
X164351849Y-66842538D01*
X164359081Y-66862750D01*
X164364297Y-66883574D01*
X164367447Y-66904809D01*
X164368500Y-66926250D01*
X164368500Y-67363750D01*
X164367447Y-67385191D01*
X164364297Y-67406426D01*
X164359081Y-67427250D01*
X164351849Y-67447462D01*
X164342670Y-67466868D01*
X164331634Y-67485281D01*
X164318846Y-67502524D01*
X164304430Y-67518430D01*
X164288524Y-67532846D01*
X164271281Y-67545634D01*
X164252868Y-67556670D01*
X164233462Y-67565849D01*
X164213250Y-67573081D01*
X164192426Y-67578297D01*
X164171191Y-67581447D01*
X164149750Y-67582500D01*
X163637250Y-67582500D01*
X163615809Y-67581447D01*
X163594574Y-67578297D01*
X163573750Y-67573081D01*
X163553538Y-67565849D01*
X163534132Y-67556670D01*
X163515719Y-67545634D01*
X163498476Y-67532846D01*
X163482570Y-67518430D01*
X163468154Y-67502524D01*
X163455366Y-67485281D01*
X163444330Y-67466868D01*
X163435151Y-67447462D01*
X163427919Y-67427250D01*
X163422703Y-67406426D01*
X163419553Y-67385191D01*
X163418500Y-67363750D01*
X163418500Y-66926250D01*
X163419553Y-66904809D01*
X163422703Y-66883574D01*
X163427919Y-66862750D01*
X163435151Y-66842538D01*
X163444330Y-66823132D01*
X163455366Y-66804719D01*
X163468154Y-66787476D01*
X163482570Y-66771570D01*
X163498476Y-66757154D01*
X163515719Y-66744366D01*
X163534132Y-66733330D01*
X163553538Y-66724151D01*
X163573750Y-66716919D01*
X163594574Y-66711703D01*
X163615809Y-66708553D01*
X163637250Y-66707500D01*
X164149750Y-66707500D01*
X164171191Y-66708553D01*
X164171191Y-66708553D01*
G37*
D14*
X163893500Y-67145000D03*
D10*
G36*
X164171191Y-65133553D02*
G01*
X164192426Y-65136703D01*
X164213250Y-65141919D01*
X164233462Y-65149151D01*
X164252868Y-65158330D01*
X164271281Y-65169366D01*
X164288524Y-65182154D01*
X164304430Y-65196570D01*
X164318846Y-65212476D01*
X164331634Y-65229719D01*
X164342670Y-65248132D01*
X164351849Y-65267538D01*
X164359081Y-65287750D01*
X164364297Y-65308574D01*
X164367447Y-65329809D01*
X164368500Y-65351250D01*
X164368500Y-65788750D01*
X164367447Y-65810191D01*
X164364297Y-65831426D01*
X164359081Y-65852250D01*
X164351849Y-65872462D01*
X164342670Y-65891868D01*
X164331634Y-65910281D01*
X164318846Y-65927524D01*
X164304430Y-65943430D01*
X164288524Y-65957846D01*
X164271281Y-65970634D01*
X164252868Y-65981670D01*
X164233462Y-65990849D01*
X164213250Y-65998081D01*
X164192426Y-66003297D01*
X164171191Y-66006447D01*
X164149750Y-66007500D01*
X163637250Y-66007500D01*
X163615809Y-66006447D01*
X163594574Y-66003297D01*
X163573750Y-65998081D01*
X163553538Y-65990849D01*
X163534132Y-65981670D01*
X163515719Y-65970634D01*
X163498476Y-65957846D01*
X163482570Y-65943430D01*
X163468154Y-65927524D01*
X163455366Y-65910281D01*
X163444330Y-65891868D01*
X163435151Y-65872462D01*
X163427919Y-65852250D01*
X163422703Y-65831426D01*
X163419553Y-65810191D01*
X163418500Y-65788750D01*
X163418500Y-65351250D01*
X163419553Y-65329809D01*
X163422703Y-65308574D01*
X163427919Y-65287750D01*
X163435151Y-65267538D01*
X163444330Y-65248132D01*
X163455366Y-65229719D01*
X163468154Y-65212476D01*
X163482570Y-65196570D01*
X163498476Y-65182154D01*
X163515719Y-65169366D01*
X163534132Y-65158330D01*
X163553538Y-65149151D01*
X163573750Y-65141919D01*
X163594574Y-65136703D01*
X163615809Y-65133553D01*
X163637250Y-65132500D01*
X164149750Y-65132500D01*
X164171191Y-65133553D01*
X164171191Y-65133553D01*
G37*
D14*
X163893500Y-65570000D03*
D10*
G36*
X65492191Y-79256053D02*
G01*
X65513426Y-79259203D01*
X65534250Y-79264419D01*
X65554462Y-79271651D01*
X65573868Y-79280830D01*
X65592281Y-79291866D01*
X65609524Y-79304654D01*
X65625430Y-79319070D01*
X65639846Y-79334976D01*
X65652634Y-79352219D01*
X65663670Y-79370632D01*
X65672849Y-79390038D01*
X65680081Y-79410250D01*
X65685297Y-79431074D01*
X65688447Y-79452309D01*
X65689500Y-79473750D01*
X65689500Y-79911250D01*
X65688447Y-79932691D01*
X65685297Y-79953926D01*
X65680081Y-79974750D01*
X65672849Y-79994962D01*
X65663670Y-80014368D01*
X65652634Y-80032781D01*
X65639846Y-80050024D01*
X65625430Y-80065930D01*
X65609524Y-80080346D01*
X65592281Y-80093134D01*
X65573868Y-80104170D01*
X65554462Y-80113349D01*
X65534250Y-80120581D01*
X65513426Y-80125797D01*
X65492191Y-80128947D01*
X65470750Y-80130000D01*
X64958250Y-80130000D01*
X64936809Y-80128947D01*
X64915574Y-80125797D01*
X64894750Y-80120581D01*
X64874538Y-80113349D01*
X64855132Y-80104170D01*
X64836719Y-80093134D01*
X64819476Y-80080346D01*
X64803570Y-80065930D01*
X64789154Y-80050024D01*
X64776366Y-80032781D01*
X64765330Y-80014368D01*
X64756151Y-79994962D01*
X64748919Y-79974750D01*
X64743703Y-79953926D01*
X64740553Y-79932691D01*
X64739500Y-79911250D01*
X64739500Y-79473750D01*
X64740553Y-79452309D01*
X64743703Y-79431074D01*
X64748919Y-79410250D01*
X64756151Y-79390038D01*
X64765330Y-79370632D01*
X64776366Y-79352219D01*
X64789154Y-79334976D01*
X64803570Y-79319070D01*
X64819476Y-79304654D01*
X64836719Y-79291866D01*
X64855132Y-79280830D01*
X64874538Y-79271651D01*
X64894750Y-79264419D01*
X64915574Y-79259203D01*
X64936809Y-79256053D01*
X64958250Y-79255000D01*
X65470750Y-79255000D01*
X65492191Y-79256053D01*
X65492191Y-79256053D01*
G37*
D14*
X65214500Y-79692500D03*
D10*
G36*
X65492191Y-77681053D02*
G01*
X65513426Y-77684203D01*
X65534250Y-77689419D01*
X65554462Y-77696651D01*
X65573868Y-77705830D01*
X65592281Y-77716866D01*
X65609524Y-77729654D01*
X65625430Y-77744070D01*
X65639846Y-77759976D01*
X65652634Y-77777219D01*
X65663670Y-77795632D01*
X65672849Y-77815038D01*
X65680081Y-77835250D01*
X65685297Y-77856074D01*
X65688447Y-77877309D01*
X65689500Y-77898750D01*
X65689500Y-78336250D01*
X65688447Y-78357691D01*
X65685297Y-78378926D01*
X65680081Y-78399750D01*
X65672849Y-78419962D01*
X65663670Y-78439368D01*
X65652634Y-78457781D01*
X65639846Y-78475024D01*
X65625430Y-78490930D01*
X65609524Y-78505346D01*
X65592281Y-78518134D01*
X65573868Y-78529170D01*
X65554462Y-78538349D01*
X65534250Y-78545581D01*
X65513426Y-78550797D01*
X65492191Y-78553947D01*
X65470750Y-78555000D01*
X64958250Y-78555000D01*
X64936809Y-78553947D01*
X64915574Y-78550797D01*
X64894750Y-78545581D01*
X64874538Y-78538349D01*
X64855132Y-78529170D01*
X64836719Y-78518134D01*
X64819476Y-78505346D01*
X64803570Y-78490930D01*
X64789154Y-78475024D01*
X64776366Y-78457781D01*
X64765330Y-78439368D01*
X64756151Y-78419962D01*
X64748919Y-78399750D01*
X64743703Y-78378926D01*
X64740553Y-78357691D01*
X64739500Y-78336250D01*
X64739500Y-77898750D01*
X64740553Y-77877309D01*
X64743703Y-77856074D01*
X64748919Y-77835250D01*
X64756151Y-77815038D01*
X64765330Y-77795632D01*
X64776366Y-77777219D01*
X64789154Y-77759976D01*
X64803570Y-77744070D01*
X64819476Y-77729654D01*
X64836719Y-77716866D01*
X64855132Y-77705830D01*
X64874538Y-77696651D01*
X64894750Y-77689419D01*
X64915574Y-77684203D01*
X64936809Y-77681053D01*
X64958250Y-77680000D01*
X65470750Y-77680000D01*
X65492191Y-77681053D01*
X65492191Y-77681053D01*
G37*
D14*
X65214500Y-78117500D03*
D10*
G36*
X171029191Y-60460053D02*
G01*
X171050426Y-60463203D01*
X171071250Y-60468419D01*
X171091462Y-60475651D01*
X171110868Y-60484830D01*
X171129281Y-60495866D01*
X171146524Y-60508654D01*
X171162430Y-60523070D01*
X171176846Y-60538976D01*
X171189634Y-60556219D01*
X171200670Y-60574632D01*
X171209849Y-60594038D01*
X171217081Y-60614250D01*
X171222297Y-60635074D01*
X171225447Y-60656309D01*
X171226500Y-60677750D01*
X171226500Y-61115250D01*
X171225447Y-61136691D01*
X171222297Y-61157926D01*
X171217081Y-61178750D01*
X171209849Y-61198962D01*
X171200670Y-61218368D01*
X171189634Y-61236781D01*
X171176846Y-61254024D01*
X171162430Y-61269930D01*
X171146524Y-61284346D01*
X171129281Y-61297134D01*
X171110868Y-61308170D01*
X171091462Y-61317349D01*
X171071250Y-61324581D01*
X171050426Y-61329797D01*
X171029191Y-61332947D01*
X171007750Y-61334000D01*
X170495250Y-61334000D01*
X170473809Y-61332947D01*
X170452574Y-61329797D01*
X170431750Y-61324581D01*
X170411538Y-61317349D01*
X170392132Y-61308170D01*
X170373719Y-61297134D01*
X170356476Y-61284346D01*
X170340570Y-61269930D01*
X170326154Y-61254024D01*
X170313366Y-61236781D01*
X170302330Y-61218368D01*
X170293151Y-61198962D01*
X170285919Y-61178750D01*
X170280703Y-61157926D01*
X170277553Y-61136691D01*
X170276500Y-61115250D01*
X170276500Y-60677750D01*
X170277553Y-60656309D01*
X170280703Y-60635074D01*
X170285919Y-60614250D01*
X170293151Y-60594038D01*
X170302330Y-60574632D01*
X170313366Y-60556219D01*
X170326154Y-60538976D01*
X170340570Y-60523070D01*
X170356476Y-60508654D01*
X170373719Y-60495866D01*
X170392132Y-60484830D01*
X170411538Y-60475651D01*
X170431750Y-60468419D01*
X170452574Y-60463203D01*
X170473809Y-60460053D01*
X170495250Y-60459000D01*
X171007750Y-60459000D01*
X171029191Y-60460053D01*
X171029191Y-60460053D01*
G37*
D14*
X170751500Y-60896500D03*
D10*
G36*
X171029191Y-62035053D02*
G01*
X171050426Y-62038203D01*
X171071250Y-62043419D01*
X171091462Y-62050651D01*
X171110868Y-62059830D01*
X171129281Y-62070866D01*
X171146524Y-62083654D01*
X171162430Y-62098070D01*
X171176846Y-62113976D01*
X171189634Y-62131219D01*
X171200670Y-62149632D01*
X171209849Y-62169038D01*
X171217081Y-62189250D01*
X171222297Y-62210074D01*
X171225447Y-62231309D01*
X171226500Y-62252750D01*
X171226500Y-62690250D01*
X171225447Y-62711691D01*
X171222297Y-62732926D01*
X171217081Y-62753750D01*
X171209849Y-62773962D01*
X171200670Y-62793368D01*
X171189634Y-62811781D01*
X171176846Y-62829024D01*
X171162430Y-62844930D01*
X171146524Y-62859346D01*
X171129281Y-62872134D01*
X171110868Y-62883170D01*
X171091462Y-62892349D01*
X171071250Y-62899581D01*
X171050426Y-62904797D01*
X171029191Y-62907947D01*
X171007750Y-62909000D01*
X170495250Y-62909000D01*
X170473809Y-62907947D01*
X170452574Y-62904797D01*
X170431750Y-62899581D01*
X170411538Y-62892349D01*
X170392132Y-62883170D01*
X170373719Y-62872134D01*
X170356476Y-62859346D01*
X170340570Y-62844930D01*
X170326154Y-62829024D01*
X170313366Y-62811781D01*
X170302330Y-62793368D01*
X170293151Y-62773962D01*
X170285919Y-62753750D01*
X170280703Y-62732926D01*
X170277553Y-62711691D01*
X170276500Y-62690250D01*
X170276500Y-62252750D01*
X170277553Y-62231309D01*
X170280703Y-62210074D01*
X170285919Y-62189250D01*
X170293151Y-62169038D01*
X170302330Y-62149632D01*
X170313366Y-62131219D01*
X170326154Y-62113976D01*
X170340570Y-62098070D01*
X170356476Y-62083654D01*
X170373719Y-62070866D01*
X170392132Y-62059830D01*
X170411538Y-62050651D01*
X170431750Y-62043419D01*
X170452574Y-62038203D01*
X170473809Y-62035053D01*
X170495250Y-62034000D01*
X171007750Y-62034000D01*
X171029191Y-62035053D01*
X171029191Y-62035053D01*
G37*
D14*
X170751500Y-62471500D03*
M02*
