M48
; DRILL file {KiCad (5.1.2)-2} date 12/7/2019 11:30:37 AM
; FORMAT={-:-/ absolute / metric / decimal}
; #@! TF.CreationDate,2019-12-07T11:30:37-05:00
; #@! TF.GenerationSoftware,Kicad,Pcbnew,(5.1.2)-2
; #@! TF.FileFunction,Plated,1,2,PTH
FMAT,2
METRIC
T1C0.400
%
G90
G05
T1
X65.215Y-76.898
X69.406Y-74.168
X73.977Y-76.835
X77.47Y-74.168
X81.978Y-76.835
X85.661Y-74.231
X89.916Y-76.898
X93.599Y-74.168
X97.98Y-76.898
X101.536Y-74.168
X106.172Y-76.835
X109.601Y-74.168
X114.173Y-76.835
X117.665Y-74.231
X122.047Y-76.835
X125.603Y-74.105
X130.175Y-76.835
X133.794Y-74.168
X138.176Y-76.835
X141.605Y-74.168
X146.304Y-76.772
X149.606Y-74.168
X150.876Y-57.848
X150.876Y-63.309
X152.552Y-65.659
X152.781Y-72.072
X152.806Y-67.577
X154.686Y-76.708
X157.607Y-65.621
X157.797Y-74.231
X162.179Y-76.835
X163.703Y-63.309
X163.766Y-57.848
X163.893Y-68.389
X165.71Y-71.755
X165.862Y-74.231
X166.688Y-69.151
X167.957Y-66.294
X169.037Y-66.294
X169.355Y-60.896
X170.243Y-76.835
X170.929Y-69.215
X173.799Y-74.231
X178.308Y-76.835
X181.737Y-74.231
X186.245Y-76.898
X189.802Y-74.168
X194.31Y-76.835
X197.802Y-74.231
X202.311Y-76.898
X205.613Y-74.231
X210.312Y-76.898
X213.931Y-74.168
X218.757Y-76.581
X221.996Y-74.168
X226.377Y-76.835
X229.87Y-74.168
X234.379Y-76.835
X238.125Y-74.168
T0
M30
