G04 #@! TF.GenerationSoftware,KiCad,Pcbnew,(5.1.2)-2*
G04 #@! TF.CreationDate,2020-05-22T00:53:43-04:00*
G04 #@! TF.ProjectId,AddressableLED,41646472-6573-4736-9162-6c654c45442e,rev?*
G04 #@! TF.SameCoordinates,Original*
G04 #@! TF.FileFunction,Copper,L2,Bot*
G04 #@! TF.FilePolarity,Positive*
%FSLAX46Y46*%
G04 Gerber Fmt 4.6, Leading zero omitted, Abs format (unit mm)*
G04 Created by KiCad (PCBNEW (5.1.2)-2) date 2020-05-22 00:53:43*
%MOMM*%
%LPD*%
G04 APERTURE LIST*
%ADD10C,0.600000*%
%ADD11C,0.100000*%
%ADD12C,0.875000*%
%ADD13R,3.150000X1.000000*%
%ADD14C,2.500000*%
%ADD15R,0.450000X1.450000*%
%ADD16R,0.800000X0.900000*%
%ADD17C,0.800000*%
%ADD18C,0.450000*%
%ADD19C,0.250000*%
%ADD20C,0.254000*%
%ADD21C,0.150000*%
G04 APERTURE END LIST*
D10*
X170600000Y-119700000D03*
X169600000Y-119700000D03*
X168600000Y-119700000D03*
X167600000Y-119700000D03*
X166600000Y-119700000D03*
X165600000Y-119700000D03*
X164600000Y-119700000D03*
X163600000Y-119700000D03*
X162600000Y-119700000D03*
X161600000Y-119700000D03*
X160600000Y-119700000D03*
X170600000Y-118700000D03*
X169600000Y-118700000D03*
X168600000Y-118700000D03*
X167600000Y-118700000D03*
X166600000Y-118700000D03*
X165600000Y-118700000D03*
X164600000Y-118700000D03*
X163600000Y-118700000D03*
X162600000Y-118700000D03*
X161600000Y-118700000D03*
X160600000Y-118700000D03*
X170600000Y-117700000D03*
X169600000Y-117700000D03*
X168600000Y-117700000D03*
X167600000Y-117700000D03*
X166600000Y-117700000D03*
X165600000Y-117700000D03*
X164600000Y-117700000D03*
X163600000Y-117700000D03*
X162600000Y-117700000D03*
X161600000Y-117700000D03*
X160600000Y-117700000D03*
X170600000Y-116700000D03*
X169600000Y-116700000D03*
X168600000Y-116700000D03*
X167600000Y-116700000D03*
X166600000Y-116700000D03*
X165600000Y-116700000D03*
X164600000Y-116700000D03*
X163600000Y-116700000D03*
X162600000Y-116700000D03*
X161600000Y-116700000D03*
X160600000Y-116700000D03*
X170600000Y-115700000D03*
X169600000Y-115700000D03*
X168600000Y-115700000D03*
X167600000Y-115700000D03*
X166600000Y-115700000D03*
X165600000Y-115700000D03*
X164600000Y-115700000D03*
X163600000Y-115700000D03*
X162600000Y-115700000D03*
X161600000Y-115700000D03*
X160600000Y-115700000D03*
X120200000Y-119800000D03*
X119200000Y-119800000D03*
X118200000Y-119800000D03*
X117200000Y-119800000D03*
X116200000Y-119800000D03*
X115200000Y-119800000D03*
X114200000Y-119800000D03*
X113200000Y-119800000D03*
X112200000Y-119800000D03*
X111200000Y-119800000D03*
X110200000Y-119800000D03*
X120200000Y-118800000D03*
X119200000Y-118800000D03*
X118200000Y-118800000D03*
X117200000Y-118800000D03*
X116200000Y-118800000D03*
X115200000Y-118800000D03*
X114200000Y-118800000D03*
X113200000Y-118800000D03*
X112200000Y-118800000D03*
X111200000Y-118800000D03*
X110200000Y-118800000D03*
X120200000Y-117800000D03*
X119200000Y-117800000D03*
X118200000Y-117800000D03*
X117200000Y-117800000D03*
X116200000Y-117800000D03*
X115200000Y-117800000D03*
X114200000Y-117800000D03*
X113200000Y-117800000D03*
X112200000Y-117800000D03*
X111200000Y-117800000D03*
X110200000Y-117800000D03*
X120200000Y-116800000D03*
X119200000Y-116800000D03*
X118200000Y-116800000D03*
X117200000Y-116800000D03*
X116200000Y-116800000D03*
X115200000Y-116800000D03*
X114200000Y-116800000D03*
X113200000Y-116800000D03*
X112200000Y-116800000D03*
X111200000Y-116800000D03*
X110200000Y-116800000D03*
X120200000Y-115800000D03*
X119200000Y-115800000D03*
X118200000Y-115800000D03*
X117200000Y-115800000D03*
X116200000Y-115800000D03*
X115200000Y-115800000D03*
X114200000Y-115800000D03*
X113200000Y-115800000D03*
X112200000Y-115800000D03*
X111200000Y-115800000D03*
X110200000Y-115800000D03*
X168600000Y-114700000D03*
X167600000Y-114700000D03*
X166600000Y-114700000D03*
X165600000Y-114700000D03*
X164600000Y-114700000D03*
X163600000Y-114700000D03*
X162600000Y-114700000D03*
X161600000Y-114700000D03*
X160600000Y-114700000D03*
X120200000Y-114800000D03*
X168600000Y-113700000D03*
X167600000Y-113700000D03*
X166600000Y-113700000D03*
X165600000Y-113700000D03*
X164600000Y-113700000D03*
X163600000Y-113700000D03*
X162600000Y-113700000D03*
X161600000Y-113700000D03*
X160600000Y-113700000D03*
X120200000Y-113800000D03*
X168600000Y-112700000D03*
X167600000Y-112700000D03*
X166600000Y-112700000D03*
X165600000Y-112700000D03*
X164600000Y-112700000D03*
X163600000Y-112700000D03*
X162600000Y-112700000D03*
X161600000Y-112700000D03*
X160600000Y-112700000D03*
X120200000Y-112800000D03*
X168600000Y-111700000D03*
X167600000Y-111700000D03*
X166600000Y-111700000D03*
X162600000Y-111700000D03*
X161600000Y-111700000D03*
X160600000Y-111700000D03*
X120200000Y-111800000D03*
X168600000Y-110700000D03*
X167600000Y-110700000D03*
X161600000Y-110700000D03*
X160600000Y-110700000D03*
X120200000Y-110800000D03*
X170600000Y-114700000D03*
X169600000Y-114700000D03*
X119200000Y-114800000D03*
X118200000Y-114800000D03*
X117200000Y-114800000D03*
X116200000Y-114800000D03*
X115200000Y-114800000D03*
X170600000Y-113700000D03*
X169600000Y-113700000D03*
X119200000Y-113800000D03*
X118200000Y-113800000D03*
X117200000Y-113800000D03*
X116200000Y-113800000D03*
X115200000Y-113800000D03*
X170600000Y-112700000D03*
X169600000Y-112700000D03*
X119200000Y-112800000D03*
X118200000Y-112800000D03*
X117200000Y-112800000D03*
X116200000Y-112800000D03*
X115200000Y-112800000D03*
X170600000Y-111700000D03*
X169600000Y-111700000D03*
X119200000Y-111800000D03*
X118200000Y-111800000D03*
X117200000Y-111800000D03*
X170600000Y-110700000D03*
X169600000Y-110700000D03*
X119200000Y-110800000D03*
X118200000Y-110800000D03*
X117200000Y-110800000D03*
X114200000Y-114800000D03*
X113200000Y-114800000D03*
X112200000Y-114800000D03*
X111200000Y-114800000D03*
X110200000Y-114800000D03*
X114200000Y-113800000D03*
X113200000Y-113800000D03*
X112200000Y-113800000D03*
X111200000Y-113800000D03*
X110200000Y-113800000D03*
X114200000Y-112800000D03*
X113200000Y-112800000D03*
X112200000Y-112800000D03*
X111200000Y-112800000D03*
X110200000Y-112800000D03*
X112200000Y-111800000D03*
X111200000Y-111800000D03*
X110200000Y-111800000D03*
X112200000Y-110800000D03*
X111200000Y-110800000D03*
X110200000Y-110800000D03*
D11*
G36*
X134252691Y-116826053D02*
G01*
X134273926Y-116829203D01*
X134294750Y-116834419D01*
X134314962Y-116841651D01*
X134334368Y-116850830D01*
X134352781Y-116861866D01*
X134370024Y-116874654D01*
X134385930Y-116889070D01*
X134400346Y-116904976D01*
X134413134Y-116922219D01*
X134424170Y-116940632D01*
X134433349Y-116960038D01*
X134440581Y-116980250D01*
X134445797Y-117001074D01*
X134448947Y-117022309D01*
X134450000Y-117043750D01*
X134450000Y-117556250D01*
X134448947Y-117577691D01*
X134445797Y-117598926D01*
X134440581Y-117619750D01*
X134433349Y-117639962D01*
X134424170Y-117659368D01*
X134413134Y-117677781D01*
X134400346Y-117695024D01*
X134385930Y-117710930D01*
X134370024Y-117725346D01*
X134352781Y-117738134D01*
X134334368Y-117749170D01*
X134314962Y-117758349D01*
X134294750Y-117765581D01*
X134273926Y-117770797D01*
X134252691Y-117773947D01*
X134231250Y-117775000D01*
X133793750Y-117775000D01*
X133772309Y-117773947D01*
X133751074Y-117770797D01*
X133730250Y-117765581D01*
X133710038Y-117758349D01*
X133690632Y-117749170D01*
X133672219Y-117738134D01*
X133654976Y-117725346D01*
X133639070Y-117710930D01*
X133624654Y-117695024D01*
X133611866Y-117677781D01*
X133600830Y-117659368D01*
X133591651Y-117639962D01*
X133584419Y-117619750D01*
X133579203Y-117598926D01*
X133576053Y-117577691D01*
X133575000Y-117556250D01*
X133575000Y-117043750D01*
X133576053Y-117022309D01*
X133579203Y-117001074D01*
X133584419Y-116980250D01*
X133591651Y-116960038D01*
X133600830Y-116940632D01*
X133611866Y-116922219D01*
X133624654Y-116904976D01*
X133639070Y-116889070D01*
X133654976Y-116874654D01*
X133672219Y-116861866D01*
X133690632Y-116850830D01*
X133710038Y-116841651D01*
X133730250Y-116834419D01*
X133751074Y-116829203D01*
X133772309Y-116826053D01*
X133793750Y-116825000D01*
X134231250Y-116825000D01*
X134252691Y-116826053D01*
X134252691Y-116826053D01*
G37*
D12*
X134012500Y-117300000D03*
D11*
G36*
X135827691Y-116826053D02*
G01*
X135848926Y-116829203D01*
X135869750Y-116834419D01*
X135889962Y-116841651D01*
X135909368Y-116850830D01*
X135927781Y-116861866D01*
X135945024Y-116874654D01*
X135960930Y-116889070D01*
X135975346Y-116904976D01*
X135988134Y-116922219D01*
X135999170Y-116940632D01*
X136008349Y-116960038D01*
X136015581Y-116980250D01*
X136020797Y-117001074D01*
X136023947Y-117022309D01*
X136025000Y-117043750D01*
X136025000Y-117556250D01*
X136023947Y-117577691D01*
X136020797Y-117598926D01*
X136015581Y-117619750D01*
X136008349Y-117639962D01*
X135999170Y-117659368D01*
X135988134Y-117677781D01*
X135975346Y-117695024D01*
X135960930Y-117710930D01*
X135945024Y-117725346D01*
X135927781Y-117738134D01*
X135909368Y-117749170D01*
X135889962Y-117758349D01*
X135869750Y-117765581D01*
X135848926Y-117770797D01*
X135827691Y-117773947D01*
X135806250Y-117775000D01*
X135368750Y-117775000D01*
X135347309Y-117773947D01*
X135326074Y-117770797D01*
X135305250Y-117765581D01*
X135285038Y-117758349D01*
X135265632Y-117749170D01*
X135247219Y-117738134D01*
X135229976Y-117725346D01*
X135214070Y-117710930D01*
X135199654Y-117695024D01*
X135186866Y-117677781D01*
X135175830Y-117659368D01*
X135166651Y-117639962D01*
X135159419Y-117619750D01*
X135154203Y-117598926D01*
X135151053Y-117577691D01*
X135150000Y-117556250D01*
X135150000Y-117043750D01*
X135151053Y-117022309D01*
X135154203Y-117001074D01*
X135159419Y-116980250D01*
X135166651Y-116960038D01*
X135175830Y-116940632D01*
X135186866Y-116922219D01*
X135199654Y-116904976D01*
X135214070Y-116889070D01*
X135229976Y-116874654D01*
X135247219Y-116861866D01*
X135265632Y-116850830D01*
X135285038Y-116841651D01*
X135305250Y-116834419D01*
X135326074Y-116829203D01*
X135347309Y-116826053D01*
X135368750Y-116825000D01*
X135806250Y-116825000D01*
X135827691Y-116826053D01*
X135827691Y-116826053D01*
G37*
D12*
X135587500Y-117300000D03*
D13*
X180875000Y-111270000D03*
X180875000Y-108730000D03*
X185925000Y-108730000D03*
X185925000Y-111270000D03*
X158675000Y-108730000D03*
X153625000Y-108730000D03*
X158675000Y-111270000D03*
X153625000Y-111270000D03*
D14*
X185600000Y-114400000D03*
X185600000Y-105600000D03*
D15*
X137075000Y-112750000D03*
X137725000Y-112750000D03*
X138375000Y-112750000D03*
X139025000Y-112750000D03*
X139675000Y-112750000D03*
X140325000Y-112750000D03*
X140975000Y-112750000D03*
X141625000Y-112750000D03*
X142275000Y-112750000D03*
X142925000Y-112750000D03*
X142925000Y-106850000D03*
X142275000Y-106850000D03*
X141625000Y-106850000D03*
X140975000Y-106850000D03*
X140325000Y-106850000D03*
X139675000Y-106850000D03*
X139025000Y-106850000D03*
X138375000Y-106850000D03*
X137725000Y-106850000D03*
X137075000Y-106850000D03*
D16*
X148400000Y-111300000D03*
X149350000Y-109300000D03*
X147450000Y-109300000D03*
D11*
G36*
X146127691Y-100926053D02*
G01*
X146148926Y-100929203D01*
X146169750Y-100934419D01*
X146189962Y-100941651D01*
X146209368Y-100950830D01*
X146227781Y-100961866D01*
X146245024Y-100974654D01*
X146260930Y-100989070D01*
X146275346Y-101004976D01*
X146288134Y-101022219D01*
X146299170Y-101040632D01*
X146308349Y-101060038D01*
X146315581Y-101080250D01*
X146320797Y-101101074D01*
X146323947Y-101122309D01*
X146325000Y-101143750D01*
X146325000Y-101656250D01*
X146323947Y-101677691D01*
X146320797Y-101698926D01*
X146315581Y-101719750D01*
X146308349Y-101739962D01*
X146299170Y-101759368D01*
X146288134Y-101777781D01*
X146275346Y-101795024D01*
X146260930Y-101810930D01*
X146245024Y-101825346D01*
X146227781Y-101838134D01*
X146209368Y-101849170D01*
X146189962Y-101858349D01*
X146169750Y-101865581D01*
X146148926Y-101870797D01*
X146127691Y-101873947D01*
X146106250Y-101875000D01*
X145668750Y-101875000D01*
X145647309Y-101873947D01*
X145626074Y-101870797D01*
X145605250Y-101865581D01*
X145585038Y-101858349D01*
X145565632Y-101849170D01*
X145547219Y-101838134D01*
X145529976Y-101825346D01*
X145514070Y-101810930D01*
X145499654Y-101795024D01*
X145486866Y-101777781D01*
X145475830Y-101759368D01*
X145466651Y-101739962D01*
X145459419Y-101719750D01*
X145454203Y-101698926D01*
X145451053Y-101677691D01*
X145450000Y-101656250D01*
X145450000Y-101143750D01*
X145451053Y-101122309D01*
X145454203Y-101101074D01*
X145459419Y-101080250D01*
X145466651Y-101060038D01*
X145475830Y-101040632D01*
X145486866Y-101022219D01*
X145499654Y-101004976D01*
X145514070Y-100989070D01*
X145529976Y-100974654D01*
X145547219Y-100961866D01*
X145565632Y-100950830D01*
X145585038Y-100941651D01*
X145605250Y-100934419D01*
X145626074Y-100929203D01*
X145647309Y-100926053D01*
X145668750Y-100925000D01*
X146106250Y-100925000D01*
X146127691Y-100926053D01*
X146127691Y-100926053D01*
G37*
D12*
X145887500Y-101400000D03*
D11*
G36*
X144552691Y-100926053D02*
G01*
X144573926Y-100929203D01*
X144594750Y-100934419D01*
X144614962Y-100941651D01*
X144634368Y-100950830D01*
X144652781Y-100961866D01*
X144670024Y-100974654D01*
X144685930Y-100989070D01*
X144700346Y-101004976D01*
X144713134Y-101022219D01*
X144724170Y-101040632D01*
X144733349Y-101060038D01*
X144740581Y-101080250D01*
X144745797Y-101101074D01*
X144748947Y-101122309D01*
X144750000Y-101143750D01*
X144750000Y-101656250D01*
X144748947Y-101677691D01*
X144745797Y-101698926D01*
X144740581Y-101719750D01*
X144733349Y-101739962D01*
X144724170Y-101759368D01*
X144713134Y-101777781D01*
X144700346Y-101795024D01*
X144685930Y-101810930D01*
X144670024Y-101825346D01*
X144652781Y-101838134D01*
X144634368Y-101849170D01*
X144614962Y-101858349D01*
X144594750Y-101865581D01*
X144573926Y-101870797D01*
X144552691Y-101873947D01*
X144531250Y-101875000D01*
X144093750Y-101875000D01*
X144072309Y-101873947D01*
X144051074Y-101870797D01*
X144030250Y-101865581D01*
X144010038Y-101858349D01*
X143990632Y-101849170D01*
X143972219Y-101838134D01*
X143954976Y-101825346D01*
X143939070Y-101810930D01*
X143924654Y-101795024D01*
X143911866Y-101777781D01*
X143900830Y-101759368D01*
X143891651Y-101739962D01*
X143884419Y-101719750D01*
X143879203Y-101698926D01*
X143876053Y-101677691D01*
X143875000Y-101656250D01*
X143875000Y-101143750D01*
X143876053Y-101122309D01*
X143879203Y-101101074D01*
X143884419Y-101080250D01*
X143891651Y-101060038D01*
X143900830Y-101040632D01*
X143911866Y-101022219D01*
X143924654Y-101004976D01*
X143939070Y-100989070D01*
X143954976Y-100974654D01*
X143972219Y-100961866D01*
X143990632Y-100950830D01*
X144010038Y-100941651D01*
X144030250Y-100934419D01*
X144051074Y-100929203D01*
X144072309Y-100926053D01*
X144093750Y-100925000D01*
X144531250Y-100925000D01*
X144552691Y-100926053D01*
X144552691Y-100926053D01*
G37*
D12*
X144312500Y-101400000D03*
D11*
G36*
X139177691Y-103063553D02*
G01*
X139198926Y-103066703D01*
X139219750Y-103071919D01*
X139239962Y-103079151D01*
X139259368Y-103088330D01*
X139277781Y-103099366D01*
X139295024Y-103112154D01*
X139310930Y-103126570D01*
X139325346Y-103142476D01*
X139338134Y-103159719D01*
X139349170Y-103178132D01*
X139358349Y-103197538D01*
X139365581Y-103217750D01*
X139370797Y-103238574D01*
X139373947Y-103259809D01*
X139375000Y-103281250D01*
X139375000Y-103718750D01*
X139373947Y-103740191D01*
X139370797Y-103761426D01*
X139365581Y-103782250D01*
X139358349Y-103802462D01*
X139349170Y-103821868D01*
X139338134Y-103840281D01*
X139325346Y-103857524D01*
X139310930Y-103873430D01*
X139295024Y-103887846D01*
X139277781Y-103900634D01*
X139259368Y-103911670D01*
X139239962Y-103920849D01*
X139219750Y-103928081D01*
X139198926Y-103933297D01*
X139177691Y-103936447D01*
X139156250Y-103937500D01*
X138643750Y-103937500D01*
X138622309Y-103936447D01*
X138601074Y-103933297D01*
X138580250Y-103928081D01*
X138560038Y-103920849D01*
X138540632Y-103911670D01*
X138522219Y-103900634D01*
X138504976Y-103887846D01*
X138489070Y-103873430D01*
X138474654Y-103857524D01*
X138461866Y-103840281D01*
X138450830Y-103821868D01*
X138441651Y-103802462D01*
X138434419Y-103782250D01*
X138429203Y-103761426D01*
X138426053Y-103740191D01*
X138425000Y-103718750D01*
X138425000Y-103281250D01*
X138426053Y-103259809D01*
X138429203Y-103238574D01*
X138434419Y-103217750D01*
X138441651Y-103197538D01*
X138450830Y-103178132D01*
X138461866Y-103159719D01*
X138474654Y-103142476D01*
X138489070Y-103126570D01*
X138504976Y-103112154D01*
X138522219Y-103099366D01*
X138540632Y-103088330D01*
X138560038Y-103079151D01*
X138580250Y-103071919D01*
X138601074Y-103066703D01*
X138622309Y-103063553D01*
X138643750Y-103062500D01*
X139156250Y-103062500D01*
X139177691Y-103063553D01*
X139177691Y-103063553D01*
G37*
D12*
X138900000Y-103500000D03*
D11*
G36*
X139177691Y-104638553D02*
G01*
X139198926Y-104641703D01*
X139219750Y-104646919D01*
X139239962Y-104654151D01*
X139259368Y-104663330D01*
X139277781Y-104674366D01*
X139295024Y-104687154D01*
X139310930Y-104701570D01*
X139325346Y-104717476D01*
X139338134Y-104734719D01*
X139349170Y-104753132D01*
X139358349Y-104772538D01*
X139365581Y-104792750D01*
X139370797Y-104813574D01*
X139373947Y-104834809D01*
X139375000Y-104856250D01*
X139375000Y-105293750D01*
X139373947Y-105315191D01*
X139370797Y-105336426D01*
X139365581Y-105357250D01*
X139358349Y-105377462D01*
X139349170Y-105396868D01*
X139338134Y-105415281D01*
X139325346Y-105432524D01*
X139310930Y-105448430D01*
X139295024Y-105462846D01*
X139277781Y-105475634D01*
X139259368Y-105486670D01*
X139239962Y-105495849D01*
X139219750Y-105503081D01*
X139198926Y-105508297D01*
X139177691Y-105511447D01*
X139156250Y-105512500D01*
X138643750Y-105512500D01*
X138622309Y-105511447D01*
X138601074Y-105508297D01*
X138580250Y-105503081D01*
X138560038Y-105495849D01*
X138540632Y-105486670D01*
X138522219Y-105475634D01*
X138504976Y-105462846D01*
X138489070Y-105448430D01*
X138474654Y-105432524D01*
X138461866Y-105415281D01*
X138450830Y-105396868D01*
X138441651Y-105377462D01*
X138434419Y-105357250D01*
X138429203Y-105336426D01*
X138426053Y-105315191D01*
X138425000Y-105293750D01*
X138425000Y-104856250D01*
X138426053Y-104834809D01*
X138429203Y-104813574D01*
X138434419Y-104792750D01*
X138441651Y-104772538D01*
X138450830Y-104753132D01*
X138461866Y-104734719D01*
X138474654Y-104717476D01*
X138489070Y-104701570D01*
X138504976Y-104687154D01*
X138522219Y-104674366D01*
X138540632Y-104663330D01*
X138560038Y-104654151D01*
X138580250Y-104646919D01*
X138601074Y-104641703D01*
X138622309Y-104638553D01*
X138643750Y-104637500D01*
X139156250Y-104637500D01*
X139177691Y-104638553D01*
X139177691Y-104638553D01*
G37*
D12*
X138900000Y-105075000D03*
D11*
G36*
X147527691Y-115526053D02*
G01*
X147548926Y-115529203D01*
X147569750Y-115534419D01*
X147589962Y-115541651D01*
X147609368Y-115550830D01*
X147627781Y-115561866D01*
X147645024Y-115574654D01*
X147660930Y-115589070D01*
X147675346Y-115604976D01*
X147688134Y-115622219D01*
X147699170Y-115640632D01*
X147708349Y-115660038D01*
X147715581Y-115680250D01*
X147720797Y-115701074D01*
X147723947Y-115722309D01*
X147725000Y-115743750D01*
X147725000Y-116256250D01*
X147723947Y-116277691D01*
X147720797Y-116298926D01*
X147715581Y-116319750D01*
X147708349Y-116339962D01*
X147699170Y-116359368D01*
X147688134Y-116377781D01*
X147675346Y-116395024D01*
X147660930Y-116410930D01*
X147645024Y-116425346D01*
X147627781Y-116438134D01*
X147609368Y-116449170D01*
X147589962Y-116458349D01*
X147569750Y-116465581D01*
X147548926Y-116470797D01*
X147527691Y-116473947D01*
X147506250Y-116475000D01*
X147068750Y-116475000D01*
X147047309Y-116473947D01*
X147026074Y-116470797D01*
X147005250Y-116465581D01*
X146985038Y-116458349D01*
X146965632Y-116449170D01*
X146947219Y-116438134D01*
X146929976Y-116425346D01*
X146914070Y-116410930D01*
X146899654Y-116395024D01*
X146886866Y-116377781D01*
X146875830Y-116359368D01*
X146866651Y-116339962D01*
X146859419Y-116319750D01*
X146854203Y-116298926D01*
X146851053Y-116277691D01*
X146850000Y-116256250D01*
X146850000Y-115743750D01*
X146851053Y-115722309D01*
X146854203Y-115701074D01*
X146859419Y-115680250D01*
X146866651Y-115660038D01*
X146875830Y-115640632D01*
X146886866Y-115622219D01*
X146899654Y-115604976D01*
X146914070Y-115589070D01*
X146929976Y-115574654D01*
X146947219Y-115561866D01*
X146965632Y-115550830D01*
X146985038Y-115541651D01*
X147005250Y-115534419D01*
X147026074Y-115529203D01*
X147047309Y-115526053D01*
X147068750Y-115525000D01*
X147506250Y-115525000D01*
X147527691Y-115526053D01*
X147527691Y-115526053D01*
G37*
D12*
X147287500Y-116000000D03*
D11*
G36*
X145952691Y-115526053D02*
G01*
X145973926Y-115529203D01*
X145994750Y-115534419D01*
X146014962Y-115541651D01*
X146034368Y-115550830D01*
X146052781Y-115561866D01*
X146070024Y-115574654D01*
X146085930Y-115589070D01*
X146100346Y-115604976D01*
X146113134Y-115622219D01*
X146124170Y-115640632D01*
X146133349Y-115660038D01*
X146140581Y-115680250D01*
X146145797Y-115701074D01*
X146148947Y-115722309D01*
X146150000Y-115743750D01*
X146150000Y-116256250D01*
X146148947Y-116277691D01*
X146145797Y-116298926D01*
X146140581Y-116319750D01*
X146133349Y-116339962D01*
X146124170Y-116359368D01*
X146113134Y-116377781D01*
X146100346Y-116395024D01*
X146085930Y-116410930D01*
X146070024Y-116425346D01*
X146052781Y-116438134D01*
X146034368Y-116449170D01*
X146014962Y-116458349D01*
X145994750Y-116465581D01*
X145973926Y-116470797D01*
X145952691Y-116473947D01*
X145931250Y-116475000D01*
X145493750Y-116475000D01*
X145472309Y-116473947D01*
X145451074Y-116470797D01*
X145430250Y-116465581D01*
X145410038Y-116458349D01*
X145390632Y-116449170D01*
X145372219Y-116438134D01*
X145354976Y-116425346D01*
X145339070Y-116410930D01*
X145324654Y-116395024D01*
X145311866Y-116377781D01*
X145300830Y-116359368D01*
X145291651Y-116339962D01*
X145284419Y-116319750D01*
X145279203Y-116298926D01*
X145276053Y-116277691D01*
X145275000Y-116256250D01*
X145275000Y-115743750D01*
X145276053Y-115722309D01*
X145279203Y-115701074D01*
X145284419Y-115680250D01*
X145291651Y-115660038D01*
X145300830Y-115640632D01*
X145311866Y-115622219D01*
X145324654Y-115604976D01*
X145339070Y-115589070D01*
X145354976Y-115574654D01*
X145372219Y-115561866D01*
X145390632Y-115550830D01*
X145410038Y-115541651D01*
X145430250Y-115534419D01*
X145451074Y-115529203D01*
X145472309Y-115526053D01*
X145493750Y-115525000D01*
X145931250Y-115525000D01*
X145952691Y-115526053D01*
X145952691Y-115526053D01*
G37*
D12*
X145712500Y-116000000D03*
D11*
G36*
X142652691Y-115526053D02*
G01*
X142673926Y-115529203D01*
X142694750Y-115534419D01*
X142714962Y-115541651D01*
X142734368Y-115550830D01*
X142752781Y-115561866D01*
X142770024Y-115574654D01*
X142785930Y-115589070D01*
X142800346Y-115604976D01*
X142813134Y-115622219D01*
X142824170Y-115640632D01*
X142833349Y-115660038D01*
X142840581Y-115680250D01*
X142845797Y-115701074D01*
X142848947Y-115722309D01*
X142850000Y-115743750D01*
X142850000Y-116256250D01*
X142848947Y-116277691D01*
X142845797Y-116298926D01*
X142840581Y-116319750D01*
X142833349Y-116339962D01*
X142824170Y-116359368D01*
X142813134Y-116377781D01*
X142800346Y-116395024D01*
X142785930Y-116410930D01*
X142770024Y-116425346D01*
X142752781Y-116438134D01*
X142734368Y-116449170D01*
X142714962Y-116458349D01*
X142694750Y-116465581D01*
X142673926Y-116470797D01*
X142652691Y-116473947D01*
X142631250Y-116475000D01*
X142193750Y-116475000D01*
X142172309Y-116473947D01*
X142151074Y-116470797D01*
X142130250Y-116465581D01*
X142110038Y-116458349D01*
X142090632Y-116449170D01*
X142072219Y-116438134D01*
X142054976Y-116425346D01*
X142039070Y-116410930D01*
X142024654Y-116395024D01*
X142011866Y-116377781D01*
X142000830Y-116359368D01*
X141991651Y-116339962D01*
X141984419Y-116319750D01*
X141979203Y-116298926D01*
X141976053Y-116277691D01*
X141975000Y-116256250D01*
X141975000Y-115743750D01*
X141976053Y-115722309D01*
X141979203Y-115701074D01*
X141984419Y-115680250D01*
X141991651Y-115660038D01*
X142000830Y-115640632D01*
X142011866Y-115622219D01*
X142024654Y-115604976D01*
X142039070Y-115589070D01*
X142054976Y-115574654D01*
X142072219Y-115561866D01*
X142090632Y-115550830D01*
X142110038Y-115541651D01*
X142130250Y-115534419D01*
X142151074Y-115529203D01*
X142172309Y-115526053D01*
X142193750Y-115525000D01*
X142631250Y-115525000D01*
X142652691Y-115526053D01*
X142652691Y-115526053D01*
G37*
D12*
X142412500Y-116000000D03*
D11*
G36*
X144227691Y-115526053D02*
G01*
X144248926Y-115529203D01*
X144269750Y-115534419D01*
X144289962Y-115541651D01*
X144309368Y-115550830D01*
X144327781Y-115561866D01*
X144345024Y-115574654D01*
X144360930Y-115589070D01*
X144375346Y-115604976D01*
X144388134Y-115622219D01*
X144399170Y-115640632D01*
X144408349Y-115660038D01*
X144415581Y-115680250D01*
X144420797Y-115701074D01*
X144423947Y-115722309D01*
X144425000Y-115743750D01*
X144425000Y-116256250D01*
X144423947Y-116277691D01*
X144420797Y-116298926D01*
X144415581Y-116319750D01*
X144408349Y-116339962D01*
X144399170Y-116359368D01*
X144388134Y-116377781D01*
X144375346Y-116395024D01*
X144360930Y-116410930D01*
X144345024Y-116425346D01*
X144327781Y-116438134D01*
X144309368Y-116449170D01*
X144289962Y-116458349D01*
X144269750Y-116465581D01*
X144248926Y-116470797D01*
X144227691Y-116473947D01*
X144206250Y-116475000D01*
X143768750Y-116475000D01*
X143747309Y-116473947D01*
X143726074Y-116470797D01*
X143705250Y-116465581D01*
X143685038Y-116458349D01*
X143665632Y-116449170D01*
X143647219Y-116438134D01*
X143629976Y-116425346D01*
X143614070Y-116410930D01*
X143599654Y-116395024D01*
X143586866Y-116377781D01*
X143575830Y-116359368D01*
X143566651Y-116339962D01*
X143559419Y-116319750D01*
X143554203Y-116298926D01*
X143551053Y-116277691D01*
X143550000Y-116256250D01*
X143550000Y-115743750D01*
X143551053Y-115722309D01*
X143554203Y-115701074D01*
X143559419Y-115680250D01*
X143566651Y-115660038D01*
X143575830Y-115640632D01*
X143586866Y-115622219D01*
X143599654Y-115604976D01*
X143614070Y-115589070D01*
X143629976Y-115574654D01*
X143647219Y-115561866D01*
X143665632Y-115550830D01*
X143685038Y-115541651D01*
X143705250Y-115534419D01*
X143726074Y-115529203D01*
X143747309Y-115526053D01*
X143768750Y-115525000D01*
X144206250Y-115525000D01*
X144227691Y-115526053D01*
X144227691Y-115526053D01*
G37*
D12*
X143987500Y-116000000D03*
D11*
G36*
X145827691Y-110351053D02*
G01*
X145848926Y-110354203D01*
X145869750Y-110359419D01*
X145889962Y-110366651D01*
X145909368Y-110375830D01*
X145927781Y-110386866D01*
X145945024Y-110399654D01*
X145960930Y-110414070D01*
X145975346Y-110429976D01*
X145988134Y-110447219D01*
X145999170Y-110465632D01*
X146008349Y-110485038D01*
X146015581Y-110505250D01*
X146020797Y-110526074D01*
X146023947Y-110547309D01*
X146025000Y-110568750D01*
X146025000Y-111006250D01*
X146023947Y-111027691D01*
X146020797Y-111048926D01*
X146015581Y-111069750D01*
X146008349Y-111089962D01*
X145999170Y-111109368D01*
X145988134Y-111127781D01*
X145975346Y-111145024D01*
X145960930Y-111160930D01*
X145945024Y-111175346D01*
X145927781Y-111188134D01*
X145909368Y-111199170D01*
X145889962Y-111208349D01*
X145869750Y-111215581D01*
X145848926Y-111220797D01*
X145827691Y-111223947D01*
X145806250Y-111225000D01*
X145293750Y-111225000D01*
X145272309Y-111223947D01*
X145251074Y-111220797D01*
X145230250Y-111215581D01*
X145210038Y-111208349D01*
X145190632Y-111199170D01*
X145172219Y-111188134D01*
X145154976Y-111175346D01*
X145139070Y-111160930D01*
X145124654Y-111145024D01*
X145111866Y-111127781D01*
X145100830Y-111109368D01*
X145091651Y-111089962D01*
X145084419Y-111069750D01*
X145079203Y-111048926D01*
X145076053Y-111027691D01*
X145075000Y-111006250D01*
X145075000Y-110568750D01*
X145076053Y-110547309D01*
X145079203Y-110526074D01*
X145084419Y-110505250D01*
X145091651Y-110485038D01*
X145100830Y-110465632D01*
X145111866Y-110447219D01*
X145124654Y-110429976D01*
X145139070Y-110414070D01*
X145154976Y-110399654D01*
X145172219Y-110386866D01*
X145190632Y-110375830D01*
X145210038Y-110366651D01*
X145230250Y-110359419D01*
X145251074Y-110354203D01*
X145272309Y-110351053D01*
X145293750Y-110350000D01*
X145806250Y-110350000D01*
X145827691Y-110351053D01*
X145827691Y-110351053D01*
G37*
D12*
X145550000Y-110787500D03*
D11*
G36*
X145827691Y-108776053D02*
G01*
X145848926Y-108779203D01*
X145869750Y-108784419D01*
X145889962Y-108791651D01*
X145909368Y-108800830D01*
X145927781Y-108811866D01*
X145945024Y-108824654D01*
X145960930Y-108839070D01*
X145975346Y-108854976D01*
X145988134Y-108872219D01*
X145999170Y-108890632D01*
X146008349Y-108910038D01*
X146015581Y-108930250D01*
X146020797Y-108951074D01*
X146023947Y-108972309D01*
X146025000Y-108993750D01*
X146025000Y-109431250D01*
X146023947Y-109452691D01*
X146020797Y-109473926D01*
X146015581Y-109494750D01*
X146008349Y-109514962D01*
X145999170Y-109534368D01*
X145988134Y-109552781D01*
X145975346Y-109570024D01*
X145960930Y-109585930D01*
X145945024Y-109600346D01*
X145927781Y-109613134D01*
X145909368Y-109624170D01*
X145889962Y-109633349D01*
X145869750Y-109640581D01*
X145848926Y-109645797D01*
X145827691Y-109648947D01*
X145806250Y-109650000D01*
X145293750Y-109650000D01*
X145272309Y-109648947D01*
X145251074Y-109645797D01*
X145230250Y-109640581D01*
X145210038Y-109633349D01*
X145190632Y-109624170D01*
X145172219Y-109613134D01*
X145154976Y-109600346D01*
X145139070Y-109585930D01*
X145124654Y-109570024D01*
X145111866Y-109552781D01*
X145100830Y-109534368D01*
X145091651Y-109514962D01*
X145084419Y-109494750D01*
X145079203Y-109473926D01*
X145076053Y-109452691D01*
X145075000Y-109431250D01*
X145075000Y-108993750D01*
X145076053Y-108972309D01*
X145079203Y-108951074D01*
X145084419Y-108930250D01*
X145091651Y-108910038D01*
X145100830Y-108890632D01*
X145111866Y-108872219D01*
X145124654Y-108854976D01*
X145139070Y-108839070D01*
X145154976Y-108824654D01*
X145172219Y-108811866D01*
X145190632Y-108800830D01*
X145210038Y-108791651D01*
X145230250Y-108784419D01*
X145251074Y-108779203D01*
X145272309Y-108776053D01*
X145293750Y-108775000D01*
X145806250Y-108775000D01*
X145827691Y-108776053D01*
X145827691Y-108776053D01*
G37*
D12*
X145550000Y-109212500D03*
D11*
G36*
X150177691Y-114001053D02*
G01*
X150198926Y-114004203D01*
X150219750Y-114009419D01*
X150239962Y-114016651D01*
X150259368Y-114025830D01*
X150277781Y-114036866D01*
X150295024Y-114049654D01*
X150310930Y-114064070D01*
X150325346Y-114079976D01*
X150338134Y-114097219D01*
X150349170Y-114115632D01*
X150358349Y-114135038D01*
X150365581Y-114155250D01*
X150370797Y-114176074D01*
X150373947Y-114197309D01*
X150375000Y-114218750D01*
X150375000Y-114656250D01*
X150373947Y-114677691D01*
X150370797Y-114698926D01*
X150365581Y-114719750D01*
X150358349Y-114739962D01*
X150349170Y-114759368D01*
X150338134Y-114777781D01*
X150325346Y-114795024D01*
X150310930Y-114810930D01*
X150295024Y-114825346D01*
X150277781Y-114838134D01*
X150259368Y-114849170D01*
X150239962Y-114858349D01*
X150219750Y-114865581D01*
X150198926Y-114870797D01*
X150177691Y-114873947D01*
X150156250Y-114875000D01*
X149643750Y-114875000D01*
X149622309Y-114873947D01*
X149601074Y-114870797D01*
X149580250Y-114865581D01*
X149560038Y-114858349D01*
X149540632Y-114849170D01*
X149522219Y-114838134D01*
X149504976Y-114825346D01*
X149489070Y-114810930D01*
X149474654Y-114795024D01*
X149461866Y-114777781D01*
X149450830Y-114759368D01*
X149441651Y-114739962D01*
X149434419Y-114719750D01*
X149429203Y-114698926D01*
X149426053Y-114677691D01*
X149425000Y-114656250D01*
X149425000Y-114218750D01*
X149426053Y-114197309D01*
X149429203Y-114176074D01*
X149434419Y-114155250D01*
X149441651Y-114135038D01*
X149450830Y-114115632D01*
X149461866Y-114097219D01*
X149474654Y-114079976D01*
X149489070Y-114064070D01*
X149504976Y-114049654D01*
X149522219Y-114036866D01*
X149540632Y-114025830D01*
X149560038Y-114016651D01*
X149580250Y-114009419D01*
X149601074Y-114004203D01*
X149622309Y-114001053D01*
X149643750Y-114000000D01*
X150156250Y-114000000D01*
X150177691Y-114001053D01*
X150177691Y-114001053D01*
G37*
D12*
X149900000Y-114437500D03*
D11*
G36*
X150177691Y-112426053D02*
G01*
X150198926Y-112429203D01*
X150219750Y-112434419D01*
X150239962Y-112441651D01*
X150259368Y-112450830D01*
X150277781Y-112461866D01*
X150295024Y-112474654D01*
X150310930Y-112489070D01*
X150325346Y-112504976D01*
X150338134Y-112522219D01*
X150349170Y-112540632D01*
X150358349Y-112560038D01*
X150365581Y-112580250D01*
X150370797Y-112601074D01*
X150373947Y-112622309D01*
X150375000Y-112643750D01*
X150375000Y-113081250D01*
X150373947Y-113102691D01*
X150370797Y-113123926D01*
X150365581Y-113144750D01*
X150358349Y-113164962D01*
X150349170Y-113184368D01*
X150338134Y-113202781D01*
X150325346Y-113220024D01*
X150310930Y-113235930D01*
X150295024Y-113250346D01*
X150277781Y-113263134D01*
X150259368Y-113274170D01*
X150239962Y-113283349D01*
X150219750Y-113290581D01*
X150198926Y-113295797D01*
X150177691Y-113298947D01*
X150156250Y-113300000D01*
X149643750Y-113300000D01*
X149622309Y-113298947D01*
X149601074Y-113295797D01*
X149580250Y-113290581D01*
X149560038Y-113283349D01*
X149540632Y-113274170D01*
X149522219Y-113263134D01*
X149504976Y-113250346D01*
X149489070Y-113235930D01*
X149474654Y-113220024D01*
X149461866Y-113202781D01*
X149450830Y-113184368D01*
X149441651Y-113164962D01*
X149434419Y-113144750D01*
X149429203Y-113123926D01*
X149426053Y-113102691D01*
X149425000Y-113081250D01*
X149425000Y-112643750D01*
X149426053Y-112622309D01*
X149429203Y-112601074D01*
X149434419Y-112580250D01*
X149441651Y-112560038D01*
X149450830Y-112540632D01*
X149461866Y-112522219D01*
X149474654Y-112504976D01*
X149489070Y-112489070D01*
X149504976Y-112474654D01*
X149522219Y-112461866D01*
X149540632Y-112450830D01*
X149560038Y-112441651D01*
X149580250Y-112434419D01*
X149601074Y-112429203D01*
X149622309Y-112426053D01*
X149643750Y-112425000D01*
X150156250Y-112425000D01*
X150177691Y-112426053D01*
X150177691Y-112426053D01*
G37*
D12*
X149900000Y-112862500D03*
D17*
X175600000Y-107100000D03*
X178100000Y-113100000D03*
X144450000Y-102700000D03*
X150600000Y-107100000D03*
X153122800Y-113100000D03*
X126000000Y-107100000D03*
X128100000Y-113100000D03*
X100700000Y-107100000D03*
X100700000Y-110950002D03*
X135600000Y-117300000D03*
D10*
X140450000Y-109200000D03*
D17*
X140050000Y-105000000D03*
D10*
X138861948Y-109200000D03*
D17*
X145500000Y-109250000D03*
X140200000Y-115200000D03*
X142412500Y-116000000D03*
X142512500Y-117300000D03*
X140000000Y-101750000D03*
X153763900Y-102250000D03*
X178763900Y-102250000D03*
X103763900Y-102250000D03*
X128763900Y-102250000D03*
X150576200Y-103100000D03*
X175576200Y-103100000D03*
X100576200Y-103100000D03*
X125576200Y-103100000D03*
X152189100Y-101400000D03*
X177189100Y-101400000D03*
X102200000Y-102100000D03*
X127189100Y-101400000D03*
X129200000Y-107100000D03*
X151900000Y-107100000D03*
X153100000Y-107100000D03*
X154200000Y-107100000D03*
X176900000Y-107100000D03*
X178100000Y-107100000D03*
X179200000Y-107100000D03*
X127000000Y-107100000D03*
X128100000Y-107100000D03*
X104200000Y-107100000D03*
X103100000Y-107100000D03*
X101900000Y-107100000D03*
X135874990Y-113743847D03*
X136500000Y-114700000D03*
X137200000Y-117300000D03*
X138200000Y-118800000D03*
X134000000Y-117300000D03*
X137700000Y-108400000D03*
X144100000Y-117300000D03*
D18*
X178100000Y-113100000D02*
X178100000Y-109600000D01*
X175600000Y-107100000D02*
X178100000Y-109600000D01*
D19*
X144537500Y-102700000D02*
X145837500Y-101400000D01*
X144450000Y-102700000D02*
X144537500Y-102700000D01*
X141413600Y-114950010D02*
X144549990Y-114950010D01*
X140325000Y-112750000D02*
X140325000Y-113861410D01*
X140325000Y-113861410D02*
X141413600Y-114950010D01*
X144549990Y-114950010D02*
X145100000Y-114400000D01*
D18*
X150600000Y-108400000D02*
X150600000Y-107100000D01*
X150600000Y-111300000D02*
X150600000Y-108400000D01*
X152377200Y-113077200D02*
X150600000Y-111300000D01*
X153122800Y-113100000D02*
X153100000Y-113077200D01*
X153100000Y-113077200D02*
X152377200Y-113077200D01*
X128100000Y-110600000D02*
X128100000Y-113100000D01*
X126000000Y-107100000D02*
X126000000Y-108500000D01*
X126000000Y-108500000D02*
X128100000Y-110600000D01*
X100700000Y-107100000D02*
X100700000Y-110950002D01*
X140450000Y-109200000D02*
X139675000Y-108425000D01*
X139675001Y-108025001D02*
X139675000Y-108025000D01*
X139675001Y-108374999D02*
X139675001Y-108025001D01*
X138861948Y-109188052D02*
X139675001Y-108374999D01*
X139675000Y-108425000D02*
X139675000Y-108025000D01*
X139675000Y-108025000D02*
X139675000Y-106850000D01*
D19*
X147350000Y-109400000D02*
X147450000Y-109300000D01*
X139675000Y-114675000D02*
X139800001Y-114800001D01*
X139675000Y-112750000D02*
X139675000Y-114675000D01*
X139800001Y-114800001D02*
X140200000Y-115200000D01*
X142412500Y-116013590D02*
X142412500Y-116000000D01*
X141000000Y-116000000D02*
X140200000Y-115200000D01*
X142412500Y-116000000D02*
X142412500Y-116000000D01*
D18*
X139675000Y-105940685D02*
X139675000Y-106850000D01*
X140050000Y-105565685D02*
X139675000Y-105940685D01*
X140050000Y-105000000D02*
X140050000Y-105565685D01*
D19*
X142412500Y-116000000D02*
X141000000Y-116000000D01*
X142412500Y-117200000D02*
X142512500Y-117300000D01*
X142412500Y-116000000D02*
X142412500Y-117200000D01*
X140000000Y-102462500D02*
X139000000Y-103462500D01*
X140000000Y-101750000D02*
X140000000Y-102462500D01*
X138149990Y-110649990D02*
X133400000Y-105900000D01*
X140299990Y-110649990D02*
X138149990Y-110649990D01*
X141625000Y-112750000D02*
X141625000Y-111975000D01*
X141625000Y-111975000D02*
X140299990Y-110649990D01*
D18*
X129750000Y-102250000D02*
X133500000Y-106000000D01*
D19*
X141625000Y-112750000D02*
X141625000Y-113775000D01*
X141850000Y-114000000D02*
X143313590Y-114000000D01*
X143313590Y-114000000D02*
X144000000Y-113313590D01*
X144000000Y-113313590D02*
X144000000Y-106250000D01*
X141625000Y-113775000D02*
X141850000Y-114000000D01*
X144000000Y-106250000D02*
X144550000Y-105700000D01*
D18*
X148000000Y-102250000D02*
X178763900Y-102250000D01*
X144550000Y-105700000D02*
X148000000Y-102250000D01*
X178763900Y-102250000D02*
X178763900Y-102250000D01*
X103800000Y-102250000D02*
X128700000Y-102250000D01*
X128700000Y-102250000D02*
X129750000Y-102250000D01*
X129400000Y-103100000D02*
X125600000Y-103100000D01*
X132900000Y-106600000D02*
X129400000Y-103100000D01*
X148300000Y-103100000D02*
X152200000Y-103100000D01*
X145050000Y-106350000D02*
X148300000Y-103100000D01*
X152200000Y-103100000D02*
X175550000Y-103100000D01*
X125600000Y-103100000D02*
X100650000Y-103100000D01*
D19*
X144450011Y-106949989D02*
X144450011Y-113499989D01*
X144450011Y-113499989D02*
X143450000Y-114500000D01*
X143450000Y-114500000D02*
X141600000Y-114500000D01*
X141600000Y-114500000D02*
X140975000Y-113875000D01*
X145050000Y-106350000D02*
X144450011Y-106949989D01*
X134000000Y-105310002D02*
X134000000Y-105300000D01*
D18*
X147800000Y-101400000D02*
X144100000Y-105100000D01*
X152200000Y-101400000D02*
X147800000Y-101400000D01*
X177200000Y-101400000D02*
X152200000Y-101400000D01*
X102200000Y-101950000D02*
X102200000Y-102100000D01*
X102750000Y-101400000D02*
X102200000Y-101950000D01*
X134100000Y-105400000D02*
X130100000Y-101400000D01*
X130100000Y-101400000D02*
X102750000Y-101400000D01*
D19*
X134100000Y-105873002D02*
X134100000Y-105400000D01*
X138426978Y-110199980D02*
X134100000Y-105873002D01*
X142175001Y-111764999D02*
X140609982Y-110199980D01*
X140609982Y-110199980D02*
X138426978Y-110199980D01*
X143549990Y-105650010D02*
X143549990Y-110500010D01*
X143549990Y-110500010D02*
X142275000Y-111775000D01*
X144100000Y-105100000D02*
X143549990Y-105650010D01*
X142275000Y-111775000D02*
X142275000Y-112750000D01*
X142275000Y-112750000D02*
X142175001Y-112750000D01*
X142175001Y-112750000D02*
X142175001Y-111764999D01*
X143987500Y-116000000D02*
X145712500Y-116000000D01*
X149900000Y-109850000D02*
X149350000Y-109300000D01*
X149900000Y-112862500D02*
X149900000Y-109850000D01*
X135874990Y-113475010D02*
X135874990Y-113743847D01*
X136600000Y-112750000D02*
X135874990Y-113475010D01*
X137075000Y-112750000D02*
X136600000Y-112750000D01*
X137725000Y-113725000D02*
X136750000Y-114700000D01*
X137725000Y-112750000D02*
X137725000Y-113725000D01*
X136750000Y-114700000D02*
X136500000Y-114700000D01*
X138950000Y-106775000D02*
X139025000Y-106850000D01*
X138950000Y-104987500D02*
X138950000Y-106775000D01*
X139500000Y-104250000D02*
X141412500Y-104250000D01*
X139475010Y-104274990D02*
X139500000Y-104250000D01*
X138225010Y-104274990D02*
X139475010Y-104274990D01*
X137750000Y-104750000D02*
X138225010Y-104274990D01*
X137075000Y-106850000D02*
X137075000Y-106675000D01*
X137750000Y-105500000D02*
X137750000Y-104750000D01*
X137174999Y-106575001D02*
X137174999Y-105864999D01*
X137075000Y-106675000D02*
X137174999Y-106575001D01*
X137174999Y-105864999D02*
X137239999Y-105799999D01*
X137239999Y-105799999D02*
X137450001Y-105799999D01*
X141412500Y-104250000D02*
X144262500Y-101400000D01*
X137450001Y-105799999D02*
X137750000Y-105500000D01*
X140975000Y-111961410D02*
X140975000Y-112750000D01*
X140113590Y-111100000D02*
X140975000Y-111961410D01*
X132900000Y-106600000D02*
X137400000Y-111100000D01*
X137400000Y-111100000D02*
X140113590Y-111100000D01*
X140975000Y-113875000D02*
X140975000Y-112750000D01*
X138375000Y-113725000D02*
X138375000Y-112750000D01*
X138375000Y-115559315D02*
X138375000Y-113725000D01*
X137200000Y-116734315D02*
X138375000Y-115559315D01*
X137200000Y-117300000D02*
X137200000Y-116734315D01*
X137725000Y-108375000D02*
X137700000Y-108400000D01*
X137725000Y-106850000D02*
X137725000Y-108375000D01*
X134474112Y-117761612D02*
X134012500Y-117300000D01*
X135512500Y-118800000D02*
X134474112Y-117761612D01*
X138200000Y-118800000D02*
X135512500Y-118800000D01*
X139025000Y-113725000D02*
X139025000Y-112750000D01*
X139025000Y-115098002D02*
X139025000Y-113725000D01*
X143700000Y-117300000D02*
X142900000Y-118100000D01*
X144100000Y-117300000D02*
X143700000Y-117300000D01*
X142900000Y-118100000D02*
X140700000Y-118100000D01*
X140700000Y-118100000D02*
X139300000Y-116700000D01*
X139300000Y-116700000D02*
X139300000Y-115373002D01*
X139300000Y-115373002D02*
X139025000Y-115098002D01*
D20*
G36*
X180249048Y-99678394D02*
G01*
X181480013Y-99903208D01*
X182675051Y-100274278D01*
X183816844Y-100786224D01*
X184888872Y-101431636D01*
X185875598Y-102201164D01*
X186762730Y-103083664D01*
X186911990Y-103273000D01*
X180000000Y-103273000D01*
X179897187Y-103283126D01*
X179798326Y-103313115D01*
X179707214Y-103361816D01*
X179627355Y-103427355D01*
X179561816Y-103507214D01*
X179513115Y-103598326D01*
X179483126Y-103697187D01*
X179473000Y-103800000D01*
X179473000Y-107700451D01*
X179300000Y-107700451D01*
X179196690Y-107710626D01*
X179097350Y-107740761D01*
X179005798Y-107789696D01*
X178925552Y-107855552D01*
X178859696Y-107935798D01*
X178810761Y-108027350D01*
X178780626Y-108126690D01*
X178770451Y-108230000D01*
X178770451Y-109230000D01*
X178773961Y-109265634D01*
X178728290Y-109180190D01*
X178634317Y-109065683D01*
X178605626Y-109042137D01*
X176515780Y-106952292D01*
X176491376Y-106829604D01*
X176421496Y-106660901D01*
X176320048Y-106509072D01*
X176190928Y-106379952D01*
X176039099Y-106278504D01*
X175870396Y-106208624D01*
X175691301Y-106173000D01*
X175508699Y-106173000D01*
X175329604Y-106208624D01*
X175160901Y-106278504D01*
X175009072Y-106379952D01*
X174879952Y-106509072D01*
X174778504Y-106660901D01*
X174708624Y-106829604D01*
X174673000Y-107008699D01*
X174673000Y-107191301D01*
X174708624Y-107370396D01*
X174778504Y-107539099D01*
X174879952Y-107690928D01*
X175009072Y-107820048D01*
X175160901Y-107921496D01*
X175329604Y-107991376D01*
X175452292Y-108015780D01*
X177009511Y-109573000D01*
X166833735Y-109573000D01*
X166795261Y-109379577D01*
X166634923Y-108992488D01*
X166402149Y-108644116D01*
X166105884Y-108347851D01*
X165757512Y-108115077D01*
X165370423Y-107954739D01*
X164959491Y-107873000D01*
X164540509Y-107873000D01*
X164129577Y-107954739D01*
X163742488Y-108115077D01*
X163394116Y-108347851D01*
X163097851Y-108644116D01*
X162865077Y-108992488D01*
X162704739Y-109379577D01*
X162666265Y-109573000D01*
X160505136Y-109573000D01*
X160553395Y-109533395D01*
X160606755Y-109468376D01*
X160646405Y-109394196D01*
X160670822Y-109313707D01*
X160679066Y-109230000D01*
X160677000Y-109109750D01*
X160570250Y-109003000D01*
X158948000Y-109003000D01*
X158948000Y-109023000D01*
X158402000Y-109023000D01*
X158402000Y-109003000D01*
X156779750Y-109003000D01*
X156673000Y-109109750D01*
X156670934Y-109230000D01*
X156679178Y-109313707D01*
X156703595Y-109394196D01*
X156743245Y-109468376D01*
X156796605Y-109533395D01*
X156844864Y-109573000D01*
X155455136Y-109573000D01*
X155503395Y-109533395D01*
X155556755Y-109468376D01*
X155596405Y-109394196D01*
X155620822Y-109313707D01*
X155629066Y-109230000D01*
X155627000Y-109109750D01*
X155520250Y-109003000D01*
X153898000Y-109003000D01*
X153898000Y-109023000D01*
X153352000Y-109023000D01*
X153352000Y-109003000D01*
X151729750Y-109003000D01*
X151623000Y-109109750D01*
X151620934Y-109230000D01*
X151629178Y-109313707D01*
X151653595Y-109394196D01*
X151693245Y-109468376D01*
X151746605Y-109533395D01*
X151794864Y-109573000D01*
X151352000Y-109573000D01*
X151352000Y-108230000D01*
X151620934Y-108230000D01*
X151623000Y-108350250D01*
X151729750Y-108457000D01*
X153352000Y-108457000D01*
X153352000Y-107909750D01*
X153898000Y-107909750D01*
X153898000Y-108457000D01*
X155520250Y-108457000D01*
X155627000Y-108350250D01*
X155629066Y-108230000D01*
X156670934Y-108230000D01*
X156673000Y-108350250D01*
X156779750Y-108457000D01*
X158402000Y-108457000D01*
X158402000Y-107909750D01*
X158948000Y-107909750D01*
X158948000Y-108457000D01*
X160570250Y-108457000D01*
X160677000Y-108350250D01*
X160679066Y-108230000D01*
X160670822Y-108146293D01*
X160646405Y-108065804D01*
X160606755Y-107991624D01*
X160553395Y-107926605D01*
X160488376Y-107873245D01*
X160414196Y-107833595D01*
X160333707Y-107809178D01*
X160250000Y-107800934D01*
X159054750Y-107803000D01*
X158948000Y-107909750D01*
X158402000Y-107909750D01*
X158295250Y-107803000D01*
X157100000Y-107800934D01*
X157016293Y-107809178D01*
X156935804Y-107833595D01*
X156861624Y-107873245D01*
X156796605Y-107926605D01*
X156743245Y-107991624D01*
X156703595Y-108065804D01*
X156679178Y-108146293D01*
X156670934Y-108230000D01*
X155629066Y-108230000D01*
X155620822Y-108146293D01*
X155596405Y-108065804D01*
X155556755Y-107991624D01*
X155503395Y-107926605D01*
X155438376Y-107873245D01*
X155364196Y-107833595D01*
X155283707Y-107809178D01*
X155200000Y-107800934D01*
X154004750Y-107803000D01*
X153898000Y-107909750D01*
X153352000Y-107909750D01*
X153245250Y-107803000D01*
X152050000Y-107800934D01*
X151966293Y-107809178D01*
X151885804Y-107833595D01*
X151811624Y-107873245D01*
X151746605Y-107926605D01*
X151693245Y-107991624D01*
X151653595Y-108065804D01*
X151629178Y-108146293D01*
X151620934Y-108230000D01*
X151352000Y-108230000D01*
X151352000Y-107643108D01*
X151421496Y-107539099D01*
X151491376Y-107370396D01*
X151527000Y-107191301D01*
X151527000Y-107008699D01*
X151491376Y-106829604D01*
X151421496Y-106660901D01*
X151320048Y-106509072D01*
X151190928Y-106379952D01*
X151039099Y-106278504D01*
X150870396Y-106208624D01*
X150691301Y-106173000D01*
X150508699Y-106173000D01*
X150329604Y-106208624D01*
X150160901Y-106278504D01*
X150009072Y-106379952D01*
X149879952Y-106509072D01*
X149778504Y-106660901D01*
X149708624Y-106829604D01*
X149673000Y-107008699D01*
X149673000Y-107191301D01*
X149708624Y-107370396D01*
X149778504Y-107539099D01*
X149848001Y-107643109D01*
X149848000Y-108433514D01*
X149833707Y-108429178D01*
X149750000Y-108420934D01*
X149729750Y-108423000D01*
X149623000Y-108529750D01*
X149623000Y-109027000D01*
X149643000Y-109027000D01*
X149643000Y-109573000D01*
X149057000Y-109573000D01*
X149057000Y-109027000D01*
X149077000Y-109027000D01*
X149077000Y-108529750D01*
X148970250Y-108423000D01*
X148950000Y-108420934D01*
X148866293Y-108429178D01*
X148785804Y-108453595D01*
X148711624Y-108493245D01*
X148646605Y-108546605D01*
X148593245Y-108611624D01*
X148553595Y-108685804D01*
X148529178Y-108766293D01*
X148520934Y-108850000D01*
X148522349Y-108898121D01*
X148499963Y-108785577D01*
X148463827Y-108666454D01*
X148405147Y-108556671D01*
X148340115Y-108459344D01*
X148261145Y-108363119D01*
X148036881Y-108138855D01*
X147940656Y-108059885D01*
X147843329Y-107994853D01*
X147733544Y-107936172D01*
X147614423Y-107900037D01*
X147499618Y-107877201D01*
X147375736Y-107865000D01*
X145102011Y-107865000D01*
X145102011Y-107220055D01*
X145245549Y-107076517D01*
X145339169Y-107048118D01*
X145469810Y-106978290D01*
X145555625Y-106907863D01*
X148611489Y-103852000D01*
X150033092Y-103852000D01*
X150137101Y-103921496D01*
X150305804Y-103991376D01*
X150484899Y-104027000D01*
X150667501Y-104027000D01*
X150846596Y-103991376D01*
X151015299Y-103921496D01*
X151119308Y-103852000D01*
X175033092Y-103852000D01*
X175137101Y-103921496D01*
X175305804Y-103991376D01*
X175484899Y-104027000D01*
X175667501Y-104027000D01*
X175846596Y-103991376D01*
X176015299Y-103921496D01*
X176167128Y-103820048D01*
X176296248Y-103690928D01*
X176397696Y-103539099D01*
X176467576Y-103370396D01*
X176503200Y-103191301D01*
X176503200Y-103008699D01*
X176501867Y-103002000D01*
X178220792Y-103002000D01*
X178324801Y-103071496D01*
X178493504Y-103141376D01*
X178672599Y-103177000D01*
X178855201Y-103177000D01*
X179034296Y-103141376D01*
X179202999Y-103071496D01*
X179354828Y-102970048D01*
X179483948Y-102840928D01*
X179585396Y-102689099D01*
X179655276Y-102520396D01*
X179690900Y-102341301D01*
X179690900Y-102158699D01*
X179655276Y-101979604D01*
X179585396Y-101810901D01*
X179483948Y-101659072D01*
X179354828Y-101529952D01*
X179202999Y-101428504D01*
X179034296Y-101358624D01*
X178855201Y-101323000D01*
X178672599Y-101323000D01*
X178493504Y-101358624D01*
X178324801Y-101428504D01*
X178220792Y-101498000D01*
X178114767Y-101498000D01*
X178116100Y-101491301D01*
X178116100Y-101308699D01*
X178080476Y-101129604D01*
X178010596Y-100960901D01*
X177909148Y-100809072D01*
X177780028Y-100679952D01*
X177628199Y-100578504D01*
X177459496Y-100508624D01*
X177280401Y-100473000D01*
X177097799Y-100473000D01*
X176918704Y-100508624D01*
X176750001Y-100578504D01*
X176645992Y-100648000D01*
X152732208Y-100648000D01*
X152628199Y-100578504D01*
X152459496Y-100508624D01*
X152280401Y-100473000D01*
X152097799Y-100473000D01*
X151918704Y-100508624D01*
X151750001Y-100578504D01*
X151645992Y-100648000D01*
X147836935Y-100648000D01*
X147799999Y-100644362D01*
X147763064Y-100648000D01*
X147763062Y-100648000D01*
X147652582Y-100658881D01*
X147510830Y-100701882D01*
X147453635Y-100732453D01*
X147380189Y-100771710D01*
X147294374Y-100842137D01*
X147265683Y-100865683D01*
X147242137Y-100894374D01*
X146854549Y-101281962D01*
X146854549Y-101143750D01*
X146840171Y-100997764D01*
X146797588Y-100857388D01*
X146728438Y-100728017D01*
X146635377Y-100614623D01*
X146521983Y-100521562D01*
X146392612Y-100452412D01*
X146252236Y-100409829D01*
X146106250Y-100395451D01*
X145668750Y-100395451D01*
X145522764Y-100409829D01*
X145382388Y-100452412D01*
X145253017Y-100521562D01*
X145139623Y-100614623D01*
X145100000Y-100662903D01*
X145060377Y-100614623D01*
X144946983Y-100521562D01*
X144817612Y-100452412D01*
X144677236Y-100409829D01*
X144531250Y-100395451D01*
X144093750Y-100395451D01*
X143947764Y-100409829D01*
X143807388Y-100452412D01*
X143678017Y-100521562D01*
X143564623Y-100614623D01*
X143471562Y-100728017D01*
X143402412Y-100857388D01*
X143359829Y-100997764D01*
X143345451Y-101143750D01*
X143345451Y-101394982D01*
X141142434Y-103598000D01*
X139904549Y-103598000D01*
X139904549Y-103480017D01*
X140438387Y-102946180D01*
X140463264Y-102925764D01*
X140544741Y-102826484D01*
X140605283Y-102713217D01*
X140642565Y-102590314D01*
X140644419Y-102571496D01*
X140655154Y-102462500D01*
X140652000Y-102430478D01*
X140652000Y-102408976D01*
X140720048Y-102340928D01*
X140821496Y-102189099D01*
X140891376Y-102020396D01*
X140927000Y-101841301D01*
X140927000Y-101658699D01*
X140891376Y-101479604D01*
X140821496Y-101310901D01*
X140720048Y-101159072D01*
X140590928Y-101029952D01*
X140439099Y-100928504D01*
X140270396Y-100858624D01*
X140091301Y-100823000D01*
X139908699Y-100823000D01*
X139729604Y-100858624D01*
X139560901Y-100928504D01*
X139409072Y-101029952D01*
X139279952Y-101159072D01*
X139178504Y-101310901D01*
X139108624Y-101479604D01*
X139073000Y-101658699D01*
X139073000Y-101841301D01*
X139108624Y-102020396D01*
X139178504Y-102189099D01*
X139247730Y-102292704D01*
X139007483Y-102532951D01*
X138643750Y-102532951D01*
X138497764Y-102547329D01*
X138357388Y-102589912D01*
X138228017Y-102659062D01*
X138114623Y-102752123D01*
X138021562Y-102865517D01*
X137952412Y-102994888D01*
X137909829Y-103135264D01*
X137895451Y-103281250D01*
X137895451Y-103711849D01*
X137861026Y-103730249D01*
X137761746Y-103811726D01*
X137741329Y-103836604D01*
X137311614Y-104266320D01*
X137286737Y-104286736D01*
X137205260Y-104386016D01*
X137173815Y-104444846D01*
X137144717Y-104499284D01*
X137107435Y-104622186D01*
X137094846Y-104750000D01*
X137098000Y-104782022D01*
X137098000Y-105161737D01*
X136989282Y-105194716D01*
X136876015Y-105255258D01*
X136776735Y-105336735D01*
X136756314Y-105361618D01*
X136736613Y-105381319D01*
X136711736Y-105401735D01*
X136630259Y-105501015D01*
X136602696Y-105552583D01*
X136569716Y-105614283D01*
X136545890Y-105692827D01*
X136475552Y-105750552D01*
X136409696Y-105830798D01*
X136360761Y-105922350D01*
X136330626Y-106021690D01*
X136320451Y-106125000D01*
X136320451Y-107171387D01*
X134807454Y-105658390D01*
X134841118Y-105547417D01*
X134855638Y-105399999D01*
X134841118Y-105252582D01*
X134798117Y-105110829D01*
X134728290Y-104980189D01*
X134657863Y-104894374D01*
X130657867Y-100894379D01*
X130634317Y-100865683D01*
X130519810Y-100771710D01*
X130389170Y-100701882D01*
X130247418Y-100658881D01*
X130136938Y-100648000D01*
X130136935Y-100648000D01*
X130100000Y-100644362D01*
X130063065Y-100648000D01*
X127732208Y-100648000D01*
X127628199Y-100578504D01*
X127459496Y-100508624D01*
X127280401Y-100473000D01*
X127097799Y-100473000D01*
X126918704Y-100508624D01*
X126750001Y-100578504D01*
X126645992Y-100648000D01*
X102786935Y-100648000D01*
X102749999Y-100644362D01*
X102713064Y-100648000D01*
X102713062Y-100648000D01*
X102602582Y-100658881D01*
X102460830Y-100701882D01*
X102403635Y-100732453D01*
X102330189Y-100771710D01*
X102244374Y-100842137D01*
X102215683Y-100865683D01*
X102192137Y-100894374D01*
X101841318Y-101245194D01*
X101760901Y-101278504D01*
X101609072Y-101379952D01*
X101479952Y-101509072D01*
X101378504Y-101660901D01*
X101308624Y-101829604D01*
X101273000Y-102008699D01*
X101273000Y-102191301D01*
X101304169Y-102348000D01*
X101119308Y-102348000D01*
X101015299Y-102278504D01*
X100846596Y-102208624D01*
X100667501Y-102173000D01*
X100484899Y-102173000D01*
X100305804Y-102208624D01*
X100137101Y-102278504D01*
X99985272Y-102379952D01*
X99856152Y-102509072D01*
X99754704Y-102660901D01*
X99684824Y-102829604D01*
X99649200Y-103008699D01*
X99649200Y-103191301D01*
X99684824Y-103370396D01*
X99754704Y-103539099D01*
X99856152Y-103690928D01*
X99985272Y-103820048D01*
X100137101Y-103921496D01*
X100305804Y-103991376D01*
X100484899Y-104027000D01*
X100667501Y-104027000D01*
X100846596Y-103991376D01*
X101015299Y-103921496D01*
X101119308Y-103852000D01*
X125033092Y-103852000D01*
X125137101Y-103921496D01*
X125305804Y-103991376D01*
X125484899Y-104027000D01*
X125667501Y-104027000D01*
X125846596Y-103991376D01*
X126015299Y-103921496D01*
X126119308Y-103852000D01*
X129088512Y-103852000D01*
X132394374Y-107157863D01*
X132480189Y-107228290D01*
X132610829Y-107298117D01*
X132704451Y-107326518D01*
X134950933Y-109573000D01*
X128136489Y-109573000D01*
X126752000Y-108188512D01*
X126752000Y-107643108D01*
X126821496Y-107539099D01*
X126891376Y-107370396D01*
X126927000Y-107191301D01*
X126927000Y-107008699D01*
X126891376Y-106829604D01*
X126821496Y-106660901D01*
X126720048Y-106509072D01*
X126590928Y-106379952D01*
X126439099Y-106278504D01*
X126270396Y-106208624D01*
X126091301Y-106173000D01*
X125908699Y-106173000D01*
X125729604Y-106208624D01*
X125560901Y-106278504D01*
X125409072Y-106379952D01*
X125279952Y-106509072D01*
X125178504Y-106660901D01*
X125108624Y-106829604D01*
X125073000Y-107008699D01*
X125073000Y-107191301D01*
X125108624Y-107370396D01*
X125178504Y-107539099D01*
X125248000Y-107643109D01*
X125248001Y-108463055D01*
X125244362Y-108500000D01*
X125256745Y-108625716D01*
X125258882Y-108647418D01*
X125267588Y-108676118D01*
X125301882Y-108789169D01*
X125371710Y-108919810D01*
X125442137Y-109005625D01*
X125465684Y-109034317D01*
X125494375Y-109057863D01*
X126009512Y-109573000D01*
X116783735Y-109573000D01*
X116745261Y-109379577D01*
X116584923Y-108992488D01*
X116352149Y-108644116D01*
X116055884Y-108347851D01*
X115707512Y-108115077D01*
X115320423Y-107954739D01*
X114909491Y-107873000D01*
X114490509Y-107873000D01*
X114079577Y-107954739D01*
X113692488Y-108115077D01*
X113344116Y-108347851D01*
X113047851Y-108644116D01*
X112815077Y-108992488D01*
X112654739Y-109379577D01*
X112616265Y-109573000D01*
X101452000Y-109573000D01*
X101452000Y-107643108D01*
X101521496Y-107539099D01*
X101591376Y-107370396D01*
X101627000Y-107191301D01*
X101627000Y-107008699D01*
X101591376Y-106829604D01*
X101521496Y-106660901D01*
X101420048Y-106509072D01*
X101290928Y-106379952D01*
X101139099Y-106278504D01*
X100970396Y-106208624D01*
X100791301Y-106173000D01*
X100608699Y-106173000D01*
X100429604Y-106208624D01*
X100260901Y-106278504D01*
X100109072Y-106379952D01*
X99979952Y-106509072D01*
X99878504Y-106660901D01*
X99808624Y-106829604D01*
X99773000Y-107008699D01*
X99773000Y-107191301D01*
X99808624Y-107370396D01*
X99878504Y-107539099D01*
X99948000Y-107643108D01*
X99948001Y-109573000D01*
X90629730Y-109573000D01*
X90671995Y-108805013D01*
X90890361Y-107572889D01*
X91255165Y-106375932D01*
X91761129Y-105231464D01*
X92400923Y-104156068D01*
X93165273Y-103165329D01*
X94043113Y-102273591D01*
X95021725Y-101493772D01*
X96086935Y-100837169D01*
X97223312Y-100313292D01*
X98414391Y-99929732D01*
X99642931Y-99692041D01*
X100907671Y-99602492D01*
X101001624Y-99602000D01*
X178981870Y-99602000D01*
X180249048Y-99678394D01*
X180249048Y-99678394D01*
G37*
X180249048Y-99678394D02*
X181480013Y-99903208D01*
X182675051Y-100274278D01*
X183816844Y-100786224D01*
X184888872Y-101431636D01*
X185875598Y-102201164D01*
X186762730Y-103083664D01*
X186911990Y-103273000D01*
X180000000Y-103273000D01*
X179897187Y-103283126D01*
X179798326Y-103313115D01*
X179707214Y-103361816D01*
X179627355Y-103427355D01*
X179561816Y-103507214D01*
X179513115Y-103598326D01*
X179483126Y-103697187D01*
X179473000Y-103800000D01*
X179473000Y-107700451D01*
X179300000Y-107700451D01*
X179196690Y-107710626D01*
X179097350Y-107740761D01*
X179005798Y-107789696D01*
X178925552Y-107855552D01*
X178859696Y-107935798D01*
X178810761Y-108027350D01*
X178780626Y-108126690D01*
X178770451Y-108230000D01*
X178770451Y-109230000D01*
X178773961Y-109265634D01*
X178728290Y-109180190D01*
X178634317Y-109065683D01*
X178605626Y-109042137D01*
X176515780Y-106952292D01*
X176491376Y-106829604D01*
X176421496Y-106660901D01*
X176320048Y-106509072D01*
X176190928Y-106379952D01*
X176039099Y-106278504D01*
X175870396Y-106208624D01*
X175691301Y-106173000D01*
X175508699Y-106173000D01*
X175329604Y-106208624D01*
X175160901Y-106278504D01*
X175009072Y-106379952D01*
X174879952Y-106509072D01*
X174778504Y-106660901D01*
X174708624Y-106829604D01*
X174673000Y-107008699D01*
X174673000Y-107191301D01*
X174708624Y-107370396D01*
X174778504Y-107539099D01*
X174879952Y-107690928D01*
X175009072Y-107820048D01*
X175160901Y-107921496D01*
X175329604Y-107991376D01*
X175452292Y-108015780D01*
X177009511Y-109573000D01*
X166833735Y-109573000D01*
X166795261Y-109379577D01*
X166634923Y-108992488D01*
X166402149Y-108644116D01*
X166105884Y-108347851D01*
X165757512Y-108115077D01*
X165370423Y-107954739D01*
X164959491Y-107873000D01*
X164540509Y-107873000D01*
X164129577Y-107954739D01*
X163742488Y-108115077D01*
X163394116Y-108347851D01*
X163097851Y-108644116D01*
X162865077Y-108992488D01*
X162704739Y-109379577D01*
X162666265Y-109573000D01*
X160505136Y-109573000D01*
X160553395Y-109533395D01*
X160606755Y-109468376D01*
X160646405Y-109394196D01*
X160670822Y-109313707D01*
X160679066Y-109230000D01*
X160677000Y-109109750D01*
X160570250Y-109003000D01*
X158948000Y-109003000D01*
X158948000Y-109023000D01*
X158402000Y-109023000D01*
X158402000Y-109003000D01*
X156779750Y-109003000D01*
X156673000Y-109109750D01*
X156670934Y-109230000D01*
X156679178Y-109313707D01*
X156703595Y-109394196D01*
X156743245Y-109468376D01*
X156796605Y-109533395D01*
X156844864Y-109573000D01*
X155455136Y-109573000D01*
X155503395Y-109533395D01*
X155556755Y-109468376D01*
X155596405Y-109394196D01*
X155620822Y-109313707D01*
X155629066Y-109230000D01*
X155627000Y-109109750D01*
X155520250Y-109003000D01*
X153898000Y-109003000D01*
X153898000Y-109023000D01*
X153352000Y-109023000D01*
X153352000Y-109003000D01*
X151729750Y-109003000D01*
X151623000Y-109109750D01*
X151620934Y-109230000D01*
X151629178Y-109313707D01*
X151653595Y-109394196D01*
X151693245Y-109468376D01*
X151746605Y-109533395D01*
X151794864Y-109573000D01*
X151352000Y-109573000D01*
X151352000Y-108230000D01*
X151620934Y-108230000D01*
X151623000Y-108350250D01*
X151729750Y-108457000D01*
X153352000Y-108457000D01*
X153352000Y-107909750D01*
X153898000Y-107909750D01*
X153898000Y-108457000D01*
X155520250Y-108457000D01*
X155627000Y-108350250D01*
X155629066Y-108230000D01*
X156670934Y-108230000D01*
X156673000Y-108350250D01*
X156779750Y-108457000D01*
X158402000Y-108457000D01*
X158402000Y-107909750D01*
X158948000Y-107909750D01*
X158948000Y-108457000D01*
X160570250Y-108457000D01*
X160677000Y-108350250D01*
X160679066Y-108230000D01*
X160670822Y-108146293D01*
X160646405Y-108065804D01*
X160606755Y-107991624D01*
X160553395Y-107926605D01*
X160488376Y-107873245D01*
X160414196Y-107833595D01*
X160333707Y-107809178D01*
X160250000Y-107800934D01*
X159054750Y-107803000D01*
X158948000Y-107909750D01*
X158402000Y-107909750D01*
X158295250Y-107803000D01*
X157100000Y-107800934D01*
X157016293Y-107809178D01*
X156935804Y-107833595D01*
X156861624Y-107873245D01*
X156796605Y-107926605D01*
X156743245Y-107991624D01*
X156703595Y-108065804D01*
X156679178Y-108146293D01*
X156670934Y-108230000D01*
X155629066Y-108230000D01*
X155620822Y-108146293D01*
X155596405Y-108065804D01*
X155556755Y-107991624D01*
X155503395Y-107926605D01*
X155438376Y-107873245D01*
X155364196Y-107833595D01*
X155283707Y-107809178D01*
X155200000Y-107800934D01*
X154004750Y-107803000D01*
X153898000Y-107909750D01*
X153352000Y-107909750D01*
X153245250Y-107803000D01*
X152050000Y-107800934D01*
X151966293Y-107809178D01*
X151885804Y-107833595D01*
X151811624Y-107873245D01*
X151746605Y-107926605D01*
X151693245Y-107991624D01*
X151653595Y-108065804D01*
X151629178Y-108146293D01*
X151620934Y-108230000D01*
X151352000Y-108230000D01*
X151352000Y-107643108D01*
X151421496Y-107539099D01*
X151491376Y-107370396D01*
X151527000Y-107191301D01*
X151527000Y-107008699D01*
X151491376Y-106829604D01*
X151421496Y-106660901D01*
X151320048Y-106509072D01*
X151190928Y-106379952D01*
X151039099Y-106278504D01*
X150870396Y-106208624D01*
X150691301Y-106173000D01*
X150508699Y-106173000D01*
X150329604Y-106208624D01*
X150160901Y-106278504D01*
X150009072Y-106379952D01*
X149879952Y-106509072D01*
X149778504Y-106660901D01*
X149708624Y-106829604D01*
X149673000Y-107008699D01*
X149673000Y-107191301D01*
X149708624Y-107370396D01*
X149778504Y-107539099D01*
X149848001Y-107643109D01*
X149848000Y-108433514D01*
X149833707Y-108429178D01*
X149750000Y-108420934D01*
X149729750Y-108423000D01*
X149623000Y-108529750D01*
X149623000Y-109027000D01*
X149643000Y-109027000D01*
X149643000Y-109573000D01*
X149057000Y-109573000D01*
X149057000Y-109027000D01*
X149077000Y-109027000D01*
X149077000Y-108529750D01*
X148970250Y-108423000D01*
X148950000Y-108420934D01*
X148866293Y-108429178D01*
X148785804Y-108453595D01*
X148711624Y-108493245D01*
X148646605Y-108546605D01*
X148593245Y-108611624D01*
X148553595Y-108685804D01*
X148529178Y-108766293D01*
X148520934Y-108850000D01*
X148522349Y-108898121D01*
X148499963Y-108785577D01*
X148463827Y-108666454D01*
X148405147Y-108556671D01*
X148340115Y-108459344D01*
X148261145Y-108363119D01*
X148036881Y-108138855D01*
X147940656Y-108059885D01*
X147843329Y-107994853D01*
X147733544Y-107936172D01*
X147614423Y-107900037D01*
X147499618Y-107877201D01*
X147375736Y-107865000D01*
X145102011Y-107865000D01*
X145102011Y-107220055D01*
X145245549Y-107076517D01*
X145339169Y-107048118D01*
X145469810Y-106978290D01*
X145555625Y-106907863D01*
X148611489Y-103852000D01*
X150033092Y-103852000D01*
X150137101Y-103921496D01*
X150305804Y-103991376D01*
X150484899Y-104027000D01*
X150667501Y-104027000D01*
X150846596Y-103991376D01*
X151015299Y-103921496D01*
X151119308Y-103852000D01*
X175033092Y-103852000D01*
X175137101Y-103921496D01*
X175305804Y-103991376D01*
X175484899Y-104027000D01*
X175667501Y-104027000D01*
X175846596Y-103991376D01*
X176015299Y-103921496D01*
X176167128Y-103820048D01*
X176296248Y-103690928D01*
X176397696Y-103539099D01*
X176467576Y-103370396D01*
X176503200Y-103191301D01*
X176503200Y-103008699D01*
X176501867Y-103002000D01*
X178220792Y-103002000D01*
X178324801Y-103071496D01*
X178493504Y-103141376D01*
X178672599Y-103177000D01*
X178855201Y-103177000D01*
X179034296Y-103141376D01*
X179202999Y-103071496D01*
X179354828Y-102970048D01*
X179483948Y-102840928D01*
X179585396Y-102689099D01*
X179655276Y-102520396D01*
X179690900Y-102341301D01*
X179690900Y-102158699D01*
X179655276Y-101979604D01*
X179585396Y-101810901D01*
X179483948Y-101659072D01*
X179354828Y-101529952D01*
X179202999Y-101428504D01*
X179034296Y-101358624D01*
X178855201Y-101323000D01*
X178672599Y-101323000D01*
X178493504Y-101358624D01*
X178324801Y-101428504D01*
X178220792Y-101498000D01*
X178114767Y-101498000D01*
X178116100Y-101491301D01*
X178116100Y-101308699D01*
X178080476Y-101129604D01*
X178010596Y-100960901D01*
X177909148Y-100809072D01*
X177780028Y-100679952D01*
X177628199Y-100578504D01*
X177459496Y-100508624D01*
X177280401Y-100473000D01*
X177097799Y-100473000D01*
X176918704Y-100508624D01*
X176750001Y-100578504D01*
X176645992Y-100648000D01*
X152732208Y-100648000D01*
X152628199Y-100578504D01*
X152459496Y-100508624D01*
X152280401Y-100473000D01*
X152097799Y-100473000D01*
X151918704Y-100508624D01*
X151750001Y-100578504D01*
X151645992Y-100648000D01*
X147836935Y-100648000D01*
X147799999Y-100644362D01*
X147763064Y-100648000D01*
X147763062Y-100648000D01*
X147652582Y-100658881D01*
X147510830Y-100701882D01*
X147453635Y-100732453D01*
X147380189Y-100771710D01*
X147294374Y-100842137D01*
X147265683Y-100865683D01*
X147242137Y-100894374D01*
X146854549Y-101281962D01*
X146854549Y-101143750D01*
X146840171Y-100997764D01*
X146797588Y-100857388D01*
X146728438Y-100728017D01*
X146635377Y-100614623D01*
X146521983Y-100521562D01*
X146392612Y-100452412D01*
X146252236Y-100409829D01*
X146106250Y-100395451D01*
X145668750Y-100395451D01*
X145522764Y-100409829D01*
X145382388Y-100452412D01*
X145253017Y-100521562D01*
X145139623Y-100614623D01*
X145100000Y-100662903D01*
X145060377Y-100614623D01*
X144946983Y-100521562D01*
X144817612Y-100452412D01*
X144677236Y-100409829D01*
X144531250Y-100395451D01*
X144093750Y-100395451D01*
X143947764Y-100409829D01*
X143807388Y-100452412D01*
X143678017Y-100521562D01*
X143564623Y-100614623D01*
X143471562Y-100728017D01*
X143402412Y-100857388D01*
X143359829Y-100997764D01*
X143345451Y-101143750D01*
X143345451Y-101394982D01*
X141142434Y-103598000D01*
X139904549Y-103598000D01*
X139904549Y-103480017D01*
X140438387Y-102946180D01*
X140463264Y-102925764D01*
X140544741Y-102826484D01*
X140605283Y-102713217D01*
X140642565Y-102590314D01*
X140644419Y-102571496D01*
X140655154Y-102462500D01*
X140652000Y-102430478D01*
X140652000Y-102408976D01*
X140720048Y-102340928D01*
X140821496Y-102189099D01*
X140891376Y-102020396D01*
X140927000Y-101841301D01*
X140927000Y-101658699D01*
X140891376Y-101479604D01*
X140821496Y-101310901D01*
X140720048Y-101159072D01*
X140590928Y-101029952D01*
X140439099Y-100928504D01*
X140270396Y-100858624D01*
X140091301Y-100823000D01*
X139908699Y-100823000D01*
X139729604Y-100858624D01*
X139560901Y-100928504D01*
X139409072Y-101029952D01*
X139279952Y-101159072D01*
X139178504Y-101310901D01*
X139108624Y-101479604D01*
X139073000Y-101658699D01*
X139073000Y-101841301D01*
X139108624Y-102020396D01*
X139178504Y-102189099D01*
X139247730Y-102292704D01*
X139007483Y-102532951D01*
X138643750Y-102532951D01*
X138497764Y-102547329D01*
X138357388Y-102589912D01*
X138228017Y-102659062D01*
X138114623Y-102752123D01*
X138021562Y-102865517D01*
X137952412Y-102994888D01*
X137909829Y-103135264D01*
X137895451Y-103281250D01*
X137895451Y-103711849D01*
X137861026Y-103730249D01*
X137761746Y-103811726D01*
X137741329Y-103836604D01*
X137311614Y-104266320D01*
X137286737Y-104286736D01*
X137205260Y-104386016D01*
X137173815Y-104444846D01*
X137144717Y-104499284D01*
X137107435Y-104622186D01*
X137094846Y-104750000D01*
X137098000Y-104782022D01*
X137098000Y-105161737D01*
X136989282Y-105194716D01*
X136876015Y-105255258D01*
X136776735Y-105336735D01*
X136756314Y-105361618D01*
X136736613Y-105381319D01*
X136711736Y-105401735D01*
X136630259Y-105501015D01*
X136602696Y-105552583D01*
X136569716Y-105614283D01*
X136545890Y-105692827D01*
X136475552Y-105750552D01*
X136409696Y-105830798D01*
X136360761Y-105922350D01*
X136330626Y-106021690D01*
X136320451Y-106125000D01*
X136320451Y-107171387D01*
X134807454Y-105658390D01*
X134841118Y-105547417D01*
X134855638Y-105399999D01*
X134841118Y-105252582D01*
X134798117Y-105110829D01*
X134728290Y-104980189D01*
X134657863Y-104894374D01*
X130657867Y-100894379D01*
X130634317Y-100865683D01*
X130519810Y-100771710D01*
X130389170Y-100701882D01*
X130247418Y-100658881D01*
X130136938Y-100648000D01*
X130136935Y-100648000D01*
X130100000Y-100644362D01*
X130063065Y-100648000D01*
X127732208Y-100648000D01*
X127628199Y-100578504D01*
X127459496Y-100508624D01*
X127280401Y-100473000D01*
X127097799Y-100473000D01*
X126918704Y-100508624D01*
X126750001Y-100578504D01*
X126645992Y-100648000D01*
X102786935Y-100648000D01*
X102749999Y-100644362D01*
X102713064Y-100648000D01*
X102713062Y-100648000D01*
X102602582Y-100658881D01*
X102460830Y-100701882D01*
X102403635Y-100732453D01*
X102330189Y-100771710D01*
X102244374Y-100842137D01*
X102215683Y-100865683D01*
X102192137Y-100894374D01*
X101841318Y-101245194D01*
X101760901Y-101278504D01*
X101609072Y-101379952D01*
X101479952Y-101509072D01*
X101378504Y-101660901D01*
X101308624Y-101829604D01*
X101273000Y-102008699D01*
X101273000Y-102191301D01*
X101304169Y-102348000D01*
X101119308Y-102348000D01*
X101015299Y-102278504D01*
X100846596Y-102208624D01*
X100667501Y-102173000D01*
X100484899Y-102173000D01*
X100305804Y-102208624D01*
X100137101Y-102278504D01*
X99985272Y-102379952D01*
X99856152Y-102509072D01*
X99754704Y-102660901D01*
X99684824Y-102829604D01*
X99649200Y-103008699D01*
X99649200Y-103191301D01*
X99684824Y-103370396D01*
X99754704Y-103539099D01*
X99856152Y-103690928D01*
X99985272Y-103820048D01*
X100137101Y-103921496D01*
X100305804Y-103991376D01*
X100484899Y-104027000D01*
X100667501Y-104027000D01*
X100846596Y-103991376D01*
X101015299Y-103921496D01*
X101119308Y-103852000D01*
X125033092Y-103852000D01*
X125137101Y-103921496D01*
X125305804Y-103991376D01*
X125484899Y-104027000D01*
X125667501Y-104027000D01*
X125846596Y-103991376D01*
X126015299Y-103921496D01*
X126119308Y-103852000D01*
X129088512Y-103852000D01*
X132394374Y-107157863D01*
X132480189Y-107228290D01*
X132610829Y-107298117D01*
X132704451Y-107326518D01*
X134950933Y-109573000D01*
X128136489Y-109573000D01*
X126752000Y-108188512D01*
X126752000Y-107643108D01*
X126821496Y-107539099D01*
X126891376Y-107370396D01*
X126927000Y-107191301D01*
X126927000Y-107008699D01*
X126891376Y-106829604D01*
X126821496Y-106660901D01*
X126720048Y-106509072D01*
X126590928Y-106379952D01*
X126439099Y-106278504D01*
X126270396Y-106208624D01*
X126091301Y-106173000D01*
X125908699Y-106173000D01*
X125729604Y-106208624D01*
X125560901Y-106278504D01*
X125409072Y-106379952D01*
X125279952Y-106509072D01*
X125178504Y-106660901D01*
X125108624Y-106829604D01*
X125073000Y-107008699D01*
X125073000Y-107191301D01*
X125108624Y-107370396D01*
X125178504Y-107539099D01*
X125248000Y-107643109D01*
X125248001Y-108463055D01*
X125244362Y-108500000D01*
X125256745Y-108625716D01*
X125258882Y-108647418D01*
X125267588Y-108676118D01*
X125301882Y-108789169D01*
X125371710Y-108919810D01*
X125442137Y-109005625D01*
X125465684Y-109034317D01*
X125494375Y-109057863D01*
X126009512Y-109573000D01*
X116783735Y-109573000D01*
X116745261Y-109379577D01*
X116584923Y-108992488D01*
X116352149Y-108644116D01*
X116055884Y-108347851D01*
X115707512Y-108115077D01*
X115320423Y-107954739D01*
X114909491Y-107873000D01*
X114490509Y-107873000D01*
X114079577Y-107954739D01*
X113692488Y-108115077D01*
X113344116Y-108347851D01*
X113047851Y-108644116D01*
X112815077Y-108992488D01*
X112654739Y-109379577D01*
X112616265Y-109573000D01*
X101452000Y-109573000D01*
X101452000Y-107643108D01*
X101521496Y-107539099D01*
X101591376Y-107370396D01*
X101627000Y-107191301D01*
X101627000Y-107008699D01*
X101591376Y-106829604D01*
X101521496Y-106660901D01*
X101420048Y-106509072D01*
X101290928Y-106379952D01*
X101139099Y-106278504D01*
X100970396Y-106208624D01*
X100791301Y-106173000D01*
X100608699Y-106173000D01*
X100429604Y-106208624D01*
X100260901Y-106278504D01*
X100109072Y-106379952D01*
X99979952Y-106509072D01*
X99878504Y-106660901D01*
X99808624Y-106829604D01*
X99773000Y-107008699D01*
X99773000Y-107191301D01*
X99808624Y-107370396D01*
X99878504Y-107539099D01*
X99948000Y-107643108D01*
X99948001Y-109573000D01*
X90629730Y-109573000D01*
X90671995Y-108805013D01*
X90890361Y-107572889D01*
X91255165Y-106375932D01*
X91761129Y-105231464D01*
X92400923Y-104156068D01*
X93165273Y-103165329D01*
X94043113Y-102273591D01*
X95021725Y-101493772D01*
X96086935Y-100837169D01*
X97223312Y-100313292D01*
X98414391Y-99929732D01*
X99642931Y-99692041D01*
X100907671Y-99602492D01*
X101001624Y-99602000D01*
X178981870Y-99602000D01*
X180249048Y-99678394D01*
G36*
X99782795Y-110459746D02*
G01*
X99704774Y-110648104D01*
X99665000Y-110848063D01*
X99665000Y-111051941D01*
X99704774Y-111251900D01*
X99782795Y-111440258D01*
X99896063Y-111609776D01*
X100040226Y-111753939D01*
X100209744Y-111867207D01*
X100398102Y-111945228D01*
X100598061Y-111985002D01*
X100801939Y-111985002D01*
X101001898Y-111945228D01*
X101190256Y-111867207D01*
X101359774Y-111753939D01*
X101503937Y-111609776D01*
X101617205Y-111440258D01*
X101695226Y-111251900D01*
X101735000Y-111051941D01*
X101735000Y-110848063D01*
X101695226Y-110648104D01*
X101617205Y-110459746D01*
X101595325Y-110427000D01*
X112506150Y-110427000D01*
X112550890Y-110651925D01*
X112719369Y-111058669D01*
X112963962Y-111424729D01*
X113275271Y-111736038D01*
X113641331Y-111980631D01*
X114048075Y-112149110D01*
X114479872Y-112235000D01*
X114920128Y-112235000D01*
X115351925Y-112149110D01*
X115758669Y-111980631D01*
X116124729Y-111736038D01*
X116436038Y-111424729D01*
X116680631Y-111058669D01*
X116849110Y-110651925D01*
X116893850Y-110427000D01*
X126710777Y-110427000D01*
X127240000Y-110956223D01*
X127240001Y-112524129D01*
X127182795Y-112609744D01*
X127104774Y-112798102D01*
X127065000Y-112998061D01*
X127065000Y-113201939D01*
X127104774Y-113401898D01*
X127182795Y-113590256D01*
X127296063Y-113759774D01*
X127440226Y-113903937D01*
X127609744Y-114017205D01*
X127798102Y-114095226D01*
X127998061Y-114135000D01*
X128201939Y-114135000D01*
X128401898Y-114095226D01*
X128590256Y-114017205D01*
X128759774Y-113903937D01*
X128903937Y-113759774D01*
X129017205Y-113590256D01*
X129095226Y-113401898D01*
X129135000Y-113201939D01*
X129135000Y-112998061D01*
X129095226Y-112798102D01*
X129017205Y-112609744D01*
X128960000Y-112524130D01*
X128960000Y-110642238D01*
X128964160Y-110599999D01*
X128960000Y-110557760D01*
X128960000Y-110557754D01*
X128948970Y-110445763D01*
X128947556Y-110431409D01*
X128946219Y-110427000D01*
X135652198Y-110427000D01*
X136647924Y-111422726D01*
X136605820Y-111435498D01*
X136495506Y-111494463D01*
X136398815Y-111573815D01*
X136319463Y-111670506D01*
X136260498Y-111780820D01*
X136224188Y-111900518D01*
X136211928Y-112025000D01*
X136211928Y-112095674D01*
X136175723Y-112115026D01*
X136115853Y-112164161D01*
X136059999Y-112209999D01*
X136036201Y-112238998D01*
X135493687Y-112781512D01*
X135384734Y-112826642D01*
X135215216Y-112939910D01*
X135071053Y-113084073D01*
X134957785Y-113253591D01*
X134879764Y-113441949D01*
X134839990Y-113641908D01*
X134839990Y-113845786D01*
X134879764Y-114045745D01*
X134957785Y-114234103D01*
X135071053Y-114403621D01*
X135215216Y-114547784D01*
X135384734Y-114661052D01*
X135465000Y-114694300D01*
X135465000Y-114801939D01*
X135504774Y-115001898D01*
X135582795Y-115190256D01*
X135696063Y-115359774D01*
X135840226Y-115503937D01*
X136009744Y-115617205D01*
X136198102Y-115695226D01*
X136398061Y-115735000D01*
X136601939Y-115735000D01*
X136801898Y-115695226D01*
X136990256Y-115617205D01*
X137159774Y-115503937D01*
X137303937Y-115359774D01*
X137417205Y-115190256D01*
X137475655Y-115049146D01*
X137615000Y-114909801D01*
X137615000Y-115244513D01*
X136688998Y-116170516D01*
X136660000Y-116194314D01*
X136636202Y-116223312D01*
X136636201Y-116223313D01*
X136565026Y-116310039D01*
X136526137Y-116382795D01*
X136494454Y-116442068D01*
X136473159Y-116512268D01*
X136412115Y-116437885D01*
X136282275Y-116331329D01*
X136134142Y-116252150D01*
X135973408Y-116203392D01*
X135806250Y-116186928D01*
X135368750Y-116186928D01*
X135201592Y-116203392D01*
X135040858Y-116252150D01*
X134892725Y-116331329D01*
X134800000Y-116407426D01*
X134707275Y-116331329D01*
X134559142Y-116252150D01*
X134398408Y-116203392D01*
X134231250Y-116186928D01*
X133793750Y-116186928D01*
X133626592Y-116203392D01*
X133465858Y-116252150D01*
X133317725Y-116331329D01*
X133187885Y-116437885D01*
X133081329Y-116567725D01*
X133002150Y-116715858D01*
X132953392Y-116876592D01*
X132936928Y-117043750D01*
X132936928Y-117556250D01*
X132953392Y-117723408D01*
X133002150Y-117884142D01*
X133081329Y-118032275D01*
X133187885Y-118162115D01*
X133317725Y-118268671D01*
X133465858Y-118347850D01*
X133626592Y-118396608D01*
X133793750Y-118413072D01*
X134050771Y-118413072D01*
X134948705Y-119311008D01*
X134972499Y-119340001D01*
X135001492Y-119363795D01*
X135001496Y-119363799D01*
X135054446Y-119407253D01*
X135088224Y-119434974D01*
X135220253Y-119505546D01*
X135363514Y-119549003D01*
X135475167Y-119560000D01*
X135475176Y-119560000D01*
X135512499Y-119563676D01*
X135549822Y-119560000D01*
X137496289Y-119560000D01*
X137540226Y-119603937D01*
X137709744Y-119717205D01*
X137898102Y-119795226D01*
X138098061Y-119835000D01*
X138301939Y-119835000D01*
X138501898Y-119795226D01*
X138690256Y-119717205D01*
X138859774Y-119603937D01*
X139003937Y-119459774D01*
X139117205Y-119290256D01*
X139195226Y-119101898D01*
X139235000Y-118901939D01*
X139235000Y-118698061D01*
X139195226Y-118498102D01*
X139117205Y-118309744D01*
X139003937Y-118140226D01*
X138859774Y-117996063D01*
X138690256Y-117882795D01*
X138501898Y-117804774D01*
X138301939Y-117765000D01*
X138127666Y-117765000D01*
X138195226Y-117601898D01*
X138235000Y-117401939D01*
X138235000Y-117198061D01*
X138195226Y-116998102D01*
X138141271Y-116867845D01*
X138540000Y-116469116D01*
X138540000Y-116662677D01*
X138536324Y-116700000D01*
X138540000Y-116737322D01*
X138540000Y-116737332D01*
X138550997Y-116848985D01*
X138579833Y-116944045D01*
X138594454Y-116992246D01*
X138665026Y-117124276D01*
X138693188Y-117158591D01*
X138759999Y-117240001D01*
X138789003Y-117263804D01*
X140136201Y-118611003D01*
X140159999Y-118640001D01*
X140188997Y-118663799D01*
X140275723Y-118734974D01*
X140370355Y-118785556D01*
X140407753Y-118805546D01*
X140551014Y-118849003D01*
X140662667Y-118860000D01*
X140662677Y-118860000D01*
X140700000Y-118863676D01*
X140737322Y-118860000D01*
X142862678Y-118860000D01*
X142900000Y-118863676D01*
X142937322Y-118860000D01*
X142937333Y-118860000D01*
X143048986Y-118849003D01*
X143192247Y-118805546D01*
X143324276Y-118734974D01*
X143440001Y-118640001D01*
X143463803Y-118610998D01*
X143785002Y-118289800D01*
X143798102Y-118295226D01*
X143998061Y-118335000D01*
X144201939Y-118335000D01*
X144401898Y-118295226D01*
X144590256Y-118217205D01*
X144759774Y-118103937D01*
X144903937Y-117959774D01*
X145017205Y-117790256D01*
X145095226Y-117601898D01*
X145135000Y-117401939D01*
X145135000Y-117198061D01*
X145097896Y-117011523D01*
X145165858Y-117047850D01*
X145326592Y-117096608D01*
X145493750Y-117113072D01*
X145931250Y-117113072D01*
X146098408Y-117096608D01*
X146259142Y-117047850D01*
X146407275Y-116968671D01*
X146514051Y-116881043D01*
X146555798Y-116915305D01*
X146647350Y-116964240D01*
X146746690Y-116994375D01*
X146850000Y-117004550D01*
X146882750Y-117002000D01*
X147014500Y-116870250D01*
X147014500Y-116273000D01*
X147560500Y-116273000D01*
X147560500Y-116870250D01*
X147692250Y-117002000D01*
X147725000Y-117004550D01*
X147828310Y-116994375D01*
X147927650Y-116964240D01*
X148019202Y-116915305D01*
X148099448Y-116849448D01*
X148165305Y-116769202D01*
X148214240Y-116677650D01*
X148244375Y-116578310D01*
X148254550Y-116475000D01*
X148252000Y-116404750D01*
X148120250Y-116273000D01*
X147560500Y-116273000D01*
X147014500Y-116273000D01*
X146994500Y-116273000D01*
X146994500Y-115746444D01*
X184639636Y-115746444D01*
X184783653Y-115988061D01*
X185109154Y-116116808D01*
X185453518Y-116179579D01*
X185803511Y-116173963D01*
X186145683Y-116100174D01*
X186416347Y-115988061D01*
X186560364Y-115746444D01*
X185600000Y-114786080D01*
X184639636Y-115746444D01*
X146994500Y-115746444D01*
X146994500Y-115727000D01*
X147014500Y-115727000D01*
X147014500Y-115129750D01*
X147560500Y-115129750D01*
X147560500Y-115727000D01*
X148120250Y-115727000D01*
X148252000Y-115595250D01*
X148254550Y-115525000D01*
X148244375Y-115421690D01*
X148214240Y-115322350D01*
X148165305Y-115230798D01*
X148099448Y-115150552D01*
X148019202Y-115084695D01*
X147927650Y-115035760D01*
X147828310Y-115005625D01*
X147725000Y-114995450D01*
X147692250Y-114998000D01*
X147560500Y-115129750D01*
X147014500Y-115129750D01*
X146882750Y-114998000D01*
X146850000Y-114995450D01*
X146746690Y-115005625D01*
X146647350Y-115035760D01*
X146555798Y-115084695D01*
X146514051Y-115118957D01*
X146407275Y-115031329D01*
X146259142Y-114952150D01*
X146098408Y-114903392D01*
X145931250Y-114886928D01*
X145493750Y-114886928D01*
X145326592Y-114903392D01*
X145165858Y-114952150D01*
X145017725Y-115031329D01*
X144887885Y-115137885D01*
X144850000Y-115184048D01*
X144812115Y-115137885D01*
X144682275Y-115031329D01*
X144534142Y-114952150D01*
X144373408Y-114903392D01*
X144206250Y-114886928D01*
X144137873Y-114886928D01*
X144149801Y-114875000D01*
X148895450Y-114875000D01*
X148905625Y-114978310D01*
X148935760Y-115077650D01*
X148984695Y-115169202D01*
X149050552Y-115249448D01*
X149130798Y-115315305D01*
X149222350Y-115364240D01*
X149321690Y-115394375D01*
X149425000Y-115404550D01*
X149495250Y-115402000D01*
X149627000Y-115270250D01*
X149627000Y-114710500D01*
X150173000Y-114710500D01*
X150173000Y-115270250D01*
X150304750Y-115402000D01*
X150375000Y-115404550D01*
X150478310Y-115394375D01*
X150577650Y-115364240D01*
X150669202Y-115315305D01*
X150749448Y-115249448D01*
X150815305Y-115169202D01*
X150864240Y-115077650D01*
X150894375Y-114978310D01*
X150904550Y-114875000D01*
X150902000Y-114842250D01*
X150770250Y-114710500D01*
X150173000Y-114710500D01*
X149627000Y-114710500D01*
X149029750Y-114710500D01*
X148898000Y-114842250D01*
X148895450Y-114875000D01*
X144149801Y-114875000D01*
X144771283Y-114253518D01*
X183820421Y-114253518D01*
X183826037Y-114603511D01*
X183899826Y-114945683D01*
X184011939Y-115216347D01*
X184253556Y-115360364D01*
X185213920Y-114400000D01*
X185986080Y-114400000D01*
X186946444Y-115360364D01*
X187188061Y-115216347D01*
X187316808Y-114890846D01*
X187379579Y-114546482D01*
X187373963Y-114196489D01*
X187300174Y-113854317D01*
X187188061Y-113583653D01*
X186946444Y-113439636D01*
X185986080Y-114400000D01*
X185213920Y-114400000D01*
X184253556Y-113439636D01*
X184011939Y-113583653D01*
X183883192Y-113909154D01*
X183820421Y-114253518D01*
X144771283Y-114253518D01*
X144961014Y-114063788D01*
X144990012Y-114039990D01*
X145022832Y-113999999D01*
X145084985Y-113924266D01*
X145155557Y-113792236D01*
X145172049Y-113737867D01*
X145199014Y-113648975D01*
X145210011Y-113537322D01*
X145210011Y-113537313D01*
X145213687Y-113499990D01*
X145210011Y-113462667D01*
X145210011Y-111687239D01*
X145277000Y-111620250D01*
X145277000Y-111060500D01*
X145823000Y-111060500D01*
X145823000Y-111620250D01*
X145954750Y-111752000D01*
X146025000Y-111754550D01*
X146089097Y-111748237D01*
X147470453Y-111748237D01*
X147480284Y-111851581D01*
X147510088Y-111951020D01*
X147558718Y-112042735D01*
X147624307Y-112123200D01*
X147704334Y-112189323D01*
X147795723Y-112238563D01*
X147894962Y-112269028D01*
X147995250Y-112277000D01*
X148127000Y-112145250D01*
X148127000Y-111573000D01*
X147604750Y-111573000D01*
X147473000Y-111704750D01*
X147470453Y-111748237D01*
X146089097Y-111748237D01*
X146128310Y-111744375D01*
X146227650Y-111714240D01*
X146319202Y-111665305D01*
X146399448Y-111599448D01*
X146465305Y-111519202D01*
X146514240Y-111427650D01*
X146544375Y-111328310D01*
X146554550Y-111225000D01*
X146552000Y-111192250D01*
X146420250Y-111060500D01*
X145823000Y-111060500D01*
X145277000Y-111060500D01*
X145257000Y-111060500D01*
X145257000Y-110535000D01*
X147576867Y-110535000D01*
X147558718Y-110557265D01*
X147510088Y-110648980D01*
X147480284Y-110748419D01*
X147470453Y-110851763D01*
X147473000Y-110895250D01*
X147604750Y-111027000D01*
X148127000Y-111027000D01*
X148127000Y-111007000D01*
X148673000Y-111007000D01*
X148673000Y-111027000D01*
X148693000Y-111027000D01*
X148693000Y-111573000D01*
X148673000Y-111573000D01*
X148673000Y-112145250D01*
X148804750Y-112277000D01*
X148875945Y-112271341D01*
X148852150Y-112315858D01*
X148803392Y-112476592D01*
X148786928Y-112643750D01*
X148786928Y-113081250D01*
X148803392Y-113248408D01*
X148852150Y-113409142D01*
X148931329Y-113557275D01*
X149018957Y-113664051D01*
X148984695Y-113705798D01*
X148935760Y-113797350D01*
X148905625Y-113896690D01*
X148895450Y-114000000D01*
X148898000Y-114032750D01*
X149029750Y-114164500D01*
X149627000Y-114164500D01*
X149627000Y-114144500D01*
X150173000Y-114144500D01*
X150173000Y-114164500D01*
X150770250Y-114164500D01*
X150902000Y-114032750D01*
X150904550Y-114000000D01*
X150894375Y-113896690D01*
X150864240Y-113797350D01*
X150815305Y-113705798D01*
X150781043Y-113664051D01*
X150868671Y-113557275D01*
X150947850Y-113409142D01*
X150996608Y-113248408D01*
X151013072Y-113081250D01*
X151013072Y-112929296D01*
X151739215Y-113655439D01*
X151766146Y-113688254D01*
X151897098Y-113795724D01*
X152046500Y-113875581D01*
X152121660Y-113898380D01*
X152208609Y-113924756D01*
X152239738Y-113927822D01*
X152334954Y-113937200D01*
X152334960Y-113937200D01*
X152377199Y-113941360D01*
X152419438Y-113937200D01*
X152512808Y-113937200D01*
X152632544Y-114017205D01*
X152820902Y-114095226D01*
X153020861Y-114135000D01*
X153224739Y-114135000D01*
X153424698Y-114095226D01*
X153613056Y-114017205D01*
X153782574Y-113903937D01*
X153926737Y-113759774D01*
X154040005Y-113590256D01*
X154118026Y-113401898D01*
X154157800Y-113201939D01*
X154157800Y-112998061D01*
X154118026Y-112798102D01*
X154040005Y-112609744D01*
X153926737Y-112440226D01*
X153783511Y-112297000D01*
X153898002Y-112297000D01*
X153898002Y-112165252D01*
X154029750Y-112297000D01*
X155200000Y-112299550D01*
X155303310Y-112289375D01*
X155402650Y-112259240D01*
X155494202Y-112210305D01*
X155574448Y-112144448D01*
X155640305Y-112064202D01*
X155689240Y-111972650D01*
X155719375Y-111873310D01*
X155729550Y-111770000D01*
X156570450Y-111770000D01*
X156580625Y-111873310D01*
X156610760Y-111972650D01*
X156659695Y-112064202D01*
X156725552Y-112144448D01*
X156805798Y-112210305D01*
X156897350Y-112259240D01*
X156996690Y-112289375D01*
X157100000Y-112299550D01*
X158270250Y-112297000D01*
X158402000Y-112165250D01*
X158402000Y-111543000D01*
X158948000Y-111543000D01*
X158948000Y-112165250D01*
X159079750Y-112297000D01*
X160250000Y-112299550D01*
X160353310Y-112289375D01*
X160452650Y-112259240D01*
X160544202Y-112210305D01*
X160624448Y-112144448D01*
X160690305Y-112064202D01*
X160739240Y-111972650D01*
X160769375Y-111873310D01*
X160779550Y-111770000D01*
X160777000Y-111674750D01*
X160645250Y-111543000D01*
X158948000Y-111543000D01*
X158402000Y-111543000D01*
X156704750Y-111543000D01*
X156573000Y-111674750D01*
X156570450Y-111770000D01*
X155729550Y-111770000D01*
X155727000Y-111674750D01*
X155595250Y-111543000D01*
X153898000Y-111543000D01*
X153898000Y-111563000D01*
X153352000Y-111563000D01*
X153352000Y-111543000D01*
X153332000Y-111543000D01*
X153332000Y-110997000D01*
X153352000Y-110997000D01*
X153352000Y-110977000D01*
X153898000Y-110977000D01*
X153898000Y-110997000D01*
X155595250Y-110997000D01*
X155727000Y-110865250D01*
X155729550Y-110770000D01*
X155719375Y-110666690D01*
X155689240Y-110567350D01*
X155640305Y-110475798D01*
X155600257Y-110427000D01*
X156699743Y-110427000D01*
X156659695Y-110475798D01*
X156610760Y-110567350D01*
X156580625Y-110666690D01*
X156570450Y-110770000D01*
X156573000Y-110865250D01*
X156704750Y-110997000D01*
X158402000Y-110997000D01*
X158402000Y-110977000D01*
X158948000Y-110977000D01*
X158948000Y-110997000D01*
X160645250Y-110997000D01*
X160777000Y-110865250D01*
X160779550Y-110770000D01*
X160769375Y-110666690D01*
X160739240Y-110567350D01*
X160690305Y-110475798D01*
X160650257Y-110427000D01*
X162556150Y-110427000D01*
X162600890Y-110651925D01*
X162769369Y-111058669D01*
X163013962Y-111424729D01*
X163325271Y-111736038D01*
X163691331Y-111980631D01*
X164098075Y-112149110D01*
X164529872Y-112235000D01*
X164970128Y-112235000D01*
X165401925Y-112149110D01*
X165808669Y-111980631D01*
X166174729Y-111736038D01*
X166486038Y-111424729D01*
X166730631Y-111058669D01*
X166899110Y-110651925D01*
X166943850Y-110427000D01*
X177240001Y-110427000D01*
X177240000Y-112524130D01*
X177182795Y-112609744D01*
X177104774Y-112798102D01*
X177065000Y-112998061D01*
X177065000Y-113201939D01*
X177104774Y-113401898D01*
X177182795Y-113590256D01*
X177296063Y-113759774D01*
X177440226Y-113903937D01*
X177609744Y-114017205D01*
X177798102Y-114095226D01*
X177998061Y-114135000D01*
X178201939Y-114135000D01*
X178401898Y-114095226D01*
X178590256Y-114017205D01*
X178759774Y-113903937D01*
X178903937Y-113759774D01*
X179017205Y-113590256D01*
X179095226Y-113401898D01*
X179135000Y-113201939D01*
X179135000Y-113053556D01*
X184639636Y-113053556D01*
X185600000Y-114013920D01*
X186560364Y-113053556D01*
X186416347Y-112811939D01*
X186090846Y-112683192D01*
X185746482Y-112620421D01*
X185396489Y-112626037D01*
X185054317Y-112699826D01*
X184783653Y-112811939D01*
X184639636Y-113053556D01*
X179135000Y-113053556D01*
X179135000Y-112998061D01*
X179095226Y-112798102D01*
X179017205Y-112609744D01*
X178960000Y-112524130D01*
X178960000Y-112172719D01*
X179005798Y-112210305D01*
X179097350Y-112259240D01*
X179196690Y-112289375D01*
X179300000Y-112299550D01*
X180470250Y-112297000D01*
X180602000Y-112165250D01*
X180602000Y-111543000D01*
X181148000Y-111543000D01*
X181148000Y-112165250D01*
X181279750Y-112297000D01*
X182450000Y-112299550D01*
X182553310Y-112289375D01*
X182652650Y-112259240D01*
X182744202Y-112210305D01*
X182824448Y-112144448D01*
X182890305Y-112064202D01*
X182939240Y-111972650D01*
X182969375Y-111873310D01*
X182979550Y-111770000D01*
X183820450Y-111770000D01*
X183830625Y-111873310D01*
X183860760Y-111972650D01*
X183909695Y-112064202D01*
X183975552Y-112144448D01*
X184055798Y-112210305D01*
X184147350Y-112259240D01*
X184246690Y-112289375D01*
X184350000Y-112299550D01*
X185520250Y-112297000D01*
X185652000Y-112165250D01*
X185652000Y-111543000D01*
X186198000Y-111543000D01*
X186198000Y-112165250D01*
X186329750Y-112297000D01*
X187500000Y-112299550D01*
X187603310Y-112289375D01*
X187702650Y-112259240D01*
X187794202Y-112210305D01*
X187874448Y-112144448D01*
X187940305Y-112064202D01*
X187989240Y-111972650D01*
X188019375Y-111873310D01*
X188029550Y-111770000D01*
X188027000Y-111674750D01*
X187895250Y-111543000D01*
X186198000Y-111543000D01*
X185652000Y-111543000D01*
X183954750Y-111543000D01*
X183823000Y-111674750D01*
X183820450Y-111770000D01*
X182979550Y-111770000D01*
X182977000Y-111674750D01*
X182845250Y-111543000D01*
X181148000Y-111543000D01*
X180602000Y-111543000D01*
X180582000Y-111543000D01*
X180582000Y-110997000D01*
X180602000Y-110997000D01*
X180602000Y-110977000D01*
X181148000Y-110977000D01*
X181148000Y-110997000D01*
X182845250Y-110997000D01*
X182977000Y-110865250D01*
X182979550Y-110770000D01*
X182969375Y-110666690D01*
X182939240Y-110567350D01*
X182890305Y-110475798D01*
X182850257Y-110427000D01*
X183949743Y-110427000D01*
X183909695Y-110475798D01*
X183860760Y-110567350D01*
X183830625Y-110666690D01*
X183820450Y-110770000D01*
X183823000Y-110865250D01*
X183954750Y-110997000D01*
X185652000Y-110997000D01*
X185652000Y-110977000D01*
X186198000Y-110977000D01*
X186198000Y-110997000D01*
X187895250Y-110997000D01*
X188027000Y-110865250D01*
X188029550Y-110770000D01*
X188019375Y-110666690D01*
X187989240Y-110567350D01*
X187940305Y-110475798D01*
X187900257Y-110427000D01*
X189262106Y-110427000D01*
X189220525Y-111182551D01*
X189004432Y-112401857D01*
X188643425Y-113586355D01*
X188142726Y-114718912D01*
X187509594Y-115783111D01*
X186753194Y-116763546D01*
X185884495Y-117646000D01*
X184916060Y-118417709D01*
X183861939Y-119067476D01*
X182737387Y-119585903D01*
X181558698Y-119965473D01*
X180342949Y-120200689D01*
X179088225Y-120289529D01*
X178998193Y-120290000D01*
X101021378Y-120290000D01*
X99763946Y-120214194D01*
X98545799Y-119991720D01*
X97363200Y-119624513D01*
X96233285Y-119117894D01*
X95172406Y-118479193D01*
X94195952Y-117717676D01*
X93318054Y-116844361D01*
X92551431Y-115871903D01*
X91907188Y-114814390D01*
X91394660Y-113687143D01*
X91021267Y-112506482D01*
X90792418Y-111289517D01*
X90735886Y-110427000D01*
X99804675Y-110427000D01*
X99782795Y-110459746D01*
X99782795Y-110459746D01*
G37*
X99782795Y-110459746D02*
X99704774Y-110648104D01*
X99665000Y-110848063D01*
X99665000Y-111051941D01*
X99704774Y-111251900D01*
X99782795Y-111440258D01*
X99896063Y-111609776D01*
X100040226Y-111753939D01*
X100209744Y-111867207D01*
X100398102Y-111945228D01*
X100598061Y-111985002D01*
X100801939Y-111985002D01*
X101001898Y-111945228D01*
X101190256Y-111867207D01*
X101359774Y-111753939D01*
X101503937Y-111609776D01*
X101617205Y-111440258D01*
X101695226Y-111251900D01*
X101735000Y-111051941D01*
X101735000Y-110848063D01*
X101695226Y-110648104D01*
X101617205Y-110459746D01*
X101595325Y-110427000D01*
X112506150Y-110427000D01*
X112550890Y-110651925D01*
X112719369Y-111058669D01*
X112963962Y-111424729D01*
X113275271Y-111736038D01*
X113641331Y-111980631D01*
X114048075Y-112149110D01*
X114479872Y-112235000D01*
X114920128Y-112235000D01*
X115351925Y-112149110D01*
X115758669Y-111980631D01*
X116124729Y-111736038D01*
X116436038Y-111424729D01*
X116680631Y-111058669D01*
X116849110Y-110651925D01*
X116893850Y-110427000D01*
X126710777Y-110427000D01*
X127240000Y-110956223D01*
X127240001Y-112524129D01*
X127182795Y-112609744D01*
X127104774Y-112798102D01*
X127065000Y-112998061D01*
X127065000Y-113201939D01*
X127104774Y-113401898D01*
X127182795Y-113590256D01*
X127296063Y-113759774D01*
X127440226Y-113903937D01*
X127609744Y-114017205D01*
X127798102Y-114095226D01*
X127998061Y-114135000D01*
X128201939Y-114135000D01*
X128401898Y-114095226D01*
X128590256Y-114017205D01*
X128759774Y-113903937D01*
X128903937Y-113759774D01*
X129017205Y-113590256D01*
X129095226Y-113401898D01*
X129135000Y-113201939D01*
X129135000Y-112998061D01*
X129095226Y-112798102D01*
X129017205Y-112609744D01*
X128960000Y-112524130D01*
X128960000Y-110642238D01*
X128964160Y-110599999D01*
X128960000Y-110557760D01*
X128960000Y-110557754D01*
X128948970Y-110445763D01*
X128947556Y-110431409D01*
X128946219Y-110427000D01*
X135652198Y-110427000D01*
X136647924Y-111422726D01*
X136605820Y-111435498D01*
X136495506Y-111494463D01*
X136398815Y-111573815D01*
X136319463Y-111670506D01*
X136260498Y-111780820D01*
X136224188Y-111900518D01*
X136211928Y-112025000D01*
X136211928Y-112095674D01*
X136175723Y-112115026D01*
X136115853Y-112164161D01*
X136059999Y-112209999D01*
X136036201Y-112238998D01*
X135493687Y-112781512D01*
X135384734Y-112826642D01*
X135215216Y-112939910D01*
X135071053Y-113084073D01*
X134957785Y-113253591D01*
X134879764Y-113441949D01*
X134839990Y-113641908D01*
X134839990Y-113845786D01*
X134879764Y-114045745D01*
X134957785Y-114234103D01*
X135071053Y-114403621D01*
X135215216Y-114547784D01*
X135384734Y-114661052D01*
X135465000Y-114694300D01*
X135465000Y-114801939D01*
X135504774Y-115001898D01*
X135582795Y-115190256D01*
X135696063Y-115359774D01*
X135840226Y-115503937D01*
X136009744Y-115617205D01*
X136198102Y-115695226D01*
X136398061Y-115735000D01*
X136601939Y-115735000D01*
X136801898Y-115695226D01*
X136990256Y-115617205D01*
X137159774Y-115503937D01*
X137303937Y-115359774D01*
X137417205Y-115190256D01*
X137475655Y-115049146D01*
X137615000Y-114909801D01*
X137615000Y-115244513D01*
X136688998Y-116170516D01*
X136660000Y-116194314D01*
X136636202Y-116223312D01*
X136636201Y-116223313D01*
X136565026Y-116310039D01*
X136526137Y-116382795D01*
X136494454Y-116442068D01*
X136473159Y-116512268D01*
X136412115Y-116437885D01*
X136282275Y-116331329D01*
X136134142Y-116252150D01*
X135973408Y-116203392D01*
X135806250Y-116186928D01*
X135368750Y-116186928D01*
X135201592Y-116203392D01*
X135040858Y-116252150D01*
X134892725Y-116331329D01*
X134800000Y-116407426D01*
X134707275Y-116331329D01*
X134559142Y-116252150D01*
X134398408Y-116203392D01*
X134231250Y-116186928D01*
X133793750Y-116186928D01*
X133626592Y-116203392D01*
X133465858Y-116252150D01*
X133317725Y-116331329D01*
X133187885Y-116437885D01*
X133081329Y-116567725D01*
X133002150Y-116715858D01*
X132953392Y-116876592D01*
X132936928Y-117043750D01*
X132936928Y-117556250D01*
X132953392Y-117723408D01*
X133002150Y-117884142D01*
X133081329Y-118032275D01*
X133187885Y-118162115D01*
X133317725Y-118268671D01*
X133465858Y-118347850D01*
X133626592Y-118396608D01*
X133793750Y-118413072D01*
X134050771Y-118413072D01*
X134948705Y-119311008D01*
X134972499Y-119340001D01*
X135001492Y-119363795D01*
X135001496Y-119363799D01*
X135054446Y-119407253D01*
X135088224Y-119434974D01*
X135220253Y-119505546D01*
X135363514Y-119549003D01*
X135475167Y-119560000D01*
X135475176Y-119560000D01*
X135512499Y-119563676D01*
X135549822Y-119560000D01*
X137496289Y-119560000D01*
X137540226Y-119603937D01*
X137709744Y-119717205D01*
X137898102Y-119795226D01*
X138098061Y-119835000D01*
X138301939Y-119835000D01*
X138501898Y-119795226D01*
X138690256Y-119717205D01*
X138859774Y-119603937D01*
X139003937Y-119459774D01*
X139117205Y-119290256D01*
X139195226Y-119101898D01*
X139235000Y-118901939D01*
X139235000Y-118698061D01*
X139195226Y-118498102D01*
X139117205Y-118309744D01*
X139003937Y-118140226D01*
X138859774Y-117996063D01*
X138690256Y-117882795D01*
X138501898Y-117804774D01*
X138301939Y-117765000D01*
X138127666Y-117765000D01*
X138195226Y-117601898D01*
X138235000Y-117401939D01*
X138235000Y-117198061D01*
X138195226Y-116998102D01*
X138141271Y-116867845D01*
X138540000Y-116469116D01*
X138540000Y-116662677D01*
X138536324Y-116700000D01*
X138540000Y-116737322D01*
X138540000Y-116737332D01*
X138550997Y-116848985D01*
X138579833Y-116944045D01*
X138594454Y-116992246D01*
X138665026Y-117124276D01*
X138693188Y-117158591D01*
X138759999Y-117240001D01*
X138789003Y-117263804D01*
X140136201Y-118611003D01*
X140159999Y-118640001D01*
X140188997Y-118663799D01*
X140275723Y-118734974D01*
X140370355Y-118785556D01*
X140407753Y-118805546D01*
X140551014Y-118849003D01*
X140662667Y-118860000D01*
X140662677Y-118860000D01*
X140700000Y-118863676D01*
X140737322Y-118860000D01*
X142862678Y-118860000D01*
X142900000Y-118863676D01*
X142937322Y-118860000D01*
X142937333Y-118860000D01*
X143048986Y-118849003D01*
X143192247Y-118805546D01*
X143324276Y-118734974D01*
X143440001Y-118640001D01*
X143463803Y-118610998D01*
X143785002Y-118289800D01*
X143798102Y-118295226D01*
X143998061Y-118335000D01*
X144201939Y-118335000D01*
X144401898Y-118295226D01*
X144590256Y-118217205D01*
X144759774Y-118103937D01*
X144903937Y-117959774D01*
X145017205Y-117790256D01*
X145095226Y-117601898D01*
X145135000Y-117401939D01*
X145135000Y-117198061D01*
X145097896Y-117011523D01*
X145165858Y-117047850D01*
X145326592Y-117096608D01*
X145493750Y-117113072D01*
X145931250Y-117113072D01*
X146098408Y-117096608D01*
X146259142Y-117047850D01*
X146407275Y-116968671D01*
X146514051Y-116881043D01*
X146555798Y-116915305D01*
X146647350Y-116964240D01*
X146746690Y-116994375D01*
X146850000Y-117004550D01*
X146882750Y-117002000D01*
X147014500Y-116870250D01*
X147014500Y-116273000D01*
X147560500Y-116273000D01*
X147560500Y-116870250D01*
X147692250Y-117002000D01*
X147725000Y-117004550D01*
X147828310Y-116994375D01*
X147927650Y-116964240D01*
X148019202Y-116915305D01*
X148099448Y-116849448D01*
X148165305Y-116769202D01*
X148214240Y-116677650D01*
X148244375Y-116578310D01*
X148254550Y-116475000D01*
X148252000Y-116404750D01*
X148120250Y-116273000D01*
X147560500Y-116273000D01*
X147014500Y-116273000D01*
X146994500Y-116273000D01*
X146994500Y-115746444D01*
X184639636Y-115746444D01*
X184783653Y-115988061D01*
X185109154Y-116116808D01*
X185453518Y-116179579D01*
X185803511Y-116173963D01*
X186145683Y-116100174D01*
X186416347Y-115988061D01*
X186560364Y-115746444D01*
X185600000Y-114786080D01*
X184639636Y-115746444D01*
X146994500Y-115746444D01*
X146994500Y-115727000D01*
X147014500Y-115727000D01*
X147014500Y-115129750D01*
X147560500Y-115129750D01*
X147560500Y-115727000D01*
X148120250Y-115727000D01*
X148252000Y-115595250D01*
X148254550Y-115525000D01*
X148244375Y-115421690D01*
X148214240Y-115322350D01*
X148165305Y-115230798D01*
X148099448Y-115150552D01*
X148019202Y-115084695D01*
X147927650Y-115035760D01*
X147828310Y-115005625D01*
X147725000Y-114995450D01*
X147692250Y-114998000D01*
X147560500Y-115129750D01*
X147014500Y-115129750D01*
X146882750Y-114998000D01*
X146850000Y-114995450D01*
X146746690Y-115005625D01*
X146647350Y-115035760D01*
X146555798Y-115084695D01*
X146514051Y-115118957D01*
X146407275Y-115031329D01*
X146259142Y-114952150D01*
X146098408Y-114903392D01*
X145931250Y-114886928D01*
X145493750Y-114886928D01*
X145326592Y-114903392D01*
X145165858Y-114952150D01*
X145017725Y-115031329D01*
X144887885Y-115137885D01*
X144850000Y-115184048D01*
X144812115Y-115137885D01*
X144682275Y-115031329D01*
X144534142Y-114952150D01*
X144373408Y-114903392D01*
X144206250Y-114886928D01*
X144137873Y-114886928D01*
X144149801Y-114875000D01*
X148895450Y-114875000D01*
X148905625Y-114978310D01*
X148935760Y-115077650D01*
X148984695Y-115169202D01*
X149050552Y-115249448D01*
X149130798Y-115315305D01*
X149222350Y-115364240D01*
X149321690Y-115394375D01*
X149425000Y-115404550D01*
X149495250Y-115402000D01*
X149627000Y-115270250D01*
X149627000Y-114710500D01*
X150173000Y-114710500D01*
X150173000Y-115270250D01*
X150304750Y-115402000D01*
X150375000Y-115404550D01*
X150478310Y-115394375D01*
X150577650Y-115364240D01*
X150669202Y-115315305D01*
X150749448Y-115249448D01*
X150815305Y-115169202D01*
X150864240Y-115077650D01*
X150894375Y-114978310D01*
X150904550Y-114875000D01*
X150902000Y-114842250D01*
X150770250Y-114710500D01*
X150173000Y-114710500D01*
X149627000Y-114710500D01*
X149029750Y-114710500D01*
X148898000Y-114842250D01*
X148895450Y-114875000D01*
X144149801Y-114875000D01*
X144771283Y-114253518D01*
X183820421Y-114253518D01*
X183826037Y-114603511D01*
X183899826Y-114945683D01*
X184011939Y-115216347D01*
X184253556Y-115360364D01*
X185213920Y-114400000D01*
X185986080Y-114400000D01*
X186946444Y-115360364D01*
X187188061Y-115216347D01*
X187316808Y-114890846D01*
X187379579Y-114546482D01*
X187373963Y-114196489D01*
X187300174Y-113854317D01*
X187188061Y-113583653D01*
X186946444Y-113439636D01*
X185986080Y-114400000D01*
X185213920Y-114400000D01*
X184253556Y-113439636D01*
X184011939Y-113583653D01*
X183883192Y-113909154D01*
X183820421Y-114253518D01*
X144771283Y-114253518D01*
X144961014Y-114063788D01*
X144990012Y-114039990D01*
X145022832Y-113999999D01*
X145084985Y-113924266D01*
X145155557Y-113792236D01*
X145172049Y-113737867D01*
X145199014Y-113648975D01*
X145210011Y-113537322D01*
X145210011Y-113537313D01*
X145213687Y-113499990D01*
X145210011Y-113462667D01*
X145210011Y-111687239D01*
X145277000Y-111620250D01*
X145277000Y-111060500D01*
X145823000Y-111060500D01*
X145823000Y-111620250D01*
X145954750Y-111752000D01*
X146025000Y-111754550D01*
X146089097Y-111748237D01*
X147470453Y-111748237D01*
X147480284Y-111851581D01*
X147510088Y-111951020D01*
X147558718Y-112042735D01*
X147624307Y-112123200D01*
X147704334Y-112189323D01*
X147795723Y-112238563D01*
X147894962Y-112269028D01*
X147995250Y-112277000D01*
X148127000Y-112145250D01*
X148127000Y-111573000D01*
X147604750Y-111573000D01*
X147473000Y-111704750D01*
X147470453Y-111748237D01*
X146089097Y-111748237D01*
X146128310Y-111744375D01*
X146227650Y-111714240D01*
X146319202Y-111665305D01*
X146399448Y-111599448D01*
X146465305Y-111519202D01*
X146514240Y-111427650D01*
X146544375Y-111328310D01*
X146554550Y-111225000D01*
X146552000Y-111192250D01*
X146420250Y-111060500D01*
X145823000Y-111060500D01*
X145277000Y-111060500D01*
X145257000Y-111060500D01*
X145257000Y-110535000D01*
X147576867Y-110535000D01*
X147558718Y-110557265D01*
X147510088Y-110648980D01*
X147480284Y-110748419D01*
X147470453Y-110851763D01*
X147473000Y-110895250D01*
X147604750Y-111027000D01*
X148127000Y-111027000D01*
X148127000Y-111007000D01*
X148673000Y-111007000D01*
X148673000Y-111027000D01*
X148693000Y-111027000D01*
X148693000Y-111573000D01*
X148673000Y-111573000D01*
X148673000Y-112145250D01*
X148804750Y-112277000D01*
X148875945Y-112271341D01*
X148852150Y-112315858D01*
X148803392Y-112476592D01*
X148786928Y-112643750D01*
X148786928Y-113081250D01*
X148803392Y-113248408D01*
X148852150Y-113409142D01*
X148931329Y-113557275D01*
X149018957Y-113664051D01*
X148984695Y-113705798D01*
X148935760Y-113797350D01*
X148905625Y-113896690D01*
X148895450Y-114000000D01*
X148898000Y-114032750D01*
X149029750Y-114164500D01*
X149627000Y-114164500D01*
X149627000Y-114144500D01*
X150173000Y-114144500D01*
X150173000Y-114164500D01*
X150770250Y-114164500D01*
X150902000Y-114032750D01*
X150904550Y-114000000D01*
X150894375Y-113896690D01*
X150864240Y-113797350D01*
X150815305Y-113705798D01*
X150781043Y-113664051D01*
X150868671Y-113557275D01*
X150947850Y-113409142D01*
X150996608Y-113248408D01*
X151013072Y-113081250D01*
X151013072Y-112929296D01*
X151739215Y-113655439D01*
X151766146Y-113688254D01*
X151897098Y-113795724D01*
X152046500Y-113875581D01*
X152121660Y-113898380D01*
X152208609Y-113924756D01*
X152239738Y-113927822D01*
X152334954Y-113937200D01*
X152334960Y-113937200D01*
X152377199Y-113941360D01*
X152419438Y-113937200D01*
X152512808Y-113937200D01*
X152632544Y-114017205D01*
X152820902Y-114095226D01*
X153020861Y-114135000D01*
X153224739Y-114135000D01*
X153424698Y-114095226D01*
X153613056Y-114017205D01*
X153782574Y-113903937D01*
X153926737Y-113759774D01*
X154040005Y-113590256D01*
X154118026Y-113401898D01*
X154157800Y-113201939D01*
X154157800Y-112998061D01*
X154118026Y-112798102D01*
X154040005Y-112609744D01*
X153926737Y-112440226D01*
X153783511Y-112297000D01*
X153898002Y-112297000D01*
X153898002Y-112165252D01*
X154029750Y-112297000D01*
X155200000Y-112299550D01*
X155303310Y-112289375D01*
X155402650Y-112259240D01*
X155494202Y-112210305D01*
X155574448Y-112144448D01*
X155640305Y-112064202D01*
X155689240Y-111972650D01*
X155719375Y-111873310D01*
X155729550Y-111770000D01*
X156570450Y-111770000D01*
X156580625Y-111873310D01*
X156610760Y-111972650D01*
X156659695Y-112064202D01*
X156725552Y-112144448D01*
X156805798Y-112210305D01*
X156897350Y-112259240D01*
X156996690Y-112289375D01*
X157100000Y-112299550D01*
X158270250Y-112297000D01*
X158402000Y-112165250D01*
X158402000Y-111543000D01*
X158948000Y-111543000D01*
X158948000Y-112165250D01*
X159079750Y-112297000D01*
X160250000Y-112299550D01*
X160353310Y-112289375D01*
X160452650Y-112259240D01*
X160544202Y-112210305D01*
X160624448Y-112144448D01*
X160690305Y-112064202D01*
X160739240Y-111972650D01*
X160769375Y-111873310D01*
X160779550Y-111770000D01*
X160777000Y-111674750D01*
X160645250Y-111543000D01*
X158948000Y-111543000D01*
X158402000Y-111543000D01*
X156704750Y-111543000D01*
X156573000Y-111674750D01*
X156570450Y-111770000D01*
X155729550Y-111770000D01*
X155727000Y-111674750D01*
X155595250Y-111543000D01*
X153898000Y-111543000D01*
X153898000Y-111563000D01*
X153352000Y-111563000D01*
X153352000Y-111543000D01*
X153332000Y-111543000D01*
X153332000Y-110997000D01*
X153352000Y-110997000D01*
X153352000Y-110977000D01*
X153898000Y-110977000D01*
X153898000Y-110997000D01*
X155595250Y-110997000D01*
X155727000Y-110865250D01*
X155729550Y-110770000D01*
X155719375Y-110666690D01*
X155689240Y-110567350D01*
X155640305Y-110475798D01*
X155600257Y-110427000D01*
X156699743Y-110427000D01*
X156659695Y-110475798D01*
X156610760Y-110567350D01*
X156580625Y-110666690D01*
X156570450Y-110770000D01*
X156573000Y-110865250D01*
X156704750Y-110997000D01*
X158402000Y-110997000D01*
X158402000Y-110977000D01*
X158948000Y-110977000D01*
X158948000Y-110997000D01*
X160645250Y-110997000D01*
X160777000Y-110865250D01*
X160779550Y-110770000D01*
X160769375Y-110666690D01*
X160739240Y-110567350D01*
X160690305Y-110475798D01*
X160650257Y-110427000D01*
X162556150Y-110427000D01*
X162600890Y-110651925D01*
X162769369Y-111058669D01*
X163013962Y-111424729D01*
X163325271Y-111736038D01*
X163691331Y-111980631D01*
X164098075Y-112149110D01*
X164529872Y-112235000D01*
X164970128Y-112235000D01*
X165401925Y-112149110D01*
X165808669Y-111980631D01*
X166174729Y-111736038D01*
X166486038Y-111424729D01*
X166730631Y-111058669D01*
X166899110Y-110651925D01*
X166943850Y-110427000D01*
X177240001Y-110427000D01*
X177240000Y-112524130D01*
X177182795Y-112609744D01*
X177104774Y-112798102D01*
X177065000Y-112998061D01*
X177065000Y-113201939D01*
X177104774Y-113401898D01*
X177182795Y-113590256D01*
X177296063Y-113759774D01*
X177440226Y-113903937D01*
X177609744Y-114017205D01*
X177798102Y-114095226D01*
X177998061Y-114135000D01*
X178201939Y-114135000D01*
X178401898Y-114095226D01*
X178590256Y-114017205D01*
X178759774Y-113903937D01*
X178903937Y-113759774D01*
X179017205Y-113590256D01*
X179095226Y-113401898D01*
X179135000Y-113201939D01*
X179135000Y-113053556D01*
X184639636Y-113053556D01*
X185600000Y-114013920D01*
X186560364Y-113053556D01*
X186416347Y-112811939D01*
X186090846Y-112683192D01*
X185746482Y-112620421D01*
X185396489Y-112626037D01*
X185054317Y-112699826D01*
X184783653Y-112811939D01*
X184639636Y-113053556D01*
X179135000Y-113053556D01*
X179135000Y-112998061D01*
X179095226Y-112798102D01*
X179017205Y-112609744D01*
X178960000Y-112524130D01*
X178960000Y-112172719D01*
X179005798Y-112210305D01*
X179097350Y-112259240D01*
X179196690Y-112289375D01*
X179300000Y-112299550D01*
X180470250Y-112297000D01*
X180602000Y-112165250D01*
X180602000Y-111543000D01*
X181148000Y-111543000D01*
X181148000Y-112165250D01*
X181279750Y-112297000D01*
X182450000Y-112299550D01*
X182553310Y-112289375D01*
X182652650Y-112259240D01*
X182744202Y-112210305D01*
X182824448Y-112144448D01*
X182890305Y-112064202D01*
X182939240Y-111972650D01*
X182969375Y-111873310D01*
X182979550Y-111770000D01*
X183820450Y-111770000D01*
X183830625Y-111873310D01*
X183860760Y-111972650D01*
X183909695Y-112064202D01*
X183975552Y-112144448D01*
X184055798Y-112210305D01*
X184147350Y-112259240D01*
X184246690Y-112289375D01*
X184350000Y-112299550D01*
X185520250Y-112297000D01*
X185652000Y-112165250D01*
X185652000Y-111543000D01*
X186198000Y-111543000D01*
X186198000Y-112165250D01*
X186329750Y-112297000D01*
X187500000Y-112299550D01*
X187603310Y-112289375D01*
X187702650Y-112259240D01*
X187794202Y-112210305D01*
X187874448Y-112144448D01*
X187940305Y-112064202D01*
X187989240Y-111972650D01*
X188019375Y-111873310D01*
X188029550Y-111770000D01*
X188027000Y-111674750D01*
X187895250Y-111543000D01*
X186198000Y-111543000D01*
X185652000Y-111543000D01*
X183954750Y-111543000D01*
X183823000Y-111674750D01*
X183820450Y-111770000D01*
X182979550Y-111770000D01*
X182977000Y-111674750D01*
X182845250Y-111543000D01*
X181148000Y-111543000D01*
X180602000Y-111543000D01*
X180582000Y-111543000D01*
X180582000Y-110997000D01*
X180602000Y-110997000D01*
X180602000Y-110977000D01*
X181148000Y-110977000D01*
X181148000Y-110997000D01*
X182845250Y-110997000D01*
X182977000Y-110865250D01*
X182979550Y-110770000D01*
X182969375Y-110666690D01*
X182939240Y-110567350D01*
X182890305Y-110475798D01*
X182850257Y-110427000D01*
X183949743Y-110427000D01*
X183909695Y-110475798D01*
X183860760Y-110567350D01*
X183830625Y-110666690D01*
X183820450Y-110770000D01*
X183823000Y-110865250D01*
X183954750Y-110997000D01*
X185652000Y-110997000D01*
X185652000Y-110977000D01*
X186198000Y-110977000D01*
X186198000Y-110997000D01*
X187895250Y-110997000D01*
X188027000Y-110865250D01*
X188029550Y-110770000D01*
X188019375Y-110666690D01*
X187989240Y-110567350D01*
X187940305Y-110475798D01*
X187900257Y-110427000D01*
X189262106Y-110427000D01*
X189220525Y-111182551D01*
X189004432Y-112401857D01*
X188643425Y-113586355D01*
X188142726Y-114718912D01*
X187509594Y-115783111D01*
X186753194Y-116763546D01*
X185884495Y-117646000D01*
X184916060Y-118417709D01*
X183861939Y-119067476D01*
X182737387Y-119585903D01*
X181558698Y-119965473D01*
X180342949Y-120200689D01*
X179088225Y-120289529D01*
X178998193Y-120290000D01*
X101021378Y-120290000D01*
X99763946Y-120214194D01*
X98545799Y-119991720D01*
X97363200Y-119624513D01*
X96233285Y-119117894D01*
X95172406Y-118479193D01*
X94195952Y-117717676D01*
X93318054Y-116844361D01*
X92551431Y-115871903D01*
X91907188Y-114814390D01*
X91394660Y-113687143D01*
X91021267Y-112506482D01*
X90792418Y-111289517D01*
X90735886Y-110427000D01*
X99804675Y-110427000D01*
X99782795Y-110459746D01*
D21*
G36*
X147461278Y-108593485D02*
G01*
X147540058Y-108646124D01*
X147753876Y-108859942D01*
X147806515Y-108938722D01*
X147825000Y-109031652D01*
X147825000Y-109592612D01*
X147806515Y-109685542D01*
X147758060Y-109758060D01*
X147685542Y-109806515D01*
X147592612Y-109825000D01*
X146112748Y-109825000D01*
X145963214Y-109779640D01*
X145806250Y-109764180D01*
X145293750Y-109764180D01*
X145158011Y-109777549D01*
X145158011Y-108575000D01*
X147368348Y-108575000D01*
X147461278Y-108593485D01*
X147461278Y-108593485D01*
G37*
X147461278Y-108593485D02*
X147540058Y-108646124D01*
X147753876Y-108859942D01*
X147806515Y-108938722D01*
X147825000Y-109031652D01*
X147825000Y-109592612D01*
X147806515Y-109685542D01*
X147758060Y-109758060D01*
X147685542Y-109806515D01*
X147592612Y-109825000D01*
X146112748Y-109825000D01*
X145963214Y-109779640D01*
X145806250Y-109764180D01*
X145293750Y-109764180D01*
X145158011Y-109777549D01*
X145158011Y-108575000D01*
X147368348Y-108575000D01*
X147461278Y-108593485D01*
D20*
G36*
X184783653Y-104011939D02*
G01*
X184639636Y-104253556D01*
X185600000Y-105213920D01*
X186560364Y-104253556D01*
X186416347Y-104011939D01*
X186201602Y-103927000D01*
X187427561Y-103927000D01*
X187537415Y-104066349D01*
X188073000Y-104945502D01*
X188073000Y-109073000D01*
X180127000Y-109073000D01*
X180127000Y-106946444D01*
X184639636Y-106946444D01*
X184783653Y-107188061D01*
X185109154Y-107316808D01*
X185453518Y-107379579D01*
X185803511Y-107373963D01*
X186145683Y-107300174D01*
X186416347Y-107188061D01*
X186560364Y-106946444D01*
X185600000Y-105986080D01*
X184639636Y-106946444D01*
X180127000Y-106946444D01*
X180127000Y-105453518D01*
X183820421Y-105453518D01*
X183826037Y-105803511D01*
X183899826Y-106145683D01*
X184011939Y-106416347D01*
X184253556Y-106560364D01*
X185213920Y-105600000D01*
X185986080Y-105600000D01*
X186946444Y-106560364D01*
X187188061Y-106416347D01*
X187316808Y-106090846D01*
X187379579Y-105746482D01*
X187373963Y-105396489D01*
X187300174Y-105054317D01*
X187188061Y-104783653D01*
X186946444Y-104639636D01*
X185986080Y-105600000D01*
X185213920Y-105600000D01*
X184253556Y-104639636D01*
X184011939Y-104783653D01*
X183883192Y-105109154D01*
X183820421Y-105453518D01*
X180127000Y-105453518D01*
X180127000Y-103927000D01*
X184988713Y-103927000D01*
X184783653Y-104011939D01*
X184783653Y-104011939D01*
G37*
X184783653Y-104011939D02*
X184639636Y-104253556D01*
X185600000Y-105213920D01*
X186560364Y-104253556D01*
X186416347Y-104011939D01*
X186201602Y-103927000D01*
X187427561Y-103927000D01*
X187537415Y-104066349D01*
X188073000Y-104945502D01*
X188073000Y-109073000D01*
X180127000Y-109073000D01*
X180127000Y-106946444D01*
X184639636Y-106946444D01*
X184783653Y-107188061D01*
X185109154Y-107316808D01*
X185453518Y-107379579D01*
X185803511Y-107373963D01*
X186145683Y-107300174D01*
X186416347Y-107188061D01*
X186560364Y-106946444D01*
X185600000Y-105986080D01*
X184639636Y-106946444D01*
X180127000Y-106946444D01*
X180127000Y-105453518D01*
X183820421Y-105453518D01*
X183826037Y-105803511D01*
X183899826Y-106145683D01*
X184011939Y-106416347D01*
X184253556Y-106560364D01*
X185213920Y-105600000D01*
X185986080Y-105600000D01*
X186946444Y-106560364D01*
X187188061Y-106416347D01*
X187316808Y-106090846D01*
X187379579Y-105746482D01*
X187373963Y-105396489D01*
X187300174Y-105054317D01*
X187188061Y-104783653D01*
X186946444Y-104639636D01*
X185986080Y-105600000D01*
X185213920Y-105600000D01*
X184253556Y-104639636D01*
X184011939Y-104783653D01*
X183883192Y-105109154D01*
X183820421Y-105453518D01*
X180127000Y-105453518D01*
X180127000Y-103927000D01*
X184988713Y-103927000D01*
X184783653Y-104011939D01*
M02*
