M48
; DRILL file {KiCad (5.1.2)-2} date 5/22/2020 12:53:40 AM
; FORMAT={-:-/ absolute / metric / decimal}
; #@! TF.CreationDate,2020-05-22T00:53:40-04:00
; #@! TF.GenerationSoftware,Kicad,Pcbnew,(5.1.2)-2
; #@! TF.FileFunction,Plated,1,2,PTH
FMAT,2
METRIC
T1C0.300
T2C0.400
T3C1.700
%
G90
G05
T1
X138.862Y-109.2
X140.45Y-109.2
X120.2Y-118.8
X115.2Y-116.8
X169.6Y-110.7
X168.6Y-110.7
X166.6Y-118.7
X111.2Y-114.8
X170.6Y-115.7
X113.2Y-112.8
X117.2Y-119.8
X118.2Y-116.8
X118.2Y-111.8
X120.2Y-112.8
X170.6Y-118.7
X116.2Y-114.8
X162.6Y-116.7
X112.2Y-113.8
X110.2Y-119.8
X120.2Y-115.8
X165.6Y-112.7
X162.6Y-119.7
X166.6Y-113.7
X163.6Y-117.7
X110.2Y-114.8
X112.2Y-117.8
X120.2Y-113.8
X165.6Y-119.7
X117.2Y-113.8
X160.6Y-114.7
X169.6Y-116.7
X110.2Y-118.8
X119.2Y-110.8
X161.6Y-113.7
X161.6Y-116.7
X170.6Y-119.7
X111.2Y-115.8
X120.2Y-110.8
X166.6Y-114.7
X165.6Y-117.7
X119.2Y-117.8
X116.2Y-112.8
X169.6Y-119.7
X114.2Y-115.8
X167.6Y-115.7
X116.2Y-118.8
X119.2Y-112.8
X163.6Y-113.7
X166.6Y-116.7
X111.2Y-119.8
X118.2Y-115.8
X168.6Y-117.7
X112.2Y-111.8
X113.2Y-117.8
X119.2Y-113.8
X165.6Y-113.7
X164.6Y-117.7
X119.2Y-115.8
X118.2Y-112.8
X160.6Y-118.7
X112.2Y-119.8
X116.2Y-117.8
X168.6Y-112.7
X169.6Y-117.7
X113.2Y-116.8
X118.2Y-110.8
X163.6Y-118.7
X117.2Y-114.8
X162.6Y-114.7
X166.6Y-115.7
X112.2Y-112.8
X116.2Y-116.8
X167.6Y-118.7
X113.2Y-114.8
X164.6Y-115.7
X110.2Y-113.8
X119.2Y-116.8
X110.2Y-115.8
X161.6Y-112.7
X160.6Y-119.7
X118.2Y-114.8
X163.6Y-116.7
X113.2Y-113.8
X119.2Y-119.8
X110.2Y-117.8
X169.6Y-111.7
X167.6Y-112.7
X163.6Y-119.7
X115.2Y-114.8
X167.6Y-113.7
X160.6Y-116.7
X112.2Y-114.8
X116.2Y-115.8
X115.2Y-117.8
X170.6Y-111.7
X160.6Y-112.7
X165.6Y-116.7
X166.6Y-119.7
X164.6Y-114.7
X160.6Y-117.7
X113.2Y-118.8
X170.6Y-110.7
X162.6Y-113.7
X168.6Y-115.7
X168.6Y-119.7
X112.2Y-110.8
X112.2Y-115.8
X160.6Y-110.7
X168.6Y-113.7
X114.2Y-118.8
X162.6Y-111.7
X116.2Y-119.8
X115.2Y-115.8
X167.6Y-116.7
X111.2Y-118.8
X167.6Y-110.7
X170.6Y-116.7
X110.2Y-116.8
X167.6Y-117.7
X118.2Y-119.8
X114.2Y-117.8
X168.6Y-111.7
X160.6Y-115.7
X114.2Y-119.8
X111.2Y-116.8
X115.2Y-113.8
X161.6Y-118.7
X111.2Y-110.8
X118.2Y-118.8
X117.2Y-117.8
X164.6Y-112.7
X165.6Y-118.7
X113.2Y-119.8
X114.2Y-116.8
X164.6Y-118.7
X169.6Y-112.7
X167.6Y-114.7
X164.6Y-119.7
X114.2Y-112.8
X115.2Y-119.8
X117.2Y-116.8
X117.2Y-111.8
X167.6Y-111.7
X168.6Y-118.7
X170.6Y-113.7
X168.6Y-114.7
X169.6Y-115.7
X111.2Y-113.8
X120.2Y-116.8
X119.2Y-111.8
X162.6Y-112.7
X161.6Y-119.7
X119.2Y-114.8
X161.6Y-114.7
X168.6Y-116.7
X114.2Y-113.8
X120.2Y-119.8
X111.2Y-117.8
X160.6Y-111.7
X163.6Y-115.7
X169.6Y-118.7
X169.6Y-114.7
X120.2Y-114.8
X114.2Y-114.8
X120.2Y-117.8
X160.6Y-113.7
X166.6Y-117.7
X167.6Y-119.7
X170.6Y-114.7
X163.6Y-114.7
X164.6Y-116.7
X118.2Y-117.8
X115.2Y-112.8
X166.6Y-112.7
X162.6Y-117.7
X110.2Y-111.8
X113.2Y-115.8
X161.6Y-110.7
X165.6Y-114.7
X165.6Y-115.7
X115.2Y-118.8
X117.2Y-110.8
X117.2Y-112.8
X166.6Y-111.7
X117.2Y-115.8
X161.6Y-117.7
X111.2Y-112.8
X117.2Y-118.8
X120.2Y-111.8
X164.6Y-113.7
X111.2Y-111.8
X170.6Y-112.7
X170.6Y-117.7
X119.2Y-118.8
X112.2Y-118.8
X118.2Y-113.8
X163.6Y-112.7
X162.6Y-115.7
X112.2Y-116.8
X110.2Y-110.8
X169.6Y-113.7
X162.6Y-118.7
X116.2Y-113.8
X161.6Y-111.7
X161.6Y-115.7
X110.2Y-112.8
T2
X100.576Y-103.1
X100.7Y-107.1
X100.7Y-110.95
X101.9Y-107.1
X102.2Y-102.1
X103.1Y-107.1
X103.764Y-102.25
X104.2Y-107.1
X125.576Y-103.1
X126.0Y-107.1
X127.0Y-107.1
X127.189Y-101.4
X128.1Y-107.1
X128.1Y-113.1
X128.764Y-102.25
X129.2Y-107.1
X134.0Y-117.3
X135.6Y-117.3
X135.875Y-113.744
X136.5Y-114.7
X137.2Y-117.3
X137.7Y-108.4
X138.2Y-118.8
X140.0Y-101.75
X140.05Y-105.0
X140.2Y-115.2
X142.412Y-116.0
X142.512Y-117.3
X144.1Y-117.3
X144.45Y-102.7
X145.5Y-109.25
X150.576Y-103.1
X150.6Y-107.1
X151.9Y-107.1
X152.189Y-101.4
X153.1Y-107.1
X153.123Y-113.1
X153.764Y-102.25
X154.2Y-107.1
X175.576Y-103.1
X175.6Y-107.1
X176.9Y-107.1
X177.189Y-101.4
X178.1Y-107.1
X178.1Y-113.1
X178.764Y-102.25
X179.2Y-107.1
T3
X185.6Y-105.6
X185.6Y-114.4
T0
M30
