G04 #@! TF.GenerationSoftware,KiCad,Pcbnew,(5.1.2)-2*
G04 #@! TF.CreationDate,2020-05-22T00:53:43-04:00*
G04 #@! TF.ProjectId,AddressableLED,41646472-6573-4736-9162-6c654c45442e,rev?*
G04 #@! TF.SameCoordinates,Original*
G04 #@! TF.FileFunction,Paste,Top*
G04 #@! TF.FilePolarity,Positive*
%FSLAX46Y46*%
G04 Gerber Fmt 4.6, Leading zero omitted, Abs format (unit mm)*
G04 Created by KiCad (PCBNEW (5.1.2)-2) date 2020-05-22 00:53:43*
%MOMM*%
%LPD*%
G04 APERTURE LIST*
%ADD10C,0.100000*%
%ADD11C,0.875000*%
%ADD12R,1.400000X1.050000*%
%ADD13R,2.400000X0.740000*%
%ADD14R,0.650000X1.600000*%
%ADD15R,0.900000X0.800000*%
%ADD16C,0.975000*%
G04 APERTURE END LIST*
D10*
G36*
X144327691Y-116826053D02*
G01*
X144348926Y-116829203D01*
X144369750Y-116834419D01*
X144389962Y-116841651D01*
X144409368Y-116850830D01*
X144427781Y-116861866D01*
X144445024Y-116874654D01*
X144460930Y-116889070D01*
X144475346Y-116904976D01*
X144488134Y-116922219D01*
X144499170Y-116940632D01*
X144508349Y-116960038D01*
X144515581Y-116980250D01*
X144520797Y-117001074D01*
X144523947Y-117022309D01*
X144525000Y-117043750D01*
X144525000Y-117556250D01*
X144523947Y-117577691D01*
X144520797Y-117598926D01*
X144515581Y-117619750D01*
X144508349Y-117639962D01*
X144499170Y-117659368D01*
X144488134Y-117677781D01*
X144475346Y-117695024D01*
X144460930Y-117710930D01*
X144445024Y-117725346D01*
X144427781Y-117738134D01*
X144409368Y-117749170D01*
X144389962Y-117758349D01*
X144369750Y-117765581D01*
X144348926Y-117770797D01*
X144327691Y-117773947D01*
X144306250Y-117775000D01*
X143868750Y-117775000D01*
X143847309Y-117773947D01*
X143826074Y-117770797D01*
X143805250Y-117765581D01*
X143785038Y-117758349D01*
X143765632Y-117749170D01*
X143747219Y-117738134D01*
X143729976Y-117725346D01*
X143714070Y-117710930D01*
X143699654Y-117695024D01*
X143686866Y-117677781D01*
X143675830Y-117659368D01*
X143666651Y-117639962D01*
X143659419Y-117619750D01*
X143654203Y-117598926D01*
X143651053Y-117577691D01*
X143650000Y-117556250D01*
X143650000Y-117043750D01*
X143651053Y-117022309D01*
X143654203Y-117001074D01*
X143659419Y-116980250D01*
X143666651Y-116960038D01*
X143675830Y-116940632D01*
X143686866Y-116922219D01*
X143699654Y-116904976D01*
X143714070Y-116889070D01*
X143729976Y-116874654D01*
X143747219Y-116861866D01*
X143765632Y-116850830D01*
X143785038Y-116841651D01*
X143805250Y-116834419D01*
X143826074Y-116829203D01*
X143847309Y-116826053D01*
X143868750Y-116825000D01*
X144306250Y-116825000D01*
X144327691Y-116826053D01*
X144327691Y-116826053D01*
G37*
D11*
X144087500Y-117300000D03*
D10*
G36*
X142752691Y-116826053D02*
G01*
X142773926Y-116829203D01*
X142794750Y-116834419D01*
X142814962Y-116841651D01*
X142834368Y-116850830D01*
X142852781Y-116861866D01*
X142870024Y-116874654D01*
X142885930Y-116889070D01*
X142900346Y-116904976D01*
X142913134Y-116922219D01*
X142924170Y-116940632D01*
X142933349Y-116960038D01*
X142940581Y-116980250D01*
X142945797Y-117001074D01*
X142948947Y-117022309D01*
X142950000Y-117043750D01*
X142950000Y-117556250D01*
X142948947Y-117577691D01*
X142945797Y-117598926D01*
X142940581Y-117619750D01*
X142933349Y-117639962D01*
X142924170Y-117659368D01*
X142913134Y-117677781D01*
X142900346Y-117695024D01*
X142885930Y-117710930D01*
X142870024Y-117725346D01*
X142852781Y-117738134D01*
X142834368Y-117749170D01*
X142814962Y-117758349D01*
X142794750Y-117765581D01*
X142773926Y-117770797D01*
X142752691Y-117773947D01*
X142731250Y-117775000D01*
X142293750Y-117775000D01*
X142272309Y-117773947D01*
X142251074Y-117770797D01*
X142230250Y-117765581D01*
X142210038Y-117758349D01*
X142190632Y-117749170D01*
X142172219Y-117738134D01*
X142154976Y-117725346D01*
X142139070Y-117710930D01*
X142124654Y-117695024D01*
X142111866Y-117677781D01*
X142100830Y-117659368D01*
X142091651Y-117639962D01*
X142084419Y-117619750D01*
X142079203Y-117598926D01*
X142076053Y-117577691D01*
X142075000Y-117556250D01*
X142075000Y-117043750D01*
X142076053Y-117022309D01*
X142079203Y-117001074D01*
X142084419Y-116980250D01*
X142091651Y-116960038D01*
X142100830Y-116940632D01*
X142111866Y-116922219D01*
X142124654Y-116904976D01*
X142139070Y-116889070D01*
X142154976Y-116874654D01*
X142172219Y-116861866D01*
X142190632Y-116850830D01*
X142210038Y-116841651D01*
X142230250Y-116834419D01*
X142251074Y-116829203D01*
X142272309Y-116826053D01*
X142293750Y-116825000D01*
X142731250Y-116825000D01*
X142752691Y-116826053D01*
X142752691Y-116826053D01*
G37*
D11*
X142512500Y-117300000D03*
D10*
G36*
X137452691Y-116826053D02*
G01*
X137473926Y-116829203D01*
X137494750Y-116834419D01*
X137514962Y-116841651D01*
X137534368Y-116850830D01*
X137552781Y-116861866D01*
X137570024Y-116874654D01*
X137585930Y-116889070D01*
X137600346Y-116904976D01*
X137613134Y-116922219D01*
X137624170Y-116940632D01*
X137633349Y-116960038D01*
X137640581Y-116980250D01*
X137645797Y-117001074D01*
X137648947Y-117022309D01*
X137650000Y-117043750D01*
X137650000Y-117556250D01*
X137648947Y-117577691D01*
X137645797Y-117598926D01*
X137640581Y-117619750D01*
X137633349Y-117639962D01*
X137624170Y-117659368D01*
X137613134Y-117677781D01*
X137600346Y-117695024D01*
X137585930Y-117710930D01*
X137570024Y-117725346D01*
X137552781Y-117738134D01*
X137534368Y-117749170D01*
X137514962Y-117758349D01*
X137494750Y-117765581D01*
X137473926Y-117770797D01*
X137452691Y-117773947D01*
X137431250Y-117775000D01*
X136993750Y-117775000D01*
X136972309Y-117773947D01*
X136951074Y-117770797D01*
X136930250Y-117765581D01*
X136910038Y-117758349D01*
X136890632Y-117749170D01*
X136872219Y-117738134D01*
X136854976Y-117725346D01*
X136839070Y-117710930D01*
X136824654Y-117695024D01*
X136811866Y-117677781D01*
X136800830Y-117659368D01*
X136791651Y-117639962D01*
X136784419Y-117619750D01*
X136779203Y-117598926D01*
X136776053Y-117577691D01*
X136775000Y-117556250D01*
X136775000Y-117043750D01*
X136776053Y-117022309D01*
X136779203Y-117001074D01*
X136784419Y-116980250D01*
X136791651Y-116960038D01*
X136800830Y-116940632D01*
X136811866Y-116922219D01*
X136824654Y-116904976D01*
X136839070Y-116889070D01*
X136854976Y-116874654D01*
X136872219Y-116861866D01*
X136890632Y-116850830D01*
X136910038Y-116841651D01*
X136930250Y-116834419D01*
X136951074Y-116829203D01*
X136972309Y-116826053D01*
X136993750Y-116825000D01*
X137431250Y-116825000D01*
X137452691Y-116826053D01*
X137452691Y-116826053D01*
G37*
D11*
X137212500Y-117300000D03*
D10*
G36*
X139027691Y-116826053D02*
G01*
X139048926Y-116829203D01*
X139069750Y-116834419D01*
X139089962Y-116841651D01*
X139109368Y-116850830D01*
X139127781Y-116861866D01*
X139145024Y-116874654D01*
X139160930Y-116889070D01*
X139175346Y-116904976D01*
X139188134Y-116922219D01*
X139199170Y-116940632D01*
X139208349Y-116960038D01*
X139215581Y-116980250D01*
X139220797Y-117001074D01*
X139223947Y-117022309D01*
X139225000Y-117043750D01*
X139225000Y-117556250D01*
X139223947Y-117577691D01*
X139220797Y-117598926D01*
X139215581Y-117619750D01*
X139208349Y-117639962D01*
X139199170Y-117659368D01*
X139188134Y-117677781D01*
X139175346Y-117695024D01*
X139160930Y-117710930D01*
X139145024Y-117725346D01*
X139127781Y-117738134D01*
X139109368Y-117749170D01*
X139089962Y-117758349D01*
X139069750Y-117765581D01*
X139048926Y-117770797D01*
X139027691Y-117773947D01*
X139006250Y-117775000D01*
X138568750Y-117775000D01*
X138547309Y-117773947D01*
X138526074Y-117770797D01*
X138505250Y-117765581D01*
X138485038Y-117758349D01*
X138465632Y-117749170D01*
X138447219Y-117738134D01*
X138429976Y-117725346D01*
X138414070Y-117710930D01*
X138399654Y-117695024D01*
X138386866Y-117677781D01*
X138375830Y-117659368D01*
X138366651Y-117639962D01*
X138359419Y-117619750D01*
X138354203Y-117598926D01*
X138351053Y-117577691D01*
X138350000Y-117556250D01*
X138350000Y-117043750D01*
X138351053Y-117022309D01*
X138354203Y-117001074D01*
X138359419Y-116980250D01*
X138366651Y-116960038D01*
X138375830Y-116940632D01*
X138386866Y-116922219D01*
X138399654Y-116904976D01*
X138414070Y-116889070D01*
X138429976Y-116874654D01*
X138447219Y-116861866D01*
X138465632Y-116850830D01*
X138485038Y-116841651D01*
X138505250Y-116834419D01*
X138526074Y-116829203D01*
X138547309Y-116826053D01*
X138568750Y-116825000D01*
X139006250Y-116825000D01*
X139027691Y-116826053D01*
X139027691Y-116826053D01*
G37*
D11*
X138787500Y-117300000D03*
D12*
X147500000Y-120220000D03*
X147500000Y-118780000D03*
X143900000Y-120220000D03*
X143900000Y-118780000D03*
X141800000Y-120220000D03*
X141800000Y-118780000D03*
X138200000Y-120220000D03*
X138200000Y-118780000D03*
X136100000Y-120220000D03*
X136100000Y-118780000D03*
X132500000Y-120220000D03*
X132500000Y-118780000D03*
D13*
X138100000Y-101760000D03*
X142000000Y-101760000D03*
X138100000Y-103030000D03*
X142000000Y-103030000D03*
X138100000Y-104300000D03*
X142000000Y-104300000D03*
X138100000Y-105570000D03*
X142000000Y-105570000D03*
X138100000Y-106840000D03*
X142000000Y-106840000D03*
D10*
G36*
X139127691Y-110351053D02*
G01*
X139148926Y-110354203D01*
X139169750Y-110359419D01*
X139189962Y-110366651D01*
X139209368Y-110375830D01*
X139227781Y-110386866D01*
X139245024Y-110399654D01*
X139260930Y-110414070D01*
X139275346Y-110429976D01*
X139288134Y-110447219D01*
X139299170Y-110465632D01*
X139308349Y-110485038D01*
X139315581Y-110505250D01*
X139320797Y-110526074D01*
X139323947Y-110547309D01*
X139325000Y-110568750D01*
X139325000Y-111006250D01*
X139323947Y-111027691D01*
X139320797Y-111048926D01*
X139315581Y-111069750D01*
X139308349Y-111089962D01*
X139299170Y-111109368D01*
X139288134Y-111127781D01*
X139275346Y-111145024D01*
X139260930Y-111160930D01*
X139245024Y-111175346D01*
X139227781Y-111188134D01*
X139209368Y-111199170D01*
X139189962Y-111208349D01*
X139169750Y-111215581D01*
X139148926Y-111220797D01*
X139127691Y-111223947D01*
X139106250Y-111225000D01*
X138593750Y-111225000D01*
X138572309Y-111223947D01*
X138551074Y-111220797D01*
X138530250Y-111215581D01*
X138510038Y-111208349D01*
X138490632Y-111199170D01*
X138472219Y-111188134D01*
X138454976Y-111175346D01*
X138439070Y-111160930D01*
X138424654Y-111145024D01*
X138411866Y-111127781D01*
X138400830Y-111109368D01*
X138391651Y-111089962D01*
X138384419Y-111069750D01*
X138379203Y-111048926D01*
X138376053Y-111027691D01*
X138375000Y-111006250D01*
X138375000Y-110568750D01*
X138376053Y-110547309D01*
X138379203Y-110526074D01*
X138384419Y-110505250D01*
X138391651Y-110485038D01*
X138400830Y-110465632D01*
X138411866Y-110447219D01*
X138424654Y-110429976D01*
X138439070Y-110414070D01*
X138454976Y-110399654D01*
X138472219Y-110386866D01*
X138490632Y-110375830D01*
X138510038Y-110366651D01*
X138530250Y-110359419D01*
X138551074Y-110354203D01*
X138572309Y-110351053D01*
X138593750Y-110350000D01*
X139106250Y-110350000D01*
X139127691Y-110351053D01*
X139127691Y-110351053D01*
G37*
D11*
X138850000Y-110787500D03*
D10*
G36*
X139127691Y-108776053D02*
G01*
X139148926Y-108779203D01*
X139169750Y-108784419D01*
X139189962Y-108791651D01*
X139209368Y-108800830D01*
X139227781Y-108811866D01*
X139245024Y-108824654D01*
X139260930Y-108839070D01*
X139275346Y-108854976D01*
X139288134Y-108872219D01*
X139299170Y-108890632D01*
X139308349Y-108910038D01*
X139315581Y-108930250D01*
X139320797Y-108951074D01*
X139323947Y-108972309D01*
X139325000Y-108993750D01*
X139325000Y-109431250D01*
X139323947Y-109452691D01*
X139320797Y-109473926D01*
X139315581Y-109494750D01*
X139308349Y-109514962D01*
X139299170Y-109534368D01*
X139288134Y-109552781D01*
X139275346Y-109570024D01*
X139260930Y-109585930D01*
X139245024Y-109600346D01*
X139227781Y-109613134D01*
X139209368Y-109624170D01*
X139189962Y-109633349D01*
X139169750Y-109640581D01*
X139148926Y-109645797D01*
X139127691Y-109648947D01*
X139106250Y-109650000D01*
X138593750Y-109650000D01*
X138572309Y-109648947D01*
X138551074Y-109645797D01*
X138530250Y-109640581D01*
X138510038Y-109633349D01*
X138490632Y-109624170D01*
X138472219Y-109613134D01*
X138454976Y-109600346D01*
X138439070Y-109585930D01*
X138424654Y-109570024D01*
X138411866Y-109552781D01*
X138400830Y-109534368D01*
X138391651Y-109514962D01*
X138384419Y-109494750D01*
X138379203Y-109473926D01*
X138376053Y-109452691D01*
X138375000Y-109431250D01*
X138375000Y-108993750D01*
X138376053Y-108972309D01*
X138379203Y-108951074D01*
X138384419Y-108930250D01*
X138391651Y-108910038D01*
X138400830Y-108890632D01*
X138411866Y-108872219D01*
X138424654Y-108854976D01*
X138439070Y-108839070D01*
X138454976Y-108824654D01*
X138472219Y-108811866D01*
X138490632Y-108800830D01*
X138510038Y-108791651D01*
X138530250Y-108784419D01*
X138551074Y-108779203D01*
X138572309Y-108776053D01*
X138593750Y-108775000D01*
X139106250Y-108775000D01*
X139127691Y-108776053D01*
X139127691Y-108776053D01*
G37*
D11*
X138850000Y-109212500D03*
D10*
G36*
X140727691Y-110351053D02*
G01*
X140748926Y-110354203D01*
X140769750Y-110359419D01*
X140789962Y-110366651D01*
X140809368Y-110375830D01*
X140827781Y-110386866D01*
X140845024Y-110399654D01*
X140860930Y-110414070D01*
X140875346Y-110429976D01*
X140888134Y-110447219D01*
X140899170Y-110465632D01*
X140908349Y-110485038D01*
X140915581Y-110505250D01*
X140920797Y-110526074D01*
X140923947Y-110547309D01*
X140925000Y-110568750D01*
X140925000Y-111006250D01*
X140923947Y-111027691D01*
X140920797Y-111048926D01*
X140915581Y-111069750D01*
X140908349Y-111089962D01*
X140899170Y-111109368D01*
X140888134Y-111127781D01*
X140875346Y-111145024D01*
X140860930Y-111160930D01*
X140845024Y-111175346D01*
X140827781Y-111188134D01*
X140809368Y-111199170D01*
X140789962Y-111208349D01*
X140769750Y-111215581D01*
X140748926Y-111220797D01*
X140727691Y-111223947D01*
X140706250Y-111225000D01*
X140193750Y-111225000D01*
X140172309Y-111223947D01*
X140151074Y-111220797D01*
X140130250Y-111215581D01*
X140110038Y-111208349D01*
X140090632Y-111199170D01*
X140072219Y-111188134D01*
X140054976Y-111175346D01*
X140039070Y-111160930D01*
X140024654Y-111145024D01*
X140011866Y-111127781D01*
X140000830Y-111109368D01*
X139991651Y-111089962D01*
X139984419Y-111069750D01*
X139979203Y-111048926D01*
X139976053Y-111027691D01*
X139975000Y-111006250D01*
X139975000Y-110568750D01*
X139976053Y-110547309D01*
X139979203Y-110526074D01*
X139984419Y-110505250D01*
X139991651Y-110485038D01*
X140000830Y-110465632D01*
X140011866Y-110447219D01*
X140024654Y-110429976D01*
X140039070Y-110414070D01*
X140054976Y-110399654D01*
X140072219Y-110386866D01*
X140090632Y-110375830D01*
X140110038Y-110366651D01*
X140130250Y-110359419D01*
X140151074Y-110354203D01*
X140172309Y-110351053D01*
X140193750Y-110350000D01*
X140706250Y-110350000D01*
X140727691Y-110351053D01*
X140727691Y-110351053D01*
G37*
D11*
X140450000Y-110787500D03*
D10*
G36*
X140727691Y-108776053D02*
G01*
X140748926Y-108779203D01*
X140769750Y-108784419D01*
X140789962Y-108791651D01*
X140809368Y-108800830D01*
X140827781Y-108811866D01*
X140845024Y-108824654D01*
X140860930Y-108839070D01*
X140875346Y-108854976D01*
X140888134Y-108872219D01*
X140899170Y-108890632D01*
X140908349Y-108910038D01*
X140915581Y-108930250D01*
X140920797Y-108951074D01*
X140923947Y-108972309D01*
X140925000Y-108993750D01*
X140925000Y-109431250D01*
X140923947Y-109452691D01*
X140920797Y-109473926D01*
X140915581Y-109494750D01*
X140908349Y-109514962D01*
X140899170Y-109534368D01*
X140888134Y-109552781D01*
X140875346Y-109570024D01*
X140860930Y-109585930D01*
X140845024Y-109600346D01*
X140827781Y-109613134D01*
X140809368Y-109624170D01*
X140789962Y-109633349D01*
X140769750Y-109640581D01*
X140748926Y-109645797D01*
X140727691Y-109648947D01*
X140706250Y-109650000D01*
X140193750Y-109650000D01*
X140172309Y-109648947D01*
X140151074Y-109645797D01*
X140130250Y-109640581D01*
X140110038Y-109633349D01*
X140090632Y-109624170D01*
X140072219Y-109613134D01*
X140054976Y-109600346D01*
X140039070Y-109585930D01*
X140024654Y-109570024D01*
X140011866Y-109552781D01*
X140000830Y-109534368D01*
X139991651Y-109514962D01*
X139984419Y-109494750D01*
X139979203Y-109473926D01*
X139976053Y-109452691D01*
X139975000Y-109431250D01*
X139975000Y-108993750D01*
X139976053Y-108972309D01*
X139979203Y-108951074D01*
X139984419Y-108930250D01*
X139991651Y-108910038D01*
X140000830Y-108890632D01*
X140011866Y-108872219D01*
X140024654Y-108854976D01*
X140039070Y-108839070D01*
X140054976Y-108824654D01*
X140072219Y-108811866D01*
X140090632Y-108800830D01*
X140110038Y-108791651D01*
X140130250Y-108784419D01*
X140151074Y-108779203D01*
X140172309Y-108776053D01*
X140193750Y-108775000D01*
X140706250Y-108775000D01*
X140727691Y-108776053D01*
X140727691Y-108776053D01*
G37*
D11*
X140450000Y-109212500D03*
D14*
X103225000Y-108800000D03*
X104175000Y-108800000D03*
X128225000Y-108800000D03*
X129175000Y-108800000D03*
X153225000Y-108800000D03*
X154175000Y-108800000D03*
X178225000Y-108800000D03*
X179175000Y-108800000D03*
X102025000Y-111100000D03*
X102975000Y-111100000D03*
X127025000Y-111100000D03*
X127975000Y-111100000D03*
X152025000Y-111100000D03*
X152975000Y-111100000D03*
X177025000Y-111100000D03*
X177975000Y-111100000D03*
X101775000Y-108800000D03*
X100825000Y-108800000D03*
X126775000Y-108800000D03*
X125825000Y-108800000D03*
X176775000Y-108800000D03*
X175825000Y-108800000D03*
X151775000Y-108800000D03*
X150825000Y-108800000D03*
D15*
X171900000Y-108000000D03*
X173900000Y-107050000D03*
X173900000Y-108950000D03*
D10*
G36*
X182480142Y-114476174D02*
G01*
X182503803Y-114479684D01*
X182527007Y-114485496D01*
X182549529Y-114493554D01*
X182571153Y-114503782D01*
X182591670Y-114516079D01*
X182610883Y-114530329D01*
X182628607Y-114546393D01*
X182644671Y-114564117D01*
X182658921Y-114583330D01*
X182671218Y-114603847D01*
X182681446Y-114625471D01*
X182689504Y-114647993D01*
X182695316Y-114671197D01*
X182698826Y-114694858D01*
X182700000Y-114718750D01*
X182700000Y-115206250D01*
X182698826Y-115230142D01*
X182695316Y-115253803D01*
X182689504Y-115277007D01*
X182681446Y-115299529D01*
X182671218Y-115321153D01*
X182658921Y-115341670D01*
X182644671Y-115360883D01*
X182628607Y-115378607D01*
X182610883Y-115394671D01*
X182591670Y-115408921D01*
X182571153Y-115421218D01*
X182549529Y-115431446D01*
X182527007Y-115439504D01*
X182503803Y-115445316D01*
X182480142Y-115448826D01*
X182456250Y-115450000D01*
X181543750Y-115450000D01*
X181519858Y-115448826D01*
X181496197Y-115445316D01*
X181472993Y-115439504D01*
X181450471Y-115431446D01*
X181428847Y-115421218D01*
X181408330Y-115408921D01*
X181389117Y-115394671D01*
X181371393Y-115378607D01*
X181355329Y-115360883D01*
X181341079Y-115341670D01*
X181328782Y-115321153D01*
X181318554Y-115299529D01*
X181310496Y-115277007D01*
X181304684Y-115253803D01*
X181301174Y-115230142D01*
X181300000Y-115206250D01*
X181300000Y-114718750D01*
X181301174Y-114694858D01*
X181304684Y-114671197D01*
X181310496Y-114647993D01*
X181318554Y-114625471D01*
X181328782Y-114603847D01*
X181341079Y-114583330D01*
X181355329Y-114564117D01*
X181371393Y-114546393D01*
X181389117Y-114530329D01*
X181408330Y-114516079D01*
X181428847Y-114503782D01*
X181450471Y-114493554D01*
X181472993Y-114485496D01*
X181496197Y-114479684D01*
X181519858Y-114476174D01*
X181543750Y-114475000D01*
X182456250Y-114475000D01*
X182480142Y-114476174D01*
X182480142Y-114476174D01*
G37*
D16*
X182000000Y-114962500D03*
D10*
G36*
X182480142Y-116351174D02*
G01*
X182503803Y-116354684D01*
X182527007Y-116360496D01*
X182549529Y-116368554D01*
X182571153Y-116378782D01*
X182591670Y-116391079D01*
X182610883Y-116405329D01*
X182628607Y-116421393D01*
X182644671Y-116439117D01*
X182658921Y-116458330D01*
X182671218Y-116478847D01*
X182681446Y-116500471D01*
X182689504Y-116522993D01*
X182695316Y-116546197D01*
X182698826Y-116569858D01*
X182700000Y-116593750D01*
X182700000Y-117081250D01*
X182698826Y-117105142D01*
X182695316Y-117128803D01*
X182689504Y-117152007D01*
X182681446Y-117174529D01*
X182671218Y-117196153D01*
X182658921Y-117216670D01*
X182644671Y-117235883D01*
X182628607Y-117253607D01*
X182610883Y-117269671D01*
X182591670Y-117283921D01*
X182571153Y-117296218D01*
X182549529Y-117306446D01*
X182527007Y-117314504D01*
X182503803Y-117320316D01*
X182480142Y-117323826D01*
X182456250Y-117325000D01*
X181543750Y-117325000D01*
X181519858Y-117323826D01*
X181496197Y-117320316D01*
X181472993Y-117314504D01*
X181450471Y-117306446D01*
X181428847Y-117296218D01*
X181408330Y-117283921D01*
X181389117Y-117269671D01*
X181371393Y-117253607D01*
X181355329Y-117235883D01*
X181341079Y-117216670D01*
X181328782Y-117196153D01*
X181318554Y-117174529D01*
X181310496Y-117152007D01*
X181304684Y-117128803D01*
X181301174Y-117105142D01*
X181300000Y-117081250D01*
X181300000Y-116593750D01*
X181301174Y-116569858D01*
X181304684Y-116546197D01*
X181310496Y-116522993D01*
X181318554Y-116500471D01*
X181328782Y-116478847D01*
X181341079Y-116458330D01*
X181355329Y-116439117D01*
X181371393Y-116421393D01*
X181389117Y-116405329D01*
X181408330Y-116391079D01*
X181428847Y-116378782D01*
X181450471Y-116368554D01*
X181472993Y-116360496D01*
X181496197Y-116354684D01*
X181519858Y-116351174D01*
X181543750Y-116350000D01*
X182456250Y-116350000D01*
X182480142Y-116351174D01*
X182480142Y-116351174D01*
G37*
D16*
X182000000Y-116837500D03*
D10*
G36*
X177466791Y-105551053D02*
G01*
X177488026Y-105554203D01*
X177508850Y-105559419D01*
X177529062Y-105566651D01*
X177548468Y-105575830D01*
X177566881Y-105586866D01*
X177584124Y-105599654D01*
X177600030Y-105614070D01*
X177614446Y-105629976D01*
X177627234Y-105647219D01*
X177638270Y-105665632D01*
X177647449Y-105685038D01*
X177654681Y-105705250D01*
X177659897Y-105726074D01*
X177663047Y-105747309D01*
X177664100Y-105768750D01*
X177664100Y-106206250D01*
X177663047Y-106227691D01*
X177659897Y-106248926D01*
X177654681Y-106269750D01*
X177647449Y-106289962D01*
X177638270Y-106309368D01*
X177627234Y-106327781D01*
X177614446Y-106345024D01*
X177600030Y-106360930D01*
X177584124Y-106375346D01*
X177566881Y-106388134D01*
X177548468Y-106399170D01*
X177529062Y-106408349D01*
X177508850Y-106415581D01*
X177488026Y-106420797D01*
X177466791Y-106423947D01*
X177445350Y-106425000D01*
X176932850Y-106425000D01*
X176911409Y-106423947D01*
X176890174Y-106420797D01*
X176869350Y-106415581D01*
X176849138Y-106408349D01*
X176829732Y-106399170D01*
X176811319Y-106388134D01*
X176794076Y-106375346D01*
X176778170Y-106360930D01*
X176763754Y-106345024D01*
X176750966Y-106327781D01*
X176739930Y-106309368D01*
X176730751Y-106289962D01*
X176723519Y-106269750D01*
X176718303Y-106248926D01*
X176715153Y-106227691D01*
X176714100Y-106206250D01*
X176714100Y-105768750D01*
X176715153Y-105747309D01*
X176718303Y-105726074D01*
X176723519Y-105705250D01*
X176730751Y-105685038D01*
X176739930Y-105665632D01*
X176750966Y-105647219D01*
X176763754Y-105629976D01*
X176778170Y-105614070D01*
X176794076Y-105599654D01*
X176811319Y-105586866D01*
X176829732Y-105575830D01*
X176849138Y-105566651D01*
X176869350Y-105559419D01*
X176890174Y-105554203D01*
X176911409Y-105551053D01*
X176932850Y-105550000D01*
X177445350Y-105550000D01*
X177466791Y-105551053D01*
X177466791Y-105551053D01*
G37*
D11*
X177189100Y-105987500D03*
D10*
G36*
X177466791Y-103976053D02*
G01*
X177488026Y-103979203D01*
X177508850Y-103984419D01*
X177529062Y-103991651D01*
X177548468Y-104000830D01*
X177566881Y-104011866D01*
X177584124Y-104024654D01*
X177600030Y-104039070D01*
X177614446Y-104054976D01*
X177627234Y-104072219D01*
X177638270Y-104090632D01*
X177647449Y-104110038D01*
X177654681Y-104130250D01*
X177659897Y-104151074D01*
X177663047Y-104172309D01*
X177664100Y-104193750D01*
X177664100Y-104631250D01*
X177663047Y-104652691D01*
X177659897Y-104673926D01*
X177654681Y-104694750D01*
X177647449Y-104714962D01*
X177638270Y-104734368D01*
X177627234Y-104752781D01*
X177614446Y-104770024D01*
X177600030Y-104785930D01*
X177584124Y-104800346D01*
X177566881Y-104813134D01*
X177548468Y-104824170D01*
X177529062Y-104833349D01*
X177508850Y-104840581D01*
X177488026Y-104845797D01*
X177466791Y-104848947D01*
X177445350Y-104850000D01*
X176932850Y-104850000D01*
X176911409Y-104848947D01*
X176890174Y-104845797D01*
X176869350Y-104840581D01*
X176849138Y-104833349D01*
X176829732Y-104824170D01*
X176811319Y-104813134D01*
X176794076Y-104800346D01*
X176778170Y-104785930D01*
X176763754Y-104770024D01*
X176750966Y-104752781D01*
X176739930Y-104734368D01*
X176730751Y-104714962D01*
X176723519Y-104694750D01*
X176718303Y-104673926D01*
X176715153Y-104652691D01*
X176714100Y-104631250D01*
X176714100Y-104193750D01*
X176715153Y-104172309D01*
X176718303Y-104151074D01*
X176723519Y-104130250D01*
X176730751Y-104110038D01*
X176739930Y-104090632D01*
X176750966Y-104072219D01*
X176763754Y-104054976D01*
X176778170Y-104039070D01*
X176794076Y-104024654D01*
X176811319Y-104011866D01*
X176829732Y-104000830D01*
X176849138Y-103991651D01*
X176869350Y-103984419D01*
X176890174Y-103979203D01*
X176911409Y-103976053D01*
X176932850Y-103975000D01*
X177445350Y-103975000D01*
X177466791Y-103976053D01*
X177466791Y-103976053D01*
G37*
D11*
X177189100Y-104412500D03*
D10*
G36*
X173080142Y-115551174D02*
G01*
X173103803Y-115554684D01*
X173127007Y-115560496D01*
X173149529Y-115568554D01*
X173171153Y-115578782D01*
X173191670Y-115591079D01*
X173210883Y-115605329D01*
X173228607Y-115621393D01*
X173244671Y-115639117D01*
X173258921Y-115658330D01*
X173271218Y-115678847D01*
X173281446Y-115700471D01*
X173289504Y-115722993D01*
X173295316Y-115746197D01*
X173298826Y-115769858D01*
X173300000Y-115793750D01*
X173300000Y-116281250D01*
X173298826Y-116305142D01*
X173295316Y-116328803D01*
X173289504Y-116352007D01*
X173281446Y-116374529D01*
X173271218Y-116396153D01*
X173258921Y-116416670D01*
X173244671Y-116435883D01*
X173228607Y-116453607D01*
X173210883Y-116469671D01*
X173191670Y-116483921D01*
X173171153Y-116496218D01*
X173149529Y-116506446D01*
X173127007Y-116514504D01*
X173103803Y-116520316D01*
X173080142Y-116523826D01*
X173056250Y-116525000D01*
X172143750Y-116525000D01*
X172119858Y-116523826D01*
X172096197Y-116520316D01*
X172072993Y-116514504D01*
X172050471Y-116506446D01*
X172028847Y-116496218D01*
X172008330Y-116483921D01*
X171989117Y-116469671D01*
X171971393Y-116453607D01*
X171955329Y-116435883D01*
X171941079Y-116416670D01*
X171928782Y-116396153D01*
X171918554Y-116374529D01*
X171910496Y-116352007D01*
X171904684Y-116328803D01*
X171901174Y-116305142D01*
X171900000Y-116281250D01*
X171900000Y-115793750D01*
X171901174Y-115769858D01*
X171904684Y-115746197D01*
X171910496Y-115722993D01*
X171918554Y-115700471D01*
X171928782Y-115678847D01*
X171941079Y-115658330D01*
X171955329Y-115639117D01*
X171971393Y-115621393D01*
X171989117Y-115605329D01*
X172008330Y-115591079D01*
X172028847Y-115578782D01*
X172050471Y-115568554D01*
X172072993Y-115560496D01*
X172096197Y-115554684D01*
X172119858Y-115551174D01*
X172143750Y-115550000D01*
X173056250Y-115550000D01*
X173080142Y-115551174D01*
X173080142Y-115551174D01*
G37*
D16*
X172600000Y-116037500D03*
D10*
G36*
X173080142Y-113676174D02*
G01*
X173103803Y-113679684D01*
X173127007Y-113685496D01*
X173149529Y-113693554D01*
X173171153Y-113703782D01*
X173191670Y-113716079D01*
X173210883Y-113730329D01*
X173228607Y-113746393D01*
X173244671Y-113764117D01*
X173258921Y-113783330D01*
X173271218Y-113803847D01*
X173281446Y-113825471D01*
X173289504Y-113847993D01*
X173295316Y-113871197D01*
X173298826Y-113894858D01*
X173300000Y-113918750D01*
X173300000Y-114406250D01*
X173298826Y-114430142D01*
X173295316Y-114453803D01*
X173289504Y-114477007D01*
X173281446Y-114499529D01*
X173271218Y-114521153D01*
X173258921Y-114541670D01*
X173244671Y-114560883D01*
X173228607Y-114578607D01*
X173210883Y-114594671D01*
X173191670Y-114608921D01*
X173171153Y-114621218D01*
X173149529Y-114631446D01*
X173127007Y-114639504D01*
X173103803Y-114645316D01*
X173080142Y-114648826D01*
X173056250Y-114650000D01*
X172143750Y-114650000D01*
X172119858Y-114648826D01*
X172096197Y-114645316D01*
X172072993Y-114639504D01*
X172050471Y-114631446D01*
X172028847Y-114621218D01*
X172008330Y-114608921D01*
X171989117Y-114594671D01*
X171971393Y-114578607D01*
X171955329Y-114560883D01*
X171941079Y-114541670D01*
X171928782Y-114521153D01*
X171918554Y-114499529D01*
X171910496Y-114477007D01*
X171904684Y-114453803D01*
X171901174Y-114430142D01*
X171900000Y-114406250D01*
X171900000Y-113918750D01*
X171901174Y-113894858D01*
X171904684Y-113871197D01*
X171910496Y-113847993D01*
X171918554Y-113825471D01*
X171928782Y-113803847D01*
X171941079Y-113783330D01*
X171955329Y-113764117D01*
X171971393Y-113746393D01*
X171989117Y-113730329D01*
X172008330Y-113716079D01*
X172028847Y-113703782D01*
X172050471Y-113693554D01*
X172072993Y-113685496D01*
X172096197Y-113679684D01*
X172119858Y-113676174D01*
X172143750Y-113675000D01*
X173056250Y-113675000D01*
X173080142Y-113676174D01*
X173080142Y-113676174D01*
G37*
D16*
X172600000Y-114162500D03*
D10*
G36*
X175853891Y-105551053D02*
G01*
X175875126Y-105554203D01*
X175895950Y-105559419D01*
X175916162Y-105566651D01*
X175935568Y-105575830D01*
X175953981Y-105586866D01*
X175971224Y-105599654D01*
X175987130Y-105614070D01*
X176001546Y-105629976D01*
X176014334Y-105647219D01*
X176025370Y-105665632D01*
X176034549Y-105685038D01*
X176041781Y-105705250D01*
X176046997Y-105726074D01*
X176050147Y-105747309D01*
X176051200Y-105768750D01*
X176051200Y-106206250D01*
X176050147Y-106227691D01*
X176046997Y-106248926D01*
X176041781Y-106269750D01*
X176034549Y-106289962D01*
X176025370Y-106309368D01*
X176014334Y-106327781D01*
X176001546Y-106345024D01*
X175987130Y-106360930D01*
X175971224Y-106375346D01*
X175953981Y-106388134D01*
X175935568Y-106399170D01*
X175916162Y-106408349D01*
X175895950Y-106415581D01*
X175875126Y-106420797D01*
X175853891Y-106423947D01*
X175832450Y-106425000D01*
X175319950Y-106425000D01*
X175298509Y-106423947D01*
X175277274Y-106420797D01*
X175256450Y-106415581D01*
X175236238Y-106408349D01*
X175216832Y-106399170D01*
X175198419Y-106388134D01*
X175181176Y-106375346D01*
X175165270Y-106360930D01*
X175150854Y-106345024D01*
X175138066Y-106327781D01*
X175127030Y-106309368D01*
X175117851Y-106289962D01*
X175110619Y-106269750D01*
X175105403Y-106248926D01*
X175102253Y-106227691D01*
X175101200Y-106206250D01*
X175101200Y-105768750D01*
X175102253Y-105747309D01*
X175105403Y-105726074D01*
X175110619Y-105705250D01*
X175117851Y-105685038D01*
X175127030Y-105665632D01*
X175138066Y-105647219D01*
X175150854Y-105629976D01*
X175165270Y-105614070D01*
X175181176Y-105599654D01*
X175198419Y-105586866D01*
X175216832Y-105575830D01*
X175236238Y-105566651D01*
X175256450Y-105559419D01*
X175277274Y-105554203D01*
X175298509Y-105551053D01*
X175319950Y-105550000D01*
X175832450Y-105550000D01*
X175853891Y-105551053D01*
X175853891Y-105551053D01*
G37*
D11*
X175576200Y-105987500D03*
D10*
G36*
X175853891Y-103976053D02*
G01*
X175875126Y-103979203D01*
X175895950Y-103984419D01*
X175916162Y-103991651D01*
X175935568Y-104000830D01*
X175953981Y-104011866D01*
X175971224Y-104024654D01*
X175987130Y-104039070D01*
X176001546Y-104054976D01*
X176014334Y-104072219D01*
X176025370Y-104090632D01*
X176034549Y-104110038D01*
X176041781Y-104130250D01*
X176046997Y-104151074D01*
X176050147Y-104172309D01*
X176051200Y-104193750D01*
X176051200Y-104631250D01*
X176050147Y-104652691D01*
X176046997Y-104673926D01*
X176041781Y-104694750D01*
X176034549Y-104714962D01*
X176025370Y-104734368D01*
X176014334Y-104752781D01*
X176001546Y-104770024D01*
X175987130Y-104785930D01*
X175971224Y-104800346D01*
X175953981Y-104813134D01*
X175935568Y-104824170D01*
X175916162Y-104833349D01*
X175895950Y-104840581D01*
X175875126Y-104845797D01*
X175853891Y-104848947D01*
X175832450Y-104850000D01*
X175319950Y-104850000D01*
X175298509Y-104848947D01*
X175277274Y-104845797D01*
X175256450Y-104840581D01*
X175236238Y-104833349D01*
X175216832Y-104824170D01*
X175198419Y-104813134D01*
X175181176Y-104800346D01*
X175165270Y-104785930D01*
X175150854Y-104770024D01*
X175138066Y-104752781D01*
X175127030Y-104734368D01*
X175117851Y-104714962D01*
X175110619Y-104694750D01*
X175105403Y-104673926D01*
X175102253Y-104652691D01*
X175101200Y-104631250D01*
X175101200Y-104193750D01*
X175102253Y-104172309D01*
X175105403Y-104151074D01*
X175110619Y-104130250D01*
X175117851Y-104110038D01*
X175127030Y-104090632D01*
X175138066Y-104072219D01*
X175150854Y-104054976D01*
X175165270Y-104039070D01*
X175181176Y-104024654D01*
X175198419Y-104011866D01*
X175216832Y-104000830D01*
X175236238Y-103991651D01*
X175256450Y-103984419D01*
X175277274Y-103979203D01*
X175298509Y-103976053D01*
X175319950Y-103975000D01*
X175832450Y-103975000D01*
X175853891Y-103976053D01*
X175853891Y-103976053D01*
G37*
D11*
X175576200Y-104412500D03*
D10*
G36*
X181888742Y-112501174D02*
G01*
X181912403Y-112504684D01*
X181935607Y-112510496D01*
X181958129Y-112518554D01*
X181979753Y-112528782D01*
X182000270Y-112541079D01*
X182019483Y-112555329D01*
X182037207Y-112571393D01*
X182053271Y-112589117D01*
X182067521Y-112608330D01*
X182079818Y-112628847D01*
X182090046Y-112650471D01*
X182098104Y-112672993D01*
X182103916Y-112696197D01*
X182107426Y-112719858D01*
X182108600Y-112743750D01*
X182108600Y-113656250D01*
X182107426Y-113680142D01*
X182103916Y-113703803D01*
X182098104Y-113727007D01*
X182090046Y-113749529D01*
X182079818Y-113771153D01*
X182067521Y-113791670D01*
X182053271Y-113810883D01*
X182037207Y-113828607D01*
X182019483Y-113844671D01*
X182000270Y-113858921D01*
X181979753Y-113871218D01*
X181958129Y-113881446D01*
X181935607Y-113889504D01*
X181912403Y-113895316D01*
X181888742Y-113898826D01*
X181864850Y-113900000D01*
X181377350Y-113900000D01*
X181353458Y-113898826D01*
X181329797Y-113895316D01*
X181306593Y-113889504D01*
X181284071Y-113881446D01*
X181262447Y-113871218D01*
X181241930Y-113858921D01*
X181222717Y-113844671D01*
X181204993Y-113828607D01*
X181188929Y-113810883D01*
X181174679Y-113791670D01*
X181162382Y-113771153D01*
X181152154Y-113749529D01*
X181144096Y-113727007D01*
X181138284Y-113703803D01*
X181134774Y-113680142D01*
X181133600Y-113656250D01*
X181133600Y-112743750D01*
X181134774Y-112719858D01*
X181138284Y-112696197D01*
X181144096Y-112672993D01*
X181152154Y-112650471D01*
X181162382Y-112628847D01*
X181174679Y-112608330D01*
X181188929Y-112589117D01*
X181204993Y-112571393D01*
X181222717Y-112555329D01*
X181241930Y-112541079D01*
X181262447Y-112528782D01*
X181284071Y-112518554D01*
X181306593Y-112510496D01*
X181329797Y-112504684D01*
X181353458Y-112501174D01*
X181377350Y-112500000D01*
X181864850Y-112500000D01*
X181888742Y-112501174D01*
X181888742Y-112501174D01*
G37*
D16*
X181621100Y-113200000D03*
D10*
G36*
X183763742Y-112501174D02*
G01*
X183787403Y-112504684D01*
X183810607Y-112510496D01*
X183833129Y-112518554D01*
X183854753Y-112528782D01*
X183875270Y-112541079D01*
X183894483Y-112555329D01*
X183912207Y-112571393D01*
X183928271Y-112589117D01*
X183942521Y-112608330D01*
X183954818Y-112628847D01*
X183965046Y-112650471D01*
X183973104Y-112672993D01*
X183978916Y-112696197D01*
X183982426Y-112719858D01*
X183983600Y-112743750D01*
X183983600Y-113656250D01*
X183982426Y-113680142D01*
X183978916Y-113703803D01*
X183973104Y-113727007D01*
X183965046Y-113749529D01*
X183954818Y-113771153D01*
X183942521Y-113791670D01*
X183928271Y-113810883D01*
X183912207Y-113828607D01*
X183894483Y-113844671D01*
X183875270Y-113858921D01*
X183854753Y-113871218D01*
X183833129Y-113881446D01*
X183810607Y-113889504D01*
X183787403Y-113895316D01*
X183763742Y-113898826D01*
X183739850Y-113900000D01*
X183252350Y-113900000D01*
X183228458Y-113898826D01*
X183204797Y-113895316D01*
X183181593Y-113889504D01*
X183159071Y-113881446D01*
X183137447Y-113871218D01*
X183116930Y-113858921D01*
X183097717Y-113844671D01*
X183079993Y-113828607D01*
X183063929Y-113810883D01*
X183049679Y-113791670D01*
X183037382Y-113771153D01*
X183027154Y-113749529D01*
X183019096Y-113727007D01*
X183013284Y-113703803D01*
X183009774Y-113680142D01*
X183008600Y-113656250D01*
X183008600Y-112743750D01*
X183009774Y-112719858D01*
X183013284Y-112696197D01*
X183019096Y-112672993D01*
X183027154Y-112650471D01*
X183037382Y-112628847D01*
X183049679Y-112608330D01*
X183063929Y-112589117D01*
X183079993Y-112571393D01*
X183097717Y-112555329D01*
X183116930Y-112541079D01*
X183137447Y-112528782D01*
X183159071Y-112518554D01*
X183181593Y-112510496D01*
X183204797Y-112504684D01*
X183228458Y-112501174D01*
X183252350Y-112500000D01*
X183739850Y-112500000D01*
X183763742Y-112501174D01*
X183763742Y-112501174D01*
G37*
D16*
X183496100Y-113200000D03*
D10*
G36*
X179041591Y-105551053D02*
G01*
X179062826Y-105554203D01*
X179083650Y-105559419D01*
X179103862Y-105566651D01*
X179123268Y-105575830D01*
X179141681Y-105586866D01*
X179158924Y-105599654D01*
X179174830Y-105614070D01*
X179189246Y-105629976D01*
X179202034Y-105647219D01*
X179213070Y-105665632D01*
X179222249Y-105685038D01*
X179229481Y-105705250D01*
X179234697Y-105726074D01*
X179237847Y-105747309D01*
X179238900Y-105768750D01*
X179238900Y-106206250D01*
X179237847Y-106227691D01*
X179234697Y-106248926D01*
X179229481Y-106269750D01*
X179222249Y-106289962D01*
X179213070Y-106309368D01*
X179202034Y-106327781D01*
X179189246Y-106345024D01*
X179174830Y-106360930D01*
X179158924Y-106375346D01*
X179141681Y-106388134D01*
X179123268Y-106399170D01*
X179103862Y-106408349D01*
X179083650Y-106415581D01*
X179062826Y-106420797D01*
X179041591Y-106423947D01*
X179020150Y-106425000D01*
X178507650Y-106425000D01*
X178486209Y-106423947D01*
X178464974Y-106420797D01*
X178444150Y-106415581D01*
X178423938Y-106408349D01*
X178404532Y-106399170D01*
X178386119Y-106388134D01*
X178368876Y-106375346D01*
X178352970Y-106360930D01*
X178338554Y-106345024D01*
X178325766Y-106327781D01*
X178314730Y-106309368D01*
X178305551Y-106289962D01*
X178298319Y-106269750D01*
X178293103Y-106248926D01*
X178289953Y-106227691D01*
X178288900Y-106206250D01*
X178288900Y-105768750D01*
X178289953Y-105747309D01*
X178293103Y-105726074D01*
X178298319Y-105705250D01*
X178305551Y-105685038D01*
X178314730Y-105665632D01*
X178325766Y-105647219D01*
X178338554Y-105629976D01*
X178352970Y-105614070D01*
X178368876Y-105599654D01*
X178386119Y-105586866D01*
X178404532Y-105575830D01*
X178423938Y-105566651D01*
X178444150Y-105559419D01*
X178464974Y-105554203D01*
X178486209Y-105551053D01*
X178507650Y-105550000D01*
X179020150Y-105550000D01*
X179041591Y-105551053D01*
X179041591Y-105551053D01*
G37*
D11*
X178763900Y-105987500D03*
D10*
G36*
X179041591Y-103976053D02*
G01*
X179062826Y-103979203D01*
X179083650Y-103984419D01*
X179103862Y-103991651D01*
X179123268Y-104000830D01*
X179141681Y-104011866D01*
X179158924Y-104024654D01*
X179174830Y-104039070D01*
X179189246Y-104054976D01*
X179202034Y-104072219D01*
X179213070Y-104090632D01*
X179222249Y-104110038D01*
X179229481Y-104130250D01*
X179234697Y-104151074D01*
X179237847Y-104172309D01*
X179238900Y-104193750D01*
X179238900Y-104631250D01*
X179237847Y-104652691D01*
X179234697Y-104673926D01*
X179229481Y-104694750D01*
X179222249Y-104714962D01*
X179213070Y-104734368D01*
X179202034Y-104752781D01*
X179189246Y-104770024D01*
X179174830Y-104785930D01*
X179158924Y-104800346D01*
X179141681Y-104813134D01*
X179123268Y-104824170D01*
X179103862Y-104833349D01*
X179083650Y-104840581D01*
X179062826Y-104845797D01*
X179041591Y-104848947D01*
X179020150Y-104850000D01*
X178507650Y-104850000D01*
X178486209Y-104848947D01*
X178464974Y-104845797D01*
X178444150Y-104840581D01*
X178423938Y-104833349D01*
X178404532Y-104824170D01*
X178386119Y-104813134D01*
X178368876Y-104800346D01*
X178352970Y-104785930D01*
X178338554Y-104770024D01*
X178325766Y-104752781D01*
X178314730Y-104734368D01*
X178305551Y-104714962D01*
X178298319Y-104694750D01*
X178293103Y-104673926D01*
X178289953Y-104652691D01*
X178288900Y-104631250D01*
X178288900Y-104193750D01*
X178289953Y-104172309D01*
X178293103Y-104151074D01*
X178298319Y-104130250D01*
X178305551Y-104110038D01*
X178314730Y-104090632D01*
X178325766Y-104072219D01*
X178338554Y-104054976D01*
X178352970Y-104039070D01*
X178368876Y-104024654D01*
X178386119Y-104011866D01*
X178404532Y-104000830D01*
X178423938Y-103991651D01*
X178444150Y-103984419D01*
X178464974Y-103979203D01*
X178486209Y-103976053D01*
X178507650Y-103975000D01*
X179020150Y-103975000D01*
X179041591Y-103976053D01*
X179041591Y-103976053D01*
G37*
D11*
X178763900Y-104412500D03*
D15*
X180122800Y-115184500D03*
X178122800Y-116134500D03*
X178122800Y-114234500D03*
X176427100Y-115184500D03*
X174427100Y-116134500D03*
X174427100Y-114234500D03*
X173900000Y-111600000D03*
X171900000Y-112550000D03*
X171900000Y-110650000D03*
X181448600Y-110352000D03*
X183448600Y-109402000D03*
X183448600Y-111302000D03*
X181448600Y-106770600D03*
X183448600Y-105820600D03*
X183448600Y-107720600D03*
D10*
G36*
X107380142Y-114476174D02*
G01*
X107403803Y-114479684D01*
X107427007Y-114485496D01*
X107449529Y-114493554D01*
X107471153Y-114503782D01*
X107491670Y-114516079D01*
X107510883Y-114530329D01*
X107528607Y-114546393D01*
X107544671Y-114564117D01*
X107558921Y-114583330D01*
X107571218Y-114603847D01*
X107581446Y-114625471D01*
X107589504Y-114647993D01*
X107595316Y-114671197D01*
X107598826Y-114694858D01*
X107600000Y-114718750D01*
X107600000Y-115206250D01*
X107598826Y-115230142D01*
X107595316Y-115253803D01*
X107589504Y-115277007D01*
X107581446Y-115299529D01*
X107571218Y-115321153D01*
X107558921Y-115341670D01*
X107544671Y-115360883D01*
X107528607Y-115378607D01*
X107510883Y-115394671D01*
X107491670Y-115408921D01*
X107471153Y-115421218D01*
X107449529Y-115431446D01*
X107427007Y-115439504D01*
X107403803Y-115445316D01*
X107380142Y-115448826D01*
X107356250Y-115450000D01*
X106443750Y-115450000D01*
X106419858Y-115448826D01*
X106396197Y-115445316D01*
X106372993Y-115439504D01*
X106350471Y-115431446D01*
X106328847Y-115421218D01*
X106308330Y-115408921D01*
X106289117Y-115394671D01*
X106271393Y-115378607D01*
X106255329Y-115360883D01*
X106241079Y-115341670D01*
X106228782Y-115321153D01*
X106218554Y-115299529D01*
X106210496Y-115277007D01*
X106204684Y-115253803D01*
X106201174Y-115230142D01*
X106200000Y-115206250D01*
X106200000Y-114718750D01*
X106201174Y-114694858D01*
X106204684Y-114671197D01*
X106210496Y-114647993D01*
X106218554Y-114625471D01*
X106228782Y-114603847D01*
X106241079Y-114583330D01*
X106255329Y-114564117D01*
X106271393Y-114546393D01*
X106289117Y-114530329D01*
X106308330Y-114516079D01*
X106328847Y-114503782D01*
X106350471Y-114493554D01*
X106372993Y-114485496D01*
X106396197Y-114479684D01*
X106419858Y-114476174D01*
X106443750Y-114475000D01*
X107356250Y-114475000D01*
X107380142Y-114476174D01*
X107380142Y-114476174D01*
G37*
D16*
X106900000Y-114962500D03*
D10*
G36*
X107380142Y-116351174D02*
G01*
X107403803Y-116354684D01*
X107427007Y-116360496D01*
X107449529Y-116368554D01*
X107471153Y-116378782D01*
X107491670Y-116391079D01*
X107510883Y-116405329D01*
X107528607Y-116421393D01*
X107544671Y-116439117D01*
X107558921Y-116458330D01*
X107571218Y-116478847D01*
X107581446Y-116500471D01*
X107589504Y-116522993D01*
X107595316Y-116546197D01*
X107598826Y-116569858D01*
X107600000Y-116593750D01*
X107600000Y-117081250D01*
X107598826Y-117105142D01*
X107595316Y-117128803D01*
X107589504Y-117152007D01*
X107581446Y-117174529D01*
X107571218Y-117196153D01*
X107558921Y-117216670D01*
X107544671Y-117235883D01*
X107528607Y-117253607D01*
X107510883Y-117269671D01*
X107491670Y-117283921D01*
X107471153Y-117296218D01*
X107449529Y-117306446D01*
X107427007Y-117314504D01*
X107403803Y-117320316D01*
X107380142Y-117323826D01*
X107356250Y-117325000D01*
X106443750Y-117325000D01*
X106419858Y-117323826D01*
X106396197Y-117320316D01*
X106372993Y-117314504D01*
X106350471Y-117306446D01*
X106328847Y-117296218D01*
X106308330Y-117283921D01*
X106289117Y-117269671D01*
X106271393Y-117253607D01*
X106255329Y-117235883D01*
X106241079Y-117216670D01*
X106228782Y-117196153D01*
X106218554Y-117174529D01*
X106210496Y-117152007D01*
X106204684Y-117128803D01*
X106201174Y-117105142D01*
X106200000Y-117081250D01*
X106200000Y-116593750D01*
X106201174Y-116569858D01*
X106204684Y-116546197D01*
X106210496Y-116522993D01*
X106218554Y-116500471D01*
X106228782Y-116478847D01*
X106241079Y-116458330D01*
X106255329Y-116439117D01*
X106271393Y-116421393D01*
X106289117Y-116405329D01*
X106308330Y-116391079D01*
X106328847Y-116378782D01*
X106350471Y-116368554D01*
X106372993Y-116360496D01*
X106396197Y-116354684D01*
X106419858Y-116351174D01*
X106443750Y-116350000D01*
X107356250Y-116350000D01*
X107380142Y-116351174D01*
X107380142Y-116351174D01*
G37*
D16*
X106900000Y-116837500D03*
D10*
G36*
X132480142Y-114476174D02*
G01*
X132503803Y-114479684D01*
X132527007Y-114485496D01*
X132549529Y-114493554D01*
X132571153Y-114503782D01*
X132591670Y-114516079D01*
X132610883Y-114530329D01*
X132628607Y-114546393D01*
X132644671Y-114564117D01*
X132658921Y-114583330D01*
X132671218Y-114603847D01*
X132681446Y-114625471D01*
X132689504Y-114647993D01*
X132695316Y-114671197D01*
X132698826Y-114694858D01*
X132700000Y-114718750D01*
X132700000Y-115206250D01*
X132698826Y-115230142D01*
X132695316Y-115253803D01*
X132689504Y-115277007D01*
X132681446Y-115299529D01*
X132671218Y-115321153D01*
X132658921Y-115341670D01*
X132644671Y-115360883D01*
X132628607Y-115378607D01*
X132610883Y-115394671D01*
X132591670Y-115408921D01*
X132571153Y-115421218D01*
X132549529Y-115431446D01*
X132527007Y-115439504D01*
X132503803Y-115445316D01*
X132480142Y-115448826D01*
X132456250Y-115450000D01*
X131543750Y-115450000D01*
X131519858Y-115448826D01*
X131496197Y-115445316D01*
X131472993Y-115439504D01*
X131450471Y-115431446D01*
X131428847Y-115421218D01*
X131408330Y-115408921D01*
X131389117Y-115394671D01*
X131371393Y-115378607D01*
X131355329Y-115360883D01*
X131341079Y-115341670D01*
X131328782Y-115321153D01*
X131318554Y-115299529D01*
X131310496Y-115277007D01*
X131304684Y-115253803D01*
X131301174Y-115230142D01*
X131300000Y-115206250D01*
X131300000Y-114718750D01*
X131301174Y-114694858D01*
X131304684Y-114671197D01*
X131310496Y-114647993D01*
X131318554Y-114625471D01*
X131328782Y-114603847D01*
X131341079Y-114583330D01*
X131355329Y-114564117D01*
X131371393Y-114546393D01*
X131389117Y-114530329D01*
X131408330Y-114516079D01*
X131428847Y-114503782D01*
X131450471Y-114493554D01*
X131472993Y-114485496D01*
X131496197Y-114479684D01*
X131519858Y-114476174D01*
X131543750Y-114475000D01*
X132456250Y-114475000D01*
X132480142Y-114476174D01*
X132480142Y-114476174D01*
G37*
D16*
X132000000Y-114962500D03*
D10*
G36*
X132480142Y-116351174D02*
G01*
X132503803Y-116354684D01*
X132527007Y-116360496D01*
X132549529Y-116368554D01*
X132571153Y-116378782D01*
X132591670Y-116391079D01*
X132610883Y-116405329D01*
X132628607Y-116421393D01*
X132644671Y-116439117D01*
X132658921Y-116458330D01*
X132671218Y-116478847D01*
X132681446Y-116500471D01*
X132689504Y-116522993D01*
X132695316Y-116546197D01*
X132698826Y-116569858D01*
X132700000Y-116593750D01*
X132700000Y-117081250D01*
X132698826Y-117105142D01*
X132695316Y-117128803D01*
X132689504Y-117152007D01*
X132681446Y-117174529D01*
X132671218Y-117196153D01*
X132658921Y-117216670D01*
X132644671Y-117235883D01*
X132628607Y-117253607D01*
X132610883Y-117269671D01*
X132591670Y-117283921D01*
X132571153Y-117296218D01*
X132549529Y-117306446D01*
X132527007Y-117314504D01*
X132503803Y-117320316D01*
X132480142Y-117323826D01*
X132456250Y-117325000D01*
X131543750Y-117325000D01*
X131519858Y-117323826D01*
X131496197Y-117320316D01*
X131472993Y-117314504D01*
X131450471Y-117306446D01*
X131428847Y-117296218D01*
X131408330Y-117283921D01*
X131389117Y-117269671D01*
X131371393Y-117253607D01*
X131355329Y-117235883D01*
X131341079Y-117216670D01*
X131328782Y-117196153D01*
X131318554Y-117174529D01*
X131310496Y-117152007D01*
X131304684Y-117128803D01*
X131301174Y-117105142D01*
X131300000Y-117081250D01*
X131300000Y-116593750D01*
X131301174Y-116569858D01*
X131304684Y-116546197D01*
X131310496Y-116522993D01*
X131318554Y-116500471D01*
X131328782Y-116478847D01*
X131341079Y-116458330D01*
X131355329Y-116439117D01*
X131371393Y-116421393D01*
X131389117Y-116405329D01*
X131408330Y-116391079D01*
X131428847Y-116378782D01*
X131450471Y-116368554D01*
X131472993Y-116360496D01*
X131496197Y-116354684D01*
X131519858Y-116351174D01*
X131543750Y-116350000D01*
X132456250Y-116350000D01*
X132480142Y-116351174D01*
X132480142Y-116351174D01*
G37*
D16*
X132000000Y-116837500D03*
D10*
G36*
X157480142Y-114476174D02*
G01*
X157503803Y-114479684D01*
X157527007Y-114485496D01*
X157549529Y-114493554D01*
X157571153Y-114503782D01*
X157591670Y-114516079D01*
X157610883Y-114530329D01*
X157628607Y-114546393D01*
X157644671Y-114564117D01*
X157658921Y-114583330D01*
X157671218Y-114603847D01*
X157681446Y-114625471D01*
X157689504Y-114647993D01*
X157695316Y-114671197D01*
X157698826Y-114694858D01*
X157700000Y-114718750D01*
X157700000Y-115206250D01*
X157698826Y-115230142D01*
X157695316Y-115253803D01*
X157689504Y-115277007D01*
X157681446Y-115299529D01*
X157671218Y-115321153D01*
X157658921Y-115341670D01*
X157644671Y-115360883D01*
X157628607Y-115378607D01*
X157610883Y-115394671D01*
X157591670Y-115408921D01*
X157571153Y-115421218D01*
X157549529Y-115431446D01*
X157527007Y-115439504D01*
X157503803Y-115445316D01*
X157480142Y-115448826D01*
X157456250Y-115450000D01*
X156543750Y-115450000D01*
X156519858Y-115448826D01*
X156496197Y-115445316D01*
X156472993Y-115439504D01*
X156450471Y-115431446D01*
X156428847Y-115421218D01*
X156408330Y-115408921D01*
X156389117Y-115394671D01*
X156371393Y-115378607D01*
X156355329Y-115360883D01*
X156341079Y-115341670D01*
X156328782Y-115321153D01*
X156318554Y-115299529D01*
X156310496Y-115277007D01*
X156304684Y-115253803D01*
X156301174Y-115230142D01*
X156300000Y-115206250D01*
X156300000Y-114718750D01*
X156301174Y-114694858D01*
X156304684Y-114671197D01*
X156310496Y-114647993D01*
X156318554Y-114625471D01*
X156328782Y-114603847D01*
X156341079Y-114583330D01*
X156355329Y-114564117D01*
X156371393Y-114546393D01*
X156389117Y-114530329D01*
X156408330Y-114516079D01*
X156428847Y-114503782D01*
X156450471Y-114493554D01*
X156472993Y-114485496D01*
X156496197Y-114479684D01*
X156519858Y-114476174D01*
X156543750Y-114475000D01*
X157456250Y-114475000D01*
X157480142Y-114476174D01*
X157480142Y-114476174D01*
G37*
D16*
X157000000Y-114962500D03*
D10*
G36*
X157480142Y-116351174D02*
G01*
X157503803Y-116354684D01*
X157527007Y-116360496D01*
X157549529Y-116368554D01*
X157571153Y-116378782D01*
X157591670Y-116391079D01*
X157610883Y-116405329D01*
X157628607Y-116421393D01*
X157644671Y-116439117D01*
X157658921Y-116458330D01*
X157671218Y-116478847D01*
X157681446Y-116500471D01*
X157689504Y-116522993D01*
X157695316Y-116546197D01*
X157698826Y-116569858D01*
X157700000Y-116593750D01*
X157700000Y-117081250D01*
X157698826Y-117105142D01*
X157695316Y-117128803D01*
X157689504Y-117152007D01*
X157681446Y-117174529D01*
X157671218Y-117196153D01*
X157658921Y-117216670D01*
X157644671Y-117235883D01*
X157628607Y-117253607D01*
X157610883Y-117269671D01*
X157591670Y-117283921D01*
X157571153Y-117296218D01*
X157549529Y-117306446D01*
X157527007Y-117314504D01*
X157503803Y-117320316D01*
X157480142Y-117323826D01*
X157456250Y-117325000D01*
X156543750Y-117325000D01*
X156519858Y-117323826D01*
X156496197Y-117320316D01*
X156472993Y-117314504D01*
X156450471Y-117306446D01*
X156428847Y-117296218D01*
X156408330Y-117283921D01*
X156389117Y-117269671D01*
X156371393Y-117253607D01*
X156355329Y-117235883D01*
X156341079Y-117216670D01*
X156328782Y-117196153D01*
X156318554Y-117174529D01*
X156310496Y-117152007D01*
X156304684Y-117128803D01*
X156301174Y-117105142D01*
X156300000Y-117081250D01*
X156300000Y-116593750D01*
X156301174Y-116569858D01*
X156304684Y-116546197D01*
X156310496Y-116522993D01*
X156318554Y-116500471D01*
X156328782Y-116478847D01*
X156341079Y-116458330D01*
X156355329Y-116439117D01*
X156371393Y-116421393D01*
X156389117Y-116405329D01*
X156408330Y-116391079D01*
X156428847Y-116378782D01*
X156450471Y-116368554D01*
X156472993Y-116360496D01*
X156496197Y-116354684D01*
X156519858Y-116351174D01*
X156543750Y-116350000D01*
X157456250Y-116350000D01*
X157480142Y-116351174D01*
X157480142Y-116351174D01*
G37*
D16*
X157000000Y-116837500D03*
D10*
G36*
X102466791Y-105557853D02*
G01*
X102488026Y-105561003D01*
X102508850Y-105566219D01*
X102529062Y-105573451D01*
X102548468Y-105582630D01*
X102566881Y-105593666D01*
X102584124Y-105606454D01*
X102600030Y-105620870D01*
X102614446Y-105636776D01*
X102627234Y-105654019D01*
X102638270Y-105672432D01*
X102647449Y-105691838D01*
X102654681Y-105712050D01*
X102659897Y-105732874D01*
X102663047Y-105754109D01*
X102664100Y-105775550D01*
X102664100Y-106213050D01*
X102663047Y-106234491D01*
X102659897Y-106255726D01*
X102654681Y-106276550D01*
X102647449Y-106296762D01*
X102638270Y-106316168D01*
X102627234Y-106334581D01*
X102614446Y-106351824D01*
X102600030Y-106367730D01*
X102584124Y-106382146D01*
X102566881Y-106394934D01*
X102548468Y-106405970D01*
X102529062Y-106415149D01*
X102508850Y-106422381D01*
X102488026Y-106427597D01*
X102466791Y-106430747D01*
X102445350Y-106431800D01*
X101932850Y-106431800D01*
X101911409Y-106430747D01*
X101890174Y-106427597D01*
X101869350Y-106422381D01*
X101849138Y-106415149D01*
X101829732Y-106405970D01*
X101811319Y-106394934D01*
X101794076Y-106382146D01*
X101778170Y-106367730D01*
X101763754Y-106351824D01*
X101750966Y-106334581D01*
X101739930Y-106316168D01*
X101730751Y-106296762D01*
X101723519Y-106276550D01*
X101718303Y-106255726D01*
X101715153Y-106234491D01*
X101714100Y-106213050D01*
X101714100Y-105775550D01*
X101715153Y-105754109D01*
X101718303Y-105732874D01*
X101723519Y-105712050D01*
X101730751Y-105691838D01*
X101739930Y-105672432D01*
X101750966Y-105654019D01*
X101763754Y-105636776D01*
X101778170Y-105620870D01*
X101794076Y-105606454D01*
X101811319Y-105593666D01*
X101829732Y-105582630D01*
X101849138Y-105573451D01*
X101869350Y-105566219D01*
X101890174Y-105561003D01*
X101911409Y-105557853D01*
X101932850Y-105556800D01*
X102445350Y-105556800D01*
X102466791Y-105557853D01*
X102466791Y-105557853D01*
G37*
D11*
X102189100Y-105994300D03*
D10*
G36*
X102466791Y-103982853D02*
G01*
X102488026Y-103986003D01*
X102508850Y-103991219D01*
X102529062Y-103998451D01*
X102548468Y-104007630D01*
X102566881Y-104018666D01*
X102584124Y-104031454D01*
X102600030Y-104045870D01*
X102614446Y-104061776D01*
X102627234Y-104079019D01*
X102638270Y-104097432D01*
X102647449Y-104116838D01*
X102654681Y-104137050D01*
X102659897Y-104157874D01*
X102663047Y-104179109D01*
X102664100Y-104200550D01*
X102664100Y-104638050D01*
X102663047Y-104659491D01*
X102659897Y-104680726D01*
X102654681Y-104701550D01*
X102647449Y-104721762D01*
X102638270Y-104741168D01*
X102627234Y-104759581D01*
X102614446Y-104776824D01*
X102600030Y-104792730D01*
X102584124Y-104807146D01*
X102566881Y-104819934D01*
X102548468Y-104830970D01*
X102529062Y-104840149D01*
X102508850Y-104847381D01*
X102488026Y-104852597D01*
X102466791Y-104855747D01*
X102445350Y-104856800D01*
X101932850Y-104856800D01*
X101911409Y-104855747D01*
X101890174Y-104852597D01*
X101869350Y-104847381D01*
X101849138Y-104840149D01*
X101829732Y-104830970D01*
X101811319Y-104819934D01*
X101794076Y-104807146D01*
X101778170Y-104792730D01*
X101763754Y-104776824D01*
X101750966Y-104759581D01*
X101739930Y-104741168D01*
X101730751Y-104721762D01*
X101723519Y-104701550D01*
X101718303Y-104680726D01*
X101715153Y-104659491D01*
X101714100Y-104638050D01*
X101714100Y-104200550D01*
X101715153Y-104179109D01*
X101718303Y-104157874D01*
X101723519Y-104137050D01*
X101730751Y-104116838D01*
X101739930Y-104097432D01*
X101750966Y-104079019D01*
X101763754Y-104061776D01*
X101778170Y-104045870D01*
X101794076Y-104031454D01*
X101811319Y-104018666D01*
X101829732Y-104007630D01*
X101849138Y-103998451D01*
X101869350Y-103991219D01*
X101890174Y-103986003D01*
X101911409Y-103982853D01*
X101932850Y-103981800D01*
X102445350Y-103981800D01*
X102466791Y-103982853D01*
X102466791Y-103982853D01*
G37*
D11*
X102189100Y-104419300D03*
D10*
G36*
X127466791Y-105557853D02*
G01*
X127488026Y-105561003D01*
X127508850Y-105566219D01*
X127529062Y-105573451D01*
X127548468Y-105582630D01*
X127566881Y-105593666D01*
X127584124Y-105606454D01*
X127600030Y-105620870D01*
X127614446Y-105636776D01*
X127627234Y-105654019D01*
X127638270Y-105672432D01*
X127647449Y-105691838D01*
X127654681Y-105712050D01*
X127659897Y-105732874D01*
X127663047Y-105754109D01*
X127664100Y-105775550D01*
X127664100Y-106213050D01*
X127663047Y-106234491D01*
X127659897Y-106255726D01*
X127654681Y-106276550D01*
X127647449Y-106296762D01*
X127638270Y-106316168D01*
X127627234Y-106334581D01*
X127614446Y-106351824D01*
X127600030Y-106367730D01*
X127584124Y-106382146D01*
X127566881Y-106394934D01*
X127548468Y-106405970D01*
X127529062Y-106415149D01*
X127508850Y-106422381D01*
X127488026Y-106427597D01*
X127466791Y-106430747D01*
X127445350Y-106431800D01*
X126932850Y-106431800D01*
X126911409Y-106430747D01*
X126890174Y-106427597D01*
X126869350Y-106422381D01*
X126849138Y-106415149D01*
X126829732Y-106405970D01*
X126811319Y-106394934D01*
X126794076Y-106382146D01*
X126778170Y-106367730D01*
X126763754Y-106351824D01*
X126750966Y-106334581D01*
X126739930Y-106316168D01*
X126730751Y-106296762D01*
X126723519Y-106276550D01*
X126718303Y-106255726D01*
X126715153Y-106234491D01*
X126714100Y-106213050D01*
X126714100Y-105775550D01*
X126715153Y-105754109D01*
X126718303Y-105732874D01*
X126723519Y-105712050D01*
X126730751Y-105691838D01*
X126739930Y-105672432D01*
X126750966Y-105654019D01*
X126763754Y-105636776D01*
X126778170Y-105620870D01*
X126794076Y-105606454D01*
X126811319Y-105593666D01*
X126829732Y-105582630D01*
X126849138Y-105573451D01*
X126869350Y-105566219D01*
X126890174Y-105561003D01*
X126911409Y-105557853D01*
X126932850Y-105556800D01*
X127445350Y-105556800D01*
X127466791Y-105557853D01*
X127466791Y-105557853D01*
G37*
D11*
X127189100Y-105994300D03*
D10*
G36*
X127466791Y-103982853D02*
G01*
X127488026Y-103986003D01*
X127508850Y-103991219D01*
X127529062Y-103998451D01*
X127548468Y-104007630D01*
X127566881Y-104018666D01*
X127584124Y-104031454D01*
X127600030Y-104045870D01*
X127614446Y-104061776D01*
X127627234Y-104079019D01*
X127638270Y-104097432D01*
X127647449Y-104116838D01*
X127654681Y-104137050D01*
X127659897Y-104157874D01*
X127663047Y-104179109D01*
X127664100Y-104200550D01*
X127664100Y-104638050D01*
X127663047Y-104659491D01*
X127659897Y-104680726D01*
X127654681Y-104701550D01*
X127647449Y-104721762D01*
X127638270Y-104741168D01*
X127627234Y-104759581D01*
X127614446Y-104776824D01*
X127600030Y-104792730D01*
X127584124Y-104807146D01*
X127566881Y-104819934D01*
X127548468Y-104830970D01*
X127529062Y-104840149D01*
X127508850Y-104847381D01*
X127488026Y-104852597D01*
X127466791Y-104855747D01*
X127445350Y-104856800D01*
X126932850Y-104856800D01*
X126911409Y-104855747D01*
X126890174Y-104852597D01*
X126869350Y-104847381D01*
X126849138Y-104840149D01*
X126829732Y-104830970D01*
X126811319Y-104819934D01*
X126794076Y-104807146D01*
X126778170Y-104792730D01*
X126763754Y-104776824D01*
X126750966Y-104759581D01*
X126739930Y-104741168D01*
X126730751Y-104721762D01*
X126723519Y-104701550D01*
X126718303Y-104680726D01*
X126715153Y-104659491D01*
X126714100Y-104638050D01*
X126714100Y-104200550D01*
X126715153Y-104179109D01*
X126718303Y-104157874D01*
X126723519Y-104137050D01*
X126730751Y-104116838D01*
X126739930Y-104097432D01*
X126750966Y-104079019D01*
X126763754Y-104061776D01*
X126778170Y-104045870D01*
X126794076Y-104031454D01*
X126811319Y-104018666D01*
X126829732Y-104007630D01*
X126849138Y-103998451D01*
X126869350Y-103991219D01*
X126890174Y-103986003D01*
X126911409Y-103982853D01*
X126932850Y-103981800D01*
X127445350Y-103981800D01*
X127466791Y-103982853D01*
X127466791Y-103982853D01*
G37*
D11*
X127189100Y-104419300D03*
D10*
G36*
X152466791Y-105551053D02*
G01*
X152488026Y-105554203D01*
X152508850Y-105559419D01*
X152529062Y-105566651D01*
X152548468Y-105575830D01*
X152566881Y-105586866D01*
X152584124Y-105599654D01*
X152600030Y-105614070D01*
X152614446Y-105629976D01*
X152627234Y-105647219D01*
X152638270Y-105665632D01*
X152647449Y-105685038D01*
X152654681Y-105705250D01*
X152659897Y-105726074D01*
X152663047Y-105747309D01*
X152664100Y-105768750D01*
X152664100Y-106206250D01*
X152663047Y-106227691D01*
X152659897Y-106248926D01*
X152654681Y-106269750D01*
X152647449Y-106289962D01*
X152638270Y-106309368D01*
X152627234Y-106327781D01*
X152614446Y-106345024D01*
X152600030Y-106360930D01*
X152584124Y-106375346D01*
X152566881Y-106388134D01*
X152548468Y-106399170D01*
X152529062Y-106408349D01*
X152508850Y-106415581D01*
X152488026Y-106420797D01*
X152466791Y-106423947D01*
X152445350Y-106425000D01*
X151932850Y-106425000D01*
X151911409Y-106423947D01*
X151890174Y-106420797D01*
X151869350Y-106415581D01*
X151849138Y-106408349D01*
X151829732Y-106399170D01*
X151811319Y-106388134D01*
X151794076Y-106375346D01*
X151778170Y-106360930D01*
X151763754Y-106345024D01*
X151750966Y-106327781D01*
X151739930Y-106309368D01*
X151730751Y-106289962D01*
X151723519Y-106269750D01*
X151718303Y-106248926D01*
X151715153Y-106227691D01*
X151714100Y-106206250D01*
X151714100Y-105768750D01*
X151715153Y-105747309D01*
X151718303Y-105726074D01*
X151723519Y-105705250D01*
X151730751Y-105685038D01*
X151739930Y-105665632D01*
X151750966Y-105647219D01*
X151763754Y-105629976D01*
X151778170Y-105614070D01*
X151794076Y-105599654D01*
X151811319Y-105586866D01*
X151829732Y-105575830D01*
X151849138Y-105566651D01*
X151869350Y-105559419D01*
X151890174Y-105554203D01*
X151911409Y-105551053D01*
X151932850Y-105550000D01*
X152445350Y-105550000D01*
X152466791Y-105551053D01*
X152466791Y-105551053D01*
G37*
D11*
X152189100Y-105987500D03*
D10*
G36*
X152466791Y-103976053D02*
G01*
X152488026Y-103979203D01*
X152508850Y-103984419D01*
X152529062Y-103991651D01*
X152548468Y-104000830D01*
X152566881Y-104011866D01*
X152584124Y-104024654D01*
X152600030Y-104039070D01*
X152614446Y-104054976D01*
X152627234Y-104072219D01*
X152638270Y-104090632D01*
X152647449Y-104110038D01*
X152654681Y-104130250D01*
X152659897Y-104151074D01*
X152663047Y-104172309D01*
X152664100Y-104193750D01*
X152664100Y-104631250D01*
X152663047Y-104652691D01*
X152659897Y-104673926D01*
X152654681Y-104694750D01*
X152647449Y-104714962D01*
X152638270Y-104734368D01*
X152627234Y-104752781D01*
X152614446Y-104770024D01*
X152600030Y-104785930D01*
X152584124Y-104800346D01*
X152566881Y-104813134D01*
X152548468Y-104824170D01*
X152529062Y-104833349D01*
X152508850Y-104840581D01*
X152488026Y-104845797D01*
X152466791Y-104848947D01*
X152445350Y-104850000D01*
X151932850Y-104850000D01*
X151911409Y-104848947D01*
X151890174Y-104845797D01*
X151869350Y-104840581D01*
X151849138Y-104833349D01*
X151829732Y-104824170D01*
X151811319Y-104813134D01*
X151794076Y-104800346D01*
X151778170Y-104785930D01*
X151763754Y-104770024D01*
X151750966Y-104752781D01*
X151739930Y-104734368D01*
X151730751Y-104714962D01*
X151723519Y-104694750D01*
X151718303Y-104673926D01*
X151715153Y-104652691D01*
X151714100Y-104631250D01*
X151714100Y-104193750D01*
X151715153Y-104172309D01*
X151718303Y-104151074D01*
X151723519Y-104130250D01*
X151730751Y-104110038D01*
X151739930Y-104090632D01*
X151750966Y-104072219D01*
X151763754Y-104054976D01*
X151778170Y-104039070D01*
X151794076Y-104024654D01*
X151811319Y-104011866D01*
X151829732Y-104000830D01*
X151849138Y-103991651D01*
X151869350Y-103984419D01*
X151890174Y-103979203D01*
X151911409Y-103976053D01*
X151932850Y-103975000D01*
X152445350Y-103975000D01*
X152466791Y-103976053D01*
X152466791Y-103976053D01*
G37*
D11*
X152189100Y-104412500D03*
D10*
G36*
X98080142Y-115551174D02*
G01*
X98103803Y-115554684D01*
X98127007Y-115560496D01*
X98149529Y-115568554D01*
X98171153Y-115578782D01*
X98191670Y-115591079D01*
X98210883Y-115605329D01*
X98228607Y-115621393D01*
X98244671Y-115639117D01*
X98258921Y-115658330D01*
X98271218Y-115678847D01*
X98281446Y-115700471D01*
X98289504Y-115722993D01*
X98295316Y-115746197D01*
X98298826Y-115769858D01*
X98300000Y-115793750D01*
X98300000Y-116281250D01*
X98298826Y-116305142D01*
X98295316Y-116328803D01*
X98289504Y-116352007D01*
X98281446Y-116374529D01*
X98271218Y-116396153D01*
X98258921Y-116416670D01*
X98244671Y-116435883D01*
X98228607Y-116453607D01*
X98210883Y-116469671D01*
X98191670Y-116483921D01*
X98171153Y-116496218D01*
X98149529Y-116506446D01*
X98127007Y-116514504D01*
X98103803Y-116520316D01*
X98080142Y-116523826D01*
X98056250Y-116525000D01*
X97143750Y-116525000D01*
X97119858Y-116523826D01*
X97096197Y-116520316D01*
X97072993Y-116514504D01*
X97050471Y-116506446D01*
X97028847Y-116496218D01*
X97008330Y-116483921D01*
X96989117Y-116469671D01*
X96971393Y-116453607D01*
X96955329Y-116435883D01*
X96941079Y-116416670D01*
X96928782Y-116396153D01*
X96918554Y-116374529D01*
X96910496Y-116352007D01*
X96904684Y-116328803D01*
X96901174Y-116305142D01*
X96900000Y-116281250D01*
X96900000Y-115793750D01*
X96901174Y-115769858D01*
X96904684Y-115746197D01*
X96910496Y-115722993D01*
X96918554Y-115700471D01*
X96928782Y-115678847D01*
X96941079Y-115658330D01*
X96955329Y-115639117D01*
X96971393Y-115621393D01*
X96989117Y-115605329D01*
X97008330Y-115591079D01*
X97028847Y-115578782D01*
X97050471Y-115568554D01*
X97072993Y-115560496D01*
X97096197Y-115554684D01*
X97119858Y-115551174D01*
X97143750Y-115550000D01*
X98056250Y-115550000D01*
X98080142Y-115551174D01*
X98080142Y-115551174D01*
G37*
D16*
X97600000Y-116037500D03*
D10*
G36*
X98080142Y-113676174D02*
G01*
X98103803Y-113679684D01*
X98127007Y-113685496D01*
X98149529Y-113693554D01*
X98171153Y-113703782D01*
X98191670Y-113716079D01*
X98210883Y-113730329D01*
X98228607Y-113746393D01*
X98244671Y-113764117D01*
X98258921Y-113783330D01*
X98271218Y-113803847D01*
X98281446Y-113825471D01*
X98289504Y-113847993D01*
X98295316Y-113871197D01*
X98298826Y-113894858D01*
X98300000Y-113918750D01*
X98300000Y-114406250D01*
X98298826Y-114430142D01*
X98295316Y-114453803D01*
X98289504Y-114477007D01*
X98281446Y-114499529D01*
X98271218Y-114521153D01*
X98258921Y-114541670D01*
X98244671Y-114560883D01*
X98228607Y-114578607D01*
X98210883Y-114594671D01*
X98191670Y-114608921D01*
X98171153Y-114621218D01*
X98149529Y-114631446D01*
X98127007Y-114639504D01*
X98103803Y-114645316D01*
X98080142Y-114648826D01*
X98056250Y-114650000D01*
X97143750Y-114650000D01*
X97119858Y-114648826D01*
X97096197Y-114645316D01*
X97072993Y-114639504D01*
X97050471Y-114631446D01*
X97028847Y-114621218D01*
X97008330Y-114608921D01*
X96989117Y-114594671D01*
X96971393Y-114578607D01*
X96955329Y-114560883D01*
X96941079Y-114541670D01*
X96928782Y-114521153D01*
X96918554Y-114499529D01*
X96910496Y-114477007D01*
X96904684Y-114453803D01*
X96901174Y-114430142D01*
X96900000Y-114406250D01*
X96900000Y-113918750D01*
X96901174Y-113894858D01*
X96904684Y-113871197D01*
X96910496Y-113847993D01*
X96918554Y-113825471D01*
X96928782Y-113803847D01*
X96941079Y-113783330D01*
X96955329Y-113764117D01*
X96971393Y-113746393D01*
X96989117Y-113730329D01*
X97008330Y-113716079D01*
X97028847Y-113703782D01*
X97050471Y-113693554D01*
X97072993Y-113685496D01*
X97096197Y-113679684D01*
X97119858Y-113676174D01*
X97143750Y-113675000D01*
X98056250Y-113675000D01*
X98080142Y-113676174D01*
X98080142Y-113676174D01*
G37*
D16*
X97600000Y-114162500D03*
D10*
G36*
X123080142Y-115551174D02*
G01*
X123103803Y-115554684D01*
X123127007Y-115560496D01*
X123149529Y-115568554D01*
X123171153Y-115578782D01*
X123191670Y-115591079D01*
X123210883Y-115605329D01*
X123228607Y-115621393D01*
X123244671Y-115639117D01*
X123258921Y-115658330D01*
X123271218Y-115678847D01*
X123281446Y-115700471D01*
X123289504Y-115722993D01*
X123295316Y-115746197D01*
X123298826Y-115769858D01*
X123300000Y-115793750D01*
X123300000Y-116281250D01*
X123298826Y-116305142D01*
X123295316Y-116328803D01*
X123289504Y-116352007D01*
X123281446Y-116374529D01*
X123271218Y-116396153D01*
X123258921Y-116416670D01*
X123244671Y-116435883D01*
X123228607Y-116453607D01*
X123210883Y-116469671D01*
X123191670Y-116483921D01*
X123171153Y-116496218D01*
X123149529Y-116506446D01*
X123127007Y-116514504D01*
X123103803Y-116520316D01*
X123080142Y-116523826D01*
X123056250Y-116525000D01*
X122143750Y-116525000D01*
X122119858Y-116523826D01*
X122096197Y-116520316D01*
X122072993Y-116514504D01*
X122050471Y-116506446D01*
X122028847Y-116496218D01*
X122008330Y-116483921D01*
X121989117Y-116469671D01*
X121971393Y-116453607D01*
X121955329Y-116435883D01*
X121941079Y-116416670D01*
X121928782Y-116396153D01*
X121918554Y-116374529D01*
X121910496Y-116352007D01*
X121904684Y-116328803D01*
X121901174Y-116305142D01*
X121900000Y-116281250D01*
X121900000Y-115793750D01*
X121901174Y-115769858D01*
X121904684Y-115746197D01*
X121910496Y-115722993D01*
X121918554Y-115700471D01*
X121928782Y-115678847D01*
X121941079Y-115658330D01*
X121955329Y-115639117D01*
X121971393Y-115621393D01*
X121989117Y-115605329D01*
X122008330Y-115591079D01*
X122028847Y-115578782D01*
X122050471Y-115568554D01*
X122072993Y-115560496D01*
X122096197Y-115554684D01*
X122119858Y-115551174D01*
X122143750Y-115550000D01*
X123056250Y-115550000D01*
X123080142Y-115551174D01*
X123080142Y-115551174D01*
G37*
D16*
X122600000Y-116037500D03*
D10*
G36*
X123080142Y-113676174D02*
G01*
X123103803Y-113679684D01*
X123127007Y-113685496D01*
X123149529Y-113693554D01*
X123171153Y-113703782D01*
X123191670Y-113716079D01*
X123210883Y-113730329D01*
X123228607Y-113746393D01*
X123244671Y-113764117D01*
X123258921Y-113783330D01*
X123271218Y-113803847D01*
X123281446Y-113825471D01*
X123289504Y-113847993D01*
X123295316Y-113871197D01*
X123298826Y-113894858D01*
X123300000Y-113918750D01*
X123300000Y-114406250D01*
X123298826Y-114430142D01*
X123295316Y-114453803D01*
X123289504Y-114477007D01*
X123281446Y-114499529D01*
X123271218Y-114521153D01*
X123258921Y-114541670D01*
X123244671Y-114560883D01*
X123228607Y-114578607D01*
X123210883Y-114594671D01*
X123191670Y-114608921D01*
X123171153Y-114621218D01*
X123149529Y-114631446D01*
X123127007Y-114639504D01*
X123103803Y-114645316D01*
X123080142Y-114648826D01*
X123056250Y-114650000D01*
X122143750Y-114650000D01*
X122119858Y-114648826D01*
X122096197Y-114645316D01*
X122072993Y-114639504D01*
X122050471Y-114631446D01*
X122028847Y-114621218D01*
X122008330Y-114608921D01*
X121989117Y-114594671D01*
X121971393Y-114578607D01*
X121955329Y-114560883D01*
X121941079Y-114541670D01*
X121928782Y-114521153D01*
X121918554Y-114499529D01*
X121910496Y-114477007D01*
X121904684Y-114453803D01*
X121901174Y-114430142D01*
X121900000Y-114406250D01*
X121900000Y-113918750D01*
X121901174Y-113894858D01*
X121904684Y-113871197D01*
X121910496Y-113847993D01*
X121918554Y-113825471D01*
X121928782Y-113803847D01*
X121941079Y-113783330D01*
X121955329Y-113764117D01*
X121971393Y-113746393D01*
X121989117Y-113730329D01*
X122008330Y-113716079D01*
X122028847Y-113703782D01*
X122050471Y-113693554D01*
X122072993Y-113685496D01*
X122096197Y-113679684D01*
X122119858Y-113676174D01*
X122143750Y-113675000D01*
X123056250Y-113675000D01*
X123080142Y-113676174D01*
X123080142Y-113676174D01*
G37*
D16*
X122600000Y-114162500D03*
D10*
G36*
X148080142Y-115551174D02*
G01*
X148103803Y-115554684D01*
X148127007Y-115560496D01*
X148149529Y-115568554D01*
X148171153Y-115578782D01*
X148191670Y-115591079D01*
X148210883Y-115605329D01*
X148228607Y-115621393D01*
X148244671Y-115639117D01*
X148258921Y-115658330D01*
X148271218Y-115678847D01*
X148281446Y-115700471D01*
X148289504Y-115722993D01*
X148295316Y-115746197D01*
X148298826Y-115769858D01*
X148300000Y-115793750D01*
X148300000Y-116281250D01*
X148298826Y-116305142D01*
X148295316Y-116328803D01*
X148289504Y-116352007D01*
X148281446Y-116374529D01*
X148271218Y-116396153D01*
X148258921Y-116416670D01*
X148244671Y-116435883D01*
X148228607Y-116453607D01*
X148210883Y-116469671D01*
X148191670Y-116483921D01*
X148171153Y-116496218D01*
X148149529Y-116506446D01*
X148127007Y-116514504D01*
X148103803Y-116520316D01*
X148080142Y-116523826D01*
X148056250Y-116525000D01*
X147143750Y-116525000D01*
X147119858Y-116523826D01*
X147096197Y-116520316D01*
X147072993Y-116514504D01*
X147050471Y-116506446D01*
X147028847Y-116496218D01*
X147008330Y-116483921D01*
X146989117Y-116469671D01*
X146971393Y-116453607D01*
X146955329Y-116435883D01*
X146941079Y-116416670D01*
X146928782Y-116396153D01*
X146918554Y-116374529D01*
X146910496Y-116352007D01*
X146904684Y-116328803D01*
X146901174Y-116305142D01*
X146900000Y-116281250D01*
X146900000Y-115793750D01*
X146901174Y-115769858D01*
X146904684Y-115746197D01*
X146910496Y-115722993D01*
X146918554Y-115700471D01*
X146928782Y-115678847D01*
X146941079Y-115658330D01*
X146955329Y-115639117D01*
X146971393Y-115621393D01*
X146989117Y-115605329D01*
X147008330Y-115591079D01*
X147028847Y-115578782D01*
X147050471Y-115568554D01*
X147072993Y-115560496D01*
X147096197Y-115554684D01*
X147119858Y-115551174D01*
X147143750Y-115550000D01*
X148056250Y-115550000D01*
X148080142Y-115551174D01*
X148080142Y-115551174D01*
G37*
D16*
X147600000Y-116037500D03*
D10*
G36*
X148080142Y-113676174D02*
G01*
X148103803Y-113679684D01*
X148127007Y-113685496D01*
X148149529Y-113693554D01*
X148171153Y-113703782D01*
X148191670Y-113716079D01*
X148210883Y-113730329D01*
X148228607Y-113746393D01*
X148244671Y-113764117D01*
X148258921Y-113783330D01*
X148271218Y-113803847D01*
X148281446Y-113825471D01*
X148289504Y-113847993D01*
X148295316Y-113871197D01*
X148298826Y-113894858D01*
X148300000Y-113918750D01*
X148300000Y-114406250D01*
X148298826Y-114430142D01*
X148295316Y-114453803D01*
X148289504Y-114477007D01*
X148281446Y-114499529D01*
X148271218Y-114521153D01*
X148258921Y-114541670D01*
X148244671Y-114560883D01*
X148228607Y-114578607D01*
X148210883Y-114594671D01*
X148191670Y-114608921D01*
X148171153Y-114621218D01*
X148149529Y-114631446D01*
X148127007Y-114639504D01*
X148103803Y-114645316D01*
X148080142Y-114648826D01*
X148056250Y-114650000D01*
X147143750Y-114650000D01*
X147119858Y-114648826D01*
X147096197Y-114645316D01*
X147072993Y-114639504D01*
X147050471Y-114631446D01*
X147028847Y-114621218D01*
X147008330Y-114608921D01*
X146989117Y-114594671D01*
X146971393Y-114578607D01*
X146955329Y-114560883D01*
X146941079Y-114541670D01*
X146928782Y-114521153D01*
X146918554Y-114499529D01*
X146910496Y-114477007D01*
X146904684Y-114453803D01*
X146901174Y-114430142D01*
X146900000Y-114406250D01*
X146900000Y-113918750D01*
X146901174Y-113894858D01*
X146904684Y-113871197D01*
X146910496Y-113847993D01*
X146918554Y-113825471D01*
X146928782Y-113803847D01*
X146941079Y-113783330D01*
X146955329Y-113764117D01*
X146971393Y-113746393D01*
X146989117Y-113730329D01*
X147008330Y-113716079D01*
X147028847Y-113703782D01*
X147050471Y-113693554D01*
X147072993Y-113685496D01*
X147096197Y-113679684D01*
X147119858Y-113676174D01*
X147143750Y-113675000D01*
X148056250Y-113675000D01*
X148080142Y-113676174D01*
X148080142Y-113676174D01*
G37*
D16*
X147600000Y-114162500D03*
D10*
G36*
X100853891Y-105557853D02*
G01*
X100875126Y-105561003D01*
X100895950Y-105566219D01*
X100916162Y-105573451D01*
X100935568Y-105582630D01*
X100953981Y-105593666D01*
X100971224Y-105606454D01*
X100987130Y-105620870D01*
X101001546Y-105636776D01*
X101014334Y-105654019D01*
X101025370Y-105672432D01*
X101034549Y-105691838D01*
X101041781Y-105712050D01*
X101046997Y-105732874D01*
X101050147Y-105754109D01*
X101051200Y-105775550D01*
X101051200Y-106213050D01*
X101050147Y-106234491D01*
X101046997Y-106255726D01*
X101041781Y-106276550D01*
X101034549Y-106296762D01*
X101025370Y-106316168D01*
X101014334Y-106334581D01*
X101001546Y-106351824D01*
X100987130Y-106367730D01*
X100971224Y-106382146D01*
X100953981Y-106394934D01*
X100935568Y-106405970D01*
X100916162Y-106415149D01*
X100895950Y-106422381D01*
X100875126Y-106427597D01*
X100853891Y-106430747D01*
X100832450Y-106431800D01*
X100319950Y-106431800D01*
X100298509Y-106430747D01*
X100277274Y-106427597D01*
X100256450Y-106422381D01*
X100236238Y-106415149D01*
X100216832Y-106405970D01*
X100198419Y-106394934D01*
X100181176Y-106382146D01*
X100165270Y-106367730D01*
X100150854Y-106351824D01*
X100138066Y-106334581D01*
X100127030Y-106316168D01*
X100117851Y-106296762D01*
X100110619Y-106276550D01*
X100105403Y-106255726D01*
X100102253Y-106234491D01*
X100101200Y-106213050D01*
X100101200Y-105775550D01*
X100102253Y-105754109D01*
X100105403Y-105732874D01*
X100110619Y-105712050D01*
X100117851Y-105691838D01*
X100127030Y-105672432D01*
X100138066Y-105654019D01*
X100150854Y-105636776D01*
X100165270Y-105620870D01*
X100181176Y-105606454D01*
X100198419Y-105593666D01*
X100216832Y-105582630D01*
X100236238Y-105573451D01*
X100256450Y-105566219D01*
X100277274Y-105561003D01*
X100298509Y-105557853D01*
X100319950Y-105556800D01*
X100832450Y-105556800D01*
X100853891Y-105557853D01*
X100853891Y-105557853D01*
G37*
D11*
X100576200Y-105994300D03*
D10*
G36*
X100853891Y-103982853D02*
G01*
X100875126Y-103986003D01*
X100895950Y-103991219D01*
X100916162Y-103998451D01*
X100935568Y-104007630D01*
X100953981Y-104018666D01*
X100971224Y-104031454D01*
X100987130Y-104045870D01*
X101001546Y-104061776D01*
X101014334Y-104079019D01*
X101025370Y-104097432D01*
X101034549Y-104116838D01*
X101041781Y-104137050D01*
X101046997Y-104157874D01*
X101050147Y-104179109D01*
X101051200Y-104200550D01*
X101051200Y-104638050D01*
X101050147Y-104659491D01*
X101046997Y-104680726D01*
X101041781Y-104701550D01*
X101034549Y-104721762D01*
X101025370Y-104741168D01*
X101014334Y-104759581D01*
X101001546Y-104776824D01*
X100987130Y-104792730D01*
X100971224Y-104807146D01*
X100953981Y-104819934D01*
X100935568Y-104830970D01*
X100916162Y-104840149D01*
X100895950Y-104847381D01*
X100875126Y-104852597D01*
X100853891Y-104855747D01*
X100832450Y-104856800D01*
X100319950Y-104856800D01*
X100298509Y-104855747D01*
X100277274Y-104852597D01*
X100256450Y-104847381D01*
X100236238Y-104840149D01*
X100216832Y-104830970D01*
X100198419Y-104819934D01*
X100181176Y-104807146D01*
X100165270Y-104792730D01*
X100150854Y-104776824D01*
X100138066Y-104759581D01*
X100127030Y-104741168D01*
X100117851Y-104721762D01*
X100110619Y-104701550D01*
X100105403Y-104680726D01*
X100102253Y-104659491D01*
X100101200Y-104638050D01*
X100101200Y-104200550D01*
X100102253Y-104179109D01*
X100105403Y-104157874D01*
X100110619Y-104137050D01*
X100117851Y-104116838D01*
X100127030Y-104097432D01*
X100138066Y-104079019D01*
X100150854Y-104061776D01*
X100165270Y-104045870D01*
X100181176Y-104031454D01*
X100198419Y-104018666D01*
X100216832Y-104007630D01*
X100236238Y-103998451D01*
X100256450Y-103991219D01*
X100277274Y-103986003D01*
X100298509Y-103982853D01*
X100319950Y-103981800D01*
X100832450Y-103981800D01*
X100853891Y-103982853D01*
X100853891Y-103982853D01*
G37*
D11*
X100576200Y-104419300D03*
D10*
G36*
X125853891Y-105557853D02*
G01*
X125875126Y-105561003D01*
X125895950Y-105566219D01*
X125916162Y-105573451D01*
X125935568Y-105582630D01*
X125953981Y-105593666D01*
X125971224Y-105606454D01*
X125987130Y-105620870D01*
X126001546Y-105636776D01*
X126014334Y-105654019D01*
X126025370Y-105672432D01*
X126034549Y-105691838D01*
X126041781Y-105712050D01*
X126046997Y-105732874D01*
X126050147Y-105754109D01*
X126051200Y-105775550D01*
X126051200Y-106213050D01*
X126050147Y-106234491D01*
X126046997Y-106255726D01*
X126041781Y-106276550D01*
X126034549Y-106296762D01*
X126025370Y-106316168D01*
X126014334Y-106334581D01*
X126001546Y-106351824D01*
X125987130Y-106367730D01*
X125971224Y-106382146D01*
X125953981Y-106394934D01*
X125935568Y-106405970D01*
X125916162Y-106415149D01*
X125895950Y-106422381D01*
X125875126Y-106427597D01*
X125853891Y-106430747D01*
X125832450Y-106431800D01*
X125319950Y-106431800D01*
X125298509Y-106430747D01*
X125277274Y-106427597D01*
X125256450Y-106422381D01*
X125236238Y-106415149D01*
X125216832Y-106405970D01*
X125198419Y-106394934D01*
X125181176Y-106382146D01*
X125165270Y-106367730D01*
X125150854Y-106351824D01*
X125138066Y-106334581D01*
X125127030Y-106316168D01*
X125117851Y-106296762D01*
X125110619Y-106276550D01*
X125105403Y-106255726D01*
X125102253Y-106234491D01*
X125101200Y-106213050D01*
X125101200Y-105775550D01*
X125102253Y-105754109D01*
X125105403Y-105732874D01*
X125110619Y-105712050D01*
X125117851Y-105691838D01*
X125127030Y-105672432D01*
X125138066Y-105654019D01*
X125150854Y-105636776D01*
X125165270Y-105620870D01*
X125181176Y-105606454D01*
X125198419Y-105593666D01*
X125216832Y-105582630D01*
X125236238Y-105573451D01*
X125256450Y-105566219D01*
X125277274Y-105561003D01*
X125298509Y-105557853D01*
X125319950Y-105556800D01*
X125832450Y-105556800D01*
X125853891Y-105557853D01*
X125853891Y-105557853D01*
G37*
D11*
X125576200Y-105994300D03*
D10*
G36*
X125853891Y-103982853D02*
G01*
X125875126Y-103986003D01*
X125895950Y-103991219D01*
X125916162Y-103998451D01*
X125935568Y-104007630D01*
X125953981Y-104018666D01*
X125971224Y-104031454D01*
X125987130Y-104045870D01*
X126001546Y-104061776D01*
X126014334Y-104079019D01*
X126025370Y-104097432D01*
X126034549Y-104116838D01*
X126041781Y-104137050D01*
X126046997Y-104157874D01*
X126050147Y-104179109D01*
X126051200Y-104200550D01*
X126051200Y-104638050D01*
X126050147Y-104659491D01*
X126046997Y-104680726D01*
X126041781Y-104701550D01*
X126034549Y-104721762D01*
X126025370Y-104741168D01*
X126014334Y-104759581D01*
X126001546Y-104776824D01*
X125987130Y-104792730D01*
X125971224Y-104807146D01*
X125953981Y-104819934D01*
X125935568Y-104830970D01*
X125916162Y-104840149D01*
X125895950Y-104847381D01*
X125875126Y-104852597D01*
X125853891Y-104855747D01*
X125832450Y-104856800D01*
X125319950Y-104856800D01*
X125298509Y-104855747D01*
X125277274Y-104852597D01*
X125256450Y-104847381D01*
X125236238Y-104840149D01*
X125216832Y-104830970D01*
X125198419Y-104819934D01*
X125181176Y-104807146D01*
X125165270Y-104792730D01*
X125150854Y-104776824D01*
X125138066Y-104759581D01*
X125127030Y-104741168D01*
X125117851Y-104721762D01*
X125110619Y-104701550D01*
X125105403Y-104680726D01*
X125102253Y-104659491D01*
X125101200Y-104638050D01*
X125101200Y-104200550D01*
X125102253Y-104179109D01*
X125105403Y-104157874D01*
X125110619Y-104137050D01*
X125117851Y-104116838D01*
X125127030Y-104097432D01*
X125138066Y-104079019D01*
X125150854Y-104061776D01*
X125165270Y-104045870D01*
X125181176Y-104031454D01*
X125198419Y-104018666D01*
X125216832Y-104007630D01*
X125236238Y-103998451D01*
X125256450Y-103991219D01*
X125277274Y-103986003D01*
X125298509Y-103982853D01*
X125319950Y-103981800D01*
X125832450Y-103981800D01*
X125853891Y-103982853D01*
X125853891Y-103982853D01*
G37*
D11*
X125576200Y-104419300D03*
D10*
G36*
X150853891Y-105551053D02*
G01*
X150875126Y-105554203D01*
X150895950Y-105559419D01*
X150916162Y-105566651D01*
X150935568Y-105575830D01*
X150953981Y-105586866D01*
X150971224Y-105599654D01*
X150987130Y-105614070D01*
X151001546Y-105629976D01*
X151014334Y-105647219D01*
X151025370Y-105665632D01*
X151034549Y-105685038D01*
X151041781Y-105705250D01*
X151046997Y-105726074D01*
X151050147Y-105747309D01*
X151051200Y-105768750D01*
X151051200Y-106206250D01*
X151050147Y-106227691D01*
X151046997Y-106248926D01*
X151041781Y-106269750D01*
X151034549Y-106289962D01*
X151025370Y-106309368D01*
X151014334Y-106327781D01*
X151001546Y-106345024D01*
X150987130Y-106360930D01*
X150971224Y-106375346D01*
X150953981Y-106388134D01*
X150935568Y-106399170D01*
X150916162Y-106408349D01*
X150895950Y-106415581D01*
X150875126Y-106420797D01*
X150853891Y-106423947D01*
X150832450Y-106425000D01*
X150319950Y-106425000D01*
X150298509Y-106423947D01*
X150277274Y-106420797D01*
X150256450Y-106415581D01*
X150236238Y-106408349D01*
X150216832Y-106399170D01*
X150198419Y-106388134D01*
X150181176Y-106375346D01*
X150165270Y-106360930D01*
X150150854Y-106345024D01*
X150138066Y-106327781D01*
X150127030Y-106309368D01*
X150117851Y-106289962D01*
X150110619Y-106269750D01*
X150105403Y-106248926D01*
X150102253Y-106227691D01*
X150101200Y-106206250D01*
X150101200Y-105768750D01*
X150102253Y-105747309D01*
X150105403Y-105726074D01*
X150110619Y-105705250D01*
X150117851Y-105685038D01*
X150127030Y-105665632D01*
X150138066Y-105647219D01*
X150150854Y-105629976D01*
X150165270Y-105614070D01*
X150181176Y-105599654D01*
X150198419Y-105586866D01*
X150216832Y-105575830D01*
X150236238Y-105566651D01*
X150256450Y-105559419D01*
X150277274Y-105554203D01*
X150298509Y-105551053D01*
X150319950Y-105550000D01*
X150832450Y-105550000D01*
X150853891Y-105551053D01*
X150853891Y-105551053D01*
G37*
D11*
X150576200Y-105987500D03*
D10*
G36*
X150853891Y-103976053D02*
G01*
X150875126Y-103979203D01*
X150895950Y-103984419D01*
X150916162Y-103991651D01*
X150935568Y-104000830D01*
X150953981Y-104011866D01*
X150971224Y-104024654D01*
X150987130Y-104039070D01*
X151001546Y-104054976D01*
X151014334Y-104072219D01*
X151025370Y-104090632D01*
X151034549Y-104110038D01*
X151041781Y-104130250D01*
X151046997Y-104151074D01*
X151050147Y-104172309D01*
X151051200Y-104193750D01*
X151051200Y-104631250D01*
X151050147Y-104652691D01*
X151046997Y-104673926D01*
X151041781Y-104694750D01*
X151034549Y-104714962D01*
X151025370Y-104734368D01*
X151014334Y-104752781D01*
X151001546Y-104770024D01*
X150987130Y-104785930D01*
X150971224Y-104800346D01*
X150953981Y-104813134D01*
X150935568Y-104824170D01*
X150916162Y-104833349D01*
X150895950Y-104840581D01*
X150875126Y-104845797D01*
X150853891Y-104848947D01*
X150832450Y-104850000D01*
X150319950Y-104850000D01*
X150298509Y-104848947D01*
X150277274Y-104845797D01*
X150256450Y-104840581D01*
X150236238Y-104833349D01*
X150216832Y-104824170D01*
X150198419Y-104813134D01*
X150181176Y-104800346D01*
X150165270Y-104785930D01*
X150150854Y-104770024D01*
X150138066Y-104752781D01*
X150127030Y-104734368D01*
X150117851Y-104714962D01*
X150110619Y-104694750D01*
X150105403Y-104673926D01*
X150102253Y-104652691D01*
X150101200Y-104631250D01*
X150101200Y-104193750D01*
X150102253Y-104172309D01*
X150105403Y-104151074D01*
X150110619Y-104130250D01*
X150117851Y-104110038D01*
X150127030Y-104090632D01*
X150138066Y-104072219D01*
X150150854Y-104054976D01*
X150165270Y-104039070D01*
X150181176Y-104024654D01*
X150198419Y-104011866D01*
X150216832Y-104000830D01*
X150236238Y-103991651D01*
X150256450Y-103984419D01*
X150277274Y-103979203D01*
X150298509Y-103976053D01*
X150319950Y-103975000D01*
X150832450Y-103975000D01*
X150853891Y-103976053D01*
X150853891Y-103976053D01*
G37*
D11*
X150576200Y-104412500D03*
D10*
G36*
X106888742Y-112501174D02*
G01*
X106912403Y-112504684D01*
X106935607Y-112510496D01*
X106958129Y-112518554D01*
X106979753Y-112528782D01*
X107000270Y-112541079D01*
X107019483Y-112555329D01*
X107037207Y-112571393D01*
X107053271Y-112589117D01*
X107067521Y-112608330D01*
X107079818Y-112628847D01*
X107090046Y-112650471D01*
X107098104Y-112672993D01*
X107103916Y-112696197D01*
X107107426Y-112719858D01*
X107108600Y-112743750D01*
X107108600Y-113656250D01*
X107107426Y-113680142D01*
X107103916Y-113703803D01*
X107098104Y-113727007D01*
X107090046Y-113749529D01*
X107079818Y-113771153D01*
X107067521Y-113791670D01*
X107053271Y-113810883D01*
X107037207Y-113828607D01*
X107019483Y-113844671D01*
X107000270Y-113858921D01*
X106979753Y-113871218D01*
X106958129Y-113881446D01*
X106935607Y-113889504D01*
X106912403Y-113895316D01*
X106888742Y-113898826D01*
X106864850Y-113900000D01*
X106377350Y-113900000D01*
X106353458Y-113898826D01*
X106329797Y-113895316D01*
X106306593Y-113889504D01*
X106284071Y-113881446D01*
X106262447Y-113871218D01*
X106241930Y-113858921D01*
X106222717Y-113844671D01*
X106204993Y-113828607D01*
X106188929Y-113810883D01*
X106174679Y-113791670D01*
X106162382Y-113771153D01*
X106152154Y-113749529D01*
X106144096Y-113727007D01*
X106138284Y-113703803D01*
X106134774Y-113680142D01*
X106133600Y-113656250D01*
X106133600Y-112743750D01*
X106134774Y-112719858D01*
X106138284Y-112696197D01*
X106144096Y-112672993D01*
X106152154Y-112650471D01*
X106162382Y-112628847D01*
X106174679Y-112608330D01*
X106188929Y-112589117D01*
X106204993Y-112571393D01*
X106222717Y-112555329D01*
X106241930Y-112541079D01*
X106262447Y-112528782D01*
X106284071Y-112518554D01*
X106306593Y-112510496D01*
X106329797Y-112504684D01*
X106353458Y-112501174D01*
X106377350Y-112500000D01*
X106864850Y-112500000D01*
X106888742Y-112501174D01*
X106888742Y-112501174D01*
G37*
D16*
X106621100Y-113200000D03*
D10*
G36*
X108763742Y-112501174D02*
G01*
X108787403Y-112504684D01*
X108810607Y-112510496D01*
X108833129Y-112518554D01*
X108854753Y-112528782D01*
X108875270Y-112541079D01*
X108894483Y-112555329D01*
X108912207Y-112571393D01*
X108928271Y-112589117D01*
X108942521Y-112608330D01*
X108954818Y-112628847D01*
X108965046Y-112650471D01*
X108973104Y-112672993D01*
X108978916Y-112696197D01*
X108982426Y-112719858D01*
X108983600Y-112743750D01*
X108983600Y-113656250D01*
X108982426Y-113680142D01*
X108978916Y-113703803D01*
X108973104Y-113727007D01*
X108965046Y-113749529D01*
X108954818Y-113771153D01*
X108942521Y-113791670D01*
X108928271Y-113810883D01*
X108912207Y-113828607D01*
X108894483Y-113844671D01*
X108875270Y-113858921D01*
X108854753Y-113871218D01*
X108833129Y-113881446D01*
X108810607Y-113889504D01*
X108787403Y-113895316D01*
X108763742Y-113898826D01*
X108739850Y-113900000D01*
X108252350Y-113900000D01*
X108228458Y-113898826D01*
X108204797Y-113895316D01*
X108181593Y-113889504D01*
X108159071Y-113881446D01*
X108137447Y-113871218D01*
X108116930Y-113858921D01*
X108097717Y-113844671D01*
X108079993Y-113828607D01*
X108063929Y-113810883D01*
X108049679Y-113791670D01*
X108037382Y-113771153D01*
X108027154Y-113749529D01*
X108019096Y-113727007D01*
X108013284Y-113703803D01*
X108009774Y-113680142D01*
X108008600Y-113656250D01*
X108008600Y-112743750D01*
X108009774Y-112719858D01*
X108013284Y-112696197D01*
X108019096Y-112672993D01*
X108027154Y-112650471D01*
X108037382Y-112628847D01*
X108049679Y-112608330D01*
X108063929Y-112589117D01*
X108079993Y-112571393D01*
X108097717Y-112555329D01*
X108116930Y-112541079D01*
X108137447Y-112528782D01*
X108159071Y-112518554D01*
X108181593Y-112510496D01*
X108204797Y-112504684D01*
X108228458Y-112501174D01*
X108252350Y-112500000D01*
X108739850Y-112500000D01*
X108763742Y-112501174D01*
X108763742Y-112501174D01*
G37*
D16*
X108496100Y-113200000D03*
D10*
G36*
X131888742Y-112501174D02*
G01*
X131912403Y-112504684D01*
X131935607Y-112510496D01*
X131958129Y-112518554D01*
X131979753Y-112528782D01*
X132000270Y-112541079D01*
X132019483Y-112555329D01*
X132037207Y-112571393D01*
X132053271Y-112589117D01*
X132067521Y-112608330D01*
X132079818Y-112628847D01*
X132090046Y-112650471D01*
X132098104Y-112672993D01*
X132103916Y-112696197D01*
X132107426Y-112719858D01*
X132108600Y-112743750D01*
X132108600Y-113656250D01*
X132107426Y-113680142D01*
X132103916Y-113703803D01*
X132098104Y-113727007D01*
X132090046Y-113749529D01*
X132079818Y-113771153D01*
X132067521Y-113791670D01*
X132053271Y-113810883D01*
X132037207Y-113828607D01*
X132019483Y-113844671D01*
X132000270Y-113858921D01*
X131979753Y-113871218D01*
X131958129Y-113881446D01*
X131935607Y-113889504D01*
X131912403Y-113895316D01*
X131888742Y-113898826D01*
X131864850Y-113900000D01*
X131377350Y-113900000D01*
X131353458Y-113898826D01*
X131329797Y-113895316D01*
X131306593Y-113889504D01*
X131284071Y-113881446D01*
X131262447Y-113871218D01*
X131241930Y-113858921D01*
X131222717Y-113844671D01*
X131204993Y-113828607D01*
X131188929Y-113810883D01*
X131174679Y-113791670D01*
X131162382Y-113771153D01*
X131152154Y-113749529D01*
X131144096Y-113727007D01*
X131138284Y-113703803D01*
X131134774Y-113680142D01*
X131133600Y-113656250D01*
X131133600Y-112743750D01*
X131134774Y-112719858D01*
X131138284Y-112696197D01*
X131144096Y-112672993D01*
X131152154Y-112650471D01*
X131162382Y-112628847D01*
X131174679Y-112608330D01*
X131188929Y-112589117D01*
X131204993Y-112571393D01*
X131222717Y-112555329D01*
X131241930Y-112541079D01*
X131262447Y-112528782D01*
X131284071Y-112518554D01*
X131306593Y-112510496D01*
X131329797Y-112504684D01*
X131353458Y-112501174D01*
X131377350Y-112500000D01*
X131864850Y-112500000D01*
X131888742Y-112501174D01*
X131888742Y-112501174D01*
G37*
D16*
X131621100Y-113200000D03*
D10*
G36*
X133763742Y-112501174D02*
G01*
X133787403Y-112504684D01*
X133810607Y-112510496D01*
X133833129Y-112518554D01*
X133854753Y-112528782D01*
X133875270Y-112541079D01*
X133894483Y-112555329D01*
X133912207Y-112571393D01*
X133928271Y-112589117D01*
X133942521Y-112608330D01*
X133954818Y-112628847D01*
X133965046Y-112650471D01*
X133973104Y-112672993D01*
X133978916Y-112696197D01*
X133982426Y-112719858D01*
X133983600Y-112743750D01*
X133983600Y-113656250D01*
X133982426Y-113680142D01*
X133978916Y-113703803D01*
X133973104Y-113727007D01*
X133965046Y-113749529D01*
X133954818Y-113771153D01*
X133942521Y-113791670D01*
X133928271Y-113810883D01*
X133912207Y-113828607D01*
X133894483Y-113844671D01*
X133875270Y-113858921D01*
X133854753Y-113871218D01*
X133833129Y-113881446D01*
X133810607Y-113889504D01*
X133787403Y-113895316D01*
X133763742Y-113898826D01*
X133739850Y-113900000D01*
X133252350Y-113900000D01*
X133228458Y-113898826D01*
X133204797Y-113895316D01*
X133181593Y-113889504D01*
X133159071Y-113881446D01*
X133137447Y-113871218D01*
X133116930Y-113858921D01*
X133097717Y-113844671D01*
X133079993Y-113828607D01*
X133063929Y-113810883D01*
X133049679Y-113791670D01*
X133037382Y-113771153D01*
X133027154Y-113749529D01*
X133019096Y-113727007D01*
X133013284Y-113703803D01*
X133009774Y-113680142D01*
X133008600Y-113656250D01*
X133008600Y-112743750D01*
X133009774Y-112719858D01*
X133013284Y-112696197D01*
X133019096Y-112672993D01*
X133027154Y-112650471D01*
X133037382Y-112628847D01*
X133049679Y-112608330D01*
X133063929Y-112589117D01*
X133079993Y-112571393D01*
X133097717Y-112555329D01*
X133116930Y-112541079D01*
X133137447Y-112528782D01*
X133159071Y-112518554D01*
X133181593Y-112510496D01*
X133204797Y-112504684D01*
X133228458Y-112501174D01*
X133252350Y-112500000D01*
X133739850Y-112500000D01*
X133763742Y-112501174D01*
X133763742Y-112501174D01*
G37*
D16*
X133496100Y-113200000D03*
D10*
G36*
X156888742Y-112501174D02*
G01*
X156912403Y-112504684D01*
X156935607Y-112510496D01*
X156958129Y-112518554D01*
X156979753Y-112528782D01*
X157000270Y-112541079D01*
X157019483Y-112555329D01*
X157037207Y-112571393D01*
X157053271Y-112589117D01*
X157067521Y-112608330D01*
X157079818Y-112628847D01*
X157090046Y-112650471D01*
X157098104Y-112672993D01*
X157103916Y-112696197D01*
X157107426Y-112719858D01*
X157108600Y-112743750D01*
X157108600Y-113656250D01*
X157107426Y-113680142D01*
X157103916Y-113703803D01*
X157098104Y-113727007D01*
X157090046Y-113749529D01*
X157079818Y-113771153D01*
X157067521Y-113791670D01*
X157053271Y-113810883D01*
X157037207Y-113828607D01*
X157019483Y-113844671D01*
X157000270Y-113858921D01*
X156979753Y-113871218D01*
X156958129Y-113881446D01*
X156935607Y-113889504D01*
X156912403Y-113895316D01*
X156888742Y-113898826D01*
X156864850Y-113900000D01*
X156377350Y-113900000D01*
X156353458Y-113898826D01*
X156329797Y-113895316D01*
X156306593Y-113889504D01*
X156284071Y-113881446D01*
X156262447Y-113871218D01*
X156241930Y-113858921D01*
X156222717Y-113844671D01*
X156204993Y-113828607D01*
X156188929Y-113810883D01*
X156174679Y-113791670D01*
X156162382Y-113771153D01*
X156152154Y-113749529D01*
X156144096Y-113727007D01*
X156138284Y-113703803D01*
X156134774Y-113680142D01*
X156133600Y-113656250D01*
X156133600Y-112743750D01*
X156134774Y-112719858D01*
X156138284Y-112696197D01*
X156144096Y-112672993D01*
X156152154Y-112650471D01*
X156162382Y-112628847D01*
X156174679Y-112608330D01*
X156188929Y-112589117D01*
X156204993Y-112571393D01*
X156222717Y-112555329D01*
X156241930Y-112541079D01*
X156262447Y-112528782D01*
X156284071Y-112518554D01*
X156306593Y-112510496D01*
X156329797Y-112504684D01*
X156353458Y-112501174D01*
X156377350Y-112500000D01*
X156864850Y-112500000D01*
X156888742Y-112501174D01*
X156888742Y-112501174D01*
G37*
D16*
X156621100Y-113200000D03*
D10*
G36*
X158763742Y-112501174D02*
G01*
X158787403Y-112504684D01*
X158810607Y-112510496D01*
X158833129Y-112518554D01*
X158854753Y-112528782D01*
X158875270Y-112541079D01*
X158894483Y-112555329D01*
X158912207Y-112571393D01*
X158928271Y-112589117D01*
X158942521Y-112608330D01*
X158954818Y-112628847D01*
X158965046Y-112650471D01*
X158973104Y-112672993D01*
X158978916Y-112696197D01*
X158982426Y-112719858D01*
X158983600Y-112743750D01*
X158983600Y-113656250D01*
X158982426Y-113680142D01*
X158978916Y-113703803D01*
X158973104Y-113727007D01*
X158965046Y-113749529D01*
X158954818Y-113771153D01*
X158942521Y-113791670D01*
X158928271Y-113810883D01*
X158912207Y-113828607D01*
X158894483Y-113844671D01*
X158875270Y-113858921D01*
X158854753Y-113871218D01*
X158833129Y-113881446D01*
X158810607Y-113889504D01*
X158787403Y-113895316D01*
X158763742Y-113898826D01*
X158739850Y-113900000D01*
X158252350Y-113900000D01*
X158228458Y-113898826D01*
X158204797Y-113895316D01*
X158181593Y-113889504D01*
X158159071Y-113881446D01*
X158137447Y-113871218D01*
X158116930Y-113858921D01*
X158097717Y-113844671D01*
X158079993Y-113828607D01*
X158063929Y-113810883D01*
X158049679Y-113791670D01*
X158037382Y-113771153D01*
X158027154Y-113749529D01*
X158019096Y-113727007D01*
X158013284Y-113703803D01*
X158009774Y-113680142D01*
X158008600Y-113656250D01*
X158008600Y-112743750D01*
X158009774Y-112719858D01*
X158013284Y-112696197D01*
X158019096Y-112672993D01*
X158027154Y-112650471D01*
X158037382Y-112628847D01*
X158049679Y-112608330D01*
X158063929Y-112589117D01*
X158079993Y-112571393D01*
X158097717Y-112555329D01*
X158116930Y-112541079D01*
X158137447Y-112528782D01*
X158159071Y-112518554D01*
X158181593Y-112510496D01*
X158204797Y-112504684D01*
X158228458Y-112501174D01*
X158252350Y-112500000D01*
X158739850Y-112500000D01*
X158763742Y-112501174D01*
X158763742Y-112501174D01*
G37*
D16*
X158496100Y-113200000D03*
D10*
G36*
X104041591Y-105557853D02*
G01*
X104062826Y-105561003D01*
X104083650Y-105566219D01*
X104103862Y-105573451D01*
X104123268Y-105582630D01*
X104141681Y-105593666D01*
X104158924Y-105606454D01*
X104174830Y-105620870D01*
X104189246Y-105636776D01*
X104202034Y-105654019D01*
X104213070Y-105672432D01*
X104222249Y-105691838D01*
X104229481Y-105712050D01*
X104234697Y-105732874D01*
X104237847Y-105754109D01*
X104238900Y-105775550D01*
X104238900Y-106213050D01*
X104237847Y-106234491D01*
X104234697Y-106255726D01*
X104229481Y-106276550D01*
X104222249Y-106296762D01*
X104213070Y-106316168D01*
X104202034Y-106334581D01*
X104189246Y-106351824D01*
X104174830Y-106367730D01*
X104158924Y-106382146D01*
X104141681Y-106394934D01*
X104123268Y-106405970D01*
X104103862Y-106415149D01*
X104083650Y-106422381D01*
X104062826Y-106427597D01*
X104041591Y-106430747D01*
X104020150Y-106431800D01*
X103507650Y-106431800D01*
X103486209Y-106430747D01*
X103464974Y-106427597D01*
X103444150Y-106422381D01*
X103423938Y-106415149D01*
X103404532Y-106405970D01*
X103386119Y-106394934D01*
X103368876Y-106382146D01*
X103352970Y-106367730D01*
X103338554Y-106351824D01*
X103325766Y-106334581D01*
X103314730Y-106316168D01*
X103305551Y-106296762D01*
X103298319Y-106276550D01*
X103293103Y-106255726D01*
X103289953Y-106234491D01*
X103288900Y-106213050D01*
X103288900Y-105775550D01*
X103289953Y-105754109D01*
X103293103Y-105732874D01*
X103298319Y-105712050D01*
X103305551Y-105691838D01*
X103314730Y-105672432D01*
X103325766Y-105654019D01*
X103338554Y-105636776D01*
X103352970Y-105620870D01*
X103368876Y-105606454D01*
X103386119Y-105593666D01*
X103404532Y-105582630D01*
X103423938Y-105573451D01*
X103444150Y-105566219D01*
X103464974Y-105561003D01*
X103486209Y-105557853D01*
X103507650Y-105556800D01*
X104020150Y-105556800D01*
X104041591Y-105557853D01*
X104041591Y-105557853D01*
G37*
D11*
X103763900Y-105994300D03*
D10*
G36*
X104041591Y-103982853D02*
G01*
X104062826Y-103986003D01*
X104083650Y-103991219D01*
X104103862Y-103998451D01*
X104123268Y-104007630D01*
X104141681Y-104018666D01*
X104158924Y-104031454D01*
X104174830Y-104045870D01*
X104189246Y-104061776D01*
X104202034Y-104079019D01*
X104213070Y-104097432D01*
X104222249Y-104116838D01*
X104229481Y-104137050D01*
X104234697Y-104157874D01*
X104237847Y-104179109D01*
X104238900Y-104200550D01*
X104238900Y-104638050D01*
X104237847Y-104659491D01*
X104234697Y-104680726D01*
X104229481Y-104701550D01*
X104222249Y-104721762D01*
X104213070Y-104741168D01*
X104202034Y-104759581D01*
X104189246Y-104776824D01*
X104174830Y-104792730D01*
X104158924Y-104807146D01*
X104141681Y-104819934D01*
X104123268Y-104830970D01*
X104103862Y-104840149D01*
X104083650Y-104847381D01*
X104062826Y-104852597D01*
X104041591Y-104855747D01*
X104020150Y-104856800D01*
X103507650Y-104856800D01*
X103486209Y-104855747D01*
X103464974Y-104852597D01*
X103444150Y-104847381D01*
X103423938Y-104840149D01*
X103404532Y-104830970D01*
X103386119Y-104819934D01*
X103368876Y-104807146D01*
X103352970Y-104792730D01*
X103338554Y-104776824D01*
X103325766Y-104759581D01*
X103314730Y-104741168D01*
X103305551Y-104721762D01*
X103298319Y-104701550D01*
X103293103Y-104680726D01*
X103289953Y-104659491D01*
X103288900Y-104638050D01*
X103288900Y-104200550D01*
X103289953Y-104179109D01*
X103293103Y-104157874D01*
X103298319Y-104137050D01*
X103305551Y-104116838D01*
X103314730Y-104097432D01*
X103325766Y-104079019D01*
X103338554Y-104061776D01*
X103352970Y-104045870D01*
X103368876Y-104031454D01*
X103386119Y-104018666D01*
X103404532Y-104007630D01*
X103423938Y-103998451D01*
X103444150Y-103991219D01*
X103464974Y-103986003D01*
X103486209Y-103982853D01*
X103507650Y-103981800D01*
X104020150Y-103981800D01*
X104041591Y-103982853D01*
X104041591Y-103982853D01*
G37*
D11*
X103763900Y-104419300D03*
D10*
G36*
X129041591Y-105551053D02*
G01*
X129062826Y-105554203D01*
X129083650Y-105559419D01*
X129103862Y-105566651D01*
X129123268Y-105575830D01*
X129141681Y-105586866D01*
X129158924Y-105599654D01*
X129174830Y-105614070D01*
X129189246Y-105629976D01*
X129202034Y-105647219D01*
X129213070Y-105665632D01*
X129222249Y-105685038D01*
X129229481Y-105705250D01*
X129234697Y-105726074D01*
X129237847Y-105747309D01*
X129238900Y-105768750D01*
X129238900Y-106206250D01*
X129237847Y-106227691D01*
X129234697Y-106248926D01*
X129229481Y-106269750D01*
X129222249Y-106289962D01*
X129213070Y-106309368D01*
X129202034Y-106327781D01*
X129189246Y-106345024D01*
X129174830Y-106360930D01*
X129158924Y-106375346D01*
X129141681Y-106388134D01*
X129123268Y-106399170D01*
X129103862Y-106408349D01*
X129083650Y-106415581D01*
X129062826Y-106420797D01*
X129041591Y-106423947D01*
X129020150Y-106425000D01*
X128507650Y-106425000D01*
X128486209Y-106423947D01*
X128464974Y-106420797D01*
X128444150Y-106415581D01*
X128423938Y-106408349D01*
X128404532Y-106399170D01*
X128386119Y-106388134D01*
X128368876Y-106375346D01*
X128352970Y-106360930D01*
X128338554Y-106345024D01*
X128325766Y-106327781D01*
X128314730Y-106309368D01*
X128305551Y-106289962D01*
X128298319Y-106269750D01*
X128293103Y-106248926D01*
X128289953Y-106227691D01*
X128288900Y-106206250D01*
X128288900Y-105768750D01*
X128289953Y-105747309D01*
X128293103Y-105726074D01*
X128298319Y-105705250D01*
X128305551Y-105685038D01*
X128314730Y-105665632D01*
X128325766Y-105647219D01*
X128338554Y-105629976D01*
X128352970Y-105614070D01*
X128368876Y-105599654D01*
X128386119Y-105586866D01*
X128404532Y-105575830D01*
X128423938Y-105566651D01*
X128444150Y-105559419D01*
X128464974Y-105554203D01*
X128486209Y-105551053D01*
X128507650Y-105550000D01*
X129020150Y-105550000D01*
X129041591Y-105551053D01*
X129041591Y-105551053D01*
G37*
D11*
X128763900Y-105987500D03*
D10*
G36*
X129041591Y-103976053D02*
G01*
X129062826Y-103979203D01*
X129083650Y-103984419D01*
X129103862Y-103991651D01*
X129123268Y-104000830D01*
X129141681Y-104011866D01*
X129158924Y-104024654D01*
X129174830Y-104039070D01*
X129189246Y-104054976D01*
X129202034Y-104072219D01*
X129213070Y-104090632D01*
X129222249Y-104110038D01*
X129229481Y-104130250D01*
X129234697Y-104151074D01*
X129237847Y-104172309D01*
X129238900Y-104193750D01*
X129238900Y-104631250D01*
X129237847Y-104652691D01*
X129234697Y-104673926D01*
X129229481Y-104694750D01*
X129222249Y-104714962D01*
X129213070Y-104734368D01*
X129202034Y-104752781D01*
X129189246Y-104770024D01*
X129174830Y-104785930D01*
X129158924Y-104800346D01*
X129141681Y-104813134D01*
X129123268Y-104824170D01*
X129103862Y-104833349D01*
X129083650Y-104840581D01*
X129062826Y-104845797D01*
X129041591Y-104848947D01*
X129020150Y-104850000D01*
X128507650Y-104850000D01*
X128486209Y-104848947D01*
X128464974Y-104845797D01*
X128444150Y-104840581D01*
X128423938Y-104833349D01*
X128404532Y-104824170D01*
X128386119Y-104813134D01*
X128368876Y-104800346D01*
X128352970Y-104785930D01*
X128338554Y-104770024D01*
X128325766Y-104752781D01*
X128314730Y-104734368D01*
X128305551Y-104714962D01*
X128298319Y-104694750D01*
X128293103Y-104673926D01*
X128289953Y-104652691D01*
X128288900Y-104631250D01*
X128288900Y-104193750D01*
X128289953Y-104172309D01*
X128293103Y-104151074D01*
X128298319Y-104130250D01*
X128305551Y-104110038D01*
X128314730Y-104090632D01*
X128325766Y-104072219D01*
X128338554Y-104054976D01*
X128352970Y-104039070D01*
X128368876Y-104024654D01*
X128386119Y-104011866D01*
X128404532Y-104000830D01*
X128423938Y-103991651D01*
X128444150Y-103984419D01*
X128464974Y-103979203D01*
X128486209Y-103976053D01*
X128507650Y-103975000D01*
X129020150Y-103975000D01*
X129041591Y-103976053D01*
X129041591Y-103976053D01*
G37*
D11*
X128763900Y-104412500D03*
D10*
G36*
X154041591Y-105551053D02*
G01*
X154062826Y-105554203D01*
X154083650Y-105559419D01*
X154103862Y-105566651D01*
X154123268Y-105575830D01*
X154141681Y-105586866D01*
X154158924Y-105599654D01*
X154174830Y-105614070D01*
X154189246Y-105629976D01*
X154202034Y-105647219D01*
X154213070Y-105665632D01*
X154222249Y-105685038D01*
X154229481Y-105705250D01*
X154234697Y-105726074D01*
X154237847Y-105747309D01*
X154238900Y-105768750D01*
X154238900Y-106206250D01*
X154237847Y-106227691D01*
X154234697Y-106248926D01*
X154229481Y-106269750D01*
X154222249Y-106289962D01*
X154213070Y-106309368D01*
X154202034Y-106327781D01*
X154189246Y-106345024D01*
X154174830Y-106360930D01*
X154158924Y-106375346D01*
X154141681Y-106388134D01*
X154123268Y-106399170D01*
X154103862Y-106408349D01*
X154083650Y-106415581D01*
X154062826Y-106420797D01*
X154041591Y-106423947D01*
X154020150Y-106425000D01*
X153507650Y-106425000D01*
X153486209Y-106423947D01*
X153464974Y-106420797D01*
X153444150Y-106415581D01*
X153423938Y-106408349D01*
X153404532Y-106399170D01*
X153386119Y-106388134D01*
X153368876Y-106375346D01*
X153352970Y-106360930D01*
X153338554Y-106345024D01*
X153325766Y-106327781D01*
X153314730Y-106309368D01*
X153305551Y-106289962D01*
X153298319Y-106269750D01*
X153293103Y-106248926D01*
X153289953Y-106227691D01*
X153288900Y-106206250D01*
X153288900Y-105768750D01*
X153289953Y-105747309D01*
X153293103Y-105726074D01*
X153298319Y-105705250D01*
X153305551Y-105685038D01*
X153314730Y-105665632D01*
X153325766Y-105647219D01*
X153338554Y-105629976D01*
X153352970Y-105614070D01*
X153368876Y-105599654D01*
X153386119Y-105586866D01*
X153404532Y-105575830D01*
X153423938Y-105566651D01*
X153444150Y-105559419D01*
X153464974Y-105554203D01*
X153486209Y-105551053D01*
X153507650Y-105550000D01*
X154020150Y-105550000D01*
X154041591Y-105551053D01*
X154041591Y-105551053D01*
G37*
D11*
X153763900Y-105987500D03*
D10*
G36*
X154041591Y-103976053D02*
G01*
X154062826Y-103979203D01*
X154083650Y-103984419D01*
X154103862Y-103991651D01*
X154123268Y-104000830D01*
X154141681Y-104011866D01*
X154158924Y-104024654D01*
X154174830Y-104039070D01*
X154189246Y-104054976D01*
X154202034Y-104072219D01*
X154213070Y-104090632D01*
X154222249Y-104110038D01*
X154229481Y-104130250D01*
X154234697Y-104151074D01*
X154237847Y-104172309D01*
X154238900Y-104193750D01*
X154238900Y-104631250D01*
X154237847Y-104652691D01*
X154234697Y-104673926D01*
X154229481Y-104694750D01*
X154222249Y-104714962D01*
X154213070Y-104734368D01*
X154202034Y-104752781D01*
X154189246Y-104770024D01*
X154174830Y-104785930D01*
X154158924Y-104800346D01*
X154141681Y-104813134D01*
X154123268Y-104824170D01*
X154103862Y-104833349D01*
X154083650Y-104840581D01*
X154062826Y-104845797D01*
X154041591Y-104848947D01*
X154020150Y-104850000D01*
X153507650Y-104850000D01*
X153486209Y-104848947D01*
X153464974Y-104845797D01*
X153444150Y-104840581D01*
X153423938Y-104833349D01*
X153404532Y-104824170D01*
X153386119Y-104813134D01*
X153368876Y-104800346D01*
X153352970Y-104785930D01*
X153338554Y-104770024D01*
X153325766Y-104752781D01*
X153314730Y-104734368D01*
X153305551Y-104714962D01*
X153298319Y-104694750D01*
X153293103Y-104673926D01*
X153289953Y-104652691D01*
X153288900Y-104631250D01*
X153288900Y-104193750D01*
X153289953Y-104172309D01*
X153293103Y-104151074D01*
X153298319Y-104130250D01*
X153305551Y-104110038D01*
X153314730Y-104090632D01*
X153325766Y-104072219D01*
X153338554Y-104054976D01*
X153352970Y-104039070D01*
X153368876Y-104024654D01*
X153386119Y-104011866D01*
X153404532Y-104000830D01*
X153423938Y-103991651D01*
X153444150Y-103984419D01*
X153464974Y-103979203D01*
X153486209Y-103976053D01*
X153507650Y-103975000D01*
X154020150Y-103975000D01*
X154041591Y-103976053D01*
X154041591Y-103976053D01*
G37*
D11*
X153763900Y-104412500D03*
D15*
X105122800Y-115184500D03*
X103122800Y-116134500D03*
X103122800Y-114234500D03*
X130122800Y-115184500D03*
X128122800Y-116134500D03*
X128122800Y-114234500D03*
X155122800Y-115184500D03*
X153122800Y-116134500D03*
X153122800Y-114234500D03*
X101427100Y-115184500D03*
X99427100Y-116134500D03*
X99427100Y-114234500D03*
X126427100Y-115184500D03*
X124427100Y-116134500D03*
X124427100Y-114234500D03*
X151427100Y-115184500D03*
X149427100Y-116134500D03*
X149427100Y-114234500D03*
X98900000Y-111600000D03*
X96900000Y-112550000D03*
X96900000Y-110650000D03*
X124050000Y-111600000D03*
X122050000Y-112550000D03*
X122050000Y-110650000D03*
X148900000Y-111600000D03*
X146900000Y-112550000D03*
X146900000Y-110650000D03*
X96900000Y-108000000D03*
X98900000Y-107050000D03*
X98900000Y-108950000D03*
X122050000Y-108000000D03*
X124050000Y-107050000D03*
X124050000Y-108950000D03*
X146900000Y-108000000D03*
X148900000Y-107050000D03*
X148900000Y-108950000D03*
X105748600Y-110352000D03*
X107748600Y-109402000D03*
X107748600Y-111302000D03*
X131448600Y-110352000D03*
X133448600Y-109402000D03*
X133448600Y-111302000D03*
X156448600Y-110352000D03*
X158448600Y-109402000D03*
X158448600Y-111302000D03*
X105748600Y-106770600D03*
X107748600Y-105820600D03*
X107748600Y-107720600D03*
X131448600Y-106770600D03*
X133448600Y-105820600D03*
X133448600Y-107720600D03*
X156448600Y-106770600D03*
X158448600Y-105820600D03*
X158448600Y-107720600D03*
M02*
