G04 #@! TF.GenerationSoftware,KiCad,Pcbnew,(5.1.2)-2*
G04 #@! TF.CreationDate,2020-05-22T00:53:43-04:00*
G04 #@! TF.ProjectId,AddressableLED,41646472-6573-4736-9162-6c654c45442e,rev?*
G04 #@! TF.SameCoordinates,Original*
G04 #@! TF.FileFunction,Soldermask,Bot*
G04 #@! TF.FilePolarity,Negative*
%FSLAX46Y46*%
G04 Gerber Fmt 4.6, Leading zero omitted, Abs format (unit mm)*
G04 Created by KiCad (PCBNEW (5.1.2)-2) date 2020-05-22 00:53:43*
%MOMM*%
%LPD*%
G04 APERTURE LIST*
%ADD10C,3.200000*%
%ADD11C,0.100000*%
%ADD12C,0.875000*%
%ADD13R,3.150000X1.000000*%
%ADD14C,2.500000*%
%ADD15R,0.450000X1.450000*%
%ADD16R,0.800000X0.900000*%
G04 APERTURE END LIST*
D10*
X114700000Y-110000000D03*
D11*
G36*
X134252691Y-116826053D02*
G01*
X134273926Y-116829203D01*
X134294750Y-116834419D01*
X134314962Y-116841651D01*
X134334368Y-116850830D01*
X134352781Y-116861866D01*
X134370024Y-116874654D01*
X134385930Y-116889070D01*
X134400346Y-116904976D01*
X134413134Y-116922219D01*
X134424170Y-116940632D01*
X134433349Y-116960038D01*
X134440581Y-116980250D01*
X134445797Y-117001074D01*
X134448947Y-117022309D01*
X134450000Y-117043750D01*
X134450000Y-117556250D01*
X134448947Y-117577691D01*
X134445797Y-117598926D01*
X134440581Y-117619750D01*
X134433349Y-117639962D01*
X134424170Y-117659368D01*
X134413134Y-117677781D01*
X134400346Y-117695024D01*
X134385930Y-117710930D01*
X134370024Y-117725346D01*
X134352781Y-117738134D01*
X134334368Y-117749170D01*
X134314962Y-117758349D01*
X134294750Y-117765581D01*
X134273926Y-117770797D01*
X134252691Y-117773947D01*
X134231250Y-117775000D01*
X133793750Y-117775000D01*
X133772309Y-117773947D01*
X133751074Y-117770797D01*
X133730250Y-117765581D01*
X133710038Y-117758349D01*
X133690632Y-117749170D01*
X133672219Y-117738134D01*
X133654976Y-117725346D01*
X133639070Y-117710930D01*
X133624654Y-117695024D01*
X133611866Y-117677781D01*
X133600830Y-117659368D01*
X133591651Y-117639962D01*
X133584419Y-117619750D01*
X133579203Y-117598926D01*
X133576053Y-117577691D01*
X133575000Y-117556250D01*
X133575000Y-117043750D01*
X133576053Y-117022309D01*
X133579203Y-117001074D01*
X133584419Y-116980250D01*
X133591651Y-116960038D01*
X133600830Y-116940632D01*
X133611866Y-116922219D01*
X133624654Y-116904976D01*
X133639070Y-116889070D01*
X133654976Y-116874654D01*
X133672219Y-116861866D01*
X133690632Y-116850830D01*
X133710038Y-116841651D01*
X133730250Y-116834419D01*
X133751074Y-116829203D01*
X133772309Y-116826053D01*
X133793750Y-116825000D01*
X134231250Y-116825000D01*
X134252691Y-116826053D01*
X134252691Y-116826053D01*
G37*
D12*
X134012500Y-117300000D03*
D11*
G36*
X135827691Y-116826053D02*
G01*
X135848926Y-116829203D01*
X135869750Y-116834419D01*
X135889962Y-116841651D01*
X135909368Y-116850830D01*
X135927781Y-116861866D01*
X135945024Y-116874654D01*
X135960930Y-116889070D01*
X135975346Y-116904976D01*
X135988134Y-116922219D01*
X135999170Y-116940632D01*
X136008349Y-116960038D01*
X136015581Y-116980250D01*
X136020797Y-117001074D01*
X136023947Y-117022309D01*
X136025000Y-117043750D01*
X136025000Y-117556250D01*
X136023947Y-117577691D01*
X136020797Y-117598926D01*
X136015581Y-117619750D01*
X136008349Y-117639962D01*
X135999170Y-117659368D01*
X135988134Y-117677781D01*
X135975346Y-117695024D01*
X135960930Y-117710930D01*
X135945024Y-117725346D01*
X135927781Y-117738134D01*
X135909368Y-117749170D01*
X135889962Y-117758349D01*
X135869750Y-117765581D01*
X135848926Y-117770797D01*
X135827691Y-117773947D01*
X135806250Y-117775000D01*
X135368750Y-117775000D01*
X135347309Y-117773947D01*
X135326074Y-117770797D01*
X135305250Y-117765581D01*
X135285038Y-117758349D01*
X135265632Y-117749170D01*
X135247219Y-117738134D01*
X135229976Y-117725346D01*
X135214070Y-117710930D01*
X135199654Y-117695024D01*
X135186866Y-117677781D01*
X135175830Y-117659368D01*
X135166651Y-117639962D01*
X135159419Y-117619750D01*
X135154203Y-117598926D01*
X135151053Y-117577691D01*
X135150000Y-117556250D01*
X135150000Y-117043750D01*
X135151053Y-117022309D01*
X135154203Y-117001074D01*
X135159419Y-116980250D01*
X135166651Y-116960038D01*
X135175830Y-116940632D01*
X135186866Y-116922219D01*
X135199654Y-116904976D01*
X135214070Y-116889070D01*
X135229976Y-116874654D01*
X135247219Y-116861866D01*
X135265632Y-116850830D01*
X135285038Y-116841651D01*
X135305250Y-116834419D01*
X135326074Y-116829203D01*
X135347309Y-116826053D01*
X135368750Y-116825000D01*
X135806250Y-116825000D01*
X135827691Y-116826053D01*
X135827691Y-116826053D01*
G37*
D12*
X135587500Y-117300000D03*
D13*
X180875000Y-111270000D03*
X180875000Y-108730000D03*
X185925000Y-108730000D03*
X185925000Y-111270000D03*
X158675000Y-108730000D03*
X153625000Y-108730000D03*
X158675000Y-111270000D03*
X153625000Y-111270000D03*
D14*
X185600000Y-114400000D03*
X185600000Y-105600000D03*
D15*
X137075000Y-112750000D03*
X137725000Y-112750000D03*
X138375000Y-112750000D03*
X139025000Y-112750000D03*
X139675000Y-112750000D03*
X140325000Y-112750000D03*
X140975000Y-112750000D03*
X141625000Y-112750000D03*
X142275000Y-112750000D03*
X142925000Y-112750000D03*
X142925000Y-106850000D03*
X142275000Y-106850000D03*
X141625000Y-106850000D03*
X140975000Y-106850000D03*
X140325000Y-106850000D03*
X139675000Y-106850000D03*
X139025000Y-106850000D03*
X138375000Y-106850000D03*
X137725000Y-106850000D03*
X137075000Y-106850000D03*
D16*
X148400000Y-111300000D03*
X149350000Y-109300000D03*
X147450000Y-109300000D03*
D11*
G36*
X146127691Y-100926053D02*
G01*
X146148926Y-100929203D01*
X146169750Y-100934419D01*
X146189962Y-100941651D01*
X146209368Y-100950830D01*
X146227781Y-100961866D01*
X146245024Y-100974654D01*
X146260930Y-100989070D01*
X146275346Y-101004976D01*
X146288134Y-101022219D01*
X146299170Y-101040632D01*
X146308349Y-101060038D01*
X146315581Y-101080250D01*
X146320797Y-101101074D01*
X146323947Y-101122309D01*
X146325000Y-101143750D01*
X146325000Y-101656250D01*
X146323947Y-101677691D01*
X146320797Y-101698926D01*
X146315581Y-101719750D01*
X146308349Y-101739962D01*
X146299170Y-101759368D01*
X146288134Y-101777781D01*
X146275346Y-101795024D01*
X146260930Y-101810930D01*
X146245024Y-101825346D01*
X146227781Y-101838134D01*
X146209368Y-101849170D01*
X146189962Y-101858349D01*
X146169750Y-101865581D01*
X146148926Y-101870797D01*
X146127691Y-101873947D01*
X146106250Y-101875000D01*
X145668750Y-101875000D01*
X145647309Y-101873947D01*
X145626074Y-101870797D01*
X145605250Y-101865581D01*
X145585038Y-101858349D01*
X145565632Y-101849170D01*
X145547219Y-101838134D01*
X145529976Y-101825346D01*
X145514070Y-101810930D01*
X145499654Y-101795024D01*
X145486866Y-101777781D01*
X145475830Y-101759368D01*
X145466651Y-101739962D01*
X145459419Y-101719750D01*
X145454203Y-101698926D01*
X145451053Y-101677691D01*
X145450000Y-101656250D01*
X145450000Y-101143750D01*
X145451053Y-101122309D01*
X145454203Y-101101074D01*
X145459419Y-101080250D01*
X145466651Y-101060038D01*
X145475830Y-101040632D01*
X145486866Y-101022219D01*
X145499654Y-101004976D01*
X145514070Y-100989070D01*
X145529976Y-100974654D01*
X145547219Y-100961866D01*
X145565632Y-100950830D01*
X145585038Y-100941651D01*
X145605250Y-100934419D01*
X145626074Y-100929203D01*
X145647309Y-100926053D01*
X145668750Y-100925000D01*
X146106250Y-100925000D01*
X146127691Y-100926053D01*
X146127691Y-100926053D01*
G37*
D12*
X145887500Y-101400000D03*
D11*
G36*
X144552691Y-100926053D02*
G01*
X144573926Y-100929203D01*
X144594750Y-100934419D01*
X144614962Y-100941651D01*
X144634368Y-100950830D01*
X144652781Y-100961866D01*
X144670024Y-100974654D01*
X144685930Y-100989070D01*
X144700346Y-101004976D01*
X144713134Y-101022219D01*
X144724170Y-101040632D01*
X144733349Y-101060038D01*
X144740581Y-101080250D01*
X144745797Y-101101074D01*
X144748947Y-101122309D01*
X144750000Y-101143750D01*
X144750000Y-101656250D01*
X144748947Y-101677691D01*
X144745797Y-101698926D01*
X144740581Y-101719750D01*
X144733349Y-101739962D01*
X144724170Y-101759368D01*
X144713134Y-101777781D01*
X144700346Y-101795024D01*
X144685930Y-101810930D01*
X144670024Y-101825346D01*
X144652781Y-101838134D01*
X144634368Y-101849170D01*
X144614962Y-101858349D01*
X144594750Y-101865581D01*
X144573926Y-101870797D01*
X144552691Y-101873947D01*
X144531250Y-101875000D01*
X144093750Y-101875000D01*
X144072309Y-101873947D01*
X144051074Y-101870797D01*
X144030250Y-101865581D01*
X144010038Y-101858349D01*
X143990632Y-101849170D01*
X143972219Y-101838134D01*
X143954976Y-101825346D01*
X143939070Y-101810930D01*
X143924654Y-101795024D01*
X143911866Y-101777781D01*
X143900830Y-101759368D01*
X143891651Y-101739962D01*
X143884419Y-101719750D01*
X143879203Y-101698926D01*
X143876053Y-101677691D01*
X143875000Y-101656250D01*
X143875000Y-101143750D01*
X143876053Y-101122309D01*
X143879203Y-101101074D01*
X143884419Y-101080250D01*
X143891651Y-101060038D01*
X143900830Y-101040632D01*
X143911866Y-101022219D01*
X143924654Y-101004976D01*
X143939070Y-100989070D01*
X143954976Y-100974654D01*
X143972219Y-100961866D01*
X143990632Y-100950830D01*
X144010038Y-100941651D01*
X144030250Y-100934419D01*
X144051074Y-100929203D01*
X144072309Y-100926053D01*
X144093750Y-100925000D01*
X144531250Y-100925000D01*
X144552691Y-100926053D01*
X144552691Y-100926053D01*
G37*
D12*
X144312500Y-101400000D03*
D11*
G36*
X139177691Y-103063553D02*
G01*
X139198926Y-103066703D01*
X139219750Y-103071919D01*
X139239962Y-103079151D01*
X139259368Y-103088330D01*
X139277781Y-103099366D01*
X139295024Y-103112154D01*
X139310930Y-103126570D01*
X139325346Y-103142476D01*
X139338134Y-103159719D01*
X139349170Y-103178132D01*
X139358349Y-103197538D01*
X139365581Y-103217750D01*
X139370797Y-103238574D01*
X139373947Y-103259809D01*
X139375000Y-103281250D01*
X139375000Y-103718750D01*
X139373947Y-103740191D01*
X139370797Y-103761426D01*
X139365581Y-103782250D01*
X139358349Y-103802462D01*
X139349170Y-103821868D01*
X139338134Y-103840281D01*
X139325346Y-103857524D01*
X139310930Y-103873430D01*
X139295024Y-103887846D01*
X139277781Y-103900634D01*
X139259368Y-103911670D01*
X139239962Y-103920849D01*
X139219750Y-103928081D01*
X139198926Y-103933297D01*
X139177691Y-103936447D01*
X139156250Y-103937500D01*
X138643750Y-103937500D01*
X138622309Y-103936447D01*
X138601074Y-103933297D01*
X138580250Y-103928081D01*
X138560038Y-103920849D01*
X138540632Y-103911670D01*
X138522219Y-103900634D01*
X138504976Y-103887846D01*
X138489070Y-103873430D01*
X138474654Y-103857524D01*
X138461866Y-103840281D01*
X138450830Y-103821868D01*
X138441651Y-103802462D01*
X138434419Y-103782250D01*
X138429203Y-103761426D01*
X138426053Y-103740191D01*
X138425000Y-103718750D01*
X138425000Y-103281250D01*
X138426053Y-103259809D01*
X138429203Y-103238574D01*
X138434419Y-103217750D01*
X138441651Y-103197538D01*
X138450830Y-103178132D01*
X138461866Y-103159719D01*
X138474654Y-103142476D01*
X138489070Y-103126570D01*
X138504976Y-103112154D01*
X138522219Y-103099366D01*
X138540632Y-103088330D01*
X138560038Y-103079151D01*
X138580250Y-103071919D01*
X138601074Y-103066703D01*
X138622309Y-103063553D01*
X138643750Y-103062500D01*
X139156250Y-103062500D01*
X139177691Y-103063553D01*
X139177691Y-103063553D01*
G37*
D12*
X138900000Y-103500000D03*
D11*
G36*
X139177691Y-104638553D02*
G01*
X139198926Y-104641703D01*
X139219750Y-104646919D01*
X139239962Y-104654151D01*
X139259368Y-104663330D01*
X139277781Y-104674366D01*
X139295024Y-104687154D01*
X139310930Y-104701570D01*
X139325346Y-104717476D01*
X139338134Y-104734719D01*
X139349170Y-104753132D01*
X139358349Y-104772538D01*
X139365581Y-104792750D01*
X139370797Y-104813574D01*
X139373947Y-104834809D01*
X139375000Y-104856250D01*
X139375000Y-105293750D01*
X139373947Y-105315191D01*
X139370797Y-105336426D01*
X139365581Y-105357250D01*
X139358349Y-105377462D01*
X139349170Y-105396868D01*
X139338134Y-105415281D01*
X139325346Y-105432524D01*
X139310930Y-105448430D01*
X139295024Y-105462846D01*
X139277781Y-105475634D01*
X139259368Y-105486670D01*
X139239962Y-105495849D01*
X139219750Y-105503081D01*
X139198926Y-105508297D01*
X139177691Y-105511447D01*
X139156250Y-105512500D01*
X138643750Y-105512500D01*
X138622309Y-105511447D01*
X138601074Y-105508297D01*
X138580250Y-105503081D01*
X138560038Y-105495849D01*
X138540632Y-105486670D01*
X138522219Y-105475634D01*
X138504976Y-105462846D01*
X138489070Y-105448430D01*
X138474654Y-105432524D01*
X138461866Y-105415281D01*
X138450830Y-105396868D01*
X138441651Y-105377462D01*
X138434419Y-105357250D01*
X138429203Y-105336426D01*
X138426053Y-105315191D01*
X138425000Y-105293750D01*
X138425000Y-104856250D01*
X138426053Y-104834809D01*
X138429203Y-104813574D01*
X138434419Y-104792750D01*
X138441651Y-104772538D01*
X138450830Y-104753132D01*
X138461866Y-104734719D01*
X138474654Y-104717476D01*
X138489070Y-104701570D01*
X138504976Y-104687154D01*
X138522219Y-104674366D01*
X138540632Y-104663330D01*
X138560038Y-104654151D01*
X138580250Y-104646919D01*
X138601074Y-104641703D01*
X138622309Y-104638553D01*
X138643750Y-104637500D01*
X139156250Y-104637500D01*
X139177691Y-104638553D01*
X139177691Y-104638553D01*
G37*
D12*
X138900000Y-105075000D03*
D11*
G36*
X147527691Y-115526053D02*
G01*
X147548926Y-115529203D01*
X147569750Y-115534419D01*
X147589962Y-115541651D01*
X147609368Y-115550830D01*
X147627781Y-115561866D01*
X147645024Y-115574654D01*
X147660930Y-115589070D01*
X147675346Y-115604976D01*
X147688134Y-115622219D01*
X147699170Y-115640632D01*
X147708349Y-115660038D01*
X147715581Y-115680250D01*
X147720797Y-115701074D01*
X147723947Y-115722309D01*
X147725000Y-115743750D01*
X147725000Y-116256250D01*
X147723947Y-116277691D01*
X147720797Y-116298926D01*
X147715581Y-116319750D01*
X147708349Y-116339962D01*
X147699170Y-116359368D01*
X147688134Y-116377781D01*
X147675346Y-116395024D01*
X147660930Y-116410930D01*
X147645024Y-116425346D01*
X147627781Y-116438134D01*
X147609368Y-116449170D01*
X147589962Y-116458349D01*
X147569750Y-116465581D01*
X147548926Y-116470797D01*
X147527691Y-116473947D01*
X147506250Y-116475000D01*
X147068750Y-116475000D01*
X147047309Y-116473947D01*
X147026074Y-116470797D01*
X147005250Y-116465581D01*
X146985038Y-116458349D01*
X146965632Y-116449170D01*
X146947219Y-116438134D01*
X146929976Y-116425346D01*
X146914070Y-116410930D01*
X146899654Y-116395024D01*
X146886866Y-116377781D01*
X146875830Y-116359368D01*
X146866651Y-116339962D01*
X146859419Y-116319750D01*
X146854203Y-116298926D01*
X146851053Y-116277691D01*
X146850000Y-116256250D01*
X146850000Y-115743750D01*
X146851053Y-115722309D01*
X146854203Y-115701074D01*
X146859419Y-115680250D01*
X146866651Y-115660038D01*
X146875830Y-115640632D01*
X146886866Y-115622219D01*
X146899654Y-115604976D01*
X146914070Y-115589070D01*
X146929976Y-115574654D01*
X146947219Y-115561866D01*
X146965632Y-115550830D01*
X146985038Y-115541651D01*
X147005250Y-115534419D01*
X147026074Y-115529203D01*
X147047309Y-115526053D01*
X147068750Y-115525000D01*
X147506250Y-115525000D01*
X147527691Y-115526053D01*
X147527691Y-115526053D01*
G37*
D12*
X147287500Y-116000000D03*
D11*
G36*
X145952691Y-115526053D02*
G01*
X145973926Y-115529203D01*
X145994750Y-115534419D01*
X146014962Y-115541651D01*
X146034368Y-115550830D01*
X146052781Y-115561866D01*
X146070024Y-115574654D01*
X146085930Y-115589070D01*
X146100346Y-115604976D01*
X146113134Y-115622219D01*
X146124170Y-115640632D01*
X146133349Y-115660038D01*
X146140581Y-115680250D01*
X146145797Y-115701074D01*
X146148947Y-115722309D01*
X146150000Y-115743750D01*
X146150000Y-116256250D01*
X146148947Y-116277691D01*
X146145797Y-116298926D01*
X146140581Y-116319750D01*
X146133349Y-116339962D01*
X146124170Y-116359368D01*
X146113134Y-116377781D01*
X146100346Y-116395024D01*
X146085930Y-116410930D01*
X146070024Y-116425346D01*
X146052781Y-116438134D01*
X146034368Y-116449170D01*
X146014962Y-116458349D01*
X145994750Y-116465581D01*
X145973926Y-116470797D01*
X145952691Y-116473947D01*
X145931250Y-116475000D01*
X145493750Y-116475000D01*
X145472309Y-116473947D01*
X145451074Y-116470797D01*
X145430250Y-116465581D01*
X145410038Y-116458349D01*
X145390632Y-116449170D01*
X145372219Y-116438134D01*
X145354976Y-116425346D01*
X145339070Y-116410930D01*
X145324654Y-116395024D01*
X145311866Y-116377781D01*
X145300830Y-116359368D01*
X145291651Y-116339962D01*
X145284419Y-116319750D01*
X145279203Y-116298926D01*
X145276053Y-116277691D01*
X145275000Y-116256250D01*
X145275000Y-115743750D01*
X145276053Y-115722309D01*
X145279203Y-115701074D01*
X145284419Y-115680250D01*
X145291651Y-115660038D01*
X145300830Y-115640632D01*
X145311866Y-115622219D01*
X145324654Y-115604976D01*
X145339070Y-115589070D01*
X145354976Y-115574654D01*
X145372219Y-115561866D01*
X145390632Y-115550830D01*
X145410038Y-115541651D01*
X145430250Y-115534419D01*
X145451074Y-115529203D01*
X145472309Y-115526053D01*
X145493750Y-115525000D01*
X145931250Y-115525000D01*
X145952691Y-115526053D01*
X145952691Y-115526053D01*
G37*
D12*
X145712500Y-116000000D03*
D11*
G36*
X142652691Y-115526053D02*
G01*
X142673926Y-115529203D01*
X142694750Y-115534419D01*
X142714962Y-115541651D01*
X142734368Y-115550830D01*
X142752781Y-115561866D01*
X142770024Y-115574654D01*
X142785930Y-115589070D01*
X142800346Y-115604976D01*
X142813134Y-115622219D01*
X142824170Y-115640632D01*
X142833349Y-115660038D01*
X142840581Y-115680250D01*
X142845797Y-115701074D01*
X142848947Y-115722309D01*
X142850000Y-115743750D01*
X142850000Y-116256250D01*
X142848947Y-116277691D01*
X142845797Y-116298926D01*
X142840581Y-116319750D01*
X142833349Y-116339962D01*
X142824170Y-116359368D01*
X142813134Y-116377781D01*
X142800346Y-116395024D01*
X142785930Y-116410930D01*
X142770024Y-116425346D01*
X142752781Y-116438134D01*
X142734368Y-116449170D01*
X142714962Y-116458349D01*
X142694750Y-116465581D01*
X142673926Y-116470797D01*
X142652691Y-116473947D01*
X142631250Y-116475000D01*
X142193750Y-116475000D01*
X142172309Y-116473947D01*
X142151074Y-116470797D01*
X142130250Y-116465581D01*
X142110038Y-116458349D01*
X142090632Y-116449170D01*
X142072219Y-116438134D01*
X142054976Y-116425346D01*
X142039070Y-116410930D01*
X142024654Y-116395024D01*
X142011866Y-116377781D01*
X142000830Y-116359368D01*
X141991651Y-116339962D01*
X141984419Y-116319750D01*
X141979203Y-116298926D01*
X141976053Y-116277691D01*
X141975000Y-116256250D01*
X141975000Y-115743750D01*
X141976053Y-115722309D01*
X141979203Y-115701074D01*
X141984419Y-115680250D01*
X141991651Y-115660038D01*
X142000830Y-115640632D01*
X142011866Y-115622219D01*
X142024654Y-115604976D01*
X142039070Y-115589070D01*
X142054976Y-115574654D01*
X142072219Y-115561866D01*
X142090632Y-115550830D01*
X142110038Y-115541651D01*
X142130250Y-115534419D01*
X142151074Y-115529203D01*
X142172309Y-115526053D01*
X142193750Y-115525000D01*
X142631250Y-115525000D01*
X142652691Y-115526053D01*
X142652691Y-115526053D01*
G37*
D12*
X142412500Y-116000000D03*
D11*
G36*
X144227691Y-115526053D02*
G01*
X144248926Y-115529203D01*
X144269750Y-115534419D01*
X144289962Y-115541651D01*
X144309368Y-115550830D01*
X144327781Y-115561866D01*
X144345024Y-115574654D01*
X144360930Y-115589070D01*
X144375346Y-115604976D01*
X144388134Y-115622219D01*
X144399170Y-115640632D01*
X144408349Y-115660038D01*
X144415581Y-115680250D01*
X144420797Y-115701074D01*
X144423947Y-115722309D01*
X144425000Y-115743750D01*
X144425000Y-116256250D01*
X144423947Y-116277691D01*
X144420797Y-116298926D01*
X144415581Y-116319750D01*
X144408349Y-116339962D01*
X144399170Y-116359368D01*
X144388134Y-116377781D01*
X144375346Y-116395024D01*
X144360930Y-116410930D01*
X144345024Y-116425346D01*
X144327781Y-116438134D01*
X144309368Y-116449170D01*
X144289962Y-116458349D01*
X144269750Y-116465581D01*
X144248926Y-116470797D01*
X144227691Y-116473947D01*
X144206250Y-116475000D01*
X143768750Y-116475000D01*
X143747309Y-116473947D01*
X143726074Y-116470797D01*
X143705250Y-116465581D01*
X143685038Y-116458349D01*
X143665632Y-116449170D01*
X143647219Y-116438134D01*
X143629976Y-116425346D01*
X143614070Y-116410930D01*
X143599654Y-116395024D01*
X143586866Y-116377781D01*
X143575830Y-116359368D01*
X143566651Y-116339962D01*
X143559419Y-116319750D01*
X143554203Y-116298926D01*
X143551053Y-116277691D01*
X143550000Y-116256250D01*
X143550000Y-115743750D01*
X143551053Y-115722309D01*
X143554203Y-115701074D01*
X143559419Y-115680250D01*
X143566651Y-115660038D01*
X143575830Y-115640632D01*
X143586866Y-115622219D01*
X143599654Y-115604976D01*
X143614070Y-115589070D01*
X143629976Y-115574654D01*
X143647219Y-115561866D01*
X143665632Y-115550830D01*
X143685038Y-115541651D01*
X143705250Y-115534419D01*
X143726074Y-115529203D01*
X143747309Y-115526053D01*
X143768750Y-115525000D01*
X144206250Y-115525000D01*
X144227691Y-115526053D01*
X144227691Y-115526053D01*
G37*
D12*
X143987500Y-116000000D03*
D11*
G36*
X145827691Y-110351053D02*
G01*
X145848926Y-110354203D01*
X145869750Y-110359419D01*
X145889962Y-110366651D01*
X145909368Y-110375830D01*
X145927781Y-110386866D01*
X145945024Y-110399654D01*
X145960930Y-110414070D01*
X145975346Y-110429976D01*
X145988134Y-110447219D01*
X145999170Y-110465632D01*
X146008349Y-110485038D01*
X146015581Y-110505250D01*
X146020797Y-110526074D01*
X146023947Y-110547309D01*
X146025000Y-110568750D01*
X146025000Y-111006250D01*
X146023947Y-111027691D01*
X146020797Y-111048926D01*
X146015581Y-111069750D01*
X146008349Y-111089962D01*
X145999170Y-111109368D01*
X145988134Y-111127781D01*
X145975346Y-111145024D01*
X145960930Y-111160930D01*
X145945024Y-111175346D01*
X145927781Y-111188134D01*
X145909368Y-111199170D01*
X145889962Y-111208349D01*
X145869750Y-111215581D01*
X145848926Y-111220797D01*
X145827691Y-111223947D01*
X145806250Y-111225000D01*
X145293750Y-111225000D01*
X145272309Y-111223947D01*
X145251074Y-111220797D01*
X145230250Y-111215581D01*
X145210038Y-111208349D01*
X145190632Y-111199170D01*
X145172219Y-111188134D01*
X145154976Y-111175346D01*
X145139070Y-111160930D01*
X145124654Y-111145024D01*
X145111866Y-111127781D01*
X145100830Y-111109368D01*
X145091651Y-111089962D01*
X145084419Y-111069750D01*
X145079203Y-111048926D01*
X145076053Y-111027691D01*
X145075000Y-111006250D01*
X145075000Y-110568750D01*
X145076053Y-110547309D01*
X145079203Y-110526074D01*
X145084419Y-110505250D01*
X145091651Y-110485038D01*
X145100830Y-110465632D01*
X145111866Y-110447219D01*
X145124654Y-110429976D01*
X145139070Y-110414070D01*
X145154976Y-110399654D01*
X145172219Y-110386866D01*
X145190632Y-110375830D01*
X145210038Y-110366651D01*
X145230250Y-110359419D01*
X145251074Y-110354203D01*
X145272309Y-110351053D01*
X145293750Y-110350000D01*
X145806250Y-110350000D01*
X145827691Y-110351053D01*
X145827691Y-110351053D01*
G37*
D12*
X145550000Y-110787500D03*
D11*
G36*
X145827691Y-108776053D02*
G01*
X145848926Y-108779203D01*
X145869750Y-108784419D01*
X145889962Y-108791651D01*
X145909368Y-108800830D01*
X145927781Y-108811866D01*
X145945024Y-108824654D01*
X145960930Y-108839070D01*
X145975346Y-108854976D01*
X145988134Y-108872219D01*
X145999170Y-108890632D01*
X146008349Y-108910038D01*
X146015581Y-108930250D01*
X146020797Y-108951074D01*
X146023947Y-108972309D01*
X146025000Y-108993750D01*
X146025000Y-109431250D01*
X146023947Y-109452691D01*
X146020797Y-109473926D01*
X146015581Y-109494750D01*
X146008349Y-109514962D01*
X145999170Y-109534368D01*
X145988134Y-109552781D01*
X145975346Y-109570024D01*
X145960930Y-109585930D01*
X145945024Y-109600346D01*
X145927781Y-109613134D01*
X145909368Y-109624170D01*
X145889962Y-109633349D01*
X145869750Y-109640581D01*
X145848926Y-109645797D01*
X145827691Y-109648947D01*
X145806250Y-109650000D01*
X145293750Y-109650000D01*
X145272309Y-109648947D01*
X145251074Y-109645797D01*
X145230250Y-109640581D01*
X145210038Y-109633349D01*
X145190632Y-109624170D01*
X145172219Y-109613134D01*
X145154976Y-109600346D01*
X145139070Y-109585930D01*
X145124654Y-109570024D01*
X145111866Y-109552781D01*
X145100830Y-109534368D01*
X145091651Y-109514962D01*
X145084419Y-109494750D01*
X145079203Y-109473926D01*
X145076053Y-109452691D01*
X145075000Y-109431250D01*
X145075000Y-108993750D01*
X145076053Y-108972309D01*
X145079203Y-108951074D01*
X145084419Y-108930250D01*
X145091651Y-108910038D01*
X145100830Y-108890632D01*
X145111866Y-108872219D01*
X145124654Y-108854976D01*
X145139070Y-108839070D01*
X145154976Y-108824654D01*
X145172219Y-108811866D01*
X145190632Y-108800830D01*
X145210038Y-108791651D01*
X145230250Y-108784419D01*
X145251074Y-108779203D01*
X145272309Y-108776053D01*
X145293750Y-108775000D01*
X145806250Y-108775000D01*
X145827691Y-108776053D01*
X145827691Y-108776053D01*
G37*
D12*
X145550000Y-109212500D03*
D11*
G36*
X150177691Y-114001053D02*
G01*
X150198926Y-114004203D01*
X150219750Y-114009419D01*
X150239962Y-114016651D01*
X150259368Y-114025830D01*
X150277781Y-114036866D01*
X150295024Y-114049654D01*
X150310930Y-114064070D01*
X150325346Y-114079976D01*
X150338134Y-114097219D01*
X150349170Y-114115632D01*
X150358349Y-114135038D01*
X150365581Y-114155250D01*
X150370797Y-114176074D01*
X150373947Y-114197309D01*
X150375000Y-114218750D01*
X150375000Y-114656250D01*
X150373947Y-114677691D01*
X150370797Y-114698926D01*
X150365581Y-114719750D01*
X150358349Y-114739962D01*
X150349170Y-114759368D01*
X150338134Y-114777781D01*
X150325346Y-114795024D01*
X150310930Y-114810930D01*
X150295024Y-114825346D01*
X150277781Y-114838134D01*
X150259368Y-114849170D01*
X150239962Y-114858349D01*
X150219750Y-114865581D01*
X150198926Y-114870797D01*
X150177691Y-114873947D01*
X150156250Y-114875000D01*
X149643750Y-114875000D01*
X149622309Y-114873947D01*
X149601074Y-114870797D01*
X149580250Y-114865581D01*
X149560038Y-114858349D01*
X149540632Y-114849170D01*
X149522219Y-114838134D01*
X149504976Y-114825346D01*
X149489070Y-114810930D01*
X149474654Y-114795024D01*
X149461866Y-114777781D01*
X149450830Y-114759368D01*
X149441651Y-114739962D01*
X149434419Y-114719750D01*
X149429203Y-114698926D01*
X149426053Y-114677691D01*
X149425000Y-114656250D01*
X149425000Y-114218750D01*
X149426053Y-114197309D01*
X149429203Y-114176074D01*
X149434419Y-114155250D01*
X149441651Y-114135038D01*
X149450830Y-114115632D01*
X149461866Y-114097219D01*
X149474654Y-114079976D01*
X149489070Y-114064070D01*
X149504976Y-114049654D01*
X149522219Y-114036866D01*
X149540632Y-114025830D01*
X149560038Y-114016651D01*
X149580250Y-114009419D01*
X149601074Y-114004203D01*
X149622309Y-114001053D01*
X149643750Y-114000000D01*
X150156250Y-114000000D01*
X150177691Y-114001053D01*
X150177691Y-114001053D01*
G37*
D12*
X149900000Y-114437500D03*
D11*
G36*
X150177691Y-112426053D02*
G01*
X150198926Y-112429203D01*
X150219750Y-112434419D01*
X150239962Y-112441651D01*
X150259368Y-112450830D01*
X150277781Y-112461866D01*
X150295024Y-112474654D01*
X150310930Y-112489070D01*
X150325346Y-112504976D01*
X150338134Y-112522219D01*
X150349170Y-112540632D01*
X150358349Y-112560038D01*
X150365581Y-112580250D01*
X150370797Y-112601074D01*
X150373947Y-112622309D01*
X150375000Y-112643750D01*
X150375000Y-113081250D01*
X150373947Y-113102691D01*
X150370797Y-113123926D01*
X150365581Y-113144750D01*
X150358349Y-113164962D01*
X150349170Y-113184368D01*
X150338134Y-113202781D01*
X150325346Y-113220024D01*
X150310930Y-113235930D01*
X150295024Y-113250346D01*
X150277781Y-113263134D01*
X150259368Y-113274170D01*
X150239962Y-113283349D01*
X150219750Y-113290581D01*
X150198926Y-113295797D01*
X150177691Y-113298947D01*
X150156250Y-113300000D01*
X149643750Y-113300000D01*
X149622309Y-113298947D01*
X149601074Y-113295797D01*
X149580250Y-113290581D01*
X149560038Y-113283349D01*
X149540632Y-113274170D01*
X149522219Y-113263134D01*
X149504976Y-113250346D01*
X149489070Y-113235930D01*
X149474654Y-113220024D01*
X149461866Y-113202781D01*
X149450830Y-113184368D01*
X149441651Y-113164962D01*
X149434419Y-113144750D01*
X149429203Y-113123926D01*
X149426053Y-113102691D01*
X149425000Y-113081250D01*
X149425000Y-112643750D01*
X149426053Y-112622309D01*
X149429203Y-112601074D01*
X149434419Y-112580250D01*
X149441651Y-112560038D01*
X149450830Y-112540632D01*
X149461866Y-112522219D01*
X149474654Y-112504976D01*
X149489070Y-112489070D01*
X149504976Y-112474654D01*
X149522219Y-112461866D01*
X149540632Y-112450830D01*
X149560038Y-112441651D01*
X149580250Y-112434419D01*
X149601074Y-112429203D01*
X149622309Y-112426053D01*
X149643750Y-112425000D01*
X150156250Y-112425000D01*
X150177691Y-112426053D01*
X150177691Y-112426053D01*
G37*
D12*
X149900000Y-112862500D03*
D10*
X164750000Y-110000000D03*
M02*
