G04 #@! TF.GenerationSoftware,KiCad,Pcbnew,(5.1.2)-2*
G04 #@! TF.CreationDate,2020-05-22T00:53:43-04:00*
G04 #@! TF.ProjectId,AddressableLED,41646472-6573-4736-9162-6c654c45442e,rev?*
G04 #@! TF.SameCoordinates,Original*
G04 #@! TF.FileFunction,Legend,Bot*
G04 #@! TF.FilePolarity,Positive*
%FSLAX46Y46*%
G04 Gerber Fmt 4.6, Leading zero omitted, Abs format (unit mm)*
G04 Created by KiCad (PCBNEW (5.1.2)-2) date 2020-05-22 00:53:43*
%MOMM*%
%LPD*%
G04 APERTURE LIST*
%ADD10C,0.150000*%
%ADD11C,0.300000*%
%ADD12C,0.120000*%
G04 APERTURE END LIST*
D10*
X185680952Y-116971428D02*
X184919047Y-116971428D01*
D11*
X184728571Y-103107142D02*
X185871428Y-103107142D01*
X185300000Y-103678571D02*
X185300000Y-102535714D01*
D10*
X101642857Y-117747619D02*
X101642857Y-118747619D01*
X101642857Y-118271428D02*
X102214285Y-118271428D01*
X102214285Y-117747619D02*
X102214285Y-118747619D01*
X102690476Y-117747619D02*
X102690476Y-118414285D01*
X102690476Y-118747619D02*
X102642857Y-118700000D01*
X102690476Y-118652380D01*
X102738095Y-118700000D01*
X102690476Y-118747619D01*
X102690476Y-118652380D01*
X103595238Y-118414285D02*
X103595238Y-117604761D01*
X103547619Y-117509523D01*
X103500000Y-117461904D01*
X103404761Y-117414285D01*
X103261904Y-117414285D01*
X103166666Y-117461904D01*
X103595238Y-117795238D02*
X103500000Y-117747619D01*
X103309523Y-117747619D01*
X103214285Y-117795238D01*
X103166666Y-117842857D01*
X103119047Y-117938095D01*
X103119047Y-118223809D01*
X103166666Y-118319047D01*
X103214285Y-118366666D01*
X103309523Y-118414285D01*
X103500000Y-118414285D01*
X103595238Y-118366666D01*
X104071428Y-117747619D02*
X104071428Y-118747619D01*
X104500000Y-117747619D02*
X104500000Y-118271428D01*
X104452380Y-118366666D01*
X104357142Y-118414285D01*
X104214285Y-118414285D01*
X104119047Y-118366666D01*
X104071428Y-118319047D01*
X104976190Y-118128571D02*
X105738095Y-118128571D01*
X106214285Y-117747619D02*
X106214285Y-118747619D01*
X106595238Y-118747619D01*
X106690476Y-118700000D01*
X106738095Y-118652380D01*
X106785714Y-118557142D01*
X106785714Y-118414285D01*
X106738095Y-118319047D01*
X106690476Y-118271428D01*
X106595238Y-118223809D01*
X106214285Y-118223809D01*
X107357142Y-117747619D02*
X107261904Y-117795238D01*
X107214285Y-117842857D01*
X107166666Y-117938095D01*
X107166666Y-118223809D01*
X107214285Y-118319047D01*
X107261904Y-118366666D01*
X107357142Y-118414285D01*
X107500000Y-118414285D01*
X107595238Y-118366666D01*
X107642857Y-118319047D01*
X107690476Y-118223809D01*
X107690476Y-117938095D01*
X107642857Y-117842857D01*
X107595238Y-117795238D01*
X107500000Y-117747619D01*
X107357142Y-117747619D01*
X108023809Y-118414285D02*
X108214285Y-117747619D01*
X108404761Y-118223809D01*
X108595238Y-117747619D01*
X108785714Y-118414285D01*
X109547619Y-117795238D02*
X109452380Y-117747619D01*
X109261904Y-117747619D01*
X109166666Y-117795238D01*
X109119047Y-117890476D01*
X109119047Y-118271428D01*
X109166666Y-118366666D01*
X109261904Y-118414285D01*
X109452380Y-118414285D01*
X109547619Y-118366666D01*
X109595238Y-118271428D01*
X109595238Y-118176190D01*
X109119047Y-118080952D01*
X110023809Y-117747619D02*
X110023809Y-118414285D01*
X110023809Y-118223809D02*
X110071428Y-118319047D01*
X110119047Y-118366666D01*
X110214285Y-118414285D01*
X110309523Y-118414285D01*
X112642857Y-117747619D02*
X112166666Y-117747619D01*
X112166666Y-118747619D01*
X112976190Y-118271428D02*
X113309523Y-118271428D01*
X113452380Y-117747619D02*
X112976190Y-117747619D01*
X112976190Y-118747619D01*
X113452380Y-118747619D01*
X113880952Y-117747619D02*
X113880952Y-118747619D01*
X114119047Y-118747619D01*
X114261904Y-118700000D01*
X114357142Y-118604761D01*
X114404761Y-118509523D01*
X114452380Y-118319047D01*
X114452380Y-118176190D01*
X114404761Y-117985714D01*
X114357142Y-117890476D01*
X114261904Y-117795238D01*
X114119047Y-117747619D01*
X113880952Y-117747619D01*
X115642857Y-117747619D02*
X115642857Y-118414285D01*
X115642857Y-118319047D02*
X115690476Y-118366666D01*
X115785714Y-118414285D01*
X115928571Y-118414285D01*
X116023809Y-118366666D01*
X116071428Y-118271428D01*
X116071428Y-117747619D01*
X116071428Y-118271428D02*
X116119047Y-118366666D01*
X116214285Y-118414285D01*
X116357142Y-118414285D01*
X116452380Y-118366666D01*
X116500000Y-118271428D01*
X116500000Y-117747619D01*
X117119047Y-117747619D02*
X117023809Y-117795238D01*
X116976190Y-117842857D01*
X116928571Y-117938095D01*
X116928571Y-118223809D01*
X116976190Y-118319047D01*
X117023809Y-118366666D01*
X117119047Y-118414285D01*
X117261904Y-118414285D01*
X117357142Y-118366666D01*
X117404761Y-118319047D01*
X117452380Y-118223809D01*
X117452380Y-117938095D01*
X117404761Y-117842857D01*
X117357142Y-117795238D01*
X117261904Y-117747619D01*
X117119047Y-117747619D01*
X118309523Y-117747619D02*
X118309523Y-118747619D01*
X118309523Y-117795238D02*
X118214285Y-117747619D01*
X118023809Y-117747619D01*
X117928571Y-117795238D01*
X117880952Y-117842857D01*
X117833333Y-117938095D01*
X117833333Y-118223809D01*
X117880952Y-118319047D01*
X117928571Y-118366666D01*
X118023809Y-118414285D01*
X118214285Y-118414285D01*
X118309523Y-118366666D01*
X119214285Y-118414285D02*
X119214285Y-117747619D01*
X118785714Y-118414285D02*
X118785714Y-117890476D01*
X118833333Y-117795238D01*
X118928571Y-117747619D01*
X119071428Y-117747619D01*
X119166666Y-117795238D01*
X119214285Y-117842857D01*
X119833333Y-117747619D02*
X119738095Y-117795238D01*
X119690476Y-117890476D01*
X119690476Y-118747619D01*
X120595238Y-117795238D02*
X120500000Y-117747619D01*
X120309523Y-117747619D01*
X120214285Y-117795238D01*
X120166666Y-117890476D01*
X120166666Y-118271428D01*
X120214285Y-118366666D01*
X120309523Y-118414285D01*
X120500000Y-118414285D01*
X120595238Y-118366666D01*
X120642857Y-118271428D01*
X120642857Y-118176190D01*
X120166666Y-118080952D01*
X121833333Y-118128571D02*
X122595238Y-118128571D01*
X124404761Y-117747619D02*
X124071428Y-118223809D01*
X123833333Y-117747619D02*
X123833333Y-118747619D01*
X124214285Y-118747619D01*
X124309523Y-118700000D01*
X124357142Y-118652380D01*
X124404761Y-118557142D01*
X124404761Y-118414285D01*
X124357142Y-118319047D01*
X124309523Y-118271428D01*
X124214285Y-118223809D01*
X123833333Y-118223809D01*
X125214285Y-117795238D02*
X125119047Y-117747619D01*
X124928571Y-117747619D01*
X124833333Y-117795238D01*
X124785714Y-117890476D01*
X124785714Y-118271428D01*
X124833333Y-118366666D01*
X124928571Y-118414285D01*
X125119047Y-118414285D01*
X125214285Y-118366666D01*
X125261904Y-118271428D01*
X125261904Y-118176190D01*
X124785714Y-118080952D01*
X125595238Y-118414285D02*
X125833333Y-117747619D01*
X126071428Y-118414285D01*
X126642857Y-118747619D02*
X126738095Y-118747619D01*
X126833333Y-118700000D01*
X126880952Y-118652380D01*
X126928571Y-118557142D01*
X126976190Y-118366666D01*
X126976190Y-118128571D01*
X126928571Y-117938095D01*
X126880952Y-117842857D01*
X126833333Y-117795238D01*
X126738095Y-117747619D01*
X126642857Y-117747619D01*
X126547619Y-117795238D01*
X126500000Y-117842857D01*
X126452380Y-117938095D01*
X126404761Y-118128571D01*
X126404761Y-118366666D01*
X126452380Y-118557142D01*
X126500000Y-118652380D01*
X126547619Y-118700000D01*
X126642857Y-118747619D01*
X127404761Y-117842857D02*
X127452380Y-117795238D01*
X127404761Y-117747619D01*
X127357142Y-117795238D01*
X127404761Y-117842857D01*
X127404761Y-117747619D01*
X128309523Y-118414285D02*
X128309523Y-117747619D01*
X128071428Y-118795238D02*
X127833333Y-118080952D01*
X128452380Y-118080952D01*
D12*
X134962779Y-117810000D02*
X134637221Y-117810000D01*
X134962779Y-116790000D02*
X134637221Y-116790000D01*
X180800000Y-107970000D02*
X180800000Y-107400000D01*
X186000000Y-107970000D02*
X186000000Y-107400000D01*
X180800000Y-110510000D02*
X180800000Y-109490000D01*
X186000000Y-110510000D02*
X186000000Y-109490000D01*
X180800000Y-112600000D02*
X180800000Y-112030000D01*
X180800000Y-112600000D02*
X186000000Y-112600000D01*
X179360000Y-112030000D02*
X180800000Y-112030000D01*
X186000000Y-112600000D02*
X186000000Y-112030000D01*
X180800000Y-107400000D02*
X186000000Y-107400000D01*
X158750000Y-110510000D02*
X158750000Y-109490000D01*
X153550000Y-110510000D02*
X153550000Y-109490000D01*
X158750000Y-107970000D02*
X158750000Y-107400000D01*
X153550000Y-107970000D02*
X153550000Y-107400000D01*
X158750000Y-112600000D02*
X158750000Y-112030000D01*
X153550000Y-112600000D02*
X153550000Y-112030000D01*
X152110000Y-112030000D02*
X153550000Y-112030000D01*
X153550000Y-107400000D02*
X158750000Y-107400000D01*
X153550000Y-112600000D02*
X158750000Y-112600000D01*
D10*
X136550000Y-106050000D02*
X136550000Y-112025000D01*
X143450000Y-107575000D02*
X143450000Y-112025000D01*
D12*
X149980000Y-111060000D02*
X149980000Y-109600000D01*
X146820000Y-111060000D02*
X146820000Y-108900000D01*
X146820000Y-111060000D02*
X147750000Y-111060000D01*
X149980000Y-111060000D02*
X149050000Y-111060000D01*
X144937221Y-100890000D02*
X145262779Y-100890000D01*
X144937221Y-101910000D02*
X145262779Y-101910000D01*
X138390000Y-104450279D02*
X138390000Y-104124721D01*
X139410000Y-104450279D02*
X139410000Y-104124721D01*
X146337221Y-115490000D02*
X146662779Y-115490000D01*
X146337221Y-116510000D02*
X146662779Y-116510000D01*
X144685000Y-116735000D02*
X142400000Y-116735000D01*
X144685000Y-115265000D02*
X144685000Y-116735000D01*
X142400000Y-115265000D02*
X144685000Y-115265000D01*
X146060000Y-109837221D02*
X146060000Y-110162779D01*
X145040000Y-109837221D02*
X145040000Y-110162779D01*
X150410000Y-113487221D02*
X150410000Y-113812779D01*
X149390000Y-113487221D02*
X149390000Y-113812779D01*
D10*
X135442857Y-116322380D02*
X135776190Y-115846190D01*
X136014285Y-116322380D02*
X136014285Y-115322380D01*
X135633333Y-115322380D01*
X135538095Y-115370000D01*
X135490476Y-115417619D01*
X135442857Y-115512857D01*
X135442857Y-115655714D01*
X135490476Y-115750952D01*
X135538095Y-115798571D01*
X135633333Y-115846190D01*
X136014285Y-115846190D01*
X134490476Y-116322380D02*
X135061904Y-116322380D01*
X134776190Y-116322380D02*
X134776190Y-115322380D01*
X134871428Y-115465238D01*
X134966666Y-115560476D01*
X135061904Y-115608095D01*
X133871428Y-115322380D02*
X133776190Y-115322380D01*
X133680952Y-115370000D01*
X133633333Y-115417619D01*
X133585714Y-115512857D01*
X133538095Y-115703333D01*
X133538095Y-115941428D01*
X133585714Y-116131904D01*
X133633333Y-116227142D01*
X133680952Y-116274761D01*
X133776190Y-116322380D01*
X133871428Y-116322380D01*
X133966666Y-116274761D01*
X134014285Y-116227142D01*
X134061904Y-116131904D01*
X134109523Y-115941428D01*
X134109523Y-115703333D01*
X134061904Y-115512857D01*
X134014285Y-115417619D01*
X133966666Y-115370000D01*
X133871428Y-115322380D01*
X135152380Y-109038095D02*
X135961904Y-109038095D01*
X136057142Y-109085714D01*
X136104761Y-109133333D01*
X136152380Y-109228571D01*
X136152380Y-109419047D01*
X136104761Y-109514285D01*
X136057142Y-109561904D01*
X135961904Y-109609523D01*
X135152380Y-109609523D01*
X135152380Y-109990476D02*
X135152380Y-110609523D01*
X135533333Y-110276190D01*
X135533333Y-110419047D01*
X135580952Y-110514285D01*
X135628571Y-110561904D01*
X135723809Y-110609523D01*
X135961904Y-110609523D01*
X136057142Y-110561904D01*
X136104761Y-110514285D01*
X136152380Y-110419047D01*
X136152380Y-110133333D01*
X136104761Y-110038095D01*
X136057142Y-109990476D01*
X145352380Y-109538095D02*
X146161904Y-109538095D01*
X146257142Y-109585714D01*
X146304761Y-109633333D01*
X146352380Y-109728571D01*
X146352380Y-109919047D01*
X146304761Y-110014285D01*
X146257142Y-110061904D01*
X146161904Y-110109523D01*
X145352380Y-110109523D01*
X145447619Y-110538095D02*
X145400000Y-110585714D01*
X145352380Y-110680952D01*
X145352380Y-110919047D01*
X145400000Y-111014285D01*
X145447619Y-111061904D01*
X145542857Y-111109523D01*
X145638095Y-111109523D01*
X145780952Y-111061904D01*
X146352380Y-110490476D01*
X146352380Y-111109523D01*
X145742857Y-103282380D02*
X146076190Y-102806190D01*
X146314285Y-103282380D02*
X146314285Y-102282380D01*
X145933333Y-102282380D01*
X145838095Y-102330000D01*
X145790476Y-102377619D01*
X145742857Y-102472857D01*
X145742857Y-102615714D01*
X145790476Y-102710952D01*
X145838095Y-102758571D01*
X145933333Y-102806190D01*
X146314285Y-102806190D01*
X145409523Y-102282380D02*
X144790476Y-102282380D01*
X145123809Y-102663333D01*
X144980952Y-102663333D01*
X144885714Y-102710952D01*
X144838095Y-102758571D01*
X144790476Y-102853809D01*
X144790476Y-103091904D01*
X144838095Y-103187142D01*
X144885714Y-103234761D01*
X144980952Y-103282380D01*
X145266666Y-103282380D01*
X145361904Y-103234761D01*
X145409523Y-103187142D01*
X144171428Y-102282380D02*
X144076190Y-102282380D01*
X143980952Y-102330000D01*
X143933333Y-102377619D01*
X143885714Y-102472857D01*
X143838095Y-102663333D01*
X143838095Y-102901428D01*
X143885714Y-103091904D01*
X143933333Y-103187142D01*
X143980952Y-103234761D01*
X144076190Y-103282380D01*
X144171428Y-103282380D01*
X144266666Y-103234761D01*
X144314285Y-103187142D01*
X144361904Y-103091904D01*
X144409523Y-102901428D01*
X144409523Y-102663333D01*
X144361904Y-102472857D01*
X144314285Y-102377619D01*
X144266666Y-102330000D01*
X144171428Y-102282380D01*
X140782380Y-103644642D02*
X140306190Y-103311309D01*
X140782380Y-103073214D02*
X139782380Y-103073214D01*
X139782380Y-103454166D01*
X139830000Y-103549404D01*
X139877619Y-103597023D01*
X139972857Y-103644642D01*
X140115714Y-103644642D01*
X140210952Y-103597023D01*
X140258571Y-103549404D01*
X140306190Y-103454166D01*
X140306190Y-103073214D01*
X139877619Y-104025595D02*
X139830000Y-104073214D01*
X139782380Y-104168452D01*
X139782380Y-104406547D01*
X139830000Y-104501785D01*
X139877619Y-104549404D01*
X139972857Y-104597023D01*
X140068095Y-104597023D01*
X140210952Y-104549404D01*
X140782380Y-103977976D01*
X140782380Y-104597023D01*
X140782380Y-105073214D02*
X140782380Y-105263690D01*
X140734761Y-105358928D01*
X140687142Y-105406547D01*
X140544285Y-105501785D01*
X140353809Y-105549404D01*
X139972857Y-105549404D01*
X139877619Y-105501785D01*
X139830000Y-105454166D01*
X139782380Y-105358928D01*
X139782380Y-105168452D01*
X139830000Y-105073214D01*
X139877619Y-105025595D01*
X139972857Y-104977976D01*
X140210952Y-104977976D01*
X140306190Y-105025595D01*
X140353809Y-105073214D01*
X140401428Y-105168452D01*
X140401428Y-105358928D01*
X140353809Y-105454166D01*
X140306190Y-105501785D01*
X140210952Y-105549404D01*
X147142857Y-117882380D02*
X147476190Y-117406190D01*
X147714285Y-117882380D02*
X147714285Y-116882380D01*
X147333333Y-116882380D01*
X147238095Y-116930000D01*
X147190476Y-116977619D01*
X147142857Y-117072857D01*
X147142857Y-117215714D01*
X147190476Y-117310952D01*
X147238095Y-117358571D01*
X147333333Y-117406190D01*
X147714285Y-117406190D01*
X146761904Y-116977619D02*
X146714285Y-116930000D01*
X146619047Y-116882380D01*
X146380952Y-116882380D01*
X146285714Y-116930000D01*
X146238095Y-116977619D01*
X146190476Y-117072857D01*
X146190476Y-117168095D01*
X146238095Y-117310952D01*
X146809523Y-117882380D01*
X146190476Y-117882380D01*
X145809523Y-116977619D02*
X145761904Y-116930000D01*
X145666666Y-116882380D01*
X145428571Y-116882380D01*
X145333333Y-116930000D01*
X145285714Y-116977619D01*
X145238095Y-117072857D01*
X145238095Y-117168095D01*
X145285714Y-117310952D01*
X145857142Y-117882380D01*
X145238095Y-117882380D01*
X143938095Y-115022380D02*
X143938095Y-114022380D01*
X143700000Y-114022380D01*
X143557142Y-114070000D01*
X143461904Y-114165238D01*
X143414285Y-114260476D01*
X143366666Y-114450952D01*
X143366666Y-114593809D01*
X143414285Y-114784285D01*
X143461904Y-114879523D01*
X143557142Y-114974761D01*
X143700000Y-115022380D01*
X143938095Y-115022380D01*
X142461904Y-114022380D02*
X142938095Y-114022380D01*
X142985714Y-114498571D01*
X142938095Y-114450952D01*
X142842857Y-114403333D01*
X142604761Y-114403333D01*
X142509523Y-114450952D01*
X142461904Y-114498571D01*
X142414285Y-114593809D01*
X142414285Y-114831904D01*
X142461904Y-114927142D01*
X142509523Y-114974761D01*
X142604761Y-115022380D01*
X142842857Y-115022380D01*
X142938095Y-114974761D01*
X142985714Y-114927142D01*
X144477142Y-109833333D02*
X144524761Y-109785714D01*
X144572380Y-109642857D01*
X144572380Y-109547619D01*
X144524761Y-109404761D01*
X144429523Y-109309523D01*
X144334285Y-109261904D01*
X144143809Y-109214285D01*
X144000952Y-109214285D01*
X143810476Y-109261904D01*
X143715238Y-109309523D01*
X143620000Y-109404761D01*
X143572380Y-109547619D01*
X143572380Y-109642857D01*
X143620000Y-109785714D01*
X143667619Y-109833333D01*
X143572380Y-110166666D02*
X143572380Y-110785714D01*
X143953333Y-110452380D01*
X143953333Y-110595238D01*
X144000952Y-110690476D01*
X144048571Y-110738095D01*
X144143809Y-110785714D01*
X144381904Y-110785714D01*
X144477142Y-110738095D01*
X144524761Y-110690476D01*
X144572380Y-110595238D01*
X144572380Y-110309523D01*
X144524761Y-110214285D01*
X144477142Y-110166666D01*
X148827142Y-113483333D02*
X148874761Y-113435714D01*
X148922380Y-113292857D01*
X148922380Y-113197619D01*
X148874761Y-113054761D01*
X148779523Y-112959523D01*
X148684285Y-112911904D01*
X148493809Y-112864285D01*
X148350952Y-112864285D01*
X148160476Y-112911904D01*
X148065238Y-112959523D01*
X147970000Y-113054761D01*
X147922380Y-113197619D01*
X147922380Y-113292857D01*
X147970000Y-113435714D01*
X148017619Y-113483333D01*
X148017619Y-113864285D02*
X147970000Y-113911904D01*
X147922380Y-114007142D01*
X147922380Y-114245238D01*
X147970000Y-114340476D01*
X148017619Y-114388095D01*
X148112857Y-114435714D01*
X148208095Y-114435714D01*
X148350952Y-114388095D01*
X148922380Y-113816666D01*
X148922380Y-114435714D01*
M02*
