G04 #@! TF.GenerationSoftware,KiCad,Pcbnew,(5.1.4)-1*
G04 #@! TF.CreationDate,2020-01-13T14:58:16-05:00*
G04 #@! TF.ProjectId,IRPanel,49525061-6e65-46c2-9e6b-696361645f70,rev?*
G04 #@! TF.SameCoordinates,Original*
G04 #@! TF.FileFunction,Soldermask,Top*
G04 #@! TF.FilePolarity,Negative*
%FSLAX46Y46*%
G04 Gerber Fmt 4.6, Leading zero omitted, Abs format (unit mm)*
G04 Created by KiCad (PCBNEW (5.1.4)-1) date 2020-01-13 14:58:16*
%MOMM*%
%LPD*%
G04 APERTURE LIST*
%ADD10C,0.100000*%
G04 APERTURE END LIST*
D10*
G36*
X154864903Y-91547075D02*
G01*
X155092571Y-91641378D01*
X155297466Y-91778285D01*
X155471715Y-91952534D01*
X155608622Y-92157429D01*
X155702925Y-92385097D01*
X155751000Y-92626787D01*
X155751000Y-92873213D01*
X155702925Y-93114903D01*
X155608622Y-93342571D01*
X155471715Y-93547466D01*
X155297466Y-93721715D01*
X155092571Y-93858622D01*
X155092570Y-93858623D01*
X155092569Y-93858623D01*
X154864903Y-93952925D01*
X154623214Y-94001000D01*
X154376786Y-94001000D01*
X154135097Y-93952925D01*
X153907431Y-93858623D01*
X153907430Y-93858623D01*
X153907429Y-93858622D01*
X153702534Y-93721715D01*
X153528285Y-93547466D01*
X153391378Y-93342571D01*
X153297075Y-93114903D01*
X153249000Y-92873213D01*
X153249000Y-92626787D01*
X153297075Y-92385097D01*
X153391378Y-92157429D01*
X153528285Y-91952534D01*
X153702534Y-91778285D01*
X153907429Y-91641378D01*
X154135097Y-91547075D01*
X154376786Y-91499000D01*
X154623214Y-91499000D01*
X154864903Y-91547075D01*
X154864903Y-91547075D01*
G37*
G36*
X152251000Y-94001000D02*
G01*
X149749000Y-94001000D01*
X149749000Y-91499000D01*
X152251000Y-91499000D01*
X152251000Y-94001000D01*
X152251000Y-94001000D01*
G37*
G36*
X176527104Y-85145518D02*
G01*
X176593289Y-85152037D01*
X176763128Y-85203557D01*
X176919653Y-85287222D01*
X176955391Y-85316552D01*
X177056848Y-85399814D01*
X177140110Y-85501271D01*
X177169440Y-85537009D01*
X177253105Y-85693534D01*
X177304625Y-85863373D01*
X177322021Y-86040000D01*
X177304625Y-86216627D01*
X177253105Y-86386466D01*
X177169440Y-86542991D01*
X177140110Y-86578729D01*
X177056848Y-86680186D01*
X176955391Y-86763448D01*
X176919653Y-86792778D01*
X176763128Y-86876443D01*
X176593289Y-86927963D01*
X176527104Y-86934482D01*
X176460922Y-86941000D01*
X176372402Y-86941000D01*
X176306220Y-86934482D01*
X176240035Y-86927963D01*
X176070196Y-86876443D01*
X175913671Y-86792778D01*
X175877933Y-86763448D01*
X175776476Y-86680186D01*
X175693214Y-86578729D01*
X175663884Y-86542991D01*
X175580219Y-86386466D01*
X175528699Y-86216627D01*
X175511303Y-86040000D01*
X175528699Y-85863373D01*
X175580219Y-85693534D01*
X175663884Y-85537009D01*
X175693214Y-85501271D01*
X175776476Y-85399814D01*
X175877933Y-85316552D01*
X175913671Y-85287222D01*
X176070196Y-85203557D01*
X176240035Y-85152037D01*
X176306220Y-85145518D01*
X176372402Y-85139000D01*
X176460922Y-85139000D01*
X176527104Y-85145518D01*
X176527104Y-85145518D01*
G37*
G36*
X157693772Y-85145518D02*
G01*
X157759957Y-85152037D01*
X157929796Y-85203557D01*
X158086321Y-85287222D01*
X158122059Y-85316552D01*
X158223516Y-85399814D01*
X158306778Y-85501271D01*
X158336108Y-85537009D01*
X158419773Y-85693534D01*
X158471293Y-85863373D01*
X158488689Y-86040000D01*
X158471293Y-86216627D01*
X158419773Y-86386466D01*
X158336108Y-86542991D01*
X158306778Y-86578729D01*
X158223516Y-86680186D01*
X158122059Y-86763448D01*
X158086321Y-86792778D01*
X157929796Y-86876443D01*
X157759957Y-86927963D01*
X157693772Y-86934482D01*
X157627590Y-86941000D01*
X157539070Y-86941000D01*
X157472888Y-86934482D01*
X157406703Y-86927963D01*
X157236864Y-86876443D01*
X157080339Y-86792778D01*
X157044601Y-86763448D01*
X156943144Y-86680186D01*
X156859882Y-86578729D01*
X156830552Y-86542991D01*
X156746887Y-86386466D01*
X156695367Y-86216627D01*
X156677971Y-86040000D01*
X156695367Y-85863373D01*
X156746887Y-85693534D01*
X156830552Y-85537009D01*
X156859882Y-85501271D01*
X156943144Y-85399814D01*
X157044601Y-85316552D01*
X157080339Y-85287222D01*
X157236864Y-85203557D01*
X157406703Y-85152037D01*
X157472888Y-85145518D01*
X157539070Y-85139000D01*
X157627590Y-85139000D01*
X157693772Y-85145518D01*
X157693772Y-85145518D01*
G37*
G36*
X110610442Y-85145518D02*
G01*
X110676627Y-85152037D01*
X110846466Y-85203557D01*
X111002991Y-85287222D01*
X111038729Y-85316552D01*
X111140186Y-85399814D01*
X111223448Y-85501271D01*
X111252778Y-85537009D01*
X111336443Y-85693534D01*
X111387963Y-85863373D01*
X111405359Y-86040000D01*
X111387963Y-86216627D01*
X111336443Y-86386466D01*
X111252778Y-86542991D01*
X111223448Y-86578729D01*
X111140186Y-86680186D01*
X111038729Y-86763448D01*
X111002991Y-86792778D01*
X110846466Y-86876443D01*
X110676627Y-86927963D01*
X110610442Y-86934482D01*
X110544260Y-86941000D01*
X110455740Y-86941000D01*
X110389558Y-86934482D01*
X110323373Y-86927963D01*
X110153534Y-86876443D01*
X109997009Y-86792778D01*
X109961271Y-86763448D01*
X109859814Y-86680186D01*
X109776552Y-86578729D01*
X109747222Y-86542991D01*
X109663557Y-86386466D01*
X109612037Y-86216627D01*
X109594641Y-86040000D01*
X109612037Y-85863373D01*
X109663557Y-85693534D01*
X109747222Y-85537009D01*
X109776552Y-85501271D01*
X109859814Y-85399814D01*
X109961271Y-85316552D01*
X109997009Y-85287222D01*
X110153534Y-85203557D01*
X110323373Y-85152037D01*
X110389558Y-85145518D01*
X110455740Y-85139000D01*
X110544260Y-85139000D01*
X110610442Y-85145518D01*
X110610442Y-85145518D01*
G37*
G36*
X120027108Y-85145518D02*
G01*
X120093293Y-85152037D01*
X120263132Y-85203557D01*
X120419657Y-85287222D01*
X120455395Y-85316552D01*
X120556852Y-85399814D01*
X120640114Y-85501271D01*
X120669444Y-85537009D01*
X120753109Y-85693534D01*
X120804629Y-85863373D01*
X120822025Y-86040000D01*
X120804629Y-86216627D01*
X120753109Y-86386466D01*
X120669444Y-86542991D01*
X120640114Y-86578729D01*
X120556852Y-86680186D01*
X120455395Y-86763448D01*
X120419657Y-86792778D01*
X120263132Y-86876443D01*
X120093293Y-86927963D01*
X120027108Y-86934482D01*
X119960926Y-86941000D01*
X119872406Y-86941000D01*
X119806224Y-86934482D01*
X119740039Y-86927963D01*
X119570200Y-86876443D01*
X119413675Y-86792778D01*
X119377937Y-86763448D01*
X119276480Y-86680186D01*
X119193218Y-86578729D01*
X119163888Y-86542991D01*
X119080223Y-86386466D01*
X119028703Y-86216627D01*
X119011307Y-86040000D01*
X119028703Y-85863373D01*
X119080223Y-85693534D01*
X119163888Y-85537009D01*
X119193218Y-85501271D01*
X119276480Y-85399814D01*
X119377937Y-85316552D01*
X119413675Y-85287222D01*
X119570200Y-85203557D01*
X119740039Y-85152037D01*
X119806224Y-85145518D01*
X119872406Y-85139000D01*
X119960926Y-85139000D01*
X120027108Y-85145518D01*
X120027108Y-85145518D01*
G37*
G36*
X185943770Y-85145518D02*
G01*
X186009955Y-85152037D01*
X186179794Y-85203557D01*
X186336319Y-85287222D01*
X186372057Y-85316552D01*
X186473514Y-85399814D01*
X186556776Y-85501271D01*
X186586106Y-85537009D01*
X186669771Y-85693534D01*
X186721291Y-85863373D01*
X186738687Y-86040000D01*
X186721291Y-86216627D01*
X186669771Y-86386466D01*
X186586106Y-86542991D01*
X186556776Y-86578729D01*
X186473514Y-86680186D01*
X186372057Y-86763448D01*
X186336319Y-86792778D01*
X186179794Y-86876443D01*
X186009955Y-86927963D01*
X185943770Y-86934482D01*
X185877588Y-86941000D01*
X185789068Y-86941000D01*
X185722886Y-86934482D01*
X185656701Y-86927963D01*
X185486862Y-86876443D01*
X185330337Y-86792778D01*
X185294599Y-86763448D01*
X185193142Y-86680186D01*
X185109880Y-86578729D01*
X185080550Y-86542991D01*
X184996885Y-86386466D01*
X184945365Y-86216627D01*
X184927969Y-86040000D01*
X184945365Y-85863373D01*
X184996885Y-85693534D01*
X185080550Y-85537009D01*
X185109880Y-85501271D01*
X185193142Y-85399814D01*
X185294599Y-85316552D01*
X185330337Y-85287222D01*
X185486862Y-85203557D01*
X185656701Y-85152037D01*
X185722886Y-85145518D01*
X185789068Y-85139000D01*
X185877588Y-85139000D01*
X185943770Y-85145518D01*
X185943770Y-85145518D01*
G37*
G36*
X195360442Y-85145518D02*
G01*
X195426627Y-85152037D01*
X195596466Y-85203557D01*
X195752991Y-85287222D01*
X195788729Y-85316552D01*
X195890186Y-85399814D01*
X195973448Y-85501271D01*
X196002778Y-85537009D01*
X196086443Y-85693534D01*
X196137963Y-85863373D01*
X196155359Y-86040000D01*
X196137963Y-86216627D01*
X196086443Y-86386466D01*
X196002778Y-86542991D01*
X195973448Y-86578729D01*
X195890186Y-86680186D01*
X195788729Y-86763448D01*
X195752991Y-86792778D01*
X195596466Y-86876443D01*
X195426627Y-86927963D01*
X195360442Y-86934482D01*
X195294260Y-86941000D01*
X195205740Y-86941000D01*
X195139558Y-86934482D01*
X195073373Y-86927963D01*
X194903534Y-86876443D01*
X194747009Y-86792778D01*
X194711271Y-86763448D01*
X194609814Y-86680186D01*
X194526552Y-86578729D01*
X194497222Y-86542991D01*
X194413557Y-86386466D01*
X194362037Y-86216627D01*
X194344641Y-86040000D01*
X194362037Y-85863373D01*
X194413557Y-85693534D01*
X194497222Y-85537009D01*
X194526552Y-85501271D01*
X194609814Y-85399814D01*
X194711271Y-85316552D01*
X194747009Y-85287222D01*
X194903534Y-85203557D01*
X195073373Y-85152037D01*
X195139558Y-85145518D01*
X195205740Y-85139000D01*
X195294260Y-85139000D01*
X195360442Y-85145518D01*
X195360442Y-85145518D01*
G37*
G36*
X148277106Y-85145518D02*
G01*
X148343291Y-85152037D01*
X148513130Y-85203557D01*
X148669655Y-85287222D01*
X148705393Y-85316552D01*
X148806850Y-85399814D01*
X148890112Y-85501271D01*
X148919442Y-85537009D01*
X149003107Y-85693534D01*
X149054627Y-85863373D01*
X149072023Y-86040000D01*
X149054627Y-86216627D01*
X149003107Y-86386466D01*
X148919442Y-86542991D01*
X148890112Y-86578729D01*
X148806850Y-86680186D01*
X148705393Y-86763448D01*
X148669655Y-86792778D01*
X148513130Y-86876443D01*
X148343291Y-86927963D01*
X148277106Y-86934482D01*
X148210924Y-86941000D01*
X148122404Y-86941000D01*
X148056222Y-86934482D01*
X147990037Y-86927963D01*
X147820198Y-86876443D01*
X147663673Y-86792778D01*
X147627935Y-86763448D01*
X147526478Y-86680186D01*
X147443216Y-86578729D01*
X147413886Y-86542991D01*
X147330221Y-86386466D01*
X147278701Y-86216627D01*
X147261305Y-86040000D01*
X147278701Y-85863373D01*
X147330221Y-85693534D01*
X147413886Y-85537009D01*
X147443216Y-85501271D01*
X147526478Y-85399814D01*
X147627935Y-85316552D01*
X147663673Y-85287222D01*
X147820198Y-85203557D01*
X147990037Y-85152037D01*
X148056222Y-85145518D01*
X148122404Y-85139000D01*
X148210924Y-85139000D01*
X148277106Y-85145518D01*
X148277106Y-85145518D01*
G37*
G36*
X129443774Y-85145518D02*
G01*
X129509959Y-85152037D01*
X129679798Y-85203557D01*
X129836323Y-85287222D01*
X129872061Y-85316552D01*
X129973518Y-85399814D01*
X130056780Y-85501271D01*
X130086110Y-85537009D01*
X130169775Y-85693534D01*
X130221295Y-85863373D01*
X130238691Y-86040000D01*
X130221295Y-86216627D01*
X130169775Y-86386466D01*
X130086110Y-86542991D01*
X130056780Y-86578729D01*
X129973518Y-86680186D01*
X129872061Y-86763448D01*
X129836323Y-86792778D01*
X129679798Y-86876443D01*
X129509959Y-86927963D01*
X129443774Y-86934482D01*
X129377592Y-86941000D01*
X129289072Y-86941000D01*
X129222890Y-86934482D01*
X129156705Y-86927963D01*
X128986866Y-86876443D01*
X128830341Y-86792778D01*
X128794603Y-86763448D01*
X128693146Y-86680186D01*
X128609884Y-86578729D01*
X128580554Y-86542991D01*
X128496889Y-86386466D01*
X128445369Y-86216627D01*
X128427973Y-86040000D01*
X128445369Y-85863373D01*
X128496889Y-85693534D01*
X128580554Y-85537009D01*
X128609884Y-85501271D01*
X128693146Y-85399814D01*
X128794603Y-85316552D01*
X128830341Y-85287222D01*
X128986866Y-85203557D01*
X129156705Y-85152037D01*
X129222890Y-85145518D01*
X129289072Y-85139000D01*
X129377592Y-85139000D01*
X129443774Y-85145518D01*
X129443774Y-85145518D01*
G37*
G36*
X138860440Y-85145518D02*
G01*
X138926625Y-85152037D01*
X139096464Y-85203557D01*
X139252989Y-85287222D01*
X139288727Y-85316552D01*
X139390184Y-85399814D01*
X139473446Y-85501271D01*
X139502776Y-85537009D01*
X139586441Y-85693534D01*
X139637961Y-85863373D01*
X139655357Y-86040000D01*
X139637961Y-86216627D01*
X139586441Y-86386466D01*
X139502776Y-86542991D01*
X139473446Y-86578729D01*
X139390184Y-86680186D01*
X139288727Y-86763448D01*
X139252989Y-86792778D01*
X139096464Y-86876443D01*
X138926625Y-86927963D01*
X138860440Y-86934482D01*
X138794258Y-86941000D01*
X138705738Y-86941000D01*
X138639556Y-86934482D01*
X138573371Y-86927963D01*
X138403532Y-86876443D01*
X138247007Y-86792778D01*
X138211269Y-86763448D01*
X138109812Y-86680186D01*
X138026550Y-86578729D01*
X137997220Y-86542991D01*
X137913555Y-86386466D01*
X137862035Y-86216627D01*
X137844639Y-86040000D01*
X137862035Y-85863373D01*
X137913555Y-85693534D01*
X137997220Y-85537009D01*
X138026550Y-85501271D01*
X138109812Y-85399814D01*
X138211269Y-85316552D01*
X138247007Y-85287222D01*
X138403532Y-85203557D01*
X138573371Y-85152037D01*
X138639556Y-85145518D01*
X138705738Y-85139000D01*
X138794258Y-85139000D01*
X138860440Y-85145518D01*
X138860440Y-85145518D01*
G37*
G36*
X167110438Y-85145518D02*
G01*
X167176623Y-85152037D01*
X167346462Y-85203557D01*
X167502987Y-85287222D01*
X167538725Y-85316552D01*
X167640182Y-85399814D01*
X167723444Y-85501271D01*
X167752774Y-85537009D01*
X167836439Y-85693534D01*
X167887959Y-85863373D01*
X167905355Y-86040000D01*
X167887959Y-86216627D01*
X167836439Y-86386466D01*
X167752774Y-86542991D01*
X167723444Y-86578729D01*
X167640182Y-86680186D01*
X167538725Y-86763448D01*
X167502987Y-86792778D01*
X167346462Y-86876443D01*
X167176623Y-86927963D01*
X167110438Y-86934482D01*
X167044256Y-86941000D01*
X166955736Y-86941000D01*
X166889554Y-86934482D01*
X166823369Y-86927963D01*
X166653530Y-86876443D01*
X166497005Y-86792778D01*
X166461267Y-86763448D01*
X166359810Y-86680186D01*
X166276548Y-86578729D01*
X166247218Y-86542991D01*
X166163553Y-86386466D01*
X166112033Y-86216627D01*
X166094637Y-86040000D01*
X166112033Y-85863373D01*
X166163553Y-85693534D01*
X166247218Y-85537009D01*
X166276548Y-85501271D01*
X166359810Y-85399814D01*
X166461267Y-85316552D01*
X166497005Y-85287222D01*
X166653530Y-85203557D01*
X166823369Y-85152037D01*
X166889554Y-85145518D01*
X166955736Y-85139000D01*
X167044256Y-85139000D01*
X167110438Y-85145518D01*
X167110438Y-85145518D01*
G37*
G36*
X106069085Y-82873975D02*
G01*
X106424143Y-83021045D01*
X106424145Y-83021046D01*
X106743690Y-83234559D01*
X107015441Y-83506310D01*
X107228954Y-83825855D01*
X107228955Y-83825857D01*
X107376025Y-84180915D01*
X107451000Y-84557842D01*
X107451000Y-84942158D01*
X107376025Y-85319085D01*
X107285757Y-85537011D01*
X107228954Y-85674145D01*
X107015441Y-85993690D01*
X106743690Y-86265441D01*
X106424145Y-86478954D01*
X106424144Y-86478955D01*
X106424143Y-86478955D01*
X106069085Y-86626025D01*
X105692158Y-86701000D01*
X105307842Y-86701000D01*
X104930915Y-86626025D01*
X104575857Y-86478955D01*
X104575856Y-86478955D01*
X104575855Y-86478954D01*
X104256310Y-86265441D01*
X103984559Y-85993690D01*
X103771046Y-85674145D01*
X103714243Y-85537011D01*
X103623975Y-85319085D01*
X103549000Y-84942158D01*
X103549000Y-84557842D01*
X103623975Y-84180915D01*
X103771045Y-83825857D01*
X103771046Y-83825855D01*
X103984559Y-83506310D01*
X104256310Y-83234559D01*
X104575855Y-83021046D01*
X104575857Y-83021045D01*
X104930915Y-82873975D01*
X105307842Y-82799000D01*
X105692158Y-82799000D01*
X106069085Y-82873975D01*
X106069085Y-82873975D01*
G37*
G36*
X200819085Y-82873975D02*
G01*
X201174143Y-83021045D01*
X201174145Y-83021046D01*
X201493690Y-83234559D01*
X201765441Y-83506310D01*
X201978954Y-83825855D01*
X201978955Y-83825857D01*
X202126025Y-84180915D01*
X202201000Y-84557842D01*
X202201000Y-84942158D01*
X202126025Y-85319085D01*
X202035757Y-85537011D01*
X201978954Y-85674145D01*
X201765441Y-85993690D01*
X201493690Y-86265441D01*
X201174145Y-86478954D01*
X201174144Y-86478955D01*
X201174143Y-86478955D01*
X200819085Y-86626025D01*
X200442158Y-86701000D01*
X200057842Y-86701000D01*
X199680915Y-86626025D01*
X199325857Y-86478955D01*
X199325856Y-86478955D01*
X199325855Y-86478954D01*
X199006310Y-86265441D01*
X198734559Y-85993690D01*
X198521046Y-85674145D01*
X198464243Y-85537011D01*
X198373975Y-85319085D01*
X198299000Y-84942158D01*
X198299000Y-84557842D01*
X198373975Y-84180915D01*
X198521045Y-83825857D01*
X198521046Y-83825855D01*
X198734559Y-83506310D01*
X199006310Y-83234559D01*
X199325855Y-83021046D01*
X199325857Y-83021045D01*
X199680915Y-82873975D01*
X200057842Y-82799000D01*
X200442158Y-82799000D01*
X200819085Y-82873975D01*
X200819085Y-82873975D01*
G37*
G36*
X177317662Y-84401000D02*
G01*
X175515662Y-84401000D01*
X175515662Y-82599000D01*
X177317662Y-82599000D01*
X177317662Y-84401000D01*
X177317662Y-84401000D01*
G37*
G36*
X111401000Y-84401000D02*
G01*
X109599000Y-84401000D01*
X109599000Y-82599000D01*
X111401000Y-82599000D01*
X111401000Y-84401000D01*
X111401000Y-84401000D01*
G37*
G36*
X120817666Y-84401000D02*
G01*
X119015666Y-84401000D01*
X119015666Y-82599000D01*
X120817666Y-82599000D01*
X120817666Y-84401000D01*
X120817666Y-84401000D01*
G37*
G36*
X139650998Y-84401000D02*
G01*
X137848998Y-84401000D01*
X137848998Y-82599000D01*
X139650998Y-82599000D01*
X139650998Y-84401000D01*
X139650998Y-84401000D01*
G37*
G36*
X130234332Y-84401000D02*
G01*
X128432332Y-84401000D01*
X128432332Y-82599000D01*
X130234332Y-82599000D01*
X130234332Y-84401000D01*
X130234332Y-84401000D01*
G37*
G36*
X186734328Y-84401000D02*
G01*
X184932328Y-84401000D01*
X184932328Y-82599000D01*
X186734328Y-82599000D01*
X186734328Y-84401000D01*
X186734328Y-84401000D01*
G37*
G36*
X196151000Y-84401000D02*
G01*
X194349000Y-84401000D01*
X194349000Y-82599000D01*
X196151000Y-82599000D01*
X196151000Y-84401000D01*
X196151000Y-84401000D01*
G37*
G36*
X167900996Y-84401000D02*
G01*
X166098996Y-84401000D01*
X166098996Y-82599000D01*
X167900996Y-82599000D01*
X167900996Y-84401000D01*
X167900996Y-84401000D01*
G37*
G36*
X149067664Y-84401000D02*
G01*
X147265664Y-84401000D01*
X147265664Y-82599000D01*
X149067664Y-82599000D01*
X149067664Y-84401000D01*
X149067664Y-84401000D01*
G37*
G36*
X158484330Y-84401000D02*
G01*
X156682330Y-84401000D01*
X156682330Y-82599000D01*
X158484330Y-82599000D01*
X158484330Y-84401000D01*
X158484330Y-84401000D01*
G37*
G36*
X171958537Y-79803085D02*
G01*
X171992515Y-79813393D01*
X172023836Y-79830134D01*
X172051285Y-79852661D01*
X172073812Y-79880110D01*
X172090553Y-79911431D01*
X172100861Y-79945409D01*
X172104946Y-79986890D01*
X172104946Y-80588110D01*
X172100861Y-80629591D01*
X172090553Y-80663569D01*
X172073812Y-80694890D01*
X172051285Y-80722339D01*
X172023836Y-80744866D01*
X171992515Y-80761607D01*
X171958537Y-80771915D01*
X171917056Y-80776000D01*
X171240836Y-80776000D01*
X171199355Y-80771915D01*
X171165377Y-80761607D01*
X171134056Y-80744866D01*
X171106607Y-80722339D01*
X171084080Y-80694890D01*
X171067339Y-80663569D01*
X171057031Y-80629591D01*
X171052946Y-80588110D01*
X171052946Y-79986890D01*
X171057031Y-79945409D01*
X171067339Y-79911431D01*
X171084080Y-79880110D01*
X171106607Y-79852661D01*
X171134056Y-79830134D01*
X171165377Y-79813393D01*
X171199355Y-79803085D01*
X171240836Y-79799000D01*
X171917056Y-79799000D01*
X171958537Y-79803085D01*
X171958537Y-79803085D01*
G37*
G36*
X107129591Y-79803085D02*
G01*
X107163569Y-79813393D01*
X107194890Y-79830134D01*
X107222339Y-79852661D01*
X107244866Y-79880110D01*
X107261607Y-79911431D01*
X107271915Y-79945409D01*
X107276000Y-79986890D01*
X107276000Y-80588110D01*
X107271915Y-80629591D01*
X107261607Y-80663569D01*
X107244866Y-80694890D01*
X107222339Y-80722339D01*
X107194890Y-80744866D01*
X107163569Y-80761607D01*
X107129591Y-80771915D01*
X107088110Y-80776000D01*
X106411890Y-80776000D01*
X106370409Y-80771915D01*
X106336431Y-80761607D01*
X106305110Y-80744866D01*
X106277661Y-80722339D01*
X106255134Y-80694890D01*
X106238393Y-80663569D01*
X106228085Y-80629591D01*
X106224000Y-80588110D01*
X106224000Y-79986890D01*
X106228085Y-79945409D01*
X106238393Y-79911431D01*
X106255134Y-79880110D01*
X106277661Y-79852661D01*
X106305110Y-79830134D01*
X106336431Y-79813393D01*
X106370409Y-79803085D01*
X106411890Y-79799000D01*
X107088110Y-79799000D01*
X107129591Y-79803085D01*
X107129591Y-79803085D01*
G37*
G36*
X112116433Y-79803085D02*
G01*
X112150411Y-79813393D01*
X112181732Y-79830134D01*
X112209181Y-79852661D01*
X112231708Y-79880110D01*
X112248449Y-79911431D01*
X112258757Y-79945409D01*
X112262842Y-79986890D01*
X112262842Y-80588110D01*
X112258757Y-80629591D01*
X112248449Y-80663569D01*
X112231708Y-80694890D01*
X112209181Y-80722339D01*
X112181732Y-80744866D01*
X112150411Y-80761607D01*
X112116433Y-80771915D01*
X112074952Y-80776000D01*
X111398732Y-80776000D01*
X111357251Y-80771915D01*
X111323273Y-80761607D01*
X111291952Y-80744866D01*
X111264503Y-80722339D01*
X111241976Y-80694890D01*
X111225235Y-80663569D01*
X111214927Y-80629591D01*
X111210842Y-80588110D01*
X111210842Y-79986890D01*
X111214927Y-79945409D01*
X111225235Y-79911431D01*
X111241976Y-79880110D01*
X111264503Y-79852661D01*
X111291952Y-79830134D01*
X111323273Y-79813393D01*
X111357251Y-79803085D01*
X111398732Y-79799000D01*
X112074952Y-79799000D01*
X112116433Y-79803085D01*
X112116433Y-79803085D01*
G37*
G36*
X117103275Y-79803085D02*
G01*
X117137253Y-79813393D01*
X117168574Y-79830134D01*
X117196023Y-79852661D01*
X117218550Y-79880110D01*
X117235291Y-79911431D01*
X117245599Y-79945409D01*
X117249684Y-79986890D01*
X117249684Y-80588110D01*
X117245599Y-80629591D01*
X117235291Y-80663569D01*
X117218550Y-80694890D01*
X117196023Y-80722339D01*
X117168574Y-80744866D01*
X117137253Y-80761607D01*
X117103275Y-80771915D01*
X117061794Y-80776000D01*
X116385574Y-80776000D01*
X116344093Y-80771915D01*
X116310115Y-80761607D01*
X116278794Y-80744866D01*
X116251345Y-80722339D01*
X116228818Y-80694890D01*
X116212077Y-80663569D01*
X116201769Y-80629591D01*
X116197684Y-80588110D01*
X116197684Y-79986890D01*
X116201769Y-79945409D01*
X116212077Y-79911431D01*
X116228818Y-79880110D01*
X116251345Y-79852661D01*
X116278794Y-79830134D01*
X116310115Y-79813393D01*
X116344093Y-79803085D01*
X116385574Y-79799000D01*
X117061794Y-79799000D01*
X117103275Y-79803085D01*
X117103275Y-79803085D01*
G37*
G36*
X122090117Y-79803085D02*
G01*
X122124095Y-79813393D01*
X122155416Y-79830134D01*
X122182865Y-79852661D01*
X122205392Y-79880110D01*
X122222133Y-79911431D01*
X122232441Y-79945409D01*
X122236526Y-79986890D01*
X122236526Y-80588110D01*
X122232441Y-80629591D01*
X122222133Y-80663569D01*
X122205392Y-80694890D01*
X122182865Y-80722339D01*
X122155416Y-80744866D01*
X122124095Y-80761607D01*
X122090117Y-80771915D01*
X122048636Y-80776000D01*
X121372416Y-80776000D01*
X121330935Y-80771915D01*
X121296957Y-80761607D01*
X121265636Y-80744866D01*
X121238187Y-80722339D01*
X121215660Y-80694890D01*
X121198919Y-80663569D01*
X121188611Y-80629591D01*
X121184526Y-80588110D01*
X121184526Y-79986890D01*
X121188611Y-79945409D01*
X121198919Y-79911431D01*
X121215660Y-79880110D01*
X121238187Y-79852661D01*
X121265636Y-79830134D01*
X121296957Y-79813393D01*
X121330935Y-79803085D01*
X121372416Y-79799000D01*
X122048636Y-79799000D01*
X122090117Y-79803085D01*
X122090117Y-79803085D01*
G37*
G36*
X127076959Y-79803085D02*
G01*
X127110937Y-79813393D01*
X127142258Y-79830134D01*
X127169707Y-79852661D01*
X127192234Y-79880110D01*
X127208975Y-79911431D01*
X127219283Y-79945409D01*
X127223368Y-79986890D01*
X127223368Y-80588110D01*
X127219283Y-80629591D01*
X127208975Y-80663569D01*
X127192234Y-80694890D01*
X127169707Y-80722339D01*
X127142258Y-80744866D01*
X127110937Y-80761607D01*
X127076959Y-80771915D01*
X127035478Y-80776000D01*
X126359258Y-80776000D01*
X126317777Y-80771915D01*
X126283799Y-80761607D01*
X126252478Y-80744866D01*
X126225029Y-80722339D01*
X126202502Y-80694890D01*
X126185761Y-80663569D01*
X126175453Y-80629591D01*
X126171368Y-80588110D01*
X126171368Y-79986890D01*
X126175453Y-79945409D01*
X126185761Y-79911431D01*
X126202502Y-79880110D01*
X126225029Y-79852661D01*
X126252478Y-79830134D01*
X126283799Y-79813393D01*
X126317777Y-79803085D01*
X126359258Y-79799000D01*
X127035478Y-79799000D01*
X127076959Y-79803085D01*
X127076959Y-79803085D01*
G37*
G36*
X132063801Y-79803085D02*
G01*
X132097779Y-79813393D01*
X132129100Y-79830134D01*
X132156549Y-79852661D01*
X132179076Y-79880110D01*
X132195817Y-79911431D01*
X132206125Y-79945409D01*
X132210210Y-79986890D01*
X132210210Y-80588110D01*
X132206125Y-80629591D01*
X132195817Y-80663569D01*
X132179076Y-80694890D01*
X132156549Y-80722339D01*
X132129100Y-80744866D01*
X132097779Y-80761607D01*
X132063801Y-80771915D01*
X132022320Y-80776000D01*
X131346100Y-80776000D01*
X131304619Y-80771915D01*
X131270641Y-80761607D01*
X131239320Y-80744866D01*
X131211871Y-80722339D01*
X131189344Y-80694890D01*
X131172603Y-80663569D01*
X131162295Y-80629591D01*
X131158210Y-80588110D01*
X131158210Y-79986890D01*
X131162295Y-79945409D01*
X131172603Y-79911431D01*
X131189344Y-79880110D01*
X131211871Y-79852661D01*
X131239320Y-79830134D01*
X131270641Y-79813393D01*
X131304619Y-79803085D01*
X131346100Y-79799000D01*
X132022320Y-79799000D01*
X132063801Y-79803085D01*
X132063801Y-79803085D01*
G37*
G36*
X137050643Y-79803085D02*
G01*
X137084621Y-79813393D01*
X137115942Y-79830134D01*
X137143391Y-79852661D01*
X137165918Y-79880110D01*
X137182659Y-79911431D01*
X137192967Y-79945409D01*
X137197052Y-79986890D01*
X137197052Y-80588110D01*
X137192967Y-80629591D01*
X137182659Y-80663569D01*
X137165918Y-80694890D01*
X137143391Y-80722339D01*
X137115942Y-80744866D01*
X137084621Y-80761607D01*
X137050643Y-80771915D01*
X137009162Y-80776000D01*
X136332942Y-80776000D01*
X136291461Y-80771915D01*
X136257483Y-80761607D01*
X136226162Y-80744866D01*
X136198713Y-80722339D01*
X136176186Y-80694890D01*
X136159445Y-80663569D01*
X136149137Y-80629591D01*
X136145052Y-80588110D01*
X136145052Y-79986890D01*
X136149137Y-79945409D01*
X136159445Y-79911431D01*
X136176186Y-79880110D01*
X136198713Y-79852661D01*
X136226162Y-79830134D01*
X136257483Y-79813393D01*
X136291461Y-79803085D01*
X136332942Y-79799000D01*
X137009162Y-79799000D01*
X137050643Y-79803085D01*
X137050643Y-79803085D01*
G37*
G36*
X142037485Y-79803085D02*
G01*
X142071463Y-79813393D01*
X142102784Y-79830134D01*
X142130233Y-79852661D01*
X142152760Y-79880110D01*
X142169501Y-79911431D01*
X142179809Y-79945409D01*
X142183894Y-79986890D01*
X142183894Y-80588110D01*
X142179809Y-80629591D01*
X142169501Y-80663569D01*
X142152760Y-80694890D01*
X142130233Y-80722339D01*
X142102784Y-80744866D01*
X142071463Y-80761607D01*
X142037485Y-80771915D01*
X141996004Y-80776000D01*
X141319784Y-80776000D01*
X141278303Y-80771915D01*
X141244325Y-80761607D01*
X141213004Y-80744866D01*
X141185555Y-80722339D01*
X141163028Y-80694890D01*
X141146287Y-80663569D01*
X141135979Y-80629591D01*
X141131894Y-80588110D01*
X141131894Y-79986890D01*
X141135979Y-79945409D01*
X141146287Y-79911431D01*
X141163028Y-79880110D01*
X141185555Y-79852661D01*
X141213004Y-79830134D01*
X141244325Y-79813393D01*
X141278303Y-79803085D01*
X141319784Y-79799000D01*
X141996004Y-79799000D01*
X142037485Y-79803085D01*
X142037485Y-79803085D01*
G37*
G36*
X147024327Y-79803085D02*
G01*
X147058305Y-79813393D01*
X147089626Y-79830134D01*
X147117075Y-79852661D01*
X147139602Y-79880110D01*
X147156343Y-79911431D01*
X147166651Y-79945409D01*
X147170736Y-79986890D01*
X147170736Y-80588110D01*
X147166651Y-80629591D01*
X147156343Y-80663569D01*
X147139602Y-80694890D01*
X147117075Y-80722339D01*
X147089626Y-80744866D01*
X147058305Y-80761607D01*
X147024327Y-80771915D01*
X146982846Y-80776000D01*
X146306626Y-80776000D01*
X146265145Y-80771915D01*
X146231167Y-80761607D01*
X146199846Y-80744866D01*
X146172397Y-80722339D01*
X146149870Y-80694890D01*
X146133129Y-80663569D01*
X146122821Y-80629591D01*
X146118736Y-80588110D01*
X146118736Y-79986890D01*
X146122821Y-79945409D01*
X146133129Y-79911431D01*
X146149870Y-79880110D01*
X146172397Y-79852661D01*
X146199846Y-79830134D01*
X146231167Y-79813393D01*
X146265145Y-79803085D01*
X146306626Y-79799000D01*
X146982846Y-79799000D01*
X147024327Y-79803085D01*
X147024327Y-79803085D01*
G37*
G36*
X156998011Y-79803085D02*
G01*
X157031989Y-79813393D01*
X157063310Y-79830134D01*
X157090759Y-79852661D01*
X157113286Y-79880110D01*
X157130027Y-79911431D01*
X157140335Y-79945409D01*
X157144420Y-79986890D01*
X157144420Y-80588110D01*
X157140335Y-80629591D01*
X157130027Y-80663569D01*
X157113286Y-80694890D01*
X157090759Y-80722339D01*
X157063310Y-80744866D01*
X157031989Y-80761607D01*
X156998011Y-80771915D01*
X156956530Y-80776000D01*
X156280310Y-80776000D01*
X156238829Y-80771915D01*
X156204851Y-80761607D01*
X156173530Y-80744866D01*
X156146081Y-80722339D01*
X156123554Y-80694890D01*
X156106813Y-80663569D01*
X156096505Y-80629591D01*
X156092420Y-80588110D01*
X156092420Y-79986890D01*
X156096505Y-79945409D01*
X156106813Y-79911431D01*
X156123554Y-79880110D01*
X156146081Y-79852661D01*
X156173530Y-79830134D01*
X156204851Y-79813393D01*
X156238829Y-79803085D01*
X156280310Y-79799000D01*
X156956530Y-79799000D01*
X156998011Y-79803085D01*
X156998011Y-79803085D01*
G37*
G36*
X161984853Y-79803085D02*
G01*
X162018831Y-79813393D01*
X162050152Y-79830134D01*
X162077601Y-79852661D01*
X162100128Y-79880110D01*
X162116869Y-79911431D01*
X162127177Y-79945409D01*
X162131262Y-79986890D01*
X162131262Y-80588110D01*
X162127177Y-80629591D01*
X162116869Y-80663569D01*
X162100128Y-80694890D01*
X162077601Y-80722339D01*
X162050152Y-80744866D01*
X162018831Y-80761607D01*
X161984853Y-80771915D01*
X161943372Y-80776000D01*
X161267152Y-80776000D01*
X161225671Y-80771915D01*
X161191693Y-80761607D01*
X161160372Y-80744866D01*
X161132923Y-80722339D01*
X161110396Y-80694890D01*
X161093655Y-80663569D01*
X161083347Y-80629591D01*
X161079262Y-80588110D01*
X161079262Y-79986890D01*
X161083347Y-79945409D01*
X161093655Y-79911431D01*
X161110396Y-79880110D01*
X161132923Y-79852661D01*
X161160372Y-79830134D01*
X161191693Y-79813393D01*
X161225671Y-79803085D01*
X161267152Y-79799000D01*
X161943372Y-79799000D01*
X161984853Y-79803085D01*
X161984853Y-79803085D01*
G37*
G36*
X166971695Y-79803085D02*
G01*
X167005673Y-79813393D01*
X167036994Y-79830134D01*
X167064443Y-79852661D01*
X167086970Y-79880110D01*
X167103711Y-79911431D01*
X167114019Y-79945409D01*
X167118104Y-79986890D01*
X167118104Y-80588110D01*
X167114019Y-80629591D01*
X167103711Y-80663569D01*
X167086970Y-80694890D01*
X167064443Y-80722339D01*
X167036994Y-80744866D01*
X167005673Y-80761607D01*
X166971695Y-80771915D01*
X166930214Y-80776000D01*
X166253994Y-80776000D01*
X166212513Y-80771915D01*
X166178535Y-80761607D01*
X166147214Y-80744866D01*
X166119765Y-80722339D01*
X166097238Y-80694890D01*
X166080497Y-80663569D01*
X166070189Y-80629591D01*
X166066104Y-80588110D01*
X166066104Y-79986890D01*
X166070189Y-79945409D01*
X166080497Y-79911431D01*
X166097238Y-79880110D01*
X166119765Y-79852661D01*
X166147214Y-79830134D01*
X166178535Y-79813393D01*
X166212513Y-79803085D01*
X166253994Y-79799000D01*
X166930214Y-79799000D01*
X166971695Y-79803085D01*
X166971695Y-79803085D01*
G37*
G36*
X196892747Y-79803085D02*
G01*
X196926725Y-79813393D01*
X196958046Y-79830134D01*
X196985495Y-79852661D01*
X197008022Y-79880110D01*
X197024763Y-79911431D01*
X197035071Y-79945409D01*
X197039156Y-79986890D01*
X197039156Y-80588110D01*
X197035071Y-80629591D01*
X197024763Y-80663569D01*
X197008022Y-80694890D01*
X196985495Y-80722339D01*
X196958046Y-80744866D01*
X196926725Y-80761607D01*
X196892747Y-80771915D01*
X196851266Y-80776000D01*
X196175046Y-80776000D01*
X196133565Y-80771915D01*
X196099587Y-80761607D01*
X196068266Y-80744866D01*
X196040817Y-80722339D01*
X196018290Y-80694890D01*
X196001549Y-80663569D01*
X195991241Y-80629591D01*
X195987156Y-80588110D01*
X195987156Y-79986890D01*
X195991241Y-79945409D01*
X196001549Y-79911431D01*
X196018290Y-79880110D01*
X196040817Y-79852661D01*
X196068266Y-79830134D01*
X196099587Y-79813393D01*
X196133565Y-79803085D01*
X196175046Y-79799000D01*
X196851266Y-79799000D01*
X196892747Y-79803085D01*
X196892747Y-79803085D01*
G37*
G36*
X191905905Y-79803085D02*
G01*
X191939883Y-79813393D01*
X191971204Y-79830134D01*
X191998653Y-79852661D01*
X192021180Y-79880110D01*
X192037921Y-79911431D01*
X192048229Y-79945409D01*
X192052314Y-79986890D01*
X192052314Y-80588110D01*
X192048229Y-80629591D01*
X192037921Y-80663569D01*
X192021180Y-80694890D01*
X191998653Y-80722339D01*
X191971204Y-80744866D01*
X191939883Y-80761607D01*
X191905905Y-80771915D01*
X191864424Y-80776000D01*
X191188204Y-80776000D01*
X191146723Y-80771915D01*
X191112745Y-80761607D01*
X191081424Y-80744866D01*
X191053975Y-80722339D01*
X191031448Y-80694890D01*
X191014707Y-80663569D01*
X191004399Y-80629591D01*
X191000314Y-80588110D01*
X191000314Y-79986890D01*
X191004399Y-79945409D01*
X191014707Y-79911431D01*
X191031448Y-79880110D01*
X191053975Y-79852661D01*
X191081424Y-79830134D01*
X191112745Y-79813393D01*
X191146723Y-79803085D01*
X191188204Y-79799000D01*
X191864424Y-79799000D01*
X191905905Y-79803085D01*
X191905905Y-79803085D01*
G37*
G36*
X186919063Y-79803085D02*
G01*
X186953041Y-79813393D01*
X186984362Y-79830134D01*
X187011811Y-79852661D01*
X187034338Y-79880110D01*
X187051079Y-79911431D01*
X187061387Y-79945409D01*
X187065472Y-79986890D01*
X187065472Y-80588110D01*
X187061387Y-80629591D01*
X187051079Y-80663569D01*
X187034338Y-80694890D01*
X187011811Y-80722339D01*
X186984362Y-80744866D01*
X186953041Y-80761607D01*
X186919063Y-80771915D01*
X186877582Y-80776000D01*
X186201362Y-80776000D01*
X186159881Y-80771915D01*
X186125903Y-80761607D01*
X186094582Y-80744866D01*
X186067133Y-80722339D01*
X186044606Y-80694890D01*
X186027865Y-80663569D01*
X186017557Y-80629591D01*
X186013472Y-80588110D01*
X186013472Y-79986890D01*
X186017557Y-79945409D01*
X186027865Y-79911431D01*
X186044606Y-79880110D01*
X186067133Y-79852661D01*
X186094582Y-79830134D01*
X186125903Y-79813393D01*
X186159881Y-79803085D01*
X186201362Y-79799000D01*
X186877582Y-79799000D01*
X186919063Y-79803085D01*
X186919063Y-79803085D01*
G37*
G36*
X152011169Y-79803085D02*
G01*
X152045147Y-79813393D01*
X152076468Y-79830134D01*
X152103917Y-79852661D01*
X152126444Y-79880110D01*
X152143185Y-79911431D01*
X152153493Y-79945409D01*
X152157578Y-79986890D01*
X152157578Y-80588110D01*
X152153493Y-80629591D01*
X152143185Y-80663569D01*
X152126444Y-80694890D01*
X152103917Y-80722339D01*
X152076468Y-80744866D01*
X152045147Y-80761607D01*
X152011169Y-80771915D01*
X151969688Y-80776000D01*
X151293468Y-80776000D01*
X151251987Y-80771915D01*
X151218009Y-80761607D01*
X151186688Y-80744866D01*
X151159239Y-80722339D01*
X151136712Y-80694890D01*
X151119971Y-80663569D01*
X151109663Y-80629591D01*
X151105578Y-80588110D01*
X151105578Y-79986890D01*
X151109663Y-79945409D01*
X151119971Y-79911431D01*
X151136712Y-79880110D01*
X151159239Y-79852661D01*
X151186688Y-79830134D01*
X151218009Y-79813393D01*
X151251987Y-79803085D01*
X151293468Y-79799000D01*
X151969688Y-79799000D01*
X152011169Y-79803085D01*
X152011169Y-79803085D01*
G37*
G36*
X181932221Y-79803085D02*
G01*
X181966199Y-79813393D01*
X181997520Y-79830134D01*
X182024969Y-79852661D01*
X182047496Y-79880110D01*
X182064237Y-79911431D01*
X182074545Y-79945409D01*
X182078630Y-79986890D01*
X182078630Y-80588110D01*
X182074545Y-80629591D01*
X182064237Y-80663569D01*
X182047496Y-80694890D01*
X182024969Y-80722339D01*
X181997520Y-80744866D01*
X181966199Y-80761607D01*
X181932221Y-80771915D01*
X181890740Y-80776000D01*
X181214520Y-80776000D01*
X181173039Y-80771915D01*
X181139061Y-80761607D01*
X181107740Y-80744866D01*
X181080291Y-80722339D01*
X181057764Y-80694890D01*
X181041023Y-80663569D01*
X181030715Y-80629591D01*
X181026630Y-80588110D01*
X181026630Y-79986890D01*
X181030715Y-79945409D01*
X181041023Y-79911431D01*
X181057764Y-79880110D01*
X181080291Y-79852661D01*
X181107740Y-79830134D01*
X181139061Y-79813393D01*
X181173039Y-79803085D01*
X181214520Y-79799000D01*
X181890740Y-79799000D01*
X181932221Y-79803085D01*
X181932221Y-79803085D01*
G37*
G36*
X176945379Y-79803085D02*
G01*
X176979357Y-79813393D01*
X177010678Y-79830134D01*
X177038127Y-79852661D01*
X177060654Y-79880110D01*
X177077395Y-79911431D01*
X177087703Y-79945409D01*
X177091788Y-79986890D01*
X177091788Y-80588110D01*
X177087703Y-80629591D01*
X177077395Y-80663569D01*
X177060654Y-80694890D01*
X177038127Y-80722339D01*
X177010678Y-80744866D01*
X176979357Y-80761607D01*
X176945379Y-80771915D01*
X176903898Y-80776000D01*
X176227678Y-80776000D01*
X176186197Y-80771915D01*
X176152219Y-80761607D01*
X176120898Y-80744866D01*
X176093449Y-80722339D01*
X176070922Y-80694890D01*
X176054181Y-80663569D01*
X176043873Y-80629591D01*
X176039788Y-80588110D01*
X176039788Y-79986890D01*
X176043873Y-79945409D01*
X176054181Y-79911431D01*
X176070922Y-79880110D01*
X176093449Y-79852661D01*
X176120898Y-79830134D01*
X176152219Y-79813393D01*
X176186197Y-79803085D01*
X176227678Y-79799000D01*
X176903898Y-79799000D01*
X176945379Y-79803085D01*
X176945379Y-79803085D01*
G37*
G36*
X201879591Y-79803085D02*
G01*
X201913569Y-79813393D01*
X201944890Y-79830134D01*
X201972339Y-79852661D01*
X201994866Y-79880110D01*
X202011607Y-79911431D01*
X202021915Y-79945409D01*
X202026000Y-79986890D01*
X202026000Y-80588110D01*
X202021915Y-80629591D01*
X202011607Y-80663569D01*
X201994866Y-80694890D01*
X201972339Y-80722339D01*
X201944890Y-80744866D01*
X201913569Y-80761607D01*
X201879591Y-80771915D01*
X201838110Y-80776000D01*
X201161890Y-80776000D01*
X201120409Y-80771915D01*
X201086431Y-80761607D01*
X201055110Y-80744866D01*
X201027661Y-80722339D01*
X201005134Y-80694890D01*
X200988393Y-80663569D01*
X200978085Y-80629591D01*
X200974000Y-80588110D01*
X200974000Y-79986890D01*
X200978085Y-79945409D01*
X200988393Y-79911431D01*
X201005134Y-79880110D01*
X201027661Y-79852661D01*
X201055110Y-79830134D01*
X201086431Y-79813393D01*
X201120409Y-79803085D01*
X201161890Y-79799000D01*
X201838110Y-79799000D01*
X201879591Y-79803085D01*
X201879591Y-79803085D01*
G37*
G36*
X107129591Y-78228085D02*
G01*
X107163569Y-78238393D01*
X107194890Y-78255134D01*
X107222339Y-78277661D01*
X107244866Y-78305110D01*
X107261607Y-78336431D01*
X107271915Y-78370409D01*
X107276000Y-78411890D01*
X107276000Y-79013110D01*
X107271915Y-79054591D01*
X107261607Y-79088569D01*
X107244866Y-79119890D01*
X107222339Y-79147339D01*
X107194890Y-79169866D01*
X107163569Y-79186607D01*
X107129591Y-79196915D01*
X107088110Y-79201000D01*
X106411890Y-79201000D01*
X106370409Y-79196915D01*
X106336431Y-79186607D01*
X106305110Y-79169866D01*
X106277661Y-79147339D01*
X106255134Y-79119890D01*
X106238393Y-79088569D01*
X106228085Y-79054591D01*
X106224000Y-79013110D01*
X106224000Y-78411890D01*
X106228085Y-78370409D01*
X106238393Y-78336431D01*
X106255134Y-78305110D01*
X106277661Y-78277661D01*
X106305110Y-78255134D01*
X106336431Y-78238393D01*
X106370409Y-78228085D01*
X106411890Y-78224000D01*
X107088110Y-78224000D01*
X107129591Y-78228085D01*
X107129591Y-78228085D01*
G37*
G36*
X161984853Y-78228085D02*
G01*
X162018831Y-78238393D01*
X162050152Y-78255134D01*
X162077601Y-78277661D01*
X162100128Y-78305110D01*
X162116869Y-78336431D01*
X162127177Y-78370409D01*
X162131262Y-78411890D01*
X162131262Y-79013110D01*
X162127177Y-79054591D01*
X162116869Y-79088569D01*
X162100128Y-79119890D01*
X162077601Y-79147339D01*
X162050152Y-79169866D01*
X162018831Y-79186607D01*
X161984853Y-79196915D01*
X161943372Y-79201000D01*
X161267152Y-79201000D01*
X161225671Y-79196915D01*
X161191693Y-79186607D01*
X161160372Y-79169866D01*
X161132923Y-79147339D01*
X161110396Y-79119890D01*
X161093655Y-79088569D01*
X161083347Y-79054591D01*
X161079262Y-79013110D01*
X161079262Y-78411890D01*
X161083347Y-78370409D01*
X161093655Y-78336431D01*
X161110396Y-78305110D01*
X161132923Y-78277661D01*
X161160372Y-78255134D01*
X161191693Y-78238393D01*
X161225671Y-78228085D01*
X161267152Y-78224000D01*
X161943372Y-78224000D01*
X161984853Y-78228085D01*
X161984853Y-78228085D01*
G37*
G36*
X176945379Y-78228085D02*
G01*
X176979357Y-78238393D01*
X177010678Y-78255134D01*
X177038127Y-78277661D01*
X177060654Y-78305110D01*
X177077395Y-78336431D01*
X177087703Y-78370409D01*
X177091788Y-78411890D01*
X177091788Y-79013110D01*
X177087703Y-79054591D01*
X177077395Y-79088569D01*
X177060654Y-79119890D01*
X177038127Y-79147339D01*
X177010678Y-79169866D01*
X176979357Y-79186607D01*
X176945379Y-79196915D01*
X176903898Y-79201000D01*
X176227678Y-79201000D01*
X176186197Y-79196915D01*
X176152219Y-79186607D01*
X176120898Y-79169866D01*
X176093449Y-79147339D01*
X176070922Y-79119890D01*
X176054181Y-79088569D01*
X176043873Y-79054591D01*
X176039788Y-79013110D01*
X176039788Y-78411890D01*
X176043873Y-78370409D01*
X176054181Y-78336431D01*
X176070922Y-78305110D01*
X176093449Y-78277661D01*
X176120898Y-78255134D01*
X176152219Y-78238393D01*
X176186197Y-78228085D01*
X176227678Y-78224000D01*
X176903898Y-78224000D01*
X176945379Y-78228085D01*
X176945379Y-78228085D01*
G37*
G36*
X147024327Y-78228085D02*
G01*
X147058305Y-78238393D01*
X147089626Y-78255134D01*
X147117075Y-78277661D01*
X147139602Y-78305110D01*
X147156343Y-78336431D01*
X147166651Y-78370409D01*
X147170736Y-78411890D01*
X147170736Y-79013110D01*
X147166651Y-79054591D01*
X147156343Y-79088569D01*
X147139602Y-79119890D01*
X147117075Y-79147339D01*
X147089626Y-79169866D01*
X147058305Y-79186607D01*
X147024327Y-79196915D01*
X146982846Y-79201000D01*
X146306626Y-79201000D01*
X146265145Y-79196915D01*
X146231167Y-79186607D01*
X146199846Y-79169866D01*
X146172397Y-79147339D01*
X146149870Y-79119890D01*
X146133129Y-79088569D01*
X146122821Y-79054591D01*
X146118736Y-79013110D01*
X146118736Y-78411890D01*
X146122821Y-78370409D01*
X146133129Y-78336431D01*
X146149870Y-78305110D01*
X146172397Y-78277661D01*
X146199846Y-78255134D01*
X146231167Y-78238393D01*
X146265145Y-78228085D01*
X146306626Y-78224000D01*
X146982846Y-78224000D01*
X147024327Y-78228085D01*
X147024327Y-78228085D01*
G37*
G36*
X171958537Y-78228085D02*
G01*
X171992515Y-78238393D01*
X172023836Y-78255134D01*
X172051285Y-78277661D01*
X172073812Y-78305110D01*
X172090553Y-78336431D01*
X172100861Y-78370409D01*
X172104946Y-78411890D01*
X172104946Y-79013110D01*
X172100861Y-79054591D01*
X172090553Y-79088569D01*
X172073812Y-79119890D01*
X172051285Y-79147339D01*
X172023836Y-79169866D01*
X171992515Y-79186607D01*
X171958537Y-79196915D01*
X171917056Y-79201000D01*
X171240836Y-79201000D01*
X171199355Y-79196915D01*
X171165377Y-79186607D01*
X171134056Y-79169866D01*
X171106607Y-79147339D01*
X171084080Y-79119890D01*
X171067339Y-79088569D01*
X171057031Y-79054591D01*
X171052946Y-79013110D01*
X171052946Y-78411890D01*
X171057031Y-78370409D01*
X171067339Y-78336431D01*
X171084080Y-78305110D01*
X171106607Y-78277661D01*
X171134056Y-78255134D01*
X171165377Y-78238393D01*
X171199355Y-78228085D01*
X171240836Y-78224000D01*
X171917056Y-78224000D01*
X171958537Y-78228085D01*
X171958537Y-78228085D01*
G37*
G36*
X152011169Y-78228085D02*
G01*
X152045147Y-78238393D01*
X152076468Y-78255134D01*
X152103917Y-78277661D01*
X152126444Y-78305110D01*
X152143185Y-78336431D01*
X152153493Y-78370409D01*
X152157578Y-78411890D01*
X152157578Y-79013110D01*
X152153493Y-79054591D01*
X152143185Y-79088569D01*
X152126444Y-79119890D01*
X152103917Y-79147339D01*
X152076468Y-79169866D01*
X152045147Y-79186607D01*
X152011169Y-79196915D01*
X151969688Y-79201000D01*
X151293468Y-79201000D01*
X151251987Y-79196915D01*
X151218009Y-79186607D01*
X151186688Y-79169866D01*
X151159239Y-79147339D01*
X151136712Y-79119890D01*
X151119971Y-79088569D01*
X151109663Y-79054591D01*
X151105578Y-79013110D01*
X151105578Y-78411890D01*
X151109663Y-78370409D01*
X151119971Y-78336431D01*
X151136712Y-78305110D01*
X151159239Y-78277661D01*
X151186688Y-78255134D01*
X151218009Y-78238393D01*
X151251987Y-78228085D01*
X151293468Y-78224000D01*
X151969688Y-78224000D01*
X152011169Y-78228085D01*
X152011169Y-78228085D01*
G37*
G36*
X166971695Y-78228085D02*
G01*
X167005673Y-78238393D01*
X167036994Y-78255134D01*
X167064443Y-78277661D01*
X167086970Y-78305110D01*
X167103711Y-78336431D01*
X167114019Y-78370409D01*
X167118104Y-78411890D01*
X167118104Y-79013110D01*
X167114019Y-79054591D01*
X167103711Y-79088569D01*
X167086970Y-79119890D01*
X167064443Y-79147339D01*
X167036994Y-79169866D01*
X167005673Y-79186607D01*
X166971695Y-79196915D01*
X166930214Y-79201000D01*
X166253994Y-79201000D01*
X166212513Y-79196915D01*
X166178535Y-79186607D01*
X166147214Y-79169866D01*
X166119765Y-79147339D01*
X166097238Y-79119890D01*
X166080497Y-79088569D01*
X166070189Y-79054591D01*
X166066104Y-79013110D01*
X166066104Y-78411890D01*
X166070189Y-78370409D01*
X166080497Y-78336431D01*
X166097238Y-78305110D01*
X166119765Y-78277661D01*
X166147214Y-78255134D01*
X166178535Y-78238393D01*
X166212513Y-78228085D01*
X166253994Y-78224000D01*
X166930214Y-78224000D01*
X166971695Y-78228085D01*
X166971695Y-78228085D01*
G37*
G36*
X156998011Y-78228085D02*
G01*
X157031989Y-78238393D01*
X157063310Y-78255134D01*
X157090759Y-78277661D01*
X157113286Y-78305110D01*
X157130027Y-78336431D01*
X157140335Y-78370409D01*
X157144420Y-78411890D01*
X157144420Y-79013110D01*
X157140335Y-79054591D01*
X157130027Y-79088569D01*
X157113286Y-79119890D01*
X157090759Y-79147339D01*
X157063310Y-79169866D01*
X157031989Y-79186607D01*
X156998011Y-79196915D01*
X156956530Y-79201000D01*
X156280310Y-79201000D01*
X156238829Y-79196915D01*
X156204851Y-79186607D01*
X156173530Y-79169866D01*
X156146081Y-79147339D01*
X156123554Y-79119890D01*
X156106813Y-79088569D01*
X156096505Y-79054591D01*
X156092420Y-79013110D01*
X156092420Y-78411890D01*
X156096505Y-78370409D01*
X156106813Y-78336431D01*
X156123554Y-78305110D01*
X156146081Y-78277661D01*
X156173530Y-78255134D01*
X156204851Y-78238393D01*
X156238829Y-78228085D01*
X156280310Y-78224000D01*
X156956530Y-78224000D01*
X156998011Y-78228085D01*
X156998011Y-78228085D01*
G37*
G36*
X186919063Y-78228085D02*
G01*
X186953041Y-78238393D01*
X186984362Y-78255134D01*
X187011811Y-78277661D01*
X187034338Y-78305110D01*
X187051079Y-78336431D01*
X187061387Y-78370409D01*
X187065472Y-78411890D01*
X187065472Y-79013110D01*
X187061387Y-79054591D01*
X187051079Y-79088569D01*
X187034338Y-79119890D01*
X187011811Y-79147339D01*
X186984362Y-79169866D01*
X186953041Y-79186607D01*
X186919063Y-79196915D01*
X186877582Y-79201000D01*
X186201362Y-79201000D01*
X186159881Y-79196915D01*
X186125903Y-79186607D01*
X186094582Y-79169866D01*
X186067133Y-79147339D01*
X186044606Y-79119890D01*
X186027865Y-79088569D01*
X186017557Y-79054591D01*
X186013472Y-79013110D01*
X186013472Y-78411890D01*
X186017557Y-78370409D01*
X186027865Y-78336431D01*
X186044606Y-78305110D01*
X186067133Y-78277661D01*
X186094582Y-78255134D01*
X186125903Y-78238393D01*
X186159881Y-78228085D01*
X186201362Y-78224000D01*
X186877582Y-78224000D01*
X186919063Y-78228085D01*
X186919063Y-78228085D01*
G37*
G36*
X132063801Y-78228085D02*
G01*
X132097779Y-78238393D01*
X132129100Y-78255134D01*
X132156549Y-78277661D01*
X132179076Y-78305110D01*
X132195817Y-78336431D01*
X132206125Y-78370409D01*
X132210210Y-78411890D01*
X132210210Y-79013110D01*
X132206125Y-79054591D01*
X132195817Y-79088569D01*
X132179076Y-79119890D01*
X132156549Y-79147339D01*
X132129100Y-79169866D01*
X132097779Y-79186607D01*
X132063801Y-79196915D01*
X132022320Y-79201000D01*
X131346100Y-79201000D01*
X131304619Y-79196915D01*
X131270641Y-79186607D01*
X131239320Y-79169866D01*
X131211871Y-79147339D01*
X131189344Y-79119890D01*
X131172603Y-79088569D01*
X131162295Y-79054591D01*
X131158210Y-79013110D01*
X131158210Y-78411890D01*
X131162295Y-78370409D01*
X131172603Y-78336431D01*
X131189344Y-78305110D01*
X131211871Y-78277661D01*
X131239320Y-78255134D01*
X131270641Y-78238393D01*
X131304619Y-78228085D01*
X131346100Y-78224000D01*
X132022320Y-78224000D01*
X132063801Y-78228085D01*
X132063801Y-78228085D01*
G37*
G36*
X117103275Y-78228085D02*
G01*
X117137253Y-78238393D01*
X117168574Y-78255134D01*
X117196023Y-78277661D01*
X117218550Y-78305110D01*
X117235291Y-78336431D01*
X117245599Y-78370409D01*
X117249684Y-78411890D01*
X117249684Y-79013110D01*
X117245599Y-79054591D01*
X117235291Y-79088569D01*
X117218550Y-79119890D01*
X117196023Y-79147339D01*
X117168574Y-79169866D01*
X117137253Y-79186607D01*
X117103275Y-79196915D01*
X117061794Y-79201000D01*
X116385574Y-79201000D01*
X116344093Y-79196915D01*
X116310115Y-79186607D01*
X116278794Y-79169866D01*
X116251345Y-79147339D01*
X116228818Y-79119890D01*
X116212077Y-79088569D01*
X116201769Y-79054591D01*
X116197684Y-79013110D01*
X116197684Y-78411890D01*
X116201769Y-78370409D01*
X116212077Y-78336431D01*
X116228818Y-78305110D01*
X116251345Y-78277661D01*
X116278794Y-78255134D01*
X116310115Y-78238393D01*
X116344093Y-78228085D01*
X116385574Y-78224000D01*
X117061794Y-78224000D01*
X117103275Y-78228085D01*
X117103275Y-78228085D01*
G37*
G36*
X112116433Y-78228085D02*
G01*
X112150411Y-78238393D01*
X112181732Y-78255134D01*
X112209181Y-78277661D01*
X112231708Y-78305110D01*
X112248449Y-78336431D01*
X112258757Y-78370409D01*
X112262842Y-78411890D01*
X112262842Y-79013110D01*
X112258757Y-79054591D01*
X112248449Y-79088569D01*
X112231708Y-79119890D01*
X112209181Y-79147339D01*
X112181732Y-79169866D01*
X112150411Y-79186607D01*
X112116433Y-79196915D01*
X112074952Y-79201000D01*
X111398732Y-79201000D01*
X111357251Y-79196915D01*
X111323273Y-79186607D01*
X111291952Y-79169866D01*
X111264503Y-79147339D01*
X111241976Y-79119890D01*
X111225235Y-79088569D01*
X111214927Y-79054591D01*
X111210842Y-79013110D01*
X111210842Y-78411890D01*
X111214927Y-78370409D01*
X111225235Y-78336431D01*
X111241976Y-78305110D01*
X111264503Y-78277661D01*
X111291952Y-78255134D01*
X111323273Y-78238393D01*
X111357251Y-78228085D01*
X111398732Y-78224000D01*
X112074952Y-78224000D01*
X112116433Y-78228085D01*
X112116433Y-78228085D01*
G37*
G36*
X127076959Y-78228085D02*
G01*
X127110937Y-78238393D01*
X127142258Y-78255134D01*
X127169707Y-78277661D01*
X127192234Y-78305110D01*
X127208975Y-78336431D01*
X127219283Y-78370409D01*
X127223368Y-78411890D01*
X127223368Y-79013110D01*
X127219283Y-79054591D01*
X127208975Y-79088569D01*
X127192234Y-79119890D01*
X127169707Y-79147339D01*
X127142258Y-79169866D01*
X127110937Y-79186607D01*
X127076959Y-79196915D01*
X127035478Y-79201000D01*
X126359258Y-79201000D01*
X126317777Y-79196915D01*
X126283799Y-79186607D01*
X126252478Y-79169866D01*
X126225029Y-79147339D01*
X126202502Y-79119890D01*
X126185761Y-79088569D01*
X126175453Y-79054591D01*
X126171368Y-79013110D01*
X126171368Y-78411890D01*
X126175453Y-78370409D01*
X126185761Y-78336431D01*
X126202502Y-78305110D01*
X126225029Y-78277661D01*
X126252478Y-78255134D01*
X126283799Y-78238393D01*
X126317777Y-78228085D01*
X126359258Y-78224000D01*
X127035478Y-78224000D01*
X127076959Y-78228085D01*
X127076959Y-78228085D01*
G37*
G36*
X191905905Y-78228085D02*
G01*
X191939883Y-78238393D01*
X191971204Y-78255134D01*
X191998653Y-78277661D01*
X192021180Y-78305110D01*
X192037921Y-78336431D01*
X192048229Y-78370409D01*
X192052314Y-78411890D01*
X192052314Y-79013110D01*
X192048229Y-79054591D01*
X192037921Y-79088569D01*
X192021180Y-79119890D01*
X191998653Y-79147339D01*
X191971204Y-79169866D01*
X191939883Y-79186607D01*
X191905905Y-79196915D01*
X191864424Y-79201000D01*
X191188204Y-79201000D01*
X191146723Y-79196915D01*
X191112745Y-79186607D01*
X191081424Y-79169866D01*
X191053975Y-79147339D01*
X191031448Y-79119890D01*
X191014707Y-79088569D01*
X191004399Y-79054591D01*
X191000314Y-79013110D01*
X191000314Y-78411890D01*
X191004399Y-78370409D01*
X191014707Y-78336431D01*
X191031448Y-78305110D01*
X191053975Y-78277661D01*
X191081424Y-78255134D01*
X191112745Y-78238393D01*
X191146723Y-78228085D01*
X191188204Y-78224000D01*
X191864424Y-78224000D01*
X191905905Y-78228085D01*
X191905905Y-78228085D01*
G37*
G36*
X142037485Y-78228085D02*
G01*
X142071463Y-78238393D01*
X142102784Y-78255134D01*
X142130233Y-78277661D01*
X142152760Y-78305110D01*
X142169501Y-78336431D01*
X142179809Y-78370409D01*
X142183894Y-78411890D01*
X142183894Y-79013110D01*
X142179809Y-79054591D01*
X142169501Y-79088569D01*
X142152760Y-79119890D01*
X142130233Y-79147339D01*
X142102784Y-79169866D01*
X142071463Y-79186607D01*
X142037485Y-79196915D01*
X141996004Y-79201000D01*
X141319784Y-79201000D01*
X141278303Y-79196915D01*
X141244325Y-79186607D01*
X141213004Y-79169866D01*
X141185555Y-79147339D01*
X141163028Y-79119890D01*
X141146287Y-79088569D01*
X141135979Y-79054591D01*
X141131894Y-79013110D01*
X141131894Y-78411890D01*
X141135979Y-78370409D01*
X141146287Y-78336431D01*
X141163028Y-78305110D01*
X141185555Y-78277661D01*
X141213004Y-78255134D01*
X141244325Y-78238393D01*
X141278303Y-78228085D01*
X141319784Y-78224000D01*
X141996004Y-78224000D01*
X142037485Y-78228085D01*
X142037485Y-78228085D01*
G37*
G36*
X196892747Y-78228085D02*
G01*
X196926725Y-78238393D01*
X196958046Y-78255134D01*
X196985495Y-78277661D01*
X197008022Y-78305110D01*
X197024763Y-78336431D01*
X197035071Y-78370409D01*
X197039156Y-78411890D01*
X197039156Y-79013110D01*
X197035071Y-79054591D01*
X197024763Y-79088569D01*
X197008022Y-79119890D01*
X196985495Y-79147339D01*
X196958046Y-79169866D01*
X196926725Y-79186607D01*
X196892747Y-79196915D01*
X196851266Y-79201000D01*
X196175046Y-79201000D01*
X196133565Y-79196915D01*
X196099587Y-79186607D01*
X196068266Y-79169866D01*
X196040817Y-79147339D01*
X196018290Y-79119890D01*
X196001549Y-79088569D01*
X195991241Y-79054591D01*
X195987156Y-79013110D01*
X195987156Y-78411890D01*
X195991241Y-78370409D01*
X196001549Y-78336431D01*
X196018290Y-78305110D01*
X196040817Y-78277661D01*
X196068266Y-78255134D01*
X196099587Y-78238393D01*
X196133565Y-78228085D01*
X196175046Y-78224000D01*
X196851266Y-78224000D01*
X196892747Y-78228085D01*
X196892747Y-78228085D01*
G37*
G36*
X181932221Y-78228085D02*
G01*
X181966199Y-78238393D01*
X181997520Y-78255134D01*
X182024969Y-78277661D01*
X182047496Y-78305110D01*
X182064237Y-78336431D01*
X182074545Y-78370409D01*
X182078630Y-78411890D01*
X182078630Y-79013110D01*
X182074545Y-79054591D01*
X182064237Y-79088569D01*
X182047496Y-79119890D01*
X182024969Y-79147339D01*
X181997520Y-79169866D01*
X181966199Y-79186607D01*
X181932221Y-79196915D01*
X181890740Y-79201000D01*
X181214520Y-79201000D01*
X181173039Y-79196915D01*
X181139061Y-79186607D01*
X181107740Y-79169866D01*
X181080291Y-79147339D01*
X181057764Y-79119890D01*
X181041023Y-79088569D01*
X181030715Y-79054591D01*
X181026630Y-79013110D01*
X181026630Y-78411890D01*
X181030715Y-78370409D01*
X181041023Y-78336431D01*
X181057764Y-78305110D01*
X181080291Y-78277661D01*
X181107740Y-78255134D01*
X181139061Y-78238393D01*
X181173039Y-78228085D01*
X181214520Y-78224000D01*
X181890740Y-78224000D01*
X181932221Y-78228085D01*
X181932221Y-78228085D01*
G37*
G36*
X122090117Y-78228085D02*
G01*
X122124095Y-78238393D01*
X122155416Y-78255134D01*
X122182865Y-78277661D01*
X122205392Y-78305110D01*
X122222133Y-78336431D01*
X122232441Y-78370409D01*
X122236526Y-78411890D01*
X122236526Y-79013110D01*
X122232441Y-79054591D01*
X122222133Y-79088569D01*
X122205392Y-79119890D01*
X122182865Y-79147339D01*
X122155416Y-79169866D01*
X122124095Y-79186607D01*
X122090117Y-79196915D01*
X122048636Y-79201000D01*
X121372416Y-79201000D01*
X121330935Y-79196915D01*
X121296957Y-79186607D01*
X121265636Y-79169866D01*
X121238187Y-79147339D01*
X121215660Y-79119890D01*
X121198919Y-79088569D01*
X121188611Y-79054591D01*
X121184526Y-79013110D01*
X121184526Y-78411890D01*
X121188611Y-78370409D01*
X121198919Y-78336431D01*
X121215660Y-78305110D01*
X121238187Y-78277661D01*
X121265636Y-78255134D01*
X121296957Y-78238393D01*
X121330935Y-78228085D01*
X121372416Y-78224000D01*
X122048636Y-78224000D01*
X122090117Y-78228085D01*
X122090117Y-78228085D01*
G37*
G36*
X137050643Y-78228085D02*
G01*
X137084621Y-78238393D01*
X137115942Y-78255134D01*
X137143391Y-78277661D01*
X137165918Y-78305110D01*
X137182659Y-78336431D01*
X137192967Y-78370409D01*
X137197052Y-78411890D01*
X137197052Y-79013110D01*
X137192967Y-79054591D01*
X137182659Y-79088569D01*
X137165918Y-79119890D01*
X137143391Y-79147339D01*
X137115942Y-79169866D01*
X137084621Y-79186607D01*
X137050643Y-79196915D01*
X137009162Y-79201000D01*
X136332942Y-79201000D01*
X136291461Y-79196915D01*
X136257483Y-79186607D01*
X136226162Y-79169866D01*
X136198713Y-79147339D01*
X136176186Y-79119890D01*
X136159445Y-79088569D01*
X136149137Y-79054591D01*
X136145052Y-79013110D01*
X136145052Y-78411890D01*
X136149137Y-78370409D01*
X136159445Y-78336431D01*
X136176186Y-78305110D01*
X136198713Y-78277661D01*
X136226162Y-78255134D01*
X136257483Y-78238393D01*
X136291461Y-78228085D01*
X136332942Y-78224000D01*
X137009162Y-78224000D01*
X137050643Y-78228085D01*
X137050643Y-78228085D01*
G37*
G36*
X201879591Y-78228085D02*
G01*
X201913569Y-78238393D01*
X201944890Y-78255134D01*
X201972339Y-78277661D01*
X201994866Y-78305110D01*
X202011607Y-78336431D01*
X202021915Y-78370409D01*
X202026000Y-78411890D01*
X202026000Y-79013110D01*
X202021915Y-79054591D01*
X202011607Y-79088569D01*
X201994866Y-79119890D01*
X201972339Y-79147339D01*
X201944890Y-79169866D01*
X201913569Y-79186607D01*
X201879591Y-79196915D01*
X201838110Y-79201000D01*
X201161890Y-79201000D01*
X201120409Y-79196915D01*
X201086431Y-79186607D01*
X201055110Y-79169866D01*
X201027661Y-79147339D01*
X201005134Y-79119890D01*
X200988393Y-79088569D01*
X200978085Y-79054591D01*
X200974000Y-79013110D01*
X200974000Y-78411890D01*
X200978085Y-78370409D01*
X200988393Y-78336431D01*
X201005134Y-78305110D01*
X201027661Y-78277661D01*
X201055110Y-78255134D01*
X201086431Y-78238393D01*
X201120409Y-78228085D01*
X201161890Y-78224000D01*
X201838110Y-78224000D01*
X201879591Y-78228085D01*
X201879591Y-78228085D01*
G37*
G36*
X157193100Y-77411000D02*
G01*
X156091100Y-77411000D01*
X156091100Y-76589000D01*
X157193100Y-76589000D01*
X157193100Y-77411000D01*
X157193100Y-77411000D01*
G37*
G36*
X199451000Y-77411000D02*
G01*
X198349000Y-77411000D01*
X198349000Y-76589000D01*
X199451000Y-76589000D01*
X199451000Y-77411000D01*
X199451000Y-77411000D01*
G37*
G36*
X154593100Y-77411000D02*
G01*
X153491100Y-77411000D01*
X153491100Y-76589000D01*
X154593100Y-76589000D01*
X154593100Y-77411000D01*
X154593100Y-77411000D01*
G37*
G36*
X162177310Y-77411000D02*
G01*
X161075310Y-77411000D01*
X161075310Y-76589000D01*
X162177310Y-76589000D01*
X162177310Y-77411000D01*
X162177310Y-77411000D01*
G37*
G36*
X159577310Y-77411000D02*
G01*
X158475310Y-77411000D01*
X158475310Y-76589000D01*
X159577310Y-76589000D01*
X159577310Y-77411000D01*
X159577310Y-77411000D01*
G37*
G36*
X167161520Y-77411000D02*
G01*
X166059520Y-77411000D01*
X166059520Y-76589000D01*
X167161520Y-76589000D01*
X167161520Y-77411000D01*
X167161520Y-77411000D01*
G37*
G36*
X164561520Y-77411000D02*
G01*
X163459520Y-77411000D01*
X163459520Y-76589000D01*
X164561520Y-76589000D01*
X164561520Y-77411000D01*
X164561520Y-77411000D01*
G37*
G36*
X172145730Y-77411000D02*
G01*
X171043730Y-77411000D01*
X171043730Y-76589000D01*
X172145730Y-76589000D01*
X172145730Y-77411000D01*
X172145730Y-77411000D01*
G37*
G36*
X169545730Y-77411000D02*
G01*
X168443730Y-77411000D01*
X168443730Y-76589000D01*
X169545730Y-76589000D01*
X169545730Y-77411000D01*
X169545730Y-77411000D01*
G37*
G36*
X177129940Y-77411000D02*
G01*
X176027940Y-77411000D01*
X176027940Y-76589000D01*
X177129940Y-76589000D01*
X177129940Y-77411000D01*
X177129940Y-77411000D01*
G37*
G36*
X174529940Y-77411000D02*
G01*
X173427940Y-77411000D01*
X173427940Y-76589000D01*
X174529940Y-76589000D01*
X174529940Y-77411000D01*
X174529940Y-77411000D01*
G37*
G36*
X182114150Y-77411000D02*
G01*
X181012150Y-77411000D01*
X181012150Y-76589000D01*
X182114150Y-76589000D01*
X182114150Y-77411000D01*
X182114150Y-77411000D01*
G37*
G36*
X179514150Y-77411000D02*
G01*
X178412150Y-77411000D01*
X178412150Y-76589000D01*
X179514150Y-76589000D01*
X179514150Y-77411000D01*
X179514150Y-77411000D01*
G37*
G36*
X107351000Y-77411000D02*
G01*
X106249000Y-77411000D01*
X106249000Y-76589000D01*
X107351000Y-76589000D01*
X107351000Y-77411000D01*
X107351000Y-77411000D01*
G37*
G36*
X184498360Y-77411000D02*
G01*
X183396360Y-77411000D01*
X183396360Y-76589000D01*
X184498360Y-76589000D01*
X184498360Y-77411000D01*
X184498360Y-77411000D01*
G37*
G36*
X187098360Y-77411000D02*
G01*
X185996360Y-77411000D01*
X185996360Y-76589000D01*
X187098360Y-76589000D01*
X187098360Y-77411000D01*
X187098360Y-77411000D01*
G37*
G36*
X189482570Y-77411000D02*
G01*
X188380570Y-77411000D01*
X188380570Y-76589000D01*
X189482570Y-76589000D01*
X189482570Y-77411000D01*
X189482570Y-77411000D01*
G37*
G36*
X197066780Y-77411000D02*
G01*
X195964780Y-77411000D01*
X195964780Y-76589000D01*
X197066780Y-76589000D01*
X197066780Y-77411000D01*
X197066780Y-77411000D01*
G37*
G36*
X194466780Y-77411000D02*
G01*
X193364780Y-77411000D01*
X193364780Y-76589000D01*
X194466780Y-76589000D01*
X194466780Y-77411000D01*
X194466780Y-77411000D01*
G37*
G36*
X202051000Y-77411000D02*
G01*
X200949000Y-77411000D01*
X200949000Y-76589000D01*
X202051000Y-76589000D01*
X202051000Y-77411000D01*
X202051000Y-77411000D01*
G37*
G36*
X119703630Y-77411000D02*
G01*
X118601630Y-77411000D01*
X118601630Y-76589000D01*
X119703630Y-76589000D01*
X119703630Y-77411000D01*
X119703630Y-77411000D01*
G37*
G36*
X114719420Y-77411000D02*
G01*
X113617420Y-77411000D01*
X113617420Y-76589000D01*
X114719420Y-76589000D01*
X114719420Y-77411000D01*
X114719420Y-77411000D01*
G37*
G36*
X139640470Y-77411000D02*
G01*
X138538470Y-77411000D01*
X138538470Y-76589000D01*
X139640470Y-76589000D01*
X139640470Y-77411000D01*
X139640470Y-77411000D01*
G37*
G36*
X142240470Y-77411000D02*
G01*
X141138470Y-77411000D01*
X141138470Y-76589000D01*
X142240470Y-76589000D01*
X142240470Y-77411000D01*
X142240470Y-77411000D01*
G37*
G36*
X134656260Y-77411000D02*
G01*
X133554260Y-77411000D01*
X133554260Y-76589000D01*
X134656260Y-76589000D01*
X134656260Y-77411000D01*
X134656260Y-77411000D01*
G37*
G36*
X137256260Y-77411000D02*
G01*
X136154260Y-77411000D01*
X136154260Y-76589000D01*
X137256260Y-76589000D01*
X137256260Y-77411000D01*
X137256260Y-77411000D01*
G37*
G36*
X129672050Y-77411000D02*
G01*
X128570050Y-77411000D01*
X128570050Y-76589000D01*
X129672050Y-76589000D01*
X129672050Y-77411000D01*
X129672050Y-77411000D01*
G37*
G36*
X132272050Y-77411000D02*
G01*
X131170050Y-77411000D01*
X131170050Y-76589000D01*
X132272050Y-76589000D01*
X132272050Y-77411000D01*
X132272050Y-77411000D01*
G37*
G36*
X124687840Y-77411000D02*
G01*
X123585840Y-77411000D01*
X123585840Y-76589000D01*
X124687840Y-76589000D01*
X124687840Y-77411000D01*
X124687840Y-77411000D01*
G37*
G36*
X127287840Y-77411000D02*
G01*
X126185840Y-77411000D01*
X126185840Y-76589000D01*
X127287840Y-76589000D01*
X127287840Y-77411000D01*
X127287840Y-77411000D01*
G37*
G36*
X152208890Y-77411000D02*
G01*
X151106890Y-77411000D01*
X151106890Y-76589000D01*
X152208890Y-76589000D01*
X152208890Y-77411000D01*
X152208890Y-77411000D01*
G37*
G36*
X122303630Y-77411000D02*
G01*
X121201630Y-77411000D01*
X121201630Y-76589000D01*
X122303630Y-76589000D01*
X122303630Y-77411000D01*
X122303630Y-77411000D01*
G37*
G36*
X149608890Y-77411000D02*
G01*
X148506890Y-77411000D01*
X148506890Y-76589000D01*
X149608890Y-76589000D01*
X149608890Y-77411000D01*
X149608890Y-77411000D01*
G37*
G36*
X117319420Y-77411000D02*
G01*
X116217420Y-77411000D01*
X116217420Y-76589000D01*
X117319420Y-76589000D01*
X117319420Y-77411000D01*
X117319420Y-77411000D01*
G37*
G36*
X109735210Y-77411000D02*
G01*
X108633210Y-77411000D01*
X108633210Y-76589000D01*
X109735210Y-76589000D01*
X109735210Y-77411000D01*
X109735210Y-77411000D01*
G37*
G36*
X112335210Y-77411000D02*
G01*
X111233210Y-77411000D01*
X111233210Y-76589000D01*
X112335210Y-76589000D01*
X112335210Y-77411000D01*
X112335210Y-77411000D01*
G37*
G36*
X104751000Y-77411000D02*
G01*
X103649000Y-77411000D01*
X103649000Y-76589000D01*
X104751000Y-76589000D01*
X104751000Y-77411000D01*
X104751000Y-77411000D01*
G37*
G36*
X192082570Y-77411000D02*
G01*
X190980570Y-77411000D01*
X190980570Y-76589000D01*
X192082570Y-76589000D01*
X192082570Y-77411000D01*
X192082570Y-77411000D01*
G37*
G36*
X147224680Y-77411000D02*
G01*
X146122680Y-77411000D01*
X146122680Y-76589000D01*
X147224680Y-76589000D01*
X147224680Y-77411000D01*
X147224680Y-77411000D01*
G37*
G36*
X144624680Y-77411000D02*
G01*
X143522680Y-77411000D01*
X143522680Y-76589000D01*
X144624680Y-76589000D01*
X144624680Y-77411000D01*
X144624680Y-77411000D01*
G37*
M02*
