M48
; DRILL file {KiCad (5.1.4)-1} date 1/13/2020 2:58:21 PM
; FORMAT={-:-/ absolute / metric / decimal}
; #@! TF.CreationDate,2020-01-13T14:58:21-05:00
; #@! TF.GenerationSoftware,Kicad,Pcbnew,(5.1.4)-1
; #@! TF.FileFunction,Plated,1,2,PTH
FMAT,2
METRIC
T1C0.400
T2C1.000
T3C1.200
T4C3.100
%
G90
G05
T1
X110.49Y-80.25
X120.47Y-80.25
X130.45Y-80.25
X140.43Y-80.25
X150.41Y-80.25
X160.39Y-80.25
X170.37Y-80.25
X180.35Y-80.25
X190.33Y-80.25
X200.31Y-80.25
T2
X119.917Y-83.5
X119.917Y-86.04
X195.25Y-83.5
X195.25Y-86.04
X129.333Y-83.5
X129.333Y-86.04
X176.417Y-83.5
X176.417Y-86.04
X167.0Y-83.5
X167.0Y-86.04
X110.5Y-83.5
X110.5Y-86.04
X138.75Y-83.5
X138.75Y-86.04
X157.583Y-83.5
X157.583Y-86.04
X185.833Y-83.5
X185.833Y-86.04
X148.167Y-83.5
X148.167Y-86.04
T3
X151.0Y-92.75
X154.5Y-92.75
T4
X105.5Y-84.75
X200.25Y-84.75
T0
M30
