G04 #@! TF.GenerationSoftware,KiCad,Pcbnew,(5.1.4)-1*
G04 #@! TF.CreationDate,2020-02-27T11:32:08-05:00*
G04 #@! TF.ProjectId,MotorcycleSwitch,4d6f746f-7263-4796-936c-655377697463,rev?*
G04 #@! TF.SameCoordinates,Original*
G04 #@! TF.FileFunction,Legend,Top*
G04 #@! TF.FilePolarity,Positive*
%FSLAX46Y46*%
G04 Gerber Fmt 4.6, Leading zero omitted, Abs format (unit mm)*
G04 Created by KiCad (PCBNEW (5.1.4)-1) date 2020-02-27 11:32:08*
%MOMM*%
%LPD*%
G04 APERTURE LIST*
%ADD10C,0.150000*%
%ADD11C,0.120000*%
%ADD12C,0.152400*%
G04 APERTURE END LIST*
D10*
X126909523Y-95350000D02*
X126814285Y-95302380D01*
X126671428Y-95302380D01*
X126528570Y-95350000D01*
X126433332Y-95445238D01*
X126385713Y-95540476D01*
X126338094Y-95730952D01*
X126338094Y-95873809D01*
X126385713Y-96064285D01*
X126433332Y-96159523D01*
X126528570Y-96254761D01*
X126671428Y-96302380D01*
X126766666Y-96302380D01*
X126909523Y-96254761D01*
X126957142Y-96207142D01*
X126957142Y-95873809D01*
X126766666Y-95873809D01*
X127385713Y-96302380D02*
X127385713Y-95302380D01*
X127957142Y-96302380D01*
X127957142Y-95302380D01*
X128433332Y-96302380D02*
X128433332Y-95302380D01*
X128671428Y-95302380D01*
X128814285Y-95350000D01*
X128909523Y-95445238D01*
X128957142Y-95540476D01*
X129004761Y-95730952D01*
X129004761Y-95873809D01*
X128957142Y-96064285D01*
X128909523Y-96159523D01*
X128814285Y-96254761D01*
X128671428Y-96302380D01*
X128433332Y-96302380D01*
X126242857Y-105577380D02*
X126576190Y-106577380D01*
X126909523Y-105577380D01*
X127242857Y-106196428D02*
X128004761Y-106196428D01*
X127623809Y-106577380D02*
X127623809Y-105815476D01*
X126957143Y-104008630D02*
X126623809Y-103532440D01*
X126385714Y-104008630D02*
X126385714Y-103008630D01*
X126766666Y-103008630D01*
X126861904Y-103056250D01*
X126909524Y-103103869D01*
X126957143Y-103199107D01*
X126957143Y-103341964D01*
X126909524Y-103437202D01*
X126861904Y-103484821D01*
X126766666Y-103532440D01*
X126385714Y-103532440D01*
X127385714Y-103484821D02*
X127719047Y-103484821D01*
X127861904Y-104008630D02*
X127385714Y-104008630D01*
X127385714Y-103008630D01*
X127861904Y-103008630D01*
X128242857Y-103961011D02*
X128385714Y-104008630D01*
X128623809Y-104008630D01*
X128719047Y-103961011D01*
X128766666Y-103913392D01*
X128814285Y-103818154D01*
X128814285Y-103722916D01*
X128766666Y-103627678D01*
X128719047Y-103580059D01*
X128623809Y-103532440D01*
X128433333Y-103484821D01*
X128338095Y-103437202D01*
X128290476Y-103389583D01*
X128242857Y-103294345D01*
X128242857Y-103199107D01*
X128290476Y-103103869D01*
X128338095Y-103056250D01*
X128433333Y-103008630D01*
X128671428Y-103008630D01*
X128814285Y-103056250D01*
X129242857Y-103484821D02*
X129576190Y-103484821D01*
X129719047Y-104008630D02*
X129242857Y-104008630D01*
X129242857Y-103008630D01*
X129719047Y-103008630D01*
X130004762Y-103008630D02*
X130576190Y-103008630D01*
X130290476Y-104008630D02*
X130290476Y-103008630D01*
X126338095Y-101392261D02*
X126480952Y-101439880D01*
X126719047Y-101439880D01*
X126814285Y-101392261D01*
X126861904Y-101344642D01*
X126909523Y-101249404D01*
X126909523Y-101154166D01*
X126861904Y-101058928D01*
X126814285Y-101011309D01*
X126719047Y-100963690D01*
X126528571Y-100916071D01*
X126433333Y-100868452D01*
X126385714Y-100820833D01*
X126338095Y-100725595D01*
X126338095Y-100630357D01*
X126385714Y-100535119D01*
X126433333Y-100487500D01*
X126528571Y-100439880D01*
X126766666Y-100439880D01*
X126909523Y-100487500D01*
X127242857Y-100439880D02*
X127480952Y-101439880D01*
X127671428Y-100725595D01*
X127861904Y-101439880D01*
X128100000Y-100439880D01*
X129052380Y-101344642D02*
X129004761Y-101392261D01*
X128861904Y-101439880D01*
X128766666Y-101439880D01*
X128623809Y-101392261D01*
X128528571Y-101297023D01*
X128480952Y-101201785D01*
X128433333Y-101011309D01*
X128433333Y-100868452D01*
X128480952Y-100677976D01*
X128528571Y-100582738D01*
X128623809Y-100487500D01*
X128766666Y-100439880D01*
X128861904Y-100439880D01*
X129004761Y-100487500D01*
X129052380Y-100535119D01*
X129957142Y-101439880D02*
X129480952Y-101439880D01*
X129480952Y-100439880D01*
X130290476Y-101439880D02*
X130290476Y-100439880D01*
X130861904Y-101439880D02*
X130433333Y-100868452D01*
X130861904Y-100439880D02*
X130290476Y-101011309D01*
X126338095Y-98823511D02*
X126480952Y-98871130D01*
X126719047Y-98871130D01*
X126814285Y-98823511D01*
X126861904Y-98775892D01*
X126909523Y-98680654D01*
X126909523Y-98585416D01*
X126861904Y-98490178D01*
X126814285Y-98442559D01*
X126719047Y-98394940D01*
X126528571Y-98347321D01*
X126433333Y-98299702D01*
X126385714Y-98252083D01*
X126338095Y-98156845D01*
X126338095Y-98061607D01*
X126385714Y-97966369D01*
X126433333Y-97918750D01*
X126528571Y-97871130D01*
X126766666Y-97871130D01*
X126909523Y-97918750D01*
X127242857Y-97871130D02*
X127480952Y-98871130D01*
X127671428Y-98156845D01*
X127861904Y-98871130D01*
X128100000Y-97871130D01*
X128480952Y-98871130D02*
X128480952Y-97871130D01*
X128719047Y-97871130D01*
X128861904Y-97918750D01*
X128957143Y-98013988D01*
X129004762Y-98109226D01*
X129052381Y-98299702D01*
X129052381Y-98442559D01*
X129004762Y-98633035D01*
X128957143Y-98728273D01*
X128861904Y-98823511D01*
X128719047Y-98871130D01*
X128480952Y-98871130D01*
X129480952Y-98871130D02*
X129480952Y-97871130D01*
X130147619Y-97871130D02*
X130338095Y-97871130D01*
X130433333Y-97918750D01*
X130528571Y-98013988D01*
X130576190Y-98204464D01*
X130576190Y-98537797D01*
X130528571Y-98728273D01*
X130433333Y-98823511D01*
X130338095Y-98871130D01*
X130147619Y-98871130D01*
X130052381Y-98823511D01*
X129957143Y-98728273D01*
X129909523Y-98537797D01*
X129909523Y-98204464D01*
X129957143Y-98013988D01*
X130052381Y-97918750D01*
X130147619Y-97871130D01*
X129710595Y-88127380D02*
X129710595Y-87127380D01*
X130043928Y-87841666D01*
X130377261Y-87127380D01*
X130377261Y-88127380D01*
X130996309Y-88127380D02*
X130901071Y-88079761D01*
X130853452Y-88032142D01*
X130805833Y-87936904D01*
X130805833Y-87651190D01*
X130853452Y-87555952D01*
X130901071Y-87508333D01*
X130996309Y-87460714D01*
X131139166Y-87460714D01*
X131234404Y-87508333D01*
X131282023Y-87555952D01*
X131329642Y-87651190D01*
X131329642Y-87936904D01*
X131282023Y-88032142D01*
X131234404Y-88079761D01*
X131139166Y-88127380D01*
X130996309Y-88127380D01*
X131615357Y-87460714D02*
X131996309Y-87460714D01*
X131758214Y-87127380D02*
X131758214Y-87984523D01*
X131805833Y-88079761D01*
X131901071Y-88127380D01*
X131996309Y-88127380D01*
X132472500Y-88127380D02*
X132377261Y-88079761D01*
X132329642Y-88032142D01*
X132282023Y-87936904D01*
X132282023Y-87651190D01*
X132329642Y-87555952D01*
X132377261Y-87508333D01*
X132472500Y-87460714D01*
X132615357Y-87460714D01*
X132710595Y-87508333D01*
X132758214Y-87555952D01*
X132805833Y-87651190D01*
X132805833Y-87936904D01*
X132758214Y-88032142D01*
X132710595Y-88079761D01*
X132615357Y-88127380D01*
X132472500Y-88127380D01*
X133234404Y-88127380D02*
X133234404Y-87460714D01*
X133234404Y-87651190D02*
X133282023Y-87555952D01*
X133329642Y-87508333D01*
X133424880Y-87460714D01*
X133520119Y-87460714D01*
X134282023Y-88079761D02*
X134186785Y-88127380D01*
X133996309Y-88127380D01*
X133901071Y-88079761D01*
X133853452Y-88032142D01*
X133805833Y-87936904D01*
X133805833Y-87651190D01*
X133853452Y-87555952D01*
X133901071Y-87508333D01*
X133996309Y-87460714D01*
X134186785Y-87460714D01*
X134282023Y-87508333D01*
X134615357Y-87460714D02*
X134853452Y-88127380D01*
X135091547Y-87460714D02*
X134853452Y-88127380D01*
X134758214Y-88365476D01*
X134710595Y-88413095D01*
X134615357Y-88460714D01*
X135901071Y-88079761D02*
X135805833Y-88127380D01*
X135615357Y-88127380D01*
X135520119Y-88079761D01*
X135472500Y-88032142D01*
X135424880Y-87936904D01*
X135424880Y-87651190D01*
X135472500Y-87555952D01*
X135520119Y-87508333D01*
X135615357Y-87460714D01*
X135805833Y-87460714D01*
X135901071Y-87508333D01*
X136472500Y-88127380D02*
X136377261Y-88079761D01*
X136329642Y-87984523D01*
X136329642Y-87127380D01*
X137234404Y-88079761D02*
X137139166Y-88127380D01*
X136948690Y-88127380D01*
X136853452Y-88079761D01*
X136805833Y-87984523D01*
X136805833Y-87603571D01*
X136853452Y-87508333D01*
X136948690Y-87460714D01*
X137139166Y-87460714D01*
X137234404Y-87508333D01*
X137282023Y-87603571D01*
X137282023Y-87698809D01*
X136805833Y-87794047D01*
X138424880Y-88079761D02*
X138567738Y-88127380D01*
X138805833Y-88127380D01*
X138901071Y-88079761D01*
X138948690Y-88032142D01*
X138996309Y-87936904D01*
X138996309Y-87841666D01*
X138948690Y-87746428D01*
X138901071Y-87698809D01*
X138805833Y-87651190D01*
X138615357Y-87603571D01*
X138520119Y-87555952D01*
X138472500Y-87508333D01*
X138424880Y-87413095D01*
X138424880Y-87317857D01*
X138472500Y-87222619D01*
X138520119Y-87175000D01*
X138615357Y-87127380D01*
X138853452Y-87127380D01*
X138996309Y-87175000D01*
X139329642Y-87460714D02*
X139520119Y-88127380D01*
X139710595Y-87651190D01*
X139901071Y-88127380D01*
X140091547Y-87460714D01*
X140472500Y-88127380D02*
X140472500Y-87460714D01*
X140472500Y-87127380D02*
X140424880Y-87175000D01*
X140472500Y-87222619D01*
X140520119Y-87175000D01*
X140472500Y-87127380D01*
X140472500Y-87222619D01*
X140805833Y-87460714D02*
X141186785Y-87460714D01*
X140948690Y-87127380D02*
X140948690Y-87984523D01*
X140996309Y-88079761D01*
X141091547Y-88127380D01*
X141186785Y-88127380D01*
X141948690Y-88079761D02*
X141853452Y-88127380D01*
X141662976Y-88127380D01*
X141567738Y-88079761D01*
X141520119Y-88032142D01*
X141472500Y-87936904D01*
X141472500Y-87651190D01*
X141520119Y-87555952D01*
X141567738Y-87508333D01*
X141662976Y-87460714D01*
X141853452Y-87460714D01*
X141948690Y-87508333D01*
X142377261Y-88127380D02*
X142377261Y-87127380D01*
X142805833Y-88127380D02*
X142805833Y-87603571D01*
X142758214Y-87508333D01*
X142662976Y-87460714D01*
X142520119Y-87460714D01*
X142424880Y-87508333D01*
X142377261Y-87555952D01*
X130282023Y-89777380D02*
X129948690Y-89301190D01*
X129710595Y-89777380D02*
X129710595Y-88777380D01*
X130091547Y-88777380D01*
X130186785Y-88825000D01*
X130234404Y-88872619D01*
X130282023Y-88967857D01*
X130282023Y-89110714D01*
X130234404Y-89205952D01*
X130186785Y-89253571D01*
X130091547Y-89301190D01*
X129710595Y-89301190D01*
X131091547Y-89729761D02*
X130996309Y-89777380D01*
X130805833Y-89777380D01*
X130710595Y-89729761D01*
X130662976Y-89634523D01*
X130662976Y-89253571D01*
X130710595Y-89158333D01*
X130805833Y-89110714D01*
X130996309Y-89110714D01*
X131091547Y-89158333D01*
X131139166Y-89253571D01*
X131139166Y-89348809D01*
X130662976Y-89444047D01*
X131472500Y-89110714D02*
X131710595Y-89777380D01*
X131948690Y-89110714D01*
X132520119Y-88777380D02*
X132615357Y-88777380D01*
X132710595Y-88825000D01*
X132758214Y-88872619D01*
X132805833Y-88967857D01*
X132853452Y-89158333D01*
X132853452Y-89396428D01*
X132805833Y-89586904D01*
X132758214Y-89682142D01*
X132710595Y-89729761D01*
X132615357Y-89777380D01*
X132520119Y-89777380D01*
X132424880Y-89729761D01*
X132377261Y-89682142D01*
X132329642Y-89586904D01*
X132282023Y-89396428D01*
X132282023Y-89158333D01*
X132329642Y-88967857D01*
X132377261Y-88872619D01*
X132424880Y-88825000D01*
X132520119Y-88777380D01*
X133043928Y-89872619D02*
X133805833Y-89872619D01*
X134567738Y-89777380D02*
X133996309Y-89777380D01*
X134282023Y-89777380D02*
X134282023Y-88777380D01*
X134186785Y-88920238D01*
X134091547Y-89015476D01*
X133996309Y-89063095D01*
D11*
X166562779Y-106990000D02*
X166237221Y-106990000D01*
X166562779Y-108010000D02*
X166237221Y-108010000D01*
D12*
X164024999Y-106100000D02*
X168025001Y-106100000D01*
X162524999Y-96300000D02*
X168025001Y-96300000D01*
D11*
X164650000Y-110100000D02*
X170050000Y-110100000D01*
X164650000Y-113400000D02*
X170050000Y-113400000D01*
X164650000Y-110100000D02*
X164650000Y-113400000D01*
X146790000Y-93237221D02*
X146790000Y-93562779D01*
X147810000Y-93237221D02*
X147810000Y-93562779D01*
X157110000Y-116487221D02*
X157110000Y-116812779D01*
X158130000Y-116487221D02*
X158130000Y-116812779D01*
X152390000Y-93274721D02*
X152390000Y-93600279D01*
X153410000Y-93274721D02*
X153410000Y-93600279D01*
X151175000Y-92240000D02*
X149775000Y-92240000D01*
X149775000Y-94560000D02*
X151675000Y-94560000D01*
X126030000Y-107330000D02*
X124700000Y-107330000D01*
X126030000Y-106000000D02*
X126030000Y-107330000D01*
X126030000Y-104730000D02*
X123370000Y-104730000D01*
X123370000Y-104730000D02*
X123370000Y-94510000D01*
X126030000Y-104730000D02*
X126030000Y-94510000D01*
X126030000Y-94510000D02*
X123370000Y-94510000D01*
X164550000Y-113675000D02*
X168450000Y-113675000D01*
X164550000Y-115675000D02*
X168450000Y-115675000D01*
X164550000Y-113675000D02*
X164550000Y-115675000D01*
X165787221Y-117085000D02*
X166112779Y-117085000D01*
X165787221Y-116065000D02*
X166112779Y-116065000D01*
X155290000Y-113197221D02*
X155290000Y-113522779D01*
X156310000Y-113197221D02*
X156310000Y-113522779D01*
X152287478Y-106257273D02*
X152057273Y-106487478D01*
X153008727Y-106978522D02*
X152778522Y-107208727D01*
X153387478Y-107332273D02*
X153157273Y-107562478D01*
X154108727Y-108053522D02*
X153878522Y-108283727D01*
X145575000Y-92240000D02*
X144175000Y-92240000D01*
X144175000Y-94560000D02*
X146075000Y-94560000D01*
D12*
X163849040Y-116932800D02*
X164125900Y-116932800D01*
X158890960Y-112767200D02*
X158614100Y-112767200D01*
X164125900Y-112767200D02*
X163849040Y-112767200D01*
X164125900Y-116932800D02*
X164125900Y-112767200D01*
X158614100Y-116932800D02*
X158890960Y-116932800D01*
X158614100Y-112767200D02*
X158614100Y-116932800D01*
D11*
X148818198Y-105987113D02*
X149730366Y-106899281D01*
X148500000Y-106305311D02*
X148818198Y-105987113D01*
X148181802Y-105987113D02*
X148500000Y-106305311D01*
X143394689Y-101200000D02*
X143712887Y-100881802D01*
X143712887Y-101518198D02*
X143394689Y-101200000D01*
X153605311Y-101200000D02*
X153287113Y-101518198D01*
X153287113Y-100881802D02*
X153605311Y-101200000D01*
X148500000Y-96094689D02*
X148181802Y-96412887D01*
X148818198Y-96412887D02*
X148500000Y-96094689D01*
X160496267Y-106965000D02*
X160153733Y-106965000D01*
X160496267Y-107985000D02*
X160153733Y-107985000D01*
X174705000Y-110130000D02*
X173375000Y-110130000D01*
X174705000Y-108800000D02*
X174705000Y-110130000D01*
X174705000Y-107530000D02*
X172045000Y-107530000D01*
X172045000Y-107530000D02*
X172045000Y-92230000D01*
X174705000Y-107530000D02*
X174705000Y-92230000D01*
X174705000Y-92230000D02*
X172045000Y-92230000D01*
D12*
X158557292Y-103232000D02*
X159242707Y-103232000D01*
X159242708Y-99168000D02*
X158557293Y-99168000D01*
D11*
X158325000Y-115075000D02*
X158325000Y-112590000D01*
X156955000Y-115075000D02*
X158325000Y-115075000D01*
X156955000Y-112590000D02*
X156955000Y-115075000D01*
D10*
X169182142Y-108002380D02*
X168848809Y-107526190D01*
X168610714Y-108002380D02*
X168610714Y-107002380D01*
X168991666Y-107002380D01*
X169086904Y-107050000D01*
X169134523Y-107097619D01*
X169182142Y-107192857D01*
X169182142Y-107335714D01*
X169134523Y-107430952D01*
X169086904Y-107478571D01*
X168991666Y-107526190D01*
X168610714Y-107526190D01*
X169563095Y-107097619D02*
X169610714Y-107050000D01*
X169705952Y-107002380D01*
X169944047Y-107002380D01*
X170039285Y-107050000D01*
X170086904Y-107097619D01*
X170134523Y-107192857D01*
X170134523Y-107288095D01*
X170086904Y-107430952D01*
X169515476Y-108002380D01*
X170134523Y-108002380D01*
X170991666Y-107335714D02*
X170991666Y-108002380D01*
X170753571Y-106954761D02*
X170515476Y-107669047D01*
X171134523Y-107669047D01*
X165238095Y-94877380D02*
X165238095Y-95686904D01*
X165285714Y-95782142D01*
X165333333Y-95829761D01*
X165428571Y-95877380D01*
X165619047Y-95877380D01*
X165714285Y-95829761D01*
X165761904Y-95782142D01*
X165809523Y-95686904D01*
X165809523Y-94877380D01*
X166809523Y-95877380D02*
X166238095Y-95877380D01*
X166523809Y-95877380D02*
X166523809Y-94877380D01*
X166428571Y-95020238D01*
X166333333Y-95115476D01*
X166238095Y-95163095D01*
X171711904Y-112052380D02*
X171711904Y-111052380D01*
X171950000Y-111052380D01*
X172092857Y-111100000D01*
X172188095Y-111195238D01*
X172235714Y-111290476D01*
X172283333Y-111480952D01*
X172283333Y-111623809D01*
X172235714Y-111814285D01*
X172188095Y-111909523D01*
X172092857Y-112004761D01*
X171950000Y-112052380D01*
X171711904Y-112052380D01*
X172616666Y-111052380D02*
X173235714Y-111052380D01*
X172902380Y-111433333D01*
X173045238Y-111433333D01*
X173140476Y-111480952D01*
X173188095Y-111528571D01*
X173235714Y-111623809D01*
X173235714Y-111861904D01*
X173188095Y-111957142D01*
X173140476Y-112004761D01*
X173045238Y-112052380D01*
X172759523Y-112052380D01*
X172664285Y-112004761D01*
X172616666Y-111957142D01*
X147752380Y-91117857D02*
X147276190Y-91451190D01*
X147752380Y-91689285D02*
X146752380Y-91689285D01*
X146752380Y-91308333D01*
X146800000Y-91213095D01*
X146847619Y-91165476D01*
X146942857Y-91117857D01*
X147085714Y-91117857D01*
X147180952Y-91165476D01*
X147228571Y-91213095D01*
X147276190Y-91308333D01*
X147276190Y-91689285D01*
X146847619Y-90736904D02*
X146800000Y-90689285D01*
X146752380Y-90594047D01*
X146752380Y-90355952D01*
X146800000Y-90260714D01*
X146847619Y-90213095D01*
X146942857Y-90165476D01*
X147038095Y-90165476D01*
X147180952Y-90213095D01*
X147752380Y-90784523D01*
X147752380Y-90165476D01*
X147752380Y-89213095D02*
X147752380Y-89784523D01*
X147752380Y-89498809D02*
X146752380Y-89498809D01*
X146895238Y-89594047D01*
X146990476Y-89689285D01*
X147038095Y-89784523D01*
X156727380Y-117317857D02*
X156251190Y-117651190D01*
X156727380Y-117889285D02*
X155727380Y-117889285D01*
X155727380Y-117508333D01*
X155775000Y-117413095D01*
X155822619Y-117365476D01*
X155917857Y-117317857D01*
X156060714Y-117317857D01*
X156155952Y-117365476D01*
X156203571Y-117413095D01*
X156251190Y-117508333D01*
X156251190Y-117889285D01*
X156727380Y-116365476D02*
X156727380Y-116936904D01*
X156727380Y-116651190D02*
X155727380Y-116651190D01*
X155870238Y-116746428D01*
X155965476Y-116841666D01*
X156013095Y-116936904D01*
X155727380Y-116032142D02*
X155727380Y-115413095D01*
X156108333Y-115746428D01*
X156108333Y-115603571D01*
X156155952Y-115508333D01*
X156203571Y-115460714D01*
X156298809Y-115413095D01*
X156536904Y-115413095D01*
X156632142Y-115460714D01*
X156679761Y-115508333D01*
X156727380Y-115603571D01*
X156727380Y-115889285D01*
X156679761Y-115984523D01*
X156632142Y-116032142D01*
X153352380Y-91066666D02*
X152876190Y-91400000D01*
X153352380Y-91638095D02*
X152352380Y-91638095D01*
X152352380Y-91257142D01*
X152400000Y-91161904D01*
X152447619Y-91114285D01*
X152542857Y-91066666D01*
X152685714Y-91066666D01*
X152780952Y-91114285D01*
X152828571Y-91161904D01*
X152876190Y-91257142D01*
X152876190Y-91638095D01*
X153352380Y-90114285D02*
X153352380Y-90685714D01*
X153352380Y-90400000D02*
X152352380Y-90400000D01*
X152495238Y-90495238D01*
X152590476Y-90590476D01*
X152638095Y-90685714D01*
X150379761Y-91797619D02*
X150284523Y-91750000D01*
X150189285Y-91654761D01*
X150046428Y-91511904D01*
X149951190Y-91464285D01*
X149855952Y-91464285D01*
X149903571Y-91702380D02*
X149808333Y-91654761D01*
X149713095Y-91559523D01*
X149665476Y-91369047D01*
X149665476Y-91035714D01*
X149713095Y-90845238D01*
X149808333Y-90750000D01*
X149903571Y-90702380D01*
X150094047Y-90702380D01*
X150189285Y-90750000D01*
X150284523Y-90845238D01*
X150332142Y-91035714D01*
X150332142Y-91369047D01*
X150284523Y-91559523D01*
X150189285Y-91654761D01*
X150094047Y-91702380D01*
X149903571Y-91702380D01*
X150665476Y-90702380D02*
X151284523Y-90702380D01*
X150951190Y-91083333D01*
X151094047Y-91083333D01*
X151189285Y-91130952D01*
X151236904Y-91178571D01*
X151284523Y-91273809D01*
X151284523Y-91511904D01*
X151236904Y-91607142D01*
X151189285Y-91654761D01*
X151094047Y-91702380D01*
X150808333Y-91702380D01*
X150713095Y-91654761D01*
X150665476Y-91607142D01*
X168961904Y-115102380D02*
X168961904Y-114102380D01*
X169200000Y-114102380D01*
X169342857Y-114150000D01*
X169438095Y-114245238D01*
X169485714Y-114340476D01*
X169533333Y-114530952D01*
X169533333Y-114673809D01*
X169485714Y-114864285D01*
X169438095Y-114959523D01*
X169342857Y-115054761D01*
X169200000Y-115102380D01*
X168961904Y-115102380D01*
X170485714Y-115102380D02*
X169914285Y-115102380D01*
X170200000Y-115102380D02*
X170200000Y-114102380D01*
X170104761Y-114245238D01*
X170009523Y-114340476D01*
X169914285Y-114388095D01*
X165783333Y-115502142D02*
X165735714Y-115549761D01*
X165592857Y-115597380D01*
X165497619Y-115597380D01*
X165354761Y-115549761D01*
X165259523Y-115454523D01*
X165211904Y-115359285D01*
X165164285Y-115168809D01*
X165164285Y-115025952D01*
X165211904Y-114835476D01*
X165259523Y-114740238D01*
X165354761Y-114645000D01*
X165497619Y-114597380D01*
X165592857Y-114597380D01*
X165735714Y-114645000D01*
X165783333Y-114692619D01*
X166640476Y-114930714D02*
X166640476Y-115597380D01*
X166402380Y-114549761D02*
X166164285Y-115264047D01*
X166783333Y-115264047D01*
X154757142Y-113391666D02*
X154804761Y-113439285D01*
X154852380Y-113582142D01*
X154852380Y-113677380D01*
X154804761Y-113820238D01*
X154709523Y-113915476D01*
X154614285Y-113963095D01*
X154423809Y-114010714D01*
X154280952Y-114010714D01*
X154090476Y-113963095D01*
X153995238Y-113915476D01*
X153900000Y-113820238D01*
X153852380Y-113677380D01*
X153852380Y-113582142D01*
X153900000Y-113439285D01*
X153947619Y-113391666D01*
X153852380Y-113058333D02*
X153852380Y-112439285D01*
X154233333Y-112772619D01*
X154233333Y-112629761D01*
X154280952Y-112534523D01*
X154328571Y-112486904D01*
X154423809Y-112439285D01*
X154661904Y-112439285D01*
X154757142Y-112486904D01*
X154804761Y-112534523D01*
X154852380Y-112629761D01*
X154852380Y-112915476D01*
X154804761Y-113010714D01*
X154757142Y-113058333D01*
X150809687Y-108920389D02*
X150809687Y-108987732D01*
X150742343Y-109122419D01*
X150675000Y-109189763D01*
X150540312Y-109257106D01*
X150405625Y-109257106D01*
X150304610Y-109223435D01*
X150136251Y-109122419D01*
X150035236Y-109021404D01*
X149934221Y-108853045D01*
X149900549Y-108752030D01*
X149900549Y-108617343D01*
X149967893Y-108482656D01*
X150035236Y-108415312D01*
X150169923Y-108347969D01*
X150237267Y-108347969D01*
X150506641Y-108078595D02*
X150506641Y-108011251D01*
X150540312Y-107910236D01*
X150708671Y-107741877D01*
X150809687Y-107708206D01*
X150877030Y-107708206D01*
X150978045Y-107741877D01*
X151045389Y-107809221D01*
X151112732Y-107943908D01*
X151112732Y-108752030D01*
X151550465Y-108314297D01*
X152084687Y-109895389D02*
X152084687Y-109962732D01*
X152017343Y-110097419D01*
X151950000Y-110164763D01*
X151815312Y-110232106D01*
X151680625Y-110232106D01*
X151579610Y-110198435D01*
X151411251Y-110097419D01*
X151310236Y-109996404D01*
X151209221Y-109828045D01*
X151175549Y-109727030D01*
X151175549Y-109592343D01*
X151242893Y-109457656D01*
X151310236Y-109390312D01*
X151444923Y-109322969D01*
X151512267Y-109322969D01*
X152825465Y-109289297D02*
X152421404Y-109693358D01*
X152623435Y-109491328D02*
X151916328Y-108784221D01*
X151950000Y-108952580D01*
X151950000Y-109087267D01*
X151916328Y-109188282D01*
X144779761Y-91747619D02*
X144684523Y-91700000D01*
X144589285Y-91604761D01*
X144446428Y-91461904D01*
X144351190Y-91414285D01*
X144255952Y-91414285D01*
X144303571Y-91652380D02*
X144208333Y-91604761D01*
X144113095Y-91509523D01*
X144065476Y-91319047D01*
X144065476Y-90985714D01*
X144113095Y-90795238D01*
X144208333Y-90700000D01*
X144303571Y-90652380D01*
X144494047Y-90652380D01*
X144589285Y-90700000D01*
X144684523Y-90795238D01*
X144732142Y-90985714D01*
X144732142Y-91319047D01*
X144684523Y-91509523D01*
X144589285Y-91604761D01*
X144494047Y-91652380D01*
X144303571Y-91652380D01*
X145589285Y-90985714D02*
X145589285Y-91652380D01*
X145351190Y-90604761D02*
X145113095Y-91319047D01*
X145732142Y-91319047D01*
X160613095Y-109927380D02*
X160613095Y-110736904D01*
X160660714Y-110832142D01*
X160708333Y-110879761D01*
X160803571Y-110927380D01*
X160994047Y-110927380D01*
X161089285Y-110879761D01*
X161136904Y-110832142D01*
X161184523Y-110736904D01*
X161184523Y-109927380D01*
X161565476Y-109927380D02*
X162184523Y-109927380D01*
X161851190Y-110308333D01*
X161994047Y-110308333D01*
X162089285Y-110355952D01*
X162136904Y-110403571D01*
X162184523Y-110498809D01*
X162184523Y-110736904D01*
X162136904Y-110832142D01*
X162089285Y-110879761D01*
X161994047Y-110927380D01*
X161708333Y-110927380D01*
X161613095Y-110879761D01*
X161565476Y-110832142D01*
X144211902Y-104410601D02*
X143639482Y-104983021D01*
X143605810Y-105084036D01*
X143605810Y-105151380D01*
X143639482Y-105252395D01*
X143774169Y-105387082D01*
X143875184Y-105420754D01*
X143942528Y-105420754D01*
X144043543Y-105387082D01*
X144615963Y-104814662D01*
X144851665Y-105185052D02*
X144919008Y-105185052D01*
X145020024Y-105218723D01*
X145188382Y-105387082D01*
X145222054Y-105488097D01*
X145222054Y-105555441D01*
X145188382Y-105656456D01*
X145121039Y-105723800D01*
X144986352Y-105791143D01*
X144178230Y-105791143D01*
X144615963Y-106228876D01*
X156134523Y-105752380D02*
X155801190Y-105276190D01*
X155563095Y-105752380D02*
X155563095Y-104752380D01*
X155944047Y-104752380D01*
X156039285Y-104800000D01*
X156086904Y-104847619D01*
X156134523Y-104942857D01*
X156134523Y-105085714D01*
X156086904Y-105180952D01*
X156039285Y-105228571D01*
X155944047Y-105276190D01*
X155563095Y-105276190D01*
X156563095Y-105752380D02*
X156563095Y-104752380D01*
X157134523Y-105752380D01*
X157134523Y-104752380D01*
X157563095Y-104847619D02*
X157610714Y-104800000D01*
X157705952Y-104752380D01*
X157944047Y-104752380D01*
X158039285Y-104800000D01*
X158086904Y-104847619D01*
X158134523Y-104942857D01*
X158134523Y-105038095D01*
X158086904Y-105180952D01*
X157515476Y-105752380D01*
X158134523Y-105752380D01*
X157384523Y-95502380D02*
X157051190Y-95026190D01*
X156813095Y-95502380D02*
X156813095Y-94502380D01*
X157194047Y-94502380D01*
X157289285Y-94550000D01*
X157336904Y-94597619D01*
X157384523Y-94692857D01*
X157384523Y-94835714D01*
X157336904Y-94930952D01*
X157289285Y-94978571D01*
X157194047Y-95026190D01*
X156813095Y-95026190D01*
X157813095Y-95502380D02*
X157813095Y-94502380D01*
X158384523Y-95502380D01*
X158384523Y-94502380D01*
X159384523Y-95502380D02*
X158813095Y-95502380D01*
X159098809Y-95502380D02*
X159098809Y-94502380D01*
X159003571Y-94645238D01*
X158908333Y-94740476D01*
X158813095Y-94788095D01*
X160158333Y-109357380D02*
X159825000Y-108881190D01*
X159586904Y-109357380D02*
X159586904Y-108357380D01*
X159967857Y-108357380D01*
X160063095Y-108405000D01*
X160110714Y-108452619D01*
X160158333Y-108547857D01*
X160158333Y-108690714D01*
X160110714Y-108785952D01*
X160063095Y-108833571D01*
X159967857Y-108881190D01*
X159586904Y-108881190D01*
X160539285Y-108452619D02*
X160586904Y-108405000D01*
X160682142Y-108357380D01*
X160920238Y-108357380D01*
X161015476Y-108405000D01*
X161063095Y-108452619D01*
X161110714Y-108547857D01*
X161110714Y-108643095D01*
X161063095Y-108785952D01*
X160491666Y-109357380D01*
X161110714Y-109357380D01*
X158127380Y-111363095D02*
X157127380Y-111363095D01*
X157127380Y-111125000D01*
X157175000Y-110982142D01*
X157270238Y-110886904D01*
X157365476Y-110839285D01*
X157555952Y-110791666D01*
X157698809Y-110791666D01*
X157889285Y-110839285D01*
X157984523Y-110886904D01*
X158079761Y-110982142D01*
X158127380Y-111125000D01*
X158127380Y-111363095D01*
X157222619Y-110410714D02*
X157175000Y-110363095D01*
X157127380Y-110267857D01*
X157127380Y-110029761D01*
X157175000Y-109934523D01*
X157222619Y-109886904D01*
X157317857Y-109839285D01*
X157413095Y-109839285D01*
X157555952Y-109886904D01*
X158127380Y-110458333D01*
X158127380Y-109839285D01*
M02*
