G04 #@! TF.GenerationSoftware,KiCad,Pcbnew,(5.1.4)-1*
G04 #@! TF.CreationDate,2020-02-27T11:32:08-05:00*
G04 #@! TF.ProjectId,MotorcycleSwitch,4d6f746f-7263-4796-936c-655377697463,rev?*
G04 #@! TF.SameCoordinates,Original*
G04 #@! TF.FileFunction,Soldermask,Top*
G04 #@! TF.FilePolarity,Negative*
%FSLAX46Y46*%
G04 Gerber Fmt 4.6, Leading zero omitted, Abs format (unit mm)*
G04 Created by KiCad (PCBNEW (5.1.4)-1) date 2020-02-27 11:32:08*
%MOMM*%
%LPD*%
G04 APERTURE LIST*
%ADD10C,0.152400*%
%ADD11C,0.100000*%
G04 APERTURE END LIST*
D10*
X164475895Y-103752570D02*
X164475001Y-103743500D01*
X164478541Y-103761295D02*
X164475895Y-103752570D01*
X164482836Y-103769334D02*
X164478541Y-103761295D01*
X164488620Y-103776380D02*
X164482836Y-103769334D01*
X164495666Y-103782164D02*
X164488620Y-103776380D01*
X164503705Y-103786459D02*
X164495666Y-103782164D01*
X164512430Y-103789106D02*
X164503705Y-103786459D01*
X164521500Y-103790000D02*
X164512430Y-103789106D01*
X167528500Y-103790000D02*
X164521500Y-103790000D01*
X167537570Y-103789106D02*
X167528500Y-103790000D01*
X167546295Y-103786459D02*
X167537570Y-103789106D01*
X167554334Y-103782164D02*
X167546295Y-103786459D01*
X167561380Y-103776380D02*
X167554334Y-103782164D01*
X167567164Y-103769334D02*
X167561380Y-103776380D01*
X167571459Y-103761295D02*
X167567164Y-103769334D01*
X167574105Y-103752570D02*
X167571459Y-103761295D01*
X167574999Y-103743500D02*
X167574105Y-103752570D01*
X167574999Y-98656500D02*
X167574999Y-103743500D01*
X167574105Y-98647430D02*
X167574999Y-98656500D01*
X167571459Y-98638705D02*
X167574105Y-98647430D01*
X167567164Y-98630666D02*
X167571459Y-98638705D01*
X167561380Y-98623620D02*
X167567164Y-98630666D01*
X167554334Y-98617836D02*
X167561380Y-98623620D01*
X167546295Y-98613541D02*
X167554334Y-98617836D01*
X167537570Y-98610894D02*
X167546295Y-98613541D01*
X167528500Y-98610000D02*
X167537570Y-98610894D01*
X164521500Y-98610000D02*
X167528500Y-98610000D01*
X164512430Y-98610894D02*
X164521500Y-98610000D01*
X164503705Y-98613541D02*
X164512430Y-98610894D01*
X164495666Y-98617836D02*
X164503705Y-98613541D01*
X164488620Y-98623620D02*
X164495666Y-98617836D01*
X164482836Y-98630666D02*
X164488620Y-98623620D01*
X164478541Y-98638705D02*
X164482836Y-98630666D01*
X164475895Y-98647430D02*
X164478541Y-98638705D01*
X164475001Y-98656500D02*
X164475895Y-98647430D01*
X164475001Y-103743500D02*
X164475001Y-98656500D01*
D11*
G36*
X163567300Y-118253800D02*
G01*
X162982700Y-118253800D01*
X162982700Y-116780200D01*
X163567300Y-116780200D01*
X163567300Y-118253800D01*
X163567300Y-118253800D01*
G37*
G36*
X162297300Y-118253800D02*
G01*
X161712700Y-118253800D01*
X161712700Y-116780200D01*
X162297300Y-116780200D01*
X162297300Y-118253800D01*
X162297300Y-118253800D01*
G37*
G36*
X159757300Y-118253800D02*
G01*
X159172700Y-118253800D01*
X159172700Y-116780200D01*
X159757300Y-116780200D01*
X159757300Y-118253800D01*
X159757300Y-118253800D01*
G37*
G36*
X161027300Y-118253800D02*
G01*
X160442700Y-118253800D01*
X160442700Y-116780200D01*
X161027300Y-116780200D01*
X161027300Y-118253800D01*
X161027300Y-118253800D01*
G37*
G36*
X157999591Y-116953085D02*
G01*
X158033569Y-116963393D01*
X158064890Y-116980134D01*
X158092339Y-117002661D01*
X158114866Y-117030110D01*
X158131607Y-117061431D01*
X158141915Y-117095409D01*
X158146000Y-117136890D01*
X158146000Y-117738110D01*
X158141915Y-117779591D01*
X158131607Y-117813569D01*
X158114866Y-117844890D01*
X158092339Y-117872339D01*
X158064890Y-117894866D01*
X158033569Y-117911607D01*
X157999591Y-117921915D01*
X157958110Y-117926000D01*
X157281890Y-117926000D01*
X157240409Y-117921915D01*
X157206431Y-117911607D01*
X157175110Y-117894866D01*
X157147661Y-117872339D01*
X157125134Y-117844890D01*
X157108393Y-117813569D01*
X157098085Y-117779591D01*
X157094000Y-117738110D01*
X157094000Y-117136890D01*
X157098085Y-117095409D01*
X157108393Y-117061431D01*
X157125134Y-117030110D01*
X157147661Y-117002661D01*
X157175110Y-116980134D01*
X157206431Y-116963393D01*
X157240409Y-116953085D01*
X157281890Y-116949000D01*
X157958110Y-116949000D01*
X157999591Y-116953085D01*
X157999591Y-116953085D01*
G37*
G36*
X167079591Y-116053085D02*
G01*
X167113569Y-116063393D01*
X167144890Y-116080134D01*
X167172339Y-116102661D01*
X167194866Y-116130110D01*
X167211607Y-116161431D01*
X167221915Y-116195409D01*
X167226000Y-116236890D01*
X167226000Y-116913110D01*
X167221915Y-116954591D01*
X167211607Y-116988569D01*
X167194866Y-117019890D01*
X167172339Y-117047339D01*
X167144890Y-117069866D01*
X167113569Y-117086607D01*
X167079591Y-117096915D01*
X167038110Y-117101000D01*
X166436890Y-117101000D01*
X166395409Y-117096915D01*
X166361431Y-117086607D01*
X166330110Y-117069866D01*
X166302661Y-117047339D01*
X166280134Y-117019890D01*
X166263393Y-116988569D01*
X166253085Y-116954591D01*
X166249000Y-116913110D01*
X166249000Y-116236890D01*
X166253085Y-116195409D01*
X166263393Y-116161431D01*
X166280134Y-116130110D01*
X166302661Y-116102661D01*
X166330110Y-116080134D01*
X166361431Y-116063393D01*
X166395409Y-116053085D01*
X166436890Y-116049000D01*
X167038110Y-116049000D01*
X167079591Y-116053085D01*
X167079591Y-116053085D01*
G37*
G36*
X165504591Y-116053085D02*
G01*
X165538569Y-116063393D01*
X165569890Y-116080134D01*
X165597339Y-116102661D01*
X165619866Y-116130110D01*
X165636607Y-116161431D01*
X165646915Y-116195409D01*
X165651000Y-116236890D01*
X165651000Y-116913110D01*
X165646915Y-116954591D01*
X165636607Y-116988569D01*
X165619866Y-117019890D01*
X165597339Y-117047339D01*
X165569890Y-117069866D01*
X165538569Y-117086607D01*
X165504591Y-117096915D01*
X165463110Y-117101000D01*
X164861890Y-117101000D01*
X164820409Y-117096915D01*
X164786431Y-117086607D01*
X164755110Y-117069866D01*
X164727661Y-117047339D01*
X164705134Y-117019890D01*
X164688393Y-116988569D01*
X164678085Y-116954591D01*
X164674000Y-116913110D01*
X164674000Y-116236890D01*
X164678085Y-116195409D01*
X164688393Y-116161431D01*
X164705134Y-116130110D01*
X164727661Y-116102661D01*
X164755110Y-116080134D01*
X164786431Y-116063393D01*
X164820409Y-116053085D01*
X164861890Y-116049000D01*
X165463110Y-116049000D01*
X165504591Y-116053085D01*
X165504591Y-116053085D01*
G37*
G36*
X157999591Y-115378085D02*
G01*
X158033569Y-115388393D01*
X158064890Y-115405134D01*
X158092339Y-115427661D01*
X158114866Y-115455110D01*
X158131607Y-115486431D01*
X158141915Y-115520409D01*
X158146000Y-115561890D01*
X158146000Y-116163110D01*
X158141915Y-116204591D01*
X158131607Y-116238569D01*
X158114866Y-116269890D01*
X158092339Y-116297339D01*
X158064890Y-116319866D01*
X158033569Y-116336607D01*
X157999591Y-116346915D01*
X157958110Y-116351000D01*
X157281890Y-116351000D01*
X157240409Y-116346915D01*
X157206431Y-116336607D01*
X157175110Y-116319866D01*
X157147661Y-116297339D01*
X157125134Y-116269890D01*
X157108393Y-116238569D01*
X157098085Y-116204591D01*
X157094000Y-116163110D01*
X157094000Y-115561890D01*
X157098085Y-115520409D01*
X157108393Y-115486431D01*
X157125134Y-115455110D01*
X157147661Y-115427661D01*
X157175110Y-115405134D01*
X157206431Y-115388393D01*
X157240409Y-115378085D01*
X157281890Y-115374000D01*
X157958110Y-115374000D01*
X157999591Y-115378085D01*
X157999591Y-115378085D01*
G37*
G36*
X163021200Y-116107500D02*
G01*
X159718800Y-116107500D01*
X159718800Y-113592500D01*
X163021200Y-113592500D01*
X163021200Y-116107500D01*
X163021200Y-116107500D01*
G37*
G36*
X165651000Y-115326000D02*
G01*
X164649000Y-115326000D01*
X164649000Y-114024000D01*
X165651000Y-114024000D01*
X165651000Y-115326000D01*
X165651000Y-115326000D01*
G37*
G36*
X168951000Y-115326000D02*
G01*
X167949000Y-115326000D01*
X167949000Y-114024000D01*
X168951000Y-114024000D01*
X168951000Y-115326000D01*
X168951000Y-115326000D01*
G37*
G36*
X157974618Y-113542965D02*
G01*
X158007433Y-113552919D01*
X158037665Y-113569079D01*
X158064170Y-113590830D01*
X158085921Y-113617335D01*
X158102081Y-113647567D01*
X158112035Y-113680382D01*
X158116000Y-113720640D01*
X158116000Y-114684360D01*
X158112035Y-114724618D01*
X158102081Y-114757433D01*
X158085921Y-114787665D01*
X158064170Y-114814170D01*
X158037665Y-114835921D01*
X158007433Y-114852081D01*
X157974618Y-114862035D01*
X157934360Y-114866000D01*
X157345640Y-114866000D01*
X157305382Y-114862035D01*
X157272567Y-114852081D01*
X157242335Y-114835921D01*
X157215830Y-114814170D01*
X157194079Y-114787665D01*
X157177919Y-114757433D01*
X157167965Y-114724618D01*
X157164000Y-114684360D01*
X157164000Y-113720640D01*
X157167965Y-113680382D01*
X157177919Y-113647567D01*
X157194079Y-113617335D01*
X157215830Y-113590830D01*
X157242335Y-113569079D01*
X157272567Y-113552919D01*
X157305382Y-113542965D01*
X157345640Y-113539000D01*
X157934360Y-113539000D01*
X157974618Y-113542965D01*
X157974618Y-113542965D01*
G37*
G36*
X156179591Y-113663085D02*
G01*
X156213569Y-113673393D01*
X156244890Y-113690134D01*
X156272339Y-113712661D01*
X156294866Y-113740110D01*
X156311607Y-113771431D01*
X156321915Y-113805409D01*
X156326000Y-113846890D01*
X156326000Y-114448110D01*
X156321915Y-114489591D01*
X156311607Y-114523569D01*
X156294866Y-114554890D01*
X156272339Y-114582339D01*
X156244890Y-114604866D01*
X156213569Y-114621607D01*
X156179591Y-114631915D01*
X156138110Y-114636000D01*
X155461890Y-114636000D01*
X155420409Y-114631915D01*
X155386431Y-114621607D01*
X155355110Y-114604866D01*
X155327661Y-114582339D01*
X155305134Y-114554890D01*
X155288393Y-114523569D01*
X155278085Y-114489591D01*
X155274000Y-114448110D01*
X155274000Y-113846890D01*
X155278085Y-113805409D01*
X155288393Y-113771431D01*
X155305134Y-113740110D01*
X155327661Y-113712661D01*
X155355110Y-113690134D01*
X155386431Y-113673393D01*
X155420409Y-113663085D01*
X155461890Y-113659000D01*
X156138110Y-113659000D01*
X156179591Y-113663085D01*
X156179591Y-113663085D01*
G37*
G36*
X157974618Y-111917965D02*
G01*
X158007433Y-111927919D01*
X158037665Y-111944079D01*
X158064170Y-111965830D01*
X158085921Y-111992335D01*
X158102081Y-112022567D01*
X158112035Y-112055382D01*
X158116000Y-112095640D01*
X158116000Y-113059360D01*
X158112035Y-113099618D01*
X158102081Y-113132433D01*
X158085921Y-113162665D01*
X158064170Y-113189170D01*
X158037665Y-113210921D01*
X158007433Y-113227081D01*
X157974618Y-113237035D01*
X157934360Y-113241000D01*
X157345640Y-113241000D01*
X157305382Y-113237035D01*
X157272567Y-113227081D01*
X157242335Y-113210921D01*
X157215830Y-113189170D01*
X157194079Y-113162665D01*
X157177919Y-113132433D01*
X157167965Y-113099618D01*
X157164000Y-113059360D01*
X157164000Y-112095640D01*
X157167965Y-112055382D01*
X157177919Y-112022567D01*
X157194079Y-111992335D01*
X157215830Y-111965830D01*
X157242335Y-111944079D01*
X157272567Y-111927919D01*
X157305382Y-111917965D01*
X157345640Y-111914000D01*
X157934360Y-111914000D01*
X157974618Y-111917965D01*
X157974618Y-111917965D01*
G37*
G36*
X156179591Y-112088085D02*
G01*
X156213569Y-112098393D01*
X156244890Y-112115134D01*
X156272339Y-112137661D01*
X156294866Y-112165110D01*
X156311607Y-112196431D01*
X156321915Y-112230409D01*
X156326000Y-112271890D01*
X156326000Y-112873110D01*
X156321915Y-112914591D01*
X156311607Y-112948569D01*
X156294866Y-112979890D01*
X156272339Y-113007339D01*
X156244890Y-113029866D01*
X156213569Y-113046607D01*
X156179591Y-113056915D01*
X156138110Y-113061000D01*
X155461890Y-113061000D01*
X155420409Y-113056915D01*
X155386431Y-113046607D01*
X155355110Y-113029866D01*
X155327661Y-113007339D01*
X155305134Y-112979890D01*
X155288393Y-112948569D01*
X155278085Y-112914591D01*
X155274000Y-112873110D01*
X155274000Y-112271890D01*
X155278085Y-112230409D01*
X155288393Y-112196431D01*
X155305134Y-112165110D01*
X155327661Y-112137661D01*
X155355110Y-112115134D01*
X155386431Y-112098393D01*
X155420409Y-112088085D01*
X155461890Y-112084000D01*
X156138110Y-112084000D01*
X156179591Y-112088085D01*
X156179591Y-112088085D01*
G37*
G36*
X162297300Y-112919800D02*
G01*
X161712700Y-112919800D01*
X161712700Y-111446200D01*
X162297300Y-111446200D01*
X162297300Y-112919800D01*
X162297300Y-112919800D01*
G37*
G36*
X159757300Y-112919800D02*
G01*
X159172700Y-112919800D01*
X159172700Y-111446200D01*
X159757300Y-111446200D01*
X159757300Y-112919800D01*
X159757300Y-112919800D01*
G37*
G36*
X163567300Y-112919800D02*
G01*
X162982700Y-112919800D01*
X162982700Y-111446200D01*
X163567300Y-111446200D01*
X163567300Y-112919800D01*
X163567300Y-112919800D01*
G37*
G36*
X161027300Y-112919800D02*
G01*
X160442700Y-112919800D01*
X160442700Y-111446200D01*
X161027300Y-111446200D01*
X161027300Y-112919800D01*
X161027300Y-112919800D01*
G37*
G36*
X171351000Y-112701000D02*
G01*
X168749000Y-112701000D01*
X168749000Y-110799000D01*
X171351000Y-110799000D01*
X171351000Y-112701000D01*
X171351000Y-112701000D01*
G37*
G36*
X167351000Y-112701000D02*
G01*
X164749000Y-112701000D01*
X164749000Y-110799000D01*
X167351000Y-110799000D01*
X167351000Y-112701000D01*
X167351000Y-112701000D01*
G37*
G36*
X174276000Y-109701000D02*
G01*
X172474000Y-109701000D01*
X172474000Y-107899000D01*
X174276000Y-107899000D01*
X174276000Y-109701000D01*
X174276000Y-109701000D01*
G37*
G36*
X153084977Y-107726855D02*
G01*
X153118955Y-107737163D01*
X153150276Y-107753904D01*
X153182490Y-107780342D01*
X153222341Y-107820193D01*
X153222347Y-107820198D01*
X153620802Y-108218653D01*
X153620807Y-108218659D01*
X153660658Y-108258510D01*
X153687096Y-108290724D01*
X153703837Y-108322045D01*
X153714145Y-108356023D01*
X153717625Y-108391364D01*
X153714145Y-108426705D01*
X153703837Y-108460683D01*
X153687096Y-108492004D01*
X153660658Y-108524218D01*
X153620807Y-108564069D01*
X153620802Y-108564075D01*
X153275381Y-108909496D01*
X153275375Y-108909501D01*
X153235524Y-108949352D01*
X153203310Y-108975790D01*
X153171989Y-108992531D01*
X153138011Y-109002839D01*
X153102670Y-109006319D01*
X153067329Y-109002839D01*
X153033351Y-108992531D01*
X153002030Y-108975790D01*
X152969816Y-108949352D01*
X152929965Y-108909501D01*
X152929959Y-108909496D01*
X152531504Y-108511041D01*
X152531499Y-108511035D01*
X152491648Y-108471184D01*
X152465210Y-108438970D01*
X152448469Y-108407649D01*
X152438161Y-108373671D01*
X152434681Y-108338330D01*
X152438161Y-108302989D01*
X152448469Y-108269011D01*
X152465210Y-108237690D01*
X152491648Y-108205476D01*
X152531499Y-108165625D01*
X152531504Y-108165619D01*
X152876925Y-107820198D01*
X152876931Y-107820193D01*
X152916782Y-107780342D01*
X152948996Y-107753904D01*
X152980317Y-107737163D01*
X153014295Y-107726855D01*
X153049636Y-107723375D01*
X153084977Y-107726855D01*
X153084977Y-107726855D01*
G37*
G36*
X167529591Y-106978085D02*
G01*
X167563569Y-106988393D01*
X167594890Y-107005134D01*
X167622339Y-107027661D01*
X167644866Y-107055110D01*
X167661607Y-107086431D01*
X167671915Y-107120409D01*
X167676000Y-107161890D01*
X167676000Y-107838110D01*
X167671915Y-107879591D01*
X167661607Y-107913569D01*
X167644866Y-107944890D01*
X167622339Y-107972339D01*
X167594890Y-107994866D01*
X167563569Y-108011607D01*
X167529591Y-108021915D01*
X167488110Y-108026000D01*
X166886890Y-108026000D01*
X166845409Y-108021915D01*
X166811431Y-108011607D01*
X166780110Y-107994866D01*
X166752661Y-107972339D01*
X166730134Y-107944890D01*
X166713393Y-107913569D01*
X166703085Y-107879591D01*
X166699000Y-107838110D01*
X166699000Y-107161890D01*
X166703085Y-107120409D01*
X166713393Y-107086431D01*
X166730134Y-107055110D01*
X166752661Y-107027661D01*
X166780110Y-107005134D01*
X166811431Y-106988393D01*
X166845409Y-106978085D01*
X166886890Y-106974000D01*
X167488110Y-106974000D01*
X167529591Y-106978085D01*
X167529591Y-106978085D01*
G37*
G36*
X165954591Y-106978085D02*
G01*
X165988569Y-106988393D01*
X166019890Y-107005134D01*
X166047339Y-107027661D01*
X166069866Y-107055110D01*
X166086607Y-107086431D01*
X166096915Y-107120409D01*
X166101000Y-107161890D01*
X166101000Y-107838110D01*
X166096915Y-107879591D01*
X166086607Y-107913569D01*
X166069866Y-107944890D01*
X166047339Y-107972339D01*
X166019890Y-107994866D01*
X165988569Y-108011607D01*
X165954591Y-108021915D01*
X165913110Y-108026000D01*
X165311890Y-108026000D01*
X165270409Y-108021915D01*
X165236431Y-108011607D01*
X165205110Y-107994866D01*
X165177661Y-107972339D01*
X165155134Y-107944890D01*
X165138393Y-107913569D01*
X165128085Y-107879591D01*
X165124000Y-107838110D01*
X165124000Y-107161890D01*
X165128085Y-107120409D01*
X165138393Y-107086431D01*
X165155134Y-107055110D01*
X165177661Y-107027661D01*
X165205110Y-107005134D01*
X165236431Y-106988393D01*
X165270409Y-106978085D01*
X165311890Y-106974000D01*
X165913110Y-106974000D01*
X165954591Y-106978085D01*
X165954591Y-106978085D01*
G37*
G36*
X159864499Y-106953445D02*
G01*
X159901995Y-106964820D01*
X159936554Y-106983292D01*
X159966847Y-107008153D01*
X159991708Y-107038446D01*
X160010180Y-107073005D01*
X160021555Y-107110501D01*
X160026000Y-107155638D01*
X160026000Y-107794362D01*
X160021555Y-107839499D01*
X160010180Y-107876995D01*
X159991708Y-107911554D01*
X159966847Y-107941847D01*
X159936554Y-107966708D01*
X159901995Y-107985180D01*
X159864499Y-107996555D01*
X159819362Y-108001000D01*
X159080638Y-108001000D01*
X159035501Y-107996555D01*
X158998005Y-107985180D01*
X158963446Y-107966708D01*
X158933153Y-107941847D01*
X158908292Y-107911554D01*
X158889820Y-107876995D01*
X158878445Y-107839499D01*
X158874000Y-107794362D01*
X158874000Y-107155638D01*
X158878445Y-107110501D01*
X158889820Y-107073005D01*
X158908292Y-107038446D01*
X158933153Y-107008153D01*
X158963446Y-106983292D01*
X158998005Y-106964820D01*
X159035501Y-106953445D01*
X159080638Y-106949000D01*
X159819362Y-106949000D01*
X159864499Y-106953445D01*
X159864499Y-106953445D01*
G37*
G36*
X161614499Y-106953445D02*
G01*
X161651995Y-106964820D01*
X161686554Y-106983292D01*
X161716847Y-107008153D01*
X161741708Y-107038446D01*
X161760180Y-107073005D01*
X161771555Y-107110501D01*
X161776000Y-107155638D01*
X161776000Y-107794362D01*
X161771555Y-107839499D01*
X161760180Y-107876995D01*
X161741708Y-107911554D01*
X161716847Y-107941847D01*
X161686554Y-107966708D01*
X161651995Y-107985180D01*
X161614499Y-107996555D01*
X161569362Y-108001000D01*
X160830638Y-108001000D01*
X160785501Y-107996555D01*
X160748005Y-107985180D01*
X160713446Y-107966708D01*
X160683153Y-107941847D01*
X160658292Y-107911554D01*
X160639820Y-107876995D01*
X160628445Y-107839499D01*
X160624000Y-107794362D01*
X160624000Y-107155638D01*
X160628445Y-107110501D01*
X160639820Y-107073005D01*
X160658292Y-107038446D01*
X160683153Y-107008153D01*
X160713446Y-106983292D01*
X160748005Y-106964820D01*
X160785501Y-106953445D01*
X160830638Y-106949000D01*
X161569362Y-106949000D01*
X161614499Y-106953445D01*
X161614499Y-106953445D01*
G37*
G36*
X151984977Y-106651855D02*
G01*
X152018955Y-106662163D01*
X152050276Y-106678904D01*
X152082490Y-106705342D01*
X152122341Y-106745193D01*
X152122347Y-106745198D01*
X152520802Y-107143653D01*
X152520807Y-107143659D01*
X152560658Y-107183510D01*
X152587096Y-107215724D01*
X152603837Y-107247045D01*
X152614145Y-107281023D01*
X152617625Y-107316364D01*
X152614145Y-107351705D01*
X152603837Y-107385683D01*
X152587096Y-107417004D01*
X152560658Y-107449218D01*
X152520807Y-107489069D01*
X152520802Y-107489075D01*
X152175381Y-107834496D01*
X152175375Y-107834501D01*
X152135524Y-107874352D01*
X152103310Y-107900790D01*
X152071989Y-107917531D01*
X152038011Y-107927839D01*
X152002670Y-107931319D01*
X151967329Y-107927839D01*
X151933351Y-107917531D01*
X151902030Y-107900790D01*
X151869816Y-107874352D01*
X151829965Y-107834501D01*
X151829959Y-107834496D01*
X151431504Y-107436041D01*
X151431499Y-107436035D01*
X151391648Y-107396184D01*
X151365210Y-107363970D01*
X151348469Y-107332649D01*
X151338161Y-107298671D01*
X151334681Y-107263330D01*
X151338161Y-107227989D01*
X151348469Y-107194011D01*
X151365210Y-107162690D01*
X151391648Y-107130476D01*
X151431499Y-107090625D01*
X151431504Y-107090619D01*
X151776925Y-106745198D01*
X151776931Y-106745193D01*
X151816782Y-106705342D01*
X151848996Y-106678904D01*
X151880317Y-106662163D01*
X151914295Y-106651855D01*
X151949636Y-106648375D01*
X151984977Y-106651855D01*
X151984977Y-106651855D01*
G37*
G36*
X154198671Y-106613161D02*
G01*
X154232649Y-106623469D01*
X154263970Y-106640210D01*
X154296184Y-106666648D01*
X154336035Y-106706499D01*
X154336041Y-106706504D01*
X154734496Y-107104959D01*
X154734501Y-107104965D01*
X154774352Y-107144816D01*
X154800790Y-107177030D01*
X154817531Y-107208351D01*
X154827839Y-107242329D01*
X154831319Y-107277670D01*
X154827839Y-107313011D01*
X154817531Y-107346989D01*
X154800790Y-107378310D01*
X154774352Y-107410524D01*
X154734501Y-107450375D01*
X154734496Y-107450381D01*
X154389075Y-107795802D01*
X154389069Y-107795807D01*
X154349218Y-107835658D01*
X154317004Y-107862096D01*
X154285683Y-107878837D01*
X154251705Y-107889145D01*
X154216364Y-107892625D01*
X154181023Y-107889145D01*
X154147045Y-107878837D01*
X154115724Y-107862096D01*
X154083510Y-107835658D01*
X154043659Y-107795807D01*
X154043653Y-107795802D01*
X153645198Y-107397347D01*
X153645193Y-107397341D01*
X153605342Y-107357490D01*
X153578904Y-107325276D01*
X153562163Y-107293955D01*
X153551855Y-107259977D01*
X153548375Y-107224636D01*
X153551855Y-107189295D01*
X153562163Y-107155317D01*
X153578904Y-107123996D01*
X153605342Y-107091782D01*
X153645193Y-107051931D01*
X153645198Y-107051925D01*
X153990619Y-106706504D01*
X153990625Y-106706499D01*
X154030476Y-106666648D01*
X154062690Y-106640210D01*
X154094011Y-106623469D01*
X154127989Y-106613161D01*
X154163330Y-106609681D01*
X154198671Y-106613161D01*
X154198671Y-106613161D01*
G37*
G36*
X173485442Y-105365518D02*
G01*
X173551627Y-105372037D01*
X173721466Y-105423557D01*
X173721468Y-105423558D01*
X173757168Y-105442640D01*
X173877991Y-105507222D01*
X173885889Y-105513704D01*
X174015186Y-105619814D01*
X174083996Y-105703661D01*
X174127778Y-105757009D01*
X174211443Y-105913534D01*
X174262963Y-106083373D01*
X174280359Y-106260000D01*
X174262963Y-106436627D01*
X174211443Y-106606466D01*
X174127778Y-106762991D01*
X174121030Y-106771213D01*
X174015186Y-106900186D01*
X173913920Y-106983292D01*
X173877991Y-107012778D01*
X173721466Y-107096443D01*
X173551627Y-107147963D01*
X173485442Y-107154482D01*
X173419260Y-107161000D01*
X173330740Y-107161000D01*
X173264558Y-107154482D01*
X173198373Y-107147963D01*
X173028534Y-107096443D01*
X172872009Y-107012778D01*
X172836080Y-106983292D01*
X172734814Y-106900186D01*
X172628970Y-106771213D01*
X172622222Y-106762991D01*
X172538557Y-106606466D01*
X172487037Y-106436627D01*
X172469641Y-106260000D01*
X172487037Y-106083373D01*
X172538557Y-105913534D01*
X172622222Y-105757009D01*
X172666004Y-105703661D01*
X172734814Y-105619814D01*
X172864111Y-105513704D01*
X172872009Y-105507222D01*
X172992832Y-105442640D01*
X173028532Y-105423558D01*
X173028534Y-105423557D01*
X173198373Y-105372037D01*
X173264558Y-105365518D01*
X173330740Y-105359000D01*
X173419260Y-105359000D01*
X173485442Y-105365518D01*
X173485442Y-105365518D01*
G37*
G36*
X125601000Y-106901000D02*
G01*
X123799000Y-106901000D01*
X123799000Y-105099000D01*
X125601000Y-105099000D01*
X125601000Y-106901000D01*
X125601000Y-106901000D01*
G37*
G36*
X153098671Y-105538161D02*
G01*
X153132649Y-105548469D01*
X153163970Y-105565210D01*
X153196184Y-105591648D01*
X153236035Y-105631499D01*
X153236041Y-105631504D01*
X153634496Y-106029959D01*
X153634501Y-106029965D01*
X153674352Y-106069816D01*
X153700790Y-106102030D01*
X153717531Y-106133351D01*
X153727839Y-106167329D01*
X153731319Y-106202670D01*
X153727839Y-106238011D01*
X153717531Y-106271989D01*
X153700790Y-106303310D01*
X153674352Y-106335524D01*
X153634501Y-106375375D01*
X153634496Y-106375381D01*
X153289075Y-106720802D01*
X153289069Y-106720807D01*
X153249218Y-106760658D01*
X153217004Y-106787096D01*
X153185683Y-106803837D01*
X153151705Y-106814145D01*
X153116364Y-106817625D01*
X153081023Y-106814145D01*
X153047045Y-106803837D01*
X153015724Y-106787096D01*
X152983510Y-106760658D01*
X152943659Y-106720807D01*
X152943653Y-106720802D01*
X152545198Y-106322347D01*
X152545193Y-106322341D01*
X152505342Y-106282490D01*
X152478904Y-106250276D01*
X152462163Y-106218955D01*
X152451855Y-106184977D01*
X152448375Y-106149636D01*
X152451855Y-106114295D01*
X152462163Y-106080317D01*
X152478904Y-106048996D01*
X152505342Y-106016782D01*
X152545193Y-105976931D01*
X152545198Y-105976925D01*
X152890619Y-105631504D01*
X152890625Y-105631499D01*
X152930476Y-105591648D01*
X152962690Y-105565210D01*
X152994011Y-105548469D01*
X153027989Y-105538161D01*
X153063330Y-105534681D01*
X153098671Y-105538161D01*
X153098671Y-105538161D01*
G37*
G36*
X152979746Y-101516169D02*
G01*
X152986761Y-101518297D01*
X152993227Y-101521754D01*
X153003661Y-101530316D01*
X154056348Y-102583003D01*
X154064910Y-102593437D01*
X154068367Y-102599903D01*
X154070495Y-102606918D01*
X154071213Y-102614213D01*
X154070495Y-102621508D01*
X154068367Y-102628523D01*
X154064910Y-102634989D01*
X154056348Y-102645423D01*
X153834511Y-102867260D01*
X153824077Y-102875822D01*
X153817610Y-102879279D01*
X153802674Y-102883810D01*
X153780035Y-102893187D01*
X153759661Y-102906801D01*
X153742334Y-102924128D01*
X153728720Y-102944503D01*
X153719344Y-102967140D01*
X153714813Y-102982076D01*
X153711356Y-102988543D01*
X153702794Y-102998977D01*
X153480957Y-103220814D01*
X153470523Y-103229376D01*
X153464057Y-103232833D01*
X153449120Y-103237364D01*
X153426481Y-103246742D01*
X153406107Y-103260356D01*
X153388780Y-103277683D01*
X153375167Y-103298058D01*
X153365791Y-103320693D01*
X153361260Y-103335630D01*
X153357803Y-103342096D01*
X153349241Y-103352530D01*
X153127404Y-103574367D01*
X153116970Y-103582929D01*
X153110503Y-103586386D01*
X153095567Y-103590917D01*
X153072928Y-103600294D01*
X153052554Y-103613908D01*
X153035227Y-103631235D01*
X153021613Y-103651610D01*
X153012237Y-103674247D01*
X153007706Y-103689183D01*
X153004249Y-103695650D01*
X152995687Y-103706084D01*
X152773850Y-103927921D01*
X152763416Y-103936483D01*
X152756950Y-103939940D01*
X152742013Y-103944471D01*
X152719374Y-103953849D01*
X152699000Y-103967463D01*
X152681673Y-103984790D01*
X152668060Y-104005165D01*
X152658684Y-104027800D01*
X152654153Y-104042737D01*
X152650696Y-104049203D01*
X152642134Y-104059637D01*
X152420297Y-104281474D01*
X152409863Y-104290036D01*
X152403397Y-104293493D01*
X152388460Y-104298024D01*
X152365821Y-104307402D01*
X152345447Y-104321016D01*
X152328120Y-104338343D01*
X152314507Y-104358718D01*
X152305131Y-104381353D01*
X152300600Y-104396290D01*
X152297143Y-104402756D01*
X152288581Y-104413190D01*
X152066744Y-104635027D01*
X152056310Y-104643589D01*
X152049843Y-104647046D01*
X152034907Y-104651577D01*
X152012268Y-104660954D01*
X151991894Y-104674568D01*
X151974567Y-104691895D01*
X151960953Y-104712270D01*
X151951577Y-104734907D01*
X151947046Y-104749843D01*
X151943589Y-104756310D01*
X151935027Y-104766744D01*
X151713190Y-104988581D01*
X151702756Y-104997143D01*
X151696290Y-105000600D01*
X151681353Y-105005131D01*
X151658714Y-105014509D01*
X151638340Y-105028123D01*
X151621013Y-105045450D01*
X151607400Y-105065825D01*
X151598024Y-105088460D01*
X151593493Y-105103397D01*
X151590036Y-105109863D01*
X151581474Y-105120297D01*
X151359637Y-105342134D01*
X151349203Y-105350696D01*
X151342737Y-105354153D01*
X151327800Y-105358684D01*
X151305161Y-105368062D01*
X151284787Y-105381676D01*
X151267460Y-105399003D01*
X151253847Y-105419378D01*
X151244471Y-105442013D01*
X151239940Y-105456950D01*
X151236483Y-105463416D01*
X151227921Y-105473850D01*
X151006084Y-105695687D01*
X150995650Y-105704249D01*
X150989183Y-105707706D01*
X150974247Y-105712237D01*
X150951608Y-105721614D01*
X150931234Y-105735228D01*
X150913907Y-105752555D01*
X150900293Y-105772930D01*
X150890917Y-105795567D01*
X150886386Y-105810503D01*
X150882929Y-105816970D01*
X150874367Y-105827404D01*
X150652530Y-106049241D01*
X150642096Y-106057803D01*
X150635630Y-106061260D01*
X150620693Y-106065791D01*
X150598054Y-106075169D01*
X150577680Y-106088783D01*
X150560353Y-106106110D01*
X150546740Y-106126485D01*
X150537364Y-106149120D01*
X150532833Y-106164057D01*
X150529376Y-106170523D01*
X150520814Y-106180957D01*
X150298977Y-106402794D01*
X150288543Y-106411356D01*
X150282076Y-106414813D01*
X150267140Y-106419344D01*
X150244501Y-106428721D01*
X150224127Y-106442335D01*
X150206800Y-106459662D01*
X150193186Y-106480037D01*
X150183810Y-106502674D01*
X150179279Y-106517610D01*
X150175822Y-106524077D01*
X150167260Y-106534511D01*
X149945423Y-106756348D01*
X149934989Y-106764910D01*
X149928523Y-106768367D01*
X149921508Y-106770495D01*
X149914213Y-106771213D01*
X149906918Y-106770495D01*
X149899903Y-106768367D01*
X149893437Y-106764910D01*
X149883003Y-106756348D01*
X148830316Y-105703661D01*
X148821754Y-105693227D01*
X148818297Y-105686761D01*
X148816169Y-105679746D01*
X148815451Y-105672451D01*
X148816169Y-105665156D01*
X148818297Y-105658141D01*
X148821754Y-105651675D01*
X148830316Y-105641241D01*
X149052153Y-105419404D01*
X149062587Y-105410842D01*
X149069054Y-105407385D01*
X149083990Y-105402854D01*
X149106629Y-105393477D01*
X149127003Y-105379863D01*
X149144330Y-105362536D01*
X149157944Y-105342161D01*
X149167320Y-105319524D01*
X149171851Y-105304588D01*
X149175308Y-105298121D01*
X149183870Y-105287687D01*
X149405707Y-105065850D01*
X149416141Y-105057288D01*
X149422607Y-105053831D01*
X149437544Y-105049300D01*
X149460183Y-105039922D01*
X149480557Y-105026308D01*
X149497884Y-105008981D01*
X149511497Y-104988606D01*
X149520873Y-104965971D01*
X149525404Y-104951034D01*
X149528861Y-104944568D01*
X149537423Y-104934134D01*
X149759260Y-104712297D01*
X149769694Y-104703735D01*
X149776161Y-104700278D01*
X149791097Y-104695747D01*
X149813736Y-104686370D01*
X149834110Y-104672756D01*
X149851437Y-104655429D01*
X149865051Y-104635054D01*
X149874427Y-104612417D01*
X149878958Y-104597481D01*
X149882415Y-104591014D01*
X149890977Y-104580580D01*
X150112814Y-104358743D01*
X150123248Y-104350181D01*
X150129714Y-104346724D01*
X150144651Y-104342193D01*
X150167290Y-104332815D01*
X150187664Y-104319201D01*
X150204991Y-104301874D01*
X150218604Y-104281499D01*
X150227980Y-104258864D01*
X150232511Y-104243927D01*
X150235968Y-104237461D01*
X150244530Y-104227027D01*
X150466367Y-104005190D01*
X150476801Y-103996628D01*
X150483267Y-103993171D01*
X150498204Y-103988640D01*
X150520843Y-103979262D01*
X150541217Y-103965648D01*
X150558544Y-103948321D01*
X150572157Y-103927946D01*
X150581533Y-103905311D01*
X150586064Y-103890374D01*
X150589521Y-103883908D01*
X150598083Y-103873474D01*
X150819920Y-103651637D01*
X150830354Y-103643075D01*
X150836821Y-103639618D01*
X150851757Y-103635087D01*
X150874396Y-103625710D01*
X150894770Y-103612096D01*
X150912097Y-103594769D01*
X150925711Y-103574394D01*
X150935087Y-103551757D01*
X150939618Y-103536821D01*
X150943075Y-103530354D01*
X150951637Y-103519920D01*
X151173474Y-103298083D01*
X151183908Y-103289521D01*
X151190374Y-103286064D01*
X151205311Y-103281533D01*
X151227950Y-103272155D01*
X151248324Y-103258541D01*
X151265651Y-103241214D01*
X151279264Y-103220839D01*
X151288640Y-103198204D01*
X151293171Y-103183267D01*
X151296628Y-103176801D01*
X151305190Y-103166367D01*
X151527027Y-102944530D01*
X151537461Y-102935968D01*
X151543927Y-102932511D01*
X151558864Y-102927980D01*
X151581503Y-102918602D01*
X151601877Y-102904988D01*
X151619204Y-102887661D01*
X151632817Y-102867286D01*
X151642193Y-102844651D01*
X151646724Y-102829714D01*
X151650181Y-102823248D01*
X151658743Y-102812814D01*
X151880580Y-102590977D01*
X151891014Y-102582415D01*
X151897481Y-102578958D01*
X151912417Y-102574427D01*
X151935056Y-102565050D01*
X151955430Y-102551436D01*
X151972757Y-102534109D01*
X151986371Y-102513734D01*
X151995747Y-102491097D01*
X152000278Y-102476161D01*
X152003735Y-102469694D01*
X152012297Y-102459260D01*
X152234134Y-102237423D01*
X152244568Y-102228861D01*
X152251034Y-102225404D01*
X152265971Y-102220873D01*
X152288610Y-102211495D01*
X152308984Y-102197881D01*
X152326311Y-102180554D01*
X152339924Y-102160179D01*
X152349300Y-102137544D01*
X152353831Y-102122607D01*
X152357288Y-102116141D01*
X152365850Y-102105707D01*
X152587687Y-101883870D01*
X152598121Y-101875308D01*
X152604588Y-101871851D01*
X152619524Y-101867320D01*
X152642163Y-101857943D01*
X152662537Y-101844329D01*
X152679864Y-101827002D01*
X152693478Y-101806627D01*
X152702854Y-101783990D01*
X152707385Y-101769054D01*
X152710842Y-101762587D01*
X152719404Y-101752153D01*
X152941241Y-101530316D01*
X152951675Y-101521754D01*
X152958141Y-101518297D01*
X152965156Y-101516169D01*
X152972451Y-101515451D01*
X152979746Y-101516169D01*
X152979746Y-101516169D01*
G37*
G36*
X144034844Y-101516169D02*
G01*
X144041859Y-101518297D01*
X144048325Y-101521754D01*
X144058759Y-101530316D01*
X144280596Y-101752153D01*
X144289158Y-101762587D01*
X144292615Y-101769054D01*
X144297146Y-101783990D01*
X144306523Y-101806629D01*
X144320137Y-101827003D01*
X144337464Y-101844330D01*
X144357839Y-101857944D01*
X144380476Y-101867320D01*
X144395412Y-101871851D01*
X144401879Y-101875308D01*
X144412313Y-101883870D01*
X144634150Y-102105707D01*
X144642712Y-102116141D01*
X144646169Y-102122607D01*
X144650700Y-102137544D01*
X144660078Y-102160183D01*
X144673692Y-102180557D01*
X144691019Y-102197884D01*
X144711394Y-102211497D01*
X144734029Y-102220873D01*
X144748966Y-102225404D01*
X144755432Y-102228861D01*
X144765866Y-102237423D01*
X144987703Y-102459260D01*
X144996265Y-102469694D01*
X144999722Y-102476161D01*
X145004253Y-102491097D01*
X145013630Y-102513736D01*
X145027244Y-102534110D01*
X145044571Y-102551437D01*
X145064946Y-102565051D01*
X145087583Y-102574427D01*
X145102519Y-102578958D01*
X145108986Y-102582415D01*
X145119420Y-102590977D01*
X145341257Y-102812814D01*
X145349819Y-102823248D01*
X145353276Y-102829714D01*
X145357807Y-102844651D01*
X145367185Y-102867290D01*
X145380799Y-102887664D01*
X145398126Y-102904991D01*
X145418501Y-102918604D01*
X145441136Y-102927980D01*
X145456073Y-102932511D01*
X145462539Y-102935968D01*
X145472973Y-102944530D01*
X145694810Y-103166367D01*
X145703372Y-103176801D01*
X145706829Y-103183267D01*
X145711360Y-103198204D01*
X145720738Y-103220843D01*
X145734352Y-103241217D01*
X145751679Y-103258544D01*
X145772054Y-103272157D01*
X145794689Y-103281533D01*
X145809626Y-103286064D01*
X145816092Y-103289521D01*
X145826526Y-103298083D01*
X146048363Y-103519920D01*
X146056925Y-103530354D01*
X146060382Y-103536821D01*
X146064913Y-103551757D01*
X146074290Y-103574396D01*
X146087904Y-103594770D01*
X146105231Y-103612097D01*
X146125606Y-103625711D01*
X146148243Y-103635087D01*
X146163179Y-103639618D01*
X146169646Y-103643075D01*
X146180080Y-103651637D01*
X146401917Y-103873474D01*
X146410479Y-103883908D01*
X146413936Y-103890374D01*
X146418467Y-103905311D01*
X146427845Y-103927950D01*
X146441459Y-103948324D01*
X146458786Y-103965651D01*
X146479161Y-103979264D01*
X146501796Y-103988640D01*
X146516733Y-103993171D01*
X146523199Y-103996628D01*
X146533633Y-104005190D01*
X146755470Y-104227027D01*
X146764032Y-104237461D01*
X146767489Y-104243927D01*
X146772020Y-104258864D01*
X146781398Y-104281503D01*
X146795012Y-104301877D01*
X146812339Y-104319204D01*
X146832714Y-104332817D01*
X146855349Y-104342193D01*
X146870286Y-104346724D01*
X146876752Y-104350181D01*
X146887186Y-104358743D01*
X147109023Y-104580580D01*
X147117585Y-104591014D01*
X147121042Y-104597481D01*
X147125573Y-104612417D01*
X147134950Y-104635056D01*
X147148564Y-104655430D01*
X147165891Y-104672757D01*
X147186266Y-104686371D01*
X147208903Y-104695747D01*
X147223839Y-104700278D01*
X147230306Y-104703735D01*
X147240740Y-104712297D01*
X147462577Y-104934134D01*
X147471139Y-104944568D01*
X147474596Y-104951034D01*
X147479127Y-104965971D01*
X147488505Y-104988610D01*
X147502119Y-105008984D01*
X147519446Y-105026311D01*
X147539821Y-105039924D01*
X147562456Y-105049300D01*
X147577393Y-105053831D01*
X147583859Y-105057288D01*
X147594293Y-105065850D01*
X147816130Y-105287687D01*
X147824692Y-105298121D01*
X147828149Y-105304588D01*
X147832680Y-105319524D01*
X147842057Y-105342163D01*
X147855671Y-105362537D01*
X147872998Y-105379864D01*
X147893373Y-105393478D01*
X147916010Y-105402854D01*
X147930946Y-105407385D01*
X147937413Y-105410842D01*
X147947847Y-105419404D01*
X148169684Y-105641241D01*
X148178246Y-105651675D01*
X148181703Y-105658141D01*
X148183831Y-105665156D01*
X148184549Y-105672451D01*
X148183831Y-105679746D01*
X148181703Y-105686761D01*
X148178246Y-105693227D01*
X148169684Y-105703661D01*
X147116997Y-106756348D01*
X147106563Y-106764910D01*
X147100097Y-106768367D01*
X147093082Y-106770495D01*
X147085787Y-106771213D01*
X147078492Y-106770495D01*
X147071477Y-106768367D01*
X147065011Y-106764910D01*
X147054577Y-106756348D01*
X146832740Y-106534511D01*
X146824178Y-106524077D01*
X146820721Y-106517610D01*
X146816190Y-106502674D01*
X146806813Y-106480035D01*
X146793199Y-106459661D01*
X146775872Y-106442334D01*
X146755497Y-106428720D01*
X146732860Y-106419344D01*
X146717924Y-106414813D01*
X146711457Y-106411356D01*
X146701023Y-106402794D01*
X146479186Y-106180957D01*
X146470624Y-106170523D01*
X146467167Y-106164057D01*
X146462636Y-106149120D01*
X146453258Y-106126481D01*
X146439644Y-106106107D01*
X146422317Y-106088780D01*
X146401942Y-106075167D01*
X146379307Y-106065791D01*
X146364370Y-106061260D01*
X146357904Y-106057803D01*
X146347470Y-106049241D01*
X146125633Y-105827404D01*
X146117071Y-105816970D01*
X146113614Y-105810503D01*
X146109083Y-105795567D01*
X146099706Y-105772928D01*
X146086092Y-105752554D01*
X146068765Y-105735227D01*
X146048390Y-105721613D01*
X146025753Y-105712237D01*
X146010817Y-105707706D01*
X146004350Y-105704249D01*
X145993916Y-105695687D01*
X145772079Y-105473850D01*
X145763517Y-105463416D01*
X145760060Y-105456950D01*
X145755529Y-105442013D01*
X145746151Y-105419374D01*
X145732537Y-105399000D01*
X145715210Y-105381673D01*
X145694835Y-105368060D01*
X145672200Y-105358684D01*
X145657263Y-105354153D01*
X145650797Y-105350696D01*
X145640363Y-105342134D01*
X145418526Y-105120297D01*
X145409964Y-105109863D01*
X145406507Y-105103397D01*
X145401976Y-105088460D01*
X145392598Y-105065821D01*
X145378984Y-105045447D01*
X145361657Y-105028120D01*
X145341282Y-105014507D01*
X145318647Y-105005131D01*
X145303710Y-105000600D01*
X145297244Y-104997143D01*
X145286810Y-104988581D01*
X145064973Y-104766744D01*
X145056411Y-104756310D01*
X145052954Y-104749843D01*
X145048423Y-104734907D01*
X145039046Y-104712268D01*
X145025432Y-104691894D01*
X145008105Y-104674567D01*
X144987730Y-104660953D01*
X144965093Y-104651577D01*
X144950157Y-104647046D01*
X144943690Y-104643589D01*
X144933256Y-104635027D01*
X144711419Y-104413190D01*
X144702857Y-104402756D01*
X144699400Y-104396290D01*
X144694869Y-104381353D01*
X144685491Y-104358714D01*
X144671877Y-104338340D01*
X144654550Y-104321013D01*
X144634175Y-104307400D01*
X144611540Y-104298024D01*
X144596603Y-104293493D01*
X144590137Y-104290036D01*
X144579703Y-104281474D01*
X144357866Y-104059637D01*
X144349304Y-104049203D01*
X144345847Y-104042737D01*
X144341316Y-104027800D01*
X144331938Y-104005161D01*
X144318324Y-103984787D01*
X144300997Y-103967460D01*
X144280622Y-103953847D01*
X144257987Y-103944471D01*
X144243050Y-103939940D01*
X144236584Y-103936483D01*
X144226150Y-103927921D01*
X144004313Y-103706084D01*
X143995751Y-103695650D01*
X143992294Y-103689183D01*
X143987763Y-103674247D01*
X143978386Y-103651608D01*
X143964772Y-103631234D01*
X143947445Y-103613907D01*
X143927070Y-103600293D01*
X143904433Y-103590917D01*
X143889497Y-103586386D01*
X143883030Y-103582929D01*
X143872596Y-103574367D01*
X143650759Y-103352530D01*
X143642197Y-103342096D01*
X143638740Y-103335630D01*
X143634209Y-103320693D01*
X143624831Y-103298054D01*
X143611217Y-103277680D01*
X143593890Y-103260353D01*
X143573515Y-103246740D01*
X143550880Y-103237364D01*
X143535943Y-103232833D01*
X143529477Y-103229376D01*
X143519043Y-103220814D01*
X143297206Y-102998977D01*
X143288644Y-102988543D01*
X143285187Y-102982076D01*
X143280656Y-102967140D01*
X143271279Y-102944501D01*
X143257665Y-102924127D01*
X143240338Y-102906800D01*
X143219963Y-102893186D01*
X143197326Y-102883810D01*
X143182390Y-102879279D01*
X143175923Y-102875822D01*
X143165489Y-102867260D01*
X142943652Y-102645423D01*
X142935090Y-102634989D01*
X142931633Y-102628523D01*
X142929505Y-102621508D01*
X142928787Y-102614213D01*
X142929505Y-102606918D01*
X142931633Y-102599903D01*
X142935090Y-102593437D01*
X142943652Y-102583003D01*
X143996339Y-101530316D01*
X144006773Y-101521754D01*
X144013239Y-101518297D01*
X144020254Y-101516169D01*
X144027549Y-101515451D01*
X144034844Y-101516169D01*
X144034844Y-101516169D01*
G37*
G36*
X160676001Y-106308199D02*
G01*
X158773999Y-106308199D01*
X158773999Y-105548999D01*
X160676001Y-105548999D01*
X160676001Y-106308199D01*
X160676001Y-106308199D01*
G37*
G36*
X167776000Y-106101000D02*
G01*
X164274000Y-106101000D01*
X164274000Y-96299000D01*
X167776000Y-96299000D01*
X167776000Y-106101000D01*
X167776000Y-106101000D01*
G37*
G36*
X163826001Y-105700999D02*
G01*
X162324001Y-105700999D01*
X162324001Y-96699001D01*
X163826001Y-96699001D01*
X163826001Y-105700999D01*
X163826001Y-105700999D01*
G37*
G36*
X169726002Y-105700999D02*
G01*
X168224002Y-105700999D01*
X168224002Y-96699001D01*
X169726002Y-96699001D01*
X169726002Y-105700999D01*
X169726002Y-105700999D01*
G37*
G36*
X160676001Y-105051001D02*
G01*
X158773999Y-105051001D01*
X158773999Y-104291801D01*
X160676001Y-104291801D01*
X160676001Y-105051001D01*
X160676001Y-105051001D01*
G37*
G36*
X173474259Y-102824417D02*
G01*
X173551627Y-102832037D01*
X173721466Y-102883557D01*
X173721468Y-102883558D01*
X173780456Y-102915088D01*
X173877991Y-102967222D01*
X173913729Y-102996552D01*
X174015186Y-103079814D01*
X174066008Y-103141742D01*
X174127778Y-103217009D01*
X174211443Y-103373534D01*
X174262963Y-103543373D01*
X174280359Y-103720000D01*
X174262963Y-103896627D01*
X174211443Y-104066466D01*
X174127778Y-104222991D01*
X174114943Y-104238630D01*
X174015186Y-104360186D01*
X173950599Y-104413190D01*
X173877991Y-104472778D01*
X173721466Y-104556443D01*
X173551627Y-104607963D01*
X173485442Y-104614482D01*
X173419260Y-104621000D01*
X173330740Y-104621000D01*
X173264558Y-104614482D01*
X173198373Y-104607963D01*
X173028534Y-104556443D01*
X172872009Y-104472778D01*
X172799401Y-104413190D01*
X172734814Y-104360186D01*
X172635057Y-104238630D01*
X172622222Y-104222991D01*
X172538557Y-104066466D01*
X172487037Y-103896627D01*
X172469641Y-103720000D01*
X172487037Y-103543373D01*
X172538557Y-103373534D01*
X172622222Y-103217009D01*
X172683992Y-103141742D01*
X172734814Y-103079814D01*
X172836271Y-102996552D01*
X172872009Y-102967222D01*
X172969544Y-102915088D01*
X173028532Y-102883558D01*
X173028534Y-102883557D01*
X173198373Y-102832037D01*
X173275741Y-102824417D01*
X173330740Y-102819000D01*
X173419260Y-102819000D01*
X173474259Y-102824417D01*
X173474259Y-102824417D01*
G37*
G36*
X124805686Y-102565050D02*
G01*
X124876627Y-102572037D01*
X125046466Y-102623557D01*
X125202991Y-102707222D01*
X125235377Y-102733801D01*
X125340186Y-102819814D01*
X125411573Y-102906801D01*
X125452778Y-102957009D01*
X125536443Y-103113534D01*
X125587963Y-103283373D01*
X125605359Y-103460000D01*
X125587963Y-103636627D01*
X125536443Y-103806466D01*
X125452778Y-103962991D01*
X125439423Y-103979264D01*
X125340186Y-104100186D01*
X125259087Y-104166741D01*
X125202991Y-104212778D01*
X125046466Y-104296443D01*
X124876627Y-104347963D01*
X124810443Y-104354481D01*
X124744260Y-104361000D01*
X124655740Y-104361000D01*
X124589557Y-104354481D01*
X124523373Y-104347963D01*
X124353534Y-104296443D01*
X124197009Y-104212778D01*
X124140913Y-104166741D01*
X124059814Y-104100186D01*
X123960577Y-103979264D01*
X123947222Y-103962991D01*
X123863557Y-103806466D01*
X123812037Y-103636627D01*
X123794641Y-103460000D01*
X123812037Y-103283373D01*
X123863557Y-103113534D01*
X123947222Y-102957009D01*
X123988427Y-102906801D01*
X124059814Y-102819814D01*
X124164623Y-102733801D01*
X124197009Y-102707222D01*
X124353534Y-102623557D01*
X124523373Y-102572037D01*
X124594314Y-102565050D01*
X124655740Y-102559000D01*
X124744260Y-102559000D01*
X124805686Y-102565050D01*
X124805686Y-102565050D01*
G37*
G36*
X160259100Y-103102602D02*
G01*
X159471300Y-103102602D01*
X159471300Y-99297401D01*
X160259100Y-99297401D01*
X160259100Y-103102602D01*
X160259100Y-103102602D01*
G37*
G36*
X158328700Y-103102599D02*
G01*
X157540900Y-103102599D01*
X157540900Y-99297398D01*
X158328700Y-99297398D01*
X158328700Y-103102599D01*
X158328700Y-103102599D01*
G37*
G36*
X173485443Y-100285519D02*
G01*
X173551627Y-100292037D01*
X173721466Y-100343557D01*
X173877991Y-100427222D01*
X173913729Y-100456552D01*
X174015186Y-100539814D01*
X174078232Y-100616637D01*
X174127778Y-100677009D01*
X174211443Y-100833534D01*
X174262963Y-101003373D01*
X174280359Y-101180000D01*
X174262963Y-101356627D01*
X174213921Y-101518297D01*
X174211442Y-101526468D01*
X174194763Y-101557671D01*
X174127778Y-101682991D01*
X174103725Y-101712299D01*
X174015186Y-101820186D01*
X173924891Y-101894288D01*
X173877991Y-101932778D01*
X173721466Y-102016443D01*
X173551627Y-102067963D01*
X173485443Y-102074481D01*
X173419260Y-102081000D01*
X173330740Y-102081000D01*
X173264558Y-102074482D01*
X173198373Y-102067963D01*
X173028534Y-102016443D01*
X172872009Y-101932778D01*
X172825109Y-101894288D01*
X172734814Y-101820186D01*
X172646275Y-101712299D01*
X172622222Y-101682991D01*
X172555237Y-101557671D01*
X172538558Y-101526468D01*
X172536079Y-101518297D01*
X172487037Y-101356627D01*
X172469641Y-101180000D01*
X172487037Y-101003373D01*
X172538557Y-100833534D01*
X172622222Y-100677009D01*
X172671768Y-100616637D01*
X172734814Y-100539814D01*
X172836271Y-100456552D01*
X172872009Y-100427222D01*
X173028534Y-100343557D01*
X173198373Y-100292037D01*
X173264557Y-100285519D01*
X173330740Y-100279000D01*
X173419260Y-100279000D01*
X173485443Y-100285519D01*
X173485443Y-100285519D01*
G37*
G36*
X124810443Y-100025519D02*
G01*
X124876627Y-100032037D01*
X125046466Y-100083557D01*
X125202991Y-100167222D01*
X125233206Y-100192019D01*
X125340186Y-100279814D01*
X125423448Y-100381271D01*
X125452778Y-100417009D01*
X125452779Y-100417011D01*
X125536157Y-100572998D01*
X125536443Y-100573534D01*
X125587963Y-100743373D01*
X125605359Y-100920000D01*
X125587963Y-101096627D01*
X125536443Y-101266466D01*
X125452778Y-101422991D01*
X125443906Y-101433801D01*
X125340186Y-101560186D01*
X125238729Y-101643448D01*
X125202991Y-101672778D01*
X125046466Y-101756443D01*
X124876627Y-101807963D01*
X124810442Y-101814482D01*
X124744260Y-101821000D01*
X124655740Y-101821000D01*
X124589558Y-101814482D01*
X124523373Y-101807963D01*
X124353534Y-101756443D01*
X124197009Y-101672778D01*
X124161271Y-101643448D01*
X124059814Y-101560186D01*
X123956094Y-101433801D01*
X123947222Y-101422991D01*
X123863557Y-101266466D01*
X123812037Y-101096627D01*
X123794641Y-100920000D01*
X123812037Y-100743373D01*
X123863557Y-100573534D01*
X123863844Y-100572998D01*
X123947221Y-100417011D01*
X123947222Y-100417009D01*
X123976552Y-100381271D01*
X124059814Y-100279814D01*
X124166794Y-100192019D01*
X124197009Y-100167222D01*
X124353534Y-100083557D01*
X124523373Y-100032037D01*
X124589557Y-100025519D01*
X124655740Y-100019000D01*
X124744260Y-100019000D01*
X124810443Y-100025519D01*
X124810443Y-100025519D01*
G37*
G36*
X149921508Y-95629505D02*
G01*
X149928523Y-95631633D01*
X149934989Y-95635090D01*
X149945423Y-95643652D01*
X150167260Y-95865489D01*
X150175822Y-95875923D01*
X150179279Y-95882390D01*
X150183810Y-95897326D01*
X150193187Y-95919965D01*
X150206801Y-95940339D01*
X150224128Y-95957666D01*
X150244503Y-95971280D01*
X150267140Y-95980656D01*
X150282076Y-95985187D01*
X150288543Y-95988644D01*
X150298977Y-95997206D01*
X150520814Y-96219043D01*
X150529376Y-96229477D01*
X150532833Y-96235943D01*
X150537364Y-96250880D01*
X150546742Y-96273519D01*
X150560356Y-96293893D01*
X150577683Y-96311220D01*
X150598058Y-96324833D01*
X150620693Y-96334209D01*
X150635630Y-96338740D01*
X150642096Y-96342197D01*
X150652530Y-96350759D01*
X150874367Y-96572596D01*
X150882929Y-96583030D01*
X150886386Y-96589497D01*
X150890917Y-96604433D01*
X150900294Y-96627072D01*
X150913908Y-96647446D01*
X150931235Y-96664773D01*
X150951610Y-96678387D01*
X150974247Y-96687763D01*
X150989183Y-96692294D01*
X150995650Y-96695751D01*
X151006084Y-96704313D01*
X151227921Y-96926150D01*
X151236483Y-96936584D01*
X151239940Y-96943050D01*
X151244471Y-96957987D01*
X151253849Y-96980626D01*
X151267463Y-97001000D01*
X151284790Y-97018327D01*
X151305165Y-97031940D01*
X151327800Y-97041316D01*
X151342737Y-97045847D01*
X151349203Y-97049304D01*
X151359637Y-97057866D01*
X151581474Y-97279703D01*
X151590036Y-97290137D01*
X151593493Y-97296603D01*
X151598024Y-97311540D01*
X151607402Y-97334179D01*
X151621016Y-97354553D01*
X151638343Y-97371880D01*
X151658718Y-97385493D01*
X151681353Y-97394869D01*
X151696290Y-97399400D01*
X151702756Y-97402857D01*
X151713190Y-97411419D01*
X151935027Y-97633256D01*
X151943589Y-97643690D01*
X151947046Y-97650157D01*
X151951577Y-97665093D01*
X151960954Y-97687732D01*
X151974568Y-97708106D01*
X151991895Y-97725433D01*
X152012270Y-97739047D01*
X152034907Y-97748423D01*
X152049843Y-97752954D01*
X152056310Y-97756411D01*
X152066744Y-97764973D01*
X152288581Y-97986810D01*
X152297143Y-97997244D01*
X152300600Y-98003710D01*
X152305131Y-98018647D01*
X152314509Y-98041286D01*
X152328123Y-98061660D01*
X152345450Y-98078987D01*
X152365825Y-98092600D01*
X152388460Y-98101976D01*
X152403397Y-98106507D01*
X152409863Y-98109964D01*
X152420297Y-98118526D01*
X152642134Y-98340363D01*
X152650696Y-98350797D01*
X152654153Y-98357263D01*
X152658684Y-98372200D01*
X152668062Y-98394839D01*
X152681676Y-98415213D01*
X152699003Y-98432540D01*
X152719378Y-98446153D01*
X152742013Y-98455529D01*
X152756950Y-98460060D01*
X152763416Y-98463517D01*
X152773850Y-98472079D01*
X152995687Y-98693916D01*
X153004249Y-98704350D01*
X153007706Y-98710817D01*
X153012237Y-98725753D01*
X153021614Y-98748392D01*
X153035228Y-98768766D01*
X153052555Y-98786093D01*
X153072930Y-98799707D01*
X153095567Y-98809083D01*
X153110503Y-98813614D01*
X153116970Y-98817071D01*
X153127404Y-98825633D01*
X153349241Y-99047470D01*
X153357803Y-99057904D01*
X153361260Y-99064370D01*
X153365791Y-99079307D01*
X153375169Y-99101946D01*
X153388783Y-99122320D01*
X153406110Y-99139647D01*
X153426485Y-99153260D01*
X153449120Y-99162636D01*
X153464057Y-99167167D01*
X153470523Y-99170624D01*
X153480957Y-99179186D01*
X153702794Y-99401023D01*
X153711356Y-99411457D01*
X153714813Y-99417924D01*
X153719344Y-99432860D01*
X153728721Y-99455499D01*
X153742335Y-99475873D01*
X153759662Y-99493200D01*
X153780037Y-99506814D01*
X153802674Y-99516190D01*
X153817610Y-99520721D01*
X153824077Y-99524178D01*
X153834511Y-99532740D01*
X154056348Y-99754577D01*
X154064910Y-99765011D01*
X154068367Y-99771477D01*
X154070495Y-99778492D01*
X154071213Y-99785787D01*
X154070495Y-99793082D01*
X154068367Y-99800097D01*
X154064910Y-99806563D01*
X154056348Y-99816997D01*
X153003661Y-100869684D01*
X152993227Y-100878246D01*
X152986761Y-100881703D01*
X152979746Y-100883831D01*
X152972451Y-100884549D01*
X152965156Y-100883831D01*
X152958141Y-100881703D01*
X152951675Y-100878246D01*
X152941241Y-100869684D01*
X152719404Y-100647847D01*
X152710842Y-100637413D01*
X152707385Y-100630946D01*
X152702854Y-100616010D01*
X152693477Y-100593371D01*
X152679863Y-100572997D01*
X152662536Y-100555670D01*
X152642161Y-100542056D01*
X152619524Y-100532680D01*
X152604588Y-100528149D01*
X152598121Y-100524692D01*
X152587687Y-100516130D01*
X152365850Y-100294293D01*
X152357288Y-100283859D01*
X152353831Y-100277393D01*
X152349300Y-100262456D01*
X152339922Y-100239817D01*
X152326308Y-100219443D01*
X152308981Y-100202116D01*
X152288606Y-100188503D01*
X152265971Y-100179127D01*
X152251034Y-100174596D01*
X152244568Y-100171139D01*
X152234134Y-100162577D01*
X152012297Y-99940740D01*
X152003735Y-99930306D01*
X152000278Y-99923839D01*
X151995747Y-99908903D01*
X151986370Y-99886264D01*
X151972756Y-99865890D01*
X151955429Y-99848563D01*
X151935054Y-99834949D01*
X151912417Y-99825573D01*
X151897481Y-99821042D01*
X151891014Y-99817585D01*
X151880580Y-99809023D01*
X151658743Y-99587186D01*
X151650181Y-99576752D01*
X151646724Y-99570286D01*
X151642193Y-99555349D01*
X151632815Y-99532710D01*
X151619201Y-99512336D01*
X151601874Y-99495009D01*
X151581499Y-99481396D01*
X151558864Y-99472020D01*
X151543927Y-99467489D01*
X151537461Y-99464032D01*
X151527027Y-99455470D01*
X151305190Y-99233633D01*
X151296628Y-99223199D01*
X151293171Y-99216733D01*
X151288640Y-99201796D01*
X151279262Y-99179157D01*
X151265648Y-99158783D01*
X151248321Y-99141456D01*
X151227946Y-99127843D01*
X151205311Y-99118467D01*
X151190374Y-99113936D01*
X151183908Y-99110479D01*
X151173474Y-99101917D01*
X150951637Y-98880080D01*
X150943075Y-98869646D01*
X150939618Y-98863179D01*
X150935087Y-98848243D01*
X150925710Y-98825604D01*
X150912096Y-98805230D01*
X150894769Y-98787903D01*
X150874394Y-98774289D01*
X150851757Y-98764913D01*
X150836821Y-98760382D01*
X150830354Y-98756925D01*
X150819920Y-98748363D01*
X150598083Y-98526526D01*
X150589521Y-98516092D01*
X150586064Y-98509626D01*
X150581533Y-98494689D01*
X150572155Y-98472050D01*
X150558541Y-98451676D01*
X150541214Y-98434349D01*
X150520839Y-98420736D01*
X150498204Y-98411360D01*
X150483267Y-98406829D01*
X150476801Y-98403372D01*
X150466367Y-98394810D01*
X150244530Y-98172973D01*
X150235968Y-98162539D01*
X150232511Y-98156073D01*
X150227980Y-98141136D01*
X150218602Y-98118497D01*
X150204988Y-98098123D01*
X150187661Y-98080796D01*
X150167286Y-98067183D01*
X150144651Y-98057807D01*
X150129714Y-98053276D01*
X150123248Y-98049819D01*
X150112814Y-98041257D01*
X149890977Y-97819420D01*
X149882415Y-97808986D01*
X149878958Y-97802519D01*
X149874427Y-97787583D01*
X149865050Y-97764944D01*
X149851436Y-97744570D01*
X149834109Y-97727243D01*
X149813734Y-97713629D01*
X149791097Y-97704253D01*
X149776161Y-97699722D01*
X149769694Y-97696265D01*
X149759260Y-97687703D01*
X149537423Y-97465866D01*
X149528861Y-97455432D01*
X149525404Y-97448966D01*
X149520873Y-97434029D01*
X149511495Y-97411390D01*
X149497881Y-97391016D01*
X149480554Y-97373689D01*
X149460179Y-97360076D01*
X149437544Y-97350700D01*
X149422607Y-97346169D01*
X149416141Y-97342712D01*
X149405707Y-97334150D01*
X149183870Y-97112313D01*
X149175308Y-97101879D01*
X149171851Y-97095412D01*
X149167320Y-97080476D01*
X149157943Y-97057837D01*
X149144329Y-97037463D01*
X149127002Y-97020136D01*
X149106627Y-97006522D01*
X149083990Y-96997146D01*
X149069054Y-96992615D01*
X149062587Y-96989158D01*
X149052153Y-96980596D01*
X148830316Y-96758759D01*
X148821754Y-96748325D01*
X148818297Y-96741859D01*
X148816169Y-96734844D01*
X148815451Y-96727549D01*
X148816169Y-96720254D01*
X148818297Y-96713239D01*
X148821754Y-96706773D01*
X148830316Y-96696339D01*
X149883003Y-95643652D01*
X149893437Y-95635090D01*
X149899903Y-95631633D01*
X149906918Y-95629505D01*
X149914213Y-95628787D01*
X149921508Y-95629505D01*
X149921508Y-95629505D01*
G37*
G36*
X147093082Y-95629505D02*
G01*
X147100097Y-95631633D01*
X147106563Y-95635090D01*
X147116997Y-95643652D01*
X148169684Y-96696339D01*
X148178246Y-96706773D01*
X148181703Y-96713239D01*
X148183831Y-96720254D01*
X148184549Y-96727549D01*
X148183831Y-96734844D01*
X148181703Y-96741859D01*
X148178246Y-96748325D01*
X148169684Y-96758759D01*
X147947847Y-96980596D01*
X147937413Y-96989158D01*
X147930946Y-96992615D01*
X147916010Y-96997146D01*
X147893371Y-97006523D01*
X147872997Y-97020137D01*
X147855670Y-97037464D01*
X147842056Y-97057839D01*
X147832680Y-97080476D01*
X147828149Y-97095412D01*
X147824692Y-97101879D01*
X147816130Y-97112313D01*
X147594293Y-97334150D01*
X147583859Y-97342712D01*
X147577393Y-97346169D01*
X147562456Y-97350700D01*
X147539817Y-97360078D01*
X147519443Y-97373692D01*
X147502116Y-97391019D01*
X147488503Y-97411394D01*
X147479127Y-97434029D01*
X147474596Y-97448966D01*
X147471139Y-97455432D01*
X147462577Y-97465866D01*
X147240740Y-97687703D01*
X147230306Y-97696265D01*
X147223839Y-97699722D01*
X147208903Y-97704253D01*
X147186264Y-97713630D01*
X147165890Y-97727244D01*
X147148563Y-97744571D01*
X147134949Y-97764946D01*
X147125573Y-97787583D01*
X147121042Y-97802519D01*
X147117585Y-97808986D01*
X147109023Y-97819420D01*
X146887186Y-98041257D01*
X146876752Y-98049819D01*
X146870286Y-98053276D01*
X146855349Y-98057807D01*
X146832710Y-98067185D01*
X146812336Y-98080799D01*
X146795009Y-98098126D01*
X146781396Y-98118501D01*
X146772020Y-98141136D01*
X146767489Y-98156073D01*
X146764032Y-98162539D01*
X146755470Y-98172973D01*
X146533633Y-98394810D01*
X146523199Y-98403372D01*
X146516733Y-98406829D01*
X146501796Y-98411360D01*
X146479157Y-98420738D01*
X146458783Y-98434352D01*
X146441456Y-98451679D01*
X146427843Y-98472054D01*
X146418467Y-98494689D01*
X146413936Y-98509626D01*
X146410479Y-98516092D01*
X146401917Y-98526526D01*
X146180080Y-98748363D01*
X146169646Y-98756925D01*
X146163179Y-98760382D01*
X146148243Y-98764913D01*
X146125604Y-98774290D01*
X146105230Y-98787904D01*
X146087903Y-98805231D01*
X146074289Y-98825606D01*
X146064913Y-98848243D01*
X146060382Y-98863179D01*
X146056925Y-98869646D01*
X146048363Y-98880080D01*
X145826526Y-99101917D01*
X145816092Y-99110479D01*
X145809626Y-99113936D01*
X145794689Y-99118467D01*
X145772050Y-99127845D01*
X145751676Y-99141459D01*
X145734349Y-99158786D01*
X145720736Y-99179161D01*
X145711360Y-99201796D01*
X145706829Y-99216733D01*
X145703372Y-99223199D01*
X145694810Y-99233633D01*
X145472973Y-99455470D01*
X145462539Y-99464032D01*
X145456073Y-99467489D01*
X145441136Y-99472020D01*
X145418497Y-99481398D01*
X145398123Y-99495012D01*
X145380796Y-99512339D01*
X145367183Y-99532714D01*
X145357807Y-99555349D01*
X145353276Y-99570286D01*
X145349819Y-99576752D01*
X145341257Y-99587186D01*
X145119420Y-99809023D01*
X145108986Y-99817585D01*
X145102519Y-99821042D01*
X145087583Y-99825573D01*
X145064944Y-99834950D01*
X145044570Y-99848564D01*
X145027243Y-99865891D01*
X145013629Y-99886266D01*
X145004253Y-99908903D01*
X144999722Y-99923839D01*
X144996265Y-99930306D01*
X144987703Y-99940740D01*
X144765866Y-100162577D01*
X144755432Y-100171139D01*
X144748966Y-100174596D01*
X144734029Y-100179127D01*
X144711390Y-100188505D01*
X144691016Y-100202119D01*
X144673689Y-100219446D01*
X144660076Y-100239821D01*
X144650700Y-100262456D01*
X144646169Y-100277393D01*
X144642712Y-100283859D01*
X144634150Y-100294293D01*
X144412313Y-100516130D01*
X144401879Y-100524692D01*
X144395412Y-100528149D01*
X144380476Y-100532680D01*
X144357837Y-100542057D01*
X144337463Y-100555671D01*
X144320136Y-100572998D01*
X144306522Y-100593373D01*
X144297146Y-100616010D01*
X144292615Y-100630946D01*
X144289158Y-100637413D01*
X144280596Y-100647847D01*
X144058759Y-100869684D01*
X144048325Y-100878246D01*
X144041859Y-100881703D01*
X144034844Y-100883831D01*
X144027549Y-100884549D01*
X144020254Y-100883831D01*
X144013239Y-100881703D01*
X144006773Y-100878246D01*
X143996339Y-100869684D01*
X142943652Y-99816997D01*
X142935090Y-99806563D01*
X142931633Y-99800097D01*
X142929505Y-99793082D01*
X142928787Y-99785787D01*
X142929505Y-99778492D01*
X142931633Y-99771477D01*
X142935090Y-99765011D01*
X142943652Y-99754577D01*
X143165489Y-99532740D01*
X143175923Y-99524178D01*
X143182390Y-99520721D01*
X143197326Y-99516190D01*
X143219965Y-99506813D01*
X143240339Y-99493199D01*
X143257666Y-99475872D01*
X143271280Y-99455497D01*
X143280656Y-99432860D01*
X143285187Y-99417924D01*
X143288644Y-99411457D01*
X143297206Y-99401023D01*
X143519043Y-99179186D01*
X143529477Y-99170624D01*
X143535943Y-99167167D01*
X143550880Y-99162636D01*
X143573519Y-99153258D01*
X143593893Y-99139644D01*
X143611220Y-99122317D01*
X143624833Y-99101942D01*
X143634209Y-99079307D01*
X143638740Y-99064370D01*
X143642197Y-99057904D01*
X143650759Y-99047470D01*
X143872596Y-98825633D01*
X143883030Y-98817071D01*
X143889497Y-98813614D01*
X143904433Y-98809083D01*
X143927072Y-98799706D01*
X143947446Y-98786092D01*
X143964773Y-98768765D01*
X143978387Y-98748390D01*
X143987763Y-98725753D01*
X143992294Y-98710817D01*
X143995751Y-98704350D01*
X144004313Y-98693916D01*
X144226150Y-98472079D01*
X144236584Y-98463517D01*
X144243050Y-98460060D01*
X144257987Y-98455529D01*
X144280626Y-98446151D01*
X144301000Y-98432537D01*
X144318327Y-98415210D01*
X144331940Y-98394835D01*
X144341316Y-98372200D01*
X144345847Y-98357263D01*
X144349304Y-98350797D01*
X144357866Y-98340363D01*
X144579703Y-98118526D01*
X144590137Y-98109964D01*
X144596603Y-98106507D01*
X144611540Y-98101976D01*
X144634179Y-98092598D01*
X144654553Y-98078984D01*
X144671880Y-98061657D01*
X144685493Y-98041282D01*
X144694869Y-98018647D01*
X144699400Y-98003710D01*
X144702857Y-97997244D01*
X144711419Y-97986810D01*
X144933256Y-97764973D01*
X144943690Y-97756411D01*
X144950157Y-97752954D01*
X144965093Y-97748423D01*
X144987732Y-97739046D01*
X145008106Y-97725432D01*
X145025433Y-97708105D01*
X145039047Y-97687730D01*
X145048423Y-97665093D01*
X145052954Y-97650157D01*
X145056411Y-97643690D01*
X145064973Y-97633256D01*
X145286810Y-97411419D01*
X145297244Y-97402857D01*
X145303710Y-97399400D01*
X145318647Y-97394869D01*
X145341286Y-97385491D01*
X145361660Y-97371877D01*
X145378987Y-97354550D01*
X145392600Y-97334175D01*
X145401976Y-97311540D01*
X145406507Y-97296603D01*
X145409964Y-97290137D01*
X145418526Y-97279703D01*
X145640363Y-97057866D01*
X145650797Y-97049304D01*
X145657263Y-97045847D01*
X145672200Y-97041316D01*
X145694839Y-97031938D01*
X145715213Y-97018324D01*
X145732540Y-97000997D01*
X145746153Y-96980622D01*
X145755529Y-96957987D01*
X145760060Y-96943050D01*
X145763517Y-96936584D01*
X145772079Y-96926150D01*
X145993916Y-96704313D01*
X146004350Y-96695751D01*
X146010817Y-96692294D01*
X146025753Y-96687763D01*
X146048392Y-96678386D01*
X146068766Y-96664772D01*
X146086093Y-96647445D01*
X146099707Y-96627070D01*
X146109083Y-96604433D01*
X146113614Y-96589497D01*
X146117071Y-96583030D01*
X146125633Y-96572596D01*
X146347470Y-96350759D01*
X146357904Y-96342197D01*
X146364370Y-96338740D01*
X146379307Y-96334209D01*
X146401946Y-96324831D01*
X146422320Y-96311217D01*
X146439647Y-96293890D01*
X146453260Y-96273515D01*
X146462636Y-96250880D01*
X146467167Y-96235943D01*
X146470624Y-96229477D01*
X146479186Y-96219043D01*
X146701023Y-95997206D01*
X146711457Y-95988644D01*
X146717924Y-95985187D01*
X146732860Y-95980656D01*
X146755499Y-95971279D01*
X146775873Y-95957665D01*
X146793200Y-95940338D01*
X146806814Y-95919963D01*
X146816190Y-95897326D01*
X146820721Y-95882390D01*
X146824178Y-95875923D01*
X146832740Y-95865489D01*
X147054577Y-95643652D01*
X147065011Y-95635090D01*
X147071477Y-95631633D01*
X147078492Y-95629505D01*
X147085787Y-95628787D01*
X147093082Y-95629505D01*
X147093082Y-95629505D01*
G37*
G36*
X173485442Y-97745518D02*
G01*
X173551627Y-97752037D01*
X173721466Y-97803557D01*
X173877991Y-97887222D01*
X173894779Y-97901000D01*
X174015186Y-97999814D01*
X174085857Y-98085928D01*
X174127778Y-98137009D01*
X174211443Y-98293534D01*
X174262963Y-98463373D01*
X174280359Y-98640000D01*
X174262963Y-98816627D01*
X174211443Y-98986466D01*
X174127778Y-99142991D01*
X174107937Y-99167167D01*
X174015186Y-99280186D01*
X173916506Y-99361169D01*
X173877991Y-99392778D01*
X173811881Y-99428115D01*
X173722533Y-99475873D01*
X173721466Y-99476443D01*
X173551627Y-99527963D01*
X173485442Y-99534482D01*
X173419260Y-99541000D01*
X173330740Y-99541000D01*
X173264558Y-99534482D01*
X173198373Y-99527963D01*
X173028534Y-99476443D01*
X173027468Y-99475873D01*
X172938119Y-99428115D01*
X172872009Y-99392778D01*
X172833494Y-99361169D01*
X172734814Y-99280186D01*
X172642063Y-99167167D01*
X172622222Y-99142991D01*
X172538557Y-98986466D01*
X172487037Y-98816627D01*
X172469641Y-98640000D01*
X172487037Y-98463373D01*
X172538557Y-98293534D01*
X172622222Y-98137009D01*
X172664143Y-98085928D01*
X172734814Y-97999814D01*
X172855221Y-97901000D01*
X172872009Y-97887222D01*
X173028534Y-97803557D01*
X173198373Y-97752037D01*
X173264558Y-97745518D01*
X173330740Y-97739000D01*
X173419260Y-97739000D01*
X173485442Y-97745518D01*
X173485442Y-97745518D01*
G37*
G36*
X124810443Y-97485519D02*
G01*
X124876627Y-97492037D01*
X125046466Y-97543557D01*
X125202991Y-97627222D01*
X125228125Y-97647849D01*
X125340186Y-97739814D01*
X125396953Y-97808986D01*
X125452778Y-97877009D01*
X125452779Y-97877011D01*
X125535003Y-98030839D01*
X125536443Y-98033534D01*
X125587963Y-98203373D01*
X125605359Y-98380000D01*
X125587963Y-98556627D01*
X125536849Y-98725126D01*
X125536442Y-98726468D01*
X125514915Y-98766741D01*
X125452778Y-98882991D01*
X125423448Y-98918729D01*
X125340186Y-99020186D01*
X125245018Y-99098287D01*
X125202991Y-99132778D01*
X125046466Y-99216443D01*
X124876627Y-99267963D01*
X124820540Y-99273487D01*
X124744260Y-99281000D01*
X124655740Y-99281000D01*
X124579460Y-99273487D01*
X124523373Y-99267963D01*
X124353534Y-99216443D01*
X124197009Y-99132778D01*
X124154982Y-99098287D01*
X124059814Y-99020186D01*
X123976552Y-98918729D01*
X123947222Y-98882991D01*
X123885085Y-98766741D01*
X123863558Y-98726468D01*
X123863151Y-98725126D01*
X123812037Y-98556627D01*
X123794641Y-98380000D01*
X123812037Y-98203373D01*
X123863557Y-98033534D01*
X123864998Y-98030839D01*
X123947221Y-97877011D01*
X123947222Y-97877009D01*
X124003047Y-97808986D01*
X124059814Y-97739814D01*
X124171875Y-97647849D01*
X124197009Y-97627222D01*
X124353534Y-97543557D01*
X124523373Y-97492037D01*
X124589558Y-97485518D01*
X124655740Y-97479000D01*
X124744260Y-97479000D01*
X124810443Y-97485519D01*
X124810443Y-97485519D01*
G37*
G36*
X159001001Y-98108199D02*
G01*
X157098999Y-98108199D01*
X157098999Y-97348999D01*
X159001001Y-97348999D01*
X159001001Y-98108199D01*
X159001001Y-98108199D01*
G37*
G36*
X173485442Y-95205518D02*
G01*
X173551627Y-95212037D01*
X173721466Y-95263557D01*
X173877991Y-95347222D01*
X173913729Y-95376552D01*
X174015186Y-95459814D01*
X174098448Y-95561271D01*
X174127778Y-95597009D01*
X174211443Y-95753534D01*
X174262963Y-95923373D01*
X174280359Y-96100000D01*
X174262963Y-96276627D01*
X174211443Y-96446466D01*
X174127778Y-96602991D01*
X174111018Y-96623413D01*
X174015186Y-96740186D01*
X173943991Y-96798613D01*
X173877991Y-96852778D01*
X173877989Y-96852779D01*
X173769873Y-96910569D01*
X173721466Y-96936443D01*
X173551627Y-96987963D01*
X173485442Y-96994482D01*
X173419260Y-97001000D01*
X173330740Y-97001000D01*
X173264557Y-96994481D01*
X173198373Y-96987963D01*
X173028534Y-96936443D01*
X172980128Y-96910569D01*
X172872011Y-96852779D01*
X172872009Y-96852778D01*
X172806009Y-96798613D01*
X172734814Y-96740186D01*
X172638982Y-96623413D01*
X172622222Y-96602991D01*
X172538557Y-96446466D01*
X172487037Y-96276627D01*
X172469641Y-96100000D01*
X172487037Y-95923373D01*
X172538557Y-95753534D01*
X172622222Y-95597009D01*
X172651552Y-95561271D01*
X172734814Y-95459814D01*
X172836271Y-95376552D01*
X172872009Y-95347222D01*
X173028534Y-95263557D01*
X173198373Y-95212037D01*
X173264557Y-95205519D01*
X173330740Y-95199000D01*
X173419260Y-95199000D01*
X173485442Y-95205518D01*
X173485442Y-95205518D01*
G37*
G36*
X159001001Y-96851001D02*
G01*
X157098999Y-96851001D01*
X157098999Y-96091801D01*
X159001001Y-96091801D01*
X159001001Y-96851001D01*
X159001001Y-96851001D01*
G37*
G36*
X124810442Y-94945518D02*
G01*
X124876627Y-94952037D01*
X125046466Y-95003557D01*
X125202991Y-95087222D01*
X125238729Y-95116552D01*
X125340186Y-95199814D01*
X125423448Y-95301271D01*
X125452778Y-95337009D01*
X125536443Y-95493534D01*
X125587963Y-95663373D01*
X125605359Y-95840000D01*
X125587963Y-96016627D01*
X125536443Y-96186466D01*
X125452778Y-96342991D01*
X125437853Y-96361177D01*
X125340186Y-96480186D01*
X125238729Y-96563448D01*
X125202991Y-96592778D01*
X125046466Y-96676443D01*
X124876627Y-96727963D01*
X124810443Y-96734481D01*
X124744260Y-96741000D01*
X124655740Y-96741000D01*
X124589558Y-96734482D01*
X124523373Y-96727963D01*
X124353534Y-96676443D01*
X124197009Y-96592778D01*
X124161271Y-96563448D01*
X124059814Y-96480186D01*
X123962147Y-96361177D01*
X123947222Y-96342991D01*
X123863557Y-96186466D01*
X123812037Y-96016627D01*
X123794641Y-95840000D01*
X123812037Y-95663373D01*
X123863557Y-95493534D01*
X123947222Y-95337009D01*
X123976552Y-95301271D01*
X124059814Y-95199814D01*
X124161271Y-95116552D01*
X124197009Y-95087222D01*
X124353534Y-95003557D01*
X124523373Y-94952037D01*
X124589558Y-94945518D01*
X124655740Y-94939000D01*
X124744260Y-94939000D01*
X124810442Y-94945518D01*
X124810442Y-94945518D01*
G37*
G36*
X153279591Y-93740585D02*
G01*
X153313569Y-93750893D01*
X153344890Y-93767634D01*
X153372339Y-93790161D01*
X153394866Y-93817610D01*
X153411607Y-93848931D01*
X153421915Y-93882909D01*
X153426000Y-93924390D01*
X153426000Y-94525610D01*
X153421915Y-94567091D01*
X153411607Y-94601069D01*
X153394866Y-94632390D01*
X153372339Y-94659839D01*
X153344890Y-94682366D01*
X153313569Y-94699107D01*
X153279591Y-94709415D01*
X153238110Y-94713500D01*
X152561890Y-94713500D01*
X152520409Y-94709415D01*
X152486431Y-94699107D01*
X152455110Y-94682366D01*
X152427661Y-94659839D01*
X152405134Y-94632390D01*
X152388393Y-94601069D01*
X152378085Y-94567091D01*
X152374000Y-94525610D01*
X152374000Y-93924390D01*
X152378085Y-93882909D01*
X152388393Y-93848931D01*
X152405134Y-93817610D01*
X152427661Y-93790161D01*
X152455110Y-93767634D01*
X152486431Y-93750893D01*
X152520409Y-93740585D01*
X152561890Y-93736500D01*
X153238110Y-93736500D01*
X153279591Y-93740585D01*
X153279591Y-93740585D01*
G37*
G36*
X147679591Y-93703085D02*
G01*
X147713569Y-93713393D01*
X147744890Y-93730134D01*
X147772339Y-93752661D01*
X147794866Y-93780110D01*
X147811607Y-93811431D01*
X147821915Y-93845409D01*
X147826000Y-93886890D01*
X147826000Y-94488110D01*
X147821915Y-94529591D01*
X147811607Y-94563569D01*
X147794866Y-94594890D01*
X147772339Y-94622339D01*
X147744890Y-94644866D01*
X147713569Y-94661607D01*
X147679591Y-94671915D01*
X147638110Y-94676000D01*
X146961890Y-94676000D01*
X146920409Y-94671915D01*
X146886431Y-94661607D01*
X146855110Y-94644866D01*
X146827661Y-94622339D01*
X146805134Y-94594890D01*
X146788393Y-94563569D01*
X146778085Y-94529591D01*
X146774000Y-94488110D01*
X146774000Y-93886890D01*
X146778085Y-93845409D01*
X146788393Y-93811431D01*
X146805134Y-93780110D01*
X146827661Y-93752661D01*
X146855110Y-93730134D01*
X146886431Y-93713393D01*
X146920409Y-93703085D01*
X146961890Y-93699000D01*
X147638110Y-93699000D01*
X147679591Y-93703085D01*
X147679591Y-93703085D01*
G37*
G36*
X173485443Y-92665519D02*
G01*
X173551627Y-92672037D01*
X173721466Y-92723557D01*
X173877991Y-92807222D01*
X173913729Y-92836552D01*
X174015186Y-92919814D01*
X174097315Y-93019890D01*
X174127778Y-93057009D01*
X174211443Y-93213534D01*
X174262963Y-93383373D01*
X174280359Y-93560000D01*
X174262963Y-93736627D01*
X174211443Y-93906466D01*
X174127778Y-94062991D01*
X174098448Y-94098729D01*
X174015186Y-94200186D01*
X173913729Y-94283448D01*
X173877991Y-94312778D01*
X173721466Y-94396443D01*
X173551627Y-94447963D01*
X173485442Y-94454482D01*
X173419260Y-94461000D01*
X173330740Y-94461000D01*
X173264558Y-94454482D01*
X173198373Y-94447963D01*
X173028534Y-94396443D01*
X172872009Y-94312778D01*
X172836271Y-94283448D01*
X172734814Y-94200186D01*
X172651552Y-94098729D01*
X172622222Y-94062991D01*
X172538557Y-93906466D01*
X172487037Y-93736627D01*
X172469641Y-93560000D01*
X172487037Y-93383373D01*
X172538557Y-93213534D01*
X172622222Y-93057009D01*
X172652685Y-93019890D01*
X172734814Y-92919814D01*
X172836271Y-92836552D01*
X172872009Y-92807222D01*
X173028534Y-92723557D01*
X173198373Y-92672037D01*
X173264557Y-92665519D01*
X173330740Y-92659000D01*
X173419260Y-92659000D01*
X173485443Y-92665519D01*
X173485443Y-92665519D01*
G37*
G36*
X146201000Y-94301000D02*
G01*
X145449000Y-94301000D01*
X145449000Y-92499000D01*
X146201000Y-92499000D01*
X146201000Y-94301000D01*
X146201000Y-94301000D01*
G37*
G36*
X151801000Y-94301000D02*
G01*
X151049000Y-94301000D01*
X151049000Y-92499000D01*
X151801000Y-92499000D01*
X151801000Y-94301000D01*
X151801000Y-94301000D01*
G37*
G36*
X144301000Y-94301000D02*
G01*
X143549000Y-94301000D01*
X143549000Y-92499000D01*
X144301000Y-92499000D01*
X144301000Y-94301000D01*
X144301000Y-94301000D01*
G37*
G36*
X149901000Y-94301000D02*
G01*
X149149000Y-94301000D01*
X149149000Y-92499000D01*
X149901000Y-92499000D01*
X149901000Y-94301000D01*
X149901000Y-94301000D01*
G37*
G36*
X153279591Y-92165585D02*
G01*
X153313569Y-92175893D01*
X153344890Y-92192634D01*
X153372339Y-92215161D01*
X153394866Y-92242610D01*
X153411607Y-92273931D01*
X153421915Y-92307909D01*
X153426000Y-92349390D01*
X153426000Y-92950610D01*
X153421915Y-92992091D01*
X153411607Y-93026069D01*
X153394866Y-93057390D01*
X153372339Y-93084839D01*
X153344890Y-93107366D01*
X153313569Y-93124107D01*
X153279591Y-93134415D01*
X153238110Y-93138500D01*
X152561890Y-93138500D01*
X152520409Y-93134415D01*
X152486431Y-93124107D01*
X152455110Y-93107366D01*
X152427661Y-93084839D01*
X152405134Y-93057390D01*
X152388393Y-93026069D01*
X152378085Y-92992091D01*
X152374000Y-92950610D01*
X152374000Y-92349390D01*
X152378085Y-92307909D01*
X152388393Y-92273931D01*
X152405134Y-92242610D01*
X152427661Y-92215161D01*
X152455110Y-92192634D01*
X152486431Y-92175893D01*
X152520409Y-92165585D01*
X152561890Y-92161500D01*
X153238110Y-92161500D01*
X153279591Y-92165585D01*
X153279591Y-92165585D01*
G37*
G36*
X147679591Y-92128085D02*
G01*
X147713569Y-92138393D01*
X147744890Y-92155134D01*
X147772339Y-92177661D01*
X147794866Y-92205110D01*
X147811607Y-92236431D01*
X147821915Y-92270409D01*
X147826000Y-92311890D01*
X147826000Y-92913110D01*
X147821915Y-92954591D01*
X147811607Y-92988569D01*
X147794866Y-93019890D01*
X147772339Y-93047339D01*
X147744890Y-93069866D01*
X147713569Y-93086607D01*
X147679591Y-93096915D01*
X147638110Y-93101000D01*
X146961890Y-93101000D01*
X146920409Y-93096915D01*
X146886431Y-93086607D01*
X146855110Y-93069866D01*
X146827661Y-93047339D01*
X146805134Y-93019890D01*
X146788393Y-92988569D01*
X146778085Y-92954591D01*
X146774000Y-92913110D01*
X146774000Y-92311890D01*
X146778085Y-92270409D01*
X146788393Y-92236431D01*
X146805134Y-92205110D01*
X146827661Y-92177661D01*
X146855110Y-92155134D01*
X146886431Y-92138393D01*
X146920409Y-92128085D01*
X146961890Y-92124000D01*
X147638110Y-92124000D01*
X147679591Y-92128085D01*
X147679591Y-92128085D01*
G37*
M02*
