G04 #@! TF.GenerationSoftware,KiCad,Pcbnew,(5.1.4)-1*
G04 #@! TF.CreationDate,2020-02-27T11:32:08-05:00*
G04 #@! TF.ProjectId,MotorcycleSwitch,4d6f746f-7263-4796-936c-655377697463,rev?*
G04 #@! TF.SameCoordinates,Original*
G04 #@! TF.FileFunction,Legend,Bot*
G04 #@! TF.FilePolarity,Positive*
%FSLAX46Y46*%
G04 Gerber Fmt 4.6, Leading zero omitted, Abs format (unit mm)*
G04 Created by KiCad (PCBNEW (5.1.4)-1) date 2020-02-27 11:32:08*
%MOMM*%
%LPD*%
G04 APERTURE LIST*
%ADD10C,0.150000*%
%ADD11C,0.120000*%
G04 APERTURE END LIST*
D10*
X171923809Y-93977380D02*
X171923809Y-92977380D01*
X171542857Y-92977380D01*
X171447619Y-93025000D01*
X171400000Y-93072619D01*
X171352380Y-93167857D01*
X171352380Y-93310714D01*
X171400000Y-93405952D01*
X171447619Y-93453571D01*
X171542857Y-93501190D01*
X171923809Y-93501190D01*
X171066666Y-92977380D02*
X170495238Y-92977380D01*
X170780952Y-93977380D02*
X170780952Y-92977380D01*
X170304761Y-92977380D02*
X169733333Y-92977380D01*
X170019047Y-93977380D02*
X170019047Y-92977380D01*
X172084524Y-108327380D02*
X171751190Y-109327380D01*
X171417857Y-108327380D01*
X171084524Y-109327380D02*
X171084524Y-108327380D01*
X170608333Y-109327380D02*
X170608333Y-108327380D01*
X170036905Y-109327380D01*
X170036905Y-108327380D01*
X171417856Y-105825000D02*
X171513094Y-105777380D01*
X171655952Y-105777380D01*
X171798809Y-105825000D01*
X171894047Y-105920238D01*
X171941666Y-106015476D01*
X171989285Y-106205952D01*
X171989285Y-106348809D01*
X171941666Y-106539285D01*
X171894047Y-106634523D01*
X171798809Y-106729761D01*
X171655952Y-106777380D01*
X171560713Y-106777380D01*
X171417856Y-106729761D01*
X171370237Y-106682142D01*
X171370237Y-106348809D01*
X171560713Y-106348809D01*
X170941666Y-106777380D02*
X170941666Y-105777380D01*
X170370237Y-106777380D01*
X170370237Y-105777380D01*
X169894047Y-106777380D02*
X169894047Y-105777380D01*
X169655952Y-105777380D01*
X169513094Y-105825000D01*
X169417856Y-105920238D01*
X169370237Y-106015476D01*
X169322618Y-106205952D01*
X169322618Y-106348809D01*
X169370237Y-106539285D01*
X169417856Y-106634523D01*
X169513094Y-106729761D01*
X169655952Y-106777380D01*
X169894047Y-106777380D01*
X171751190Y-103227380D02*
X171560714Y-103227380D01*
X171465476Y-103275000D01*
X171370238Y-103370238D01*
X171322619Y-103560714D01*
X171322619Y-103894047D01*
X171370238Y-104084523D01*
X171465476Y-104179761D01*
X171560714Y-104227380D01*
X171751190Y-104227380D01*
X171846428Y-104179761D01*
X171941666Y-104084523D01*
X171989285Y-103894047D01*
X171989285Y-103560714D01*
X171941666Y-103370238D01*
X171846428Y-103275000D01*
X171751190Y-103227380D01*
X170894047Y-103227380D02*
X170894047Y-104036904D01*
X170846428Y-104132142D01*
X170798809Y-104179761D01*
X170703571Y-104227380D01*
X170513095Y-104227380D01*
X170417857Y-104179761D01*
X170370238Y-104132142D01*
X170322619Y-104036904D01*
X170322619Y-103227380D01*
X169989285Y-103227380D02*
X169417857Y-103227380D01*
X169703571Y-104227380D02*
X169703571Y-103227380D01*
X169179761Y-103227380D02*
X168560714Y-103227380D01*
X168894047Y-103608333D01*
X168751190Y-103608333D01*
X168655952Y-103655952D01*
X168608333Y-103703571D01*
X168560714Y-103798809D01*
X168560714Y-104036904D01*
X168608333Y-104132142D01*
X168655952Y-104179761D01*
X168751190Y-104227380D01*
X169036904Y-104227380D01*
X169132142Y-104179761D01*
X169179761Y-104132142D01*
X171941666Y-101677380D02*
X171941666Y-100677380D01*
X171941666Y-101153571D02*
X171370237Y-101153571D01*
X171370237Y-101677380D02*
X171370237Y-100677380D01*
X170703571Y-100677380D02*
X170513094Y-100677380D01*
X170417856Y-100725000D01*
X170322618Y-100820238D01*
X170274999Y-101010714D01*
X170274999Y-101344047D01*
X170322618Y-101534523D01*
X170417856Y-101629761D01*
X170513094Y-101677380D01*
X170703571Y-101677380D01*
X170798809Y-101629761D01*
X170894047Y-101534523D01*
X170941666Y-101344047D01*
X170941666Y-101010714D01*
X170894047Y-100820238D01*
X170798809Y-100725000D01*
X170703571Y-100677380D01*
X169274999Y-101677380D02*
X169608333Y-101201190D01*
X169846428Y-101677380D02*
X169846428Y-100677380D01*
X169465475Y-100677380D01*
X169370237Y-100725000D01*
X169322618Y-100772619D01*
X169274999Y-100867857D01*
X169274999Y-101010714D01*
X169322618Y-101105952D01*
X169370237Y-101153571D01*
X169465475Y-101201190D01*
X169846428Y-101201190D01*
X168846428Y-101677380D02*
X168846428Y-100677380D01*
X168274999Y-101677380D01*
X168274999Y-100677380D01*
X171751190Y-98127380D02*
X171560714Y-98127380D01*
X171465476Y-98175000D01*
X171370238Y-98270238D01*
X171322619Y-98460714D01*
X171322619Y-98794047D01*
X171370238Y-98984523D01*
X171465476Y-99079761D01*
X171560714Y-99127380D01*
X171751190Y-99127380D01*
X171846428Y-99079761D01*
X171941666Y-98984523D01*
X171989285Y-98794047D01*
X171989285Y-98460714D01*
X171941666Y-98270238D01*
X171846428Y-98175000D01*
X171751190Y-98127380D01*
X170894047Y-98127380D02*
X170894047Y-98936904D01*
X170846428Y-99032142D01*
X170798809Y-99079761D01*
X170703571Y-99127380D01*
X170513095Y-99127380D01*
X170417857Y-99079761D01*
X170370238Y-99032142D01*
X170322619Y-98936904D01*
X170322619Y-98127380D01*
X169989285Y-98127380D02*
X169417857Y-98127380D01*
X169703571Y-99127380D02*
X169703571Y-98127380D01*
X169132142Y-98222619D02*
X169084523Y-98175000D01*
X168989285Y-98127380D01*
X168751190Y-98127380D01*
X168655952Y-98175000D01*
X168608333Y-98222619D01*
X168560714Y-98317857D01*
X168560714Y-98413095D01*
X168608333Y-98555952D01*
X169179761Y-99127380D01*
X168560714Y-99127380D01*
X171751190Y-95577380D02*
X171560714Y-95577380D01*
X171465476Y-95625000D01*
X171370238Y-95720238D01*
X171322619Y-95910714D01*
X171322619Y-96244047D01*
X171370238Y-96434523D01*
X171465476Y-96529761D01*
X171560714Y-96577380D01*
X171751190Y-96577380D01*
X171846428Y-96529761D01*
X171941666Y-96434523D01*
X171989285Y-96244047D01*
X171989285Y-95910714D01*
X171941666Y-95720238D01*
X171846428Y-95625000D01*
X171751190Y-95577380D01*
X170894047Y-95577380D02*
X170894047Y-96386904D01*
X170846428Y-96482142D01*
X170798809Y-96529761D01*
X170703571Y-96577380D01*
X170513095Y-96577380D01*
X170417857Y-96529761D01*
X170370238Y-96482142D01*
X170322619Y-96386904D01*
X170322619Y-95577380D01*
X169989285Y-95577380D02*
X169417857Y-95577380D01*
X169703571Y-96577380D02*
X169703571Y-95577380D01*
X168560714Y-96577380D02*
X169132142Y-96577380D01*
X168846428Y-96577380D02*
X168846428Y-95577380D01*
X168941666Y-95720238D01*
X169036904Y-95815476D01*
X169132142Y-95863095D01*
D11*
X129637221Y-106540000D02*
X129962779Y-106540000D01*
X129637221Y-107560000D02*
X129962779Y-107560000D01*
X157110000Y-90337221D02*
X157110000Y-90662779D01*
X156090000Y-90337221D02*
X156090000Y-90662779D01*
X137237221Y-93190000D02*
X137562779Y-93190000D01*
X137237221Y-94210000D02*
X137562779Y-94210000D01*
X128365000Y-107965000D02*
X130650000Y-107965000D01*
X128365000Y-109435000D02*
X128365000Y-107965000D01*
X130650000Y-109435000D02*
X128365000Y-109435000D01*
X158935000Y-90102500D02*
X158935000Y-92387500D01*
X157465000Y-90102500D02*
X158935000Y-90102500D01*
X157465000Y-92387500D02*
X157465000Y-90102500D01*
X167935000Y-108235000D02*
X165650000Y-108235000D01*
X167935000Y-106765000D02*
X167935000Y-108235000D01*
X165650000Y-106765000D02*
X167935000Y-106765000D01*
X135785000Y-94435000D02*
X133500000Y-94435000D01*
X135785000Y-92965000D02*
X135785000Y-94435000D01*
X133500000Y-92965000D02*
X135785000Y-92965000D01*
X163217221Y-108202000D02*
X163542779Y-108202000D01*
X163217221Y-109222000D02*
X163542779Y-109222000D01*
X133140000Y-108112779D02*
X133140000Y-107787221D01*
X134160000Y-108112779D02*
X134160000Y-107787221D01*
X142540000Y-100225279D02*
X142540000Y-99899721D01*
X143560000Y-100225279D02*
X143560000Y-99899721D01*
X163869221Y-93216000D02*
X164194779Y-93216000D01*
X163869221Y-94236000D02*
X164194779Y-94236000D01*
X128460000Y-94387221D02*
X128460000Y-94712779D01*
X127440000Y-94387221D02*
X127440000Y-94712779D01*
X134515000Y-107965000D02*
X136800000Y-107965000D01*
X134515000Y-109435000D02*
X134515000Y-107965000D01*
X136800000Y-109435000D02*
X134515000Y-109435000D01*
X162469000Y-94461000D02*
X160184000Y-94461000D01*
X162469000Y-92991000D02*
X162469000Y-94461000D01*
X160184000Y-92991000D02*
X162469000Y-92991000D01*
X161822500Y-109447000D02*
X159537500Y-109447000D01*
X161822500Y-107977000D02*
X161822500Y-109447000D01*
X159537500Y-107977000D02*
X161822500Y-107977000D01*
X128852500Y-93015000D02*
X131137500Y-93015000D01*
X128852500Y-94485000D02*
X128852500Y-93015000D01*
X131137500Y-94485000D02*
X128852500Y-94485000D01*
X159164114Y-87785120D02*
G75*
G03X159164114Y-87785120I-188234J0D01*
G01*
X167265240Y-87234760D02*
X160765240Y-87234760D01*
X160765240Y-87637800D02*
X160765240Y-87234760D01*
X167265240Y-87637800D02*
X167265240Y-87234760D01*
X160750000Y-92346960D02*
X160750000Y-92750000D01*
X167250000Y-92346960D02*
X167250000Y-92750000D01*
X160750000Y-92750000D02*
X167250000Y-92750000D01*
X159164114Y-110185120D02*
G75*
G03X159164114Y-110185120I-188234J0D01*
G01*
X167265240Y-109634760D02*
X160765240Y-109634760D01*
X160765240Y-110037800D02*
X160765240Y-109634760D01*
X167265240Y-110037800D02*
X167265240Y-109634760D01*
X160750000Y-114746960D02*
X160750000Y-115150000D01*
X167250000Y-114746960D02*
X167250000Y-115150000D01*
X160750000Y-115150000D02*
X167250000Y-115150000D01*
X128164114Y-110185120D02*
G75*
G03X128164114Y-110185120I-188234J0D01*
G01*
X136265240Y-109634760D02*
X129765240Y-109634760D01*
X129765240Y-110037800D02*
X129765240Y-109634760D01*
X136265240Y-110037800D02*
X136265240Y-109634760D01*
X129750000Y-114746960D02*
X129750000Y-115150000D01*
X136250000Y-114746960D02*
X136250000Y-115150000D01*
X129750000Y-115150000D02*
X136250000Y-115150000D01*
X143664114Y-98985120D02*
G75*
G03X143664114Y-98985120I-188234J0D01*
G01*
X151765240Y-98434760D02*
X145265240Y-98434760D01*
X145265240Y-98837800D02*
X145265240Y-98434760D01*
X151765240Y-98837800D02*
X151765240Y-98434760D01*
X145250000Y-103546960D02*
X145250000Y-103950000D01*
X151750000Y-103546960D02*
X151750000Y-103950000D01*
X145250000Y-103950000D02*
X151750000Y-103950000D01*
X138212354Y-92214880D02*
G75*
G03X138212354Y-92214880I-188234J0D01*
G01*
X129734760Y-92765240D02*
X136234760Y-92765240D01*
X136234760Y-92362200D02*
X136234760Y-92765240D01*
X129734760Y-92362200D02*
X129734760Y-92765240D01*
X136250000Y-87653040D02*
X136250000Y-87250000D01*
X129750000Y-87653040D02*
X129750000Y-87250000D01*
X136250000Y-87250000D02*
X129750000Y-87250000D01*
X162260000Y-116849721D02*
X162260000Y-117175279D01*
X161240000Y-116849721D02*
X161240000Y-117175279D01*
X162890000Y-117175279D02*
X162890000Y-116849721D01*
X163910000Y-117175279D02*
X163910000Y-116849721D01*
X133635000Y-116737221D02*
X133635000Y-117062779D01*
X132615000Y-116737221D02*
X132615000Y-117062779D01*
X136710000Y-116737221D02*
X136710000Y-117062779D01*
X135690000Y-116737221D02*
X135690000Y-117062779D01*
X149017000Y-105562221D02*
X149017000Y-105887779D01*
X147997000Y-105562221D02*
X147997000Y-105887779D01*
X149597000Y-105887779D02*
X149597000Y-105562221D01*
X150617000Y-105887779D02*
X150617000Y-105562221D01*
X162987221Y-85740000D02*
X163312779Y-85740000D01*
X162987221Y-86760000D02*
X163312779Y-86760000D01*
X157340000Y-87162779D02*
X157340000Y-86837221D01*
X158360000Y-87162779D02*
X158360000Y-86837221D01*
X139312779Y-91860000D02*
X138987221Y-91860000D01*
X139312779Y-90840000D02*
X138987221Y-90840000D01*
X138987221Y-87640000D02*
X139312779Y-87640000D01*
X138987221Y-88660000D02*
X139312779Y-88660000D01*
X143787000Y-101681000D02*
X143787000Y-103966000D01*
X142317000Y-101681000D02*
X143787000Y-101681000D01*
X142317000Y-103966000D02*
X142317000Y-101681000D01*
X160610000Y-116837221D02*
X160610000Y-117162779D01*
X159590000Y-116837221D02*
X159590000Y-117162779D01*
X135185000Y-116737221D02*
X135185000Y-117062779D01*
X134165000Y-116737221D02*
X134165000Y-117062779D01*
X147417000Y-105562221D02*
X147417000Y-105887779D01*
X146397000Y-105562221D02*
X146397000Y-105887779D01*
X160312779Y-86760000D02*
X159987221Y-86760000D01*
X160312779Y-85740000D02*
X159987221Y-85740000D01*
X139312779Y-90260000D02*
X138987221Y-90260000D01*
X139312779Y-89240000D02*
X138987221Y-89240000D01*
D10*
X130567857Y-106002380D02*
X130901190Y-105526190D01*
X131139285Y-106002380D02*
X131139285Y-105002380D01*
X130758333Y-105002380D01*
X130663095Y-105050000D01*
X130615476Y-105097619D01*
X130567857Y-105192857D01*
X130567857Y-105335714D01*
X130615476Y-105430952D01*
X130663095Y-105478571D01*
X130758333Y-105526190D01*
X131139285Y-105526190D01*
X130186904Y-105097619D02*
X130139285Y-105050000D01*
X130044047Y-105002380D01*
X129805952Y-105002380D01*
X129710714Y-105050000D01*
X129663095Y-105097619D01*
X129615476Y-105192857D01*
X129615476Y-105288095D01*
X129663095Y-105430952D01*
X130234523Y-106002380D01*
X129615476Y-106002380D01*
X129282142Y-105002380D02*
X128663095Y-105002380D01*
X128996428Y-105383333D01*
X128853571Y-105383333D01*
X128758333Y-105430952D01*
X128710714Y-105478571D01*
X128663095Y-105573809D01*
X128663095Y-105811904D01*
X128710714Y-105907142D01*
X128758333Y-105954761D01*
X128853571Y-106002380D01*
X129139285Y-106002380D01*
X129234523Y-105954761D01*
X129282142Y-105907142D01*
X155117857Y-90877380D02*
X155451190Y-90401190D01*
X155689285Y-90877380D02*
X155689285Y-89877380D01*
X155308333Y-89877380D01*
X155213095Y-89925000D01*
X155165476Y-89972619D01*
X155117857Y-90067857D01*
X155117857Y-90210714D01*
X155165476Y-90305952D01*
X155213095Y-90353571D01*
X155308333Y-90401190D01*
X155689285Y-90401190D01*
X154736904Y-89972619D02*
X154689285Y-89925000D01*
X154594047Y-89877380D01*
X154355952Y-89877380D01*
X154260714Y-89925000D01*
X154213095Y-89972619D01*
X154165476Y-90067857D01*
X154165476Y-90163095D01*
X154213095Y-90305952D01*
X154784523Y-90877380D01*
X154165476Y-90877380D01*
X153546428Y-89877380D02*
X153451190Y-89877380D01*
X153355952Y-89925000D01*
X153308333Y-89972619D01*
X153260714Y-90067857D01*
X153213095Y-90258333D01*
X153213095Y-90496428D01*
X153260714Y-90686904D01*
X153308333Y-90782142D01*
X153355952Y-90829761D01*
X153451190Y-90877380D01*
X153546428Y-90877380D01*
X153641666Y-90829761D01*
X153689285Y-90782142D01*
X153736904Y-90686904D01*
X153784523Y-90496428D01*
X153784523Y-90258333D01*
X153736904Y-90067857D01*
X153689285Y-89972619D01*
X153641666Y-89925000D01*
X153546428Y-89877380D01*
X138042857Y-95582380D02*
X138376190Y-95106190D01*
X138614285Y-95582380D02*
X138614285Y-94582380D01*
X138233333Y-94582380D01*
X138138095Y-94630000D01*
X138090476Y-94677619D01*
X138042857Y-94772857D01*
X138042857Y-94915714D01*
X138090476Y-95010952D01*
X138138095Y-95058571D01*
X138233333Y-95106190D01*
X138614285Y-95106190D01*
X137090476Y-95582380D02*
X137661904Y-95582380D01*
X137376190Y-95582380D02*
X137376190Y-94582380D01*
X137471428Y-94725238D01*
X137566666Y-94820476D01*
X137661904Y-94868095D01*
X136233333Y-94915714D02*
X136233333Y-95582380D01*
X136471428Y-94534761D02*
X136709523Y-95249047D01*
X136090476Y-95249047D01*
X128113095Y-109177380D02*
X128113095Y-108177380D01*
X127875000Y-108177380D01*
X127732142Y-108225000D01*
X127636904Y-108320238D01*
X127589285Y-108415476D01*
X127541666Y-108605952D01*
X127541666Y-108748809D01*
X127589285Y-108939285D01*
X127636904Y-109034523D01*
X127732142Y-109129761D01*
X127875000Y-109177380D01*
X128113095Y-109177380D01*
X126970238Y-108605952D02*
X127065476Y-108558333D01*
X127113095Y-108510714D01*
X127160714Y-108415476D01*
X127160714Y-108367857D01*
X127113095Y-108272619D01*
X127065476Y-108225000D01*
X126970238Y-108177380D01*
X126779761Y-108177380D01*
X126684523Y-108225000D01*
X126636904Y-108272619D01*
X126589285Y-108367857D01*
X126589285Y-108415476D01*
X126636904Y-108510714D01*
X126684523Y-108558333D01*
X126779761Y-108605952D01*
X126970238Y-108605952D01*
X127065476Y-108653571D01*
X127113095Y-108701190D01*
X127160714Y-108796428D01*
X127160714Y-108986904D01*
X127113095Y-109082142D01*
X127065476Y-109129761D01*
X126970238Y-109177380D01*
X126779761Y-109177380D01*
X126684523Y-109129761D01*
X126636904Y-109082142D01*
X126589285Y-108986904D01*
X126589285Y-108796428D01*
X126636904Y-108701190D01*
X126684523Y-108653571D01*
X126779761Y-108605952D01*
X158888095Y-94202380D02*
X158888095Y-93202380D01*
X158650000Y-93202380D01*
X158507142Y-93250000D01*
X158411904Y-93345238D01*
X158364285Y-93440476D01*
X158316666Y-93630952D01*
X158316666Y-93773809D01*
X158364285Y-93964285D01*
X158411904Y-94059523D01*
X158507142Y-94154761D01*
X158650000Y-94202380D01*
X158888095Y-94202380D01*
X157983333Y-93202380D02*
X157316666Y-93202380D01*
X157745238Y-94202380D01*
X167188095Y-106522380D02*
X167188095Y-105522380D01*
X166950000Y-105522380D01*
X166807142Y-105570000D01*
X166711904Y-105665238D01*
X166664285Y-105760476D01*
X166616666Y-105950952D01*
X166616666Y-106093809D01*
X166664285Y-106284285D01*
X166711904Y-106379523D01*
X166807142Y-106474761D01*
X166950000Y-106522380D01*
X167188095Y-106522380D01*
X165759523Y-105522380D02*
X165950000Y-105522380D01*
X166045238Y-105570000D01*
X166092857Y-105617619D01*
X166188095Y-105760476D01*
X166235714Y-105950952D01*
X166235714Y-106331904D01*
X166188095Y-106427142D01*
X166140476Y-106474761D01*
X166045238Y-106522380D01*
X165854761Y-106522380D01*
X165759523Y-106474761D01*
X165711904Y-106427142D01*
X165664285Y-106331904D01*
X165664285Y-106093809D01*
X165711904Y-105998571D01*
X165759523Y-105950952D01*
X165854761Y-105903333D01*
X166045238Y-105903333D01*
X166140476Y-105950952D01*
X166188095Y-105998571D01*
X166235714Y-106093809D01*
X135063095Y-95652380D02*
X135063095Y-94652380D01*
X134825000Y-94652380D01*
X134682142Y-94700000D01*
X134586904Y-94795238D01*
X134539285Y-94890476D01*
X134491666Y-95080952D01*
X134491666Y-95223809D01*
X134539285Y-95414285D01*
X134586904Y-95509523D01*
X134682142Y-95604761D01*
X134825000Y-95652380D01*
X135063095Y-95652380D01*
X133634523Y-94985714D02*
X133634523Y-95652380D01*
X133872619Y-94604761D02*
X134110714Y-95319047D01*
X133491666Y-95319047D01*
X164092857Y-107852380D02*
X164426190Y-107376190D01*
X164664285Y-107852380D02*
X164664285Y-106852380D01*
X164283333Y-106852380D01*
X164188095Y-106900000D01*
X164140476Y-106947619D01*
X164092857Y-107042857D01*
X164092857Y-107185714D01*
X164140476Y-107280952D01*
X164188095Y-107328571D01*
X164283333Y-107376190D01*
X164664285Y-107376190D01*
X163140476Y-107852380D02*
X163711904Y-107852380D01*
X163426190Y-107852380D02*
X163426190Y-106852380D01*
X163521428Y-106995238D01*
X163616666Y-107090476D01*
X163711904Y-107138095D01*
X162664285Y-107852380D02*
X162473809Y-107852380D01*
X162378571Y-107804761D01*
X162330952Y-107757142D01*
X162235714Y-107614285D01*
X162188095Y-107423809D01*
X162188095Y-107042857D01*
X162235714Y-106947619D01*
X162283333Y-106900000D01*
X162378571Y-106852380D01*
X162569047Y-106852380D01*
X162664285Y-106900000D01*
X162711904Y-106947619D01*
X162759523Y-107042857D01*
X162759523Y-107280952D01*
X162711904Y-107376190D01*
X162664285Y-107423809D01*
X162569047Y-107471428D01*
X162378571Y-107471428D01*
X162283333Y-107423809D01*
X162235714Y-107376190D01*
X162188095Y-107280952D01*
X134342857Y-106252380D02*
X134676190Y-105776190D01*
X134914285Y-106252380D02*
X134914285Y-105252380D01*
X134533333Y-105252380D01*
X134438095Y-105300000D01*
X134390476Y-105347619D01*
X134342857Y-105442857D01*
X134342857Y-105585714D01*
X134390476Y-105680952D01*
X134438095Y-105728571D01*
X134533333Y-105776190D01*
X134914285Y-105776190D01*
X133390476Y-106252380D02*
X133961904Y-106252380D01*
X133676190Y-106252380D02*
X133676190Y-105252380D01*
X133771428Y-105395238D01*
X133866666Y-105490476D01*
X133961904Y-105538095D01*
X132819047Y-105680952D02*
X132914285Y-105633333D01*
X132961904Y-105585714D01*
X133009523Y-105490476D01*
X133009523Y-105442857D01*
X132961904Y-105347619D01*
X132914285Y-105300000D01*
X132819047Y-105252380D01*
X132628571Y-105252380D01*
X132533333Y-105300000D01*
X132485714Y-105347619D01*
X132438095Y-105442857D01*
X132438095Y-105490476D01*
X132485714Y-105585714D01*
X132533333Y-105633333D01*
X132628571Y-105680952D01*
X132819047Y-105680952D01*
X132914285Y-105728571D01*
X132961904Y-105776190D01*
X133009523Y-105871428D01*
X133009523Y-106061904D01*
X132961904Y-106157142D01*
X132914285Y-106204761D01*
X132819047Y-106252380D01*
X132628571Y-106252380D01*
X132533333Y-106204761D01*
X132485714Y-106157142D01*
X132438095Y-106061904D01*
X132438095Y-105871428D01*
X132485714Y-105776190D01*
X132533333Y-105728571D01*
X132628571Y-105680952D01*
X142102380Y-99382142D02*
X141626190Y-99048809D01*
X142102380Y-98810714D02*
X141102380Y-98810714D01*
X141102380Y-99191666D01*
X141150000Y-99286904D01*
X141197619Y-99334523D01*
X141292857Y-99382142D01*
X141435714Y-99382142D01*
X141530952Y-99334523D01*
X141578571Y-99286904D01*
X141626190Y-99191666D01*
X141626190Y-98810714D01*
X142102380Y-100334523D02*
X142102380Y-99763095D01*
X142102380Y-100048809D02*
X141102380Y-100048809D01*
X141245238Y-99953571D01*
X141340476Y-99858333D01*
X141388095Y-99763095D01*
X141102380Y-100667857D02*
X141102380Y-101334523D01*
X142102380Y-100905952D01*
X164674857Y-95608380D02*
X165008190Y-95132190D01*
X165246285Y-95608380D02*
X165246285Y-94608380D01*
X164865333Y-94608380D01*
X164770095Y-94656000D01*
X164722476Y-94703619D01*
X164674857Y-94798857D01*
X164674857Y-94941714D01*
X164722476Y-95036952D01*
X164770095Y-95084571D01*
X164865333Y-95132190D01*
X165246285Y-95132190D01*
X163722476Y-95608380D02*
X164293904Y-95608380D01*
X164008190Y-95608380D02*
X164008190Y-94608380D01*
X164103428Y-94751238D01*
X164198666Y-94846476D01*
X164293904Y-94894095D01*
X162865333Y-94608380D02*
X163055809Y-94608380D01*
X163151047Y-94656000D01*
X163198666Y-94703619D01*
X163293904Y-94846476D01*
X163341523Y-95036952D01*
X163341523Y-95417904D01*
X163293904Y-95513142D01*
X163246285Y-95560761D01*
X163151047Y-95608380D01*
X162960571Y-95608380D01*
X162865333Y-95560761D01*
X162817714Y-95513142D01*
X162770095Y-95417904D01*
X162770095Y-95179809D01*
X162817714Y-95084571D01*
X162865333Y-95036952D01*
X162960571Y-94989333D01*
X163151047Y-94989333D01*
X163246285Y-95036952D01*
X163293904Y-95084571D01*
X163341523Y-95179809D01*
X128092857Y-97252380D02*
X128426190Y-96776190D01*
X128664285Y-97252380D02*
X128664285Y-96252380D01*
X128283333Y-96252380D01*
X128188095Y-96300000D01*
X128140476Y-96347619D01*
X128092857Y-96442857D01*
X128092857Y-96585714D01*
X128140476Y-96680952D01*
X128188095Y-96728571D01*
X128283333Y-96776190D01*
X128664285Y-96776190D01*
X127140476Y-97252380D02*
X127711904Y-97252380D01*
X127426190Y-97252380D02*
X127426190Y-96252380D01*
X127521428Y-96395238D01*
X127616666Y-96490476D01*
X127711904Y-96538095D01*
X126235714Y-96252380D02*
X126711904Y-96252380D01*
X126759523Y-96728571D01*
X126711904Y-96680952D01*
X126616666Y-96633333D01*
X126378571Y-96633333D01*
X126283333Y-96680952D01*
X126235714Y-96728571D01*
X126188095Y-96823809D01*
X126188095Y-97061904D01*
X126235714Y-97157142D01*
X126283333Y-97204761D01*
X126378571Y-97252380D01*
X126616666Y-97252380D01*
X126711904Y-97204761D01*
X126759523Y-97157142D01*
X137189285Y-107627380D02*
X137189285Y-106627380D01*
X136951190Y-106627380D01*
X136808333Y-106675000D01*
X136713095Y-106770238D01*
X136665476Y-106865476D01*
X136617857Y-107055952D01*
X136617857Y-107198809D01*
X136665476Y-107389285D01*
X136713095Y-107484523D01*
X136808333Y-107579761D01*
X136951190Y-107627380D01*
X137189285Y-107627380D01*
X135665476Y-107627380D02*
X136236904Y-107627380D01*
X135951190Y-107627380D02*
X135951190Y-106627380D01*
X136046428Y-106770238D01*
X136141666Y-106865476D01*
X136236904Y-106913095D01*
X135332142Y-106627380D02*
X134665476Y-106627380D01*
X135094047Y-107627380D01*
X162164285Y-95802380D02*
X162164285Y-94802380D01*
X161926190Y-94802380D01*
X161783333Y-94850000D01*
X161688095Y-94945238D01*
X161640476Y-95040476D01*
X161592857Y-95230952D01*
X161592857Y-95373809D01*
X161640476Y-95564285D01*
X161688095Y-95659523D01*
X161783333Y-95754761D01*
X161926190Y-95802380D01*
X162164285Y-95802380D01*
X160640476Y-95802380D02*
X161211904Y-95802380D01*
X160926190Y-95802380D02*
X160926190Y-94802380D01*
X161021428Y-94945238D01*
X161116666Y-95040476D01*
X161211904Y-95088095D01*
X159783333Y-94802380D02*
X159973809Y-94802380D01*
X160069047Y-94850000D01*
X160116666Y-94897619D01*
X160211904Y-95040476D01*
X160259523Y-95230952D01*
X160259523Y-95611904D01*
X160211904Y-95707142D01*
X160164285Y-95754761D01*
X160069047Y-95802380D01*
X159878571Y-95802380D01*
X159783333Y-95754761D01*
X159735714Y-95707142D01*
X159688095Y-95611904D01*
X159688095Y-95373809D01*
X159735714Y-95278571D01*
X159783333Y-95230952D01*
X159878571Y-95183333D01*
X160069047Y-95183333D01*
X160164285Y-95230952D01*
X160211904Y-95278571D01*
X160259523Y-95373809D01*
X161551785Y-107734380D02*
X161551785Y-106734380D01*
X161313690Y-106734380D01*
X161170833Y-106782000D01*
X161075595Y-106877238D01*
X161027976Y-106972476D01*
X160980357Y-107162952D01*
X160980357Y-107305809D01*
X161027976Y-107496285D01*
X161075595Y-107591523D01*
X161170833Y-107686761D01*
X161313690Y-107734380D01*
X161551785Y-107734380D01*
X160027976Y-107734380D02*
X160599404Y-107734380D01*
X160313690Y-107734380D02*
X160313690Y-106734380D01*
X160408928Y-106877238D01*
X160504166Y-106972476D01*
X160599404Y-107020095D01*
X159170833Y-107067714D02*
X159170833Y-107734380D01*
X159408928Y-106686761D02*
X159647023Y-107401047D01*
X159027976Y-107401047D01*
X131514285Y-95702380D02*
X131514285Y-94702380D01*
X131276190Y-94702380D01*
X131133333Y-94750000D01*
X131038095Y-94845238D01*
X130990476Y-94940476D01*
X130942857Y-95130952D01*
X130942857Y-95273809D01*
X130990476Y-95464285D01*
X131038095Y-95559523D01*
X131133333Y-95654761D01*
X131276190Y-95702380D01*
X131514285Y-95702380D01*
X129990476Y-95702380D02*
X130561904Y-95702380D01*
X130276190Y-95702380D02*
X130276190Y-94702380D01*
X130371428Y-94845238D01*
X130466666Y-94940476D01*
X130561904Y-94988095D01*
X129609523Y-94797619D02*
X129561904Y-94750000D01*
X129466666Y-94702380D01*
X129228571Y-94702380D01*
X129133333Y-94750000D01*
X129085714Y-94797619D01*
X129038095Y-94892857D01*
X129038095Y-94988095D01*
X129085714Y-95130952D01*
X129657142Y-95702380D01*
X129038095Y-95702380D01*
X169679761Y-88666666D02*
X169727380Y-88809523D01*
X169727380Y-89047619D01*
X169679761Y-89142857D01*
X169632142Y-89190476D01*
X169536904Y-89238095D01*
X169441666Y-89238095D01*
X169346428Y-89190476D01*
X169298809Y-89142857D01*
X169251190Y-89047619D01*
X169203571Y-88857142D01*
X169155952Y-88761904D01*
X169108333Y-88714285D01*
X169013095Y-88666666D01*
X168917857Y-88666666D01*
X168822619Y-88714285D01*
X168775000Y-88761904D01*
X168727380Y-88857142D01*
X168727380Y-89095238D01*
X168775000Y-89238095D01*
X168727380Y-89571428D02*
X169727380Y-89809523D01*
X169013095Y-90000000D01*
X169727380Y-90190476D01*
X168727380Y-90428571D01*
X168822619Y-90761904D02*
X168775000Y-90809523D01*
X168727380Y-90904761D01*
X168727380Y-91142857D01*
X168775000Y-91238095D01*
X168822619Y-91285714D01*
X168917857Y-91333333D01*
X169013095Y-91333333D01*
X169155952Y-91285714D01*
X169727380Y-90714285D01*
X169727380Y-91333333D01*
X163959360Y-89297274D02*
X163959360Y-87868702D01*
X163977828Y-89277761D02*
X164834971Y-90563476D01*
X163959360Y-89297274D02*
X163959360Y-87868702D01*
X170329761Y-111241666D02*
X170377380Y-111384523D01*
X170377380Y-111622619D01*
X170329761Y-111717857D01*
X170282142Y-111765476D01*
X170186904Y-111813095D01*
X170091666Y-111813095D01*
X169996428Y-111765476D01*
X169948809Y-111717857D01*
X169901190Y-111622619D01*
X169853571Y-111432142D01*
X169805952Y-111336904D01*
X169758333Y-111289285D01*
X169663095Y-111241666D01*
X169567857Y-111241666D01*
X169472619Y-111289285D01*
X169425000Y-111336904D01*
X169377380Y-111432142D01*
X169377380Y-111670238D01*
X169425000Y-111813095D01*
X169377380Y-112146428D02*
X170377380Y-112384523D01*
X169663095Y-112575000D01*
X170377380Y-112765476D01*
X169377380Y-113003571D01*
X169377380Y-113860714D02*
X169377380Y-113384523D01*
X169853571Y-113336904D01*
X169805952Y-113384523D01*
X169758333Y-113479761D01*
X169758333Y-113717857D01*
X169805952Y-113813095D01*
X169853571Y-113860714D01*
X169948809Y-113908333D01*
X170186904Y-113908333D01*
X170282142Y-113860714D01*
X170329761Y-113813095D01*
X170377380Y-113717857D01*
X170377380Y-113479761D01*
X170329761Y-113384523D01*
X170282142Y-113336904D01*
X163959360Y-111697274D02*
X163959360Y-110268702D01*
X163977828Y-111677761D02*
X164834971Y-112963476D01*
X163959360Y-111697274D02*
X163959360Y-110268702D01*
X128204761Y-110891666D02*
X128252380Y-111034523D01*
X128252380Y-111272619D01*
X128204761Y-111367857D01*
X128157142Y-111415476D01*
X128061904Y-111463095D01*
X127966666Y-111463095D01*
X127871428Y-111415476D01*
X127823809Y-111367857D01*
X127776190Y-111272619D01*
X127728571Y-111082142D01*
X127680952Y-110986904D01*
X127633333Y-110939285D01*
X127538095Y-110891666D01*
X127442857Y-110891666D01*
X127347619Y-110939285D01*
X127300000Y-110986904D01*
X127252380Y-111082142D01*
X127252380Y-111320238D01*
X127300000Y-111463095D01*
X127252380Y-111796428D02*
X128252380Y-112034523D01*
X127538095Y-112225000D01*
X128252380Y-112415476D01*
X127252380Y-112653571D01*
X127585714Y-113463095D02*
X128252380Y-113463095D01*
X127204761Y-113225000D02*
X127919047Y-112986904D01*
X127919047Y-113605952D01*
X132959360Y-111697274D02*
X132959360Y-110268702D01*
X132977828Y-111677761D02*
X133834971Y-112963476D01*
X132959360Y-111697274D02*
X132959360Y-110268702D01*
X149783333Y-98104761D02*
X149640476Y-98152380D01*
X149402380Y-98152380D01*
X149307142Y-98104761D01*
X149259523Y-98057142D01*
X149211904Y-97961904D01*
X149211904Y-97866666D01*
X149259523Y-97771428D01*
X149307142Y-97723809D01*
X149402380Y-97676190D01*
X149592857Y-97628571D01*
X149688095Y-97580952D01*
X149735714Y-97533333D01*
X149783333Y-97438095D01*
X149783333Y-97342857D01*
X149735714Y-97247619D01*
X149688095Y-97200000D01*
X149592857Y-97152380D01*
X149354761Y-97152380D01*
X149211904Y-97200000D01*
X148878571Y-97152380D02*
X148640476Y-98152380D01*
X148450000Y-97438095D01*
X148259523Y-98152380D01*
X148021428Y-97152380D01*
X147735714Y-97152380D02*
X147116666Y-97152380D01*
X147450000Y-97533333D01*
X147307142Y-97533333D01*
X147211904Y-97580952D01*
X147164285Y-97628571D01*
X147116666Y-97723809D01*
X147116666Y-97961904D01*
X147164285Y-98057142D01*
X147211904Y-98104761D01*
X147307142Y-98152380D01*
X147592857Y-98152380D01*
X147688095Y-98104761D01*
X147735714Y-98057142D01*
X148459360Y-100497274D02*
X148459360Y-99068702D01*
X148477828Y-100477761D02*
X149334971Y-101763476D01*
X148459360Y-100497274D02*
X148459360Y-99068702D01*
X128154761Y-88666666D02*
X128202380Y-88809523D01*
X128202380Y-89047619D01*
X128154761Y-89142857D01*
X128107142Y-89190476D01*
X128011904Y-89238095D01*
X127916666Y-89238095D01*
X127821428Y-89190476D01*
X127773809Y-89142857D01*
X127726190Y-89047619D01*
X127678571Y-88857142D01*
X127630952Y-88761904D01*
X127583333Y-88714285D01*
X127488095Y-88666666D01*
X127392857Y-88666666D01*
X127297619Y-88714285D01*
X127250000Y-88761904D01*
X127202380Y-88857142D01*
X127202380Y-89095238D01*
X127250000Y-89238095D01*
X127202380Y-89571428D02*
X128202380Y-89809523D01*
X127488095Y-90000000D01*
X128202380Y-90190476D01*
X127202380Y-90428571D01*
X128202380Y-91333333D02*
X128202380Y-90761904D01*
X128202380Y-91047619D02*
X127202380Y-91047619D01*
X127345238Y-90952380D01*
X127440476Y-90857142D01*
X127488095Y-90761904D01*
X133040640Y-92274154D02*
X133040640Y-90845582D01*
X132165028Y-89531761D02*
X133022171Y-90817476D01*
X133040640Y-92274154D02*
X133040640Y-90845582D01*
X158517857Y-118127380D02*
X158851190Y-117651190D01*
X159089285Y-118127380D02*
X159089285Y-117127380D01*
X158708333Y-117127380D01*
X158613095Y-117175000D01*
X158565476Y-117222619D01*
X158517857Y-117317857D01*
X158517857Y-117460714D01*
X158565476Y-117555952D01*
X158613095Y-117603571D01*
X158708333Y-117651190D01*
X159089285Y-117651190D01*
X157565476Y-118127380D02*
X158136904Y-118127380D01*
X157851190Y-118127380D02*
X157851190Y-117127380D01*
X157946428Y-117270238D01*
X158041666Y-117365476D01*
X158136904Y-117413095D01*
X157184523Y-117222619D02*
X157136904Y-117175000D01*
X157041666Y-117127380D01*
X156803571Y-117127380D01*
X156708333Y-117175000D01*
X156660714Y-117222619D01*
X156613095Y-117317857D01*
X156613095Y-117413095D01*
X156660714Y-117555952D01*
X157232142Y-118127380D01*
X156613095Y-118127380D01*
X166092857Y-117302380D02*
X166426190Y-116826190D01*
X166664285Y-117302380D02*
X166664285Y-116302380D01*
X166283333Y-116302380D01*
X166188095Y-116350000D01*
X166140476Y-116397619D01*
X166092857Y-116492857D01*
X166092857Y-116635714D01*
X166140476Y-116730952D01*
X166188095Y-116778571D01*
X166283333Y-116826190D01*
X166664285Y-116826190D01*
X165140476Y-117302380D02*
X165711904Y-117302380D01*
X165426190Y-117302380D02*
X165426190Y-116302380D01*
X165521428Y-116445238D01*
X165616666Y-116540476D01*
X165711904Y-116588095D01*
X164188095Y-117302380D02*
X164759523Y-117302380D01*
X164473809Y-117302380D02*
X164473809Y-116302380D01*
X164569047Y-116445238D01*
X164664285Y-116540476D01*
X164759523Y-116588095D01*
X131592857Y-116602380D02*
X131926190Y-116126190D01*
X132164285Y-116602380D02*
X132164285Y-115602380D01*
X131783333Y-115602380D01*
X131688095Y-115650000D01*
X131640476Y-115697619D01*
X131592857Y-115792857D01*
X131592857Y-115935714D01*
X131640476Y-116030952D01*
X131688095Y-116078571D01*
X131783333Y-116126190D01*
X132164285Y-116126190D01*
X130640476Y-116602380D02*
X131211904Y-116602380D01*
X130926190Y-116602380D02*
X130926190Y-115602380D01*
X131021428Y-115745238D01*
X131116666Y-115840476D01*
X131211904Y-115888095D01*
X130021428Y-115602380D02*
X129926190Y-115602380D01*
X129830952Y-115650000D01*
X129783333Y-115697619D01*
X129735714Y-115792857D01*
X129688095Y-115983333D01*
X129688095Y-116221428D01*
X129735714Y-116411904D01*
X129783333Y-116507142D01*
X129830952Y-116554761D01*
X129926190Y-116602380D01*
X130021428Y-116602380D01*
X130116666Y-116554761D01*
X130164285Y-116507142D01*
X130211904Y-116411904D01*
X130259523Y-116221428D01*
X130259523Y-115983333D01*
X130211904Y-115792857D01*
X130164285Y-115697619D01*
X130116666Y-115650000D01*
X130021428Y-115602380D01*
X139441666Y-116277380D02*
X139775000Y-115801190D01*
X140013095Y-116277380D02*
X140013095Y-115277380D01*
X139632142Y-115277380D01*
X139536904Y-115325000D01*
X139489285Y-115372619D01*
X139441666Y-115467857D01*
X139441666Y-115610714D01*
X139489285Y-115705952D01*
X139536904Y-115753571D01*
X139632142Y-115801190D01*
X140013095Y-115801190D01*
X138965476Y-116277380D02*
X138775000Y-116277380D01*
X138679761Y-116229761D01*
X138632142Y-116182142D01*
X138536904Y-116039285D01*
X138489285Y-115848809D01*
X138489285Y-115467857D01*
X138536904Y-115372619D01*
X138584523Y-115325000D01*
X138679761Y-115277380D01*
X138870238Y-115277380D01*
X138965476Y-115325000D01*
X139013095Y-115372619D01*
X139060714Y-115467857D01*
X139060714Y-115705952D01*
X139013095Y-115801190D01*
X138965476Y-115848809D01*
X138870238Y-115896428D01*
X138679761Y-115896428D01*
X138584523Y-115848809D01*
X138536904Y-115801190D01*
X138489285Y-115705952D01*
X148984380Y-108033333D02*
X148508190Y-107700000D01*
X148984380Y-107461904D02*
X147984380Y-107461904D01*
X147984380Y-107842857D01*
X148032000Y-107938095D01*
X148079619Y-107985714D01*
X148174857Y-108033333D01*
X148317714Y-108033333D01*
X148412952Y-107985714D01*
X148460571Y-107938095D01*
X148508190Y-107842857D01*
X148508190Y-107461904D01*
X148412952Y-108604761D02*
X148365333Y-108509523D01*
X148317714Y-108461904D01*
X148222476Y-108414285D01*
X148174857Y-108414285D01*
X148079619Y-108461904D01*
X148032000Y-108509523D01*
X147984380Y-108604761D01*
X147984380Y-108795238D01*
X148032000Y-108890476D01*
X148079619Y-108938095D01*
X148174857Y-108985714D01*
X148222476Y-108985714D01*
X148317714Y-108938095D01*
X148365333Y-108890476D01*
X148412952Y-108795238D01*
X148412952Y-108604761D01*
X148460571Y-108509523D01*
X148508190Y-108461904D01*
X148603428Y-108414285D01*
X148793904Y-108414285D01*
X148889142Y-108461904D01*
X148936761Y-108509523D01*
X148984380Y-108604761D01*
X148984380Y-108795238D01*
X148936761Y-108890476D01*
X148889142Y-108938095D01*
X148793904Y-108985714D01*
X148603428Y-108985714D01*
X148508190Y-108938095D01*
X148460571Y-108890476D01*
X148412952Y-108795238D01*
X150559380Y-108033333D02*
X150083190Y-107700000D01*
X150559380Y-107461904D02*
X149559380Y-107461904D01*
X149559380Y-107842857D01*
X149607000Y-107938095D01*
X149654619Y-107985714D01*
X149749857Y-108033333D01*
X149892714Y-108033333D01*
X149987952Y-107985714D01*
X150035571Y-107938095D01*
X150083190Y-107842857D01*
X150083190Y-107461904D01*
X149559380Y-108366666D02*
X149559380Y-109033333D01*
X150559380Y-108604761D01*
X163341666Y-85202380D02*
X163675000Y-84726190D01*
X163913095Y-85202380D02*
X163913095Y-84202380D01*
X163532142Y-84202380D01*
X163436904Y-84250000D01*
X163389285Y-84297619D01*
X163341666Y-84392857D01*
X163341666Y-84535714D01*
X163389285Y-84630952D01*
X163436904Y-84678571D01*
X163532142Y-84726190D01*
X163913095Y-84726190D01*
X162484523Y-84202380D02*
X162675000Y-84202380D01*
X162770238Y-84250000D01*
X162817857Y-84297619D01*
X162913095Y-84440476D01*
X162960714Y-84630952D01*
X162960714Y-85011904D01*
X162913095Y-85107142D01*
X162865476Y-85154761D01*
X162770238Y-85202380D01*
X162579761Y-85202380D01*
X162484523Y-85154761D01*
X162436904Y-85107142D01*
X162389285Y-85011904D01*
X162389285Y-84773809D01*
X162436904Y-84678571D01*
X162484523Y-84630952D01*
X162579761Y-84583333D01*
X162770238Y-84583333D01*
X162865476Y-84630952D01*
X162913095Y-84678571D01*
X162960714Y-84773809D01*
X157941666Y-85327380D02*
X158275000Y-84851190D01*
X158513095Y-85327380D02*
X158513095Y-84327380D01*
X158132142Y-84327380D01*
X158036904Y-84375000D01*
X157989285Y-84422619D01*
X157941666Y-84517857D01*
X157941666Y-84660714D01*
X157989285Y-84755952D01*
X158036904Y-84803571D01*
X158132142Y-84851190D01*
X158513095Y-84851190D01*
X157036904Y-84327380D02*
X157513095Y-84327380D01*
X157560714Y-84803571D01*
X157513095Y-84755952D01*
X157417857Y-84708333D01*
X157179761Y-84708333D01*
X157084523Y-84755952D01*
X157036904Y-84803571D01*
X156989285Y-84898809D01*
X156989285Y-85136904D01*
X157036904Y-85232142D01*
X157084523Y-85279761D01*
X157179761Y-85327380D01*
X157417857Y-85327380D01*
X157513095Y-85279761D01*
X157560714Y-85232142D01*
X141891666Y-91752380D02*
X142225000Y-91276190D01*
X142463095Y-91752380D02*
X142463095Y-90752380D01*
X142082142Y-90752380D01*
X141986904Y-90800000D01*
X141939285Y-90847619D01*
X141891666Y-90942857D01*
X141891666Y-91085714D01*
X141939285Y-91180952D01*
X141986904Y-91228571D01*
X142082142Y-91276190D01*
X142463095Y-91276190D01*
X141034523Y-91085714D02*
X141034523Y-91752380D01*
X141272619Y-90704761D02*
X141510714Y-91419047D01*
X140891666Y-91419047D01*
X141891666Y-88602380D02*
X142225000Y-88126190D01*
X142463095Y-88602380D02*
X142463095Y-87602380D01*
X142082142Y-87602380D01*
X141986904Y-87650000D01*
X141939285Y-87697619D01*
X141891666Y-87792857D01*
X141891666Y-87935714D01*
X141939285Y-88030952D01*
X141986904Y-88078571D01*
X142082142Y-88126190D01*
X142463095Y-88126190D01*
X141558333Y-87602380D02*
X140939285Y-87602380D01*
X141272619Y-87983333D01*
X141129761Y-87983333D01*
X141034523Y-88030952D01*
X140986904Y-88078571D01*
X140939285Y-88173809D01*
X140939285Y-88411904D01*
X140986904Y-88507142D01*
X141034523Y-88554761D01*
X141129761Y-88602380D01*
X141415476Y-88602380D01*
X141510714Y-88554761D01*
X141558333Y-88507142D01*
X142074380Y-101951714D02*
X141074380Y-101951714D01*
X141074380Y-102189809D01*
X141122000Y-102332666D01*
X141217238Y-102427904D01*
X141312476Y-102475523D01*
X141502952Y-102523142D01*
X141645809Y-102523142D01*
X141836285Y-102475523D01*
X141931523Y-102427904D01*
X142026761Y-102332666D01*
X142074380Y-102189809D01*
X142074380Y-101951714D01*
X142074380Y-103475523D02*
X142074380Y-102904095D01*
X142074380Y-103189809D02*
X141074380Y-103189809D01*
X141217238Y-103094571D01*
X141312476Y-102999333D01*
X141360095Y-102904095D01*
X141074380Y-103808857D02*
X141074380Y-104427904D01*
X141455333Y-104094571D01*
X141455333Y-104237428D01*
X141502952Y-104332666D01*
X141550571Y-104380285D01*
X141645809Y-104427904D01*
X141883904Y-104427904D01*
X141979142Y-104380285D01*
X142026761Y-104332666D01*
X142074380Y-104237428D01*
X142074380Y-103951714D01*
X142026761Y-103856476D01*
X141979142Y-103808857D01*
X157366666Y-116232142D02*
X157414285Y-116279761D01*
X157557142Y-116327380D01*
X157652380Y-116327380D01*
X157795238Y-116279761D01*
X157890476Y-116184523D01*
X157938095Y-116089285D01*
X157985714Y-115898809D01*
X157985714Y-115755952D01*
X157938095Y-115565476D01*
X157890476Y-115470238D01*
X157795238Y-115375000D01*
X157652380Y-115327380D01*
X157557142Y-115327380D01*
X157414285Y-115375000D01*
X157366666Y-115422619D01*
X156890476Y-116327380D02*
X156700000Y-116327380D01*
X156604761Y-116279761D01*
X156557142Y-116232142D01*
X156461904Y-116089285D01*
X156414285Y-115898809D01*
X156414285Y-115517857D01*
X156461904Y-115422619D01*
X156509523Y-115375000D01*
X156604761Y-115327380D01*
X156795238Y-115327380D01*
X156890476Y-115375000D01*
X156938095Y-115422619D01*
X156985714Y-115517857D01*
X156985714Y-115755952D01*
X156938095Y-115851190D01*
X156890476Y-115898809D01*
X156795238Y-115946428D01*
X156604761Y-115946428D01*
X156509523Y-115898809D01*
X156461904Y-115851190D01*
X156414285Y-115755952D01*
X138541666Y-117432142D02*
X138589285Y-117479761D01*
X138732142Y-117527380D01*
X138827380Y-117527380D01*
X138970238Y-117479761D01*
X139065476Y-117384523D01*
X139113095Y-117289285D01*
X139160714Y-117098809D01*
X139160714Y-116955952D01*
X139113095Y-116765476D01*
X139065476Y-116670238D01*
X138970238Y-116575000D01*
X138827380Y-116527380D01*
X138732142Y-116527380D01*
X138589285Y-116575000D01*
X138541666Y-116622619D01*
X137970238Y-116955952D02*
X138065476Y-116908333D01*
X138113095Y-116860714D01*
X138160714Y-116765476D01*
X138160714Y-116717857D01*
X138113095Y-116622619D01*
X138065476Y-116575000D01*
X137970238Y-116527380D01*
X137779761Y-116527380D01*
X137684523Y-116575000D01*
X137636904Y-116622619D01*
X137589285Y-116717857D01*
X137589285Y-116765476D01*
X137636904Y-116860714D01*
X137684523Y-116908333D01*
X137779761Y-116955952D01*
X137970238Y-116955952D01*
X138065476Y-117003571D01*
X138113095Y-117051190D01*
X138160714Y-117146428D01*
X138160714Y-117336904D01*
X138113095Y-117432142D01*
X138065476Y-117479761D01*
X137970238Y-117527380D01*
X137779761Y-117527380D01*
X137684523Y-117479761D01*
X137636904Y-117432142D01*
X137589285Y-117336904D01*
X137589285Y-117146428D01*
X137636904Y-117051190D01*
X137684523Y-117003571D01*
X137779761Y-116955952D01*
X147314142Y-108108333D02*
X147361761Y-108060714D01*
X147409380Y-107917857D01*
X147409380Y-107822619D01*
X147361761Y-107679761D01*
X147266523Y-107584523D01*
X147171285Y-107536904D01*
X146980809Y-107489285D01*
X146837952Y-107489285D01*
X146647476Y-107536904D01*
X146552238Y-107584523D01*
X146457000Y-107679761D01*
X146409380Y-107822619D01*
X146409380Y-107917857D01*
X146457000Y-108060714D01*
X146504619Y-108108333D01*
X146409380Y-108441666D02*
X146409380Y-109108333D01*
X147409380Y-108679761D01*
X160316666Y-85177142D02*
X160364285Y-85224761D01*
X160507142Y-85272380D01*
X160602380Y-85272380D01*
X160745238Y-85224761D01*
X160840476Y-85129523D01*
X160888095Y-85034285D01*
X160935714Y-84843809D01*
X160935714Y-84700952D01*
X160888095Y-84510476D01*
X160840476Y-84415238D01*
X160745238Y-84320000D01*
X160602380Y-84272380D01*
X160507142Y-84272380D01*
X160364285Y-84320000D01*
X160316666Y-84367619D01*
X159459523Y-84272380D02*
X159650000Y-84272380D01*
X159745238Y-84320000D01*
X159792857Y-84367619D01*
X159888095Y-84510476D01*
X159935714Y-84700952D01*
X159935714Y-85081904D01*
X159888095Y-85177142D01*
X159840476Y-85224761D01*
X159745238Y-85272380D01*
X159554761Y-85272380D01*
X159459523Y-85224761D01*
X159411904Y-85177142D01*
X159364285Y-85081904D01*
X159364285Y-84843809D01*
X159411904Y-84748571D01*
X159459523Y-84700952D01*
X159554761Y-84653333D01*
X159745238Y-84653333D01*
X159840476Y-84700952D01*
X159888095Y-84748571D01*
X159935714Y-84843809D01*
X141866666Y-90082142D02*
X141914285Y-90129761D01*
X142057142Y-90177380D01*
X142152380Y-90177380D01*
X142295238Y-90129761D01*
X142390476Y-90034523D01*
X142438095Y-89939285D01*
X142485714Y-89748809D01*
X142485714Y-89605952D01*
X142438095Y-89415476D01*
X142390476Y-89320238D01*
X142295238Y-89225000D01*
X142152380Y-89177380D01*
X142057142Y-89177380D01*
X141914285Y-89225000D01*
X141866666Y-89272619D01*
X140961904Y-89177380D02*
X141438095Y-89177380D01*
X141485714Y-89653571D01*
X141438095Y-89605952D01*
X141342857Y-89558333D01*
X141104761Y-89558333D01*
X141009523Y-89605952D01*
X140961904Y-89653571D01*
X140914285Y-89748809D01*
X140914285Y-89986904D01*
X140961904Y-90082142D01*
X141009523Y-90129761D01*
X141104761Y-90177380D01*
X141342857Y-90177380D01*
X141438095Y-90129761D01*
X141485714Y-90082142D01*
M02*
