M48
; DRILL file {KiCad (5.1.4)-1} date 2/27/2020 11:32:06 AM
; FORMAT={-:-/ absolute / metric / decimal}
; #@! TF.CreationDate,2020-02-27T11:32:06-05:00
; #@! TF.GenerationSoftware,Kicad,Pcbnew,(5.1.4)-1
; #@! TF.FileFunction,Plated,1,2,PTH
FMAT,2
METRIC
T1C0.203
T2C0.300
T3C0.400
T4C1.000
%
G90
G05
T1
X164.725Y-97.2
X164.725Y-98.5
X164.725Y-99.9
X164.725Y-101.2
X164.725Y-102.5
X164.725Y-103.9
X164.725Y-105.2
X166.025Y-98.5
X166.025Y-97.2
X166.025Y-99.9
X166.025Y-101.2
X166.025Y-102.5
X166.025Y-103.9
X166.025Y-105.2
X167.325Y-97.2
X167.325Y-98.5
X167.325Y-99.9
X167.325Y-101.2
X167.325Y-102.5
X167.325Y-103.9
X167.325Y-105.2
T2
X165.475Y-111.1
X165.475Y-111.75
X165.475Y-112.4
X166.225Y-111.1
X166.225Y-111.75
X170.4Y-100.2
X170.4Y-101.2
X170.4Y-102.3
X170.5Y-98.2
X170.5Y-98.9
X171.05Y-100.2
X171.05Y-102.3
X171.25Y-98.2
X171.25Y-98.9
X171.7Y-100.2
X171.7Y-101.2
X171.7Y-102.3
X172.0Y-98.2
X172.0Y-98.9
T3
X129.2Y-97.55
X129.2Y-98.55
X129.2Y-99.55
X129.2Y-102.8
X129.2Y-103.8
X129.2Y-104.8
X130.2Y-97.55
X130.2Y-98.55
X130.2Y-99.55
X130.2Y-102.8
X130.2Y-103.8
X130.2Y-104.8
X131.2Y-97.55
X131.2Y-98.55
X131.2Y-99.55
X131.2Y-102.8
X131.2Y-103.8
X131.2Y-104.8
X131.55Y-111.05
X131.55Y-112.05
X131.55Y-113.05
X132.2Y-97.55
X132.2Y-98.55
X132.2Y-99.55
X132.2Y-102.8
X132.2Y-103.8
X132.2Y-104.8
X132.55Y-111.05
X132.55Y-112.05
X132.55Y-113.05
X133.2Y-97.55
X133.2Y-98.55
X133.2Y-99.55
X133.2Y-102.8
X133.2Y-103.8
X133.2Y-104.8
X133.55Y-111.05
X133.55Y-112.05
X133.55Y-113.05
X134.2Y-97.55
X134.2Y-98.55
X134.2Y-99.55
X134.2Y-102.8
X134.2Y-103.8
X134.2Y-104.8
X135.2Y-97.55
X135.2Y-98.55
X135.2Y-99.55
X135.2Y-102.8
X135.2Y-103.8
X135.2Y-104.8
X136.2Y-97.55
X136.2Y-98.55
X136.2Y-99.55
X136.2Y-102.8
X136.2Y-103.8
X136.2Y-104.8
X137.2Y-97.55
X137.2Y-98.55
X137.2Y-99.55
X137.2Y-102.8
X137.2Y-103.8
X137.2Y-104.8
X138.2Y-97.55
X138.2Y-98.55
X138.2Y-99.55
X138.2Y-102.8
X138.2Y-103.8
X138.2Y-104.8
X138.6Y-112.6
X142.55Y-98.0
X143.05Y-97.05
X143.05Y-106.45
X143.45Y-95.95
X143.525Y-90.75
X144.45Y-105.7
X145.599Y-107.315
X146.2Y-109.1
X146.5Y-87.1
X146.5Y-88.1
X146.5Y-89.1
X146.525Y-113.25
X146.525Y-114.25
X146.525Y-115.25
X147.15Y-103.75
X147.2Y-109.1
X147.5Y-87.1
X147.5Y-88.1
X147.5Y-89.1
X147.525Y-113.25
X147.525Y-114.25
X147.525Y-115.25
X148.2Y-109.1
X148.5Y-87.1
X148.5Y-88.1
X148.5Y-89.1
X148.525Y-113.25
X148.525Y-114.25
X148.525Y-115.25
X148.7Y-91.9
X149.5Y-87.1
X149.5Y-88.1
X149.5Y-89.1
X149.525Y-113.25
X149.525Y-114.25
X149.525Y-115.25
X150.45Y-99.7
X150.5Y-87.1
X150.5Y-88.1
X150.5Y-89.1
X150.5Y-91.8
X150.525Y-113.25
X150.525Y-114.25
X150.525Y-115.25
X151.25Y-108.15
X151.375Y-95.881
X151.437Y-110.763
X151.95Y-108.85
X152.55Y-95.85
X152.9Y-110.7
X155.05Y-106.1
X155.1Y-97.65
X155.2Y-91.1
X155.5Y-110.5
X156.15Y-106.05
X156.4Y-116.2
X162.3Y-114.25
X162.441Y-107.309
X168.4Y-107.15
T4
X173.375Y-93.56
X173.375Y-96.1
X173.375Y-98.64
X173.375Y-101.18
X173.375Y-103.72
X173.375Y-106.26
X173.375Y-108.8
X124.7Y-95.84
X124.7Y-98.38
X124.7Y-100.92
X124.7Y-103.46
X124.7Y-106.0
T0
M30
