M48
; DRILL file {KiCad (5.1.2)-2} date 11/30/2019 4:19:08 PM
; FORMAT={-:-/ absolute / metric / decimal}
; #@! TF.CreationDate,2019-11-30T16:19:08-05:00
; #@! TF.GenerationSoftware,Kicad,Pcbnew,(5.1.2)-2
; #@! TF.FileFunction,Plated,1,2,PTH
FMAT,2
METRIC
T1C0.400
T2C0.500
T3C1.700
%
G90
G05
T1
X103.594Y-97.549
X106.159Y-101.054
X106.756Y-95.987
X107.353Y-101.016
X107.912Y-100.178
X108.521Y-100.99
X110.414Y-97.536
X113.005Y-110.388
X114.592Y-97.65
X117.03Y-96.063
X126.314Y-97.536
X126.416Y-107.251
X128.956Y-95.961
X129.172Y-101.041
X130.352Y-101.099
X130.382Y-100.1
X131.508Y-101.079
X132.398Y-97.752
X136.627Y-106.413
X138.963Y-106.337
X141.478Y-98.184
X148.946Y-97.727
X149.835Y-107.302
X151.638Y-95.974
X152.171Y-100.99
X153.255Y-101.087
X153.924Y-100.344
X154.6Y-101.081
X156.82Y-95.669
X163.792Y-107.48
X167.589Y-106.261
X168.377Y-109.918
X170.205Y-101.308
X173.317Y-104.584
X173.686Y-101.498
X175.209Y-96.482
X175.933Y-101.321
X176.404Y-95.566
X177.089Y-101.333
X178.27Y-101.333
X179.451Y-95.961
X179.54Y-98.755
X180.569Y-100.533
T2
X133.756Y-96.926
X134.756Y-96.926
X135.756Y-96.926
X111.671Y-96.482
X112.671Y-96.482
X113.671Y-96.482
X180.48Y-96.177
X181.48Y-96.177
X182.48Y-96.177
X156.667Y-97.79
X157.667Y-97.79
X158.667Y-97.79
T3
X183.604Y-99.89
X183.604Y-103.85
X183.604Y-107.81
X99.187Y-100.025
X99.187Y-103.985
X99.187Y-107.945
T0
M30
