G04 #@! TF.GenerationSoftware,KiCad,Pcbnew,(5.1.2)-2*
G04 #@! TF.CreationDate,2020-04-12T13:41:48-04:00*
G04 #@! TF.ProjectId,MotorcycleSwitch,4d6f746f-7263-4796-936c-655377697463,rev?*
G04 #@! TF.SameCoordinates,Original*
G04 #@! TF.FileFunction,Legend,Top*
G04 #@! TF.FilePolarity,Positive*
%FSLAX46Y46*%
G04 Gerber Fmt 4.6, Leading zero omitted, Abs format (unit mm)*
G04 Created by KiCad (PCBNEW (5.1.2)-2) date 2020-04-12 13:41:48*
%MOMM*%
%LPD*%
G04 APERTURE LIST*
%ADD10C,0.150000*%
%ADD11C,0.120000*%
%ADD12C,0.152400*%
G04 APERTURE END LIST*
D10*
X156486457Y-107232200D02*
X156819791Y-108232200D01*
X157153124Y-107232200D01*
X157819791Y-107708391D02*
X157962648Y-107756010D01*
X158010267Y-107803629D01*
X158057886Y-107898867D01*
X158057886Y-108041724D01*
X158010267Y-108136962D01*
X157962648Y-108184581D01*
X157867410Y-108232200D01*
X157486457Y-108232200D01*
X157486457Y-107232200D01*
X157819791Y-107232200D01*
X157915029Y-107279820D01*
X157962648Y-107327439D01*
X158010267Y-107422677D01*
X158010267Y-107517915D01*
X157962648Y-107613153D01*
X157915029Y-107660772D01*
X157819791Y-107708391D01*
X157486457Y-107708391D01*
X158438838Y-107946486D02*
X158915029Y-107946486D01*
X158343600Y-108232200D02*
X158676934Y-107232200D01*
X159010267Y-108232200D01*
X159200743Y-107232200D02*
X159772172Y-107232200D01*
X159486457Y-108232200D02*
X159486457Y-107232200D01*
X157581695Y-104720345D02*
X157486457Y-104672725D01*
X157343600Y-104672725D01*
X157200742Y-104720345D01*
X157105504Y-104815583D01*
X157057885Y-104910821D01*
X157010266Y-105101297D01*
X157010266Y-105244154D01*
X157057885Y-105434630D01*
X157105504Y-105529868D01*
X157200742Y-105625106D01*
X157343600Y-105672725D01*
X157438838Y-105672725D01*
X157581695Y-105625106D01*
X157629314Y-105577487D01*
X157629314Y-105244154D01*
X157438838Y-105244154D01*
X158057885Y-105672725D02*
X158057885Y-104672725D01*
X158629314Y-105672725D01*
X158629314Y-104672725D01*
X159105504Y-105672725D02*
X159105504Y-104672725D01*
X159343600Y-104672725D01*
X159486457Y-104720345D01*
X159581695Y-104815583D01*
X159629314Y-104910821D01*
X159676933Y-105101297D01*
X159676933Y-105244154D01*
X159629314Y-105434630D01*
X159581695Y-105529868D01*
X159486457Y-105625106D01*
X159343600Y-105672725D01*
X159105504Y-105672725D01*
X157581695Y-103113252D02*
X157581695Y-102113252D01*
X157962647Y-102113252D01*
X158057885Y-102160872D01*
X158105505Y-102208491D01*
X158153124Y-102303729D01*
X158153124Y-102446586D01*
X158105505Y-102541824D01*
X158057885Y-102589443D01*
X157962647Y-102637062D01*
X157581695Y-102637062D01*
X158438838Y-102113252D02*
X159010266Y-102113252D01*
X158724552Y-103113252D02*
X158724552Y-102113252D01*
X159200743Y-102113252D02*
X159772171Y-102113252D01*
X159486457Y-103113252D02*
X159486457Y-102113252D01*
X155962647Y-100553779D02*
X155962647Y-99553779D01*
X155962647Y-100029970D02*
X156534076Y-100029970D01*
X156534076Y-100553779D02*
X156534076Y-99553779D01*
X157200742Y-99553779D02*
X157391219Y-99553779D01*
X157486457Y-99601399D01*
X157581695Y-99696637D01*
X157629314Y-99887113D01*
X157629314Y-100220446D01*
X157581695Y-100410922D01*
X157486457Y-100506160D01*
X157391219Y-100553779D01*
X157200742Y-100553779D01*
X157105504Y-100506160D01*
X157010266Y-100410922D01*
X156962647Y-100220446D01*
X156962647Y-99887113D01*
X157010266Y-99696637D01*
X157105504Y-99601399D01*
X157200742Y-99553779D01*
X158629314Y-100553779D02*
X158295981Y-100077589D01*
X158057885Y-100553779D02*
X158057885Y-99553779D01*
X158438838Y-99553779D01*
X158534076Y-99601399D01*
X158581695Y-99649018D01*
X158629314Y-99744256D01*
X158629314Y-99887113D01*
X158581695Y-99982351D01*
X158534076Y-100029970D01*
X158438838Y-100077589D01*
X158057885Y-100077589D01*
X159057885Y-100553779D02*
X159057885Y-99553779D01*
X159629314Y-100553779D01*
X159629314Y-99553779D01*
X155915028Y-97470497D02*
X155581695Y-97470497D01*
X155581695Y-97994306D02*
X155581695Y-96994306D01*
X156057885Y-96994306D01*
X156915028Y-97994306D02*
X156438838Y-97994306D01*
X156438838Y-96994306D01*
X157200743Y-97708592D02*
X157676933Y-97708592D01*
X157105505Y-97994306D02*
X157438838Y-96994306D01*
X157772171Y-97994306D01*
X158057885Y-97946687D02*
X158200743Y-97994306D01*
X158438838Y-97994306D01*
X158534076Y-97946687D01*
X158581695Y-97899068D01*
X158629314Y-97803830D01*
X158629314Y-97708592D01*
X158581695Y-97613354D01*
X158534076Y-97565735D01*
X158438838Y-97518116D01*
X158248362Y-97470497D01*
X158153124Y-97422878D01*
X158105505Y-97375259D01*
X158057885Y-97280021D01*
X158057885Y-97184783D01*
X158105505Y-97089545D01*
X158153124Y-97041926D01*
X158248362Y-96994306D01*
X158486457Y-96994306D01*
X158629314Y-97041926D01*
X159057885Y-97994306D02*
X159057885Y-96994306D01*
X159057885Y-97470497D02*
X159629314Y-97470497D01*
X159629314Y-97994306D02*
X159629314Y-96994306D01*
X153486457Y-94434833D02*
X154057886Y-94434833D01*
X153772172Y-95434833D02*
X153772172Y-94434833D01*
X154581695Y-94434833D02*
X154772172Y-94434833D01*
X154867410Y-94482453D01*
X154962648Y-94577691D01*
X155010267Y-94768167D01*
X155010267Y-95101500D01*
X154962648Y-95291976D01*
X154867410Y-95387214D01*
X154772172Y-95434833D01*
X154581695Y-95434833D01*
X154486457Y-95387214D01*
X154391219Y-95291976D01*
X154343600Y-95101500D01*
X154343600Y-94768167D01*
X154391219Y-94577691D01*
X154486457Y-94482453D01*
X154581695Y-94434833D01*
X156010267Y-95434833D02*
X155676934Y-94958643D01*
X155438838Y-95434833D02*
X155438838Y-94434833D01*
X155819791Y-94434833D01*
X155915029Y-94482453D01*
X155962648Y-94530072D01*
X156010267Y-94625310D01*
X156010267Y-94768167D01*
X155962648Y-94863405D01*
X155915029Y-94911024D01*
X155819791Y-94958643D01*
X155438838Y-94958643D01*
X157010267Y-95339595D02*
X156962648Y-95387214D01*
X156819791Y-95434833D01*
X156724553Y-95434833D01*
X156581695Y-95387214D01*
X156486457Y-95291976D01*
X156438838Y-95196738D01*
X156391219Y-95006262D01*
X156391219Y-94863405D01*
X156438838Y-94672929D01*
X156486457Y-94577691D01*
X156581695Y-94482453D01*
X156724553Y-94434833D01*
X156819791Y-94434833D01*
X156962648Y-94482453D01*
X157010267Y-94530072D01*
X157438838Y-95434833D02*
X157438838Y-94434833D01*
X157438838Y-94911024D02*
X158010267Y-94911024D01*
X158010267Y-95434833D02*
X158010267Y-94434833D01*
X158248362Y-95530072D02*
X159010267Y-95530072D01*
X159581695Y-94911024D02*
X159248362Y-94911024D01*
X159248362Y-95434833D02*
X159248362Y-94434833D01*
X159724553Y-94434833D01*
X153343600Y-91875360D02*
X153915028Y-91875360D01*
X153629314Y-92875360D02*
X153629314Y-91875360D01*
X154438838Y-91875360D02*
X154629314Y-91875360D01*
X154724552Y-91922980D01*
X154819790Y-92018218D01*
X154867409Y-92208694D01*
X154867409Y-92542027D01*
X154819790Y-92732503D01*
X154724552Y-92827741D01*
X154629314Y-92875360D01*
X154438838Y-92875360D01*
X154343600Y-92827741D01*
X154248362Y-92732503D01*
X154200743Y-92542027D01*
X154200743Y-92208694D01*
X154248362Y-92018218D01*
X154343600Y-91922980D01*
X154438838Y-91875360D01*
X155867409Y-92875360D02*
X155534076Y-92399170D01*
X155295981Y-92875360D02*
X155295981Y-91875360D01*
X155676933Y-91875360D01*
X155772171Y-91922980D01*
X155819790Y-91970599D01*
X155867409Y-92065837D01*
X155867409Y-92208694D01*
X155819790Y-92303932D01*
X155772171Y-92351551D01*
X155676933Y-92399170D01*
X155295981Y-92399170D01*
X156867409Y-92780122D02*
X156819790Y-92827741D01*
X156676933Y-92875360D01*
X156581695Y-92875360D01*
X156438838Y-92827741D01*
X156343600Y-92732503D01*
X156295981Y-92637265D01*
X156248362Y-92446789D01*
X156248362Y-92303932D01*
X156295981Y-92113456D01*
X156343600Y-92018218D01*
X156438838Y-91922980D01*
X156581695Y-91875360D01*
X156676933Y-91875360D01*
X156819790Y-91922980D01*
X156867409Y-91970599D01*
X157295981Y-92875360D02*
X157295981Y-91875360D01*
X157295981Y-92351551D02*
X157867409Y-92351551D01*
X157867409Y-92875360D02*
X157867409Y-91875360D01*
X158105505Y-92970599D02*
X158867409Y-92970599D01*
X159676933Y-92875360D02*
X159343600Y-92399170D01*
X159105505Y-92875360D02*
X159105505Y-91875360D01*
X159486457Y-91875360D01*
X159581695Y-91922980D01*
X159629314Y-91970599D01*
X159676933Y-92065837D01*
X159676933Y-92208694D01*
X159629314Y-92303932D01*
X159581695Y-92351551D01*
X159486457Y-92399170D01*
X159105505Y-92399170D01*
D11*
X163755400Y-101156500D02*
X163755400Y-103441500D01*
X165225400Y-101156500D02*
X163755400Y-101156500D01*
X165225400Y-103441500D02*
X165225400Y-101156500D01*
D12*
X153500000Y-83499999D02*
X153500000Y-87500001D01*
X163300000Y-81999999D02*
X163300000Y-87500001D01*
D11*
X140466986Y-85349237D02*
X141379154Y-86261405D01*
X140148788Y-85667435D02*
X140466986Y-85349237D01*
X139830590Y-85349237D02*
X140148788Y-85667435D01*
X135043477Y-80562124D02*
X135361675Y-80243926D01*
X135361675Y-80880322D02*
X135043477Y-80562124D01*
X145254099Y-80562124D02*
X144935901Y-80880322D01*
X144935901Y-80243926D02*
X145254099Y-80562124D01*
X140148788Y-75456813D02*
X139830590Y-75775011D01*
X140466986Y-75775011D02*
X140148788Y-75456813D01*
X136335060Y-98113620D02*
X136335060Y-99963620D01*
X135135060Y-98113620D02*
X135135060Y-99963620D01*
X135135060Y-99963620D02*
X136335060Y-99963620D01*
X141400279Y-97540000D02*
X141074721Y-97540000D01*
X141400279Y-98560000D02*
X141074721Y-98560000D01*
X165000400Y-99679979D02*
X165000400Y-99354421D01*
X163980400Y-99679979D02*
X163980400Y-99354421D01*
X154196267Y-80140000D02*
X153853733Y-80140000D01*
X154196267Y-81160000D02*
X153853733Y-81160000D01*
X144754478Y-87224273D02*
X144524273Y-87454478D01*
X145475727Y-87945522D02*
X145245522Y-88175727D01*
X143654478Y-86124273D02*
X143424273Y-86354478D01*
X144375727Y-86845522D02*
X144145522Y-87075727D01*
X148350000Y-80575000D02*
X148350000Y-74375000D01*
X151850000Y-80575000D02*
X148350000Y-80575000D01*
X151850000Y-73575000D02*
X151850000Y-80575000D01*
X149150000Y-73575000D02*
X151850000Y-73575000D01*
X148350000Y-74375000D02*
X149150000Y-73575000D01*
X133335000Y-89430000D02*
X133335000Y-89365000D01*
X136865000Y-89430000D02*
X136865000Y-89365000D01*
X133335000Y-95835000D02*
X133335000Y-95770000D01*
X136865000Y-95835000D02*
X136865000Y-95770000D01*
X138190000Y-95770000D02*
X136865000Y-95770000D01*
X136865000Y-89365000D02*
X133335000Y-89365000D01*
X136865000Y-95835000D02*
X133335000Y-95835000D01*
X163230000Y-108930000D02*
X161900000Y-108930000D01*
X163230000Y-107600000D02*
X163230000Y-108930000D01*
X163230000Y-106330000D02*
X160570000Y-106330000D01*
X160570000Y-106330000D02*
X160570000Y-91030000D01*
X163230000Y-106330000D02*
X163230000Y-91030000D01*
X163230000Y-91030000D02*
X160570000Y-91030000D01*
X141900000Y-94640000D02*
X140500000Y-94640000D01*
X140500000Y-96960000D02*
X142400000Y-96960000D01*
X156450000Y-109200000D02*
X161850000Y-109200000D01*
X156450000Y-112500000D02*
X161850000Y-112500000D01*
X156450000Y-109200000D02*
X156450000Y-112500000D01*
D10*
X164942780Y-106198895D02*
X163942780Y-106198895D01*
X163942780Y-105960800D01*
X163990400Y-105817942D01*
X164085638Y-105722704D01*
X164180876Y-105675085D01*
X164371352Y-105627466D01*
X164514209Y-105627466D01*
X164704685Y-105675085D01*
X164799923Y-105722704D01*
X164895161Y-105817942D01*
X164942780Y-105960800D01*
X164942780Y-106198895D01*
X164038019Y-105246514D02*
X163990400Y-105198895D01*
X163942780Y-105103657D01*
X163942780Y-104865561D01*
X163990400Y-104770323D01*
X164038019Y-104722704D01*
X164133257Y-104675085D01*
X164228495Y-104675085D01*
X164371352Y-104722704D01*
X164942780Y-105294133D01*
X164942780Y-104675085D01*
X159461295Y-80427580D02*
X159461295Y-81237104D01*
X159508914Y-81332342D01*
X159556533Y-81379961D01*
X159651771Y-81427580D01*
X159842247Y-81427580D01*
X159937485Y-81379961D01*
X159985104Y-81332342D01*
X160032723Y-81237104D01*
X160032723Y-80427580D01*
X161032723Y-81427580D02*
X160461295Y-81427580D01*
X160747009Y-81427580D02*
X160747009Y-80427580D01*
X160651771Y-80570438D01*
X160556533Y-80665676D01*
X160461295Y-80713295D01*
X139446095Y-73925180D02*
X139446095Y-74734704D01*
X139493714Y-74829942D01*
X139541333Y-74877561D01*
X139636571Y-74925180D01*
X139827047Y-74925180D01*
X139922285Y-74877561D01*
X139969904Y-74829942D01*
X140017523Y-74734704D01*
X140017523Y-73925180D01*
X140446095Y-74020419D02*
X140493714Y-73972800D01*
X140588952Y-73925180D01*
X140827047Y-73925180D01*
X140922285Y-73972800D01*
X140969904Y-74020419D01*
X141017523Y-74115657D01*
X141017523Y-74210895D01*
X140969904Y-74353752D01*
X140398476Y-74925180D01*
X141017523Y-74925180D01*
X134645660Y-100027905D02*
X133645660Y-100027905D01*
X133645660Y-99789810D01*
X133693280Y-99646953D01*
X133788518Y-99551715D01*
X133883756Y-99504096D01*
X134074232Y-99456477D01*
X134217089Y-99456477D01*
X134407565Y-99504096D01*
X134502803Y-99551715D01*
X134598041Y-99646953D01*
X134645660Y-99789810D01*
X134645660Y-100027905D01*
X134645660Y-98504096D02*
X134645660Y-99075524D01*
X134645660Y-98789810D02*
X133645660Y-98789810D01*
X133788518Y-98885048D01*
X133883756Y-98980286D01*
X133931375Y-99075524D01*
X133645660Y-97885048D02*
X133645660Y-97789810D01*
X133693280Y-97694572D01*
X133740899Y-97646953D01*
X133836137Y-97599334D01*
X134026613Y-97551715D01*
X134264708Y-97551715D01*
X134455184Y-97599334D01*
X134550422Y-97646953D01*
X134598041Y-97694572D01*
X134645660Y-97789810D01*
X134645660Y-97885048D01*
X134598041Y-97980286D01*
X134550422Y-98027905D01*
X134455184Y-98075524D01*
X134264708Y-98123143D01*
X134026613Y-98123143D01*
X133836137Y-98075524D01*
X133740899Y-98027905D01*
X133693280Y-97980286D01*
X133645660Y-97885048D01*
X140594642Y-99932380D02*
X140261309Y-99456190D01*
X140023214Y-99932380D02*
X140023214Y-98932380D01*
X140404166Y-98932380D01*
X140499404Y-98980000D01*
X140547023Y-99027619D01*
X140594642Y-99122857D01*
X140594642Y-99265714D01*
X140547023Y-99360952D01*
X140499404Y-99408571D01*
X140404166Y-99456190D01*
X140023214Y-99456190D01*
X140975595Y-99027619D02*
X141023214Y-98980000D01*
X141118452Y-98932380D01*
X141356547Y-98932380D01*
X141451785Y-98980000D01*
X141499404Y-99027619D01*
X141547023Y-99122857D01*
X141547023Y-99218095D01*
X141499404Y-99360952D01*
X140927976Y-99932380D01*
X141547023Y-99932380D01*
X142499404Y-99932380D02*
X141927976Y-99932380D01*
X142213690Y-99932380D02*
X142213690Y-98932380D01*
X142118452Y-99075238D01*
X142023214Y-99170476D01*
X141927976Y-99218095D01*
X164993580Y-96908857D02*
X164517390Y-97242190D01*
X164993580Y-97480285D02*
X163993580Y-97480285D01*
X163993580Y-97099333D01*
X164041200Y-97004095D01*
X164088819Y-96956476D01*
X164184057Y-96908857D01*
X164326914Y-96908857D01*
X164422152Y-96956476D01*
X164469771Y-97004095D01*
X164517390Y-97099333D01*
X164517390Y-97480285D01*
X164993580Y-95956476D02*
X164993580Y-96527904D01*
X164993580Y-96242190D02*
X163993580Y-96242190D01*
X164136438Y-96337428D01*
X164231676Y-96432666D01*
X164279295Y-96527904D01*
X163993580Y-95623142D02*
X163993580Y-95004095D01*
X164374533Y-95337428D01*
X164374533Y-95194571D01*
X164422152Y-95099333D01*
X164469771Y-95051714D01*
X164565009Y-95004095D01*
X164803104Y-95004095D01*
X164898342Y-95051714D01*
X164945961Y-95099333D01*
X164993580Y-95194571D01*
X164993580Y-95480285D01*
X164945961Y-95575523D01*
X164898342Y-95623142D01*
X153848773Y-79634340D02*
X153515440Y-79158150D01*
X153277344Y-79634340D02*
X153277344Y-78634340D01*
X153658297Y-78634340D01*
X153753535Y-78681960D01*
X153801154Y-78729579D01*
X153848773Y-78824817D01*
X153848773Y-78967674D01*
X153801154Y-79062912D01*
X153753535Y-79110531D01*
X153658297Y-79158150D01*
X153277344Y-79158150D01*
X154229725Y-78729579D02*
X154277344Y-78681960D01*
X154372582Y-78634340D01*
X154610678Y-78634340D01*
X154705916Y-78681960D01*
X154753535Y-78729579D01*
X154801154Y-78824817D01*
X154801154Y-78920055D01*
X154753535Y-79062912D01*
X154182106Y-79634340D01*
X154801154Y-79634340D01*
X146895887Y-86273189D02*
X146895887Y-86340532D01*
X146828543Y-86475219D01*
X146761200Y-86542563D01*
X146626512Y-86609906D01*
X146491825Y-86609906D01*
X146390810Y-86576235D01*
X146222451Y-86475219D01*
X146121436Y-86374204D01*
X146020421Y-86205845D01*
X145986749Y-86104830D01*
X145986749Y-85970143D01*
X146054093Y-85835456D01*
X146121436Y-85768112D01*
X146256123Y-85700769D01*
X146323467Y-85700769D01*
X146592841Y-85431395D02*
X146592841Y-85364051D01*
X146626512Y-85263036D01*
X146794871Y-85094677D01*
X146895887Y-85061006D01*
X146963230Y-85061006D01*
X147064245Y-85094677D01*
X147131589Y-85162021D01*
X147198932Y-85296708D01*
X147198932Y-86104830D01*
X147636665Y-85667097D01*
X145829087Y-85155589D02*
X145829087Y-85222932D01*
X145761743Y-85357619D01*
X145694400Y-85424963D01*
X145559712Y-85492306D01*
X145425025Y-85492306D01*
X145324010Y-85458635D01*
X145155651Y-85357619D01*
X145054636Y-85256604D01*
X144953621Y-85088245D01*
X144919949Y-84987230D01*
X144919949Y-84852543D01*
X144987293Y-84717856D01*
X145054636Y-84650512D01*
X145189323Y-84583169D01*
X145256667Y-84583169D01*
X146569865Y-84549497D02*
X146165804Y-84953558D01*
X146367835Y-84751528D02*
X145660728Y-84044421D01*
X145694400Y-84212780D01*
X145694400Y-84347467D01*
X145660728Y-84448482D01*
X152842933Y-74721980D02*
X152509600Y-74245790D01*
X152271504Y-74721980D02*
X152271504Y-73721980D01*
X152652457Y-73721980D01*
X152747695Y-73769600D01*
X152795314Y-73817219D01*
X152842933Y-73912457D01*
X152842933Y-74055314D01*
X152795314Y-74150552D01*
X152747695Y-74198171D01*
X152652457Y-74245790D01*
X152271504Y-74245790D01*
X153795314Y-74721980D02*
X153223885Y-74721980D01*
X153509600Y-74721980D02*
X153509600Y-73721980D01*
X153414361Y-73864838D01*
X153319123Y-73960076D01*
X153223885Y-74007695D01*
X150134723Y-84780380D02*
X149801390Y-84304190D01*
X149563295Y-84780380D02*
X149563295Y-83780380D01*
X149944247Y-83780380D01*
X150039485Y-83828000D01*
X150087104Y-83875619D01*
X150134723Y-83970857D01*
X150134723Y-84113714D01*
X150087104Y-84208952D01*
X150039485Y-84256571D01*
X149944247Y-84304190D01*
X149563295Y-84304190D01*
X150563295Y-84780380D02*
X150563295Y-83780380D01*
X151134723Y-84780380D01*
X151134723Y-83780380D01*
X151563295Y-83875619D02*
X151610914Y-83828000D01*
X151706152Y-83780380D01*
X151944247Y-83780380D01*
X152039485Y-83828000D01*
X152087104Y-83875619D01*
X152134723Y-83970857D01*
X152134723Y-84066095D01*
X152087104Y-84208952D01*
X151515676Y-84780380D01*
X152134723Y-84780380D01*
X134863246Y-88111080D02*
X134863246Y-88825366D01*
X134815627Y-88968223D01*
X134720389Y-89063461D01*
X134577532Y-89111080D01*
X134482294Y-89111080D01*
X135863246Y-89111080D02*
X135291818Y-89111080D01*
X135577532Y-89111080D02*
X135577532Y-88111080D01*
X135482294Y-88253938D01*
X135387056Y-88349176D01*
X135291818Y-88396795D01*
X141074761Y-94177619D02*
X140979523Y-94130000D01*
X140884285Y-94034761D01*
X140741428Y-93891904D01*
X140646190Y-93844285D01*
X140550952Y-93844285D01*
X140598571Y-94082380D02*
X140503333Y-94034761D01*
X140408095Y-93939523D01*
X140360476Y-93749047D01*
X140360476Y-93415714D01*
X140408095Y-93225238D01*
X140503333Y-93130000D01*
X140598571Y-93082380D01*
X140789047Y-93082380D01*
X140884285Y-93130000D01*
X140979523Y-93225238D01*
X141027142Y-93415714D01*
X141027142Y-93749047D01*
X140979523Y-93939523D01*
X140884285Y-94034761D01*
X140789047Y-94082380D01*
X140598571Y-94082380D01*
X141884285Y-93415714D02*
X141884285Y-94082380D01*
X141646190Y-93034761D02*
X141408095Y-93749047D01*
X142027142Y-93749047D01*
X160285204Y-113954820D02*
X160285204Y-112954820D01*
X160523300Y-112954820D01*
X160666157Y-113002440D01*
X160761395Y-113097678D01*
X160809014Y-113192916D01*
X160856633Y-113383392D01*
X160856633Y-113526249D01*
X160809014Y-113716725D01*
X160761395Y-113811963D01*
X160666157Y-113907201D01*
X160523300Y-113954820D01*
X160285204Y-113954820D01*
X161189966Y-112954820D02*
X161809014Y-112954820D01*
X161475680Y-113335773D01*
X161618538Y-113335773D01*
X161713776Y-113383392D01*
X161761395Y-113431011D01*
X161809014Y-113526249D01*
X161809014Y-113764344D01*
X161761395Y-113859582D01*
X161713776Y-113907201D01*
X161618538Y-113954820D01*
X161332823Y-113954820D01*
X161237585Y-113907201D01*
X161189966Y-113859582D01*
M02*
