M48
; DRILL file {KiCad (5.1.2)-2} date 4/12/2020 1:41:43 PM
; FORMAT={-:-/ absolute / metric / decimal}
; #@! TF.CreationDate,2020-04-12T13:41:43-04:00
; #@! TF.GenerationSoftware,Kicad,Pcbnew,(5.1.2)-2
; #@! TF.FileFunction,Plated,1,2,PTH
FMAT,2
METRIC
T1C0.203
T2C0.300
T3C0.400
T4C1.000
%
G90
G05
T1
X154.4Y-84.2
X154.4Y-85.5
X154.4Y-86.8
X155.7Y-84.2
X155.7Y-85.5
X155.7Y-86.8
X157.1Y-85.5
X157.1Y-86.8
X158.4Y-85.5
X158.4Y-86.8
X159.7Y-85.5
X159.7Y-86.8
X161.1Y-84.2
X161.1Y-85.5
X161.1Y-86.8
X162.4Y-84.2
X162.4Y-85.5
X162.4Y-86.8
T2
X139.903Y-82.804
X139.903Y-83.414
X140.614Y-82.804
X140.614Y-83.414
X153.772Y-89.713
X153.772Y-90.322
X154.483Y-89.713
X154.483Y-90.322
X155.448Y-89.713
X155.448Y-90.322
X156.159Y-89.713
X156.159Y-90.322
X157.886Y-89.967
X158.902Y-89.967
T3
X129.3Y-86.55
X130.046Y-85.878
X130.956Y-85.431
X132.01Y-84.839
X132.55Y-83.55
X133.488Y-80.338
X135.143Y-85.423
X136.334Y-85.979
X136.51Y-115.164
X136.827Y-86.874
X137.988Y-86.835
X138.543Y-74.449
X138.938Y-92.71
X138.938Y-93.777
X139.826Y-74.728
X140.048Y-111.971
X140.208Y-113.284
X140.716Y-116.281
X141.224Y-96.926
X142.9Y-116.637
X143.5Y-74.35
X143.5Y-89.15
X144.018Y-95.555
X144.546Y-74.211
X144.6Y-110.567
X145.6Y-74.05
X145.898Y-110.541
X146.15Y-118.05
X146.167Y-116.85
X146.639Y-84.966
X147.726Y-113.538
X148.0Y-118.05
X148.05Y-116.85
X148.387Y-123.647
X148.387Y-124.663
X149.504Y-123.647
X149.504Y-124.663
X152.7Y-77.5
X152.85Y-82.1
X157.8Y-112.85
X157.8Y-114.0
X158.95Y-112.85
X158.95Y-114.0
X164.643Y-97.485
T4
X161.9Y-92.36
X161.9Y-94.9
X161.9Y-97.44
X161.9Y-99.98
X161.9Y-102.52
X161.9Y-105.06
X161.9Y-107.6
T0
M30
