G04 #@! TF.GenerationSoftware,KiCad,Pcbnew,(5.1.2)-2*
G04 #@! TF.CreationDate,2020-04-12T13:41:48-04:00*
G04 #@! TF.ProjectId,MotorcycleSwitch,4d6f746f-7263-4796-936c-655377697463,rev?*
G04 #@! TF.SameCoordinates,Original*
G04 #@! TF.FileFunction,Copper,L1,Top*
G04 #@! TF.FilePolarity,Positive*
%FSLAX46Y46*%
G04 Gerber Fmt 4.6, Leading zero omitted, Abs format (unit mm)*
G04 Created by KiCad (PCBNEW (5.1.2)-2) date 2020-04-12 13:41:48*
%MOMM*%
%LPD*%
G04 APERTURE LIST*
%ADD10C,0.100000*%
%ADD11C,0.875000*%
%ADD12C,0.499999*%
%ADD13R,9.700001X3.400001*%
%ADD14R,0.449999X1.400000*%
%ADD15C,0.300000*%
%ADD16R,0.700000X0.600000*%
%ADD17C,0.950000*%
%ADD18R,0.900000X0.450000*%
%ADD19R,0.300000X0.657200*%
%ADD20R,2.400000X0.740000*%
%ADD21O,1.700000X1.700000*%
%ADD22R,1.700000X1.700000*%
%ADD23R,0.650000X0.400000*%
%ADD24R,2.500000X1.800000*%
%ADD25C,0.500000*%
%ADD26C,0.800000*%
%ADD27C,0.250000*%
%ADD28C,0.127000*%
%ADD29C,0.090000*%
%ADD30C,0.381000*%
%ADD31C,0.254000*%
G04 APERTURE END LIST*
D10*
G36*
X164768091Y-102992553D02*
G01*
X164789326Y-102995703D01*
X164810150Y-103000919D01*
X164830362Y-103008151D01*
X164849768Y-103017330D01*
X164868181Y-103028366D01*
X164885424Y-103041154D01*
X164901330Y-103055570D01*
X164915746Y-103071476D01*
X164928534Y-103088719D01*
X164939570Y-103107132D01*
X164948749Y-103126538D01*
X164955981Y-103146750D01*
X164961197Y-103167574D01*
X164964347Y-103188809D01*
X164965400Y-103210250D01*
X164965400Y-103647750D01*
X164964347Y-103669191D01*
X164961197Y-103690426D01*
X164955981Y-103711250D01*
X164948749Y-103731462D01*
X164939570Y-103750868D01*
X164928534Y-103769281D01*
X164915746Y-103786524D01*
X164901330Y-103802430D01*
X164885424Y-103816846D01*
X164868181Y-103829634D01*
X164849768Y-103840670D01*
X164830362Y-103849849D01*
X164810150Y-103857081D01*
X164789326Y-103862297D01*
X164768091Y-103865447D01*
X164746650Y-103866500D01*
X164234150Y-103866500D01*
X164212709Y-103865447D01*
X164191474Y-103862297D01*
X164170650Y-103857081D01*
X164150438Y-103849849D01*
X164131032Y-103840670D01*
X164112619Y-103829634D01*
X164095376Y-103816846D01*
X164079470Y-103802430D01*
X164065054Y-103786524D01*
X164052266Y-103769281D01*
X164041230Y-103750868D01*
X164032051Y-103731462D01*
X164024819Y-103711250D01*
X164019603Y-103690426D01*
X164016453Y-103669191D01*
X164015400Y-103647750D01*
X164015400Y-103210250D01*
X164016453Y-103188809D01*
X164019603Y-103167574D01*
X164024819Y-103146750D01*
X164032051Y-103126538D01*
X164041230Y-103107132D01*
X164052266Y-103088719D01*
X164065054Y-103071476D01*
X164079470Y-103055570D01*
X164095376Y-103041154D01*
X164112619Y-103028366D01*
X164131032Y-103017330D01*
X164150438Y-103008151D01*
X164170650Y-103000919D01*
X164191474Y-102995703D01*
X164212709Y-102992553D01*
X164234150Y-102991500D01*
X164746650Y-102991500D01*
X164768091Y-102992553D01*
X164768091Y-102992553D01*
G37*
D11*
X164490400Y-103429000D03*
D10*
G36*
X164768091Y-101417553D02*
G01*
X164789326Y-101420703D01*
X164810150Y-101425919D01*
X164830362Y-101433151D01*
X164849768Y-101442330D01*
X164868181Y-101453366D01*
X164885424Y-101466154D01*
X164901330Y-101480570D01*
X164915746Y-101496476D01*
X164928534Y-101513719D01*
X164939570Y-101532132D01*
X164948749Y-101551538D01*
X164955981Y-101571750D01*
X164961197Y-101592574D01*
X164964347Y-101613809D01*
X164965400Y-101635250D01*
X164965400Y-102072750D01*
X164964347Y-102094191D01*
X164961197Y-102115426D01*
X164955981Y-102136250D01*
X164948749Y-102156462D01*
X164939570Y-102175868D01*
X164928534Y-102194281D01*
X164915746Y-102211524D01*
X164901330Y-102227430D01*
X164885424Y-102241846D01*
X164868181Y-102254634D01*
X164849768Y-102265670D01*
X164830362Y-102274849D01*
X164810150Y-102282081D01*
X164789326Y-102287297D01*
X164768091Y-102290447D01*
X164746650Y-102291500D01*
X164234150Y-102291500D01*
X164212709Y-102290447D01*
X164191474Y-102287297D01*
X164170650Y-102282081D01*
X164150438Y-102274849D01*
X164131032Y-102265670D01*
X164112619Y-102254634D01*
X164095376Y-102241846D01*
X164079470Y-102227430D01*
X164065054Y-102211524D01*
X164052266Y-102194281D01*
X164041230Y-102175868D01*
X164032051Y-102156462D01*
X164024819Y-102136250D01*
X164019603Y-102115426D01*
X164016453Y-102094191D01*
X164015400Y-102072750D01*
X164015400Y-101635250D01*
X164016453Y-101613809D01*
X164019603Y-101592574D01*
X164024819Y-101571750D01*
X164032051Y-101551538D01*
X164041230Y-101532132D01*
X164052266Y-101513719D01*
X164065054Y-101496476D01*
X164079470Y-101480570D01*
X164095376Y-101466154D01*
X164112619Y-101453366D01*
X164131032Y-101442330D01*
X164150438Y-101433151D01*
X164170650Y-101425919D01*
X164191474Y-101420703D01*
X164212709Y-101417553D01*
X164234150Y-101416500D01*
X164746650Y-101416500D01*
X164768091Y-101417553D01*
X164768091Y-101417553D01*
G37*
D11*
X164490400Y-101854000D03*
D12*
X158400000Y-85500003D03*
X158400000Y-86800000D03*
X159700000Y-86800000D03*
X159700000Y-85500003D03*
X161100000Y-84200000D03*
X161100000Y-85500000D03*
X161100000Y-86800000D03*
X162400000Y-84200000D03*
X162400000Y-85500003D03*
X162400000Y-86800000D03*
X157100000Y-85500003D03*
X157100000Y-86800000D03*
X154400000Y-86800002D03*
X154400000Y-85500005D03*
X154400000Y-84200003D03*
X155700000Y-86800002D03*
X155700000Y-85500003D03*
X155700000Y-84200003D03*
D13*
X158400000Y-85500000D03*
D14*
X162625000Y-88450002D03*
X161974999Y-88450002D03*
X161325000Y-88450002D03*
X160674999Y-88450002D03*
X160025001Y-88450002D03*
X159374999Y-88450002D03*
X158725001Y-88450002D03*
X158074999Y-88450002D03*
X157425001Y-88450002D03*
X156774999Y-88450002D03*
X156125001Y-88450002D03*
X155475000Y-88450002D03*
X154825001Y-88450002D03*
X154175000Y-88450002D03*
X154175000Y-82550001D03*
X154825001Y-82550001D03*
X155475000Y-82550001D03*
X156125001Y-82550001D03*
X156774999Y-82550001D03*
X157425001Y-82550001D03*
X158074999Y-82550001D03*
X158725001Y-82550001D03*
X159374999Y-82550001D03*
X160025001Y-82550001D03*
X160674999Y-82550001D03*
X161325000Y-82550001D03*
X161974999Y-82550001D03*
X162625000Y-82550001D03*
D10*
G36*
X139572776Y-84853870D02*
G01*
X139580057Y-84854950D01*
X139587196Y-84856738D01*
X139594126Y-84859218D01*
X139600780Y-84862365D01*
X139607093Y-84866149D01*
X139613004Y-84870533D01*
X139618458Y-84875476D01*
X139724524Y-84981542D01*
X139729467Y-84986996D01*
X139733851Y-84992907D01*
X139737635Y-84999220D01*
X139740782Y-85005874D01*
X139743262Y-85012804D01*
X139745050Y-85019943D01*
X139746130Y-85027224D01*
X139746491Y-85034575D01*
X139746130Y-85041926D01*
X139745050Y-85049207D01*
X139743262Y-85056346D01*
X139740782Y-85063276D01*
X139737635Y-85069930D01*
X139733851Y-85076243D01*
X139729467Y-85082154D01*
X139724524Y-85087608D01*
X138787608Y-86024524D01*
X138782154Y-86029467D01*
X138776243Y-86033851D01*
X138769930Y-86037635D01*
X138763276Y-86040782D01*
X138756346Y-86043262D01*
X138749207Y-86045050D01*
X138741926Y-86046130D01*
X138734575Y-86046491D01*
X138727224Y-86046130D01*
X138719943Y-86045050D01*
X138712804Y-86043262D01*
X138705874Y-86040782D01*
X138699220Y-86037635D01*
X138692907Y-86033851D01*
X138686996Y-86029467D01*
X138681542Y-86024524D01*
X138575476Y-85918458D01*
X138570533Y-85913004D01*
X138566149Y-85907093D01*
X138562365Y-85900780D01*
X138559218Y-85894126D01*
X138556738Y-85887196D01*
X138554950Y-85880057D01*
X138553870Y-85872776D01*
X138553509Y-85865425D01*
X138553870Y-85858074D01*
X138554950Y-85850793D01*
X138556738Y-85843654D01*
X138559218Y-85836724D01*
X138562365Y-85830070D01*
X138566149Y-85823757D01*
X138570533Y-85817846D01*
X138575476Y-85812392D01*
X139512392Y-84875476D01*
X139517846Y-84870533D01*
X139523757Y-84866149D01*
X139530070Y-84862365D01*
X139536724Y-84859218D01*
X139543654Y-84856738D01*
X139550793Y-84854950D01*
X139558074Y-84853870D01*
X139565425Y-84853509D01*
X139572776Y-84853870D01*
X139572776Y-84853870D01*
G37*
D15*
X139150000Y-85450000D03*
D10*
G36*
X139219222Y-84500316D02*
G01*
X139226503Y-84501396D01*
X139233642Y-84503184D01*
X139240572Y-84505664D01*
X139247226Y-84508811D01*
X139253539Y-84512595D01*
X139259450Y-84516979D01*
X139264904Y-84521922D01*
X139370970Y-84627988D01*
X139375913Y-84633442D01*
X139380297Y-84639353D01*
X139384081Y-84645666D01*
X139387228Y-84652320D01*
X139389708Y-84659250D01*
X139391496Y-84666389D01*
X139392576Y-84673670D01*
X139392937Y-84681021D01*
X139392576Y-84688372D01*
X139391496Y-84695653D01*
X139389708Y-84702792D01*
X139387228Y-84709722D01*
X139384081Y-84716376D01*
X139380297Y-84722689D01*
X139375913Y-84728600D01*
X139370970Y-84734054D01*
X138434054Y-85670970D01*
X138428600Y-85675913D01*
X138422689Y-85680297D01*
X138416376Y-85684081D01*
X138409722Y-85687228D01*
X138402792Y-85689708D01*
X138395653Y-85691496D01*
X138388372Y-85692576D01*
X138381021Y-85692937D01*
X138373670Y-85692576D01*
X138366389Y-85691496D01*
X138359250Y-85689708D01*
X138352320Y-85687228D01*
X138345666Y-85684081D01*
X138339353Y-85680297D01*
X138333442Y-85675913D01*
X138327988Y-85670970D01*
X138221922Y-85564904D01*
X138216979Y-85559450D01*
X138212595Y-85553539D01*
X138208811Y-85547226D01*
X138205664Y-85540572D01*
X138203184Y-85533642D01*
X138201396Y-85526503D01*
X138200316Y-85519222D01*
X138199955Y-85511871D01*
X138200316Y-85504520D01*
X138201396Y-85497239D01*
X138203184Y-85490100D01*
X138205664Y-85483170D01*
X138208811Y-85476516D01*
X138212595Y-85470203D01*
X138216979Y-85464292D01*
X138221922Y-85458838D01*
X139158838Y-84521922D01*
X139164292Y-84516979D01*
X139170203Y-84512595D01*
X139176516Y-84508811D01*
X139183170Y-84505664D01*
X139190100Y-84503184D01*
X139197239Y-84501396D01*
X139204520Y-84500316D01*
X139211871Y-84499955D01*
X139219222Y-84500316D01*
X139219222Y-84500316D01*
G37*
D15*
X138796446Y-85096446D03*
D10*
G36*
X138865669Y-84146763D02*
G01*
X138872950Y-84147843D01*
X138880089Y-84149631D01*
X138887019Y-84152111D01*
X138893673Y-84155258D01*
X138899986Y-84159042D01*
X138905897Y-84163426D01*
X138911351Y-84168369D01*
X139017417Y-84274435D01*
X139022360Y-84279889D01*
X139026744Y-84285800D01*
X139030528Y-84292113D01*
X139033675Y-84298767D01*
X139036155Y-84305697D01*
X139037943Y-84312836D01*
X139039023Y-84320117D01*
X139039384Y-84327468D01*
X139039023Y-84334819D01*
X139037943Y-84342100D01*
X139036155Y-84349239D01*
X139033675Y-84356169D01*
X139030528Y-84362823D01*
X139026744Y-84369136D01*
X139022360Y-84375047D01*
X139017417Y-84380501D01*
X138080501Y-85317417D01*
X138075047Y-85322360D01*
X138069136Y-85326744D01*
X138062823Y-85330528D01*
X138056169Y-85333675D01*
X138049239Y-85336155D01*
X138042100Y-85337943D01*
X138034819Y-85339023D01*
X138027468Y-85339384D01*
X138020117Y-85339023D01*
X138012836Y-85337943D01*
X138005697Y-85336155D01*
X137998767Y-85333675D01*
X137992113Y-85330528D01*
X137985800Y-85326744D01*
X137979889Y-85322360D01*
X137974435Y-85317417D01*
X137868369Y-85211351D01*
X137863426Y-85205897D01*
X137859042Y-85199986D01*
X137855258Y-85193673D01*
X137852111Y-85187019D01*
X137849631Y-85180089D01*
X137847843Y-85172950D01*
X137846763Y-85165669D01*
X137846402Y-85158318D01*
X137846763Y-85150967D01*
X137847843Y-85143686D01*
X137849631Y-85136547D01*
X137852111Y-85129617D01*
X137855258Y-85122963D01*
X137859042Y-85116650D01*
X137863426Y-85110739D01*
X137868369Y-85105285D01*
X138805285Y-84168369D01*
X138810739Y-84163426D01*
X138816650Y-84159042D01*
X138822963Y-84155258D01*
X138829617Y-84152111D01*
X138836547Y-84149631D01*
X138843686Y-84147843D01*
X138850967Y-84146763D01*
X138858318Y-84146402D01*
X138865669Y-84146763D01*
X138865669Y-84146763D01*
G37*
D15*
X138442893Y-84742893D03*
D10*
G36*
X138512115Y-83793209D02*
G01*
X138519396Y-83794289D01*
X138526535Y-83796077D01*
X138533465Y-83798557D01*
X138540119Y-83801704D01*
X138546432Y-83805488D01*
X138552343Y-83809872D01*
X138557797Y-83814815D01*
X138663863Y-83920881D01*
X138668806Y-83926335D01*
X138673190Y-83932246D01*
X138676974Y-83938559D01*
X138680121Y-83945213D01*
X138682601Y-83952143D01*
X138684389Y-83959282D01*
X138685469Y-83966563D01*
X138685830Y-83973914D01*
X138685469Y-83981265D01*
X138684389Y-83988546D01*
X138682601Y-83995685D01*
X138680121Y-84002615D01*
X138676974Y-84009269D01*
X138673190Y-84015582D01*
X138668806Y-84021493D01*
X138663863Y-84026947D01*
X137726947Y-84963863D01*
X137721493Y-84968806D01*
X137715582Y-84973190D01*
X137709269Y-84976974D01*
X137702615Y-84980121D01*
X137695685Y-84982601D01*
X137688546Y-84984389D01*
X137681265Y-84985469D01*
X137673914Y-84985830D01*
X137666563Y-84985469D01*
X137659282Y-84984389D01*
X137652143Y-84982601D01*
X137645213Y-84980121D01*
X137638559Y-84976974D01*
X137632246Y-84973190D01*
X137626335Y-84968806D01*
X137620881Y-84963863D01*
X137514815Y-84857797D01*
X137509872Y-84852343D01*
X137505488Y-84846432D01*
X137501704Y-84840119D01*
X137498557Y-84833465D01*
X137496077Y-84826535D01*
X137494289Y-84819396D01*
X137493209Y-84812115D01*
X137492848Y-84804764D01*
X137493209Y-84797413D01*
X137494289Y-84790132D01*
X137496077Y-84782993D01*
X137498557Y-84776063D01*
X137501704Y-84769409D01*
X137505488Y-84763096D01*
X137509872Y-84757185D01*
X137514815Y-84751731D01*
X138451731Y-83814815D01*
X138457185Y-83809872D01*
X138463096Y-83805488D01*
X138469409Y-83801704D01*
X138476063Y-83798557D01*
X138482993Y-83796077D01*
X138490132Y-83794289D01*
X138497413Y-83793209D01*
X138504764Y-83792848D01*
X138512115Y-83793209D01*
X138512115Y-83793209D01*
G37*
D15*
X138089339Y-84389339D03*
D10*
G36*
X138158562Y-83439656D02*
G01*
X138165843Y-83440736D01*
X138172982Y-83442524D01*
X138179912Y-83445004D01*
X138186566Y-83448151D01*
X138192879Y-83451935D01*
X138198790Y-83456319D01*
X138204244Y-83461262D01*
X138310310Y-83567328D01*
X138315253Y-83572782D01*
X138319637Y-83578693D01*
X138323421Y-83585006D01*
X138326568Y-83591660D01*
X138329048Y-83598590D01*
X138330836Y-83605729D01*
X138331916Y-83613010D01*
X138332277Y-83620361D01*
X138331916Y-83627712D01*
X138330836Y-83634993D01*
X138329048Y-83642132D01*
X138326568Y-83649062D01*
X138323421Y-83655716D01*
X138319637Y-83662029D01*
X138315253Y-83667940D01*
X138310310Y-83673394D01*
X137373394Y-84610310D01*
X137367940Y-84615253D01*
X137362029Y-84619637D01*
X137355716Y-84623421D01*
X137349062Y-84626568D01*
X137342132Y-84629048D01*
X137334993Y-84630836D01*
X137327712Y-84631916D01*
X137320361Y-84632277D01*
X137313010Y-84631916D01*
X137305729Y-84630836D01*
X137298590Y-84629048D01*
X137291660Y-84626568D01*
X137285006Y-84623421D01*
X137278693Y-84619637D01*
X137272782Y-84615253D01*
X137267328Y-84610310D01*
X137161262Y-84504244D01*
X137156319Y-84498790D01*
X137151935Y-84492879D01*
X137148151Y-84486566D01*
X137145004Y-84479912D01*
X137142524Y-84472982D01*
X137140736Y-84465843D01*
X137139656Y-84458562D01*
X137139295Y-84451211D01*
X137139656Y-84443860D01*
X137140736Y-84436579D01*
X137142524Y-84429440D01*
X137145004Y-84422510D01*
X137148151Y-84415856D01*
X137151935Y-84409543D01*
X137156319Y-84403632D01*
X137161262Y-84398178D01*
X138098178Y-83461262D01*
X138103632Y-83456319D01*
X138109543Y-83451935D01*
X138115856Y-83448151D01*
X138122510Y-83445004D01*
X138129440Y-83442524D01*
X138136579Y-83440736D01*
X138143860Y-83439656D01*
X138151211Y-83439295D01*
X138158562Y-83439656D01*
X138158562Y-83439656D01*
G37*
D15*
X137735786Y-84035786D03*
D10*
G36*
X137805009Y-83086103D02*
G01*
X137812290Y-83087183D01*
X137819429Y-83088971D01*
X137826359Y-83091451D01*
X137833013Y-83094598D01*
X137839326Y-83098382D01*
X137845237Y-83102766D01*
X137850691Y-83107709D01*
X137956757Y-83213775D01*
X137961700Y-83219229D01*
X137966084Y-83225140D01*
X137969868Y-83231453D01*
X137973015Y-83238107D01*
X137975495Y-83245037D01*
X137977283Y-83252176D01*
X137978363Y-83259457D01*
X137978724Y-83266808D01*
X137978363Y-83274159D01*
X137977283Y-83281440D01*
X137975495Y-83288579D01*
X137973015Y-83295509D01*
X137969868Y-83302163D01*
X137966084Y-83308476D01*
X137961700Y-83314387D01*
X137956757Y-83319841D01*
X137019841Y-84256757D01*
X137014387Y-84261700D01*
X137008476Y-84266084D01*
X137002163Y-84269868D01*
X136995509Y-84273015D01*
X136988579Y-84275495D01*
X136981440Y-84277283D01*
X136974159Y-84278363D01*
X136966808Y-84278724D01*
X136959457Y-84278363D01*
X136952176Y-84277283D01*
X136945037Y-84275495D01*
X136938107Y-84273015D01*
X136931453Y-84269868D01*
X136925140Y-84266084D01*
X136919229Y-84261700D01*
X136913775Y-84256757D01*
X136807709Y-84150691D01*
X136802766Y-84145237D01*
X136798382Y-84139326D01*
X136794598Y-84133013D01*
X136791451Y-84126359D01*
X136788971Y-84119429D01*
X136787183Y-84112290D01*
X136786103Y-84105009D01*
X136785742Y-84097658D01*
X136786103Y-84090307D01*
X136787183Y-84083026D01*
X136788971Y-84075887D01*
X136791451Y-84068957D01*
X136794598Y-84062303D01*
X136798382Y-84055990D01*
X136802766Y-84050079D01*
X136807709Y-84044625D01*
X137744625Y-83107709D01*
X137750079Y-83102766D01*
X137755990Y-83098382D01*
X137762303Y-83094598D01*
X137768957Y-83091451D01*
X137775887Y-83088971D01*
X137783026Y-83087183D01*
X137790307Y-83086103D01*
X137797658Y-83085742D01*
X137805009Y-83086103D01*
X137805009Y-83086103D01*
G37*
D15*
X137382233Y-83682233D03*
D10*
G36*
X137451455Y-82732549D02*
G01*
X137458736Y-82733629D01*
X137465875Y-82735417D01*
X137472805Y-82737897D01*
X137479459Y-82741044D01*
X137485772Y-82744828D01*
X137491683Y-82749212D01*
X137497137Y-82754155D01*
X137603203Y-82860221D01*
X137608146Y-82865675D01*
X137612530Y-82871586D01*
X137616314Y-82877899D01*
X137619461Y-82884553D01*
X137621941Y-82891483D01*
X137623729Y-82898622D01*
X137624809Y-82905903D01*
X137625170Y-82913254D01*
X137624809Y-82920605D01*
X137623729Y-82927886D01*
X137621941Y-82935025D01*
X137619461Y-82941955D01*
X137616314Y-82948609D01*
X137612530Y-82954922D01*
X137608146Y-82960833D01*
X137603203Y-82966287D01*
X136666287Y-83903203D01*
X136660833Y-83908146D01*
X136654922Y-83912530D01*
X136648609Y-83916314D01*
X136641955Y-83919461D01*
X136635025Y-83921941D01*
X136627886Y-83923729D01*
X136620605Y-83924809D01*
X136613254Y-83925170D01*
X136605903Y-83924809D01*
X136598622Y-83923729D01*
X136591483Y-83921941D01*
X136584553Y-83919461D01*
X136577899Y-83916314D01*
X136571586Y-83912530D01*
X136565675Y-83908146D01*
X136560221Y-83903203D01*
X136454155Y-83797137D01*
X136449212Y-83791683D01*
X136444828Y-83785772D01*
X136441044Y-83779459D01*
X136437897Y-83772805D01*
X136435417Y-83765875D01*
X136433629Y-83758736D01*
X136432549Y-83751455D01*
X136432188Y-83744104D01*
X136432549Y-83736753D01*
X136433629Y-83729472D01*
X136435417Y-83722333D01*
X136437897Y-83715403D01*
X136441044Y-83708749D01*
X136444828Y-83702436D01*
X136449212Y-83696525D01*
X136454155Y-83691071D01*
X137391071Y-82754155D01*
X137396525Y-82749212D01*
X137402436Y-82744828D01*
X137408749Y-82741044D01*
X137415403Y-82737897D01*
X137422333Y-82735417D01*
X137429472Y-82733629D01*
X137436753Y-82732549D01*
X137444104Y-82732188D01*
X137451455Y-82732549D01*
X137451455Y-82732549D01*
G37*
D15*
X137028679Y-83328679D03*
D10*
G36*
X137097902Y-82378996D02*
G01*
X137105183Y-82380076D01*
X137112322Y-82381864D01*
X137119252Y-82384344D01*
X137125906Y-82387491D01*
X137132219Y-82391275D01*
X137138130Y-82395659D01*
X137143584Y-82400602D01*
X137249650Y-82506668D01*
X137254593Y-82512122D01*
X137258977Y-82518033D01*
X137262761Y-82524346D01*
X137265908Y-82531000D01*
X137268388Y-82537930D01*
X137270176Y-82545069D01*
X137271256Y-82552350D01*
X137271617Y-82559701D01*
X137271256Y-82567052D01*
X137270176Y-82574333D01*
X137268388Y-82581472D01*
X137265908Y-82588402D01*
X137262761Y-82595056D01*
X137258977Y-82601369D01*
X137254593Y-82607280D01*
X137249650Y-82612734D01*
X136312734Y-83549650D01*
X136307280Y-83554593D01*
X136301369Y-83558977D01*
X136295056Y-83562761D01*
X136288402Y-83565908D01*
X136281472Y-83568388D01*
X136274333Y-83570176D01*
X136267052Y-83571256D01*
X136259701Y-83571617D01*
X136252350Y-83571256D01*
X136245069Y-83570176D01*
X136237930Y-83568388D01*
X136231000Y-83565908D01*
X136224346Y-83562761D01*
X136218033Y-83558977D01*
X136212122Y-83554593D01*
X136206668Y-83549650D01*
X136100602Y-83443584D01*
X136095659Y-83438130D01*
X136091275Y-83432219D01*
X136087491Y-83425906D01*
X136084344Y-83419252D01*
X136081864Y-83412322D01*
X136080076Y-83405183D01*
X136078996Y-83397902D01*
X136078635Y-83390551D01*
X136078996Y-83383200D01*
X136080076Y-83375919D01*
X136081864Y-83368780D01*
X136084344Y-83361850D01*
X136087491Y-83355196D01*
X136091275Y-83348883D01*
X136095659Y-83342972D01*
X136100602Y-83337518D01*
X137037518Y-82400602D01*
X137042972Y-82395659D01*
X137048883Y-82391275D01*
X137055196Y-82387491D01*
X137061850Y-82384344D01*
X137068780Y-82381864D01*
X137075919Y-82380076D01*
X137083200Y-82378996D01*
X137090551Y-82378635D01*
X137097902Y-82378996D01*
X137097902Y-82378996D01*
G37*
D15*
X136675126Y-82975126D03*
D10*
G36*
X136744349Y-82025443D02*
G01*
X136751630Y-82026523D01*
X136758769Y-82028311D01*
X136765699Y-82030791D01*
X136772353Y-82033938D01*
X136778666Y-82037722D01*
X136784577Y-82042106D01*
X136790031Y-82047049D01*
X136896097Y-82153115D01*
X136901040Y-82158569D01*
X136905424Y-82164480D01*
X136909208Y-82170793D01*
X136912355Y-82177447D01*
X136914835Y-82184377D01*
X136916623Y-82191516D01*
X136917703Y-82198797D01*
X136918064Y-82206148D01*
X136917703Y-82213499D01*
X136916623Y-82220780D01*
X136914835Y-82227919D01*
X136912355Y-82234849D01*
X136909208Y-82241503D01*
X136905424Y-82247816D01*
X136901040Y-82253727D01*
X136896097Y-82259181D01*
X135959181Y-83196097D01*
X135953727Y-83201040D01*
X135947816Y-83205424D01*
X135941503Y-83209208D01*
X135934849Y-83212355D01*
X135927919Y-83214835D01*
X135920780Y-83216623D01*
X135913499Y-83217703D01*
X135906148Y-83218064D01*
X135898797Y-83217703D01*
X135891516Y-83216623D01*
X135884377Y-83214835D01*
X135877447Y-83212355D01*
X135870793Y-83209208D01*
X135864480Y-83205424D01*
X135858569Y-83201040D01*
X135853115Y-83196097D01*
X135747049Y-83090031D01*
X135742106Y-83084577D01*
X135737722Y-83078666D01*
X135733938Y-83072353D01*
X135730791Y-83065699D01*
X135728311Y-83058769D01*
X135726523Y-83051630D01*
X135725443Y-83044349D01*
X135725082Y-83036998D01*
X135725443Y-83029647D01*
X135726523Y-83022366D01*
X135728311Y-83015227D01*
X135730791Y-83008297D01*
X135733938Y-83001643D01*
X135737722Y-82995330D01*
X135742106Y-82989419D01*
X135747049Y-82983965D01*
X136683965Y-82047049D01*
X136689419Y-82042106D01*
X136695330Y-82037722D01*
X136701643Y-82033938D01*
X136708297Y-82030791D01*
X136715227Y-82028311D01*
X136722366Y-82026523D01*
X136729647Y-82025443D01*
X136736998Y-82025082D01*
X136744349Y-82025443D01*
X136744349Y-82025443D01*
G37*
D15*
X136321573Y-82621573D03*
D10*
G36*
X136390795Y-81671889D02*
G01*
X136398076Y-81672969D01*
X136405215Y-81674757D01*
X136412145Y-81677237D01*
X136418799Y-81680384D01*
X136425112Y-81684168D01*
X136431023Y-81688552D01*
X136436477Y-81693495D01*
X136542543Y-81799561D01*
X136547486Y-81805015D01*
X136551870Y-81810926D01*
X136555654Y-81817239D01*
X136558801Y-81823893D01*
X136561281Y-81830823D01*
X136563069Y-81837962D01*
X136564149Y-81845243D01*
X136564510Y-81852594D01*
X136564149Y-81859945D01*
X136563069Y-81867226D01*
X136561281Y-81874365D01*
X136558801Y-81881295D01*
X136555654Y-81887949D01*
X136551870Y-81894262D01*
X136547486Y-81900173D01*
X136542543Y-81905627D01*
X135605627Y-82842543D01*
X135600173Y-82847486D01*
X135594262Y-82851870D01*
X135587949Y-82855654D01*
X135581295Y-82858801D01*
X135574365Y-82861281D01*
X135567226Y-82863069D01*
X135559945Y-82864149D01*
X135552594Y-82864510D01*
X135545243Y-82864149D01*
X135537962Y-82863069D01*
X135530823Y-82861281D01*
X135523893Y-82858801D01*
X135517239Y-82855654D01*
X135510926Y-82851870D01*
X135505015Y-82847486D01*
X135499561Y-82842543D01*
X135393495Y-82736477D01*
X135388552Y-82731023D01*
X135384168Y-82725112D01*
X135380384Y-82718799D01*
X135377237Y-82712145D01*
X135374757Y-82705215D01*
X135372969Y-82698076D01*
X135371889Y-82690795D01*
X135371528Y-82683444D01*
X135371889Y-82676093D01*
X135372969Y-82668812D01*
X135374757Y-82661673D01*
X135377237Y-82654743D01*
X135380384Y-82648089D01*
X135384168Y-82641776D01*
X135388552Y-82635865D01*
X135393495Y-82630411D01*
X136330411Y-81693495D01*
X136335865Y-81688552D01*
X136341776Y-81684168D01*
X136348089Y-81680384D01*
X136354743Y-81677237D01*
X136361673Y-81674757D01*
X136368812Y-81672969D01*
X136376093Y-81671889D01*
X136383444Y-81671528D01*
X136390795Y-81671889D01*
X136390795Y-81671889D01*
G37*
D15*
X135968019Y-82268019D03*
D10*
G36*
X136037242Y-81318336D02*
G01*
X136044523Y-81319416D01*
X136051662Y-81321204D01*
X136058592Y-81323684D01*
X136065246Y-81326831D01*
X136071559Y-81330615D01*
X136077470Y-81334999D01*
X136082924Y-81339942D01*
X136188990Y-81446008D01*
X136193933Y-81451462D01*
X136198317Y-81457373D01*
X136202101Y-81463686D01*
X136205248Y-81470340D01*
X136207728Y-81477270D01*
X136209516Y-81484409D01*
X136210596Y-81491690D01*
X136210957Y-81499041D01*
X136210596Y-81506392D01*
X136209516Y-81513673D01*
X136207728Y-81520812D01*
X136205248Y-81527742D01*
X136202101Y-81534396D01*
X136198317Y-81540709D01*
X136193933Y-81546620D01*
X136188990Y-81552074D01*
X135252074Y-82488990D01*
X135246620Y-82493933D01*
X135240709Y-82498317D01*
X135234396Y-82502101D01*
X135227742Y-82505248D01*
X135220812Y-82507728D01*
X135213673Y-82509516D01*
X135206392Y-82510596D01*
X135199041Y-82510957D01*
X135191690Y-82510596D01*
X135184409Y-82509516D01*
X135177270Y-82507728D01*
X135170340Y-82505248D01*
X135163686Y-82502101D01*
X135157373Y-82498317D01*
X135151462Y-82493933D01*
X135146008Y-82488990D01*
X135039942Y-82382924D01*
X135034999Y-82377470D01*
X135030615Y-82371559D01*
X135026831Y-82365246D01*
X135023684Y-82358592D01*
X135021204Y-82351662D01*
X135019416Y-82344523D01*
X135018336Y-82337242D01*
X135017975Y-82329891D01*
X135018336Y-82322540D01*
X135019416Y-82315259D01*
X135021204Y-82308120D01*
X135023684Y-82301190D01*
X135026831Y-82294536D01*
X135030615Y-82288223D01*
X135034999Y-82282312D01*
X135039942Y-82276858D01*
X135976858Y-81339942D01*
X135982312Y-81334999D01*
X135988223Y-81330615D01*
X135994536Y-81326831D01*
X136001190Y-81323684D01*
X136008120Y-81321204D01*
X136015259Y-81319416D01*
X136022540Y-81318336D01*
X136029891Y-81317975D01*
X136037242Y-81318336D01*
X136037242Y-81318336D01*
G37*
D15*
X135614466Y-81914466D03*
D10*
G36*
X135683688Y-80964782D02*
G01*
X135690969Y-80965862D01*
X135698108Y-80967650D01*
X135705038Y-80970130D01*
X135711692Y-80973277D01*
X135718005Y-80977061D01*
X135723916Y-80981445D01*
X135729370Y-80986388D01*
X135835436Y-81092454D01*
X135840379Y-81097908D01*
X135844763Y-81103819D01*
X135848547Y-81110132D01*
X135851694Y-81116786D01*
X135854174Y-81123716D01*
X135855962Y-81130855D01*
X135857042Y-81138136D01*
X135857403Y-81145487D01*
X135857042Y-81152838D01*
X135855962Y-81160119D01*
X135854174Y-81167258D01*
X135851694Y-81174188D01*
X135848547Y-81180842D01*
X135844763Y-81187155D01*
X135840379Y-81193066D01*
X135835436Y-81198520D01*
X134898520Y-82135436D01*
X134893066Y-82140379D01*
X134887155Y-82144763D01*
X134880842Y-82148547D01*
X134874188Y-82151694D01*
X134867258Y-82154174D01*
X134860119Y-82155962D01*
X134852838Y-82157042D01*
X134845487Y-82157403D01*
X134838136Y-82157042D01*
X134830855Y-82155962D01*
X134823716Y-82154174D01*
X134816786Y-82151694D01*
X134810132Y-82148547D01*
X134803819Y-82144763D01*
X134797908Y-82140379D01*
X134792454Y-82135436D01*
X134686388Y-82029370D01*
X134681445Y-82023916D01*
X134677061Y-82018005D01*
X134673277Y-82011692D01*
X134670130Y-82005038D01*
X134667650Y-81998108D01*
X134665862Y-81990969D01*
X134664782Y-81983688D01*
X134664421Y-81976337D01*
X134664782Y-81968986D01*
X134665862Y-81961705D01*
X134667650Y-81954566D01*
X134670130Y-81947636D01*
X134673277Y-81940982D01*
X134677061Y-81934669D01*
X134681445Y-81928758D01*
X134686388Y-81923304D01*
X135623304Y-80986388D01*
X135628758Y-80981445D01*
X135634669Y-80977061D01*
X135640982Y-80973277D01*
X135647636Y-80970130D01*
X135654566Y-80967650D01*
X135661705Y-80965862D01*
X135668986Y-80964782D01*
X135676337Y-80964421D01*
X135683688Y-80964782D01*
X135683688Y-80964782D01*
G37*
D15*
X135260912Y-81560912D03*
D10*
G36*
X134852838Y-78967206D02*
G01*
X134860119Y-78968286D01*
X134867258Y-78970074D01*
X134874188Y-78972554D01*
X134880842Y-78975701D01*
X134887155Y-78979485D01*
X134893066Y-78983869D01*
X134898520Y-78988812D01*
X135835436Y-79925728D01*
X135840379Y-79931182D01*
X135844763Y-79937093D01*
X135848547Y-79943406D01*
X135851694Y-79950060D01*
X135854174Y-79956990D01*
X135855962Y-79964129D01*
X135857042Y-79971410D01*
X135857403Y-79978761D01*
X135857042Y-79986112D01*
X135855962Y-79993393D01*
X135854174Y-80000532D01*
X135851694Y-80007462D01*
X135848547Y-80014116D01*
X135844763Y-80020429D01*
X135840379Y-80026340D01*
X135835436Y-80031794D01*
X135729370Y-80137860D01*
X135723916Y-80142803D01*
X135718005Y-80147187D01*
X135711692Y-80150971D01*
X135705038Y-80154118D01*
X135698108Y-80156598D01*
X135690969Y-80158386D01*
X135683688Y-80159466D01*
X135676337Y-80159827D01*
X135668986Y-80159466D01*
X135661705Y-80158386D01*
X135654566Y-80156598D01*
X135647636Y-80154118D01*
X135640982Y-80150971D01*
X135634669Y-80147187D01*
X135628758Y-80142803D01*
X135623304Y-80137860D01*
X134686388Y-79200944D01*
X134681445Y-79195490D01*
X134677061Y-79189579D01*
X134673277Y-79183266D01*
X134670130Y-79176612D01*
X134667650Y-79169682D01*
X134665862Y-79162543D01*
X134664782Y-79155262D01*
X134664421Y-79147911D01*
X134664782Y-79140560D01*
X134665862Y-79133279D01*
X134667650Y-79126140D01*
X134670130Y-79119210D01*
X134673277Y-79112556D01*
X134677061Y-79106243D01*
X134681445Y-79100332D01*
X134686388Y-79094878D01*
X134792454Y-78988812D01*
X134797908Y-78983869D01*
X134803819Y-78979485D01*
X134810132Y-78975701D01*
X134816786Y-78972554D01*
X134823716Y-78970074D01*
X134830855Y-78968286D01*
X134838136Y-78967206D01*
X134845487Y-78966845D01*
X134852838Y-78967206D01*
X134852838Y-78967206D01*
G37*
D15*
X135260912Y-79563336D03*
D10*
G36*
X135206392Y-78613652D02*
G01*
X135213673Y-78614732D01*
X135220812Y-78616520D01*
X135227742Y-78619000D01*
X135234396Y-78622147D01*
X135240709Y-78625931D01*
X135246620Y-78630315D01*
X135252074Y-78635258D01*
X136188990Y-79572174D01*
X136193933Y-79577628D01*
X136198317Y-79583539D01*
X136202101Y-79589852D01*
X136205248Y-79596506D01*
X136207728Y-79603436D01*
X136209516Y-79610575D01*
X136210596Y-79617856D01*
X136210957Y-79625207D01*
X136210596Y-79632558D01*
X136209516Y-79639839D01*
X136207728Y-79646978D01*
X136205248Y-79653908D01*
X136202101Y-79660562D01*
X136198317Y-79666875D01*
X136193933Y-79672786D01*
X136188990Y-79678240D01*
X136082924Y-79784306D01*
X136077470Y-79789249D01*
X136071559Y-79793633D01*
X136065246Y-79797417D01*
X136058592Y-79800564D01*
X136051662Y-79803044D01*
X136044523Y-79804832D01*
X136037242Y-79805912D01*
X136029891Y-79806273D01*
X136022540Y-79805912D01*
X136015259Y-79804832D01*
X136008120Y-79803044D01*
X136001190Y-79800564D01*
X135994536Y-79797417D01*
X135988223Y-79793633D01*
X135982312Y-79789249D01*
X135976858Y-79784306D01*
X135039942Y-78847390D01*
X135034999Y-78841936D01*
X135030615Y-78836025D01*
X135026831Y-78829712D01*
X135023684Y-78823058D01*
X135021204Y-78816128D01*
X135019416Y-78808989D01*
X135018336Y-78801708D01*
X135017975Y-78794357D01*
X135018336Y-78787006D01*
X135019416Y-78779725D01*
X135021204Y-78772586D01*
X135023684Y-78765656D01*
X135026831Y-78759002D01*
X135030615Y-78752689D01*
X135034999Y-78746778D01*
X135039942Y-78741324D01*
X135146008Y-78635258D01*
X135151462Y-78630315D01*
X135157373Y-78625931D01*
X135163686Y-78622147D01*
X135170340Y-78619000D01*
X135177270Y-78616520D01*
X135184409Y-78614732D01*
X135191690Y-78613652D01*
X135199041Y-78613291D01*
X135206392Y-78613652D01*
X135206392Y-78613652D01*
G37*
D15*
X135614466Y-79209782D03*
D10*
G36*
X135559945Y-78260099D02*
G01*
X135567226Y-78261179D01*
X135574365Y-78262967D01*
X135581295Y-78265447D01*
X135587949Y-78268594D01*
X135594262Y-78272378D01*
X135600173Y-78276762D01*
X135605627Y-78281705D01*
X136542543Y-79218621D01*
X136547486Y-79224075D01*
X136551870Y-79229986D01*
X136555654Y-79236299D01*
X136558801Y-79242953D01*
X136561281Y-79249883D01*
X136563069Y-79257022D01*
X136564149Y-79264303D01*
X136564510Y-79271654D01*
X136564149Y-79279005D01*
X136563069Y-79286286D01*
X136561281Y-79293425D01*
X136558801Y-79300355D01*
X136555654Y-79307009D01*
X136551870Y-79313322D01*
X136547486Y-79319233D01*
X136542543Y-79324687D01*
X136436477Y-79430753D01*
X136431023Y-79435696D01*
X136425112Y-79440080D01*
X136418799Y-79443864D01*
X136412145Y-79447011D01*
X136405215Y-79449491D01*
X136398076Y-79451279D01*
X136390795Y-79452359D01*
X136383444Y-79452720D01*
X136376093Y-79452359D01*
X136368812Y-79451279D01*
X136361673Y-79449491D01*
X136354743Y-79447011D01*
X136348089Y-79443864D01*
X136341776Y-79440080D01*
X136335865Y-79435696D01*
X136330411Y-79430753D01*
X135393495Y-78493837D01*
X135388552Y-78488383D01*
X135384168Y-78482472D01*
X135380384Y-78476159D01*
X135377237Y-78469505D01*
X135374757Y-78462575D01*
X135372969Y-78455436D01*
X135371889Y-78448155D01*
X135371528Y-78440804D01*
X135371889Y-78433453D01*
X135372969Y-78426172D01*
X135374757Y-78419033D01*
X135377237Y-78412103D01*
X135380384Y-78405449D01*
X135384168Y-78399136D01*
X135388552Y-78393225D01*
X135393495Y-78387771D01*
X135499561Y-78281705D01*
X135505015Y-78276762D01*
X135510926Y-78272378D01*
X135517239Y-78268594D01*
X135523893Y-78265447D01*
X135530823Y-78262967D01*
X135537962Y-78261179D01*
X135545243Y-78260099D01*
X135552594Y-78259738D01*
X135559945Y-78260099D01*
X135559945Y-78260099D01*
G37*
D15*
X135968019Y-78856229D03*
D10*
G36*
X135913499Y-77906545D02*
G01*
X135920780Y-77907625D01*
X135927919Y-77909413D01*
X135934849Y-77911893D01*
X135941503Y-77915040D01*
X135947816Y-77918824D01*
X135953727Y-77923208D01*
X135959181Y-77928151D01*
X136896097Y-78865067D01*
X136901040Y-78870521D01*
X136905424Y-78876432D01*
X136909208Y-78882745D01*
X136912355Y-78889399D01*
X136914835Y-78896329D01*
X136916623Y-78903468D01*
X136917703Y-78910749D01*
X136918064Y-78918100D01*
X136917703Y-78925451D01*
X136916623Y-78932732D01*
X136914835Y-78939871D01*
X136912355Y-78946801D01*
X136909208Y-78953455D01*
X136905424Y-78959768D01*
X136901040Y-78965679D01*
X136896097Y-78971133D01*
X136790031Y-79077199D01*
X136784577Y-79082142D01*
X136778666Y-79086526D01*
X136772353Y-79090310D01*
X136765699Y-79093457D01*
X136758769Y-79095937D01*
X136751630Y-79097725D01*
X136744349Y-79098805D01*
X136736998Y-79099166D01*
X136729647Y-79098805D01*
X136722366Y-79097725D01*
X136715227Y-79095937D01*
X136708297Y-79093457D01*
X136701643Y-79090310D01*
X136695330Y-79086526D01*
X136689419Y-79082142D01*
X136683965Y-79077199D01*
X135747049Y-78140283D01*
X135742106Y-78134829D01*
X135737722Y-78128918D01*
X135733938Y-78122605D01*
X135730791Y-78115951D01*
X135728311Y-78109021D01*
X135726523Y-78101882D01*
X135725443Y-78094601D01*
X135725082Y-78087250D01*
X135725443Y-78079899D01*
X135726523Y-78072618D01*
X135728311Y-78065479D01*
X135730791Y-78058549D01*
X135733938Y-78051895D01*
X135737722Y-78045582D01*
X135742106Y-78039671D01*
X135747049Y-78034217D01*
X135853115Y-77928151D01*
X135858569Y-77923208D01*
X135864480Y-77918824D01*
X135870793Y-77915040D01*
X135877447Y-77911893D01*
X135884377Y-77909413D01*
X135891516Y-77907625D01*
X135898797Y-77906545D01*
X135906148Y-77906184D01*
X135913499Y-77906545D01*
X135913499Y-77906545D01*
G37*
D15*
X136321573Y-78502675D03*
D10*
G36*
X136267052Y-77552992D02*
G01*
X136274333Y-77554072D01*
X136281472Y-77555860D01*
X136288402Y-77558340D01*
X136295056Y-77561487D01*
X136301369Y-77565271D01*
X136307280Y-77569655D01*
X136312734Y-77574598D01*
X137249650Y-78511514D01*
X137254593Y-78516968D01*
X137258977Y-78522879D01*
X137262761Y-78529192D01*
X137265908Y-78535846D01*
X137268388Y-78542776D01*
X137270176Y-78549915D01*
X137271256Y-78557196D01*
X137271617Y-78564547D01*
X137271256Y-78571898D01*
X137270176Y-78579179D01*
X137268388Y-78586318D01*
X137265908Y-78593248D01*
X137262761Y-78599902D01*
X137258977Y-78606215D01*
X137254593Y-78612126D01*
X137249650Y-78617580D01*
X137143584Y-78723646D01*
X137138130Y-78728589D01*
X137132219Y-78732973D01*
X137125906Y-78736757D01*
X137119252Y-78739904D01*
X137112322Y-78742384D01*
X137105183Y-78744172D01*
X137097902Y-78745252D01*
X137090551Y-78745613D01*
X137083200Y-78745252D01*
X137075919Y-78744172D01*
X137068780Y-78742384D01*
X137061850Y-78739904D01*
X137055196Y-78736757D01*
X137048883Y-78732973D01*
X137042972Y-78728589D01*
X137037518Y-78723646D01*
X136100602Y-77786730D01*
X136095659Y-77781276D01*
X136091275Y-77775365D01*
X136087491Y-77769052D01*
X136084344Y-77762398D01*
X136081864Y-77755468D01*
X136080076Y-77748329D01*
X136078996Y-77741048D01*
X136078635Y-77733697D01*
X136078996Y-77726346D01*
X136080076Y-77719065D01*
X136081864Y-77711926D01*
X136084344Y-77704996D01*
X136087491Y-77698342D01*
X136091275Y-77692029D01*
X136095659Y-77686118D01*
X136100602Y-77680664D01*
X136206668Y-77574598D01*
X136212122Y-77569655D01*
X136218033Y-77565271D01*
X136224346Y-77561487D01*
X136231000Y-77558340D01*
X136237930Y-77555860D01*
X136245069Y-77554072D01*
X136252350Y-77552992D01*
X136259701Y-77552631D01*
X136267052Y-77552992D01*
X136267052Y-77552992D01*
G37*
D15*
X136675126Y-78149122D03*
D10*
G36*
X136620605Y-77199439D02*
G01*
X136627886Y-77200519D01*
X136635025Y-77202307D01*
X136641955Y-77204787D01*
X136648609Y-77207934D01*
X136654922Y-77211718D01*
X136660833Y-77216102D01*
X136666287Y-77221045D01*
X137603203Y-78157961D01*
X137608146Y-78163415D01*
X137612530Y-78169326D01*
X137616314Y-78175639D01*
X137619461Y-78182293D01*
X137621941Y-78189223D01*
X137623729Y-78196362D01*
X137624809Y-78203643D01*
X137625170Y-78210994D01*
X137624809Y-78218345D01*
X137623729Y-78225626D01*
X137621941Y-78232765D01*
X137619461Y-78239695D01*
X137616314Y-78246349D01*
X137612530Y-78252662D01*
X137608146Y-78258573D01*
X137603203Y-78264027D01*
X137497137Y-78370093D01*
X137491683Y-78375036D01*
X137485772Y-78379420D01*
X137479459Y-78383204D01*
X137472805Y-78386351D01*
X137465875Y-78388831D01*
X137458736Y-78390619D01*
X137451455Y-78391699D01*
X137444104Y-78392060D01*
X137436753Y-78391699D01*
X137429472Y-78390619D01*
X137422333Y-78388831D01*
X137415403Y-78386351D01*
X137408749Y-78383204D01*
X137402436Y-78379420D01*
X137396525Y-78375036D01*
X137391071Y-78370093D01*
X136454155Y-77433177D01*
X136449212Y-77427723D01*
X136444828Y-77421812D01*
X136441044Y-77415499D01*
X136437897Y-77408845D01*
X136435417Y-77401915D01*
X136433629Y-77394776D01*
X136432549Y-77387495D01*
X136432188Y-77380144D01*
X136432549Y-77372793D01*
X136433629Y-77365512D01*
X136435417Y-77358373D01*
X136437897Y-77351443D01*
X136441044Y-77344789D01*
X136444828Y-77338476D01*
X136449212Y-77332565D01*
X136454155Y-77327111D01*
X136560221Y-77221045D01*
X136565675Y-77216102D01*
X136571586Y-77211718D01*
X136577899Y-77207934D01*
X136584553Y-77204787D01*
X136591483Y-77202307D01*
X136598622Y-77200519D01*
X136605903Y-77199439D01*
X136613254Y-77199078D01*
X136620605Y-77199439D01*
X136620605Y-77199439D01*
G37*
D15*
X137028679Y-77795569D03*
D10*
G36*
X136974159Y-76845885D02*
G01*
X136981440Y-76846965D01*
X136988579Y-76848753D01*
X136995509Y-76851233D01*
X137002163Y-76854380D01*
X137008476Y-76858164D01*
X137014387Y-76862548D01*
X137019841Y-76867491D01*
X137956757Y-77804407D01*
X137961700Y-77809861D01*
X137966084Y-77815772D01*
X137969868Y-77822085D01*
X137973015Y-77828739D01*
X137975495Y-77835669D01*
X137977283Y-77842808D01*
X137978363Y-77850089D01*
X137978724Y-77857440D01*
X137978363Y-77864791D01*
X137977283Y-77872072D01*
X137975495Y-77879211D01*
X137973015Y-77886141D01*
X137969868Y-77892795D01*
X137966084Y-77899108D01*
X137961700Y-77905019D01*
X137956757Y-77910473D01*
X137850691Y-78016539D01*
X137845237Y-78021482D01*
X137839326Y-78025866D01*
X137833013Y-78029650D01*
X137826359Y-78032797D01*
X137819429Y-78035277D01*
X137812290Y-78037065D01*
X137805009Y-78038145D01*
X137797658Y-78038506D01*
X137790307Y-78038145D01*
X137783026Y-78037065D01*
X137775887Y-78035277D01*
X137768957Y-78032797D01*
X137762303Y-78029650D01*
X137755990Y-78025866D01*
X137750079Y-78021482D01*
X137744625Y-78016539D01*
X136807709Y-77079623D01*
X136802766Y-77074169D01*
X136798382Y-77068258D01*
X136794598Y-77061945D01*
X136791451Y-77055291D01*
X136788971Y-77048361D01*
X136787183Y-77041222D01*
X136786103Y-77033941D01*
X136785742Y-77026590D01*
X136786103Y-77019239D01*
X136787183Y-77011958D01*
X136788971Y-77004819D01*
X136791451Y-76997889D01*
X136794598Y-76991235D01*
X136798382Y-76984922D01*
X136802766Y-76979011D01*
X136807709Y-76973557D01*
X136913775Y-76867491D01*
X136919229Y-76862548D01*
X136925140Y-76858164D01*
X136931453Y-76854380D01*
X136938107Y-76851233D01*
X136945037Y-76848753D01*
X136952176Y-76846965D01*
X136959457Y-76845885D01*
X136966808Y-76845524D01*
X136974159Y-76845885D01*
X136974159Y-76845885D01*
G37*
D15*
X137382233Y-77442015D03*
D10*
G36*
X137327712Y-76492332D02*
G01*
X137334993Y-76493412D01*
X137342132Y-76495200D01*
X137349062Y-76497680D01*
X137355716Y-76500827D01*
X137362029Y-76504611D01*
X137367940Y-76508995D01*
X137373394Y-76513938D01*
X138310310Y-77450854D01*
X138315253Y-77456308D01*
X138319637Y-77462219D01*
X138323421Y-77468532D01*
X138326568Y-77475186D01*
X138329048Y-77482116D01*
X138330836Y-77489255D01*
X138331916Y-77496536D01*
X138332277Y-77503887D01*
X138331916Y-77511238D01*
X138330836Y-77518519D01*
X138329048Y-77525658D01*
X138326568Y-77532588D01*
X138323421Y-77539242D01*
X138319637Y-77545555D01*
X138315253Y-77551466D01*
X138310310Y-77556920D01*
X138204244Y-77662986D01*
X138198790Y-77667929D01*
X138192879Y-77672313D01*
X138186566Y-77676097D01*
X138179912Y-77679244D01*
X138172982Y-77681724D01*
X138165843Y-77683512D01*
X138158562Y-77684592D01*
X138151211Y-77684953D01*
X138143860Y-77684592D01*
X138136579Y-77683512D01*
X138129440Y-77681724D01*
X138122510Y-77679244D01*
X138115856Y-77676097D01*
X138109543Y-77672313D01*
X138103632Y-77667929D01*
X138098178Y-77662986D01*
X137161262Y-76726070D01*
X137156319Y-76720616D01*
X137151935Y-76714705D01*
X137148151Y-76708392D01*
X137145004Y-76701738D01*
X137142524Y-76694808D01*
X137140736Y-76687669D01*
X137139656Y-76680388D01*
X137139295Y-76673037D01*
X137139656Y-76665686D01*
X137140736Y-76658405D01*
X137142524Y-76651266D01*
X137145004Y-76644336D01*
X137148151Y-76637682D01*
X137151935Y-76631369D01*
X137156319Y-76625458D01*
X137161262Y-76620004D01*
X137267328Y-76513938D01*
X137272782Y-76508995D01*
X137278693Y-76504611D01*
X137285006Y-76500827D01*
X137291660Y-76497680D01*
X137298590Y-76495200D01*
X137305729Y-76493412D01*
X137313010Y-76492332D01*
X137320361Y-76491971D01*
X137327712Y-76492332D01*
X137327712Y-76492332D01*
G37*
D15*
X137735786Y-77088462D03*
D10*
G36*
X137681265Y-76138779D02*
G01*
X137688546Y-76139859D01*
X137695685Y-76141647D01*
X137702615Y-76144127D01*
X137709269Y-76147274D01*
X137715582Y-76151058D01*
X137721493Y-76155442D01*
X137726947Y-76160385D01*
X138663863Y-77097301D01*
X138668806Y-77102755D01*
X138673190Y-77108666D01*
X138676974Y-77114979D01*
X138680121Y-77121633D01*
X138682601Y-77128563D01*
X138684389Y-77135702D01*
X138685469Y-77142983D01*
X138685830Y-77150334D01*
X138685469Y-77157685D01*
X138684389Y-77164966D01*
X138682601Y-77172105D01*
X138680121Y-77179035D01*
X138676974Y-77185689D01*
X138673190Y-77192002D01*
X138668806Y-77197913D01*
X138663863Y-77203367D01*
X138557797Y-77309433D01*
X138552343Y-77314376D01*
X138546432Y-77318760D01*
X138540119Y-77322544D01*
X138533465Y-77325691D01*
X138526535Y-77328171D01*
X138519396Y-77329959D01*
X138512115Y-77331039D01*
X138504764Y-77331400D01*
X138497413Y-77331039D01*
X138490132Y-77329959D01*
X138482993Y-77328171D01*
X138476063Y-77325691D01*
X138469409Y-77322544D01*
X138463096Y-77318760D01*
X138457185Y-77314376D01*
X138451731Y-77309433D01*
X137514815Y-76372517D01*
X137509872Y-76367063D01*
X137505488Y-76361152D01*
X137501704Y-76354839D01*
X137498557Y-76348185D01*
X137496077Y-76341255D01*
X137494289Y-76334116D01*
X137493209Y-76326835D01*
X137492848Y-76319484D01*
X137493209Y-76312133D01*
X137494289Y-76304852D01*
X137496077Y-76297713D01*
X137498557Y-76290783D01*
X137501704Y-76284129D01*
X137505488Y-76277816D01*
X137509872Y-76271905D01*
X137514815Y-76266451D01*
X137620881Y-76160385D01*
X137626335Y-76155442D01*
X137632246Y-76151058D01*
X137638559Y-76147274D01*
X137645213Y-76144127D01*
X137652143Y-76141647D01*
X137659282Y-76139859D01*
X137666563Y-76138779D01*
X137673914Y-76138418D01*
X137681265Y-76138779D01*
X137681265Y-76138779D01*
G37*
D15*
X138089339Y-76734909D03*
D10*
G36*
X138034819Y-75785225D02*
G01*
X138042100Y-75786305D01*
X138049239Y-75788093D01*
X138056169Y-75790573D01*
X138062823Y-75793720D01*
X138069136Y-75797504D01*
X138075047Y-75801888D01*
X138080501Y-75806831D01*
X139017417Y-76743747D01*
X139022360Y-76749201D01*
X139026744Y-76755112D01*
X139030528Y-76761425D01*
X139033675Y-76768079D01*
X139036155Y-76775009D01*
X139037943Y-76782148D01*
X139039023Y-76789429D01*
X139039384Y-76796780D01*
X139039023Y-76804131D01*
X139037943Y-76811412D01*
X139036155Y-76818551D01*
X139033675Y-76825481D01*
X139030528Y-76832135D01*
X139026744Y-76838448D01*
X139022360Y-76844359D01*
X139017417Y-76849813D01*
X138911351Y-76955879D01*
X138905897Y-76960822D01*
X138899986Y-76965206D01*
X138893673Y-76968990D01*
X138887019Y-76972137D01*
X138880089Y-76974617D01*
X138872950Y-76976405D01*
X138865669Y-76977485D01*
X138858318Y-76977846D01*
X138850967Y-76977485D01*
X138843686Y-76976405D01*
X138836547Y-76974617D01*
X138829617Y-76972137D01*
X138822963Y-76968990D01*
X138816650Y-76965206D01*
X138810739Y-76960822D01*
X138805285Y-76955879D01*
X137868369Y-76018963D01*
X137863426Y-76013509D01*
X137859042Y-76007598D01*
X137855258Y-76001285D01*
X137852111Y-75994631D01*
X137849631Y-75987701D01*
X137847843Y-75980562D01*
X137846763Y-75973281D01*
X137846402Y-75965930D01*
X137846763Y-75958579D01*
X137847843Y-75951298D01*
X137849631Y-75944159D01*
X137852111Y-75937229D01*
X137855258Y-75930575D01*
X137859042Y-75924262D01*
X137863426Y-75918351D01*
X137868369Y-75912897D01*
X137974435Y-75806831D01*
X137979889Y-75801888D01*
X137985800Y-75797504D01*
X137992113Y-75793720D01*
X137998767Y-75790573D01*
X138005697Y-75788093D01*
X138012836Y-75786305D01*
X138020117Y-75785225D01*
X138027468Y-75784864D01*
X138034819Y-75785225D01*
X138034819Y-75785225D01*
G37*
D15*
X138442893Y-76381355D03*
D10*
G36*
X138388372Y-75431672D02*
G01*
X138395653Y-75432752D01*
X138402792Y-75434540D01*
X138409722Y-75437020D01*
X138416376Y-75440167D01*
X138422689Y-75443951D01*
X138428600Y-75448335D01*
X138434054Y-75453278D01*
X139370970Y-76390194D01*
X139375913Y-76395648D01*
X139380297Y-76401559D01*
X139384081Y-76407872D01*
X139387228Y-76414526D01*
X139389708Y-76421456D01*
X139391496Y-76428595D01*
X139392576Y-76435876D01*
X139392937Y-76443227D01*
X139392576Y-76450578D01*
X139391496Y-76457859D01*
X139389708Y-76464998D01*
X139387228Y-76471928D01*
X139384081Y-76478582D01*
X139380297Y-76484895D01*
X139375913Y-76490806D01*
X139370970Y-76496260D01*
X139264904Y-76602326D01*
X139259450Y-76607269D01*
X139253539Y-76611653D01*
X139247226Y-76615437D01*
X139240572Y-76618584D01*
X139233642Y-76621064D01*
X139226503Y-76622852D01*
X139219222Y-76623932D01*
X139211871Y-76624293D01*
X139204520Y-76623932D01*
X139197239Y-76622852D01*
X139190100Y-76621064D01*
X139183170Y-76618584D01*
X139176516Y-76615437D01*
X139170203Y-76611653D01*
X139164292Y-76607269D01*
X139158838Y-76602326D01*
X138221922Y-75665410D01*
X138216979Y-75659956D01*
X138212595Y-75654045D01*
X138208811Y-75647732D01*
X138205664Y-75641078D01*
X138203184Y-75634148D01*
X138201396Y-75627009D01*
X138200316Y-75619728D01*
X138199955Y-75612377D01*
X138200316Y-75605026D01*
X138201396Y-75597745D01*
X138203184Y-75590606D01*
X138205664Y-75583676D01*
X138208811Y-75577022D01*
X138212595Y-75570709D01*
X138216979Y-75564798D01*
X138221922Y-75559344D01*
X138327988Y-75453278D01*
X138333442Y-75448335D01*
X138339353Y-75443951D01*
X138345666Y-75440167D01*
X138352320Y-75437020D01*
X138359250Y-75434540D01*
X138366389Y-75432752D01*
X138373670Y-75431672D01*
X138381021Y-75431311D01*
X138388372Y-75431672D01*
X138388372Y-75431672D01*
G37*
D15*
X138796446Y-76027802D03*
D10*
G36*
X138741926Y-75078118D02*
G01*
X138749207Y-75079198D01*
X138756346Y-75080986D01*
X138763276Y-75083466D01*
X138769930Y-75086613D01*
X138776243Y-75090397D01*
X138782154Y-75094781D01*
X138787608Y-75099724D01*
X139724524Y-76036640D01*
X139729467Y-76042094D01*
X139733851Y-76048005D01*
X139737635Y-76054318D01*
X139740782Y-76060972D01*
X139743262Y-76067902D01*
X139745050Y-76075041D01*
X139746130Y-76082322D01*
X139746491Y-76089673D01*
X139746130Y-76097024D01*
X139745050Y-76104305D01*
X139743262Y-76111444D01*
X139740782Y-76118374D01*
X139737635Y-76125028D01*
X139733851Y-76131341D01*
X139729467Y-76137252D01*
X139724524Y-76142706D01*
X139618458Y-76248772D01*
X139613004Y-76253715D01*
X139607093Y-76258099D01*
X139600780Y-76261883D01*
X139594126Y-76265030D01*
X139587196Y-76267510D01*
X139580057Y-76269298D01*
X139572776Y-76270378D01*
X139565425Y-76270739D01*
X139558074Y-76270378D01*
X139550793Y-76269298D01*
X139543654Y-76267510D01*
X139536724Y-76265030D01*
X139530070Y-76261883D01*
X139523757Y-76258099D01*
X139517846Y-76253715D01*
X139512392Y-76248772D01*
X138575476Y-75311856D01*
X138570533Y-75306402D01*
X138566149Y-75300491D01*
X138562365Y-75294178D01*
X138559218Y-75287524D01*
X138556738Y-75280594D01*
X138554950Y-75273455D01*
X138553870Y-75266174D01*
X138553509Y-75258823D01*
X138553870Y-75251472D01*
X138554950Y-75244191D01*
X138556738Y-75237052D01*
X138559218Y-75230122D01*
X138562365Y-75223468D01*
X138566149Y-75217155D01*
X138570533Y-75211244D01*
X138575476Y-75205790D01*
X138681542Y-75099724D01*
X138686996Y-75094781D01*
X138692907Y-75090397D01*
X138699220Y-75086613D01*
X138705874Y-75083466D01*
X138712804Y-75080986D01*
X138719943Y-75079198D01*
X138727224Y-75078118D01*
X138734575Y-75077757D01*
X138741926Y-75078118D01*
X138741926Y-75078118D01*
G37*
D15*
X139150000Y-75674248D03*
D10*
G36*
X141570352Y-75078118D02*
G01*
X141577633Y-75079198D01*
X141584772Y-75080986D01*
X141591702Y-75083466D01*
X141598356Y-75086613D01*
X141604669Y-75090397D01*
X141610580Y-75094781D01*
X141616034Y-75099724D01*
X141722100Y-75205790D01*
X141727043Y-75211244D01*
X141731427Y-75217155D01*
X141735211Y-75223468D01*
X141738358Y-75230122D01*
X141740838Y-75237052D01*
X141742626Y-75244191D01*
X141743706Y-75251472D01*
X141744067Y-75258823D01*
X141743706Y-75266174D01*
X141742626Y-75273455D01*
X141740838Y-75280594D01*
X141738358Y-75287524D01*
X141735211Y-75294178D01*
X141731427Y-75300491D01*
X141727043Y-75306402D01*
X141722100Y-75311856D01*
X140785184Y-76248772D01*
X140779730Y-76253715D01*
X140773819Y-76258099D01*
X140767506Y-76261883D01*
X140760852Y-76265030D01*
X140753922Y-76267510D01*
X140746783Y-76269298D01*
X140739502Y-76270378D01*
X140732151Y-76270739D01*
X140724800Y-76270378D01*
X140717519Y-76269298D01*
X140710380Y-76267510D01*
X140703450Y-76265030D01*
X140696796Y-76261883D01*
X140690483Y-76258099D01*
X140684572Y-76253715D01*
X140679118Y-76248772D01*
X140573052Y-76142706D01*
X140568109Y-76137252D01*
X140563725Y-76131341D01*
X140559941Y-76125028D01*
X140556794Y-76118374D01*
X140554314Y-76111444D01*
X140552526Y-76104305D01*
X140551446Y-76097024D01*
X140551085Y-76089673D01*
X140551446Y-76082322D01*
X140552526Y-76075041D01*
X140554314Y-76067902D01*
X140556794Y-76060972D01*
X140559941Y-76054318D01*
X140563725Y-76048005D01*
X140568109Y-76042094D01*
X140573052Y-76036640D01*
X141509968Y-75099724D01*
X141515422Y-75094781D01*
X141521333Y-75090397D01*
X141527646Y-75086613D01*
X141534300Y-75083466D01*
X141541230Y-75080986D01*
X141548369Y-75079198D01*
X141555650Y-75078118D01*
X141563001Y-75077757D01*
X141570352Y-75078118D01*
X141570352Y-75078118D01*
G37*
D15*
X141147576Y-75674248D03*
D10*
G36*
X141923906Y-75431672D02*
G01*
X141931187Y-75432752D01*
X141938326Y-75434540D01*
X141945256Y-75437020D01*
X141951910Y-75440167D01*
X141958223Y-75443951D01*
X141964134Y-75448335D01*
X141969588Y-75453278D01*
X142075654Y-75559344D01*
X142080597Y-75564798D01*
X142084981Y-75570709D01*
X142088765Y-75577022D01*
X142091912Y-75583676D01*
X142094392Y-75590606D01*
X142096180Y-75597745D01*
X142097260Y-75605026D01*
X142097621Y-75612377D01*
X142097260Y-75619728D01*
X142096180Y-75627009D01*
X142094392Y-75634148D01*
X142091912Y-75641078D01*
X142088765Y-75647732D01*
X142084981Y-75654045D01*
X142080597Y-75659956D01*
X142075654Y-75665410D01*
X141138738Y-76602326D01*
X141133284Y-76607269D01*
X141127373Y-76611653D01*
X141121060Y-76615437D01*
X141114406Y-76618584D01*
X141107476Y-76621064D01*
X141100337Y-76622852D01*
X141093056Y-76623932D01*
X141085705Y-76624293D01*
X141078354Y-76623932D01*
X141071073Y-76622852D01*
X141063934Y-76621064D01*
X141057004Y-76618584D01*
X141050350Y-76615437D01*
X141044037Y-76611653D01*
X141038126Y-76607269D01*
X141032672Y-76602326D01*
X140926606Y-76496260D01*
X140921663Y-76490806D01*
X140917279Y-76484895D01*
X140913495Y-76478582D01*
X140910348Y-76471928D01*
X140907868Y-76464998D01*
X140906080Y-76457859D01*
X140905000Y-76450578D01*
X140904639Y-76443227D01*
X140905000Y-76435876D01*
X140906080Y-76428595D01*
X140907868Y-76421456D01*
X140910348Y-76414526D01*
X140913495Y-76407872D01*
X140917279Y-76401559D01*
X140921663Y-76395648D01*
X140926606Y-76390194D01*
X141863522Y-75453278D01*
X141868976Y-75448335D01*
X141874887Y-75443951D01*
X141881200Y-75440167D01*
X141887854Y-75437020D01*
X141894784Y-75434540D01*
X141901923Y-75432752D01*
X141909204Y-75431672D01*
X141916555Y-75431311D01*
X141923906Y-75431672D01*
X141923906Y-75431672D01*
G37*
D15*
X141501130Y-76027802D03*
D10*
G36*
X142277459Y-75785225D02*
G01*
X142284740Y-75786305D01*
X142291879Y-75788093D01*
X142298809Y-75790573D01*
X142305463Y-75793720D01*
X142311776Y-75797504D01*
X142317687Y-75801888D01*
X142323141Y-75806831D01*
X142429207Y-75912897D01*
X142434150Y-75918351D01*
X142438534Y-75924262D01*
X142442318Y-75930575D01*
X142445465Y-75937229D01*
X142447945Y-75944159D01*
X142449733Y-75951298D01*
X142450813Y-75958579D01*
X142451174Y-75965930D01*
X142450813Y-75973281D01*
X142449733Y-75980562D01*
X142447945Y-75987701D01*
X142445465Y-75994631D01*
X142442318Y-76001285D01*
X142438534Y-76007598D01*
X142434150Y-76013509D01*
X142429207Y-76018963D01*
X141492291Y-76955879D01*
X141486837Y-76960822D01*
X141480926Y-76965206D01*
X141474613Y-76968990D01*
X141467959Y-76972137D01*
X141461029Y-76974617D01*
X141453890Y-76976405D01*
X141446609Y-76977485D01*
X141439258Y-76977846D01*
X141431907Y-76977485D01*
X141424626Y-76976405D01*
X141417487Y-76974617D01*
X141410557Y-76972137D01*
X141403903Y-76968990D01*
X141397590Y-76965206D01*
X141391679Y-76960822D01*
X141386225Y-76955879D01*
X141280159Y-76849813D01*
X141275216Y-76844359D01*
X141270832Y-76838448D01*
X141267048Y-76832135D01*
X141263901Y-76825481D01*
X141261421Y-76818551D01*
X141259633Y-76811412D01*
X141258553Y-76804131D01*
X141258192Y-76796780D01*
X141258553Y-76789429D01*
X141259633Y-76782148D01*
X141261421Y-76775009D01*
X141263901Y-76768079D01*
X141267048Y-76761425D01*
X141270832Y-76755112D01*
X141275216Y-76749201D01*
X141280159Y-76743747D01*
X142217075Y-75806831D01*
X142222529Y-75801888D01*
X142228440Y-75797504D01*
X142234753Y-75793720D01*
X142241407Y-75790573D01*
X142248337Y-75788093D01*
X142255476Y-75786305D01*
X142262757Y-75785225D01*
X142270108Y-75784864D01*
X142277459Y-75785225D01*
X142277459Y-75785225D01*
G37*
D15*
X141854683Y-76381355D03*
D10*
G36*
X142631013Y-76138779D02*
G01*
X142638294Y-76139859D01*
X142645433Y-76141647D01*
X142652363Y-76144127D01*
X142659017Y-76147274D01*
X142665330Y-76151058D01*
X142671241Y-76155442D01*
X142676695Y-76160385D01*
X142782761Y-76266451D01*
X142787704Y-76271905D01*
X142792088Y-76277816D01*
X142795872Y-76284129D01*
X142799019Y-76290783D01*
X142801499Y-76297713D01*
X142803287Y-76304852D01*
X142804367Y-76312133D01*
X142804728Y-76319484D01*
X142804367Y-76326835D01*
X142803287Y-76334116D01*
X142801499Y-76341255D01*
X142799019Y-76348185D01*
X142795872Y-76354839D01*
X142792088Y-76361152D01*
X142787704Y-76367063D01*
X142782761Y-76372517D01*
X141845845Y-77309433D01*
X141840391Y-77314376D01*
X141834480Y-77318760D01*
X141828167Y-77322544D01*
X141821513Y-77325691D01*
X141814583Y-77328171D01*
X141807444Y-77329959D01*
X141800163Y-77331039D01*
X141792812Y-77331400D01*
X141785461Y-77331039D01*
X141778180Y-77329959D01*
X141771041Y-77328171D01*
X141764111Y-77325691D01*
X141757457Y-77322544D01*
X141751144Y-77318760D01*
X141745233Y-77314376D01*
X141739779Y-77309433D01*
X141633713Y-77203367D01*
X141628770Y-77197913D01*
X141624386Y-77192002D01*
X141620602Y-77185689D01*
X141617455Y-77179035D01*
X141614975Y-77172105D01*
X141613187Y-77164966D01*
X141612107Y-77157685D01*
X141611746Y-77150334D01*
X141612107Y-77142983D01*
X141613187Y-77135702D01*
X141614975Y-77128563D01*
X141617455Y-77121633D01*
X141620602Y-77114979D01*
X141624386Y-77108666D01*
X141628770Y-77102755D01*
X141633713Y-77097301D01*
X142570629Y-76160385D01*
X142576083Y-76155442D01*
X142581994Y-76151058D01*
X142588307Y-76147274D01*
X142594961Y-76144127D01*
X142601891Y-76141647D01*
X142609030Y-76139859D01*
X142616311Y-76138779D01*
X142623662Y-76138418D01*
X142631013Y-76138779D01*
X142631013Y-76138779D01*
G37*
D15*
X142208237Y-76734909D03*
D10*
G36*
X142984566Y-76492332D02*
G01*
X142991847Y-76493412D01*
X142998986Y-76495200D01*
X143005916Y-76497680D01*
X143012570Y-76500827D01*
X143018883Y-76504611D01*
X143024794Y-76508995D01*
X143030248Y-76513938D01*
X143136314Y-76620004D01*
X143141257Y-76625458D01*
X143145641Y-76631369D01*
X143149425Y-76637682D01*
X143152572Y-76644336D01*
X143155052Y-76651266D01*
X143156840Y-76658405D01*
X143157920Y-76665686D01*
X143158281Y-76673037D01*
X143157920Y-76680388D01*
X143156840Y-76687669D01*
X143155052Y-76694808D01*
X143152572Y-76701738D01*
X143149425Y-76708392D01*
X143145641Y-76714705D01*
X143141257Y-76720616D01*
X143136314Y-76726070D01*
X142199398Y-77662986D01*
X142193944Y-77667929D01*
X142188033Y-77672313D01*
X142181720Y-77676097D01*
X142175066Y-77679244D01*
X142168136Y-77681724D01*
X142160997Y-77683512D01*
X142153716Y-77684592D01*
X142146365Y-77684953D01*
X142139014Y-77684592D01*
X142131733Y-77683512D01*
X142124594Y-77681724D01*
X142117664Y-77679244D01*
X142111010Y-77676097D01*
X142104697Y-77672313D01*
X142098786Y-77667929D01*
X142093332Y-77662986D01*
X141987266Y-77556920D01*
X141982323Y-77551466D01*
X141977939Y-77545555D01*
X141974155Y-77539242D01*
X141971008Y-77532588D01*
X141968528Y-77525658D01*
X141966740Y-77518519D01*
X141965660Y-77511238D01*
X141965299Y-77503887D01*
X141965660Y-77496536D01*
X141966740Y-77489255D01*
X141968528Y-77482116D01*
X141971008Y-77475186D01*
X141974155Y-77468532D01*
X141977939Y-77462219D01*
X141982323Y-77456308D01*
X141987266Y-77450854D01*
X142924182Y-76513938D01*
X142929636Y-76508995D01*
X142935547Y-76504611D01*
X142941860Y-76500827D01*
X142948514Y-76497680D01*
X142955444Y-76495200D01*
X142962583Y-76493412D01*
X142969864Y-76492332D01*
X142977215Y-76491971D01*
X142984566Y-76492332D01*
X142984566Y-76492332D01*
G37*
D15*
X142561790Y-77088462D03*
D10*
G36*
X143338119Y-76845885D02*
G01*
X143345400Y-76846965D01*
X143352539Y-76848753D01*
X143359469Y-76851233D01*
X143366123Y-76854380D01*
X143372436Y-76858164D01*
X143378347Y-76862548D01*
X143383801Y-76867491D01*
X143489867Y-76973557D01*
X143494810Y-76979011D01*
X143499194Y-76984922D01*
X143502978Y-76991235D01*
X143506125Y-76997889D01*
X143508605Y-77004819D01*
X143510393Y-77011958D01*
X143511473Y-77019239D01*
X143511834Y-77026590D01*
X143511473Y-77033941D01*
X143510393Y-77041222D01*
X143508605Y-77048361D01*
X143506125Y-77055291D01*
X143502978Y-77061945D01*
X143499194Y-77068258D01*
X143494810Y-77074169D01*
X143489867Y-77079623D01*
X142552951Y-78016539D01*
X142547497Y-78021482D01*
X142541586Y-78025866D01*
X142535273Y-78029650D01*
X142528619Y-78032797D01*
X142521689Y-78035277D01*
X142514550Y-78037065D01*
X142507269Y-78038145D01*
X142499918Y-78038506D01*
X142492567Y-78038145D01*
X142485286Y-78037065D01*
X142478147Y-78035277D01*
X142471217Y-78032797D01*
X142464563Y-78029650D01*
X142458250Y-78025866D01*
X142452339Y-78021482D01*
X142446885Y-78016539D01*
X142340819Y-77910473D01*
X142335876Y-77905019D01*
X142331492Y-77899108D01*
X142327708Y-77892795D01*
X142324561Y-77886141D01*
X142322081Y-77879211D01*
X142320293Y-77872072D01*
X142319213Y-77864791D01*
X142318852Y-77857440D01*
X142319213Y-77850089D01*
X142320293Y-77842808D01*
X142322081Y-77835669D01*
X142324561Y-77828739D01*
X142327708Y-77822085D01*
X142331492Y-77815772D01*
X142335876Y-77809861D01*
X142340819Y-77804407D01*
X143277735Y-76867491D01*
X143283189Y-76862548D01*
X143289100Y-76858164D01*
X143295413Y-76854380D01*
X143302067Y-76851233D01*
X143308997Y-76848753D01*
X143316136Y-76846965D01*
X143323417Y-76845885D01*
X143330768Y-76845524D01*
X143338119Y-76845885D01*
X143338119Y-76845885D01*
G37*
D15*
X142915343Y-77442015D03*
D10*
G36*
X143691673Y-77199439D02*
G01*
X143698954Y-77200519D01*
X143706093Y-77202307D01*
X143713023Y-77204787D01*
X143719677Y-77207934D01*
X143725990Y-77211718D01*
X143731901Y-77216102D01*
X143737355Y-77221045D01*
X143843421Y-77327111D01*
X143848364Y-77332565D01*
X143852748Y-77338476D01*
X143856532Y-77344789D01*
X143859679Y-77351443D01*
X143862159Y-77358373D01*
X143863947Y-77365512D01*
X143865027Y-77372793D01*
X143865388Y-77380144D01*
X143865027Y-77387495D01*
X143863947Y-77394776D01*
X143862159Y-77401915D01*
X143859679Y-77408845D01*
X143856532Y-77415499D01*
X143852748Y-77421812D01*
X143848364Y-77427723D01*
X143843421Y-77433177D01*
X142906505Y-78370093D01*
X142901051Y-78375036D01*
X142895140Y-78379420D01*
X142888827Y-78383204D01*
X142882173Y-78386351D01*
X142875243Y-78388831D01*
X142868104Y-78390619D01*
X142860823Y-78391699D01*
X142853472Y-78392060D01*
X142846121Y-78391699D01*
X142838840Y-78390619D01*
X142831701Y-78388831D01*
X142824771Y-78386351D01*
X142818117Y-78383204D01*
X142811804Y-78379420D01*
X142805893Y-78375036D01*
X142800439Y-78370093D01*
X142694373Y-78264027D01*
X142689430Y-78258573D01*
X142685046Y-78252662D01*
X142681262Y-78246349D01*
X142678115Y-78239695D01*
X142675635Y-78232765D01*
X142673847Y-78225626D01*
X142672767Y-78218345D01*
X142672406Y-78210994D01*
X142672767Y-78203643D01*
X142673847Y-78196362D01*
X142675635Y-78189223D01*
X142678115Y-78182293D01*
X142681262Y-78175639D01*
X142685046Y-78169326D01*
X142689430Y-78163415D01*
X142694373Y-78157961D01*
X143631289Y-77221045D01*
X143636743Y-77216102D01*
X143642654Y-77211718D01*
X143648967Y-77207934D01*
X143655621Y-77204787D01*
X143662551Y-77202307D01*
X143669690Y-77200519D01*
X143676971Y-77199439D01*
X143684322Y-77199078D01*
X143691673Y-77199439D01*
X143691673Y-77199439D01*
G37*
D15*
X143268897Y-77795569D03*
D10*
G36*
X144045226Y-77552992D02*
G01*
X144052507Y-77554072D01*
X144059646Y-77555860D01*
X144066576Y-77558340D01*
X144073230Y-77561487D01*
X144079543Y-77565271D01*
X144085454Y-77569655D01*
X144090908Y-77574598D01*
X144196974Y-77680664D01*
X144201917Y-77686118D01*
X144206301Y-77692029D01*
X144210085Y-77698342D01*
X144213232Y-77704996D01*
X144215712Y-77711926D01*
X144217500Y-77719065D01*
X144218580Y-77726346D01*
X144218941Y-77733697D01*
X144218580Y-77741048D01*
X144217500Y-77748329D01*
X144215712Y-77755468D01*
X144213232Y-77762398D01*
X144210085Y-77769052D01*
X144206301Y-77775365D01*
X144201917Y-77781276D01*
X144196974Y-77786730D01*
X143260058Y-78723646D01*
X143254604Y-78728589D01*
X143248693Y-78732973D01*
X143242380Y-78736757D01*
X143235726Y-78739904D01*
X143228796Y-78742384D01*
X143221657Y-78744172D01*
X143214376Y-78745252D01*
X143207025Y-78745613D01*
X143199674Y-78745252D01*
X143192393Y-78744172D01*
X143185254Y-78742384D01*
X143178324Y-78739904D01*
X143171670Y-78736757D01*
X143165357Y-78732973D01*
X143159446Y-78728589D01*
X143153992Y-78723646D01*
X143047926Y-78617580D01*
X143042983Y-78612126D01*
X143038599Y-78606215D01*
X143034815Y-78599902D01*
X143031668Y-78593248D01*
X143029188Y-78586318D01*
X143027400Y-78579179D01*
X143026320Y-78571898D01*
X143025959Y-78564547D01*
X143026320Y-78557196D01*
X143027400Y-78549915D01*
X143029188Y-78542776D01*
X143031668Y-78535846D01*
X143034815Y-78529192D01*
X143038599Y-78522879D01*
X143042983Y-78516968D01*
X143047926Y-78511514D01*
X143984842Y-77574598D01*
X143990296Y-77569655D01*
X143996207Y-77565271D01*
X144002520Y-77561487D01*
X144009174Y-77558340D01*
X144016104Y-77555860D01*
X144023243Y-77554072D01*
X144030524Y-77552992D01*
X144037875Y-77552631D01*
X144045226Y-77552992D01*
X144045226Y-77552992D01*
G37*
D15*
X143622450Y-78149122D03*
D10*
G36*
X144398779Y-77906545D02*
G01*
X144406060Y-77907625D01*
X144413199Y-77909413D01*
X144420129Y-77911893D01*
X144426783Y-77915040D01*
X144433096Y-77918824D01*
X144439007Y-77923208D01*
X144444461Y-77928151D01*
X144550527Y-78034217D01*
X144555470Y-78039671D01*
X144559854Y-78045582D01*
X144563638Y-78051895D01*
X144566785Y-78058549D01*
X144569265Y-78065479D01*
X144571053Y-78072618D01*
X144572133Y-78079899D01*
X144572494Y-78087250D01*
X144572133Y-78094601D01*
X144571053Y-78101882D01*
X144569265Y-78109021D01*
X144566785Y-78115951D01*
X144563638Y-78122605D01*
X144559854Y-78128918D01*
X144555470Y-78134829D01*
X144550527Y-78140283D01*
X143613611Y-79077199D01*
X143608157Y-79082142D01*
X143602246Y-79086526D01*
X143595933Y-79090310D01*
X143589279Y-79093457D01*
X143582349Y-79095937D01*
X143575210Y-79097725D01*
X143567929Y-79098805D01*
X143560578Y-79099166D01*
X143553227Y-79098805D01*
X143545946Y-79097725D01*
X143538807Y-79095937D01*
X143531877Y-79093457D01*
X143525223Y-79090310D01*
X143518910Y-79086526D01*
X143512999Y-79082142D01*
X143507545Y-79077199D01*
X143401479Y-78971133D01*
X143396536Y-78965679D01*
X143392152Y-78959768D01*
X143388368Y-78953455D01*
X143385221Y-78946801D01*
X143382741Y-78939871D01*
X143380953Y-78932732D01*
X143379873Y-78925451D01*
X143379512Y-78918100D01*
X143379873Y-78910749D01*
X143380953Y-78903468D01*
X143382741Y-78896329D01*
X143385221Y-78889399D01*
X143388368Y-78882745D01*
X143392152Y-78876432D01*
X143396536Y-78870521D01*
X143401479Y-78865067D01*
X144338395Y-77928151D01*
X144343849Y-77923208D01*
X144349760Y-77918824D01*
X144356073Y-77915040D01*
X144362727Y-77911893D01*
X144369657Y-77909413D01*
X144376796Y-77907625D01*
X144384077Y-77906545D01*
X144391428Y-77906184D01*
X144398779Y-77906545D01*
X144398779Y-77906545D01*
G37*
D15*
X143976003Y-78502675D03*
D10*
G36*
X144752333Y-78260099D02*
G01*
X144759614Y-78261179D01*
X144766753Y-78262967D01*
X144773683Y-78265447D01*
X144780337Y-78268594D01*
X144786650Y-78272378D01*
X144792561Y-78276762D01*
X144798015Y-78281705D01*
X144904081Y-78387771D01*
X144909024Y-78393225D01*
X144913408Y-78399136D01*
X144917192Y-78405449D01*
X144920339Y-78412103D01*
X144922819Y-78419033D01*
X144924607Y-78426172D01*
X144925687Y-78433453D01*
X144926048Y-78440804D01*
X144925687Y-78448155D01*
X144924607Y-78455436D01*
X144922819Y-78462575D01*
X144920339Y-78469505D01*
X144917192Y-78476159D01*
X144913408Y-78482472D01*
X144909024Y-78488383D01*
X144904081Y-78493837D01*
X143967165Y-79430753D01*
X143961711Y-79435696D01*
X143955800Y-79440080D01*
X143949487Y-79443864D01*
X143942833Y-79447011D01*
X143935903Y-79449491D01*
X143928764Y-79451279D01*
X143921483Y-79452359D01*
X143914132Y-79452720D01*
X143906781Y-79452359D01*
X143899500Y-79451279D01*
X143892361Y-79449491D01*
X143885431Y-79447011D01*
X143878777Y-79443864D01*
X143872464Y-79440080D01*
X143866553Y-79435696D01*
X143861099Y-79430753D01*
X143755033Y-79324687D01*
X143750090Y-79319233D01*
X143745706Y-79313322D01*
X143741922Y-79307009D01*
X143738775Y-79300355D01*
X143736295Y-79293425D01*
X143734507Y-79286286D01*
X143733427Y-79279005D01*
X143733066Y-79271654D01*
X143733427Y-79264303D01*
X143734507Y-79257022D01*
X143736295Y-79249883D01*
X143738775Y-79242953D01*
X143741922Y-79236299D01*
X143745706Y-79229986D01*
X143750090Y-79224075D01*
X143755033Y-79218621D01*
X144691949Y-78281705D01*
X144697403Y-78276762D01*
X144703314Y-78272378D01*
X144709627Y-78268594D01*
X144716281Y-78265447D01*
X144723211Y-78262967D01*
X144730350Y-78261179D01*
X144737631Y-78260099D01*
X144744982Y-78259738D01*
X144752333Y-78260099D01*
X144752333Y-78260099D01*
G37*
D15*
X144329557Y-78856229D03*
D10*
G36*
X145105886Y-78613652D02*
G01*
X145113167Y-78614732D01*
X145120306Y-78616520D01*
X145127236Y-78619000D01*
X145133890Y-78622147D01*
X145140203Y-78625931D01*
X145146114Y-78630315D01*
X145151568Y-78635258D01*
X145257634Y-78741324D01*
X145262577Y-78746778D01*
X145266961Y-78752689D01*
X145270745Y-78759002D01*
X145273892Y-78765656D01*
X145276372Y-78772586D01*
X145278160Y-78779725D01*
X145279240Y-78787006D01*
X145279601Y-78794357D01*
X145279240Y-78801708D01*
X145278160Y-78808989D01*
X145276372Y-78816128D01*
X145273892Y-78823058D01*
X145270745Y-78829712D01*
X145266961Y-78836025D01*
X145262577Y-78841936D01*
X145257634Y-78847390D01*
X144320718Y-79784306D01*
X144315264Y-79789249D01*
X144309353Y-79793633D01*
X144303040Y-79797417D01*
X144296386Y-79800564D01*
X144289456Y-79803044D01*
X144282317Y-79804832D01*
X144275036Y-79805912D01*
X144267685Y-79806273D01*
X144260334Y-79805912D01*
X144253053Y-79804832D01*
X144245914Y-79803044D01*
X144238984Y-79800564D01*
X144232330Y-79797417D01*
X144226017Y-79793633D01*
X144220106Y-79789249D01*
X144214652Y-79784306D01*
X144108586Y-79678240D01*
X144103643Y-79672786D01*
X144099259Y-79666875D01*
X144095475Y-79660562D01*
X144092328Y-79653908D01*
X144089848Y-79646978D01*
X144088060Y-79639839D01*
X144086980Y-79632558D01*
X144086619Y-79625207D01*
X144086980Y-79617856D01*
X144088060Y-79610575D01*
X144089848Y-79603436D01*
X144092328Y-79596506D01*
X144095475Y-79589852D01*
X144099259Y-79583539D01*
X144103643Y-79577628D01*
X144108586Y-79572174D01*
X145045502Y-78635258D01*
X145050956Y-78630315D01*
X145056867Y-78625931D01*
X145063180Y-78622147D01*
X145069834Y-78619000D01*
X145076764Y-78616520D01*
X145083903Y-78614732D01*
X145091184Y-78613652D01*
X145098535Y-78613291D01*
X145105886Y-78613652D01*
X145105886Y-78613652D01*
G37*
D15*
X144683110Y-79209782D03*
D10*
G36*
X145459440Y-78967206D02*
G01*
X145466721Y-78968286D01*
X145473860Y-78970074D01*
X145480790Y-78972554D01*
X145487444Y-78975701D01*
X145493757Y-78979485D01*
X145499668Y-78983869D01*
X145505122Y-78988812D01*
X145611188Y-79094878D01*
X145616131Y-79100332D01*
X145620515Y-79106243D01*
X145624299Y-79112556D01*
X145627446Y-79119210D01*
X145629926Y-79126140D01*
X145631714Y-79133279D01*
X145632794Y-79140560D01*
X145633155Y-79147911D01*
X145632794Y-79155262D01*
X145631714Y-79162543D01*
X145629926Y-79169682D01*
X145627446Y-79176612D01*
X145624299Y-79183266D01*
X145620515Y-79189579D01*
X145616131Y-79195490D01*
X145611188Y-79200944D01*
X144674272Y-80137860D01*
X144668818Y-80142803D01*
X144662907Y-80147187D01*
X144656594Y-80150971D01*
X144649940Y-80154118D01*
X144643010Y-80156598D01*
X144635871Y-80158386D01*
X144628590Y-80159466D01*
X144621239Y-80159827D01*
X144613888Y-80159466D01*
X144606607Y-80158386D01*
X144599468Y-80156598D01*
X144592538Y-80154118D01*
X144585884Y-80150971D01*
X144579571Y-80147187D01*
X144573660Y-80142803D01*
X144568206Y-80137860D01*
X144462140Y-80031794D01*
X144457197Y-80026340D01*
X144452813Y-80020429D01*
X144449029Y-80014116D01*
X144445882Y-80007462D01*
X144443402Y-80000532D01*
X144441614Y-79993393D01*
X144440534Y-79986112D01*
X144440173Y-79978761D01*
X144440534Y-79971410D01*
X144441614Y-79964129D01*
X144443402Y-79956990D01*
X144445882Y-79950060D01*
X144449029Y-79943406D01*
X144452813Y-79937093D01*
X144457197Y-79931182D01*
X144462140Y-79925728D01*
X145399056Y-78988812D01*
X145404510Y-78983869D01*
X145410421Y-78979485D01*
X145416734Y-78975701D01*
X145423388Y-78972554D01*
X145430318Y-78970074D01*
X145437457Y-78968286D01*
X145444738Y-78967206D01*
X145452089Y-78966845D01*
X145459440Y-78967206D01*
X145459440Y-78967206D01*
G37*
D15*
X145036664Y-79563336D03*
D10*
G36*
X144628590Y-80964782D02*
G01*
X144635871Y-80965862D01*
X144643010Y-80967650D01*
X144649940Y-80970130D01*
X144656594Y-80973277D01*
X144662907Y-80977061D01*
X144668818Y-80981445D01*
X144674272Y-80986388D01*
X145611188Y-81923304D01*
X145616131Y-81928758D01*
X145620515Y-81934669D01*
X145624299Y-81940982D01*
X145627446Y-81947636D01*
X145629926Y-81954566D01*
X145631714Y-81961705D01*
X145632794Y-81968986D01*
X145633155Y-81976337D01*
X145632794Y-81983688D01*
X145631714Y-81990969D01*
X145629926Y-81998108D01*
X145627446Y-82005038D01*
X145624299Y-82011692D01*
X145620515Y-82018005D01*
X145616131Y-82023916D01*
X145611188Y-82029370D01*
X145505122Y-82135436D01*
X145499668Y-82140379D01*
X145493757Y-82144763D01*
X145487444Y-82148547D01*
X145480790Y-82151694D01*
X145473860Y-82154174D01*
X145466721Y-82155962D01*
X145459440Y-82157042D01*
X145452089Y-82157403D01*
X145444738Y-82157042D01*
X145437457Y-82155962D01*
X145430318Y-82154174D01*
X145423388Y-82151694D01*
X145416734Y-82148547D01*
X145410421Y-82144763D01*
X145404510Y-82140379D01*
X145399056Y-82135436D01*
X144462140Y-81198520D01*
X144457197Y-81193066D01*
X144452813Y-81187155D01*
X144449029Y-81180842D01*
X144445882Y-81174188D01*
X144443402Y-81167258D01*
X144441614Y-81160119D01*
X144440534Y-81152838D01*
X144440173Y-81145487D01*
X144440534Y-81138136D01*
X144441614Y-81130855D01*
X144443402Y-81123716D01*
X144445882Y-81116786D01*
X144449029Y-81110132D01*
X144452813Y-81103819D01*
X144457197Y-81097908D01*
X144462140Y-81092454D01*
X144568206Y-80986388D01*
X144573660Y-80981445D01*
X144579571Y-80977061D01*
X144585884Y-80973277D01*
X144592538Y-80970130D01*
X144599468Y-80967650D01*
X144606607Y-80965862D01*
X144613888Y-80964782D01*
X144621239Y-80964421D01*
X144628590Y-80964782D01*
X144628590Y-80964782D01*
G37*
D15*
X145036664Y-81560912D03*
D10*
G36*
X144275036Y-81318336D02*
G01*
X144282317Y-81319416D01*
X144289456Y-81321204D01*
X144296386Y-81323684D01*
X144303040Y-81326831D01*
X144309353Y-81330615D01*
X144315264Y-81334999D01*
X144320718Y-81339942D01*
X145257634Y-82276858D01*
X145262577Y-82282312D01*
X145266961Y-82288223D01*
X145270745Y-82294536D01*
X145273892Y-82301190D01*
X145276372Y-82308120D01*
X145278160Y-82315259D01*
X145279240Y-82322540D01*
X145279601Y-82329891D01*
X145279240Y-82337242D01*
X145278160Y-82344523D01*
X145276372Y-82351662D01*
X145273892Y-82358592D01*
X145270745Y-82365246D01*
X145266961Y-82371559D01*
X145262577Y-82377470D01*
X145257634Y-82382924D01*
X145151568Y-82488990D01*
X145146114Y-82493933D01*
X145140203Y-82498317D01*
X145133890Y-82502101D01*
X145127236Y-82505248D01*
X145120306Y-82507728D01*
X145113167Y-82509516D01*
X145105886Y-82510596D01*
X145098535Y-82510957D01*
X145091184Y-82510596D01*
X145083903Y-82509516D01*
X145076764Y-82507728D01*
X145069834Y-82505248D01*
X145063180Y-82502101D01*
X145056867Y-82498317D01*
X145050956Y-82493933D01*
X145045502Y-82488990D01*
X144108586Y-81552074D01*
X144103643Y-81546620D01*
X144099259Y-81540709D01*
X144095475Y-81534396D01*
X144092328Y-81527742D01*
X144089848Y-81520812D01*
X144088060Y-81513673D01*
X144086980Y-81506392D01*
X144086619Y-81499041D01*
X144086980Y-81491690D01*
X144088060Y-81484409D01*
X144089848Y-81477270D01*
X144092328Y-81470340D01*
X144095475Y-81463686D01*
X144099259Y-81457373D01*
X144103643Y-81451462D01*
X144108586Y-81446008D01*
X144214652Y-81339942D01*
X144220106Y-81334999D01*
X144226017Y-81330615D01*
X144232330Y-81326831D01*
X144238984Y-81323684D01*
X144245914Y-81321204D01*
X144253053Y-81319416D01*
X144260334Y-81318336D01*
X144267685Y-81317975D01*
X144275036Y-81318336D01*
X144275036Y-81318336D01*
G37*
D15*
X144683110Y-81914466D03*
D10*
G36*
X143921483Y-81671889D02*
G01*
X143928764Y-81672969D01*
X143935903Y-81674757D01*
X143942833Y-81677237D01*
X143949487Y-81680384D01*
X143955800Y-81684168D01*
X143961711Y-81688552D01*
X143967165Y-81693495D01*
X144904081Y-82630411D01*
X144909024Y-82635865D01*
X144913408Y-82641776D01*
X144917192Y-82648089D01*
X144920339Y-82654743D01*
X144922819Y-82661673D01*
X144924607Y-82668812D01*
X144925687Y-82676093D01*
X144926048Y-82683444D01*
X144925687Y-82690795D01*
X144924607Y-82698076D01*
X144922819Y-82705215D01*
X144920339Y-82712145D01*
X144917192Y-82718799D01*
X144913408Y-82725112D01*
X144909024Y-82731023D01*
X144904081Y-82736477D01*
X144798015Y-82842543D01*
X144792561Y-82847486D01*
X144786650Y-82851870D01*
X144780337Y-82855654D01*
X144773683Y-82858801D01*
X144766753Y-82861281D01*
X144759614Y-82863069D01*
X144752333Y-82864149D01*
X144744982Y-82864510D01*
X144737631Y-82864149D01*
X144730350Y-82863069D01*
X144723211Y-82861281D01*
X144716281Y-82858801D01*
X144709627Y-82855654D01*
X144703314Y-82851870D01*
X144697403Y-82847486D01*
X144691949Y-82842543D01*
X143755033Y-81905627D01*
X143750090Y-81900173D01*
X143745706Y-81894262D01*
X143741922Y-81887949D01*
X143738775Y-81881295D01*
X143736295Y-81874365D01*
X143734507Y-81867226D01*
X143733427Y-81859945D01*
X143733066Y-81852594D01*
X143733427Y-81845243D01*
X143734507Y-81837962D01*
X143736295Y-81830823D01*
X143738775Y-81823893D01*
X143741922Y-81817239D01*
X143745706Y-81810926D01*
X143750090Y-81805015D01*
X143755033Y-81799561D01*
X143861099Y-81693495D01*
X143866553Y-81688552D01*
X143872464Y-81684168D01*
X143878777Y-81680384D01*
X143885431Y-81677237D01*
X143892361Y-81674757D01*
X143899500Y-81672969D01*
X143906781Y-81671889D01*
X143914132Y-81671528D01*
X143921483Y-81671889D01*
X143921483Y-81671889D01*
G37*
D15*
X144329557Y-82268019D03*
D10*
G36*
X143567929Y-82025443D02*
G01*
X143575210Y-82026523D01*
X143582349Y-82028311D01*
X143589279Y-82030791D01*
X143595933Y-82033938D01*
X143602246Y-82037722D01*
X143608157Y-82042106D01*
X143613611Y-82047049D01*
X144550527Y-82983965D01*
X144555470Y-82989419D01*
X144559854Y-82995330D01*
X144563638Y-83001643D01*
X144566785Y-83008297D01*
X144569265Y-83015227D01*
X144571053Y-83022366D01*
X144572133Y-83029647D01*
X144572494Y-83036998D01*
X144572133Y-83044349D01*
X144571053Y-83051630D01*
X144569265Y-83058769D01*
X144566785Y-83065699D01*
X144563638Y-83072353D01*
X144559854Y-83078666D01*
X144555470Y-83084577D01*
X144550527Y-83090031D01*
X144444461Y-83196097D01*
X144439007Y-83201040D01*
X144433096Y-83205424D01*
X144426783Y-83209208D01*
X144420129Y-83212355D01*
X144413199Y-83214835D01*
X144406060Y-83216623D01*
X144398779Y-83217703D01*
X144391428Y-83218064D01*
X144384077Y-83217703D01*
X144376796Y-83216623D01*
X144369657Y-83214835D01*
X144362727Y-83212355D01*
X144356073Y-83209208D01*
X144349760Y-83205424D01*
X144343849Y-83201040D01*
X144338395Y-83196097D01*
X143401479Y-82259181D01*
X143396536Y-82253727D01*
X143392152Y-82247816D01*
X143388368Y-82241503D01*
X143385221Y-82234849D01*
X143382741Y-82227919D01*
X143380953Y-82220780D01*
X143379873Y-82213499D01*
X143379512Y-82206148D01*
X143379873Y-82198797D01*
X143380953Y-82191516D01*
X143382741Y-82184377D01*
X143385221Y-82177447D01*
X143388368Y-82170793D01*
X143392152Y-82164480D01*
X143396536Y-82158569D01*
X143401479Y-82153115D01*
X143507545Y-82047049D01*
X143512999Y-82042106D01*
X143518910Y-82037722D01*
X143525223Y-82033938D01*
X143531877Y-82030791D01*
X143538807Y-82028311D01*
X143545946Y-82026523D01*
X143553227Y-82025443D01*
X143560578Y-82025082D01*
X143567929Y-82025443D01*
X143567929Y-82025443D01*
G37*
D15*
X143976003Y-82621573D03*
D10*
G36*
X143214376Y-82378996D02*
G01*
X143221657Y-82380076D01*
X143228796Y-82381864D01*
X143235726Y-82384344D01*
X143242380Y-82387491D01*
X143248693Y-82391275D01*
X143254604Y-82395659D01*
X143260058Y-82400602D01*
X144196974Y-83337518D01*
X144201917Y-83342972D01*
X144206301Y-83348883D01*
X144210085Y-83355196D01*
X144213232Y-83361850D01*
X144215712Y-83368780D01*
X144217500Y-83375919D01*
X144218580Y-83383200D01*
X144218941Y-83390551D01*
X144218580Y-83397902D01*
X144217500Y-83405183D01*
X144215712Y-83412322D01*
X144213232Y-83419252D01*
X144210085Y-83425906D01*
X144206301Y-83432219D01*
X144201917Y-83438130D01*
X144196974Y-83443584D01*
X144090908Y-83549650D01*
X144085454Y-83554593D01*
X144079543Y-83558977D01*
X144073230Y-83562761D01*
X144066576Y-83565908D01*
X144059646Y-83568388D01*
X144052507Y-83570176D01*
X144045226Y-83571256D01*
X144037875Y-83571617D01*
X144030524Y-83571256D01*
X144023243Y-83570176D01*
X144016104Y-83568388D01*
X144009174Y-83565908D01*
X144002520Y-83562761D01*
X143996207Y-83558977D01*
X143990296Y-83554593D01*
X143984842Y-83549650D01*
X143047926Y-82612734D01*
X143042983Y-82607280D01*
X143038599Y-82601369D01*
X143034815Y-82595056D01*
X143031668Y-82588402D01*
X143029188Y-82581472D01*
X143027400Y-82574333D01*
X143026320Y-82567052D01*
X143025959Y-82559701D01*
X143026320Y-82552350D01*
X143027400Y-82545069D01*
X143029188Y-82537930D01*
X143031668Y-82531000D01*
X143034815Y-82524346D01*
X143038599Y-82518033D01*
X143042983Y-82512122D01*
X143047926Y-82506668D01*
X143153992Y-82400602D01*
X143159446Y-82395659D01*
X143165357Y-82391275D01*
X143171670Y-82387491D01*
X143178324Y-82384344D01*
X143185254Y-82381864D01*
X143192393Y-82380076D01*
X143199674Y-82378996D01*
X143207025Y-82378635D01*
X143214376Y-82378996D01*
X143214376Y-82378996D01*
G37*
D15*
X143622450Y-82975126D03*
D10*
G36*
X142860823Y-82732549D02*
G01*
X142868104Y-82733629D01*
X142875243Y-82735417D01*
X142882173Y-82737897D01*
X142888827Y-82741044D01*
X142895140Y-82744828D01*
X142901051Y-82749212D01*
X142906505Y-82754155D01*
X143843421Y-83691071D01*
X143848364Y-83696525D01*
X143852748Y-83702436D01*
X143856532Y-83708749D01*
X143859679Y-83715403D01*
X143862159Y-83722333D01*
X143863947Y-83729472D01*
X143865027Y-83736753D01*
X143865388Y-83744104D01*
X143865027Y-83751455D01*
X143863947Y-83758736D01*
X143862159Y-83765875D01*
X143859679Y-83772805D01*
X143856532Y-83779459D01*
X143852748Y-83785772D01*
X143848364Y-83791683D01*
X143843421Y-83797137D01*
X143737355Y-83903203D01*
X143731901Y-83908146D01*
X143725990Y-83912530D01*
X143719677Y-83916314D01*
X143713023Y-83919461D01*
X143706093Y-83921941D01*
X143698954Y-83923729D01*
X143691673Y-83924809D01*
X143684322Y-83925170D01*
X143676971Y-83924809D01*
X143669690Y-83923729D01*
X143662551Y-83921941D01*
X143655621Y-83919461D01*
X143648967Y-83916314D01*
X143642654Y-83912530D01*
X143636743Y-83908146D01*
X143631289Y-83903203D01*
X142694373Y-82966287D01*
X142689430Y-82960833D01*
X142685046Y-82954922D01*
X142681262Y-82948609D01*
X142678115Y-82941955D01*
X142675635Y-82935025D01*
X142673847Y-82927886D01*
X142672767Y-82920605D01*
X142672406Y-82913254D01*
X142672767Y-82905903D01*
X142673847Y-82898622D01*
X142675635Y-82891483D01*
X142678115Y-82884553D01*
X142681262Y-82877899D01*
X142685046Y-82871586D01*
X142689430Y-82865675D01*
X142694373Y-82860221D01*
X142800439Y-82754155D01*
X142805893Y-82749212D01*
X142811804Y-82744828D01*
X142818117Y-82741044D01*
X142824771Y-82737897D01*
X142831701Y-82735417D01*
X142838840Y-82733629D01*
X142846121Y-82732549D01*
X142853472Y-82732188D01*
X142860823Y-82732549D01*
X142860823Y-82732549D01*
G37*
D15*
X143268897Y-83328679D03*
D10*
G36*
X142507269Y-83086103D02*
G01*
X142514550Y-83087183D01*
X142521689Y-83088971D01*
X142528619Y-83091451D01*
X142535273Y-83094598D01*
X142541586Y-83098382D01*
X142547497Y-83102766D01*
X142552951Y-83107709D01*
X143489867Y-84044625D01*
X143494810Y-84050079D01*
X143499194Y-84055990D01*
X143502978Y-84062303D01*
X143506125Y-84068957D01*
X143508605Y-84075887D01*
X143510393Y-84083026D01*
X143511473Y-84090307D01*
X143511834Y-84097658D01*
X143511473Y-84105009D01*
X143510393Y-84112290D01*
X143508605Y-84119429D01*
X143506125Y-84126359D01*
X143502978Y-84133013D01*
X143499194Y-84139326D01*
X143494810Y-84145237D01*
X143489867Y-84150691D01*
X143383801Y-84256757D01*
X143378347Y-84261700D01*
X143372436Y-84266084D01*
X143366123Y-84269868D01*
X143359469Y-84273015D01*
X143352539Y-84275495D01*
X143345400Y-84277283D01*
X143338119Y-84278363D01*
X143330768Y-84278724D01*
X143323417Y-84278363D01*
X143316136Y-84277283D01*
X143308997Y-84275495D01*
X143302067Y-84273015D01*
X143295413Y-84269868D01*
X143289100Y-84266084D01*
X143283189Y-84261700D01*
X143277735Y-84256757D01*
X142340819Y-83319841D01*
X142335876Y-83314387D01*
X142331492Y-83308476D01*
X142327708Y-83302163D01*
X142324561Y-83295509D01*
X142322081Y-83288579D01*
X142320293Y-83281440D01*
X142319213Y-83274159D01*
X142318852Y-83266808D01*
X142319213Y-83259457D01*
X142320293Y-83252176D01*
X142322081Y-83245037D01*
X142324561Y-83238107D01*
X142327708Y-83231453D01*
X142331492Y-83225140D01*
X142335876Y-83219229D01*
X142340819Y-83213775D01*
X142446885Y-83107709D01*
X142452339Y-83102766D01*
X142458250Y-83098382D01*
X142464563Y-83094598D01*
X142471217Y-83091451D01*
X142478147Y-83088971D01*
X142485286Y-83087183D01*
X142492567Y-83086103D01*
X142499918Y-83085742D01*
X142507269Y-83086103D01*
X142507269Y-83086103D01*
G37*
D15*
X142915343Y-83682233D03*
D10*
G36*
X142153716Y-83439656D02*
G01*
X142160997Y-83440736D01*
X142168136Y-83442524D01*
X142175066Y-83445004D01*
X142181720Y-83448151D01*
X142188033Y-83451935D01*
X142193944Y-83456319D01*
X142199398Y-83461262D01*
X143136314Y-84398178D01*
X143141257Y-84403632D01*
X143145641Y-84409543D01*
X143149425Y-84415856D01*
X143152572Y-84422510D01*
X143155052Y-84429440D01*
X143156840Y-84436579D01*
X143157920Y-84443860D01*
X143158281Y-84451211D01*
X143157920Y-84458562D01*
X143156840Y-84465843D01*
X143155052Y-84472982D01*
X143152572Y-84479912D01*
X143149425Y-84486566D01*
X143145641Y-84492879D01*
X143141257Y-84498790D01*
X143136314Y-84504244D01*
X143030248Y-84610310D01*
X143024794Y-84615253D01*
X143018883Y-84619637D01*
X143012570Y-84623421D01*
X143005916Y-84626568D01*
X142998986Y-84629048D01*
X142991847Y-84630836D01*
X142984566Y-84631916D01*
X142977215Y-84632277D01*
X142969864Y-84631916D01*
X142962583Y-84630836D01*
X142955444Y-84629048D01*
X142948514Y-84626568D01*
X142941860Y-84623421D01*
X142935547Y-84619637D01*
X142929636Y-84615253D01*
X142924182Y-84610310D01*
X141987266Y-83673394D01*
X141982323Y-83667940D01*
X141977939Y-83662029D01*
X141974155Y-83655716D01*
X141971008Y-83649062D01*
X141968528Y-83642132D01*
X141966740Y-83634993D01*
X141965660Y-83627712D01*
X141965299Y-83620361D01*
X141965660Y-83613010D01*
X141966740Y-83605729D01*
X141968528Y-83598590D01*
X141971008Y-83591660D01*
X141974155Y-83585006D01*
X141977939Y-83578693D01*
X141982323Y-83572782D01*
X141987266Y-83567328D01*
X142093332Y-83461262D01*
X142098786Y-83456319D01*
X142104697Y-83451935D01*
X142111010Y-83448151D01*
X142117664Y-83445004D01*
X142124594Y-83442524D01*
X142131733Y-83440736D01*
X142139014Y-83439656D01*
X142146365Y-83439295D01*
X142153716Y-83439656D01*
X142153716Y-83439656D01*
G37*
D15*
X142561790Y-84035786D03*
D10*
G36*
X141800163Y-83793209D02*
G01*
X141807444Y-83794289D01*
X141814583Y-83796077D01*
X141821513Y-83798557D01*
X141828167Y-83801704D01*
X141834480Y-83805488D01*
X141840391Y-83809872D01*
X141845845Y-83814815D01*
X142782761Y-84751731D01*
X142787704Y-84757185D01*
X142792088Y-84763096D01*
X142795872Y-84769409D01*
X142799019Y-84776063D01*
X142801499Y-84782993D01*
X142803287Y-84790132D01*
X142804367Y-84797413D01*
X142804728Y-84804764D01*
X142804367Y-84812115D01*
X142803287Y-84819396D01*
X142801499Y-84826535D01*
X142799019Y-84833465D01*
X142795872Y-84840119D01*
X142792088Y-84846432D01*
X142787704Y-84852343D01*
X142782761Y-84857797D01*
X142676695Y-84963863D01*
X142671241Y-84968806D01*
X142665330Y-84973190D01*
X142659017Y-84976974D01*
X142652363Y-84980121D01*
X142645433Y-84982601D01*
X142638294Y-84984389D01*
X142631013Y-84985469D01*
X142623662Y-84985830D01*
X142616311Y-84985469D01*
X142609030Y-84984389D01*
X142601891Y-84982601D01*
X142594961Y-84980121D01*
X142588307Y-84976974D01*
X142581994Y-84973190D01*
X142576083Y-84968806D01*
X142570629Y-84963863D01*
X141633713Y-84026947D01*
X141628770Y-84021493D01*
X141624386Y-84015582D01*
X141620602Y-84009269D01*
X141617455Y-84002615D01*
X141614975Y-83995685D01*
X141613187Y-83988546D01*
X141612107Y-83981265D01*
X141611746Y-83973914D01*
X141612107Y-83966563D01*
X141613187Y-83959282D01*
X141614975Y-83952143D01*
X141617455Y-83945213D01*
X141620602Y-83938559D01*
X141624386Y-83932246D01*
X141628770Y-83926335D01*
X141633713Y-83920881D01*
X141739779Y-83814815D01*
X141745233Y-83809872D01*
X141751144Y-83805488D01*
X141757457Y-83801704D01*
X141764111Y-83798557D01*
X141771041Y-83796077D01*
X141778180Y-83794289D01*
X141785461Y-83793209D01*
X141792812Y-83792848D01*
X141800163Y-83793209D01*
X141800163Y-83793209D01*
G37*
D15*
X142208237Y-84389339D03*
D10*
G36*
X141446609Y-84146763D02*
G01*
X141453890Y-84147843D01*
X141461029Y-84149631D01*
X141467959Y-84152111D01*
X141474613Y-84155258D01*
X141480926Y-84159042D01*
X141486837Y-84163426D01*
X141492291Y-84168369D01*
X142429207Y-85105285D01*
X142434150Y-85110739D01*
X142438534Y-85116650D01*
X142442318Y-85122963D01*
X142445465Y-85129617D01*
X142447945Y-85136547D01*
X142449733Y-85143686D01*
X142450813Y-85150967D01*
X142451174Y-85158318D01*
X142450813Y-85165669D01*
X142449733Y-85172950D01*
X142447945Y-85180089D01*
X142445465Y-85187019D01*
X142442318Y-85193673D01*
X142438534Y-85199986D01*
X142434150Y-85205897D01*
X142429207Y-85211351D01*
X142323141Y-85317417D01*
X142317687Y-85322360D01*
X142311776Y-85326744D01*
X142305463Y-85330528D01*
X142298809Y-85333675D01*
X142291879Y-85336155D01*
X142284740Y-85337943D01*
X142277459Y-85339023D01*
X142270108Y-85339384D01*
X142262757Y-85339023D01*
X142255476Y-85337943D01*
X142248337Y-85336155D01*
X142241407Y-85333675D01*
X142234753Y-85330528D01*
X142228440Y-85326744D01*
X142222529Y-85322360D01*
X142217075Y-85317417D01*
X141280159Y-84380501D01*
X141275216Y-84375047D01*
X141270832Y-84369136D01*
X141267048Y-84362823D01*
X141263901Y-84356169D01*
X141261421Y-84349239D01*
X141259633Y-84342100D01*
X141258553Y-84334819D01*
X141258192Y-84327468D01*
X141258553Y-84320117D01*
X141259633Y-84312836D01*
X141261421Y-84305697D01*
X141263901Y-84298767D01*
X141267048Y-84292113D01*
X141270832Y-84285800D01*
X141275216Y-84279889D01*
X141280159Y-84274435D01*
X141386225Y-84168369D01*
X141391679Y-84163426D01*
X141397590Y-84159042D01*
X141403903Y-84155258D01*
X141410557Y-84152111D01*
X141417487Y-84149631D01*
X141424626Y-84147843D01*
X141431907Y-84146763D01*
X141439258Y-84146402D01*
X141446609Y-84146763D01*
X141446609Y-84146763D01*
G37*
D15*
X141854683Y-84742893D03*
D10*
G36*
X141093056Y-84500316D02*
G01*
X141100337Y-84501396D01*
X141107476Y-84503184D01*
X141114406Y-84505664D01*
X141121060Y-84508811D01*
X141127373Y-84512595D01*
X141133284Y-84516979D01*
X141138738Y-84521922D01*
X142075654Y-85458838D01*
X142080597Y-85464292D01*
X142084981Y-85470203D01*
X142088765Y-85476516D01*
X142091912Y-85483170D01*
X142094392Y-85490100D01*
X142096180Y-85497239D01*
X142097260Y-85504520D01*
X142097621Y-85511871D01*
X142097260Y-85519222D01*
X142096180Y-85526503D01*
X142094392Y-85533642D01*
X142091912Y-85540572D01*
X142088765Y-85547226D01*
X142084981Y-85553539D01*
X142080597Y-85559450D01*
X142075654Y-85564904D01*
X141969588Y-85670970D01*
X141964134Y-85675913D01*
X141958223Y-85680297D01*
X141951910Y-85684081D01*
X141945256Y-85687228D01*
X141938326Y-85689708D01*
X141931187Y-85691496D01*
X141923906Y-85692576D01*
X141916555Y-85692937D01*
X141909204Y-85692576D01*
X141901923Y-85691496D01*
X141894784Y-85689708D01*
X141887854Y-85687228D01*
X141881200Y-85684081D01*
X141874887Y-85680297D01*
X141868976Y-85675913D01*
X141863522Y-85670970D01*
X140926606Y-84734054D01*
X140921663Y-84728600D01*
X140917279Y-84722689D01*
X140913495Y-84716376D01*
X140910348Y-84709722D01*
X140907868Y-84702792D01*
X140906080Y-84695653D01*
X140905000Y-84688372D01*
X140904639Y-84681021D01*
X140905000Y-84673670D01*
X140906080Y-84666389D01*
X140907868Y-84659250D01*
X140910348Y-84652320D01*
X140913495Y-84645666D01*
X140917279Y-84639353D01*
X140921663Y-84633442D01*
X140926606Y-84627988D01*
X141032672Y-84521922D01*
X141038126Y-84516979D01*
X141044037Y-84512595D01*
X141050350Y-84508811D01*
X141057004Y-84505664D01*
X141063934Y-84503184D01*
X141071073Y-84501396D01*
X141078354Y-84500316D01*
X141085705Y-84499955D01*
X141093056Y-84500316D01*
X141093056Y-84500316D01*
G37*
D15*
X141501130Y-85096446D03*
D10*
G36*
X140739502Y-84853870D02*
G01*
X140746783Y-84854950D01*
X140753922Y-84856738D01*
X140760852Y-84859218D01*
X140767506Y-84862365D01*
X140773819Y-84866149D01*
X140779730Y-84870533D01*
X140785184Y-84875476D01*
X141722100Y-85812392D01*
X141727043Y-85817846D01*
X141731427Y-85823757D01*
X141735211Y-85830070D01*
X141738358Y-85836724D01*
X141740838Y-85843654D01*
X141742626Y-85850793D01*
X141743706Y-85858074D01*
X141744067Y-85865425D01*
X141743706Y-85872776D01*
X141742626Y-85880057D01*
X141740838Y-85887196D01*
X141738358Y-85894126D01*
X141735211Y-85900780D01*
X141731427Y-85907093D01*
X141727043Y-85913004D01*
X141722100Y-85918458D01*
X141616034Y-86024524D01*
X141610580Y-86029467D01*
X141604669Y-86033851D01*
X141598356Y-86037635D01*
X141591702Y-86040782D01*
X141584772Y-86043262D01*
X141577633Y-86045050D01*
X141570352Y-86046130D01*
X141563001Y-86046491D01*
X141555650Y-86046130D01*
X141548369Y-86045050D01*
X141541230Y-86043262D01*
X141534300Y-86040782D01*
X141527646Y-86037635D01*
X141521333Y-86033851D01*
X141515422Y-86029467D01*
X141509968Y-86024524D01*
X140573052Y-85087608D01*
X140568109Y-85082154D01*
X140563725Y-85076243D01*
X140559941Y-85069930D01*
X140556794Y-85063276D01*
X140554314Y-85056346D01*
X140552526Y-85049207D01*
X140551446Y-85041926D01*
X140551085Y-85034575D01*
X140551446Y-85027224D01*
X140552526Y-85019943D01*
X140554314Y-85012804D01*
X140556794Y-85005874D01*
X140559941Y-84999220D01*
X140563725Y-84992907D01*
X140568109Y-84986996D01*
X140573052Y-84981542D01*
X140679118Y-84875476D01*
X140684572Y-84870533D01*
X140690483Y-84866149D01*
X140696796Y-84862365D01*
X140703450Y-84859218D01*
X140710380Y-84856738D01*
X140717519Y-84854950D01*
X140724800Y-84853870D01*
X140732151Y-84853509D01*
X140739502Y-84853870D01*
X140739502Y-84853870D01*
G37*
D15*
X141147576Y-85450000D03*
D16*
X135735060Y-99513620D03*
X135735060Y-98113620D03*
D10*
G36*
X140690191Y-97576053D02*
G01*
X140711426Y-97579203D01*
X140732250Y-97584419D01*
X140752462Y-97591651D01*
X140771868Y-97600830D01*
X140790281Y-97611866D01*
X140807524Y-97624654D01*
X140823430Y-97639070D01*
X140837846Y-97654976D01*
X140850634Y-97672219D01*
X140861670Y-97690632D01*
X140870849Y-97710038D01*
X140878081Y-97730250D01*
X140883297Y-97751074D01*
X140886447Y-97772309D01*
X140887500Y-97793750D01*
X140887500Y-98306250D01*
X140886447Y-98327691D01*
X140883297Y-98348926D01*
X140878081Y-98369750D01*
X140870849Y-98389962D01*
X140861670Y-98409368D01*
X140850634Y-98427781D01*
X140837846Y-98445024D01*
X140823430Y-98460930D01*
X140807524Y-98475346D01*
X140790281Y-98488134D01*
X140771868Y-98499170D01*
X140752462Y-98508349D01*
X140732250Y-98515581D01*
X140711426Y-98520797D01*
X140690191Y-98523947D01*
X140668750Y-98525000D01*
X140231250Y-98525000D01*
X140209809Y-98523947D01*
X140188574Y-98520797D01*
X140167750Y-98515581D01*
X140147538Y-98508349D01*
X140128132Y-98499170D01*
X140109719Y-98488134D01*
X140092476Y-98475346D01*
X140076570Y-98460930D01*
X140062154Y-98445024D01*
X140049366Y-98427781D01*
X140038330Y-98409368D01*
X140029151Y-98389962D01*
X140021919Y-98369750D01*
X140016703Y-98348926D01*
X140013553Y-98327691D01*
X140012500Y-98306250D01*
X140012500Y-97793750D01*
X140013553Y-97772309D01*
X140016703Y-97751074D01*
X140021919Y-97730250D01*
X140029151Y-97710038D01*
X140038330Y-97690632D01*
X140049366Y-97672219D01*
X140062154Y-97654976D01*
X140076570Y-97639070D01*
X140092476Y-97624654D01*
X140109719Y-97611866D01*
X140128132Y-97600830D01*
X140147538Y-97591651D01*
X140167750Y-97584419D01*
X140188574Y-97579203D01*
X140209809Y-97576053D01*
X140231250Y-97575000D01*
X140668750Y-97575000D01*
X140690191Y-97576053D01*
X140690191Y-97576053D01*
G37*
D11*
X140450000Y-98050000D03*
D10*
G36*
X142265191Y-97576053D02*
G01*
X142286426Y-97579203D01*
X142307250Y-97584419D01*
X142327462Y-97591651D01*
X142346868Y-97600830D01*
X142365281Y-97611866D01*
X142382524Y-97624654D01*
X142398430Y-97639070D01*
X142412846Y-97654976D01*
X142425634Y-97672219D01*
X142436670Y-97690632D01*
X142445849Y-97710038D01*
X142453081Y-97730250D01*
X142458297Y-97751074D01*
X142461447Y-97772309D01*
X142462500Y-97793750D01*
X142462500Y-98306250D01*
X142461447Y-98327691D01*
X142458297Y-98348926D01*
X142453081Y-98369750D01*
X142445849Y-98389962D01*
X142436670Y-98409368D01*
X142425634Y-98427781D01*
X142412846Y-98445024D01*
X142398430Y-98460930D01*
X142382524Y-98475346D01*
X142365281Y-98488134D01*
X142346868Y-98499170D01*
X142327462Y-98508349D01*
X142307250Y-98515581D01*
X142286426Y-98520797D01*
X142265191Y-98523947D01*
X142243750Y-98525000D01*
X141806250Y-98525000D01*
X141784809Y-98523947D01*
X141763574Y-98520797D01*
X141742750Y-98515581D01*
X141722538Y-98508349D01*
X141703132Y-98499170D01*
X141684719Y-98488134D01*
X141667476Y-98475346D01*
X141651570Y-98460930D01*
X141637154Y-98445024D01*
X141624366Y-98427781D01*
X141613330Y-98409368D01*
X141604151Y-98389962D01*
X141596919Y-98369750D01*
X141591703Y-98348926D01*
X141588553Y-98327691D01*
X141587500Y-98306250D01*
X141587500Y-97793750D01*
X141588553Y-97772309D01*
X141591703Y-97751074D01*
X141596919Y-97730250D01*
X141604151Y-97710038D01*
X141613330Y-97690632D01*
X141624366Y-97672219D01*
X141637154Y-97654976D01*
X141651570Y-97639070D01*
X141667476Y-97624654D01*
X141684719Y-97611866D01*
X141703132Y-97600830D01*
X141722538Y-97591651D01*
X141742750Y-97584419D01*
X141763574Y-97579203D01*
X141784809Y-97576053D01*
X141806250Y-97575000D01*
X142243750Y-97575000D01*
X142265191Y-97576053D01*
X142265191Y-97576053D01*
G37*
D11*
X142025000Y-98050000D03*
D10*
G36*
X164768091Y-98293253D02*
G01*
X164789326Y-98296403D01*
X164810150Y-98301619D01*
X164830362Y-98308851D01*
X164849768Y-98318030D01*
X164868181Y-98329066D01*
X164885424Y-98341854D01*
X164901330Y-98356270D01*
X164915746Y-98372176D01*
X164928534Y-98389419D01*
X164939570Y-98407832D01*
X164948749Y-98427238D01*
X164955981Y-98447450D01*
X164961197Y-98468274D01*
X164964347Y-98489509D01*
X164965400Y-98510950D01*
X164965400Y-98948450D01*
X164964347Y-98969891D01*
X164961197Y-98991126D01*
X164955981Y-99011950D01*
X164948749Y-99032162D01*
X164939570Y-99051568D01*
X164928534Y-99069981D01*
X164915746Y-99087224D01*
X164901330Y-99103130D01*
X164885424Y-99117546D01*
X164868181Y-99130334D01*
X164849768Y-99141370D01*
X164830362Y-99150549D01*
X164810150Y-99157781D01*
X164789326Y-99162997D01*
X164768091Y-99166147D01*
X164746650Y-99167200D01*
X164234150Y-99167200D01*
X164212709Y-99166147D01*
X164191474Y-99162997D01*
X164170650Y-99157781D01*
X164150438Y-99150549D01*
X164131032Y-99141370D01*
X164112619Y-99130334D01*
X164095376Y-99117546D01*
X164079470Y-99103130D01*
X164065054Y-99087224D01*
X164052266Y-99069981D01*
X164041230Y-99051568D01*
X164032051Y-99032162D01*
X164024819Y-99011950D01*
X164019603Y-98991126D01*
X164016453Y-98969891D01*
X164015400Y-98948450D01*
X164015400Y-98510950D01*
X164016453Y-98489509D01*
X164019603Y-98468274D01*
X164024819Y-98447450D01*
X164032051Y-98427238D01*
X164041230Y-98407832D01*
X164052266Y-98389419D01*
X164065054Y-98372176D01*
X164079470Y-98356270D01*
X164095376Y-98341854D01*
X164112619Y-98329066D01*
X164131032Y-98318030D01*
X164150438Y-98308851D01*
X164170650Y-98301619D01*
X164191474Y-98296403D01*
X164212709Y-98293253D01*
X164234150Y-98292200D01*
X164746650Y-98292200D01*
X164768091Y-98293253D01*
X164768091Y-98293253D01*
G37*
D11*
X164490400Y-98729700D03*
D10*
G36*
X164768091Y-99868253D02*
G01*
X164789326Y-99871403D01*
X164810150Y-99876619D01*
X164830362Y-99883851D01*
X164849768Y-99893030D01*
X164868181Y-99904066D01*
X164885424Y-99916854D01*
X164901330Y-99931270D01*
X164915746Y-99947176D01*
X164928534Y-99964419D01*
X164939570Y-99982832D01*
X164948749Y-100002238D01*
X164955981Y-100022450D01*
X164961197Y-100043274D01*
X164964347Y-100064509D01*
X164965400Y-100085950D01*
X164965400Y-100523450D01*
X164964347Y-100544891D01*
X164961197Y-100566126D01*
X164955981Y-100586950D01*
X164948749Y-100607162D01*
X164939570Y-100626568D01*
X164928534Y-100644981D01*
X164915746Y-100662224D01*
X164901330Y-100678130D01*
X164885424Y-100692546D01*
X164868181Y-100705334D01*
X164849768Y-100716370D01*
X164830362Y-100725549D01*
X164810150Y-100732781D01*
X164789326Y-100737997D01*
X164768091Y-100741147D01*
X164746650Y-100742200D01*
X164234150Y-100742200D01*
X164212709Y-100741147D01*
X164191474Y-100737997D01*
X164170650Y-100732781D01*
X164150438Y-100725549D01*
X164131032Y-100716370D01*
X164112619Y-100705334D01*
X164095376Y-100692546D01*
X164079470Y-100678130D01*
X164065054Y-100662224D01*
X164052266Y-100644981D01*
X164041230Y-100626568D01*
X164032051Y-100607162D01*
X164024819Y-100586950D01*
X164019603Y-100566126D01*
X164016453Y-100544891D01*
X164015400Y-100523450D01*
X164015400Y-100085950D01*
X164016453Y-100064509D01*
X164019603Y-100043274D01*
X164024819Y-100022450D01*
X164032051Y-100002238D01*
X164041230Y-99982832D01*
X164052266Y-99964419D01*
X164065054Y-99947176D01*
X164079470Y-99931270D01*
X164095376Y-99916854D01*
X164112619Y-99904066D01*
X164131032Y-99893030D01*
X164150438Y-99883851D01*
X164170650Y-99876619D01*
X164191474Y-99871403D01*
X164212709Y-99868253D01*
X164234150Y-99867200D01*
X164746650Y-99867200D01*
X164768091Y-99868253D01*
X164768091Y-99868253D01*
G37*
D11*
X164490400Y-100304700D03*
D10*
G36*
X153460779Y-80176144D02*
G01*
X153483834Y-80179563D01*
X153506443Y-80185227D01*
X153528387Y-80193079D01*
X153549457Y-80203044D01*
X153569448Y-80215026D01*
X153588168Y-80228910D01*
X153605438Y-80244562D01*
X153621090Y-80261832D01*
X153634974Y-80280552D01*
X153646956Y-80300543D01*
X153656921Y-80321613D01*
X153664773Y-80343557D01*
X153670437Y-80366166D01*
X153673856Y-80389221D01*
X153675000Y-80412500D01*
X153675000Y-80887500D01*
X153673856Y-80910779D01*
X153670437Y-80933834D01*
X153664773Y-80956443D01*
X153656921Y-80978387D01*
X153646956Y-80999457D01*
X153634974Y-81019448D01*
X153621090Y-81038168D01*
X153605438Y-81055438D01*
X153588168Y-81071090D01*
X153569448Y-81084974D01*
X153549457Y-81096956D01*
X153528387Y-81106921D01*
X153506443Y-81114773D01*
X153483834Y-81120437D01*
X153460779Y-81123856D01*
X153437500Y-81125000D01*
X152862500Y-81125000D01*
X152839221Y-81123856D01*
X152816166Y-81120437D01*
X152793557Y-81114773D01*
X152771613Y-81106921D01*
X152750543Y-81096956D01*
X152730552Y-81084974D01*
X152711832Y-81071090D01*
X152694562Y-81055438D01*
X152678910Y-81038168D01*
X152665026Y-81019448D01*
X152653044Y-80999457D01*
X152643079Y-80978387D01*
X152635227Y-80956443D01*
X152629563Y-80933834D01*
X152626144Y-80910779D01*
X152625000Y-80887500D01*
X152625000Y-80412500D01*
X152626144Y-80389221D01*
X152629563Y-80366166D01*
X152635227Y-80343557D01*
X152643079Y-80321613D01*
X152653044Y-80300543D01*
X152665026Y-80280552D01*
X152678910Y-80261832D01*
X152694562Y-80244562D01*
X152711832Y-80228910D01*
X152730552Y-80215026D01*
X152750543Y-80203044D01*
X152771613Y-80193079D01*
X152793557Y-80185227D01*
X152816166Y-80179563D01*
X152839221Y-80176144D01*
X152862500Y-80175000D01*
X153437500Y-80175000D01*
X153460779Y-80176144D01*
X153460779Y-80176144D01*
G37*
D17*
X153150000Y-80650000D03*
D10*
G36*
X155210779Y-80176144D02*
G01*
X155233834Y-80179563D01*
X155256443Y-80185227D01*
X155278387Y-80193079D01*
X155299457Y-80203044D01*
X155319448Y-80215026D01*
X155338168Y-80228910D01*
X155355438Y-80244562D01*
X155371090Y-80261832D01*
X155384974Y-80280552D01*
X155396956Y-80300543D01*
X155406921Y-80321613D01*
X155414773Y-80343557D01*
X155420437Y-80366166D01*
X155423856Y-80389221D01*
X155425000Y-80412500D01*
X155425000Y-80887500D01*
X155423856Y-80910779D01*
X155420437Y-80933834D01*
X155414773Y-80956443D01*
X155406921Y-80978387D01*
X155396956Y-80999457D01*
X155384974Y-81019448D01*
X155371090Y-81038168D01*
X155355438Y-81055438D01*
X155338168Y-81071090D01*
X155319448Y-81084974D01*
X155299457Y-81096956D01*
X155278387Y-81106921D01*
X155256443Y-81114773D01*
X155233834Y-81120437D01*
X155210779Y-81123856D01*
X155187500Y-81125000D01*
X154612500Y-81125000D01*
X154589221Y-81123856D01*
X154566166Y-81120437D01*
X154543557Y-81114773D01*
X154521613Y-81106921D01*
X154500543Y-81096956D01*
X154480552Y-81084974D01*
X154461832Y-81071090D01*
X154444562Y-81055438D01*
X154428910Y-81038168D01*
X154415026Y-81019448D01*
X154403044Y-80999457D01*
X154393079Y-80978387D01*
X154385227Y-80956443D01*
X154379563Y-80933834D01*
X154376144Y-80910779D01*
X154375000Y-80887500D01*
X154375000Y-80412500D01*
X154376144Y-80389221D01*
X154379563Y-80366166D01*
X154385227Y-80343557D01*
X154393079Y-80321613D01*
X154403044Y-80300543D01*
X154415026Y-80280552D01*
X154428910Y-80261832D01*
X154444562Y-80244562D01*
X154461832Y-80228910D01*
X154480552Y-80215026D01*
X154500543Y-80203044D01*
X154521613Y-80193079D01*
X154543557Y-80185227D01*
X154566166Y-80179563D01*
X154589221Y-80176144D01*
X154612500Y-80175000D01*
X155187500Y-80175000D01*
X155210779Y-80176144D01*
X155210779Y-80176144D01*
G37*
D17*
X154900000Y-80650000D03*
D10*
G36*
X144438077Y-87703274D02*
G01*
X144459312Y-87706424D01*
X144480136Y-87711640D01*
X144500348Y-87718872D01*
X144519754Y-87728051D01*
X144538167Y-87739087D01*
X144555410Y-87751875D01*
X144571316Y-87766291D01*
X144933709Y-88128684D01*
X144948125Y-88144590D01*
X144960913Y-88161833D01*
X144971949Y-88180246D01*
X144981128Y-88199652D01*
X144988360Y-88219864D01*
X144993576Y-88240688D01*
X144996726Y-88261923D01*
X144997779Y-88283364D01*
X144996726Y-88304805D01*
X144993576Y-88326040D01*
X144988360Y-88346864D01*
X144981128Y-88367076D01*
X144971949Y-88386482D01*
X144960913Y-88404895D01*
X144948125Y-88422138D01*
X144933709Y-88438044D01*
X144624350Y-88747403D01*
X144608444Y-88761819D01*
X144591201Y-88774607D01*
X144572788Y-88785643D01*
X144553382Y-88794822D01*
X144533170Y-88802054D01*
X144512346Y-88807270D01*
X144491111Y-88810420D01*
X144469670Y-88811473D01*
X144448229Y-88810420D01*
X144426994Y-88807270D01*
X144406170Y-88802054D01*
X144385958Y-88794822D01*
X144366552Y-88785643D01*
X144348139Y-88774607D01*
X144330896Y-88761819D01*
X144314990Y-88747403D01*
X143952597Y-88385010D01*
X143938181Y-88369104D01*
X143925393Y-88351861D01*
X143914357Y-88333448D01*
X143905178Y-88314042D01*
X143897946Y-88293830D01*
X143892730Y-88273006D01*
X143889580Y-88251771D01*
X143888527Y-88230330D01*
X143889580Y-88208889D01*
X143892730Y-88187654D01*
X143897946Y-88166830D01*
X143905178Y-88146618D01*
X143914357Y-88127212D01*
X143925393Y-88108799D01*
X143938181Y-88091556D01*
X143952597Y-88075650D01*
X144261956Y-87766291D01*
X144277862Y-87751875D01*
X144295105Y-87739087D01*
X144313518Y-87728051D01*
X144332924Y-87718872D01*
X144353136Y-87711640D01*
X144373960Y-87706424D01*
X144395195Y-87703274D01*
X144416636Y-87702221D01*
X144438077Y-87703274D01*
X144438077Y-87703274D01*
G37*
D11*
X144443153Y-88256847D03*
D10*
G36*
X145551771Y-86589580D02*
G01*
X145573006Y-86592730D01*
X145593830Y-86597946D01*
X145614042Y-86605178D01*
X145633448Y-86614357D01*
X145651861Y-86625393D01*
X145669104Y-86638181D01*
X145685010Y-86652597D01*
X146047403Y-87014990D01*
X146061819Y-87030896D01*
X146074607Y-87048139D01*
X146085643Y-87066552D01*
X146094822Y-87085958D01*
X146102054Y-87106170D01*
X146107270Y-87126994D01*
X146110420Y-87148229D01*
X146111473Y-87169670D01*
X146110420Y-87191111D01*
X146107270Y-87212346D01*
X146102054Y-87233170D01*
X146094822Y-87253382D01*
X146085643Y-87272788D01*
X146074607Y-87291201D01*
X146061819Y-87308444D01*
X146047403Y-87324350D01*
X145738044Y-87633709D01*
X145722138Y-87648125D01*
X145704895Y-87660913D01*
X145686482Y-87671949D01*
X145667076Y-87681128D01*
X145646864Y-87688360D01*
X145626040Y-87693576D01*
X145604805Y-87696726D01*
X145583364Y-87697779D01*
X145561923Y-87696726D01*
X145540688Y-87693576D01*
X145519864Y-87688360D01*
X145499652Y-87681128D01*
X145480246Y-87671949D01*
X145461833Y-87660913D01*
X145444590Y-87648125D01*
X145428684Y-87633709D01*
X145066291Y-87271316D01*
X145051875Y-87255410D01*
X145039087Y-87238167D01*
X145028051Y-87219754D01*
X145018872Y-87200348D01*
X145011640Y-87180136D01*
X145006424Y-87159312D01*
X145003274Y-87138077D01*
X145002221Y-87116636D01*
X145003274Y-87095195D01*
X145006424Y-87073960D01*
X145011640Y-87053136D01*
X145018872Y-87032924D01*
X145028051Y-87013518D01*
X145039087Y-86995105D01*
X145051875Y-86977862D01*
X145066291Y-86961956D01*
X145375650Y-86652597D01*
X145391556Y-86638181D01*
X145408799Y-86625393D01*
X145427212Y-86614357D01*
X145446618Y-86605178D01*
X145466830Y-86597946D01*
X145487654Y-86592730D01*
X145508889Y-86589580D01*
X145530330Y-86588527D01*
X145551771Y-86589580D01*
X145551771Y-86589580D01*
G37*
D11*
X145556847Y-87143153D03*
D10*
G36*
X143338077Y-86603274D02*
G01*
X143359312Y-86606424D01*
X143380136Y-86611640D01*
X143400348Y-86618872D01*
X143419754Y-86628051D01*
X143438167Y-86639087D01*
X143455410Y-86651875D01*
X143471316Y-86666291D01*
X143833709Y-87028684D01*
X143848125Y-87044590D01*
X143860913Y-87061833D01*
X143871949Y-87080246D01*
X143881128Y-87099652D01*
X143888360Y-87119864D01*
X143893576Y-87140688D01*
X143896726Y-87161923D01*
X143897779Y-87183364D01*
X143896726Y-87204805D01*
X143893576Y-87226040D01*
X143888360Y-87246864D01*
X143881128Y-87267076D01*
X143871949Y-87286482D01*
X143860913Y-87304895D01*
X143848125Y-87322138D01*
X143833709Y-87338044D01*
X143524350Y-87647403D01*
X143508444Y-87661819D01*
X143491201Y-87674607D01*
X143472788Y-87685643D01*
X143453382Y-87694822D01*
X143433170Y-87702054D01*
X143412346Y-87707270D01*
X143391111Y-87710420D01*
X143369670Y-87711473D01*
X143348229Y-87710420D01*
X143326994Y-87707270D01*
X143306170Y-87702054D01*
X143285958Y-87694822D01*
X143266552Y-87685643D01*
X143248139Y-87674607D01*
X143230896Y-87661819D01*
X143214990Y-87647403D01*
X142852597Y-87285010D01*
X142838181Y-87269104D01*
X142825393Y-87251861D01*
X142814357Y-87233448D01*
X142805178Y-87214042D01*
X142797946Y-87193830D01*
X142792730Y-87173006D01*
X142789580Y-87151771D01*
X142788527Y-87130330D01*
X142789580Y-87108889D01*
X142792730Y-87087654D01*
X142797946Y-87066830D01*
X142805178Y-87046618D01*
X142814357Y-87027212D01*
X142825393Y-87008799D01*
X142838181Y-86991556D01*
X142852597Y-86975650D01*
X143161956Y-86666291D01*
X143177862Y-86651875D01*
X143195105Y-86639087D01*
X143213518Y-86628051D01*
X143232924Y-86618872D01*
X143253136Y-86611640D01*
X143273960Y-86606424D01*
X143295195Y-86603274D01*
X143316636Y-86602221D01*
X143338077Y-86603274D01*
X143338077Y-86603274D01*
G37*
D11*
X143343153Y-87156847D03*
D10*
G36*
X144451771Y-85489580D02*
G01*
X144473006Y-85492730D01*
X144493830Y-85497946D01*
X144514042Y-85505178D01*
X144533448Y-85514357D01*
X144551861Y-85525393D01*
X144569104Y-85538181D01*
X144585010Y-85552597D01*
X144947403Y-85914990D01*
X144961819Y-85930896D01*
X144974607Y-85948139D01*
X144985643Y-85966552D01*
X144994822Y-85985958D01*
X145002054Y-86006170D01*
X145007270Y-86026994D01*
X145010420Y-86048229D01*
X145011473Y-86069670D01*
X145010420Y-86091111D01*
X145007270Y-86112346D01*
X145002054Y-86133170D01*
X144994822Y-86153382D01*
X144985643Y-86172788D01*
X144974607Y-86191201D01*
X144961819Y-86208444D01*
X144947403Y-86224350D01*
X144638044Y-86533709D01*
X144622138Y-86548125D01*
X144604895Y-86560913D01*
X144586482Y-86571949D01*
X144567076Y-86581128D01*
X144546864Y-86588360D01*
X144526040Y-86593576D01*
X144504805Y-86596726D01*
X144483364Y-86597779D01*
X144461923Y-86596726D01*
X144440688Y-86593576D01*
X144419864Y-86588360D01*
X144399652Y-86581128D01*
X144380246Y-86571949D01*
X144361833Y-86560913D01*
X144344590Y-86548125D01*
X144328684Y-86533709D01*
X143966291Y-86171316D01*
X143951875Y-86155410D01*
X143939087Y-86138167D01*
X143928051Y-86119754D01*
X143918872Y-86100348D01*
X143911640Y-86080136D01*
X143906424Y-86059312D01*
X143903274Y-86038077D01*
X143902221Y-86016636D01*
X143903274Y-85995195D01*
X143906424Y-85973960D01*
X143911640Y-85953136D01*
X143918872Y-85932924D01*
X143928051Y-85913518D01*
X143939087Y-85895105D01*
X143951875Y-85877862D01*
X143966291Y-85861956D01*
X144275650Y-85552597D01*
X144291556Y-85538181D01*
X144308799Y-85525393D01*
X144327212Y-85514357D01*
X144346618Y-85505178D01*
X144366830Y-85497946D01*
X144387654Y-85492730D01*
X144408889Y-85489580D01*
X144430330Y-85488527D01*
X144451771Y-85489580D01*
X144451771Y-85489580D01*
G37*
D11*
X144456847Y-86043153D03*
D18*
X150950000Y-79100000D03*
X150950000Y-79900000D03*
X150950000Y-78300000D03*
X149250000Y-79100000D03*
X149250000Y-78300000D03*
X149250000Y-79900000D03*
X149250000Y-77500000D03*
X150950000Y-77500000D03*
X149250000Y-76700000D03*
X150950000Y-76700000D03*
X149250000Y-75900000D03*
X150950000Y-75900000D03*
X149250000Y-75100000D03*
X150950000Y-75100000D03*
X149250000Y-74300000D03*
X150950000Y-74300000D03*
D19*
X151550001Y-82928599D03*
X151050000Y-82928599D03*
X150550000Y-82928599D03*
X150049999Y-82928599D03*
X150049999Y-81671401D03*
X150550000Y-81671401D03*
X151050000Y-81671401D03*
X151550001Y-81671401D03*
D20*
X133150000Y-90060000D03*
X137050000Y-90060000D03*
X133150000Y-91330000D03*
X137050000Y-91330000D03*
X133150000Y-92600000D03*
X137050000Y-92600000D03*
X133150000Y-93870000D03*
X137050000Y-93870000D03*
X133150000Y-95140000D03*
X137050000Y-95140000D03*
D21*
X161900000Y-92360000D03*
X161900000Y-94900000D03*
X161900000Y-97440000D03*
X161900000Y-99980000D03*
X161900000Y-102520000D03*
X161900000Y-105060000D03*
D22*
X161900000Y-107600000D03*
D23*
X140250000Y-96450000D03*
X140250000Y-95150000D03*
X142150000Y-95800000D03*
X140250000Y-95800000D03*
X142150000Y-95150000D03*
X142150000Y-96450000D03*
D24*
X161850000Y-110850000D03*
X157850000Y-110850000D03*
D25*
X140614400Y-82804000D03*
X139903200Y-83413600D03*
X139903200Y-82804000D03*
X140614400Y-83413600D03*
D26*
X140716000Y-116281200D03*
X138938000Y-92710000D03*
X138938000Y-93776800D03*
X143500000Y-89150000D03*
X148000000Y-118050000D03*
X146150000Y-118050000D03*
X148050000Y-116850000D03*
X146166840Y-116850000D03*
X141224000Y-96926400D03*
X164642778Y-97485200D03*
X149504400Y-124663200D03*
X148386800Y-124663200D03*
X148386800Y-123647200D03*
X149504400Y-123647200D03*
X157800000Y-114000000D03*
X158950000Y-114000000D03*
X158950000Y-112850000D03*
X157800000Y-112850000D03*
D25*
X157886400Y-89966800D03*
X158902400Y-89966800D03*
D26*
X142900400Y-116636800D03*
X137988040Y-86834980D03*
X140047980Y-111970820D03*
X143500000Y-74350000D03*
X144600000Y-110567440D03*
X146639280Y-84965540D03*
X130955693Y-85430714D03*
X133487650Y-80337704D03*
X136510000Y-115163600D03*
X140208000Y-113284000D03*
X135143240Y-85422740D03*
X138542929Y-74448567D03*
X136826850Y-86873998D03*
X145600000Y-74050008D03*
X132550000Y-83550000D03*
X139825632Y-74728457D03*
X130045950Y-85877995D03*
X136334500Y-85979000D03*
X144546086Y-74211478D03*
X132010028Y-84838843D03*
X144018000Y-95554800D03*
X152700000Y-77500000D03*
X152850004Y-82100000D03*
X129300000Y-86550000D03*
X147726400Y-113538000D03*
X145897600Y-110540800D03*
D25*
X155448000Y-90322400D03*
X156159200Y-90322400D03*
X156159200Y-89712800D03*
X155448000Y-89712800D03*
X153771600Y-89712800D03*
X154482800Y-89712800D03*
X153771600Y-90322400D03*
X154482800Y-90322400D03*
D27*
X160625001Y-85500000D02*
X158400000Y-85500000D01*
X154825001Y-82550001D02*
X155475000Y-82550001D01*
X143343153Y-87156847D02*
X144443153Y-88256847D01*
X144393153Y-88256847D02*
X143500000Y-89150000D01*
X144443153Y-88256847D02*
X144393153Y-88256847D01*
X154825001Y-81600001D02*
X154825001Y-82550001D01*
X154675010Y-81450010D02*
X154825001Y-81600001D01*
X153950010Y-81450010D02*
X154675010Y-81450010D01*
X153150000Y-80650000D02*
X153950010Y-81450010D01*
X141274800Y-115722400D02*
X140716000Y-116281200D01*
X146166840Y-116850000D02*
X145039240Y-115722400D01*
X145039240Y-115722400D02*
X141274800Y-115722400D01*
X141700400Y-96450000D02*
X141224000Y-96926400D01*
X142150000Y-96450000D02*
X141700400Y-96450000D01*
X140864399Y-82554001D02*
X140614400Y-82804000D01*
X142494219Y-82554001D02*
X140864399Y-82554001D01*
X143268897Y-83328679D02*
X142494219Y-82554001D01*
X164642800Y-98729700D02*
X164642778Y-98729678D01*
X164642778Y-98050885D02*
X164642778Y-97485200D01*
X164642778Y-98729678D02*
X164642778Y-98050885D01*
X137050000Y-95140000D02*
X137935002Y-95140000D01*
X143507544Y-84274434D02*
X142915343Y-83682233D01*
X144050261Y-84817151D02*
X143507544Y-84274434D01*
X144050261Y-85636567D02*
X144050261Y-84817151D01*
X144456847Y-86043153D02*
X144050261Y-85636567D01*
X142208237Y-84424681D02*
X142208237Y-84389339D01*
X144050261Y-85636567D02*
X143420123Y-85636567D01*
X143420123Y-85636567D02*
X142208237Y-84424681D01*
X145556847Y-87143153D02*
X144456847Y-86043153D01*
X137060000Y-95150000D02*
X137050000Y-95140000D01*
X140250000Y-95150000D02*
X137060000Y-95150000D01*
X157800000Y-114000000D02*
X152521600Y-119278400D01*
X152521600Y-119278400D02*
X145186400Y-119278400D01*
X145186400Y-119278400D02*
X143300399Y-117392399D01*
X143300399Y-117392399D02*
X143300399Y-116935199D01*
X143300399Y-116935199D02*
X142900400Y-116535200D01*
X140047980Y-111970820D02*
X140047980Y-111970820D01*
D28*
X137988040Y-86504780D02*
X137988040Y-86834980D01*
X137497138Y-86013878D02*
X137988040Y-86504780D01*
X138089339Y-84389339D02*
X137497138Y-84981540D01*
X137497138Y-84981540D02*
X137497138Y-86013878D01*
D27*
X134750000Y-106672840D02*
X140047980Y-111970820D01*
X134750000Y-88600000D02*
X134750000Y-106672840D01*
X135750000Y-87600000D02*
X134750000Y-88600000D01*
X137988040Y-86834980D02*
X137223020Y-87600000D01*
X137223020Y-87600000D02*
X135750000Y-87600000D01*
X143500000Y-74736038D02*
X143500000Y-74350000D01*
X141854683Y-76381355D02*
X143500000Y-74736038D01*
X146639280Y-85265260D02*
X146659600Y-85285580D01*
X146639280Y-84965540D02*
X146639280Y-85265260D01*
X146659600Y-84985860D02*
X146639280Y-84965540D01*
X144600000Y-110567440D02*
X146659600Y-108507840D01*
X146659600Y-108507840D02*
X146659600Y-84985860D01*
D28*
X132130800Y-82524755D02*
X131559488Y-83096067D01*
X132130800Y-79787644D02*
X132130800Y-82524755D01*
X137143585Y-76496261D02*
X135422183Y-76496261D01*
X137735786Y-77088462D02*
X137143585Y-76496261D01*
X131559488Y-84351037D02*
X130955693Y-84954831D01*
X130955693Y-84954831D02*
X130955693Y-85430714D01*
X131559488Y-83096067D02*
X131559488Y-84351037D01*
X135422183Y-76496261D02*
X132130800Y-79787644D01*
X135851689Y-77556921D02*
X133887649Y-79520961D01*
X133887649Y-79937705D02*
X133487650Y-80337704D01*
X133887649Y-79520961D02*
X133887649Y-79937705D01*
X136082925Y-77556921D02*
X135851689Y-77556921D01*
X136675126Y-78149122D02*
X136082925Y-77556921D01*
D27*
X138328400Y-115163600D02*
X139808001Y-113683999D01*
X139808001Y-113683999D02*
X140208000Y-113284000D01*
X136510000Y-115163600D02*
X138328400Y-115163600D01*
D28*
X135893837Y-84672143D02*
X135143240Y-85422740D01*
X135893837Y-84585837D02*
X135893837Y-84672143D01*
X137028679Y-83328679D02*
X137028679Y-83450995D01*
X137028679Y-83450995D02*
X135893837Y-84585837D01*
D27*
X164642800Y-101854000D02*
X164642800Y-100304700D01*
X138796446Y-76027802D02*
X138204245Y-75435601D01*
X138204245Y-75435601D02*
X138204245Y-74787251D01*
X138204245Y-74787251D02*
X138542929Y-74448567D01*
D28*
X137143585Y-84627987D02*
X137143585Y-86557263D01*
X137143585Y-86557263D02*
X136826850Y-86873998D01*
X137735786Y-84035786D02*
X137143585Y-84627987D01*
D27*
X141147576Y-75674248D02*
X141147576Y-74993009D01*
X144674979Y-73124987D02*
X145200001Y-73650009D01*
X141147576Y-74993009D02*
X143015598Y-73124987D01*
X145200001Y-73650009D02*
X145600000Y-74050008D01*
X143015598Y-73124987D02*
X144674979Y-73124987D01*
D28*
X136436478Y-77203368D02*
X137028679Y-77795569D01*
X132813411Y-83286589D02*
X132813411Y-80029959D01*
X132813411Y-80029959D02*
X135640002Y-77203368D01*
X135640002Y-77203368D02*
X136436478Y-77203368D01*
X132550000Y-83550000D02*
X132813411Y-83286589D01*
D27*
X139150000Y-75404089D02*
X139825632Y-74728457D01*
X139150000Y-75674248D02*
X139150000Y-75404089D01*
D28*
X131797411Y-79658570D02*
X131797411Y-82395681D01*
X135313273Y-76142708D02*
X131797411Y-79658570D01*
X138089339Y-76734909D02*
X137497138Y-76142708D01*
X137497138Y-76142708D02*
X135313273Y-76142708D01*
X131797411Y-82395681D02*
X131232477Y-82960615D01*
X131232477Y-82960615D02*
X131232477Y-84215586D01*
X131232477Y-84215586D02*
X130045950Y-85402112D01*
X130045950Y-85402112D02*
X130045950Y-85877995D01*
X136334500Y-84729966D02*
X136334500Y-85413315D01*
X136334500Y-85413315D02*
X136334500Y-85979000D01*
X137382233Y-83682233D02*
X136334500Y-84729966D01*
D27*
X141501130Y-76027802D02*
X142093331Y-75435601D01*
X144146087Y-73811479D02*
X144546086Y-74211478D01*
X142093331Y-74683665D02*
X143201998Y-73574998D01*
X143909606Y-73574998D02*
X144146087Y-73811479D01*
X143201998Y-73574998D02*
X143909606Y-73574998D01*
X142093331Y-75435601D02*
X142093331Y-74683665D01*
D28*
X132010028Y-84273158D02*
X132010028Y-84838843D01*
X131886499Y-84149629D02*
X132010028Y-84273158D01*
X132486400Y-82631618D02*
X131886499Y-83231519D01*
X132486400Y-79894507D02*
X132486400Y-82631618D01*
X135531093Y-76849814D02*
X132486400Y-79894507D01*
X137382233Y-77442015D02*
X136790032Y-76849814D01*
X136790032Y-76849814D02*
X135531093Y-76849814D01*
X131886499Y-83231519D02*
X131886499Y-84149629D01*
X132320000Y-93870000D02*
X131624999Y-93174999D01*
X133150000Y-93870000D02*
X132320000Y-93870000D01*
X131624999Y-93174999D02*
X131624999Y-89475001D01*
X131624999Y-89475001D02*
X133800000Y-87300000D01*
X133800000Y-87300000D02*
X133800000Y-81599997D01*
D29*
X133800000Y-81400000D02*
X133800000Y-81599997D01*
X134800000Y-80400000D02*
X133800000Y-81400000D01*
X134804837Y-80404837D02*
X134800000Y-80400000D01*
X135808891Y-80404837D02*
X134804837Y-80404837D01*
X136102413Y-80111315D02*
X135808891Y-80404837D01*
X136102413Y-79846207D02*
X136102413Y-80111315D01*
X135540227Y-79284021D02*
X136102413Y-79846207D01*
X135614466Y-79209782D02*
X135540227Y-79284021D01*
D28*
X131100000Y-89300000D02*
X133472989Y-86927011D01*
X135084136Y-79740112D02*
X135260912Y-79563336D01*
X135023588Y-79740112D02*
X135084136Y-79740112D01*
X133472989Y-81290711D02*
X135023588Y-79740112D01*
X133472989Y-86927011D02*
X133472989Y-81290711D01*
X131100000Y-93920000D02*
X131100000Y-89300000D01*
X132320000Y-95140000D02*
X131100000Y-93920000D01*
X133150000Y-95140000D02*
X132320000Y-95140000D01*
X142811885Y-80750347D02*
X137249653Y-80750347D01*
X144329557Y-82268019D02*
X142811885Y-80750347D01*
D29*
X135919411Y-80719411D02*
X134890725Y-80719411D01*
X137249653Y-80750347D02*
X135950347Y-80750347D01*
X135950347Y-80750347D02*
X135919411Y-80719411D01*
D28*
X134400000Y-81236298D02*
X134418149Y-81218149D01*
X134400000Y-88313000D02*
X134400000Y-81236298D01*
X133150000Y-90060000D02*
X133150000Y-89563000D01*
X133150000Y-89563000D02*
X134400000Y-88313000D01*
X134400000Y-81236298D02*
X134918149Y-80718149D01*
D27*
X142725000Y-95150000D02*
X142150000Y-95150000D01*
X142800001Y-95225001D02*
X142725000Y-95150000D01*
X142800001Y-97812499D02*
X142800001Y-95225001D01*
X142562500Y-98050000D02*
X142800001Y-97812499D01*
X142025000Y-98050000D02*
X142562500Y-98050000D01*
D30*
X143613200Y-95150000D02*
X144018000Y-95554800D01*
X142150000Y-95150000D02*
X143613200Y-95150000D01*
D27*
X140450000Y-96650000D02*
X140250000Y-96450000D01*
X140450000Y-98050000D02*
X140450000Y-96650000D01*
X140665200Y-86640922D02*
X140665200Y-92886390D01*
X139388647Y-84504245D02*
X139897463Y-84504245D01*
X140665200Y-92886390D02*
X141470811Y-93692001D01*
X141470811Y-93692001D02*
X141470811Y-95695811D01*
X141575000Y-95800000D02*
X142150000Y-95800000D01*
X141470811Y-95695811D02*
X141575000Y-95800000D01*
X138796446Y-85096446D02*
X139388647Y-84504245D01*
X140150000Y-84756782D02*
X140150000Y-86125722D01*
X139897463Y-84504245D02*
X140150000Y-84756782D01*
X140150000Y-86125722D02*
X140665200Y-86640922D01*
X140825000Y-95800000D02*
X140250000Y-95800000D01*
X139150000Y-85762132D02*
X140157200Y-86769332D01*
X140157200Y-86769332D02*
X140157200Y-93014800D01*
X140157200Y-93014800D02*
X140970000Y-93827600D01*
X139150000Y-85450000D02*
X139150000Y-85762132D01*
X140970000Y-93827600D02*
X140970000Y-95655000D01*
X140970000Y-95655000D02*
X140825000Y-95800000D01*
X156125001Y-81600001D02*
X156125001Y-82550001D01*
X155674072Y-81149072D02*
X156125001Y-81600001D01*
X154900000Y-80650000D02*
X155399072Y-81149072D01*
X155399072Y-81149072D02*
X155674072Y-81149072D01*
X143861098Y-77203368D02*
X143268897Y-77795569D01*
X149250000Y-76700000D02*
X148550000Y-76700000D01*
X144440777Y-76849990D02*
X144214476Y-76849990D01*
X144590800Y-76699967D02*
X144440777Y-76849990D01*
X148549967Y-76699967D02*
X144590800Y-76699967D01*
X148550000Y-76700000D02*
X148549967Y-76699967D01*
X144214476Y-76849990D02*
X143861098Y-77203368D01*
X149250000Y-75900000D02*
X145600000Y-75900000D01*
X143507544Y-76849814D02*
X142915343Y-77442015D01*
X143992724Y-76399989D02*
X143542899Y-76849814D01*
X143542899Y-76849814D02*
X143507544Y-76849814D01*
X144254367Y-76399989D02*
X143992724Y-76399989D01*
X144404400Y-76249956D02*
X144254367Y-76399989D01*
X145250044Y-76249956D02*
X144404400Y-76249956D01*
X145600000Y-75900000D02*
X145250044Y-76249956D01*
X145374988Y-75375012D02*
X148274988Y-75375012D01*
X143850307Y-75799945D02*
X144950055Y-75799945D01*
X144950055Y-75799945D02*
X145374988Y-75375012D01*
X148550000Y-75100000D02*
X149250000Y-75100000D01*
X142561790Y-77088462D02*
X143850307Y-75799945D01*
X148274988Y-75375012D02*
X148550000Y-75100000D01*
X148550000Y-74300000D02*
X149250000Y-74300000D01*
X147924999Y-74925001D02*
X148550000Y-74300000D01*
X145151999Y-74925001D02*
X147924999Y-74925001D01*
X143593212Y-75349934D02*
X144727066Y-75349934D01*
X142208237Y-76734909D02*
X143593212Y-75349934D01*
X144727066Y-75349934D02*
X145151999Y-74925001D01*
X158725001Y-81600001D02*
X158725001Y-82550001D01*
X158725001Y-81188591D02*
X158725001Y-81600001D01*
X155036410Y-77500000D02*
X158725001Y-81188591D01*
X150950000Y-77500000D02*
X152700000Y-77500000D01*
X152700000Y-77500000D02*
X155036410Y-77500000D01*
X151550001Y-81671401D02*
X152421405Y-81671401D01*
X152450005Y-81700001D02*
X152850004Y-82100000D01*
X152421405Y-81671401D02*
X152450005Y-81700001D01*
X158074999Y-81174999D02*
X158074999Y-82550001D01*
X150950000Y-78300000D02*
X155200000Y-78300000D01*
X155200000Y-78300000D02*
X158074999Y-81174999D01*
D29*
X150410000Y-78300000D02*
X150950000Y-78300000D01*
X149945001Y-78764999D02*
X150410000Y-78300000D01*
X150049999Y-81671401D02*
X149945001Y-81566403D01*
X149945001Y-81566403D02*
X149945001Y-78764999D01*
D27*
X155363590Y-79100000D02*
X157425001Y-81161411D01*
X157425001Y-81600001D02*
X157425001Y-82550001D01*
X150950000Y-79100000D02*
X155363590Y-79100000D01*
X157425001Y-81161411D02*
X157425001Y-81600001D01*
D29*
X150725000Y-79100000D02*
X150950000Y-79100000D01*
X150254999Y-79570001D02*
X150725000Y-79100000D01*
X150254999Y-80826639D02*
X150254999Y-79570001D01*
X150550000Y-81671401D02*
X150550000Y-81121640D01*
X150550000Y-81121640D02*
X150254999Y-80826639D01*
X151050000Y-80000000D02*
X150950000Y-79900000D01*
X151050000Y-81671401D02*
X151050000Y-80000000D01*
D27*
X156774999Y-81600001D02*
X156774999Y-82550001D01*
X156774999Y-81179489D02*
X156774999Y-81600001D01*
X155245510Y-79650000D02*
X156774999Y-81179489D01*
X150950000Y-79900000D02*
X151200000Y-79650000D01*
X151200000Y-79650000D02*
X155245510Y-79650000D01*
D28*
X148108002Y-81560912D02*
X145348796Y-81560912D01*
X145348796Y-81560912D02*
X145036664Y-81560912D01*
X152337805Y-82763501D02*
X151837806Y-82263502D01*
X153823001Y-82550001D02*
X153609501Y-82763501D01*
X153609501Y-82763501D02*
X152337805Y-82763501D01*
X154175000Y-82550001D02*
X153823001Y-82550001D01*
X148810592Y-82263502D02*
X148108002Y-81560912D01*
X151837806Y-82263502D02*
X148810592Y-82263502D01*
D27*
X159374999Y-81147819D02*
X159374999Y-81600001D01*
X154927180Y-76700000D02*
X159374999Y-81147819D01*
X159374999Y-81600001D02*
X159374999Y-82550001D01*
X150950000Y-76700000D02*
X154927180Y-76700000D01*
X160025001Y-81161411D02*
X160025001Y-81600001D01*
X154763590Y-75900000D02*
X160025001Y-81161411D01*
X150950000Y-75900000D02*
X154763590Y-75900000D01*
X160025001Y-81600001D02*
X160025001Y-82550001D01*
X160674999Y-81600001D02*
X160674999Y-82550001D01*
X154600000Y-75100000D02*
X160674999Y-81174999D01*
X150950000Y-75100000D02*
X154600000Y-75100000D01*
X160674999Y-81174999D02*
X160674999Y-81600001D01*
X161325000Y-81600001D02*
X161325000Y-82550001D01*
X161325000Y-81125000D02*
X161325000Y-81600001D01*
X150950000Y-74300000D02*
X154500000Y-74300000D01*
X154500000Y-74300000D02*
X161325000Y-81125000D01*
X144471572Y-77300000D02*
X144214651Y-77556921D01*
X149250000Y-77500000D02*
X148626410Y-77500000D01*
X144777200Y-77149978D02*
X144627179Y-77299999D01*
X148276388Y-77149978D02*
X144777200Y-77149978D01*
X144627179Y-77299999D02*
X144471572Y-77300000D01*
X148626410Y-77500000D02*
X148276388Y-77149978D01*
X144214651Y-77556921D02*
X143622450Y-78149122D01*
X148539998Y-78050000D02*
X148089988Y-77599989D01*
X149000001Y-78050001D02*
X148539998Y-78050000D01*
X144568204Y-77910474D02*
X143976003Y-78502675D01*
X144728668Y-77750010D02*
X144568204Y-77910474D01*
X144813579Y-77750010D02*
X144728668Y-77750010D01*
X148089988Y-77599989D02*
X144963600Y-77599989D01*
X149250000Y-78300000D02*
X149000001Y-78050001D01*
X144963600Y-77599989D02*
X144813579Y-77750010D01*
X144364897Y-78856229D02*
X144329557Y-78856229D01*
X148899200Y-79100000D02*
X147849200Y-78050000D01*
X149250000Y-79100000D02*
X148899200Y-79100000D01*
X147849200Y-78050000D02*
X145150000Y-78050000D01*
X145150000Y-78050000D02*
X144932845Y-78267155D01*
X144932845Y-78267155D02*
X144932845Y-78288281D01*
X144932845Y-78288281D02*
X144364897Y-78856229D01*
X145275311Y-78617581D02*
X144683110Y-79209782D01*
X147603981Y-78617581D02*
X145275311Y-78617581D01*
X149250000Y-79900000D02*
X148886400Y-79900000D01*
X148886400Y-79900000D02*
X147603981Y-78617581D01*
D28*
X131470400Y-82260229D02*
X131470400Y-79523118D01*
X131470400Y-79523118D02*
X135204364Y-75789154D01*
X129300000Y-86550000D02*
X129286000Y-86536000D01*
X129286000Y-86536000D02*
X129286000Y-85699600D01*
X129286000Y-85699600D02*
X130905466Y-84080134D01*
X130905466Y-84080134D02*
X130905466Y-82825163D01*
X130905466Y-82825163D02*
X131470400Y-82260229D01*
X135204364Y-75789154D02*
X137850692Y-75789154D01*
X137850692Y-75789154D02*
X138442893Y-76381355D01*
D27*
X145879820Y-110558580D02*
X145897600Y-110540800D01*
X145879820Y-111700000D02*
X145879820Y-110558580D01*
X145897600Y-111709200D02*
X145897600Y-110540800D01*
X147726400Y-113538000D02*
X145897600Y-111709200D01*
X147160715Y-113538000D02*
X147726400Y-113538000D01*
X146497558Y-113538000D02*
X147160715Y-113538000D01*
X135735060Y-102775502D02*
X146497558Y-113538000D01*
X135735060Y-99513620D02*
X135735060Y-102775502D01*
D28*
X137850692Y-85335094D02*
X138442893Y-84742893D01*
X137850692Y-85714652D02*
X137850692Y-85335094D01*
X138750000Y-86613960D02*
X138750000Y-86850000D01*
X137850692Y-85714652D02*
X138750000Y-86613960D01*
D27*
X138750000Y-87146022D02*
X137796022Y-88100000D01*
X138750000Y-86850000D02*
X138750000Y-87146022D01*
X136100000Y-88100000D02*
X135524999Y-88675001D01*
X137796022Y-88100000D02*
X136100000Y-88100000D01*
X135571000Y-97398280D02*
X135571000Y-97998280D01*
X135524999Y-97352279D02*
X135571000Y-97398280D01*
X135524999Y-88675001D02*
X135524999Y-97352279D01*
D31*
G36*
X155571420Y-83250001D02*
G01*
X155573000Y-83266042D01*
X155573000Y-85323000D01*
X154727000Y-85323000D01*
X154727000Y-83266052D01*
X154728581Y-83250001D01*
X154728581Y-81977000D01*
X155571420Y-81977000D01*
X155571420Y-83250001D01*
X155571420Y-83250001D01*
G37*
X155571420Y-83250001D02*
X155573000Y-83266042D01*
X155573000Y-85323000D01*
X154727000Y-85323000D01*
X154727000Y-83266052D01*
X154728581Y-83250001D01*
X154728581Y-81977000D01*
X155571420Y-81977000D01*
X155571420Y-83250001D01*
G36*
X162723000Y-85323000D02*
G01*
X162527000Y-85323000D01*
X162527000Y-83266042D01*
X162528580Y-83250001D01*
X162528580Y-81977000D01*
X162723000Y-81977000D01*
X162723000Y-85323000D01*
X162723000Y-85323000D01*
G37*
X162723000Y-85323000D02*
X162527000Y-85323000D01*
X162527000Y-83266042D01*
X162528580Y-83250001D01*
X162528580Y-81977000D01*
X162723000Y-81977000D01*
X162723000Y-85323000D01*
G36*
X163927353Y-83034361D02*
G01*
X164822931Y-85906814D01*
X165566951Y-88822207D01*
X166158898Y-91780173D01*
X166199038Y-92015839D01*
X166198150Y-112120359D01*
X165632050Y-115028217D01*
X164903324Y-117947397D01*
X164022807Y-120824476D01*
X162992931Y-123651505D01*
X161813511Y-126427821D01*
X161682290Y-126713269D01*
X161182327Y-127615935D01*
X160571319Y-128418552D01*
X159850848Y-129124562D01*
X159036006Y-129719171D01*
X158143861Y-130189926D01*
X157193108Y-130526962D01*
X156187489Y-130726428D01*
X155887263Y-130756760D01*
X151766596Y-131008711D01*
X147638543Y-131109518D01*
X143509492Y-131058990D01*
X139381135Y-130856999D01*
X138034442Y-130758078D01*
X137015889Y-130601296D01*
X136051355Y-130305475D01*
X135139628Y-129873517D01*
X134299808Y-129314470D01*
X133549483Y-128640043D01*
X132904379Y-127864370D01*
X132369712Y-126990140D01*
X132227285Y-126696815D01*
X131035406Y-123931497D01*
X129990723Y-121109847D01*
X129095139Y-118237371D01*
X128351126Y-115322001D01*
X127759182Y-112364038D01*
X127719039Y-112128366D01*
X127718907Y-92023673D01*
X128285014Y-89115776D01*
X128712734Y-87402385D01*
X128809744Y-87467205D01*
X128998102Y-87545226D01*
X129198061Y-87585000D01*
X129401939Y-87585000D01*
X129601898Y-87545226D01*
X129790256Y-87467205D01*
X129959774Y-87353937D01*
X130103937Y-87209774D01*
X130217205Y-87040256D01*
X130280876Y-86886543D01*
X130347848Y-86873221D01*
X130536206Y-86795200D01*
X130705724Y-86681932D01*
X130849887Y-86537769D01*
X130898032Y-86465714D01*
X131057632Y-86465714D01*
X131257591Y-86425940D01*
X131445949Y-86347919D01*
X131615467Y-86234651D01*
X131759630Y-86090488D01*
X131872898Y-85920970D01*
X131893612Y-85870963D01*
X131908089Y-85873843D01*
X132111967Y-85873843D01*
X132311926Y-85834069D01*
X132500284Y-85756048D01*
X132669802Y-85642780D01*
X132774489Y-85538093D01*
X132774489Y-86637682D01*
X130630344Y-88781829D01*
X130603698Y-88803697D01*
X130581830Y-88830343D01*
X130581826Y-88830347D01*
X130516409Y-88910057D01*
X130451549Y-89031402D01*
X130439831Y-89070032D01*
X130411608Y-89163070D01*
X130404148Y-89238815D01*
X130398122Y-89300000D01*
X130401501Y-89334308D01*
X130401500Y-93885702D01*
X130398122Y-93920000D01*
X130401500Y-93954298D01*
X130401500Y-93954308D01*
X130411607Y-94056929D01*
X130451548Y-94188596D01*
X130451549Y-94188598D01*
X130516409Y-94309943D01*
X130581826Y-94389653D01*
X130581829Y-94389656D01*
X130603697Y-94416302D01*
X130630344Y-94438171D01*
X131311928Y-95119756D01*
X131311928Y-95510000D01*
X131324188Y-95634482D01*
X131360498Y-95754180D01*
X131419463Y-95864494D01*
X131498815Y-95961185D01*
X131595506Y-96040537D01*
X131705820Y-96099502D01*
X131825518Y-96135812D01*
X131950000Y-96148072D01*
X133990000Y-96148072D01*
X133990001Y-101164290D01*
X133973353Y-101114245D01*
X133746329Y-100714612D01*
X133446007Y-100366685D01*
X133083825Y-100083718D01*
X132673579Y-99876487D01*
X132230894Y-99752888D01*
X131772634Y-99717626D01*
X131316251Y-99772047D01*
X130879131Y-99914076D01*
X130477923Y-100138304D01*
X130127908Y-100436190D01*
X129842419Y-100796387D01*
X129632329Y-101205177D01*
X129505642Y-101646987D01*
X129467183Y-102104991D01*
X129518415Y-102561742D01*
X129657389Y-102999843D01*
X129878811Y-103402607D01*
X130174246Y-103754693D01*
X130532442Y-104042690D01*
X130939754Y-104255628D01*
X131380670Y-104385396D01*
X131838394Y-104427053D01*
X132295492Y-104379010D01*
X132734552Y-104243098D01*
X133138852Y-104024493D01*
X133492992Y-103731524D01*
X133783483Y-103375347D01*
X133990001Y-102986943D01*
X133990001Y-106635507D01*
X133986324Y-106672840D01*
X134000998Y-106821825D01*
X134044454Y-106965086D01*
X134115026Y-107097116D01*
X134186201Y-107183842D01*
X134210000Y-107212841D01*
X134238998Y-107236639D01*
X139012980Y-112010622D01*
X139012980Y-112072759D01*
X139052754Y-112272718D01*
X139130775Y-112461076D01*
X139244043Y-112630594D01*
X139337417Y-112723968D01*
X139290795Y-112793744D01*
X139212774Y-112982102D01*
X139173000Y-113182061D01*
X139173000Y-113244198D01*
X138013599Y-114403600D01*
X137213711Y-114403600D01*
X137169774Y-114359663D01*
X137000256Y-114246395D01*
X136811898Y-114168374D01*
X136611939Y-114128600D01*
X136408061Y-114128600D01*
X136208102Y-114168374D01*
X136019744Y-114246395D01*
X135850226Y-114359663D01*
X135706063Y-114503826D01*
X135592795Y-114673344D01*
X135514774Y-114861702D01*
X135475000Y-115061661D01*
X135475000Y-115265539D01*
X135514774Y-115465498D01*
X135592795Y-115653856D01*
X135706063Y-115823374D01*
X135850226Y-115967537D01*
X136019744Y-116080805D01*
X136208102Y-116158826D01*
X136408061Y-116198600D01*
X136611939Y-116198600D01*
X136811898Y-116158826D01*
X137000256Y-116080805D01*
X137169774Y-115967537D01*
X137213711Y-115923600D01*
X138291078Y-115923600D01*
X138328400Y-115927276D01*
X138365722Y-115923600D01*
X138365733Y-115923600D01*
X138477386Y-115912603D01*
X138620647Y-115869146D01*
X138752676Y-115798574D01*
X138868401Y-115703601D01*
X138892204Y-115674597D01*
X140247802Y-114319000D01*
X140309939Y-114319000D01*
X140509898Y-114279226D01*
X140698256Y-114201205D01*
X140867774Y-114087937D01*
X141011937Y-113943774D01*
X141125205Y-113774256D01*
X141203226Y-113585898D01*
X141243000Y-113385939D01*
X141243000Y-113182061D01*
X141203226Y-112982102D01*
X141125205Y-112793744D01*
X141011937Y-112624226D01*
X140918563Y-112530852D01*
X140965185Y-112461076D01*
X141043206Y-112272718D01*
X141082980Y-112072759D01*
X141082980Y-111868881D01*
X141043206Y-111668922D01*
X140965185Y-111480564D01*
X140851917Y-111311046D01*
X140707754Y-111166883D01*
X140538236Y-111053615D01*
X140349878Y-110975594D01*
X140149919Y-110935820D01*
X140087782Y-110935820D01*
X135510000Y-106358039D01*
X135510000Y-103625243D01*
X145933759Y-114049003D01*
X145957557Y-114078001D01*
X146073282Y-114172974D01*
X146205311Y-114243546D01*
X146348572Y-114287003D01*
X146460225Y-114298000D01*
X146460233Y-114298000D01*
X146497558Y-114301676D01*
X146534883Y-114298000D01*
X147022689Y-114298000D01*
X147066626Y-114341937D01*
X147236144Y-114455205D01*
X147424502Y-114533226D01*
X147624461Y-114573000D01*
X147828339Y-114573000D01*
X148028298Y-114533226D01*
X148216656Y-114455205D01*
X148386174Y-114341937D01*
X148530337Y-114197774D01*
X148643605Y-114028256D01*
X148721626Y-113839898D01*
X148761400Y-113639939D01*
X148761400Y-113436061D01*
X148721626Y-113236102D01*
X148643605Y-113047744D01*
X148530337Y-112878226D01*
X148386174Y-112734063D01*
X148216656Y-112620795D01*
X148028298Y-112542774D01*
X147828339Y-112503000D01*
X147766202Y-112503000D01*
X146657600Y-111394399D01*
X146657600Y-111244511D01*
X146701537Y-111200574D01*
X146814805Y-111031056D01*
X146892826Y-110842698D01*
X146932600Y-110642739D01*
X146932600Y-110438861D01*
X146892826Y-110238902D01*
X146814805Y-110050544D01*
X146701537Y-109881026D01*
X146557374Y-109736863D01*
X146526205Y-109716037D01*
X147170604Y-109071638D01*
X147199601Y-109047841D01*
X147294574Y-108932116D01*
X147365146Y-108800087D01*
X147408603Y-108656826D01*
X147419600Y-108545173D01*
X147419600Y-108545164D01*
X147423276Y-108507841D01*
X147419600Y-108470518D01*
X147419600Y-85648931D01*
X147443217Y-85625314D01*
X147556485Y-85455796D01*
X147634506Y-85267438D01*
X147674280Y-85067479D01*
X147674280Y-84863601D01*
X147634506Y-84663642D01*
X147556485Y-84475284D01*
X147443217Y-84305766D01*
X147299054Y-84161603D01*
X147129536Y-84048335D01*
X146941178Y-83970314D01*
X146741219Y-83930540D01*
X146537341Y-83930540D01*
X146337382Y-83970314D01*
X146149024Y-84048335D01*
X145979506Y-84161603D01*
X145835343Y-84305766D01*
X145722075Y-84475284D01*
X145644054Y-84663642D01*
X145604280Y-84863601D01*
X145604280Y-85067479D01*
X145644054Y-85267438D01*
X145722075Y-85455796D01*
X145835343Y-85625314D01*
X145899601Y-85689572D01*
X145899601Y-85979507D01*
X145884824Y-85967380D01*
X145774510Y-85908416D01*
X145710884Y-85889116D01*
X145691584Y-85825490D01*
X145632620Y-85715176D01*
X145553267Y-85618484D01*
X145417275Y-85486837D01*
X145192768Y-85486837D01*
X144636452Y-86043153D01*
X145556847Y-86963548D01*
X145570990Y-86949406D01*
X145750595Y-87129011D01*
X145736452Y-87143153D01*
X145750595Y-87157296D01*
X145570990Y-87336901D01*
X145556847Y-87322758D01*
X145542705Y-87336901D01*
X145363100Y-87157296D01*
X145377242Y-87143153D01*
X144456847Y-86222758D01*
X144442705Y-86236901D01*
X144263100Y-86057296D01*
X144277242Y-86043153D01*
X143694409Y-85460320D01*
X143469903Y-85460320D01*
X143360427Y-85565451D01*
X143281074Y-85662143D01*
X143222110Y-85772457D01*
X143185801Y-85892155D01*
X143177359Y-85977867D01*
X143149478Y-85980613D01*
X142988744Y-86029371D01*
X142840611Y-86108550D01*
X142710771Y-86215106D01*
X142401412Y-86524465D01*
X142294856Y-86654305D01*
X142215677Y-86802438D01*
X142166919Y-86963172D01*
X142150455Y-87130330D01*
X142166919Y-87297488D01*
X142215677Y-87458222D01*
X142294856Y-87606355D01*
X142401412Y-87736195D01*
X142763805Y-88098588D01*
X142893645Y-88205144D01*
X142981137Y-88251910D01*
X142840226Y-88346063D01*
X142696063Y-88490226D01*
X142582795Y-88659744D01*
X142504774Y-88848102D01*
X142465000Y-89048061D01*
X142465000Y-89251939D01*
X142504774Y-89451898D01*
X142582795Y-89640256D01*
X142696063Y-89809774D01*
X142840226Y-89953937D01*
X143009744Y-90067205D01*
X143198102Y-90145226D01*
X143398061Y-90185000D01*
X143601939Y-90185000D01*
X143801898Y-90145226D01*
X143990256Y-90067205D01*
X144159774Y-89953937D01*
X144303937Y-89809774D01*
X144417205Y-89640256D01*
X144495226Y-89451898D01*
X144496214Y-89446931D01*
X144636828Y-89433081D01*
X144797562Y-89384323D01*
X144945695Y-89305144D01*
X145075535Y-89198588D01*
X145384894Y-88889229D01*
X145491450Y-88759389D01*
X145570629Y-88611256D01*
X145619387Y-88450522D01*
X145622133Y-88422641D01*
X145707845Y-88414199D01*
X145827543Y-88377890D01*
X145899601Y-88339374D01*
X145899600Y-108193038D01*
X144560199Y-109532440D01*
X144498061Y-109532440D01*
X144298102Y-109572214D01*
X144109744Y-109650235D01*
X143940226Y-109763503D01*
X143869044Y-109834685D01*
X136495060Y-102460701D01*
X136495060Y-100298605D01*
X136536245Y-100264805D01*
X136615597Y-100168114D01*
X136674562Y-100057800D01*
X136710872Y-99938102D01*
X136723132Y-99813620D01*
X136723132Y-99213620D01*
X136710872Y-99089138D01*
X136674562Y-98969440D01*
X136615597Y-98859126D01*
X136578251Y-98813620D01*
X136615597Y-98768114D01*
X136674562Y-98657800D01*
X136710872Y-98538102D01*
X136723132Y-98413620D01*
X136723132Y-97813620D01*
X136710872Y-97689138D01*
X136674562Y-97569440D01*
X136615597Y-97459126D01*
X136536245Y-97362435D01*
X136439554Y-97283083D01*
X136329240Y-97224118D01*
X136310656Y-97218481D01*
X136284999Y-97133899D01*
X136284999Y-96146610D01*
X136764250Y-96145000D01*
X136923000Y-95986250D01*
X136923000Y-95267000D01*
X137177000Y-95267000D01*
X137177000Y-95986250D01*
X137335750Y-96145000D01*
X138250000Y-96148072D01*
X138374482Y-96135812D01*
X138494180Y-96099502D01*
X138604494Y-96040537D01*
X138701185Y-95961185D01*
X138780537Y-95864494D01*
X138839502Y-95754180D01*
X138875812Y-95634482D01*
X138888072Y-95510000D01*
X138885000Y-95425750D01*
X138726250Y-95267000D01*
X137177000Y-95267000D01*
X136923000Y-95267000D01*
X136903000Y-95267000D01*
X136903000Y-95013000D01*
X136923000Y-95013000D01*
X136923000Y-94993000D01*
X137177000Y-94993000D01*
X137177000Y-95013000D01*
X138726250Y-95013000D01*
X138819450Y-94919800D01*
X139291550Y-94919800D01*
X139448750Y-95077000D01*
X139561322Y-95077000D01*
X139473815Y-95148815D01*
X139394463Y-95245506D01*
X139357968Y-95313782D01*
X139290000Y-95381750D01*
X139300355Y-95471672D01*
X139299188Y-95475518D01*
X139286928Y-95600000D01*
X139286928Y-96000000D01*
X139299188Y-96124482D01*
X139299345Y-96125000D01*
X139299188Y-96125518D01*
X139286928Y-96250000D01*
X139286928Y-96650000D01*
X139299188Y-96774482D01*
X139335498Y-96894180D01*
X139394463Y-97004494D01*
X139473815Y-97101185D01*
X139570506Y-97180537D01*
X139612843Y-97203167D01*
X139518829Y-97317725D01*
X139439650Y-97465858D01*
X139390892Y-97626592D01*
X139374428Y-97793750D01*
X139374428Y-98306250D01*
X139390892Y-98473408D01*
X139439650Y-98634142D01*
X139518829Y-98782275D01*
X139625385Y-98912115D01*
X139755225Y-99018671D01*
X139903358Y-99097850D01*
X140064092Y-99146608D01*
X140231250Y-99163072D01*
X140668750Y-99163072D01*
X140835908Y-99146608D01*
X140996642Y-99097850D01*
X141144775Y-99018671D01*
X141237500Y-98942574D01*
X141330225Y-99018671D01*
X141478358Y-99097850D01*
X141639092Y-99146608D01*
X141806250Y-99163072D01*
X142243750Y-99163072D01*
X142410908Y-99146608D01*
X142571642Y-99097850D01*
X142719775Y-99018671D01*
X142849615Y-98912115D01*
X142956171Y-98782275D01*
X143024906Y-98653682D01*
X143102501Y-98590001D01*
X143126304Y-98560997D01*
X143310999Y-98376302D01*
X143340002Y-98352500D01*
X143434975Y-98236775D01*
X143505547Y-98104746D01*
X143549004Y-97961485D01*
X143560001Y-97849832D01*
X143560001Y-97849823D01*
X143563677Y-97812500D01*
X143560001Y-97775177D01*
X143560001Y-96485366D01*
X143716102Y-96550026D01*
X143916061Y-96589800D01*
X144119939Y-96589800D01*
X144319898Y-96550026D01*
X144508256Y-96472005D01*
X144677774Y-96358737D01*
X144821937Y-96214574D01*
X144935205Y-96045056D01*
X145013226Y-95856698D01*
X145053000Y-95656739D01*
X145053000Y-95452861D01*
X145013226Y-95252902D01*
X144935205Y-95064544D01*
X144821937Y-94895026D01*
X144677774Y-94750863D01*
X144508256Y-94637595D01*
X144319898Y-94559574D01*
X144155053Y-94526785D01*
X144074042Y-94460301D01*
X143930634Y-94383647D01*
X143775026Y-94336444D01*
X143653753Y-94324500D01*
X143653750Y-94324500D01*
X143613200Y-94320506D01*
X143572650Y-94324500D01*
X142600511Y-94324500D01*
X142599482Y-94324188D01*
X142475000Y-94311928D01*
X142230811Y-94311928D01*
X142230811Y-93729323D01*
X142234487Y-93692000D01*
X142230811Y-93654678D01*
X142230811Y-93654668D01*
X142219814Y-93543015D01*
X142176357Y-93399754D01*
X142129413Y-93311929D01*
X142105785Y-93267724D01*
X142034610Y-93180998D01*
X142010812Y-93152000D01*
X141981815Y-93128203D01*
X141425200Y-92571589D01*
X141425200Y-86678245D01*
X141425908Y-86671061D01*
X141563001Y-86684563D01*
X141702114Y-86670862D01*
X141835882Y-86630284D01*
X141959163Y-86564389D01*
X142067219Y-86475709D01*
X142173285Y-86369643D01*
X142261965Y-86261587D01*
X142279643Y-86228513D01*
X142312717Y-86210835D01*
X142420773Y-86122155D01*
X142526839Y-86016089D01*
X142615519Y-85908033D01*
X142633197Y-85874960D01*
X142666270Y-85857282D01*
X142774326Y-85768602D01*
X142880392Y-85662536D01*
X142969072Y-85554480D01*
X142969976Y-85552788D01*
X142970134Y-85552707D01*
X143050224Y-85488360D01*
X143050224Y-85380903D01*
X143075545Y-85297431D01*
X143079202Y-85260305D01*
X143116328Y-85256648D01*
X143199804Y-85231326D01*
X143307258Y-85231326D01*
X143371605Y-85151236D01*
X143371686Y-85151079D01*
X143373377Y-85150175D01*
X143481433Y-85061495D01*
X143486719Y-85056209D01*
X143874014Y-85056209D01*
X143874014Y-85280715D01*
X144456847Y-85863548D01*
X145013163Y-85307232D01*
X145013163Y-85082725D01*
X144881516Y-84946733D01*
X144784824Y-84867380D01*
X144674510Y-84808416D01*
X144554812Y-84772107D01*
X144430330Y-84759846D01*
X144305849Y-84772107D01*
X144186151Y-84808416D01*
X144075837Y-84867380D01*
X143979145Y-84946733D01*
X143874014Y-85056209D01*
X143486719Y-85056209D01*
X143587499Y-84955429D01*
X143676179Y-84847373D01*
X143677083Y-84845682D01*
X143677240Y-84845601D01*
X143757330Y-84781254D01*
X143757330Y-84673800D01*
X143782652Y-84590324D01*
X143786309Y-84553198D01*
X143823435Y-84549541D01*
X143906907Y-84524220D01*
X144014364Y-84524220D01*
X144078711Y-84444130D01*
X144078792Y-84443972D01*
X144080484Y-84443068D01*
X144188540Y-84354388D01*
X144294606Y-84248322D01*
X144383286Y-84140266D01*
X144400964Y-84107193D01*
X144434037Y-84089515D01*
X144542093Y-84000835D01*
X144648159Y-83894769D01*
X144736839Y-83786713D01*
X144754517Y-83753640D01*
X144787590Y-83735962D01*
X144895646Y-83647282D01*
X145001712Y-83541216D01*
X145090392Y-83433160D01*
X145108070Y-83400086D01*
X145141144Y-83382408D01*
X145249200Y-83293728D01*
X145355266Y-83187662D01*
X145443946Y-83079606D01*
X145461624Y-83046533D01*
X145494697Y-83028855D01*
X145602753Y-82940175D01*
X145708819Y-82834109D01*
X145797499Y-82726053D01*
X145815177Y-82692979D01*
X145848251Y-82675301D01*
X145956307Y-82586621D01*
X146062373Y-82480555D01*
X146151053Y-82372499D01*
X146211499Y-82259412D01*
X147818675Y-82259412D01*
X148292421Y-82733159D01*
X148314289Y-82759805D01*
X148340935Y-82781673D01*
X148340937Y-82781675D01*
X148420648Y-82847093D01*
X148541993Y-82911953D01*
X148541995Y-82911954D01*
X148673662Y-82951895D01*
X148776283Y-82962002D01*
X148776293Y-82962002D01*
X148810591Y-82965380D01*
X148844889Y-82962002D01*
X149264999Y-82962002D01*
X149264999Y-83055601D01*
X149423747Y-83055601D01*
X149264999Y-83214349D01*
X149262120Y-83241526D01*
X149271319Y-83366271D01*
X149304677Y-83486825D01*
X149360914Y-83598554D01*
X149437868Y-83697165D01*
X149532581Y-83778869D01*
X149641413Y-83840525D01*
X149760183Y-83879764D01*
X149868249Y-83892199D01*
X150005200Y-83755248D01*
X150032582Y-83778869D01*
X150141414Y-83840525D01*
X150199150Y-83859600D01*
X150231749Y-83892199D01*
X150300000Y-83884346D01*
X150368250Y-83892199D01*
X150400849Y-83859600D01*
X150458585Y-83840525D01*
X150550000Y-83788736D01*
X150641414Y-83840525D01*
X150699151Y-83859600D01*
X150731750Y-83892199D01*
X150800000Y-83884346D01*
X150868250Y-83892199D01*
X150900849Y-83859600D01*
X150958586Y-83840525D01*
X151050001Y-83788736D01*
X151141415Y-83840525D01*
X151199151Y-83859600D01*
X151231750Y-83892199D01*
X151300001Y-83884346D01*
X151368251Y-83892199D01*
X151400850Y-83859600D01*
X151458586Y-83840525D01*
X151567418Y-83778869D01*
X151594800Y-83755248D01*
X151731751Y-83892199D01*
X151839817Y-83879764D01*
X151958587Y-83840525D01*
X152067419Y-83778869D01*
X152162132Y-83697165D01*
X152239086Y-83598554D01*
X152295323Y-83486825D01*
X152302227Y-83461876D01*
X152303496Y-83462001D01*
X152303506Y-83462001D01*
X152337804Y-83465379D01*
X152372102Y-83462001D01*
X153010646Y-83462001D01*
X152960498Y-83555820D01*
X152924188Y-83675518D01*
X152911928Y-83800000D01*
X152911928Y-87200000D01*
X152924188Y-87324482D01*
X152926460Y-87331970D01*
X152888017Y-87378813D01*
X152829336Y-87488596D01*
X152793201Y-87607718D01*
X152781000Y-87731600D01*
X152781000Y-90779600D01*
X152793201Y-90903482D01*
X152829336Y-91022604D01*
X152888017Y-91132387D01*
X152966987Y-91228613D01*
X153063213Y-91307583D01*
X153172996Y-91366264D01*
X153292118Y-91402399D01*
X153416000Y-91414600D01*
X154838400Y-91414600D01*
X154962282Y-91402399D01*
X154965400Y-91401453D01*
X154968518Y-91402399D01*
X155092400Y-91414600D01*
X156514800Y-91414600D01*
X156591000Y-91407095D01*
X156591000Y-109312814D01*
X156475518Y-109324188D01*
X156355820Y-109360498D01*
X156245506Y-109419463D01*
X156148815Y-109498815D01*
X156069463Y-109595506D01*
X156010498Y-109705820D01*
X155974188Y-109825518D01*
X155961928Y-109950000D01*
X155961928Y-111750000D01*
X155974188Y-111874482D01*
X156010498Y-111994180D01*
X156069463Y-112104494D01*
X156148815Y-112201185D01*
X156245506Y-112280537D01*
X156355820Y-112339502D01*
X156475518Y-112375812D01*
X156591000Y-112387186D01*
X156591000Y-114134198D01*
X152206799Y-118518400D01*
X149682200Y-118518400D01*
X149682200Y-115773200D01*
X149669999Y-115649318D01*
X149633864Y-115530196D01*
X149575183Y-115420413D01*
X149496213Y-115324187D01*
X149399987Y-115245217D01*
X149290204Y-115186536D01*
X149171082Y-115150401D01*
X149047200Y-115138200D01*
X145525384Y-115138200D01*
X145463516Y-115087426D01*
X145331487Y-115016854D01*
X145188226Y-114973397D01*
X145076573Y-114962400D01*
X145076562Y-114962400D01*
X145039240Y-114958724D01*
X145001918Y-114962400D01*
X141312133Y-114962400D01*
X141274800Y-114958723D01*
X141237467Y-114962400D01*
X141125814Y-114973397D01*
X140982553Y-115016854D01*
X140850524Y-115087426D01*
X140734799Y-115182399D01*
X140711000Y-115211398D01*
X140676198Y-115246200D01*
X140614061Y-115246200D01*
X140414102Y-115285974D01*
X140225744Y-115363995D01*
X140056226Y-115477263D01*
X139912063Y-115621426D01*
X139798795Y-115790944D01*
X139720774Y-115979302D01*
X139681000Y-116179261D01*
X139681000Y-116383139D01*
X139720774Y-116583098D01*
X139798795Y-116771456D01*
X139912063Y-116940974D01*
X140056226Y-117085137D01*
X140225744Y-117198405D01*
X140414102Y-117276426D01*
X140614061Y-117316200D01*
X140817939Y-117316200D01*
X141017898Y-117276426D01*
X141206256Y-117198405D01*
X141375774Y-117085137D01*
X141519937Y-116940974D01*
X141633205Y-116771456D01*
X141711226Y-116583098D01*
X141731256Y-116482400D01*
X141875835Y-116482400D01*
X141865400Y-116534861D01*
X141865400Y-116738739D01*
X141905174Y-116938698D01*
X141983195Y-117127056D01*
X142096463Y-117296574D01*
X142240626Y-117440737D01*
X142410144Y-117554005D01*
X142576073Y-117622736D01*
X142594718Y-117684201D01*
X142594853Y-117684645D01*
X142665425Y-117816675D01*
X142700626Y-117859567D01*
X142760398Y-117932400D01*
X142789402Y-117956203D01*
X144622601Y-119789403D01*
X144646399Y-119818401D01*
X144762124Y-119913374D01*
X144894153Y-119983946D01*
X145037414Y-120027403D01*
X145149067Y-120038400D01*
X145149076Y-120038400D01*
X145186399Y-120042076D01*
X145223722Y-120038400D01*
X152484278Y-120038400D01*
X152521600Y-120042076D01*
X152558922Y-120038400D01*
X152558933Y-120038400D01*
X152670586Y-120027403D01*
X152813847Y-119983946D01*
X152945876Y-119913374D01*
X153061601Y-119818401D01*
X153085404Y-119789397D01*
X157624412Y-115250390D01*
X159616978Y-115239791D01*
X159737482Y-115227599D01*
X159856604Y-115191464D01*
X159966387Y-115132783D01*
X160062613Y-115053813D01*
X160141583Y-114957587D01*
X160200264Y-114847804D01*
X160236399Y-114728682D01*
X160248600Y-114604800D01*
X160248600Y-112300056D01*
X160335796Y-112346664D01*
X160454918Y-112382799D01*
X160578800Y-112395000D01*
X163169600Y-112395000D01*
X163293482Y-112382799D01*
X163412604Y-112346664D01*
X163522387Y-112287983D01*
X163618613Y-112209013D01*
X163697583Y-112112787D01*
X163756264Y-112003004D01*
X163792399Y-111883882D01*
X163804600Y-111760000D01*
X163804600Y-106527600D01*
X163792399Y-106403718D01*
X163756264Y-106284596D01*
X163697583Y-106174813D01*
X163618613Y-106078587D01*
X163522387Y-105999617D01*
X163412604Y-105940936D01*
X163293482Y-105904801D01*
X163169600Y-105892600D01*
X163137763Y-105892600D01*
X163140706Y-105889014D01*
X163278599Y-105631034D01*
X163363513Y-105351111D01*
X163392185Y-105060000D01*
X163363513Y-104768889D01*
X163278599Y-104488966D01*
X163140706Y-104230986D01*
X162955134Y-104004866D01*
X162786535Y-103866500D01*
X163377328Y-103866500D01*
X163389588Y-103990982D01*
X163425898Y-104110680D01*
X163484863Y-104220994D01*
X163564215Y-104317685D01*
X163660906Y-104397037D01*
X163771220Y-104456002D01*
X163890918Y-104492312D01*
X164015400Y-104504572D01*
X164204650Y-104501500D01*
X164363400Y-104342750D01*
X164363400Y-103556000D01*
X164617400Y-103556000D01*
X164617400Y-104342750D01*
X164776150Y-104501500D01*
X164965400Y-104504572D01*
X165089882Y-104492312D01*
X165209580Y-104456002D01*
X165319894Y-104397037D01*
X165416585Y-104317685D01*
X165495937Y-104220994D01*
X165554902Y-104110680D01*
X165591212Y-103990982D01*
X165603472Y-103866500D01*
X165600400Y-103714750D01*
X165441650Y-103556000D01*
X164617400Y-103556000D01*
X164363400Y-103556000D01*
X163539150Y-103556000D01*
X163380400Y-103714750D01*
X163377328Y-103866500D01*
X162786535Y-103866500D01*
X162729014Y-103819294D01*
X162674209Y-103790000D01*
X162729014Y-103760706D01*
X162955134Y-103575134D01*
X163140706Y-103349014D01*
X163278599Y-103091034D01*
X163363513Y-102811111D01*
X163392185Y-102520000D01*
X163363513Y-102228889D01*
X163278599Y-101948966D01*
X163140706Y-101690986D01*
X162955134Y-101464866D01*
X162729014Y-101279294D01*
X162674209Y-101250000D01*
X162729014Y-101220706D01*
X162955134Y-101035134D01*
X163140706Y-100809014D01*
X163278599Y-100551034D01*
X163363513Y-100271111D01*
X163377328Y-100130845D01*
X163377328Y-100523450D01*
X163393792Y-100690608D01*
X163442550Y-100851342D01*
X163521729Y-100999475D01*
X163587280Y-101079350D01*
X163521729Y-101159225D01*
X163442550Y-101307358D01*
X163393792Y-101468092D01*
X163377328Y-101635250D01*
X163377328Y-102072750D01*
X163393792Y-102239908D01*
X163442550Y-102400642D01*
X163521729Y-102548775D01*
X163539500Y-102570430D01*
X163484863Y-102637006D01*
X163425898Y-102747320D01*
X163389588Y-102867018D01*
X163377328Y-102991500D01*
X163380400Y-103143250D01*
X163539150Y-103302000D01*
X164363400Y-103302000D01*
X164363400Y-103282000D01*
X164617400Y-103282000D01*
X164617400Y-103302000D01*
X165441650Y-103302000D01*
X165600400Y-103143250D01*
X165603472Y-102991500D01*
X165591212Y-102867018D01*
X165554902Y-102747320D01*
X165495937Y-102637006D01*
X165441300Y-102570430D01*
X165459071Y-102548775D01*
X165538250Y-102400642D01*
X165587008Y-102239908D01*
X165603472Y-102072750D01*
X165603472Y-101635250D01*
X165587008Y-101468092D01*
X165538250Y-101307358D01*
X165459071Y-101159225D01*
X165402800Y-101090658D01*
X165402800Y-101068042D01*
X165459071Y-100999475D01*
X165538250Y-100851342D01*
X165587008Y-100690608D01*
X165603472Y-100523450D01*
X165603472Y-100085950D01*
X165587008Y-99918792D01*
X165538250Y-99758058D01*
X165459071Y-99609925D01*
X165382974Y-99517200D01*
X165459071Y-99424475D01*
X165538250Y-99276342D01*
X165587008Y-99115608D01*
X165603472Y-98948450D01*
X165603472Y-98510950D01*
X165587008Y-98343792D01*
X165538250Y-98183058D01*
X165486260Y-98085791D01*
X165559983Y-97975456D01*
X165638004Y-97787098D01*
X165677778Y-97587139D01*
X165677778Y-97383261D01*
X165638004Y-97183302D01*
X165559983Y-96994944D01*
X165446715Y-96825426D01*
X165302552Y-96681263D01*
X165133034Y-96567995D01*
X164944676Y-96489974D01*
X164912111Y-96483497D01*
X164970126Y-96411752D01*
X165028009Y-96301547D01*
X165063280Y-96182166D01*
X165074583Y-96058199D01*
X165023783Y-89047799D01*
X165017497Y-88963156D01*
X164988006Y-88842218D01*
X164935488Y-88729357D01*
X164275088Y-87611757D01*
X164222612Y-87536078D01*
X164135329Y-87447323D01*
X164032408Y-87377302D01*
X163917805Y-87328705D01*
X163876662Y-87315848D01*
X163888072Y-87200000D01*
X163888072Y-83800000D01*
X163875812Y-83675518D01*
X163839502Y-83555820D01*
X163780537Y-83445506D01*
X163701185Y-83348815D01*
X163604494Y-83269463D01*
X163494180Y-83210498D01*
X163488071Y-83208645D01*
X163488071Y-81850001D01*
X163487786Y-81847111D01*
X163927353Y-83034361D01*
X163927353Y-83034361D01*
G37*
X163927353Y-83034361D02*
X164822931Y-85906814D01*
X165566951Y-88822207D01*
X166158898Y-91780173D01*
X166199038Y-92015839D01*
X166198150Y-112120359D01*
X165632050Y-115028217D01*
X164903324Y-117947397D01*
X164022807Y-120824476D01*
X162992931Y-123651505D01*
X161813511Y-126427821D01*
X161682290Y-126713269D01*
X161182327Y-127615935D01*
X160571319Y-128418552D01*
X159850848Y-129124562D01*
X159036006Y-129719171D01*
X158143861Y-130189926D01*
X157193108Y-130526962D01*
X156187489Y-130726428D01*
X155887263Y-130756760D01*
X151766596Y-131008711D01*
X147638543Y-131109518D01*
X143509492Y-131058990D01*
X139381135Y-130856999D01*
X138034442Y-130758078D01*
X137015889Y-130601296D01*
X136051355Y-130305475D01*
X135139628Y-129873517D01*
X134299808Y-129314470D01*
X133549483Y-128640043D01*
X132904379Y-127864370D01*
X132369712Y-126990140D01*
X132227285Y-126696815D01*
X131035406Y-123931497D01*
X129990723Y-121109847D01*
X129095139Y-118237371D01*
X128351126Y-115322001D01*
X127759182Y-112364038D01*
X127719039Y-112128366D01*
X127718907Y-92023673D01*
X128285014Y-89115776D01*
X128712734Y-87402385D01*
X128809744Y-87467205D01*
X128998102Y-87545226D01*
X129198061Y-87585000D01*
X129401939Y-87585000D01*
X129601898Y-87545226D01*
X129790256Y-87467205D01*
X129959774Y-87353937D01*
X130103937Y-87209774D01*
X130217205Y-87040256D01*
X130280876Y-86886543D01*
X130347848Y-86873221D01*
X130536206Y-86795200D01*
X130705724Y-86681932D01*
X130849887Y-86537769D01*
X130898032Y-86465714D01*
X131057632Y-86465714D01*
X131257591Y-86425940D01*
X131445949Y-86347919D01*
X131615467Y-86234651D01*
X131759630Y-86090488D01*
X131872898Y-85920970D01*
X131893612Y-85870963D01*
X131908089Y-85873843D01*
X132111967Y-85873843D01*
X132311926Y-85834069D01*
X132500284Y-85756048D01*
X132669802Y-85642780D01*
X132774489Y-85538093D01*
X132774489Y-86637682D01*
X130630344Y-88781829D01*
X130603698Y-88803697D01*
X130581830Y-88830343D01*
X130581826Y-88830347D01*
X130516409Y-88910057D01*
X130451549Y-89031402D01*
X130439831Y-89070032D01*
X130411608Y-89163070D01*
X130404148Y-89238815D01*
X130398122Y-89300000D01*
X130401501Y-89334308D01*
X130401500Y-93885702D01*
X130398122Y-93920000D01*
X130401500Y-93954298D01*
X130401500Y-93954308D01*
X130411607Y-94056929D01*
X130451548Y-94188596D01*
X130451549Y-94188598D01*
X130516409Y-94309943D01*
X130581826Y-94389653D01*
X130581829Y-94389656D01*
X130603697Y-94416302D01*
X130630344Y-94438171D01*
X131311928Y-95119756D01*
X131311928Y-95510000D01*
X131324188Y-95634482D01*
X131360498Y-95754180D01*
X131419463Y-95864494D01*
X131498815Y-95961185D01*
X131595506Y-96040537D01*
X131705820Y-96099502D01*
X131825518Y-96135812D01*
X131950000Y-96148072D01*
X133990000Y-96148072D01*
X133990001Y-101164290D01*
X133973353Y-101114245D01*
X133746329Y-100714612D01*
X133446007Y-100366685D01*
X133083825Y-100083718D01*
X132673579Y-99876487D01*
X132230894Y-99752888D01*
X131772634Y-99717626D01*
X131316251Y-99772047D01*
X130879131Y-99914076D01*
X130477923Y-100138304D01*
X130127908Y-100436190D01*
X129842419Y-100796387D01*
X129632329Y-101205177D01*
X129505642Y-101646987D01*
X129467183Y-102104991D01*
X129518415Y-102561742D01*
X129657389Y-102999843D01*
X129878811Y-103402607D01*
X130174246Y-103754693D01*
X130532442Y-104042690D01*
X130939754Y-104255628D01*
X131380670Y-104385396D01*
X131838394Y-104427053D01*
X132295492Y-104379010D01*
X132734552Y-104243098D01*
X133138852Y-104024493D01*
X133492992Y-103731524D01*
X133783483Y-103375347D01*
X133990001Y-102986943D01*
X133990001Y-106635507D01*
X133986324Y-106672840D01*
X134000998Y-106821825D01*
X134044454Y-106965086D01*
X134115026Y-107097116D01*
X134186201Y-107183842D01*
X134210000Y-107212841D01*
X134238998Y-107236639D01*
X139012980Y-112010622D01*
X139012980Y-112072759D01*
X139052754Y-112272718D01*
X139130775Y-112461076D01*
X139244043Y-112630594D01*
X139337417Y-112723968D01*
X139290795Y-112793744D01*
X139212774Y-112982102D01*
X139173000Y-113182061D01*
X139173000Y-113244198D01*
X138013599Y-114403600D01*
X137213711Y-114403600D01*
X137169774Y-114359663D01*
X137000256Y-114246395D01*
X136811898Y-114168374D01*
X136611939Y-114128600D01*
X136408061Y-114128600D01*
X136208102Y-114168374D01*
X136019744Y-114246395D01*
X135850226Y-114359663D01*
X135706063Y-114503826D01*
X135592795Y-114673344D01*
X135514774Y-114861702D01*
X135475000Y-115061661D01*
X135475000Y-115265539D01*
X135514774Y-115465498D01*
X135592795Y-115653856D01*
X135706063Y-115823374D01*
X135850226Y-115967537D01*
X136019744Y-116080805D01*
X136208102Y-116158826D01*
X136408061Y-116198600D01*
X136611939Y-116198600D01*
X136811898Y-116158826D01*
X137000256Y-116080805D01*
X137169774Y-115967537D01*
X137213711Y-115923600D01*
X138291078Y-115923600D01*
X138328400Y-115927276D01*
X138365722Y-115923600D01*
X138365733Y-115923600D01*
X138477386Y-115912603D01*
X138620647Y-115869146D01*
X138752676Y-115798574D01*
X138868401Y-115703601D01*
X138892204Y-115674597D01*
X140247802Y-114319000D01*
X140309939Y-114319000D01*
X140509898Y-114279226D01*
X140698256Y-114201205D01*
X140867774Y-114087937D01*
X141011937Y-113943774D01*
X141125205Y-113774256D01*
X141203226Y-113585898D01*
X141243000Y-113385939D01*
X141243000Y-113182061D01*
X141203226Y-112982102D01*
X141125205Y-112793744D01*
X141011937Y-112624226D01*
X140918563Y-112530852D01*
X140965185Y-112461076D01*
X141043206Y-112272718D01*
X141082980Y-112072759D01*
X141082980Y-111868881D01*
X141043206Y-111668922D01*
X140965185Y-111480564D01*
X140851917Y-111311046D01*
X140707754Y-111166883D01*
X140538236Y-111053615D01*
X140349878Y-110975594D01*
X140149919Y-110935820D01*
X140087782Y-110935820D01*
X135510000Y-106358039D01*
X135510000Y-103625243D01*
X145933759Y-114049003D01*
X145957557Y-114078001D01*
X146073282Y-114172974D01*
X146205311Y-114243546D01*
X146348572Y-114287003D01*
X146460225Y-114298000D01*
X146460233Y-114298000D01*
X146497558Y-114301676D01*
X146534883Y-114298000D01*
X147022689Y-114298000D01*
X147066626Y-114341937D01*
X147236144Y-114455205D01*
X147424502Y-114533226D01*
X147624461Y-114573000D01*
X147828339Y-114573000D01*
X148028298Y-114533226D01*
X148216656Y-114455205D01*
X148386174Y-114341937D01*
X148530337Y-114197774D01*
X148643605Y-114028256D01*
X148721626Y-113839898D01*
X148761400Y-113639939D01*
X148761400Y-113436061D01*
X148721626Y-113236102D01*
X148643605Y-113047744D01*
X148530337Y-112878226D01*
X148386174Y-112734063D01*
X148216656Y-112620795D01*
X148028298Y-112542774D01*
X147828339Y-112503000D01*
X147766202Y-112503000D01*
X146657600Y-111394399D01*
X146657600Y-111244511D01*
X146701537Y-111200574D01*
X146814805Y-111031056D01*
X146892826Y-110842698D01*
X146932600Y-110642739D01*
X146932600Y-110438861D01*
X146892826Y-110238902D01*
X146814805Y-110050544D01*
X146701537Y-109881026D01*
X146557374Y-109736863D01*
X146526205Y-109716037D01*
X147170604Y-109071638D01*
X147199601Y-109047841D01*
X147294574Y-108932116D01*
X147365146Y-108800087D01*
X147408603Y-108656826D01*
X147419600Y-108545173D01*
X147419600Y-108545164D01*
X147423276Y-108507841D01*
X147419600Y-108470518D01*
X147419600Y-85648931D01*
X147443217Y-85625314D01*
X147556485Y-85455796D01*
X147634506Y-85267438D01*
X147674280Y-85067479D01*
X147674280Y-84863601D01*
X147634506Y-84663642D01*
X147556485Y-84475284D01*
X147443217Y-84305766D01*
X147299054Y-84161603D01*
X147129536Y-84048335D01*
X146941178Y-83970314D01*
X146741219Y-83930540D01*
X146537341Y-83930540D01*
X146337382Y-83970314D01*
X146149024Y-84048335D01*
X145979506Y-84161603D01*
X145835343Y-84305766D01*
X145722075Y-84475284D01*
X145644054Y-84663642D01*
X145604280Y-84863601D01*
X145604280Y-85067479D01*
X145644054Y-85267438D01*
X145722075Y-85455796D01*
X145835343Y-85625314D01*
X145899601Y-85689572D01*
X145899601Y-85979507D01*
X145884824Y-85967380D01*
X145774510Y-85908416D01*
X145710884Y-85889116D01*
X145691584Y-85825490D01*
X145632620Y-85715176D01*
X145553267Y-85618484D01*
X145417275Y-85486837D01*
X145192768Y-85486837D01*
X144636452Y-86043153D01*
X145556847Y-86963548D01*
X145570990Y-86949406D01*
X145750595Y-87129011D01*
X145736452Y-87143153D01*
X145750595Y-87157296D01*
X145570990Y-87336901D01*
X145556847Y-87322758D01*
X145542705Y-87336901D01*
X145363100Y-87157296D01*
X145377242Y-87143153D01*
X144456847Y-86222758D01*
X144442705Y-86236901D01*
X144263100Y-86057296D01*
X144277242Y-86043153D01*
X143694409Y-85460320D01*
X143469903Y-85460320D01*
X143360427Y-85565451D01*
X143281074Y-85662143D01*
X143222110Y-85772457D01*
X143185801Y-85892155D01*
X143177359Y-85977867D01*
X143149478Y-85980613D01*
X142988744Y-86029371D01*
X142840611Y-86108550D01*
X142710771Y-86215106D01*
X142401412Y-86524465D01*
X142294856Y-86654305D01*
X142215677Y-86802438D01*
X142166919Y-86963172D01*
X142150455Y-87130330D01*
X142166919Y-87297488D01*
X142215677Y-87458222D01*
X142294856Y-87606355D01*
X142401412Y-87736195D01*
X142763805Y-88098588D01*
X142893645Y-88205144D01*
X142981137Y-88251910D01*
X142840226Y-88346063D01*
X142696063Y-88490226D01*
X142582795Y-88659744D01*
X142504774Y-88848102D01*
X142465000Y-89048061D01*
X142465000Y-89251939D01*
X142504774Y-89451898D01*
X142582795Y-89640256D01*
X142696063Y-89809774D01*
X142840226Y-89953937D01*
X143009744Y-90067205D01*
X143198102Y-90145226D01*
X143398061Y-90185000D01*
X143601939Y-90185000D01*
X143801898Y-90145226D01*
X143990256Y-90067205D01*
X144159774Y-89953937D01*
X144303937Y-89809774D01*
X144417205Y-89640256D01*
X144495226Y-89451898D01*
X144496214Y-89446931D01*
X144636828Y-89433081D01*
X144797562Y-89384323D01*
X144945695Y-89305144D01*
X145075535Y-89198588D01*
X145384894Y-88889229D01*
X145491450Y-88759389D01*
X145570629Y-88611256D01*
X145619387Y-88450522D01*
X145622133Y-88422641D01*
X145707845Y-88414199D01*
X145827543Y-88377890D01*
X145899601Y-88339374D01*
X145899600Y-108193038D01*
X144560199Y-109532440D01*
X144498061Y-109532440D01*
X144298102Y-109572214D01*
X144109744Y-109650235D01*
X143940226Y-109763503D01*
X143869044Y-109834685D01*
X136495060Y-102460701D01*
X136495060Y-100298605D01*
X136536245Y-100264805D01*
X136615597Y-100168114D01*
X136674562Y-100057800D01*
X136710872Y-99938102D01*
X136723132Y-99813620D01*
X136723132Y-99213620D01*
X136710872Y-99089138D01*
X136674562Y-98969440D01*
X136615597Y-98859126D01*
X136578251Y-98813620D01*
X136615597Y-98768114D01*
X136674562Y-98657800D01*
X136710872Y-98538102D01*
X136723132Y-98413620D01*
X136723132Y-97813620D01*
X136710872Y-97689138D01*
X136674562Y-97569440D01*
X136615597Y-97459126D01*
X136536245Y-97362435D01*
X136439554Y-97283083D01*
X136329240Y-97224118D01*
X136310656Y-97218481D01*
X136284999Y-97133899D01*
X136284999Y-96146610D01*
X136764250Y-96145000D01*
X136923000Y-95986250D01*
X136923000Y-95267000D01*
X137177000Y-95267000D01*
X137177000Y-95986250D01*
X137335750Y-96145000D01*
X138250000Y-96148072D01*
X138374482Y-96135812D01*
X138494180Y-96099502D01*
X138604494Y-96040537D01*
X138701185Y-95961185D01*
X138780537Y-95864494D01*
X138839502Y-95754180D01*
X138875812Y-95634482D01*
X138888072Y-95510000D01*
X138885000Y-95425750D01*
X138726250Y-95267000D01*
X137177000Y-95267000D01*
X136923000Y-95267000D01*
X136903000Y-95267000D01*
X136903000Y-95013000D01*
X136923000Y-95013000D01*
X136923000Y-94993000D01*
X137177000Y-94993000D01*
X137177000Y-95013000D01*
X138726250Y-95013000D01*
X138819450Y-94919800D01*
X139291550Y-94919800D01*
X139448750Y-95077000D01*
X139561322Y-95077000D01*
X139473815Y-95148815D01*
X139394463Y-95245506D01*
X139357968Y-95313782D01*
X139290000Y-95381750D01*
X139300355Y-95471672D01*
X139299188Y-95475518D01*
X139286928Y-95600000D01*
X139286928Y-96000000D01*
X139299188Y-96124482D01*
X139299345Y-96125000D01*
X139299188Y-96125518D01*
X139286928Y-96250000D01*
X139286928Y-96650000D01*
X139299188Y-96774482D01*
X139335498Y-96894180D01*
X139394463Y-97004494D01*
X139473815Y-97101185D01*
X139570506Y-97180537D01*
X139612843Y-97203167D01*
X139518829Y-97317725D01*
X139439650Y-97465858D01*
X139390892Y-97626592D01*
X139374428Y-97793750D01*
X139374428Y-98306250D01*
X139390892Y-98473408D01*
X139439650Y-98634142D01*
X139518829Y-98782275D01*
X139625385Y-98912115D01*
X139755225Y-99018671D01*
X139903358Y-99097850D01*
X140064092Y-99146608D01*
X140231250Y-99163072D01*
X140668750Y-99163072D01*
X140835908Y-99146608D01*
X140996642Y-99097850D01*
X141144775Y-99018671D01*
X141237500Y-98942574D01*
X141330225Y-99018671D01*
X141478358Y-99097850D01*
X141639092Y-99146608D01*
X141806250Y-99163072D01*
X142243750Y-99163072D01*
X142410908Y-99146608D01*
X142571642Y-99097850D01*
X142719775Y-99018671D01*
X142849615Y-98912115D01*
X142956171Y-98782275D01*
X143024906Y-98653682D01*
X143102501Y-98590001D01*
X143126304Y-98560997D01*
X143310999Y-98376302D01*
X143340002Y-98352500D01*
X143434975Y-98236775D01*
X143505547Y-98104746D01*
X143549004Y-97961485D01*
X143560001Y-97849832D01*
X143560001Y-97849823D01*
X143563677Y-97812500D01*
X143560001Y-97775177D01*
X143560001Y-96485366D01*
X143716102Y-96550026D01*
X143916061Y-96589800D01*
X144119939Y-96589800D01*
X144319898Y-96550026D01*
X144508256Y-96472005D01*
X144677774Y-96358737D01*
X144821937Y-96214574D01*
X144935205Y-96045056D01*
X145013226Y-95856698D01*
X145053000Y-95656739D01*
X145053000Y-95452861D01*
X145013226Y-95252902D01*
X144935205Y-95064544D01*
X144821937Y-94895026D01*
X144677774Y-94750863D01*
X144508256Y-94637595D01*
X144319898Y-94559574D01*
X144155053Y-94526785D01*
X144074042Y-94460301D01*
X143930634Y-94383647D01*
X143775026Y-94336444D01*
X143653753Y-94324500D01*
X143653750Y-94324500D01*
X143613200Y-94320506D01*
X143572650Y-94324500D01*
X142600511Y-94324500D01*
X142599482Y-94324188D01*
X142475000Y-94311928D01*
X142230811Y-94311928D01*
X142230811Y-93729323D01*
X142234487Y-93692000D01*
X142230811Y-93654678D01*
X142230811Y-93654668D01*
X142219814Y-93543015D01*
X142176357Y-93399754D01*
X142129413Y-93311929D01*
X142105785Y-93267724D01*
X142034610Y-93180998D01*
X142010812Y-93152000D01*
X141981815Y-93128203D01*
X141425200Y-92571589D01*
X141425200Y-86678245D01*
X141425908Y-86671061D01*
X141563001Y-86684563D01*
X141702114Y-86670862D01*
X141835882Y-86630284D01*
X141959163Y-86564389D01*
X142067219Y-86475709D01*
X142173285Y-86369643D01*
X142261965Y-86261587D01*
X142279643Y-86228513D01*
X142312717Y-86210835D01*
X142420773Y-86122155D01*
X142526839Y-86016089D01*
X142615519Y-85908033D01*
X142633197Y-85874960D01*
X142666270Y-85857282D01*
X142774326Y-85768602D01*
X142880392Y-85662536D01*
X142969072Y-85554480D01*
X142969976Y-85552788D01*
X142970134Y-85552707D01*
X143050224Y-85488360D01*
X143050224Y-85380903D01*
X143075545Y-85297431D01*
X143079202Y-85260305D01*
X143116328Y-85256648D01*
X143199804Y-85231326D01*
X143307258Y-85231326D01*
X143371605Y-85151236D01*
X143371686Y-85151079D01*
X143373377Y-85150175D01*
X143481433Y-85061495D01*
X143486719Y-85056209D01*
X143874014Y-85056209D01*
X143874014Y-85280715D01*
X144456847Y-85863548D01*
X145013163Y-85307232D01*
X145013163Y-85082725D01*
X144881516Y-84946733D01*
X144784824Y-84867380D01*
X144674510Y-84808416D01*
X144554812Y-84772107D01*
X144430330Y-84759846D01*
X144305849Y-84772107D01*
X144186151Y-84808416D01*
X144075837Y-84867380D01*
X143979145Y-84946733D01*
X143874014Y-85056209D01*
X143486719Y-85056209D01*
X143587499Y-84955429D01*
X143676179Y-84847373D01*
X143677083Y-84845682D01*
X143677240Y-84845601D01*
X143757330Y-84781254D01*
X143757330Y-84673800D01*
X143782652Y-84590324D01*
X143786309Y-84553198D01*
X143823435Y-84549541D01*
X143906907Y-84524220D01*
X144014364Y-84524220D01*
X144078711Y-84444130D01*
X144078792Y-84443972D01*
X144080484Y-84443068D01*
X144188540Y-84354388D01*
X144294606Y-84248322D01*
X144383286Y-84140266D01*
X144400964Y-84107193D01*
X144434037Y-84089515D01*
X144542093Y-84000835D01*
X144648159Y-83894769D01*
X144736839Y-83786713D01*
X144754517Y-83753640D01*
X144787590Y-83735962D01*
X144895646Y-83647282D01*
X145001712Y-83541216D01*
X145090392Y-83433160D01*
X145108070Y-83400086D01*
X145141144Y-83382408D01*
X145249200Y-83293728D01*
X145355266Y-83187662D01*
X145443946Y-83079606D01*
X145461624Y-83046533D01*
X145494697Y-83028855D01*
X145602753Y-82940175D01*
X145708819Y-82834109D01*
X145797499Y-82726053D01*
X145815177Y-82692979D01*
X145848251Y-82675301D01*
X145956307Y-82586621D01*
X146062373Y-82480555D01*
X146151053Y-82372499D01*
X146211499Y-82259412D01*
X147818675Y-82259412D01*
X148292421Y-82733159D01*
X148314289Y-82759805D01*
X148340935Y-82781673D01*
X148340937Y-82781675D01*
X148420648Y-82847093D01*
X148541993Y-82911953D01*
X148541995Y-82911954D01*
X148673662Y-82951895D01*
X148776283Y-82962002D01*
X148776293Y-82962002D01*
X148810591Y-82965380D01*
X148844889Y-82962002D01*
X149264999Y-82962002D01*
X149264999Y-83055601D01*
X149423747Y-83055601D01*
X149264999Y-83214349D01*
X149262120Y-83241526D01*
X149271319Y-83366271D01*
X149304677Y-83486825D01*
X149360914Y-83598554D01*
X149437868Y-83697165D01*
X149532581Y-83778869D01*
X149641413Y-83840525D01*
X149760183Y-83879764D01*
X149868249Y-83892199D01*
X150005200Y-83755248D01*
X150032582Y-83778869D01*
X150141414Y-83840525D01*
X150199150Y-83859600D01*
X150231749Y-83892199D01*
X150300000Y-83884346D01*
X150368250Y-83892199D01*
X150400849Y-83859600D01*
X150458585Y-83840525D01*
X150550000Y-83788736D01*
X150641414Y-83840525D01*
X150699151Y-83859600D01*
X150731750Y-83892199D01*
X150800000Y-83884346D01*
X150868250Y-83892199D01*
X150900849Y-83859600D01*
X150958586Y-83840525D01*
X151050001Y-83788736D01*
X151141415Y-83840525D01*
X151199151Y-83859600D01*
X151231750Y-83892199D01*
X151300001Y-83884346D01*
X151368251Y-83892199D01*
X151400850Y-83859600D01*
X151458586Y-83840525D01*
X151567418Y-83778869D01*
X151594800Y-83755248D01*
X151731751Y-83892199D01*
X151839817Y-83879764D01*
X151958587Y-83840525D01*
X152067419Y-83778869D01*
X152162132Y-83697165D01*
X152239086Y-83598554D01*
X152295323Y-83486825D01*
X152302227Y-83461876D01*
X152303496Y-83462001D01*
X152303506Y-83462001D01*
X152337804Y-83465379D01*
X152372102Y-83462001D01*
X153010646Y-83462001D01*
X152960498Y-83555820D01*
X152924188Y-83675518D01*
X152911928Y-83800000D01*
X152911928Y-87200000D01*
X152924188Y-87324482D01*
X152926460Y-87331970D01*
X152888017Y-87378813D01*
X152829336Y-87488596D01*
X152793201Y-87607718D01*
X152781000Y-87731600D01*
X152781000Y-90779600D01*
X152793201Y-90903482D01*
X152829336Y-91022604D01*
X152888017Y-91132387D01*
X152966987Y-91228613D01*
X153063213Y-91307583D01*
X153172996Y-91366264D01*
X153292118Y-91402399D01*
X153416000Y-91414600D01*
X154838400Y-91414600D01*
X154962282Y-91402399D01*
X154965400Y-91401453D01*
X154968518Y-91402399D01*
X155092400Y-91414600D01*
X156514800Y-91414600D01*
X156591000Y-91407095D01*
X156591000Y-109312814D01*
X156475518Y-109324188D01*
X156355820Y-109360498D01*
X156245506Y-109419463D01*
X156148815Y-109498815D01*
X156069463Y-109595506D01*
X156010498Y-109705820D01*
X155974188Y-109825518D01*
X155961928Y-109950000D01*
X155961928Y-111750000D01*
X155974188Y-111874482D01*
X156010498Y-111994180D01*
X156069463Y-112104494D01*
X156148815Y-112201185D01*
X156245506Y-112280537D01*
X156355820Y-112339502D01*
X156475518Y-112375812D01*
X156591000Y-112387186D01*
X156591000Y-114134198D01*
X152206799Y-118518400D01*
X149682200Y-118518400D01*
X149682200Y-115773200D01*
X149669999Y-115649318D01*
X149633864Y-115530196D01*
X149575183Y-115420413D01*
X149496213Y-115324187D01*
X149399987Y-115245217D01*
X149290204Y-115186536D01*
X149171082Y-115150401D01*
X149047200Y-115138200D01*
X145525384Y-115138200D01*
X145463516Y-115087426D01*
X145331487Y-115016854D01*
X145188226Y-114973397D01*
X145076573Y-114962400D01*
X145076562Y-114962400D01*
X145039240Y-114958724D01*
X145001918Y-114962400D01*
X141312133Y-114962400D01*
X141274800Y-114958723D01*
X141237467Y-114962400D01*
X141125814Y-114973397D01*
X140982553Y-115016854D01*
X140850524Y-115087426D01*
X140734799Y-115182399D01*
X140711000Y-115211398D01*
X140676198Y-115246200D01*
X140614061Y-115246200D01*
X140414102Y-115285974D01*
X140225744Y-115363995D01*
X140056226Y-115477263D01*
X139912063Y-115621426D01*
X139798795Y-115790944D01*
X139720774Y-115979302D01*
X139681000Y-116179261D01*
X139681000Y-116383139D01*
X139720774Y-116583098D01*
X139798795Y-116771456D01*
X139912063Y-116940974D01*
X140056226Y-117085137D01*
X140225744Y-117198405D01*
X140414102Y-117276426D01*
X140614061Y-117316200D01*
X140817939Y-117316200D01*
X141017898Y-117276426D01*
X141206256Y-117198405D01*
X141375774Y-117085137D01*
X141519937Y-116940974D01*
X141633205Y-116771456D01*
X141711226Y-116583098D01*
X141731256Y-116482400D01*
X141875835Y-116482400D01*
X141865400Y-116534861D01*
X141865400Y-116738739D01*
X141905174Y-116938698D01*
X141983195Y-117127056D01*
X142096463Y-117296574D01*
X142240626Y-117440737D01*
X142410144Y-117554005D01*
X142576073Y-117622736D01*
X142594718Y-117684201D01*
X142594853Y-117684645D01*
X142665425Y-117816675D01*
X142700626Y-117859567D01*
X142760398Y-117932400D01*
X142789402Y-117956203D01*
X144622601Y-119789403D01*
X144646399Y-119818401D01*
X144762124Y-119913374D01*
X144894153Y-119983946D01*
X145037414Y-120027403D01*
X145149067Y-120038400D01*
X145149076Y-120038400D01*
X145186399Y-120042076D01*
X145223722Y-120038400D01*
X152484278Y-120038400D01*
X152521600Y-120042076D01*
X152558922Y-120038400D01*
X152558933Y-120038400D01*
X152670586Y-120027403D01*
X152813847Y-119983946D01*
X152945876Y-119913374D01*
X153061601Y-119818401D01*
X153085404Y-119789397D01*
X157624412Y-115250390D01*
X159616978Y-115239791D01*
X159737482Y-115227599D01*
X159856604Y-115191464D01*
X159966387Y-115132783D01*
X160062613Y-115053813D01*
X160141583Y-114957587D01*
X160200264Y-114847804D01*
X160236399Y-114728682D01*
X160248600Y-114604800D01*
X160248600Y-112300056D01*
X160335796Y-112346664D01*
X160454918Y-112382799D01*
X160578800Y-112395000D01*
X163169600Y-112395000D01*
X163293482Y-112382799D01*
X163412604Y-112346664D01*
X163522387Y-112287983D01*
X163618613Y-112209013D01*
X163697583Y-112112787D01*
X163756264Y-112003004D01*
X163792399Y-111883882D01*
X163804600Y-111760000D01*
X163804600Y-106527600D01*
X163792399Y-106403718D01*
X163756264Y-106284596D01*
X163697583Y-106174813D01*
X163618613Y-106078587D01*
X163522387Y-105999617D01*
X163412604Y-105940936D01*
X163293482Y-105904801D01*
X163169600Y-105892600D01*
X163137763Y-105892600D01*
X163140706Y-105889014D01*
X163278599Y-105631034D01*
X163363513Y-105351111D01*
X163392185Y-105060000D01*
X163363513Y-104768889D01*
X163278599Y-104488966D01*
X163140706Y-104230986D01*
X162955134Y-104004866D01*
X162786535Y-103866500D01*
X163377328Y-103866500D01*
X163389588Y-103990982D01*
X163425898Y-104110680D01*
X163484863Y-104220994D01*
X163564215Y-104317685D01*
X163660906Y-104397037D01*
X163771220Y-104456002D01*
X163890918Y-104492312D01*
X164015400Y-104504572D01*
X164204650Y-104501500D01*
X164363400Y-104342750D01*
X164363400Y-103556000D01*
X164617400Y-103556000D01*
X164617400Y-104342750D01*
X164776150Y-104501500D01*
X164965400Y-104504572D01*
X165089882Y-104492312D01*
X165209580Y-104456002D01*
X165319894Y-104397037D01*
X165416585Y-104317685D01*
X165495937Y-104220994D01*
X165554902Y-104110680D01*
X165591212Y-103990982D01*
X165603472Y-103866500D01*
X165600400Y-103714750D01*
X165441650Y-103556000D01*
X164617400Y-103556000D01*
X164363400Y-103556000D01*
X163539150Y-103556000D01*
X163380400Y-103714750D01*
X163377328Y-103866500D01*
X162786535Y-103866500D01*
X162729014Y-103819294D01*
X162674209Y-103790000D01*
X162729014Y-103760706D01*
X162955134Y-103575134D01*
X163140706Y-103349014D01*
X163278599Y-103091034D01*
X163363513Y-102811111D01*
X163392185Y-102520000D01*
X163363513Y-102228889D01*
X163278599Y-101948966D01*
X163140706Y-101690986D01*
X162955134Y-101464866D01*
X162729014Y-101279294D01*
X162674209Y-101250000D01*
X162729014Y-101220706D01*
X162955134Y-101035134D01*
X163140706Y-100809014D01*
X163278599Y-100551034D01*
X163363513Y-100271111D01*
X163377328Y-100130845D01*
X163377328Y-100523450D01*
X163393792Y-100690608D01*
X163442550Y-100851342D01*
X163521729Y-100999475D01*
X163587280Y-101079350D01*
X163521729Y-101159225D01*
X163442550Y-101307358D01*
X163393792Y-101468092D01*
X163377328Y-101635250D01*
X163377328Y-102072750D01*
X163393792Y-102239908D01*
X163442550Y-102400642D01*
X163521729Y-102548775D01*
X163539500Y-102570430D01*
X163484863Y-102637006D01*
X163425898Y-102747320D01*
X163389588Y-102867018D01*
X163377328Y-102991500D01*
X163380400Y-103143250D01*
X163539150Y-103302000D01*
X164363400Y-103302000D01*
X164363400Y-103282000D01*
X164617400Y-103282000D01*
X164617400Y-103302000D01*
X165441650Y-103302000D01*
X165600400Y-103143250D01*
X165603472Y-102991500D01*
X165591212Y-102867018D01*
X165554902Y-102747320D01*
X165495937Y-102637006D01*
X165441300Y-102570430D01*
X165459071Y-102548775D01*
X165538250Y-102400642D01*
X165587008Y-102239908D01*
X165603472Y-102072750D01*
X165603472Y-101635250D01*
X165587008Y-101468092D01*
X165538250Y-101307358D01*
X165459071Y-101159225D01*
X165402800Y-101090658D01*
X165402800Y-101068042D01*
X165459071Y-100999475D01*
X165538250Y-100851342D01*
X165587008Y-100690608D01*
X165603472Y-100523450D01*
X165603472Y-100085950D01*
X165587008Y-99918792D01*
X165538250Y-99758058D01*
X165459071Y-99609925D01*
X165382974Y-99517200D01*
X165459071Y-99424475D01*
X165538250Y-99276342D01*
X165587008Y-99115608D01*
X165603472Y-98948450D01*
X165603472Y-98510950D01*
X165587008Y-98343792D01*
X165538250Y-98183058D01*
X165486260Y-98085791D01*
X165559983Y-97975456D01*
X165638004Y-97787098D01*
X165677778Y-97587139D01*
X165677778Y-97383261D01*
X165638004Y-97183302D01*
X165559983Y-96994944D01*
X165446715Y-96825426D01*
X165302552Y-96681263D01*
X165133034Y-96567995D01*
X164944676Y-96489974D01*
X164912111Y-96483497D01*
X164970126Y-96411752D01*
X165028009Y-96301547D01*
X165063280Y-96182166D01*
X165074583Y-96058199D01*
X165023783Y-89047799D01*
X165017497Y-88963156D01*
X164988006Y-88842218D01*
X164935488Y-88729357D01*
X164275088Y-87611757D01*
X164222612Y-87536078D01*
X164135329Y-87447323D01*
X164032408Y-87377302D01*
X163917805Y-87328705D01*
X163876662Y-87315848D01*
X163888072Y-87200000D01*
X163888072Y-83800000D01*
X163875812Y-83675518D01*
X163839502Y-83555820D01*
X163780537Y-83445506D01*
X163701185Y-83348815D01*
X163604494Y-83269463D01*
X163494180Y-83210498D01*
X163488071Y-83208645D01*
X163488071Y-81850001D01*
X163487786Y-81847111D01*
X163927353Y-83034361D01*
G36*
X152048115Y-83026061D02*
G01*
X152060344Y-83040962D01*
X152119805Y-83089761D01*
X152187644Y-83126021D01*
X152223000Y-83136746D01*
X152223000Y-83873000D01*
X149327000Y-83873000D01*
X149327000Y-82727000D01*
X151749054Y-82727000D01*
X152048115Y-83026061D01*
X152048115Y-83026061D01*
G37*
X152048115Y-83026061D02*
X152060344Y-83040962D01*
X152119805Y-83089761D01*
X152187644Y-83126021D01*
X152223000Y-83136746D01*
X152223000Y-83873000D01*
X149327000Y-83873000D01*
X149327000Y-82727000D01*
X151749054Y-82727000D01*
X152048115Y-83026061D01*
G36*
X159471420Y-88266053D02*
G01*
X159435836Y-89760577D01*
X159436430Y-89776237D01*
X159486600Y-90277937D01*
X159486600Y-114478474D01*
X157353000Y-114489823D01*
X157353000Y-87765996D01*
X159471420Y-87757567D01*
X159471420Y-88266053D01*
X159471420Y-88266053D01*
G37*
X159471420Y-88266053D02*
X159435836Y-89760577D01*
X159436430Y-89776237D01*
X159486600Y-90277937D01*
X159486600Y-114478474D01*
X157353000Y-114489823D01*
X157353000Y-87765996D01*
X159471420Y-87757567D01*
X159471420Y-88266053D01*
G36*
X161417000Y-89509600D02*
G01*
X161419440Y-89534376D01*
X161422781Y-89547481D01*
X161676781Y-90360281D01*
X161686500Y-90383202D01*
X161700505Y-90403786D01*
X161718256Y-90421242D01*
X161748516Y-90439363D01*
X162991800Y-90965368D01*
X162991800Y-93345000D01*
X160604200Y-93345000D01*
X160604200Y-87807800D01*
X161417000Y-87807800D01*
X161417000Y-89509600D01*
X161417000Y-89509600D01*
G37*
X161417000Y-89509600D02*
X161419440Y-89534376D01*
X161422781Y-89547481D01*
X161676781Y-90360281D01*
X161686500Y-90383202D01*
X161700505Y-90403786D01*
X161718256Y-90421242D01*
X161748516Y-90439363D01*
X162991800Y-90965368D01*
X162991800Y-93345000D01*
X160604200Y-93345000D01*
X160604200Y-87807800D01*
X161417000Y-87807800D01*
X161417000Y-89509600D01*
G36*
X163643906Y-88041452D02*
G01*
X164262051Y-89087544D01*
X164311676Y-95935800D01*
X160604200Y-95935800D01*
X160604200Y-93954600D01*
X163474400Y-93954600D01*
X163499176Y-93952160D01*
X163523001Y-93944933D01*
X163544957Y-93933197D01*
X163564203Y-93917403D01*
X163579997Y-93898157D01*
X163591733Y-93876201D01*
X163598960Y-93852376D01*
X163601400Y-93827600D01*
X163601400Y-90678000D01*
X163598960Y-90653224D01*
X163591733Y-90629399D01*
X163579997Y-90607443D01*
X163564203Y-90588197D01*
X163544957Y-90572403D01*
X163526350Y-90562111D01*
X162096953Y-89921347D01*
X161874200Y-89431290D01*
X161874200Y-89194480D01*
X161878581Y-89150002D01*
X161878581Y-87807800D01*
X162896218Y-87807800D01*
X163643906Y-88041452D01*
X163643906Y-88041452D01*
G37*
X163643906Y-88041452D02*
X164262051Y-89087544D01*
X164311676Y-95935800D01*
X160604200Y-95935800D01*
X160604200Y-93954600D01*
X163474400Y-93954600D01*
X163499176Y-93952160D01*
X163523001Y-93944933D01*
X163544957Y-93933197D01*
X163564203Y-93917403D01*
X163579997Y-93898157D01*
X163591733Y-93876201D01*
X163598960Y-93852376D01*
X163601400Y-93827600D01*
X163601400Y-90678000D01*
X163598960Y-90653224D01*
X163591733Y-90629399D01*
X163579997Y-90607443D01*
X163564203Y-90588197D01*
X163544957Y-90572403D01*
X163526350Y-90562111D01*
X162096953Y-89921347D01*
X161874200Y-89431290D01*
X161874200Y-89194480D01*
X161878581Y-89150002D01*
X161878581Y-87807800D01*
X162896218Y-87807800D01*
X163643906Y-88041452D01*
G36*
X156221418Y-89150002D02*
G01*
X156227732Y-89214105D01*
X156235400Y-89239383D01*
X156235400Y-89357200D01*
X156237840Y-89381976D01*
X156245067Y-89405801D01*
X156256803Y-89427757D01*
X156272597Y-89447003D01*
X156291843Y-89462797D01*
X156313799Y-89474533D01*
X156337624Y-89481760D01*
X156362400Y-89484200D01*
X156387800Y-89484200D01*
X156387800Y-90652600D01*
X155219400Y-90652600D01*
X155219400Y-89484200D01*
X155244800Y-89484200D01*
X155269576Y-89481760D01*
X155293401Y-89474533D01*
X155315357Y-89462797D01*
X155334603Y-89447003D01*
X155350397Y-89427757D01*
X155362133Y-89405801D01*
X155369360Y-89381976D01*
X155371800Y-89357200D01*
X155371800Y-89215648D01*
X155372268Y-89214105D01*
X155378582Y-89150002D01*
X155378582Y-87858600D01*
X156221418Y-87858600D01*
X156221418Y-89150002D01*
X156221418Y-89150002D01*
G37*
X156221418Y-89150002D02*
X156227732Y-89214105D01*
X156235400Y-89239383D01*
X156235400Y-89357200D01*
X156237840Y-89381976D01*
X156245067Y-89405801D01*
X156256803Y-89427757D01*
X156272597Y-89447003D01*
X156291843Y-89462797D01*
X156313799Y-89474533D01*
X156337624Y-89481760D01*
X156362400Y-89484200D01*
X156387800Y-89484200D01*
X156387800Y-90652600D01*
X155219400Y-90652600D01*
X155219400Y-89484200D01*
X155244800Y-89484200D01*
X155269576Y-89481760D01*
X155293401Y-89474533D01*
X155315357Y-89462797D01*
X155334603Y-89447003D01*
X155350397Y-89427757D01*
X155362133Y-89405801D01*
X155369360Y-89381976D01*
X155371800Y-89357200D01*
X155371800Y-89215648D01*
X155372268Y-89214105D01*
X155378582Y-89150002D01*
X155378582Y-87858600D01*
X156221418Y-87858600D01*
X156221418Y-89150002D01*
G36*
X154914600Y-88912348D02*
G01*
X154732730Y-89185153D01*
X154721017Y-89207122D01*
X154713814Y-89230954D01*
X154711400Y-89255600D01*
X154711400Y-90652600D01*
X153543000Y-90652600D01*
X153543000Y-87858600D01*
X154914600Y-87858600D01*
X154914600Y-88912348D01*
X154914600Y-88912348D01*
G37*
X154914600Y-88912348D02*
X154732730Y-89185153D01*
X154721017Y-89207122D01*
X154713814Y-89230954D01*
X154711400Y-89255600D01*
X154711400Y-90652600D01*
X153543000Y-90652600D01*
X153543000Y-87858600D01*
X154914600Y-87858600D01*
X154914600Y-88912348D01*
G36*
X139471400Y-94157800D02*
G01*
X135976999Y-94157800D01*
X135976999Y-92329000D01*
X139471400Y-92329000D01*
X139471400Y-94157800D01*
X139471400Y-94157800D01*
G37*
X139471400Y-94157800D02*
X135976999Y-94157800D01*
X135976999Y-92329000D01*
X139471400Y-92329000D01*
X139471400Y-94157800D01*
G36*
X148920200Y-118745000D02*
G01*
X145445780Y-118745000D01*
X145008600Y-118264102D01*
X145008600Y-115900200D01*
X148920200Y-115900200D01*
X148920200Y-118745000D01*
X148920200Y-118745000D01*
G37*
X148920200Y-118745000D02*
X145445780Y-118745000D01*
X145008600Y-118264102D01*
X145008600Y-115900200D01*
X148920200Y-115900200D01*
X148920200Y-118745000D01*
G36*
X163042600Y-111633000D02*
G01*
X160705800Y-111633000D01*
X160705800Y-106654600D01*
X163042600Y-106654600D01*
X163042600Y-111633000D01*
X163042600Y-111633000D01*
G37*
X163042600Y-111633000D02*
X160705800Y-111633000D01*
X160705800Y-106654600D01*
X163042600Y-106654600D01*
X163042600Y-111633000D01*
G36*
X141097000Y-83723981D02*
G01*
X141072850Y-83743800D01*
X139471400Y-83743800D01*
X139471400Y-82423000D01*
X141097000Y-82423000D01*
X141097000Y-83723981D01*
X141097000Y-83723981D01*
G37*
X141097000Y-83723981D02*
X141072850Y-83743800D01*
X139471400Y-83743800D01*
X139471400Y-82423000D01*
X141097000Y-82423000D01*
X141097000Y-83723981D01*
M02*
