G04 #@! TF.GenerationSoftware,KiCad,Pcbnew,(5.1.2)-2*
G04 #@! TF.CreationDate,2020-04-12T13:41:48-04:00*
G04 #@! TF.ProjectId,MotorcycleSwitch,4d6f746f-7263-4796-936c-655377697463,rev?*
G04 #@! TF.SameCoordinates,Original*
G04 #@! TF.FileFunction,Soldermask,Top*
G04 #@! TF.FilePolarity,Negative*
%FSLAX46Y46*%
G04 Gerber Fmt 4.6, Leading zero omitted, Abs format (unit mm)*
G04 Created by KiCad (PCBNEW (5.1.2)-2) date 2020-04-12 13:41:48*
%MOMM*%
%LPD*%
G04 APERTURE LIST*
%ADD10C,0.152400*%
%ADD11C,0.100000*%
G04 APERTURE END LIST*
D10*
X155847430Y-83950895D02*
X155856500Y-83950001D01*
X155838705Y-83953541D02*
X155847430Y-83950895D01*
X155830666Y-83957836D02*
X155838705Y-83953541D01*
X155823620Y-83963620D02*
X155830666Y-83957836D01*
X155817836Y-83970666D02*
X155823620Y-83963620D01*
X155813541Y-83978705D02*
X155817836Y-83970666D01*
X155810894Y-83987430D02*
X155813541Y-83978705D01*
X155810000Y-83996500D02*
X155810894Y-83987430D01*
X155810000Y-87003500D02*
X155810000Y-83996500D01*
X155810894Y-87012570D02*
X155810000Y-87003500D01*
X155813541Y-87021295D02*
X155810894Y-87012570D01*
X155817836Y-87029334D02*
X155813541Y-87021295D01*
X155823620Y-87036380D02*
X155817836Y-87029334D01*
X155830666Y-87042164D02*
X155823620Y-87036380D01*
X155838705Y-87046459D02*
X155830666Y-87042164D01*
X155847430Y-87049105D02*
X155838705Y-87046459D01*
X155856500Y-87049999D02*
X155847430Y-87049105D01*
X160943500Y-87049999D02*
X155856500Y-87049999D01*
X160952570Y-87049105D02*
X160943500Y-87049999D01*
X160961295Y-87046459D02*
X160952570Y-87049105D01*
X160969334Y-87042164D02*
X160961295Y-87046459D01*
X160976380Y-87036380D02*
X160969334Y-87042164D01*
X160982164Y-87029334D02*
X160976380Y-87036380D01*
X160986459Y-87021295D02*
X160982164Y-87029334D01*
X160989106Y-87012570D02*
X160986459Y-87021295D01*
X160990000Y-87003500D02*
X160989106Y-87012570D01*
X160990000Y-83996500D02*
X160990000Y-87003500D01*
X160989106Y-83987430D02*
X160990000Y-83996500D01*
X160986459Y-83978705D02*
X160989106Y-83987430D01*
X160982164Y-83970666D02*
X160986459Y-83978705D01*
X160976380Y-83963620D02*
X160982164Y-83970666D01*
X160969334Y-83957836D02*
X160976380Y-83963620D01*
X160961295Y-83953541D02*
X160969334Y-83957836D01*
X160952570Y-83950895D02*
X160961295Y-83953541D01*
X160943500Y-83950001D02*
X160952570Y-83950895D01*
X155856500Y-83950001D02*
X160943500Y-83950001D01*
D11*
G36*
X163151000Y-111801000D02*
G01*
X160549000Y-111801000D01*
X160549000Y-109899000D01*
X163151000Y-109899000D01*
X163151000Y-111801000D01*
X163151000Y-111801000D01*
G37*
G36*
X159151000Y-111801000D02*
G01*
X156549000Y-111801000D01*
X156549000Y-109899000D01*
X159151000Y-109899000D01*
X159151000Y-111801000D01*
X159151000Y-111801000D01*
G37*
G36*
X162801000Y-108501000D02*
G01*
X160999000Y-108501000D01*
X160999000Y-106699000D01*
X162801000Y-106699000D01*
X162801000Y-108501000D01*
X162801000Y-108501000D01*
G37*
G36*
X162010443Y-104165519D02*
G01*
X162076627Y-104172037D01*
X162246466Y-104223557D01*
X162402991Y-104307222D01*
X162438729Y-104336552D01*
X162540186Y-104419814D01*
X162623448Y-104521271D01*
X162652778Y-104557009D01*
X162736443Y-104713534D01*
X162787963Y-104883373D01*
X162805359Y-105060000D01*
X162787963Y-105236627D01*
X162736443Y-105406466D01*
X162652778Y-105562991D01*
X162623448Y-105598729D01*
X162540186Y-105700186D01*
X162438729Y-105783448D01*
X162402991Y-105812778D01*
X162246466Y-105896443D01*
X162076627Y-105947963D01*
X162010443Y-105954481D01*
X161944260Y-105961000D01*
X161855740Y-105961000D01*
X161789557Y-105954481D01*
X161723373Y-105947963D01*
X161553534Y-105896443D01*
X161397009Y-105812778D01*
X161361271Y-105783448D01*
X161259814Y-105700186D01*
X161176552Y-105598729D01*
X161147222Y-105562991D01*
X161063557Y-105406466D01*
X161012037Y-105236627D01*
X160994641Y-105060000D01*
X161012037Y-104883373D01*
X161063557Y-104713534D01*
X161147222Y-104557009D01*
X161176552Y-104521271D01*
X161259814Y-104419814D01*
X161361271Y-104336552D01*
X161397009Y-104307222D01*
X161553534Y-104223557D01*
X161723373Y-104172037D01*
X161789557Y-104165519D01*
X161855740Y-104159000D01*
X161944260Y-104159000D01*
X162010443Y-104165519D01*
X162010443Y-104165519D01*
G37*
G36*
X164869991Y-102944585D02*
G01*
X164903969Y-102954893D01*
X164935290Y-102971634D01*
X164962739Y-102994161D01*
X164985266Y-103021610D01*
X165002007Y-103052931D01*
X165012315Y-103086909D01*
X165016400Y-103128390D01*
X165016400Y-103729610D01*
X165012315Y-103771091D01*
X165002007Y-103805069D01*
X164985266Y-103836390D01*
X164962739Y-103863839D01*
X164935290Y-103886366D01*
X164903969Y-103903107D01*
X164869991Y-103913415D01*
X164828510Y-103917500D01*
X164152290Y-103917500D01*
X164110809Y-103913415D01*
X164076831Y-103903107D01*
X164045510Y-103886366D01*
X164018061Y-103863839D01*
X163995534Y-103836390D01*
X163978793Y-103805069D01*
X163968485Y-103771091D01*
X163964400Y-103729610D01*
X163964400Y-103128390D01*
X163968485Y-103086909D01*
X163978793Y-103052931D01*
X163995534Y-103021610D01*
X164018061Y-102994161D01*
X164045510Y-102971634D01*
X164076831Y-102954893D01*
X164110809Y-102944585D01*
X164152290Y-102940500D01*
X164828510Y-102940500D01*
X164869991Y-102944585D01*
X164869991Y-102944585D01*
G37*
G36*
X162010443Y-101625519D02*
G01*
X162076627Y-101632037D01*
X162246466Y-101683557D01*
X162402991Y-101767222D01*
X162438729Y-101796552D01*
X162540186Y-101879814D01*
X162623448Y-101981271D01*
X162652778Y-102017009D01*
X162736443Y-102173534D01*
X162787963Y-102343373D01*
X162805359Y-102520000D01*
X162787963Y-102696627D01*
X162736443Y-102866466D01*
X162652778Y-103022991D01*
X162631390Y-103049052D01*
X162540186Y-103160186D01*
X162438729Y-103243448D01*
X162402991Y-103272778D01*
X162246466Y-103356443D01*
X162076627Y-103407963D01*
X162010442Y-103414482D01*
X161944260Y-103421000D01*
X161855740Y-103421000D01*
X161789558Y-103414482D01*
X161723373Y-103407963D01*
X161553534Y-103356443D01*
X161397009Y-103272778D01*
X161361271Y-103243448D01*
X161259814Y-103160186D01*
X161168610Y-103049052D01*
X161147222Y-103022991D01*
X161063557Y-102866466D01*
X161012037Y-102696627D01*
X160994641Y-102520000D01*
X161012037Y-102343373D01*
X161063557Y-102173534D01*
X161147222Y-102017009D01*
X161176552Y-101981271D01*
X161259814Y-101879814D01*
X161361271Y-101796552D01*
X161397009Y-101767222D01*
X161553534Y-101683557D01*
X161723373Y-101632037D01*
X161789558Y-101625518D01*
X161855740Y-101619000D01*
X161944260Y-101619000D01*
X162010443Y-101625519D01*
X162010443Y-101625519D01*
G37*
G36*
X164869991Y-101369585D02*
G01*
X164903969Y-101379893D01*
X164935290Y-101396634D01*
X164962739Y-101419161D01*
X164985266Y-101446610D01*
X165002007Y-101477931D01*
X165012315Y-101511909D01*
X165016400Y-101553390D01*
X165016400Y-102154610D01*
X165012315Y-102196091D01*
X165002007Y-102230069D01*
X164985266Y-102261390D01*
X164962739Y-102288839D01*
X164935290Y-102311366D01*
X164903969Y-102328107D01*
X164869991Y-102338415D01*
X164828510Y-102342500D01*
X164152290Y-102342500D01*
X164110809Y-102338415D01*
X164076831Y-102328107D01*
X164045510Y-102311366D01*
X164018061Y-102288839D01*
X163995534Y-102261390D01*
X163978793Y-102230069D01*
X163968485Y-102196091D01*
X163964400Y-102154610D01*
X163964400Y-101553390D01*
X163968485Y-101511909D01*
X163978793Y-101477931D01*
X163995534Y-101446610D01*
X164018061Y-101419161D01*
X164045510Y-101396634D01*
X164076831Y-101379893D01*
X164110809Y-101369585D01*
X164152290Y-101365500D01*
X164828510Y-101365500D01*
X164869991Y-101369585D01*
X164869991Y-101369585D01*
G37*
G36*
X162010442Y-99085518D02*
G01*
X162076627Y-99092037D01*
X162246466Y-99143557D01*
X162402991Y-99227222D01*
X162438729Y-99256552D01*
X162540186Y-99339814D01*
X162623448Y-99441271D01*
X162652778Y-99477009D01*
X162736443Y-99633534D01*
X162787963Y-99803373D01*
X162805359Y-99980000D01*
X162787963Y-100156627D01*
X162736443Y-100326466D01*
X162652778Y-100482991D01*
X162623448Y-100518729D01*
X162540186Y-100620186D01*
X162438729Y-100703448D01*
X162402991Y-100732778D01*
X162246466Y-100816443D01*
X162076627Y-100867963D01*
X162010442Y-100874482D01*
X161944260Y-100881000D01*
X161855740Y-100881000D01*
X161789558Y-100874482D01*
X161723373Y-100867963D01*
X161553534Y-100816443D01*
X161397009Y-100732778D01*
X161361271Y-100703448D01*
X161259814Y-100620186D01*
X161176552Y-100518729D01*
X161147222Y-100482991D01*
X161063557Y-100326466D01*
X161012037Y-100156627D01*
X160994641Y-99980000D01*
X161012037Y-99803373D01*
X161063557Y-99633534D01*
X161147222Y-99477009D01*
X161176552Y-99441271D01*
X161259814Y-99339814D01*
X161361271Y-99256552D01*
X161397009Y-99227222D01*
X161553534Y-99143557D01*
X161723373Y-99092037D01*
X161789558Y-99085518D01*
X161855740Y-99079000D01*
X161944260Y-99079000D01*
X162010442Y-99085518D01*
X162010442Y-99085518D01*
G37*
G36*
X164869991Y-99820285D02*
G01*
X164903969Y-99830593D01*
X164935290Y-99847334D01*
X164962739Y-99869861D01*
X164985266Y-99897310D01*
X165002007Y-99928631D01*
X165012315Y-99962609D01*
X165016400Y-100004090D01*
X165016400Y-100605310D01*
X165012315Y-100646791D01*
X165002007Y-100680769D01*
X164985266Y-100712090D01*
X164962739Y-100739539D01*
X164935290Y-100762066D01*
X164903969Y-100778807D01*
X164869991Y-100789115D01*
X164828510Y-100793200D01*
X164152290Y-100793200D01*
X164110809Y-100789115D01*
X164076831Y-100778807D01*
X164045510Y-100762066D01*
X164018061Y-100739539D01*
X163995534Y-100712090D01*
X163978793Y-100680769D01*
X163968485Y-100646791D01*
X163964400Y-100605310D01*
X163964400Y-100004090D01*
X163968485Y-99962609D01*
X163978793Y-99928631D01*
X163995534Y-99897310D01*
X164018061Y-99869861D01*
X164045510Y-99847334D01*
X164076831Y-99830593D01*
X164110809Y-99820285D01*
X164152290Y-99816200D01*
X164828510Y-99816200D01*
X164869991Y-99820285D01*
X164869991Y-99820285D01*
G37*
G36*
X136136060Y-99864620D02*
G01*
X135334060Y-99864620D01*
X135334060Y-99162620D01*
X136136060Y-99162620D01*
X136136060Y-99864620D01*
X136136060Y-99864620D01*
G37*
G36*
X164869991Y-98245285D02*
G01*
X164903969Y-98255593D01*
X164935290Y-98272334D01*
X164962739Y-98294861D01*
X164985266Y-98322310D01*
X165002007Y-98353631D01*
X165012315Y-98387609D01*
X165016400Y-98429090D01*
X165016400Y-99030310D01*
X165012315Y-99071791D01*
X165002007Y-99105769D01*
X164985266Y-99137090D01*
X164962739Y-99164539D01*
X164935290Y-99187066D01*
X164903969Y-99203807D01*
X164869991Y-99214115D01*
X164828510Y-99218200D01*
X164152290Y-99218200D01*
X164110809Y-99214115D01*
X164076831Y-99203807D01*
X164045510Y-99187066D01*
X164018061Y-99164539D01*
X163995534Y-99137090D01*
X163978793Y-99105769D01*
X163968485Y-99071791D01*
X163964400Y-99030310D01*
X163964400Y-98429090D01*
X163968485Y-98387609D01*
X163978793Y-98353631D01*
X163995534Y-98322310D01*
X164018061Y-98294861D01*
X164045510Y-98272334D01*
X164076831Y-98255593D01*
X164110809Y-98245285D01*
X164152290Y-98241200D01*
X164828510Y-98241200D01*
X164869991Y-98245285D01*
X164869991Y-98245285D01*
G37*
G36*
X142367091Y-97528085D02*
G01*
X142401069Y-97538393D01*
X142432390Y-97555134D01*
X142459839Y-97577661D01*
X142482366Y-97605110D01*
X142499107Y-97636431D01*
X142509415Y-97670409D01*
X142513500Y-97711890D01*
X142513500Y-98388110D01*
X142509415Y-98429591D01*
X142499107Y-98463569D01*
X142482366Y-98494890D01*
X142459839Y-98522339D01*
X142432390Y-98544866D01*
X142401069Y-98561607D01*
X142367091Y-98571915D01*
X142325610Y-98576000D01*
X141724390Y-98576000D01*
X141682909Y-98571915D01*
X141648931Y-98561607D01*
X141617610Y-98544866D01*
X141590161Y-98522339D01*
X141567634Y-98494890D01*
X141550893Y-98463569D01*
X141540585Y-98429591D01*
X141536500Y-98388110D01*
X141536500Y-97711890D01*
X141540585Y-97670409D01*
X141550893Y-97636431D01*
X141567634Y-97605110D01*
X141590161Y-97577661D01*
X141617610Y-97555134D01*
X141648931Y-97538393D01*
X141682909Y-97528085D01*
X141724390Y-97524000D01*
X142325610Y-97524000D01*
X142367091Y-97528085D01*
X142367091Y-97528085D01*
G37*
G36*
X140792091Y-97528085D02*
G01*
X140826069Y-97538393D01*
X140857390Y-97555134D01*
X140884839Y-97577661D01*
X140907366Y-97605110D01*
X140924107Y-97636431D01*
X140934415Y-97670409D01*
X140938500Y-97711890D01*
X140938500Y-98388110D01*
X140934415Y-98429591D01*
X140924107Y-98463569D01*
X140907366Y-98494890D01*
X140884839Y-98522339D01*
X140857390Y-98544866D01*
X140826069Y-98561607D01*
X140792091Y-98571915D01*
X140750610Y-98576000D01*
X140149390Y-98576000D01*
X140107909Y-98571915D01*
X140073931Y-98561607D01*
X140042610Y-98544866D01*
X140015161Y-98522339D01*
X139992634Y-98494890D01*
X139975893Y-98463569D01*
X139965585Y-98429591D01*
X139961500Y-98388110D01*
X139961500Y-97711890D01*
X139965585Y-97670409D01*
X139975893Y-97636431D01*
X139992634Y-97605110D01*
X140015161Y-97577661D01*
X140042610Y-97555134D01*
X140073931Y-97538393D01*
X140107909Y-97528085D01*
X140149390Y-97524000D01*
X140750610Y-97524000D01*
X140792091Y-97528085D01*
X140792091Y-97528085D01*
G37*
G36*
X136136060Y-98464620D02*
G01*
X135334060Y-98464620D01*
X135334060Y-97762620D01*
X136136060Y-97762620D01*
X136136060Y-98464620D01*
X136136060Y-98464620D01*
G37*
G36*
X162010442Y-96545518D02*
G01*
X162076627Y-96552037D01*
X162246466Y-96603557D01*
X162402991Y-96687222D01*
X162419779Y-96701000D01*
X162540186Y-96799814D01*
X162623448Y-96901271D01*
X162652778Y-96937009D01*
X162736443Y-97093534D01*
X162787963Y-97263373D01*
X162805359Y-97440000D01*
X162787963Y-97616627D01*
X162736443Y-97786466D01*
X162652778Y-97942991D01*
X162623448Y-97978729D01*
X162540186Y-98080186D01*
X162438729Y-98163448D01*
X162402991Y-98192778D01*
X162246466Y-98276443D01*
X162076627Y-98327963D01*
X162010443Y-98334481D01*
X161944260Y-98341000D01*
X161855740Y-98341000D01*
X161789557Y-98334481D01*
X161723373Y-98327963D01*
X161553534Y-98276443D01*
X161397009Y-98192778D01*
X161361271Y-98163448D01*
X161259814Y-98080186D01*
X161176552Y-97978729D01*
X161147222Y-97942991D01*
X161063557Y-97786466D01*
X161012037Y-97616627D01*
X160994641Y-97440000D01*
X161012037Y-97263373D01*
X161063557Y-97093534D01*
X161147222Y-96937009D01*
X161176552Y-96901271D01*
X161259814Y-96799814D01*
X161380221Y-96701000D01*
X161397009Y-96687222D01*
X161553534Y-96603557D01*
X161723373Y-96552037D01*
X161789558Y-96545518D01*
X161855740Y-96539000D01*
X161944260Y-96539000D01*
X162010442Y-96545518D01*
X162010442Y-96545518D01*
G37*
G36*
X140626000Y-96701000D02*
G01*
X139874000Y-96701000D01*
X139874000Y-94899000D01*
X140626000Y-94899000D01*
X140626000Y-96701000D01*
X140626000Y-96701000D01*
G37*
G36*
X142526000Y-96701000D02*
G01*
X141774000Y-96701000D01*
X141774000Y-94899000D01*
X142526000Y-94899000D01*
X142526000Y-96701000D01*
X142526000Y-96701000D01*
G37*
G36*
X162010443Y-94005519D02*
G01*
X162076627Y-94012037D01*
X162246466Y-94063557D01*
X162402991Y-94147222D01*
X162438729Y-94176552D01*
X162540186Y-94259814D01*
X162623448Y-94361271D01*
X162652778Y-94397009D01*
X162736443Y-94553534D01*
X162787963Y-94723373D01*
X162805359Y-94900000D01*
X162787963Y-95076627D01*
X162736443Y-95246466D01*
X162652778Y-95402991D01*
X162623448Y-95438729D01*
X162540186Y-95540186D01*
X162438729Y-95623448D01*
X162402991Y-95652778D01*
X162246466Y-95736443D01*
X162076627Y-95787963D01*
X162010442Y-95794482D01*
X161944260Y-95801000D01*
X161855740Y-95801000D01*
X161789558Y-95794482D01*
X161723373Y-95787963D01*
X161553534Y-95736443D01*
X161397009Y-95652778D01*
X161361271Y-95623448D01*
X161259814Y-95540186D01*
X161176552Y-95438729D01*
X161147222Y-95402991D01*
X161063557Y-95246466D01*
X161012037Y-95076627D01*
X160994641Y-94900000D01*
X161012037Y-94723373D01*
X161063557Y-94553534D01*
X161147222Y-94397009D01*
X161176552Y-94361271D01*
X161259814Y-94259814D01*
X161361271Y-94176552D01*
X161397009Y-94147222D01*
X161553534Y-94063557D01*
X161723373Y-94012037D01*
X161789558Y-94005518D01*
X161855740Y-93999000D01*
X161944260Y-93999000D01*
X162010443Y-94005519D01*
X162010443Y-94005519D01*
G37*
G36*
X138301000Y-95561000D02*
G01*
X135799000Y-95561000D01*
X135799000Y-94719000D01*
X138301000Y-94719000D01*
X138301000Y-95561000D01*
X138301000Y-95561000D01*
G37*
G36*
X134401000Y-95561000D02*
G01*
X131899000Y-95561000D01*
X131899000Y-94719000D01*
X134401000Y-94719000D01*
X134401000Y-95561000D01*
X134401000Y-95561000D01*
G37*
G36*
X138301000Y-94291000D02*
G01*
X135799000Y-94291000D01*
X135799000Y-93449000D01*
X138301000Y-93449000D01*
X138301000Y-94291000D01*
X138301000Y-94291000D01*
G37*
G36*
X134401000Y-94291000D02*
G01*
X131899000Y-94291000D01*
X131899000Y-93449000D01*
X134401000Y-93449000D01*
X134401000Y-94291000D01*
X134401000Y-94291000D01*
G37*
G36*
X162010443Y-91465519D02*
G01*
X162076627Y-91472037D01*
X162246466Y-91523557D01*
X162402991Y-91607222D01*
X162438729Y-91636552D01*
X162540186Y-91719814D01*
X162623448Y-91821271D01*
X162652778Y-91857009D01*
X162736443Y-92013534D01*
X162787963Y-92183373D01*
X162805359Y-92360000D01*
X162787963Y-92536627D01*
X162736443Y-92706466D01*
X162652778Y-92862991D01*
X162623448Y-92898729D01*
X162540186Y-93000186D01*
X162438729Y-93083448D01*
X162402991Y-93112778D01*
X162246466Y-93196443D01*
X162076627Y-93247963D01*
X162010443Y-93254481D01*
X161944260Y-93261000D01*
X161855740Y-93261000D01*
X161789557Y-93254481D01*
X161723373Y-93247963D01*
X161553534Y-93196443D01*
X161397009Y-93112778D01*
X161361271Y-93083448D01*
X161259814Y-93000186D01*
X161176552Y-92898729D01*
X161147222Y-92862991D01*
X161063557Y-92706466D01*
X161012037Y-92536627D01*
X160994641Y-92360000D01*
X161012037Y-92183373D01*
X161063557Y-92013534D01*
X161147222Y-91857009D01*
X161176552Y-91821271D01*
X161259814Y-91719814D01*
X161361271Y-91636552D01*
X161397009Y-91607222D01*
X161553534Y-91523557D01*
X161723373Y-91472037D01*
X161789558Y-91465518D01*
X161855740Y-91459000D01*
X161944260Y-91459000D01*
X162010443Y-91465519D01*
X162010443Y-91465519D01*
G37*
G36*
X138301000Y-93021000D02*
G01*
X135799000Y-93021000D01*
X135799000Y-92179000D01*
X138301000Y-92179000D01*
X138301000Y-93021000D01*
X138301000Y-93021000D01*
G37*
G36*
X134401000Y-93021000D02*
G01*
X131899000Y-93021000D01*
X131899000Y-92179000D01*
X134401000Y-92179000D01*
X134401000Y-93021000D01*
X134401000Y-93021000D01*
G37*
G36*
X134401000Y-91751000D02*
G01*
X131899000Y-91751000D01*
X131899000Y-90909000D01*
X134401000Y-90909000D01*
X134401000Y-91751000D01*
X134401000Y-91751000D01*
G37*
G36*
X138301000Y-91751000D02*
G01*
X135799000Y-91751000D01*
X135799000Y-90909000D01*
X138301000Y-90909000D01*
X138301000Y-91751000D01*
X138301000Y-91751000D01*
G37*
G36*
X138301000Y-90481000D02*
G01*
X135799000Y-90481000D01*
X135799000Y-89639000D01*
X138301000Y-89639000D01*
X138301000Y-90481000D01*
X138301000Y-90481000D01*
G37*
G36*
X134401000Y-90481000D02*
G01*
X131899000Y-90481000D01*
X131899000Y-89639000D01*
X134401000Y-89639000D01*
X134401000Y-90481000D01*
X134401000Y-90481000D01*
G37*
G36*
X162900999Y-89201002D02*
G01*
X153899001Y-89201002D01*
X153899001Y-87699002D01*
X162900999Y-87699002D01*
X162900999Y-89201002D01*
X162900999Y-89201002D01*
G37*
G36*
X144451977Y-87618855D02*
G01*
X144485955Y-87629163D01*
X144517276Y-87645904D01*
X144549490Y-87672342D01*
X144589341Y-87712193D01*
X144589347Y-87712198D01*
X144987802Y-88110653D01*
X144987807Y-88110659D01*
X145027658Y-88150510D01*
X145054096Y-88182724D01*
X145070837Y-88214045D01*
X145081145Y-88248023D01*
X145084625Y-88283364D01*
X145081145Y-88318705D01*
X145070837Y-88352683D01*
X145054096Y-88384004D01*
X145027658Y-88416218D01*
X144987807Y-88456069D01*
X144987802Y-88456075D01*
X144642381Y-88801496D01*
X144642375Y-88801501D01*
X144602524Y-88841352D01*
X144570310Y-88867790D01*
X144538989Y-88884531D01*
X144505011Y-88894839D01*
X144469670Y-88898319D01*
X144434329Y-88894839D01*
X144400351Y-88884531D01*
X144369030Y-88867790D01*
X144336816Y-88841352D01*
X144296965Y-88801501D01*
X144296959Y-88801496D01*
X143898504Y-88403041D01*
X143898499Y-88403035D01*
X143858648Y-88363184D01*
X143832210Y-88330970D01*
X143815469Y-88299649D01*
X143805161Y-88265671D01*
X143801681Y-88230330D01*
X143805161Y-88194989D01*
X143815469Y-88161011D01*
X143832210Y-88129690D01*
X143858648Y-88097476D01*
X143898499Y-88057625D01*
X143898504Y-88057619D01*
X144243925Y-87712198D01*
X144243931Y-87712193D01*
X144283782Y-87672342D01*
X144315996Y-87645904D01*
X144347317Y-87629163D01*
X144381295Y-87618855D01*
X144416636Y-87615375D01*
X144451977Y-87618855D01*
X144451977Y-87618855D01*
G37*
G36*
X143351977Y-86518855D02*
G01*
X143385955Y-86529163D01*
X143417276Y-86545904D01*
X143449490Y-86572342D01*
X143489341Y-86612193D01*
X143489347Y-86612198D01*
X143887802Y-87010653D01*
X143887807Y-87010659D01*
X143927658Y-87050510D01*
X143954096Y-87082724D01*
X143970837Y-87114045D01*
X143981145Y-87148023D01*
X143984625Y-87183364D01*
X143981145Y-87218705D01*
X143970837Y-87252683D01*
X143954096Y-87284004D01*
X143927658Y-87316218D01*
X143887807Y-87356069D01*
X143887802Y-87356075D01*
X143542381Y-87701496D01*
X143542375Y-87701501D01*
X143502524Y-87741352D01*
X143470310Y-87767790D01*
X143438989Y-87784531D01*
X143405011Y-87794839D01*
X143369670Y-87798319D01*
X143334329Y-87794839D01*
X143300351Y-87784531D01*
X143269030Y-87767790D01*
X143236816Y-87741352D01*
X143196965Y-87701501D01*
X143196959Y-87701496D01*
X142798504Y-87303041D01*
X142798499Y-87303035D01*
X142758648Y-87263184D01*
X142732210Y-87230970D01*
X142715469Y-87199649D01*
X142705161Y-87165671D01*
X142701681Y-87130330D01*
X142705161Y-87094989D01*
X142715469Y-87061011D01*
X142732210Y-87029690D01*
X142758648Y-86997476D01*
X142798499Y-86957625D01*
X142798504Y-86957619D01*
X143143925Y-86612198D01*
X143143931Y-86612193D01*
X143183782Y-86572342D01*
X143215996Y-86545904D01*
X143247317Y-86529163D01*
X143281295Y-86518855D01*
X143316636Y-86515375D01*
X143351977Y-86518855D01*
X143351977Y-86518855D01*
G37*
G36*
X145565671Y-86505161D02*
G01*
X145599649Y-86515469D01*
X145630970Y-86532210D01*
X145663184Y-86558648D01*
X145703035Y-86598499D01*
X145703041Y-86598504D01*
X146101496Y-86996959D01*
X146101501Y-86996965D01*
X146141352Y-87036816D01*
X146167790Y-87069030D01*
X146184531Y-87100351D01*
X146194839Y-87134329D01*
X146198319Y-87169670D01*
X146194839Y-87205011D01*
X146184531Y-87238989D01*
X146167790Y-87270310D01*
X146141352Y-87302524D01*
X146101501Y-87342375D01*
X146101496Y-87342381D01*
X145756075Y-87687802D01*
X145756069Y-87687807D01*
X145716218Y-87727658D01*
X145684004Y-87754096D01*
X145652683Y-87770837D01*
X145618705Y-87781145D01*
X145583364Y-87784625D01*
X145548023Y-87781145D01*
X145514045Y-87770837D01*
X145482724Y-87754096D01*
X145450510Y-87727658D01*
X145410659Y-87687807D01*
X145410653Y-87687802D01*
X145012198Y-87289347D01*
X145012193Y-87289341D01*
X144972342Y-87249490D01*
X144945904Y-87217276D01*
X144929163Y-87185955D01*
X144918855Y-87151977D01*
X144915375Y-87116636D01*
X144918855Y-87081295D01*
X144929163Y-87047317D01*
X144945904Y-87015996D01*
X144972342Y-86983782D01*
X145012193Y-86943931D01*
X145012198Y-86943925D01*
X145357619Y-86598504D01*
X145357625Y-86598499D01*
X145397476Y-86558648D01*
X145429690Y-86532210D01*
X145461011Y-86515469D01*
X145494989Y-86505161D01*
X145530330Y-86501681D01*
X145565671Y-86505161D01*
X145565671Y-86505161D01*
G37*
G36*
X163301000Y-87251000D02*
G01*
X153499000Y-87251000D01*
X153499000Y-83749000D01*
X163301000Y-83749000D01*
X163301000Y-87251000D01*
X163301000Y-87251000D01*
G37*
G36*
X144465671Y-85405161D02*
G01*
X144499649Y-85415469D01*
X144530970Y-85432210D01*
X144563184Y-85458648D01*
X144603035Y-85498499D01*
X144603041Y-85498504D01*
X145001496Y-85896959D01*
X145001501Y-85896965D01*
X145041352Y-85936816D01*
X145067790Y-85969030D01*
X145084531Y-86000351D01*
X145094839Y-86034329D01*
X145098319Y-86069670D01*
X145094839Y-86105011D01*
X145084531Y-86138989D01*
X145067790Y-86170310D01*
X145041352Y-86202524D01*
X145001501Y-86242375D01*
X145001496Y-86242381D01*
X144656075Y-86587802D01*
X144656069Y-86587807D01*
X144616218Y-86627658D01*
X144584004Y-86654096D01*
X144552683Y-86670837D01*
X144518705Y-86681145D01*
X144483364Y-86684625D01*
X144448023Y-86681145D01*
X144414045Y-86670837D01*
X144382724Y-86654096D01*
X144350510Y-86627658D01*
X144310659Y-86587807D01*
X144310653Y-86587802D01*
X143912198Y-86189347D01*
X143912193Y-86189341D01*
X143872342Y-86149490D01*
X143845904Y-86117276D01*
X143829163Y-86085955D01*
X143818855Y-86051977D01*
X143815375Y-86016636D01*
X143818855Y-85981295D01*
X143829163Y-85947317D01*
X143845904Y-85915996D01*
X143872342Y-85883782D01*
X143912193Y-85843931D01*
X143912198Y-85843925D01*
X144257619Y-85498504D01*
X144257625Y-85498499D01*
X144297476Y-85458648D01*
X144329690Y-85432210D01*
X144361011Y-85415469D01*
X144394989Y-85405161D01*
X144430330Y-85401681D01*
X144465671Y-85405161D01*
X144465671Y-85405161D01*
G37*
G36*
X144628534Y-80878293D02*
G01*
X144635549Y-80880421D01*
X144642015Y-80883878D01*
X144652449Y-80892440D01*
X145705136Y-81945127D01*
X145713698Y-81955561D01*
X145717155Y-81962027D01*
X145719283Y-81969042D01*
X145720001Y-81976337D01*
X145719283Y-81983632D01*
X145717155Y-81990647D01*
X145713698Y-81997113D01*
X145705136Y-82007547D01*
X145483299Y-82229384D01*
X145472865Y-82237946D01*
X145466398Y-82241403D01*
X145451462Y-82245934D01*
X145428823Y-82255311D01*
X145408449Y-82268925D01*
X145391122Y-82286252D01*
X145377508Y-82306627D01*
X145368132Y-82329264D01*
X145363601Y-82344200D01*
X145360144Y-82350667D01*
X145351582Y-82361101D01*
X145129745Y-82582938D01*
X145119311Y-82591500D01*
X145112845Y-82594957D01*
X145097908Y-82599488D01*
X145075269Y-82608866D01*
X145054895Y-82622480D01*
X145037568Y-82639807D01*
X145023955Y-82660182D01*
X145014579Y-82682817D01*
X145010048Y-82697754D01*
X145006591Y-82704220D01*
X144998029Y-82714654D01*
X144776192Y-82936491D01*
X144765758Y-82945053D01*
X144759291Y-82948510D01*
X144744355Y-82953041D01*
X144721716Y-82962418D01*
X144701342Y-82976032D01*
X144684015Y-82993359D01*
X144670401Y-83013734D01*
X144661025Y-83036371D01*
X144656494Y-83051307D01*
X144653037Y-83057774D01*
X144644475Y-83068208D01*
X144422638Y-83290045D01*
X144412204Y-83298607D01*
X144405738Y-83302064D01*
X144390801Y-83306595D01*
X144368162Y-83315973D01*
X144347788Y-83329587D01*
X144330461Y-83346914D01*
X144316848Y-83367289D01*
X144307472Y-83389924D01*
X144302941Y-83404861D01*
X144299484Y-83411327D01*
X144290922Y-83421761D01*
X144069085Y-83643598D01*
X144058651Y-83652160D01*
X144052185Y-83655617D01*
X144037248Y-83660148D01*
X144014609Y-83669526D01*
X143994235Y-83683140D01*
X143976908Y-83700467D01*
X143963295Y-83720842D01*
X143953919Y-83743477D01*
X143949388Y-83758414D01*
X143945931Y-83764880D01*
X143937369Y-83775314D01*
X143715532Y-83997151D01*
X143705098Y-84005713D01*
X143698631Y-84009170D01*
X143683695Y-84013701D01*
X143661056Y-84023078D01*
X143640682Y-84036692D01*
X143623355Y-84054019D01*
X143609741Y-84074394D01*
X143600365Y-84097031D01*
X143595834Y-84111967D01*
X143592377Y-84118434D01*
X143583815Y-84128868D01*
X143361978Y-84350705D01*
X143351544Y-84359267D01*
X143345078Y-84362724D01*
X143330141Y-84367255D01*
X143307502Y-84376633D01*
X143287128Y-84390247D01*
X143269801Y-84407574D01*
X143256188Y-84427949D01*
X143246812Y-84450584D01*
X143242281Y-84465521D01*
X143238824Y-84471987D01*
X143230262Y-84482421D01*
X143008425Y-84704258D01*
X142997991Y-84712820D01*
X142991525Y-84716277D01*
X142976588Y-84720808D01*
X142953949Y-84730186D01*
X142933575Y-84743800D01*
X142916248Y-84761127D01*
X142902635Y-84781502D01*
X142893259Y-84804137D01*
X142888728Y-84819074D01*
X142885271Y-84825540D01*
X142876709Y-84835974D01*
X142654872Y-85057811D01*
X142644438Y-85066373D01*
X142637971Y-85069830D01*
X142623035Y-85074361D01*
X142600396Y-85083738D01*
X142580022Y-85097352D01*
X142562695Y-85114679D01*
X142549081Y-85135054D01*
X142539705Y-85157691D01*
X142535174Y-85172627D01*
X142531717Y-85179094D01*
X142523155Y-85189528D01*
X142301318Y-85411365D01*
X142290884Y-85419927D01*
X142284418Y-85423384D01*
X142269481Y-85427915D01*
X142246842Y-85437293D01*
X142226468Y-85450907D01*
X142209141Y-85468234D01*
X142195528Y-85488609D01*
X142186152Y-85511244D01*
X142181621Y-85526181D01*
X142178164Y-85532647D01*
X142169602Y-85543081D01*
X141947765Y-85764918D01*
X141937331Y-85773480D01*
X141930864Y-85776937D01*
X141915928Y-85781468D01*
X141893289Y-85790845D01*
X141872915Y-85804459D01*
X141855588Y-85821786D01*
X141841974Y-85842161D01*
X141832598Y-85864798D01*
X141828067Y-85879734D01*
X141824610Y-85886201D01*
X141816048Y-85896635D01*
X141594211Y-86118472D01*
X141583777Y-86127034D01*
X141577311Y-86130491D01*
X141570296Y-86132619D01*
X141563001Y-86133337D01*
X141555706Y-86132619D01*
X141548691Y-86130491D01*
X141542225Y-86127034D01*
X141531791Y-86118472D01*
X140479104Y-85065785D01*
X140470542Y-85055351D01*
X140467085Y-85048885D01*
X140464957Y-85041870D01*
X140464239Y-85034575D01*
X140464957Y-85027280D01*
X140467085Y-85020265D01*
X140470542Y-85013799D01*
X140479104Y-85003365D01*
X140700941Y-84781528D01*
X140711375Y-84772966D01*
X140717842Y-84769509D01*
X140732778Y-84764978D01*
X140755417Y-84755601D01*
X140775791Y-84741987D01*
X140793118Y-84724660D01*
X140806732Y-84704285D01*
X140816108Y-84681648D01*
X140820639Y-84666712D01*
X140824096Y-84660245D01*
X140832658Y-84649811D01*
X141054495Y-84427974D01*
X141064929Y-84419412D01*
X141071395Y-84415955D01*
X141086332Y-84411424D01*
X141108971Y-84402046D01*
X141129345Y-84388432D01*
X141146672Y-84371105D01*
X141160285Y-84350730D01*
X141169661Y-84328095D01*
X141174192Y-84313158D01*
X141177649Y-84306692D01*
X141186211Y-84296258D01*
X141408048Y-84074421D01*
X141418482Y-84065859D01*
X141424949Y-84062402D01*
X141439885Y-84057871D01*
X141462524Y-84048494D01*
X141482898Y-84034880D01*
X141500225Y-84017553D01*
X141513839Y-83997178D01*
X141523215Y-83974541D01*
X141527746Y-83959605D01*
X141531203Y-83953138D01*
X141539765Y-83942704D01*
X141761602Y-83720867D01*
X141772036Y-83712305D01*
X141778502Y-83708848D01*
X141793439Y-83704317D01*
X141816078Y-83694939D01*
X141836452Y-83681325D01*
X141853779Y-83663998D01*
X141867392Y-83643623D01*
X141876768Y-83620988D01*
X141881299Y-83606051D01*
X141884756Y-83599585D01*
X141893318Y-83589151D01*
X142115155Y-83367314D01*
X142125589Y-83358752D01*
X142132055Y-83355295D01*
X142146992Y-83350764D01*
X142169631Y-83341386D01*
X142190005Y-83327772D01*
X142207332Y-83310445D01*
X142220945Y-83290070D01*
X142230321Y-83267435D01*
X142234852Y-83252498D01*
X142238309Y-83246032D01*
X142246871Y-83235598D01*
X142468708Y-83013761D01*
X142479142Y-83005199D01*
X142485609Y-83001742D01*
X142500545Y-82997211D01*
X142523184Y-82987834D01*
X142543558Y-82974220D01*
X142560885Y-82956893D01*
X142574499Y-82936518D01*
X142583875Y-82913881D01*
X142588406Y-82898945D01*
X142591863Y-82892478D01*
X142600425Y-82882044D01*
X142822262Y-82660207D01*
X142832696Y-82651645D01*
X142839162Y-82648188D01*
X142854099Y-82643657D01*
X142876738Y-82634279D01*
X142897112Y-82620665D01*
X142914439Y-82603338D01*
X142928052Y-82582963D01*
X142937428Y-82560328D01*
X142941959Y-82545391D01*
X142945416Y-82538925D01*
X142953978Y-82528491D01*
X143175815Y-82306654D01*
X143186249Y-82298092D01*
X143192715Y-82294635D01*
X143207652Y-82290104D01*
X143230291Y-82280726D01*
X143250665Y-82267112D01*
X143267992Y-82249785D01*
X143281605Y-82229410D01*
X143290981Y-82206775D01*
X143295512Y-82191838D01*
X143298969Y-82185372D01*
X143307531Y-82174938D01*
X143529368Y-81953101D01*
X143539802Y-81944539D01*
X143546269Y-81941082D01*
X143561205Y-81936551D01*
X143583844Y-81927174D01*
X143604218Y-81913560D01*
X143621545Y-81896233D01*
X143635159Y-81875858D01*
X143644535Y-81853221D01*
X143649066Y-81838285D01*
X143652523Y-81831818D01*
X143661085Y-81821384D01*
X143882922Y-81599547D01*
X143893356Y-81590985D01*
X143899822Y-81587528D01*
X143914759Y-81582997D01*
X143937398Y-81573619D01*
X143957772Y-81560005D01*
X143975099Y-81542678D01*
X143988712Y-81522303D01*
X143998088Y-81499668D01*
X144002619Y-81484731D01*
X144006076Y-81478265D01*
X144014638Y-81467831D01*
X144236475Y-81245994D01*
X144246909Y-81237432D01*
X144253376Y-81233975D01*
X144268312Y-81229444D01*
X144290951Y-81220067D01*
X144311325Y-81206453D01*
X144328652Y-81189126D01*
X144342266Y-81168751D01*
X144351642Y-81146114D01*
X144356173Y-81131178D01*
X144359630Y-81124711D01*
X144368192Y-81114277D01*
X144590029Y-80892440D01*
X144600463Y-80883878D01*
X144606929Y-80880421D01*
X144613944Y-80878293D01*
X144621239Y-80877575D01*
X144628534Y-80878293D01*
X144628534Y-80878293D01*
G37*
G36*
X135683632Y-80878293D02*
G01*
X135690647Y-80880421D01*
X135697113Y-80883878D01*
X135707547Y-80892440D01*
X135929384Y-81114277D01*
X135937946Y-81124711D01*
X135941403Y-81131178D01*
X135945934Y-81146114D01*
X135955311Y-81168753D01*
X135968925Y-81189127D01*
X135986252Y-81206454D01*
X136006627Y-81220068D01*
X136029264Y-81229444D01*
X136044200Y-81233975D01*
X136050667Y-81237432D01*
X136061101Y-81245994D01*
X136282938Y-81467831D01*
X136291500Y-81478265D01*
X136294957Y-81484731D01*
X136299488Y-81499668D01*
X136308866Y-81522307D01*
X136322480Y-81542681D01*
X136339807Y-81560008D01*
X136360182Y-81573621D01*
X136382817Y-81582997D01*
X136397754Y-81587528D01*
X136404220Y-81590985D01*
X136414654Y-81599547D01*
X136636491Y-81821384D01*
X136645053Y-81831818D01*
X136648510Y-81838285D01*
X136653041Y-81853221D01*
X136662418Y-81875860D01*
X136676032Y-81896234D01*
X136693359Y-81913561D01*
X136713734Y-81927175D01*
X136736371Y-81936551D01*
X136751307Y-81941082D01*
X136757774Y-81944539D01*
X136768208Y-81953101D01*
X136990045Y-82174938D01*
X136998607Y-82185372D01*
X137002064Y-82191838D01*
X137006595Y-82206775D01*
X137015973Y-82229414D01*
X137029587Y-82249788D01*
X137046914Y-82267115D01*
X137067289Y-82280728D01*
X137089924Y-82290104D01*
X137104861Y-82294635D01*
X137111327Y-82298092D01*
X137121761Y-82306654D01*
X137343598Y-82528491D01*
X137352160Y-82538925D01*
X137355617Y-82545391D01*
X137360148Y-82560328D01*
X137369526Y-82582967D01*
X137383140Y-82603341D01*
X137400467Y-82620668D01*
X137420842Y-82634281D01*
X137443477Y-82643657D01*
X137458414Y-82648188D01*
X137464880Y-82651645D01*
X137475314Y-82660207D01*
X137697151Y-82882044D01*
X137705713Y-82892478D01*
X137709170Y-82898945D01*
X137713701Y-82913881D01*
X137723078Y-82936520D01*
X137736692Y-82956894D01*
X137754019Y-82974221D01*
X137774394Y-82987835D01*
X137797031Y-82997211D01*
X137811967Y-83001742D01*
X137818434Y-83005199D01*
X137828868Y-83013761D01*
X138050705Y-83235598D01*
X138059267Y-83246032D01*
X138062724Y-83252498D01*
X138067255Y-83267435D01*
X138076633Y-83290074D01*
X138090247Y-83310448D01*
X138107574Y-83327775D01*
X138127949Y-83341388D01*
X138150584Y-83350764D01*
X138165521Y-83355295D01*
X138171987Y-83358752D01*
X138182421Y-83367314D01*
X138404258Y-83589151D01*
X138412820Y-83599585D01*
X138416277Y-83606051D01*
X138420808Y-83620988D01*
X138430186Y-83643627D01*
X138443800Y-83664001D01*
X138461127Y-83681328D01*
X138481502Y-83694941D01*
X138504137Y-83704317D01*
X138519074Y-83708848D01*
X138525540Y-83712305D01*
X138535974Y-83720867D01*
X138757811Y-83942704D01*
X138766373Y-83953138D01*
X138769830Y-83959605D01*
X138774361Y-83974541D01*
X138783738Y-83997180D01*
X138797352Y-84017554D01*
X138814679Y-84034881D01*
X138835054Y-84048495D01*
X138857691Y-84057871D01*
X138872627Y-84062402D01*
X138879094Y-84065859D01*
X138889528Y-84074421D01*
X139111365Y-84296258D01*
X139119927Y-84306692D01*
X139123384Y-84313158D01*
X139127915Y-84328095D01*
X139137293Y-84350734D01*
X139150907Y-84371108D01*
X139168234Y-84388435D01*
X139188609Y-84402048D01*
X139211244Y-84411424D01*
X139226181Y-84415955D01*
X139232647Y-84419412D01*
X139243081Y-84427974D01*
X139464918Y-84649811D01*
X139473480Y-84660245D01*
X139476937Y-84666712D01*
X139481468Y-84681648D01*
X139490845Y-84704287D01*
X139504459Y-84724661D01*
X139521786Y-84741988D01*
X139542161Y-84755602D01*
X139564798Y-84764978D01*
X139579734Y-84769509D01*
X139586201Y-84772966D01*
X139596635Y-84781528D01*
X139818472Y-85003365D01*
X139827034Y-85013799D01*
X139830491Y-85020265D01*
X139832619Y-85027280D01*
X139833337Y-85034575D01*
X139832619Y-85041870D01*
X139830491Y-85048885D01*
X139827034Y-85055351D01*
X139818472Y-85065785D01*
X138765785Y-86118472D01*
X138755351Y-86127034D01*
X138748885Y-86130491D01*
X138741870Y-86132619D01*
X138734575Y-86133337D01*
X138727280Y-86132619D01*
X138720265Y-86130491D01*
X138713799Y-86127034D01*
X138703365Y-86118472D01*
X138481528Y-85896635D01*
X138472966Y-85886201D01*
X138469509Y-85879734D01*
X138464978Y-85864798D01*
X138455601Y-85842159D01*
X138441987Y-85821785D01*
X138424660Y-85804458D01*
X138404285Y-85790844D01*
X138381648Y-85781468D01*
X138366712Y-85776937D01*
X138360245Y-85773480D01*
X138349811Y-85764918D01*
X138127974Y-85543081D01*
X138119412Y-85532647D01*
X138115955Y-85526181D01*
X138111424Y-85511244D01*
X138102046Y-85488605D01*
X138088432Y-85468231D01*
X138071105Y-85450904D01*
X138050730Y-85437291D01*
X138028095Y-85427915D01*
X138013158Y-85423384D01*
X138006692Y-85419927D01*
X137996258Y-85411365D01*
X137774421Y-85189528D01*
X137765859Y-85179094D01*
X137762402Y-85172627D01*
X137757871Y-85157691D01*
X137748494Y-85135052D01*
X137734880Y-85114678D01*
X137717553Y-85097351D01*
X137697178Y-85083737D01*
X137674541Y-85074361D01*
X137659605Y-85069830D01*
X137653138Y-85066373D01*
X137642704Y-85057811D01*
X137420867Y-84835974D01*
X137412305Y-84825540D01*
X137408848Y-84819074D01*
X137404317Y-84804137D01*
X137394939Y-84781498D01*
X137381325Y-84761124D01*
X137363998Y-84743797D01*
X137343623Y-84730184D01*
X137320988Y-84720808D01*
X137306051Y-84716277D01*
X137299585Y-84712820D01*
X137289151Y-84704258D01*
X137067314Y-84482421D01*
X137058752Y-84471987D01*
X137055295Y-84465521D01*
X137050764Y-84450584D01*
X137041386Y-84427945D01*
X137027772Y-84407571D01*
X137010445Y-84390244D01*
X136990070Y-84376631D01*
X136967435Y-84367255D01*
X136952498Y-84362724D01*
X136946032Y-84359267D01*
X136935598Y-84350705D01*
X136713761Y-84128868D01*
X136705199Y-84118434D01*
X136701742Y-84111967D01*
X136697211Y-84097031D01*
X136687834Y-84074392D01*
X136674220Y-84054018D01*
X136656893Y-84036691D01*
X136636518Y-84023077D01*
X136613881Y-84013701D01*
X136598945Y-84009170D01*
X136592478Y-84005713D01*
X136582044Y-83997151D01*
X136360207Y-83775314D01*
X136351645Y-83764880D01*
X136348188Y-83758414D01*
X136343657Y-83743477D01*
X136334279Y-83720838D01*
X136320665Y-83700464D01*
X136303338Y-83683137D01*
X136282963Y-83669524D01*
X136260328Y-83660148D01*
X136245391Y-83655617D01*
X136238925Y-83652160D01*
X136228491Y-83643598D01*
X136006654Y-83421761D01*
X135998092Y-83411327D01*
X135994635Y-83404861D01*
X135990104Y-83389924D01*
X135980726Y-83367285D01*
X135967112Y-83346911D01*
X135949785Y-83329584D01*
X135929410Y-83315971D01*
X135906775Y-83306595D01*
X135891838Y-83302064D01*
X135885372Y-83298607D01*
X135874938Y-83290045D01*
X135653101Y-83068208D01*
X135644539Y-83057774D01*
X135641082Y-83051307D01*
X135636551Y-83036371D01*
X135627174Y-83013732D01*
X135613560Y-82993358D01*
X135596233Y-82976031D01*
X135575858Y-82962417D01*
X135553221Y-82953041D01*
X135538285Y-82948510D01*
X135531818Y-82945053D01*
X135521384Y-82936491D01*
X135299547Y-82714654D01*
X135290985Y-82704220D01*
X135287528Y-82697754D01*
X135282997Y-82682817D01*
X135273619Y-82660178D01*
X135260005Y-82639804D01*
X135242678Y-82622477D01*
X135222303Y-82608864D01*
X135199668Y-82599488D01*
X135184731Y-82594957D01*
X135178265Y-82591500D01*
X135167831Y-82582938D01*
X134945994Y-82361101D01*
X134937432Y-82350667D01*
X134933975Y-82344200D01*
X134929444Y-82329264D01*
X134920067Y-82306625D01*
X134906453Y-82286251D01*
X134889126Y-82268924D01*
X134868751Y-82255310D01*
X134846114Y-82245934D01*
X134831178Y-82241403D01*
X134824711Y-82237946D01*
X134814277Y-82229384D01*
X134592440Y-82007547D01*
X134583878Y-81997113D01*
X134580421Y-81990647D01*
X134578293Y-81983632D01*
X134577575Y-81976337D01*
X134578293Y-81969042D01*
X134580421Y-81962027D01*
X134583878Y-81955561D01*
X134592440Y-81945127D01*
X135645127Y-80892440D01*
X135655561Y-80883878D01*
X135662027Y-80880421D01*
X135669042Y-80878293D01*
X135676337Y-80877575D01*
X135683632Y-80878293D01*
X135683632Y-80878293D01*
G37*
G36*
X151751001Y-83308199D02*
G01*
X149848999Y-83308199D01*
X149848999Y-82548999D01*
X151751001Y-82548999D01*
X151751001Y-83308199D01*
X151751001Y-83308199D01*
G37*
G36*
X162900999Y-83301001D02*
G01*
X153899001Y-83301001D01*
X153899001Y-81799001D01*
X162900999Y-81799001D01*
X162900999Y-83301001D01*
X162900999Y-83301001D01*
G37*
G36*
X151751001Y-82051001D02*
G01*
X149848999Y-82051001D01*
X149848999Y-81291801D01*
X151751001Y-81291801D01*
X151751001Y-82051001D01*
X151751001Y-82051001D01*
G37*
G36*
X155314499Y-80128445D02*
G01*
X155351995Y-80139820D01*
X155386554Y-80158292D01*
X155416847Y-80183153D01*
X155441708Y-80213446D01*
X155460180Y-80248005D01*
X155471555Y-80285501D01*
X155476000Y-80330638D01*
X155476000Y-80969362D01*
X155471555Y-81014499D01*
X155460180Y-81051995D01*
X155441708Y-81086554D01*
X155416847Y-81116847D01*
X155386554Y-81141708D01*
X155351995Y-81160180D01*
X155314499Y-81171555D01*
X155269362Y-81176000D01*
X154530638Y-81176000D01*
X154485501Y-81171555D01*
X154448005Y-81160180D01*
X154413446Y-81141708D01*
X154383153Y-81116847D01*
X154358292Y-81086554D01*
X154339820Y-81051995D01*
X154328445Y-81014499D01*
X154324000Y-80969362D01*
X154324000Y-80330638D01*
X154328445Y-80285501D01*
X154339820Y-80248005D01*
X154358292Y-80213446D01*
X154383153Y-80183153D01*
X154413446Y-80158292D01*
X154448005Y-80139820D01*
X154485501Y-80128445D01*
X154530638Y-80124000D01*
X155269362Y-80124000D01*
X155314499Y-80128445D01*
X155314499Y-80128445D01*
G37*
G36*
X153564499Y-80128445D02*
G01*
X153601995Y-80139820D01*
X153636554Y-80158292D01*
X153666847Y-80183153D01*
X153691708Y-80213446D01*
X153710180Y-80248005D01*
X153721555Y-80285501D01*
X153726000Y-80330638D01*
X153726000Y-80969362D01*
X153721555Y-81014499D01*
X153710180Y-81051995D01*
X153691708Y-81086554D01*
X153666847Y-81116847D01*
X153636554Y-81141708D01*
X153601995Y-81160180D01*
X153564499Y-81171555D01*
X153519362Y-81176000D01*
X152780638Y-81176000D01*
X152735501Y-81171555D01*
X152698005Y-81160180D01*
X152663446Y-81141708D01*
X152633153Y-81116847D01*
X152608292Y-81086554D01*
X152589820Y-81051995D01*
X152578445Y-81014499D01*
X152574000Y-80969362D01*
X152574000Y-80330638D01*
X152578445Y-80285501D01*
X152589820Y-80248005D01*
X152608292Y-80213446D01*
X152633153Y-80183153D01*
X152663446Y-80158292D01*
X152698005Y-80139820D01*
X152735501Y-80128445D01*
X152780638Y-80124000D01*
X153519362Y-80124000D01*
X153564499Y-80128445D01*
X153564499Y-80128445D01*
G37*
G36*
X141570296Y-74991629D02*
G01*
X141577311Y-74993757D01*
X141583777Y-74997214D01*
X141594211Y-75005776D01*
X141816048Y-75227613D01*
X141824610Y-75238047D01*
X141828067Y-75244514D01*
X141832598Y-75259450D01*
X141841975Y-75282089D01*
X141855589Y-75302463D01*
X141872916Y-75319790D01*
X141893291Y-75333404D01*
X141915928Y-75342780D01*
X141930864Y-75347311D01*
X141937331Y-75350768D01*
X141947765Y-75359330D01*
X142169602Y-75581167D01*
X142178164Y-75591601D01*
X142181621Y-75598067D01*
X142186152Y-75613004D01*
X142195530Y-75635643D01*
X142209144Y-75656017D01*
X142226471Y-75673344D01*
X142246846Y-75686957D01*
X142269481Y-75696333D01*
X142284418Y-75700864D01*
X142290884Y-75704321D01*
X142301318Y-75712883D01*
X142523155Y-75934720D01*
X142531717Y-75945154D01*
X142535174Y-75951621D01*
X142539705Y-75966557D01*
X142549082Y-75989196D01*
X142562696Y-76009570D01*
X142580023Y-76026897D01*
X142600398Y-76040511D01*
X142623035Y-76049887D01*
X142637971Y-76054418D01*
X142644438Y-76057875D01*
X142654872Y-76066437D01*
X142876709Y-76288274D01*
X142885271Y-76298708D01*
X142888728Y-76305174D01*
X142893259Y-76320111D01*
X142902637Y-76342750D01*
X142916251Y-76363124D01*
X142933578Y-76380451D01*
X142953953Y-76394064D01*
X142976588Y-76403440D01*
X142991525Y-76407971D01*
X142997991Y-76411428D01*
X143008425Y-76419990D01*
X143230262Y-76641827D01*
X143238824Y-76652261D01*
X143242281Y-76658727D01*
X143246812Y-76673664D01*
X143256190Y-76696303D01*
X143269804Y-76716677D01*
X143287131Y-76734004D01*
X143307506Y-76747617D01*
X143330141Y-76756993D01*
X143345078Y-76761524D01*
X143351544Y-76764981D01*
X143361978Y-76773543D01*
X143583815Y-76995380D01*
X143592377Y-77005814D01*
X143595834Y-77012281D01*
X143600365Y-77027217D01*
X143609742Y-77049856D01*
X143623356Y-77070230D01*
X143640683Y-77087557D01*
X143661058Y-77101171D01*
X143683695Y-77110547D01*
X143698631Y-77115078D01*
X143705098Y-77118535D01*
X143715532Y-77127097D01*
X143937369Y-77348934D01*
X143945931Y-77359368D01*
X143949388Y-77365834D01*
X143953919Y-77380771D01*
X143963297Y-77403410D01*
X143976911Y-77423784D01*
X143994238Y-77441111D01*
X144014613Y-77454724D01*
X144037248Y-77464100D01*
X144052185Y-77468631D01*
X144058651Y-77472088D01*
X144069085Y-77480650D01*
X144290922Y-77702487D01*
X144299484Y-77712921D01*
X144302941Y-77719387D01*
X144307472Y-77734324D01*
X144316850Y-77756963D01*
X144330464Y-77777337D01*
X144347791Y-77794664D01*
X144368166Y-77808277D01*
X144390801Y-77817653D01*
X144405738Y-77822184D01*
X144412204Y-77825641D01*
X144422638Y-77834203D01*
X144644475Y-78056040D01*
X144653037Y-78066474D01*
X144656494Y-78072941D01*
X144661025Y-78087877D01*
X144670402Y-78110516D01*
X144684016Y-78130890D01*
X144701343Y-78148217D01*
X144721718Y-78161831D01*
X144744355Y-78171207D01*
X144759291Y-78175738D01*
X144765758Y-78179195D01*
X144776192Y-78187757D01*
X144998029Y-78409594D01*
X145006591Y-78420028D01*
X145010048Y-78426494D01*
X145014579Y-78441431D01*
X145023957Y-78464070D01*
X145037571Y-78484444D01*
X145054898Y-78501771D01*
X145075273Y-78515384D01*
X145097908Y-78524760D01*
X145112845Y-78529291D01*
X145119311Y-78532748D01*
X145129745Y-78541310D01*
X145351582Y-78763147D01*
X145360144Y-78773581D01*
X145363601Y-78780048D01*
X145368132Y-78794984D01*
X145377509Y-78817623D01*
X145391123Y-78837997D01*
X145408450Y-78855324D01*
X145428825Y-78868938D01*
X145451462Y-78878314D01*
X145466398Y-78882845D01*
X145472865Y-78886302D01*
X145483299Y-78894864D01*
X145705136Y-79116701D01*
X145713698Y-79127135D01*
X145717155Y-79133601D01*
X145719283Y-79140616D01*
X145720001Y-79147911D01*
X145719283Y-79155206D01*
X145717155Y-79162221D01*
X145713698Y-79168687D01*
X145705136Y-79179121D01*
X144652449Y-80231808D01*
X144642015Y-80240370D01*
X144635549Y-80243827D01*
X144628534Y-80245955D01*
X144621239Y-80246673D01*
X144613944Y-80245955D01*
X144606929Y-80243827D01*
X144600463Y-80240370D01*
X144590029Y-80231808D01*
X144368192Y-80009971D01*
X144359630Y-79999537D01*
X144356173Y-79993070D01*
X144351642Y-79978134D01*
X144342265Y-79955495D01*
X144328651Y-79935121D01*
X144311324Y-79917794D01*
X144290949Y-79904180D01*
X144268312Y-79894804D01*
X144253376Y-79890273D01*
X144246909Y-79886816D01*
X144236475Y-79878254D01*
X144014638Y-79656417D01*
X144006076Y-79645983D01*
X144002619Y-79639517D01*
X143998088Y-79624580D01*
X143988710Y-79601941D01*
X143975096Y-79581567D01*
X143957769Y-79564240D01*
X143937394Y-79550627D01*
X143914759Y-79541251D01*
X143899822Y-79536720D01*
X143893356Y-79533263D01*
X143882922Y-79524701D01*
X143661085Y-79302864D01*
X143652523Y-79292430D01*
X143649066Y-79285963D01*
X143644535Y-79271027D01*
X143635158Y-79248388D01*
X143621544Y-79228014D01*
X143604217Y-79210687D01*
X143583842Y-79197073D01*
X143561205Y-79187697D01*
X143546269Y-79183166D01*
X143539802Y-79179709D01*
X143529368Y-79171147D01*
X143307531Y-78949310D01*
X143298969Y-78938876D01*
X143295512Y-78932410D01*
X143290981Y-78917473D01*
X143281603Y-78894834D01*
X143267989Y-78874460D01*
X143250662Y-78857133D01*
X143230287Y-78843520D01*
X143207652Y-78834144D01*
X143192715Y-78829613D01*
X143186249Y-78826156D01*
X143175815Y-78817594D01*
X142953978Y-78595757D01*
X142945416Y-78585323D01*
X142941959Y-78578857D01*
X142937428Y-78563920D01*
X142928050Y-78541281D01*
X142914436Y-78520907D01*
X142897109Y-78503580D01*
X142876734Y-78489967D01*
X142854099Y-78480591D01*
X142839162Y-78476060D01*
X142832696Y-78472603D01*
X142822262Y-78464041D01*
X142600425Y-78242204D01*
X142591863Y-78231770D01*
X142588406Y-78225303D01*
X142583875Y-78210367D01*
X142574498Y-78187728D01*
X142560884Y-78167354D01*
X142543557Y-78150027D01*
X142523182Y-78136413D01*
X142500545Y-78127037D01*
X142485609Y-78122506D01*
X142479142Y-78119049D01*
X142468708Y-78110487D01*
X142246871Y-77888650D01*
X142238309Y-77878216D01*
X142234852Y-77871750D01*
X142230321Y-77856813D01*
X142220943Y-77834174D01*
X142207329Y-77813800D01*
X142190002Y-77796473D01*
X142169627Y-77782860D01*
X142146992Y-77773484D01*
X142132055Y-77768953D01*
X142125589Y-77765496D01*
X142115155Y-77756934D01*
X141893318Y-77535097D01*
X141884756Y-77524663D01*
X141881299Y-77518197D01*
X141876768Y-77503260D01*
X141867390Y-77480621D01*
X141853776Y-77460247D01*
X141836449Y-77442920D01*
X141816074Y-77429307D01*
X141793439Y-77419931D01*
X141778502Y-77415400D01*
X141772036Y-77411943D01*
X141761602Y-77403381D01*
X141539765Y-77181544D01*
X141531203Y-77171110D01*
X141527746Y-77164643D01*
X141523215Y-77149707D01*
X141513838Y-77127068D01*
X141500224Y-77106694D01*
X141482897Y-77089367D01*
X141462522Y-77075753D01*
X141439885Y-77066377D01*
X141424949Y-77061846D01*
X141418482Y-77058389D01*
X141408048Y-77049827D01*
X141186211Y-76827990D01*
X141177649Y-76817556D01*
X141174192Y-76811090D01*
X141169661Y-76796153D01*
X141160283Y-76773514D01*
X141146669Y-76753140D01*
X141129342Y-76735813D01*
X141108967Y-76722200D01*
X141086332Y-76712824D01*
X141071395Y-76708293D01*
X141064929Y-76704836D01*
X141054495Y-76696274D01*
X140832658Y-76474437D01*
X140824096Y-76464003D01*
X140820639Y-76457536D01*
X140816108Y-76442600D01*
X140806731Y-76419961D01*
X140793117Y-76399587D01*
X140775790Y-76382260D01*
X140755415Y-76368646D01*
X140732778Y-76359270D01*
X140717842Y-76354739D01*
X140711375Y-76351282D01*
X140700941Y-76342720D01*
X140479104Y-76120883D01*
X140470542Y-76110449D01*
X140467085Y-76103983D01*
X140464957Y-76096968D01*
X140464239Y-76089673D01*
X140464957Y-76082378D01*
X140467085Y-76075363D01*
X140470542Y-76068897D01*
X140479104Y-76058463D01*
X141531791Y-75005776D01*
X141542225Y-74997214D01*
X141548691Y-74993757D01*
X141555706Y-74991629D01*
X141563001Y-74990911D01*
X141570296Y-74991629D01*
X141570296Y-74991629D01*
G37*
G36*
X138741870Y-74991629D02*
G01*
X138748885Y-74993757D01*
X138755351Y-74997214D01*
X138765785Y-75005776D01*
X139818472Y-76058463D01*
X139827034Y-76068897D01*
X139830491Y-76075363D01*
X139832619Y-76082378D01*
X139833337Y-76089673D01*
X139832619Y-76096968D01*
X139830491Y-76103983D01*
X139827034Y-76110449D01*
X139818472Y-76120883D01*
X139596635Y-76342720D01*
X139586201Y-76351282D01*
X139579734Y-76354739D01*
X139564798Y-76359270D01*
X139542159Y-76368647D01*
X139521785Y-76382261D01*
X139504458Y-76399588D01*
X139490844Y-76419963D01*
X139481468Y-76442600D01*
X139476937Y-76457536D01*
X139473480Y-76464003D01*
X139464918Y-76474437D01*
X139243081Y-76696274D01*
X139232647Y-76704836D01*
X139226181Y-76708293D01*
X139211244Y-76712824D01*
X139188605Y-76722202D01*
X139168231Y-76735816D01*
X139150904Y-76753143D01*
X139137291Y-76773518D01*
X139127915Y-76796153D01*
X139123384Y-76811090D01*
X139119927Y-76817556D01*
X139111365Y-76827990D01*
X138889528Y-77049827D01*
X138879094Y-77058389D01*
X138872627Y-77061846D01*
X138857691Y-77066377D01*
X138835052Y-77075754D01*
X138814678Y-77089368D01*
X138797351Y-77106695D01*
X138783737Y-77127070D01*
X138774361Y-77149707D01*
X138769830Y-77164643D01*
X138766373Y-77171110D01*
X138757811Y-77181544D01*
X138535974Y-77403381D01*
X138525540Y-77411943D01*
X138519074Y-77415400D01*
X138504137Y-77419931D01*
X138481498Y-77429309D01*
X138461124Y-77442923D01*
X138443797Y-77460250D01*
X138430184Y-77480625D01*
X138420808Y-77503260D01*
X138416277Y-77518197D01*
X138412820Y-77524663D01*
X138404258Y-77535097D01*
X138182421Y-77756934D01*
X138171987Y-77765496D01*
X138165521Y-77768953D01*
X138150584Y-77773484D01*
X138127945Y-77782862D01*
X138107571Y-77796476D01*
X138090244Y-77813803D01*
X138076631Y-77834178D01*
X138067255Y-77856813D01*
X138062724Y-77871750D01*
X138059267Y-77878216D01*
X138050705Y-77888650D01*
X137828868Y-78110487D01*
X137818434Y-78119049D01*
X137811967Y-78122506D01*
X137797031Y-78127037D01*
X137774392Y-78136414D01*
X137754018Y-78150028D01*
X137736691Y-78167355D01*
X137723077Y-78187730D01*
X137713701Y-78210367D01*
X137709170Y-78225303D01*
X137705713Y-78231770D01*
X137697151Y-78242204D01*
X137475314Y-78464041D01*
X137464880Y-78472603D01*
X137458414Y-78476060D01*
X137443477Y-78480591D01*
X137420838Y-78489969D01*
X137400464Y-78503583D01*
X137383137Y-78520910D01*
X137369524Y-78541285D01*
X137360148Y-78563920D01*
X137355617Y-78578857D01*
X137352160Y-78585323D01*
X137343598Y-78595757D01*
X137121761Y-78817594D01*
X137111327Y-78826156D01*
X137104861Y-78829613D01*
X137089924Y-78834144D01*
X137067285Y-78843522D01*
X137046911Y-78857136D01*
X137029584Y-78874463D01*
X137015971Y-78894838D01*
X137006595Y-78917473D01*
X137002064Y-78932410D01*
X136998607Y-78938876D01*
X136990045Y-78949310D01*
X136768208Y-79171147D01*
X136757774Y-79179709D01*
X136751307Y-79183166D01*
X136736371Y-79187697D01*
X136713732Y-79197074D01*
X136693358Y-79210688D01*
X136676031Y-79228015D01*
X136662417Y-79248390D01*
X136653041Y-79271027D01*
X136648510Y-79285963D01*
X136645053Y-79292430D01*
X136636491Y-79302864D01*
X136414654Y-79524701D01*
X136404220Y-79533263D01*
X136397754Y-79536720D01*
X136382817Y-79541251D01*
X136360178Y-79550629D01*
X136339804Y-79564243D01*
X136322477Y-79581570D01*
X136308864Y-79601945D01*
X136299488Y-79624580D01*
X136294957Y-79639517D01*
X136291500Y-79645983D01*
X136282938Y-79656417D01*
X136061101Y-79878254D01*
X136050667Y-79886816D01*
X136044200Y-79890273D01*
X136029264Y-79894804D01*
X136006625Y-79904181D01*
X135986251Y-79917795D01*
X135968924Y-79935122D01*
X135955310Y-79955497D01*
X135945934Y-79978134D01*
X135941403Y-79993070D01*
X135937946Y-79999537D01*
X135929384Y-80009971D01*
X135707547Y-80231808D01*
X135697113Y-80240370D01*
X135690647Y-80243827D01*
X135683632Y-80245955D01*
X135676337Y-80246673D01*
X135669042Y-80245955D01*
X135662027Y-80243827D01*
X135655561Y-80240370D01*
X135645127Y-80231808D01*
X134592440Y-79179121D01*
X134583878Y-79168687D01*
X134580421Y-79162221D01*
X134578293Y-79155206D01*
X134577575Y-79147911D01*
X134578293Y-79140616D01*
X134580421Y-79133601D01*
X134583878Y-79127135D01*
X134592440Y-79116701D01*
X134814277Y-78894864D01*
X134824711Y-78886302D01*
X134831178Y-78882845D01*
X134846114Y-78878314D01*
X134868753Y-78868937D01*
X134889127Y-78855323D01*
X134906454Y-78837996D01*
X134920068Y-78817621D01*
X134929444Y-78794984D01*
X134933975Y-78780048D01*
X134937432Y-78773581D01*
X134945994Y-78763147D01*
X135167831Y-78541310D01*
X135178265Y-78532748D01*
X135184731Y-78529291D01*
X135199668Y-78524760D01*
X135222307Y-78515382D01*
X135242681Y-78501768D01*
X135260008Y-78484441D01*
X135273621Y-78464066D01*
X135282997Y-78441431D01*
X135287528Y-78426494D01*
X135290985Y-78420028D01*
X135299547Y-78409594D01*
X135521384Y-78187757D01*
X135531818Y-78179195D01*
X135538285Y-78175738D01*
X135553221Y-78171207D01*
X135575860Y-78161830D01*
X135596234Y-78148216D01*
X135613561Y-78130889D01*
X135627175Y-78110514D01*
X135636551Y-78087877D01*
X135641082Y-78072941D01*
X135644539Y-78066474D01*
X135653101Y-78056040D01*
X135874938Y-77834203D01*
X135885372Y-77825641D01*
X135891838Y-77822184D01*
X135906775Y-77817653D01*
X135929414Y-77808275D01*
X135949788Y-77794661D01*
X135967115Y-77777334D01*
X135980728Y-77756959D01*
X135990104Y-77734324D01*
X135994635Y-77719387D01*
X135998092Y-77712921D01*
X136006654Y-77702487D01*
X136228491Y-77480650D01*
X136238925Y-77472088D01*
X136245391Y-77468631D01*
X136260328Y-77464100D01*
X136282967Y-77454722D01*
X136303341Y-77441108D01*
X136320668Y-77423781D01*
X136334281Y-77403406D01*
X136343657Y-77380771D01*
X136348188Y-77365834D01*
X136351645Y-77359368D01*
X136360207Y-77348934D01*
X136582044Y-77127097D01*
X136592478Y-77118535D01*
X136598945Y-77115078D01*
X136613881Y-77110547D01*
X136636520Y-77101170D01*
X136656894Y-77087556D01*
X136674221Y-77070229D01*
X136687835Y-77049854D01*
X136697211Y-77027217D01*
X136701742Y-77012281D01*
X136705199Y-77005814D01*
X136713761Y-76995380D01*
X136935598Y-76773543D01*
X136946032Y-76764981D01*
X136952498Y-76761524D01*
X136967435Y-76756993D01*
X136990074Y-76747615D01*
X137010448Y-76734001D01*
X137027775Y-76716674D01*
X137041388Y-76696299D01*
X137050764Y-76673664D01*
X137055295Y-76658727D01*
X137058752Y-76652261D01*
X137067314Y-76641827D01*
X137289151Y-76419990D01*
X137299585Y-76411428D01*
X137306051Y-76407971D01*
X137320988Y-76403440D01*
X137343627Y-76394062D01*
X137364001Y-76380448D01*
X137381328Y-76363121D01*
X137394941Y-76342746D01*
X137404317Y-76320111D01*
X137408848Y-76305174D01*
X137412305Y-76298708D01*
X137420867Y-76288274D01*
X137642704Y-76066437D01*
X137653138Y-76057875D01*
X137659605Y-76054418D01*
X137674541Y-76049887D01*
X137697180Y-76040510D01*
X137717554Y-76026896D01*
X137734881Y-76009569D01*
X137748495Y-75989194D01*
X137757871Y-75966557D01*
X137762402Y-75951621D01*
X137765859Y-75945154D01*
X137774421Y-75934720D01*
X137996258Y-75712883D01*
X138006692Y-75704321D01*
X138013158Y-75700864D01*
X138028095Y-75696333D01*
X138050734Y-75686955D01*
X138071108Y-75673341D01*
X138088435Y-75656014D01*
X138102048Y-75635639D01*
X138111424Y-75613004D01*
X138115955Y-75598067D01*
X138119412Y-75591601D01*
X138127974Y-75581167D01*
X138349811Y-75359330D01*
X138360245Y-75350768D01*
X138366712Y-75347311D01*
X138381648Y-75342780D01*
X138404287Y-75333403D01*
X138424661Y-75319789D01*
X138441988Y-75302462D01*
X138455602Y-75282087D01*
X138464978Y-75259450D01*
X138469509Y-75244514D01*
X138472966Y-75238047D01*
X138481528Y-75227613D01*
X138703365Y-75005776D01*
X138713799Y-74997214D01*
X138720265Y-74993757D01*
X138727280Y-74991629D01*
X138734575Y-74990911D01*
X138741870Y-74991629D01*
X138741870Y-74991629D01*
G37*
G36*
X151451000Y-80176000D02*
G01*
X150449000Y-80176000D01*
X150449000Y-74024000D01*
X151451000Y-74024000D01*
X151451000Y-80176000D01*
X151451000Y-80176000D01*
G37*
G36*
X149751000Y-80176000D02*
G01*
X148749000Y-80176000D01*
X148749000Y-74024000D01*
X149751000Y-74024000D01*
X149751000Y-80176000D01*
X149751000Y-80176000D01*
G37*
M02*
