G04 #@! TF.GenerationSoftware,KiCad,Pcbnew,(5.1.2)-2*
G04 #@! TF.CreationDate,2020-04-12T13:41:49-04:00*
G04 #@! TF.ProjectId,MotorcycleSwitch,4d6f746f-7263-4796-936c-655377697463,rev?*
G04 #@! TF.SameCoordinates,Original*
G04 #@! TF.FileFunction,Soldermask,Bot*
G04 #@! TF.FilePolarity,Negative*
%FSLAX46Y46*%
G04 Gerber Fmt 4.6, Leading zero omitted, Abs format (unit mm)*
G04 Created by KiCad (PCBNEW (5.1.2)-2) date 2020-04-12 13:41:49*
%MOMM*%
%LPD*%
G04 APERTURE LIST*
%ADD10C,0.100000*%
G04 APERTURE END LIST*
D10*
G36*
X138329591Y-126403085D02*
G01*
X138363569Y-126413393D01*
X138394890Y-126430134D01*
X138422339Y-126452661D01*
X138444866Y-126480110D01*
X138461607Y-126511431D01*
X138471915Y-126545409D01*
X138476000Y-126586890D01*
X138476000Y-127188110D01*
X138471915Y-127229591D01*
X138461607Y-127263569D01*
X138444866Y-127294890D01*
X138422339Y-127322339D01*
X138394890Y-127344866D01*
X138363569Y-127361607D01*
X138329591Y-127371915D01*
X138288110Y-127376000D01*
X137611890Y-127376000D01*
X137570409Y-127371915D01*
X137536431Y-127361607D01*
X137505110Y-127344866D01*
X137477661Y-127322339D01*
X137455134Y-127294890D01*
X137438393Y-127263569D01*
X137428085Y-127229591D01*
X137424000Y-127188110D01*
X137424000Y-126586890D01*
X137428085Y-126545409D01*
X137438393Y-126511431D01*
X137455134Y-126480110D01*
X137477661Y-126452661D01*
X137505110Y-126430134D01*
X137536431Y-126413393D01*
X137570409Y-126403085D01*
X137611890Y-126399000D01*
X138288110Y-126399000D01*
X138329591Y-126403085D01*
X138329591Y-126403085D01*
G37*
G36*
X140029591Y-126403085D02*
G01*
X140063569Y-126413393D01*
X140094890Y-126430134D01*
X140122339Y-126452661D01*
X140144866Y-126480110D01*
X140161607Y-126511431D01*
X140171915Y-126545409D01*
X140176000Y-126586890D01*
X140176000Y-127188110D01*
X140171915Y-127229591D01*
X140161607Y-127263569D01*
X140144866Y-127294890D01*
X140122339Y-127322339D01*
X140094890Y-127344866D01*
X140063569Y-127361607D01*
X140029591Y-127371915D01*
X139988110Y-127376000D01*
X139311890Y-127376000D01*
X139270409Y-127371915D01*
X139236431Y-127361607D01*
X139205110Y-127344866D01*
X139177661Y-127322339D01*
X139155134Y-127294890D01*
X139138393Y-127263569D01*
X139128085Y-127229591D01*
X139124000Y-127188110D01*
X139124000Y-126586890D01*
X139128085Y-126545409D01*
X139138393Y-126511431D01*
X139155134Y-126480110D01*
X139177661Y-126452661D01*
X139205110Y-126430134D01*
X139236431Y-126413393D01*
X139270409Y-126403085D01*
X139311890Y-126399000D01*
X139988110Y-126399000D01*
X140029591Y-126403085D01*
X140029591Y-126403085D01*
G37*
G36*
X141779591Y-126403085D02*
G01*
X141813569Y-126413393D01*
X141844890Y-126430134D01*
X141872339Y-126452661D01*
X141894866Y-126480110D01*
X141911607Y-126511431D01*
X141921915Y-126545409D01*
X141926000Y-126586890D01*
X141926000Y-127188110D01*
X141921915Y-127229591D01*
X141911607Y-127263569D01*
X141894866Y-127294890D01*
X141872339Y-127322339D01*
X141844890Y-127344866D01*
X141813569Y-127361607D01*
X141779591Y-127371915D01*
X141738110Y-127376000D01*
X141061890Y-127376000D01*
X141020409Y-127371915D01*
X140986431Y-127361607D01*
X140955110Y-127344866D01*
X140927661Y-127322339D01*
X140905134Y-127294890D01*
X140888393Y-127263569D01*
X140878085Y-127229591D01*
X140874000Y-127188110D01*
X140874000Y-126586890D01*
X140878085Y-126545409D01*
X140888393Y-126511431D01*
X140905134Y-126480110D01*
X140927661Y-126452661D01*
X140955110Y-126430134D01*
X140986431Y-126413393D01*
X141020409Y-126403085D01*
X141061890Y-126399000D01*
X141738110Y-126399000D01*
X141779591Y-126403085D01*
X141779591Y-126403085D01*
G37*
G36*
X154654591Y-126378085D02*
G01*
X154688569Y-126388393D01*
X154719890Y-126405134D01*
X154747339Y-126427661D01*
X154769866Y-126455110D01*
X154786607Y-126486431D01*
X154796915Y-126520409D01*
X154801000Y-126561890D01*
X154801000Y-127163110D01*
X154796915Y-127204591D01*
X154786607Y-127238569D01*
X154769866Y-127269890D01*
X154747339Y-127297339D01*
X154719890Y-127319866D01*
X154688569Y-127336607D01*
X154654591Y-127346915D01*
X154613110Y-127351000D01*
X153936890Y-127351000D01*
X153895409Y-127346915D01*
X153861431Y-127336607D01*
X153830110Y-127319866D01*
X153802661Y-127297339D01*
X153780134Y-127269890D01*
X153763393Y-127238569D01*
X153753085Y-127204591D01*
X153749000Y-127163110D01*
X153749000Y-126561890D01*
X153753085Y-126520409D01*
X153763393Y-126486431D01*
X153780134Y-126455110D01*
X153802661Y-126427661D01*
X153830110Y-126405134D01*
X153861431Y-126388393D01*
X153895409Y-126378085D01*
X153936890Y-126374000D01*
X154613110Y-126374000D01*
X154654591Y-126378085D01*
X154654591Y-126378085D01*
G37*
G36*
X156329591Y-126378085D02*
G01*
X156363569Y-126388393D01*
X156394890Y-126405134D01*
X156422339Y-126427661D01*
X156444866Y-126455110D01*
X156461607Y-126486431D01*
X156471915Y-126520409D01*
X156476000Y-126561890D01*
X156476000Y-127163110D01*
X156471915Y-127204591D01*
X156461607Y-127238569D01*
X156444866Y-127269890D01*
X156422339Y-127297339D01*
X156394890Y-127319866D01*
X156363569Y-127336607D01*
X156329591Y-127346915D01*
X156288110Y-127351000D01*
X155611890Y-127351000D01*
X155570409Y-127346915D01*
X155536431Y-127336607D01*
X155505110Y-127319866D01*
X155477661Y-127297339D01*
X155455134Y-127269890D01*
X155438393Y-127238569D01*
X155428085Y-127204591D01*
X155424000Y-127163110D01*
X155424000Y-126561890D01*
X155428085Y-126520409D01*
X155438393Y-126486431D01*
X155455134Y-126455110D01*
X155477661Y-126427661D01*
X155505110Y-126405134D01*
X155536431Y-126388393D01*
X155570409Y-126378085D01*
X155611890Y-126374000D01*
X156288110Y-126374000D01*
X156329591Y-126378085D01*
X156329591Y-126378085D01*
G37*
G36*
X135204591Y-124828085D02*
G01*
X135238569Y-124838393D01*
X135269890Y-124855134D01*
X135297339Y-124877661D01*
X135319866Y-124905110D01*
X135336607Y-124936431D01*
X135346915Y-124970409D01*
X135351000Y-125011890D01*
X135351000Y-125688110D01*
X135346915Y-125729591D01*
X135336607Y-125763569D01*
X135319866Y-125794890D01*
X135297339Y-125822339D01*
X135269890Y-125844866D01*
X135238569Y-125861607D01*
X135204591Y-125871915D01*
X135163110Y-125876000D01*
X134561890Y-125876000D01*
X134520409Y-125871915D01*
X134486431Y-125861607D01*
X134455110Y-125844866D01*
X134427661Y-125822339D01*
X134405134Y-125794890D01*
X134388393Y-125763569D01*
X134378085Y-125729591D01*
X134374000Y-125688110D01*
X134374000Y-125011890D01*
X134378085Y-124970409D01*
X134388393Y-124936431D01*
X134405134Y-124905110D01*
X134427661Y-124877661D01*
X134455110Y-124855134D01*
X134486431Y-124838393D01*
X134520409Y-124828085D01*
X134561890Y-124824000D01*
X135163110Y-124824000D01*
X135204591Y-124828085D01*
X135204591Y-124828085D01*
G37*
G36*
X136779591Y-124828085D02*
G01*
X136813569Y-124838393D01*
X136844890Y-124855134D01*
X136872339Y-124877661D01*
X136894866Y-124905110D01*
X136911607Y-124936431D01*
X136921915Y-124970409D01*
X136926000Y-125011890D01*
X136926000Y-125688110D01*
X136921915Y-125729591D01*
X136911607Y-125763569D01*
X136894866Y-125794890D01*
X136872339Y-125822339D01*
X136844890Y-125844866D01*
X136813569Y-125861607D01*
X136779591Y-125871915D01*
X136738110Y-125876000D01*
X136136890Y-125876000D01*
X136095409Y-125871915D01*
X136061431Y-125861607D01*
X136030110Y-125844866D01*
X136002661Y-125822339D01*
X135980134Y-125794890D01*
X135963393Y-125763569D01*
X135953085Y-125729591D01*
X135949000Y-125688110D01*
X135949000Y-125011890D01*
X135953085Y-124970409D01*
X135963393Y-124936431D01*
X135980134Y-124905110D01*
X136002661Y-124877661D01*
X136030110Y-124855134D01*
X136061431Y-124838393D01*
X136095409Y-124828085D01*
X136136890Y-124824000D01*
X136738110Y-124824000D01*
X136779591Y-124828085D01*
X136779591Y-124828085D01*
G37*
G36*
X153029591Y-124803085D02*
G01*
X153063569Y-124813393D01*
X153094890Y-124830134D01*
X153122339Y-124852661D01*
X153144866Y-124880110D01*
X153161607Y-124911431D01*
X153171915Y-124945409D01*
X153176000Y-124986890D01*
X153176000Y-125663110D01*
X153171915Y-125704591D01*
X153161607Y-125738569D01*
X153144866Y-125769890D01*
X153122339Y-125797339D01*
X153094890Y-125819866D01*
X153063569Y-125836607D01*
X153029591Y-125846915D01*
X152988110Y-125851000D01*
X152386890Y-125851000D01*
X152345409Y-125846915D01*
X152311431Y-125836607D01*
X152280110Y-125819866D01*
X152252661Y-125797339D01*
X152230134Y-125769890D01*
X152213393Y-125738569D01*
X152203085Y-125704591D01*
X152199000Y-125663110D01*
X152199000Y-124986890D01*
X152203085Y-124945409D01*
X152213393Y-124911431D01*
X152230134Y-124880110D01*
X152252661Y-124852661D01*
X152280110Y-124830134D01*
X152311431Y-124813393D01*
X152345409Y-124803085D01*
X152386890Y-124799000D01*
X152988110Y-124799000D01*
X153029591Y-124803085D01*
X153029591Y-124803085D01*
G37*
G36*
X159429591Y-124803085D02*
G01*
X159463569Y-124813393D01*
X159494890Y-124830134D01*
X159522339Y-124852661D01*
X159544866Y-124880110D01*
X159561607Y-124911431D01*
X159571915Y-124945409D01*
X159576000Y-124986890D01*
X159576000Y-125663110D01*
X159571915Y-125704591D01*
X159561607Y-125738569D01*
X159544866Y-125769890D01*
X159522339Y-125797339D01*
X159494890Y-125819866D01*
X159463569Y-125836607D01*
X159429591Y-125846915D01*
X159388110Y-125851000D01*
X158786890Y-125851000D01*
X158745409Y-125846915D01*
X158711431Y-125836607D01*
X158680110Y-125819866D01*
X158652661Y-125797339D01*
X158630134Y-125769890D01*
X158613393Y-125738569D01*
X158603085Y-125704591D01*
X158599000Y-125663110D01*
X158599000Y-124986890D01*
X158603085Y-124945409D01*
X158613393Y-124911431D01*
X158630134Y-124880110D01*
X158652661Y-124852661D01*
X158680110Y-124830134D01*
X158711431Y-124813393D01*
X158745409Y-124803085D01*
X158786890Y-124799000D01*
X159388110Y-124799000D01*
X159429591Y-124803085D01*
X159429591Y-124803085D01*
G37*
G36*
X157854591Y-124803085D02*
G01*
X157888569Y-124813393D01*
X157919890Y-124830134D01*
X157947339Y-124852661D01*
X157969866Y-124880110D01*
X157986607Y-124911431D01*
X157996915Y-124945409D01*
X158001000Y-124986890D01*
X158001000Y-125663110D01*
X157996915Y-125704591D01*
X157986607Y-125738569D01*
X157969866Y-125769890D01*
X157947339Y-125797339D01*
X157919890Y-125819866D01*
X157888569Y-125836607D01*
X157854591Y-125846915D01*
X157813110Y-125851000D01*
X157211890Y-125851000D01*
X157170409Y-125846915D01*
X157136431Y-125836607D01*
X157105110Y-125819866D01*
X157077661Y-125797339D01*
X157055134Y-125769890D01*
X157038393Y-125738569D01*
X157028085Y-125704591D01*
X157024000Y-125663110D01*
X157024000Y-124986890D01*
X157028085Y-124945409D01*
X157038393Y-124911431D01*
X157055134Y-124880110D01*
X157077661Y-124852661D01*
X157105110Y-124830134D01*
X157136431Y-124813393D01*
X157170409Y-124803085D01*
X157211890Y-124799000D01*
X157813110Y-124799000D01*
X157854591Y-124803085D01*
X157854591Y-124803085D01*
G37*
G36*
X151454591Y-124803085D02*
G01*
X151488569Y-124813393D01*
X151519890Y-124830134D01*
X151547339Y-124852661D01*
X151569866Y-124880110D01*
X151586607Y-124911431D01*
X151596915Y-124945409D01*
X151601000Y-124986890D01*
X151601000Y-125663110D01*
X151596915Y-125704591D01*
X151586607Y-125738569D01*
X151569866Y-125769890D01*
X151547339Y-125797339D01*
X151519890Y-125819866D01*
X151488569Y-125836607D01*
X151454591Y-125846915D01*
X151413110Y-125851000D01*
X150811890Y-125851000D01*
X150770409Y-125846915D01*
X150736431Y-125836607D01*
X150705110Y-125819866D01*
X150677661Y-125797339D01*
X150655134Y-125769890D01*
X150638393Y-125738569D01*
X150628085Y-125704591D01*
X150624000Y-125663110D01*
X150624000Y-124986890D01*
X150628085Y-124945409D01*
X150638393Y-124911431D01*
X150655134Y-124880110D01*
X150677661Y-124852661D01*
X150705110Y-124830134D01*
X150736431Y-124813393D01*
X150770409Y-124803085D01*
X150811890Y-124799000D01*
X151413110Y-124799000D01*
X151454591Y-124803085D01*
X151454591Y-124803085D01*
G37*
G36*
X138329591Y-124828085D02*
G01*
X138363569Y-124838393D01*
X138394890Y-124855134D01*
X138422339Y-124877661D01*
X138444866Y-124905110D01*
X138461607Y-124936431D01*
X138471915Y-124970409D01*
X138476000Y-125011890D01*
X138476000Y-125613110D01*
X138471915Y-125654591D01*
X138461607Y-125688569D01*
X138444866Y-125719890D01*
X138422339Y-125747339D01*
X138394890Y-125769866D01*
X138363569Y-125786607D01*
X138329591Y-125796915D01*
X138288110Y-125801000D01*
X137611890Y-125801000D01*
X137570409Y-125796915D01*
X137536431Y-125786607D01*
X137505110Y-125769866D01*
X137477661Y-125747339D01*
X137455134Y-125719890D01*
X137438393Y-125688569D01*
X137428085Y-125654591D01*
X137424000Y-125613110D01*
X137424000Y-125011890D01*
X137428085Y-124970409D01*
X137438393Y-124936431D01*
X137455134Y-124905110D01*
X137477661Y-124877661D01*
X137505110Y-124855134D01*
X137536431Y-124838393D01*
X137570409Y-124828085D01*
X137611890Y-124824000D01*
X138288110Y-124824000D01*
X138329591Y-124828085D01*
X138329591Y-124828085D01*
G37*
G36*
X141779591Y-124828085D02*
G01*
X141813569Y-124838393D01*
X141844890Y-124855134D01*
X141872339Y-124877661D01*
X141894866Y-124905110D01*
X141911607Y-124936431D01*
X141921915Y-124970409D01*
X141926000Y-125011890D01*
X141926000Y-125613110D01*
X141921915Y-125654591D01*
X141911607Y-125688569D01*
X141894866Y-125719890D01*
X141872339Y-125747339D01*
X141844890Y-125769866D01*
X141813569Y-125786607D01*
X141779591Y-125796915D01*
X141738110Y-125801000D01*
X141061890Y-125801000D01*
X141020409Y-125796915D01*
X140986431Y-125786607D01*
X140955110Y-125769866D01*
X140927661Y-125747339D01*
X140905134Y-125719890D01*
X140888393Y-125688569D01*
X140878085Y-125654591D01*
X140874000Y-125613110D01*
X140874000Y-125011890D01*
X140878085Y-124970409D01*
X140888393Y-124936431D01*
X140905134Y-124905110D01*
X140927661Y-124877661D01*
X140955110Y-124855134D01*
X140986431Y-124838393D01*
X141020409Y-124828085D01*
X141061890Y-124824000D01*
X141738110Y-124824000D01*
X141779591Y-124828085D01*
X141779591Y-124828085D01*
G37*
G36*
X140029591Y-124828085D02*
G01*
X140063569Y-124838393D01*
X140094890Y-124855134D01*
X140122339Y-124877661D01*
X140144866Y-124905110D01*
X140161607Y-124936431D01*
X140171915Y-124970409D01*
X140176000Y-125011890D01*
X140176000Y-125613110D01*
X140171915Y-125654591D01*
X140161607Y-125688569D01*
X140144866Y-125719890D01*
X140122339Y-125747339D01*
X140094890Y-125769866D01*
X140063569Y-125786607D01*
X140029591Y-125796915D01*
X139988110Y-125801000D01*
X139311890Y-125801000D01*
X139270409Y-125796915D01*
X139236431Y-125786607D01*
X139205110Y-125769866D01*
X139177661Y-125747339D01*
X139155134Y-125719890D01*
X139138393Y-125688569D01*
X139128085Y-125654591D01*
X139124000Y-125613110D01*
X139124000Y-125011890D01*
X139128085Y-124970409D01*
X139138393Y-124936431D01*
X139155134Y-124905110D01*
X139177661Y-124877661D01*
X139205110Y-124855134D01*
X139236431Y-124838393D01*
X139270409Y-124828085D01*
X139311890Y-124824000D01*
X139988110Y-124824000D01*
X140029591Y-124828085D01*
X140029591Y-124828085D01*
G37*
G36*
X156329591Y-124803085D02*
G01*
X156363569Y-124813393D01*
X156394890Y-124830134D01*
X156422339Y-124852661D01*
X156444866Y-124880110D01*
X156461607Y-124911431D01*
X156471915Y-124945409D01*
X156476000Y-124986890D01*
X156476000Y-125588110D01*
X156471915Y-125629591D01*
X156461607Y-125663569D01*
X156444866Y-125694890D01*
X156422339Y-125722339D01*
X156394890Y-125744866D01*
X156363569Y-125761607D01*
X156329591Y-125771915D01*
X156288110Y-125776000D01*
X155611890Y-125776000D01*
X155570409Y-125771915D01*
X155536431Y-125761607D01*
X155505110Y-125744866D01*
X155477661Y-125722339D01*
X155455134Y-125694890D01*
X155438393Y-125663569D01*
X155428085Y-125629591D01*
X155424000Y-125588110D01*
X155424000Y-124986890D01*
X155428085Y-124945409D01*
X155438393Y-124911431D01*
X155455134Y-124880110D01*
X155477661Y-124852661D01*
X155505110Y-124830134D01*
X155536431Y-124813393D01*
X155570409Y-124803085D01*
X155611890Y-124799000D01*
X156288110Y-124799000D01*
X156329591Y-124803085D01*
X156329591Y-124803085D01*
G37*
G36*
X154654591Y-124803085D02*
G01*
X154688569Y-124813393D01*
X154719890Y-124830134D01*
X154747339Y-124852661D01*
X154769866Y-124880110D01*
X154786607Y-124911431D01*
X154796915Y-124945409D01*
X154801000Y-124986890D01*
X154801000Y-125588110D01*
X154796915Y-125629591D01*
X154786607Y-125663569D01*
X154769866Y-125694890D01*
X154747339Y-125722339D01*
X154719890Y-125744866D01*
X154688569Y-125761607D01*
X154654591Y-125771915D01*
X154613110Y-125776000D01*
X153936890Y-125776000D01*
X153895409Y-125771915D01*
X153861431Y-125761607D01*
X153830110Y-125744866D01*
X153802661Y-125722339D01*
X153780134Y-125694890D01*
X153763393Y-125663569D01*
X153753085Y-125629591D01*
X153749000Y-125588110D01*
X153749000Y-124986890D01*
X153753085Y-124945409D01*
X153763393Y-124911431D01*
X153780134Y-124880110D01*
X153802661Y-124852661D01*
X153830110Y-124830134D01*
X153861431Y-124813393D01*
X153895409Y-124803085D01*
X153936890Y-124799000D01*
X154613110Y-124799000D01*
X154654591Y-124803085D01*
X154654591Y-124803085D01*
G37*
G36*
X160979591Y-124503085D02*
G01*
X161013569Y-124513393D01*
X161044890Y-124530134D01*
X161072339Y-124552661D01*
X161094866Y-124580110D01*
X161111607Y-124611431D01*
X161121915Y-124645409D01*
X161126000Y-124686890D01*
X161126000Y-125288110D01*
X161121915Y-125329591D01*
X161111607Y-125363569D01*
X161094866Y-125394890D01*
X161072339Y-125422339D01*
X161044890Y-125444866D01*
X161013569Y-125461607D01*
X160979591Y-125471915D01*
X160938110Y-125476000D01*
X160261890Y-125476000D01*
X160220409Y-125471915D01*
X160186431Y-125461607D01*
X160155110Y-125444866D01*
X160127661Y-125422339D01*
X160105134Y-125394890D01*
X160088393Y-125363569D01*
X160078085Y-125329591D01*
X160074000Y-125288110D01*
X160074000Y-124686890D01*
X160078085Y-124645409D01*
X160088393Y-124611431D01*
X160105134Y-124580110D01*
X160127661Y-124552661D01*
X160155110Y-124530134D01*
X160186431Y-124513393D01*
X160220409Y-124503085D01*
X160261890Y-124499000D01*
X160938110Y-124499000D01*
X160979591Y-124503085D01*
X160979591Y-124503085D01*
G37*
G36*
X160979591Y-122928085D02*
G01*
X161013569Y-122938393D01*
X161044890Y-122955134D01*
X161072339Y-122977661D01*
X161094866Y-123005110D01*
X161111607Y-123036431D01*
X161121915Y-123070409D01*
X161126000Y-123111890D01*
X161126000Y-123713110D01*
X161121915Y-123754591D01*
X161111607Y-123788569D01*
X161094866Y-123819890D01*
X161072339Y-123847339D01*
X161044890Y-123869866D01*
X161013569Y-123886607D01*
X160979591Y-123896915D01*
X160938110Y-123901000D01*
X160261890Y-123901000D01*
X160220409Y-123896915D01*
X160186431Y-123886607D01*
X160155110Y-123869866D01*
X160127661Y-123847339D01*
X160105134Y-123819890D01*
X160088393Y-123788569D01*
X160078085Y-123754591D01*
X160074000Y-123713110D01*
X160074000Y-123111890D01*
X160078085Y-123070409D01*
X160088393Y-123036431D01*
X160105134Y-123005110D01*
X160127661Y-122977661D01*
X160155110Y-122955134D01*
X160186431Y-122938393D01*
X160220409Y-122928085D01*
X160261890Y-122924000D01*
X160938110Y-122924000D01*
X160979591Y-122928085D01*
X160979591Y-122928085D01*
G37*
G36*
X136001000Y-123851000D02*
G01*
X134299000Y-123851000D01*
X134299000Y-122349000D01*
X136001000Y-122349000D01*
X136001000Y-123851000D01*
X136001000Y-123851000D01*
G37*
G36*
X143301000Y-123851000D02*
G01*
X141599000Y-123851000D01*
X141599000Y-122349000D01*
X143301000Y-122349000D01*
X143301000Y-123851000D01*
X143301000Y-123851000D01*
G37*
G36*
X159601000Y-123851000D02*
G01*
X157899000Y-123851000D01*
X157899000Y-122349000D01*
X159601000Y-122349000D01*
X159601000Y-123851000D01*
X159601000Y-123851000D01*
G37*
G36*
X152301000Y-123851000D02*
G01*
X150599000Y-123851000D01*
X150599000Y-122349000D01*
X152301000Y-122349000D01*
X152301000Y-123851000D01*
X152301000Y-123851000D01*
G37*
G36*
X147304591Y-121648085D02*
G01*
X147338569Y-121658393D01*
X147369890Y-121675134D01*
X147397339Y-121697661D01*
X147419866Y-121725110D01*
X147436607Y-121756431D01*
X147446915Y-121790409D01*
X147451000Y-121831890D01*
X147451000Y-122508110D01*
X147446915Y-122549591D01*
X147436607Y-122583569D01*
X147419866Y-122614890D01*
X147397339Y-122642339D01*
X147369890Y-122664866D01*
X147338569Y-122681607D01*
X147304591Y-122691915D01*
X147263110Y-122696000D01*
X146661890Y-122696000D01*
X146620409Y-122691915D01*
X146586431Y-122681607D01*
X146555110Y-122664866D01*
X146527661Y-122642339D01*
X146505134Y-122614890D01*
X146488393Y-122583569D01*
X146478085Y-122549591D01*
X146474000Y-122508110D01*
X146474000Y-121831890D01*
X146478085Y-121790409D01*
X146488393Y-121756431D01*
X146505134Y-121725110D01*
X146527661Y-121697661D01*
X146555110Y-121675134D01*
X146586431Y-121658393D01*
X146620409Y-121648085D01*
X146661890Y-121644000D01*
X147263110Y-121644000D01*
X147304591Y-121648085D01*
X147304591Y-121648085D01*
G37*
G36*
X148879591Y-121648085D02*
G01*
X148913569Y-121658393D01*
X148944890Y-121675134D01*
X148972339Y-121697661D01*
X148994866Y-121725110D01*
X149011607Y-121756431D01*
X149021915Y-121790409D01*
X149026000Y-121831890D01*
X149026000Y-122508110D01*
X149021915Y-122549591D01*
X149011607Y-122583569D01*
X148994866Y-122614890D01*
X148972339Y-122642339D01*
X148944890Y-122664866D01*
X148913569Y-122681607D01*
X148879591Y-122691915D01*
X148838110Y-122696000D01*
X148236890Y-122696000D01*
X148195409Y-122691915D01*
X148161431Y-122681607D01*
X148130110Y-122664866D01*
X148102661Y-122642339D01*
X148080134Y-122614890D01*
X148063393Y-122583569D01*
X148053085Y-122549591D01*
X148049000Y-122508110D01*
X148049000Y-121831890D01*
X148053085Y-121790409D01*
X148063393Y-121756431D01*
X148080134Y-121725110D01*
X148102661Y-121697661D01*
X148130110Y-121675134D01*
X148161431Y-121658393D01*
X148195409Y-121648085D01*
X148236890Y-121644000D01*
X148838110Y-121644000D01*
X148879591Y-121648085D01*
X148879591Y-121648085D01*
G37*
G36*
X160844591Y-121358085D02*
G01*
X160878569Y-121368393D01*
X160909890Y-121385134D01*
X160937339Y-121407661D01*
X160959866Y-121435110D01*
X160976607Y-121466431D01*
X160986915Y-121500409D01*
X160991000Y-121541890D01*
X160991000Y-122218110D01*
X160986915Y-122259591D01*
X160976607Y-122293569D01*
X160959866Y-122324890D01*
X160937339Y-122352339D01*
X160909890Y-122374866D01*
X160878569Y-122391607D01*
X160844591Y-122401915D01*
X160803110Y-122406000D01*
X160201890Y-122406000D01*
X160160409Y-122401915D01*
X160126431Y-122391607D01*
X160095110Y-122374866D01*
X160067661Y-122352339D01*
X160045134Y-122324890D01*
X160028393Y-122293569D01*
X160018085Y-122259591D01*
X160014000Y-122218110D01*
X160014000Y-121541890D01*
X160018085Y-121500409D01*
X160028393Y-121466431D01*
X160045134Y-121435110D01*
X160067661Y-121407661D01*
X160095110Y-121385134D01*
X160126431Y-121368393D01*
X160160409Y-121358085D01*
X160201890Y-121354000D01*
X160803110Y-121354000D01*
X160844591Y-121358085D01*
X160844591Y-121358085D01*
G37*
G36*
X162419591Y-121358085D02*
G01*
X162453569Y-121368393D01*
X162484890Y-121385134D01*
X162512339Y-121407661D01*
X162534866Y-121435110D01*
X162551607Y-121466431D01*
X162561915Y-121500409D01*
X162566000Y-121541890D01*
X162566000Y-122218110D01*
X162561915Y-122259591D01*
X162551607Y-122293569D01*
X162534866Y-122324890D01*
X162512339Y-122352339D01*
X162484890Y-122374866D01*
X162453569Y-122391607D01*
X162419591Y-122401915D01*
X162378110Y-122406000D01*
X161776890Y-122406000D01*
X161735409Y-122401915D01*
X161701431Y-122391607D01*
X161670110Y-122374866D01*
X161642661Y-122352339D01*
X161620134Y-122324890D01*
X161603393Y-122293569D01*
X161593085Y-122259591D01*
X161589000Y-122218110D01*
X161589000Y-121541890D01*
X161593085Y-121500409D01*
X161603393Y-121466431D01*
X161620134Y-121435110D01*
X161642661Y-121407661D01*
X161670110Y-121385134D01*
X161701431Y-121368393D01*
X161735409Y-121358085D01*
X161776890Y-121354000D01*
X162378110Y-121354000D01*
X162419591Y-121358085D01*
X162419591Y-121358085D01*
G37*
G36*
X149247300Y-120903800D02*
G01*
X148662700Y-120903800D01*
X148662700Y-119430200D01*
X149247300Y-119430200D01*
X149247300Y-120903800D01*
X149247300Y-120903800D01*
G37*
G36*
X147977300Y-120903800D02*
G01*
X147392700Y-120903800D01*
X147392700Y-119430200D01*
X147977300Y-119430200D01*
X147977300Y-120903800D01*
X147977300Y-120903800D01*
G37*
G36*
X146707300Y-120903800D02*
G01*
X146122700Y-120903800D01*
X146122700Y-119430200D01*
X146707300Y-119430200D01*
X146707300Y-120903800D01*
X146707300Y-120903800D01*
G37*
G36*
X145437300Y-120903800D02*
G01*
X144852700Y-120903800D01*
X144852700Y-119430200D01*
X145437300Y-119430200D01*
X145437300Y-120903800D01*
X145437300Y-120903800D01*
G37*
G36*
X143301000Y-120851000D02*
G01*
X141599000Y-120851000D01*
X141599000Y-119349000D01*
X143301000Y-119349000D01*
X143301000Y-120851000D01*
X143301000Y-120851000D01*
G37*
G36*
X136001000Y-120851000D02*
G01*
X134299000Y-120851000D01*
X134299000Y-119349000D01*
X136001000Y-119349000D01*
X136001000Y-120851000D01*
X136001000Y-120851000D01*
G37*
G36*
X152301000Y-120851000D02*
G01*
X150599000Y-120851000D01*
X150599000Y-119349000D01*
X152301000Y-119349000D01*
X152301000Y-120851000D01*
X152301000Y-120851000D01*
G37*
G36*
X159601000Y-120851000D02*
G01*
X157899000Y-120851000D01*
X157899000Y-119349000D01*
X159601000Y-119349000D01*
X159601000Y-120851000D01*
X159601000Y-120851000D01*
G37*
G36*
X148701200Y-118757500D02*
G01*
X145398800Y-118757500D01*
X145398800Y-116242500D01*
X148701200Y-116242500D01*
X148701200Y-118757500D01*
X148701200Y-118757500D01*
G37*
G36*
X160817091Y-117478085D02*
G01*
X160851069Y-117488393D01*
X160882390Y-117505134D01*
X160909839Y-117527661D01*
X160932366Y-117555110D01*
X160949107Y-117586431D01*
X160959415Y-117620409D01*
X160963500Y-117661890D01*
X160963500Y-118338110D01*
X160959415Y-118379591D01*
X160949107Y-118413569D01*
X160932366Y-118444890D01*
X160909839Y-118472339D01*
X160882390Y-118494866D01*
X160851069Y-118511607D01*
X160817091Y-118521915D01*
X160775610Y-118526000D01*
X160174390Y-118526000D01*
X160132909Y-118521915D01*
X160098931Y-118511607D01*
X160067610Y-118494866D01*
X160040161Y-118472339D01*
X160017634Y-118444890D01*
X160000893Y-118413569D01*
X159990585Y-118379591D01*
X159986500Y-118338110D01*
X159986500Y-117661890D01*
X159990585Y-117620409D01*
X160000893Y-117586431D01*
X160017634Y-117555110D01*
X160040161Y-117527661D01*
X160067610Y-117505134D01*
X160098931Y-117488393D01*
X160132909Y-117478085D01*
X160174390Y-117474000D01*
X160775610Y-117474000D01*
X160817091Y-117478085D01*
X160817091Y-117478085D01*
G37*
G36*
X162392091Y-117478085D02*
G01*
X162426069Y-117488393D01*
X162457390Y-117505134D01*
X162484839Y-117527661D01*
X162507366Y-117555110D01*
X162524107Y-117586431D01*
X162534415Y-117620409D01*
X162538500Y-117661890D01*
X162538500Y-118338110D01*
X162534415Y-118379591D01*
X162524107Y-118413569D01*
X162507366Y-118444890D01*
X162484839Y-118472339D01*
X162457390Y-118494866D01*
X162426069Y-118511607D01*
X162392091Y-118521915D01*
X162350610Y-118526000D01*
X161749390Y-118526000D01*
X161707909Y-118521915D01*
X161673931Y-118511607D01*
X161642610Y-118494866D01*
X161615161Y-118472339D01*
X161592634Y-118444890D01*
X161575893Y-118413569D01*
X161565585Y-118379591D01*
X161561500Y-118338110D01*
X161561500Y-117661890D01*
X161565585Y-117620409D01*
X161575893Y-117586431D01*
X161592634Y-117555110D01*
X161615161Y-117527661D01*
X161642610Y-117505134D01*
X161673931Y-117488393D01*
X161707909Y-117478085D01*
X161749390Y-117474000D01*
X162350610Y-117474000D01*
X162392091Y-117478085D01*
X162392091Y-117478085D01*
G37*
G36*
X143129591Y-117378085D02*
G01*
X143163569Y-117388393D01*
X143194890Y-117405134D01*
X143222339Y-117427661D01*
X143244866Y-117455110D01*
X143261607Y-117486431D01*
X143271915Y-117520409D01*
X143276000Y-117561890D01*
X143276000Y-118238110D01*
X143271915Y-118279591D01*
X143261607Y-118313569D01*
X143244866Y-118344890D01*
X143222339Y-118372339D01*
X143194890Y-118394866D01*
X143163569Y-118411607D01*
X143129591Y-118421915D01*
X143088110Y-118426000D01*
X142486890Y-118426000D01*
X142445409Y-118421915D01*
X142411431Y-118411607D01*
X142380110Y-118394866D01*
X142352661Y-118372339D01*
X142330134Y-118344890D01*
X142313393Y-118313569D01*
X142303085Y-118279591D01*
X142299000Y-118238110D01*
X142299000Y-117561890D01*
X142303085Y-117520409D01*
X142313393Y-117486431D01*
X142330134Y-117455110D01*
X142352661Y-117427661D01*
X142380110Y-117405134D01*
X142411431Y-117388393D01*
X142445409Y-117378085D01*
X142486890Y-117374000D01*
X143088110Y-117374000D01*
X143129591Y-117378085D01*
X143129591Y-117378085D01*
G37*
G36*
X141554591Y-117378085D02*
G01*
X141588569Y-117388393D01*
X141619890Y-117405134D01*
X141647339Y-117427661D01*
X141669866Y-117455110D01*
X141686607Y-117486431D01*
X141696915Y-117520409D01*
X141701000Y-117561890D01*
X141701000Y-118238110D01*
X141696915Y-118279591D01*
X141686607Y-118313569D01*
X141669866Y-118344890D01*
X141647339Y-118372339D01*
X141619890Y-118394866D01*
X141588569Y-118411607D01*
X141554591Y-118421915D01*
X141513110Y-118426000D01*
X140911890Y-118426000D01*
X140870409Y-118421915D01*
X140836431Y-118411607D01*
X140805110Y-118394866D01*
X140777661Y-118372339D01*
X140755134Y-118344890D01*
X140738393Y-118313569D01*
X140728085Y-118279591D01*
X140724000Y-118238110D01*
X140724000Y-117561890D01*
X140728085Y-117520409D01*
X140738393Y-117486431D01*
X140755134Y-117455110D01*
X140777661Y-117427661D01*
X140805110Y-117405134D01*
X140836431Y-117388393D01*
X140870409Y-117378085D01*
X140911890Y-117374000D01*
X141513110Y-117374000D01*
X141554591Y-117378085D01*
X141554591Y-117378085D01*
G37*
G36*
X135349591Y-117403085D02*
G01*
X135383569Y-117413393D01*
X135414890Y-117430134D01*
X135442339Y-117452661D01*
X135464866Y-117480110D01*
X135481607Y-117511431D01*
X135491915Y-117545409D01*
X135496000Y-117586890D01*
X135496000Y-118188110D01*
X135491915Y-118229591D01*
X135481607Y-118263569D01*
X135464866Y-118294890D01*
X135442339Y-118322339D01*
X135414890Y-118344866D01*
X135383569Y-118361607D01*
X135349591Y-118371915D01*
X135308110Y-118376000D01*
X134631890Y-118376000D01*
X134590409Y-118371915D01*
X134556431Y-118361607D01*
X134525110Y-118344866D01*
X134497661Y-118322339D01*
X134475134Y-118294890D01*
X134458393Y-118263569D01*
X134448085Y-118229591D01*
X134444000Y-118188110D01*
X134444000Y-117586890D01*
X134448085Y-117545409D01*
X134458393Y-117511431D01*
X134475134Y-117480110D01*
X134497661Y-117452661D01*
X134525110Y-117430134D01*
X134556431Y-117413393D01*
X134590409Y-117403085D01*
X134631890Y-117399000D01*
X135308110Y-117399000D01*
X135349591Y-117403085D01*
X135349591Y-117403085D01*
G37*
G36*
X136889591Y-117403085D02*
G01*
X136923569Y-117413393D01*
X136954890Y-117430134D01*
X136982339Y-117452661D01*
X137004866Y-117480110D01*
X137021607Y-117511431D01*
X137031915Y-117545409D01*
X137036000Y-117586890D01*
X137036000Y-118188110D01*
X137031915Y-118229591D01*
X137021607Y-118263569D01*
X137004866Y-118294890D01*
X136982339Y-118322339D01*
X136954890Y-118344866D01*
X136923569Y-118361607D01*
X136889591Y-118371915D01*
X136848110Y-118376000D01*
X136171890Y-118376000D01*
X136130409Y-118371915D01*
X136096431Y-118361607D01*
X136065110Y-118344866D01*
X136037661Y-118322339D01*
X136015134Y-118294890D01*
X135998393Y-118263569D01*
X135988085Y-118229591D01*
X135984000Y-118188110D01*
X135984000Y-117586890D01*
X135988085Y-117545409D01*
X135998393Y-117511431D01*
X136015134Y-117480110D01*
X136037661Y-117452661D01*
X136065110Y-117430134D01*
X136096431Y-117413393D01*
X136130409Y-117403085D01*
X136171890Y-117399000D01*
X136848110Y-117399000D01*
X136889591Y-117403085D01*
X136889591Y-117403085D01*
G37*
G36*
X139879591Y-117393085D02*
G01*
X139913569Y-117403393D01*
X139944890Y-117420134D01*
X139972339Y-117442661D01*
X139994866Y-117470110D01*
X140011607Y-117501431D01*
X140021915Y-117535409D01*
X140026000Y-117576890D01*
X140026000Y-118178110D01*
X140021915Y-118219591D01*
X140011607Y-118253569D01*
X139994866Y-118284890D01*
X139972339Y-118312339D01*
X139944890Y-118334866D01*
X139913569Y-118351607D01*
X139879591Y-118361915D01*
X139838110Y-118366000D01*
X139161890Y-118366000D01*
X139120409Y-118361915D01*
X139086431Y-118351607D01*
X139055110Y-118334866D01*
X139027661Y-118312339D01*
X139005134Y-118284890D01*
X138988393Y-118253569D01*
X138978085Y-118219591D01*
X138974000Y-118178110D01*
X138974000Y-117576890D01*
X138978085Y-117535409D01*
X138988393Y-117501431D01*
X139005134Y-117470110D01*
X139027661Y-117442661D01*
X139055110Y-117420134D01*
X139086431Y-117403393D01*
X139120409Y-117393085D01*
X139161890Y-117389000D01*
X139838110Y-117389000D01*
X139879591Y-117393085D01*
X139879591Y-117393085D01*
G37*
G36*
X151851000Y-118151000D02*
G01*
X150549000Y-118151000D01*
X150549000Y-117149000D01*
X151851000Y-117149000D01*
X151851000Y-118151000D01*
X151851000Y-118151000D01*
G37*
G36*
X153579591Y-117103085D02*
G01*
X153613569Y-117113393D01*
X153644890Y-117130134D01*
X153672339Y-117152661D01*
X153694866Y-117180110D01*
X153711607Y-117211431D01*
X153721915Y-117245409D01*
X153726000Y-117286890D01*
X153726000Y-117888110D01*
X153721915Y-117929591D01*
X153711607Y-117963569D01*
X153694866Y-117994890D01*
X153672339Y-118022339D01*
X153644890Y-118044866D01*
X153613569Y-118061607D01*
X153579591Y-118071915D01*
X153538110Y-118076000D01*
X152861890Y-118076000D01*
X152820409Y-118071915D01*
X152786431Y-118061607D01*
X152755110Y-118044866D01*
X152727661Y-118022339D01*
X152705134Y-117994890D01*
X152688393Y-117963569D01*
X152678085Y-117929591D01*
X152674000Y-117888110D01*
X152674000Y-117286890D01*
X152678085Y-117245409D01*
X152688393Y-117211431D01*
X152705134Y-117180110D01*
X152727661Y-117152661D01*
X152755110Y-117130134D01*
X152786431Y-117113393D01*
X152820409Y-117103085D01*
X152861890Y-117099000D01*
X153538110Y-117099000D01*
X153579591Y-117103085D01*
X153579591Y-117103085D01*
G37*
G36*
X136889591Y-115828085D02*
G01*
X136923569Y-115838393D01*
X136954890Y-115855134D01*
X136982339Y-115877661D01*
X137004866Y-115905110D01*
X137021607Y-115936431D01*
X137031915Y-115970409D01*
X137036000Y-116011890D01*
X137036000Y-116613110D01*
X137031915Y-116654591D01*
X137021607Y-116688569D01*
X137004866Y-116719890D01*
X136982339Y-116747339D01*
X136954890Y-116769866D01*
X136923569Y-116786607D01*
X136889591Y-116796915D01*
X136848110Y-116801000D01*
X136171890Y-116801000D01*
X136130409Y-116796915D01*
X136096431Y-116786607D01*
X136065110Y-116769866D01*
X136037661Y-116747339D01*
X136015134Y-116719890D01*
X135998393Y-116688569D01*
X135988085Y-116654591D01*
X135984000Y-116613110D01*
X135984000Y-116011890D01*
X135988085Y-115970409D01*
X135998393Y-115936431D01*
X136015134Y-115905110D01*
X136037661Y-115877661D01*
X136065110Y-115855134D01*
X136096431Y-115838393D01*
X136130409Y-115828085D01*
X136171890Y-115824000D01*
X136848110Y-115824000D01*
X136889591Y-115828085D01*
X136889591Y-115828085D01*
G37*
G36*
X135349591Y-115828085D02*
G01*
X135383569Y-115838393D01*
X135414890Y-115855134D01*
X135442339Y-115877661D01*
X135464866Y-115905110D01*
X135481607Y-115936431D01*
X135491915Y-115970409D01*
X135496000Y-116011890D01*
X135496000Y-116613110D01*
X135491915Y-116654591D01*
X135481607Y-116688569D01*
X135464866Y-116719890D01*
X135442339Y-116747339D01*
X135414890Y-116769866D01*
X135383569Y-116786607D01*
X135349591Y-116796915D01*
X135308110Y-116801000D01*
X134631890Y-116801000D01*
X134590409Y-116796915D01*
X134556431Y-116786607D01*
X134525110Y-116769866D01*
X134497661Y-116747339D01*
X134475134Y-116719890D01*
X134458393Y-116688569D01*
X134448085Y-116654591D01*
X134444000Y-116613110D01*
X134444000Y-116011890D01*
X134448085Y-115970409D01*
X134458393Y-115936431D01*
X134475134Y-115905110D01*
X134497661Y-115877661D01*
X134525110Y-115855134D01*
X134556431Y-115838393D01*
X134590409Y-115828085D01*
X134631890Y-115824000D01*
X135308110Y-115824000D01*
X135349591Y-115828085D01*
X135349591Y-115828085D01*
G37*
G36*
X139879591Y-115818085D02*
G01*
X139913569Y-115828393D01*
X139944890Y-115845134D01*
X139972339Y-115867661D01*
X139994866Y-115895110D01*
X140011607Y-115926431D01*
X140021915Y-115960409D01*
X140026000Y-116001890D01*
X140026000Y-116603110D01*
X140021915Y-116644591D01*
X140011607Y-116678569D01*
X139994866Y-116709890D01*
X139972339Y-116737339D01*
X139944890Y-116759866D01*
X139913569Y-116776607D01*
X139879591Y-116786915D01*
X139838110Y-116791000D01*
X139161890Y-116791000D01*
X139120409Y-116786915D01*
X139086431Y-116776607D01*
X139055110Y-116759866D01*
X139027661Y-116737339D01*
X139005134Y-116709890D01*
X138988393Y-116678569D01*
X138978085Y-116644591D01*
X138974000Y-116603110D01*
X138974000Y-116001890D01*
X138978085Y-115960409D01*
X138988393Y-115926431D01*
X139005134Y-115895110D01*
X139027661Y-115867661D01*
X139055110Y-115845134D01*
X139086431Y-115828393D01*
X139120409Y-115818085D01*
X139161890Y-115814000D01*
X139838110Y-115814000D01*
X139879591Y-115818085D01*
X139879591Y-115818085D01*
G37*
G36*
X153579591Y-115528085D02*
G01*
X153613569Y-115538393D01*
X153644890Y-115555134D01*
X153672339Y-115577661D01*
X153694866Y-115605110D01*
X153711607Y-115636431D01*
X153721915Y-115670409D01*
X153726000Y-115711890D01*
X153726000Y-116313110D01*
X153721915Y-116354591D01*
X153711607Y-116388569D01*
X153694866Y-116419890D01*
X153672339Y-116447339D01*
X153644890Y-116469866D01*
X153613569Y-116486607D01*
X153579591Y-116496915D01*
X153538110Y-116501000D01*
X152861890Y-116501000D01*
X152820409Y-116496915D01*
X152786431Y-116486607D01*
X152755110Y-116469866D01*
X152727661Y-116447339D01*
X152705134Y-116419890D01*
X152688393Y-116388569D01*
X152678085Y-116354591D01*
X152674000Y-116313110D01*
X152674000Y-115711890D01*
X152678085Y-115670409D01*
X152688393Y-115636431D01*
X152705134Y-115605110D01*
X152727661Y-115577661D01*
X152755110Y-115555134D01*
X152786431Y-115538393D01*
X152820409Y-115528085D01*
X152861890Y-115524000D01*
X153538110Y-115524000D01*
X153579591Y-115528085D01*
X153579591Y-115528085D01*
G37*
G36*
X145437300Y-115569800D02*
G01*
X144852700Y-115569800D01*
X144852700Y-114096200D01*
X145437300Y-114096200D01*
X145437300Y-115569800D01*
X145437300Y-115569800D01*
G37*
G36*
X146707300Y-115569800D02*
G01*
X146122700Y-115569800D01*
X146122700Y-114096200D01*
X146707300Y-114096200D01*
X146707300Y-115569800D01*
X146707300Y-115569800D01*
G37*
G36*
X149247300Y-115569800D02*
G01*
X148662700Y-115569800D01*
X148662700Y-114096200D01*
X149247300Y-114096200D01*
X149247300Y-115569800D01*
X149247300Y-115569800D01*
G37*
G36*
X147977300Y-115569800D02*
G01*
X147392700Y-115569800D01*
X147392700Y-114096200D01*
X147977300Y-114096200D01*
X147977300Y-115569800D01*
X147977300Y-115569800D01*
G37*
G36*
X151851000Y-114851000D02*
G01*
X150549000Y-114851000D01*
X150549000Y-113849000D01*
X151851000Y-113849000D01*
X151851000Y-114851000D01*
X151851000Y-114851000D01*
G37*
G36*
X142713380Y-114406000D02*
G01*
X141311380Y-114406000D01*
X141311380Y-112409000D01*
X142713380Y-112409000D01*
X142713380Y-114406000D01*
X142713380Y-114406000D01*
G37*
G36*
X151889999Y-110637137D02*
G01*
X151899608Y-110640052D01*
X151908472Y-110644790D01*
X151916237Y-110651163D01*
X151922610Y-110658928D01*
X151927348Y-110667792D01*
X151930263Y-110677401D01*
X151931852Y-110693540D01*
X151931852Y-111681260D01*
X151930263Y-111697399D01*
X151927348Y-111707008D01*
X151922610Y-111715872D01*
X151916258Y-111723612D01*
X151916237Y-111723637D01*
X151908427Y-111730040D01*
X151908372Y-111730077D01*
X151898853Y-111737880D01*
X151898878Y-111737911D01*
X151885028Y-111749253D01*
X151869463Y-111768179D01*
X151857889Y-111789777D01*
X151850751Y-111813219D01*
X151848324Y-111837602D01*
X151850700Y-111861991D01*
X151857789Y-111885447D01*
X151869318Y-111907070D01*
X151884843Y-111926028D01*
X151903769Y-111941593D01*
X151906825Y-111943429D01*
X151908514Y-111944818D01*
X151908516Y-111944819D01*
X151914712Y-111949915D01*
X151916274Y-111951200D01*
X151922642Y-111958975D01*
X151925791Y-111964883D01*
X151927367Y-111967838D01*
X151930257Y-111977401D01*
X151930282Y-111977485D01*
X151931852Y-111993513D01*
X151931852Y-113131260D01*
X151930263Y-113147399D01*
X151927348Y-113157008D01*
X151922610Y-113165872D01*
X151916237Y-113173637D01*
X151908472Y-113180010D01*
X151899608Y-113184748D01*
X151889999Y-113187663D01*
X151873860Y-113189252D01*
X150386140Y-113189252D01*
X150370001Y-113187663D01*
X150360392Y-113184748D01*
X150351528Y-113180010D01*
X150343763Y-113173637D01*
X150337390Y-113165872D01*
X150332652Y-113157008D01*
X150329737Y-113147399D01*
X150328148Y-113131260D01*
X150328148Y-111993540D01*
X150329737Y-111977401D01*
X150332652Y-111967792D01*
X150337390Y-111958928D01*
X150343763Y-111951163D01*
X150356737Y-111940516D01*
X150365968Y-111934347D01*
X150383294Y-111917019D01*
X150396907Y-111896644D01*
X150406283Y-111874005D01*
X150411063Y-111849972D01*
X150411062Y-111825468D01*
X150406280Y-111801435D01*
X150396902Y-111778796D01*
X150383287Y-111758422D01*
X150365959Y-111741096D01*
X150356683Y-111734225D01*
X150343800Y-111723674D01*
X150342668Y-111722297D01*
X150337419Y-111715916D01*
X150332674Y-111707061D01*
X150331749Y-111704023D01*
X150329758Y-111697485D01*
X150329758Y-111697482D01*
X150329748Y-111697450D01*
X150328753Y-111687400D01*
X150328753Y-111687335D01*
X150328148Y-111681225D01*
X150328148Y-110693540D01*
X150329737Y-110677401D01*
X150332652Y-110667792D01*
X150337390Y-110658928D01*
X150343763Y-110651163D01*
X150351528Y-110644790D01*
X150360392Y-110640052D01*
X150370001Y-110637137D01*
X150386140Y-110635548D01*
X151873860Y-110635548D01*
X151889999Y-110637137D01*
X151889999Y-110637137D01*
G37*
G36*
X154201991Y-112215485D02*
G01*
X154235969Y-112225793D01*
X154267290Y-112242534D01*
X154294739Y-112265061D01*
X154317266Y-112292510D01*
X154334007Y-112323831D01*
X154344315Y-112357809D01*
X154348400Y-112399290D01*
X154348400Y-113000510D01*
X154344315Y-113041991D01*
X154334007Y-113075969D01*
X154317266Y-113107290D01*
X154294739Y-113134739D01*
X154267290Y-113157266D01*
X154235969Y-113174007D01*
X154201991Y-113184315D01*
X154160510Y-113188400D01*
X153484290Y-113188400D01*
X153442809Y-113184315D01*
X153408831Y-113174007D01*
X153377510Y-113157266D01*
X153350061Y-113134739D01*
X153327534Y-113107290D01*
X153310793Y-113075969D01*
X153300485Y-113041991D01*
X153296400Y-113000510D01*
X153296400Y-112399290D01*
X153300485Y-112357809D01*
X153310793Y-112323831D01*
X153327534Y-112292510D01*
X153350061Y-112265061D01*
X153377510Y-112242534D01*
X153408831Y-112225793D01*
X153442809Y-112215485D01*
X153484290Y-112211400D01*
X154160510Y-112211400D01*
X154201991Y-112215485D01*
X154201991Y-112215485D01*
G37*
G36*
X154201991Y-110640485D02*
G01*
X154235969Y-110650793D01*
X154267290Y-110667534D01*
X154294739Y-110690061D01*
X154317266Y-110717510D01*
X154334007Y-110748831D01*
X154344315Y-110782809D01*
X154348400Y-110824290D01*
X154348400Y-111425510D01*
X154344315Y-111466991D01*
X154334007Y-111500969D01*
X154317266Y-111532290D01*
X154294739Y-111559739D01*
X154267290Y-111582266D01*
X154235969Y-111599007D01*
X154201991Y-111609315D01*
X154160510Y-111613400D01*
X153484290Y-111613400D01*
X153442809Y-111609315D01*
X153408831Y-111599007D01*
X153377510Y-111582266D01*
X153350061Y-111559739D01*
X153327534Y-111532290D01*
X153310793Y-111500969D01*
X153300485Y-111466991D01*
X153296400Y-111425510D01*
X153296400Y-110824290D01*
X153300485Y-110782809D01*
X153310793Y-110748831D01*
X153327534Y-110717510D01*
X153350061Y-110690061D01*
X153377510Y-110667534D01*
X153408831Y-110650793D01*
X153442809Y-110640485D01*
X153484290Y-110636400D01*
X154160510Y-110636400D01*
X154201991Y-110640485D01*
X154201991Y-110640485D01*
G37*
G36*
X145979591Y-108528085D02*
G01*
X146013569Y-108538393D01*
X146044890Y-108555134D01*
X146072339Y-108577661D01*
X146094866Y-108605110D01*
X146111607Y-108636431D01*
X146121915Y-108670409D01*
X146126000Y-108711890D01*
X146126000Y-109313110D01*
X146121915Y-109354591D01*
X146111607Y-109388569D01*
X146094866Y-109419890D01*
X146072339Y-109447339D01*
X146044890Y-109469866D01*
X146013569Y-109486607D01*
X145979591Y-109496915D01*
X145938110Y-109501000D01*
X145261890Y-109501000D01*
X145220409Y-109496915D01*
X145186431Y-109486607D01*
X145155110Y-109469866D01*
X145127661Y-109447339D01*
X145105134Y-109419890D01*
X145088393Y-109388569D01*
X145078085Y-109354591D01*
X145074000Y-109313110D01*
X145074000Y-108711890D01*
X145078085Y-108670409D01*
X145088393Y-108636431D01*
X145105134Y-108605110D01*
X145127661Y-108577661D01*
X145155110Y-108555134D01*
X145186431Y-108538393D01*
X145220409Y-108528085D01*
X145261890Y-108524000D01*
X145938110Y-108524000D01*
X145979591Y-108528085D01*
X145979591Y-108528085D01*
G37*
G36*
X147504591Y-108528085D02*
G01*
X147538569Y-108538393D01*
X147569890Y-108555134D01*
X147597339Y-108577661D01*
X147619866Y-108605110D01*
X147636607Y-108636431D01*
X147646915Y-108670409D01*
X147651000Y-108711890D01*
X147651000Y-109313110D01*
X147646915Y-109354591D01*
X147636607Y-109388569D01*
X147619866Y-109419890D01*
X147597339Y-109447339D01*
X147569890Y-109469866D01*
X147538569Y-109486607D01*
X147504591Y-109496915D01*
X147463110Y-109501000D01*
X146786890Y-109501000D01*
X146745409Y-109496915D01*
X146711431Y-109486607D01*
X146680110Y-109469866D01*
X146652661Y-109447339D01*
X146630134Y-109419890D01*
X146613393Y-109388569D01*
X146603085Y-109354591D01*
X146599000Y-109313110D01*
X146599000Y-108711890D01*
X146603085Y-108670409D01*
X146613393Y-108636431D01*
X146630134Y-108605110D01*
X146652661Y-108577661D01*
X146680110Y-108555134D01*
X146711431Y-108538393D01*
X146745409Y-108528085D01*
X146786890Y-108524000D01*
X147463110Y-108524000D01*
X147504591Y-108528085D01*
X147504591Y-108528085D01*
G37*
G36*
X149029591Y-108528085D02*
G01*
X149063569Y-108538393D01*
X149094890Y-108555134D01*
X149122339Y-108577661D01*
X149144866Y-108605110D01*
X149161607Y-108636431D01*
X149171915Y-108670409D01*
X149176000Y-108711890D01*
X149176000Y-109313110D01*
X149171915Y-109354591D01*
X149161607Y-109388569D01*
X149144866Y-109419890D01*
X149122339Y-109447339D01*
X149094890Y-109469866D01*
X149063569Y-109486607D01*
X149029591Y-109496915D01*
X148988110Y-109501000D01*
X148311890Y-109501000D01*
X148270409Y-109496915D01*
X148236431Y-109486607D01*
X148205110Y-109469866D01*
X148177661Y-109447339D01*
X148155134Y-109419890D01*
X148138393Y-109388569D01*
X148128085Y-109354591D01*
X148124000Y-109313110D01*
X148124000Y-108711890D01*
X148128085Y-108670409D01*
X148138393Y-108636431D01*
X148155134Y-108605110D01*
X148177661Y-108577661D01*
X148205110Y-108555134D01*
X148236431Y-108538393D01*
X148270409Y-108528085D01*
X148311890Y-108524000D01*
X148988110Y-108524000D01*
X149029591Y-108528085D01*
X149029591Y-108528085D01*
G37*
G36*
X162801000Y-108501000D02*
G01*
X160999000Y-108501000D01*
X160999000Y-106699000D01*
X162801000Y-106699000D01*
X162801000Y-108501000D01*
X162801000Y-108501000D01*
G37*
G36*
X143879591Y-106978085D02*
G01*
X143913569Y-106988393D01*
X143944890Y-107005134D01*
X143972339Y-107027661D01*
X143994866Y-107055110D01*
X144011607Y-107086431D01*
X144021915Y-107120409D01*
X144026000Y-107161890D01*
X144026000Y-107838110D01*
X144021915Y-107879591D01*
X144011607Y-107913569D01*
X143994866Y-107944890D01*
X143972339Y-107972339D01*
X143944890Y-107994866D01*
X143913569Y-108011607D01*
X143879591Y-108021915D01*
X143838110Y-108026000D01*
X143236890Y-108026000D01*
X143195409Y-108021915D01*
X143161431Y-108011607D01*
X143130110Y-107994866D01*
X143102661Y-107972339D01*
X143080134Y-107944890D01*
X143063393Y-107913569D01*
X143053085Y-107879591D01*
X143049000Y-107838110D01*
X143049000Y-107161890D01*
X143053085Y-107120409D01*
X143063393Y-107086431D01*
X143080134Y-107055110D01*
X143102661Y-107027661D01*
X143130110Y-107005134D01*
X143161431Y-106988393D01*
X143195409Y-106978085D01*
X143236890Y-106974000D01*
X143838110Y-106974000D01*
X143879591Y-106978085D01*
X143879591Y-106978085D01*
G37*
G36*
X142304591Y-106978085D02*
G01*
X142338569Y-106988393D01*
X142369890Y-107005134D01*
X142397339Y-107027661D01*
X142419866Y-107055110D01*
X142436607Y-107086431D01*
X142446915Y-107120409D01*
X142451000Y-107161890D01*
X142451000Y-107838110D01*
X142446915Y-107879591D01*
X142436607Y-107913569D01*
X142419866Y-107944890D01*
X142397339Y-107972339D01*
X142369890Y-107994866D01*
X142338569Y-108011607D01*
X142304591Y-108021915D01*
X142263110Y-108026000D01*
X141661890Y-108026000D01*
X141620409Y-108021915D01*
X141586431Y-108011607D01*
X141555110Y-107994866D01*
X141527661Y-107972339D01*
X141505134Y-107944890D01*
X141488393Y-107913569D01*
X141478085Y-107879591D01*
X141474000Y-107838110D01*
X141474000Y-107161890D01*
X141478085Y-107120409D01*
X141488393Y-107086431D01*
X141505134Y-107055110D01*
X141527661Y-107027661D01*
X141555110Y-107005134D01*
X141586431Y-106988393D01*
X141620409Y-106978085D01*
X141661890Y-106974000D01*
X142263110Y-106974000D01*
X142304591Y-106978085D01*
X142304591Y-106978085D01*
G37*
G36*
X145979591Y-106953085D02*
G01*
X146013569Y-106963393D01*
X146044890Y-106980134D01*
X146072339Y-107002661D01*
X146094866Y-107030110D01*
X146111607Y-107061431D01*
X146121915Y-107095409D01*
X146126000Y-107136890D01*
X146126000Y-107738110D01*
X146121915Y-107779591D01*
X146111607Y-107813569D01*
X146094866Y-107844890D01*
X146072339Y-107872339D01*
X146044890Y-107894866D01*
X146013569Y-107911607D01*
X145979591Y-107921915D01*
X145938110Y-107926000D01*
X145261890Y-107926000D01*
X145220409Y-107921915D01*
X145186431Y-107911607D01*
X145155110Y-107894866D01*
X145127661Y-107872339D01*
X145105134Y-107844890D01*
X145088393Y-107813569D01*
X145078085Y-107779591D01*
X145074000Y-107738110D01*
X145074000Y-107136890D01*
X145078085Y-107095409D01*
X145088393Y-107061431D01*
X145105134Y-107030110D01*
X145127661Y-107002661D01*
X145155110Y-106980134D01*
X145186431Y-106963393D01*
X145220409Y-106953085D01*
X145261890Y-106949000D01*
X145938110Y-106949000D01*
X145979591Y-106953085D01*
X145979591Y-106953085D01*
G37*
G36*
X149029591Y-106953085D02*
G01*
X149063569Y-106963393D01*
X149094890Y-106980134D01*
X149122339Y-107002661D01*
X149144866Y-107030110D01*
X149161607Y-107061431D01*
X149171915Y-107095409D01*
X149176000Y-107136890D01*
X149176000Y-107738110D01*
X149171915Y-107779591D01*
X149161607Y-107813569D01*
X149144866Y-107844890D01*
X149122339Y-107872339D01*
X149094890Y-107894866D01*
X149063569Y-107911607D01*
X149029591Y-107921915D01*
X148988110Y-107926000D01*
X148311890Y-107926000D01*
X148270409Y-107921915D01*
X148236431Y-107911607D01*
X148205110Y-107894866D01*
X148177661Y-107872339D01*
X148155134Y-107844890D01*
X148138393Y-107813569D01*
X148128085Y-107779591D01*
X148124000Y-107738110D01*
X148124000Y-107136890D01*
X148128085Y-107095409D01*
X148138393Y-107061431D01*
X148155134Y-107030110D01*
X148177661Y-107002661D01*
X148205110Y-106980134D01*
X148236431Y-106963393D01*
X148270409Y-106953085D01*
X148311890Y-106949000D01*
X148988110Y-106949000D01*
X149029591Y-106953085D01*
X149029591Y-106953085D01*
G37*
G36*
X147504591Y-106953085D02*
G01*
X147538569Y-106963393D01*
X147569890Y-106980134D01*
X147597339Y-107002661D01*
X147619866Y-107030110D01*
X147636607Y-107061431D01*
X147646915Y-107095409D01*
X147651000Y-107136890D01*
X147651000Y-107738110D01*
X147646915Y-107779591D01*
X147636607Y-107813569D01*
X147619866Y-107844890D01*
X147597339Y-107872339D01*
X147569890Y-107894866D01*
X147538569Y-107911607D01*
X147504591Y-107921915D01*
X147463110Y-107926000D01*
X146786890Y-107926000D01*
X146745409Y-107921915D01*
X146711431Y-107911607D01*
X146680110Y-107894866D01*
X146652661Y-107872339D01*
X146630134Y-107844890D01*
X146613393Y-107813569D01*
X146603085Y-107779591D01*
X146599000Y-107738110D01*
X146599000Y-107136890D01*
X146603085Y-107095409D01*
X146613393Y-107061431D01*
X146630134Y-107030110D01*
X146652661Y-107002661D01*
X146680110Y-106980134D01*
X146711431Y-106963393D01*
X146745409Y-106953085D01*
X146786890Y-106949000D01*
X147463110Y-106949000D01*
X147504591Y-106953085D01*
X147504591Y-106953085D01*
G37*
G36*
X146201000Y-106601000D02*
G01*
X144699000Y-106601000D01*
X144699000Y-104899000D01*
X146201000Y-104899000D01*
X146201000Y-106601000D01*
X146201000Y-106601000D01*
G37*
G36*
X149201000Y-106601000D02*
G01*
X147699000Y-106601000D01*
X147699000Y-104899000D01*
X149201000Y-104899000D01*
X149201000Y-106601000D01*
X149201000Y-106601000D01*
G37*
G36*
X143129591Y-105403085D02*
G01*
X143163569Y-105413393D01*
X143194890Y-105430134D01*
X143222339Y-105452661D01*
X143244866Y-105480110D01*
X143261607Y-105511431D01*
X143271915Y-105545409D01*
X143276000Y-105586890D01*
X143276000Y-106188110D01*
X143271915Y-106229591D01*
X143261607Y-106263569D01*
X143244866Y-106294890D01*
X143222339Y-106322339D01*
X143194890Y-106344866D01*
X143163569Y-106361607D01*
X143129591Y-106371915D01*
X143088110Y-106376000D01*
X142411890Y-106376000D01*
X142370409Y-106371915D01*
X142336431Y-106361607D01*
X142305110Y-106344866D01*
X142277661Y-106322339D01*
X142255134Y-106294890D01*
X142238393Y-106263569D01*
X142228085Y-106229591D01*
X142224000Y-106188110D01*
X142224000Y-105586890D01*
X142228085Y-105545409D01*
X142238393Y-105511431D01*
X142255134Y-105480110D01*
X142277661Y-105452661D01*
X142305110Y-105430134D01*
X142336431Y-105413393D01*
X142370409Y-105403085D01*
X142411890Y-105399000D01*
X143088110Y-105399000D01*
X143129591Y-105403085D01*
X143129591Y-105403085D01*
G37*
G36*
X151579591Y-105378085D02*
G01*
X151613569Y-105388393D01*
X151644890Y-105405134D01*
X151672339Y-105427661D01*
X151694866Y-105455110D01*
X151711607Y-105486431D01*
X151721915Y-105520409D01*
X151726000Y-105561890D01*
X151726000Y-106163110D01*
X151721915Y-106204591D01*
X151711607Y-106238569D01*
X151694866Y-106269890D01*
X151672339Y-106297339D01*
X151644890Y-106319866D01*
X151613569Y-106336607D01*
X151579591Y-106346915D01*
X151538110Y-106351000D01*
X150861890Y-106351000D01*
X150820409Y-106346915D01*
X150786431Y-106336607D01*
X150755110Y-106319866D01*
X150727661Y-106297339D01*
X150705134Y-106269890D01*
X150688393Y-106238569D01*
X150678085Y-106204591D01*
X150674000Y-106163110D01*
X150674000Y-105561890D01*
X150678085Y-105520409D01*
X150688393Y-105486431D01*
X150705134Y-105455110D01*
X150727661Y-105427661D01*
X150755110Y-105405134D01*
X150786431Y-105388393D01*
X150820409Y-105378085D01*
X150861890Y-105374000D01*
X151538110Y-105374000D01*
X151579591Y-105378085D01*
X151579591Y-105378085D01*
G37*
G36*
X162010443Y-104165519D02*
G01*
X162076627Y-104172037D01*
X162246466Y-104223557D01*
X162402991Y-104307222D01*
X162438729Y-104336552D01*
X162540186Y-104419814D01*
X162623448Y-104521271D01*
X162652778Y-104557009D01*
X162652779Y-104557011D01*
X162726478Y-104694890D01*
X162736443Y-104713534D01*
X162787963Y-104883373D01*
X162805359Y-105060000D01*
X162787963Y-105236627D01*
X162736443Y-105406466D01*
X162652778Y-105562991D01*
X162646534Y-105570599D01*
X162540186Y-105700186D01*
X162438729Y-105783448D01*
X162402991Y-105812778D01*
X162246466Y-105896443D01*
X162076627Y-105947963D01*
X162010443Y-105954481D01*
X161944260Y-105961000D01*
X161855740Y-105961000D01*
X161789557Y-105954481D01*
X161723373Y-105947963D01*
X161553534Y-105896443D01*
X161397009Y-105812778D01*
X161361271Y-105783448D01*
X161259814Y-105700186D01*
X161153466Y-105570599D01*
X161147222Y-105562991D01*
X161063557Y-105406466D01*
X161012037Y-105236627D01*
X160994641Y-105060000D01*
X161012037Y-104883373D01*
X161063557Y-104713534D01*
X161073523Y-104694890D01*
X161147221Y-104557011D01*
X161147222Y-104557009D01*
X161176552Y-104521271D01*
X161259814Y-104419814D01*
X161361271Y-104336552D01*
X161397009Y-104307222D01*
X161553534Y-104223557D01*
X161723373Y-104172037D01*
X161789557Y-104165519D01*
X161855740Y-104159000D01*
X161944260Y-104159000D01*
X162010443Y-104165519D01*
X162010443Y-104165519D01*
G37*
G36*
X143129591Y-103828085D02*
G01*
X143163569Y-103838393D01*
X143194890Y-103855134D01*
X143222339Y-103877661D01*
X143244866Y-103905110D01*
X143261607Y-103936431D01*
X143271915Y-103970409D01*
X143276000Y-104011890D01*
X143276000Y-104613110D01*
X143271915Y-104654591D01*
X143261607Y-104688569D01*
X143244866Y-104719890D01*
X143222339Y-104747339D01*
X143194890Y-104769866D01*
X143163569Y-104786607D01*
X143129591Y-104796915D01*
X143088110Y-104801000D01*
X142411890Y-104801000D01*
X142370409Y-104796915D01*
X142336431Y-104786607D01*
X142305110Y-104769866D01*
X142277661Y-104747339D01*
X142255134Y-104719890D01*
X142238393Y-104688569D01*
X142228085Y-104654591D01*
X142224000Y-104613110D01*
X142224000Y-104011890D01*
X142228085Y-103970409D01*
X142238393Y-103936431D01*
X142255134Y-103905110D01*
X142277661Y-103877661D01*
X142305110Y-103855134D01*
X142336431Y-103838393D01*
X142370409Y-103828085D01*
X142411890Y-103824000D01*
X143088110Y-103824000D01*
X143129591Y-103828085D01*
X143129591Y-103828085D01*
G37*
G36*
X151579591Y-103803085D02*
G01*
X151613569Y-103813393D01*
X151644890Y-103830134D01*
X151672339Y-103852661D01*
X151694866Y-103880110D01*
X151711607Y-103911431D01*
X151721915Y-103945409D01*
X151726000Y-103986890D01*
X151726000Y-104588110D01*
X151721915Y-104629591D01*
X151711607Y-104663569D01*
X151694866Y-104694890D01*
X151672339Y-104722339D01*
X151644890Y-104744866D01*
X151613569Y-104761607D01*
X151579591Y-104771915D01*
X151538110Y-104776000D01*
X150861890Y-104776000D01*
X150820409Y-104771915D01*
X150786431Y-104761607D01*
X150755110Y-104744866D01*
X150727661Y-104722339D01*
X150705134Y-104694890D01*
X150688393Y-104663569D01*
X150678085Y-104629591D01*
X150674000Y-104588110D01*
X150674000Y-103986890D01*
X150678085Y-103945409D01*
X150688393Y-103911431D01*
X150705134Y-103880110D01*
X150727661Y-103852661D01*
X150755110Y-103830134D01*
X150786431Y-103813393D01*
X150820409Y-103803085D01*
X150861890Y-103799000D01*
X151538110Y-103799000D01*
X151579591Y-103803085D01*
X151579591Y-103803085D01*
G37*
G36*
X162007412Y-101625220D02*
G01*
X162076627Y-101632037D01*
X162246466Y-101683557D01*
X162402991Y-101767222D01*
X162438729Y-101796552D01*
X162540186Y-101879814D01*
X162623448Y-101981271D01*
X162652778Y-102017009D01*
X162736443Y-102173534D01*
X162787963Y-102343373D01*
X162805359Y-102520000D01*
X162787963Y-102696627D01*
X162736443Y-102866466D01*
X162652778Y-103022991D01*
X162623448Y-103058729D01*
X162540186Y-103160186D01*
X162439948Y-103242448D01*
X162402991Y-103272778D01*
X162402989Y-103272779D01*
X162264292Y-103346915D01*
X162246466Y-103356443D01*
X162076627Y-103407963D01*
X162010442Y-103414482D01*
X161944260Y-103421000D01*
X161855740Y-103421000D01*
X161789558Y-103414482D01*
X161723373Y-103407963D01*
X161553534Y-103356443D01*
X161535709Y-103346915D01*
X161397011Y-103272779D01*
X161397009Y-103272778D01*
X161360052Y-103242448D01*
X161259814Y-103160186D01*
X161176552Y-103058729D01*
X161147222Y-103022991D01*
X161063557Y-102866466D01*
X161012037Y-102696627D01*
X160994641Y-102520000D01*
X161012037Y-102343373D01*
X161063557Y-102173534D01*
X161147222Y-102017009D01*
X161176552Y-101981271D01*
X161259814Y-101879814D01*
X161361271Y-101796552D01*
X161397009Y-101767222D01*
X161553534Y-101683557D01*
X161723373Y-101632037D01*
X161792588Y-101625220D01*
X161855740Y-101619000D01*
X161944260Y-101619000D01*
X162007412Y-101625220D01*
X162007412Y-101625220D01*
G37*
G36*
X143579591Y-102378085D02*
G01*
X143613569Y-102388393D01*
X143644890Y-102405134D01*
X143672339Y-102427661D01*
X143694866Y-102455110D01*
X143711607Y-102486431D01*
X143721915Y-102520409D01*
X143726000Y-102561890D01*
X143726000Y-103163110D01*
X143721915Y-103204591D01*
X143711607Y-103238569D01*
X143694866Y-103269890D01*
X143672339Y-103297339D01*
X143644890Y-103319866D01*
X143613569Y-103336607D01*
X143579591Y-103346915D01*
X143538110Y-103351000D01*
X142861890Y-103351000D01*
X142820409Y-103346915D01*
X142786431Y-103336607D01*
X142755110Y-103319866D01*
X142727661Y-103297339D01*
X142705134Y-103269890D01*
X142688393Y-103238569D01*
X142678085Y-103204591D01*
X142674000Y-103163110D01*
X142674000Y-102561890D01*
X142678085Y-102520409D01*
X142688393Y-102486431D01*
X142705134Y-102455110D01*
X142727661Y-102427661D01*
X142755110Y-102405134D01*
X142786431Y-102388393D01*
X142820409Y-102378085D01*
X142861890Y-102374000D01*
X143538110Y-102374000D01*
X143579591Y-102378085D01*
X143579591Y-102378085D01*
G37*
G36*
X151054591Y-102353085D02*
G01*
X151088569Y-102363393D01*
X151119890Y-102380134D01*
X151147339Y-102402661D01*
X151169866Y-102430110D01*
X151186607Y-102461431D01*
X151196915Y-102495409D01*
X151201000Y-102536890D01*
X151201000Y-103138110D01*
X151196915Y-103179591D01*
X151186607Y-103213569D01*
X151169866Y-103244890D01*
X151147339Y-103272339D01*
X151119890Y-103294866D01*
X151088569Y-103311607D01*
X151054591Y-103321915D01*
X151013110Y-103326000D01*
X150336890Y-103326000D01*
X150295409Y-103321915D01*
X150261431Y-103311607D01*
X150230110Y-103294866D01*
X150202661Y-103272339D01*
X150180134Y-103244890D01*
X150163393Y-103213569D01*
X150153085Y-103179591D01*
X150149000Y-103138110D01*
X150149000Y-102536890D01*
X150153085Y-102495409D01*
X150163393Y-102461431D01*
X150180134Y-102430110D01*
X150202661Y-102402661D01*
X150230110Y-102380134D01*
X150261431Y-102363393D01*
X150295409Y-102353085D01*
X150336890Y-102349000D01*
X151013110Y-102349000D01*
X151054591Y-102353085D01*
X151054591Y-102353085D01*
G37*
G36*
X143579591Y-100803085D02*
G01*
X143613569Y-100813393D01*
X143644890Y-100830134D01*
X143672339Y-100852661D01*
X143694866Y-100880110D01*
X143711607Y-100911431D01*
X143721915Y-100945409D01*
X143726000Y-100986890D01*
X143726000Y-101588110D01*
X143721915Y-101629591D01*
X143711607Y-101663569D01*
X143694866Y-101694890D01*
X143672339Y-101722339D01*
X143644890Y-101744866D01*
X143613569Y-101761607D01*
X143579591Y-101771915D01*
X143538110Y-101776000D01*
X142861890Y-101776000D01*
X142820409Y-101771915D01*
X142786431Y-101761607D01*
X142755110Y-101744866D01*
X142727661Y-101722339D01*
X142705134Y-101694890D01*
X142688393Y-101663569D01*
X142678085Y-101629591D01*
X142674000Y-101588110D01*
X142674000Y-100986890D01*
X142678085Y-100945409D01*
X142688393Y-100911431D01*
X142705134Y-100880110D01*
X142727661Y-100852661D01*
X142755110Y-100830134D01*
X142786431Y-100813393D01*
X142820409Y-100803085D01*
X142861890Y-100799000D01*
X143538110Y-100799000D01*
X143579591Y-100803085D01*
X143579591Y-100803085D01*
G37*
G36*
X151054591Y-100778085D02*
G01*
X151088569Y-100788393D01*
X151119890Y-100805134D01*
X151147339Y-100827661D01*
X151169866Y-100855110D01*
X151186607Y-100886431D01*
X151196915Y-100920409D01*
X151201000Y-100961890D01*
X151201000Y-101563110D01*
X151196915Y-101604591D01*
X151186607Y-101638569D01*
X151169866Y-101669890D01*
X151147339Y-101697339D01*
X151119890Y-101719866D01*
X151088569Y-101736607D01*
X151054591Y-101746915D01*
X151013110Y-101751000D01*
X150336890Y-101751000D01*
X150295409Y-101746915D01*
X150261431Y-101736607D01*
X150230110Y-101719866D01*
X150202661Y-101697339D01*
X150180134Y-101669890D01*
X150163393Y-101638569D01*
X150153085Y-101604591D01*
X150149000Y-101563110D01*
X150149000Y-100961890D01*
X150153085Y-100920409D01*
X150163393Y-100886431D01*
X150180134Y-100855110D01*
X150202661Y-100827661D01*
X150230110Y-100805134D01*
X150261431Y-100788393D01*
X150295409Y-100778085D01*
X150336890Y-100774000D01*
X151013110Y-100774000D01*
X151054591Y-100778085D01*
X151054591Y-100778085D01*
G37*
G36*
X162010442Y-99085518D02*
G01*
X162076627Y-99092037D01*
X162246466Y-99143557D01*
X162402991Y-99227222D01*
X162438729Y-99256552D01*
X162540186Y-99339814D01*
X162623448Y-99441271D01*
X162652778Y-99477009D01*
X162736443Y-99633534D01*
X162787963Y-99803373D01*
X162805359Y-99980000D01*
X162787963Y-100156627D01*
X162736443Y-100326466D01*
X162652778Y-100482991D01*
X162623448Y-100518729D01*
X162540186Y-100620186D01*
X162438729Y-100703448D01*
X162402991Y-100732778D01*
X162402989Y-100732779D01*
X162267624Y-100805134D01*
X162246466Y-100816443D01*
X162076627Y-100867963D01*
X162010442Y-100874482D01*
X161944260Y-100881000D01*
X161855740Y-100881000D01*
X161789558Y-100874482D01*
X161723373Y-100867963D01*
X161553534Y-100816443D01*
X161532377Y-100805134D01*
X161397011Y-100732779D01*
X161397009Y-100732778D01*
X161361271Y-100703448D01*
X161259814Y-100620186D01*
X161176552Y-100518729D01*
X161147222Y-100482991D01*
X161063557Y-100326466D01*
X161012037Y-100156627D01*
X160994641Y-99980000D01*
X161012037Y-99803373D01*
X161063557Y-99633534D01*
X161147222Y-99477009D01*
X161176552Y-99441271D01*
X161259814Y-99339814D01*
X161361271Y-99256552D01*
X161397009Y-99227222D01*
X161553534Y-99143557D01*
X161723373Y-99092037D01*
X161789558Y-99085518D01*
X161855740Y-99079000D01*
X161944260Y-99079000D01*
X162010442Y-99085518D01*
X162010442Y-99085518D01*
G37*
G36*
X149201000Y-99301000D02*
G01*
X147699000Y-99301000D01*
X147699000Y-97599000D01*
X149201000Y-97599000D01*
X149201000Y-99301000D01*
X149201000Y-99301000D01*
G37*
G36*
X146201000Y-99301000D02*
G01*
X144699000Y-99301000D01*
X144699000Y-97599000D01*
X146201000Y-97599000D01*
X146201000Y-99301000D01*
X146201000Y-99301000D01*
G37*
G36*
X162010442Y-96545518D02*
G01*
X162076627Y-96552037D01*
X162246466Y-96603557D01*
X162402991Y-96687222D01*
X162438729Y-96716552D01*
X162540186Y-96799814D01*
X162623448Y-96901271D01*
X162652778Y-96937009D01*
X162736443Y-97093534D01*
X162787963Y-97263373D01*
X162805359Y-97440000D01*
X162787963Y-97616627D01*
X162736443Y-97786466D01*
X162652778Y-97942991D01*
X162623448Y-97978729D01*
X162540186Y-98080186D01*
X162438729Y-98163448D01*
X162402991Y-98192778D01*
X162246466Y-98276443D01*
X162076627Y-98327963D01*
X162010443Y-98334481D01*
X161944260Y-98341000D01*
X161855740Y-98341000D01*
X161789557Y-98334481D01*
X161723373Y-98327963D01*
X161553534Y-98276443D01*
X161397009Y-98192778D01*
X161361271Y-98163448D01*
X161259814Y-98080186D01*
X161176552Y-97978729D01*
X161147222Y-97942991D01*
X161063557Y-97786466D01*
X161012037Y-97616627D01*
X160994641Y-97440000D01*
X161012037Y-97263373D01*
X161063557Y-97093534D01*
X161147222Y-96937009D01*
X161176552Y-96901271D01*
X161259814Y-96799814D01*
X161361271Y-96716552D01*
X161397009Y-96687222D01*
X161553534Y-96603557D01*
X161723373Y-96552037D01*
X161789558Y-96545518D01*
X161855740Y-96539000D01*
X161944260Y-96539000D01*
X162010442Y-96545518D01*
X162010442Y-96545518D01*
G37*
G36*
X162010443Y-94005519D02*
G01*
X162076627Y-94012037D01*
X162246466Y-94063557D01*
X162402991Y-94147222D01*
X162438729Y-94176552D01*
X162540186Y-94259814D01*
X162623448Y-94361271D01*
X162652778Y-94397009D01*
X162736443Y-94553534D01*
X162787963Y-94723373D01*
X162805359Y-94900000D01*
X162787963Y-95076627D01*
X162736443Y-95246466D01*
X162652778Y-95402991D01*
X162623448Y-95438729D01*
X162540186Y-95540186D01*
X162438729Y-95623448D01*
X162402991Y-95652778D01*
X162246466Y-95736443D01*
X162076627Y-95787963D01*
X162010442Y-95794482D01*
X161944260Y-95801000D01*
X161855740Y-95801000D01*
X161789558Y-95794482D01*
X161723373Y-95787963D01*
X161553534Y-95736443D01*
X161397009Y-95652778D01*
X161361271Y-95623448D01*
X161259814Y-95540186D01*
X161176552Y-95438729D01*
X161147222Y-95402991D01*
X161063557Y-95246466D01*
X161012037Y-95076627D01*
X160994641Y-94900000D01*
X161012037Y-94723373D01*
X161063557Y-94553534D01*
X161147222Y-94397009D01*
X161176552Y-94361271D01*
X161259814Y-94259814D01*
X161361271Y-94176552D01*
X161397009Y-94147222D01*
X161553534Y-94063557D01*
X161723373Y-94012037D01*
X161789558Y-94005518D01*
X161855740Y-93999000D01*
X161944260Y-93999000D01*
X162010443Y-94005519D01*
X162010443Y-94005519D01*
G37*
G36*
X162010443Y-91465519D02*
G01*
X162076627Y-91472037D01*
X162246466Y-91523557D01*
X162402991Y-91607222D01*
X162438729Y-91636552D01*
X162540186Y-91719814D01*
X162623448Y-91821271D01*
X162652778Y-91857009D01*
X162736443Y-92013534D01*
X162787963Y-92183373D01*
X162805359Y-92360000D01*
X162787963Y-92536627D01*
X162736443Y-92706466D01*
X162652778Y-92862991D01*
X162623448Y-92898729D01*
X162540186Y-93000186D01*
X162438729Y-93083448D01*
X162402991Y-93112778D01*
X162246466Y-93196443D01*
X162076627Y-93247963D01*
X162010443Y-93254481D01*
X161944260Y-93261000D01*
X161855740Y-93261000D01*
X161789557Y-93254481D01*
X161723373Y-93247963D01*
X161553534Y-93196443D01*
X161397009Y-93112778D01*
X161361271Y-93083448D01*
X161259814Y-93000186D01*
X161176552Y-92898729D01*
X161147222Y-92862991D01*
X161063557Y-92706466D01*
X161012037Y-92536627D01*
X160994641Y-92360000D01*
X161012037Y-92183373D01*
X161063557Y-92013534D01*
X161147222Y-91857009D01*
X161176552Y-91821271D01*
X161259814Y-91719814D01*
X161361271Y-91636552D01*
X161397009Y-91607222D01*
X161553534Y-91523557D01*
X161723373Y-91472037D01*
X161789558Y-91465518D01*
X161855740Y-91459000D01*
X161944260Y-91459000D01*
X162010443Y-91465519D01*
X162010443Y-91465519D01*
G37*
G36*
X140196631Y-89343645D02*
G01*
X140230609Y-89353953D01*
X140261930Y-89370694D01*
X140289379Y-89393221D01*
X140311906Y-89420670D01*
X140328647Y-89451991D01*
X140338955Y-89485969D01*
X140343040Y-89527450D01*
X140343040Y-90128670D01*
X140338955Y-90170151D01*
X140328647Y-90204129D01*
X140311906Y-90235450D01*
X140289379Y-90262899D01*
X140261930Y-90285426D01*
X140230609Y-90302167D01*
X140196631Y-90312475D01*
X140155150Y-90316560D01*
X139478930Y-90316560D01*
X139437449Y-90312475D01*
X139403471Y-90302167D01*
X139372150Y-90285426D01*
X139344701Y-90262899D01*
X139322174Y-90235450D01*
X139305433Y-90204129D01*
X139295125Y-90170151D01*
X139291040Y-90128670D01*
X139291040Y-89527450D01*
X139295125Y-89485969D01*
X139305433Y-89451991D01*
X139322174Y-89420670D01*
X139344701Y-89393221D01*
X139372150Y-89370694D01*
X139403471Y-89353953D01*
X139437449Y-89343645D01*
X139478930Y-89339560D01*
X140155150Y-89339560D01*
X140196631Y-89343645D01*
X140196631Y-89343645D01*
G37*
G36*
X138696631Y-89331145D02*
G01*
X138730609Y-89341453D01*
X138761930Y-89358194D01*
X138789379Y-89380721D01*
X138811906Y-89408170D01*
X138828647Y-89439491D01*
X138838955Y-89473469D01*
X138843040Y-89514950D01*
X138843040Y-90116170D01*
X138838955Y-90157651D01*
X138828647Y-90191629D01*
X138811906Y-90222950D01*
X138789379Y-90250399D01*
X138761930Y-90272926D01*
X138730609Y-90289667D01*
X138696631Y-90299975D01*
X138655150Y-90304060D01*
X137978930Y-90304060D01*
X137937449Y-90299975D01*
X137903471Y-90289667D01*
X137872150Y-90272926D01*
X137844701Y-90250399D01*
X137822174Y-90222950D01*
X137805433Y-90191629D01*
X137795125Y-90157651D01*
X137791040Y-90116170D01*
X137791040Y-89514950D01*
X137795125Y-89473469D01*
X137805433Y-89439491D01*
X137822174Y-89408170D01*
X137844701Y-89380721D01*
X137872150Y-89358194D01*
X137903471Y-89341453D01*
X137937449Y-89331145D01*
X137978930Y-89327060D01*
X138655150Y-89327060D01*
X138696631Y-89331145D01*
X138696631Y-89331145D01*
G37*
G36*
X137096631Y-89331145D02*
G01*
X137130609Y-89341453D01*
X137161930Y-89358194D01*
X137189379Y-89380721D01*
X137211906Y-89408170D01*
X137228647Y-89439491D01*
X137238955Y-89473469D01*
X137243040Y-89514950D01*
X137243040Y-90116170D01*
X137238955Y-90157651D01*
X137228647Y-90191629D01*
X137211906Y-90222950D01*
X137189379Y-90250399D01*
X137161930Y-90272926D01*
X137130609Y-90289667D01*
X137096631Y-90299975D01*
X137055150Y-90304060D01*
X136378930Y-90304060D01*
X136337449Y-90299975D01*
X136303471Y-90289667D01*
X136272150Y-90272926D01*
X136244701Y-90250399D01*
X136222174Y-90222950D01*
X136205433Y-90191629D01*
X136195125Y-90157651D01*
X136191040Y-90116170D01*
X136191040Y-89514950D01*
X136195125Y-89473469D01*
X136205433Y-89439491D01*
X136222174Y-89408170D01*
X136244701Y-89380721D01*
X136272150Y-89358194D01*
X136303471Y-89341453D01*
X136337449Y-89331145D01*
X136378930Y-89327060D01*
X137055150Y-89327060D01*
X137096631Y-89331145D01*
X137096631Y-89331145D01*
G37*
G36*
X140196631Y-87768645D02*
G01*
X140230609Y-87778953D01*
X140261930Y-87795694D01*
X140289379Y-87818221D01*
X140311906Y-87845670D01*
X140328647Y-87876991D01*
X140338955Y-87910969D01*
X140343040Y-87952450D01*
X140343040Y-88553670D01*
X140338955Y-88595151D01*
X140328647Y-88629129D01*
X140311906Y-88660450D01*
X140289379Y-88687899D01*
X140261930Y-88710426D01*
X140230609Y-88727167D01*
X140196631Y-88737475D01*
X140155150Y-88741560D01*
X139478930Y-88741560D01*
X139437449Y-88737475D01*
X139403471Y-88727167D01*
X139372150Y-88710426D01*
X139344701Y-88687899D01*
X139322174Y-88660450D01*
X139305433Y-88629129D01*
X139295125Y-88595151D01*
X139291040Y-88553670D01*
X139291040Y-87952450D01*
X139295125Y-87910969D01*
X139305433Y-87876991D01*
X139322174Y-87845670D01*
X139344701Y-87818221D01*
X139372150Y-87795694D01*
X139403471Y-87778953D01*
X139437449Y-87768645D01*
X139478930Y-87764560D01*
X140155150Y-87764560D01*
X140196631Y-87768645D01*
X140196631Y-87768645D01*
G37*
G36*
X137096631Y-87756145D02*
G01*
X137130609Y-87766453D01*
X137161930Y-87783194D01*
X137189379Y-87805721D01*
X137211906Y-87833170D01*
X137228647Y-87864491D01*
X137238955Y-87898469D01*
X137243040Y-87939950D01*
X137243040Y-88541170D01*
X137238955Y-88582651D01*
X137228647Y-88616629D01*
X137211906Y-88647950D01*
X137189379Y-88675399D01*
X137161930Y-88697926D01*
X137130609Y-88714667D01*
X137096631Y-88724975D01*
X137055150Y-88729060D01*
X136378930Y-88729060D01*
X136337449Y-88724975D01*
X136303471Y-88714667D01*
X136272150Y-88697926D01*
X136244701Y-88675399D01*
X136222174Y-88647950D01*
X136205433Y-88616629D01*
X136195125Y-88582651D01*
X136191040Y-88541170D01*
X136191040Y-87939950D01*
X136195125Y-87898469D01*
X136205433Y-87864491D01*
X136222174Y-87833170D01*
X136244701Y-87805721D01*
X136272150Y-87783194D01*
X136303471Y-87766453D01*
X136337449Y-87756145D01*
X136378930Y-87752060D01*
X137055150Y-87752060D01*
X137096631Y-87756145D01*
X137096631Y-87756145D01*
G37*
G36*
X138696631Y-87756145D02*
G01*
X138730609Y-87766453D01*
X138761930Y-87783194D01*
X138789379Y-87805721D01*
X138811906Y-87833170D01*
X138828647Y-87864491D01*
X138838955Y-87898469D01*
X138843040Y-87939950D01*
X138843040Y-88541170D01*
X138838955Y-88582651D01*
X138828647Y-88616629D01*
X138811906Y-88647950D01*
X138789379Y-88675399D01*
X138761930Y-88697926D01*
X138730609Y-88714667D01*
X138696631Y-88724975D01*
X138655150Y-88729060D01*
X137978930Y-88729060D01*
X137937449Y-88724975D01*
X137903471Y-88714667D01*
X137872150Y-88697926D01*
X137844701Y-88675399D01*
X137822174Y-88647950D01*
X137805433Y-88616629D01*
X137795125Y-88582651D01*
X137791040Y-88541170D01*
X137791040Y-87939950D01*
X137795125Y-87898469D01*
X137805433Y-87864491D01*
X137822174Y-87833170D01*
X137844701Y-87805721D01*
X137872150Y-87783194D01*
X137903471Y-87766453D01*
X137937449Y-87756145D01*
X137978930Y-87752060D01*
X138655150Y-87752060D01*
X138696631Y-87756145D01*
X138696631Y-87756145D01*
G37*
G36*
X155787797Y-86510570D02*
G01*
X155842575Y-86533260D01*
X155891875Y-86566201D01*
X155933801Y-86608127D01*
X155966742Y-86657427D01*
X155989432Y-86712205D01*
X156000999Y-86770355D01*
X156000999Y-86829649D01*
X155989432Y-86887799D01*
X155966742Y-86942577D01*
X155933801Y-86991877D01*
X155891875Y-87033803D01*
X155842575Y-87066744D01*
X155787797Y-87089434D01*
X155729647Y-87101001D01*
X155670353Y-87101001D01*
X155612203Y-87089434D01*
X155557425Y-87066744D01*
X155508125Y-87033803D01*
X155466199Y-86991877D01*
X155433258Y-86942577D01*
X155410568Y-86887799D01*
X155399001Y-86829649D01*
X155399001Y-86770355D01*
X155410568Y-86712205D01*
X155433258Y-86657427D01*
X155466199Y-86608127D01*
X155508125Y-86566201D01*
X155557425Y-86533260D01*
X155612203Y-86510570D01*
X155670353Y-86499003D01*
X155729647Y-86499003D01*
X155787797Y-86510570D01*
X155787797Y-86510570D01*
G37*
G36*
X154487797Y-86510570D02*
G01*
X154542575Y-86533260D01*
X154591875Y-86566201D01*
X154633801Y-86608127D01*
X154666742Y-86657427D01*
X154689432Y-86712205D01*
X154700999Y-86770355D01*
X154700999Y-86829649D01*
X154689432Y-86887799D01*
X154666742Y-86942577D01*
X154633801Y-86991877D01*
X154591875Y-87033803D01*
X154542575Y-87066744D01*
X154487797Y-87089434D01*
X154429647Y-87101001D01*
X154370353Y-87101001D01*
X154312203Y-87089434D01*
X154257425Y-87066744D01*
X154208125Y-87033803D01*
X154166199Y-86991877D01*
X154133258Y-86942577D01*
X154110568Y-86887799D01*
X154099001Y-86829649D01*
X154099001Y-86770355D01*
X154110568Y-86712205D01*
X154133258Y-86657427D01*
X154166199Y-86608127D01*
X154208125Y-86566201D01*
X154257425Y-86533260D01*
X154312203Y-86510570D01*
X154370353Y-86499003D01*
X154429647Y-86499003D01*
X154487797Y-86510570D01*
X154487797Y-86510570D01*
G37*
G36*
X157187797Y-86510568D02*
G01*
X157242575Y-86533258D01*
X157291875Y-86566199D01*
X157333801Y-86608125D01*
X157366742Y-86657425D01*
X157389432Y-86712203D01*
X157400999Y-86770353D01*
X157400999Y-86829647D01*
X157389432Y-86887797D01*
X157366742Y-86942575D01*
X157333801Y-86991875D01*
X157291875Y-87033801D01*
X157242575Y-87066742D01*
X157187797Y-87089432D01*
X157129647Y-87100999D01*
X157070353Y-87100999D01*
X157012203Y-87089432D01*
X156957425Y-87066742D01*
X156908125Y-87033801D01*
X156866199Y-86991875D01*
X156833258Y-86942575D01*
X156810568Y-86887797D01*
X156799001Y-86829647D01*
X156799001Y-86770353D01*
X156810568Y-86712203D01*
X156833258Y-86657425D01*
X156866199Y-86608125D01*
X156908125Y-86566199D01*
X156957425Y-86533258D01*
X157012203Y-86510568D01*
X157070353Y-86499001D01*
X157129647Y-86499001D01*
X157187797Y-86510568D01*
X157187797Y-86510568D01*
G37*
G36*
X158487797Y-86510568D02*
G01*
X158542575Y-86533258D01*
X158591875Y-86566199D01*
X158633801Y-86608125D01*
X158666742Y-86657425D01*
X158689432Y-86712203D01*
X158700999Y-86770353D01*
X158700999Y-86829647D01*
X158689432Y-86887797D01*
X158666742Y-86942575D01*
X158633801Y-86991875D01*
X158591875Y-87033801D01*
X158542575Y-87066742D01*
X158487797Y-87089432D01*
X158429647Y-87100999D01*
X158370353Y-87100999D01*
X158312203Y-87089432D01*
X158257425Y-87066742D01*
X158208125Y-87033801D01*
X158166199Y-86991875D01*
X158133258Y-86942575D01*
X158110568Y-86887797D01*
X158099001Y-86829647D01*
X158099001Y-86770353D01*
X158110568Y-86712203D01*
X158133258Y-86657425D01*
X158166199Y-86608125D01*
X158208125Y-86566199D01*
X158257425Y-86533258D01*
X158312203Y-86510568D01*
X158370353Y-86499001D01*
X158429647Y-86499001D01*
X158487797Y-86510568D01*
X158487797Y-86510568D01*
G37*
G36*
X159787797Y-86510568D02*
G01*
X159842575Y-86533258D01*
X159891875Y-86566199D01*
X159933801Y-86608125D01*
X159966742Y-86657425D01*
X159989432Y-86712203D01*
X160000999Y-86770353D01*
X160000999Y-86829647D01*
X159989432Y-86887797D01*
X159966742Y-86942575D01*
X159933801Y-86991875D01*
X159891875Y-87033801D01*
X159842575Y-87066742D01*
X159787797Y-87089432D01*
X159729647Y-87100999D01*
X159670353Y-87100999D01*
X159612203Y-87089432D01*
X159557425Y-87066742D01*
X159508125Y-87033801D01*
X159466199Y-86991875D01*
X159433258Y-86942575D01*
X159410568Y-86887797D01*
X159399001Y-86829647D01*
X159399001Y-86770353D01*
X159410568Y-86712203D01*
X159433258Y-86657425D01*
X159466199Y-86608125D01*
X159508125Y-86566199D01*
X159557425Y-86533258D01*
X159612203Y-86510568D01*
X159670353Y-86499001D01*
X159729647Y-86499001D01*
X159787797Y-86510568D01*
X159787797Y-86510568D01*
G37*
G36*
X161187797Y-86510568D02*
G01*
X161242575Y-86533258D01*
X161291875Y-86566199D01*
X161333801Y-86608125D01*
X161366742Y-86657425D01*
X161389432Y-86712203D01*
X161400999Y-86770353D01*
X161400999Y-86829647D01*
X161389432Y-86887797D01*
X161366742Y-86942575D01*
X161333801Y-86991875D01*
X161291875Y-87033801D01*
X161242575Y-87066742D01*
X161187797Y-87089432D01*
X161129647Y-87100999D01*
X161070353Y-87100999D01*
X161012203Y-87089432D01*
X160957425Y-87066742D01*
X160908125Y-87033801D01*
X160866199Y-86991875D01*
X160833258Y-86942575D01*
X160810568Y-86887797D01*
X160799001Y-86829647D01*
X160799001Y-86770353D01*
X160810568Y-86712203D01*
X160833258Y-86657425D01*
X160866199Y-86608125D01*
X160908125Y-86566199D01*
X160957425Y-86533258D01*
X161012203Y-86510568D01*
X161070353Y-86499001D01*
X161129647Y-86499001D01*
X161187797Y-86510568D01*
X161187797Y-86510568D01*
G37*
G36*
X162487797Y-86510568D02*
G01*
X162542575Y-86533258D01*
X162591875Y-86566199D01*
X162633801Y-86608125D01*
X162666742Y-86657425D01*
X162689432Y-86712203D01*
X162700999Y-86770353D01*
X162700999Y-86829647D01*
X162689432Y-86887797D01*
X162666742Y-86942575D01*
X162633801Y-86991875D01*
X162591875Y-87033801D01*
X162542575Y-87066742D01*
X162487797Y-87089432D01*
X162429647Y-87100999D01*
X162370353Y-87100999D01*
X162312203Y-87089432D01*
X162257425Y-87066742D01*
X162208125Y-87033801D01*
X162166199Y-86991875D01*
X162133258Y-86942575D01*
X162110568Y-86887797D01*
X162099001Y-86829647D01*
X162099001Y-86770353D01*
X162110568Y-86712203D01*
X162133258Y-86657425D01*
X162166199Y-86608125D01*
X162208125Y-86566199D01*
X162257425Y-86533258D01*
X162312203Y-86510568D01*
X162370353Y-86499001D01*
X162429647Y-86499001D01*
X162487797Y-86510568D01*
X162487797Y-86510568D01*
G37*
G36*
X150254591Y-85878085D02*
G01*
X150288569Y-85888393D01*
X150319890Y-85905134D01*
X150347339Y-85927661D01*
X150369866Y-85955110D01*
X150386607Y-85986431D01*
X150396915Y-86020409D01*
X150401000Y-86061890D01*
X150401000Y-86738110D01*
X150396915Y-86779591D01*
X150386607Y-86813569D01*
X150369866Y-86844890D01*
X150347339Y-86872339D01*
X150319890Y-86894866D01*
X150288569Y-86911607D01*
X150254591Y-86921915D01*
X150213110Y-86926000D01*
X149611890Y-86926000D01*
X149570409Y-86921915D01*
X149536431Y-86911607D01*
X149505110Y-86894866D01*
X149477661Y-86872339D01*
X149455134Y-86844890D01*
X149438393Y-86813569D01*
X149428085Y-86779591D01*
X149424000Y-86738110D01*
X149424000Y-86061890D01*
X149428085Y-86020409D01*
X149438393Y-85986431D01*
X149455134Y-85955110D01*
X149477661Y-85927661D01*
X149505110Y-85905134D01*
X149536431Y-85888393D01*
X149570409Y-85878085D01*
X149611890Y-85874000D01*
X150213110Y-85874000D01*
X150254591Y-85878085D01*
X150254591Y-85878085D01*
G37*
G36*
X151829591Y-85878085D02*
G01*
X151863569Y-85888393D01*
X151894890Y-85905134D01*
X151922339Y-85927661D01*
X151944866Y-85955110D01*
X151961607Y-85986431D01*
X151971915Y-86020409D01*
X151976000Y-86061890D01*
X151976000Y-86738110D01*
X151971915Y-86779591D01*
X151961607Y-86813569D01*
X151944866Y-86844890D01*
X151922339Y-86872339D01*
X151894890Y-86894866D01*
X151863569Y-86911607D01*
X151829591Y-86921915D01*
X151788110Y-86926000D01*
X151186890Y-86926000D01*
X151145409Y-86921915D01*
X151111431Y-86911607D01*
X151080110Y-86894866D01*
X151052661Y-86872339D01*
X151030134Y-86844890D01*
X151013393Y-86813569D01*
X151003085Y-86779591D01*
X150999000Y-86738110D01*
X150999000Y-86061890D01*
X151003085Y-86020409D01*
X151013393Y-85986431D01*
X151030134Y-85955110D01*
X151052661Y-85927661D01*
X151080110Y-85905134D01*
X151111431Y-85888393D01*
X151145409Y-85878085D01*
X151186890Y-85874000D01*
X151788110Y-85874000D01*
X151829591Y-85878085D01*
X151829591Y-85878085D01*
G37*
G36*
X144279591Y-85778085D02*
G01*
X144313569Y-85788393D01*
X144344890Y-85805134D01*
X144372339Y-85827661D01*
X144394866Y-85855110D01*
X144411607Y-85886431D01*
X144421915Y-85920409D01*
X144426000Y-85961890D01*
X144426000Y-86638110D01*
X144421915Y-86679591D01*
X144411607Y-86713569D01*
X144394866Y-86744890D01*
X144372339Y-86772339D01*
X144344890Y-86794866D01*
X144313569Y-86811607D01*
X144279591Y-86821915D01*
X144238110Y-86826000D01*
X143636890Y-86826000D01*
X143595409Y-86821915D01*
X143561431Y-86811607D01*
X143530110Y-86794866D01*
X143502661Y-86772339D01*
X143480134Y-86744890D01*
X143463393Y-86713569D01*
X143453085Y-86679591D01*
X143449000Y-86638110D01*
X143449000Y-85961890D01*
X143453085Y-85920409D01*
X143463393Y-85886431D01*
X143480134Y-85855110D01*
X143502661Y-85827661D01*
X143530110Y-85805134D01*
X143561431Y-85788393D01*
X143595409Y-85778085D01*
X143636890Y-85774000D01*
X144238110Y-85774000D01*
X144279591Y-85778085D01*
X144279591Y-85778085D01*
G37*
G36*
X142704591Y-85778085D02*
G01*
X142738569Y-85788393D01*
X142769890Y-85805134D01*
X142797339Y-85827661D01*
X142819866Y-85855110D01*
X142836607Y-85886431D01*
X142846915Y-85920409D01*
X142851000Y-85961890D01*
X142851000Y-86638110D01*
X142846915Y-86679591D01*
X142836607Y-86713569D01*
X142819866Y-86744890D01*
X142797339Y-86772339D01*
X142769890Y-86794866D01*
X142738569Y-86811607D01*
X142704591Y-86821915D01*
X142663110Y-86826000D01*
X142061890Y-86826000D01*
X142020409Y-86821915D01*
X141986431Y-86811607D01*
X141955110Y-86794866D01*
X141927661Y-86772339D01*
X141905134Y-86744890D01*
X141888393Y-86713569D01*
X141878085Y-86679591D01*
X141874000Y-86638110D01*
X141874000Y-85961890D01*
X141878085Y-85920409D01*
X141888393Y-85886431D01*
X141905134Y-85855110D01*
X141927661Y-85827661D01*
X141955110Y-85805134D01*
X141986431Y-85788393D01*
X142020409Y-85778085D01*
X142061890Y-85774000D01*
X142663110Y-85774000D01*
X142704591Y-85778085D01*
X142704591Y-85778085D01*
G37*
G36*
X154487797Y-85210573D02*
G01*
X154542575Y-85233263D01*
X154591875Y-85266204D01*
X154633801Y-85308130D01*
X154666742Y-85357430D01*
X154689432Y-85412208D01*
X154700999Y-85470358D01*
X154700999Y-85529652D01*
X154689432Y-85587802D01*
X154666742Y-85642580D01*
X154633801Y-85691880D01*
X154591875Y-85733806D01*
X154542575Y-85766747D01*
X154487797Y-85789437D01*
X154429647Y-85801004D01*
X154370353Y-85801004D01*
X154312203Y-85789437D01*
X154257425Y-85766747D01*
X154208125Y-85733806D01*
X154166199Y-85691880D01*
X154133258Y-85642580D01*
X154110568Y-85587802D01*
X154099001Y-85529652D01*
X154099001Y-85470358D01*
X154110568Y-85412208D01*
X154133258Y-85357430D01*
X154166199Y-85308130D01*
X154208125Y-85266204D01*
X154257425Y-85233263D01*
X154312203Y-85210573D01*
X154370353Y-85199006D01*
X154429647Y-85199006D01*
X154487797Y-85210573D01*
X154487797Y-85210573D01*
G37*
G36*
X162487797Y-85210571D02*
G01*
X162542575Y-85233261D01*
X162591875Y-85266202D01*
X162633801Y-85308128D01*
X162666742Y-85357428D01*
X162689432Y-85412206D01*
X162700999Y-85470356D01*
X162700999Y-85529650D01*
X162689432Y-85587800D01*
X162666742Y-85642578D01*
X162633801Y-85691878D01*
X162591875Y-85733804D01*
X162542575Y-85766745D01*
X162487797Y-85789435D01*
X162429647Y-85801002D01*
X162370353Y-85801002D01*
X162312203Y-85789435D01*
X162257425Y-85766745D01*
X162208125Y-85733804D01*
X162166199Y-85691878D01*
X162133258Y-85642578D01*
X162110568Y-85587800D01*
X162099001Y-85529650D01*
X162099001Y-85470356D01*
X162110568Y-85412206D01*
X162133258Y-85357428D01*
X162166199Y-85308128D01*
X162208125Y-85266202D01*
X162257425Y-85233261D01*
X162312203Y-85210571D01*
X162370353Y-85199004D01*
X162429647Y-85199004D01*
X162487797Y-85210571D01*
X162487797Y-85210571D01*
G37*
G36*
X157187797Y-85210571D02*
G01*
X157242575Y-85233261D01*
X157291875Y-85266202D01*
X157333801Y-85308128D01*
X157366742Y-85357428D01*
X157389432Y-85412206D01*
X157400999Y-85470356D01*
X157400999Y-85529650D01*
X157389432Y-85587800D01*
X157366742Y-85642578D01*
X157333801Y-85691878D01*
X157291875Y-85733804D01*
X157242575Y-85766745D01*
X157187797Y-85789435D01*
X157129647Y-85801002D01*
X157070353Y-85801002D01*
X157012203Y-85789435D01*
X156957425Y-85766745D01*
X156908125Y-85733804D01*
X156866199Y-85691878D01*
X156833258Y-85642578D01*
X156810568Y-85587800D01*
X156799001Y-85529650D01*
X156799001Y-85470356D01*
X156810568Y-85412206D01*
X156833258Y-85357428D01*
X156866199Y-85308128D01*
X156908125Y-85266202D01*
X156957425Y-85233261D01*
X157012203Y-85210571D01*
X157070353Y-85199004D01*
X157129647Y-85199004D01*
X157187797Y-85210571D01*
X157187797Y-85210571D01*
G37*
G36*
X155787797Y-85210571D02*
G01*
X155842575Y-85233261D01*
X155891875Y-85266202D01*
X155933801Y-85308128D01*
X155966742Y-85357428D01*
X155989432Y-85412206D01*
X156000999Y-85470356D01*
X156000999Y-85529650D01*
X155989432Y-85587800D01*
X155966742Y-85642578D01*
X155933801Y-85691878D01*
X155891875Y-85733804D01*
X155842575Y-85766745D01*
X155787797Y-85789435D01*
X155729647Y-85801002D01*
X155670353Y-85801002D01*
X155612203Y-85789435D01*
X155557425Y-85766745D01*
X155508125Y-85733804D01*
X155466199Y-85691878D01*
X155433258Y-85642578D01*
X155410568Y-85587800D01*
X155399001Y-85529650D01*
X155399001Y-85470356D01*
X155410568Y-85412206D01*
X155433258Y-85357428D01*
X155466199Y-85308128D01*
X155508125Y-85266202D01*
X155557425Y-85233261D01*
X155612203Y-85210571D01*
X155670353Y-85199004D01*
X155729647Y-85199004D01*
X155787797Y-85210571D01*
X155787797Y-85210571D01*
G37*
G36*
X159787797Y-85210571D02*
G01*
X159842575Y-85233261D01*
X159891875Y-85266202D01*
X159933801Y-85308128D01*
X159966742Y-85357428D01*
X159989432Y-85412206D01*
X160000999Y-85470356D01*
X160000999Y-85529650D01*
X159989432Y-85587800D01*
X159966742Y-85642578D01*
X159933801Y-85691878D01*
X159891875Y-85733804D01*
X159842575Y-85766745D01*
X159787797Y-85789435D01*
X159729647Y-85801002D01*
X159670353Y-85801002D01*
X159612203Y-85789435D01*
X159557425Y-85766745D01*
X159508125Y-85733804D01*
X159466199Y-85691878D01*
X159433258Y-85642578D01*
X159410568Y-85587800D01*
X159399001Y-85529650D01*
X159399001Y-85470356D01*
X159410568Y-85412206D01*
X159433258Y-85357428D01*
X159466199Y-85308128D01*
X159508125Y-85266202D01*
X159557425Y-85233261D01*
X159612203Y-85210571D01*
X159670353Y-85199004D01*
X159729647Y-85199004D01*
X159787797Y-85210571D01*
X159787797Y-85210571D01*
G37*
G36*
X158487797Y-85210571D02*
G01*
X158542575Y-85233261D01*
X158591875Y-85266202D01*
X158633801Y-85308128D01*
X158666742Y-85357428D01*
X158689432Y-85412206D01*
X158700999Y-85470356D01*
X158700999Y-85529650D01*
X158689432Y-85587800D01*
X158666742Y-85642578D01*
X158633801Y-85691878D01*
X158591875Y-85733804D01*
X158542575Y-85766745D01*
X158487797Y-85789435D01*
X158429647Y-85801002D01*
X158370353Y-85801002D01*
X158312203Y-85789435D01*
X158257425Y-85766745D01*
X158208125Y-85733804D01*
X158166199Y-85691878D01*
X158133258Y-85642578D01*
X158110568Y-85587800D01*
X158099001Y-85529650D01*
X158099001Y-85470356D01*
X158110568Y-85412206D01*
X158133258Y-85357428D01*
X158166199Y-85308128D01*
X158208125Y-85266202D01*
X158257425Y-85233261D01*
X158312203Y-85210571D01*
X158370353Y-85199004D01*
X158429647Y-85199004D01*
X158487797Y-85210571D01*
X158487797Y-85210571D01*
G37*
G36*
X161187797Y-85210568D02*
G01*
X161242575Y-85233258D01*
X161291875Y-85266199D01*
X161333801Y-85308125D01*
X161366742Y-85357425D01*
X161389432Y-85412203D01*
X161400999Y-85470353D01*
X161400999Y-85529647D01*
X161389432Y-85587797D01*
X161366742Y-85642575D01*
X161333801Y-85691875D01*
X161291875Y-85733801D01*
X161242575Y-85766742D01*
X161187797Y-85789432D01*
X161129647Y-85800999D01*
X161070353Y-85800999D01*
X161012203Y-85789432D01*
X160957425Y-85766742D01*
X160908125Y-85733801D01*
X160866199Y-85691875D01*
X160833258Y-85642575D01*
X160810568Y-85587797D01*
X160799001Y-85529647D01*
X160799001Y-85470353D01*
X160810568Y-85412203D01*
X160833258Y-85357425D01*
X160866199Y-85308125D01*
X160908125Y-85266199D01*
X160957425Y-85233258D01*
X161012203Y-85210568D01*
X161070353Y-85199001D01*
X161129647Y-85199001D01*
X161187797Y-85210568D01*
X161187797Y-85210568D01*
G37*
G36*
X136001000Y-84851000D02*
G01*
X134299000Y-84851000D01*
X134299000Y-83349000D01*
X136001000Y-83349000D01*
X136001000Y-84851000D01*
X136001000Y-84851000D01*
G37*
G36*
X159601000Y-84851000D02*
G01*
X157899000Y-84851000D01*
X157899000Y-83349000D01*
X159601000Y-83349000D01*
X159601000Y-84851000D01*
X159601000Y-84851000D01*
G37*
G36*
X152301000Y-84851000D02*
G01*
X150599000Y-84851000D01*
X150599000Y-83349000D01*
X152301000Y-83349000D01*
X152301000Y-84851000D01*
X152301000Y-84851000D01*
G37*
G36*
X143301000Y-84851000D02*
G01*
X141599000Y-84851000D01*
X141599000Y-83349000D01*
X143301000Y-83349000D01*
X143301000Y-84851000D01*
X143301000Y-84851000D01*
G37*
G36*
X150079591Y-83478085D02*
G01*
X150113569Y-83488393D01*
X150144890Y-83505134D01*
X150172339Y-83527661D01*
X150194866Y-83555110D01*
X150211607Y-83586431D01*
X150221915Y-83620409D01*
X150226000Y-83661890D01*
X150226000Y-84338110D01*
X150221915Y-84379591D01*
X150211607Y-84413569D01*
X150194866Y-84444890D01*
X150172339Y-84472339D01*
X150144890Y-84494866D01*
X150113569Y-84511607D01*
X150079591Y-84521915D01*
X150038110Y-84526000D01*
X149436890Y-84526000D01*
X149395409Y-84521915D01*
X149361431Y-84511607D01*
X149330110Y-84494866D01*
X149302661Y-84472339D01*
X149280134Y-84444890D01*
X149263393Y-84413569D01*
X149253085Y-84379591D01*
X149249000Y-84338110D01*
X149249000Y-83661890D01*
X149253085Y-83620409D01*
X149263393Y-83586431D01*
X149280134Y-83555110D01*
X149302661Y-83527661D01*
X149330110Y-83505134D01*
X149361431Y-83488393D01*
X149395409Y-83478085D01*
X149436890Y-83474000D01*
X150038110Y-83474000D01*
X150079591Y-83478085D01*
X150079591Y-83478085D01*
G37*
G36*
X148504591Y-83478085D02*
G01*
X148538569Y-83488393D01*
X148569890Y-83505134D01*
X148597339Y-83527661D01*
X148619866Y-83555110D01*
X148636607Y-83586431D01*
X148646915Y-83620409D01*
X148651000Y-83661890D01*
X148651000Y-84338110D01*
X148646915Y-84379591D01*
X148636607Y-84413569D01*
X148619866Y-84444890D01*
X148597339Y-84472339D01*
X148569890Y-84494866D01*
X148538569Y-84511607D01*
X148504591Y-84521915D01*
X148463110Y-84526000D01*
X147861890Y-84526000D01*
X147820409Y-84521915D01*
X147786431Y-84511607D01*
X147755110Y-84494866D01*
X147727661Y-84472339D01*
X147705134Y-84444890D01*
X147688393Y-84413569D01*
X147678085Y-84379591D01*
X147674000Y-84338110D01*
X147674000Y-83661890D01*
X147678085Y-83620409D01*
X147688393Y-83586431D01*
X147705134Y-83555110D01*
X147727661Y-83527661D01*
X147755110Y-83505134D01*
X147786431Y-83488393D01*
X147820409Y-83478085D01*
X147861890Y-83474000D01*
X148463110Y-83474000D01*
X148504591Y-83478085D01*
X148504591Y-83478085D01*
G37*
G36*
X154487797Y-83910571D02*
G01*
X154542575Y-83933261D01*
X154591875Y-83966202D01*
X154633801Y-84008128D01*
X154666742Y-84057428D01*
X154689432Y-84112206D01*
X154700999Y-84170356D01*
X154700999Y-84229650D01*
X154689432Y-84287800D01*
X154666742Y-84342578D01*
X154633801Y-84391878D01*
X154591875Y-84433804D01*
X154542575Y-84466745D01*
X154487797Y-84489435D01*
X154429647Y-84501002D01*
X154370353Y-84501002D01*
X154312203Y-84489435D01*
X154257425Y-84466745D01*
X154208125Y-84433804D01*
X154166199Y-84391878D01*
X154133258Y-84342578D01*
X154110568Y-84287800D01*
X154099001Y-84229650D01*
X154099001Y-84170356D01*
X154110568Y-84112206D01*
X154133258Y-84057428D01*
X154166199Y-84008128D01*
X154208125Y-83966202D01*
X154257425Y-83933261D01*
X154312203Y-83910571D01*
X154370353Y-83899004D01*
X154429647Y-83899004D01*
X154487797Y-83910571D01*
X154487797Y-83910571D01*
G37*
G36*
X155787797Y-83910571D02*
G01*
X155842575Y-83933261D01*
X155891875Y-83966202D01*
X155933801Y-84008128D01*
X155966742Y-84057428D01*
X155989432Y-84112206D01*
X156000999Y-84170356D01*
X156000999Y-84229650D01*
X155989432Y-84287800D01*
X155966742Y-84342578D01*
X155933801Y-84391878D01*
X155891875Y-84433804D01*
X155842575Y-84466745D01*
X155787797Y-84489435D01*
X155729647Y-84501002D01*
X155670353Y-84501002D01*
X155612203Y-84489435D01*
X155557425Y-84466745D01*
X155508125Y-84433804D01*
X155466199Y-84391878D01*
X155433258Y-84342578D01*
X155410568Y-84287800D01*
X155399001Y-84229650D01*
X155399001Y-84170356D01*
X155410568Y-84112206D01*
X155433258Y-84057428D01*
X155466199Y-84008128D01*
X155508125Y-83966202D01*
X155557425Y-83933261D01*
X155612203Y-83910571D01*
X155670353Y-83899004D01*
X155729647Y-83899004D01*
X155787797Y-83910571D01*
X155787797Y-83910571D01*
G37*
G36*
X162487797Y-83910568D02*
G01*
X162542575Y-83933258D01*
X162591875Y-83966199D01*
X162633801Y-84008125D01*
X162666742Y-84057425D01*
X162689432Y-84112203D01*
X162700999Y-84170353D01*
X162700999Y-84229647D01*
X162689432Y-84287797D01*
X162666742Y-84342575D01*
X162633801Y-84391875D01*
X162591875Y-84433801D01*
X162542575Y-84466742D01*
X162487797Y-84489432D01*
X162429647Y-84500999D01*
X162370353Y-84500999D01*
X162312203Y-84489432D01*
X162257425Y-84466742D01*
X162208125Y-84433801D01*
X162166199Y-84391875D01*
X162133258Y-84342575D01*
X162110568Y-84287797D01*
X162099001Y-84229647D01*
X162099001Y-84170353D01*
X162110568Y-84112203D01*
X162133258Y-84057425D01*
X162166199Y-84008125D01*
X162208125Y-83966199D01*
X162257425Y-83933258D01*
X162312203Y-83910568D01*
X162370353Y-83899001D01*
X162429647Y-83899001D01*
X162487797Y-83910568D01*
X162487797Y-83910568D01*
G37*
G36*
X161187797Y-83910568D02*
G01*
X161242575Y-83933258D01*
X161291875Y-83966199D01*
X161333801Y-84008125D01*
X161366742Y-84057425D01*
X161389432Y-84112203D01*
X161400999Y-84170353D01*
X161400999Y-84229647D01*
X161389432Y-84287797D01*
X161366742Y-84342575D01*
X161333801Y-84391875D01*
X161291875Y-84433801D01*
X161242575Y-84466742D01*
X161187797Y-84489432D01*
X161129647Y-84500999D01*
X161070353Y-84500999D01*
X161012203Y-84489432D01*
X160957425Y-84466742D01*
X160908125Y-84433801D01*
X160866199Y-84391875D01*
X160833258Y-84342575D01*
X160810568Y-84287797D01*
X160799001Y-84229647D01*
X160799001Y-84170353D01*
X160810568Y-84112203D01*
X160833258Y-84057425D01*
X160866199Y-84008125D01*
X160908125Y-83966199D01*
X160957425Y-83933258D01*
X161012203Y-83910568D01*
X161070353Y-83899001D01*
X161129647Y-83899001D01*
X161187797Y-83910568D01*
X161187797Y-83910568D01*
G37*
G36*
X148504591Y-81928085D02*
G01*
X148538569Y-81938393D01*
X148569890Y-81955134D01*
X148597339Y-81977661D01*
X148619866Y-82005110D01*
X148636607Y-82036431D01*
X148646915Y-82070409D01*
X148651000Y-82111890D01*
X148651000Y-82788110D01*
X148646915Y-82829591D01*
X148636607Y-82863569D01*
X148619866Y-82894890D01*
X148597339Y-82922339D01*
X148569890Y-82944866D01*
X148538569Y-82961607D01*
X148504591Y-82971915D01*
X148463110Y-82976000D01*
X147861890Y-82976000D01*
X147820409Y-82971915D01*
X147786431Y-82961607D01*
X147755110Y-82944866D01*
X147727661Y-82922339D01*
X147705134Y-82894890D01*
X147688393Y-82863569D01*
X147678085Y-82829591D01*
X147674000Y-82788110D01*
X147674000Y-82111890D01*
X147678085Y-82070409D01*
X147688393Y-82036431D01*
X147705134Y-82005110D01*
X147727661Y-81977661D01*
X147755110Y-81955134D01*
X147786431Y-81938393D01*
X147820409Y-81928085D01*
X147861890Y-81924000D01*
X148463110Y-81924000D01*
X148504591Y-81928085D01*
X148504591Y-81928085D01*
G37*
G36*
X150079591Y-81928085D02*
G01*
X150113569Y-81938393D01*
X150144890Y-81955134D01*
X150172339Y-81977661D01*
X150194866Y-82005110D01*
X150211607Y-82036431D01*
X150221915Y-82070409D01*
X150226000Y-82111890D01*
X150226000Y-82788110D01*
X150221915Y-82829591D01*
X150211607Y-82863569D01*
X150194866Y-82894890D01*
X150172339Y-82922339D01*
X150144890Y-82944866D01*
X150113569Y-82961607D01*
X150079591Y-82971915D01*
X150038110Y-82976000D01*
X149436890Y-82976000D01*
X149395409Y-82971915D01*
X149361431Y-82961607D01*
X149330110Y-82944866D01*
X149302661Y-82922339D01*
X149280134Y-82894890D01*
X149263393Y-82863569D01*
X149253085Y-82829591D01*
X149249000Y-82788110D01*
X149249000Y-82111890D01*
X149253085Y-82070409D01*
X149263393Y-82036431D01*
X149280134Y-82005110D01*
X149302661Y-81977661D01*
X149330110Y-81955134D01*
X149361431Y-81938393D01*
X149395409Y-81928085D01*
X149436890Y-81924000D01*
X150038110Y-81924000D01*
X150079591Y-81928085D01*
X150079591Y-81928085D01*
G37*
G36*
X136001000Y-81851000D02*
G01*
X134299000Y-81851000D01*
X134299000Y-80349000D01*
X136001000Y-80349000D01*
X136001000Y-81851000D01*
X136001000Y-81851000D01*
G37*
G36*
X143301000Y-81851000D02*
G01*
X141599000Y-81851000D01*
X141599000Y-80349000D01*
X143301000Y-80349000D01*
X143301000Y-81851000D01*
X143301000Y-81851000D01*
G37*
G36*
X152301000Y-81851000D02*
G01*
X150599000Y-81851000D01*
X150599000Y-80349000D01*
X152301000Y-80349000D01*
X152301000Y-81851000D01*
X152301000Y-81851000D01*
G37*
G36*
X159601000Y-81851000D02*
G01*
X157899000Y-81851000D01*
X157899000Y-80349000D01*
X159601000Y-80349000D01*
X159601000Y-81851000D01*
X159601000Y-81851000D01*
G37*
G36*
X148504591Y-80328085D02*
G01*
X148538569Y-80338393D01*
X148569890Y-80355134D01*
X148597339Y-80377661D01*
X148619866Y-80405110D01*
X148636607Y-80436431D01*
X148646915Y-80470409D01*
X148651000Y-80511890D01*
X148651000Y-81188110D01*
X148646915Y-81229591D01*
X148636607Y-81263569D01*
X148619866Y-81294890D01*
X148597339Y-81322339D01*
X148569890Y-81344866D01*
X148538569Y-81361607D01*
X148504591Y-81371915D01*
X148463110Y-81376000D01*
X147861890Y-81376000D01*
X147820409Y-81371915D01*
X147786431Y-81361607D01*
X147755110Y-81344866D01*
X147727661Y-81322339D01*
X147705134Y-81294890D01*
X147688393Y-81263569D01*
X147678085Y-81229591D01*
X147674000Y-81188110D01*
X147674000Y-80511890D01*
X147678085Y-80470409D01*
X147688393Y-80436431D01*
X147705134Y-80405110D01*
X147727661Y-80377661D01*
X147755110Y-80355134D01*
X147786431Y-80338393D01*
X147820409Y-80328085D01*
X147861890Y-80324000D01*
X148463110Y-80324000D01*
X148504591Y-80328085D01*
X148504591Y-80328085D01*
G37*
G36*
X150079591Y-80328085D02*
G01*
X150113569Y-80338393D01*
X150144890Y-80355134D01*
X150172339Y-80377661D01*
X150194866Y-80405110D01*
X150211607Y-80436431D01*
X150221915Y-80470409D01*
X150226000Y-80511890D01*
X150226000Y-81188110D01*
X150221915Y-81229591D01*
X150211607Y-81263569D01*
X150194866Y-81294890D01*
X150172339Y-81322339D01*
X150144890Y-81344866D01*
X150113569Y-81361607D01*
X150079591Y-81371915D01*
X150038110Y-81376000D01*
X149436890Y-81376000D01*
X149395409Y-81371915D01*
X149361431Y-81361607D01*
X149330110Y-81344866D01*
X149302661Y-81322339D01*
X149280134Y-81294890D01*
X149263393Y-81263569D01*
X149253085Y-81229591D01*
X149249000Y-81188110D01*
X149249000Y-80511890D01*
X149253085Y-80470409D01*
X149263393Y-80436431D01*
X149280134Y-80405110D01*
X149302661Y-80377661D01*
X149330110Y-80355134D01*
X149361431Y-80338393D01*
X149395409Y-80328085D01*
X149436890Y-80324000D01*
X150038110Y-80324000D01*
X150079591Y-80328085D01*
X150079591Y-80328085D01*
G37*
G36*
X153079591Y-78353085D02*
G01*
X153113569Y-78363393D01*
X153144890Y-78380134D01*
X153172339Y-78402661D01*
X153194866Y-78430110D01*
X153211607Y-78461431D01*
X153221915Y-78495409D01*
X153226000Y-78536890D01*
X153226000Y-79213110D01*
X153221915Y-79254591D01*
X153211607Y-79288569D01*
X153194866Y-79319890D01*
X153172339Y-79347339D01*
X153144890Y-79369866D01*
X153113569Y-79386607D01*
X153079591Y-79396915D01*
X153038110Y-79401000D01*
X152436890Y-79401000D01*
X152395409Y-79396915D01*
X152361431Y-79386607D01*
X152330110Y-79369866D01*
X152302661Y-79347339D01*
X152280134Y-79319890D01*
X152263393Y-79288569D01*
X152253085Y-79254591D01*
X152249000Y-79213110D01*
X152249000Y-78536890D01*
X152253085Y-78495409D01*
X152263393Y-78461431D01*
X152280134Y-78430110D01*
X152302661Y-78402661D01*
X152330110Y-78380134D01*
X152361431Y-78363393D01*
X152395409Y-78353085D01*
X152436890Y-78349000D01*
X153038110Y-78349000D01*
X153079591Y-78353085D01*
X153079591Y-78353085D01*
G37*
G36*
X159429591Y-78353085D02*
G01*
X159463569Y-78363393D01*
X159494890Y-78380134D01*
X159522339Y-78402661D01*
X159544866Y-78430110D01*
X159561607Y-78461431D01*
X159571915Y-78495409D01*
X159576000Y-78536890D01*
X159576000Y-79213110D01*
X159571915Y-79254591D01*
X159561607Y-79288569D01*
X159544866Y-79319890D01*
X159522339Y-79347339D01*
X159494890Y-79369866D01*
X159463569Y-79386607D01*
X159429591Y-79396915D01*
X159388110Y-79401000D01*
X158786890Y-79401000D01*
X158745409Y-79396915D01*
X158711431Y-79386607D01*
X158680110Y-79369866D01*
X158652661Y-79347339D01*
X158630134Y-79319890D01*
X158613393Y-79288569D01*
X158603085Y-79254591D01*
X158599000Y-79213110D01*
X158599000Y-78536890D01*
X158603085Y-78495409D01*
X158613393Y-78461431D01*
X158630134Y-78430110D01*
X158652661Y-78402661D01*
X158680110Y-78380134D01*
X158711431Y-78363393D01*
X158745409Y-78353085D01*
X158786890Y-78349000D01*
X159388110Y-78349000D01*
X159429591Y-78353085D01*
X159429591Y-78353085D01*
G37*
G36*
X157854591Y-78353085D02*
G01*
X157888569Y-78363393D01*
X157919890Y-78380134D01*
X157947339Y-78402661D01*
X157969866Y-78430110D01*
X157986607Y-78461431D01*
X157996915Y-78495409D01*
X158001000Y-78536890D01*
X158001000Y-79213110D01*
X157996915Y-79254591D01*
X157986607Y-79288569D01*
X157969866Y-79319890D01*
X157947339Y-79347339D01*
X157919890Y-79369866D01*
X157888569Y-79386607D01*
X157854591Y-79396915D01*
X157813110Y-79401000D01*
X157211890Y-79401000D01*
X157170409Y-79396915D01*
X157136431Y-79386607D01*
X157105110Y-79369866D01*
X157077661Y-79347339D01*
X157055134Y-79319890D01*
X157038393Y-79288569D01*
X157028085Y-79254591D01*
X157024000Y-79213110D01*
X157024000Y-78536890D01*
X157028085Y-78495409D01*
X157038393Y-78461431D01*
X157055134Y-78430110D01*
X157077661Y-78402661D01*
X157105110Y-78380134D01*
X157136431Y-78363393D01*
X157170409Y-78353085D01*
X157211890Y-78349000D01*
X157813110Y-78349000D01*
X157854591Y-78353085D01*
X157854591Y-78353085D01*
G37*
G36*
X151504591Y-78353085D02*
G01*
X151538569Y-78363393D01*
X151569890Y-78380134D01*
X151597339Y-78402661D01*
X151619866Y-78430110D01*
X151636607Y-78461431D01*
X151646915Y-78495409D01*
X151651000Y-78536890D01*
X151651000Y-79213110D01*
X151646915Y-79254591D01*
X151636607Y-79288569D01*
X151619866Y-79319890D01*
X151597339Y-79347339D01*
X151569890Y-79369866D01*
X151538569Y-79386607D01*
X151504591Y-79396915D01*
X151463110Y-79401000D01*
X150861890Y-79401000D01*
X150820409Y-79396915D01*
X150786431Y-79386607D01*
X150755110Y-79369866D01*
X150727661Y-79347339D01*
X150705134Y-79319890D01*
X150688393Y-79288569D01*
X150678085Y-79254591D01*
X150674000Y-79213110D01*
X150674000Y-78536890D01*
X150678085Y-78495409D01*
X150688393Y-78461431D01*
X150705134Y-78430110D01*
X150727661Y-78402661D01*
X150755110Y-78380134D01*
X150786431Y-78363393D01*
X150820409Y-78353085D01*
X150861890Y-78349000D01*
X151463110Y-78349000D01*
X151504591Y-78353085D01*
X151504591Y-78353085D01*
G37*
G36*
X156379591Y-78390585D02*
G01*
X156413569Y-78400893D01*
X156444890Y-78417634D01*
X156472339Y-78440161D01*
X156494866Y-78467610D01*
X156511607Y-78498931D01*
X156521915Y-78532909D01*
X156526000Y-78574390D01*
X156526000Y-79175610D01*
X156521915Y-79217091D01*
X156511607Y-79251069D01*
X156494866Y-79282390D01*
X156472339Y-79309839D01*
X156444890Y-79332366D01*
X156413569Y-79349107D01*
X156379591Y-79359415D01*
X156338110Y-79363500D01*
X155661890Y-79363500D01*
X155620409Y-79359415D01*
X155586431Y-79349107D01*
X155555110Y-79332366D01*
X155527661Y-79309839D01*
X155505134Y-79282390D01*
X155488393Y-79251069D01*
X155478085Y-79217091D01*
X155474000Y-79175610D01*
X155474000Y-78574390D01*
X155478085Y-78532909D01*
X155488393Y-78498931D01*
X155505134Y-78467610D01*
X155527661Y-78440161D01*
X155555110Y-78417634D01*
X155586431Y-78400893D01*
X155620409Y-78390585D01*
X155661890Y-78386500D01*
X156338110Y-78386500D01*
X156379591Y-78390585D01*
X156379591Y-78390585D01*
G37*
G36*
X154679591Y-78390585D02*
G01*
X154713569Y-78400893D01*
X154744890Y-78417634D01*
X154772339Y-78440161D01*
X154794866Y-78467610D01*
X154811607Y-78498931D01*
X154821915Y-78532909D01*
X154826000Y-78574390D01*
X154826000Y-79175610D01*
X154821915Y-79217091D01*
X154811607Y-79251069D01*
X154794866Y-79282390D01*
X154772339Y-79309839D01*
X154744890Y-79332366D01*
X154713569Y-79349107D01*
X154679591Y-79359415D01*
X154638110Y-79363500D01*
X153961890Y-79363500D01*
X153920409Y-79359415D01*
X153886431Y-79349107D01*
X153855110Y-79332366D01*
X153827661Y-79309839D01*
X153805134Y-79282390D01*
X153788393Y-79251069D01*
X153778085Y-79217091D01*
X153774000Y-79175610D01*
X153774000Y-78574390D01*
X153778085Y-78532909D01*
X153788393Y-78498931D01*
X153805134Y-78467610D01*
X153827661Y-78440161D01*
X153855110Y-78417634D01*
X153886431Y-78400893D01*
X153920409Y-78390585D01*
X153961890Y-78386500D01*
X154638110Y-78386500D01*
X154679591Y-78390585D01*
X154679591Y-78390585D01*
G37*
G36*
X138329591Y-78378085D02*
G01*
X138363569Y-78388393D01*
X138394890Y-78405134D01*
X138422339Y-78427661D01*
X138444866Y-78455110D01*
X138461607Y-78486431D01*
X138471915Y-78520409D01*
X138476000Y-78561890D01*
X138476000Y-79163110D01*
X138471915Y-79204591D01*
X138461607Y-79238569D01*
X138444866Y-79269890D01*
X138422339Y-79297339D01*
X138394890Y-79319866D01*
X138363569Y-79336607D01*
X138329591Y-79346915D01*
X138288110Y-79351000D01*
X137611890Y-79351000D01*
X137570409Y-79346915D01*
X137536431Y-79336607D01*
X137505110Y-79319866D01*
X137477661Y-79297339D01*
X137455134Y-79269890D01*
X137438393Y-79238569D01*
X137428085Y-79204591D01*
X137424000Y-79163110D01*
X137424000Y-78561890D01*
X137428085Y-78520409D01*
X137438393Y-78486431D01*
X137455134Y-78455110D01*
X137477661Y-78427661D01*
X137505110Y-78405134D01*
X137536431Y-78388393D01*
X137570409Y-78378085D01*
X137611890Y-78374000D01*
X138288110Y-78374000D01*
X138329591Y-78378085D01*
X138329591Y-78378085D01*
G37*
G36*
X140029591Y-78378085D02*
G01*
X140063569Y-78388393D01*
X140094890Y-78405134D01*
X140122339Y-78427661D01*
X140144866Y-78455110D01*
X140161607Y-78486431D01*
X140171915Y-78520409D01*
X140176000Y-78561890D01*
X140176000Y-79163110D01*
X140171915Y-79204591D01*
X140161607Y-79238569D01*
X140144866Y-79269890D01*
X140122339Y-79297339D01*
X140094890Y-79319866D01*
X140063569Y-79336607D01*
X140029591Y-79346915D01*
X139988110Y-79351000D01*
X139311890Y-79351000D01*
X139270409Y-79346915D01*
X139236431Y-79336607D01*
X139205110Y-79319866D01*
X139177661Y-79297339D01*
X139155134Y-79269890D01*
X139138393Y-79238569D01*
X139128085Y-79204591D01*
X139124000Y-79163110D01*
X139124000Y-78561890D01*
X139128085Y-78520409D01*
X139138393Y-78486431D01*
X139155134Y-78455110D01*
X139177661Y-78427661D01*
X139205110Y-78405134D01*
X139236431Y-78388393D01*
X139270409Y-78378085D01*
X139311890Y-78374000D01*
X139988110Y-78374000D01*
X140029591Y-78378085D01*
X140029591Y-78378085D01*
G37*
G36*
X136779591Y-78278085D02*
G01*
X136813569Y-78288393D01*
X136844890Y-78305134D01*
X136872339Y-78327661D01*
X136894866Y-78355110D01*
X136911607Y-78386431D01*
X136921915Y-78420409D01*
X136926000Y-78461890D01*
X136926000Y-79138110D01*
X136921915Y-79179591D01*
X136911607Y-79213569D01*
X136894866Y-79244890D01*
X136872339Y-79272339D01*
X136844890Y-79294866D01*
X136813569Y-79311607D01*
X136779591Y-79321915D01*
X136738110Y-79326000D01*
X136136890Y-79326000D01*
X136095409Y-79321915D01*
X136061431Y-79311607D01*
X136030110Y-79294866D01*
X136002661Y-79272339D01*
X135980134Y-79244890D01*
X135963393Y-79213569D01*
X135953085Y-79179591D01*
X135949000Y-79138110D01*
X135949000Y-78461890D01*
X135953085Y-78420409D01*
X135963393Y-78386431D01*
X135980134Y-78355110D01*
X136002661Y-78327661D01*
X136030110Y-78305134D01*
X136061431Y-78288393D01*
X136095409Y-78278085D01*
X136136890Y-78274000D01*
X136738110Y-78274000D01*
X136779591Y-78278085D01*
X136779591Y-78278085D01*
G37*
G36*
X143079591Y-78278085D02*
G01*
X143113569Y-78288393D01*
X143144890Y-78305134D01*
X143172339Y-78327661D01*
X143194866Y-78355110D01*
X143211607Y-78386431D01*
X143221915Y-78420409D01*
X143226000Y-78461890D01*
X143226000Y-79138110D01*
X143221915Y-79179591D01*
X143211607Y-79213569D01*
X143194866Y-79244890D01*
X143172339Y-79272339D01*
X143144890Y-79294866D01*
X143113569Y-79311607D01*
X143079591Y-79321915D01*
X143038110Y-79326000D01*
X142436890Y-79326000D01*
X142395409Y-79321915D01*
X142361431Y-79311607D01*
X142330110Y-79294866D01*
X142302661Y-79272339D01*
X142280134Y-79244890D01*
X142263393Y-79213569D01*
X142253085Y-79179591D01*
X142249000Y-79138110D01*
X142249000Y-78461890D01*
X142253085Y-78420409D01*
X142263393Y-78386431D01*
X142280134Y-78355110D01*
X142302661Y-78327661D01*
X142330110Y-78305134D01*
X142361431Y-78288393D01*
X142395409Y-78278085D01*
X142436890Y-78274000D01*
X143038110Y-78274000D01*
X143079591Y-78278085D01*
X143079591Y-78278085D01*
G37*
G36*
X135204591Y-78278085D02*
G01*
X135238569Y-78288393D01*
X135269890Y-78305134D01*
X135297339Y-78327661D01*
X135319866Y-78355110D01*
X135336607Y-78386431D01*
X135346915Y-78420409D01*
X135351000Y-78461890D01*
X135351000Y-79138110D01*
X135346915Y-79179591D01*
X135336607Y-79213569D01*
X135319866Y-79244890D01*
X135297339Y-79272339D01*
X135269890Y-79294866D01*
X135238569Y-79311607D01*
X135204591Y-79321915D01*
X135163110Y-79326000D01*
X134561890Y-79326000D01*
X134520409Y-79321915D01*
X134486431Y-79311607D01*
X134455110Y-79294866D01*
X134427661Y-79272339D01*
X134405134Y-79244890D01*
X134388393Y-79213569D01*
X134378085Y-79179591D01*
X134374000Y-79138110D01*
X134374000Y-78461890D01*
X134378085Y-78420409D01*
X134388393Y-78386431D01*
X134405134Y-78355110D01*
X134427661Y-78327661D01*
X134455110Y-78305134D01*
X134486431Y-78288393D01*
X134520409Y-78278085D01*
X134561890Y-78274000D01*
X135163110Y-78274000D01*
X135204591Y-78278085D01*
X135204591Y-78278085D01*
G37*
G36*
X141504591Y-78278085D02*
G01*
X141538569Y-78288393D01*
X141569890Y-78305134D01*
X141597339Y-78327661D01*
X141619866Y-78355110D01*
X141636607Y-78386431D01*
X141646915Y-78420409D01*
X141651000Y-78461890D01*
X141651000Y-79138110D01*
X141646915Y-79179591D01*
X141636607Y-79213569D01*
X141619866Y-79244890D01*
X141597339Y-79272339D01*
X141569890Y-79294866D01*
X141538569Y-79311607D01*
X141504591Y-79321915D01*
X141463110Y-79326000D01*
X140861890Y-79326000D01*
X140820409Y-79321915D01*
X140786431Y-79311607D01*
X140755110Y-79294866D01*
X140727661Y-79272339D01*
X140705134Y-79244890D01*
X140688393Y-79213569D01*
X140678085Y-79179591D01*
X140674000Y-79138110D01*
X140674000Y-78461890D01*
X140678085Y-78420409D01*
X140688393Y-78386431D01*
X140705134Y-78355110D01*
X140727661Y-78327661D01*
X140755110Y-78305134D01*
X140786431Y-78288393D01*
X140820409Y-78278085D01*
X140861890Y-78274000D01*
X141463110Y-78274000D01*
X141504591Y-78278085D01*
X141504591Y-78278085D01*
G37*
G36*
X156379591Y-76815585D02*
G01*
X156413569Y-76825893D01*
X156444890Y-76842634D01*
X156472339Y-76865161D01*
X156494866Y-76892610D01*
X156511607Y-76923931D01*
X156521915Y-76957909D01*
X156526000Y-76999390D01*
X156526000Y-77600610D01*
X156521915Y-77642091D01*
X156511607Y-77676069D01*
X156494866Y-77707390D01*
X156472339Y-77734839D01*
X156444890Y-77757366D01*
X156413569Y-77774107D01*
X156379591Y-77784415D01*
X156338110Y-77788500D01*
X155661890Y-77788500D01*
X155620409Y-77784415D01*
X155586431Y-77774107D01*
X155555110Y-77757366D01*
X155527661Y-77734839D01*
X155505134Y-77707390D01*
X155488393Y-77676069D01*
X155478085Y-77642091D01*
X155474000Y-77600610D01*
X155474000Y-76999390D01*
X155478085Y-76957909D01*
X155488393Y-76923931D01*
X155505134Y-76892610D01*
X155527661Y-76865161D01*
X155555110Y-76842634D01*
X155586431Y-76825893D01*
X155620409Y-76815585D01*
X155661890Y-76811500D01*
X156338110Y-76811500D01*
X156379591Y-76815585D01*
X156379591Y-76815585D01*
G37*
G36*
X154679591Y-76815585D02*
G01*
X154713569Y-76825893D01*
X154744890Y-76842634D01*
X154772339Y-76865161D01*
X154794866Y-76892610D01*
X154811607Y-76923931D01*
X154821915Y-76957909D01*
X154826000Y-76999390D01*
X154826000Y-77600610D01*
X154821915Y-77642091D01*
X154811607Y-77676069D01*
X154794866Y-77707390D01*
X154772339Y-77734839D01*
X154744890Y-77757366D01*
X154713569Y-77774107D01*
X154679591Y-77784415D01*
X154638110Y-77788500D01*
X153961890Y-77788500D01*
X153920409Y-77784415D01*
X153886431Y-77774107D01*
X153855110Y-77757366D01*
X153827661Y-77734839D01*
X153805134Y-77707390D01*
X153788393Y-77676069D01*
X153778085Y-77642091D01*
X153774000Y-77600610D01*
X153774000Y-76999390D01*
X153778085Y-76957909D01*
X153788393Y-76923931D01*
X153805134Y-76892610D01*
X153827661Y-76865161D01*
X153855110Y-76842634D01*
X153886431Y-76825893D01*
X153920409Y-76815585D01*
X153961890Y-76811500D01*
X154638110Y-76811500D01*
X154679591Y-76815585D01*
X154679591Y-76815585D01*
G37*
G36*
X138329591Y-76803085D02*
G01*
X138363569Y-76813393D01*
X138394890Y-76830134D01*
X138422339Y-76852661D01*
X138444866Y-76880110D01*
X138461607Y-76911431D01*
X138471915Y-76945409D01*
X138476000Y-76986890D01*
X138476000Y-77588110D01*
X138471915Y-77629591D01*
X138461607Y-77663569D01*
X138444866Y-77694890D01*
X138422339Y-77722339D01*
X138394890Y-77744866D01*
X138363569Y-77761607D01*
X138329591Y-77771915D01*
X138288110Y-77776000D01*
X137611890Y-77776000D01*
X137570409Y-77771915D01*
X137536431Y-77761607D01*
X137505110Y-77744866D01*
X137477661Y-77722339D01*
X137455134Y-77694890D01*
X137438393Y-77663569D01*
X137428085Y-77629591D01*
X137424000Y-77588110D01*
X137424000Y-76986890D01*
X137428085Y-76945409D01*
X137438393Y-76911431D01*
X137455134Y-76880110D01*
X137477661Y-76852661D01*
X137505110Y-76830134D01*
X137536431Y-76813393D01*
X137570409Y-76803085D01*
X137611890Y-76799000D01*
X138288110Y-76799000D01*
X138329591Y-76803085D01*
X138329591Y-76803085D01*
G37*
G36*
X140029591Y-76803085D02*
G01*
X140063569Y-76813393D01*
X140094890Y-76830134D01*
X140122339Y-76852661D01*
X140144866Y-76880110D01*
X140161607Y-76911431D01*
X140171915Y-76945409D01*
X140176000Y-76986890D01*
X140176000Y-77588110D01*
X140171915Y-77629591D01*
X140161607Y-77663569D01*
X140144866Y-77694890D01*
X140122339Y-77722339D01*
X140094890Y-77744866D01*
X140063569Y-77761607D01*
X140029591Y-77771915D01*
X139988110Y-77776000D01*
X139311890Y-77776000D01*
X139270409Y-77771915D01*
X139236431Y-77761607D01*
X139205110Y-77744866D01*
X139177661Y-77722339D01*
X139155134Y-77694890D01*
X139138393Y-77663569D01*
X139128085Y-77629591D01*
X139124000Y-77588110D01*
X139124000Y-76986890D01*
X139128085Y-76945409D01*
X139138393Y-76911431D01*
X139155134Y-76880110D01*
X139177661Y-76852661D01*
X139205110Y-76830134D01*
X139236431Y-76813393D01*
X139270409Y-76803085D01*
X139311890Y-76799000D01*
X139988110Y-76799000D01*
X140029591Y-76803085D01*
X140029591Y-76803085D01*
G37*
M02*
