G04 #@! TF.GenerationSoftware,KiCad,Pcbnew,(5.1.4)-1*
G04 #@! TF.CreationDate,2020-03-11T16:56:26-04:00*
G04 #@! TF.ProjectId,MicSwitchBoardElectret,4d696353-7769-4746-9368-426f61726445,rev?*
G04 #@! TF.SameCoordinates,Original*
G04 #@! TF.FileFunction,Paste,Bot*
G04 #@! TF.FilePolarity,Positive*
%FSLAX46Y46*%
G04 Gerber Fmt 4.6, Leading zero omitted, Abs format (unit mm)*
G04 Created by KiCad (PCBNEW (5.1.4)-1) date 2020-03-11 16:56:26*
%MOMM*%
%LPD*%
G04 APERTURE LIST*
%ADD10C,0.100000*%
%ADD11C,0.875000*%
%ADD12R,0.900000X0.800000*%
%ADD13C,1.600000*%
G04 APERTURE END LIST*
D10*
G36*
X123177691Y-77453553D02*
G01*
X123198926Y-77456703D01*
X123219750Y-77461919D01*
X123239962Y-77469151D01*
X123259368Y-77478330D01*
X123277781Y-77489366D01*
X123295024Y-77502154D01*
X123310930Y-77516570D01*
X123325346Y-77532476D01*
X123338134Y-77549719D01*
X123349170Y-77568132D01*
X123358349Y-77587538D01*
X123365581Y-77607750D01*
X123370797Y-77628574D01*
X123373947Y-77649809D01*
X123375000Y-77671250D01*
X123375000Y-78108750D01*
X123373947Y-78130191D01*
X123370797Y-78151426D01*
X123365581Y-78172250D01*
X123358349Y-78192462D01*
X123349170Y-78211868D01*
X123338134Y-78230281D01*
X123325346Y-78247524D01*
X123310930Y-78263430D01*
X123295024Y-78277846D01*
X123277781Y-78290634D01*
X123259368Y-78301670D01*
X123239962Y-78310849D01*
X123219750Y-78318081D01*
X123198926Y-78323297D01*
X123177691Y-78326447D01*
X123156250Y-78327500D01*
X122643750Y-78327500D01*
X122622309Y-78326447D01*
X122601074Y-78323297D01*
X122580250Y-78318081D01*
X122560038Y-78310849D01*
X122540632Y-78301670D01*
X122522219Y-78290634D01*
X122504976Y-78277846D01*
X122489070Y-78263430D01*
X122474654Y-78247524D01*
X122461866Y-78230281D01*
X122450830Y-78211868D01*
X122441651Y-78192462D01*
X122434419Y-78172250D01*
X122429203Y-78151426D01*
X122426053Y-78130191D01*
X122425000Y-78108750D01*
X122425000Y-77671250D01*
X122426053Y-77649809D01*
X122429203Y-77628574D01*
X122434419Y-77607750D01*
X122441651Y-77587538D01*
X122450830Y-77568132D01*
X122461866Y-77549719D01*
X122474654Y-77532476D01*
X122489070Y-77516570D01*
X122504976Y-77502154D01*
X122522219Y-77489366D01*
X122540632Y-77478330D01*
X122560038Y-77469151D01*
X122580250Y-77461919D01*
X122601074Y-77456703D01*
X122622309Y-77453553D01*
X122643750Y-77452500D01*
X123156250Y-77452500D01*
X123177691Y-77453553D01*
X123177691Y-77453553D01*
G37*
D11*
X122900000Y-77890000D03*
D10*
G36*
X123177691Y-75878553D02*
G01*
X123198926Y-75881703D01*
X123219750Y-75886919D01*
X123239962Y-75894151D01*
X123259368Y-75903330D01*
X123277781Y-75914366D01*
X123295024Y-75927154D01*
X123310930Y-75941570D01*
X123325346Y-75957476D01*
X123338134Y-75974719D01*
X123349170Y-75993132D01*
X123358349Y-76012538D01*
X123365581Y-76032750D01*
X123370797Y-76053574D01*
X123373947Y-76074809D01*
X123375000Y-76096250D01*
X123375000Y-76533750D01*
X123373947Y-76555191D01*
X123370797Y-76576426D01*
X123365581Y-76597250D01*
X123358349Y-76617462D01*
X123349170Y-76636868D01*
X123338134Y-76655281D01*
X123325346Y-76672524D01*
X123310930Y-76688430D01*
X123295024Y-76702846D01*
X123277781Y-76715634D01*
X123259368Y-76726670D01*
X123239962Y-76735849D01*
X123219750Y-76743081D01*
X123198926Y-76748297D01*
X123177691Y-76751447D01*
X123156250Y-76752500D01*
X122643750Y-76752500D01*
X122622309Y-76751447D01*
X122601074Y-76748297D01*
X122580250Y-76743081D01*
X122560038Y-76735849D01*
X122540632Y-76726670D01*
X122522219Y-76715634D01*
X122504976Y-76702846D01*
X122489070Y-76688430D01*
X122474654Y-76672524D01*
X122461866Y-76655281D01*
X122450830Y-76636868D01*
X122441651Y-76617462D01*
X122434419Y-76597250D01*
X122429203Y-76576426D01*
X122426053Y-76555191D01*
X122425000Y-76533750D01*
X122425000Y-76096250D01*
X122426053Y-76074809D01*
X122429203Y-76053574D01*
X122434419Y-76032750D01*
X122441651Y-76012538D01*
X122450830Y-75993132D01*
X122461866Y-75974719D01*
X122474654Y-75957476D01*
X122489070Y-75941570D01*
X122504976Y-75927154D01*
X122522219Y-75914366D01*
X122540632Y-75903330D01*
X122560038Y-75894151D01*
X122580250Y-75886919D01*
X122601074Y-75881703D01*
X122622309Y-75878553D01*
X122643750Y-75877500D01*
X123156250Y-75877500D01*
X123177691Y-75878553D01*
X123177691Y-75878553D01*
G37*
D11*
X122900000Y-76315000D03*
D10*
G36*
X121330191Y-73946053D02*
G01*
X121351426Y-73949203D01*
X121372250Y-73954419D01*
X121392462Y-73961651D01*
X121411868Y-73970830D01*
X121430281Y-73981866D01*
X121447524Y-73994654D01*
X121463430Y-74009070D01*
X121477846Y-74024976D01*
X121490634Y-74042219D01*
X121501670Y-74060632D01*
X121510849Y-74080038D01*
X121518081Y-74100250D01*
X121523297Y-74121074D01*
X121526447Y-74142309D01*
X121527500Y-74163750D01*
X121527500Y-74676250D01*
X121526447Y-74697691D01*
X121523297Y-74718926D01*
X121518081Y-74739750D01*
X121510849Y-74759962D01*
X121501670Y-74779368D01*
X121490634Y-74797781D01*
X121477846Y-74815024D01*
X121463430Y-74830930D01*
X121447524Y-74845346D01*
X121430281Y-74858134D01*
X121411868Y-74869170D01*
X121392462Y-74878349D01*
X121372250Y-74885581D01*
X121351426Y-74890797D01*
X121330191Y-74893947D01*
X121308750Y-74895000D01*
X120871250Y-74895000D01*
X120849809Y-74893947D01*
X120828574Y-74890797D01*
X120807750Y-74885581D01*
X120787538Y-74878349D01*
X120768132Y-74869170D01*
X120749719Y-74858134D01*
X120732476Y-74845346D01*
X120716570Y-74830930D01*
X120702154Y-74815024D01*
X120689366Y-74797781D01*
X120678330Y-74779368D01*
X120669151Y-74759962D01*
X120661919Y-74739750D01*
X120656703Y-74718926D01*
X120653553Y-74697691D01*
X120652500Y-74676250D01*
X120652500Y-74163750D01*
X120653553Y-74142309D01*
X120656703Y-74121074D01*
X120661919Y-74100250D01*
X120669151Y-74080038D01*
X120678330Y-74060632D01*
X120689366Y-74042219D01*
X120702154Y-74024976D01*
X120716570Y-74009070D01*
X120732476Y-73994654D01*
X120749719Y-73981866D01*
X120768132Y-73970830D01*
X120787538Y-73961651D01*
X120807750Y-73954419D01*
X120828574Y-73949203D01*
X120849809Y-73946053D01*
X120871250Y-73945000D01*
X121308750Y-73945000D01*
X121330191Y-73946053D01*
X121330191Y-73946053D01*
G37*
D11*
X121090000Y-74420000D03*
D10*
G36*
X119755191Y-73946053D02*
G01*
X119776426Y-73949203D01*
X119797250Y-73954419D01*
X119817462Y-73961651D01*
X119836868Y-73970830D01*
X119855281Y-73981866D01*
X119872524Y-73994654D01*
X119888430Y-74009070D01*
X119902846Y-74024976D01*
X119915634Y-74042219D01*
X119926670Y-74060632D01*
X119935849Y-74080038D01*
X119943081Y-74100250D01*
X119948297Y-74121074D01*
X119951447Y-74142309D01*
X119952500Y-74163750D01*
X119952500Y-74676250D01*
X119951447Y-74697691D01*
X119948297Y-74718926D01*
X119943081Y-74739750D01*
X119935849Y-74759962D01*
X119926670Y-74779368D01*
X119915634Y-74797781D01*
X119902846Y-74815024D01*
X119888430Y-74830930D01*
X119872524Y-74845346D01*
X119855281Y-74858134D01*
X119836868Y-74869170D01*
X119817462Y-74878349D01*
X119797250Y-74885581D01*
X119776426Y-74890797D01*
X119755191Y-74893947D01*
X119733750Y-74895000D01*
X119296250Y-74895000D01*
X119274809Y-74893947D01*
X119253574Y-74890797D01*
X119232750Y-74885581D01*
X119212538Y-74878349D01*
X119193132Y-74869170D01*
X119174719Y-74858134D01*
X119157476Y-74845346D01*
X119141570Y-74830930D01*
X119127154Y-74815024D01*
X119114366Y-74797781D01*
X119103330Y-74779368D01*
X119094151Y-74759962D01*
X119086919Y-74739750D01*
X119081703Y-74718926D01*
X119078553Y-74697691D01*
X119077500Y-74676250D01*
X119077500Y-74163750D01*
X119078553Y-74142309D01*
X119081703Y-74121074D01*
X119086919Y-74100250D01*
X119094151Y-74080038D01*
X119103330Y-74060632D01*
X119114366Y-74042219D01*
X119127154Y-74024976D01*
X119141570Y-74009070D01*
X119157476Y-73994654D01*
X119174719Y-73981866D01*
X119193132Y-73970830D01*
X119212538Y-73961651D01*
X119232750Y-73954419D01*
X119253574Y-73949203D01*
X119274809Y-73946053D01*
X119296250Y-73945000D01*
X119733750Y-73945000D01*
X119755191Y-73946053D01*
X119755191Y-73946053D01*
G37*
D11*
X119515000Y-74420000D03*
D10*
G36*
X119750191Y-72296053D02*
G01*
X119771426Y-72299203D01*
X119792250Y-72304419D01*
X119812462Y-72311651D01*
X119831868Y-72320830D01*
X119850281Y-72331866D01*
X119867524Y-72344654D01*
X119883430Y-72359070D01*
X119897846Y-72374976D01*
X119910634Y-72392219D01*
X119921670Y-72410632D01*
X119930849Y-72430038D01*
X119938081Y-72450250D01*
X119943297Y-72471074D01*
X119946447Y-72492309D01*
X119947500Y-72513750D01*
X119947500Y-73026250D01*
X119946447Y-73047691D01*
X119943297Y-73068926D01*
X119938081Y-73089750D01*
X119930849Y-73109962D01*
X119921670Y-73129368D01*
X119910634Y-73147781D01*
X119897846Y-73165024D01*
X119883430Y-73180930D01*
X119867524Y-73195346D01*
X119850281Y-73208134D01*
X119831868Y-73219170D01*
X119812462Y-73228349D01*
X119792250Y-73235581D01*
X119771426Y-73240797D01*
X119750191Y-73243947D01*
X119728750Y-73245000D01*
X119291250Y-73245000D01*
X119269809Y-73243947D01*
X119248574Y-73240797D01*
X119227750Y-73235581D01*
X119207538Y-73228349D01*
X119188132Y-73219170D01*
X119169719Y-73208134D01*
X119152476Y-73195346D01*
X119136570Y-73180930D01*
X119122154Y-73165024D01*
X119109366Y-73147781D01*
X119098330Y-73129368D01*
X119089151Y-73109962D01*
X119081919Y-73089750D01*
X119076703Y-73068926D01*
X119073553Y-73047691D01*
X119072500Y-73026250D01*
X119072500Y-72513750D01*
X119073553Y-72492309D01*
X119076703Y-72471074D01*
X119081919Y-72450250D01*
X119089151Y-72430038D01*
X119098330Y-72410632D01*
X119109366Y-72392219D01*
X119122154Y-72374976D01*
X119136570Y-72359070D01*
X119152476Y-72344654D01*
X119169719Y-72331866D01*
X119188132Y-72320830D01*
X119207538Y-72311651D01*
X119227750Y-72304419D01*
X119248574Y-72299203D01*
X119269809Y-72296053D01*
X119291250Y-72295000D01*
X119728750Y-72295000D01*
X119750191Y-72296053D01*
X119750191Y-72296053D01*
G37*
D11*
X119510000Y-72770000D03*
D10*
G36*
X121325191Y-72296053D02*
G01*
X121346426Y-72299203D01*
X121367250Y-72304419D01*
X121387462Y-72311651D01*
X121406868Y-72320830D01*
X121425281Y-72331866D01*
X121442524Y-72344654D01*
X121458430Y-72359070D01*
X121472846Y-72374976D01*
X121485634Y-72392219D01*
X121496670Y-72410632D01*
X121505849Y-72430038D01*
X121513081Y-72450250D01*
X121518297Y-72471074D01*
X121521447Y-72492309D01*
X121522500Y-72513750D01*
X121522500Y-73026250D01*
X121521447Y-73047691D01*
X121518297Y-73068926D01*
X121513081Y-73089750D01*
X121505849Y-73109962D01*
X121496670Y-73129368D01*
X121485634Y-73147781D01*
X121472846Y-73165024D01*
X121458430Y-73180930D01*
X121442524Y-73195346D01*
X121425281Y-73208134D01*
X121406868Y-73219170D01*
X121387462Y-73228349D01*
X121367250Y-73235581D01*
X121346426Y-73240797D01*
X121325191Y-73243947D01*
X121303750Y-73245000D01*
X120866250Y-73245000D01*
X120844809Y-73243947D01*
X120823574Y-73240797D01*
X120802750Y-73235581D01*
X120782538Y-73228349D01*
X120763132Y-73219170D01*
X120744719Y-73208134D01*
X120727476Y-73195346D01*
X120711570Y-73180930D01*
X120697154Y-73165024D01*
X120684366Y-73147781D01*
X120673330Y-73129368D01*
X120664151Y-73109962D01*
X120656919Y-73089750D01*
X120651703Y-73068926D01*
X120648553Y-73047691D01*
X120647500Y-73026250D01*
X120647500Y-72513750D01*
X120648553Y-72492309D01*
X120651703Y-72471074D01*
X120656919Y-72450250D01*
X120664151Y-72430038D01*
X120673330Y-72410632D01*
X120684366Y-72392219D01*
X120697154Y-72374976D01*
X120711570Y-72359070D01*
X120727476Y-72344654D01*
X120744719Y-72331866D01*
X120763132Y-72320830D01*
X120782538Y-72311651D01*
X120802750Y-72304419D01*
X120823574Y-72299203D01*
X120844809Y-72296053D01*
X120866250Y-72295000D01*
X121303750Y-72295000D01*
X121325191Y-72296053D01*
X121325191Y-72296053D01*
G37*
D11*
X121085000Y-72770000D03*
D10*
G36*
X128789691Y-71662053D02*
G01*
X128810926Y-71665203D01*
X128831750Y-71670419D01*
X128851962Y-71677651D01*
X128871368Y-71686830D01*
X128889781Y-71697866D01*
X128907024Y-71710654D01*
X128922930Y-71725070D01*
X128937346Y-71740976D01*
X128950134Y-71758219D01*
X128961170Y-71776632D01*
X128970349Y-71796038D01*
X128977581Y-71816250D01*
X128982797Y-71837074D01*
X128985947Y-71858309D01*
X128987000Y-71879750D01*
X128987000Y-72392250D01*
X128985947Y-72413691D01*
X128982797Y-72434926D01*
X128977581Y-72455750D01*
X128970349Y-72475962D01*
X128961170Y-72495368D01*
X128950134Y-72513781D01*
X128937346Y-72531024D01*
X128922930Y-72546930D01*
X128907024Y-72561346D01*
X128889781Y-72574134D01*
X128871368Y-72585170D01*
X128851962Y-72594349D01*
X128831750Y-72601581D01*
X128810926Y-72606797D01*
X128789691Y-72609947D01*
X128768250Y-72611000D01*
X128330750Y-72611000D01*
X128309309Y-72609947D01*
X128288074Y-72606797D01*
X128267250Y-72601581D01*
X128247038Y-72594349D01*
X128227632Y-72585170D01*
X128209219Y-72574134D01*
X128191976Y-72561346D01*
X128176070Y-72546930D01*
X128161654Y-72531024D01*
X128148866Y-72513781D01*
X128137830Y-72495368D01*
X128128651Y-72475962D01*
X128121419Y-72455750D01*
X128116203Y-72434926D01*
X128113053Y-72413691D01*
X128112000Y-72392250D01*
X128112000Y-71879750D01*
X128113053Y-71858309D01*
X128116203Y-71837074D01*
X128121419Y-71816250D01*
X128128651Y-71796038D01*
X128137830Y-71776632D01*
X128148866Y-71758219D01*
X128161654Y-71740976D01*
X128176070Y-71725070D01*
X128191976Y-71710654D01*
X128209219Y-71697866D01*
X128227632Y-71686830D01*
X128247038Y-71677651D01*
X128267250Y-71670419D01*
X128288074Y-71665203D01*
X128309309Y-71662053D01*
X128330750Y-71661000D01*
X128768250Y-71661000D01*
X128789691Y-71662053D01*
X128789691Y-71662053D01*
G37*
D11*
X128549500Y-72136000D03*
D10*
G36*
X127214691Y-71662053D02*
G01*
X127235926Y-71665203D01*
X127256750Y-71670419D01*
X127276962Y-71677651D01*
X127296368Y-71686830D01*
X127314781Y-71697866D01*
X127332024Y-71710654D01*
X127347930Y-71725070D01*
X127362346Y-71740976D01*
X127375134Y-71758219D01*
X127386170Y-71776632D01*
X127395349Y-71796038D01*
X127402581Y-71816250D01*
X127407797Y-71837074D01*
X127410947Y-71858309D01*
X127412000Y-71879750D01*
X127412000Y-72392250D01*
X127410947Y-72413691D01*
X127407797Y-72434926D01*
X127402581Y-72455750D01*
X127395349Y-72475962D01*
X127386170Y-72495368D01*
X127375134Y-72513781D01*
X127362346Y-72531024D01*
X127347930Y-72546930D01*
X127332024Y-72561346D01*
X127314781Y-72574134D01*
X127296368Y-72585170D01*
X127276962Y-72594349D01*
X127256750Y-72601581D01*
X127235926Y-72606797D01*
X127214691Y-72609947D01*
X127193250Y-72611000D01*
X126755750Y-72611000D01*
X126734309Y-72609947D01*
X126713074Y-72606797D01*
X126692250Y-72601581D01*
X126672038Y-72594349D01*
X126652632Y-72585170D01*
X126634219Y-72574134D01*
X126616976Y-72561346D01*
X126601070Y-72546930D01*
X126586654Y-72531024D01*
X126573866Y-72513781D01*
X126562830Y-72495368D01*
X126553651Y-72475962D01*
X126546419Y-72455750D01*
X126541203Y-72434926D01*
X126538053Y-72413691D01*
X126537000Y-72392250D01*
X126537000Y-71879750D01*
X126538053Y-71858309D01*
X126541203Y-71837074D01*
X126546419Y-71816250D01*
X126553651Y-71796038D01*
X126562830Y-71776632D01*
X126573866Y-71758219D01*
X126586654Y-71740976D01*
X126601070Y-71725070D01*
X126616976Y-71710654D01*
X126634219Y-71697866D01*
X126652632Y-71686830D01*
X126672038Y-71677651D01*
X126692250Y-71670419D01*
X126713074Y-71665203D01*
X126734309Y-71662053D01*
X126755750Y-71661000D01*
X127193250Y-71661000D01*
X127214691Y-71662053D01*
X127214691Y-71662053D01*
G37*
D11*
X126974500Y-72136000D03*
D10*
G36*
X123247691Y-74043553D02*
G01*
X123268926Y-74046703D01*
X123289750Y-74051919D01*
X123309962Y-74059151D01*
X123329368Y-74068330D01*
X123347781Y-74079366D01*
X123365024Y-74092154D01*
X123380930Y-74106570D01*
X123395346Y-74122476D01*
X123408134Y-74139719D01*
X123419170Y-74158132D01*
X123428349Y-74177538D01*
X123435581Y-74197750D01*
X123440797Y-74218574D01*
X123443947Y-74239809D01*
X123445000Y-74261250D01*
X123445000Y-74698750D01*
X123443947Y-74720191D01*
X123440797Y-74741426D01*
X123435581Y-74762250D01*
X123428349Y-74782462D01*
X123419170Y-74801868D01*
X123408134Y-74820281D01*
X123395346Y-74837524D01*
X123380930Y-74853430D01*
X123365024Y-74867846D01*
X123347781Y-74880634D01*
X123329368Y-74891670D01*
X123309962Y-74900849D01*
X123289750Y-74908081D01*
X123268926Y-74913297D01*
X123247691Y-74916447D01*
X123226250Y-74917500D01*
X122713750Y-74917500D01*
X122692309Y-74916447D01*
X122671074Y-74913297D01*
X122650250Y-74908081D01*
X122630038Y-74900849D01*
X122610632Y-74891670D01*
X122592219Y-74880634D01*
X122574976Y-74867846D01*
X122559070Y-74853430D01*
X122544654Y-74837524D01*
X122531866Y-74820281D01*
X122520830Y-74801868D01*
X122511651Y-74782462D01*
X122504419Y-74762250D01*
X122499203Y-74741426D01*
X122496053Y-74720191D01*
X122495000Y-74698750D01*
X122495000Y-74261250D01*
X122496053Y-74239809D01*
X122499203Y-74218574D01*
X122504419Y-74197750D01*
X122511651Y-74177538D01*
X122520830Y-74158132D01*
X122531866Y-74139719D01*
X122544654Y-74122476D01*
X122559070Y-74106570D01*
X122574976Y-74092154D01*
X122592219Y-74079366D01*
X122610632Y-74068330D01*
X122630038Y-74059151D01*
X122650250Y-74051919D01*
X122671074Y-74046703D01*
X122692309Y-74043553D01*
X122713750Y-74042500D01*
X123226250Y-74042500D01*
X123247691Y-74043553D01*
X123247691Y-74043553D01*
G37*
D11*
X122970000Y-74480000D03*
D10*
G36*
X123247691Y-72468553D02*
G01*
X123268926Y-72471703D01*
X123289750Y-72476919D01*
X123309962Y-72484151D01*
X123329368Y-72493330D01*
X123347781Y-72504366D01*
X123365024Y-72517154D01*
X123380930Y-72531570D01*
X123395346Y-72547476D01*
X123408134Y-72564719D01*
X123419170Y-72583132D01*
X123428349Y-72602538D01*
X123435581Y-72622750D01*
X123440797Y-72643574D01*
X123443947Y-72664809D01*
X123445000Y-72686250D01*
X123445000Y-73123750D01*
X123443947Y-73145191D01*
X123440797Y-73166426D01*
X123435581Y-73187250D01*
X123428349Y-73207462D01*
X123419170Y-73226868D01*
X123408134Y-73245281D01*
X123395346Y-73262524D01*
X123380930Y-73278430D01*
X123365024Y-73292846D01*
X123347781Y-73305634D01*
X123329368Y-73316670D01*
X123309962Y-73325849D01*
X123289750Y-73333081D01*
X123268926Y-73338297D01*
X123247691Y-73341447D01*
X123226250Y-73342500D01*
X122713750Y-73342500D01*
X122692309Y-73341447D01*
X122671074Y-73338297D01*
X122650250Y-73333081D01*
X122630038Y-73325849D01*
X122610632Y-73316670D01*
X122592219Y-73305634D01*
X122574976Y-73292846D01*
X122559070Y-73278430D01*
X122544654Y-73262524D01*
X122531866Y-73245281D01*
X122520830Y-73226868D01*
X122511651Y-73207462D01*
X122504419Y-73187250D01*
X122499203Y-73166426D01*
X122496053Y-73145191D01*
X122495000Y-73123750D01*
X122495000Y-72686250D01*
X122496053Y-72664809D01*
X122499203Y-72643574D01*
X122504419Y-72622750D01*
X122511651Y-72602538D01*
X122520830Y-72583132D01*
X122531866Y-72564719D01*
X122544654Y-72547476D01*
X122559070Y-72531570D01*
X122574976Y-72517154D01*
X122592219Y-72504366D01*
X122610632Y-72493330D01*
X122630038Y-72484151D01*
X122650250Y-72476919D01*
X122671074Y-72471703D01*
X122692309Y-72468553D01*
X122713750Y-72467500D01*
X123226250Y-72467500D01*
X123247691Y-72468553D01*
X123247691Y-72468553D01*
G37*
D11*
X122970000Y-72905000D03*
D12*
X119270000Y-77110000D03*
X121270000Y-78060000D03*
X121270000Y-76160000D03*
D10*
G36*
X133500191Y-73726053D02*
G01*
X133521426Y-73729203D01*
X133542250Y-73734419D01*
X133562462Y-73741651D01*
X133581868Y-73750830D01*
X133600281Y-73761866D01*
X133617524Y-73774654D01*
X133633430Y-73789070D01*
X133647846Y-73804976D01*
X133660634Y-73822219D01*
X133671670Y-73840632D01*
X133680849Y-73860038D01*
X133688081Y-73880250D01*
X133693297Y-73901074D01*
X133696447Y-73922309D01*
X133697500Y-73943750D01*
X133697500Y-74456250D01*
X133696447Y-74477691D01*
X133693297Y-74498926D01*
X133688081Y-74519750D01*
X133680849Y-74539962D01*
X133671670Y-74559368D01*
X133660634Y-74577781D01*
X133647846Y-74595024D01*
X133633430Y-74610930D01*
X133617524Y-74625346D01*
X133600281Y-74638134D01*
X133581868Y-74649170D01*
X133562462Y-74658349D01*
X133542250Y-74665581D01*
X133521426Y-74670797D01*
X133500191Y-74673947D01*
X133478750Y-74675000D01*
X133041250Y-74675000D01*
X133019809Y-74673947D01*
X132998574Y-74670797D01*
X132977750Y-74665581D01*
X132957538Y-74658349D01*
X132938132Y-74649170D01*
X132919719Y-74638134D01*
X132902476Y-74625346D01*
X132886570Y-74610930D01*
X132872154Y-74595024D01*
X132859366Y-74577781D01*
X132848330Y-74559368D01*
X132839151Y-74539962D01*
X132831919Y-74519750D01*
X132826703Y-74498926D01*
X132823553Y-74477691D01*
X132822500Y-74456250D01*
X132822500Y-73943750D01*
X132823553Y-73922309D01*
X132826703Y-73901074D01*
X132831919Y-73880250D01*
X132839151Y-73860038D01*
X132848330Y-73840632D01*
X132859366Y-73822219D01*
X132872154Y-73804976D01*
X132886570Y-73789070D01*
X132902476Y-73774654D01*
X132919719Y-73761866D01*
X132938132Y-73750830D01*
X132957538Y-73741651D01*
X132977750Y-73734419D01*
X132998574Y-73729203D01*
X133019809Y-73726053D01*
X133041250Y-73725000D01*
X133478750Y-73725000D01*
X133500191Y-73726053D01*
X133500191Y-73726053D01*
G37*
D11*
X133260000Y-74200000D03*
D10*
G36*
X131925191Y-73726053D02*
G01*
X131946426Y-73729203D01*
X131967250Y-73734419D01*
X131987462Y-73741651D01*
X132006868Y-73750830D01*
X132025281Y-73761866D01*
X132042524Y-73774654D01*
X132058430Y-73789070D01*
X132072846Y-73804976D01*
X132085634Y-73822219D01*
X132096670Y-73840632D01*
X132105849Y-73860038D01*
X132113081Y-73880250D01*
X132118297Y-73901074D01*
X132121447Y-73922309D01*
X132122500Y-73943750D01*
X132122500Y-74456250D01*
X132121447Y-74477691D01*
X132118297Y-74498926D01*
X132113081Y-74519750D01*
X132105849Y-74539962D01*
X132096670Y-74559368D01*
X132085634Y-74577781D01*
X132072846Y-74595024D01*
X132058430Y-74610930D01*
X132042524Y-74625346D01*
X132025281Y-74638134D01*
X132006868Y-74649170D01*
X131987462Y-74658349D01*
X131967250Y-74665581D01*
X131946426Y-74670797D01*
X131925191Y-74673947D01*
X131903750Y-74675000D01*
X131466250Y-74675000D01*
X131444809Y-74673947D01*
X131423574Y-74670797D01*
X131402750Y-74665581D01*
X131382538Y-74658349D01*
X131363132Y-74649170D01*
X131344719Y-74638134D01*
X131327476Y-74625346D01*
X131311570Y-74610930D01*
X131297154Y-74595024D01*
X131284366Y-74577781D01*
X131273330Y-74559368D01*
X131264151Y-74539962D01*
X131256919Y-74519750D01*
X131251703Y-74498926D01*
X131248553Y-74477691D01*
X131247500Y-74456250D01*
X131247500Y-73943750D01*
X131248553Y-73922309D01*
X131251703Y-73901074D01*
X131256919Y-73880250D01*
X131264151Y-73860038D01*
X131273330Y-73840632D01*
X131284366Y-73822219D01*
X131297154Y-73804976D01*
X131311570Y-73789070D01*
X131327476Y-73774654D01*
X131344719Y-73761866D01*
X131363132Y-73750830D01*
X131382538Y-73741651D01*
X131402750Y-73734419D01*
X131423574Y-73729203D01*
X131444809Y-73726053D01*
X131466250Y-73725000D01*
X131903750Y-73725000D01*
X131925191Y-73726053D01*
X131925191Y-73726053D01*
G37*
D11*
X131685000Y-74200000D03*
D10*
G36*
X116617691Y-76301053D02*
G01*
X116638926Y-76304203D01*
X116659750Y-76309419D01*
X116679962Y-76316651D01*
X116699368Y-76325830D01*
X116717781Y-76336866D01*
X116735024Y-76349654D01*
X116750930Y-76364070D01*
X116765346Y-76379976D01*
X116778134Y-76397219D01*
X116789170Y-76415632D01*
X116798349Y-76435038D01*
X116805581Y-76455250D01*
X116810797Y-76476074D01*
X116813947Y-76497309D01*
X116815000Y-76518750D01*
X116815000Y-76956250D01*
X116813947Y-76977691D01*
X116810797Y-76998926D01*
X116805581Y-77019750D01*
X116798349Y-77039962D01*
X116789170Y-77059368D01*
X116778134Y-77077781D01*
X116765346Y-77095024D01*
X116750930Y-77110930D01*
X116735024Y-77125346D01*
X116717781Y-77138134D01*
X116699368Y-77149170D01*
X116679962Y-77158349D01*
X116659750Y-77165581D01*
X116638926Y-77170797D01*
X116617691Y-77173947D01*
X116596250Y-77175000D01*
X116083750Y-77175000D01*
X116062309Y-77173947D01*
X116041074Y-77170797D01*
X116020250Y-77165581D01*
X116000038Y-77158349D01*
X115980632Y-77149170D01*
X115962219Y-77138134D01*
X115944976Y-77125346D01*
X115929070Y-77110930D01*
X115914654Y-77095024D01*
X115901866Y-77077781D01*
X115890830Y-77059368D01*
X115881651Y-77039962D01*
X115874419Y-77019750D01*
X115869203Y-76998926D01*
X115866053Y-76977691D01*
X115865000Y-76956250D01*
X115865000Y-76518750D01*
X115866053Y-76497309D01*
X115869203Y-76476074D01*
X115874419Y-76455250D01*
X115881651Y-76435038D01*
X115890830Y-76415632D01*
X115901866Y-76397219D01*
X115914654Y-76379976D01*
X115929070Y-76364070D01*
X115944976Y-76349654D01*
X115962219Y-76336866D01*
X115980632Y-76325830D01*
X116000038Y-76316651D01*
X116020250Y-76309419D01*
X116041074Y-76304203D01*
X116062309Y-76301053D01*
X116083750Y-76300000D01*
X116596250Y-76300000D01*
X116617691Y-76301053D01*
X116617691Y-76301053D01*
G37*
D11*
X116340000Y-76737500D03*
D10*
G36*
X116617691Y-74726053D02*
G01*
X116638926Y-74729203D01*
X116659750Y-74734419D01*
X116679962Y-74741651D01*
X116699368Y-74750830D01*
X116717781Y-74761866D01*
X116735024Y-74774654D01*
X116750930Y-74789070D01*
X116765346Y-74804976D01*
X116778134Y-74822219D01*
X116789170Y-74840632D01*
X116798349Y-74860038D01*
X116805581Y-74880250D01*
X116810797Y-74901074D01*
X116813947Y-74922309D01*
X116815000Y-74943750D01*
X116815000Y-75381250D01*
X116813947Y-75402691D01*
X116810797Y-75423926D01*
X116805581Y-75444750D01*
X116798349Y-75464962D01*
X116789170Y-75484368D01*
X116778134Y-75502781D01*
X116765346Y-75520024D01*
X116750930Y-75535930D01*
X116735024Y-75550346D01*
X116717781Y-75563134D01*
X116699368Y-75574170D01*
X116679962Y-75583349D01*
X116659750Y-75590581D01*
X116638926Y-75595797D01*
X116617691Y-75598947D01*
X116596250Y-75600000D01*
X116083750Y-75600000D01*
X116062309Y-75598947D01*
X116041074Y-75595797D01*
X116020250Y-75590581D01*
X116000038Y-75583349D01*
X115980632Y-75574170D01*
X115962219Y-75563134D01*
X115944976Y-75550346D01*
X115929070Y-75535930D01*
X115914654Y-75520024D01*
X115901866Y-75502781D01*
X115890830Y-75484368D01*
X115881651Y-75464962D01*
X115874419Y-75444750D01*
X115869203Y-75423926D01*
X115866053Y-75402691D01*
X115865000Y-75381250D01*
X115865000Y-74943750D01*
X115866053Y-74922309D01*
X115869203Y-74901074D01*
X115874419Y-74880250D01*
X115881651Y-74860038D01*
X115890830Y-74840632D01*
X115901866Y-74822219D01*
X115914654Y-74804976D01*
X115929070Y-74789070D01*
X115944976Y-74774654D01*
X115962219Y-74761866D01*
X115980632Y-74750830D01*
X116000038Y-74741651D01*
X116020250Y-74734419D01*
X116041074Y-74729203D01*
X116062309Y-74726053D01*
X116083750Y-74725000D01*
X116596250Y-74725000D01*
X116617691Y-74726053D01*
X116617691Y-74726053D01*
G37*
D11*
X116340000Y-75162500D03*
D10*
G36*
X128364504Y-77041204D02*
G01*
X128388773Y-77044804D01*
X128412571Y-77050765D01*
X128435671Y-77059030D01*
X128457849Y-77069520D01*
X128478893Y-77082133D01*
X128498598Y-77096747D01*
X128516777Y-77113223D01*
X128533253Y-77131402D01*
X128547867Y-77151107D01*
X128560480Y-77172151D01*
X128570970Y-77194329D01*
X128579235Y-77217429D01*
X128585196Y-77241227D01*
X128588796Y-77265496D01*
X128590000Y-77290000D01*
X128590000Y-79390000D01*
X128588796Y-79414504D01*
X128585196Y-79438773D01*
X128579235Y-79462571D01*
X128570970Y-79485671D01*
X128560480Y-79507849D01*
X128547867Y-79528893D01*
X128533253Y-79548598D01*
X128516777Y-79566777D01*
X128498598Y-79583253D01*
X128478893Y-79597867D01*
X128457849Y-79610480D01*
X128435671Y-79620970D01*
X128412571Y-79629235D01*
X128388773Y-79635196D01*
X128364504Y-79638796D01*
X128340000Y-79640000D01*
X127240000Y-79640000D01*
X127215496Y-79638796D01*
X127191227Y-79635196D01*
X127167429Y-79629235D01*
X127144329Y-79620970D01*
X127122151Y-79610480D01*
X127101107Y-79597867D01*
X127081402Y-79583253D01*
X127063223Y-79566777D01*
X127046747Y-79548598D01*
X127032133Y-79528893D01*
X127019520Y-79507849D01*
X127009030Y-79485671D01*
X127000765Y-79462571D01*
X126994804Y-79438773D01*
X126991204Y-79414504D01*
X126990000Y-79390000D01*
X126990000Y-77290000D01*
X126991204Y-77265496D01*
X126994804Y-77241227D01*
X127000765Y-77217429D01*
X127009030Y-77194329D01*
X127019520Y-77172151D01*
X127032133Y-77151107D01*
X127046747Y-77131402D01*
X127063223Y-77113223D01*
X127081402Y-77096747D01*
X127101107Y-77082133D01*
X127122151Y-77069520D01*
X127144329Y-77059030D01*
X127167429Y-77050765D01*
X127191227Y-77044804D01*
X127215496Y-77041204D01*
X127240000Y-77040000D01*
X128340000Y-77040000D01*
X128364504Y-77041204D01*
X128364504Y-77041204D01*
G37*
D13*
X127790000Y-78340000D03*
D10*
G36*
X128364504Y-73441204D02*
G01*
X128388773Y-73444804D01*
X128412571Y-73450765D01*
X128435671Y-73459030D01*
X128457849Y-73469520D01*
X128478893Y-73482133D01*
X128498598Y-73496747D01*
X128516777Y-73513223D01*
X128533253Y-73531402D01*
X128547867Y-73551107D01*
X128560480Y-73572151D01*
X128570970Y-73594329D01*
X128579235Y-73617429D01*
X128585196Y-73641227D01*
X128588796Y-73665496D01*
X128590000Y-73690000D01*
X128590000Y-75790000D01*
X128588796Y-75814504D01*
X128585196Y-75838773D01*
X128579235Y-75862571D01*
X128570970Y-75885671D01*
X128560480Y-75907849D01*
X128547867Y-75928893D01*
X128533253Y-75948598D01*
X128516777Y-75966777D01*
X128498598Y-75983253D01*
X128478893Y-75997867D01*
X128457849Y-76010480D01*
X128435671Y-76020970D01*
X128412571Y-76029235D01*
X128388773Y-76035196D01*
X128364504Y-76038796D01*
X128340000Y-76040000D01*
X127240000Y-76040000D01*
X127215496Y-76038796D01*
X127191227Y-76035196D01*
X127167429Y-76029235D01*
X127144329Y-76020970D01*
X127122151Y-76010480D01*
X127101107Y-75997867D01*
X127081402Y-75983253D01*
X127063223Y-75966777D01*
X127046747Y-75948598D01*
X127032133Y-75928893D01*
X127019520Y-75907849D01*
X127009030Y-75885671D01*
X127000765Y-75862571D01*
X126994804Y-75838773D01*
X126991204Y-75814504D01*
X126990000Y-75790000D01*
X126990000Y-73690000D01*
X126991204Y-73665496D01*
X126994804Y-73641227D01*
X127000765Y-73617429D01*
X127009030Y-73594329D01*
X127019520Y-73572151D01*
X127032133Y-73551107D01*
X127046747Y-73531402D01*
X127063223Y-73513223D01*
X127081402Y-73496747D01*
X127101107Y-73482133D01*
X127122151Y-73469520D01*
X127144329Y-73459030D01*
X127167429Y-73450765D01*
X127191227Y-73444804D01*
X127215496Y-73441204D01*
X127240000Y-73440000D01*
X128340000Y-73440000D01*
X128364504Y-73441204D01*
X128364504Y-73441204D01*
G37*
D13*
X127790000Y-74740000D03*
M02*
