M48
; DRILL file {KiCad (5.1.4)-1} date 3/11/2020 4:56:23 PM
; FORMAT={-:-/ absolute / metric / decimal}
; #@! TF.CreationDate,2020-03-11T16:56:23-04:00
; #@! TF.GenerationSoftware,Kicad,Pcbnew,(5.1.4)-1
; #@! TF.FileFunction,Plated,1,2,PTH
FMAT,2
METRIC
T1C0.400
T2C1.000
T3C1.500
%
G90
G05
T1
X117.856Y-76.962
X119.888Y-78.486
X124.46Y-77.978
X127.762Y-78.486
T2
X116.35Y-64.895
X116.35Y-67.435
X116.35Y-69.975
X136.59Y-74.09
X136.59Y-76.63
T3
G00X123.46Y-65.51
M15
G01X124.46Y-65.51
M16
G05
G00X124.06Y-68.51
M15
G01X125.06Y-68.51
M16
G05
G00X127.41Y-65.51
M15
G01X128.41Y-65.51
M16
G05
G00X128.01Y-68.51
M15
G01X129.01Y-68.51
M16
G05
G00X131.36Y-65.51
M15
G01X132.36Y-65.51
M16
G05
G00X131.96Y-68.51
M15
G01X132.96Y-68.51
M16
G05
T0
M30
