G04 #@! TF.GenerationSoftware,KiCad,Pcbnew,(5.1.4)-1*
G04 #@! TF.CreationDate,2020-03-11T16:56:26-04:00*
G04 #@! TF.ProjectId,MicSwitchBoardElectret,4d696353-7769-4746-9368-426f61726445,rev?*
G04 #@! TF.SameCoordinates,Original*
G04 #@! TF.FileFunction,Copper,L1,Top*
G04 #@! TF.FilePolarity,Positive*
%FSLAX46Y46*%
G04 Gerber Fmt 4.6, Leading zero omitted, Abs format (unit mm)*
G04 Created by KiCad (PCBNEW (5.1.4)-1) date 2020-03-11 16:56:26*
%MOMM*%
%LPD*%
G04 APERTURE LIST*
%ADD10O,3.300000X2.300000*%
%ADD11O,1.700000X1.700000*%
%ADD12R,1.700000X1.700000*%
%ADD13C,0.800000*%
%ADD14C,0.635000*%
%ADD15C,0.254000*%
G04 APERTURE END LIST*
D10*
X132460000Y-68510000D03*
X131860000Y-65510000D03*
X128510000Y-68510000D03*
X127910000Y-65510000D03*
X124560000Y-68510000D03*
X123960000Y-65510000D03*
D11*
X136590000Y-74090000D03*
D12*
X136590000Y-76630000D03*
D11*
X116350000Y-64895000D03*
X116350000Y-67435000D03*
D12*
X116350000Y-69975000D03*
D13*
X127762000Y-78486000D03*
X124460000Y-77978000D03*
X119888000Y-78486000D03*
X117856000Y-76962000D03*
D14*
X127910000Y-67910000D02*
X128510000Y-68510000D01*
X127910000Y-65510000D02*
X127910000Y-67910000D01*
X131860000Y-67910000D02*
X132460000Y-68510000D01*
X131860000Y-65510000D02*
X131860000Y-67910000D01*
X123960000Y-67910000D02*
X124560000Y-68510000D01*
X123960000Y-65510000D02*
X123960000Y-67910000D01*
X123345000Y-64895000D02*
X123960000Y-65510000D01*
X116350000Y-64895000D02*
X123345000Y-64895000D01*
D15*
G36*
X120438320Y-62630273D02*
G01*
X120330147Y-62891426D01*
X120275000Y-63168665D01*
X120275000Y-63451335D01*
X120330147Y-63728574D01*
X120418758Y-63942500D01*
X117489364Y-63942500D01*
X117405134Y-63839866D01*
X117179014Y-63654294D01*
X116921034Y-63516401D01*
X116641111Y-63431487D01*
X116422950Y-63410000D01*
X116277050Y-63410000D01*
X116058889Y-63431487D01*
X115778966Y-63516401D01*
X115520986Y-63654294D01*
X115294866Y-63839866D01*
X115109294Y-64065986D01*
X114971401Y-64323966D01*
X114886487Y-64603889D01*
X114857815Y-64895000D01*
X114886487Y-65186111D01*
X114971401Y-65466034D01*
X115109294Y-65724014D01*
X115294866Y-65950134D01*
X115520986Y-66135706D01*
X115585523Y-66170201D01*
X115468645Y-66239822D01*
X115252412Y-66434731D01*
X115078359Y-66668080D01*
X114953175Y-66930901D01*
X114908524Y-67078110D01*
X115029845Y-67308000D01*
X116223000Y-67308000D01*
X116223000Y-67288000D01*
X116477000Y-67288000D01*
X116477000Y-67308000D01*
X117670155Y-67308000D01*
X117791476Y-67078110D01*
X117746825Y-66930901D01*
X117621641Y-66668080D01*
X117447588Y-66434731D01*
X117231355Y-66239822D01*
X117114477Y-66170201D01*
X117179014Y-66135706D01*
X117405134Y-65950134D01*
X117489364Y-65847500D01*
X121699605Y-65847500D01*
X121700828Y-65859921D01*
X121802896Y-66196395D01*
X121968646Y-66506491D01*
X122191708Y-66778292D01*
X122463509Y-67001354D01*
X122773605Y-67167104D01*
X122853195Y-67191247D01*
X122791708Y-67241708D01*
X122568646Y-67513509D01*
X122402896Y-67823605D01*
X122300828Y-68160079D01*
X122266364Y-68510000D01*
X122300828Y-68859921D01*
X122402896Y-69196395D01*
X122568646Y-69506491D01*
X122718573Y-69689177D01*
X122624759Y-69595363D01*
X122389727Y-69438320D01*
X122128574Y-69330147D01*
X121851335Y-69275000D01*
X121568665Y-69275000D01*
X121291426Y-69330147D01*
X121030273Y-69438320D01*
X120795241Y-69595363D01*
X120595363Y-69795241D01*
X120438320Y-70030273D01*
X120330147Y-70291426D01*
X120275000Y-70568665D01*
X120275000Y-70851335D01*
X120330147Y-71128574D01*
X120438320Y-71389727D01*
X120595363Y-71624759D01*
X120795241Y-71824637D01*
X121030273Y-71981680D01*
X121291426Y-72089853D01*
X121568665Y-72145000D01*
X121851335Y-72145000D01*
X122128574Y-72089853D01*
X122389727Y-71981680D01*
X122624759Y-71824637D01*
X122824637Y-71624759D01*
X122981680Y-71389727D01*
X123089853Y-71128574D01*
X123145000Y-70851335D01*
X123145000Y-70568665D01*
X123089853Y-70291426D01*
X122981680Y-70030273D01*
X122839543Y-69817549D01*
X123063509Y-70001354D01*
X123373605Y-70167104D01*
X123710079Y-70269172D01*
X123972317Y-70295000D01*
X125147683Y-70295000D01*
X125409921Y-70269172D01*
X125746395Y-70167104D01*
X126056491Y-70001354D01*
X126328292Y-69778292D01*
X126541742Y-69518203D01*
X126658011Y-69682383D01*
X126912710Y-69923616D01*
X127209577Y-70110524D01*
X127537204Y-70235925D01*
X127883000Y-70295000D01*
X128383000Y-70295000D01*
X128383000Y-68637000D01*
X128363000Y-68637000D01*
X128363000Y-68383000D01*
X128383000Y-68383000D01*
X128383000Y-68363000D01*
X128637000Y-68363000D01*
X128637000Y-68383000D01*
X128657000Y-68383000D01*
X128657000Y-68637000D01*
X128637000Y-68637000D01*
X128637000Y-70295000D01*
X129137000Y-70295000D01*
X129482796Y-70235925D01*
X129810423Y-70110524D01*
X130107290Y-69923616D01*
X130361989Y-69682383D01*
X130478258Y-69518203D01*
X130691708Y-69778292D01*
X130963509Y-70001354D01*
X131273605Y-70167104D01*
X131610079Y-70269172D01*
X131872317Y-70295000D01*
X133047683Y-70295000D01*
X133309921Y-70269172D01*
X133343596Y-70258957D01*
X133330147Y-70291426D01*
X133275000Y-70568665D01*
X133275000Y-70851335D01*
X133330147Y-71128574D01*
X133438320Y-71389727D01*
X133595363Y-71624759D01*
X133795241Y-71824637D01*
X134030273Y-71981680D01*
X134291426Y-72089853D01*
X134568665Y-72145000D01*
X134851335Y-72145000D01*
X135128574Y-72089853D01*
X135389727Y-71981680D01*
X135624759Y-71824637D01*
X135824637Y-71624759D01*
X135981680Y-71389727D01*
X136089853Y-71128574D01*
X136145000Y-70851335D01*
X136145000Y-70568665D01*
X136089853Y-70291426D01*
X135981680Y-70030273D01*
X135824637Y-69795241D01*
X135624759Y-69595363D01*
X135389727Y-69438320D01*
X135128574Y-69330147D01*
X134851335Y-69275000D01*
X134575089Y-69275000D01*
X134617104Y-69196395D01*
X134719172Y-68859921D01*
X134753636Y-68510000D01*
X134719172Y-68160079D01*
X134617104Y-67823605D01*
X134451354Y-67513509D01*
X134228292Y-67241708D01*
X133956491Y-67018646D01*
X133646395Y-66852896D01*
X133566805Y-66828753D01*
X133628292Y-66778292D01*
X133851354Y-66506491D01*
X134017104Y-66196395D01*
X134119172Y-65859921D01*
X134153636Y-65510000D01*
X134119172Y-65160079D01*
X134017104Y-64823605D01*
X133851354Y-64513509D01*
X133701427Y-64330823D01*
X133795241Y-64424637D01*
X134030273Y-64581680D01*
X134291426Y-64689853D01*
X134568665Y-64745000D01*
X134851335Y-64745000D01*
X135128574Y-64689853D01*
X135389727Y-64581680D01*
X135624759Y-64424637D01*
X135824637Y-64224759D01*
X135981680Y-63989727D01*
X136089853Y-63728574D01*
X136145000Y-63451335D01*
X136145000Y-63168665D01*
X136089853Y-62891426D01*
X135981680Y-62630273D01*
X135934725Y-62560000D01*
X137517721Y-62560000D01*
X137654270Y-62573389D01*
X137754573Y-62603672D01*
X137847080Y-62652859D01*
X137928273Y-62719079D01*
X137995057Y-62799808D01*
X138044888Y-62891967D01*
X138075871Y-62992056D01*
X138090001Y-63126494D01*
X138090000Y-78767720D01*
X138076611Y-78904269D01*
X138046327Y-79004575D01*
X137997142Y-79097080D01*
X137930921Y-79178274D01*
X137850195Y-79245056D01*
X137758031Y-79294889D01*
X137657945Y-79325871D01*
X137523515Y-79340000D01*
X115232280Y-79340000D01*
X115095731Y-79326611D01*
X114995425Y-79296327D01*
X114902920Y-79247142D01*
X114821726Y-79180921D01*
X114754944Y-79100195D01*
X114705111Y-79008031D01*
X114674129Y-78907945D01*
X114660000Y-78773515D01*
X114660000Y-77480000D01*
X135101928Y-77480000D01*
X135114188Y-77604482D01*
X135150498Y-77724180D01*
X135209463Y-77834494D01*
X135288815Y-77931185D01*
X135385506Y-78010537D01*
X135495820Y-78069502D01*
X135615518Y-78105812D01*
X135740000Y-78118072D01*
X136304250Y-78115000D01*
X136463000Y-77956250D01*
X136463000Y-76757000D01*
X136717000Y-76757000D01*
X136717000Y-77956250D01*
X136875750Y-78115000D01*
X137440000Y-78118072D01*
X137564482Y-78105812D01*
X137684180Y-78069502D01*
X137794494Y-78010537D01*
X137891185Y-77931185D01*
X137970537Y-77834494D01*
X138029502Y-77724180D01*
X138065812Y-77604482D01*
X138078072Y-77480000D01*
X138075000Y-76915750D01*
X137916250Y-76757000D01*
X136717000Y-76757000D01*
X136463000Y-76757000D01*
X135263750Y-76757000D01*
X135105000Y-76915750D01*
X135101928Y-77480000D01*
X114660000Y-77480000D01*
X114660000Y-74090000D01*
X135097815Y-74090000D01*
X135126487Y-74381111D01*
X135211401Y-74661034D01*
X135349294Y-74919014D01*
X135534866Y-75145134D01*
X135564687Y-75169607D01*
X135495820Y-75190498D01*
X135385506Y-75249463D01*
X135288815Y-75328815D01*
X135209463Y-75425506D01*
X135150498Y-75535820D01*
X135114188Y-75655518D01*
X135101928Y-75780000D01*
X135105000Y-76344250D01*
X135263750Y-76503000D01*
X136463000Y-76503000D01*
X136463000Y-76483000D01*
X136717000Y-76483000D01*
X136717000Y-76503000D01*
X137916250Y-76503000D01*
X138075000Y-76344250D01*
X138078072Y-75780000D01*
X138065812Y-75655518D01*
X138029502Y-75535820D01*
X137970537Y-75425506D01*
X137891185Y-75328815D01*
X137794494Y-75249463D01*
X137684180Y-75190498D01*
X137615313Y-75169607D01*
X137645134Y-75145134D01*
X137830706Y-74919014D01*
X137968599Y-74661034D01*
X138053513Y-74381111D01*
X138082185Y-74090000D01*
X138053513Y-73798889D01*
X137968599Y-73518966D01*
X137830706Y-73260986D01*
X137645134Y-73034866D01*
X137419014Y-72849294D01*
X137161034Y-72711401D01*
X136881111Y-72626487D01*
X136662950Y-72605000D01*
X136517050Y-72605000D01*
X136298889Y-72626487D01*
X136018966Y-72711401D01*
X135760986Y-72849294D01*
X135534866Y-73034866D01*
X135349294Y-73260986D01*
X135211401Y-73518966D01*
X135126487Y-73798889D01*
X135097815Y-74090000D01*
X114660000Y-74090000D01*
X114660000Y-69125000D01*
X114861928Y-69125000D01*
X114861928Y-70825000D01*
X114874188Y-70949482D01*
X114910498Y-71069180D01*
X114969463Y-71179494D01*
X115048815Y-71276185D01*
X115145506Y-71355537D01*
X115255820Y-71414502D01*
X115375518Y-71450812D01*
X115500000Y-71463072D01*
X117200000Y-71463072D01*
X117324482Y-71450812D01*
X117444180Y-71414502D01*
X117554494Y-71355537D01*
X117651185Y-71276185D01*
X117730537Y-71179494D01*
X117789502Y-71069180D01*
X117825812Y-70949482D01*
X117838072Y-70825000D01*
X117838072Y-69125000D01*
X117825812Y-69000518D01*
X117789502Y-68880820D01*
X117730537Y-68770506D01*
X117651185Y-68673815D01*
X117554494Y-68594463D01*
X117444180Y-68535498D01*
X117363534Y-68511034D01*
X117447588Y-68435269D01*
X117621641Y-68201920D01*
X117746825Y-67939099D01*
X117791476Y-67791890D01*
X117670155Y-67562000D01*
X116477000Y-67562000D01*
X116477000Y-67582000D01*
X116223000Y-67582000D01*
X116223000Y-67562000D01*
X115029845Y-67562000D01*
X114908524Y-67791890D01*
X114953175Y-67939099D01*
X115078359Y-68201920D01*
X115252412Y-68435269D01*
X115336466Y-68511034D01*
X115255820Y-68535498D01*
X115145506Y-68594463D01*
X115048815Y-68673815D01*
X114969463Y-68770506D01*
X114910498Y-68880820D01*
X114874188Y-69000518D01*
X114861928Y-69125000D01*
X114660000Y-69125000D01*
X114660000Y-63132279D01*
X114673389Y-62995730D01*
X114703672Y-62895427D01*
X114752859Y-62802920D01*
X114819079Y-62721727D01*
X114899808Y-62654943D01*
X114991967Y-62605112D01*
X115092056Y-62574129D01*
X115226485Y-62560000D01*
X120485275Y-62560000D01*
X120438320Y-62630273D01*
X120438320Y-62630273D01*
G37*
X120438320Y-62630273D02*
X120330147Y-62891426D01*
X120275000Y-63168665D01*
X120275000Y-63451335D01*
X120330147Y-63728574D01*
X120418758Y-63942500D01*
X117489364Y-63942500D01*
X117405134Y-63839866D01*
X117179014Y-63654294D01*
X116921034Y-63516401D01*
X116641111Y-63431487D01*
X116422950Y-63410000D01*
X116277050Y-63410000D01*
X116058889Y-63431487D01*
X115778966Y-63516401D01*
X115520986Y-63654294D01*
X115294866Y-63839866D01*
X115109294Y-64065986D01*
X114971401Y-64323966D01*
X114886487Y-64603889D01*
X114857815Y-64895000D01*
X114886487Y-65186111D01*
X114971401Y-65466034D01*
X115109294Y-65724014D01*
X115294866Y-65950134D01*
X115520986Y-66135706D01*
X115585523Y-66170201D01*
X115468645Y-66239822D01*
X115252412Y-66434731D01*
X115078359Y-66668080D01*
X114953175Y-66930901D01*
X114908524Y-67078110D01*
X115029845Y-67308000D01*
X116223000Y-67308000D01*
X116223000Y-67288000D01*
X116477000Y-67288000D01*
X116477000Y-67308000D01*
X117670155Y-67308000D01*
X117791476Y-67078110D01*
X117746825Y-66930901D01*
X117621641Y-66668080D01*
X117447588Y-66434731D01*
X117231355Y-66239822D01*
X117114477Y-66170201D01*
X117179014Y-66135706D01*
X117405134Y-65950134D01*
X117489364Y-65847500D01*
X121699605Y-65847500D01*
X121700828Y-65859921D01*
X121802896Y-66196395D01*
X121968646Y-66506491D01*
X122191708Y-66778292D01*
X122463509Y-67001354D01*
X122773605Y-67167104D01*
X122853195Y-67191247D01*
X122791708Y-67241708D01*
X122568646Y-67513509D01*
X122402896Y-67823605D01*
X122300828Y-68160079D01*
X122266364Y-68510000D01*
X122300828Y-68859921D01*
X122402896Y-69196395D01*
X122568646Y-69506491D01*
X122718573Y-69689177D01*
X122624759Y-69595363D01*
X122389727Y-69438320D01*
X122128574Y-69330147D01*
X121851335Y-69275000D01*
X121568665Y-69275000D01*
X121291426Y-69330147D01*
X121030273Y-69438320D01*
X120795241Y-69595363D01*
X120595363Y-69795241D01*
X120438320Y-70030273D01*
X120330147Y-70291426D01*
X120275000Y-70568665D01*
X120275000Y-70851335D01*
X120330147Y-71128574D01*
X120438320Y-71389727D01*
X120595363Y-71624759D01*
X120795241Y-71824637D01*
X121030273Y-71981680D01*
X121291426Y-72089853D01*
X121568665Y-72145000D01*
X121851335Y-72145000D01*
X122128574Y-72089853D01*
X122389727Y-71981680D01*
X122624759Y-71824637D01*
X122824637Y-71624759D01*
X122981680Y-71389727D01*
X123089853Y-71128574D01*
X123145000Y-70851335D01*
X123145000Y-70568665D01*
X123089853Y-70291426D01*
X122981680Y-70030273D01*
X122839543Y-69817549D01*
X123063509Y-70001354D01*
X123373605Y-70167104D01*
X123710079Y-70269172D01*
X123972317Y-70295000D01*
X125147683Y-70295000D01*
X125409921Y-70269172D01*
X125746395Y-70167104D01*
X126056491Y-70001354D01*
X126328292Y-69778292D01*
X126541742Y-69518203D01*
X126658011Y-69682383D01*
X126912710Y-69923616D01*
X127209577Y-70110524D01*
X127537204Y-70235925D01*
X127883000Y-70295000D01*
X128383000Y-70295000D01*
X128383000Y-68637000D01*
X128363000Y-68637000D01*
X128363000Y-68383000D01*
X128383000Y-68383000D01*
X128383000Y-68363000D01*
X128637000Y-68363000D01*
X128637000Y-68383000D01*
X128657000Y-68383000D01*
X128657000Y-68637000D01*
X128637000Y-68637000D01*
X128637000Y-70295000D01*
X129137000Y-70295000D01*
X129482796Y-70235925D01*
X129810423Y-70110524D01*
X130107290Y-69923616D01*
X130361989Y-69682383D01*
X130478258Y-69518203D01*
X130691708Y-69778292D01*
X130963509Y-70001354D01*
X131273605Y-70167104D01*
X131610079Y-70269172D01*
X131872317Y-70295000D01*
X133047683Y-70295000D01*
X133309921Y-70269172D01*
X133343596Y-70258957D01*
X133330147Y-70291426D01*
X133275000Y-70568665D01*
X133275000Y-70851335D01*
X133330147Y-71128574D01*
X133438320Y-71389727D01*
X133595363Y-71624759D01*
X133795241Y-71824637D01*
X134030273Y-71981680D01*
X134291426Y-72089853D01*
X134568665Y-72145000D01*
X134851335Y-72145000D01*
X135128574Y-72089853D01*
X135389727Y-71981680D01*
X135624759Y-71824637D01*
X135824637Y-71624759D01*
X135981680Y-71389727D01*
X136089853Y-71128574D01*
X136145000Y-70851335D01*
X136145000Y-70568665D01*
X136089853Y-70291426D01*
X135981680Y-70030273D01*
X135824637Y-69795241D01*
X135624759Y-69595363D01*
X135389727Y-69438320D01*
X135128574Y-69330147D01*
X134851335Y-69275000D01*
X134575089Y-69275000D01*
X134617104Y-69196395D01*
X134719172Y-68859921D01*
X134753636Y-68510000D01*
X134719172Y-68160079D01*
X134617104Y-67823605D01*
X134451354Y-67513509D01*
X134228292Y-67241708D01*
X133956491Y-67018646D01*
X133646395Y-66852896D01*
X133566805Y-66828753D01*
X133628292Y-66778292D01*
X133851354Y-66506491D01*
X134017104Y-66196395D01*
X134119172Y-65859921D01*
X134153636Y-65510000D01*
X134119172Y-65160079D01*
X134017104Y-64823605D01*
X133851354Y-64513509D01*
X133701427Y-64330823D01*
X133795241Y-64424637D01*
X134030273Y-64581680D01*
X134291426Y-64689853D01*
X134568665Y-64745000D01*
X134851335Y-64745000D01*
X135128574Y-64689853D01*
X135389727Y-64581680D01*
X135624759Y-64424637D01*
X135824637Y-64224759D01*
X135981680Y-63989727D01*
X136089853Y-63728574D01*
X136145000Y-63451335D01*
X136145000Y-63168665D01*
X136089853Y-62891426D01*
X135981680Y-62630273D01*
X135934725Y-62560000D01*
X137517721Y-62560000D01*
X137654270Y-62573389D01*
X137754573Y-62603672D01*
X137847080Y-62652859D01*
X137928273Y-62719079D01*
X137995057Y-62799808D01*
X138044888Y-62891967D01*
X138075871Y-62992056D01*
X138090001Y-63126494D01*
X138090000Y-78767720D01*
X138076611Y-78904269D01*
X138046327Y-79004575D01*
X137997142Y-79097080D01*
X137930921Y-79178274D01*
X137850195Y-79245056D01*
X137758031Y-79294889D01*
X137657945Y-79325871D01*
X137523515Y-79340000D01*
X115232280Y-79340000D01*
X115095731Y-79326611D01*
X114995425Y-79296327D01*
X114902920Y-79247142D01*
X114821726Y-79180921D01*
X114754944Y-79100195D01*
X114705111Y-79008031D01*
X114674129Y-78907945D01*
X114660000Y-78773515D01*
X114660000Y-77480000D01*
X135101928Y-77480000D01*
X135114188Y-77604482D01*
X135150498Y-77724180D01*
X135209463Y-77834494D01*
X135288815Y-77931185D01*
X135385506Y-78010537D01*
X135495820Y-78069502D01*
X135615518Y-78105812D01*
X135740000Y-78118072D01*
X136304250Y-78115000D01*
X136463000Y-77956250D01*
X136463000Y-76757000D01*
X136717000Y-76757000D01*
X136717000Y-77956250D01*
X136875750Y-78115000D01*
X137440000Y-78118072D01*
X137564482Y-78105812D01*
X137684180Y-78069502D01*
X137794494Y-78010537D01*
X137891185Y-77931185D01*
X137970537Y-77834494D01*
X138029502Y-77724180D01*
X138065812Y-77604482D01*
X138078072Y-77480000D01*
X138075000Y-76915750D01*
X137916250Y-76757000D01*
X136717000Y-76757000D01*
X136463000Y-76757000D01*
X135263750Y-76757000D01*
X135105000Y-76915750D01*
X135101928Y-77480000D01*
X114660000Y-77480000D01*
X114660000Y-74090000D01*
X135097815Y-74090000D01*
X135126487Y-74381111D01*
X135211401Y-74661034D01*
X135349294Y-74919014D01*
X135534866Y-75145134D01*
X135564687Y-75169607D01*
X135495820Y-75190498D01*
X135385506Y-75249463D01*
X135288815Y-75328815D01*
X135209463Y-75425506D01*
X135150498Y-75535820D01*
X135114188Y-75655518D01*
X135101928Y-75780000D01*
X135105000Y-76344250D01*
X135263750Y-76503000D01*
X136463000Y-76503000D01*
X136463000Y-76483000D01*
X136717000Y-76483000D01*
X136717000Y-76503000D01*
X137916250Y-76503000D01*
X138075000Y-76344250D01*
X138078072Y-75780000D01*
X138065812Y-75655518D01*
X138029502Y-75535820D01*
X137970537Y-75425506D01*
X137891185Y-75328815D01*
X137794494Y-75249463D01*
X137684180Y-75190498D01*
X137615313Y-75169607D01*
X137645134Y-75145134D01*
X137830706Y-74919014D01*
X137968599Y-74661034D01*
X138053513Y-74381111D01*
X138082185Y-74090000D01*
X138053513Y-73798889D01*
X137968599Y-73518966D01*
X137830706Y-73260986D01*
X137645134Y-73034866D01*
X137419014Y-72849294D01*
X137161034Y-72711401D01*
X136881111Y-72626487D01*
X136662950Y-72605000D01*
X136517050Y-72605000D01*
X136298889Y-72626487D01*
X136018966Y-72711401D01*
X135760986Y-72849294D01*
X135534866Y-73034866D01*
X135349294Y-73260986D01*
X135211401Y-73518966D01*
X135126487Y-73798889D01*
X135097815Y-74090000D01*
X114660000Y-74090000D01*
X114660000Y-69125000D01*
X114861928Y-69125000D01*
X114861928Y-70825000D01*
X114874188Y-70949482D01*
X114910498Y-71069180D01*
X114969463Y-71179494D01*
X115048815Y-71276185D01*
X115145506Y-71355537D01*
X115255820Y-71414502D01*
X115375518Y-71450812D01*
X115500000Y-71463072D01*
X117200000Y-71463072D01*
X117324482Y-71450812D01*
X117444180Y-71414502D01*
X117554494Y-71355537D01*
X117651185Y-71276185D01*
X117730537Y-71179494D01*
X117789502Y-71069180D01*
X117825812Y-70949482D01*
X117838072Y-70825000D01*
X117838072Y-69125000D01*
X117825812Y-69000518D01*
X117789502Y-68880820D01*
X117730537Y-68770506D01*
X117651185Y-68673815D01*
X117554494Y-68594463D01*
X117444180Y-68535498D01*
X117363534Y-68511034D01*
X117447588Y-68435269D01*
X117621641Y-68201920D01*
X117746825Y-67939099D01*
X117791476Y-67791890D01*
X117670155Y-67562000D01*
X116477000Y-67562000D01*
X116477000Y-67582000D01*
X116223000Y-67582000D01*
X116223000Y-67562000D01*
X115029845Y-67562000D01*
X114908524Y-67791890D01*
X114953175Y-67939099D01*
X115078359Y-68201920D01*
X115252412Y-68435269D01*
X115336466Y-68511034D01*
X115255820Y-68535498D01*
X115145506Y-68594463D01*
X115048815Y-68673815D01*
X114969463Y-68770506D01*
X114910498Y-68880820D01*
X114874188Y-69000518D01*
X114861928Y-69125000D01*
X114660000Y-69125000D01*
X114660000Y-63132279D01*
X114673389Y-62995730D01*
X114703672Y-62895427D01*
X114752859Y-62802920D01*
X114819079Y-62721727D01*
X114899808Y-62654943D01*
X114991967Y-62605112D01*
X115092056Y-62574129D01*
X115226485Y-62560000D01*
X120485275Y-62560000D01*
X120438320Y-62630273D01*
G36*
X133438320Y-62630273D02*
G01*
X133330147Y-62891426D01*
X133275000Y-63168665D01*
X133275000Y-63451335D01*
X133330147Y-63728574D01*
X133438320Y-63989727D01*
X133580457Y-64202451D01*
X133356491Y-64018646D01*
X133046395Y-63852896D01*
X132709921Y-63750828D01*
X132447683Y-63725000D01*
X131272317Y-63725000D01*
X131010079Y-63750828D01*
X130673605Y-63852896D01*
X130363509Y-64018646D01*
X130091708Y-64241708D01*
X129878258Y-64501797D01*
X129761989Y-64337617D01*
X129507290Y-64096384D01*
X129210423Y-63909476D01*
X128882796Y-63784075D01*
X128537000Y-63725000D01*
X128037000Y-63725000D01*
X128037000Y-65383000D01*
X128057000Y-65383000D01*
X128057000Y-65637000D01*
X128037000Y-65637000D01*
X128037000Y-65657000D01*
X127783000Y-65657000D01*
X127783000Y-65637000D01*
X127763000Y-65637000D01*
X127763000Y-65383000D01*
X127783000Y-65383000D01*
X127783000Y-63725000D01*
X127283000Y-63725000D01*
X126937204Y-63784075D01*
X126609577Y-63909476D01*
X126312710Y-64096384D01*
X126058011Y-64337617D01*
X125941742Y-64501797D01*
X125728292Y-64241708D01*
X125456491Y-64018646D01*
X125146395Y-63852896D01*
X124809921Y-63750828D01*
X124547683Y-63725000D01*
X123372317Y-63725000D01*
X123110079Y-63750828D01*
X123076404Y-63761043D01*
X123089853Y-63728574D01*
X123145000Y-63451335D01*
X123145000Y-63168665D01*
X123089853Y-62891426D01*
X122981680Y-62630273D01*
X122934725Y-62560000D01*
X133485275Y-62560000D01*
X133438320Y-62630273D01*
X133438320Y-62630273D01*
G37*
X133438320Y-62630273D02*
X133330147Y-62891426D01*
X133275000Y-63168665D01*
X133275000Y-63451335D01*
X133330147Y-63728574D01*
X133438320Y-63989727D01*
X133580457Y-64202451D01*
X133356491Y-64018646D01*
X133046395Y-63852896D01*
X132709921Y-63750828D01*
X132447683Y-63725000D01*
X131272317Y-63725000D01*
X131010079Y-63750828D01*
X130673605Y-63852896D01*
X130363509Y-64018646D01*
X130091708Y-64241708D01*
X129878258Y-64501797D01*
X129761989Y-64337617D01*
X129507290Y-64096384D01*
X129210423Y-63909476D01*
X128882796Y-63784075D01*
X128537000Y-63725000D01*
X128037000Y-63725000D01*
X128037000Y-65383000D01*
X128057000Y-65383000D01*
X128057000Y-65637000D01*
X128037000Y-65637000D01*
X128037000Y-65657000D01*
X127783000Y-65657000D01*
X127783000Y-65637000D01*
X127763000Y-65637000D01*
X127763000Y-65383000D01*
X127783000Y-65383000D01*
X127783000Y-63725000D01*
X127283000Y-63725000D01*
X126937204Y-63784075D01*
X126609577Y-63909476D01*
X126312710Y-64096384D01*
X126058011Y-64337617D01*
X125941742Y-64501797D01*
X125728292Y-64241708D01*
X125456491Y-64018646D01*
X125146395Y-63852896D01*
X124809921Y-63750828D01*
X124547683Y-63725000D01*
X123372317Y-63725000D01*
X123110079Y-63750828D01*
X123076404Y-63761043D01*
X123089853Y-63728574D01*
X123145000Y-63451335D01*
X123145000Y-63168665D01*
X123089853Y-62891426D01*
X122981680Y-62630273D01*
X122934725Y-62560000D01*
X133485275Y-62560000D01*
X133438320Y-62630273D01*
M02*
