G04 #@! TF.GenerationSoftware,KiCad,Pcbnew,(5.1.4)-1*
G04 #@! TF.CreationDate,2020-03-11T16:56:26-04:00*
G04 #@! TF.ProjectId,MicSwitchBoardElectret,4d696353-7769-4746-9368-426f61726445,rev?*
G04 #@! TF.SameCoordinates,Original*
G04 #@! TF.FileFunction,Soldermask,Top*
G04 #@! TF.FilePolarity,Negative*
%FSLAX46Y46*%
G04 Gerber Fmt 4.6, Leading zero omitted, Abs format (unit mm)*
G04 Created by KiCad (PCBNEW (5.1.4)-1) date 2020-03-11 16:56:26*
%MOMM*%
%LPD*%
G04 APERTURE LIST*
%ADD10C,0.100000*%
G04 APERTURE END LIST*
D10*
G36*
X137491000Y-77531000D02*
G01*
X135689000Y-77531000D01*
X135689000Y-75729000D01*
X137491000Y-75729000D01*
X137491000Y-77531000D01*
X137491000Y-77531000D01*
G37*
G36*
X136700443Y-73195519D02*
G01*
X136766627Y-73202037D01*
X136936466Y-73253557D01*
X137092991Y-73337222D01*
X137128729Y-73366552D01*
X137230186Y-73449814D01*
X137313448Y-73551271D01*
X137342778Y-73587009D01*
X137426443Y-73743534D01*
X137477963Y-73913373D01*
X137495359Y-74090000D01*
X137477963Y-74266627D01*
X137426443Y-74436466D01*
X137342778Y-74592991D01*
X137313448Y-74628729D01*
X137230186Y-74730186D01*
X137128729Y-74813448D01*
X137092991Y-74842778D01*
X136936466Y-74926443D01*
X136766627Y-74977963D01*
X136700442Y-74984482D01*
X136634260Y-74991000D01*
X136545740Y-74991000D01*
X136479558Y-74984482D01*
X136413373Y-74977963D01*
X136243534Y-74926443D01*
X136087009Y-74842778D01*
X136051271Y-74813448D01*
X135949814Y-74730186D01*
X135866552Y-74628729D01*
X135837222Y-74592991D01*
X135753557Y-74436466D01*
X135702037Y-74266627D01*
X135684641Y-74090000D01*
X135702037Y-73913373D01*
X135753557Y-73743534D01*
X135837222Y-73587009D01*
X135866552Y-73551271D01*
X135949814Y-73449814D01*
X136051271Y-73366552D01*
X136087009Y-73337222D01*
X136243534Y-73253557D01*
X136413373Y-73202037D01*
X136479557Y-73195519D01*
X136545740Y-73189000D01*
X136634260Y-73189000D01*
X136700443Y-73195519D01*
X136700443Y-73195519D01*
G37*
G36*
X121958228Y-69891703D02*
G01*
X122113100Y-69955853D01*
X122252481Y-70048985D01*
X122371015Y-70167519D01*
X122464147Y-70306900D01*
X122528297Y-70461772D01*
X122561000Y-70626184D01*
X122561000Y-70793816D01*
X122528297Y-70958228D01*
X122464147Y-71113100D01*
X122371015Y-71252481D01*
X122252481Y-71371015D01*
X122113100Y-71464147D01*
X121958228Y-71528297D01*
X121793816Y-71561000D01*
X121626184Y-71561000D01*
X121461772Y-71528297D01*
X121306900Y-71464147D01*
X121167519Y-71371015D01*
X121048985Y-71252481D01*
X120955853Y-71113100D01*
X120891703Y-70958228D01*
X120859000Y-70793816D01*
X120859000Y-70626184D01*
X120891703Y-70461772D01*
X120955853Y-70306900D01*
X121048985Y-70167519D01*
X121167519Y-70048985D01*
X121306900Y-69955853D01*
X121461772Y-69891703D01*
X121626184Y-69859000D01*
X121793816Y-69859000D01*
X121958228Y-69891703D01*
X121958228Y-69891703D01*
G37*
G36*
X134958228Y-69891703D02*
G01*
X135113100Y-69955853D01*
X135252481Y-70048985D01*
X135371015Y-70167519D01*
X135464147Y-70306900D01*
X135528297Y-70461772D01*
X135561000Y-70626184D01*
X135561000Y-70793816D01*
X135528297Y-70958228D01*
X135464147Y-71113100D01*
X135371015Y-71252481D01*
X135252481Y-71371015D01*
X135113100Y-71464147D01*
X134958228Y-71528297D01*
X134793816Y-71561000D01*
X134626184Y-71561000D01*
X134461772Y-71528297D01*
X134306900Y-71464147D01*
X134167519Y-71371015D01*
X134048985Y-71252481D01*
X133955853Y-71113100D01*
X133891703Y-70958228D01*
X133859000Y-70793816D01*
X133859000Y-70626184D01*
X133891703Y-70461772D01*
X133955853Y-70306900D01*
X134048985Y-70167519D01*
X134167519Y-70048985D01*
X134306900Y-69955853D01*
X134461772Y-69891703D01*
X134626184Y-69859000D01*
X134793816Y-69859000D01*
X134958228Y-69891703D01*
X134958228Y-69891703D01*
G37*
G36*
X117251000Y-70876000D02*
G01*
X115449000Y-70876000D01*
X115449000Y-69074000D01*
X117251000Y-69074000D01*
X117251000Y-70876000D01*
X117251000Y-70876000D01*
G37*
G36*
X125295437Y-67326378D02*
G01*
X125521827Y-67395052D01*
X125730468Y-67506573D01*
X125913344Y-67656656D01*
X126063427Y-67839532D01*
X126174948Y-68048173D01*
X126243622Y-68274563D01*
X126266811Y-68510000D01*
X126243622Y-68745437D01*
X126174948Y-68971827D01*
X126063427Y-69180468D01*
X125913344Y-69363344D01*
X125730468Y-69513427D01*
X125521827Y-69624948D01*
X125295437Y-69693622D01*
X125118999Y-69711000D01*
X124001001Y-69711000D01*
X123824563Y-69693622D01*
X123598173Y-69624948D01*
X123389532Y-69513427D01*
X123206656Y-69363344D01*
X123056573Y-69180468D01*
X122945052Y-68971827D01*
X122876378Y-68745437D01*
X122853189Y-68510000D01*
X122876378Y-68274563D01*
X122945052Y-68048173D01*
X123056573Y-67839532D01*
X123206656Y-67656656D01*
X123389532Y-67506573D01*
X123598173Y-67395052D01*
X123824563Y-67326378D01*
X124001001Y-67309000D01*
X125118999Y-67309000D01*
X125295437Y-67326378D01*
X125295437Y-67326378D01*
G37*
G36*
X129245437Y-67326378D02*
G01*
X129471827Y-67395052D01*
X129680468Y-67506573D01*
X129863344Y-67656656D01*
X130013427Y-67839532D01*
X130124948Y-68048173D01*
X130193622Y-68274563D01*
X130216811Y-68510000D01*
X130193622Y-68745437D01*
X130124948Y-68971827D01*
X130013427Y-69180468D01*
X129863344Y-69363344D01*
X129680468Y-69513427D01*
X129471827Y-69624948D01*
X129245437Y-69693622D01*
X129068999Y-69711000D01*
X127951001Y-69711000D01*
X127774563Y-69693622D01*
X127548173Y-69624948D01*
X127339532Y-69513427D01*
X127156656Y-69363344D01*
X127006573Y-69180468D01*
X126895052Y-68971827D01*
X126826378Y-68745437D01*
X126803189Y-68510000D01*
X126826378Y-68274563D01*
X126895052Y-68048173D01*
X127006573Y-67839532D01*
X127156656Y-67656656D01*
X127339532Y-67506573D01*
X127548173Y-67395052D01*
X127774563Y-67326378D01*
X127951001Y-67309000D01*
X129068999Y-67309000D01*
X129245437Y-67326378D01*
X129245437Y-67326378D01*
G37*
G36*
X133195437Y-67326378D02*
G01*
X133421827Y-67395052D01*
X133630468Y-67506573D01*
X133813344Y-67656656D01*
X133963427Y-67839532D01*
X134074948Y-68048173D01*
X134143622Y-68274563D01*
X134166811Y-68510000D01*
X134143622Y-68745437D01*
X134074948Y-68971827D01*
X133963427Y-69180468D01*
X133813344Y-69363344D01*
X133630468Y-69513427D01*
X133421827Y-69624948D01*
X133195437Y-69693622D01*
X133018999Y-69711000D01*
X131901001Y-69711000D01*
X131724563Y-69693622D01*
X131498173Y-69624948D01*
X131289532Y-69513427D01*
X131106656Y-69363344D01*
X130956573Y-69180468D01*
X130845052Y-68971827D01*
X130776378Y-68745437D01*
X130753189Y-68510000D01*
X130776378Y-68274563D01*
X130845052Y-68048173D01*
X130956573Y-67839532D01*
X131106656Y-67656656D01*
X131289532Y-67506573D01*
X131498173Y-67395052D01*
X131724563Y-67326378D01*
X131901001Y-67309000D01*
X133018999Y-67309000D01*
X133195437Y-67326378D01*
X133195437Y-67326378D01*
G37*
G36*
X116460442Y-66540518D02*
G01*
X116526627Y-66547037D01*
X116696466Y-66598557D01*
X116852991Y-66682222D01*
X116888057Y-66711000D01*
X116990186Y-66794814D01*
X117073448Y-66896271D01*
X117102778Y-66932009D01*
X117186443Y-67088534D01*
X117237963Y-67258373D01*
X117255359Y-67435000D01*
X117237963Y-67611627D01*
X117186443Y-67781466D01*
X117102778Y-67937991D01*
X117073448Y-67973729D01*
X116990186Y-68075186D01*
X116888729Y-68158448D01*
X116852991Y-68187778D01*
X116696466Y-68271443D01*
X116526627Y-68322963D01*
X116460442Y-68329482D01*
X116394260Y-68336000D01*
X116305740Y-68336000D01*
X116239558Y-68329482D01*
X116173373Y-68322963D01*
X116003534Y-68271443D01*
X115847009Y-68187778D01*
X115811271Y-68158448D01*
X115709814Y-68075186D01*
X115626552Y-67973729D01*
X115597222Y-67937991D01*
X115513557Y-67781466D01*
X115462037Y-67611627D01*
X115444641Y-67435000D01*
X115462037Y-67258373D01*
X115513557Y-67088534D01*
X115597222Y-66932009D01*
X115626552Y-66896271D01*
X115709814Y-66794814D01*
X115811943Y-66711000D01*
X115847009Y-66682222D01*
X116003534Y-66598557D01*
X116173373Y-66547037D01*
X116239558Y-66540518D01*
X116305740Y-66534000D01*
X116394260Y-66534000D01*
X116460442Y-66540518D01*
X116460442Y-66540518D01*
G37*
G36*
X132595437Y-64326378D02*
G01*
X132821827Y-64395052D01*
X133030468Y-64506573D01*
X133213344Y-64656656D01*
X133363427Y-64839532D01*
X133474948Y-65048173D01*
X133543622Y-65274563D01*
X133566811Y-65510000D01*
X133543622Y-65745437D01*
X133474948Y-65971827D01*
X133363427Y-66180468D01*
X133213344Y-66363344D01*
X133030468Y-66513427D01*
X132821827Y-66624948D01*
X132595437Y-66693622D01*
X132418999Y-66711000D01*
X131301001Y-66711000D01*
X131124563Y-66693622D01*
X130898173Y-66624948D01*
X130689532Y-66513427D01*
X130506656Y-66363344D01*
X130356573Y-66180468D01*
X130245052Y-65971827D01*
X130176378Y-65745437D01*
X130153189Y-65510000D01*
X130176378Y-65274563D01*
X130245052Y-65048173D01*
X130356573Y-64839532D01*
X130506656Y-64656656D01*
X130689532Y-64506573D01*
X130898173Y-64395052D01*
X131124563Y-64326378D01*
X131301001Y-64309000D01*
X132418999Y-64309000D01*
X132595437Y-64326378D01*
X132595437Y-64326378D01*
G37*
G36*
X124695437Y-64326378D02*
G01*
X124921827Y-64395052D01*
X125130468Y-64506573D01*
X125313344Y-64656656D01*
X125463427Y-64839532D01*
X125574948Y-65048173D01*
X125643622Y-65274563D01*
X125666811Y-65510000D01*
X125643622Y-65745437D01*
X125574948Y-65971827D01*
X125463427Y-66180468D01*
X125313344Y-66363344D01*
X125130468Y-66513427D01*
X124921827Y-66624948D01*
X124695437Y-66693622D01*
X124518999Y-66711000D01*
X123401001Y-66711000D01*
X123224563Y-66693622D01*
X122998173Y-66624948D01*
X122789532Y-66513427D01*
X122606656Y-66363344D01*
X122456573Y-66180468D01*
X122345052Y-65971827D01*
X122276378Y-65745437D01*
X122253189Y-65510000D01*
X122276378Y-65274563D01*
X122345052Y-65048173D01*
X122456573Y-64839532D01*
X122606656Y-64656656D01*
X122789532Y-64506573D01*
X122998173Y-64395052D01*
X123224563Y-64326378D01*
X123401001Y-64309000D01*
X124518999Y-64309000D01*
X124695437Y-64326378D01*
X124695437Y-64326378D01*
G37*
G36*
X128645437Y-64326378D02*
G01*
X128871827Y-64395052D01*
X129080468Y-64506573D01*
X129263344Y-64656656D01*
X129413427Y-64839532D01*
X129524948Y-65048173D01*
X129593622Y-65274563D01*
X129616811Y-65510000D01*
X129593622Y-65745437D01*
X129524948Y-65971827D01*
X129413427Y-66180468D01*
X129263344Y-66363344D01*
X129080468Y-66513427D01*
X128871827Y-66624948D01*
X128645437Y-66693622D01*
X128468999Y-66711000D01*
X127351001Y-66711000D01*
X127174563Y-66693622D01*
X126948173Y-66624948D01*
X126739532Y-66513427D01*
X126556656Y-66363344D01*
X126406573Y-66180468D01*
X126295052Y-65971827D01*
X126226378Y-65745437D01*
X126203189Y-65510000D01*
X126226378Y-65274563D01*
X126295052Y-65048173D01*
X126406573Y-64839532D01*
X126556656Y-64656656D01*
X126739532Y-64506573D01*
X126948173Y-64395052D01*
X127174563Y-64326378D01*
X127351001Y-64309000D01*
X128468999Y-64309000D01*
X128645437Y-64326378D01*
X128645437Y-64326378D01*
G37*
G36*
X116460442Y-64000518D02*
G01*
X116526627Y-64007037D01*
X116696466Y-64058557D01*
X116852991Y-64142222D01*
X116875872Y-64161000D01*
X116990186Y-64254814D01*
X117048916Y-64326378D01*
X117102778Y-64392009D01*
X117186443Y-64548534D01*
X117237963Y-64718373D01*
X117255359Y-64895000D01*
X117237963Y-65071627D01*
X117186443Y-65241466D01*
X117102778Y-65397991D01*
X117073448Y-65433729D01*
X116990186Y-65535186D01*
X116888729Y-65618448D01*
X116852991Y-65647778D01*
X116696466Y-65731443D01*
X116526627Y-65782963D01*
X116460443Y-65789481D01*
X116394260Y-65796000D01*
X116305740Y-65796000D01*
X116239557Y-65789481D01*
X116173373Y-65782963D01*
X116003534Y-65731443D01*
X115847009Y-65647778D01*
X115811271Y-65618448D01*
X115709814Y-65535186D01*
X115626552Y-65433729D01*
X115597222Y-65397991D01*
X115513557Y-65241466D01*
X115462037Y-65071627D01*
X115444641Y-64895000D01*
X115462037Y-64718373D01*
X115513557Y-64548534D01*
X115597222Y-64392009D01*
X115651084Y-64326378D01*
X115709814Y-64254814D01*
X115824128Y-64161000D01*
X115847009Y-64142222D01*
X116003534Y-64058557D01*
X116173373Y-64007037D01*
X116239558Y-64000518D01*
X116305740Y-63994000D01*
X116394260Y-63994000D01*
X116460442Y-64000518D01*
X116460442Y-64000518D01*
G37*
G36*
X121958228Y-62491703D02*
G01*
X122113100Y-62555853D01*
X122252481Y-62648985D01*
X122371015Y-62767519D01*
X122464147Y-62906900D01*
X122528297Y-63061772D01*
X122561000Y-63226184D01*
X122561000Y-63393816D01*
X122528297Y-63558228D01*
X122464147Y-63713100D01*
X122371015Y-63852481D01*
X122252481Y-63971015D01*
X122113100Y-64064147D01*
X121958228Y-64128297D01*
X121793816Y-64161000D01*
X121626184Y-64161000D01*
X121461772Y-64128297D01*
X121306900Y-64064147D01*
X121167519Y-63971015D01*
X121048985Y-63852481D01*
X120955853Y-63713100D01*
X120891703Y-63558228D01*
X120859000Y-63393816D01*
X120859000Y-63226184D01*
X120891703Y-63061772D01*
X120955853Y-62906900D01*
X121048985Y-62767519D01*
X121167519Y-62648985D01*
X121306900Y-62555853D01*
X121461772Y-62491703D01*
X121626184Y-62459000D01*
X121793816Y-62459000D01*
X121958228Y-62491703D01*
X121958228Y-62491703D01*
G37*
G36*
X134958228Y-62491703D02*
G01*
X135113100Y-62555853D01*
X135252481Y-62648985D01*
X135371015Y-62767519D01*
X135464147Y-62906900D01*
X135528297Y-63061772D01*
X135561000Y-63226184D01*
X135561000Y-63393816D01*
X135528297Y-63558228D01*
X135464147Y-63713100D01*
X135371015Y-63852481D01*
X135252481Y-63971015D01*
X135113100Y-64064147D01*
X134958228Y-64128297D01*
X134793816Y-64161000D01*
X134626184Y-64161000D01*
X134461772Y-64128297D01*
X134306900Y-64064147D01*
X134167519Y-63971015D01*
X134048985Y-63852481D01*
X133955853Y-63713100D01*
X133891703Y-63558228D01*
X133859000Y-63393816D01*
X133859000Y-63226184D01*
X133891703Y-63061772D01*
X133955853Y-62906900D01*
X134048985Y-62767519D01*
X134167519Y-62648985D01*
X134306900Y-62555853D01*
X134461772Y-62491703D01*
X134626184Y-62459000D01*
X134793816Y-62459000D01*
X134958228Y-62491703D01*
X134958228Y-62491703D01*
G37*
M02*
