G04 #@! TF.GenerationSoftware,KiCad,Pcbnew,(5.1.4)-1*
G04 #@! TF.CreationDate,2020-02-13T15:41:24-05:00*
G04 #@! TF.ProjectId,PowerFilter,506f7765-7246-4696-9c74-65722e6b6963,rev?*
G04 #@! TF.SameCoordinates,Original*
G04 #@! TF.FileFunction,Legend,Bot*
G04 #@! TF.FilePolarity,Positive*
%FSLAX46Y46*%
G04 Gerber Fmt 4.6, Leading zero omitted, Abs format (unit mm)*
G04 Created by KiCad (PCBNEW (5.1.4)-1) date 2020-02-13 15:41:24*
%MOMM*%
%LPD*%
G04 APERTURE LIST*
%ADD10C,0.150000*%
G04 APERTURE END LIST*
D10*
X124821428Y-61107142D02*
X124869047Y-61154761D01*
X125011904Y-61202380D01*
X125107142Y-61202380D01*
X125250000Y-61154761D01*
X125345238Y-61059523D01*
X125392857Y-60964285D01*
X125440476Y-60773809D01*
X125440476Y-60630952D01*
X125392857Y-60440476D01*
X125345238Y-60345238D01*
X125250000Y-60250000D01*
X125107142Y-60202380D01*
X125011904Y-60202380D01*
X124869047Y-60250000D01*
X124821428Y-60297619D01*
X123964285Y-61202380D02*
X123964285Y-60678571D01*
X124011904Y-60583333D01*
X124107142Y-60535714D01*
X124297619Y-60535714D01*
X124392857Y-60583333D01*
X123964285Y-61154761D02*
X124059523Y-61202380D01*
X124297619Y-61202380D01*
X124392857Y-61154761D01*
X124440476Y-61059523D01*
X124440476Y-60964285D01*
X124392857Y-60869047D01*
X124297619Y-60821428D01*
X124059523Y-60821428D01*
X123964285Y-60773809D01*
X123488095Y-60535714D02*
X123488095Y-61535714D01*
X123488095Y-60583333D02*
X123392857Y-60535714D01*
X123202380Y-60535714D01*
X123107142Y-60583333D01*
X123059523Y-60630952D01*
X123011904Y-60726190D01*
X123011904Y-61011904D01*
X123059523Y-61107142D01*
X123107142Y-61154761D01*
X123202380Y-61202380D01*
X123392857Y-61202380D01*
X123488095Y-61154761D01*
X122583333Y-61107142D02*
X122535714Y-61154761D01*
X122583333Y-61202380D01*
X122630952Y-61154761D01*
X122583333Y-61107142D01*
X122583333Y-61202380D01*
X122583333Y-60583333D02*
X122535714Y-60630952D01*
X122583333Y-60678571D01*
X122630952Y-60630952D01*
X122583333Y-60583333D01*
X122583333Y-60678571D01*
X121488095Y-60202380D02*
X120916666Y-60202380D01*
X121202380Y-61202380D02*
X121202380Y-60202380D01*
X120583333Y-61202380D02*
X120583333Y-60202380D01*
X120345238Y-60202380D01*
X120202380Y-60250000D01*
X120107142Y-60345238D01*
X120059523Y-60440476D01*
X120011904Y-60630952D01*
X120011904Y-60773809D01*
X120059523Y-60964285D01*
X120107142Y-61059523D01*
X120202380Y-61154761D01*
X120345238Y-61202380D01*
X120583333Y-61202380D01*
X119583333Y-61202380D02*
X119583333Y-60202380D01*
X119011904Y-61202380D02*
X119440476Y-60630952D01*
X119011904Y-60202380D02*
X119583333Y-60773809D01*
X117297619Y-61202380D02*
X117869047Y-61202380D01*
X117583333Y-61202380D02*
X117583333Y-60202380D01*
X117678571Y-60345238D01*
X117773809Y-60440476D01*
X117869047Y-60488095D01*
X116678571Y-60202380D02*
X116583333Y-60202380D01*
X116488095Y-60250000D01*
X116440476Y-60297619D01*
X116392857Y-60392857D01*
X116345238Y-60583333D01*
X116345238Y-60821428D01*
X116392857Y-61011904D01*
X116440476Y-61107142D01*
X116488095Y-61154761D01*
X116583333Y-61202380D01*
X116678571Y-61202380D01*
X116773809Y-61154761D01*
X116821428Y-61107142D01*
X116869047Y-61011904D01*
X116916666Y-60821428D01*
X116916666Y-60583333D01*
X116869047Y-60392857D01*
X116821428Y-60297619D01*
X116773809Y-60250000D01*
X116678571Y-60202380D01*
X115726190Y-60202380D02*
X115630952Y-60202380D01*
X115535714Y-60250000D01*
X115488095Y-60297619D01*
X115440476Y-60392857D01*
X115392857Y-60583333D01*
X115392857Y-60821428D01*
X115440476Y-61011904D01*
X115488095Y-61107142D01*
X115535714Y-61154761D01*
X115630952Y-61202380D01*
X115726190Y-61202380D01*
X115821428Y-61154761D01*
X115869047Y-61107142D01*
X115916666Y-61011904D01*
X115964285Y-60821428D01*
X115964285Y-60583333D01*
X115916666Y-60392857D01*
X115869047Y-60297619D01*
X115821428Y-60250000D01*
X115726190Y-60202380D01*
X114773809Y-60202380D02*
X114678571Y-60202380D01*
X114583333Y-60250000D01*
X114535714Y-60297619D01*
X114488095Y-60392857D01*
X114440476Y-60583333D01*
X114440476Y-60821428D01*
X114488095Y-61011904D01*
X114535714Y-61107142D01*
X114583333Y-61154761D01*
X114678571Y-61202380D01*
X114773809Y-61202380D01*
X114869047Y-61154761D01*
X114916666Y-61107142D01*
X114964285Y-61011904D01*
X115011904Y-60821428D01*
X115011904Y-60583333D01*
X114964285Y-60392857D01*
X114916666Y-60297619D01*
X114869047Y-60250000D01*
X114773809Y-60202380D01*
X113821428Y-60202380D02*
X113726190Y-60202380D01*
X113630952Y-60250000D01*
X113583333Y-60297619D01*
X113535714Y-60392857D01*
X113488095Y-60583333D01*
X113488095Y-60821428D01*
X113535714Y-61011904D01*
X113583333Y-61107142D01*
X113630952Y-61154761D01*
X113726190Y-61202380D01*
X113821428Y-61202380D01*
X113916666Y-61154761D01*
X113964285Y-61107142D01*
X114011904Y-61011904D01*
X114059523Y-60821428D01*
X114059523Y-60583333D01*
X114011904Y-60392857D01*
X113964285Y-60297619D01*
X113916666Y-60250000D01*
X113821428Y-60202380D01*
X113059523Y-60202380D02*
X113059523Y-61011904D01*
X113011904Y-61107142D01*
X112964285Y-61154761D01*
X112869047Y-61202380D01*
X112678571Y-61202380D01*
X112583333Y-61154761D01*
X112535714Y-61107142D01*
X112488095Y-61011904D01*
X112488095Y-60202380D01*
X111678571Y-60678571D02*
X112011904Y-60678571D01*
X112011904Y-61202380D02*
X112011904Y-60202380D01*
X111535714Y-60202380D01*
X110488095Y-60202380D02*
X109869047Y-60202380D01*
X110202380Y-60583333D01*
X110059523Y-60583333D01*
X109964285Y-60630952D01*
X109916666Y-60678571D01*
X109869047Y-60773809D01*
X109869047Y-61011904D01*
X109916666Y-61107142D01*
X109964285Y-61154761D01*
X110059523Y-61202380D01*
X110345238Y-61202380D01*
X110440476Y-61154761D01*
X110488095Y-61107142D01*
X108964285Y-60202380D02*
X109440476Y-60202380D01*
X109488095Y-60678571D01*
X109440476Y-60630952D01*
X109345238Y-60583333D01*
X109107142Y-60583333D01*
X109011904Y-60630952D01*
X108964285Y-60678571D01*
X108916666Y-60773809D01*
X108916666Y-61011904D01*
X108964285Y-61107142D01*
X109011904Y-61154761D01*
X109107142Y-61202380D01*
X109345238Y-61202380D01*
X109440476Y-61154761D01*
X109488095Y-61107142D01*
X108630952Y-60202380D02*
X108297619Y-61202380D01*
X107964285Y-60202380D01*
X125369047Y-59202380D02*
X125369047Y-58202380D01*
X124892857Y-58535714D02*
X124892857Y-59202380D01*
X124892857Y-58630952D02*
X124845238Y-58583333D01*
X124750000Y-58535714D01*
X124607142Y-58535714D01*
X124511904Y-58583333D01*
X124464285Y-58678571D01*
X124464285Y-59202380D01*
X123559523Y-59202380D02*
X123559523Y-58202380D01*
X123559523Y-59154761D02*
X123654761Y-59202380D01*
X123845238Y-59202380D01*
X123940476Y-59154761D01*
X123988095Y-59107142D01*
X124035714Y-59011904D01*
X124035714Y-58726190D01*
X123988095Y-58630952D01*
X123940476Y-58583333D01*
X123845238Y-58535714D01*
X123654761Y-58535714D01*
X123559523Y-58583333D01*
X122654761Y-58535714D02*
X122654761Y-59202380D01*
X123083333Y-58535714D02*
X123083333Y-59059523D01*
X123035714Y-59154761D01*
X122940476Y-59202380D01*
X122797619Y-59202380D01*
X122702380Y-59154761D01*
X122654761Y-59107142D01*
X121750000Y-59154761D02*
X121845238Y-59202380D01*
X122035714Y-59202380D01*
X122130952Y-59154761D01*
X122178571Y-59107142D01*
X122226190Y-59011904D01*
X122226190Y-58726190D01*
X122178571Y-58630952D01*
X122130952Y-58583333D01*
X122035714Y-58535714D01*
X121845238Y-58535714D01*
X121750000Y-58583333D01*
X121464285Y-58535714D02*
X121083333Y-58535714D01*
X121321428Y-58202380D02*
X121321428Y-59059523D01*
X121273809Y-59154761D01*
X121178571Y-59202380D01*
X121083333Y-59202380D01*
X120607142Y-59202380D02*
X120702380Y-59154761D01*
X120750000Y-59107142D01*
X120797619Y-59011904D01*
X120797619Y-58726190D01*
X120750000Y-58630952D01*
X120702380Y-58583333D01*
X120607142Y-58535714D01*
X120464285Y-58535714D01*
X120369047Y-58583333D01*
X120321428Y-58630952D01*
X120273809Y-58726190D01*
X120273809Y-59011904D01*
X120321428Y-59107142D01*
X120369047Y-59154761D01*
X120464285Y-59202380D01*
X120607142Y-59202380D01*
X119845238Y-59202380D02*
X119845238Y-58535714D01*
X119845238Y-58726190D02*
X119797619Y-58630952D01*
X119750000Y-58583333D01*
X119654761Y-58535714D01*
X119559523Y-58535714D01*
X119226190Y-59107142D02*
X119178571Y-59154761D01*
X119226190Y-59202380D01*
X119273809Y-59154761D01*
X119226190Y-59107142D01*
X119226190Y-59202380D01*
X119226190Y-58583333D02*
X119178571Y-58630952D01*
X119226190Y-58678571D01*
X119273809Y-58630952D01*
X119226190Y-58583333D01*
X119226190Y-58678571D01*
X117988095Y-59202380D02*
X117988095Y-58202380D01*
X117654761Y-58916666D01*
X117321428Y-58202380D01*
X117321428Y-59202380D01*
X116416666Y-58535714D02*
X116416666Y-59202380D01*
X116845238Y-58535714D02*
X116845238Y-59059523D01*
X116797619Y-59154761D01*
X116702380Y-59202380D01*
X116559523Y-59202380D01*
X116464285Y-59154761D01*
X116416666Y-59107142D01*
X115940476Y-59202380D02*
X115940476Y-58535714D01*
X115940476Y-58726190D02*
X115892857Y-58630952D01*
X115845238Y-58583333D01*
X115750000Y-58535714D01*
X115654761Y-58535714D01*
X114892857Y-59202380D02*
X114892857Y-58678571D01*
X114940476Y-58583333D01*
X115035714Y-58535714D01*
X115226190Y-58535714D01*
X115321428Y-58583333D01*
X114892857Y-59154761D02*
X114988095Y-59202380D01*
X115226190Y-59202380D01*
X115321428Y-59154761D01*
X115369047Y-59059523D01*
X115369047Y-58964285D01*
X115321428Y-58869047D01*
X115226190Y-58821428D01*
X114988095Y-58821428D01*
X114892857Y-58773809D01*
X114559523Y-58535714D02*
X114178571Y-58535714D01*
X114416666Y-58202380D02*
X114416666Y-59059523D01*
X114369047Y-59154761D01*
X114273809Y-59202380D01*
X114178571Y-59202380D01*
X113416666Y-59202380D02*
X113416666Y-58678571D01*
X113464285Y-58583333D01*
X113559523Y-58535714D01*
X113750000Y-58535714D01*
X113845238Y-58583333D01*
X113416666Y-59154761D02*
X113511904Y-59202380D01*
X113750000Y-59202380D01*
X113845238Y-59154761D01*
X113892857Y-59059523D01*
X113892857Y-58964285D01*
X113845238Y-58869047D01*
X113750000Y-58821428D01*
X113511904Y-58821428D01*
X113416666Y-58773809D01*
X111654761Y-59202380D02*
X112226190Y-59202380D01*
X111940476Y-59202380D02*
X111940476Y-58202380D01*
X112035714Y-58345238D01*
X112130952Y-58440476D01*
X112226190Y-58488095D01*
X110797619Y-58535714D02*
X110797619Y-59202380D01*
X111035714Y-58154761D02*
X111273809Y-58869047D01*
X110654761Y-58869047D01*
X109750000Y-59202380D02*
X110321428Y-59202380D01*
X110035714Y-59202380D02*
X110035714Y-58202380D01*
X110130952Y-58345238D01*
X110226190Y-58440476D01*
X110321428Y-58488095D01*
X109130952Y-58202380D02*
X109035714Y-58202380D01*
X108940476Y-58250000D01*
X108892857Y-58297619D01*
X108845238Y-58392857D01*
X108797619Y-58583333D01*
X108797619Y-58821428D01*
X108845238Y-59011904D01*
X108892857Y-59107142D01*
X108940476Y-59154761D01*
X109035714Y-59202380D01*
X109130952Y-59202380D01*
X109226190Y-59154761D01*
X109273809Y-59107142D01*
X109321428Y-59011904D01*
X109369047Y-58821428D01*
X109369047Y-58583333D01*
X109321428Y-58392857D01*
X109273809Y-58297619D01*
X109226190Y-58250000D01*
X109130952Y-58202380D01*
X107940476Y-58202380D02*
X108130952Y-58202380D01*
X108226190Y-58250000D01*
X108273809Y-58297619D01*
X108369047Y-58440476D01*
X108416666Y-58630952D01*
X108416666Y-59011904D01*
X108369047Y-59107142D01*
X108321428Y-59154761D01*
X108226190Y-59202380D01*
X108035714Y-59202380D01*
X107940476Y-59154761D01*
X107892857Y-59107142D01*
X107845238Y-59011904D01*
X107845238Y-58773809D01*
X107892857Y-58678571D01*
X107940476Y-58630952D01*
X108035714Y-58583333D01*
X108226190Y-58583333D01*
X108321428Y-58630952D01*
X108369047Y-58678571D01*
X108416666Y-58773809D01*
X107226190Y-58202380D02*
X107130952Y-58202380D01*
X107035714Y-58250000D01*
X106988095Y-58297619D01*
X106940476Y-58392857D01*
X106892857Y-58583333D01*
X106892857Y-58821428D01*
X106940476Y-59011904D01*
X106988095Y-59107142D01*
X107035714Y-59154761D01*
X107130952Y-59202380D01*
X107226190Y-59202380D01*
X107321428Y-59154761D01*
X107369047Y-59107142D01*
X107416666Y-59011904D01*
X107464285Y-58821428D01*
X107464285Y-58583333D01*
X107416666Y-58392857D01*
X107369047Y-58297619D01*
X107321428Y-58250000D01*
X107226190Y-58202380D01*
X106035714Y-58202380D02*
X106226190Y-58202380D01*
X106321428Y-58250000D01*
X106369047Y-58297619D01*
X106464285Y-58440476D01*
X106511904Y-58630952D01*
X106511904Y-59011904D01*
X106464285Y-59107142D01*
X106416666Y-59154761D01*
X106321428Y-59202380D01*
X106130952Y-59202380D01*
X106035714Y-59154761D01*
X105988095Y-59107142D01*
X105940476Y-59011904D01*
X105940476Y-58773809D01*
X105988095Y-58678571D01*
X106035714Y-58630952D01*
X106130952Y-58583333D01*
X106321428Y-58583333D01*
X106416666Y-58630952D01*
X106464285Y-58678571D01*
X106511904Y-58773809D01*
X104940476Y-59107142D02*
X104988095Y-59154761D01*
X105130952Y-59202380D01*
X105226190Y-59202380D01*
X105369047Y-59154761D01*
X105464285Y-59059523D01*
X105511904Y-58964285D01*
X105559523Y-58773809D01*
X105559523Y-58630952D01*
X105511904Y-58440476D01*
X105464285Y-58345238D01*
X105369047Y-58250000D01*
X105226190Y-58202380D01*
X105130952Y-58202380D01*
X104988095Y-58250000D01*
X104940476Y-58297619D01*
X103226190Y-59202380D02*
X103797619Y-59202380D01*
X103511904Y-59202380D02*
X103511904Y-58202380D01*
X103607142Y-58345238D01*
X103702380Y-58440476D01*
X103797619Y-58488095D01*
X102607142Y-58202380D02*
X102511904Y-58202380D01*
X102416666Y-58250000D01*
X102369047Y-58297619D01*
X102321428Y-58392857D01*
X102273809Y-58583333D01*
X102273809Y-58821428D01*
X102321428Y-59011904D01*
X102369047Y-59107142D01*
X102416666Y-59154761D01*
X102511904Y-59202380D01*
X102607142Y-59202380D01*
X102702380Y-59154761D01*
X102750000Y-59107142D01*
X102797619Y-59011904D01*
X102845238Y-58821428D01*
X102845238Y-58583333D01*
X102797619Y-58392857D01*
X102750000Y-58297619D01*
X102702380Y-58250000D01*
X102607142Y-58202380D01*
X101845238Y-59202380D02*
X101845238Y-58535714D01*
X101845238Y-58630952D02*
X101797619Y-58583333D01*
X101702380Y-58535714D01*
X101559523Y-58535714D01*
X101464285Y-58583333D01*
X101416666Y-58678571D01*
X101416666Y-59202380D01*
X101416666Y-58678571D02*
X101369047Y-58583333D01*
X101273809Y-58535714D01*
X101130952Y-58535714D01*
X101035714Y-58583333D01*
X100988095Y-58678571D01*
X100988095Y-59202380D01*
X100511904Y-59202380D02*
X100511904Y-58202380D01*
X100511904Y-58678571D02*
X99940476Y-58678571D01*
X99940476Y-59202380D02*
X99940476Y-58202380D01*
X98702380Y-58821428D02*
X97940476Y-58821428D01*
X96273809Y-58202380D02*
X96464285Y-58202380D01*
X96559523Y-58250000D01*
X96607142Y-58297619D01*
X96702380Y-58440476D01*
X96750000Y-58630952D01*
X96750000Y-59011904D01*
X96702380Y-59107142D01*
X96654761Y-59154761D01*
X96559523Y-59202380D01*
X96369047Y-59202380D01*
X96273809Y-59154761D01*
X96226190Y-59107142D01*
X96178571Y-59011904D01*
X96178571Y-58773809D01*
X96226190Y-58678571D01*
X96273809Y-58630952D01*
X96369047Y-58583333D01*
X96559523Y-58583333D01*
X96654761Y-58630952D01*
X96702380Y-58678571D01*
X96750000Y-58773809D01*
X95559523Y-58202380D02*
X95464285Y-58202380D01*
X95369047Y-58250000D01*
X95321428Y-58297619D01*
X95273809Y-58392857D01*
X95226190Y-58583333D01*
X95226190Y-58821428D01*
X95273809Y-59011904D01*
X95321428Y-59107142D01*
X95369047Y-59154761D01*
X95464285Y-59202380D01*
X95559523Y-59202380D01*
X95654761Y-59154761D01*
X95702380Y-59107142D01*
X95750000Y-59011904D01*
X95797619Y-58821428D01*
X95797619Y-58583333D01*
X95750000Y-58392857D01*
X95702380Y-58297619D01*
X95654761Y-58250000D01*
X95559523Y-58202380D01*
X94607142Y-58202380D02*
X94511904Y-58202380D01*
X94416666Y-58250000D01*
X94369047Y-58297619D01*
X94321428Y-58392857D01*
X94273809Y-58583333D01*
X94273809Y-58821428D01*
X94321428Y-59011904D01*
X94369047Y-59107142D01*
X94416666Y-59154761D01*
X94511904Y-59202380D01*
X94607142Y-59202380D01*
X94702380Y-59154761D01*
X94750000Y-59107142D01*
X94797619Y-59011904D01*
X94845238Y-58821428D01*
X94845238Y-58583333D01*
X94797619Y-58392857D01*
X94750000Y-58297619D01*
X94702380Y-58250000D01*
X94607142Y-58202380D01*
X93845238Y-59202380D02*
X93845238Y-58535714D01*
X93845238Y-58630952D02*
X93797619Y-58583333D01*
X93702380Y-58535714D01*
X93559523Y-58535714D01*
X93464285Y-58583333D01*
X93416666Y-58678571D01*
X93416666Y-59202380D01*
X93416666Y-58678571D02*
X93369047Y-58583333D01*
X93273809Y-58535714D01*
X93130952Y-58535714D01*
X93035714Y-58583333D01*
X92988095Y-58678571D01*
X92988095Y-59202380D01*
X92559523Y-58916666D02*
X92083333Y-58916666D01*
X92654761Y-59202380D02*
X92321428Y-58202380D01*
X91988095Y-59202380D01*
X124619047Y-56857142D02*
X124666666Y-56904761D01*
X124809523Y-56952380D01*
X124904761Y-56952380D01*
X125047619Y-56904761D01*
X125142857Y-56809523D01*
X125190476Y-56714285D01*
X125238095Y-56523809D01*
X125238095Y-56380952D01*
X125190476Y-56190476D01*
X125142857Y-56095238D01*
X125047619Y-56000000D01*
X124904761Y-55952380D01*
X124809523Y-55952380D01*
X124666666Y-56000000D01*
X124619047Y-56047619D01*
X124190476Y-56952380D02*
X124190476Y-55952380D01*
X123809523Y-55952380D01*
X123714285Y-56000000D01*
X123666666Y-56047619D01*
X123619047Y-56142857D01*
X123619047Y-56285714D01*
X123666666Y-56380952D01*
X123714285Y-56428571D01*
X123809523Y-56476190D01*
X124190476Y-56476190D01*
X122428571Y-56952380D02*
X122428571Y-55952380D01*
X122047619Y-55952380D01*
X121952380Y-56000000D01*
X121904761Y-56047619D01*
X121857142Y-56142857D01*
X121857142Y-56285714D01*
X121904761Y-56380952D01*
X121952380Y-56428571D01*
X122047619Y-56476190D01*
X122428571Y-56476190D01*
X121285714Y-56952380D02*
X121380952Y-56904761D01*
X121428571Y-56857142D01*
X121476190Y-56761904D01*
X121476190Y-56476190D01*
X121428571Y-56380952D01*
X121380952Y-56333333D01*
X121285714Y-56285714D01*
X121142857Y-56285714D01*
X121047619Y-56333333D01*
X121000000Y-56380952D01*
X120952380Y-56476190D01*
X120952380Y-56761904D01*
X121000000Y-56857142D01*
X121047619Y-56904761D01*
X121142857Y-56952380D01*
X121285714Y-56952380D01*
X120619047Y-56285714D02*
X120428571Y-56952380D01*
X120238095Y-56476190D01*
X120047619Y-56952380D01*
X119857142Y-56285714D01*
X119095238Y-56904761D02*
X119190476Y-56952380D01*
X119380952Y-56952380D01*
X119476190Y-56904761D01*
X119523809Y-56809523D01*
X119523809Y-56428571D01*
X119476190Y-56333333D01*
X119380952Y-56285714D01*
X119190476Y-56285714D01*
X119095238Y-56333333D01*
X119047619Y-56428571D01*
X119047619Y-56523809D01*
X119523809Y-56619047D01*
X118619047Y-56952380D02*
X118619047Y-56285714D01*
X118619047Y-56476190D02*
X118571428Y-56380952D01*
X118523809Y-56333333D01*
X118428571Y-56285714D01*
X118333333Y-56285714D01*
X116904761Y-56428571D02*
X117238095Y-56428571D01*
X117238095Y-56952380D02*
X117238095Y-55952380D01*
X116761904Y-55952380D01*
X116380952Y-56952380D02*
X116380952Y-56285714D01*
X116380952Y-55952380D02*
X116428571Y-56000000D01*
X116380952Y-56047619D01*
X116333333Y-56000000D01*
X116380952Y-55952380D01*
X116380952Y-56047619D01*
X115761904Y-56952380D02*
X115857142Y-56904761D01*
X115904761Y-56809523D01*
X115904761Y-55952380D01*
X115523809Y-56285714D02*
X115142857Y-56285714D01*
X115380952Y-55952380D02*
X115380952Y-56809523D01*
X115333333Y-56904761D01*
X115238095Y-56952380D01*
X115142857Y-56952380D01*
X114428571Y-56904761D02*
X114523809Y-56952380D01*
X114714285Y-56952380D01*
X114809523Y-56904761D01*
X114857142Y-56809523D01*
X114857142Y-56428571D01*
X114809523Y-56333333D01*
X114714285Y-56285714D01*
X114523809Y-56285714D01*
X114428571Y-56333333D01*
X114380952Y-56428571D01*
X114380952Y-56523809D01*
X114857142Y-56619047D01*
X113952380Y-56952380D02*
X113952380Y-56285714D01*
X113952380Y-56476190D02*
X113904761Y-56380952D01*
X113857142Y-56333333D01*
X113761904Y-56285714D01*
X113666666Y-56285714D01*
M02*
