G04 #@! TF.GenerationSoftware,KiCad,Pcbnew,(5.1.4)-1*
G04 #@! TF.CreationDate,2020-02-13T15:41:24-05:00*
G04 #@! TF.ProjectId,PowerFilter,506f7765-7246-4696-9c74-65722e6b6963,rev?*
G04 #@! TF.SameCoordinates,Original*
G04 #@! TF.FileFunction,Legend,Top*
G04 #@! TF.FilePolarity,Positive*
%FSLAX46Y46*%
G04 Gerber Fmt 4.6, Leading zero omitted, Abs format (unit mm)*
G04 Created by KiCad (PCBNEW (5.1.4)-1) date 2020-02-13 15:41:24*
%MOMM*%
%LPD*%
G04 APERTURE LIST*
%ADD10C,0.150000*%
%ADD11C,0.152400*%
%ADD12C,0.120000*%
G04 APERTURE END LIST*
D10*
X132750000Y-58452380D02*
X132940476Y-58452380D01*
X133035714Y-58500000D01*
X133130952Y-58595238D01*
X133178571Y-58785714D01*
X133178571Y-59119047D01*
X133130952Y-59309523D01*
X133035714Y-59404761D01*
X132940476Y-59452380D01*
X132750000Y-59452380D01*
X132654761Y-59404761D01*
X132559523Y-59309523D01*
X132511904Y-59119047D01*
X132511904Y-58785714D01*
X132559523Y-58595238D01*
X132654761Y-58500000D01*
X132750000Y-58452380D01*
X133607142Y-58452380D02*
X133607142Y-59261904D01*
X133654761Y-59357142D01*
X133702380Y-59404761D01*
X133797619Y-59452380D01*
X133988095Y-59452380D01*
X134083333Y-59404761D01*
X134130952Y-59357142D01*
X134178571Y-59261904D01*
X134178571Y-58452380D01*
X134511904Y-58452380D02*
X135083333Y-58452380D01*
X134797619Y-59452380D02*
X134797619Y-58452380D01*
X64976190Y-59452380D02*
X64976190Y-58452380D01*
X65452380Y-59452380D02*
X65452380Y-58452380D01*
X66023809Y-59452380D01*
X66023809Y-58452380D01*
D11*
X90679703Y-70250000D02*
G75*
G03X90679703Y-70250000I-2679700J0D01*
G01*
X86413076Y-55309945D02*
G75*
G03X88000003Y-85274100I1586927J-14940055D01*
G01*
X86413104Y-55309942D02*
G75*
G03X88000003Y-85274100I1586899J-14940058D01*
G01*
X72099006Y-69615000D02*
X72099006Y-70885000D01*
X71464006Y-70250000D02*
X72655266Y-70250000D01*
D12*
X129370000Y-78315000D02*
X147330000Y-78315000D01*
X129370000Y-62795000D02*
X129370000Y-78315000D01*
X129370000Y-62795000D02*
X147330000Y-62795000D01*
X147330000Y-78315000D02*
X147330000Y-62795000D01*
X133250000Y-78500000D02*
X132750000Y-79000000D01*
X132750000Y-79000000D02*
X133750000Y-79000000D01*
X133750000Y-79000000D02*
X133250000Y-78500000D01*
X71480000Y-62685000D02*
X53520000Y-62685000D01*
X71480000Y-78205000D02*
X71480000Y-62685000D01*
X71480000Y-78205000D02*
X53520000Y-78205000D01*
X53520000Y-62685000D02*
X53520000Y-78205000D01*
X67600000Y-62500000D02*
X68100000Y-62000000D01*
X68100000Y-62000000D02*
X67100000Y-62000000D01*
X67100000Y-62000000D02*
X67600000Y-62500000D01*
X123835000Y-59450663D02*
X121635000Y-59450663D01*
X122735000Y-58350663D02*
X122735000Y-60550663D01*
X116540000Y-81370000D02*
X116460000Y-81370000D01*
X117403000Y-81330000D02*
X115597000Y-81330000D01*
X117792000Y-81290000D02*
X115208000Y-81290000D01*
X118090000Y-81250000D02*
X114910000Y-81250000D01*
X118340000Y-81210000D02*
X114660000Y-81210000D01*
X118560000Y-81170000D02*
X114440000Y-81170000D01*
X118758000Y-81130000D02*
X114242000Y-81130000D01*
X118940000Y-81090000D02*
X114060000Y-81090000D01*
X119109000Y-81050000D02*
X113891000Y-81050000D01*
X119267000Y-81010000D02*
X113733000Y-81010000D01*
X119416000Y-80970000D02*
X113584000Y-80970000D01*
X119558000Y-80930000D02*
X113442000Y-80930000D01*
X119692000Y-80890000D02*
X113308000Y-80890000D01*
X119821000Y-80850000D02*
X113179000Y-80850000D01*
X119945000Y-80810000D02*
X113055000Y-80810000D01*
X120064000Y-80770000D02*
X112936000Y-80770000D01*
X120179000Y-80730000D02*
X112821000Y-80730000D01*
X120289000Y-80690000D02*
X112711000Y-80690000D01*
X120397000Y-80650000D02*
X112603000Y-80650000D01*
X120501000Y-80610000D02*
X112499000Y-80610000D01*
X120602000Y-80570000D02*
X112398000Y-80570000D01*
X120700000Y-80530000D02*
X112300000Y-80530000D01*
X120796000Y-80490000D02*
X112204000Y-80490000D01*
X120889000Y-80450000D02*
X112111000Y-80450000D01*
X120980000Y-80410000D02*
X112020000Y-80410000D01*
X121069000Y-80370000D02*
X111931000Y-80370000D01*
X121156000Y-80330000D02*
X111844000Y-80330000D01*
X121241000Y-80290000D02*
X111759000Y-80290000D01*
X121324000Y-80250000D02*
X111676000Y-80250000D01*
X121405000Y-80210000D02*
X111595000Y-80210000D01*
X121485000Y-80170000D02*
X111515000Y-80170000D01*
X121563000Y-80130000D02*
X111437000Y-80130000D01*
X121640000Y-80090000D02*
X111360000Y-80090000D01*
X121715000Y-80050000D02*
X111285000Y-80050000D01*
X121789000Y-80010000D02*
X111211000Y-80010000D01*
X121862000Y-79970000D02*
X111138000Y-79970000D01*
X121933000Y-79930000D02*
X111067000Y-79930000D01*
X122003000Y-79890000D02*
X110997000Y-79890000D01*
X122072000Y-79850000D02*
X110928000Y-79850000D01*
X122140000Y-79810000D02*
X110860000Y-79810000D01*
X122207000Y-79770000D02*
X110793000Y-79770000D01*
X122273000Y-79730000D02*
X110727000Y-79730000D01*
X122338000Y-79690000D02*
X110662000Y-79690000D01*
X122401000Y-79650000D02*
X110599000Y-79650000D01*
X122464000Y-79610000D02*
X110536000Y-79610000D01*
X122526000Y-79570000D02*
X110474000Y-79570000D01*
X122587000Y-79530000D02*
X110413000Y-79530000D01*
X122647000Y-79490000D02*
X110353000Y-79490000D01*
X122707000Y-79450000D02*
X110293000Y-79450000D01*
X122765000Y-79410000D02*
X110235000Y-79410000D01*
X122823000Y-79370000D02*
X110177000Y-79370000D01*
X122880000Y-79330000D02*
X110120000Y-79330000D01*
X122936000Y-79290000D02*
X110064000Y-79290000D01*
X122992000Y-79250000D02*
X110008000Y-79250000D01*
X123046000Y-79210000D02*
X109954000Y-79210000D01*
X123100000Y-79170000D02*
X109900000Y-79170000D01*
X123154000Y-79130000D02*
X109846000Y-79130000D01*
X123207000Y-79090000D02*
X109793000Y-79090000D01*
X123259000Y-79050000D02*
X109741000Y-79050000D01*
X123310000Y-79010000D02*
X109690000Y-79010000D01*
X123361000Y-78970000D02*
X109639000Y-78970000D01*
X123411000Y-78930000D02*
X109589000Y-78930000D01*
X123461000Y-78890000D02*
X109539000Y-78890000D01*
X123510000Y-78850000D02*
X109490000Y-78850000D01*
X123558000Y-78810000D02*
X109442000Y-78810000D01*
X123606000Y-78770000D02*
X109394000Y-78770000D01*
X123654000Y-78730000D02*
X109346000Y-78730000D01*
X123701000Y-78690000D02*
X109299000Y-78690000D01*
X123747000Y-78650000D02*
X109253000Y-78650000D01*
X123793000Y-78610000D02*
X109207000Y-78610000D01*
X123838000Y-78570000D02*
X109162000Y-78570000D01*
X123883000Y-78530000D02*
X109117000Y-78530000D01*
X123928000Y-78490000D02*
X109072000Y-78490000D01*
X123971000Y-78450000D02*
X109029000Y-78450000D01*
X124015000Y-78411000D02*
X108985000Y-78411000D01*
X124058000Y-78371000D02*
X108942000Y-78371000D01*
X124100000Y-78331000D02*
X108900000Y-78331000D01*
X124142000Y-78291000D02*
X108858000Y-78291000D01*
X124184000Y-78251000D02*
X108816000Y-78251000D01*
X124225000Y-78211000D02*
X108775000Y-78211000D01*
X124266000Y-78171000D02*
X108734000Y-78171000D01*
X124307000Y-78131000D02*
X108693000Y-78131000D01*
X124346000Y-78091000D02*
X108654000Y-78091000D01*
X124386000Y-78051000D02*
X108614000Y-78051000D01*
X124425000Y-78011000D02*
X108575000Y-78011000D01*
X124464000Y-77971000D02*
X108536000Y-77971000D01*
X124502000Y-77931000D02*
X108498000Y-77931000D01*
X124540000Y-77891000D02*
X108460000Y-77891000D01*
X124578000Y-77851000D02*
X108422000Y-77851000D01*
X124615000Y-77811000D02*
X108385000Y-77811000D01*
X124652000Y-77771000D02*
X108348000Y-77771000D01*
X124689000Y-77731000D02*
X108311000Y-77731000D01*
X124725000Y-77691000D02*
X108275000Y-77691000D01*
X124761000Y-77651000D02*
X108239000Y-77651000D01*
X124796000Y-77611000D02*
X108204000Y-77611000D01*
X124831000Y-77571000D02*
X108169000Y-77571000D01*
X124866000Y-77531000D02*
X108134000Y-77531000D01*
X124901000Y-77491000D02*
X108099000Y-77491000D01*
X114260000Y-77451000D02*
X108065000Y-77451000D01*
X124935000Y-77451000D02*
X118740000Y-77451000D01*
X114260000Y-77411000D02*
X108031000Y-77411000D01*
X124969000Y-77411000D02*
X118740000Y-77411000D01*
X114260000Y-77371000D02*
X107998000Y-77371000D01*
X125002000Y-77371000D02*
X118740000Y-77371000D01*
X114260000Y-77331000D02*
X107965000Y-77331000D01*
X125035000Y-77331000D02*
X118740000Y-77331000D01*
X114260000Y-77291000D02*
X107932000Y-77291000D01*
X125068000Y-77291000D02*
X118740000Y-77291000D01*
X114260000Y-77251000D02*
X107899000Y-77251000D01*
X125101000Y-77251000D02*
X118740000Y-77251000D01*
X114260000Y-77211000D02*
X107867000Y-77211000D01*
X125133000Y-77211000D02*
X118740000Y-77211000D01*
X114260000Y-77171000D02*
X107835000Y-77171000D01*
X125165000Y-77171000D02*
X118740000Y-77171000D01*
X114260000Y-77131000D02*
X107803000Y-77131000D01*
X125197000Y-77131000D02*
X118740000Y-77131000D01*
X114260000Y-77091000D02*
X107772000Y-77091000D01*
X125228000Y-77091000D02*
X118740000Y-77091000D01*
X114260000Y-77051000D02*
X107741000Y-77051000D01*
X125259000Y-77051000D02*
X118740000Y-77051000D01*
X114260000Y-77011000D02*
X107710000Y-77011000D01*
X125290000Y-77011000D02*
X118740000Y-77011000D01*
X114260000Y-76971000D02*
X107680000Y-76971000D01*
X125320000Y-76971000D02*
X118740000Y-76971000D01*
X114260000Y-76931000D02*
X107650000Y-76931000D01*
X125350000Y-76931000D02*
X118740000Y-76931000D01*
X114260000Y-76891000D02*
X107620000Y-76891000D01*
X125380000Y-76891000D02*
X118740000Y-76891000D01*
X114260000Y-76851000D02*
X107590000Y-76851000D01*
X125410000Y-76851000D02*
X118740000Y-76851000D01*
X114260000Y-76811000D02*
X107561000Y-76811000D01*
X125439000Y-76811000D02*
X118740000Y-76811000D01*
X114260000Y-76771000D02*
X107532000Y-76771000D01*
X125468000Y-76771000D02*
X118740000Y-76771000D01*
X114260000Y-76731000D02*
X107503000Y-76731000D01*
X125497000Y-76731000D02*
X118740000Y-76731000D01*
X114260000Y-76691000D02*
X107474000Y-76691000D01*
X125526000Y-76691000D02*
X118740000Y-76691000D01*
X114260000Y-76651000D02*
X107446000Y-76651000D01*
X125554000Y-76651000D02*
X118740000Y-76651000D01*
X114260000Y-76611000D02*
X107418000Y-76611000D01*
X125582000Y-76611000D02*
X118740000Y-76611000D01*
X114260000Y-76571000D02*
X107390000Y-76571000D01*
X125610000Y-76571000D02*
X118740000Y-76571000D01*
X114260000Y-76531000D02*
X107363000Y-76531000D01*
X125637000Y-76531000D02*
X118740000Y-76531000D01*
X114260000Y-76491000D02*
X107335000Y-76491000D01*
X125665000Y-76491000D02*
X118740000Y-76491000D01*
X114260000Y-76451000D02*
X107308000Y-76451000D01*
X125692000Y-76451000D02*
X118740000Y-76451000D01*
X114260000Y-76411000D02*
X107282000Y-76411000D01*
X125718000Y-76411000D02*
X118740000Y-76411000D01*
X114260000Y-76371000D02*
X107255000Y-76371000D01*
X125745000Y-76371000D02*
X118740000Y-76371000D01*
X114260000Y-76331000D02*
X107229000Y-76331000D01*
X125771000Y-76331000D02*
X118740000Y-76331000D01*
X114260000Y-76291000D02*
X107203000Y-76291000D01*
X125797000Y-76291000D02*
X118740000Y-76291000D01*
X114260000Y-76251000D02*
X107177000Y-76251000D01*
X125823000Y-76251000D02*
X118740000Y-76251000D01*
X114260000Y-76211000D02*
X107152000Y-76211000D01*
X125848000Y-76211000D02*
X118740000Y-76211000D01*
X114260000Y-76171000D02*
X107126000Y-76171000D01*
X125874000Y-76171000D02*
X118740000Y-76171000D01*
X114260000Y-76131000D02*
X107101000Y-76131000D01*
X125899000Y-76131000D02*
X118740000Y-76131000D01*
X114260000Y-76091000D02*
X107076000Y-76091000D01*
X125924000Y-76091000D02*
X118740000Y-76091000D01*
X114260000Y-76051000D02*
X107052000Y-76051000D01*
X125948000Y-76051000D02*
X118740000Y-76051000D01*
X114260000Y-76011000D02*
X107028000Y-76011000D01*
X125972000Y-76011000D02*
X118740000Y-76011000D01*
X114260000Y-75971000D02*
X107003000Y-75971000D01*
X125997000Y-75971000D02*
X118740000Y-75971000D01*
X114260000Y-75931000D02*
X106980000Y-75931000D01*
X126020000Y-75931000D02*
X118740000Y-75931000D01*
X114260000Y-75891000D02*
X106956000Y-75891000D01*
X126044000Y-75891000D02*
X118740000Y-75891000D01*
X114260000Y-75851000D02*
X106933000Y-75851000D01*
X126067000Y-75851000D02*
X118740000Y-75851000D01*
X114260000Y-75811000D02*
X106909000Y-75811000D01*
X126091000Y-75811000D02*
X118740000Y-75811000D01*
X114260000Y-75771000D02*
X106886000Y-75771000D01*
X126114000Y-75771000D02*
X118740000Y-75771000D01*
X114260000Y-75731000D02*
X106864000Y-75731000D01*
X126136000Y-75731000D02*
X118740000Y-75731000D01*
X114260000Y-75691000D02*
X106841000Y-75691000D01*
X126159000Y-75691000D02*
X118740000Y-75691000D01*
X114260000Y-75651000D02*
X106819000Y-75651000D01*
X126181000Y-75651000D02*
X118740000Y-75651000D01*
X114260000Y-75611000D02*
X106797000Y-75611000D01*
X126203000Y-75611000D02*
X118740000Y-75611000D01*
X114260000Y-75571000D02*
X106775000Y-75571000D01*
X126225000Y-75571000D02*
X118740000Y-75571000D01*
X114260000Y-75531000D02*
X106753000Y-75531000D01*
X126247000Y-75531000D02*
X118740000Y-75531000D01*
X114260000Y-75491000D02*
X106732000Y-75491000D01*
X126268000Y-75491000D02*
X118740000Y-75491000D01*
X114260000Y-75451000D02*
X106710000Y-75451000D01*
X126290000Y-75451000D02*
X118740000Y-75451000D01*
X114260000Y-75411000D02*
X106689000Y-75411000D01*
X126311000Y-75411000D02*
X118740000Y-75411000D01*
X114260000Y-75371000D02*
X106668000Y-75371000D01*
X126332000Y-75371000D02*
X118740000Y-75371000D01*
X114260000Y-75331000D02*
X106648000Y-75331000D01*
X126352000Y-75331000D02*
X118740000Y-75331000D01*
X114260000Y-75291000D02*
X106627000Y-75291000D01*
X126373000Y-75291000D02*
X118740000Y-75291000D01*
X114260000Y-75251000D02*
X106607000Y-75251000D01*
X126393000Y-75251000D02*
X118740000Y-75251000D01*
X114260000Y-75211000D02*
X106587000Y-75211000D01*
X126413000Y-75211000D02*
X118740000Y-75211000D01*
X114260000Y-75171000D02*
X106567000Y-75171000D01*
X126433000Y-75171000D02*
X118740000Y-75171000D01*
X114260000Y-75131000D02*
X106548000Y-75131000D01*
X126452000Y-75131000D02*
X118740000Y-75131000D01*
X114260000Y-75091000D02*
X106528000Y-75091000D01*
X126472000Y-75091000D02*
X118740000Y-75091000D01*
X114260000Y-75051000D02*
X106509000Y-75051000D01*
X126491000Y-75051000D02*
X118740000Y-75051000D01*
X114260000Y-75011000D02*
X106490000Y-75011000D01*
X126510000Y-75011000D02*
X118740000Y-75011000D01*
X114260000Y-74971000D02*
X106471000Y-74971000D01*
X126529000Y-74971000D02*
X118740000Y-74971000D01*
X114260000Y-74931000D02*
X106452000Y-74931000D01*
X126548000Y-74931000D02*
X118740000Y-74931000D01*
X114260000Y-74891000D02*
X106434000Y-74891000D01*
X126566000Y-74891000D02*
X118740000Y-74891000D01*
X114260000Y-74851000D02*
X106416000Y-74851000D01*
X126584000Y-74851000D02*
X118740000Y-74851000D01*
X114260000Y-74811000D02*
X106397000Y-74811000D01*
X126603000Y-74811000D02*
X118740000Y-74811000D01*
X114260000Y-74771000D02*
X106380000Y-74771000D01*
X126620000Y-74771000D02*
X118740000Y-74771000D01*
X114260000Y-74731000D02*
X106362000Y-74731000D01*
X126638000Y-74731000D02*
X118740000Y-74731000D01*
X114260000Y-74691000D02*
X106344000Y-74691000D01*
X126656000Y-74691000D02*
X118740000Y-74691000D01*
X114260000Y-74651000D02*
X106327000Y-74651000D01*
X126673000Y-74651000D02*
X118740000Y-74651000D01*
X114260000Y-74611000D02*
X106310000Y-74611000D01*
X126690000Y-74611000D02*
X118740000Y-74611000D01*
X114260000Y-74571000D02*
X106293000Y-74571000D01*
X126707000Y-74571000D02*
X118740000Y-74571000D01*
X114260000Y-74531000D02*
X106276000Y-74531000D01*
X126724000Y-74531000D02*
X118740000Y-74531000D01*
X114260000Y-74491000D02*
X106260000Y-74491000D01*
X126740000Y-74491000D02*
X118740000Y-74491000D01*
X114260000Y-74451000D02*
X106243000Y-74451000D01*
X126757000Y-74451000D02*
X118740000Y-74451000D01*
X114260000Y-74411000D02*
X106227000Y-74411000D01*
X126773000Y-74411000D02*
X118740000Y-74411000D01*
X114260000Y-74371000D02*
X106211000Y-74371000D01*
X126789000Y-74371000D02*
X118740000Y-74371000D01*
X114260000Y-74331000D02*
X106195000Y-74331000D01*
X126805000Y-74331000D02*
X118740000Y-74331000D01*
X114260000Y-74291000D02*
X106179000Y-74291000D01*
X126821000Y-74291000D02*
X118740000Y-74291000D01*
X114260000Y-74251000D02*
X106164000Y-74251000D01*
X126836000Y-74251000D02*
X118740000Y-74251000D01*
X114260000Y-74211000D02*
X106149000Y-74211000D01*
X126851000Y-74211000D02*
X118740000Y-74211000D01*
X114260000Y-74171000D02*
X106133000Y-74171000D01*
X126867000Y-74171000D02*
X118740000Y-74171000D01*
X114260000Y-74131000D02*
X106118000Y-74131000D01*
X126882000Y-74131000D02*
X118740000Y-74131000D01*
X114260000Y-74091000D02*
X106104000Y-74091000D01*
X126896000Y-74091000D02*
X118740000Y-74091000D01*
X114260000Y-74051000D02*
X106089000Y-74051000D01*
X126911000Y-74051000D02*
X118740000Y-74051000D01*
X114260000Y-74011000D02*
X106074000Y-74011000D01*
X126926000Y-74011000D02*
X118740000Y-74011000D01*
X114260000Y-73971000D02*
X106060000Y-73971000D01*
X126940000Y-73971000D02*
X118740000Y-73971000D01*
X114260000Y-73931000D02*
X106046000Y-73931000D01*
X126954000Y-73931000D02*
X118740000Y-73931000D01*
X114260000Y-73891000D02*
X106032000Y-73891000D01*
X126968000Y-73891000D02*
X118740000Y-73891000D01*
X114260000Y-73851000D02*
X106018000Y-73851000D01*
X126982000Y-73851000D02*
X118740000Y-73851000D01*
X114260000Y-73811000D02*
X106005000Y-73811000D01*
X126995000Y-73811000D02*
X118740000Y-73811000D01*
X114260000Y-73771000D02*
X105991000Y-73771000D01*
X127009000Y-73771000D02*
X118740000Y-73771000D01*
X114260000Y-73731000D02*
X105978000Y-73731000D01*
X127022000Y-73731000D02*
X118740000Y-73731000D01*
X114260000Y-73691000D02*
X105965000Y-73691000D01*
X127035000Y-73691000D02*
X118740000Y-73691000D01*
X114260000Y-73651000D02*
X105952000Y-73651000D01*
X127048000Y-73651000D02*
X118740000Y-73651000D01*
X114260000Y-73611000D02*
X105939000Y-73611000D01*
X127061000Y-73611000D02*
X118740000Y-73611000D01*
X114260000Y-73571000D02*
X105927000Y-73571000D01*
X127073000Y-73571000D02*
X118740000Y-73571000D01*
X114260000Y-73531000D02*
X105914000Y-73531000D01*
X127086000Y-73531000D02*
X118740000Y-73531000D01*
X114260000Y-73491000D02*
X105902000Y-73491000D01*
X127098000Y-73491000D02*
X118740000Y-73491000D01*
X114260000Y-73451000D02*
X105890000Y-73451000D01*
X127110000Y-73451000D02*
X118740000Y-73451000D01*
X114260000Y-73411000D02*
X105878000Y-73411000D01*
X127122000Y-73411000D02*
X118740000Y-73411000D01*
X114260000Y-73371000D02*
X105866000Y-73371000D01*
X127134000Y-73371000D02*
X118740000Y-73371000D01*
X114260000Y-73331000D02*
X105855000Y-73331000D01*
X127145000Y-73331000D02*
X118740000Y-73331000D01*
X114260000Y-73291000D02*
X105843000Y-73291000D01*
X127157000Y-73291000D02*
X118740000Y-73291000D01*
X114260000Y-73251000D02*
X105832000Y-73251000D01*
X127168000Y-73251000D02*
X118740000Y-73251000D01*
X114260000Y-73211000D02*
X105821000Y-73211000D01*
X127179000Y-73211000D02*
X118740000Y-73211000D01*
X114260000Y-73171000D02*
X105810000Y-73171000D01*
X127190000Y-73171000D02*
X118740000Y-73171000D01*
X114260000Y-73131000D02*
X105799000Y-73131000D01*
X127201000Y-73131000D02*
X118740000Y-73131000D01*
X114260000Y-73091000D02*
X105788000Y-73091000D01*
X127212000Y-73091000D02*
X118740000Y-73091000D01*
X114260000Y-73051000D02*
X105778000Y-73051000D01*
X127222000Y-73051000D02*
X118740000Y-73051000D01*
X114260000Y-73011000D02*
X105767000Y-73011000D01*
X127233000Y-73011000D02*
X118740000Y-73011000D01*
X127243000Y-72971000D02*
X105757000Y-72971000D01*
X127253000Y-72931000D02*
X105747000Y-72931000D01*
X127263000Y-72891000D02*
X105737000Y-72891000D01*
X127272000Y-72851000D02*
X105728000Y-72851000D01*
X127282000Y-72811000D02*
X105718000Y-72811000D01*
X127291000Y-72771000D02*
X105709000Y-72771000D01*
X127300000Y-72731000D02*
X105700000Y-72731000D01*
X127309000Y-72691000D02*
X105691000Y-72691000D01*
X127318000Y-72651000D02*
X105682000Y-72651000D01*
X127327000Y-72611000D02*
X105673000Y-72611000D01*
X127336000Y-72571000D02*
X105664000Y-72571000D01*
X127344000Y-72531000D02*
X105656000Y-72531000D01*
X127353000Y-72491000D02*
X105647000Y-72491000D01*
X127361000Y-72451000D02*
X105639000Y-72451000D01*
X127369000Y-72411000D02*
X105631000Y-72411000D01*
X127377000Y-72371000D02*
X105623000Y-72371000D01*
X127384000Y-72331000D02*
X105616000Y-72331000D01*
X127392000Y-72291000D02*
X105608000Y-72291000D01*
X127399000Y-72251000D02*
X105601000Y-72251000D01*
X127406000Y-72211000D02*
X105594000Y-72211000D01*
X127413000Y-72171000D02*
X105587000Y-72171000D01*
X127420000Y-72131000D02*
X105580000Y-72131000D01*
X127427000Y-72091000D02*
X105573000Y-72091000D01*
X127434000Y-72051000D02*
X105566000Y-72051000D01*
X127440000Y-72011000D02*
X105560000Y-72011000D01*
X127447000Y-71971000D02*
X105553000Y-71971000D01*
X127453000Y-71931000D02*
X105547000Y-71931000D01*
X127459000Y-71891000D02*
X105541000Y-71891000D01*
X127465000Y-71851000D02*
X105535000Y-71851000D01*
X127471000Y-71811000D02*
X105529000Y-71811000D01*
X127476000Y-71771000D02*
X105524000Y-71771000D01*
X127482000Y-71731000D02*
X105518000Y-71731000D01*
X127487000Y-71691000D02*
X105513000Y-71691000D01*
X127492000Y-71651000D02*
X105508000Y-71651000D01*
X127497000Y-71611000D02*
X105503000Y-71611000D01*
X127502000Y-71571000D02*
X105498000Y-71571000D01*
X127507000Y-71531000D02*
X105493000Y-71531000D01*
X127511000Y-71491000D02*
X105489000Y-71491000D01*
X127516000Y-71451000D02*
X105484000Y-71451000D01*
X127520000Y-71411000D02*
X105480000Y-71411000D01*
X127524000Y-71371000D02*
X105476000Y-71371000D01*
X127528000Y-71331000D02*
X105472000Y-71331000D01*
X127532000Y-71291000D02*
X105468000Y-71291000D01*
X127535000Y-71251000D02*
X105465000Y-71251000D01*
X127539000Y-71211000D02*
X105461000Y-71211000D01*
X127542000Y-71171000D02*
X105458000Y-71171000D01*
X127546000Y-71131000D02*
X105454000Y-71131000D01*
X127549000Y-71091000D02*
X105451000Y-71091000D01*
X127552000Y-71051000D02*
X105448000Y-71051000D01*
X127554000Y-71011000D02*
X105446000Y-71011000D01*
X127557000Y-70971000D02*
X105443000Y-70971000D01*
X127560000Y-70930000D02*
X105440000Y-70930000D01*
X127562000Y-70890000D02*
X105438000Y-70890000D01*
X127564000Y-70850000D02*
X105436000Y-70850000D01*
X127566000Y-70810000D02*
X105434000Y-70810000D01*
X127568000Y-70770000D02*
X105432000Y-70770000D01*
X127570000Y-70730000D02*
X105430000Y-70730000D01*
X127572000Y-70690000D02*
X105428000Y-70690000D01*
X127573000Y-70650000D02*
X105427000Y-70650000D01*
X127575000Y-70610000D02*
X105425000Y-70610000D01*
X127576000Y-70570000D02*
X105424000Y-70570000D01*
X127577000Y-70530000D02*
X105423000Y-70530000D01*
X127578000Y-70490000D02*
X105422000Y-70490000D01*
X127579000Y-70450000D02*
X105421000Y-70450000D01*
X127579000Y-70410000D02*
X105421000Y-70410000D01*
X127580000Y-70370000D02*
X105420000Y-70370000D01*
X127580000Y-70330000D02*
X105420000Y-70330000D01*
X127580000Y-70290000D02*
X105420000Y-70290000D01*
X127581000Y-70250000D02*
X105419000Y-70250000D01*
X127620000Y-70250000D02*
G75*
G03X127620000Y-70250000I-11120000J0D01*
G01*
D10*
X87833336Y-70702380D02*
X87357145Y-70702380D01*
X87357145Y-69702380D01*
X88690479Y-70702380D02*
X88119050Y-70702380D01*
X88404764Y-70702380D02*
X88404764Y-69702380D01*
X88309526Y-69845238D01*
X88214288Y-69940476D01*
X88119050Y-69988095D01*
X84547622Y-70702380D02*
X84547622Y-69702380D01*
X85023812Y-70702380D02*
X85023812Y-69702380D01*
X85595241Y-70702380D01*
X85595241Y-69702380D01*
X86071431Y-70702380D02*
X86071431Y-69702380D01*
X86309526Y-69702380D01*
X86452383Y-69750000D01*
X86547622Y-69845238D01*
X86595241Y-69940476D01*
X86642860Y-70130952D01*
X86642860Y-70273809D01*
X86595241Y-70464285D01*
X86547622Y-70559523D01*
X86452383Y-70654761D01*
X86309526Y-70702380D01*
X86071431Y-70702380D01*
X87071431Y-69702380D02*
X87071431Y-70511904D01*
X87119050Y-70607142D01*
X87166669Y-70654761D01*
X87261907Y-70702380D01*
X87452383Y-70702380D01*
X87547622Y-70654761D01*
X87595241Y-70607142D01*
X87642860Y-70511904D01*
X87642860Y-69702380D01*
X88690479Y-70607142D02*
X88642860Y-70654761D01*
X88500003Y-70702380D01*
X88404764Y-70702380D01*
X88261907Y-70654761D01*
X88166669Y-70559523D01*
X88119050Y-70464285D01*
X88071431Y-70273809D01*
X88071431Y-70130952D01*
X88119050Y-69940476D01*
X88166669Y-69845238D01*
X88261907Y-69750000D01*
X88404764Y-69702380D01*
X88500003Y-69702380D01*
X88642860Y-69750000D01*
X88690479Y-69797619D01*
X88976193Y-69702380D02*
X89547622Y-69702380D01*
X89261907Y-70702380D02*
X89261907Y-69702380D01*
X90071431Y-69702380D02*
X90261907Y-69702380D01*
X90357145Y-69750000D01*
X90452383Y-69845238D01*
X90500003Y-70035714D01*
X90500003Y-70369047D01*
X90452383Y-70559523D01*
X90357145Y-70654761D01*
X90261907Y-70702380D01*
X90071431Y-70702380D01*
X89976193Y-70654761D01*
X89880955Y-70559523D01*
X89833336Y-70369047D01*
X89833336Y-70035714D01*
X89880955Y-69845238D01*
X89976193Y-69750000D01*
X90071431Y-69702380D01*
X91500003Y-70702380D02*
X91166669Y-70226190D01*
X90928574Y-70702380D02*
X90928574Y-69702380D01*
X91309526Y-69702380D01*
X91404764Y-69750000D01*
X91452383Y-69797619D01*
X91500003Y-69892857D01*
X91500003Y-70035714D01*
X91452383Y-70130952D01*
X91404764Y-70178571D01*
X91309526Y-70226190D01*
X90928574Y-70226190D01*
X102250000Y-69702380D02*
X102250000Y-69940476D01*
X102011904Y-69845238D02*
X102250000Y-69940476D01*
X102488095Y-69845238D01*
X102107142Y-70130952D02*
X102250000Y-69940476D01*
X102392857Y-70130952D01*
X127702380Y-70888333D02*
X128416666Y-70888333D01*
X128559523Y-70935952D01*
X128654761Y-71031190D01*
X128702380Y-71174047D01*
X128702380Y-71269285D01*
X127797619Y-70459761D02*
X127750000Y-70412142D01*
X127702380Y-70316904D01*
X127702380Y-70078809D01*
X127750000Y-69983571D01*
X127797619Y-69935952D01*
X127892857Y-69888333D01*
X127988095Y-69888333D01*
X128130952Y-69935952D01*
X128702380Y-70507380D01*
X128702380Y-69888333D01*
X72052380Y-70778333D02*
X72766666Y-70778333D01*
X72909523Y-70825952D01*
X73004761Y-70921190D01*
X73052380Y-71064047D01*
X73052380Y-71159285D01*
X73052380Y-69778333D02*
X73052380Y-70349761D01*
X73052380Y-70064047D02*
X72052380Y-70064047D01*
X72195238Y-70159285D01*
X72290476Y-70254523D01*
X72338095Y-70349761D01*
X129107142Y-70416666D02*
X129154761Y-70464285D01*
X129202380Y-70607142D01*
X129202380Y-70702380D01*
X129154761Y-70845238D01*
X129059523Y-70940476D01*
X128964285Y-70988095D01*
X128773809Y-71035714D01*
X128630952Y-71035714D01*
X128440476Y-70988095D01*
X128345238Y-70940476D01*
X128250000Y-70845238D01*
X128202380Y-70702380D01*
X128202380Y-70607142D01*
X128250000Y-70464285D01*
X128297619Y-70416666D01*
X129202380Y-69464285D02*
X129202380Y-70035714D01*
X129202380Y-69750000D02*
X128202380Y-69750000D01*
X128345238Y-69845238D01*
X128440476Y-69940476D01*
X128488095Y-70035714D01*
M02*
