G04 #@! TF.GenerationSoftware,KiCad,Pcbnew,(5.1.4)-1*
G04 #@! TF.CreationDate,2020-02-13T15:41:24-05:00*
G04 #@! TF.ProjectId,PowerFilter,506f7765-7246-4696-9c74-65722e6b6963,rev?*
G04 #@! TF.SameCoordinates,Original*
G04 #@! TF.FileFunction,Copper,L2,Bot*
G04 #@! TF.FilePolarity,Positive*
%FSLAX46Y46*%
G04 Gerber Fmt 4.6, Leading zero omitted, Abs format (unit mm)*
G04 Created by KiCad (PCBNEW (5.1.4)-1) date 2020-02-13 15:41:24*
%MOMM*%
%LPD*%
G04 APERTURE LIST*
%ADD10C,3.800000*%
%ADD11C,1.524000*%
%ADD12C,1.500000*%
%ADD13R,1.500000X1.500000*%
%ADD14C,4.000000*%
%ADD15R,4.000000X4.000000*%
%ADD16C,0.254000*%
G04 APERTURE END LIST*
D10*
X139750000Y-57750000D03*
X139750000Y-82500000D03*
X61250000Y-82750000D03*
X61250000Y-57750000D03*
D11*
X102250000Y-70250000D03*
X73750006Y-70250000D03*
D12*
X130710000Y-66110000D03*
X133250000Y-67380000D03*
X130710000Y-68650000D03*
X133250000Y-69920000D03*
X130710000Y-71190000D03*
X133250000Y-72460000D03*
X130710000Y-73730000D03*
D13*
X133250000Y-75000000D03*
D12*
X70140000Y-74890000D03*
X67600000Y-73620000D03*
X70140000Y-72350000D03*
X67600000Y-71080000D03*
X70140000Y-69810000D03*
X67600000Y-68540000D03*
X70140000Y-67270000D03*
D13*
X67600000Y-66000000D03*
D14*
X116500000Y-75250000D03*
D15*
X116500000Y-65250000D03*
D16*
G36*
X142340000Y-85340000D02*
G01*
X58660000Y-85340000D01*
X58660000Y-82500324D01*
X58715000Y-82500324D01*
X58715000Y-82999676D01*
X58812418Y-83489432D01*
X59003512Y-83950773D01*
X59280937Y-84365968D01*
X59634032Y-84719063D01*
X60049227Y-84996488D01*
X60510568Y-85187582D01*
X61000324Y-85285000D01*
X61499676Y-85285000D01*
X61989432Y-85187582D01*
X62450773Y-84996488D01*
X62865968Y-84719063D01*
X63219063Y-84365968D01*
X63496488Y-83950773D01*
X63687582Y-83489432D01*
X63785000Y-82999676D01*
X63785000Y-82500324D01*
X63735273Y-82250324D01*
X137215000Y-82250324D01*
X137215000Y-82749676D01*
X137312418Y-83239432D01*
X137503512Y-83700773D01*
X137780937Y-84115968D01*
X138134032Y-84469063D01*
X138549227Y-84746488D01*
X139010568Y-84937582D01*
X139500324Y-85035000D01*
X139999676Y-85035000D01*
X140489432Y-84937582D01*
X140950773Y-84746488D01*
X141365968Y-84469063D01*
X141719063Y-84115968D01*
X141996488Y-83700773D01*
X142187582Y-83239432D01*
X142285000Y-82749676D01*
X142285000Y-82250324D01*
X142187582Y-81760568D01*
X141996488Y-81299227D01*
X141719063Y-80884032D01*
X141365968Y-80530937D01*
X140950773Y-80253512D01*
X140489432Y-80062418D01*
X139999676Y-79965000D01*
X139500324Y-79965000D01*
X139010568Y-80062418D01*
X138549227Y-80253512D01*
X138134032Y-80530937D01*
X137780937Y-80884032D01*
X137503512Y-81299227D01*
X137312418Y-81760568D01*
X137215000Y-82250324D01*
X63735273Y-82250324D01*
X63687582Y-82010568D01*
X63496488Y-81549227D01*
X63219063Y-81134032D01*
X62865968Y-80780937D01*
X62450773Y-80503512D01*
X61989432Y-80312418D01*
X61499676Y-80215000D01*
X61000324Y-80215000D01*
X60510568Y-80312418D01*
X60049227Y-80503512D01*
X59634032Y-80780937D01*
X59280937Y-81134032D01*
X59003512Y-81549227D01*
X58812418Y-82010568D01*
X58715000Y-82500324D01*
X58660000Y-82500324D01*
X58660000Y-75939872D01*
X59015000Y-75939872D01*
X59015000Y-76380128D01*
X59100890Y-76811925D01*
X59269369Y-77218669D01*
X59513962Y-77584729D01*
X59825271Y-77896038D01*
X60191331Y-78140631D01*
X60598075Y-78309110D01*
X61029872Y-78395000D01*
X61470128Y-78395000D01*
X61901925Y-78309110D01*
X62308669Y-78140631D01*
X62674729Y-77896038D01*
X62986038Y-77584729D01*
X63230631Y-77218669D01*
X63280821Y-77097499D01*
X114832106Y-77097499D01*
X115048228Y-77464258D01*
X115508105Y-77704938D01*
X116006098Y-77851275D01*
X116523071Y-77897648D01*
X117039159Y-77842273D01*
X117534526Y-77687279D01*
X117951772Y-77464258D01*
X118167894Y-77097499D01*
X116500000Y-75429605D01*
X114832106Y-77097499D01*
X63280821Y-77097499D01*
X63399110Y-76811925D01*
X63485000Y-76380128D01*
X63485000Y-75939872D01*
X63399110Y-75508075D01*
X63230631Y-75101331D01*
X62986038Y-74735271D01*
X62674729Y-74423962D01*
X62308669Y-74179369D01*
X61901925Y-74010890D01*
X61470128Y-73925000D01*
X61029872Y-73925000D01*
X60598075Y-74010890D01*
X60191331Y-74179369D01*
X59825271Y-74423962D01*
X59513962Y-74735271D01*
X59269369Y-75101331D01*
X59100890Y-75508075D01*
X59015000Y-75939872D01*
X58660000Y-75939872D01*
X58660000Y-70943589D01*
X66215000Y-70943589D01*
X66215000Y-71216411D01*
X66268225Y-71483989D01*
X66372629Y-71736043D01*
X66524201Y-71962886D01*
X66717114Y-72155799D01*
X66943957Y-72307371D01*
X67046873Y-72350000D01*
X66943957Y-72392629D01*
X66717114Y-72544201D01*
X66524201Y-72737114D01*
X66372629Y-72963957D01*
X66268225Y-73216011D01*
X66215000Y-73483589D01*
X66215000Y-73756411D01*
X66268225Y-74023989D01*
X66372629Y-74276043D01*
X66524201Y-74502886D01*
X66717114Y-74695799D01*
X66943957Y-74847371D01*
X67196011Y-74951775D01*
X67463589Y-75005000D01*
X67736411Y-75005000D01*
X68003989Y-74951775D01*
X68256043Y-74847371D01*
X68396397Y-74753589D01*
X68755000Y-74753589D01*
X68755000Y-75026411D01*
X68808225Y-75293989D01*
X68912629Y-75546043D01*
X69064201Y-75772886D01*
X69257114Y-75965799D01*
X69483957Y-76117371D01*
X69736011Y-76221775D01*
X70003589Y-76275000D01*
X70276411Y-76275000D01*
X70543989Y-76221775D01*
X70796043Y-76117371D01*
X71022886Y-75965799D01*
X71215799Y-75772886D01*
X71367371Y-75546043D01*
X71471775Y-75293989D01*
X71475935Y-75273071D01*
X113852352Y-75273071D01*
X113907727Y-75789159D01*
X114062721Y-76284526D01*
X114285742Y-76701772D01*
X114652501Y-76917894D01*
X116320395Y-75250000D01*
X116679605Y-75250000D01*
X118347499Y-76917894D01*
X118714258Y-76701772D01*
X118954938Y-76241895D01*
X119101275Y-75743902D01*
X119147648Y-75226929D01*
X119092273Y-74710841D01*
X118937279Y-74215474D01*
X118714258Y-73798228D01*
X118347499Y-73582106D01*
X116679605Y-75250000D01*
X116320395Y-75250000D01*
X114652501Y-73582106D01*
X114285742Y-73798228D01*
X114045062Y-74258105D01*
X113898725Y-74756098D01*
X113852352Y-75273071D01*
X71475935Y-75273071D01*
X71525000Y-75026411D01*
X71525000Y-74753589D01*
X71471775Y-74486011D01*
X71367371Y-74233957D01*
X71215799Y-74007114D01*
X71022886Y-73814201D01*
X70796043Y-73662629D01*
X70696721Y-73621489D01*
X70738832Y-73606277D01*
X70851863Y-73545860D01*
X70891188Y-73402501D01*
X114832106Y-73402501D01*
X116500000Y-75070395D01*
X118167894Y-73402501D01*
X117951772Y-73035742D01*
X117491895Y-72795062D01*
X116993902Y-72648725D01*
X116476929Y-72602352D01*
X115960841Y-72657727D01*
X115465474Y-72812721D01*
X115048228Y-73035742D01*
X114832106Y-73402501D01*
X70891188Y-73402501D01*
X70917388Y-73306993D01*
X70140000Y-72529605D01*
X69362612Y-73306993D01*
X69428137Y-73545860D01*
X69586477Y-73620164D01*
X69483957Y-73662629D01*
X69257114Y-73814201D01*
X69064201Y-74007114D01*
X68912629Y-74233957D01*
X68808225Y-74486011D01*
X68755000Y-74753589D01*
X68396397Y-74753589D01*
X68482886Y-74695799D01*
X68675799Y-74502886D01*
X68827371Y-74276043D01*
X68931775Y-74023989D01*
X68985000Y-73756411D01*
X68985000Y-73483589D01*
X68931775Y-73216011D01*
X68827371Y-72963957D01*
X68675799Y-72737114D01*
X68482886Y-72544201D01*
X68300737Y-72422492D01*
X68750188Y-72422492D01*
X68791035Y-72692238D01*
X68883723Y-72948832D01*
X68944140Y-73061863D01*
X69183007Y-73127388D01*
X69960395Y-72350000D01*
X70319605Y-72350000D01*
X71096993Y-73127388D01*
X71335860Y-73061863D01*
X71451760Y-72814884D01*
X71517250Y-72550040D01*
X71529812Y-72277508D01*
X71488965Y-72007762D01*
X71396277Y-71751168D01*
X71335860Y-71638137D01*
X71096993Y-71572612D01*
X70319605Y-72350000D01*
X69960395Y-72350000D01*
X69183007Y-71572612D01*
X68944140Y-71638137D01*
X68828240Y-71885116D01*
X68762750Y-72149960D01*
X68750188Y-72422492D01*
X68300737Y-72422492D01*
X68256043Y-72392629D01*
X68153127Y-72350000D01*
X68256043Y-72307371D01*
X68482886Y-72155799D01*
X68675799Y-71962886D01*
X68827371Y-71736043D01*
X68931775Y-71483989D01*
X68985000Y-71216411D01*
X68985000Y-70943589D01*
X68931775Y-70676011D01*
X68827371Y-70423957D01*
X68675799Y-70197114D01*
X68482886Y-70004201D01*
X68256043Y-69852629D01*
X68156721Y-69811489D01*
X68198832Y-69796277D01*
X68311863Y-69735860D01*
X68377388Y-69496993D01*
X67600000Y-68719605D01*
X66822612Y-69496993D01*
X66888137Y-69735860D01*
X67046477Y-69810164D01*
X66943957Y-69852629D01*
X66717114Y-70004201D01*
X66524201Y-70197114D01*
X66372629Y-70423957D01*
X66268225Y-70676011D01*
X66215000Y-70943589D01*
X58660000Y-70943589D01*
X58660000Y-68612492D01*
X66210188Y-68612492D01*
X66251035Y-68882238D01*
X66343723Y-69138832D01*
X66404140Y-69251863D01*
X66643007Y-69317388D01*
X67420395Y-68540000D01*
X67779605Y-68540000D01*
X68556993Y-69317388D01*
X68795860Y-69251863D01*
X68911760Y-69004884D01*
X68977250Y-68740040D01*
X68989812Y-68467508D01*
X68948965Y-68197762D01*
X68856277Y-67941168D01*
X68795860Y-67828137D01*
X68556993Y-67762612D01*
X67779605Y-68540000D01*
X67420395Y-68540000D01*
X66643007Y-67762612D01*
X66404140Y-67828137D01*
X66288240Y-68075116D01*
X66222750Y-68339960D01*
X66210188Y-68612492D01*
X58660000Y-68612492D01*
X58660000Y-64509872D01*
X59015000Y-64509872D01*
X59015000Y-64950128D01*
X59100890Y-65381925D01*
X59269369Y-65788669D01*
X59513962Y-66154729D01*
X59825271Y-66466038D01*
X60191331Y-66710631D01*
X60598075Y-66879110D01*
X61029872Y-66965000D01*
X61470128Y-66965000D01*
X61901925Y-66879110D01*
X62308669Y-66710631D01*
X62674729Y-66466038D01*
X62986038Y-66154729D01*
X63230631Y-65788669D01*
X63399110Y-65381925D01*
X63425351Y-65250000D01*
X66211928Y-65250000D01*
X66211928Y-66750000D01*
X66224188Y-66874482D01*
X66260498Y-66994180D01*
X66319463Y-67104494D01*
X66398815Y-67201185D01*
X66495506Y-67280537D01*
X66605820Y-67339502D01*
X66725518Y-67375812D01*
X66850000Y-67388072D01*
X66876086Y-67388072D01*
X66822612Y-67583007D01*
X67600000Y-68360395D01*
X68377388Y-67583007D01*
X68323914Y-67388072D01*
X68350000Y-67388072D01*
X68474482Y-67375812D01*
X68594180Y-67339502D01*
X68704494Y-67280537D01*
X68755000Y-67239088D01*
X68755000Y-67406411D01*
X68808225Y-67673989D01*
X68912629Y-67926043D01*
X69064201Y-68152886D01*
X69257114Y-68345799D01*
X69483957Y-68497371D01*
X69586873Y-68540000D01*
X69483957Y-68582629D01*
X69257114Y-68734201D01*
X69064201Y-68927114D01*
X68912629Y-69153957D01*
X68808225Y-69406011D01*
X68755000Y-69673589D01*
X68755000Y-69946411D01*
X68808225Y-70213989D01*
X68912629Y-70466043D01*
X69064201Y-70692886D01*
X69257114Y-70885799D01*
X69483957Y-71037371D01*
X69583279Y-71078511D01*
X69541168Y-71093723D01*
X69428137Y-71154140D01*
X69362612Y-71393007D01*
X70140000Y-72170395D01*
X70917388Y-71393007D01*
X70851863Y-71154140D01*
X70693523Y-71079836D01*
X70796043Y-71037371D01*
X71022886Y-70885799D01*
X71215799Y-70692886D01*
X71367371Y-70466043D01*
X71471775Y-70213989D01*
X71491980Y-70112408D01*
X72353006Y-70112408D01*
X72353006Y-70387592D01*
X72406692Y-70657490D01*
X72512001Y-70911727D01*
X72664886Y-71140535D01*
X72859471Y-71335120D01*
X73088279Y-71488005D01*
X73342516Y-71593314D01*
X73612414Y-71647000D01*
X73887598Y-71647000D01*
X74157496Y-71593314D01*
X74411733Y-71488005D01*
X74640541Y-71335120D01*
X74835126Y-71140535D01*
X74988011Y-70911727D01*
X75093320Y-70657490D01*
X75147006Y-70387592D01*
X75147006Y-70112408D01*
X75093320Y-69842510D01*
X74988011Y-69588273D01*
X74835126Y-69359465D01*
X74640541Y-69164880D01*
X74411733Y-69011995D01*
X74157496Y-68906686D01*
X73887598Y-68853000D01*
X73612414Y-68853000D01*
X73342516Y-68906686D01*
X73088279Y-69011995D01*
X72859471Y-69164880D01*
X72664886Y-69359465D01*
X72512001Y-69588273D01*
X72406692Y-69842510D01*
X72353006Y-70112408D01*
X71491980Y-70112408D01*
X71525000Y-69946411D01*
X71525000Y-69673589D01*
X71471775Y-69406011D01*
X71367371Y-69153957D01*
X71215799Y-68927114D01*
X71022886Y-68734201D01*
X70796043Y-68582629D01*
X70693127Y-68540000D01*
X70796043Y-68497371D01*
X71022886Y-68345799D01*
X71215799Y-68152886D01*
X71367371Y-67926043D01*
X71471775Y-67673989D01*
X71525000Y-67406411D01*
X71525000Y-67133589D01*
X71471775Y-66866011D01*
X71367371Y-66613957D01*
X71215799Y-66387114D01*
X71022886Y-66194201D01*
X70796043Y-66042629D01*
X70543989Y-65938225D01*
X70276411Y-65885000D01*
X70003589Y-65885000D01*
X69736011Y-65938225D01*
X69483957Y-66042629D01*
X69257114Y-66194201D01*
X69064201Y-66387114D01*
X68988072Y-66501049D01*
X68988072Y-65250000D01*
X68975812Y-65125518D01*
X68939502Y-65005820D01*
X68880537Y-64895506D01*
X68801185Y-64798815D01*
X68704494Y-64719463D01*
X68594180Y-64660498D01*
X68474482Y-64624188D01*
X68350000Y-64611928D01*
X66850000Y-64611928D01*
X66725518Y-64624188D01*
X66605820Y-64660498D01*
X66495506Y-64719463D01*
X66398815Y-64798815D01*
X66319463Y-64895506D01*
X66260498Y-65005820D01*
X66224188Y-65125518D01*
X66211928Y-65250000D01*
X63425351Y-65250000D01*
X63485000Y-64950128D01*
X63485000Y-64509872D01*
X63399110Y-64078075D01*
X63230631Y-63671331D01*
X63199674Y-63625000D01*
X90615000Y-63625000D01*
X90615000Y-71687500D01*
X90626715Y-71808910D01*
X90662377Y-71928174D01*
X90720621Y-72038189D01*
X90799209Y-72134727D01*
X90895121Y-72214079D01*
X91004670Y-72273195D01*
X91123647Y-72309802D01*
X91247480Y-72322495D01*
X122115000Y-72444985D01*
X122115000Y-77750000D01*
X122127201Y-77873882D01*
X122163336Y-77993004D01*
X122222017Y-78102787D01*
X122300987Y-78199013D01*
X122397213Y-78277983D01*
X122506996Y-78336664D01*
X122626118Y-78372799D01*
X122750000Y-78385000D01*
X138865726Y-78385000D01*
X138948075Y-78419110D01*
X139379872Y-78505000D01*
X139820128Y-78505000D01*
X140251925Y-78419110D01*
X140658669Y-78250631D01*
X141024729Y-78006038D01*
X141336038Y-77694729D01*
X141580631Y-77328669D01*
X141749110Y-76921925D01*
X141835000Y-76490128D01*
X141835000Y-76049872D01*
X141749110Y-75618075D01*
X141580631Y-75211331D01*
X141336038Y-74845271D01*
X141024729Y-74533962D01*
X140658669Y-74289369D01*
X140251925Y-74120890D01*
X139956235Y-74062073D01*
X139894146Y-74002131D01*
X139789444Y-73934803D01*
X139673618Y-73889196D01*
X139551119Y-73867061D01*
X139426657Y-73869250D01*
X134638072Y-74426062D01*
X134638072Y-74250000D01*
X134625812Y-74125518D01*
X134589502Y-74005820D01*
X134530537Y-73895506D01*
X134451185Y-73798815D01*
X134354494Y-73719463D01*
X134244180Y-73660498D01*
X134124482Y-73624188D01*
X134000000Y-73611928D01*
X133973914Y-73611928D01*
X134027388Y-73416993D01*
X133250000Y-72639605D01*
X133235858Y-72653748D01*
X133056253Y-72474143D01*
X133070395Y-72460000D01*
X133429605Y-72460000D01*
X134206993Y-73237388D01*
X134445860Y-73171863D01*
X134561760Y-72924884D01*
X134627250Y-72660040D01*
X134639812Y-72387508D01*
X134598965Y-72117762D01*
X134506277Y-71861168D01*
X134445860Y-71748137D01*
X134206993Y-71682612D01*
X133429605Y-72460000D01*
X133070395Y-72460000D01*
X132293007Y-71682612D01*
X132292153Y-71682846D01*
X132079432Y-71404674D01*
X132095000Y-71326411D01*
X132095000Y-71053589D01*
X132041775Y-70786011D01*
X131937371Y-70533957D01*
X131785799Y-70307114D01*
X131592886Y-70114201D01*
X131366043Y-69962629D01*
X131266721Y-69921489D01*
X131308832Y-69906277D01*
X131421863Y-69845860D01*
X131487388Y-69606993D01*
X130710000Y-68829605D01*
X130695858Y-68843748D01*
X130516253Y-68664143D01*
X130530395Y-68650000D01*
X130889605Y-68650000D01*
X131666993Y-69427388D01*
X131905860Y-69361863D01*
X132021760Y-69114884D01*
X132087250Y-68850040D01*
X132099812Y-68577508D01*
X132058965Y-68307762D01*
X131966277Y-68051168D01*
X131905860Y-67938137D01*
X131666993Y-67872612D01*
X130889605Y-68650000D01*
X130530395Y-68650000D01*
X129753007Y-67872612D01*
X129514140Y-67938137D01*
X129398240Y-68185116D01*
X129332750Y-68449960D01*
X129327675Y-68560058D01*
X126559700Y-65973589D01*
X129325000Y-65973589D01*
X129325000Y-66246411D01*
X129378225Y-66513989D01*
X129482629Y-66766043D01*
X129634201Y-66992886D01*
X129827114Y-67185799D01*
X130053957Y-67337371D01*
X130153279Y-67378511D01*
X130111168Y-67393723D01*
X129998137Y-67454140D01*
X129932612Y-67693007D01*
X130710000Y-68470395D01*
X131487388Y-67693007D01*
X131421863Y-67454140D01*
X131263523Y-67379836D01*
X131366043Y-67337371D01*
X131506397Y-67243589D01*
X131865000Y-67243589D01*
X131865000Y-67516411D01*
X131918225Y-67783989D01*
X132022629Y-68036043D01*
X132174201Y-68262886D01*
X132367114Y-68455799D01*
X132593957Y-68607371D01*
X132696873Y-68650000D01*
X132593957Y-68692629D01*
X132367114Y-68844201D01*
X132174201Y-69037114D01*
X132022629Y-69263957D01*
X131918225Y-69516011D01*
X131865000Y-69783589D01*
X131865000Y-70056411D01*
X131918225Y-70323989D01*
X132022629Y-70576043D01*
X132174201Y-70802886D01*
X132367114Y-70995799D01*
X132593957Y-71147371D01*
X132693279Y-71188511D01*
X132651168Y-71203723D01*
X132538137Y-71264140D01*
X132472612Y-71503007D01*
X133250000Y-72280395D01*
X134027388Y-71503007D01*
X133961863Y-71264140D01*
X133803523Y-71189836D01*
X133906043Y-71147371D01*
X134132886Y-70995799D01*
X134325799Y-70802886D01*
X134477371Y-70576043D01*
X134581775Y-70323989D01*
X134635000Y-70056411D01*
X134635000Y-69783589D01*
X134581775Y-69516011D01*
X134477371Y-69263957D01*
X134325799Y-69037114D01*
X134132886Y-68844201D01*
X133906043Y-68692629D01*
X133803127Y-68650000D01*
X133906043Y-68607371D01*
X134132886Y-68455799D01*
X134325799Y-68262886D01*
X134477371Y-68036043D01*
X134581775Y-67783989D01*
X134635000Y-67516411D01*
X134635000Y-67243589D01*
X134581775Y-66976011D01*
X134477371Y-66723957D01*
X134325799Y-66497114D01*
X134132886Y-66304201D01*
X133906043Y-66152629D01*
X133653989Y-66048225D01*
X133386411Y-65995000D01*
X133113589Y-65995000D01*
X132846011Y-66048225D01*
X132593957Y-66152629D01*
X132367114Y-66304201D01*
X132174201Y-66497114D01*
X132022629Y-66723957D01*
X131918225Y-66976011D01*
X131865000Y-67243589D01*
X131506397Y-67243589D01*
X131592886Y-67185799D01*
X131785799Y-66992886D01*
X131937371Y-66766043D01*
X132041775Y-66513989D01*
X132095000Y-66246411D01*
X132095000Y-65973589D01*
X132041775Y-65706011D01*
X131937371Y-65453957D01*
X131785799Y-65227114D01*
X131592886Y-65034201D01*
X131366043Y-64882629D01*
X131113989Y-64778225D01*
X130846411Y-64725000D01*
X130573589Y-64725000D01*
X130306011Y-64778225D01*
X130053957Y-64882629D01*
X129827114Y-65034201D01*
X129634201Y-65227114D01*
X129482629Y-65453957D01*
X129378225Y-65706011D01*
X129325000Y-65973589D01*
X126559700Y-65973589D01*
X125110986Y-64619872D01*
X137365000Y-64619872D01*
X137365000Y-65060128D01*
X137450890Y-65491925D01*
X137619369Y-65898669D01*
X137863962Y-66264729D01*
X138175271Y-66576038D01*
X138541331Y-66820631D01*
X138948075Y-66989110D01*
X139379872Y-67075000D01*
X139820128Y-67075000D01*
X140251925Y-66989110D01*
X140658669Y-66820631D01*
X141024729Y-66576038D01*
X141336038Y-66264729D01*
X141580631Y-65898669D01*
X141749110Y-65491925D01*
X141835000Y-65060128D01*
X141835000Y-64619872D01*
X141749110Y-64188075D01*
X141580631Y-63781331D01*
X141336038Y-63415271D01*
X141024729Y-63103962D01*
X140658669Y-62859369D01*
X140251925Y-62690890D01*
X139820128Y-62605000D01*
X139379872Y-62605000D01*
X138948075Y-62690890D01*
X138541331Y-62859369D01*
X138175271Y-63103962D01*
X137863962Y-63415271D01*
X137619369Y-63781331D01*
X137450890Y-64188075D01*
X137365000Y-64619872D01*
X125110986Y-64619872D01*
X123683543Y-63286033D01*
X123604847Y-63223399D01*
X123495294Y-63164290D01*
X123376314Y-63127690D01*
X123252480Y-63115005D01*
X119117723Y-63098854D01*
X119089502Y-63005820D01*
X119030537Y-62895506D01*
X118951185Y-62798815D01*
X118854494Y-62719463D01*
X118744180Y-62660498D01*
X118624482Y-62624188D01*
X118500000Y-62611928D01*
X114500000Y-62611928D01*
X114375518Y-62624188D01*
X114255820Y-62660498D01*
X114145506Y-62719463D01*
X114048815Y-62798815D01*
X113969463Y-62895506D01*
X113910498Y-63005820D01*
X113888473Y-63078427D01*
X91252480Y-62990005D01*
X91126118Y-63002201D01*
X91006996Y-63038336D01*
X90897213Y-63097017D01*
X90800987Y-63175987D01*
X90722017Y-63272213D01*
X90663336Y-63381996D01*
X90627201Y-63501118D01*
X90615000Y-63625000D01*
X63199674Y-63625000D01*
X62986038Y-63305271D01*
X62674729Y-62993962D01*
X62308669Y-62749369D01*
X61901925Y-62580890D01*
X61470128Y-62495000D01*
X61029872Y-62495000D01*
X60598075Y-62580890D01*
X60191331Y-62749369D01*
X59825271Y-62993962D01*
X59513962Y-63305271D01*
X59269369Y-63671331D01*
X59100890Y-64078075D01*
X59015000Y-64509872D01*
X58660000Y-64509872D01*
X58660000Y-57500324D01*
X58715000Y-57500324D01*
X58715000Y-57999676D01*
X58812418Y-58489432D01*
X59003512Y-58950773D01*
X59280937Y-59365968D01*
X59634032Y-59719063D01*
X60049227Y-59996488D01*
X60510568Y-60187582D01*
X61000324Y-60285000D01*
X61499676Y-60285000D01*
X61989432Y-60187582D01*
X62450773Y-59996488D01*
X62865968Y-59719063D01*
X63219063Y-59365968D01*
X63496488Y-58950773D01*
X63687582Y-58489432D01*
X63785000Y-57999676D01*
X63785000Y-57500324D01*
X137215000Y-57500324D01*
X137215000Y-57999676D01*
X137312418Y-58489432D01*
X137503512Y-58950773D01*
X137780937Y-59365968D01*
X138134032Y-59719063D01*
X138549227Y-59996488D01*
X139010568Y-60187582D01*
X139500324Y-60285000D01*
X139999676Y-60285000D01*
X140489432Y-60187582D01*
X140950773Y-59996488D01*
X141365968Y-59719063D01*
X141719063Y-59365968D01*
X141996488Y-58950773D01*
X142187582Y-58489432D01*
X142285000Y-57999676D01*
X142285000Y-57500324D01*
X142187582Y-57010568D01*
X141996488Y-56549227D01*
X141719063Y-56134032D01*
X141365968Y-55780937D01*
X140950773Y-55503512D01*
X140489432Y-55312418D01*
X139999676Y-55215000D01*
X139500324Y-55215000D01*
X139010568Y-55312418D01*
X138549227Y-55503512D01*
X138134032Y-55780937D01*
X137780937Y-56134032D01*
X137503512Y-56549227D01*
X137312418Y-57010568D01*
X137215000Y-57500324D01*
X63785000Y-57500324D01*
X63687582Y-57010568D01*
X63496488Y-56549227D01*
X63219063Y-56134032D01*
X62865968Y-55780937D01*
X62450773Y-55503512D01*
X61989432Y-55312418D01*
X61499676Y-55215000D01*
X61000324Y-55215000D01*
X60510568Y-55312418D01*
X60049227Y-55503512D01*
X59634032Y-55780937D01*
X59280937Y-56134032D01*
X59003512Y-56549227D01*
X58812418Y-57010568D01*
X58715000Y-57500324D01*
X58660000Y-57500324D01*
X58660000Y-55160000D01*
X142340001Y-55160000D01*
X142340000Y-85340000D01*
X142340000Y-85340000D01*
G37*
X142340000Y-85340000D02*
X58660000Y-85340000D01*
X58660000Y-82500324D01*
X58715000Y-82500324D01*
X58715000Y-82999676D01*
X58812418Y-83489432D01*
X59003512Y-83950773D01*
X59280937Y-84365968D01*
X59634032Y-84719063D01*
X60049227Y-84996488D01*
X60510568Y-85187582D01*
X61000324Y-85285000D01*
X61499676Y-85285000D01*
X61989432Y-85187582D01*
X62450773Y-84996488D01*
X62865968Y-84719063D01*
X63219063Y-84365968D01*
X63496488Y-83950773D01*
X63687582Y-83489432D01*
X63785000Y-82999676D01*
X63785000Y-82500324D01*
X63735273Y-82250324D01*
X137215000Y-82250324D01*
X137215000Y-82749676D01*
X137312418Y-83239432D01*
X137503512Y-83700773D01*
X137780937Y-84115968D01*
X138134032Y-84469063D01*
X138549227Y-84746488D01*
X139010568Y-84937582D01*
X139500324Y-85035000D01*
X139999676Y-85035000D01*
X140489432Y-84937582D01*
X140950773Y-84746488D01*
X141365968Y-84469063D01*
X141719063Y-84115968D01*
X141996488Y-83700773D01*
X142187582Y-83239432D01*
X142285000Y-82749676D01*
X142285000Y-82250324D01*
X142187582Y-81760568D01*
X141996488Y-81299227D01*
X141719063Y-80884032D01*
X141365968Y-80530937D01*
X140950773Y-80253512D01*
X140489432Y-80062418D01*
X139999676Y-79965000D01*
X139500324Y-79965000D01*
X139010568Y-80062418D01*
X138549227Y-80253512D01*
X138134032Y-80530937D01*
X137780937Y-80884032D01*
X137503512Y-81299227D01*
X137312418Y-81760568D01*
X137215000Y-82250324D01*
X63735273Y-82250324D01*
X63687582Y-82010568D01*
X63496488Y-81549227D01*
X63219063Y-81134032D01*
X62865968Y-80780937D01*
X62450773Y-80503512D01*
X61989432Y-80312418D01*
X61499676Y-80215000D01*
X61000324Y-80215000D01*
X60510568Y-80312418D01*
X60049227Y-80503512D01*
X59634032Y-80780937D01*
X59280937Y-81134032D01*
X59003512Y-81549227D01*
X58812418Y-82010568D01*
X58715000Y-82500324D01*
X58660000Y-82500324D01*
X58660000Y-75939872D01*
X59015000Y-75939872D01*
X59015000Y-76380128D01*
X59100890Y-76811925D01*
X59269369Y-77218669D01*
X59513962Y-77584729D01*
X59825271Y-77896038D01*
X60191331Y-78140631D01*
X60598075Y-78309110D01*
X61029872Y-78395000D01*
X61470128Y-78395000D01*
X61901925Y-78309110D01*
X62308669Y-78140631D01*
X62674729Y-77896038D01*
X62986038Y-77584729D01*
X63230631Y-77218669D01*
X63280821Y-77097499D01*
X114832106Y-77097499D01*
X115048228Y-77464258D01*
X115508105Y-77704938D01*
X116006098Y-77851275D01*
X116523071Y-77897648D01*
X117039159Y-77842273D01*
X117534526Y-77687279D01*
X117951772Y-77464258D01*
X118167894Y-77097499D01*
X116500000Y-75429605D01*
X114832106Y-77097499D01*
X63280821Y-77097499D01*
X63399110Y-76811925D01*
X63485000Y-76380128D01*
X63485000Y-75939872D01*
X63399110Y-75508075D01*
X63230631Y-75101331D01*
X62986038Y-74735271D01*
X62674729Y-74423962D01*
X62308669Y-74179369D01*
X61901925Y-74010890D01*
X61470128Y-73925000D01*
X61029872Y-73925000D01*
X60598075Y-74010890D01*
X60191331Y-74179369D01*
X59825271Y-74423962D01*
X59513962Y-74735271D01*
X59269369Y-75101331D01*
X59100890Y-75508075D01*
X59015000Y-75939872D01*
X58660000Y-75939872D01*
X58660000Y-70943589D01*
X66215000Y-70943589D01*
X66215000Y-71216411D01*
X66268225Y-71483989D01*
X66372629Y-71736043D01*
X66524201Y-71962886D01*
X66717114Y-72155799D01*
X66943957Y-72307371D01*
X67046873Y-72350000D01*
X66943957Y-72392629D01*
X66717114Y-72544201D01*
X66524201Y-72737114D01*
X66372629Y-72963957D01*
X66268225Y-73216011D01*
X66215000Y-73483589D01*
X66215000Y-73756411D01*
X66268225Y-74023989D01*
X66372629Y-74276043D01*
X66524201Y-74502886D01*
X66717114Y-74695799D01*
X66943957Y-74847371D01*
X67196011Y-74951775D01*
X67463589Y-75005000D01*
X67736411Y-75005000D01*
X68003989Y-74951775D01*
X68256043Y-74847371D01*
X68396397Y-74753589D01*
X68755000Y-74753589D01*
X68755000Y-75026411D01*
X68808225Y-75293989D01*
X68912629Y-75546043D01*
X69064201Y-75772886D01*
X69257114Y-75965799D01*
X69483957Y-76117371D01*
X69736011Y-76221775D01*
X70003589Y-76275000D01*
X70276411Y-76275000D01*
X70543989Y-76221775D01*
X70796043Y-76117371D01*
X71022886Y-75965799D01*
X71215799Y-75772886D01*
X71367371Y-75546043D01*
X71471775Y-75293989D01*
X71475935Y-75273071D01*
X113852352Y-75273071D01*
X113907727Y-75789159D01*
X114062721Y-76284526D01*
X114285742Y-76701772D01*
X114652501Y-76917894D01*
X116320395Y-75250000D01*
X116679605Y-75250000D01*
X118347499Y-76917894D01*
X118714258Y-76701772D01*
X118954938Y-76241895D01*
X119101275Y-75743902D01*
X119147648Y-75226929D01*
X119092273Y-74710841D01*
X118937279Y-74215474D01*
X118714258Y-73798228D01*
X118347499Y-73582106D01*
X116679605Y-75250000D01*
X116320395Y-75250000D01*
X114652501Y-73582106D01*
X114285742Y-73798228D01*
X114045062Y-74258105D01*
X113898725Y-74756098D01*
X113852352Y-75273071D01*
X71475935Y-75273071D01*
X71525000Y-75026411D01*
X71525000Y-74753589D01*
X71471775Y-74486011D01*
X71367371Y-74233957D01*
X71215799Y-74007114D01*
X71022886Y-73814201D01*
X70796043Y-73662629D01*
X70696721Y-73621489D01*
X70738832Y-73606277D01*
X70851863Y-73545860D01*
X70891188Y-73402501D01*
X114832106Y-73402501D01*
X116500000Y-75070395D01*
X118167894Y-73402501D01*
X117951772Y-73035742D01*
X117491895Y-72795062D01*
X116993902Y-72648725D01*
X116476929Y-72602352D01*
X115960841Y-72657727D01*
X115465474Y-72812721D01*
X115048228Y-73035742D01*
X114832106Y-73402501D01*
X70891188Y-73402501D01*
X70917388Y-73306993D01*
X70140000Y-72529605D01*
X69362612Y-73306993D01*
X69428137Y-73545860D01*
X69586477Y-73620164D01*
X69483957Y-73662629D01*
X69257114Y-73814201D01*
X69064201Y-74007114D01*
X68912629Y-74233957D01*
X68808225Y-74486011D01*
X68755000Y-74753589D01*
X68396397Y-74753589D01*
X68482886Y-74695799D01*
X68675799Y-74502886D01*
X68827371Y-74276043D01*
X68931775Y-74023989D01*
X68985000Y-73756411D01*
X68985000Y-73483589D01*
X68931775Y-73216011D01*
X68827371Y-72963957D01*
X68675799Y-72737114D01*
X68482886Y-72544201D01*
X68300737Y-72422492D01*
X68750188Y-72422492D01*
X68791035Y-72692238D01*
X68883723Y-72948832D01*
X68944140Y-73061863D01*
X69183007Y-73127388D01*
X69960395Y-72350000D01*
X70319605Y-72350000D01*
X71096993Y-73127388D01*
X71335860Y-73061863D01*
X71451760Y-72814884D01*
X71517250Y-72550040D01*
X71529812Y-72277508D01*
X71488965Y-72007762D01*
X71396277Y-71751168D01*
X71335860Y-71638137D01*
X71096993Y-71572612D01*
X70319605Y-72350000D01*
X69960395Y-72350000D01*
X69183007Y-71572612D01*
X68944140Y-71638137D01*
X68828240Y-71885116D01*
X68762750Y-72149960D01*
X68750188Y-72422492D01*
X68300737Y-72422492D01*
X68256043Y-72392629D01*
X68153127Y-72350000D01*
X68256043Y-72307371D01*
X68482886Y-72155799D01*
X68675799Y-71962886D01*
X68827371Y-71736043D01*
X68931775Y-71483989D01*
X68985000Y-71216411D01*
X68985000Y-70943589D01*
X68931775Y-70676011D01*
X68827371Y-70423957D01*
X68675799Y-70197114D01*
X68482886Y-70004201D01*
X68256043Y-69852629D01*
X68156721Y-69811489D01*
X68198832Y-69796277D01*
X68311863Y-69735860D01*
X68377388Y-69496993D01*
X67600000Y-68719605D01*
X66822612Y-69496993D01*
X66888137Y-69735860D01*
X67046477Y-69810164D01*
X66943957Y-69852629D01*
X66717114Y-70004201D01*
X66524201Y-70197114D01*
X66372629Y-70423957D01*
X66268225Y-70676011D01*
X66215000Y-70943589D01*
X58660000Y-70943589D01*
X58660000Y-68612492D01*
X66210188Y-68612492D01*
X66251035Y-68882238D01*
X66343723Y-69138832D01*
X66404140Y-69251863D01*
X66643007Y-69317388D01*
X67420395Y-68540000D01*
X67779605Y-68540000D01*
X68556993Y-69317388D01*
X68795860Y-69251863D01*
X68911760Y-69004884D01*
X68977250Y-68740040D01*
X68989812Y-68467508D01*
X68948965Y-68197762D01*
X68856277Y-67941168D01*
X68795860Y-67828137D01*
X68556993Y-67762612D01*
X67779605Y-68540000D01*
X67420395Y-68540000D01*
X66643007Y-67762612D01*
X66404140Y-67828137D01*
X66288240Y-68075116D01*
X66222750Y-68339960D01*
X66210188Y-68612492D01*
X58660000Y-68612492D01*
X58660000Y-64509872D01*
X59015000Y-64509872D01*
X59015000Y-64950128D01*
X59100890Y-65381925D01*
X59269369Y-65788669D01*
X59513962Y-66154729D01*
X59825271Y-66466038D01*
X60191331Y-66710631D01*
X60598075Y-66879110D01*
X61029872Y-66965000D01*
X61470128Y-66965000D01*
X61901925Y-66879110D01*
X62308669Y-66710631D01*
X62674729Y-66466038D01*
X62986038Y-66154729D01*
X63230631Y-65788669D01*
X63399110Y-65381925D01*
X63425351Y-65250000D01*
X66211928Y-65250000D01*
X66211928Y-66750000D01*
X66224188Y-66874482D01*
X66260498Y-66994180D01*
X66319463Y-67104494D01*
X66398815Y-67201185D01*
X66495506Y-67280537D01*
X66605820Y-67339502D01*
X66725518Y-67375812D01*
X66850000Y-67388072D01*
X66876086Y-67388072D01*
X66822612Y-67583007D01*
X67600000Y-68360395D01*
X68377388Y-67583007D01*
X68323914Y-67388072D01*
X68350000Y-67388072D01*
X68474482Y-67375812D01*
X68594180Y-67339502D01*
X68704494Y-67280537D01*
X68755000Y-67239088D01*
X68755000Y-67406411D01*
X68808225Y-67673989D01*
X68912629Y-67926043D01*
X69064201Y-68152886D01*
X69257114Y-68345799D01*
X69483957Y-68497371D01*
X69586873Y-68540000D01*
X69483957Y-68582629D01*
X69257114Y-68734201D01*
X69064201Y-68927114D01*
X68912629Y-69153957D01*
X68808225Y-69406011D01*
X68755000Y-69673589D01*
X68755000Y-69946411D01*
X68808225Y-70213989D01*
X68912629Y-70466043D01*
X69064201Y-70692886D01*
X69257114Y-70885799D01*
X69483957Y-71037371D01*
X69583279Y-71078511D01*
X69541168Y-71093723D01*
X69428137Y-71154140D01*
X69362612Y-71393007D01*
X70140000Y-72170395D01*
X70917388Y-71393007D01*
X70851863Y-71154140D01*
X70693523Y-71079836D01*
X70796043Y-71037371D01*
X71022886Y-70885799D01*
X71215799Y-70692886D01*
X71367371Y-70466043D01*
X71471775Y-70213989D01*
X71491980Y-70112408D01*
X72353006Y-70112408D01*
X72353006Y-70387592D01*
X72406692Y-70657490D01*
X72512001Y-70911727D01*
X72664886Y-71140535D01*
X72859471Y-71335120D01*
X73088279Y-71488005D01*
X73342516Y-71593314D01*
X73612414Y-71647000D01*
X73887598Y-71647000D01*
X74157496Y-71593314D01*
X74411733Y-71488005D01*
X74640541Y-71335120D01*
X74835126Y-71140535D01*
X74988011Y-70911727D01*
X75093320Y-70657490D01*
X75147006Y-70387592D01*
X75147006Y-70112408D01*
X75093320Y-69842510D01*
X74988011Y-69588273D01*
X74835126Y-69359465D01*
X74640541Y-69164880D01*
X74411733Y-69011995D01*
X74157496Y-68906686D01*
X73887598Y-68853000D01*
X73612414Y-68853000D01*
X73342516Y-68906686D01*
X73088279Y-69011995D01*
X72859471Y-69164880D01*
X72664886Y-69359465D01*
X72512001Y-69588273D01*
X72406692Y-69842510D01*
X72353006Y-70112408D01*
X71491980Y-70112408D01*
X71525000Y-69946411D01*
X71525000Y-69673589D01*
X71471775Y-69406011D01*
X71367371Y-69153957D01*
X71215799Y-68927114D01*
X71022886Y-68734201D01*
X70796043Y-68582629D01*
X70693127Y-68540000D01*
X70796043Y-68497371D01*
X71022886Y-68345799D01*
X71215799Y-68152886D01*
X71367371Y-67926043D01*
X71471775Y-67673989D01*
X71525000Y-67406411D01*
X71525000Y-67133589D01*
X71471775Y-66866011D01*
X71367371Y-66613957D01*
X71215799Y-66387114D01*
X71022886Y-66194201D01*
X70796043Y-66042629D01*
X70543989Y-65938225D01*
X70276411Y-65885000D01*
X70003589Y-65885000D01*
X69736011Y-65938225D01*
X69483957Y-66042629D01*
X69257114Y-66194201D01*
X69064201Y-66387114D01*
X68988072Y-66501049D01*
X68988072Y-65250000D01*
X68975812Y-65125518D01*
X68939502Y-65005820D01*
X68880537Y-64895506D01*
X68801185Y-64798815D01*
X68704494Y-64719463D01*
X68594180Y-64660498D01*
X68474482Y-64624188D01*
X68350000Y-64611928D01*
X66850000Y-64611928D01*
X66725518Y-64624188D01*
X66605820Y-64660498D01*
X66495506Y-64719463D01*
X66398815Y-64798815D01*
X66319463Y-64895506D01*
X66260498Y-65005820D01*
X66224188Y-65125518D01*
X66211928Y-65250000D01*
X63425351Y-65250000D01*
X63485000Y-64950128D01*
X63485000Y-64509872D01*
X63399110Y-64078075D01*
X63230631Y-63671331D01*
X63199674Y-63625000D01*
X90615000Y-63625000D01*
X90615000Y-71687500D01*
X90626715Y-71808910D01*
X90662377Y-71928174D01*
X90720621Y-72038189D01*
X90799209Y-72134727D01*
X90895121Y-72214079D01*
X91004670Y-72273195D01*
X91123647Y-72309802D01*
X91247480Y-72322495D01*
X122115000Y-72444985D01*
X122115000Y-77750000D01*
X122127201Y-77873882D01*
X122163336Y-77993004D01*
X122222017Y-78102787D01*
X122300987Y-78199013D01*
X122397213Y-78277983D01*
X122506996Y-78336664D01*
X122626118Y-78372799D01*
X122750000Y-78385000D01*
X138865726Y-78385000D01*
X138948075Y-78419110D01*
X139379872Y-78505000D01*
X139820128Y-78505000D01*
X140251925Y-78419110D01*
X140658669Y-78250631D01*
X141024729Y-78006038D01*
X141336038Y-77694729D01*
X141580631Y-77328669D01*
X141749110Y-76921925D01*
X141835000Y-76490128D01*
X141835000Y-76049872D01*
X141749110Y-75618075D01*
X141580631Y-75211331D01*
X141336038Y-74845271D01*
X141024729Y-74533962D01*
X140658669Y-74289369D01*
X140251925Y-74120890D01*
X139956235Y-74062073D01*
X139894146Y-74002131D01*
X139789444Y-73934803D01*
X139673618Y-73889196D01*
X139551119Y-73867061D01*
X139426657Y-73869250D01*
X134638072Y-74426062D01*
X134638072Y-74250000D01*
X134625812Y-74125518D01*
X134589502Y-74005820D01*
X134530537Y-73895506D01*
X134451185Y-73798815D01*
X134354494Y-73719463D01*
X134244180Y-73660498D01*
X134124482Y-73624188D01*
X134000000Y-73611928D01*
X133973914Y-73611928D01*
X134027388Y-73416993D01*
X133250000Y-72639605D01*
X133235858Y-72653748D01*
X133056253Y-72474143D01*
X133070395Y-72460000D01*
X133429605Y-72460000D01*
X134206993Y-73237388D01*
X134445860Y-73171863D01*
X134561760Y-72924884D01*
X134627250Y-72660040D01*
X134639812Y-72387508D01*
X134598965Y-72117762D01*
X134506277Y-71861168D01*
X134445860Y-71748137D01*
X134206993Y-71682612D01*
X133429605Y-72460000D01*
X133070395Y-72460000D01*
X132293007Y-71682612D01*
X132292153Y-71682846D01*
X132079432Y-71404674D01*
X132095000Y-71326411D01*
X132095000Y-71053589D01*
X132041775Y-70786011D01*
X131937371Y-70533957D01*
X131785799Y-70307114D01*
X131592886Y-70114201D01*
X131366043Y-69962629D01*
X131266721Y-69921489D01*
X131308832Y-69906277D01*
X131421863Y-69845860D01*
X131487388Y-69606993D01*
X130710000Y-68829605D01*
X130695858Y-68843748D01*
X130516253Y-68664143D01*
X130530395Y-68650000D01*
X130889605Y-68650000D01*
X131666993Y-69427388D01*
X131905860Y-69361863D01*
X132021760Y-69114884D01*
X132087250Y-68850040D01*
X132099812Y-68577508D01*
X132058965Y-68307762D01*
X131966277Y-68051168D01*
X131905860Y-67938137D01*
X131666993Y-67872612D01*
X130889605Y-68650000D01*
X130530395Y-68650000D01*
X129753007Y-67872612D01*
X129514140Y-67938137D01*
X129398240Y-68185116D01*
X129332750Y-68449960D01*
X129327675Y-68560058D01*
X126559700Y-65973589D01*
X129325000Y-65973589D01*
X129325000Y-66246411D01*
X129378225Y-66513989D01*
X129482629Y-66766043D01*
X129634201Y-66992886D01*
X129827114Y-67185799D01*
X130053957Y-67337371D01*
X130153279Y-67378511D01*
X130111168Y-67393723D01*
X129998137Y-67454140D01*
X129932612Y-67693007D01*
X130710000Y-68470395D01*
X131487388Y-67693007D01*
X131421863Y-67454140D01*
X131263523Y-67379836D01*
X131366043Y-67337371D01*
X131506397Y-67243589D01*
X131865000Y-67243589D01*
X131865000Y-67516411D01*
X131918225Y-67783989D01*
X132022629Y-68036043D01*
X132174201Y-68262886D01*
X132367114Y-68455799D01*
X132593957Y-68607371D01*
X132696873Y-68650000D01*
X132593957Y-68692629D01*
X132367114Y-68844201D01*
X132174201Y-69037114D01*
X132022629Y-69263957D01*
X131918225Y-69516011D01*
X131865000Y-69783589D01*
X131865000Y-70056411D01*
X131918225Y-70323989D01*
X132022629Y-70576043D01*
X132174201Y-70802886D01*
X132367114Y-70995799D01*
X132593957Y-71147371D01*
X132693279Y-71188511D01*
X132651168Y-71203723D01*
X132538137Y-71264140D01*
X132472612Y-71503007D01*
X133250000Y-72280395D01*
X134027388Y-71503007D01*
X133961863Y-71264140D01*
X133803523Y-71189836D01*
X133906043Y-71147371D01*
X134132886Y-70995799D01*
X134325799Y-70802886D01*
X134477371Y-70576043D01*
X134581775Y-70323989D01*
X134635000Y-70056411D01*
X134635000Y-69783589D01*
X134581775Y-69516011D01*
X134477371Y-69263957D01*
X134325799Y-69037114D01*
X134132886Y-68844201D01*
X133906043Y-68692629D01*
X133803127Y-68650000D01*
X133906043Y-68607371D01*
X134132886Y-68455799D01*
X134325799Y-68262886D01*
X134477371Y-68036043D01*
X134581775Y-67783989D01*
X134635000Y-67516411D01*
X134635000Y-67243589D01*
X134581775Y-66976011D01*
X134477371Y-66723957D01*
X134325799Y-66497114D01*
X134132886Y-66304201D01*
X133906043Y-66152629D01*
X133653989Y-66048225D01*
X133386411Y-65995000D01*
X133113589Y-65995000D01*
X132846011Y-66048225D01*
X132593957Y-66152629D01*
X132367114Y-66304201D01*
X132174201Y-66497114D01*
X132022629Y-66723957D01*
X131918225Y-66976011D01*
X131865000Y-67243589D01*
X131506397Y-67243589D01*
X131592886Y-67185799D01*
X131785799Y-66992886D01*
X131937371Y-66766043D01*
X132041775Y-66513989D01*
X132095000Y-66246411D01*
X132095000Y-65973589D01*
X132041775Y-65706011D01*
X131937371Y-65453957D01*
X131785799Y-65227114D01*
X131592886Y-65034201D01*
X131366043Y-64882629D01*
X131113989Y-64778225D01*
X130846411Y-64725000D01*
X130573589Y-64725000D01*
X130306011Y-64778225D01*
X130053957Y-64882629D01*
X129827114Y-65034201D01*
X129634201Y-65227114D01*
X129482629Y-65453957D01*
X129378225Y-65706011D01*
X129325000Y-65973589D01*
X126559700Y-65973589D01*
X125110986Y-64619872D01*
X137365000Y-64619872D01*
X137365000Y-65060128D01*
X137450890Y-65491925D01*
X137619369Y-65898669D01*
X137863962Y-66264729D01*
X138175271Y-66576038D01*
X138541331Y-66820631D01*
X138948075Y-66989110D01*
X139379872Y-67075000D01*
X139820128Y-67075000D01*
X140251925Y-66989110D01*
X140658669Y-66820631D01*
X141024729Y-66576038D01*
X141336038Y-66264729D01*
X141580631Y-65898669D01*
X141749110Y-65491925D01*
X141835000Y-65060128D01*
X141835000Y-64619872D01*
X141749110Y-64188075D01*
X141580631Y-63781331D01*
X141336038Y-63415271D01*
X141024729Y-63103962D01*
X140658669Y-62859369D01*
X140251925Y-62690890D01*
X139820128Y-62605000D01*
X139379872Y-62605000D01*
X138948075Y-62690890D01*
X138541331Y-62859369D01*
X138175271Y-63103962D01*
X137863962Y-63415271D01*
X137619369Y-63781331D01*
X137450890Y-64188075D01*
X137365000Y-64619872D01*
X125110986Y-64619872D01*
X123683543Y-63286033D01*
X123604847Y-63223399D01*
X123495294Y-63164290D01*
X123376314Y-63127690D01*
X123252480Y-63115005D01*
X119117723Y-63098854D01*
X119089502Y-63005820D01*
X119030537Y-62895506D01*
X118951185Y-62798815D01*
X118854494Y-62719463D01*
X118744180Y-62660498D01*
X118624482Y-62624188D01*
X118500000Y-62611928D01*
X114500000Y-62611928D01*
X114375518Y-62624188D01*
X114255820Y-62660498D01*
X114145506Y-62719463D01*
X114048815Y-62798815D01*
X113969463Y-62895506D01*
X113910498Y-63005820D01*
X113888473Y-63078427D01*
X91252480Y-62990005D01*
X91126118Y-63002201D01*
X91006996Y-63038336D01*
X90897213Y-63097017D01*
X90800987Y-63175987D01*
X90722017Y-63272213D01*
X90663336Y-63381996D01*
X90627201Y-63501118D01*
X90615000Y-63625000D01*
X63199674Y-63625000D01*
X62986038Y-63305271D01*
X62674729Y-62993962D01*
X62308669Y-62749369D01*
X61901925Y-62580890D01*
X61470128Y-62495000D01*
X61029872Y-62495000D01*
X60598075Y-62580890D01*
X60191331Y-62749369D01*
X59825271Y-62993962D01*
X59513962Y-63305271D01*
X59269369Y-63671331D01*
X59100890Y-64078075D01*
X59015000Y-64509872D01*
X58660000Y-64509872D01*
X58660000Y-57500324D01*
X58715000Y-57500324D01*
X58715000Y-57999676D01*
X58812418Y-58489432D01*
X59003512Y-58950773D01*
X59280937Y-59365968D01*
X59634032Y-59719063D01*
X60049227Y-59996488D01*
X60510568Y-60187582D01*
X61000324Y-60285000D01*
X61499676Y-60285000D01*
X61989432Y-60187582D01*
X62450773Y-59996488D01*
X62865968Y-59719063D01*
X63219063Y-59365968D01*
X63496488Y-58950773D01*
X63687582Y-58489432D01*
X63785000Y-57999676D01*
X63785000Y-57500324D01*
X137215000Y-57500324D01*
X137215000Y-57999676D01*
X137312418Y-58489432D01*
X137503512Y-58950773D01*
X137780937Y-59365968D01*
X138134032Y-59719063D01*
X138549227Y-59996488D01*
X139010568Y-60187582D01*
X139500324Y-60285000D01*
X139999676Y-60285000D01*
X140489432Y-60187582D01*
X140950773Y-59996488D01*
X141365968Y-59719063D01*
X141719063Y-59365968D01*
X141996488Y-58950773D01*
X142187582Y-58489432D01*
X142285000Y-57999676D01*
X142285000Y-57500324D01*
X142187582Y-57010568D01*
X141996488Y-56549227D01*
X141719063Y-56134032D01*
X141365968Y-55780937D01*
X140950773Y-55503512D01*
X140489432Y-55312418D01*
X139999676Y-55215000D01*
X139500324Y-55215000D01*
X139010568Y-55312418D01*
X138549227Y-55503512D01*
X138134032Y-55780937D01*
X137780937Y-56134032D01*
X137503512Y-56549227D01*
X137312418Y-57010568D01*
X137215000Y-57500324D01*
X63785000Y-57500324D01*
X63687582Y-57010568D01*
X63496488Y-56549227D01*
X63219063Y-56134032D01*
X62865968Y-55780937D01*
X62450773Y-55503512D01*
X61989432Y-55312418D01*
X61499676Y-55215000D01*
X61000324Y-55215000D01*
X60510568Y-55312418D01*
X60049227Y-55503512D01*
X59634032Y-55780937D01*
X59280937Y-56134032D01*
X59003512Y-56549227D01*
X58812418Y-57010568D01*
X58715000Y-57500324D01*
X58660000Y-57500324D01*
X58660000Y-55160000D01*
X142340001Y-55160000D01*
X142340000Y-85340000D01*
G36*
X113862986Y-63840333D02*
G01*
X113865000Y-64964250D01*
X114023750Y-65123000D01*
X116373000Y-65123000D01*
X116373000Y-65103000D01*
X116627000Y-65103000D01*
X116627000Y-65123000D01*
X118976250Y-65123000D01*
X119135000Y-64964250D01*
X119136977Y-63860934D01*
X123199689Y-63876804D01*
X129854917Y-70095624D01*
X129827114Y-70114201D01*
X129634201Y-70307114D01*
X129482629Y-70533957D01*
X129378225Y-70786011D01*
X129325000Y-71053589D01*
X129325000Y-71326411D01*
X129378225Y-71593989D01*
X129482629Y-71846043D01*
X129634201Y-72072886D01*
X129827114Y-72265799D01*
X130053957Y-72417371D01*
X130153279Y-72458511D01*
X130111168Y-72473723D01*
X129998137Y-72534140D01*
X129932612Y-72773007D01*
X130710000Y-73550395D01*
X131487388Y-72773007D01*
X131421863Y-72534140D01*
X131263523Y-72459836D01*
X131366043Y-72417371D01*
X131592886Y-72265799D01*
X131698166Y-72160519D01*
X131865000Y-72378686D01*
X131865000Y-72596411D01*
X131918225Y-72863989D01*
X132022629Y-73116043D01*
X132174201Y-73342886D01*
X132367114Y-73535799D01*
X132483483Y-73613555D01*
X132375518Y-73624188D01*
X132255820Y-73660498D01*
X132145506Y-73719463D01*
X132095048Y-73760873D01*
X132099812Y-73657508D01*
X132058965Y-73387762D01*
X131966277Y-73131168D01*
X131905860Y-73018137D01*
X131666993Y-72952612D01*
X130889605Y-73730000D01*
X131666993Y-74507388D01*
X131863275Y-74453545D01*
X131865000Y-74714250D01*
X132023750Y-74873000D01*
X133123000Y-74873000D01*
X133123000Y-74853000D01*
X133377000Y-74853000D01*
X133377000Y-74873000D01*
X133397000Y-74873000D01*
X133397000Y-75127000D01*
X133377000Y-75127000D01*
X133377000Y-76226250D01*
X133535750Y-76385000D01*
X134000000Y-76388072D01*
X134124482Y-76375812D01*
X134244180Y-76339502D01*
X134354494Y-76280537D01*
X134451185Y-76201185D01*
X134530537Y-76104494D01*
X134589502Y-75994180D01*
X134625812Y-75874482D01*
X134638072Y-75750000D01*
X134635000Y-75285750D01*
X134552407Y-75203157D01*
X137894717Y-74814516D01*
X137863962Y-74845271D01*
X137619369Y-75211331D01*
X137450890Y-75618075D01*
X137365000Y-76049872D01*
X137365000Y-76490128D01*
X137450890Y-76921925D01*
X137619369Y-77328669D01*
X137816034Y-77623000D01*
X122877000Y-77623000D01*
X122877000Y-75750000D01*
X131861928Y-75750000D01*
X131874188Y-75874482D01*
X131910498Y-75994180D01*
X131969463Y-76104494D01*
X132048815Y-76201185D01*
X132145506Y-76280537D01*
X132255820Y-76339502D01*
X132375518Y-76375812D01*
X132500000Y-76388072D01*
X132964250Y-76385000D01*
X133123000Y-76226250D01*
X133123000Y-75127000D01*
X132023750Y-75127000D01*
X131865000Y-75285750D01*
X131861928Y-75750000D01*
X122877000Y-75750000D01*
X122877000Y-74686993D01*
X129932612Y-74686993D01*
X129998137Y-74925860D01*
X130245116Y-75041760D01*
X130509960Y-75107250D01*
X130782492Y-75119812D01*
X131052238Y-75078965D01*
X131308832Y-74986277D01*
X131421863Y-74925860D01*
X131487388Y-74686993D01*
X130710000Y-73909605D01*
X129932612Y-74686993D01*
X122877000Y-74686993D01*
X122877000Y-73802492D01*
X129320188Y-73802492D01*
X129361035Y-74072238D01*
X129453723Y-74328832D01*
X129514140Y-74441863D01*
X129753007Y-74507388D01*
X130530395Y-73730000D01*
X129753007Y-72952612D01*
X129514140Y-73018137D01*
X129398240Y-73265116D01*
X129332750Y-73529960D01*
X129320188Y-73802492D01*
X122877000Y-73802492D01*
X122877000Y-71812500D01*
X122874560Y-71787724D01*
X122867333Y-71763899D01*
X122855597Y-71741943D01*
X122839803Y-71722697D01*
X122820557Y-71706903D01*
X122798601Y-71695167D01*
X122774776Y-71687940D01*
X122750504Y-71685501D01*
X102608974Y-71605574D01*
X102853023Y-71517636D01*
X102968980Y-71455656D01*
X103035960Y-71215565D01*
X102250000Y-70429605D01*
X101464040Y-71215565D01*
X101531020Y-71455656D01*
X101780048Y-71572756D01*
X101900998Y-71602765D01*
X91377000Y-71561003D01*
X91377000Y-70322017D01*
X100848090Y-70322017D01*
X100889078Y-70594133D01*
X100982364Y-70853023D01*
X101044344Y-70968980D01*
X101284435Y-71035960D01*
X102070395Y-70250000D01*
X102429605Y-70250000D01*
X103215565Y-71035960D01*
X103455656Y-70968980D01*
X103572756Y-70719952D01*
X103639023Y-70452865D01*
X103651910Y-70177983D01*
X103610922Y-69905867D01*
X103517636Y-69646977D01*
X103455656Y-69531020D01*
X103215565Y-69464040D01*
X102429605Y-70250000D01*
X102070395Y-70250000D01*
X101284435Y-69464040D01*
X101044344Y-69531020D01*
X100927244Y-69780048D01*
X100860977Y-70047135D01*
X100848090Y-70322017D01*
X91377000Y-70322017D01*
X91377000Y-69284435D01*
X101464040Y-69284435D01*
X102250000Y-70070395D01*
X103035960Y-69284435D01*
X102968980Y-69044344D01*
X102719952Y-68927244D01*
X102452865Y-68860977D01*
X102177983Y-68848090D01*
X101905867Y-68889078D01*
X101646977Y-68982364D01*
X101531020Y-69044344D01*
X101464040Y-69284435D01*
X91377000Y-69284435D01*
X91377000Y-67250000D01*
X113861928Y-67250000D01*
X113874188Y-67374482D01*
X113910498Y-67494180D01*
X113969463Y-67604494D01*
X114048815Y-67701185D01*
X114145506Y-67780537D01*
X114255820Y-67839502D01*
X114375518Y-67875812D01*
X114500000Y-67888072D01*
X116214250Y-67885000D01*
X116373000Y-67726250D01*
X116373000Y-65377000D01*
X116627000Y-65377000D01*
X116627000Y-67726250D01*
X116785750Y-67885000D01*
X118500000Y-67888072D01*
X118624482Y-67875812D01*
X118744180Y-67839502D01*
X118854494Y-67780537D01*
X118951185Y-67701185D01*
X119030537Y-67604494D01*
X119089502Y-67494180D01*
X119125812Y-67374482D01*
X119138072Y-67250000D01*
X119135000Y-65535750D01*
X118976250Y-65377000D01*
X116627000Y-65377000D01*
X116373000Y-65377000D01*
X114023750Y-65377000D01*
X113865000Y-65535750D01*
X113861928Y-67250000D01*
X91377000Y-67250000D01*
X91377000Y-63752497D01*
X113862986Y-63840333D01*
X113862986Y-63840333D01*
G37*
X113862986Y-63840333D02*
X113865000Y-64964250D01*
X114023750Y-65123000D01*
X116373000Y-65123000D01*
X116373000Y-65103000D01*
X116627000Y-65103000D01*
X116627000Y-65123000D01*
X118976250Y-65123000D01*
X119135000Y-64964250D01*
X119136977Y-63860934D01*
X123199689Y-63876804D01*
X129854917Y-70095624D01*
X129827114Y-70114201D01*
X129634201Y-70307114D01*
X129482629Y-70533957D01*
X129378225Y-70786011D01*
X129325000Y-71053589D01*
X129325000Y-71326411D01*
X129378225Y-71593989D01*
X129482629Y-71846043D01*
X129634201Y-72072886D01*
X129827114Y-72265799D01*
X130053957Y-72417371D01*
X130153279Y-72458511D01*
X130111168Y-72473723D01*
X129998137Y-72534140D01*
X129932612Y-72773007D01*
X130710000Y-73550395D01*
X131487388Y-72773007D01*
X131421863Y-72534140D01*
X131263523Y-72459836D01*
X131366043Y-72417371D01*
X131592886Y-72265799D01*
X131698166Y-72160519D01*
X131865000Y-72378686D01*
X131865000Y-72596411D01*
X131918225Y-72863989D01*
X132022629Y-73116043D01*
X132174201Y-73342886D01*
X132367114Y-73535799D01*
X132483483Y-73613555D01*
X132375518Y-73624188D01*
X132255820Y-73660498D01*
X132145506Y-73719463D01*
X132095048Y-73760873D01*
X132099812Y-73657508D01*
X132058965Y-73387762D01*
X131966277Y-73131168D01*
X131905860Y-73018137D01*
X131666993Y-72952612D01*
X130889605Y-73730000D01*
X131666993Y-74507388D01*
X131863275Y-74453545D01*
X131865000Y-74714250D01*
X132023750Y-74873000D01*
X133123000Y-74873000D01*
X133123000Y-74853000D01*
X133377000Y-74853000D01*
X133377000Y-74873000D01*
X133397000Y-74873000D01*
X133397000Y-75127000D01*
X133377000Y-75127000D01*
X133377000Y-76226250D01*
X133535750Y-76385000D01*
X134000000Y-76388072D01*
X134124482Y-76375812D01*
X134244180Y-76339502D01*
X134354494Y-76280537D01*
X134451185Y-76201185D01*
X134530537Y-76104494D01*
X134589502Y-75994180D01*
X134625812Y-75874482D01*
X134638072Y-75750000D01*
X134635000Y-75285750D01*
X134552407Y-75203157D01*
X137894717Y-74814516D01*
X137863962Y-74845271D01*
X137619369Y-75211331D01*
X137450890Y-75618075D01*
X137365000Y-76049872D01*
X137365000Y-76490128D01*
X137450890Y-76921925D01*
X137619369Y-77328669D01*
X137816034Y-77623000D01*
X122877000Y-77623000D01*
X122877000Y-75750000D01*
X131861928Y-75750000D01*
X131874188Y-75874482D01*
X131910498Y-75994180D01*
X131969463Y-76104494D01*
X132048815Y-76201185D01*
X132145506Y-76280537D01*
X132255820Y-76339502D01*
X132375518Y-76375812D01*
X132500000Y-76388072D01*
X132964250Y-76385000D01*
X133123000Y-76226250D01*
X133123000Y-75127000D01*
X132023750Y-75127000D01*
X131865000Y-75285750D01*
X131861928Y-75750000D01*
X122877000Y-75750000D01*
X122877000Y-74686993D01*
X129932612Y-74686993D01*
X129998137Y-74925860D01*
X130245116Y-75041760D01*
X130509960Y-75107250D01*
X130782492Y-75119812D01*
X131052238Y-75078965D01*
X131308832Y-74986277D01*
X131421863Y-74925860D01*
X131487388Y-74686993D01*
X130710000Y-73909605D01*
X129932612Y-74686993D01*
X122877000Y-74686993D01*
X122877000Y-73802492D01*
X129320188Y-73802492D01*
X129361035Y-74072238D01*
X129453723Y-74328832D01*
X129514140Y-74441863D01*
X129753007Y-74507388D01*
X130530395Y-73730000D01*
X129753007Y-72952612D01*
X129514140Y-73018137D01*
X129398240Y-73265116D01*
X129332750Y-73529960D01*
X129320188Y-73802492D01*
X122877000Y-73802492D01*
X122877000Y-71812500D01*
X122874560Y-71787724D01*
X122867333Y-71763899D01*
X122855597Y-71741943D01*
X122839803Y-71722697D01*
X122820557Y-71706903D01*
X122798601Y-71695167D01*
X122774776Y-71687940D01*
X122750504Y-71685501D01*
X102608974Y-71605574D01*
X102853023Y-71517636D01*
X102968980Y-71455656D01*
X103035960Y-71215565D01*
X102250000Y-70429605D01*
X101464040Y-71215565D01*
X101531020Y-71455656D01*
X101780048Y-71572756D01*
X101900998Y-71602765D01*
X91377000Y-71561003D01*
X91377000Y-70322017D01*
X100848090Y-70322017D01*
X100889078Y-70594133D01*
X100982364Y-70853023D01*
X101044344Y-70968980D01*
X101284435Y-71035960D01*
X102070395Y-70250000D01*
X102429605Y-70250000D01*
X103215565Y-71035960D01*
X103455656Y-70968980D01*
X103572756Y-70719952D01*
X103639023Y-70452865D01*
X103651910Y-70177983D01*
X103610922Y-69905867D01*
X103517636Y-69646977D01*
X103455656Y-69531020D01*
X103215565Y-69464040D01*
X102429605Y-70250000D01*
X102070395Y-70250000D01*
X101284435Y-69464040D01*
X101044344Y-69531020D01*
X100927244Y-69780048D01*
X100860977Y-70047135D01*
X100848090Y-70322017D01*
X91377000Y-70322017D01*
X91377000Y-69284435D01*
X101464040Y-69284435D01*
X102250000Y-70070395D01*
X103035960Y-69284435D01*
X102968980Y-69044344D01*
X102719952Y-68927244D01*
X102452865Y-68860977D01*
X102177983Y-68848090D01*
X101905867Y-68889078D01*
X101646977Y-68982364D01*
X101531020Y-69044344D01*
X101464040Y-69284435D01*
X91377000Y-69284435D01*
X91377000Y-67250000D01*
X113861928Y-67250000D01*
X113874188Y-67374482D01*
X113910498Y-67494180D01*
X113969463Y-67604494D01*
X114048815Y-67701185D01*
X114145506Y-67780537D01*
X114255820Y-67839502D01*
X114375518Y-67875812D01*
X114500000Y-67888072D01*
X116214250Y-67885000D01*
X116373000Y-67726250D01*
X116373000Y-65377000D01*
X116627000Y-65377000D01*
X116627000Y-67726250D01*
X116785750Y-67885000D01*
X118500000Y-67888072D01*
X118624482Y-67875812D01*
X118744180Y-67839502D01*
X118854494Y-67780537D01*
X118951185Y-67701185D01*
X119030537Y-67604494D01*
X119089502Y-67494180D01*
X119125812Y-67374482D01*
X119138072Y-67250000D01*
X119135000Y-65535750D01*
X118976250Y-65377000D01*
X116627000Y-65377000D01*
X116373000Y-65377000D01*
X114023750Y-65377000D01*
X113865000Y-65535750D01*
X113861928Y-67250000D01*
X91377000Y-67250000D01*
X91377000Y-63752497D01*
X113862986Y-63840333D01*
M02*
