G04 #@! TF.GenerationSoftware,KiCad,Pcbnew,(5.1.4)-1*
G04 #@! TF.CreationDate,2020-02-13T15:41:24-05:00*
G04 #@! TF.ProjectId,PowerFilter,506f7765-7246-4696-9c74-65722e6b6963,rev?*
G04 #@! TF.SameCoordinates,Original*
G04 #@! TF.FileFunction,Copper,L1,Top*
G04 #@! TF.FilePolarity,Positive*
%FSLAX46Y46*%
G04 Gerber Fmt 4.6, Leading zero omitted, Abs format (unit mm)*
G04 Created by KiCad (PCBNEW (5.1.4)-1) date 2020-02-13 15:41:24*
%MOMM*%
%LPD*%
G04 APERTURE LIST*
%ADD10C,3.800000*%
%ADD11C,1.524000*%
%ADD12C,1.500000*%
%ADD13R,1.500000X1.500000*%
%ADD14C,4.000000*%
%ADD15R,4.000000X4.000000*%
%ADD16C,0.635000*%
%ADD17C,0.254000*%
G04 APERTURE END LIST*
D10*
X139750000Y-57750000D03*
X139750000Y-82500000D03*
X61250000Y-82750000D03*
X61250000Y-57750000D03*
D11*
X102250000Y-70250000D03*
X73750006Y-70250000D03*
D12*
X130710000Y-66110000D03*
X133250000Y-67380000D03*
X130710000Y-68650000D03*
X133250000Y-69920000D03*
X130710000Y-71190000D03*
X133250000Y-72460000D03*
X130710000Y-73730000D03*
D13*
X133250000Y-75000000D03*
D12*
X70140000Y-74890000D03*
X67600000Y-73620000D03*
X70140000Y-72350000D03*
X67600000Y-71080000D03*
X70140000Y-69810000D03*
X67600000Y-68540000D03*
X70140000Y-67270000D03*
D13*
X67600000Y-66000000D03*
D14*
X116500000Y-75250000D03*
D15*
X116500000Y-65250000D03*
D16*
X129960001Y-66859999D02*
X130710000Y-66110000D01*
X124087501Y-72732499D02*
X129960001Y-66859999D01*
X72297501Y-72732499D02*
X124087501Y-72732499D01*
X70140000Y-74890000D02*
X72297501Y-72732499D01*
X67600000Y-75850000D02*
X71250000Y-79500000D01*
X67600000Y-73620000D02*
X67600000Y-75850000D01*
X133999999Y-68129999D02*
X133250000Y-67380000D01*
X71250000Y-79500000D02*
X131181502Y-79500000D01*
X131181502Y-79500000D02*
X134517501Y-76164001D01*
X134517501Y-76164001D02*
X134517501Y-68647501D01*
X134517501Y-68647501D02*
X133999999Y-68129999D01*
X131982499Y-64236597D02*
X131982499Y-68652499D01*
X132500001Y-69170001D02*
X133250000Y-69920000D01*
X130478401Y-62732499D02*
X131982499Y-64236597D01*
X68435999Y-62732499D02*
X130478401Y-62732499D01*
X66332499Y-70873159D02*
X66332499Y-64835999D01*
X66539340Y-71080000D02*
X66332499Y-70873159D01*
X131982499Y-68652499D02*
X132500001Y-69170001D01*
X66332499Y-64835999D02*
X68435999Y-62732499D01*
X67600000Y-71080000D02*
X66539340Y-71080000D01*
X68872499Y-71077501D02*
X70140000Y-69810000D01*
X68872499Y-75872499D02*
X68872499Y-71077501D01*
X70767501Y-77767501D02*
X68872499Y-75872499D01*
X130710000Y-71190000D02*
X124132499Y-77767501D01*
X124132499Y-77767501D02*
X70767501Y-77767501D01*
D17*
G36*
X90873000Y-71623000D02*
G01*
X74013954Y-71623000D01*
X74094139Y-71610922D01*
X74353029Y-71517636D01*
X74468986Y-71455656D01*
X74535966Y-71215565D01*
X73750006Y-70429605D01*
X72964046Y-71215565D01*
X73031026Y-71455656D01*
X73280054Y-71572756D01*
X73482561Y-71623000D01*
X72040422Y-71623000D01*
X71010938Y-70893782D01*
X71022886Y-70885799D01*
X71215799Y-70692886D01*
X71367371Y-70466043D01*
X71427028Y-70322017D01*
X72348096Y-70322017D01*
X72389084Y-70594133D01*
X72482370Y-70853023D01*
X72544350Y-70968980D01*
X72784441Y-71035960D01*
X73570401Y-70250000D01*
X73929611Y-70250000D01*
X74715571Y-71035960D01*
X74955662Y-70968980D01*
X75072762Y-70719952D01*
X75139029Y-70452865D01*
X75151916Y-70177983D01*
X75110928Y-69905867D01*
X75017642Y-69646977D01*
X74955662Y-69531020D01*
X74715571Y-69464040D01*
X73929611Y-70250000D01*
X73570401Y-70250000D01*
X72784441Y-69464040D01*
X72544350Y-69531020D01*
X72427250Y-69780048D01*
X72360983Y-70047135D01*
X72348096Y-70322017D01*
X71427028Y-70322017D01*
X71471775Y-70213989D01*
X71525000Y-69946411D01*
X71525000Y-69673589D01*
X71471775Y-69406011D01*
X71421417Y-69284435D01*
X72964046Y-69284435D01*
X73750006Y-70070395D01*
X74535966Y-69284435D01*
X74468986Y-69044344D01*
X74219958Y-68927244D01*
X73952871Y-68860977D01*
X73677989Y-68848090D01*
X73405873Y-68889078D01*
X73146983Y-68982364D01*
X73031026Y-69044344D01*
X72964046Y-69284435D01*
X71421417Y-69284435D01*
X71367371Y-69153957D01*
X71215799Y-68927114D01*
X71022886Y-68734201D01*
X70796043Y-68582629D01*
X70696721Y-68541489D01*
X70738832Y-68526277D01*
X70851863Y-68465860D01*
X70917388Y-68226993D01*
X70140000Y-67449605D01*
X69362612Y-68226993D01*
X69428137Y-68465860D01*
X69586477Y-68540164D01*
X69483957Y-68582629D01*
X69257114Y-68734201D01*
X69064201Y-68927114D01*
X68912629Y-69153957D01*
X68831438Y-69349969D01*
X68758868Y-69298565D01*
X68827371Y-69196043D01*
X68931775Y-68943989D01*
X68985000Y-68676411D01*
X68985000Y-68403589D01*
X68931775Y-68136011D01*
X68827371Y-67883957D01*
X68675799Y-67657114D01*
X68482886Y-67464201D01*
X68366517Y-67386445D01*
X68474482Y-67375812D01*
X68594180Y-67339502D01*
X68704494Y-67280537D01*
X68754952Y-67239127D01*
X68750188Y-67342492D01*
X68791035Y-67612238D01*
X68883723Y-67868832D01*
X68944140Y-67981863D01*
X69183007Y-68047388D01*
X69960395Y-67270000D01*
X70319605Y-67270000D01*
X71096993Y-68047388D01*
X71335860Y-67981863D01*
X71451760Y-67734884D01*
X71517250Y-67470040D01*
X71529812Y-67197508D01*
X71488965Y-66927762D01*
X71396277Y-66671168D01*
X71335860Y-66558137D01*
X71096993Y-66492612D01*
X70319605Y-67270000D01*
X69960395Y-67270000D01*
X69183007Y-66492612D01*
X68986725Y-66546455D01*
X68985181Y-66313007D01*
X69362612Y-66313007D01*
X70140000Y-67090395D01*
X70917388Y-66313007D01*
X70851863Y-66074140D01*
X70604884Y-65958240D01*
X70340040Y-65892750D01*
X70067508Y-65880188D01*
X69797762Y-65921035D01*
X69541168Y-66013723D01*
X69428137Y-66074140D01*
X69362612Y-66313007D01*
X68985181Y-66313007D01*
X68985000Y-66285750D01*
X68826250Y-66127000D01*
X67727000Y-66127000D01*
X67727000Y-66147000D01*
X67473000Y-66147000D01*
X67473000Y-66127000D01*
X67453000Y-66127000D01*
X67453000Y-65873000D01*
X67473000Y-65873000D01*
X67473000Y-65853000D01*
X67727000Y-65853000D01*
X67727000Y-65873000D01*
X68826250Y-65873000D01*
X68985000Y-65714250D01*
X68988072Y-65250000D01*
X68975812Y-65125518D01*
X68939502Y-65005820D01*
X68880537Y-64895506D01*
X68801185Y-64798815D01*
X68704494Y-64719463D01*
X68594180Y-64660498D01*
X68474482Y-64624188D01*
X68350000Y-64611928D01*
X67900635Y-64614902D01*
X68830538Y-63684999D01*
X90873000Y-63684999D01*
X90873000Y-71623000D01*
X90873000Y-71623000D01*
G37*
X90873000Y-71623000D02*
X74013954Y-71623000D01*
X74094139Y-71610922D01*
X74353029Y-71517636D01*
X74468986Y-71455656D01*
X74535966Y-71215565D01*
X73750006Y-70429605D01*
X72964046Y-71215565D01*
X73031026Y-71455656D01*
X73280054Y-71572756D01*
X73482561Y-71623000D01*
X72040422Y-71623000D01*
X71010938Y-70893782D01*
X71022886Y-70885799D01*
X71215799Y-70692886D01*
X71367371Y-70466043D01*
X71427028Y-70322017D01*
X72348096Y-70322017D01*
X72389084Y-70594133D01*
X72482370Y-70853023D01*
X72544350Y-70968980D01*
X72784441Y-71035960D01*
X73570401Y-70250000D01*
X73929611Y-70250000D01*
X74715571Y-71035960D01*
X74955662Y-70968980D01*
X75072762Y-70719952D01*
X75139029Y-70452865D01*
X75151916Y-70177983D01*
X75110928Y-69905867D01*
X75017642Y-69646977D01*
X74955662Y-69531020D01*
X74715571Y-69464040D01*
X73929611Y-70250000D01*
X73570401Y-70250000D01*
X72784441Y-69464040D01*
X72544350Y-69531020D01*
X72427250Y-69780048D01*
X72360983Y-70047135D01*
X72348096Y-70322017D01*
X71427028Y-70322017D01*
X71471775Y-70213989D01*
X71525000Y-69946411D01*
X71525000Y-69673589D01*
X71471775Y-69406011D01*
X71421417Y-69284435D01*
X72964046Y-69284435D01*
X73750006Y-70070395D01*
X74535966Y-69284435D01*
X74468986Y-69044344D01*
X74219958Y-68927244D01*
X73952871Y-68860977D01*
X73677989Y-68848090D01*
X73405873Y-68889078D01*
X73146983Y-68982364D01*
X73031026Y-69044344D01*
X72964046Y-69284435D01*
X71421417Y-69284435D01*
X71367371Y-69153957D01*
X71215799Y-68927114D01*
X71022886Y-68734201D01*
X70796043Y-68582629D01*
X70696721Y-68541489D01*
X70738832Y-68526277D01*
X70851863Y-68465860D01*
X70917388Y-68226993D01*
X70140000Y-67449605D01*
X69362612Y-68226993D01*
X69428137Y-68465860D01*
X69586477Y-68540164D01*
X69483957Y-68582629D01*
X69257114Y-68734201D01*
X69064201Y-68927114D01*
X68912629Y-69153957D01*
X68831438Y-69349969D01*
X68758868Y-69298565D01*
X68827371Y-69196043D01*
X68931775Y-68943989D01*
X68985000Y-68676411D01*
X68985000Y-68403589D01*
X68931775Y-68136011D01*
X68827371Y-67883957D01*
X68675799Y-67657114D01*
X68482886Y-67464201D01*
X68366517Y-67386445D01*
X68474482Y-67375812D01*
X68594180Y-67339502D01*
X68704494Y-67280537D01*
X68754952Y-67239127D01*
X68750188Y-67342492D01*
X68791035Y-67612238D01*
X68883723Y-67868832D01*
X68944140Y-67981863D01*
X69183007Y-68047388D01*
X69960395Y-67270000D01*
X70319605Y-67270000D01*
X71096993Y-68047388D01*
X71335860Y-67981863D01*
X71451760Y-67734884D01*
X71517250Y-67470040D01*
X71529812Y-67197508D01*
X71488965Y-66927762D01*
X71396277Y-66671168D01*
X71335860Y-66558137D01*
X71096993Y-66492612D01*
X70319605Y-67270000D01*
X69960395Y-67270000D01*
X69183007Y-66492612D01*
X68986725Y-66546455D01*
X68985181Y-66313007D01*
X69362612Y-66313007D01*
X70140000Y-67090395D01*
X70917388Y-66313007D01*
X70851863Y-66074140D01*
X70604884Y-65958240D01*
X70340040Y-65892750D01*
X70067508Y-65880188D01*
X69797762Y-65921035D01*
X69541168Y-66013723D01*
X69428137Y-66074140D01*
X69362612Y-66313007D01*
X68985181Y-66313007D01*
X68985000Y-66285750D01*
X68826250Y-66127000D01*
X67727000Y-66127000D01*
X67727000Y-66147000D01*
X67473000Y-66147000D01*
X67473000Y-66127000D01*
X67453000Y-66127000D01*
X67453000Y-65873000D01*
X67473000Y-65873000D01*
X67473000Y-65853000D01*
X67727000Y-65853000D01*
X67727000Y-65873000D01*
X68826250Y-65873000D01*
X68985000Y-65714250D01*
X68988072Y-65250000D01*
X68975812Y-65125518D01*
X68939502Y-65005820D01*
X68880537Y-64895506D01*
X68801185Y-64798815D01*
X68704494Y-64719463D01*
X68594180Y-64660498D01*
X68474482Y-64624188D01*
X68350000Y-64611928D01*
X67900635Y-64614902D01*
X68830538Y-63684999D01*
X90873000Y-63684999D01*
X90873000Y-71623000D01*
G36*
X142340000Y-72373000D02*
G01*
X135470001Y-72373000D01*
X135470001Y-68694285D01*
X135474609Y-68647500D01*
X135456218Y-68460778D01*
X135421339Y-68345799D01*
X135401753Y-68281232D01*
X135313307Y-68115760D01*
X135194279Y-67970723D01*
X135157927Y-67940890D01*
X134706605Y-67489567D01*
X134706600Y-67489561D01*
X134635000Y-67417961D01*
X134635000Y-67243589D01*
X134581775Y-66976011D01*
X134477371Y-66723957D01*
X134325799Y-66497114D01*
X134132886Y-66304201D01*
X133906043Y-66152629D01*
X133653989Y-66048225D01*
X133386411Y-65995000D01*
X133113589Y-65995000D01*
X132846011Y-66048225D01*
X132593957Y-66152629D01*
X132367114Y-66304201D01*
X132174201Y-66497114D01*
X132022629Y-66723957D01*
X131918225Y-66976011D01*
X131865000Y-67243589D01*
X131865000Y-67516411D01*
X131918225Y-67783989D01*
X132022629Y-68036043D01*
X132174201Y-68262886D01*
X132367114Y-68455799D01*
X132593957Y-68607371D01*
X132693279Y-68648511D01*
X132651168Y-68663723D01*
X132538137Y-68724140D01*
X132472612Y-68963007D01*
X133250000Y-69740395D01*
X133264143Y-69726253D01*
X133443748Y-69905858D01*
X133429605Y-69920000D01*
X133443748Y-69934143D01*
X133264143Y-70113748D01*
X133250000Y-70099605D01*
X132472612Y-70876993D01*
X132538137Y-71115860D01*
X132696477Y-71190164D01*
X132593957Y-71232629D01*
X132367114Y-71384201D01*
X132174201Y-71577114D01*
X132022629Y-71803957D01*
X131918225Y-72056011D01*
X131865000Y-72323589D01*
X131865000Y-72373000D01*
X131432449Y-72373000D01*
X131592886Y-72265799D01*
X131785799Y-72072886D01*
X131937371Y-71846043D01*
X132041775Y-71593989D01*
X132095000Y-71326411D01*
X132095000Y-71053589D01*
X132041775Y-70786011D01*
X131937371Y-70533957D01*
X131785799Y-70307114D01*
X131592886Y-70114201D01*
X131410737Y-69992492D01*
X131860188Y-69992492D01*
X131901035Y-70262238D01*
X131993723Y-70518832D01*
X132054140Y-70631863D01*
X132293007Y-70697388D01*
X133070395Y-69920000D01*
X132293007Y-69142612D01*
X132054140Y-69208137D01*
X131938240Y-69455116D01*
X131872750Y-69719960D01*
X131860188Y-69992492D01*
X131410737Y-69992492D01*
X131366043Y-69962629D01*
X131263127Y-69920000D01*
X131366043Y-69877371D01*
X131592886Y-69725799D01*
X131785799Y-69532886D01*
X131937371Y-69306043D01*
X132041775Y-69053989D01*
X132095000Y-68786411D01*
X132095000Y-68513589D01*
X132041775Y-68246011D01*
X131937371Y-67993957D01*
X131785799Y-67767114D01*
X131592886Y-67574201D01*
X131366043Y-67422629D01*
X131263127Y-67380000D01*
X131366043Y-67337371D01*
X131592886Y-67185799D01*
X131785799Y-66992886D01*
X131937371Y-66766043D01*
X132041775Y-66513989D01*
X132095000Y-66246411D01*
X132095000Y-65973589D01*
X132041775Y-65706011D01*
X131937371Y-65453957D01*
X131785799Y-65227114D01*
X131592886Y-65034201D01*
X131366043Y-64882629D01*
X131113989Y-64778225D01*
X130846411Y-64725000D01*
X130573589Y-64725000D01*
X130306011Y-64778225D01*
X130053957Y-64882629D01*
X129827114Y-65034201D01*
X129634201Y-65227114D01*
X129482629Y-65453957D01*
X129378225Y-65706011D01*
X129325000Y-65973589D01*
X129325000Y-66147962D01*
X129319568Y-66153394D01*
X129319563Y-66153398D01*
X123692963Y-71779999D01*
X91632045Y-71779999D01*
X91635000Y-71750000D01*
X91635000Y-70112408D01*
X100853000Y-70112408D01*
X100853000Y-70387592D01*
X100906686Y-70657490D01*
X101011995Y-70911727D01*
X101164880Y-71140535D01*
X101359465Y-71335120D01*
X101588273Y-71488005D01*
X101842510Y-71593314D01*
X102112408Y-71647000D01*
X102387592Y-71647000D01*
X102657490Y-71593314D01*
X102911727Y-71488005D01*
X103140535Y-71335120D01*
X103335120Y-71140535D01*
X103488005Y-70911727D01*
X103593314Y-70657490D01*
X103647000Y-70387592D01*
X103647000Y-70112408D01*
X103593314Y-69842510D01*
X103488005Y-69588273D01*
X103335120Y-69359465D01*
X103140535Y-69164880D01*
X102911727Y-69011995D01*
X102657490Y-68906686D01*
X102387592Y-68853000D01*
X102112408Y-68853000D01*
X101842510Y-68906686D01*
X101588273Y-69011995D01*
X101359465Y-69164880D01*
X101164880Y-69359465D01*
X101011995Y-69588273D01*
X100906686Y-69842510D01*
X100853000Y-70112408D01*
X91635000Y-70112408D01*
X91635000Y-63250000D01*
X113861928Y-63250000D01*
X113861928Y-67250000D01*
X113874188Y-67374482D01*
X113910498Y-67494180D01*
X113969463Y-67604494D01*
X114048815Y-67701185D01*
X114145506Y-67780537D01*
X114255820Y-67839502D01*
X114375518Y-67875812D01*
X114500000Y-67888072D01*
X118500000Y-67888072D01*
X118624482Y-67875812D01*
X118744180Y-67839502D01*
X118854494Y-67780537D01*
X118951185Y-67701185D01*
X119030537Y-67604494D01*
X119089502Y-67494180D01*
X119125812Y-67374482D01*
X119138072Y-67250000D01*
X119138072Y-64619872D01*
X137365000Y-64619872D01*
X137365000Y-65060128D01*
X137450890Y-65491925D01*
X137619369Y-65898669D01*
X137863962Y-66264729D01*
X138175271Y-66576038D01*
X138541331Y-66820631D01*
X138948075Y-66989110D01*
X139379872Y-67075000D01*
X139820128Y-67075000D01*
X140251925Y-66989110D01*
X140658669Y-66820631D01*
X141024729Y-66576038D01*
X141336038Y-66264729D01*
X141580631Y-65898669D01*
X141749110Y-65491925D01*
X141835000Y-65060128D01*
X141835000Y-64619872D01*
X141749110Y-64188075D01*
X141580631Y-63781331D01*
X141336038Y-63415271D01*
X141024729Y-63103962D01*
X140658669Y-62859369D01*
X140251925Y-62690890D01*
X139820128Y-62605000D01*
X139379872Y-62605000D01*
X138948075Y-62690890D01*
X138541331Y-62859369D01*
X138175271Y-63103962D01*
X137863962Y-63415271D01*
X137619369Y-63781331D01*
X137450890Y-64188075D01*
X137365000Y-64619872D01*
X119138072Y-64619872D01*
X119138072Y-63250000D01*
X119125812Y-63125518D01*
X119089502Y-63005820D01*
X119030537Y-62895506D01*
X118951185Y-62798815D01*
X118854494Y-62719463D01*
X118744180Y-62660498D01*
X118624482Y-62624188D01*
X118500000Y-62611928D01*
X114500000Y-62611928D01*
X114375518Y-62624188D01*
X114255820Y-62660498D01*
X114145506Y-62719463D01*
X114048815Y-62798815D01*
X113969463Y-62895506D01*
X113910498Y-63005820D01*
X113874188Y-63125518D01*
X113861928Y-63250000D01*
X91635000Y-63250000D01*
X91635000Y-61250000D01*
X91622799Y-61126118D01*
X91586664Y-61006996D01*
X91527983Y-60897213D01*
X91449013Y-60800987D01*
X91352787Y-60722017D01*
X91243004Y-60663336D01*
X91123882Y-60627201D01*
X91000000Y-60615000D01*
X66500000Y-60615000D01*
X66416362Y-60620532D01*
X66295166Y-60648944D01*
X66181842Y-60700454D01*
X66080744Y-60773083D01*
X65995758Y-60864040D01*
X65930150Y-60969829D01*
X65886441Y-61086384D01*
X64636441Y-65773884D01*
X64616870Y-65888798D01*
X64619534Y-66013251D01*
X64646427Y-66134793D01*
X64696514Y-66248753D01*
X64767872Y-66350753D01*
X66277956Y-68112518D01*
X66268225Y-68136011D01*
X66215000Y-68403589D01*
X66215000Y-68676411D01*
X66268225Y-68943989D01*
X66372629Y-69196043D01*
X66524201Y-69422886D01*
X66717114Y-69615799D01*
X66943957Y-69767371D01*
X67043279Y-69808511D01*
X67001168Y-69823723D01*
X66888137Y-69884140D01*
X66822612Y-70123007D01*
X67600000Y-70900395D01*
X67614143Y-70886253D01*
X67793748Y-71065858D01*
X67779605Y-71080000D01*
X67793748Y-71094143D01*
X67614143Y-71273748D01*
X67600000Y-71259605D01*
X66822612Y-72036993D01*
X66888137Y-72275860D01*
X67046477Y-72350164D01*
X66991346Y-72373000D01*
X58660000Y-72373000D01*
X58660000Y-71152492D01*
X66210188Y-71152492D01*
X66251035Y-71422238D01*
X66343723Y-71678832D01*
X66404140Y-71791863D01*
X66643007Y-71857388D01*
X67420395Y-71080000D01*
X66643007Y-70302612D01*
X66404140Y-70368137D01*
X66288240Y-70615116D01*
X66222750Y-70879960D01*
X66210188Y-71152492D01*
X58660000Y-71152492D01*
X58660000Y-64509872D01*
X59015000Y-64509872D01*
X59015000Y-64950128D01*
X59100890Y-65381925D01*
X59269369Y-65788669D01*
X59513962Y-66154729D01*
X59825271Y-66466038D01*
X60191331Y-66710631D01*
X60598075Y-66879110D01*
X61029872Y-66965000D01*
X61470128Y-66965000D01*
X61901925Y-66879110D01*
X62308669Y-66710631D01*
X62674729Y-66466038D01*
X62986038Y-66154729D01*
X63230631Y-65788669D01*
X63399110Y-65381925D01*
X63485000Y-64950128D01*
X63485000Y-64509872D01*
X63399110Y-64078075D01*
X63230631Y-63671331D01*
X62986038Y-63305271D01*
X62674729Y-62993962D01*
X62308669Y-62749369D01*
X61901925Y-62580890D01*
X61470128Y-62495000D01*
X61029872Y-62495000D01*
X60598075Y-62580890D01*
X60191331Y-62749369D01*
X59825271Y-62993962D01*
X59513962Y-63305271D01*
X59269369Y-63671331D01*
X59100890Y-64078075D01*
X59015000Y-64509872D01*
X58660000Y-64509872D01*
X58660000Y-57500324D01*
X58715000Y-57500324D01*
X58715000Y-57999676D01*
X58812418Y-58489432D01*
X59003512Y-58950773D01*
X59280937Y-59365968D01*
X59634032Y-59719063D01*
X60049227Y-59996488D01*
X60510568Y-60187582D01*
X61000324Y-60285000D01*
X61499676Y-60285000D01*
X61989432Y-60187582D01*
X62450773Y-59996488D01*
X62865968Y-59719063D01*
X63219063Y-59365968D01*
X63496488Y-58950773D01*
X63687582Y-58489432D01*
X63785000Y-57999676D01*
X63785000Y-57500324D01*
X137215000Y-57500324D01*
X137215000Y-57999676D01*
X137312418Y-58489432D01*
X137503512Y-58950773D01*
X137780937Y-59365968D01*
X138134032Y-59719063D01*
X138549227Y-59996488D01*
X139010568Y-60187582D01*
X139500324Y-60285000D01*
X139999676Y-60285000D01*
X140489432Y-60187582D01*
X140950773Y-59996488D01*
X141365968Y-59719063D01*
X141719063Y-59365968D01*
X141996488Y-58950773D01*
X142187582Y-58489432D01*
X142285000Y-57999676D01*
X142285000Y-57500324D01*
X142187582Y-57010568D01*
X141996488Y-56549227D01*
X141719063Y-56134032D01*
X141365968Y-55780937D01*
X140950773Y-55503512D01*
X140489432Y-55312418D01*
X139999676Y-55215000D01*
X139500324Y-55215000D01*
X139010568Y-55312418D01*
X138549227Y-55503512D01*
X138134032Y-55780937D01*
X137780937Y-56134032D01*
X137503512Y-56549227D01*
X137312418Y-57010568D01*
X137215000Y-57500324D01*
X63785000Y-57500324D01*
X63687582Y-57010568D01*
X63496488Y-56549227D01*
X63219063Y-56134032D01*
X62865968Y-55780937D01*
X62450773Y-55503512D01*
X61989432Y-55312418D01*
X61499676Y-55215000D01*
X61000324Y-55215000D01*
X60510568Y-55312418D01*
X60049227Y-55503512D01*
X59634032Y-55780937D01*
X59280937Y-56134032D01*
X59003512Y-56549227D01*
X58812418Y-57010568D01*
X58715000Y-57500324D01*
X58660000Y-57500324D01*
X58660000Y-55160000D01*
X142340001Y-55160000D01*
X142340000Y-72373000D01*
X142340000Y-72373000D01*
G37*
X142340000Y-72373000D02*
X135470001Y-72373000D01*
X135470001Y-68694285D01*
X135474609Y-68647500D01*
X135456218Y-68460778D01*
X135421339Y-68345799D01*
X135401753Y-68281232D01*
X135313307Y-68115760D01*
X135194279Y-67970723D01*
X135157927Y-67940890D01*
X134706605Y-67489567D01*
X134706600Y-67489561D01*
X134635000Y-67417961D01*
X134635000Y-67243589D01*
X134581775Y-66976011D01*
X134477371Y-66723957D01*
X134325799Y-66497114D01*
X134132886Y-66304201D01*
X133906043Y-66152629D01*
X133653989Y-66048225D01*
X133386411Y-65995000D01*
X133113589Y-65995000D01*
X132846011Y-66048225D01*
X132593957Y-66152629D01*
X132367114Y-66304201D01*
X132174201Y-66497114D01*
X132022629Y-66723957D01*
X131918225Y-66976011D01*
X131865000Y-67243589D01*
X131865000Y-67516411D01*
X131918225Y-67783989D01*
X132022629Y-68036043D01*
X132174201Y-68262886D01*
X132367114Y-68455799D01*
X132593957Y-68607371D01*
X132693279Y-68648511D01*
X132651168Y-68663723D01*
X132538137Y-68724140D01*
X132472612Y-68963007D01*
X133250000Y-69740395D01*
X133264143Y-69726253D01*
X133443748Y-69905858D01*
X133429605Y-69920000D01*
X133443748Y-69934143D01*
X133264143Y-70113748D01*
X133250000Y-70099605D01*
X132472612Y-70876993D01*
X132538137Y-71115860D01*
X132696477Y-71190164D01*
X132593957Y-71232629D01*
X132367114Y-71384201D01*
X132174201Y-71577114D01*
X132022629Y-71803957D01*
X131918225Y-72056011D01*
X131865000Y-72323589D01*
X131865000Y-72373000D01*
X131432449Y-72373000D01*
X131592886Y-72265799D01*
X131785799Y-72072886D01*
X131937371Y-71846043D01*
X132041775Y-71593989D01*
X132095000Y-71326411D01*
X132095000Y-71053589D01*
X132041775Y-70786011D01*
X131937371Y-70533957D01*
X131785799Y-70307114D01*
X131592886Y-70114201D01*
X131410737Y-69992492D01*
X131860188Y-69992492D01*
X131901035Y-70262238D01*
X131993723Y-70518832D01*
X132054140Y-70631863D01*
X132293007Y-70697388D01*
X133070395Y-69920000D01*
X132293007Y-69142612D01*
X132054140Y-69208137D01*
X131938240Y-69455116D01*
X131872750Y-69719960D01*
X131860188Y-69992492D01*
X131410737Y-69992492D01*
X131366043Y-69962629D01*
X131263127Y-69920000D01*
X131366043Y-69877371D01*
X131592886Y-69725799D01*
X131785799Y-69532886D01*
X131937371Y-69306043D01*
X132041775Y-69053989D01*
X132095000Y-68786411D01*
X132095000Y-68513589D01*
X132041775Y-68246011D01*
X131937371Y-67993957D01*
X131785799Y-67767114D01*
X131592886Y-67574201D01*
X131366043Y-67422629D01*
X131263127Y-67380000D01*
X131366043Y-67337371D01*
X131592886Y-67185799D01*
X131785799Y-66992886D01*
X131937371Y-66766043D01*
X132041775Y-66513989D01*
X132095000Y-66246411D01*
X132095000Y-65973589D01*
X132041775Y-65706011D01*
X131937371Y-65453957D01*
X131785799Y-65227114D01*
X131592886Y-65034201D01*
X131366043Y-64882629D01*
X131113989Y-64778225D01*
X130846411Y-64725000D01*
X130573589Y-64725000D01*
X130306011Y-64778225D01*
X130053957Y-64882629D01*
X129827114Y-65034201D01*
X129634201Y-65227114D01*
X129482629Y-65453957D01*
X129378225Y-65706011D01*
X129325000Y-65973589D01*
X129325000Y-66147962D01*
X129319568Y-66153394D01*
X129319563Y-66153398D01*
X123692963Y-71779999D01*
X91632045Y-71779999D01*
X91635000Y-71750000D01*
X91635000Y-70112408D01*
X100853000Y-70112408D01*
X100853000Y-70387592D01*
X100906686Y-70657490D01*
X101011995Y-70911727D01*
X101164880Y-71140535D01*
X101359465Y-71335120D01*
X101588273Y-71488005D01*
X101842510Y-71593314D01*
X102112408Y-71647000D01*
X102387592Y-71647000D01*
X102657490Y-71593314D01*
X102911727Y-71488005D01*
X103140535Y-71335120D01*
X103335120Y-71140535D01*
X103488005Y-70911727D01*
X103593314Y-70657490D01*
X103647000Y-70387592D01*
X103647000Y-70112408D01*
X103593314Y-69842510D01*
X103488005Y-69588273D01*
X103335120Y-69359465D01*
X103140535Y-69164880D01*
X102911727Y-69011995D01*
X102657490Y-68906686D01*
X102387592Y-68853000D01*
X102112408Y-68853000D01*
X101842510Y-68906686D01*
X101588273Y-69011995D01*
X101359465Y-69164880D01*
X101164880Y-69359465D01*
X101011995Y-69588273D01*
X100906686Y-69842510D01*
X100853000Y-70112408D01*
X91635000Y-70112408D01*
X91635000Y-63250000D01*
X113861928Y-63250000D01*
X113861928Y-67250000D01*
X113874188Y-67374482D01*
X113910498Y-67494180D01*
X113969463Y-67604494D01*
X114048815Y-67701185D01*
X114145506Y-67780537D01*
X114255820Y-67839502D01*
X114375518Y-67875812D01*
X114500000Y-67888072D01*
X118500000Y-67888072D01*
X118624482Y-67875812D01*
X118744180Y-67839502D01*
X118854494Y-67780537D01*
X118951185Y-67701185D01*
X119030537Y-67604494D01*
X119089502Y-67494180D01*
X119125812Y-67374482D01*
X119138072Y-67250000D01*
X119138072Y-64619872D01*
X137365000Y-64619872D01*
X137365000Y-65060128D01*
X137450890Y-65491925D01*
X137619369Y-65898669D01*
X137863962Y-66264729D01*
X138175271Y-66576038D01*
X138541331Y-66820631D01*
X138948075Y-66989110D01*
X139379872Y-67075000D01*
X139820128Y-67075000D01*
X140251925Y-66989110D01*
X140658669Y-66820631D01*
X141024729Y-66576038D01*
X141336038Y-66264729D01*
X141580631Y-65898669D01*
X141749110Y-65491925D01*
X141835000Y-65060128D01*
X141835000Y-64619872D01*
X141749110Y-64188075D01*
X141580631Y-63781331D01*
X141336038Y-63415271D01*
X141024729Y-63103962D01*
X140658669Y-62859369D01*
X140251925Y-62690890D01*
X139820128Y-62605000D01*
X139379872Y-62605000D01*
X138948075Y-62690890D01*
X138541331Y-62859369D01*
X138175271Y-63103962D01*
X137863962Y-63415271D01*
X137619369Y-63781331D01*
X137450890Y-64188075D01*
X137365000Y-64619872D01*
X119138072Y-64619872D01*
X119138072Y-63250000D01*
X119125812Y-63125518D01*
X119089502Y-63005820D01*
X119030537Y-62895506D01*
X118951185Y-62798815D01*
X118854494Y-62719463D01*
X118744180Y-62660498D01*
X118624482Y-62624188D01*
X118500000Y-62611928D01*
X114500000Y-62611928D01*
X114375518Y-62624188D01*
X114255820Y-62660498D01*
X114145506Y-62719463D01*
X114048815Y-62798815D01*
X113969463Y-62895506D01*
X113910498Y-63005820D01*
X113874188Y-63125518D01*
X113861928Y-63250000D01*
X91635000Y-63250000D01*
X91635000Y-61250000D01*
X91622799Y-61126118D01*
X91586664Y-61006996D01*
X91527983Y-60897213D01*
X91449013Y-60800987D01*
X91352787Y-60722017D01*
X91243004Y-60663336D01*
X91123882Y-60627201D01*
X91000000Y-60615000D01*
X66500000Y-60615000D01*
X66416362Y-60620532D01*
X66295166Y-60648944D01*
X66181842Y-60700454D01*
X66080744Y-60773083D01*
X65995758Y-60864040D01*
X65930150Y-60969829D01*
X65886441Y-61086384D01*
X64636441Y-65773884D01*
X64616870Y-65888798D01*
X64619534Y-66013251D01*
X64646427Y-66134793D01*
X64696514Y-66248753D01*
X64767872Y-66350753D01*
X66277956Y-68112518D01*
X66268225Y-68136011D01*
X66215000Y-68403589D01*
X66215000Y-68676411D01*
X66268225Y-68943989D01*
X66372629Y-69196043D01*
X66524201Y-69422886D01*
X66717114Y-69615799D01*
X66943957Y-69767371D01*
X67043279Y-69808511D01*
X67001168Y-69823723D01*
X66888137Y-69884140D01*
X66822612Y-70123007D01*
X67600000Y-70900395D01*
X67614143Y-70886253D01*
X67793748Y-71065858D01*
X67779605Y-71080000D01*
X67793748Y-71094143D01*
X67614143Y-71273748D01*
X67600000Y-71259605D01*
X66822612Y-72036993D01*
X66888137Y-72275860D01*
X67046477Y-72350164D01*
X66991346Y-72373000D01*
X58660000Y-72373000D01*
X58660000Y-71152492D01*
X66210188Y-71152492D01*
X66251035Y-71422238D01*
X66343723Y-71678832D01*
X66404140Y-71791863D01*
X66643007Y-71857388D01*
X67420395Y-71080000D01*
X66643007Y-70302612D01*
X66404140Y-70368137D01*
X66288240Y-70615116D01*
X66222750Y-70879960D01*
X66210188Y-71152492D01*
X58660000Y-71152492D01*
X58660000Y-64509872D01*
X59015000Y-64509872D01*
X59015000Y-64950128D01*
X59100890Y-65381925D01*
X59269369Y-65788669D01*
X59513962Y-66154729D01*
X59825271Y-66466038D01*
X60191331Y-66710631D01*
X60598075Y-66879110D01*
X61029872Y-66965000D01*
X61470128Y-66965000D01*
X61901925Y-66879110D01*
X62308669Y-66710631D01*
X62674729Y-66466038D01*
X62986038Y-66154729D01*
X63230631Y-65788669D01*
X63399110Y-65381925D01*
X63485000Y-64950128D01*
X63485000Y-64509872D01*
X63399110Y-64078075D01*
X63230631Y-63671331D01*
X62986038Y-63305271D01*
X62674729Y-62993962D01*
X62308669Y-62749369D01*
X61901925Y-62580890D01*
X61470128Y-62495000D01*
X61029872Y-62495000D01*
X60598075Y-62580890D01*
X60191331Y-62749369D01*
X59825271Y-62993962D01*
X59513962Y-63305271D01*
X59269369Y-63671331D01*
X59100890Y-64078075D01*
X59015000Y-64509872D01*
X58660000Y-64509872D01*
X58660000Y-57500324D01*
X58715000Y-57500324D01*
X58715000Y-57999676D01*
X58812418Y-58489432D01*
X59003512Y-58950773D01*
X59280937Y-59365968D01*
X59634032Y-59719063D01*
X60049227Y-59996488D01*
X60510568Y-60187582D01*
X61000324Y-60285000D01*
X61499676Y-60285000D01*
X61989432Y-60187582D01*
X62450773Y-59996488D01*
X62865968Y-59719063D01*
X63219063Y-59365968D01*
X63496488Y-58950773D01*
X63687582Y-58489432D01*
X63785000Y-57999676D01*
X63785000Y-57500324D01*
X137215000Y-57500324D01*
X137215000Y-57999676D01*
X137312418Y-58489432D01*
X137503512Y-58950773D01*
X137780937Y-59365968D01*
X138134032Y-59719063D01*
X138549227Y-59996488D01*
X139010568Y-60187582D01*
X139500324Y-60285000D01*
X139999676Y-60285000D01*
X140489432Y-60187582D01*
X140950773Y-59996488D01*
X141365968Y-59719063D01*
X141719063Y-59365968D01*
X141996488Y-58950773D01*
X142187582Y-58489432D01*
X142285000Y-57999676D01*
X142285000Y-57500324D01*
X142187582Y-57010568D01*
X141996488Y-56549227D01*
X141719063Y-56134032D01*
X141365968Y-55780937D01*
X140950773Y-55503512D01*
X140489432Y-55312418D01*
X139999676Y-55215000D01*
X139500324Y-55215000D01*
X139010568Y-55312418D01*
X138549227Y-55503512D01*
X138134032Y-55780937D01*
X137780937Y-56134032D01*
X137503512Y-56549227D01*
X137312418Y-57010568D01*
X137215000Y-57500324D01*
X63785000Y-57500324D01*
X63687582Y-57010568D01*
X63496488Y-56549227D01*
X63219063Y-56134032D01*
X62865968Y-55780937D01*
X62450773Y-55503512D01*
X61989432Y-55312418D01*
X61499676Y-55215000D01*
X61000324Y-55215000D01*
X60510568Y-55312418D01*
X60049227Y-55503512D01*
X59634032Y-55780937D01*
X59280937Y-56134032D01*
X59003512Y-56549227D01*
X58812418Y-57010568D01*
X58715000Y-57500324D01*
X58660000Y-57500324D01*
X58660000Y-55160000D01*
X142340001Y-55160000D01*
X142340000Y-72373000D01*
G36*
X142340000Y-85340000D02*
G01*
X58660000Y-85340000D01*
X58660000Y-82500324D01*
X58715000Y-82500324D01*
X58715000Y-82999676D01*
X58812418Y-83489432D01*
X59003512Y-83950773D01*
X59280937Y-84365968D01*
X59634032Y-84719063D01*
X60049227Y-84996488D01*
X60510568Y-85187582D01*
X61000324Y-85285000D01*
X61499676Y-85285000D01*
X61989432Y-85187582D01*
X62450773Y-84996488D01*
X62865968Y-84719063D01*
X63219063Y-84365968D01*
X63496488Y-83950773D01*
X63687582Y-83489432D01*
X63785000Y-82999676D01*
X63785000Y-82500324D01*
X63735273Y-82250324D01*
X137215000Y-82250324D01*
X137215000Y-82749676D01*
X137312418Y-83239432D01*
X137503512Y-83700773D01*
X137780937Y-84115968D01*
X138134032Y-84469063D01*
X138549227Y-84746488D01*
X139010568Y-84937582D01*
X139500324Y-85035000D01*
X139999676Y-85035000D01*
X140489432Y-84937582D01*
X140950773Y-84746488D01*
X141365968Y-84469063D01*
X141719063Y-84115968D01*
X141996488Y-83700773D01*
X142187582Y-83239432D01*
X142285000Y-82749676D01*
X142285000Y-82250324D01*
X142187582Y-81760568D01*
X141996488Y-81299227D01*
X141719063Y-80884032D01*
X141365968Y-80530937D01*
X140950773Y-80253512D01*
X140489432Y-80062418D01*
X139999676Y-79965000D01*
X139500324Y-79965000D01*
X139010568Y-80062418D01*
X138549227Y-80253512D01*
X138134032Y-80530937D01*
X137780937Y-80884032D01*
X137503512Y-81299227D01*
X137312418Y-81760568D01*
X137215000Y-82250324D01*
X63735273Y-82250324D01*
X63687582Y-82010568D01*
X63496488Y-81549227D01*
X63219063Y-81134032D01*
X62865968Y-80780937D01*
X62450773Y-80503512D01*
X61989432Y-80312418D01*
X61499676Y-80215000D01*
X61000324Y-80215000D01*
X60510568Y-80312418D01*
X60049227Y-80503512D01*
X59634032Y-80780937D01*
X59280937Y-81134032D01*
X59003512Y-81549227D01*
X58812418Y-82010568D01*
X58715000Y-82500324D01*
X58660000Y-82500324D01*
X58660000Y-75939872D01*
X59015000Y-75939872D01*
X59015000Y-76380128D01*
X59100890Y-76811925D01*
X59269369Y-77218669D01*
X59513962Y-77584729D01*
X59825271Y-77896038D01*
X60191331Y-78140631D01*
X60598075Y-78309110D01*
X61029872Y-78395000D01*
X61470128Y-78395000D01*
X61901925Y-78309110D01*
X62308669Y-78140631D01*
X62674729Y-77896038D01*
X62986038Y-77584729D01*
X63230631Y-77218669D01*
X63399110Y-76811925D01*
X63485000Y-76380128D01*
X63485000Y-75939872D01*
X63399110Y-75508075D01*
X63230631Y-75101331D01*
X62986038Y-74735271D01*
X62674729Y-74423962D01*
X62308669Y-74179369D01*
X61901925Y-74010890D01*
X61470128Y-73925000D01*
X61029872Y-73925000D01*
X60598075Y-74010890D01*
X60191331Y-74179369D01*
X59825271Y-74423962D01*
X59513962Y-74735271D01*
X59269369Y-75101331D01*
X59100890Y-75508075D01*
X59015000Y-75939872D01*
X58660000Y-75939872D01*
X58660000Y-73357803D01*
X66242819Y-73338799D01*
X66222750Y-73419960D01*
X66210188Y-73692492D01*
X66251035Y-73962238D01*
X66343723Y-74218832D01*
X66404140Y-74331863D01*
X66643007Y-74397388D01*
X67420395Y-73620000D01*
X67406253Y-73605858D01*
X67585858Y-73426253D01*
X67600000Y-73440395D01*
X67614143Y-73426253D01*
X67793748Y-73605858D01*
X67779605Y-73620000D01*
X67793748Y-73634143D01*
X67614143Y-73813748D01*
X67600000Y-73799605D01*
X66822612Y-74576993D01*
X66888137Y-74815860D01*
X67135116Y-74931760D01*
X67399960Y-74997250D01*
X67672492Y-75009812D01*
X67919999Y-74972333D01*
X67919999Y-75825714D01*
X67915391Y-75872499D01*
X67927376Y-75994180D01*
X67933782Y-76059221D01*
X67988247Y-76238767D01*
X68076693Y-76404240D01*
X68195721Y-76549277D01*
X68232068Y-76579106D01*
X70060894Y-78407932D01*
X70090723Y-78444279D01*
X70235760Y-78563307D01*
X70401232Y-78651753D01*
X70580778Y-78706218D01*
X70720716Y-78720001D01*
X70767501Y-78724609D01*
X70814286Y-78720001D01*
X124085714Y-78720001D01*
X124132499Y-78724609D01*
X124179284Y-78720001D01*
X124319222Y-78706218D01*
X124498768Y-78651753D01*
X124664240Y-78563307D01*
X124809277Y-78444279D01*
X124839106Y-78407932D01*
X129334229Y-73912809D01*
X129378225Y-74133989D01*
X129482629Y-74386043D01*
X129634201Y-74612886D01*
X129827114Y-74805799D01*
X130053957Y-74957371D01*
X130306011Y-75061775D01*
X130573589Y-75115000D01*
X130846411Y-75115000D01*
X131113989Y-75061775D01*
X131366043Y-74957371D01*
X131592886Y-74805799D01*
X131785799Y-74612886D01*
X131861928Y-74498951D01*
X131861928Y-75750000D01*
X131874188Y-75874482D01*
X131910498Y-75994180D01*
X131969463Y-76104494D01*
X132048815Y-76201185D01*
X132145506Y-76280537D01*
X132255820Y-76339502D01*
X132375518Y-76375812D01*
X132500000Y-76388072D01*
X134000000Y-76388072D01*
X134124482Y-76375812D01*
X134244180Y-76339502D01*
X134354494Y-76280537D01*
X134451185Y-76201185D01*
X134530537Y-76104494D01*
X134559733Y-76049872D01*
X137365000Y-76049872D01*
X137365000Y-76490128D01*
X137450890Y-76921925D01*
X137619369Y-77328669D01*
X137863962Y-77694729D01*
X138175271Y-78006038D01*
X138541331Y-78250631D01*
X138948075Y-78419110D01*
X139379872Y-78505000D01*
X139820128Y-78505000D01*
X140251925Y-78419110D01*
X140658669Y-78250631D01*
X141024729Y-78006038D01*
X141336038Y-77694729D01*
X141580631Y-77328669D01*
X141749110Y-76921925D01*
X141835000Y-76490128D01*
X141835000Y-76049872D01*
X141749110Y-75618075D01*
X141580631Y-75211331D01*
X141336038Y-74845271D01*
X141024729Y-74533962D01*
X140658669Y-74289369D01*
X140251925Y-74120890D01*
X139820128Y-74035000D01*
X139379872Y-74035000D01*
X138948075Y-74120890D01*
X138541331Y-74289369D01*
X138175271Y-74533962D01*
X137863962Y-74845271D01*
X137619369Y-75211331D01*
X137450890Y-75618075D01*
X137365000Y-76049872D01*
X134559733Y-76049872D01*
X134589502Y-75994180D01*
X134625812Y-75874482D01*
X134638072Y-75750000D01*
X134638072Y-74250000D01*
X134625812Y-74125518D01*
X134589502Y-74005820D01*
X134530537Y-73895506D01*
X134451185Y-73798815D01*
X134354494Y-73719463D01*
X134244180Y-73660498D01*
X134124482Y-73624188D01*
X134016517Y-73613555D01*
X134132886Y-73535799D01*
X134325799Y-73342886D01*
X134442741Y-73167871D01*
X142340000Y-73148078D01*
X142340000Y-85340000D01*
X142340000Y-85340000D01*
G37*
X142340000Y-85340000D02*
X58660000Y-85340000D01*
X58660000Y-82500324D01*
X58715000Y-82500324D01*
X58715000Y-82999676D01*
X58812418Y-83489432D01*
X59003512Y-83950773D01*
X59280937Y-84365968D01*
X59634032Y-84719063D01*
X60049227Y-84996488D01*
X60510568Y-85187582D01*
X61000324Y-85285000D01*
X61499676Y-85285000D01*
X61989432Y-85187582D01*
X62450773Y-84996488D01*
X62865968Y-84719063D01*
X63219063Y-84365968D01*
X63496488Y-83950773D01*
X63687582Y-83489432D01*
X63785000Y-82999676D01*
X63785000Y-82500324D01*
X63735273Y-82250324D01*
X137215000Y-82250324D01*
X137215000Y-82749676D01*
X137312418Y-83239432D01*
X137503512Y-83700773D01*
X137780937Y-84115968D01*
X138134032Y-84469063D01*
X138549227Y-84746488D01*
X139010568Y-84937582D01*
X139500324Y-85035000D01*
X139999676Y-85035000D01*
X140489432Y-84937582D01*
X140950773Y-84746488D01*
X141365968Y-84469063D01*
X141719063Y-84115968D01*
X141996488Y-83700773D01*
X142187582Y-83239432D01*
X142285000Y-82749676D01*
X142285000Y-82250324D01*
X142187582Y-81760568D01*
X141996488Y-81299227D01*
X141719063Y-80884032D01*
X141365968Y-80530937D01*
X140950773Y-80253512D01*
X140489432Y-80062418D01*
X139999676Y-79965000D01*
X139500324Y-79965000D01*
X139010568Y-80062418D01*
X138549227Y-80253512D01*
X138134032Y-80530937D01*
X137780937Y-80884032D01*
X137503512Y-81299227D01*
X137312418Y-81760568D01*
X137215000Y-82250324D01*
X63735273Y-82250324D01*
X63687582Y-82010568D01*
X63496488Y-81549227D01*
X63219063Y-81134032D01*
X62865968Y-80780937D01*
X62450773Y-80503512D01*
X61989432Y-80312418D01*
X61499676Y-80215000D01*
X61000324Y-80215000D01*
X60510568Y-80312418D01*
X60049227Y-80503512D01*
X59634032Y-80780937D01*
X59280937Y-81134032D01*
X59003512Y-81549227D01*
X58812418Y-82010568D01*
X58715000Y-82500324D01*
X58660000Y-82500324D01*
X58660000Y-75939872D01*
X59015000Y-75939872D01*
X59015000Y-76380128D01*
X59100890Y-76811925D01*
X59269369Y-77218669D01*
X59513962Y-77584729D01*
X59825271Y-77896038D01*
X60191331Y-78140631D01*
X60598075Y-78309110D01*
X61029872Y-78395000D01*
X61470128Y-78395000D01*
X61901925Y-78309110D01*
X62308669Y-78140631D01*
X62674729Y-77896038D01*
X62986038Y-77584729D01*
X63230631Y-77218669D01*
X63399110Y-76811925D01*
X63485000Y-76380128D01*
X63485000Y-75939872D01*
X63399110Y-75508075D01*
X63230631Y-75101331D01*
X62986038Y-74735271D01*
X62674729Y-74423962D01*
X62308669Y-74179369D01*
X61901925Y-74010890D01*
X61470128Y-73925000D01*
X61029872Y-73925000D01*
X60598075Y-74010890D01*
X60191331Y-74179369D01*
X59825271Y-74423962D01*
X59513962Y-74735271D01*
X59269369Y-75101331D01*
X59100890Y-75508075D01*
X59015000Y-75939872D01*
X58660000Y-75939872D01*
X58660000Y-73357803D01*
X66242819Y-73338799D01*
X66222750Y-73419960D01*
X66210188Y-73692492D01*
X66251035Y-73962238D01*
X66343723Y-74218832D01*
X66404140Y-74331863D01*
X66643007Y-74397388D01*
X67420395Y-73620000D01*
X67406253Y-73605858D01*
X67585858Y-73426253D01*
X67600000Y-73440395D01*
X67614143Y-73426253D01*
X67793748Y-73605858D01*
X67779605Y-73620000D01*
X67793748Y-73634143D01*
X67614143Y-73813748D01*
X67600000Y-73799605D01*
X66822612Y-74576993D01*
X66888137Y-74815860D01*
X67135116Y-74931760D01*
X67399960Y-74997250D01*
X67672492Y-75009812D01*
X67919999Y-74972333D01*
X67919999Y-75825714D01*
X67915391Y-75872499D01*
X67927376Y-75994180D01*
X67933782Y-76059221D01*
X67988247Y-76238767D01*
X68076693Y-76404240D01*
X68195721Y-76549277D01*
X68232068Y-76579106D01*
X70060894Y-78407932D01*
X70090723Y-78444279D01*
X70235760Y-78563307D01*
X70401232Y-78651753D01*
X70580778Y-78706218D01*
X70720716Y-78720001D01*
X70767501Y-78724609D01*
X70814286Y-78720001D01*
X124085714Y-78720001D01*
X124132499Y-78724609D01*
X124179284Y-78720001D01*
X124319222Y-78706218D01*
X124498768Y-78651753D01*
X124664240Y-78563307D01*
X124809277Y-78444279D01*
X124839106Y-78407932D01*
X129334229Y-73912809D01*
X129378225Y-74133989D01*
X129482629Y-74386043D01*
X129634201Y-74612886D01*
X129827114Y-74805799D01*
X130053957Y-74957371D01*
X130306011Y-75061775D01*
X130573589Y-75115000D01*
X130846411Y-75115000D01*
X131113989Y-75061775D01*
X131366043Y-74957371D01*
X131592886Y-74805799D01*
X131785799Y-74612886D01*
X131861928Y-74498951D01*
X131861928Y-75750000D01*
X131874188Y-75874482D01*
X131910498Y-75994180D01*
X131969463Y-76104494D01*
X132048815Y-76201185D01*
X132145506Y-76280537D01*
X132255820Y-76339502D01*
X132375518Y-76375812D01*
X132500000Y-76388072D01*
X134000000Y-76388072D01*
X134124482Y-76375812D01*
X134244180Y-76339502D01*
X134354494Y-76280537D01*
X134451185Y-76201185D01*
X134530537Y-76104494D01*
X134559733Y-76049872D01*
X137365000Y-76049872D01*
X137365000Y-76490128D01*
X137450890Y-76921925D01*
X137619369Y-77328669D01*
X137863962Y-77694729D01*
X138175271Y-78006038D01*
X138541331Y-78250631D01*
X138948075Y-78419110D01*
X139379872Y-78505000D01*
X139820128Y-78505000D01*
X140251925Y-78419110D01*
X140658669Y-78250631D01*
X141024729Y-78006038D01*
X141336038Y-77694729D01*
X141580631Y-77328669D01*
X141749110Y-76921925D01*
X141835000Y-76490128D01*
X141835000Y-76049872D01*
X141749110Y-75618075D01*
X141580631Y-75211331D01*
X141336038Y-74845271D01*
X141024729Y-74533962D01*
X140658669Y-74289369D01*
X140251925Y-74120890D01*
X139820128Y-74035000D01*
X139379872Y-74035000D01*
X138948075Y-74120890D01*
X138541331Y-74289369D01*
X138175271Y-74533962D01*
X137863962Y-74845271D01*
X137619369Y-75211331D01*
X137450890Y-75618075D01*
X137365000Y-76049872D01*
X134559733Y-76049872D01*
X134589502Y-75994180D01*
X134625812Y-75874482D01*
X134638072Y-75750000D01*
X134638072Y-74250000D01*
X134625812Y-74125518D01*
X134589502Y-74005820D01*
X134530537Y-73895506D01*
X134451185Y-73798815D01*
X134354494Y-73719463D01*
X134244180Y-73660498D01*
X134124482Y-73624188D01*
X134016517Y-73613555D01*
X134132886Y-73535799D01*
X134325799Y-73342886D01*
X134442741Y-73167871D01*
X142340000Y-73148078D01*
X142340000Y-85340000D01*
M02*
