M48
; DRILL file {KiCad (5.1.4)-1} date 2/13/2020 3:41:23 PM
; FORMAT={-:-/ absolute / metric / decimal}
; #@! TF.CreationDate,2020-02-13T15:41:23-05:00
; #@! TF.GenerationSoftware,Kicad,Pcbnew,(5.1.4)-1
; #@! TF.FileFunction,Plated,1,2,PTH
FMAT,2
METRIC
T1C0.760
T2C1.016
T3C2.000
T4C3.100
%
G90
G05
T1
X130.71Y-66.11
X130.71Y-68.65
X130.71Y-71.19
X130.71Y-73.73
X133.25Y-67.38
X133.25Y-69.92
X133.25Y-72.46
X133.25Y-75.0
X67.6Y-66.0
X67.6Y-68.54
X67.6Y-71.08
X67.6Y-73.62
X70.14Y-67.27
X70.14Y-69.81
X70.14Y-72.35
X70.14Y-74.89
T2
X73.75Y-70.25
X102.25Y-70.25
T3
X116.5Y-65.25
X116.5Y-75.25
T4
X61.25Y-57.75
X139.75Y-57.75
X139.75Y-82.5
X61.25Y-82.75
T0
M30
