G04 #@! TF.GenerationSoftware,KiCad,Pcbnew,(5.1.2)-2*
G04 #@! TF.CreationDate,2020-01-05T19:11:53-05:00*
G04 #@! TF.ProjectId,AddressableLED,41646472-6573-4736-9162-6c654c45442e,rev?*
G04 #@! TF.SameCoordinates,Original*
G04 #@! TF.FileFunction,Soldermask,Top*
G04 #@! TF.FilePolarity,Negative*
%FSLAX46Y46*%
G04 Gerber Fmt 4.6, Leading zero omitted, Abs format (unit mm)*
G04 Created by KiCad (PCBNEW (5.1.2)-2) date 2020-01-05 19:11:53*
%MOMM*%
%LPD*%
G04 APERTURE LIST*
%ADD10C,0.100000*%
%ADD11C,0.875000*%
%ADD12C,0.300000*%
%ADD13C,1.700000*%
%ADD14C,1.000000*%
%ADD15R,0.800000X0.900000*%
%ADD16R,0.900000X0.800000*%
%ADD17C,0.975000*%
%ADD18O,0.850000X0.850000*%
%ADD19R,0.850000X0.850000*%
%ADD20C,2.700000*%
G04 APERTURE END LIST*
D10*
G36*
X142556391Y-95080853D02*
G01*
X142577626Y-95084003D01*
X142598450Y-95089219D01*
X142618662Y-95096451D01*
X142638068Y-95105630D01*
X142656481Y-95116666D01*
X142673724Y-95129454D01*
X142689630Y-95143870D01*
X142704046Y-95159776D01*
X142716834Y-95177019D01*
X142727870Y-95195432D01*
X142737049Y-95214838D01*
X142744281Y-95235050D01*
X142749497Y-95255874D01*
X142752647Y-95277109D01*
X142753700Y-95298550D01*
X142753700Y-95811050D01*
X142752647Y-95832491D01*
X142749497Y-95853726D01*
X142744281Y-95874550D01*
X142737049Y-95894762D01*
X142727870Y-95914168D01*
X142716834Y-95932581D01*
X142704046Y-95949824D01*
X142689630Y-95965730D01*
X142673724Y-95980146D01*
X142656481Y-95992934D01*
X142638068Y-96003970D01*
X142618662Y-96013149D01*
X142598450Y-96020381D01*
X142577626Y-96025597D01*
X142556391Y-96028747D01*
X142534950Y-96029800D01*
X142097450Y-96029800D01*
X142076009Y-96028747D01*
X142054774Y-96025597D01*
X142033950Y-96020381D01*
X142013738Y-96013149D01*
X141994332Y-96003970D01*
X141975919Y-95992934D01*
X141958676Y-95980146D01*
X141942770Y-95965730D01*
X141928354Y-95949824D01*
X141915566Y-95932581D01*
X141904530Y-95914168D01*
X141895351Y-95894762D01*
X141888119Y-95874550D01*
X141882903Y-95853726D01*
X141879753Y-95832491D01*
X141878700Y-95811050D01*
X141878700Y-95298550D01*
X141879753Y-95277109D01*
X141882903Y-95255874D01*
X141888119Y-95235050D01*
X141895351Y-95214838D01*
X141904530Y-95195432D01*
X141915566Y-95177019D01*
X141928354Y-95159776D01*
X141942770Y-95143870D01*
X141958676Y-95129454D01*
X141975919Y-95116666D01*
X141994332Y-95105630D01*
X142013738Y-95096451D01*
X142033950Y-95089219D01*
X142054774Y-95084003D01*
X142076009Y-95080853D01*
X142097450Y-95079800D01*
X142534950Y-95079800D01*
X142556391Y-95080853D01*
X142556391Y-95080853D01*
G37*
D11*
X142316200Y-95554800D03*
D10*
G36*
X144131391Y-95080853D02*
G01*
X144152626Y-95084003D01*
X144173450Y-95089219D01*
X144193662Y-95096451D01*
X144213068Y-95105630D01*
X144231481Y-95116666D01*
X144248724Y-95129454D01*
X144264630Y-95143870D01*
X144279046Y-95159776D01*
X144291834Y-95177019D01*
X144302870Y-95195432D01*
X144312049Y-95214838D01*
X144319281Y-95235050D01*
X144324497Y-95255874D01*
X144327647Y-95277109D01*
X144328700Y-95298550D01*
X144328700Y-95811050D01*
X144327647Y-95832491D01*
X144324497Y-95853726D01*
X144319281Y-95874550D01*
X144312049Y-95894762D01*
X144302870Y-95914168D01*
X144291834Y-95932581D01*
X144279046Y-95949824D01*
X144264630Y-95965730D01*
X144248724Y-95980146D01*
X144231481Y-95992934D01*
X144213068Y-96003970D01*
X144193662Y-96013149D01*
X144173450Y-96020381D01*
X144152626Y-96025597D01*
X144131391Y-96028747D01*
X144109950Y-96029800D01*
X143672450Y-96029800D01*
X143651009Y-96028747D01*
X143629774Y-96025597D01*
X143608950Y-96020381D01*
X143588738Y-96013149D01*
X143569332Y-96003970D01*
X143550919Y-95992934D01*
X143533676Y-95980146D01*
X143517770Y-95965730D01*
X143503354Y-95949824D01*
X143490566Y-95932581D01*
X143479530Y-95914168D01*
X143470351Y-95894762D01*
X143463119Y-95874550D01*
X143457903Y-95853726D01*
X143454753Y-95832491D01*
X143453700Y-95811050D01*
X143453700Y-95298550D01*
X143454753Y-95277109D01*
X143457903Y-95255874D01*
X143463119Y-95235050D01*
X143470351Y-95214838D01*
X143479530Y-95195432D01*
X143490566Y-95177019D01*
X143503354Y-95159776D01*
X143517770Y-95143870D01*
X143533676Y-95129454D01*
X143550919Y-95116666D01*
X143569332Y-95105630D01*
X143588738Y-95096451D01*
X143608950Y-95089219D01*
X143629774Y-95084003D01*
X143651009Y-95080853D01*
X143672450Y-95079800D01*
X144109950Y-95079800D01*
X144131391Y-95080853D01*
X144131391Y-95080853D01*
G37*
D11*
X143891200Y-95554800D03*
D10*
G36*
X119861291Y-95030053D02*
G01*
X119882526Y-95033203D01*
X119903350Y-95038419D01*
X119923562Y-95045651D01*
X119942968Y-95054830D01*
X119961381Y-95065866D01*
X119978624Y-95078654D01*
X119994530Y-95093070D01*
X120008946Y-95108976D01*
X120021734Y-95126219D01*
X120032770Y-95144632D01*
X120041949Y-95164038D01*
X120049181Y-95184250D01*
X120054397Y-95205074D01*
X120057547Y-95226309D01*
X120058600Y-95247750D01*
X120058600Y-95760250D01*
X120057547Y-95781691D01*
X120054397Y-95802926D01*
X120049181Y-95823750D01*
X120041949Y-95843962D01*
X120032770Y-95863368D01*
X120021734Y-95881781D01*
X120008946Y-95899024D01*
X119994530Y-95914930D01*
X119978624Y-95929346D01*
X119961381Y-95942134D01*
X119942968Y-95953170D01*
X119923562Y-95962349D01*
X119903350Y-95969581D01*
X119882526Y-95974797D01*
X119861291Y-95977947D01*
X119839850Y-95979000D01*
X119402350Y-95979000D01*
X119380909Y-95977947D01*
X119359674Y-95974797D01*
X119338850Y-95969581D01*
X119318638Y-95962349D01*
X119299232Y-95953170D01*
X119280819Y-95942134D01*
X119263576Y-95929346D01*
X119247670Y-95914930D01*
X119233254Y-95899024D01*
X119220466Y-95881781D01*
X119209430Y-95863368D01*
X119200251Y-95843962D01*
X119193019Y-95823750D01*
X119187803Y-95802926D01*
X119184653Y-95781691D01*
X119183600Y-95760250D01*
X119183600Y-95247750D01*
X119184653Y-95226309D01*
X119187803Y-95205074D01*
X119193019Y-95184250D01*
X119200251Y-95164038D01*
X119209430Y-95144632D01*
X119220466Y-95126219D01*
X119233254Y-95108976D01*
X119247670Y-95093070D01*
X119263576Y-95078654D01*
X119280819Y-95065866D01*
X119299232Y-95054830D01*
X119318638Y-95045651D01*
X119338850Y-95038419D01*
X119359674Y-95033203D01*
X119380909Y-95030053D01*
X119402350Y-95029000D01*
X119839850Y-95029000D01*
X119861291Y-95030053D01*
X119861291Y-95030053D01*
G37*
D11*
X119621100Y-95504000D03*
D10*
G36*
X121436291Y-95030053D02*
G01*
X121457526Y-95033203D01*
X121478350Y-95038419D01*
X121498562Y-95045651D01*
X121517968Y-95054830D01*
X121536381Y-95065866D01*
X121553624Y-95078654D01*
X121569530Y-95093070D01*
X121583946Y-95108976D01*
X121596734Y-95126219D01*
X121607770Y-95144632D01*
X121616949Y-95164038D01*
X121624181Y-95184250D01*
X121629397Y-95205074D01*
X121632547Y-95226309D01*
X121633600Y-95247750D01*
X121633600Y-95760250D01*
X121632547Y-95781691D01*
X121629397Y-95802926D01*
X121624181Y-95823750D01*
X121616949Y-95843962D01*
X121607770Y-95863368D01*
X121596734Y-95881781D01*
X121583946Y-95899024D01*
X121569530Y-95914930D01*
X121553624Y-95929346D01*
X121536381Y-95942134D01*
X121517968Y-95953170D01*
X121498562Y-95962349D01*
X121478350Y-95969581D01*
X121457526Y-95974797D01*
X121436291Y-95977947D01*
X121414850Y-95979000D01*
X120977350Y-95979000D01*
X120955909Y-95977947D01*
X120934674Y-95974797D01*
X120913850Y-95969581D01*
X120893638Y-95962349D01*
X120874232Y-95953170D01*
X120855819Y-95942134D01*
X120838576Y-95929346D01*
X120822670Y-95914930D01*
X120808254Y-95899024D01*
X120795466Y-95881781D01*
X120784430Y-95863368D01*
X120775251Y-95843962D01*
X120768019Y-95823750D01*
X120762803Y-95802926D01*
X120759653Y-95781691D01*
X120758600Y-95760250D01*
X120758600Y-95247750D01*
X120759653Y-95226309D01*
X120762803Y-95205074D01*
X120768019Y-95184250D01*
X120775251Y-95164038D01*
X120784430Y-95144632D01*
X120795466Y-95126219D01*
X120808254Y-95108976D01*
X120822670Y-95093070D01*
X120838576Y-95078654D01*
X120855819Y-95065866D01*
X120874232Y-95054830D01*
X120893638Y-95045651D01*
X120913850Y-95038419D01*
X120934674Y-95033203D01*
X120955909Y-95030053D01*
X120977350Y-95029000D01*
X121414850Y-95029000D01*
X121436291Y-95030053D01*
X121436291Y-95030053D01*
G37*
D11*
X121196100Y-95504000D03*
D10*
G36*
X166444991Y-94737953D02*
G01*
X166466226Y-94741103D01*
X166487050Y-94746319D01*
X166507262Y-94753551D01*
X166526668Y-94762730D01*
X166545081Y-94773766D01*
X166562324Y-94786554D01*
X166578230Y-94800970D01*
X166592646Y-94816876D01*
X166605434Y-94834119D01*
X166616470Y-94852532D01*
X166625649Y-94871938D01*
X166632881Y-94892150D01*
X166638097Y-94912974D01*
X166641247Y-94934209D01*
X166642300Y-94955650D01*
X166642300Y-95468150D01*
X166641247Y-95489591D01*
X166638097Y-95510826D01*
X166632881Y-95531650D01*
X166625649Y-95551862D01*
X166616470Y-95571268D01*
X166605434Y-95589681D01*
X166592646Y-95606924D01*
X166578230Y-95622830D01*
X166562324Y-95637246D01*
X166545081Y-95650034D01*
X166526668Y-95661070D01*
X166507262Y-95670249D01*
X166487050Y-95677481D01*
X166466226Y-95682697D01*
X166444991Y-95685847D01*
X166423550Y-95686900D01*
X165986050Y-95686900D01*
X165964609Y-95685847D01*
X165943374Y-95682697D01*
X165922550Y-95677481D01*
X165902338Y-95670249D01*
X165882932Y-95661070D01*
X165864519Y-95650034D01*
X165847276Y-95637246D01*
X165831370Y-95622830D01*
X165816954Y-95606924D01*
X165804166Y-95589681D01*
X165793130Y-95571268D01*
X165783951Y-95551862D01*
X165776719Y-95531650D01*
X165771503Y-95510826D01*
X165768353Y-95489591D01*
X165767300Y-95468150D01*
X165767300Y-94955650D01*
X165768353Y-94934209D01*
X165771503Y-94912974D01*
X165776719Y-94892150D01*
X165783951Y-94871938D01*
X165793130Y-94852532D01*
X165804166Y-94834119D01*
X165816954Y-94816876D01*
X165831370Y-94800970D01*
X165847276Y-94786554D01*
X165864519Y-94773766D01*
X165882932Y-94762730D01*
X165902338Y-94753551D01*
X165922550Y-94746319D01*
X165943374Y-94741103D01*
X165964609Y-94737953D01*
X165986050Y-94736900D01*
X166423550Y-94736900D01*
X166444991Y-94737953D01*
X166444991Y-94737953D01*
G37*
D11*
X166204800Y-95211900D03*
D10*
G36*
X168019991Y-94737953D02*
G01*
X168041226Y-94741103D01*
X168062050Y-94746319D01*
X168082262Y-94753551D01*
X168101668Y-94762730D01*
X168120081Y-94773766D01*
X168137324Y-94786554D01*
X168153230Y-94800970D01*
X168167646Y-94816876D01*
X168180434Y-94834119D01*
X168191470Y-94852532D01*
X168200649Y-94871938D01*
X168207881Y-94892150D01*
X168213097Y-94912974D01*
X168216247Y-94934209D01*
X168217300Y-94955650D01*
X168217300Y-95468150D01*
X168216247Y-95489591D01*
X168213097Y-95510826D01*
X168207881Y-95531650D01*
X168200649Y-95551862D01*
X168191470Y-95571268D01*
X168180434Y-95589681D01*
X168167646Y-95606924D01*
X168153230Y-95622830D01*
X168137324Y-95637246D01*
X168120081Y-95650034D01*
X168101668Y-95661070D01*
X168082262Y-95670249D01*
X168062050Y-95677481D01*
X168041226Y-95682697D01*
X168019991Y-95685847D01*
X167998550Y-95686900D01*
X167561050Y-95686900D01*
X167539609Y-95685847D01*
X167518374Y-95682697D01*
X167497550Y-95677481D01*
X167477338Y-95670249D01*
X167457932Y-95661070D01*
X167439519Y-95650034D01*
X167422276Y-95637246D01*
X167406370Y-95622830D01*
X167391954Y-95606924D01*
X167379166Y-95589681D01*
X167368130Y-95571268D01*
X167358951Y-95551862D01*
X167351719Y-95531650D01*
X167346503Y-95510826D01*
X167343353Y-95489591D01*
X167342300Y-95468150D01*
X167342300Y-94955650D01*
X167343353Y-94934209D01*
X167346503Y-94912974D01*
X167351719Y-94892150D01*
X167358951Y-94871938D01*
X167368130Y-94852532D01*
X167379166Y-94834119D01*
X167391954Y-94816876D01*
X167406370Y-94800970D01*
X167422276Y-94786554D01*
X167439519Y-94773766D01*
X167457932Y-94762730D01*
X167477338Y-94753551D01*
X167497550Y-94746319D01*
X167518374Y-94741103D01*
X167539609Y-94737953D01*
X167561050Y-94736900D01*
X167998550Y-94736900D01*
X168019991Y-94737953D01*
X168019991Y-94737953D01*
G37*
D11*
X167779800Y-95211900D03*
D10*
G36*
X186130191Y-96173053D02*
G01*
X186151426Y-96176203D01*
X186172250Y-96181419D01*
X186192462Y-96188651D01*
X186211868Y-96197830D01*
X186230281Y-96208866D01*
X186247524Y-96221654D01*
X186263430Y-96236070D01*
X186277846Y-96251976D01*
X186290634Y-96269219D01*
X186301670Y-96287632D01*
X186310849Y-96307038D01*
X186318081Y-96327250D01*
X186323297Y-96348074D01*
X186326447Y-96369309D01*
X186327500Y-96390750D01*
X186327500Y-96903250D01*
X186326447Y-96924691D01*
X186323297Y-96945926D01*
X186318081Y-96966750D01*
X186310849Y-96986962D01*
X186301670Y-97006368D01*
X186290634Y-97024781D01*
X186277846Y-97042024D01*
X186263430Y-97057930D01*
X186247524Y-97072346D01*
X186230281Y-97085134D01*
X186211868Y-97096170D01*
X186192462Y-97105349D01*
X186172250Y-97112581D01*
X186151426Y-97117797D01*
X186130191Y-97120947D01*
X186108750Y-97122000D01*
X185671250Y-97122000D01*
X185649809Y-97120947D01*
X185628574Y-97117797D01*
X185607750Y-97112581D01*
X185587538Y-97105349D01*
X185568132Y-97096170D01*
X185549719Y-97085134D01*
X185532476Y-97072346D01*
X185516570Y-97057930D01*
X185502154Y-97042024D01*
X185489366Y-97024781D01*
X185478330Y-97006368D01*
X185469151Y-96986962D01*
X185461919Y-96966750D01*
X185456703Y-96945926D01*
X185453553Y-96924691D01*
X185452500Y-96903250D01*
X185452500Y-96390750D01*
X185453553Y-96369309D01*
X185456703Y-96348074D01*
X185461919Y-96327250D01*
X185469151Y-96307038D01*
X185478330Y-96287632D01*
X185489366Y-96269219D01*
X185502154Y-96251976D01*
X185516570Y-96236070D01*
X185532476Y-96221654D01*
X185549719Y-96208866D01*
X185568132Y-96197830D01*
X185587538Y-96188651D01*
X185607750Y-96181419D01*
X185628574Y-96176203D01*
X185649809Y-96173053D01*
X185671250Y-96172000D01*
X186108750Y-96172000D01*
X186130191Y-96173053D01*
X186130191Y-96173053D01*
G37*
D11*
X185890000Y-96647000D03*
D10*
G36*
X184555191Y-96173053D02*
G01*
X184576426Y-96176203D01*
X184597250Y-96181419D01*
X184617462Y-96188651D01*
X184636868Y-96197830D01*
X184655281Y-96208866D01*
X184672524Y-96221654D01*
X184688430Y-96236070D01*
X184702846Y-96251976D01*
X184715634Y-96269219D01*
X184726670Y-96287632D01*
X184735849Y-96307038D01*
X184743081Y-96327250D01*
X184748297Y-96348074D01*
X184751447Y-96369309D01*
X184752500Y-96390750D01*
X184752500Y-96903250D01*
X184751447Y-96924691D01*
X184748297Y-96945926D01*
X184743081Y-96966750D01*
X184735849Y-96986962D01*
X184726670Y-97006368D01*
X184715634Y-97024781D01*
X184702846Y-97042024D01*
X184688430Y-97057930D01*
X184672524Y-97072346D01*
X184655281Y-97085134D01*
X184636868Y-97096170D01*
X184617462Y-97105349D01*
X184597250Y-97112581D01*
X184576426Y-97117797D01*
X184555191Y-97120947D01*
X184533750Y-97122000D01*
X184096250Y-97122000D01*
X184074809Y-97120947D01*
X184053574Y-97117797D01*
X184032750Y-97112581D01*
X184012538Y-97105349D01*
X183993132Y-97096170D01*
X183974719Y-97085134D01*
X183957476Y-97072346D01*
X183941570Y-97057930D01*
X183927154Y-97042024D01*
X183914366Y-97024781D01*
X183903330Y-97006368D01*
X183894151Y-96986962D01*
X183886919Y-96966750D01*
X183881703Y-96945926D01*
X183878553Y-96924691D01*
X183877500Y-96903250D01*
X183877500Y-96390750D01*
X183878553Y-96369309D01*
X183881703Y-96348074D01*
X183886919Y-96327250D01*
X183894151Y-96307038D01*
X183903330Y-96287632D01*
X183914366Y-96269219D01*
X183927154Y-96251976D01*
X183941570Y-96236070D01*
X183957476Y-96221654D01*
X183974719Y-96208866D01*
X183993132Y-96197830D01*
X184012538Y-96188651D01*
X184032750Y-96181419D01*
X184053574Y-96176203D01*
X184074809Y-96173053D01*
X184096250Y-96172000D01*
X184533750Y-96172000D01*
X184555191Y-96173053D01*
X184555191Y-96173053D01*
G37*
D11*
X184315000Y-96647000D03*
D10*
G36*
X109830851Y-98085161D02*
G01*
X109838132Y-98086241D01*
X109845271Y-98088029D01*
X109852201Y-98090509D01*
X109858855Y-98093656D01*
X109865168Y-98097440D01*
X109871079Y-98101824D01*
X109876533Y-98106767D01*
X109881476Y-98112221D01*
X109885860Y-98118132D01*
X109889644Y-98124445D01*
X109892791Y-98131099D01*
X109895271Y-98138029D01*
X109897059Y-98145168D01*
X109898139Y-98152449D01*
X109898500Y-98159800D01*
X109898500Y-98809800D01*
X109898139Y-98817151D01*
X109897059Y-98824432D01*
X109895271Y-98831571D01*
X109892791Y-98838501D01*
X109889644Y-98845155D01*
X109885860Y-98851468D01*
X109881476Y-98857379D01*
X109876533Y-98862833D01*
X109871079Y-98867776D01*
X109865168Y-98872160D01*
X109858855Y-98875944D01*
X109852201Y-98879091D01*
X109845271Y-98881571D01*
X109838132Y-98883359D01*
X109830851Y-98884439D01*
X109823500Y-98884800D01*
X109673500Y-98884800D01*
X109666149Y-98884439D01*
X109658868Y-98883359D01*
X109651729Y-98881571D01*
X109644799Y-98879091D01*
X109638145Y-98875944D01*
X109631832Y-98872160D01*
X109625921Y-98867776D01*
X109620467Y-98862833D01*
X109615524Y-98857379D01*
X109611140Y-98851468D01*
X109607356Y-98845155D01*
X109604209Y-98838501D01*
X109601729Y-98831571D01*
X109599941Y-98824432D01*
X109598861Y-98817151D01*
X109598500Y-98809800D01*
X109598500Y-98159800D01*
X109598861Y-98152449D01*
X109599941Y-98145168D01*
X109601729Y-98138029D01*
X109604209Y-98131099D01*
X109607356Y-98124445D01*
X109611140Y-98118132D01*
X109615524Y-98112221D01*
X109620467Y-98106767D01*
X109625921Y-98101824D01*
X109631832Y-98097440D01*
X109638145Y-98093656D01*
X109644799Y-98090509D01*
X109651729Y-98088029D01*
X109658868Y-98086241D01*
X109666149Y-98085161D01*
X109673500Y-98084800D01*
X109823500Y-98084800D01*
X109830851Y-98085161D01*
X109830851Y-98085161D01*
G37*
D12*
X109748500Y-98484800D03*
D10*
G36*
X109180851Y-98085161D02*
G01*
X109188132Y-98086241D01*
X109195271Y-98088029D01*
X109202201Y-98090509D01*
X109208855Y-98093656D01*
X109215168Y-98097440D01*
X109221079Y-98101824D01*
X109226533Y-98106767D01*
X109231476Y-98112221D01*
X109235860Y-98118132D01*
X109239644Y-98124445D01*
X109242791Y-98131099D01*
X109245271Y-98138029D01*
X109247059Y-98145168D01*
X109248139Y-98152449D01*
X109248500Y-98159800D01*
X109248500Y-98809800D01*
X109248139Y-98817151D01*
X109247059Y-98824432D01*
X109245271Y-98831571D01*
X109242791Y-98838501D01*
X109239644Y-98845155D01*
X109235860Y-98851468D01*
X109231476Y-98857379D01*
X109226533Y-98862833D01*
X109221079Y-98867776D01*
X109215168Y-98872160D01*
X109208855Y-98875944D01*
X109202201Y-98879091D01*
X109195271Y-98881571D01*
X109188132Y-98883359D01*
X109180851Y-98884439D01*
X109173500Y-98884800D01*
X109023500Y-98884800D01*
X109016149Y-98884439D01*
X109008868Y-98883359D01*
X109001729Y-98881571D01*
X108994799Y-98879091D01*
X108988145Y-98875944D01*
X108981832Y-98872160D01*
X108975921Y-98867776D01*
X108970467Y-98862833D01*
X108965524Y-98857379D01*
X108961140Y-98851468D01*
X108957356Y-98845155D01*
X108954209Y-98838501D01*
X108951729Y-98831571D01*
X108949941Y-98824432D01*
X108948861Y-98817151D01*
X108948500Y-98809800D01*
X108948500Y-98159800D01*
X108948861Y-98152449D01*
X108949941Y-98145168D01*
X108951729Y-98138029D01*
X108954209Y-98131099D01*
X108957356Y-98124445D01*
X108961140Y-98118132D01*
X108965524Y-98112221D01*
X108970467Y-98106767D01*
X108975921Y-98101824D01*
X108981832Y-98097440D01*
X108988145Y-98093656D01*
X108994799Y-98090509D01*
X109001729Y-98088029D01*
X109008868Y-98086241D01*
X109016149Y-98085161D01*
X109023500Y-98084800D01*
X109173500Y-98084800D01*
X109180851Y-98085161D01*
X109180851Y-98085161D01*
G37*
D12*
X109098500Y-98484800D03*
D10*
G36*
X108530851Y-98085161D02*
G01*
X108538132Y-98086241D01*
X108545271Y-98088029D01*
X108552201Y-98090509D01*
X108558855Y-98093656D01*
X108565168Y-98097440D01*
X108571079Y-98101824D01*
X108576533Y-98106767D01*
X108581476Y-98112221D01*
X108585860Y-98118132D01*
X108589644Y-98124445D01*
X108592791Y-98131099D01*
X108595271Y-98138029D01*
X108597059Y-98145168D01*
X108598139Y-98152449D01*
X108598500Y-98159800D01*
X108598500Y-98809800D01*
X108598139Y-98817151D01*
X108597059Y-98824432D01*
X108595271Y-98831571D01*
X108592791Y-98838501D01*
X108589644Y-98845155D01*
X108585860Y-98851468D01*
X108581476Y-98857379D01*
X108576533Y-98862833D01*
X108571079Y-98867776D01*
X108565168Y-98872160D01*
X108558855Y-98875944D01*
X108552201Y-98879091D01*
X108545271Y-98881571D01*
X108538132Y-98883359D01*
X108530851Y-98884439D01*
X108523500Y-98884800D01*
X108373500Y-98884800D01*
X108366149Y-98884439D01*
X108358868Y-98883359D01*
X108351729Y-98881571D01*
X108344799Y-98879091D01*
X108338145Y-98875944D01*
X108331832Y-98872160D01*
X108325921Y-98867776D01*
X108320467Y-98862833D01*
X108315524Y-98857379D01*
X108311140Y-98851468D01*
X108307356Y-98845155D01*
X108304209Y-98838501D01*
X108301729Y-98831571D01*
X108299941Y-98824432D01*
X108298861Y-98817151D01*
X108298500Y-98809800D01*
X108298500Y-98159800D01*
X108298861Y-98152449D01*
X108299941Y-98145168D01*
X108301729Y-98138029D01*
X108304209Y-98131099D01*
X108307356Y-98124445D01*
X108311140Y-98118132D01*
X108315524Y-98112221D01*
X108320467Y-98106767D01*
X108325921Y-98101824D01*
X108331832Y-98097440D01*
X108338145Y-98093656D01*
X108344799Y-98090509D01*
X108351729Y-98088029D01*
X108358868Y-98086241D01*
X108366149Y-98085161D01*
X108373500Y-98084800D01*
X108523500Y-98084800D01*
X108530851Y-98085161D01*
X108530851Y-98085161D01*
G37*
D12*
X108448500Y-98484800D03*
D10*
G36*
X107880851Y-98085161D02*
G01*
X107888132Y-98086241D01*
X107895271Y-98088029D01*
X107902201Y-98090509D01*
X107908855Y-98093656D01*
X107915168Y-98097440D01*
X107921079Y-98101824D01*
X107926533Y-98106767D01*
X107931476Y-98112221D01*
X107935860Y-98118132D01*
X107939644Y-98124445D01*
X107942791Y-98131099D01*
X107945271Y-98138029D01*
X107947059Y-98145168D01*
X107948139Y-98152449D01*
X107948500Y-98159800D01*
X107948500Y-98809800D01*
X107948139Y-98817151D01*
X107947059Y-98824432D01*
X107945271Y-98831571D01*
X107942791Y-98838501D01*
X107939644Y-98845155D01*
X107935860Y-98851468D01*
X107931476Y-98857379D01*
X107926533Y-98862833D01*
X107921079Y-98867776D01*
X107915168Y-98872160D01*
X107908855Y-98875944D01*
X107902201Y-98879091D01*
X107895271Y-98881571D01*
X107888132Y-98883359D01*
X107880851Y-98884439D01*
X107873500Y-98884800D01*
X107723500Y-98884800D01*
X107716149Y-98884439D01*
X107708868Y-98883359D01*
X107701729Y-98881571D01*
X107694799Y-98879091D01*
X107688145Y-98875944D01*
X107681832Y-98872160D01*
X107675921Y-98867776D01*
X107670467Y-98862833D01*
X107665524Y-98857379D01*
X107661140Y-98851468D01*
X107657356Y-98845155D01*
X107654209Y-98838501D01*
X107651729Y-98831571D01*
X107649941Y-98824432D01*
X107648861Y-98817151D01*
X107648500Y-98809800D01*
X107648500Y-98159800D01*
X107648861Y-98152449D01*
X107649941Y-98145168D01*
X107651729Y-98138029D01*
X107654209Y-98131099D01*
X107657356Y-98124445D01*
X107661140Y-98118132D01*
X107665524Y-98112221D01*
X107670467Y-98106767D01*
X107675921Y-98101824D01*
X107681832Y-98097440D01*
X107688145Y-98093656D01*
X107694799Y-98090509D01*
X107701729Y-98088029D01*
X107708868Y-98086241D01*
X107716149Y-98085161D01*
X107723500Y-98084800D01*
X107873500Y-98084800D01*
X107880851Y-98085161D01*
X107880851Y-98085161D01*
G37*
D12*
X107798500Y-98484800D03*
D10*
G36*
X107880851Y-95185161D02*
G01*
X107888132Y-95186241D01*
X107895271Y-95188029D01*
X107902201Y-95190509D01*
X107908855Y-95193656D01*
X107915168Y-95197440D01*
X107921079Y-95201824D01*
X107926533Y-95206767D01*
X107931476Y-95212221D01*
X107935860Y-95218132D01*
X107939644Y-95224445D01*
X107942791Y-95231099D01*
X107945271Y-95238029D01*
X107947059Y-95245168D01*
X107948139Y-95252449D01*
X107948500Y-95259800D01*
X107948500Y-95909800D01*
X107948139Y-95917151D01*
X107947059Y-95924432D01*
X107945271Y-95931571D01*
X107942791Y-95938501D01*
X107939644Y-95945155D01*
X107935860Y-95951468D01*
X107931476Y-95957379D01*
X107926533Y-95962833D01*
X107921079Y-95967776D01*
X107915168Y-95972160D01*
X107908855Y-95975944D01*
X107902201Y-95979091D01*
X107895271Y-95981571D01*
X107888132Y-95983359D01*
X107880851Y-95984439D01*
X107873500Y-95984800D01*
X107723500Y-95984800D01*
X107716149Y-95984439D01*
X107708868Y-95983359D01*
X107701729Y-95981571D01*
X107694799Y-95979091D01*
X107688145Y-95975944D01*
X107681832Y-95972160D01*
X107675921Y-95967776D01*
X107670467Y-95962833D01*
X107665524Y-95957379D01*
X107661140Y-95951468D01*
X107657356Y-95945155D01*
X107654209Y-95938501D01*
X107651729Y-95931571D01*
X107649941Y-95924432D01*
X107648861Y-95917151D01*
X107648500Y-95909800D01*
X107648500Y-95259800D01*
X107648861Y-95252449D01*
X107649941Y-95245168D01*
X107651729Y-95238029D01*
X107654209Y-95231099D01*
X107657356Y-95224445D01*
X107661140Y-95218132D01*
X107665524Y-95212221D01*
X107670467Y-95206767D01*
X107675921Y-95201824D01*
X107681832Y-95197440D01*
X107688145Y-95193656D01*
X107694799Y-95190509D01*
X107701729Y-95188029D01*
X107708868Y-95186241D01*
X107716149Y-95185161D01*
X107723500Y-95184800D01*
X107873500Y-95184800D01*
X107880851Y-95185161D01*
X107880851Y-95185161D01*
G37*
D12*
X107798500Y-95584800D03*
D10*
G36*
X108530851Y-95185161D02*
G01*
X108538132Y-95186241D01*
X108545271Y-95188029D01*
X108552201Y-95190509D01*
X108558855Y-95193656D01*
X108565168Y-95197440D01*
X108571079Y-95201824D01*
X108576533Y-95206767D01*
X108581476Y-95212221D01*
X108585860Y-95218132D01*
X108589644Y-95224445D01*
X108592791Y-95231099D01*
X108595271Y-95238029D01*
X108597059Y-95245168D01*
X108598139Y-95252449D01*
X108598500Y-95259800D01*
X108598500Y-95909800D01*
X108598139Y-95917151D01*
X108597059Y-95924432D01*
X108595271Y-95931571D01*
X108592791Y-95938501D01*
X108589644Y-95945155D01*
X108585860Y-95951468D01*
X108581476Y-95957379D01*
X108576533Y-95962833D01*
X108571079Y-95967776D01*
X108565168Y-95972160D01*
X108558855Y-95975944D01*
X108552201Y-95979091D01*
X108545271Y-95981571D01*
X108538132Y-95983359D01*
X108530851Y-95984439D01*
X108523500Y-95984800D01*
X108373500Y-95984800D01*
X108366149Y-95984439D01*
X108358868Y-95983359D01*
X108351729Y-95981571D01*
X108344799Y-95979091D01*
X108338145Y-95975944D01*
X108331832Y-95972160D01*
X108325921Y-95967776D01*
X108320467Y-95962833D01*
X108315524Y-95957379D01*
X108311140Y-95951468D01*
X108307356Y-95945155D01*
X108304209Y-95938501D01*
X108301729Y-95931571D01*
X108299941Y-95924432D01*
X108298861Y-95917151D01*
X108298500Y-95909800D01*
X108298500Y-95259800D01*
X108298861Y-95252449D01*
X108299941Y-95245168D01*
X108301729Y-95238029D01*
X108304209Y-95231099D01*
X108307356Y-95224445D01*
X108311140Y-95218132D01*
X108315524Y-95212221D01*
X108320467Y-95206767D01*
X108325921Y-95201824D01*
X108331832Y-95197440D01*
X108338145Y-95193656D01*
X108344799Y-95190509D01*
X108351729Y-95188029D01*
X108358868Y-95186241D01*
X108366149Y-95185161D01*
X108373500Y-95184800D01*
X108523500Y-95184800D01*
X108530851Y-95185161D01*
X108530851Y-95185161D01*
G37*
D12*
X108448500Y-95584800D03*
D10*
G36*
X109180851Y-95185161D02*
G01*
X109188132Y-95186241D01*
X109195271Y-95188029D01*
X109202201Y-95190509D01*
X109208855Y-95193656D01*
X109215168Y-95197440D01*
X109221079Y-95201824D01*
X109226533Y-95206767D01*
X109231476Y-95212221D01*
X109235860Y-95218132D01*
X109239644Y-95224445D01*
X109242791Y-95231099D01*
X109245271Y-95238029D01*
X109247059Y-95245168D01*
X109248139Y-95252449D01*
X109248500Y-95259800D01*
X109248500Y-95909800D01*
X109248139Y-95917151D01*
X109247059Y-95924432D01*
X109245271Y-95931571D01*
X109242791Y-95938501D01*
X109239644Y-95945155D01*
X109235860Y-95951468D01*
X109231476Y-95957379D01*
X109226533Y-95962833D01*
X109221079Y-95967776D01*
X109215168Y-95972160D01*
X109208855Y-95975944D01*
X109202201Y-95979091D01*
X109195271Y-95981571D01*
X109188132Y-95983359D01*
X109180851Y-95984439D01*
X109173500Y-95984800D01*
X109023500Y-95984800D01*
X109016149Y-95984439D01*
X109008868Y-95983359D01*
X109001729Y-95981571D01*
X108994799Y-95979091D01*
X108988145Y-95975944D01*
X108981832Y-95972160D01*
X108975921Y-95967776D01*
X108970467Y-95962833D01*
X108965524Y-95957379D01*
X108961140Y-95951468D01*
X108957356Y-95945155D01*
X108954209Y-95938501D01*
X108951729Y-95931571D01*
X108949941Y-95924432D01*
X108948861Y-95917151D01*
X108948500Y-95909800D01*
X108948500Y-95259800D01*
X108948861Y-95252449D01*
X108949941Y-95245168D01*
X108951729Y-95238029D01*
X108954209Y-95231099D01*
X108957356Y-95224445D01*
X108961140Y-95218132D01*
X108965524Y-95212221D01*
X108970467Y-95206767D01*
X108975921Y-95201824D01*
X108981832Y-95197440D01*
X108988145Y-95193656D01*
X108994799Y-95190509D01*
X109001729Y-95188029D01*
X109008868Y-95186241D01*
X109016149Y-95185161D01*
X109023500Y-95184800D01*
X109173500Y-95184800D01*
X109180851Y-95185161D01*
X109180851Y-95185161D01*
G37*
D12*
X109098500Y-95584800D03*
D10*
G36*
X109830851Y-95185161D02*
G01*
X109838132Y-95186241D01*
X109845271Y-95188029D01*
X109852201Y-95190509D01*
X109858855Y-95193656D01*
X109865168Y-95197440D01*
X109871079Y-95201824D01*
X109876533Y-95206767D01*
X109881476Y-95212221D01*
X109885860Y-95218132D01*
X109889644Y-95224445D01*
X109892791Y-95231099D01*
X109895271Y-95238029D01*
X109897059Y-95245168D01*
X109898139Y-95252449D01*
X109898500Y-95259800D01*
X109898500Y-95909800D01*
X109898139Y-95917151D01*
X109897059Y-95924432D01*
X109895271Y-95931571D01*
X109892791Y-95938501D01*
X109889644Y-95945155D01*
X109885860Y-95951468D01*
X109881476Y-95957379D01*
X109876533Y-95962833D01*
X109871079Y-95967776D01*
X109865168Y-95972160D01*
X109858855Y-95975944D01*
X109852201Y-95979091D01*
X109845271Y-95981571D01*
X109838132Y-95983359D01*
X109830851Y-95984439D01*
X109823500Y-95984800D01*
X109673500Y-95984800D01*
X109666149Y-95984439D01*
X109658868Y-95983359D01*
X109651729Y-95981571D01*
X109644799Y-95979091D01*
X109638145Y-95975944D01*
X109631832Y-95972160D01*
X109625921Y-95967776D01*
X109620467Y-95962833D01*
X109615524Y-95957379D01*
X109611140Y-95951468D01*
X109607356Y-95945155D01*
X109604209Y-95938501D01*
X109601729Y-95931571D01*
X109599941Y-95924432D01*
X109598861Y-95917151D01*
X109598500Y-95909800D01*
X109598500Y-95259800D01*
X109598861Y-95252449D01*
X109599941Y-95245168D01*
X109601729Y-95238029D01*
X109604209Y-95231099D01*
X109607356Y-95224445D01*
X109611140Y-95218132D01*
X109615524Y-95212221D01*
X109620467Y-95206767D01*
X109625921Y-95201824D01*
X109631832Y-95197440D01*
X109638145Y-95193656D01*
X109644799Y-95190509D01*
X109651729Y-95188029D01*
X109658868Y-95186241D01*
X109666149Y-95185161D01*
X109673500Y-95184800D01*
X109823500Y-95184800D01*
X109830851Y-95185161D01*
X109830851Y-95185161D01*
G37*
D12*
X109748500Y-95584800D03*
D10*
G36*
X109573004Y-96186004D02*
G01*
X109597273Y-96189604D01*
X109621071Y-96195565D01*
X109644171Y-96203830D01*
X109666349Y-96214320D01*
X109687393Y-96226933D01*
X109707098Y-96241547D01*
X109725277Y-96258023D01*
X109741753Y-96276202D01*
X109756367Y-96295907D01*
X109768980Y-96316951D01*
X109779470Y-96339129D01*
X109787735Y-96362229D01*
X109793696Y-96386027D01*
X109797296Y-96410296D01*
X109798500Y-96434800D01*
X109798500Y-97634800D01*
X109797296Y-97659304D01*
X109793696Y-97683573D01*
X109787735Y-97707371D01*
X109779470Y-97730471D01*
X109768980Y-97752649D01*
X109756367Y-97773693D01*
X109741753Y-97793398D01*
X109725277Y-97811577D01*
X109707098Y-97828053D01*
X109687393Y-97842667D01*
X109666349Y-97855280D01*
X109644171Y-97865770D01*
X109621071Y-97874035D01*
X109597273Y-97879996D01*
X109573004Y-97883596D01*
X109548500Y-97884800D01*
X107998500Y-97884800D01*
X107973996Y-97883596D01*
X107949727Y-97879996D01*
X107925929Y-97874035D01*
X107902829Y-97865770D01*
X107880651Y-97855280D01*
X107859607Y-97842667D01*
X107839902Y-97828053D01*
X107821723Y-97811577D01*
X107805247Y-97793398D01*
X107790633Y-97773693D01*
X107778020Y-97752649D01*
X107767530Y-97730471D01*
X107759265Y-97707371D01*
X107753304Y-97683573D01*
X107749704Y-97659304D01*
X107748500Y-97634800D01*
X107748500Y-96434800D01*
X107749704Y-96410296D01*
X107753304Y-96386027D01*
X107759265Y-96362229D01*
X107767530Y-96339129D01*
X107778020Y-96316951D01*
X107790633Y-96295907D01*
X107805247Y-96276202D01*
X107821723Y-96258023D01*
X107839902Y-96241547D01*
X107859607Y-96226933D01*
X107880651Y-96214320D01*
X107902829Y-96203830D01*
X107925929Y-96195565D01*
X107949727Y-96189604D01*
X107973996Y-96186004D01*
X107998500Y-96184800D01*
X109548500Y-96184800D01*
X109573004Y-96186004D01*
X109573004Y-96186004D01*
G37*
D13*
X108773500Y-97034800D03*
D10*
G36*
X131803851Y-98103761D02*
G01*
X131811132Y-98104841D01*
X131818271Y-98106629D01*
X131825201Y-98109109D01*
X131831855Y-98112256D01*
X131838168Y-98116040D01*
X131844079Y-98120424D01*
X131849533Y-98125367D01*
X131854476Y-98130821D01*
X131858860Y-98136732D01*
X131862644Y-98143045D01*
X131865791Y-98149699D01*
X131868271Y-98156629D01*
X131870059Y-98163768D01*
X131871139Y-98171049D01*
X131871500Y-98178400D01*
X131871500Y-98828400D01*
X131871139Y-98835751D01*
X131870059Y-98843032D01*
X131868271Y-98850171D01*
X131865791Y-98857101D01*
X131862644Y-98863755D01*
X131858860Y-98870068D01*
X131854476Y-98875979D01*
X131849533Y-98881433D01*
X131844079Y-98886376D01*
X131838168Y-98890760D01*
X131831855Y-98894544D01*
X131825201Y-98897691D01*
X131818271Y-98900171D01*
X131811132Y-98901959D01*
X131803851Y-98903039D01*
X131796500Y-98903400D01*
X131646500Y-98903400D01*
X131639149Y-98903039D01*
X131631868Y-98901959D01*
X131624729Y-98900171D01*
X131617799Y-98897691D01*
X131611145Y-98894544D01*
X131604832Y-98890760D01*
X131598921Y-98886376D01*
X131593467Y-98881433D01*
X131588524Y-98875979D01*
X131584140Y-98870068D01*
X131580356Y-98863755D01*
X131577209Y-98857101D01*
X131574729Y-98850171D01*
X131572941Y-98843032D01*
X131571861Y-98835751D01*
X131571500Y-98828400D01*
X131571500Y-98178400D01*
X131571861Y-98171049D01*
X131572941Y-98163768D01*
X131574729Y-98156629D01*
X131577209Y-98149699D01*
X131580356Y-98143045D01*
X131584140Y-98136732D01*
X131588524Y-98130821D01*
X131593467Y-98125367D01*
X131598921Y-98120424D01*
X131604832Y-98116040D01*
X131611145Y-98112256D01*
X131617799Y-98109109D01*
X131624729Y-98106629D01*
X131631868Y-98104841D01*
X131639149Y-98103761D01*
X131646500Y-98103400D01*
X131796500Y-98103400D01*
X131803851Y-98103761D01*
X131803851Y-98103761D01*
G37*
D12*
X131721500Y-98503400D03*
D10*
G36*
X131153851Y-98103761D02*
G01*
X131161132Y-98104841D01*
X131168271Y-98106629D01*
X131175201Y-98109109D01*
X131181855Y-98112256D01*
X131188168Y-98116040D01*
X131194079Y-98120424D01*
X131199533Y-98125367D01*
X131204476Y-98130821D01*
X131208860Y-98136732D01*
X131212644Y-98143045D01*
X131215791Y-98149699D01*
X131218271Y-98156629D01*
X131220059Y-98163768D01*
X131221139Y-98171049D01*
X131221500Y-98178400D01*
X131221500Y-98828400D01*
X131221139Y-98835751D01*
X131220059Y-98843032D01*
X131218271Y-98850171D01*
X131215791Y-98857101D01*
X131212644Y-98863755D01*
X131208860Y-98870068D01*
X131204476Y-98875979D01*
X131199533Y-98881433D01*
X131194079Y-98886376D01*
X131188168Y-98890760D01*
X131181855Y-98894544D01*
X131175201Y-98897691D01*
X131168271Y-98900171D01*
X131161132Y-98901959D01*
X131153851Y-98903039D01*
X131146500Y-98903400D01*
X130996500Y-98903400D01*
X130989149Y-98903039D01*
X130981868Y-98901959D01*
X130974729Y-98900171D01*
X130967799Y-98897691D01*
X130961145Y-98894544D01*
X130954832Y-98890760D01*
X130948921Y-98886376D01*
X130943467Y-98881433D01*
X130938524Y-98875979D01*
X130934140Y-98870068D01*
X130930356Y-98863755D01*
X130927209Y-98857101D01*
X130924729Y-98850171D01*
X130922941Y-98843032D01*
X130921861Y-98835751D01*
X130921500Y-98828400D01*
X130921500Y-98178400D01*
X130921861Y-98171049D01*
X130922941Y-98163768D01*
X130924729Y-98156629D01*
X130927209Y-98149699D01*
X130930356Y-98143045D01*
X130934140Y-98136732D01*
X130938524Y-98130821D01*
X130943467Y-98125367D01*
X130948921Y-98120424D01*
X130954832Y-98116040D01*
X130961145Y-98112256D01*
X130967799Y-98109109D01*
X130974729Y-98106629D01*
X130981868Y-98104841D01*
X130989149Y-98103761D01*
X130996500Y-98103400D01*
X131146500Y-98103400D01*
X131153851Y-98103761D01*
X131153851Y-98103761D01*
G37*
D12*
X131071500Y-98503400D03*
D10*
G36*
X130503851Y-98103761D02*
G01*
X130511132Y-98104841D01*
X130518271Y-98106629D01*
X130525201Y-98109109D01*
X130531855Y-98112256D01*
X130538168Y-98116040D01*
X130544079Y-98120424D01*
X130549533Y-98125367D01*
X130554476Y-98130821D01*
X130558860Y-98136732D01*
X130562644Y-98143045D01*
X130565791Y-98149699D01*
X130568271Y-98156629D01*
X130570059Y-98163768D01*
X130571139Y-98171049D01*
X130571500Y-98178400D01*
X130571500Y-98828400D01*
X130571139Y-98835751D01*
X130570059Y-98843032D01*
X130568271Y-98850171D01*
X130565791Y-98857101D01*
X130562644Y-98863755D01*
X130558860Y-98870068D01*
X130554476Y-98875979D01*
X130549533Y-98881433D01*
X130544079Y-98886376D01*
X130538168Y-98890760D01*
X130531855Y-98894544D01*
X130525201Y-98897691D01*
X130518271Y-98900171D01*
X130511132Y-98901959D01*
X130503851Y-98903039D01*
X130496500Y-98903400D01*
X130346500Y-98903400D01*
X130339149Y-98903039D01*
X130331868Y-98901959D01*
X130324729Y-98900171D01*
X130317799Y-98897691D01*
X130311145Y-98894544D01*
X130304832Y-98890760D01*
X130298921Y-98886376D01*
X130293467Y-98881433D01*
X130288524Y-98875979D01*
X130284140Y-98870068D01*
X130280356Y-98863755D01*
X130277209Y-98857101D01*
X130274729Y-98850171D01*
X130272941Y-98843032D01*
X130271861Y-98835751D01*
X130271500Y-98828400D01*
X130271500Y-98178400D01*
X130271861Y-98171049D01*
X130272941Y-98163768D01*
X130274729Y-98156629D01*
X130277209Y-98149699D01*
X130280356Y-98143045D01*
X130284140Y-98136732D01*
X130288524Y-98130821D01*
X130293467Y-98125367D01*
X130298921Y-98120424D01*
X130304832Y-98116040D01*
X130311145Y-98112256D01*
X130317799Y-98109109D01*
X130324729Y-98106629D01*
X130331868Y-98104841D01*
X130339149Y-98103761D01*
X130346500Y-98103400D01*
X130496500Y-98103400D01*
X130503851Y-98103761D01*
X130503851Y-98103761D01*
G37*
D12*
X130421500Y-98503400D03*
D10*
G36*
X129853851Y-98103761D02*
G01*
X129861132Y-98104841D01*
X129868271Y-98106629D01*
X129875201Y-98109109D01*
X129881855Y-98112256D01*
X129888168Y-98116040D01*
X129894079Y-98120424D01*
X129899533Y-98125367D01*
X129904476Y-98130821D01*
X129908860Y-98136732D01*
X129912644Y-98143045D01*
X129915791Y-98149699D01*
X129918271Y-98156629D01*
X129920059Y-98163768D01*
X129921139Y-98171049D01*
X129921500Y-98178400D01*
X129921500Y-98828400D01*
X129921139Y-98835751D01*
X129920059Y-98843032D01*
X129918271Y-98850171D01*
X129915791Y-98857101D01*
X129912644Y-98863755D01*
X129908860Y-98870068D01*
X129904476Y-98875979D01*
X129899533Y-98881433D01*
X129894079Y-98886376D01*
X129888168Y-98890760D01*
X129881855Y-98894544D01*
X129875201Y-98897691D01*
X129868271Y-98900171D01*
X129861132Y-98901959D01*
X129853851Y-98903039D01*
X129846500Y-98903400D01*
X129696500Y-98903400D01*
X129689149Y-98903039D01*
X129681868Y-98901959D01*
X129674729Y-98900171D01*
X129667799Y-98897691D01*
X129661145Y-98894544D01*
X129654832Y-98890760D01*
X129648921Y-98886376D01*
X129643467Y-98881433D01*
X129638524Y-98875979D01*
X129634140Y-98870068D01*
X129630356Y-98863755D01*
X129627209Y-98857101D01*
X129624729Y-98850171D01*
X129622941Y-98843032D01*
X129621861Y-98835751D01*
X129621500Y-98828400D01*
X129621500Y-98178400D01*
X129621861Y-98171049D01*
X129622941Y-98163768D01*
X129624729Y-98156629D01*
X129627209Y-98149699D01*
X129630356Y-98143045D01*
X129634140Y-98136732D01*
X129638524Y-98130821D01*
X129643467Y-98125367D01*
X129648921Y-98120424D01*
X129654832Y-98116040D01*
X129661145Y-98112256D01*
X129667799Y-98109109D01*
X129674729Y-98106629D01*
X129681868Y-98104841D01*
X129689149Y-98103761D01*
X129696500Y-98103400D01*
X129846500Y-98103400D01*
X129853851Y-98103761D01*
X129853851Y-98103761D01*
G37*
D12*
X129771500Y-98503400D03*
D10*
G36*
X129853851Y-95203761D02*
G01*
X129861132Y-95204841D01*
X129868271Y-95206629D01*
X129875201Y-95209109D01*
X129881855Y-95212256D01*
X129888168Y-95216040D01*
X129894079Y-95220424D01*
X129899533Y-95225367D01*
X129904476Y-95230821D01*
X129908860Y-95236732D01*
X129912644Y-95243045D01*
X129915791Y-95249699D01*
X129918271Y-95256629D01*
X129920059Y-95263768D01*
X129921139Y-95271049D01*
X129921500Y-95278400D01*
X129921500Y-95928400D01*
X129921139Y-95935751D01*
X129920059Y-95943032D01*
X129918271Y-95950171D01*
X129915791Y-95957101D01*
X129912644Y-95963755D01*
X129908860Y-95970068D01*
X129904476Y-95975979D01*
X129899533Y-95981433D01*
X129894079Y-95986376D01*
X129888168Y-95990760D01*
X129881855Y-95994544D01*
X129875201Y-95997691D01*
X129868271Y-96000171D01*
X129861132Y-96001959D01*
X129853851Y-96003039D01*
X129846500Y-96003400D01*
X129696500Y-96003400D01*
X129689149Y-96003039D01*
X129681868Y-96001959D01*
X129674729Y-96000171D01*
X129667799Y-95997691D01*
X129661145Y-95994544D01*
X129654832Y-95990760D01*
X129648921Y-95986376D01*
X129643467Y-95981433D01*
X129638524Y-95975979D01*
X129634140Y-95970068D01*
X129630356Y-95963755D01*
X129627209Y-95957101D01*
X129624729Y-95950171D01*
X129622941Y-95943032D01*
X129621861Y-95935751D01*
X129621500Y-95928400D01*
X129621500Y-95278400D01*
X129621861Y-95271049D01*
X129622941Y-95263768D01*
X129624729Y-95256629D01*
X129627209Y-95249699D01*
X129630356Y-95243045D01*
X129634140Y-95236732D01*
X129638524Y-95230821D01*
X129643467Y-95225367D01*
X129648921Y-95220424D01*
X129654832Y-95216040D01*
X129661145Y-95212256D01*
X129667799Y-95209109D01*
X129674729Y-95206629D01*
X129681868Y-95204841D01*
X129689149Y-95203761D01*
X129696500Y-95203400D01*
X129846500Y-95203400D01*
X129853851Y-95203761D01*
X129853851Y-95203761D01*
G37*
D12*
X129771500Y-95603400D03*
D10*
G36*
X130503851Y-95203761D02*
G01*
X130511132Y-95204841D01*
X130518271Y-95206629D01*
X130525201Y-95209109D01*
X130531855Y-95212256D01*
X130538168Y-95216040D01*
X130544079Y-95220424D01*
X130549533Y-95225367D01*
X130554476Y-95230821D01*
X130558860Y-95236732D01*
X130562644Y-95243045D01*
X130565791Y-95249699D01*
X130568271Y-95256629D01*
X130570059Y-95263768D01*
X130571139Y-95271049D01*
X130571500Y-95278400D01*
X130571500Y-95928400D01*
X130571139Y-95935751D01*
X130570059Y-95943032D01*
X130568271Y-95950171D01*
X130565791Y-95957101D01*
X130562644Y-95963755D01*
X130558860Y-95970068D01*
X130554476Y-95975979D01*
X130549533Y-95981433D01*
X130544079Y-95986376D01*
X130538168Y-95990760D01*
X130531855Y-95994544D01*
X130525201Y-95997691D01*
X130518271Y-96000171D01*
X130511132Y-96001959D01*
X130503851Y-96003039D01*
X130496500Y-96003400D01*
X130346500Y-96003400D01*
X130339149Y-96003039D01*
X130331868Y-96001959D01*
X130324729Y-96000171D01*
X130317799Y-95997691D01*
X130311145Y-95994544D01*
X130304832Y-95990760D01*
X130298921Y-95986376D01*
X130293467Y-95981433D01*
X130288524Y-95975979D01*
X130284140Y-95970068D01*
X130280356Y-95963755D01*
X130277209Y-95957101D01*
X130274729Y-95950171D01*
X130272941Y-95943032D01*
X130271861Y-95935751D01*
X130271500Y-95928400D01*
X130271500Y-95278400D01*
X130271861Y-95271049D01*
X130272941Y-95263768D01*
X130274729Y-95256629D01*
X130277209Y-95249699D01*
X130280356Y-95243045D01*
X130284140Y-95236732D01*
X130288524Y-95230821D01*
X130293467Y-95225367D01*
X130298921Y-95220424D01*
X130304832Y-95216040D01*
X130311145Y-95212256D01*
X130317799Y-95209109D01*
X130324729Y-95206629D01*
X130331868Y-95204841D01*
X130339149Y-95203761D01*
X130346500Y-95203400D01*
X130496500Y-95203400D01*
X130503851Y-95203761D01*
X130503851Y-95203761D01*
G37*
D12*
X130421500Y-95603400D03*
D10*
G36*
X131153851Y-95203761D02*
G01*
X131161132Y-95204841D01*
X131168271Y-95206629D01*
X131175201Y-95209109D01*
X131181855Y-95212256D01*
X131188168Y-95216040D01*
X131194079Y-95220424D01*
X131199533Y-95225367D01*
X131204476Y-95230821D01*
X131208860Y-95236732D01*
X131212644Y-95243045D01*
X131215791Y-95249699D01*
X131218271Y-95256629D01*
X131220059Y-95263768D01*
X131221139Y-95271049D01*
X131221500Y-95278400D01*
X131221500Y-95928400D01*
X131221139Y-95935751D01*
X131220059Y-95943032D01*
X131218271Y-95950171D01*
X131215791Y-95957101D01*
X131212644Y-95963755D01*
X131208860Y-95970068D01*
X131204476Y-95975979D01*
X131199533Y-95981433D01*
X131194079Y-95986376D01*
X131188168Y-95990760D01*
X131181855Y-95994544D01*
X131175201Y-95997691D01*
X131168271Y-96000171D01*
X131161132Y-96001959D01*
X131153851Y-96003039D01*
X131146500Y-96003400D01*
X130996500Y-96003400D01*
X130989149Y-96003039D01*
X130981868Y-96001959D01*
X130974729Y-96000171D01*
X130967799Y-95997691D01*
X130961145Y-95994544D01*
X130954832Y-95990760D01*
X130948921Y-95986376D01*
X130943467Y-95981433D01*
X130938524Y-95975979D01*
X130934140Y-95970068D01*
X130930356Y-95963755D01*
X130927209Y-95957101D01*
X130924729Y-95950171D01*
X130922941Y-95943032D01*
X130921861Y-95935751D01*
X130921500Y-95928400D01*
X130921500Y-95278400D01*
X130921861Y-95271049D01*
X130922941Y-95263768D01*
X130924729Y-95256629D01*
X130927209Y-95249699D01*
X130930356Y-95243045D01*
X130934140Y-95236732D01*
X130938524Y-95230821D01*
X130943467Y-95225367D01*
X130948921Y-95220424D01*
X130954832Y-95216040D01*
X130961145Y-95212256D01*
X130967799Y-95209109D01*
X130974729Y-95206629D01*
X130981868Y-95204841D01*
X130989149Y-95203761D01*
X130996500Y-95203400D01*
X131146500Y-95203400D01*
X131153851Y-95203761D01*
X131153851Y-95203761D01*
G37*
D12*
X131071500Y-95603400D03*
D10*
G36*
X131803851Y-95203761D02*
G01*
X131811132Y-95204841D01*
X131818271Y-95206629D01*
X131825201Y-95209109D01*
X131831855Y-95212256D01*
X131838168Y-95216040D01*
X131844079Y-95220424D01*
X131849533Y-95225367D01*
X131854476Y-95230821D01*
X131858860Y-95236732D01*
X131862644Y-95243045D01*
X131865791Y-95249699D01*
X131868271Y-95256629D01*
X131870059Y-95263768D01*
X131871139Y-95271049D01*
X131871500Y-95278400D01*
X131871500Y-95928400D01*
X131871139Y-95935751D01*
X131870059Y-95943032D01*
X131868271Y-95950171D01*
X131865791Y-95957101D01*
X131862644Y-95963755D01*
X131858860Y-95970068D01*
X131854476Y-95975979D01*
X131849533Y-95981433D01*
X131844079Y-95986376D01*
X131838168Y-95990760D01*
X131831855Y-95994544D01*
X131825201Y-95997691D01*
X131818271Y-96000171D01*
X131811132Y-96001959D01*
X131803851Y-96003039D01*
X131796500Y-96003400D01*
X131646500Y-96003400D01*
X131639149Y-96003039D01*
X131631868Y-96001959D01*
X131624729Y-96000171D01*
X131617799Y-95997691D01*
X131611145Y-95994544D01*
X131604832Y-95990760D01*
X131598921Y-95986376D01*
X131593467Y-95981433D01*
X131588524Y-95975979D01*
X131584140Y-95970068D01*
X131580356Y-95963755D01*
X131577209Y-95957101D01*
X131574729Y-95950171D01*
X131572941Y-95943032D01*
X131571861Y-95935751D01*
X131571500Y-95928400D01*
X131571500Y-95278400D01*
X131571861Y-95271049D01*
X131572941Y-95263768D01*
X131574729Y-95256629D01*
X131577209Y-95249699D01*
X131580356Y-95243045D01*
X131584140Y-95236732D01*
X131588524Y-95230821D01*
X131593467Y-95225367D01*
X131598921Y-95220424D01*
X131604832Y-95216040D01*
X131611145Y-95212256D01*
X131617799Y-95209109D01*
X131624729Y-95206629D01*
X131631868Y-95204841D01*
X131639149Y-95203761D01*
X131646500Y-95203400D01*
X131796500Y-95203400D01*
X131803851Y-95203761D01*
X131803851Y-95203761D01*
G37*
D12*
X131721500Y-95603400D03*
D10*
G36*
X131546004Y-96204604D02*
G01*
X131570273Y-96208204D01*
X131594071Y-96214165D01*
X131617171Y-96222430D01*
X131639349Y-96232920D01*
X131660393Y-96245533D01*
X131680098Y-96260147D01*
X131698277Y-96276623D01*
X131714753Y-96294802D01*
X131729367Y-96314507D01*
X131741980Y-96335551D01*
X131752470Y-96357729D01*
X131760735Y-96380829D01*
X131766696Y-96404627D01*
X131770296Y-96428896D01*
X131771500Y-96453400D01*
X131771500Y-97653400D01*
X131770296Y-97677904D01*
X131766696Y-97702173D01*
X131760735Y-97725971D01*
X131752470Y-97749071D01*
X131741980Y-97771249D01*
X131729367Y-97792293D01*
X131714753Y-97811998D01*
X131698277Y-97830177D01*
X131680098Y-97846653D01*
X131660393Y-97861267D01*
X131639349Y-97873880D01*
X131617171Y-97884370D01*
X131594071Y-97892635D01*
X131570273Y-97898596D01*
X131546004Y-97902196D01*
X131521500Y-97903400D01*
X129971500Y-97903400D01*
X129946996Y-97902196D01*
X129922727Y-97898596D01*
X129898929Y-97892635D01*
X129875829Y-97884370D01*
X129853651Y-97873880D01*
X129832607Y-97861267D01*
X129812902Y-97846653D01*
X129794723Y-97830177D01*
X129778247Y-97811998D01*
X129763633Y-97792293D01*
X129751020Y-97771249D01*
X129740530Y-97749071D01*
X129732265Y-97725971D01*
X129726304Y-97702173D01*
X129722704Y-97677904D01*
X129721500Y-97653400D01*
X129721500Y-96453400D01*
X129722704Y-96428896D01*
X129726304Y-96404627D01*
X129732265Y-96380829D01*
X129740530Y-96357729D01*
X129751020Y-96335551D01*
X129763633Y-96314507D01*
X129778247Y-96294802D01*
X129794723Y-96276623D01*
X129812902Y-96260147D01*
X129832607Y-96245533D01*
X129853651Y-96232920D01*
X129875829Y-96222430D01*
X129898929Y-96214165D01*
X129922727Y-96208204D01*
X129946996Y-96204604D01*
X129971500Y-96203400D01*
X131521500Y-96203400D01*
X131546004Y-96204604D01*
X131546004Y-96204604D01*
G37*
D13*
X130746500Y-97053400D03*
D10*
G36*
X154905151Y-98129161D02*
G01*
X154912432Y-98130241D01*
X154919571Y-98132029D01*
X154926501Y-98134509D01*
X154933155Y-98137656D01*
X154939468Y-98141440D01*
X154945379Y-98145824D01*
X154950833Y-98150767D01*
X154955776Y-98156221D01*
X154960160Y-98162132D01*
X154963944Y-98168445D01*
X154967091Y-98175099D01*
X154969571Y-98182029D01*
X154971359Y-98189168D01*
X154972439Y-98196449D01*
X154972800Y-98203800D01*
X154972800Y-98853800D01*
X154972439Y-98861151D01*
X154971359Y-98868432D01*
X154969571Y-98875571D01*
X154967091Y-98882501D01*
X154963944Y-98889155D01*
X154960160Y-98895468D01*
X154955776Y-98901379D01*
X154950833Y-98906833D01*
X154945379Y-98911776D01*
X154939468Y-98916160D01*
X154933155Y-98919944D01*
X154926501Y-98923091D01*
X154919571Y-98925571D01*
X154912432Y-98927359D01*
X154905151Y-98928439D01*
X154897800Y-98928800D01*
X154747800Y-98928800D01*
X154740449Y-98928439D01*
X154733168Y-98927359D01*
X154726029Y-98925571D01*
X154719099Y-98923091D01*
X154712445Y-98919944D01*
X154706132Y-98916160D01*
X154700221Y-98911776D01*
X154694767Y-98906833D01*
X154689824Y-98901379D01*
X154685440Y-98895468D01*
X154681656Y-98889155D01*
X154678509Y-98882501D01*
X154676029Y-98875571D01*
X154674241Y-98868432D01*
X154673161Y-98861151D01*
X154672800Y-98853800D01*
X154672800Y-98203800D01*
X154673161Y-98196449D01*
X154674241Y-98189168D01*
X154676029Y-98182029D01*
X154678509Y-98175099D01*
X154681656Y-98168445D01*
X154685440Y-98162132D01*
X154689824Y-98156221D01*
X154694767Y-98150767D01*
X154700221Y-98145824D01*
X154706132Y-98141440D01*
X154712445Y-98137656D01*
X154719099Y-98134509D01*
X154726029Y-98132029D01*
X154733168Y-98130241D01*
X154740449Y-98129161D01*
X154747800Y-98128800D01*
X154897800Y-98128800D01*
X154905151Y-98129161D01*
X154905151Y-98129161D01*
G37*
D12*
X154822800Y-98528800D03*
D10*
G36*
X154255151Y-98129161D02*
G01*
X154262432Y-98130241D01*
X154269571Y-98132029D01*
X154276501Y-98134509D01*
X154283155Y-98137656D01*
X154289468Y-98141440D01*
X154295379Y-98145824D01*
X154300833Y-98150767D01*
X154305776Y-98156221D01*
X154310160Y-98162132D01*
X154313944Y-98168445D01*
X154317091Y-98175099D01*
X154319571Y-98182029D01*
X154321359Y-98189168D01*
X154322439Y-98196449D01*
X154322800Y-98203800D01*
X154322800Y-98853800D01*
X154322439Y-98861151D01*
X154321359Y-98868432D01*
X154319571Y-98875571D01*
X154317091Y-98882501D01*
X154313944Y-98889155D01*
X154310160Y-98895468D01*
X154305776Y-98901379D01*
X154300833Y-98906833D01*
X154295379Y-98911776D01*
X154289468Y-98916160D01*
X154283155Y-98919944D01*
X154276501Y-98923091D01*
X154269571Y-98925571D01*
X154262432Y-98927359D01*
X154255151Y-98928439D01*
X154247800Y-98928800D01*
X154097800Y-98928800D01*
X154090449Y-98928439D01*
X154083168Y-98927359D01*
X154076029Y-98925571D01*
X154069099Y-98923091D01*
X154062445Y-98919944D01*
X154056132Y-98916160D01*
X154050221Y-98911776D01*
X154044767Y-98906833D01*
X154039824Y-98901379D01*
X154035440Y-98895468D01*
X154031656Y-98889155D01*
X154028509Y-98882501D01*
X154026029Y-98875571D01*
X154024241Y-98868432D01*
X154023161Y-98861151D01*
X154022800Y-98853800D01*
X154022800Y-98203800D01*
X154023161Y-98196449D01*
X154024241Y-98189168D01*
X154026029Y-98182029D01*
X154028509Y-98175099D01*
X154031656Y-98168445D01*
X154035440Y-98162132D01*
X154039824Y-98156221D01*
X154044767Y-98150767D01*
X154050221Y-98145824D01*
X154056132Y-98141440D01*
X154062445Y-98137656D01*
X154069099Y-98134509D01*
X154076029Y-98132029D01*
X154083168Y-98130241D01*
X154090449Y-98129161D01*
X154097800Y-98128800D01*
X154247800Y-98128800D01*
X154255151Y-98129161D01*
X154255151Y-98129161D01*
G37*
D12*
X154172800Y-98528800D03*
D10*
G36*
X153605151Y-98129161D02*
G01*
X153612432Y-98130241D01*
X153619571Y-98132029D01*
X153626501Y-98134509D01*
X153633155Y-98137656D01*
X153639468Y-98141440D01*
X153645379Y-98145824D01*
X153650833Y-98150767D01*
X153655776Y-98156221D01*
X153660160Y-98162132D01*
X153663944Y-98168445D01*
X153667091Y-98175099D01*
X153669571Y-98182029D01*
X153671359Y-98189168D01*
X153672439Y-98196449D01*
X153672800Y-98203800D01*
X153672800Y-98853800D01*
X153672439Y-98861151D01*
X153671359Y-98868432D01*
X153669571Y-98875571D01*
X153667091Y-98882501D01*
X153663944Y-98889155D01*
X153660160Y-98895468D01*
X153655776Y-98901379D01*
X153650833Y-98906833D01*
X153645379Y-98911776D01*
X153639468Y-98916160D01*
X153633155Y-98919944D01*
X153626501Y-98923091D01*
X153619571Y-98925571D01*
X153612432Y-98927359D01*
X153605151Y-98928439D01*
X153597800Y-98928800D01*
X153447800Y-98928800D01*
X153440449Y-98928439D01*
X153433168Y-98927359D01*
X153426029Y-98925571D01*
X153419099Y-98923091D01*
X153412445Y-98919944D01*
X153406132Y-98916160D01*
X153400221Y-98911776D01*
X153394767Y-98906833D01*
X153389824Y-98901379D01*
X153385440Y-98895468D01*
X153381656Y-98889155D01*
X153378509Y-98882501D01*
X153376029Y-98875571D01*
X153374241Y-98868432D01*
X153373161Y-98861151D01*
X153372800Y-98853800D01*
X153372800Y-98203800D01*
X153373161Y-98196449D01*
X153374241Y-98189168D01*
X153376029Y-98182029D01*
X153378509Y-98175099D01*
X153381656Y-98168445D01*
X153385440Y-98162132D01*
X153389824Y-98156221D01*
X153394767Y-98150767D01*
X153400221Y-98145824D01*
X153406132Y-98141440D01*
X153412445Y-98137656D01*
X153419099Y-98134509D01*
X153426029Y-98132029D01*
X153433168Y-98130241D01*
X153440449Y-98129161D01*
X153447800Y-98128800D01*
X153597800Y-98128800D01*
X153605151Y-98129161D01*
X153605151Y-98129161D01*
G37*
D12*
X153522800Y-98528800D03*
D10*
G36*
X152955151Y-98129161D02*
G01*
X152962432Y-98130241D01*
X152969571Y-98132029D01*
X152976501Y-98134509D01*
X152983155Y-98137656D01*
X152989468Y-98141440D01*
X152995379Y-98145824D01*
X153000833Y-98150767D01*
X153005776Y-98156221D01*
X153010160Y-98162132D01*
X153013944Y-98168445D01*
X153017091Y-98175099D01*
X153019571Y-98182029D01*
X153021359Y-98189168D01*
X153022439Y-98196449D01*
X153022800Y-98203800D01*
X153022800Y-98853800D01*
X153022439Y-98861151D01*
X153021359Y-98868432D01*
X153019571Y-98875571D01*
X153017091Y-98882501D01*
X153013944Y-98889155D01*
X153010160Y-98895468D01*
X153005776Y-98901379D01*
X153000833Y-98906833D01*
X152995379Y-98911776D01*
X152989468Y-98916160D01*
X152983155Y-98919944D01*
X152976501Y-98923091D01*
X152969571Y-98925571D01*
X152962432Y-98927359D01*
X152955151Y-98928439D01*
X152947800Y-98928800D01*
X152797800Y-98928800D01*
X152790449Y-98928439D01*
X152783168Y-98927359D01*
X152776029Y-98925571D01*
X152769099Y-98923091D01*
X152762445Y-98919944D01*
X152756132Y-98916160D01*
X152750221Y-98911776D01*
X152744767Y-98906833D01*
X152739824Y-98901379D01*
X152735440Y-98895468D01*
X152731656Y-98889155D01*
X152728509Y-98882501D01*
X152726029Y-98875571D01*
X152724241Y-98868432D01*
X152723161Y-98861151D01*
X152722800Y-98853800D01*
X152722800Y-98203800D01*
X152723161Y-98196449D01*
X152724241Y-98189168D01*
X152726029Y-98182029D01*
X152728509Y-98175099D01*
X152731656Y-98168445D01*
X152735440Y-98162132D01*
X152739824Y-98156221D01*
X152744767Y-98150767D01*
X152750221Y-98145824D01*
X152756132Y-98141440D01*
X152762445Y-98137656D01*
X152769099Y-98134509D01*
X152776029Y-98132029D01*
X152783168Y-98130241D01*
X152790449Y-98129161D01*
X152797800Y-98128800D01*
X152947800Y-98128800D01*
X152955151Y-98129161D01*
X152955151Y-98129161D01*
G37*
D12*
X152872800Y-98528800D03*
D10*
G36*
X152955151Y-95229161D02*
G01*
X152962432Y-95230241D01*
X152969571Y-95232029D01*
X152976501Y-95234509D01*
X152983155Y-95237656D01*
X152989468Y-95241440D01*
X152995379Y-95245824D01*
X153000833Y-95250767D01*
X153005776Y-95256221D01*
X153010160Y-95262132D01*
X153013944Y-95268445D01*
X153017091Y-95275099D01*
X153019571Y-95282029D01*
X153021359Y-95289168D01*
X153022439Y-95296449D01*
X153022800Y-95303800D01*
X153022800Y-95953800D01*
X153022439Y-95961151D01*
X153021359Y-95968432D01*
X153019571Y-95975571D01*
X153017091Y-95982501D01*
X153013944Y-95989155D01*
X153010160Y-95995468D01*
X153005776Y-96001379D01*
X153000833Y-96006833D01*
X152995379Y-96011776D01*
X152989468Y-96016160D01*
X152983155Y-96019944D01*
X152976501Y-96023091D01*
X152969571Y-96025571D01*
X152962432Y-96027359D01*
X152955151Y-96028439D01*
X152947800Y-96028800D01*
X152797800Y-96028800D01*
X152790449Y-96028439D01*
X152783168Y-96027359D01*
X152776029Y-96025571D01*
X152769099Y-96023091D01*
X152762445Y-96019944D01*
X152756132Y-96016160D01*
X152750221Y-96011776D01*
X152744767Y-96006833D01*
X152739824Y-96001379D01*
X152735440Y-95995468D01*
X152731656Y-95989155D01*
X152728509Y-95982501D01*
X152726029Y-95975571D01*
X152724241Y-95968432D01*
X152723161Y-95961151D01*
X152722800Y-95953800D01*
X152722800Y-95303800D01*
X152723161Y-95296449D01*
X152724241Y-95289168D01*
X152726029Y-95282029D01*
X152728509Y-95275099D01*
X152731656Y-95268445D01*
X152735440Y-95262132D01*
X152739824Y-95256221D01*
X152744767Y-95250767D01*
X152750221Y-95245824D01*
X152756132Y-95241440D01*
X152762445Y-95237656D01*
X152769099Y-95234509D01*
X152776029Y-95232029D01*
X152783168Y-95230241D01*
X152790449Y-95229161D01*
X152797800Y-95228800D01*
X152947800Y-95228800D01*
X152955151Y-95229161D01*
X152955151Y-95229161D01*
G37*
D12*
X152872800Y-95628800D03*
D10*
G36*
X153605151Y-95229161D02*
G01*
X153612432Y-95230241D01*
X153619571Y-95232029D01*
X153626501Y-95234509D01*
X153633155Y-95237656D01*
X153639468Y-95241440D01*
X153645379Y-95245824D01*
X153650833Y-95250767D01*
X153655776Y-95256221D01*
X153660160Y-95262132D01*
X153663944Y-95268445D01*
X153667091Y-95275099D01*
X153669571Y-95282029D01*
X153671359Y-95289168D01*
X153672439Y-95296449D01*
X153672800Y-95303800D01*
X153672800Y-95953800D01*
X153672439Y-95961151D01*
X153671359Y-95968432D01*
X153669571Y-95975571D01*
X153667091Y-95982501D01*
X153663944Y-95989155D01*
X153660160Y-95995468D01*
X153655776Y-96001379D01*
X153650833Y-96006833D01*
X153645379Y-96011776D01*
X153639468Y-96016160D01*
X153633155Y-96019944D01*
X153626501Y-96023091D01*
X153619571Y-96025571D01*
X153612432Y-96027359D01*
X153605151Y-96028439D01*
X153597800Y-96028800D01*
X153447800Y-96028800D01*
X153440449Y-96028439D01*
X153433168Y-96027359D01*
X153426029Y-96025571D01*
X153419099Y-96023091D01*
X153412445Y-96019944D01*
X153406132Y-96016160D01*
X153400221Y-96011776D01*
X153394767Y-96006833D01*
X153389824Y-96001379D01*
X153385440Y-95995468D01*
X153381656Y-95989155D01*
X153378509Y-95982501D01*
X153376029Y-95975571D01*
X153374241Y-95968432D01*
X153373161Y-95961151D01*
X153372800Y-95953800D01*
X153372800Y-95303800D01*
X153373161Y-95296449D01*
X153374241Y-95289168D01*
X153376029Y-95282029D01*
X153378509Y-95275099D01*
X153381656Y-95268445D01*
X153385440Y-95262132D01*
X153389824Y-95256221D01*
X153394767Y-95250767D01*
X153400221Y-95245824D01*
X153406132Y-95241440D01*
X153412445Y-95237656D01*
X153419099Y-95234509D01*
X153426029Y-95232029D01*
X153433168Y-95230241D01*
X153440449Y-95229161D01*
X153447800Y-95228800D01*
X153597800Y-95228800D01*
X153605151Y-95229161D01*
X153605151Y-95229161D01*
G37*
D12*
X153522800Y-95628800D03*
D10*
G36*
X154255151Y-95229161D02*
G01*
X154262432Y-95230241D01*
X154269571Y-95232029D01*
X154276501Y-95234509D01*
X154283155Y-95237656D01*
X154289468Y-95241440D01*
X154295379Y-95245824D01*
X154300833Y-95250767D01*
X154305776Y-95256221D01*
X154310160Y-95262132D01*
X154313944Y-95268445D01*
X154317091Y-95275099D01*
X154319571Y-95282029D01*
X154321359Y-95289168D01*
X154322439Y-95296449D01*
X154322800Y-95303800D01*
X154322800Y-95953800D01*
X154322439Y-95961151D01*
X154321359Y-95968432D01*
X154319571Y-95975571D01*
X154317091Y-95982501D01*
X154313944Y-95989155D01*
X154310160Y-95995468D01*
X154305776Y-96001379D01*
X154300833Y-96006833D01*
X154295379Y-96011776D01*
X154289468Y-96016160D01*
X154283155Y-96019944D01*
X154276501Y-96023091D01*
X154269571Y-96025571D01*
X154262432Y-96027359D01*
X154255151Y-96028439D01*
X154247800Y-96028800D01*
X154097800Y-96028800D01*
X154090449Y-96028439D01*
X154083168Y-96027359D01*
X154076029Y-96025571D01*
X154069099Y-96023091D01*
X154062445Y-96019944D01*
X154056132Y-96016160D01*
X154050221Y-96011776D01*
X154044767Y-96006833D01*
X154039824Y-96001379D01*
X154035440Y-95995468D01*
X154031656Y-95989155D01*
X154028509Y-95982501D01*
X154026029Y-95975571D01*
X154024241Y-95968432D01*
X154023161Y-95961151D01*
X154022800Y-95953800D01*
X154022800Y-95303800D01*
X154023161Y-95296449D01*
X154024241Y-95289168D01*
X154026029Y-95282029D01*
X154028509Y-95275099D01*
X154031656Y-95268445D01*
X154035440Y-95262132D01*
X154039824Y-95256221D01*
X154044767Y-95250767D01*
X154050221Y-95245824D01*
X154056132Y-95241440D01*
X154062445Y-95237656D01*
X154069099Y-95234509D01*
X154076029Y-95232029D01*
X154083168Y-95230241D01*
X154090449Y-95229161D01*
X154097800Y-95228800D01*
X154247800Y-95228800D01*
X154255151Y-95229161D01*
X154255151Y-95229161D01*
G37*
D12*
X154172800Y-95628800D03*
D10*
G36*
X154905151Y-95229161D02*
G01*
X154912432Y-95230241D01*
X154919571Y-95232029D01*
X154926501Y-95234509D01*
X154933155Y-95237656D01*
X154939468Y-95241440D01*
X154945379Y-95245824D01*
X154950833Y-95250767D01*
X154955776Y-95256221D01*
X154960160Y-95262132D01*
X154963944Y-95268445D01*
X154967091Y-95275099D01*
X154969571Y-95282029D01*
X154971359Y-95289168D01*
X154972439Y-95296449D01*
X154972800Y-95303800D01*
X154972800Y-95953800D01*
X154972439Y-95961151D01*
X154971359Y-95968432D01*
X154969571Y-95975571D01*
X154967091Y-95982501D01*
X154963944Y-95989155D01*
X154960160Y-95995468D01*
X154955776Y-96001379D01*
X154950833Y-96006833D01*
X154945379Y-96011776D01*
X154939468Y-96016160D01*
X154933155Y-96019944D01*
X154926501Y-96023091D01*
X154919571Y-96025571D01*
X154912432Y-96027359D01*
X154905151Y-96028439D01*
X154897800Y-96028800D01*
X154747800Y-96028800D01*
X154740449Y-96028439D01*
X154733168Y-96027359D01*
X154726029Y-96025571D01*
X154719099Y-96023091D01*
X154712445Y-96019944D01*
X154706132Y-96016160D01*
X154700221Y-96011776D01*
X154694767Y-96006833D01*
X154689824Y-96001379D01*
X154685440Y-95995468D01*
X154681656Y-95989155D01*
X154678509Y-95982501D01*
X154676029Y-95975571D01*
X154674241Y-95968432D01*
X154673161Y-95961151D01*
X154672800Y-95953800D01*
X154672800Y-95303800D01*
X154673161Y-95296449D01*
X154674241Y-95289168D01*
X154676029Y-95282029D01*
X154678509Y-95275099D01*
X154681656Y-95268445D01*
X154685440Y-95262132D01*
X154689824Y-95256221D01*
X154694767Y-95250767D01*
X154700221Y-95245824D01*
X154706132Y-95241440D01*
X154712445Y-95237656D01*
X154719099Y-95234509D01*
X154726029Y-95232029D01*
X154733168Y-95230241D01*
X154740449Y-95229161D01*
X154747800Y-95228800D01*
X154897800Y-95228800D01*
X154905151Y-95229161D01*
X154905151Y-95229161D01*
G37*
D12*
X154822800Y-95628800D03*
D10*
G36*
X154647304Y-96230004D02*
G01*
X154671573Y-96233604D01*
X154695371Y-96239565D01*
X154718471Y-96247830D01*
X154740649Y-96258320D01*
X154761693Y-96270933D01*
X154781398Y-96285547D01*
X154799577Y-96302023D01*
X154816053Y-96320202D01*
X154830667Y-96339907D01*
X154843280Y-96360951D01*
X154853770Y-96383129D01*
X154862035Y-96406229D01*
X154867996Y-96430027D01*
X154871596Y-96454296D01*
X154872800Y-96478800D01*
X154872800Y-97678800D01*
X154871596Y-97703304D01*
X154867996Y-97727573D01*
X154862035Y-97751371D01*
X154853770Y-97774471D01*
X154843280Y-97796649D01*
X154830667Y-97817693D01*
X154816053Y-97837398D01*
X154799577Y-97855577D01*
X154781398Y-97872053D01*
X154761693Y-97886667D01*
X154740649Y-97899280D01*
X154718471Y-97909770D01*
X154695371Y-97918035D01*
X154671573Y-97923996D01*
X154647304Y-97927596D01*
X154622800Y-97928800D01*
X153072800Y-97928800D01*
X153048296Y-97927596D01*
X153024027Y-97923996D01*
X153000229Y-97918035D01*
X152977129Y-97909770D01*
X152954951Y-97899280D01*
X152933907Y-97886667D01*
X152914202Y-97872053D01*
X152896023Y-97855577D01*
X152879547Y-97837398D01*
X152864933Y-97817693D01*
X152852320Y-97796649D01*
X152841830Y-97774471D01*
X152833565Y-97751371D01*
X152827604Y-97727573D01*
X152824004Y-97703304D01*
X152822800Y-97678800D01*
X152822800Y-96478800D01*
X152824004Y-96454296D01*
X152827604Y-96430027D01*
X152833565Y-96406229D01*
X152841830Y-96383129D01*
X152852320Y-96360951D01*
X152864933Y-96339907D01*
X152879547Y-96320202D01*
X152896023Y-96302023D01*
X152914202Y-96285547D01*
X152933907Y-96270933D01*
X152954951Y-96258320D01*
X152977129Y-96247830D01*
X153000229Y-96239565D01*
X153024027Y-96233604D01*
X153048296Y-96230004D01*
X153072800Y-96228800D01*
X154622800Y-96228800D01*
X154647304Y-96230004D01*
X154647304Y-96230004D01*
G37*
D13*
X153847800Y-97078800D03*
D10*
G36*
X178654151Y-98103761D02*
G01*
X178661432Y-98104841D01*
X178668571Y-98106629D01*
X178675501Y-98109109D01*
X178682155Y-98112256D01*
X178688468Y-98116040D01*
X178694379Y-98120424D01*
X178699833Y-98125367D01*
X178704776Y-98130821D01*
X178709160Y-98136732D01*
X178712944Y-98143045D01*
X178716091Y-98149699D01*
X178718571Y-98156629D01*
X178720359Y-98163768D01*
X178721439Y-98171049D01*
X178721800Y-98178400D01*
X178721800Y-98828400D01*
X178721439Y-98835751D01*
X178720359Y-98843032D01*
X178718571Y-98850171D01*
X178716091Y-98857101D01*
X178712944Y-98863755D01*
X178709160Y-98870068D01*
X178704776Y-98875979D01*
X178699833Y-98881433D01*
X178694379Y-98886376D01*
X178688468Y-98890760D01*
X178682155Y-98894544D01*
X178675501Y-98897691D01*
X178668571Y-98900171D01*
X178661432Y-98901959D01*
X178654151Y-98903039D01*
X178646800Y-98903400D01*
X178496800Y-98903400D01*
X178489449Y-98903039D01*
X178482168Y-98901959D01*
X178475029Y-98900171D01*
X178468099Y-98897691D01*
X178461445Y-98894544D01*
X178455132Y-98890760D01*
X178449221Y-98886376D01*
X178443767Y-98881433D01*
X178438824Y-98875979D01*
X178434440Y-98870068D01*
X178430656Y-98863755D01*
X178427509Y-98857101D01*
X178425029Y-98850171D01*
X178423241Y-98843032D01*
X178422161Y-98835751D01*
X178421800Y-98828400D01*
X178421800Y-98178400D01*
X178422161Y-98171049D01*
X178423241Y-98163768D01*
X178425029Y-98156629D01*
X178427509Y-98149699D01*
X178430656Y-98143045D01*
X178434440Y-98136732D01*
X178438824Y-98130821D01*
X178443767Y-98125367D01*
X178449221Y-98120424D01*
X178455132Y-98116040D01*
X178461445Y-98112256D01*
X178468099Y-98109109D01*
X178475029Y-98106629D01*
X178482168Y-98104841D01*
X178489449Y-98103761D01*
X178496800Y-98103400D01*
X178646800Y-98103400D01*
X178654151Y-98103761D01*
X178654151Y-98103761D01*
G37*
D12*
X178571800Y-98503400D03*
D10*
G36*
X178004151Y-98103761D02*
G01*
X178011432Y-98104841D01*
X178018571Y-98106629D01*
X178025501Y-98109109D01*
X178032155Y-98112256D01*
X178038468Y-98116040D01*
X178044379Y-98120424D01*
X178049833Y-98125367D01*
X178054776Y-98130821D01*
X178059160Y-98136732D01*
X178062944Y-98143045D01*
X178066091Y-98149699D01*
X178068571Y-98156629D01*
X178070359Y-98163768D01*
X178071439Y-98171049D01*
X178071800Y-98178400D01*
X178071800Y-98828400D01*
X178071439Y-98835751D01*
X178070359Y-98843032D01*
X178068571Y-98850171D01*
X178066091Y-98857101D01*
X178062944Y-98863755D01*
X178059160Y-98870068D01*
X178054776Y-98875979D01*
X178049833Y-98881433D01*
X178044379Y-98886376D01*
X178038468Y-98890760D01*
X178032155Y-98894544D01*
X178025501Y-98897691D01*
X178018571Y-98900171D01*
X178011432Y-98901959D01*
X178004151Y-98903039D01*
X177996800Y-98903400D01*
X177846800Y-98903400D01*
X177839449Y-98903039D01*
X177832168Y-98901959D01*
X177825029Y-98900171D01*
X177818099Y-98897691D01*
X177811445Y-98894544D01*
X177805132Y-98890760D01*
X177799221Y-98886376D01*
X177793767Y-98881433D01*
X177788824Y-98875979D01*
X177784440Y-98870068D01*
X177780656Y-98863755D01*
X177777509Y-98857101D01*
X177775029Y-98850171D01*
X177773241Y-98843032D01*
X177772161Y-98835751D01*
X177771800Y-98828400D01*
X177771800Y-98178400D01*
X177772161Y-98171049D01*
X177773241Y-98163768D01*
X177775029Y-98156629D01*
X177777509Y-98149699D01*
X177780656Y-98143045D01*
X177784440Y-98136732D01*
X177788824Y-98130821D01*
X177793767Y-98125367D01*
X177799221Y-98120424D01*
X177805132Y-98116040D01*
X177811445Y-98112256D01*
X177818099Y-98109109D01*
X177825029Y-98106629D01*
X177832168Y-98104841D01*
X177839449Y-98103761D01*
X177846800Y-98103400D01*
X177996800Y-98103400D01*
X178004151Y-98103761D01*
X178004151Y-98103761D01*
G37*
D12*
X177921800Y-98503400D03*
D10*
G36*
X177354151Y-98103761D02*
G01*
X177361432Y-98104841D01*
X177368571Y-98106629D01*
X177375501Y-98109109D01*
X177382155Y-98112256D01*
X177388468Y-98116040D01*
X177394379Y-98120424D01*
X177399833Y-98125367D01*
X177404776Y-98130821D01*
X177409160Y-98136732D01*
X177412944Y-98143045D01*
X177416091Y-98149699D01*
X177418571Y-98156629D01*
X177420359Y-98163768D01*
X177421439Y-98171049D01*
X177421800Y-98178400D01*
X177421800Y-98828400D01*
X177421439Y-98835751D01*
X177420359Y-98843032D01*
X177418571Y-98850171D01*
X177416091Y-98857101D01*
X177412944Y-98863755D01*
X177409160Y-98870068D01*
X177404776Y-98875979D01*
X177399833Y-98881433D01*
X177394379Y-98886376D01*
X177388468Y-98890760D01*
X177382155Y-98894544D01*
X177375501Y-98897691D01*
X177368571Y-98900171D01*
X177361432Y-98901959D01*
X177354151Y-98903039D01*
X177346800Y-98903400D01*
X177196800Y-98903400D01*
X177189449Y-98903039D01*
X177182168Y-98901959D01*
X177175029Y-98900171D01*
X177168099Y-98897691D01*
X177161445Y-98894544D01*
X177155132Y-98890760D01*
X177149221Y-98886376D01*
X177143767Y-98881433D01*
X177138824Y-98875979D01*
X177134440Y-98870068D01*
X177130656Y-98863755D01*
X177127509Y-98857101D01*
X177125029Y-98850171D01*
X177123241Y-98843032D01*
X177122161Y-98835751D01*
X177121800Y-98828400D01*
X177121800Y-98178400D01*
X177122161Y-98171049D01*
X177123241Y-98163768D01*
X177125029Y-98156629D01*
X177127509Y-98149699D01*
X177130656Y-98143045D01*
X177134440Y-98136732D01*
X177138824Y-98130821D01*
X177143767Y-98125367D01*
X177149221Y-98120424D01*
X177155132Y-98116040D01*
X177161445Y-98112256D01*
X177168099Y-98109109D01*
X177175029Y-98106629D01*
X177182168Y-98104841D01*
X177189449Y-98103761D01*
X177196800Y-98103400D01*
X177346800Y-98103400D01*
X177354151Y-98103761D01*
X177354151Y-98103761D01*
G37*
D12*
X177271800Y-98503400D03*
D10*
G36*
X176704151Y-98103761D02*
G01*
X176711432Y-98104841D01*
X176718571Y-98106629D01*
X176725501Y-98109109D01*
X176732155Y-98112256D01*
X176738468Y-98116040D01*
X176744379Y-98120424D01*
X176749833Y-98125367D01*
X176754776Y-98130821D01*
X176759160Y-98136732D01*
X176762944Y-98143045D01*
X176766091Y-98149699D01*
X176768571Y-98156629D01*
X176770359Y-98163768D01*
X176771439Y-98171049D01*
X176771800Y-98178400D01*
X176771800Y-98828400D01*
X176771439Y-98835751D01*
X176770359Y-98843032D01*
X176768571Y-98850171D01*
X176766091Y-98857101D01*
X176762944Y-98863755D01*
X176759160Y-98870068D01*
X176754776Y-98875979D01*
X176749833Y-98881433D01*
X176744379Y-98886376D01*
X176738468Y-98890760D01*
X176732155Y-98894544D01*
X176725501Y-98897691D01*
X176718571Y-98900171D01*
X176711432Y-98901959D01*
X176704151Y-98903039D01*
X176696800Y-98903400D01*
X176546800Y-98903400D01*
X176539449Y-98903039D01*
X176532168Y-98901959D01*
X176525029Y-98900171D01*
X176518099Y-98897691D01*
X176511445Y-98894544D01*
X176505132Y-98890760D01*
X176499221Y-98886376D01*
X176493767Y-98881433D01*
X176488824Y-98875979D01*
X176484440Y-98870068D01*
X176480656Y-98863755D01*
X176477509Y-98857101D01*
X176475029Y-98850171D01*
X176473241Y-98843032D01*
X176472161Y-98835751D01*
X176471800Y-98828400D01*
X176471800Y-98178400D01*
X176472161Y-98171049D01*
X176473241Y-98163768D01*
X176475029Y-98156629D01*
X176477509Y-98149699D01*
X176480656Y-98143045D01*
X176484440Y-98136732D01*
X176488824Y-98130821D01*
X176493767Y-98125367D01*
X176499221Y-98120424D01*
X176505132Y-98116040D01*
X176511445Y-98112256D01*
X176518099Y-98109109D01*
X176525029Y-98106629D01*
X176532168Y-98104841D01*
X176539449Y-98103761D01*
X176546800Y-98103400D01*
X176696800Y-98103400D01*
X176704151Y-98103761D01*
X176704151Y-98103761D01*
G37*
D12*
X176621800Y-98503400D03*
D10*
G36*
X176704151Y-95203761D02*
G01*
X176711432Y-95204841D01*
X176718571Y-95206629D01*
X176725501Y-95209109D01*
X176732155Y-95212256D01*
X176738468Y-95216040D01*
X176744379Y-95220424D01*
X176749833Y-95225367D01*
X176754776Y-95230821D01*
X176759160Y-95236732D01*
X176762944Y-95243045D01*
X176766091Y-95249699D01*
X176768571Y-95256629D01*
X176770359Y-95263768D01*
X176771439Y-95271049D01*
X176771800Y-95278400D01*
X176771800Y-95928400D01*
X176771439Y-95935751D01*
X176770359Y-95943032D01*
X176768571Y-95950171D01*
X176766091Y-95957101D01*
X176762944Y-95963755D01*
X176759160Y-95970068D01*
X176754776Y-95975979D01*
X176749833Y-95981433D01*
X176744379Y-95986376D01*
X176738468Y-95990760D01*
X176732155Y-95994544D01*
X176725501Y-95997691D01*
X176718571Y-96000171D01*
X176711432Y-96001959D01*
X176704151Y-96003039D01*
X176696800Y-96003400D01*
X176546800Y-96003400D01*
X176539449Y-96003039D01*
X176532168Y-96001959D01*
X176525029Y-96000171D01*
X176518099Y-95997691D01*
X176511445Y-95994544D01*
X176505132Y-95990760D01*
X176499221Y-95986376D01*
X176493767Y-95981433D01*
X176488824Y-95975979D01*
X176484440Y-95970068D01*
X176480656Y-95963755D01*
X176477509Y-95957101D01*
X176475029Y-95950171D01*
X176473241Y-95943032D01*
X176472161Y-95935751D01*
X176471800Y-95928400D01*
X176471800Y-95278400D01*
X176472161Y-95271049D01*
X176473241Y-95263768D01*
X176475029Y-95256629D01*
X176477509Y-95249699D01*
X176480656Y-95243045D01*
X176484440Y-95236732D01*
X176488824Y-95230821D01*
X176493767Y-95225367D01*
X176499221Y-95220424D01*
X176505132Y-95216040D01*
X176511445Y-95212256D01*
X176518099Y-95209109D01*
X176525029Y-95206629D01*
X176532168Y-95204841D01*
X176539449Y-95203761D01*
X176546800Y-95203400D01*
X176696800Y-95203400D01*
X176704151Y-95203761D01*
X176704151Y-95203761D01*
G37*
D12*
X176621800Y-95603400D03*
D10*
G36*
X177354151Y-95203761D02*
G01*
X177361432Y-95204841D01*
X177368571Y-95206629D01*
X177375501Y-95209109D01*
X177382155Y-95212256D01*
X177388468Y-95216040D01*
X177394379Y-95220424D01*
X177399833Y-95225367D01*
X177404776Y-95230821D01*
X177409160Y-95236732D01*
X177412944Y-95243045D01*
X177416091Y-95249699D01*
X177418571Y-95256629D01*
X177420359Y-95263768D01*
X177421439Y-95271049D01*
X177421800Y-95278400D01*
X177421800Y-95928400D01*
X177421439Y-95935751D01*
X177420359Y-95943032D01*
X177418571Y-95950171D01*
X177416091Y-95957101D01*
X177412944Y-95963755D01*
X177409160Y-95970068D01*
X177404776Y-95975979D01*
X177399833Y-95981433D01*
X177394379Y-95986376D01*
X177388468Y-95990760D01*
X177382155Y-95994544D01*
X177375501Y-95997691D01*
X177368571Y-96000171D01*
X177361432Y-96001959D01*
X177354151Y-96003039D01*
X177346800Y-96003400D01*
X177196800Y-96003400D01*
X177189449Y-96003039D01*
X177182168Y-96001959D01*
X177175029Y-96000171D01*
X177168099Y-95997691D01*
X177161445Y-95994544D01*
X177155132Y-95990760D01*
X177149221Y-95986376D01*
X177143767Y-95981433D01*
X177138824Y-95975979D01*
X177134440Y-95970068D01*
X177130656Y-95963755D01*
X177127509Y-95957101D01*
X177125029Y-95950171D01*
X177123241Y-95943032D01*
X177122161Y-95935751D01*
X177121800Y-95928400D01*
X177121800Y-95278400D01*
X177122161Y-95271049D01*
X177123241Y-95263768D01*
X177125029Y-95256629D01*
X177127509Y-95249699D01*
X177130656Y-95243045D01*
X177134440Y-95236732D01*
X177138824Y-95230821D01*
X177143767Y-95225367D01*
X177149221Y-95220424D01*
X177155132Y-95216040D01*
X177161445Y-95212256D01*
X177168099Y-95209109D01*
X177175029Y-95206629D01*
X177182168Y-95204841D01*
X177189449Y-95203761D01*
X177196800Y-95203400D01*
X177346800Y-95203400D01*
X177354151Y-95203761D01*
X177354151Y-95203761D01*
G37*
D12*
X177271800Y-95603400D03*
D10*
G36*
X178004151Y-95203761D02*
G01*
X178011432Y-95204841D01*
X178018571Y-95206629D01*
X178025501Y-95209109D01*
X178032155Y-95212256D01*
X178038468Y-95216040D01*
X178044379Y-95220424D01*
X178049833Y-95225367D01*
X178054776Y-95230821D01*
X178059160Y-95236732D01*
X178062944Y-95243045D01*
X178066091Y-95249699D01*
X178068571Y-95256629D01*
X178070359Y-95263768D01*
X178071439Y-95271049D01*
X178071800Y-95278400D01*
X178071800Y-95928400D01*
X178071439Y-95935751D01*
X178070359Y-95943032D01*
X178068571Y-95950171D01*
X178066091Y-95957101D01*
X178062944Y-95963755D01*
X178059160Y-95970068D01*
X178054776Y-95975979D01*
X178049833Y-95981433D01*
X178044379Y-95986376D01*
X178038468Y-95990760D01*
X178032155Y-95994544D01*
X178025501Y-95997691D01*
X178018571Y-96000171D01*
X178011432Y-96001959D01*
X178004151Y-96003039D01*
X177996800Y-96003400D01*
X177846800Y-96003400D01*
X177839449Y-96003039D01*
X177832168Y-96001959D01*
X177825029Y-96000171D01*
X177818099Y-95997691D01*
X177811445Y-95994544D01*
X177805132Y-95990760D01*
X177799221Y-95986376D01*
X177793767Y-95981433D01*
X177788824Y-95975979D01*
X177784440Y-95970068D01*
X177780656Y-95963755D01*
X177777509Y-95957101D01*
X177775029Y-95950171D01*
X177773241Y-95943032D01*
X177772161Y-95935751D01*
X177771800Y-95928400D01*
X177771800Y-95278400D01*
X177772161Y-95271049D01*
X177773241Y-95263768D01*
X177775029Y-95256629D01*
X177777509Y-95249699D01*
X177780656Y-95243045D01*
X177784440Y-95236732D01*
X177788824Y-95230821D01*
X177793767Y-95225367D01*
X177799221Y-95220424D01*
X177805132Y-95216040D01*
X177811445Y-95212256D01*
X177818099Y-95209109D01*
X177825029Y-95206629D01*
X177832168Y-95204841D01*
X177839449Y-95203761D01*
X177846800Y-95203400D01*
X177996800Y-95203400D01*
X178004151Y-95203761D01*
X178004151Y-95203761D01*
G37*
D12*
X177921800Y-95603400D03*
D10*
G36*
X178654151Y-95203761D02*
G01*
X178661432Y-95204841D01*
X178668571Y-95206629D01*
X178675501Y-95209109D01*
X178682155Y-95212256D01*
X178688468Y-95216040D01*
X178694379Y-95220424D01*
X178699833Y-95225367D01*
X178704776Y-95230821D01*
X178709160Y-95236732D01*
X178712944Y-95243045D01*
X178716091Y-95249699D01*
X178718571Y-95256629D01*
X178720359Y-95263768D01*
X178721439Y-95271049D01*
X178721800Y-95278400D01*
X178721800Y-95928400D01*
X178721439Y-95935751D01*
X178720359Y-95943032D01*
X178718571Y-95950171D01*
X178716091Y-95957101D01*
X178712944Y-95963755D01*
X178709160Y-95970068D01*
X178704776Y-95975979D01*
X178699833Y-95981433D01*
X178694379Y-95986376D01*
X178688468Y-95990760D01*
X178682155Y-95994544D01*
X178675501Y-95997691D01*
X178668571Y-96000171D01*
X178661432Y-96001959D01*
X178654151Y-96003039D01*
X178646800Y-96003400D01*
X178496800Y-96003400D01*
X178489449Y-96003039D01*
X178482168Y-96001959D01*
X178475029Y-96000171D01*
X178468099Y-95997691D01*
X178461445Y-95994544D01*
X178455132Y-95990760D01*
X178449221Y-95986376D01*
X178443767Y-95981433D01*
X178438824Y-95975979D01*
X178434440Y-95970068D01*
X178430656Y-95963755D01*
X178427509Y-95957101D01*
X178425029Y-95950171D01*
X178423241Y-95943032D01*
X178422161Y-95935751D01*
X178421800Y-95928400D01*
X178421800Y-95278400D01*
X178422161Y-95271049D01*
X178423241Y-95263768D01*
X178425029Y-95256629D01*
X178427509Y-95249699D01*
X178430656Y-95243045D01*
X178434440Y-95236732D01*
X178438824Y-95230821D01*
X178443767Y-95225367D01*
X178449221Y-95220424D01*
X178455132Y-95216040D01*
X178461445Y-95212256D01*
X178468099Y-95209109D01*
X178475029Y-95206629D01*
X178482168Y-95204841D01*
X178489449Y-95203761D01*
X178496800Y-95203400D01*
X178646800Y-95203400D01*
X178654151Y-95203761D01*
X178654151Y-95203761D01*
G37*
D12*
X178571800Y-95603400D03*
D10*
G36*
X178396304Y-96204604D02*
G01*
X178420573Y-96208204D01*
X178444371Y-96214165D01*
X178467471Y-96222430D01*
X178489649Y-96232920D01*
X178510693Y-96245533D01*
X178530398Y-96260147D01*
X178548577Y-96276623D01*
X178565053Y-96294802D01*
X178579667Y-96314507D01*
X178592280Y-96335551D01*
X178602770Y-96357729D01*
X178611035Y-96380829D01*
X178616996Y-96404627D01*
X178620596Y-96428896D01*
X178621800Y-96453400D01*
X178621800Y-97653400D01*
X178620596Y-97677904D01*
X178616996Y-97702173D01*
X178611035Y-97725971D01*
X178602770Y-97749071D01*
X178592280Y-97771249D01*
X178579667Y-97792293D01*
X178565053Y-97811998D01*
X178548577Y-97830177D01*
X178530398Y-97846653D01*
X178510693Y-97861267D01*
X178489649Y-97873880D01*
X178467471Y-97884370D01*
X178444371Y-97892635D01*
X178420573Y-97898596D01*
X178396304Y-97902196D01*
X178371800Y-97903400D01*
X176821800Y-97903400D01*
X176797296Y-97902196D01*
X176773027Y-97898596D01*
X176749229Y-97892635D01*
X176726129Y-97884370D01*
X176703951Y-97873880D01*
X176682907Y-97861267D01*
X176663202Y-97846653D01*
X176645023Y-97830177D01*
X176628547Y-97811998D01*
X176613933Y-97792293D01*
X176601320Y-97771249D01*
X176590830Y-97749071D01*
X176582565Y-97725971D01*
X176576604Y-97702173D01*
X176573004Y-97677904D01*
X176571800Y-97653400D01*
X176571800Y-96453400D01*
X176573004Y-96428896D01*
X176576604Y-96404627D01*
X176582565Y-96380829D01*
X176590830Y-96357729D01*
X176601320Y-96335551D01*
X176613933Y-96314507D01*
X176628547Y-96294802D01*
X176645023Y-96276623D01*
X176663202Y-96260147D01*
X176682907Y-96245533D01*
X176703951Y-96232920D01*
X176726129Y-96222430D01*
X176749229Y-96214165D01*
X176773027Y-96208204D01*
X176797296Y-96204604D01*
X176821800Y-96203400D01*
X178371800Y-96203400D01*
X178396304Y-96204604D01*
X178396304Y-96204604D01*
G37*
D13*
X177596800Y-97053400D03*
D14*
X145161000Y-101803200D03*
X164198300Y-97421700D03*
X146062700Y-107734100D03*
D15*
X140144500Y-109889800D03*
X139194500Y-107889800D03*
X141094500Y-107889800D03*
D10*
G36*
X143000291Y-109024953D02*
G01*
X143021526Y-109028103D01*
X143042350Y-109033319D01*
X143062562Y-109040551D01*
X143081968Y-109049730D01*
X143100381Y-109060766D01*
X143117624Y-109073554D01*
X143133530Y-109087970D01*
X143147946Y-109103876D01*
X143160734Y-109121119D01*
X143171770Y-109139532D01*
X143180949Y-109158938D01*
X143188181Y-109179150D01*
X143193397Y-109199974D01*
X143196547Y-109221209D01*
X143197600Y-109242650D01*
X143197600Y-109680150D01*
X143196547Y-109701591D01*
X143193397Y-109722826D01*
X143188181Y-109743650D01*
X143180949Y-109763862D01*
X143171770Y-109783268D01*
X143160734Y-109801681D01*
X143147946Y-109818924D01*
X143133530Y-109834830D01*
X143117624Y-109849246D01*
X143100381Y-109862034D01*
X143081968Y-109873070D01*
X143062562Y-109882249D01*
X143042350Y-109889481D01*
X143021526Y-109894697D01*
X143000291Y-109897847D01*
X142978850Y-109898900D01*
X142466350Y-109898900D01*
X142444909Y-109897847D01*
X142423674Y-109894697D01*
X142402850Y-109889481D01*
X142382638Y-109882249D01*
X142363232Y-109873070D01*
X142344819Y-109862034D01*
X142327576Y-109849246D01*
X142311670Y-109834830D01*
X142297254Y-109818924D01*
X142284466Y-109801681D01*
X142273430Y-109783268D01*
X142264251Y-109763862D01*
X142257019Y-109743650D01*
X142251803Y-109722826D01*
X142248653Y-109701591D01*
X142247600Y-109680150D01*
X142247600Y-109242650D01*
X142248653Y-109221209D01*
X142251803Y-109199974D01*
X142257019Y-109179150D01*
X142264251Y-109158938D01*
X142273430Y-109139532D01*
X142284466Y-109121119D01*
X142297254Y-109103876D01*
X142311670Y-109087970D01*
X142327576Y-109073554D01*
X142344819Y-109060766D01*
X142363232Y-109049730D01*
X142382638Y-109040551D01*
X142402850Y-109033319D01*
X142423674Y-109028103D01*
X142444909Y-109024953D01*
X142466350Y-109023900D01*
X142978850Y-109023900D01*
X143000291Y-109024953D01*
X143000291Y-109024953D01*
G37*
D11*
X142722600Y-109461400D03*
D10*
G36*
X143000291Y-107449953D02*
G01*
X143021526Y-107453103D01*
X143042350Y-107458319D01*
X143062562Y-107465551D01*
X143081968Y-107474730D01*
X143100381Y-107485766D01*
X143117624Y-107498554D01*
X143133530Y-107512970D01*
X143147946Y-107528876D01*
X143160734Y-107546119D01*
X143171770Y-107564532D01*
X143180949Y-107583938D01*
X143188181Y-107604150D01*
X143193397Y-107624974D01*
X143196547Y-107646209D01*
X143197600Y-107667650D01*
X143197600Y-108105150D01*
X143196547Y-108126591D01*
X143193397Y-108147826D01*
X143188181Y-108168650D01*
X143180949Y-108188862D01*
X143171770Y-108208268D01*
X143160734Y-108226681D01*
X143147946Y-108243924D01*
X143133530Y-108259830D01*
X143117624Y-108274246D01*
X143100381Y-108287034D01*
X143081968Y-108298070D01*
X143062562Y-108307249D01*
X143042350Y-108314481D01*
X143021526Y-108319697D01*
X143000291Y-108322847D01*
X142978850Y-108323900D01*
X142466350Y-108323900D01*
X142444909Y-108322847D01*
X142423674Y-108319697D01*
X142402850Y-108314481D01*
X142382638Y-108307249D01*
X142363232Y-108298070D01*
X142344819Y-108287034D01*
X142327576Y-108274246D01*
X142311670Y-108259830D01*
X142297254Y-108243924D01*
X142284466Y-108226681D01*
X142273430Y-108208268D01*
X142264251Y-108188862D01*
X142257019Y-108168650D01*
X142251803Y-108147826D01*
X142248653Y-108126591D01*
X142247600Y-108105150D01*
X142247600Y-107667650D01*
X142248653Y-107646209D01*
X142251803Y-107624974D01*
X142257019Y-107604150D01*
X142264251Y-107583938D01*
X142273430Y-107564532D01*
X142284466Y-107546119D01*
X142297254Y-107528876D01*
X142311670Y-107512970D01*
X142327576Y-107498554D01*
X142344819Y-107485766D01*
X142363232Y-107474730D01*
X142382638Y-107465551D01*
X142402850Y-107458319D01*
X142423674Y-107453103D01*
X142444909Y-107449953D01*
X142466350Y-107448900D01*
X142978850Y-107448900D01*
X143000291Y-107449953D01*
X143000291Y-107449953D01*
G37*
D11*
X142722600Y-107886400D03*
D10*
G36*
X137844091Y-109024953D02*
G01*
X137865326Y-109028103D01*
X137886150Y-109033319D01*
X137906362Y-109040551D01*
X137925768Y-109049730D01*
X137944181Y-109060766D01*
X137961424Y-109073554D01*
X137977330Y-109087970D01*
X137991746Y-109103876D01*
X138004534Y-109121119D01*
X138015570Y-109139532D01*
X138024749Y-109158938D01*
X138031981Y-109179150D01*
X138037197Y-109199974D01*
X138040347Y-109221209D01*
X138041400Y-109242650D01*
X138041400Y-109680150D01*
X138040347Y-109701591D01*
X138037197Y-109722826D01*
X138031981Y-109743650D01*
X138024749Y-109763862D01*
X138015570Y-109783268D01*
X138004534Y-109801681D01*
X137991746Y-109818924D01*
X137977330Y-109834830D01*
X137961424Y-109849246D01*
X137944181Y-109862034D01*
X137925768Y-109873070D01*
X137906362Y-109882249D01*
X137886150Y-109889481D01*
X137865326Y-109894697D01*
X137844091Y-109897847D01*
X137822650Y-109898900D01*
X137310150Y-109898900D01*
X137288709Y-109897847D01*
X137267474Y-109894697D01*
X137246650Y-109889481D01*
X137226438Y-109882249D01*
X137207032Y-109873070D01*
X137188619Y-109862034D01*
X137171376Y-109849246D01*
X137155470Y-109834830D01*
X137141054Y-109818924D01*
X137128266Y-109801681D01*
X137117230Y-109783268D01*
X137108051Y-109763862D01*
X137100819Y-109743650D01*
X137095603Y-109722826D01*
X137092453Y-109701591D01*
X137091400Y-109680150D01*
X137091400Y-109242650D01*
X137092453Y-109221209D01*
X137095603Y-109199974D01*
X137100819Y-109179150D01*
X137108051Y-109158938D01*
X137117230Y-109139532D01*
X137128266Y-109121119D01*
X137141054Y-109103876D01*
X137155470Y-109087970D01*
X137171376Y-109073554D01*
X137188619Y-109060766D01*
X137207032Y-109049730D01*
X137226438Y-109040551D01*
X137246650Y-109033319D01*
X137267474Y-109028103D01*
X137288709Y-109024953D01*
X137310150Y-109023900D01*
X137822650Y-109023900D01*
X137844091Y-109024953D01*
X137844091Y-109024953D01*
G37*
D11*
X137566400Y-109461400D03*
D10*
G36*
X137844091Y-107449953D02*
G01*
X137865326Y-107453103D01*
X137886150Y-107458319D01*
X137906362Y-107465551D01*
X137925768Y-107474730D01*
X137944181Y-107485766D01*
X137961424Y-107498554D01*
X137977330Y-107512970D01*
X137991746Y-107528876D01*
X138004534Y-107546119D01*
X138015570Y-107564532D01*
X138024749Y-107583938D01*
X138031981Y-107604150D01*
X138037197Y-107624974D01*
X138040347Y-107646209D01*
X138041400Y-107667650D01*
X138041400Y-108105150D01*
X138040347Y-108126591D01*
X138037197Y-108147826D01*
X138031981Y-108168650D01*
X138024749Y-108188862D01*
X138015570Y-108208268D01*
X138004534Y-108226681D01*
X137991746Y-108243924D01*
X137977330Y-108259830D01*
X137961424Y-108274246D01*
X137944181Y-108287034D01*
X137925768Y-108298070D01*
X137906362Y-108307249D01*
X137886150Y-108314481D01*
X137865326Y-108319697D01*
X137844091Y-108322847D01*
X137822650Y-108323900D01*
X137310150Y-108323900D01*
X137288709Y-108322847D01*
X137267474Y-108319697D01*
X137246650Y-108314481D01*
X137226438Y-108307249D01*
X137207032Y-108298070D01*
X137188619Y-108287034D01*
X137171376Y-108274246D01*
X137155470Y-108259830D01*
X137141054Y-108243924D01*
X137128266Y-108226681D01*
X137117230Y-108208268D01*
X137108051Y-108188862D01*
X137100819Y-108168650D01*
X137095603Y-108147826D01*
X137092453Y-108126591D01*
X137091400Y-108105150D01*
X137091400Y-107667650D01*
X137092453Y-107646209D01*
X137095603Y-107624974D01*
X137100819Y-107604150D01*
X137108051Y-107583938D01*
X137117230Y-107564532D01*
X137128266Y-107546119D01*
X137141054Y-107528876D01*
X137155470Y-107512970D01*
X137171376Y-107498554D01*
X137188619Y-107485766D01*
X137207032Y-107474730D01*
X137226438Y-107465551D01*
X137246650Y-107458319D01*
X137267474Y-107453103D01*
X137288709Y-107449953D01*
X137310150Y-107448900D01*
X137822650Y-107448900D01*
X137844091Y-107449953D01*
X137844091Y-107449953D01*
G37*
D11*
X137566400Y-107886400D03*
D16*
X173643800Y-109093000D03*
X171643800Y-110043000D03*
X171643800Y-108143000D03*
D10*
G36*
X170202942Y-109340974D02*
G01*
X170226603Y-109344484D01*
X170249807Y-109350296D01*
X170272329Y-109358354D01*
X170293953Y-109368582D01*
X170314470Y-109380879D01*
X170333683Y-109395129D01*
X170351407Y-109411193D01*
X170367471Y-109428917D01*
X170381721Y-109448130D01*
X170394018Y-109468647D01*
X170404246Y-109490271D01*
X170412304Y-109512793D01*
X170418116Y-109535997D01*
X170421626Y-109559658D01*
X170422800Y-109583550D01*
X170422800Y-110071050D01*
X170421626Y-110094942D01*
X170418116Y-110118603D01*
X170412304Y-110141807D01*
X170404246Y-110164329D01*
X170394018Y-110185953D01*
X170381721Y-110206470D01*
X170367471Y-110225683D01*
X170351407Y-110243407D01*
X170333683Y-110259471D01*
X170314470Y-110273721D01*
X170293953Y-110286018D01*
X170272329Y-110296246D01*
X170249807Y-110304304D01*
X170226603Y-110310116D01*
X170202942Y-110313626D01*
X170179050Y-110314800D01*
X169266550Y-110314800D01*
X169242658Y-110313626D01*
X169218997Y-110310116D01*
X169195793Y-110304304D01*
X169173271Y-110296246D01*
X169151647Y-110286018D01*
X169131130Y-110273721D01*
X169111917Y-110259471D01*
X169094193Y-110243407D01*
X169078129Y-110225683D01*
X169063879Y-110206470D01*
X169051582Y-110185953D01*
X169041354Y-110164329D01*
X169033296Y-110141807D01*
X169027484Y-110118603D01*
X169023974Y-110094942D01*
X169022800Y-110071050D01*
X169022800Y-109583550D01*
X169023974Y-109559658D01*
X169027484Y-109535997D01*
X169033296Y-109512793D01*
X169041354Y-109490271D01*
X169051582Y-109468647D01*
X169063879Y-109448130D01*
X169078129Y-109428917D01*
X169094193Y-109411193D01*
X169111917Y-109395129D01*
X169131130Y-109380879D01*
X169151647Y-109368582D01*
X169173271Y-109358354D01*
X169195793Y-109350296D01*
X169218997Y-109344484D01*
X169242658Y-109340974D01*
X169266550Y-109339800D01*
X170179050Y-109339800D01*
X170202942Y-109340974D01*
X170202942Y-109340974D01*
G37*
D17*
X169722800Y-109827300D03*
D10*
G36*
X170202942Y-107465974D02*
G01*
X170226603Y-107469484D01*
X170249807Y-107475296D01*
X170272329Y-107483354D01*
X170293953Y-107493582D01*
X170314470Y-107505879D01*
X170333683Y-107520129D01*
X170351407Y-107536193D01*
X170367471Y-107553917D01*
X170381721Y-107573130D01*
X170394018Y-107593647D01*
X170404246Y-107615271D01*
X170412304Y-107637793D01*
X170418116Y-107660997D01*
X170421626Y-107684658D01*
X170422800Y-107708550D01*
X170422800Y-108196050D01*
X170421626Y-108219942D01*
X170418116Y-108243603D01*
X170412304Y-108266807D01*
X170404246Y-108289329D01*
X170394018Y-108310953D01*
X170381721Y-108331470D01*
X170367471Y-108350683D01*
X170351407Y-108368407D01*
X170333683Y-108384471D01*
X170314470Y-108398721D01*
X170293953Y-108411018D01*
X170272329Y-108421246D01*
X170249807Y-108429304D01*
X170226603Y-108435116D01*
X170202942Y-108438626D01*
X170179050Y-108439800D01*
X169266550Y-108439800D01*
X169242658Y-108438626D01*
X169218997Y-108435116D01*
X169195793Y-108429304D01*
X169173271Y-108421246D01*
X169151647Y-108411018D01*
X169131130Y-108398721D01*
X169111917Y-108384471D01*
X169094193Y-108368407D01*
X169078129Y-108350683D01*
X169063879Y-108331470D01*
X169051582Y-108310953D01*
X169041354Y-108289329D01*
X169033296Y-108266807D01*
X169027484Y-108243603D01*
X169023974Y-108219942D01*
X169022800Y-108196050D01*
X169022800Y-107708550D01*
X169023974Y-107684658D01*
X169027484Y-107660997D01*
X169033296Y-107637793D01*
X169041354Y-107615271D01*
X169051582Y-107593647D01*
X169063879Y-107573130D01*
X169078129Y-107553917D01*
X169094193Y-107536193D01*
X169111917Y-107520129D01*
X169131130Y-107505879D01*
X169151647Y-107493582D01*
X169173271Y-107483354D01*
X169195793Y-107475296D01*
X169218997Y-107469484D01*
X169242658Y-107465974D01*
X169266550Y-107464800D01*
X170179050Y-107464800D01*
X170202942Y-107465974D01*
X170202942Y-107465974D01*
G37*
D17*
X169722800Y-107952300D03*
D10*
G36*
X172045191Y-97671153D02*
G01*
X172066426Y-97674303D01*
X172087250Y-97679519D01*
X172107462Y-97686751D01*
X172126868Y-97695930D01*
X172145281Y-97706966D01*
X172162524Y-97719754D01*
X172178430Y-97734170D01*
X172192846Y-97750076D01*
X172205634Y-97767319D01*
X172216670Y-97785732D01*
X172225849Y-97805138D01*
X172233081Y-97825350D01*
X172238297Y-97846174D01*
X172241447Y-97867409D01*
X172242500Y-97888850D01*
X172242500Y-98326350D01*
X172241447Y-98347791D01*
X172238297Y-98369026D01*
X172233081Y-98389850D01*
X172225849Y-98410062D01*
X172216670Y-98429468D01*
X172205634Y-98447881D01*
X172192846Y-98465124D01*
X172178430Y-98481030D01*
X172162524Y-98495446D01*
X172145281Y-98508234D01*
X172126868Y-98519270D01*
X172107462Y-98528449D01*
X172087250Y-98535681D01*
X172066426Y-98540897D01*
X172045191Y-98544047D01*
X172023750Y-98545100D01*
X171511250Y-98545100D01*
X171489809Y-98544047D01*
X171468574Y-98540897D01*
X171447750Y-98535681D01*
X171427538Y-98528449D01*
X171408132Y-98519270D01*
X171389719Y-98508234D01*
X171372476Y-98495446D01*
X171356570Y-98481030D01*
X171342154Y-98465124D01*
X171329366Y-98447881D01*
X171318330Y-98429468D01*
X171309151Y-98410062D01*
X171301919Y-98389850D01*
X171296703Y-98369026D01*
X171293553Y-98347791D01*
X171292500Y-98326350D01*
X171292500Y-97888850D01*
X171293553Y-97867409D01*
X171296703Y-97846174D01*
X171301919Y-97825350D01*
X171309151Y-97805138D01*
X171318330Y-97785732D01*
X171329366Y-97767319D01*
X171342154Y-97750076D01*
X171356570Y-97734170D01*
X171372476Y-97719754D01*
X171389719Y-97706966D01*
X171408132Y-97695930D01*
X171427538Y-97686751D01*
X171447750Y-97679519D01*
X171468574Y-97674303D01*
X171489809Y-97671153D01*
X171511250Y-97670100D01*
X172023750Y-97670100D01*
X172045191Y-97671153D01*
X172045191Y-97671153D01*
G37*
D11*
X171767500Y-98107600D03*
D10*
G36*
X172045191Y-96096153D02*
G01*
X172066426Y-96099303D01*
X172087250Y-96104519D01*
X172107462Y-96111751D01*
X172126868Y-96120930D01*
X172145281Y-96131966D01*
X172162524Y-96144754D01*
X172178430Y-96159170D01*
X172192846Y-96175076D01*
X172205634Y-96192319D01*
X172216670Y-96210732D01*
X172225849Y-96230138D01*
X172233081Y-96250350D01*
X172238297Y-96271174D01*
X172241447Y-96292409D01*
X172242500Y-96313850D01*
X172242500Y-96751350D01*
X172241447Y-96772791D01*
X172238297Y-96794026D01*
X172233081Y-96814850D01*
X172225849Y-96835062D01*
X172216670Y-96854468D01*
X172205634Y-96872881D01*
X172192846Y-96890124D01*
X172178430Y-96906030D01*
X172162524Y-96920446D01*
X172145281Y-96933234D01*
X172126868Y-96944270D01*
X172107462Y-96953449D01*
X172087250Y-96960681D01*
X172066426Y-96965897D01*
X172045191Y-96969047D01*
X172023750Y-96970100D01*
X171511250Y-96970100D01*
X171489809Y-96969047D01*
X171468574Y-96965897D01*
X171447750Y-96960681D01*
X171427538Y-96953449D01*
X171408132Y-96944270D01*
X171389719Y-96933234D01*
X171372476Y-96920446D01*
X171356570Y-96906030D01*
X171342154Y-96890124D01*
X171329366Y-96872881D01*
X171318330Y-96854468D01*
X171309151Y-96835062D01*
X171301919Y-96814850D01*
X171296703Y-96794026D01*
X171293553Y-96772791D01*
X171292500Y-96751350D01*
X171292500Y-96313850D01*
X171293553Y-96292409D01*
X171296703Y-96271174D01*
X171301919Y-96250350D01*
X171309151Y-96230138D01*
X171318330Y-96210732D01*
X171329366Y-96192319D01*
X171342154Y-96175076D01*
X171356570Y-96159170D01*
X171372476Y-96144754D01*
X171389719Y-96131966D01*
X171408132Y-96120930D01*
X171427538Y-96111751D01*
X171447750Y-96104519D01*
X171468574Y-96099303D01*
X171489809Y-96096153D01*
X171511250Y-96095100D01*
X172023750Y-96095100D01*
X172045191Y-96096153D01*
X172045191Y-96096153D01*
G37*
D11*
X171767500Y-96532600D03*
D10*
G36*
X172374642Y-105848474D02*
G01*
X172398303Y-105851984D01*
X172421507Y-105857796D01*
X172444029Y-105865854D01*
X172465653Y-105876082D01*
X172486170Y-105888379D01*
X172505383Y-105902629D01*
X172523107Y-105918693D01*
X172539171Y-105936417D01*
X172553421Y-105955630D01*
X172565718Y-105976147D01*
X172575946Y-105997771D01*
X172584004Y-106020293D01*
X172589816Y-106043497D01*
X172593326Y-106067158D01*
X172594500Y-106091050D01*
X172594500Y-106578550D01*
X172593326Y-106602442D01*
X172589816Y-106626103D01*
X172584004Y-106649307D01*
X172575946Y-106671829D01*
X172565718Y-106693453D01*
X172553421Y-106713970D01*
X172539171Y-106733183D01*
X172523107Y-106750907D01*
X172505383Y-106766971D01*
X172486170Y-106781221D01*
X172465653Y-106793518D01*
X172444029Y-106803746D01*
X172421507Y-106811804D01*
X172398303Y-106817616D01*
X172374642Y-106821126D01*
X172350750Y-106822300D01*
X171438250Y-106822300D01*
X171414358Y-106821126D01*
X171390697Y-106817616D01*
X171367493Y-106811804D01*
X171344971Y-106803746D01*
X171323347Y-106793518D01*
X171302830Y-106781221D01*
X171283617Y-106766971D01*
X171265893Y-106750907D01*
X171249829Y-106733183D01*
X171235579Y-106713970D01*
X171223282Y-106693453D01*
X171213054Y-106671829D01*
X171204996Y-106649307D01*
X171199184Y-106626103D01*
X171195674Y-106602442D01*
X171194500Y-106578550D01*
X171194500Y-106091050D01*
X171195674Y-106067158D01*
X171199184Y-106043497D01*
X171204996Y-106020293D01*
X171213054Y-105997771D01*
X171223282Y-105976147D01*
X171235579Y-105955630D01*
X171249829Y-105936417D01*
X171265893Y-105918693D01*
X171283617Y-105902629D01*
X171302830Y-105888379D01*
X171323347Y-105876082D01*
X171344971Y-105865854D01*
X171367493Y-105857796D01*
X171390697Y-105851984D01*
X171414358Y-105848474D01*
X171438250Y-105847300D01*
X172350750Y-105847300D01*
X172374642Y-105848474D01*
X172374642Y-105848474D01*
G37*
D17*
X171894500Y-106334800D03*
D10*
G36*
X172374642Y-103973474D02*
G01*
X172398303Y-103976984D01*
X172421507Y-103982796D01*
X172444029Y-103990854D01*
X172465653Y-104001082D01*
X172486170Y-104013379D01*
X172505383Y-104027629D01*
X172523107Y-104043693D01*
X172539171Y-104061417D01*
X172553421Y-104080630D01*
X172565718Y-104101147D01*
X172575946Y-104122771D01*
X172584004Y-104145293D01*
X172589816Y-104168497D01*
X172593326Y-104192158D01*
X172594500Y-104216050D01*
X172594500Y-104703550D01*
X172593326Y-104727442D01*
X172589816Y-104751103D01*
X172584004Y-104774307D01*
X172575946Y-104796829D01*
X172565718Y-104818453D01*
X172553421Y-104838970D01*
X172539171Y-104858183D01*
X172523107Y-104875907D01*
X172505383Y-104891971D01*
X172486170Y-104906221D01*
X172465653Y-104918518D01*
X172444029Y-104928746D01*
X172421507Y-104936804D01*
X172398303Y-104942616D01*
X172374642Y-104946126D01*
X172350750Y-104947300D01*
X171438250Y-104947300D01*
X171414358Y-104946126D01*
X171390697Y-104942616D01*
X171367493Y-104936804D01*
X171344971Y-104928746D01*
X171323347Y-104918518D01*
X171302830Y-104906221D01*
X171283617Y-104891971D01*
X171265893Y-104875907D01*
X171249829Y-104858183D01*
X171235579Y-104838970D01*
X171223282Y-104818453D01*
X171213054Y-104796829D01*
X171204996Y-104774307D01*
X171199184Y-104751103D01*
X171195674Y-104727442D01*
X171194500Y-104703550D01*
X171194500Y-104216050D01*
X171195674Y-104192158D01*
X171199184Y-104168497D01*
X171204996Y-104145293D01*
X171213054Y-104122771D01*
X171223282Y-104101147D01*
X171235579Y-104080630D01*
X171249829Y-104061417D01*
X171265893Y-104043693D01*
X171283617Y-104027629D01*
X171302830Y-104013379D01*
X171323347Y-104001082D01*
X171344971Y-103990854D01*
X171367493Y-103982796D01*
X171390697Y-103976984D01*
X171414358Y-103973474D01*
X171438250Y-103972300D01*
X172350750Y-103972300D01*
X172374642Y-103973474D01*
X172374642Y-103973474D01*
G37*
D17*
X171894500Y-104459800D03*
D10*
G36*
X173734291Y-97658453D02*
G01*
X173755526Y-97661603D01*
X173776350Y-97666819D01*
X173796562Y-97674051D01*
X173815968Y-97683230D01*
X173834381Y-97694266D01*
X173851624Y-97707054D01*
X173867530Y-97721470D01*
X173881946Y-97737376D01*
X173894734Y-97754619D01*
X173905770Y-97773032D01*
X173914949Y-97792438D01*
X173922181Y-97812650D01*
X173927397Y-97833474D01*
X173930547Y-97854709D01*
X173931600Y-97876150D01*
X173931600Y-98313650D01*
X173930547Y-98335091D01*
X173927397Y-98356326D01*
X173922181Y-98377150D01*
X173914949Y-98397362D01*
X173905770Y-98416768D01*
X173894734Y-98435181D01*
X173881946Y-98452424D01*
X173867530Y-98468330D01*
X173851624Y-98482746D01*
X173834381Y-98495534D01*
X173815968Y-98506570D01*
X173796562Y-98515749D01*
X173776350Y-98522981D01*
X173755526Y-98528197D01*
X173734291Y-98531347D01*
X173712850Y-98532400D01*
X173200350Y-98532400D01*
X173178909Y-98531347D01*
X173157674Y-98528197D01*
X173136850Y-98522981D01*
X173116638Y-98515749D01*
X173097232Y-98506570D01*
X173078819Y-98495534D01*
X173061576Y-98482746D01*
X173045670Y-98468330D01*
X173031254Y-98452424D01*
X173018466Y-98435181D01*
X173007430Y-98416768D01*
X172998251Y-98397362D01*
X172991019Y-98377150D01*
X172985803Y-98356326D01*
X172982653Y-98335091D01*
X172981600Y-98313650D01*
X172981600Y-97876150D01*
X172982653Y-97854709D01*
X172985803Y-97833474D01*
X172991019Y-97812650D01*
X172998251Y-97792438D01*
X173007430Y-97773032D01*
X173018466Y-97754619D01*
X173031254Y-97737376D01*
X173045670Y-97721470D01*
X173061576Y-97707054D01*
X173078819Y-97694266D01*
X173097232Y-97683230D01*
X173116638Y-97674051D01*
X173136850Y-97666819D01*
X173157674Y-97661603D01*
X173178909Y-97658453D01*
X173200350Y-97657400D01*
X173712850Y-97657400D01*
X173734291Y-97658453D01*
X173734291Y-97658453D01*
G37*
D11*
X173456600Y-98094900D03*
D10*
G36*
X173734291Y-96083453D02*
G01*
X173755526Y-96086603D01*
X173776350Y-96091819D01*
X173796562Y-96099051D01*
X173815968Y-96108230D01*
X173834381Y-96119266D01*
X173851624Y-96132054D01*
X173867530Y-96146470D01*
X173881946Y-96162376D01*
X173894734Y-96179619D01*
X173905770Y-96198032D01*
X173914949Y-96217438D01*
X173922181Y-96237650D01*
X173927397Y-96258474D01*
X173930547Y-96279709D01*
X173931600Y-96301150D01*
X173931600Y-96738650D01*
X173930547Y-96760091D01*
X173927397Y-96781326D01*
X173922181Y-96802150D01*
X173914949Y-96822362D01*
X173905770Y-96841768D01*
X173894734Y-96860181D01*
X173881946Y-96877424D01*
X173867530Y-96893330D01*
X173851624Y-96907746D01*
X173834381Y-96920534D01*
X173815968Y-96931570D01*
X173796562Y-96940749D01*
X173776350Y-96947981D01*
X173755526Y-96953197D01*
X173734291Y-96956347D01*
X173712850Y-96957400D01*
X173200350Y-96957400D01*
X173178909Y-96956347D01*
X173157674Y-96953197D01*
X173136850Y-96947981D01*
X173116638Y-96940749D01*
X173097232Y-96931570D01*
X173078819Y-96920534D01*
X173061576Y-96907746D01*
X173045670Y-96893330D01*
X173031254Y-96877424D01*
X173018466Y-96860181D01*
X173007430Y-96841768D01*
X172998251Y-96822362D01*
X172991019Y-96802150D01*
X172985803Y-96781326D01*
X172982653Y-96760091D01*
X172981600Y-96738650D01*
X172981600Y-96301150D01*
X172982653Y-96279709D01*
X172985803Y-96258474D01*
X172991019Y-96237650D01*
X172998251Y-96217438D01*
X173007430Y-96198032D01*
X173018466Y-96179619D01*
X173031254Y-96162376D01*
X173045670Y-96146470D01*
X173061576Y-96132054D01*
X173078819Y-96119266D01*
X173097232Y-96108230D01*
X173116638Y-96099051D01*
X173136850Y-96091819D01*
X173157674Y-96086603D01*
X173178909Y-96083453D01*
X173200350Y-96082400D01*
X173712850Y-96082400D01*
X173734291Y-96083453D01*
X173734291Y-96083453D01*
G37*
D11*
X173456600Y-96519900D03*
D10*
G36*
X170241042Y-105848474D02*
G01*
X170264703Y-105851984D01*
X170287907Y-105857796D01*
X170310429Y-105865854D01*
X170332053Y-105876082D01*
X170352570Y-105888379D01*
X170371783Y-105902629D01*
X170389507Y-105918693D01*
X170405571Y-105936417D01*
X170419821Y-105955630D01*
X170432118Y-105976147D01*
X170442346Y-105997771D01*
X170450404Y-106020293D01*
X170456216Y-106043497D01*
X170459726Y-106067158D01*
X170460900Y-106091050D01*
X170460900Y-106578550D01*
X170459726Y-106602442D01*
X170456216Y-106626103D01*
X170450404Y-106649307D01*
X170442346Y-106671829D01*
X170432118Y-106693453D01*
X170419821Y-106713970D01*
X170405571Y-106733183D01*
X170389507Y-106750907D01*
X170371783Y-106766971D01*
X170352570Y-106781221D01*
X170332053Y-106793518D01*
X170310429Y-106803746D01*
X170287907Y-106811804D01*
X170264703Y-106817616D01*
X170241042Y-106821126D01*
X170217150Y-106822300D01*
X169304650Y-106822300D01*
X169280758Y-106821126D01*
X169257097Y-106817616D01*
X169233893Y-106811804D01*
X169211371Y-106803746D01*
X169189747Y-106793518D01*
X169169230Y-106781221D01*
X169150017Y-106766971D01*
X169132293Y-106750907D01*
X169116229Y-106733183D01*
X169101979Y-106713970D01*
X169089682Y-106693453D01*
X169079454Y-106671829D01*
X169071396Y-106649307D01*
X169065584Y-106626103D01*
X169062074Y-106602442D01*
X169060900Y-106578550D01*
X169060900Y-106091050D01*
X169062074Y-106067158D01*
X169065584Y-106043497D01*
X169071396Y-106020293D01*
X169079454Y-105997771D01*
X169089682Y-105976147D01*
X169101979Y-105955630D01*
X169116229Y-105936417D01*
X169132293Y-105918693D01*
X169150017Y-105902629D01*
X169169230Y-105888379D01*
X169189747Y-105876082D01*
X169211371Y-105865854D01*
X169233893Y-105857796D01*
X169257097Y-105851984D01*
X169280758Y-105848474D01*
X169304650Y-105847300D01*
X170217150Y-105847300D01*
X170241042Y-105848474D01*
X170241042Y-105848474D01*
G37*
D17*
X169760900Y-106334800D03*
D10*
G36*
X170241042Y-103973474D02*
G01*
X170264703Y-103976984D01*
X170287907Y-103982796D01*
X170310429Y-103990854D01*
X170332053Y-104001082D01*
X170352570Y-104013379D01*
X170371783Y-104027629D01*
X170389507Y-104043693D01*
X170405571Y-104061417D01*
X170419821Y-104080630D01*
X170432118Y-104101147D01*
X170442346Y-104122771D01*
X170450404Y-104145293D01*
X170456216Y-104168497D01*
X170459726Y-104192158D01*
X170460900Y-104216050D01*
X170460900Y-104703550D01*
X170459726Y-104727442D01*
X170456216Y-104751103D01*
X170450404Y-104774307D01*
X170442346Y-104796829D01*
X170432118Y-104818453D01*
X170419821Y-104838970D01*
X170405571Y-104858183D01*
X170389507Y-104875907D01*
X170371783Y-104891971D01*
X170352570Y-104906221D01*
X170332053Y-104918518D01*
X170310429Y-104928746D01*
X170287907Y-104936804D01*
X170264703Y-104942616D01*
X170241042Y-104946126D01*
X170217150Y-104947300D01*
X169304650Y-104947300D01*
X169280758Y-104946126D01*
X169257097Y-104942616D01*
X169233893Y-104936804D01*
X169211371Y-104928746D01*
X169189747Y-104918518D01*
X169169230Y-104906221D01*
X169150017Y-104891971D01*
X169132293Y-104875907D01*
X169116229Y-104858183D01*
X169101979Y-104838970D01*
X169089682Y-104818453D01*
X169079454Y-104796829D01*
X169071396Y-104774307D01*
X169065584Y-104751103D01*
X169062074Y-104727442D01*
X169060900Y-104703550D01*
X169060900Y-104216050D01*
X169062074Y-104192158D01*
X169065584Y-104168497D01*
X169071396Y-104145293D01*
X169079454Y-104122771D01*
X169089682Y-104101147D01*
X169101979Y-104080630D01*
X169116229Y-104061417D01*
X169132293Y-104043693D01*
X169150017Y-104027629D01*
X169169230Y-104013379D01*
X169189747Y-104001082D01*
X169211371Y-103990854D01*
X169233893Y-103982796D01*
X169257097Y-103976984D01*
X169280758Y-103973474D01*
X169304650Y-103972300D01*
X170217150Y-103972300D01*
X170241042Y-103973474D01*
X170241042Y-103973474D01*
G37*
D17*
X169760900Y-104459800D03*
D10*
G36*
X170127491Y-97595053D02*
G01*
X170148726Y-97598203D01*
X170169550Y-97603419D01*
X170189762Y-97610651D01*
X170209168Y-97619830D01*
X170227581Y-97630866D01*
X170244824Y-97643654D01*
X170260730Y-97658070D01*
X170275146Y-97673976D01*
X170287934Y-97691219D01*
X170298970Y-97709632D01*
X170308149Y-97729038D01*
X170315381Y-97749250D01*
X170320597Y-97770074D01*
X170323747Y-97791309D01*
X170324800Y-97812750D01*
X170324800Y-98250250D01*
X170323747Y-98271691D01*
X170320597Y-98292926D01*
X170315381Y-98313750D01*
X170308149Y-98333962D01*
X170298970Y-98353368D01*
X170287934Y-98371781D01*
X170275146Y-98389024D01*
X170260730Y-98404930D01*
X170244824Y-98419346D01*
X170227581Y-98432134D01*
X170209168Y-98443170D01*
X170189762Y-98452349D01*
X170169550Y-98459581D01*
X170148726Y-98464797D01*
X170127491Y-98467947D01*
X170106050Y-98469000D01*
X169593550Y-98469000D01*
X169572109Y-98467947D01*
X169550874Y-98464797D01*
X169530050Y-98459581D01*
X169509838Y-98452349D01*
X169490432Y-98443170D01*
X169472019Y-98432134D01*
X169454776Y-98419346D01*
X169438870Y-98404930D01*
X169424454Y-98389024D01*
X169411666Y-98371781D01*
X169400630Y-98353368D01*
X169391451Y-98333962D01*
X169384219Y-98313750D01*
X169379003Y-98292926D01*
X169375853Y-98271691D01*
X169374800Y-98250250D01*
X169374800Y-97812750D01*
X169375853Y-97791309D01*
X169379003Y-97770074D01*
X169384219Y-97749250D01*
X169391451Y-97729038D01*
X169400630Y-97709632D01*
X169411666Y-97691219D01*
X169424454Y-97673976D01*
X169438870Y-97658070D01*
X169454776Y-97643654D01*
X169472019Y-97630866D01*
X169490432Y-97619830D01*
X169509838Y-97610651D01*
X169530050Y-97603419D01*
X169550874Y-97598203D01*
X169572109Y-97595053D01*
X169593550Y-97594000D01*
X170106050Y-97594000D01*
X170127491Y-97595053D01*
X170127491Y-97595053D01*
G37*
D11*
X169849800Y-98031500D03*
D10*
G36*
X170127491Y-96020053D02*
G01*
X170148726Y-96023203D01*
X170169550Y-96028419D01*
X170189762Y-96035651D01*
X170209168Y-96044830D01*
X170227581Y-96055866D01*
X170244824Y-96068654D01*
X170260730Y-96083070D01*
X170275146Y-96098976D01*
X170287934Y-96116219D01*
X170298970Y-96134632D01*
X170308149Y-96154038D01*
X170315381Y-96174250D01*
X170320597Y-96195074D01*
X170323747Y-96216309D01*
X170324800Y-96237750D01*
X170324800Y-96675250D01*
X170323747Y-96696691D01*
X170320597Y-96717926D01*
X170315381Y-96738750D01*
X170308149Y-96758962D01*
X170298970Y-96778368D01*
X170287934Y-96796781D01*
X170275146Y-96814024D01*
X170260730Y-96829930D01*
X170244824Y-96844346D01*
X170227581Y-96857134D01*
X170209168Y-96868170D01*
X170189762Y-96877349D01*
X170169550Y-96884581D01*
X170148726Y-96889797D01*
X170127491Y-96892947D01*
X170106050Y-96894000D01*
X169593550Y-96894000D01*
X169572109Y-96892947D01*
X169550874Y-96889797D01*
X169530050Y-96884581D01*
X169509838Y-96877349D01*
X169490432Y-96868170D01*
X169472019Y-96857134D01*
X169454776Y-96844346D01*
X169438870Y-96829930D01*
X169424454Y-96814024D01*
X169411666Y-96796781D01*
X169400630Y-96778368D01*
X169391451Y-96758962D01*
X169384219Y-96738750D01*
X169379003Y-96717926D01*
X169375853Y-96696691D01*
X169374800Y-96675250D01*
X169374800Y-96237750D01*
X169375853Y-96216309D01*
X169379003Y-96195074D01*
X169384219Y-96174250D01*
X169391451Y-96154038D01*
X169400630Y-96134632D01*
X169411666Y-96116219D01*
X169424454Y-96098976D01*
X169438870Y-96083070D01*
X169454776Y-96068654D01*
X169472019Y-96055866D01*
X169490432Y-96044830D01*
X169509838Y-96035651D01*
X169530050Y-96028419D01*
X169550874Y-96023203D01*
X169572109Y-96020053D01*
X169593550Y-96019000D01*
X170106050Y-96019000D01*
X170127491Y-96020053D01*
X170127491Y-96020053D01*
G37*
D11*
X169849800Y-96456500D03*
D16*
X171281600Y-101307900D03*
X169281600Y-102257900D03*
X169281600Y-100357900D03*
X167776400Y-108508800D03*
X165776400Y-109458800D03*
X165776400Y-107558800D03*
X174736000Y-101307900D03*
X172736000Y-102257900D03*
X172736000Y-100357900D03*
X167814500Y-101320600D03*
X165814500Y-102270600D03*
X165814500Y-100370600D03*
X167763700Y-104940100D03*
X165763700Y-105890100D03*
X165763700Y-103990100D03*
D18*
X182479700Y-96177100D03*
X181479700Y-96177100D03*
D19*
X180479700Y-96177100D03*
D10*
G36*
X113154542Y-103681374D02*
G01*
X113178203Y-103684884D01*
X113201407Y-103690696D01*
X113223929Y-103698754D01*
X113245553Y-103708982D01*
X113266070Y-103721279D01*
X113285283Y-103735529D01*
X113303007Y-103751593D01*
X113319071Y-103769317D01*
X113333321Y-103788530D01*
X113345618Y-103809047D01*
X113355846Y-103830671D01*
X113363904Y-103853193D01*
X113369716Y-103876397D01*
X113373226Y-103900058D01*
X113374400Y-103923950D01*
X113374400Y-104411450D01*
X113373226Y-104435342D01*
X113369716Y-104459003D01*
X113363904Y-104482207D01*
X113355846Y-104504729D01*
X113345618Y-104526353D01*
X113333321Y-104546870D01*
X113319071Y-104566083D01*
X113303007Y-104583807D01*
X113285283Y-104599871D01*
X113266070Y-104614121D01*
X113245553Y-104626418D01*
X113223929Y-104636646D01*
X113201407Y-104644704D01*
X113178203Y-104650516D01*
X113154542Y-104654026D01*
X113130650Y-104655200D01*
X112218150Y-104655200D01*
X112194258Y-104654026D01*
X112170597Y-104650516D01*
X112147393Y-104644704D01*
X112124871Y-104636646D01*
X112103247Y-104626418D01*
X112082730Y-104614121D01*
X112063517Y-104599871D01*
X112045793Y-104583807D01*
X112029729Y-104566083D01*
X112015479Y-104546870D01*
X112003182Y-104526353D01*
X111992954Y-104504729D01*
X111984896Y-104482207D01*
X111979084Y-104459003D01*
X111975574Y-104435342D01*
X111974400Y-104411450D01*
X111974400Y-103923950D01*
X111975574Y-103900058D01*
X111979084Y-103876397D01*
X111984896Y-103853193D01*
X111992954Y-103830671D01*
X112003182Y-103809047D01*
X112015479Y-103788530D01*
X112029729Y-103769317D01*
X112045793Y-103751593D01*
X112063517Y-103735529D01*
X112082730Y-103721279D01*
X112103247Y-103708982D01*
X112124871Y-103698754D01*
X112147393Y-103690696D01*
X112170597Y-103684884D01*
X112194258Y-103681374D01*
X112218150Y-103680200D01*
X113130650Y-103680200D01*
X113154542Y-103681374D01*
X113154542Y-103681374D01*
G37*
D17*
X112674400Y-104167700D03*
D10*
G36*
X113154542Y-105556374D02*
G01*
X113178203Y-105559884D01*
X113201407Y-105565696D01*
X113223929Y-105573754D01*
X113245553Y-105583982D01*
X113266070Y-105596279D01*
X113285283Y-105610529D01*
X113303007Y-105626593D01*
X113319071Y-105644317D01*
X113333321Y-105663530D01*
X113345618Y-105684047D01*
X113355846Y-105705671D01*
X113363904Y-105728193D01*
X113369716Y-105751397D01*
X113373226Y-105775058D01*
X113374400Y-105798950D01*
X113374400Y-106286450D01*
X113373226Y-106310342D01*
X113369716Y-106334003D01*
X113363904Y-106357207D01*
X113355846Y-106379729D01*
X113345618Y-106401353D01*
X113333321Y-106421870D01*
X113319071Y-106441083D01*
X113303007Y-106458807D01*
X113285283Y-106474871D01*
X113266070Y-106489121D01*
X113245553Y-106501418D01*
X113223929Y-106511646D01*
X113201407Y-106519704D01*
X113178203Y-106525516D01*
X113154542Y-106529026D01*
X113130650Y-106530200D01*
X112218150Y-106530200D01*
X112194258Y-106529026D01*
X112170597Y-106525516D01*
X112147393Y-106519704D01*
X112124871Y-106511646D01*
X112103247Y-106501418D01*
X112082730Y-106489121D01*
X112063517Y-106474871D01*
X112045793Y-106458807D01*
X112029729Y-106441083D01*
X112015479Y-106421870D01*
X112003182Y-106401353D01*
X111992954Y-106379729D01*
X111984896Y-106357207D01*
X111979084Y-106334003D01*
X111975574Y-106310342D01*
X111974400Y-106286450D01*
X111974400Y-105798950D01*
X111975574Y-105775058D01*
X111979084Y-105751397D01*
X111984896Y-105728193D01*
X111992954Y-105705671D01*
X112003182Y-105684047D01*
X112015479Y-105663530D01*
X112029729Y-105644317D01*
X112045793Y-105626593D01*
X112063517Y-105610529D01*
X112082730Y-105596279D01*
X112103247Y-105583982D01*
X112124871Y-105573754D01*
X112147393Y-105565696D01*
X112170597Y-105559884D01*
X112194258Y-105556374D01*
X112218150Y-105555200D01*
X113130650Y-105555200D01*
X113154542Y-105556374D01*
X113154542Y-105556374D01*
G37*
D17*
X112674400Y-106042700D03*
D10*
G36*
X132369642Y-107034174D02*
G01*
X132393303Y-107037684D01*
X132416507Y-107043496D01*
X132439029Y-107051554D01*
X132460653Y-107061782D01*
X132481170Y-107074079D01*
X132500383Y-107088329D01*
X132518107Y-107104393D01*
X132534171Y-107122117D01*
X132548421Y-107141330D01*
X132560718Y-107161847D01*
X132570946Y-107183471D01*
X132579004Y-107205993D01*
X132584816Y-107229197D01*
X132588326Y-107252858D01*
X132589500Y-107276750D01*
X132589500Y-107764250D01*
X132588326Y-107788142D01*
X132584816Y-107811803D01*
X132579004Y-107835007D01*
X132570946Y-107857529D01*
X132560718Y-107879153D01*
X132548421Y-107899670D01*
X132534171Y-107918883D01*
X132518107Y-107936607D01*
X132500383Y-107952671D01*
X132481170Y-107966921D01*
X132460653Y-107979218D01*
X132439029Y-107989446D01*
X132416507Y-107997504D01*
X132393303Y-108003316D01*
X132369642Y-108006826D01*
X132345750Y-108008000D01*
X131433250Y-108008000D01*
X131409358Y-108006826D01*
X131385697Y-108003316D01*
X131362493Y-107997504D01*
X131339971Y-107989446D01*
X131318347Y-107979218D01*
X131297830Y-107966921D01*
X131278617Y-107952671D01*
X131260893Y-107936607D01*
X131244829Y-107918883D01*
X131230579Y-107899670D01*
X131218282Y-107879153D01*
X131208054Y-107857529D01*
X131199996Y-107835007D01*
X131194184Y-107811803D01*
X131190674Y-107788142D01*
X131189500Y-107764250D01*
X131189500Y-107276750D01*
X131190674Y-107252858D01*
X131194184Y-107229197D01*
X131199996Y-107205993D01*
X131208054Y-107183471D01*
X131218282Y-107161847D01*
X131230579Y-107141330D01*
X131244829Y-107122117D01*
X131260893Y-107104393D01*
X131278617Y-107088329D01*
X131297830Y-107074079D01*
X131318347Y-107061782D01*
X131339971Y-107051554D01*
X131362493Y-107043496D01*
X131385697Y-107037684D01*
X131409358Y-107034174D01*
X131433250Y-107033000D01*
X132345750Y-107033000D01*
X132369642Y-107034174D01*
X132369642Y-107034174D01*
G37*
D17*
X131889500Y-107520500D03*
D10*
G36*
X132369642Y-108909174D02*
G01*
X132393303Y-108912684D01*
X132416507Y-108918496D01*
X132439029Y-108926554D01*
X132460653Y-108936782D01*
X132481170Y-108949079D01*
X132500383Y-108963329D01*
X132518107Y-108979393D01*
X132534171Y-108997117D01*
X132548421Y-109016330D01*
X132560718Y-109036847D01*
X132570946Y-109058471D01*
X132579004Y-109080993D01*
X132584816Y-109104197D01*
X132588326Y-109127858D01*
X132589500Y-109151750D01*
X132589500Y-109639250D01*
X132588326Y-109663142D01*
X132584816Y-109686803D01*
X132579004Y-109710007D01*
X132570946Y-109732529D01*
X132560718Y-109754153D01*
X132548421Y-109774670D01*
X132534171Y-109793883D01*
X132518107Y-109811607D01*
X132500383Y-109827671D01*
X132481170Y-109841921D01*
X132460653Y-109854218D01*
X132439029Y-109864446D01*
X132416507Y-109872504D01*
X132393303Y-109878316D01*
X132369642Y-109881826D01*
X132345750Y-109883000D01*
X131433250Y-109883000D01*
X131409358Y-109881826D01*
X131385697Y-109878316D01*
X131362493Y-109872504D01*
X131339971Y-109864446D01*
X131318347Y-109854218D01*
X131297830Y-109841921D01*
X131278617Y-109827671D01*
X131260893Y-109811607D01*
X131244829Y-109793883D01*
X131230579Y-109774670D01*
X131218282Y-109754153D01*
X131208054Y-109732529D01*
X131199996Y-109710007D01*
X131194184Y-109686803D01*
X131190674Y-109663142D01*
X131189500Y-109639250D01*
X131189500Y-109151750D01*
X131190674Y-109127858D01*
X131194184Y-109104197D01*
X131199996Y-109080993D01*
X131208054Y-109058471D01*
X131218282Y-109036847D01*
X131230579Y-109016330D01*
X131244829Y-108997117D01*
X131260893Y-108979393D01*
X131278617Y-108963329D01*
X131297830Y-108949079D01*
X131318347Y-108936782D01*
X131339971Y-108926554D01*
X131362493Y-108918496D01*
X131385697Y-108912684D01*
X131409358Y-108909174D01*
X131433250Y-108908000D01*
X132345750Y-108908000D01*
X132369642Y-108909174D01*
X132369642Y-108909174D01*
G37*
D17*
X131889500Y-109395500D03*
D10*
G36*
X155623342Y-107008774D02*
G01*
X155647003Y-107012284D01*
X155670207Y-107018096D01*
X155692729Y-107026154D01*
X155714353Y-107036382D01*
X155734870Y-107048679D01*
X155754083Y-107062929D01*
X155771807Y-107078993D01*
X155787871Y-107096717D01*
X155802121Y-107115930D01*
X155814418Y-107136447D01*
X155824646Y-107158071D01*
X155832704Y-107180593D01*
X155838516Y-107203797D01*
X155842026Y-107227458D01*
X155843200Y-107251350D01*
X155843200Y-107738850D01*
X155842026Y-107762742D01*
X155838516Y-107786403D01*
X155832704Y-107809607D01*
X155824646Y-107832129D01*
X155814418Y-107853753D01*
X155802121Y-107874270D01*
X155787871Y-107893483D01*
X155771807Y-107911207D01*
X155754083Y-107927271D01*
X155734870Y-107941521D01*
X155714353Y-107953818D01*
X155692729Y-107964046D01*
X155670207Y-107972104D01*
X155647003Y-107977916D01*
X155623342Y-107981426D01*
X155599450Y-107982600D01*
X154686950Y-107982600D01*
X154663058Y-107981426D01*
X154639397Y-107977916D01*
X154616193Y-107972104D01*
X154593671Y-107964046D01*
X154572047Y-107953818D01*
X154551530Y-107941521D01*
X154532317Y-107927271D01*
X154514593Y-107911207D01*
X154498529Y-107893483D01*
X154484279Y-107874270D01*
X154471982Y-107853753D01*
X154461754Y-107832129D01*
X154453696Y-107809607D01*
X154447884Y-107786403D01*
X154444374Y-107762742D01*
X154443200Y-107738850D01*
X154443200Y-107251350D01*
X154444374Y-107227458D01*
X154447884Y-107203797D01*
X154453696Y-107180593D01*
X154461754Y-107158071D01*
X154471982Y-107136447D01*
X154484279Y-107115930D01*
X154498529Y-107096717D01*
X154514593Y-107078993D01*
X154532317Y-107062929D01*
X154551530Y-107048679D01*
X154572047Y-107036382D01*
X154593671Y-107026154D01*
X154616193Y-107018096D01*
X154639397Y-107012284D01*
X154663058Y-107008774D01*
X154686950Y-107007600D01*
X155599450Y-107007600D01*
X155623342Y-107008774D01*
X155623342Y-107008774D01*
G37*
D17*
X155143200Y-107495100D03*
D10*
G36*
X155623342Y-108883774D02*
G01*
X155647003Y-108887284D01*
X155670207Y-108893096D01*
X155692729Y-108901154D01*
X155714353Y-108911382D01*
X155734870Y-108923679D01*
X155754083Y-108937929D01*
X155771807Y-108953993D01*
X155787871Y-108971717D01*
X155802121Y-108990930D01*
X155814418Y-109011447D01*
X155824646Y-109033071D01*
X155832704Y-109055593D01*
X155838516Y-109078797D01*
X155842026Y-109102458D01*
X155843200Y-109126350D01*
X155843200Y-109613850D01*
X155842026Y-109637742D01*
X155838516Y-109661403D01*
X155832704Y-109684607D01*
X155824646Y-109707129D01*
X155814418Y-109728753D01*
X155802121Y-109749270D01*
X155787871Y-109768483D01*
X155771807Y-109786207D01*
X155754083Y-109802271D01*
X155734870Y-109816521D01*
X155714353Y-109828818D01*
X155692729Y-109839046D01*
X155670207Y-109847104D01*
X155647003Y-109852916D01*
X155623342Y-109856426D01*
X155599450Y-109857600D01*
X154686950Y-109857600D01*
X154663058Y-109856426D01*
X154639397Y-109852916D01*
X154616193Y-109847104D01*
X154593671Y-109839046D01*
X154572047Y-109828818D01*
X154551530Y-109816521D01*
X154532317Y-109802271D01*
X154514593Y-109786207D01*
X154498529Y-109768483D01*
X154484279Y-109749270D01*
X154471982Y-109728753D01*
X154461754Y-109707129D01*
X154453696Y-109684607D01*
X154447884Y-109661403D01*
X154444374Y-109637742D01*
X154443200Y-109613850D01*
X154443200Y-109126350D01*
X154444374Y-109102458D01*
X154447884Y-109078797D01*
X154453696Y-109055593D01*
X154461754Y-109033071D01*
X154471982Y-109011447D01*
X154484279Y-108990930D01*
X154498529Y-108971717D01*
X154514593Y-108953993D01*
X154532317Y-108937929D01*
X154551530Y-108923679D01*
X154572047Y-108911382D01*
X154593671Y-108901154D01*
X154616193Y-108893096D01*
X154639397Y-108887284D01*
X154663058Y-108883774D01*
X154686950Y-108882600D01*
X155599450Y-108882600D01*
X155623342Y-108883774D01*
X155623342Y-108883774D01*
G37*
D17*
X155143200Y-109370100D03*
D10*
G36*
X104253191Y-95779353D02*
G01*
X104274426Y-95782503D01*
X104295250Y-95787719D01*
X104315462Y-95794951D01*
X104334868Y-95804130D01*
X104353281Y-95815166D01*
X104370524Y-95827954D01*
X104386430Y-95842370D01*
X104400846Y-95858276D01*
X104413634Y-95875519D01*
X104424670Y-95893932D01*
X104433849Y-95913338D01*
X104441081Y-95933550D01*
X104446297Y-95954374D01*
X104449447Y-95975609D01*
X104450500Y-95997050D01*
X104450500Y-96509550D01*
X104449447Y-96530991D01*
X104446297Y-96552226D01*
X104441081Y-96573050D01*
X104433849Y-96593262D01*
X104424670Y-96612668D01*
X104413634Y-96631081D01*
X104400846Y-96648324D01*
X104386430Y-96664230D01*
X104370524Y-96678646D01*
X104353281Y-96691434D01*
X104334868Y-96702470D01*
X104315462Y-96711649D01*
X104295250Y-96718881D01*
X104274426Y-96724097D01*
X104253191Y-96727247D01*
X104231750Y-96728300D01*
X103794250Y-96728300D01*
X103772809Y-96727247D01*
X103751574Y-96724097D01*
X103730750Y-96718881D01*
X103710538Y-96711649D01*
X103691132Y-96702470D01*
X103672719Y-96691434D01*
X103655476Y-96678646D01*
X103639570Y-96664230D01*
X103625154Y-96648324D01*
X103612366Y-96631081D01*
X103601330Y-96612668D01*
X103592151Y-96593262D01*
X103584919Y-96573050D01*
X103579703Y-96552226D01*
X103576553Y-96530991D01*
X103575500Y-96509550D01*
X103575500Y-95997050D01*
X103576553Y-95975609D01*
X103579703Y-95954374D01*
X103584919Y-95933550D01*
X103592151Y-95913338D01*
X103601330Y-95893932D01*
X103612366Y-95875519D01*
X103625154Y-95858276D01*
X103639570Y-95842370D01*
X103655476Y-95827954D01*
X103672719Y-95815166D01*
X103691132Y-95804130D01*
X103710538Y-95794951D01*
X103730750Y-95787719D01*
X103751574Y-95782503D01*
X103772809Y-95779353D01*
X103794250Y-95778300D01*
X104231750Y-95778300D01*
X104253191Y-95779353D01*
X104253191Y-95779353D01*
G37*
D11*
X104013000Y-96253300D03*
D10*
G36*
X105828191Y-95779353D02*
G01*
X105849426Y-95782503D01*
X105870250Y-95787719D01*
X105890462Y-95794951D01*
X105909868Y-95804130D01*
X105928281Y-95815166D01*
X105945524Y-95827954D01*
X105961430Y-95842370D01*
X105975846Y-95858276D01*
X105988634Y-95875519D01*
X105999670Y-95893932D01*
X106008849Y-95913338D01*
X106016081Y-95933550D01*
X106021297Y-95954374D01*
X106024447Y-95975609D01*
X106025500Y-95997050D01*
X106025500Y-96509550D01*
X106024447Y-96530991D01*
X106021297Y-96552226D01*
X106016081Y-96573050D01*
X106008849Y-96593262D01*
X105999670Y-96612668D01*
X105988634Y-96631081D01*
X105975846Y-96648324D01*
X105961430Y-96664230D01*
X105945524Y-96678646D01*
X105928281Y-96691434D01*
X105909868Y-96702470D01*
X105890462Y-96711649D01*
X105870250Y-96718881D01*
X105849426Y-96724097D01*
X105828191Y-96727247D01*
X105806750Y-96728300D01*
X105369250Y-96728300D01*
X105347809Y-96727247D01*
X105326574Y-96724097D01*
X105305750Y-96718881D01*
X105285538Y-96711649D01*
X105266132Y-96702470D01*
X105247719Y-96691434D01*
X105230476Y-96678646D01*
X105214570Y-96664230D01*
X105200154Y-96648324D01*
X105187366Y-96631081D01*
X105176330Y-96612668D01*
X105167151Y-96593262D01*
X105159919Y-96573050D01*
X105154703Y-96552226D01*
X105151553Y-96530991D01*
X105150500Y-96509550D01*
X105150500Y-95997050D01*
X105151553Y-95975609D01*
X105154703Y-95954374D01*
X105159919Y-95933550D01*
X105167151Y-95913338D01*
X105176330Y-95893932D01*
X105187366Y-95875519D01*
X105200154Y-95858276D01*
X105214570Y-95842370D01*
X105230476Y-95827954D01*
X105247719Y-95815166D01*
X105266132Y-95804130D01*
X105285538Y-95794951D01*
X105305750Y-95787719D01*
X105326574Y-95782503D01*
X105347809Y-95779353D01*
X105369250Y-95778300D01*
X105806750Y-95778300D01*
X105828191Y-95779353D01*
X105828191Y-95779353D01*
G37*
D11*
X105588000Y-96253300D03*
D10*
G36*
X126554291Y-95855553D02*
G01*
X126575526Y-95858703D01*
X126596350Y-95863919D01*
X126616562Y-95871151D01*
X126635968Y-95880330D01*
X126654381Y-95891366D01*
X126671624Y-95904154D01*
X126687530Y-95918570D01*
X126701946Y-95934476D01*
X126714734Y-95951719D01*
X126725770Y-95970132D01*
X126734949Y-95989538D01*
X126742181Y-96009750D01*
X126747397Y-96030574D01*
X126750547Y-96051809D01*
X126751600Y-96073250D01*
X126751600Y-96585750D01*
X126750547Y-96607191D01*
X126747397Y-96628426D01*
X126742181Y-96649250D01*
X126734949Y-96669462D01*
X126725770Y-96688868D01*
X126714734Y-96707281D01*
X126701946Y-96724524D01*
X126687530Y-96740430D01*
X126671624Y-96754846D01*
X126654381Y-96767634D01*
X126635968Y-96778670D01*
X126616562Y-96787849D01*
X126596350Y-96795081D01*
X126575526Y-96800297D01*
X126554291Y-96803447D01*
X126532850Y-96804500D01*
X126095350Y-96804500D01*
X126073909Y-96803447D01*
X126052674Y-96800297D01*
X126031850Y-96795081D01*
X126011638Y-96787849D01*
X125992232Y-96778670D01*
X125973819Y-96767634D01*
X125956576Y-96754846D01*
X125940670Y-96740430D01*
X125926254Y-96724524D01*
X125913466Y-96707281D01*
X125902430Y-96688868D01*
X125893251Y-96669462D01*
X125886019Y-96649250D01*
X125880803Y-96628426D01*
X125877653Y-96607191D01*
X125876600Y-96585750D01*
X125876600Y-96073250D01*
X125877653Y-96051809D01*
X125880803Y-96030574D01*
X125886019Y-96009750D01*
X125893251Y-95989538D01*
X125902430Y-95970132D01*
X125913466Y-95951719D01*
X125926254Y-95934476D01*
X125940670Y-95918570D01*
X125956576Y-95904154D01*
X125973819Y-95891366D01*
X125992232Y-95880330D01*
X126011638Y-95871151D01*
X126031850Y-95863919D01*
X126052674Y-95858703D01*
X126073909Y-95855553D01*
X126095350Y-95854500D01*
X126532850Y-95854500D01*
X126554291Y-95855553D01*
X126554291Y-95855553D01*
G37*
D11*
X126314100Y-96329500D03*
D10*
G36*
X128129291Y-95855553D02*
G01*
X128150526Y-95858703D01*
X128171350Y-95863919D01*
X128191562Y-95871151D01*
X128210968Y-95880330D01*
X128229381Y-95891366D01*
X128246624Y-95904154D01*
X128262530Y-95918570D01*
X128276946Y-95934476D01*
X128289734Y-95951719D01*
X128300770Y-95970132D01*
X128309949Y-95989538D01*
X128317181Y-96009750D01*
X128322397Y-96030574D01*
X128325547Y-96051809D01*
X128326600Y-96073250D01*
X128326600Y-96585750D01*
X128325547Y-96607191D01*
X128322397Y-96628426D01*
X128317181Y-96649250D01*
X128309949Y-96669462D01*
X128300770Y-96688868D01*
X128289734Y-96707281D01*
X128276946Y-96724524D01*
X128262530Y-96740430D01*
X128246624Y-96754846D01*
X128229381Y-96767634D01*
X128210968Y-96778670D01*
X128191562Y-96787849D01*
X128171350Y-96795081D01*
X128150526Y-96800297D01*
X128129291Y-96803447D01*
X128107850Y-96804500D01*
X127670350Y-96804500D01*
X127648909Y-96803447D01*
X127627674Y-96800297D01*
X127606850Y-96795081D01*
X127586638Y-96787849D01*
X127567232Y-96778670D01*
X127548819Y-96767634D01*
X127531576Y-96754846D01*
X127515670Y-96740430D01*
X127501254Y-96724524D01*
X127488466Y-96707281D01*
X127477430Y-96688868D01*
X127468251Y-96669462D01*
X127461019Y-96649250D01*
X127455803Y-96628426D01*
X127452653Y-96607191D01*
X127451600Y-96585750D01*
X127451600Y-96073250D01*
X127452653Y-96051809D01*
X127455803Y-96030574D01*
X127461019Y-96009750D01*
X127468251Y-95989538D01*
X127477430Y-95970132D01*
X127488466Y-95951719D01*
X127501254Y-95934476D01*
X127515670Y-95918570D01*
X127531576Y-95904154D01*
X127548819Y-95891366D01*
X127567232Y-95880330D01*
X127586638Y-95871151D01*
X127606850Y-95863919D01*
X127627674Y-95858703D01*
X127648909Y-95855553D01*
X127670350Y-95854500D01*
X128107850Y-95854500D01*
X128129291Y-95855553D01*
X128129291Y-95855553D01*
G37*
D11*
X127889100Y-96329500D03*
D10*
G36*
X149198391Y-95969853D02*
G01*
X149219626Y-95973003D01*
X149240450Y-95978219D01*
X149260662Y-95985451D01*
X149280068Y-95994630D01*
X149298481Y-96005666D01*
X149315724Y-96018454D01*
X149331630Y-96032870D01*
X149346046Y-96048776D01*
X149358834Y-96066019D01*
X149369870Y-96084432D01*
X149379049Y-96103838D01*
X149386281Y-96124050D01*
X149391497Y-96144874D01*
X149394647Y-96166109D01*
X149395700Y-96187550D01*
X149395700Y-96700050D01*
X149394647Y-96721491D01*
X149391497Y-96742726D01*
X149386281Y-96763550D01*
X149379049Y-96783762D01*
X149369870Y-96803168D01*
X149358834Y-96821581D01*
X149346046Y-96838824D01*
X149331630Y-96854730D01*
X149315724Y-96869146D01*
X149298481Y-96881934D01*
X149280068Y-96892970D01*
X149260662Y-96902149D01*
X149240450Y-96909381D01*
X149219626Y-96914597D01*
X149198391Y-96917747D01*
X149176950Y-96918800D01*
X148739450Y-96918800D01*
X148718009Y-96917747D01*
X148696774Y-96914597D01*
X148675950Y-96909381D01*
X148655738Y-96902149D01*
X148636332Y-96892970D01*
X148617919Y-96881934D01*
X148600676Y-96869146D01*
X148584770Y-96854730D01*
X148570354Y-96838824D01*
X148557566Y-96821581D01*
X148546530Y-96803168D01*
X148537351Y-96783762D01*
X148530119Y-96763550D01*
X148524903Y-96742726D01*
X148521753Y-96721491D01*
X148520700Y-96700050D01*
X148520700Y-96187550D01*
X148521753Y-96166109D01*
X148524903Y-96144874D01*
X148530119Y-96124050D01*
X148537351Y-96103838D01*
X148546530Y-96084432D01*
X148557566Y-96066019D01*
X148570354Y-96048776D01*
X148584770Y-96032870D01*
X148600676Y-96018454D01*
X148617919Y-96005666D01*
X148636332Y-95994630D01*
X148655738Y-95985451D01*
X148675950Y-95978219D01*
X148696774Y-95973003D01*
X148718009Y-95969853D01*
X148739450Y-95968800D01*
X149176950Y-95968800D01*
X149198391Y-95969853D01*
X149198391Y-95969853D01*
G37*
D11*
X148958200Y-96443800D03*
D10*
G36*
X150773391Y-95969853D02*
G01*
X150794626Y-95973003D01*
X150815450Y-95978219D01*
X150835662Y-95985451D01*
X150855068Y-95994630D01*
X150873481Y-96005666D01*
X150890724Y-96018454D01*
X150906630Y-96032870D01*
X150921046Y-96048776D01*
X150933834Y-96066019D01*
X150944870Y-96084432D01*
X150954049Y-96103838D01*
X150961281Y-96124050D01*
X150966497Y-96144874D01*
X150969647Y-96166109D01*
X150970700Y-96187550D01*
X150970700Y-96700050D01*
X150969647Y-96721491D01*
X150966497Y-96742726D01*
X150961281Y-96763550D01*
X150954049Y-96783762D01*
X150944870Y-96803168D01*
X150933834Y-96821581D01*
X150921046Y-96838824D01*
X150906630Y-96854730D01*
X150890724Y-96869146D01*
X150873481Y-96881934D01*
X150855068Y-96892970D01*
X150835662Y-96902149D01*
X150815450Y-96909381D01*
X150794626Y-96914597D01*
X150773391Y-96917747D01*
X150751950Y-96918800D01*
X150314450Y-96918800D01*
X150293009Y-96917747D01*
X150271774Y-96914597D01*
X150250950Y-96909381D01*
X150230738Y-96902149D01*
X150211332Y-96892970D01*
X150192919Y-96881934D01*
X150175676Y-96869146D01*
X150159770Y-96854730D01*
X150145354Y-96838824D01*
X150132566Y-96821581D01*
X150121530Y-96803168D01*
X150112351Y-96783762D01*
X150105119Y-96763550D01*
X150099903Y-96742726D01*
X150096753Y-96721491D01*
X150095700Y-96700050D01*
X150095700Y-96187550D01*
X150096753Y-96166109D01*
X150099903Y-96144874D01*
X150105119Y-96124050D01*
X150112351Y-96103838D01*
X150121530Y-96084432D01*
X150132566Y-96066019D01*
X150145354Y-96048776D01*
X150159770Y-96032870D01*
X150175676Y-96018454D01*
X150192919Y-96005666D01*
X150211332Y-95994630D01*
X150230738Y-95985451D01*
X150250950Y-95978219D01*
X150271774Y-95973003D01*
X150293009Y-95969853D01*
X150314450Y-95968800D01*
X150751950Y-95968800D01*
X150773391Y-95969853D01*
X150773391Y-95969853D01*
G37*
D11*
X150533200Y-96443800D03*
D10*
G36*
X111173342Y-103681374D02*
G01*
X111197003Y-103684884D01*
X111220207Y-103690696D01*
X111242729Y-103698754D01*
X111264353Y-103708982D01*
X111284870Y-103721279D01*
X111304083Y-103735529D01*
X111321807Y-103751593D01*
X111337871Y-103769317D01*
X111352121Y-103788530D01*
X111364418Y-103809047D01*
X111374646Y-103830671D01*
X111382704Y-103853193D01*
X111388516Y-103876397D01*
X111392026Y-103900058D01*
X111393200Y-103923950D01*
X111393200Y-104411450D01*
X111392026Y-104435342D01*
X111388516Y-104459003D01*
X111382704Y-104482207D01*
X111374646Y-104504729D01*
X111364418Y-104526353D01*
X111352121Y-104546870D01*
X111337871Y-104566083D01*
X111321807Y-104583807D01*
X111304083Y-104599871D01*
X111284870Y-104614121D01*
X111264353Y-104626418D01*
X111242729Y-104636646D01*
X111220207Y-104644704D01*
X111197003Y-104650516D01*
X111173342Y-104654026D01*
X111149450Y-104655200D01*
X110236950Y-104655200D01*
X110213058Y-104654026D01*
X110189397Y-104650516D01*
X110166193Y-104644704D01*
X110143671Y-104636646D01*
X110122047Y-104626418D01*
X110101530Y-104614121D01*
X110082317Y-104599871D01*
X110064593Y-104583807D01*
X110048529Y-104566083D01*
X110034279Y-104546870D01*
X110021982Y-104526353D01*
X110011754Y-104504729D01*
X110003696Y-104482207D01*
X109997884Y-104459003D01*
X109994374Y-104435342D01*
X109993200Y-104411450D01*
X109993200Y-103923950D01*
X109994374Y-103900058D01*
X109997884Y-103876397D01*
X110003696Y-103853193D01*
X110011754Y-103830671D01*
X110021982Y-103809047D01*
X110034279Y-103788530D01*
X110048529Y-103769317D01*
X110064593Y-103751593D01*
X110082317Y-103735529D01*
X110101530Y-103721279D01*
X110122047Y-103708982D01*
X110143671Y-103698754D01*
X110166193Y-103690696D01*
X110189397Y-103684884D01*
X110213058Y-103681374D01*
X110236950Y-103680200D01*
X111149450Y-103680200D01*
X111173342Y-103681374D01*
X111173342Y-103681374D01*
G37*
D17*
X110693200Y-104167700D03*
D10*
G36*
X111173342Y-105556374D02*
G01*
X111197003Y-105559884D01*
X111220207Y-105565696D01*
X111242729Y-105573754D01*
X111264353Y-105583982D01*
X111284870Y-105596279D01*
X111304083Y-105610529D01*
X111321807Y-105626593D01*
X111337871Y-105644317D01*
X111352121Y-105663530D01*
X111364418Y-105684047D01*
X111374646Y-105705671D01*
X111382704Y-105728193D01*
X111388516Y-105751397D01*
X111392026Y-105775058D01*
X111393200Y-105798950D01*
X111393200Y-106286450D01*
X111392026Y-106310342D01*
X111388516Y-106334003D01*
X111382704Y-106357207D01*
X111374646Y-106379729D01*
X111364418Y-106401353D01*
X111352121Y-106421870D01*
X111337871Y-106441083D01*
X111321807Y-106458807D01*
X111304083Y-106474871D01*
X111284870Y-106489121D01*
X111264353Y-106501418D01*
X111242729Y-106511646D01*
X111220207Y-106519704D01*
X111197003Y-106525516D01*
X111173342Y-106529026D01*
X111149450Y-106530200D01*
X110236950Y-106530200D01*
X110213058Y-106529026D01*
X110189397Y-106525516D01*
X110166193Y-106519704D01*
X110143671Y-106511646D01*
X110122047Y-106501418D01*
X110101530Y-106489121D01*
X110082317Y-106474871D01*
X110064593Y-106458807D01*
X110048529Y-106441083D01*
X110034279Y-106421870D01*
X110021982Y-106401353D01*
X110011754Y-106379729D01*
X110003696Y-106357207D01*
X109997884Y-106334003D01*
X109994374Y-106310342D01*
X109993200Y-106286450D01*
X109993200Y-105798950D01*
X109994374Y-105775058D01*
X109997884Y-105751397D01*
X110003696Y-105728193D01*
X110011754Y-105705671D01*
X110021982Y-105684047D01*
X110034279Y-105663530D01*
X110048529Y-105644317D01*
X110064593Y-105626593D01*
X110082317Y-105610529D01*
X110101530Y-105596279D01*
X110122047Y-105583982D01*
X110143671Y-105573754D01*
X110166193Y-105565696D01*
X110189397Y-105559884D01*
X110213058Y-105556374D01*
X110236950Y-105555200D01*
X111149450Y-105555200D01*
X111173342Y-105556374D01*
X111173342Y-105556374D01*
G37*
D17*
X110693200Y-106042700D03*
D10*
G36*
X123098642Y-105086474D02*
G01*
X123122303Y-105089984D01*
X123145507Y-105095796D01*
X123168029Y-105103854D01*
X123189653Y-105114082D01*
X123210170Y-105126379D01*
X123229383Y-105140629D01*
X123247107Y-105156693D01*
X123263171Y-105174417D01*
X123277421Y-105193630D01*
X123289718Y-105214147D01*
X123299946Y-105235771D01*
X123308004Y-105258293D01*
X123313816Y-105281497D01*
X123317326Y-105305158D01*
X123318500Y-105329050D01*
X123318500Y-105816550D01*
X123317326Y-105840442D01*
X123313816Y-105864103D01*
X123308004Y-105887307D01*
X123299946Y-105909829D01*
X123289718Y-105931453D01*
X123277421Y-105951970D01*
X123263171Y-105971183D01*
X123247107Y-105988907D01*
X123229383Y-106004971D01*
X123210170Y-106019221D01*
X123189653Y-106031518D01*
X123168029Y-106041746D01*
X123145507Y-106049804D01*
X123122303Y-106055616D01*
X123098642Y-106059126D01*
X123074750Y-106060300D01*
X122162250Y-106060300D01*
X122138358Y-106059126D01*
X122114697Y-106055616D01*
X122091493Y-106049804D01*
X122068971Y-106041746D01*
X122047347Y-106031518D01*
X122026830Y-106019221D01*
X122007617Y-106004971D01*
X121989893Y-105988907D01*
X121973829Y-105971183D01*
X121959579Y-105951970D01*
X121947282Y-105931453D01*
X121937054Y-105909829D01*
X121928996Y-105887307D01*
X121923184Y-105864103D01*
X121919674Y-105840442D01*
X121918500Y-105816550D01*
X121918500Y-105329050D01*
X121919674Y-105305158D01*
X121923184Y-105281497D01*
X121928996Y-105258293D01*
X121937054Y-105235771D01*
X121947282Y-105214147D01*
X121959579Y-105193630D01*
X121973829Y-105174417D01*
X121989893Y-105156693D01*
X122007617Y-105140629D01*
X122026830Y-105126379D01*
X122047347Y-105114082D01*
X122068971Y-105103854D01*
X122091493Y-105095796D01*
X122114697Y-105089984D01*
X122138358Y-105086474D01*
X122162250Y-105085300D01*
X123074750Y-105085300D01*
X123098642Y-105086474D01*
X123098642Y-105086474D01*
G37*
D17*
X122618500Y-105572800D03*
D10*
G36*
X123098642Y-103211474D02*
G01*
X123122303Y-103214984D01*
X123145507Y-103220796D01*
X123168029Y-103228854D01*
X123189653Y-103239082D01*
X123210170Y-103251379D01*
X123229383Y-103265629D01*
X123247107Y-103281693D01*
X123263171Y-103299417D01*
X123277421Y-103318630D01*
X123289718Y-103339147D01*
X123299946Y-103360771D01*
X123308004Y-103383293D01*
X123313816Y-103406497D01*
X123317326Y-103430158D01*
X123318500Y-103454050D01*
X123318500Y-103941550D01*
X123317326Y-103965442D01*
X123313816Y-103989103D01*
X123308004Y-104012307D01*
X123299946Y-104034829D01*
X123289718Y-104056453D01*
X123277421Y-104076970D01*
X123263171Y-104096183D01*
X123247107Y-104113907D01*
X123229383Y-104129971D01*
X123210170Y-104144221D01*
X123189653Y-104156518D01*
X123168029Y-104166746D01*
X123145507Y-104174804D01*
X123122303Y-104180616D01*
X123098642Y-104184126D01*
X123074750Y-104185300D01*
X122162250Y-104185300D01*
X122138358Y-104184126D01*
X122114697Y-104180616D01*
X122091493Y-104174804D01*
X122068971Y-104166746D01*
X122047347Y-104156518D01*
X122026830Y-104144221D01*
X122007617Y-104129971D01*
X121989893Y-104113907D01*
X121973829Y-104096183D01*
X121959579Y-104076970D01*
X121947282Y-104056453D01*
X121937054Y-104034829D01*
X121928996Y-104012307D01*
X121923184Y-103989103D01*
X121919674Y-103965442D01*
X121918500Y-103941550D01*
X121918500Y-103454050D01*
X121919674Y-103430158D01*
X121923184Y-103406497D01*
X121928996Y-103383293D01*
X121937054Y-103360771D01*
X121947282Y-103339147D01*
X121959579Y-103318630D01*
X121973829Y-103299417D01*
X121989893Y-103281693D01*
X122007617Y-103265629D01*
X122026830Y-103251379D01*
X122047347Y-103239082D01*
X122068971Y-103228854D01*
X122091493Y-103220796D01*
X122114697Y-103214984D01*
X122138358Y-103211474D01*
X122162250Y-103210300D01*
X123074750Y-103210300D01*
X123098642Y-103211474D01*
X123098642Y-103211474D01*
G37*
D17*
X122618500Y-103697800D03*
D10*
G36*
X145780842Y-105137274D02*
G01*
X145804503Y-105140784D01*
X145827707Y-105146596D01*
X145850229Y-105154654D01*
X145871853Y-105164882D01*
X145892370Y-105177179D01*
X145911583Y-105191429D01*
X145929307Y-105207493D01*
X145945371Y-105225217D01*
X145959621Y-105244430D01*
X145971918Y-105264947D01*
X145982146Y-105286571D01*
X145990204Y-105309093D01*
X145996016Y-105332297D01*
X145999526Y-105355958D01*
X146000700Y-105379850D01*
X146000700Y-105867350D01*
X145999526Y-105891242D01*
X145996016Y-105914903D01*
X145990204Y-105938107D01*
X145982146Y-105960629D01*
X145971918Y-105982253D01*
X145959621Y-106002770D01*
X145945371Y-106021983D01*
X145929307Y-106039707D01*
X145911583Y-106055771D01*
X145892370Y-106070021D01*
X145871853Y-106082318D01*
X145850229Y-106092546D01*
X145827707Y-106100604D01*
X145804503Y-106106416D01*
X145780842Y-106109926D01*
X145756950Y-106111100D01*
X144844450Y-106111100D01*
X144820558Y-106109926D01*
X144796897Y-106106416D01*
X144773693Y-106100604D01*
X144751171Y-106092546D01*
X144729547Y-106082318D01*
X144709030Y-106070021D01*
X144689817Y-106055771D01*
X144672093Y-106039707D01*
X144656029Y-106021983D01*
X144641779Y-106002770D01*
X144629482Y-105982253D01*
X144619254Y-105960629D01*
X144611196Y-105938107D01*
X144605384Y-105914903D01*
X144601874Y-105891242D01*
X144600700Y-105867350D01*
X144600700Y-105379850D01*
X144601874Y-105355958D01*
X144605384Y-105332297D01*
X144611196Y-105309093D01*
X144619254Y-105286571D01*
X144629482Y-105264947D01*
X144641779Y-105244430D01*
X144656029Y-105225217D01*
X144672093Y-105207493D01*
X144689817Y-105191429D01*
X144709030Y-105177179D01*
X144729547Y-105164882D01*
X144751171Y-105154654D01*
X144773693Y-105146596D01*
X144796897Y-105140784D01*
X144820558Y-105137274D01*
X144844450Y-105136100D01*
X145756950Y-105136100D01*
X145780842Y-105137274D01*
X145780842Y-105137274D01*
G37*
D17*
X145300700Y-105623600D03*
D10*
G36*
X145780842Y-103262274D02*
G01*
X145804503Y-103265784D01*
X145827707Y-103271596D01*
X145850229Y-103279654D01*
X145871853Y-103289882D01*
X145892370Y-103302179D01*
X145911583Y-103316429D01*
X145929307Y-103332493D01*
X145945371Y-103350217D01*
X145959621Y-103369430D01*
X145971918Y-103389947D01*
X145982146Y-103411571D01*
X145990204Y-103434093D01*
X145996016Y-103457297D01*
X145999526Y-103480958D01*
X146000700Y-103504850D01*
X146000700Y-103992350D01*
X145999526Y-104016242D01*
X145996016Y-104039903D01*
X145990204Y-104063107D01*
X145982146Y-104085629D01*
X145971918Y-104107253D01*
X145959621Y-104127770D01*
X145945371Y-104146983D01*
X145929307Y-104164707D01*
X145911583Y-104180771D01*
X145892370Y-104195021D01*
X145871853Y-104207318D01*
X145850229Y-104217546D01*
X145827707Y-104225604D01*
X145804503Y-104231416D01*
X145780842Y-104234926D01*
X145756950Y-104236100D01*
X144844450Y-104236100D01*
X144820558Y-104234926D01*
X144796897Y-104231416D01*
X144773693Y-104225604D01*
X144751171Y-104217546D01*
X144729547Y-104207318D01*
X144709030Y-104195021D01*
X144689817Y-104180771D01*
X144672093Y-104164707D01*
X144656029Y-104146983D01*
X144641779Y-104127770D01*
X144629482Y-104107253D01*
X144619254Y-104085629D01*
X144611196Y-104063107D01*
X144605384Y-104039903D01*
X144601874Y-104016242D01*
X144600700Y-103992350D01*
X144600700Y-103504850D01*
X144601874Y-103480958D01*
X144605384Y-103457297D01*
X144611196Y-103434093D01*
X144619254Y-103411571D01*
X144629482Y-103389947D01*
X144641779Y-103369430D01*
X144656029Y-103350217D01*
X144672093Y-103332493D01*
X144689817Y-103316429D01*
X144709030Y-103302179D01*
X144729547Y-103289882D01*
X144751171Y-103279654D01*
X144773693Y-103271596D01*
X144796897Y-103265784D01*
X144820558Y-103262274D01*
X144844450Y-103261100D01*
X145756950Y-103261100D01*
X145780842Y-103262274D01*
X145780842Y-103262274D01*
G37*
D17*
X145300700Y-103748600D03*
D10*
G36*
X105840091Y-98903053D02*
G01*
X105861326Y-98906203D01*
X105882150Y-98911419D01*
X105902362Y-98918651D01*
X105921768Y-98927830D01*
X105940181Y-98938866D01*
X105957424Y-98951654D01*
X105973330Y-98966070D01*
X105987746Y-98981976D01*
X106000534Y-98999219D01*
X106011570Y-99017632D01*
X106020749Y-99037038D01*
X106027981Y-99057250D01*
X106033197Y-99078074D01*
X106036347Y-99099309D01*
X106037400Y-99120750D01*
X106037400Y-99558250D01*
X106036347Y-99579691D01*
X106033197Y-99600926D01*
X106027981Y-99621750D01*
X106020749Y-99641962D01*
X106011570Y-99661368D01*
X106000534Y-99679781D01*
X105987746Y-99697024D01*
X105973330Y-99712930D01*
X105957424Y-99727346D01*
X105940181Y-99740134D01*
X105921768Y-99751170D01*
X105902362Y-99760349D01*
X105882150Y-99767581D01*
X105861326Y-99772797D01*
X105840091Y-99775947D01*
X105818650Y-99777000D01*
X105306150Y-99777000D01*
X105284709Y-99775947D01*
X105263474Y-99772797D01*
X105242650Y-99767581D01*
X105222438Y-99760349D01*
X105203032Y-99751170D01*
X105184619Y-99740134D01*
X105167376Y-99727346D01*
X105151470Y-99712930D01*
X105137054Y-99697024D01*
X105124266Y-99679781D01*
X105113230Y-99661368D01*
X105104051Y-99641962D01*
X105096819Y-99621750D01*
X105091603Y-99600926D01*
X105088453Y-99579691D01*
X105087400Y-99558250D01*
X105087400Y-99120750D01*
X105088453Y-99099309D01*
X105091603Y-99078074D01*
X105096819Y-99057250D01*
X105104051Y-99037038D01*
X105113230Y-99017632D01*
X105124266Y-98999219D01*
X105137054Y-98981976D01*
X105151470Y-98966070D01*
X105167376Y-98951654D01*
X105184619Y-98938866D01*
X105203032Y-98927830D01*
X105222438Y-98918651D01*
X105242650Y-98911419D01*
X105263474Y-98906203D01*
X105284709Y-98903053D01*
X105306150Y-98902000D01*
X105818650Y-98902000D01*
X105840091Y-98903053D01*
X105840091Y-98903053D01*
G37*
D11*
X105562400Y-99339500D03*
D10*
G36*
X105840091Y-97328053D02*
G01*
X105861326Y-97331203D01*
X105882150Y-97336419D01*
X105902362Y-97343651D01*
X105921768Y-97352830D01*
X105940181Y-97363866D01*
X105957424Y-97376654D01*
X105973330Y-97391070D01*
X105987746Y-97406976D01*
X106000534Y-97424219D01*
X106011570Y-97442632D01*
X106020749Y-97462038D01*
X106027981Y-97482250D01*
X106033197Y-97503074D01*
X106036347Y-97524309D01*
X106037400Y-97545750D01*
X106037400Y-97983250D01*
X106036347Y-98004691D01*
X106033197Y-98025926D01*
X106027981Y-98046750D01*
X106020749Y-98066962D01*
X106011570Y-98086368D01*
X106000534Y-98104781D01*
X105987746Y-98122024D01*
X105973330Y-98137930D01*
X105957424Y-98152346D01*
X105940181Y-98165134D01*
X105921768Y-98176170D01*
X105902362Y-98185349D01*
X105882150Y-98192581D01*
X105861326Y-98197797D01*
X105840091Y-98200947D01*
X105818650Y-98202000D01*
X105306150Y-98202000D01*
X105284709Y-98200947D01*
X105263474Y-98197797D01*
X105242650Y-98192581D01*
X105222438Y-98185349D01*
X105203032Y-98176170D01*
X105184619Y-98165134D01*
X105167376Y-98152346D01*
X105151470Y-98137930D01*
X105137054Y-98122024D01*
X105124266Y-98104781D01*
X105113230Y-98086368D01*
X105104051Y-98066962D01*
X105096819Y-98046750D01*
X105091603Y-98025926D01*
X105088453Y-98004691D01*
X105087400Y-97983250D01*
X105087400Y-97545750D01*
X105088453Y-97524309D01*
X105091603Y-97503074D01*
X105096819Y-97482250D01*
X105104051Y-97462038D01*
X105113230Y-97442632D01*
X105124266Y-97424219D01*
X105137054Y-97406976D01*
X105151470Y-97391070D01*
X105167376Y-97376654D01*
X105184619Y-97363866D01*
X105203032Y-97352830D01*
X105222438Y-97343651D01*
X105242650Y-97336419D01*
X105263474Y-97331203D01*
X105284709Y-97328053D01*
X105306150Y-97327000D01*
X105818650Y-97327000D01*
X105840091Y-97328053D01*
X105840091Y-97328053D01*
G37*
D11*
X105562400Y-97764500D03*
D10*
G36*
X128128591Y-98953753D02*
G01*
X128149826Y-98956903D01*
X128170650Y-98962119D01*
X128190862Y-98969351D01*
X128210268Y-98978530D01*
X128228681Y-98989566D01*
X128245924Y-99002354D01*
X128261830Y-99016770D01*
X128276246Y-99032676D01*
X128289034Y-99049919D01*
X128300070Y-99068332D01*
X128309249Y-99087738D01*
X128316481Y-99107950D01*
X128321697Y-99128774D01*
X128324847Y-99150009D01*
X128325900Y-99171450D01*
X128325900Y-99608950D01*
X128324847Y-99630391D01*
X128321697Y-99651626D01*
X128316481Y-99672450D01*
X128309249Y-99692662D01*
X128300070Y-99712068D01*
X128289034Y-99730481D01*
X128276246Y-99747724D01*
X128261830Y-99763630D01*
X128245924Y-99778046D01*
X128228681Y-99790834D01*
X128210268Y-99801870D01*
X128190862Y-99811049D01*
X128170650Y-99818281D01*
X128149826Y-99823497D01*
X128128591Y-99826647D01*
X128107150Y-99827700D01*
X127594650Y-99827700D01*
X127573209Y-99826647D01*
X127551974Y-99823497D01*
X127531150Y-99818281D01*
X127510938Y-99811049D01*
X127491532Y-99801870D01*
X127473119Y-99790834D01*
X127455876Y-99778046D01*
X127439970Y-99763630D01*
X127425554Y-99747724D01*
X127412766Y-99730481D01*
X127401730Y-99712068D01*
X127392551Y-99692662D01*
X127385319Y-99672450D01*
X127380103Y-99651626D01*
X127376953Y-99630391D01*
X127375900Y-99608950D01*
X127375900Y-99171450D01*
X127376953Y-99150009D01*
X127380103Y-99128774D01*
X127385319Y-99107950D01*
X127392551Y-99087738D01*
X127401730Y-99068332D01*
X127412766Y-99049919D01*
X127425554Y-99032676D01*
X127439970Y-99016770D01*
X127455876Y-99002354D01*
X127473119Y-98989566D01*
X127491532Y-98978530D01*
X127510938Y-98969351D01*
X127531150Y-98962119D01*
X127551974Y-98956903D01*
X127573209Y-98953753D01*
X127594650Y-98952700D01*
X128107150Y-98952700D01*
X128128591Y-98953753D01*
X128128591Y-98953753D01*
G37*
D11*
X127850900Y-99390200D03*
D10*
G36*
X128128591Y-97378753D02*
G01*
X128149826Y-97381903D01*
X128170650Y-97387119D01*
X128190862Y-97394351D01*
X128210268Y-97403530D01*
X128228681Y-97414566D01*
X128245924Y-97427354D01*
X128261830Y-97441770D01*
X128276246Y-97457676D01*
X128289034Y-97474919D01*
X128300070Y-97493332D01*
X128309249Y-97512738D01*
X128316481Y-97532950D01*
X128321697Y-97553774D01*
X128324847Y-97575009D01*
X128325900Y-97596450D01*
X128325900Y-98033950D01*
X128324847Y-98055391D01*
X128321697Y-98076626D01*
X128316481Y-98097450D01*
X128309249Y-98117662D01*
X128300070Y-98137068D01*
X128289034Y-98155481D01*
X128276246Y-98172724D01*
X128261830Y-98188630D01*
X128245924Y-98203046D01*
X128228681Y-98215834D01*
X128210268Y-98226870D01*
X128190862Y-98236049D01*
X128170650Y-98243281D01*
X128149826Y-98248497D01*
X128128591Y-98251647D01*
X128107150Y-98252700D01*
X127594650Y-98252700D01*
X127573209Y-98251647D01*
X127551974Y-98248497D01*
X127531150Y-98243281D01*
X127510938Y-98236049D01*
X127491532Y-98226870D01*
X127473119Y-98215834D01*
X127455876Y-98203046D01*
X127439970Y-98188630D01*
X127425554Y-98172724D01*
X127412766Y-98155481D01*
X127401730Y-98137068D01*
X127392551Y-98117662D01*
X127385319Y-98097450D01*
X127380103Y-98076626D01*
X127376953Y-98055391D01*
X127375900Y-98033950D01*
X127375900Y-97596450D01*
X127376953Y-97575009D01*
X127380103Y-97553774D01*
X127385319Y-97532950D01*
X127392551Y-97512738D01*
X127401730Y-97493332D01*
X127412766Y-97474919D01*
X127425554Y-97457676D01*
X127439970Y-97441770D01*
X127455876Y-97427354D01*
X127473119Y-97414566D01*
X127491532Y-97403530D01*
X127510938Y-97394351D01*
X127531150Y-97387119D01*
X127551974Y-97381903D01*
X127573209Y-97378753D01*
X127594650Y-97377700D01*
X128107150Y-97377700D01*
X128128591Y-97378753D01*
X128128591Y-97378753D01*
G37*
D11*
X127850900Y-97815200D03*
D10*
G36*
X150798091Y-99106253D02*
G01*
X150819326Y-99109403D01*
X150840150Y-99114619D01*
X150860362Y-99121851D01*
X150879768Y-99131030D01*
X150898181Y-99142066D01*
X150915424Y-99154854D01*
X150931330Y-99169270D01*
X150945746Y-99185176D01*
X150958534Y-99202419D01*
X150969570Y-99220832D01*
X150978749Y-99240238D01*
X150985981Y-99260450D01*
X150991197Y-99281274D01*
X150994347Y-99302509D01*
X150995400Y-99323950D01*
X150995400Y-99761450D01*
X150994347Y-99782891D01*
X150991197Y-99804126D01*
X150985981Y-99824950D01*
X150978749Y-99845162D01*
X150969570Y-99864568D01*
X150958534Y-99882981D01*
X150945746Y-99900224D01*
X150931330Y-99916130D01*
X150915424Y-99930546D01*
X150898181Y-99943334D01*
X150879768Y-99954370D01*
X150860362Y-99963549D01*
X150840150Y-99970781D01*
X150819326Y-99975997D01*
X150798091Y-99979147D01*
X150776650Y-99980200D01*
X150264150Y-99980200D01*
X150242709Y-99979147D01*
X150221474Y-99975997D01*
X150200650Y-99970781D01*
X150180438Y-99963549D01*
X150161032Y-99954370D01*
X150142619Y-99943334D01*
X150125376Y-99930546D01*
X150109470Y-99916130D01*
X150095054Y-99900224D01*
X150082266Y-99882981D01*
X150071230Y-99864568D01*
X150062051Y-99845162D01*
X150054819Y-99824950D01*
X150049603Y-99804126D01*
X150046453Y-99782891D01*
X150045400Y-99761450D01*
X150045400Y-99323950D01*
X150046453Y-99302509D01*
X150049603Y-99281274D01*
X150054819Y-99260450D01*
X150062051Y-99240238D01*
X150071230Y-99220832D01*
X150082266Y-99202419D01*
X150095054Y-99185176D01*
X150109470Y-99169270D01*
X150125376Y-99154854D01*
X150142619Y-99142066D01*
X150161032Y-99131030D01*
X150180438Y-99121851D01*
X150200650Y-99114619D01*
X150221474Y-99109403D01*
X150242709Y-99106253D01*
X150264150Y-99105200D01*
X150776650Y-99105200D01*
X150798091Y-99106253D01*
X150798091Y-99106253D01*
G37*
D11*
X150520400Y-99542700D03*
D10*
G36*
X150798091Y-97531253D02*
G01*
X150819326Y-97534403D01*
X150840150Y-97539619D01*
X150860362Y-97546851D01*
X150879768Y-97556030D01*
X150898181Y-97567066D01*
X150915424Y-97579854D01*
X150931330Y-97594270D01*
X150945746Y-97610176D01*
X150958534Y-97627419D01*
X150969570Y-97645832D01*
X150978749Y-97665238D01*
X150985981Y-97685450D01*
X150991197Y-97706274D01*
X150994347Y-97727509D01*
X150995400Y-97748950D01*
X150995400Y-98186450D01*
X150994347Y-98207891D01*
X150991197Y-98229126D01*
X150985981Y-98249950D01*
X150978749Y-98270162D01*
X150969570Y-98289568D01*
X150958534Y-98307981D01*
X150945746Y-98325224D01*
X150931330Y-98341130D01*
X150915424Y-98355546D01*
X150898181Y-98368334D01*
X150879768Y-98379370D01*
X150860362Y-98388549D01*
X150840150Y-98395781D01*
X150819326Y-98400997D01*
X150798091Y-98404147D01*
X150776650Y-98405200D01*
X150264150Y-98405200D01*
X150242709Y-98404147D01*
X150221474Y-98400997D01*
X150200650Y-98395781D01*
X150180438Y-98388549D01*
X150161032Y-98379370D01*
X150142619Y-98368334D01*
X150125376Y-98355546D01*
X150109470Y-98341130D01*
X150095054Y-98325224D01*
X150082266Y-98307981D01*
X150071230Y-98289568D01*
X150062051Y-98270162D01*
X150054819Y-98249950D01*
X150049603Y-98229126D01*
X150046453Y-98207891D01*
X150045400Y-98186450D01*
X150045400Y-97748950D01*
X150046453Y-97727509D01*
X150049603Y-97706274D01*
X150054819Y-97685450D01*
X150062051Y-97665238D01*
X150071230Y-97645832D01*
X150082266Y-97627419D01*
X150095054Y-97610176D01*
X150109470Y-97594270D01*
X150125376Y-97579854D01*
X150142619Y-97567066D01*
X150161032Y-97556030D01*
X150180438Y-97546851D01*
X150200650Y-97539619D01*
X150221474Y-97534403D01*
X150242709Y-97531253D01*
X150264150Y-97530200D01*
X150776650Y-97530200D01*
X150798091Y-97531253D01*
X150798091Y-97531253D01*
G37*
D11*
X150520400Y-97967700D03*
D10*
G36*
X117537142Y-103072874D02*
G01*
X117560803Y-103076384D01*
X117584007Y-103082196D01*
X117606529Y-103090254D01*
X117628153Y-103100482D01*
X117648670Y-103112779D01*
X117667883Y-103127029D01*
X117685607Y-103143093D01*
X117701671Y-103160817D01*
X117715921Y-103180030D01*
X117728218Y-103200547D01*
X117738446Y-103222171D01*
X117746504Y-103244693D01*
X117752316Y-103267897D01*
X117755826Y-103291558D01*
X117757000Y-103315450D01*
X117757000Y-104227950D01*
X117755826Y-104251842D01*
X117752316Y-104275503D01*
X117746504Y-104298707D01*
X117738446Y-104321229D01*
X117728218Y-104342853D01*
X117715921Y-104363370D01*
X117701671Y-104382583D01*
X117685607Y-104400307D01*
X117667883Y-104416371D01*
X117648670Y-104430621D01*
X117628153Y-104442918D01*
X117606529Y-104453146D01*
X117584007Y-104461204D01*
X117560803Y-104467016D01*
X117537142Y-104470526D01*
X117513250Y-104471700D01*
X117025750Y-104471700D01*
X117001858Y-104470526D01*
X116978197Y-104467016D01*
X116954993Y-104461204D01*
X116932471Y-104453146D01*
X116910847Y-104442918D01*
X116890330Y-104430621D01*
X116871117Y-104416371D01*
X116853393Y-104400307D01*
X116837329Y-104382583D01*
X116823079Y-104363370D01*
X116810782Y-104342853D01*
X116800554Y-104321229D01*
X116792496Y-104298707D01*
X116786684Y-104275503D01*
X116783174Y-104251842D01*
X116782000Y-104227950D01*
X116782000Y-103315450D01*
X116783174Y-103291558D01*
X116786684Y-103267897D01*
X116792496Y-103244693D01*
X116800554Y-103222171D01*
X116810782Y-103200547D01*
X116823079Y-103180030D01*
X116837329Y-103160817D01*
X116853393Y-103143093D01*
X116871117Y-103127029D01*
X116890330Y-103112779D01*
X116910847Y-103100482D01*
X116932471Y-103090254D01*
X116954993Y-103082196D01*
X116978197Y-103076384D01*
X117001858Y-103072874D01*
X117025750Y-103071700D01*
X117513250Y-103071700D01*
X117537142Y-103072874D01*
X117537142Y-103072874D01*
G37*
D17*
X117269500Y-103771700D03*
D10*
G36*
X115662142Y-103072874D02*
G01*
X115685803Y-103076384D01*
X115709007Y-103082196D01*
X115731529Y-103090254D01*
X115753153Y-103100482D01*
X115773670Y-103112779D01*
X115792883Y-103127029D01*
X115810607Y-103143093D01*
X115826671Y-103160817D01*
X115840921Y-103180030D01*
X115853218Y-103200547D01*
X115863446Y-103222171D01*
X115871504Y-103244693D01*
X115877316Y-103267897D01*
X115880826Y-103291558D01*
X115882000Y-103315450D01*
X115882000Y-104227950D01*
X115880826Y-104251842D01*
X115877316Y-104275503D01*
X115871504Y-104298707D01*
X115863446Y-104321229D01*
X115853218Y-104342853D01*
X115840921Y-104363370D01*
X115826671Y-104382583D01*
X115810607Y-104400307D01*
X115792883Y-104416371D01*
X115773670Y-104430621D01*
X115753153Y-104442918D01*
X115731529Y-104453146D01*
X115709007Y-104461204D01*
X115685803Y-104467016D01*
X115662142Y-104470526D01*
X115638250Y-104471700D01*
X115150750Y-104471700D01*
X115126858Y-104470526D01*
X115103197Y-104467016D01*
X115079993Y-104461204D01*
X115057471Y-104453146D01*
X115035847Y-104442918D01*
X115015330Y-104430621D01*
X114996117Y-104416371D01*
X114978393Y-104400307D01*
X114962329Y-104382583D01*
X114948079Y-104363370D01*
X114935782Y-104342853D01*
X114925554Y-104321229D01*
X114917496Y-104298707D01*
X114911684Y-104275503D01*
X114908174Y-104251842D01*
X114907000Y-104227950D01*
X114907000Y-103315450D01*
X114908174Y-103291558D01*
X114911684Y-103267897D01*
X114917496Y-103244693D01*
X114925554Y-103222171D01*
X114935782Y-103200547D01*
X114948079Y-103180030D01*
X114962329Y-103160817D01*
X114978393Y-103143093D01*
X114996117Y-103127029D01*
X115015330Y-103112779D01*
X115035847Y-103100482D01*
X115057471Y-103090254D01*
X115079993Y-103082196D01*
X115103197Y-103076384D01*
X115126858Y-103072874D01*
X115150750Y-103071700D01*
X115638250Y-103071700D01*
X115662142Y-103072874D01*
X115662142Y-103072874D01*
G37*
D17*
X115394500Y-103771700D03*
D10*
G36*
X137449642Y-102851274D02*
G01*
X137473303Y-102854784D01*
X137496507Y-102860596D01*
X137519029Y-102868654D01*
X137540653Y-102878882D01*
X137561170Y-102891179D01*
X137580383Y-102905429D01*
X137598107Y-102921493D01*
X137614171Y-102939217D01*
X137628421Y-102958430D01*
X137640718Y-102978947D01*
X137650946Y-103000571D01*
X137659004Y-103023093D01*
X137664816Y-103046297D01*
X137668326Y-103069958D01*
X137669500Y-103093850D01*
X137669500Y-103581350D01*
X137668326Y-103605242D01*
X137664816Y-103628903D01*
X137659004Y-103652107D01*
X137650946Y-103674629D01*
X137640718Y-103696253D01*
X137628421Y-103716770D01*
X137614171Y-103735983D01*
X137598107Y-103753707D01*
X137580383Y-103769771D01*
X137561170Y-103784021D01*
X137540653Y-103796318D01*
X137519029Y-103806546D01*
X137496507Y-103814604D01*
X137473303Y-103820416D01*
X137449642Y-103823926D01*
X137425750Y-103825100D01*
X136513250Y-103825100D01*
X136489358Y-103823926D01*
X136465697Y-103820416D01*
X136442493Y-103814604D01*
X136419971Y-103806546D01*
X136398347Y-103796318D01*
X136377830Y-103784021D01*
X136358617Y-103769771D01*
X136340893Y-103753707D01*
X136324829Y-103735983D01*
X136310579Y-103716770D01*
X136298282Y-103696253D01*
X136288054Y-103674629D01*
X136279996Y-103652107D01*
X136274184Y-103628903D01*
X136270674Y-103605242D01*
X136269500Y-103581350D01*
X136269500Y-103093850D01*
X136270674Y-103069958D01*
X136274184Y-103046297D01*
X136279996Y-103023093D01*
X136288054Y-103000571D01*
X136298282Y-102978947D01*
X136310579Y-102958430D01*
X136324829Y-102939217D01*
X136340893Y-102921493D01*
X136358617Y-102905429D01*
X136377830Y-102891179D01*
X136398347Y-102878882D01*
X136419971Y-102868654D01*
X136442493Y-102860596D01*
X136465697Y-102854784D01*
X136489358Y-102851274D01*
X136513250Y-102850100D01*
X137425750Y-102850100D01*
X137449642Y-102851274D01*
X137449642Y-102851274D01*
G37*
D17*
X136969500Y-103337600D03*
D10*
G36*
X137449642Y-100976274D02*
G01*
X137473303Y-100979784D01*
X137496507Y-100985596D01*
X137519029Y-100993654D01*
X137540653Y-101003882D01*
X137561170Y-101016179D01*
X137580383Y-101030429D01*
X137598107Y-101046493D01*
X137614171Y-101064217D01*
X137628421Y-101083430D01*
X137640718Y-101103947D01*
X137650946Y-101125571D01*
X137659004Y-101148093D01*
X137664816Y-101171297D01*
X137668326Y-101194958D01*
X137669500Y-101218850D01*
X137669500Y-101706350D01*
X137668326Y-101730242D01*
X137664816Y-101753903D01*
X137659004Y-101777107D01*
X137650946Y-101799629D01*
X137640718Y-101821253D01*
X137628421Y-101841770D01*
X137614171Y-101860983D01*
X137598107Y-101878707D01*
X137580383Y-101894771D01*
X137561170Y-101909021D01*
X137540653Y-101921318D01*
X137519029Y-101931546D01*
X137496507Y-101939604D01*
X137473303Y-101945416D01*
X137449642Y-101948926D01*
X137425750Y-101950100D01*
X136513250Y-101950100D01*
X136489358Y-101948926D01*
X136465697Y-101945416D01*
X136442493Y-101939604D01*
X136419971Y-101931546D01*
X136398347Y-101921318D01*
X136377830Y-101909021D01*
X136358617Y-101894771D01*
X136340893Y-101878707D01*
X136324829Y-101860983D01*
X136310579Y-101841770D01*
X136298282Y-101821253D01*
X136288054Y-101799629D01*
X136279996Y-101777107D01*
X136274184Y-101753903D01*
X136270674Y-101730242D01*
X136269500Y-101706350D01*
X136269500Y-101218850D01*
X136270674Y-101194958D01*
X136274184Y-101171297D01*
X136279996Y-101148093D01*
X136288054Y-101125571D01*
X136298282Y-101103947D01*
X136310579Y-101083430D01*
X136324829Y-101064217D01*
X136340893Y-101046493D01*
X136358617Y-101030429D01*
X136377830Y-101016179D01*
X136398347Y-101003882D01*
X136419971Y-100993654D01*
X136442493Y-100985596D01*
X136465697Y-100979784D01*
X136489358Y-100976274D01*
X136513250Y-100975100D01*
X137425750Y-100975100D01*
X137449642Y-100976274D01*
X137449642Y-100976274D01*
G37*
D17*
X136969500Y-101462600D03*
D10*
G36*
X161046242Y-102633074D02*
G01*
X161069903Y-102636584D01*
X161093107Y-102642396D01*
X161115629Y-102650454D01*
X161137253Y-102660682D01*
X161157770Y-102672979D01*
X161176983Y-102687229D01*
X161194707Y-102703293D01*
X161210771Y-102721017D01*
X161225021Y-102740230D01*
X161237318Y-102760747D01*
X161247546Y-102782371D01*
X161255604Y-102804893D01*
X161261416Y-102828097D01*
X161264926Y-102851758D01*
X161266100Y-102875650D01*
X161266100Y-103363150D01*
X161264926Y-103387042D01*
X161261416Y-103410703D01*
X161255604Y-103433907D01*
X161247546Y-103456429D01*
X161237318Y-103478053D01*
X161225021Y-103498570D01*
X161210771Y-103517783D01*
X161194707Y-103535507D01*
X161176983Y-103551571D01*
X161157770Y-103565821D01*
X161137253Y-103578118D01*
X161115629Y-103588346D01*
X161093107Y-103596404D01*
X161069903Y-103602216D01*
X161046242Y-103605726D01*
X161022350Y-103606900D01*
X160109850Y-103606900D01*
X160085958Y-103605726D01*
X160062297Y-103602216D01*
X160039093Y-103596404D01*
X160016571Y-103588346D01*
X159994947Y-103578118D01*
X159974430Y-103565821D01*
X159955217Y-103551571D01*
X159937493Y-103535507D01*
X159921429Y-103517783D01*
X159907179Y-103498570D01*
X159894882Y-103478053D01*
X159884654Y-103456429D01*
X159876596Y-103433907D01*
X159870784Y-103410703D01*
X159867274Y-103387042D01*
X159866100Y-103363150D01*
X159866100Y-102875650D01*
X159867274Y-102851758D01*
X159870784Y-102828097D01*
X159876596Y-102804893D01*
X159884654Y-102782371D01*
X159894882Y-102760747D01*
X159907179Y-102740230D01*
X159921429Y-102721017D01*
X159937493Y-102703293D01*
X159955217Y-102687229D01*
X159974430Y-102672979D01*
X159994947Y-102660682D01*
X160016571Y-102650454D01*
X160039093Y-102642396D01*
X160062297Y-102636584D01*
X160085958Y-102633074D01*
X160109850Y-102631900D01*
X161022350Y-102631900D01*
X161046242Y-102633074D01*
X161046242Y-102633074D01*
G37*
D17*
X160566100Y-103119400D03*
D10*
G36*
X161046242Y-100758074D02*
G01*
X161069903Y-100761584D01*
X161093107Y-100767396D01*
X161115629Y-100775454D01*
X161137253Y-100785682D01*
X161157770Y-100797979D01*
X161176983Y-100812229D01*
X161194707Y-100828293D01*
X161210771Y-100846017D01*
X161225021Y-100865230D01*
X161237318Y-100885747D01*
X161247546Y-100907371D01*
X161255604Y-100929893D01*
X161261416Y-100953097D01*
X161264926Y-100976758D01*
X161266100Y-101000650D01*
X161266100Y-101488150D01*
X161264926Y-101512042D01*
X161261416Y-101535703D01*
X161255604Y-101558907D01*
X161247546Y-101581429D01*
X161237318Y-101603053D01*
X161225021Y-101623570D01*
X161210771Y-101642783D01*
X161194707Y-101660507D01*
X161176983Y-101676571D01*
X161157770Y-101690821D01*
X161137253Y-101703118D01*
X161115629Y-101713346D01*
X161093107Y-101721404D01*
X161069903Y-101727216D01*
X161046242Y-101730726D01*
X161022350Y-101731900D01*
X160109850Y-101731900D01*
X160085958Y-101730726D01*
X160062297Y-101727216D01*
X160039093Y-101721404D01*
X160016571Y-101713346D01*
X159994947Y-101703118D01*
X159974430Y-101690821D01*
X159955217Y-101676571D01*
X159937493Y-101660507D01*
X159921429Y-101642783D01*
X159907179Y-101623570D01*
X159894882Y-101603053D01*
X159884654Y-101581429D01*
X159876596Y-101558907D01*
X159870784Y-101535703D01*
X159867274Y-101512042D01*
X159866100Y-101488150D01*
X159866100Y-101000650D01*
X159867274Y-100976758D01*
X159870784Y-100953097D01*
X159876596Y-100929893D01*
X159884654Y-100907371D01*
X159894882Y-100885747D01*
X159907179Y-100865230D01*
X159921429Y-100846017D01*
X159937493Y-100828293D01*
X159955217Y-100812229D01*
X159974430Y-100797979D01*
X159994947Y-100785682D01*
X160016571Y-100775454D01*
X160039093Y-100767396D01*
X160062297Y-100761584D01*
X160085958Y-100758074D01*
X160109850Y-100756900D01*
X161022350Y-100756900D01*
X161046242Y-100758074D01*
X161046242Y-100758074D01*
G37*
D17*
X160566100Y-101244400D03*
D10*
G36*
X113371791Y-97989153D02*
G01*
X113393026Y-97992303D01*
X113413850Y-97997519D01*
X113434062Y-98004751D01*
X113453468Y-98013930D01*
X113471881Y-98024966D01*
X113489124Y-98037754D01*
X113505030Y-98052170D01*
X113519446Y-98068076D01*
X113532234Y-98085319D01*
X113543270Y-98103732D01*
X113552449Y-98123138D01*
X113559681Y-98143350D01*
X113564897Y-98164174D01*
X113568047Y-98185409D01*
X113569100Y-98206850D01*
X113569100Y-98719350D01*
X113568047Y-98740791D01*
X113564897Y-98762026D01*
X113559681Y-98782850D01*
X113552449Y-98803062D01*
X113543270Y-98822468D01*
X113532234Y-98840881D01*
X113519446Y-98858124D01*
X113505030Y-98874030D01*
X113489124Y-98888446D01*
X113471881Y-98901234D01*
X113453468Y-98912270D01*
X113434062Y-98921449D01*
X113413850Y-98928681D01*
X113393026Y-98933897D01*
X113371791Y-98937047D01*
X113350350Y-98938100D01*
X112912850Y-98938100D01*
X112891409Y-98937047D01*
X112870174Y-98933897D01*
X112849350Y-98928681D01*
X112829138Y-98921449D01*
X112809732Y-98912270D01*
X112791319Y-98901234D01*
X112774076Y-98888446D01*
X112758170Y-98874030D01*
X112743754Y-98858124D01*
X112730966Y-98840881D01*
X112719930Y-98822468D01*
X112710751Y-98803062D01*
X112703519Y-98782850D01*
X112698303Y-98762026D01*
X112695153Y-98740791D01*
X112694100Y-98719350D01*
X112694100Y-98206850D01*
X112695153Y-98185409D01*
X112698303Y-98164174D01*
X112703519Y-98143350D01*
X112710751Y-98123138D01*
X112719930Y-98103732D01*
X112730966Y-98085319D01*
X112743754Y-98068076D01*
X112758170Y-98052170D01*
X112774076Y-98037754D01*
X112791319Y-98024966D01*
X112809732Y-98013930D01*
X112829138Y-98004751D01*
X112849350Y-97997519D01*
X112870174Y-97992303D01*
X112891409Y-97989153D01*
X112912850Y-97988100D01*
X113350350Y-97988100D01*
X113371791Y-97989153D01*
X113371791Y-97989153D01*
G37*
D11*
X113131600Y-98463100D03*
D10*
G36*
X111796791Y-97989153D02*
G01*
X111818026Y-97992303D01*
X111838850Y-97997519D01*
X111859062Y-98004751D01*
X111878468Y-98013930D01*
X111896881Y-98024966D01*
X111914124Y-98037754D01*
X111930030Y-98052170D01*
X111944446Y-98068076D01*
X111957234Y-98085319D01*
X111968270Y-98103732D01*
X111977449Y-98123138D01*
X111984681Y-98143350D01*
X111989897Y-98164174D01*
X111993047Y-98185409D01*
X111994100Y-98206850D01*
X111994100Y-98719350D01*
X111993047Y-98740791D01*
X111989897Y-98762026D01*
X111984681Y-98782850D01*
X111977449Y-98803062D01*
X111968270Y-98822468D01*
X111957234Y-98840881D01*
X111944446Y-98858124D01*
X111930030Y-98874030D01*
X111914124Y-98888446D01*
X111896881Y-98901234D01*
X111878468Y-98912270D01*
X111859062Y-98921449D01*
X111838850Y-98928681D01*
X111818026Y-98933897D01*
X111796791Y-98937047D01*
X111775350Y-98938100D01*
X111337850Y-98938100D01*
X111316409Y-98937047D01*
X111295174Y-98933897D01*
X111274350Y-98928681D01*
X111254138Y-98921449D01*
X111234732Y-98912270D01*
X111216319Y-98901234D01*
X111199076Y-98888446D01*
X111183170Y-98874030D01*
X111168754Y-98858124D01*
X111155966Y-98840881D01*
X111144930Y-98822468D01*
X111135751Y-98803062D01*
X111128519Y-98782850D01*
X111123303Y-98762026D01*
X111120153Y-98740791D01*
X111119100Y-98719350D01*
X111119100Y-98206850D01*
X111120153Y-98185409D01*
X111123303Y-98164174D01*
X111128519Y-98143350D01*
X111135751Y-98123138D01*
X111144930Y-98103732D01*
X111155966Y-98085319D01*
X111168754Y-98068076D01*
X111183170Y-98052170D01*
X111199076Y-98037754D01*
X111216319Y-98024966D01*
X111234732Y-98013930D01*
X111254138Y-98004751D01*
X111274350Y-97997519D01*
X111295174Y-97992303D01*
X111316409Y-97989153D01*
X111337850Y-97988100D01*
X111775350Y-97988100D01*
X111796791Y-97989153D01*
X111796791Y-97989153D01*
G37*
D11*
X111556600Y-98463100D03*
D10*
G36*
X135241291Y-98471753D02*
G01*
X135262526Y-98474903D01*
X135283350Y-98480119D01*
X135303562Y-98487351D01*
X135322968Y-98496530D01*
X135341381Y-98507566D01*
X135358624Y-98520354D01*
X135374530Y-98534770D01*
X135388946Y-98550676D01*
X135401734Y-98567919D01*
X135412770Y-98586332D01*
X135421949Y-98605738D01*
X135429181Y-98625950D01*
X135434397Y-98646774D01*
X135437547Y-98668009D01*
X135438600Y-98689450D01*
X135438600Y-99201950D01*
X135437547Y-99223391D01*
X135434397Y-99244626D01*
X135429181Y-99265450D01*
X135421949Y-99285662D01*
X135412770Y-99305068D01*
X135401734Y-99323481D01*
X135388946Y-99340724D01*
X135374530Y-99356630D01*
X135358624Y-99371046D01*
X135341381Y-99383834D01*
X135322968Y-99394870D01*
X135303562Y-99404049D01*
X135283350Y-99411281D01*
X135262526Y-99416497D01*
X135241291Y-99419647D01*
X135219850Y-99420700D01*
X134782350Y-99420700D01*
X134760909Y-99419647D01*
X134739674Y-99416497D01*
X134718850Y-99411281D01*
X134698638Y-99404049D01*
X134679232Y-99394870D01*
X134660819Y-99383834D01*
X134643576Y-99371046D01*
X134627670Y-99356630D01*
X134613254Y-99340724D01*
X134600466Y-99323481D01*
X134589430Y-99305068D01*
X134580251Y-99285662D01*
X134573019Y-99265450D01*
X134567803Y-99244626D01*
X134564653Y-99223391D01*
X134563600Y-99201950D01*
X134563600Y-98689450D01*
X134564653Y-98668009D01*
X134567803Y-98646774D01*
X134573019Y-98625950D01*
X134580251Y-98605738D01*
X134589430Y-98586332D01*
X134600466Y-98567919D01*
X134613254Y-98550676D01*
X134627670Y-98534770D01*
X134643576Y-98520354D01*
X134660819Y-98507566D01*
X134679232Y-98496530D01*
X134698638Y-98487351D01*
X134718850Y-98480119D01*
X134739674Y-98474903D01*
X134760909Y-98471753D01*
X134782350Y-98470700D01*
X135219850Y-98470700D01*
X135241291Y-98471753D01*
X135241291Y-98471753D01*
G37*
D11*
X135001100Y-98945700D03*
D10*
G36*
X133666291Y-98471753D02*
G01*
X133687526Y-98474903D01*
X133708350Y-98480119D01*
X133728562Y-98487351D01*
X133747968Y-98496530D01*
X133766381Y-98507566D01*
X133783624Y-98520354D01*
X133799530Y-98534770D01*
X133813946Y-98550676D01*
X133826734Y-98567919D01*
X133837770Y-98586332D01*
X133846949Y-98605738D01*
X133854181Y-98625950D01*
X133859397Y-98646774D01*
X133862547Y-98668009D01*
X133863600Y-98689450D01*
X133863600Y-99201950D01*
X133862547Y-99223391D01*
X133859397Y-99244626D01*
X133854181Y-99265450D01*
X133846949Y-99285662D01*
X133837770Y-99305068D01*
X133826734Y-99323481D01*
X133813946Y-99340724D01*
X133799530Y-99356630D01*
X133783624Y-99371046D01*
X133766381Y-99383834D01*
X133747968Y-99394870D01*
X133728562Y-99404049D01*
X133708350Y-99411281D01*
X133687526Y-99416497D01*
X133666291Y-99419647D01*
X133644850Y-99420700D01*
X133207350Y-99420700D01*
X133185909Y-99419647D01*
X133164674Y-99416497D01*
X133143850Y-99411281D01*
X133123638Y-99404049D01*
X133104232Y-99394870D01*
X133085819Y-99383834D01*
X133068576Y-99371046D01*
X133052670Y-99356630D01*
X133038254Y-99340724D01*
X133025466Y-99323481D01*
X133014430Y-99305068D01*
X133005251Y-99285662D01*
X132998019Y-99265450D01*
X132992803Y-99244626D01*
X132989653Y-99223391D01*
X132988600Y-99201950D01*
X132988600Y-98689450D01*
X132989653Y-98668009D01*
X132992803Y-98646774D01*
X132998019Y-98625950D01*
X133005251Y-98605738D01*
X133014430Y-98586332D01*
X133025466Y-98567919D01*
X133038254Y-98550676D01*
X133052670Y-98534770D01*
X133068576Y-98520354D01*
X133085819Y-98507566D01*
X133104232Y-98496530D01*
X133123638Y-98487351D01*
X133143850Y-98480119D01*
X133164674Y-98474903D01*
X133185909Y-98471753D01*
X133207350Y-98470700D01*
X133644850Y-98470700D01*
X133666291Y-98471753D01*
X133666291Y-98471753D01*
G37*
D11*
X133426100Y-98945700D03*
D10*
G36*
X158228291Y-99284553D02*
G01*
X158249526Y-99287703D01*
X158270350Y-99292919D01*
X158290562Y-99300151D01*
X158309968Y-99309330D01*
X158328381Y-99320366D01*
X158345624Y-99333154D01*
X158361530Y-99347570D01*
X158375946Y-99363476D01*
X158388734Y-99380719D01*
X158399770Y-99399132D01*
X158408949Y-99418538D01*
X158416181Y-99438750D01*
X158421397Y-99459574D01*
X158424547Y-99480809D01*
X158425600Y-99502250D01*
X158425600Y-100014750D01*
X158424547Y-100036191D01*
X158421397Y-100057426D01*
X158416181Y-100078250D01*
X158408949Y-100098462D01*
X158399770Y-100117868D01*
X158388734Y-100136281D01*
X158375946Y-100153524D01*
X158361530Y-100169430D01*
X158345624Y-100183846D01*
X158328381Y-100196634D01*
X158309968Y-100207670D01*
X158290562Y-100216849D01*
X158270350Y-100224081D01*
X158249526Y-100229297D01*
X158228291Y-100232447D01*
X158206850Y-100233500D01*
X157769350Y-100233500D01*
X157747909Y-100232447D01*
X157726674Y-100229297D01*
X157705850Y-100224081D01*
X157685638Y-100216849D01*
X157666232Y-100207670D01*
X157647819Y-100196634D01*
X157630576Y-100183846D01*
X157614670Y-100169430D01*
X157600254Y-100153524D01*
X157587466Y-100136281D01*
X157576430Y-100117868D01*
X157567251Y-100098462D01*
X157560019Y-100078250D01*
X157554803Y-100057426D01*
X157551653Y-100036191D01*
X157550600Y-100014750D01*
X157550600Y-99502250D01*
X157551653Y-99480809D01*
X157554803Y-99459574D01*
X157560019Y-99438750D01*
X157567251Y-99418538D01*
X157576430Y-99399132D01*
X157587466Y-99380719D01*
X157600254Y-99363476D01*
X157614670Y-99347570D01*
X157630576Y-99333154D01*
X157647819Y-99320366D01*
X157666232Y-99309330D01*
X157685638Y-99300151D01*
X157705850Y-99292919D01*
X157726674Y-99287703D01*
X157747909Y-99284553D01*
X157769350Y-99283500D01*
X158206850Y-99283500D01*
X158228291Y-99284553D01*
X158228291Y-99284553D01*
G37*
D11*
X157988100Y-99758500D03*
D10*
G36*
X156653291Y-99284553D02*
G01*
X156674526Y-99287703D01*
X156695350Y-99292919D01*
X156715562Y-99300151D01*
X156734968Y-99309330D01*
X156753381Y-99320366D01*
X156770624Y-99333154D01*
X156786530Y-99347570D01*
X156800946Y-99363476D01*
X156813734Y-99380719D01*
X156824770Y-99399132D01*
X156833949Y-99418538D01*
X156841181Y-99438750D01*
X156846397Y-99459574D01*
X156849547Y-99480809D01*
X156850600Y-99502250D01*
X156850600Y-100014750D01*
X156849547Y-100036191D01*
X156846397Y-100057426D01*
X156841181Y-100078250D01*
X156833949Y-100098462D01*
X156824770Y-100117868D01*
X156813734Y-100136281D01*
X156800946Y-100153524D01*
X156786530Y-100169430D01*
X156770624Y-100183846D01*
X156753381Y-100196634D01*
X156734968Y-100207670D01*
X156715562Y-100216849D01*
X156695350Y-100224081D01*
X156674526Y-100229297D01*
X156653291Y-100232447D01*
X156631850Y-100233500D01*
X156194350Y-100233500D01*
X156172909Y-100232447D01*
X156151674Y-100229297D01*
X156130850Y-100224081D01*
X156110638Y-100216849D01*
X156091232Y-100207670D01*
X156072819Y-100196634D01*
X156055576Y-100183846D01*
X156039670Y-100169430D01*
X156025254Y-100153524D01*
X156012466Y-100136281D01*
X156001430Y-100117868D01*
X155992251Y-100098462D01*
X155985019Y-100078250D01*
X155979803Y-100057426D01*
X155976653Y-100036191D01*
X155975600Y-100014750D01*
X155975600Y-99502250D01*
X155976653Y-99480809D01*
X155979803Y-99459574D01*
X155985019Y-99438750D01*
X155992251Y-99418538D01*
X156001430Y-99399132D01*
X156012466Y-99380719D01*
X156025254Y-99363476D01*
X156039670Y-99347570D01*
X156055576Y-99333154D01*
X156072819Y-99320366D01*
X156091232Y-99309330D01*
X156110638Y-99300151D01*
X156130850Y-99292919D01*
X156151674Y-99287703D01*
X156172909Y-99284553D01*
X156194350Y-99283500D01*
X156631850Y-99283500D01*
X156653291Y-99284553D01*
X156653291Y-99284553D01*
G37*
D11*
X156413100Y-99758500D03*
D16*
X112169700Y-108623100D03*
X114169700Y-107673100D03*
X114169700Y-109573100D03*
X130032000Y-108419900D03*
X128032000Y-109369900D03*
X128032000Y-107469900D03*
X153374600Y-108496100D03*
X151374600Y-109446100D03*
X151374600Y-107546100D03*
X115649500Y-108623100D03*
X117649500Y-107673100D03*
X117649500Y-109573100D03*
X126399800Y-108369100D03*
X124399800Y-109319100D03*
X124399800Y-107419100D03*
X149840700Y-108468200D03*
X147840700Y-109418200D03*
X147840700Y-107518200D03*
D15*
X109489200Y-107664500D03*
X110439200Y-109664500D03*
X108539200Y-109664500D03*
D16*
X126361700Y-101092000D03*
X124361700Y-102042000D03*
X124361700Y-100142000D03*
X149043900Y-101142800D03*
X147043900Y-102092800D03*
X147043900Y-100192800D03*
D15*
X105765600Y-109661200D03*
X104815600Y-107661200D03*
X106715600Y-107661200D03*
D16*
X126336300Y-104660700D03*
X124336300Y-105610700D03*
X124336300Y-103710700D03*
X149043900Y-104736900D03*
X147043900Y-105686900D03*
X147043900Y-103786900D03*
X110950500Y-101079300D03*
X112950500Y-100129300D03*
X112950500Y-102029300D03*
X133226300Y-101523800D03*
X135226300Y-100573800D03*
X135226300Y-102473800D03*
X156286200Y-102311200D03*
X158286200Y-101361200D03*
X158286200Y-103261200D03*
D15*
X115504000Y-100057200D03*
X116454000Y-102057200D03*
X114554000Y-102057200D03*
D16*
X137557000Y-97993200D03*
X139557000Y-97043200D03*
X139557000Y-98943200D03*
X160471100Y-98676500D03*
X162471100Y-97726500D03*
X162471100Y-99626500D03*
D18*
X113671100Y-96481900D03*
X112671100Y-96481900D03*
D19*
X111671100Y-96481900D03*
D18*
X135756400Y-96926400D03*
X134756400Y-96926400D03*
D19*
X133756400Y-96926400D03*
D18*
X158667200Y-97790000D03*
X157667200Y-97790000D03*
D19*
X156667200Y-97790000D03*
D20*
X183603900Y-99890300D03*
X183603900Y-103850300D03*
D10*
G36*
X184728403Y-106461504D02*
G01*
X184752672Y-106465104D01*
X184776470Y-106471065D01*
X184799570Y-106479330D01*
X184821749Y-106489820D01*
X184842792Y-106502433D01*
X184862498Y-106517048D01*
X184880676Y-106533524D01*
X184897152Y-106551702D01*
X184911767Y-106571408D01*
X184924380Y-106592451D01*
X184934870Y-106614630D01*
X184943135Y-106637730D01*
X184949096Y-106661528D01*
X184952696Y-106685797D01*
X184953900Y-106710301D01*
X184953900Y-108910299D01*
X184952696Y-108934803D01*
X184949096Y-108959072D01*
X184943135Y-108982870D01*
X184934870Y-109005970D01*
X184924380Y-109028149D01*
X184911767Y-109049192D01*
X184897152Y-109068898D01*
X184880676Y-109087076D01*
X184862498Y-109103552D01*
X184842792Y-109118167D01*
X184821749Y-109130780D01*
X184799570Y-109141270D01*
X184776470Y-109149535D01*
X184752672Y-109155496D01*
X184728403Y-109159096D01*
X184703899Y-109160300D01*
X182503901Y-109160300D01*
X182479397Y-109159096D01*
X182455128Y-109155496D01*
X182431330Y-109149535D01*
X182408230Y-109141270D01*
X182386051Y-109130780D01*
X182365008Y-109118167D01*
X182345302Y-109103552D01*
X182327124Y-109087076D01*
X182310648Y-109068898D01*
X182296033Y-109049192D01*
X182283420Y-109028149D01*
X182272930Y-109005970D01*
X182264665Y-108982870D01*
X182258704Y-108959072D01*
X182255104Y-108934803D01*
X182253900Y-108910299D01*
X182253900Y-106710301D01*
X182255104Y-106685797D01*
X182258704Y-106661528D01*
X182264665Y-106637730D01*
X182272930Y-106614630D01*
X182283420Y-106592451D01*
X182296033Y-106571408D01*
X182310648Y-106551702D01*
X182327124Y-106533524D01*
X182345302Y-106517048D01*
X182365008Y-106502433D01*
X182386051Y-106489820D01*
X182408230Y-106479330D01*
X182431330Y-106471065D01*
X182455128Y-106465104D01*
X182479397Y-106461504D01*
X182503901Y-106460300D01*
X184703899Y-106460300D01*
X184728403Y-106461504D01*
X184728403Y-106461504D01*
G37*
D20*
X183603900Y-107810300D03*
X99187000Y-107945200D03*
X99187000Y-103985200D03*
D10*
G36*
X100311503Y-98676404D02*
G01*
X100335772Y-98680004D01*
X100359570Y-98685965D01*
X100382670Y-98694230D01*
X100404849Y-98704720D01*
X100425892Y-98717333D01*
X100445598Y-98731948D01*
X100463776Y-98748424D01*
X100480252Y-98766602D01*
X100494867Y-98786308D01*
X100507480Y-98807351D01*
X100517970Y-98829530D01*
X100526235Y-98852630D01*
X100532196Y-98876428D01*
X100535796Y-98900697D01*
X100537000Y-98925201D01*
X100537000Y-101125199D01*
X100535796Y-101149703D01*
X100532196Y-101173972D01*
X100526235Y-101197770D01*
X100517970Y-101220870D01*
X100507480Y-101243049D01*
X100494867Y-101264092D01*
X100480252Y-101283798D01*
X100463776Y-101301976D01*
X100445598Y-101318452D01*
X100425892Y-101333067D01*
X100404849Y-101345680D01*
X100382670Y-101356170D01*
X100359570Y-101364435D01*
X100335772Y-101370396D01*
X100311503Y-101373996D01*
X100286999Y-101375200D01*
X98087001Y-101375200D01*
X98062497Y-101373996D01*
X98038228Y-101370396D01*
X98014430Y-101364435D01*
X97991330Y-101356170D01*
X97969151Y-101345680D01*
X97948108Y-101333067D01*
X97928402Y-101318452D01*
X97910224Y-101301976D01*
X97893748Y-101283798D01*
X97879133Y-101264092D01*
X97866520Y-101243049D01*
X97856030Y-101220870D01*
X97847765Y-101197770D01*
X97841804Y-101173972D01*
X97838204Y-101149703D01*
X97837000Y-101125199D01*
X97837000Y-98925201D01*
X97838204Y-98900697D01*
X97841804Y-98876428D01*
X97847765Y-98852630D01*
X97856030Y-98829530D01*
X97866520Y-98807351D01*
X97879133Y-98786308D01*
X97893748Y-98766602D01*
X97910224Y-98748424D01*
X97928402Y-98731948D01*
X97948108Y-98717333D01*
X97969151Y-98704720D01*
X97991330Y-98694230D01*
X98014430Y-98685965D01*
X98038228Y-98680004D01*
X98062497Y-98676404D01*
X98087001Y-98675200D01*
X100286999Y-98675200D01*
X100311503Y-98676404D01*
X100311503Y-98676404D01*
G37*
D20*
X99187000Y-100025200D03*
M02*
