G04 #@! TF.GenerationSoftware,KiCad,Pcbnew,(5.1.2)-2*
G04 #@! TF.CreationDate,2020-01-05T19:11:53-05:00*
G04 #@! TF.ProjectId,AddressableLED,41646472-6573-4736-9162-6c654c45442e,rev?*
G04 #@! TF.SameCoordinates,Original*
G04 #@! TF.FileFunction,Legend,Top*
G04 #@! TF.FilePolarity,Positive*
%FSLAX46Y46*%
G04 Gerber Fmt 4.6, Leading zero omitted, Abs format (unit mm)*
G04 Created by KiCad (PCBNEW (5.1.2)-2) date 2020-01-05 19:11:53*
%MOMM*%
%LPD*%
G04 APERTURE LIST*
%ADD10C,0.150000*%
%ADD11C,0.300000*%
%ADD12C,0.250000*%
%ADD13C,0.120000*%
G04 APERTURE END LIST*
D10*
X110951990Y-95123000D02*
G75*
G03X110951990Y-95123000I-120000J0D01*
G01*
X179417690Y-94589600D02*
G75*
G03X179417690Y-94589600I-120000J0D01*
G01*
X156113190Y-95364300D02*
G75*
G03X156113190Y-95364300I-120000J0D01*
G01*
X132948390Y-95389700D02*
G75*
G03X132948390Y-95389700I-120000J0D01*
G01*
D11*
X98615571Y-96754142D02*
X99758428Y-96754142D01*
X98717171Y-111359142D02*
X99860028Y-111359142D01*
X99288600Y-111930571D02*
X99288600Y-110787714D01*
D12*
X93646557Y-105031957D02*
X92446557Y-105031957D01*
X92446557Y-104746242D01*
X92503700Y-104574814D01*
X92617985Y-104460528D01*
X92732271Y-104403385D01*
X92960842Y-104346242D01*
X93132271Y-104346242D01*
X93360842Y-104403385D01*
X93475128Y-104460528D01*
X93589414Y-104574814D01*
X93646557Y-104746242D01*
X93646557Y-105031957D01*
X93646557Y-103660528D02*
X93589414Y-103774814D01*
X93532271Y-103831957D01*
X93417985Y-103889100D01*
X93075128Y-103889100D01*
X92960842Y-103831957D01*
X92903700Y-103774814D01*
X92846557Y-103660528D01*
X92846557Y-103489100D01*
X92903700Y-103374814D01*
X92960842Y-103317671D01*
X93075128Y-103260528D01*
X93417985Y-103260528D01*
X93532271Y-103317671D01*
X93589414Y-103374814D01*
X93646557Y-103489100D01*
X93646557Y-103660528D01*
X92846557Y-102231957D02*
X93646557Y-102231957D01*
X92846557Y-102746242D02*
X93475128Y-102746242D01*
X93589414Y-102689100D01*
X93646557Y-102574814D01*
X93646557Y-102403385D01*
X93589414Y-102289100D01*
X93532271Y-102231957D01*
X92846557Y-101831957D02*
X92846557Y-101374814D01*
X92446557Y-101660528D02*
X93475128Y-101660528D01*
X93589414Y-101603385D01*
X93646557Y-101489100D01*
X93646557Y-101374814D01*
D11*
X183070571Y-111562342D02*
X184213428Y-111562342D01*
X183642000Y-112133771D02*
X183642000Y-110990914D01*
D12*
X190280857Y-104368457D02*
X189080857Y-104368457D01*
X189080857Y-104082742D01*
X189138000Y-103911314D01*
X189252285Y-103797028D01*
X189366571Y-103739885D01*
X189595142Y-103682742D01*
X189766571Y-103682742D01*
X189995142Y-103739885D01*
X190109428Y-103797028D01*
X190223714Y-103911314D01*
X190280857Y-104082742D01*
X190280857Y-104368457D01*
X190280857Y-103168457D02*
X189480857Y-103168457D01*
X189080857Y-103168457D02*
X189138000Y-103225600D01*
X189195142Y-103168457D01*
X189138000Y-103111314D01*
X189080857Y-103168457D01*
X189195142Y-103168457D01*
X189480857Y-102597028D02*
X190280857Y-102597028D01*
X189595142Y-102597028D02*
X189538000Y-102539885D01*
X189480857Y-102425600D01*
X189480857Y-102254171D01*
X189538000Y-102139885D01*
X189652285Y-102082742D01*
X190280857Y-102082742D01*
D13*
X143266479Y-95044800D02*
X142940921Y-95044800D01*
X143266479Y-96064800D02*
X142940921Y-96064800D01*
X120571379Y-94994000D02*
X120245821Y-94994000D01*
X120571379Y-96014000D02*
X120245821Y-96014000D01*
X167155079Y-94701900D02*
X166829521Y-94701900D01*
X167155079Y-95721900D02*
X166829521Y-95721900D01*
X184939721Y-97157000D02*
X185265279Y-97157000D01*
X184939721Y-96137000D02*
X185265279Y-96137000D01*
X107163500Y-95534800D02*
X107163500Y-98534800D01*
X110383500Y-97034800D02*
X110383500Y-98534800D01*
X129136500Y-95553400D02*
X129136500Y-98553400D01*
X132356500Y-97053400D02*
X132356500Y-98553400D01*
X152237800Y-95578800D02*
X152237800Y-98578800D01*
X155457800Y-97078800D02*
X155457800Y-98578800D01*
X175986800Y-95553400D02*
X175986800Y-98553400D01*
X179206800Y-97053400D02*
X179206800Y-98553400D01*
X145861000Y-101803200D02*
G75*
G03X145861000Y-101803200I-700000J0D01*
G01*
X164898300Y-97421700D02*
G75*
G03X164898300Y-97421700I-700000J0D01*
G01*
X146762700Y-107734100D02*
G75*
G03X146762700Y-107734100I-700000J0D01*
G01*
X138564500Y-109649800D02*
X138564500Y-108189800D01*
X141724500Y-109649800D02*
X141724500Y-107489800D01*
X141724500Y-109649800D02*
X140794500Y-109649800D01*
X138564500Y-109649800D02*
X139494500Y-109649800D01*
X142212600Y-108511121D02*
X142212600Y-108836679D01*
X143232600Y-108511121D02*
X143232600Y-108836679D01*
X137056400Y-108511121D02*
X137056400Y-108836679D01*
X138076400Y-108511121D02*
X138076400Y-108836679D01*
X173403800Y-110673000D02*
X171943800Y-110673000D01*
X173403800Y-107513000D02*
X171243800Y-107513000D01*
X173403800Y-107513000D02*
X173403800Y-108443000D01*
X173403800Y-110673000D02*
X173403800Y-109743000D01*
X169012800Y-108631222D02*
X169012800Y-109148378D01*
X170432800Y-108631222D02*
X170432800Y-109148378D01*
X171257500Y-97157321D02*
X171257500Y-97482879D01*
X172277500Y-97157321D02*
X172277500Y-97482879D01*
X171184500Y-105138722D02*
X171184500Y-105655878D01*
X172604500Y-105138722D02*
X172604500Y-105655878D01*
X172946600Y-97144621D02*
X172946600Y-97470179D01*
X173966600Y-97144621D02*
X173966600Y-97470179D01*
X169050900Y-105138722D02*
X169050900Y-105655878D01*
X170470900Y-105138722D02*
X170470900Y-105655878D01*
X169339800Y-97081221D02*
X169339800Y-97406779D01*
X170359800Y-97081221D02*
X170359800Y-97406779D01*
X171041600Y-102887900D02*
X169581600Y-102887900D01*
X171041600Y-99727900D02*
X168881600Y-99727900D01*
X171041600Y-99727900D02*
X171041600Y-100657900D01*
X171041600Y-102887900D02*
X171041600Y-101957900D01*
X167536400Y-110088800D02*
X166076400Y-110088800D01*
X167536400Y-106928800D02*
X165376400Y-106928800D01*
X167536400Y-106928800D02*
X167536400Y-107858800D01*
X167536400Y-110088800D02*
X167536400Y-109158800D01*
X174496000Y-102887900D02*
X173036000Y-102887900D01*
X174496000Y-99727900D02*
X172336000Y-99727900D01*
X174496000Y-99727900D02*
X174496000Y-100657900D01*
X174496000Y-102887900D02*
X174496000Y-101957900D01*
X167574500Y-102900600D02*
X166114500Y-102900600D01*
X167574500Y-99740600D02*
X165414500Y-99740600D01*
X167574500Y-99740600D02*
X167574500Y-100670600D01*
X167574500Y-102900600D02*
X167574500Y-101970600D01*
X167523700Y-106520100D02*
X166063700Y-106520100D01*
X167523700Y-103360100D02*
X165363700Y-103360100D01*
X167523700Y-103360100D02*
X167523700Y-104290100D01*
X167523700Y-106520100D02*
X167523700Y-105590100D01*
X179794700Y-96872100D02*
X179794700Y-96177100D01*
X180479700Y-96872100D02*
X179794700Y-96872100D01*
X181164700Y-95568824D02*
X181164700Y-95482100D01*
X181164700Y-96872100D02*
X181164700Y-96785376D01*
X181164700Y-95482100D02*
X183039700Y-95482100D01*
X181164700Y-96872100D02*
X183039700Y-96872100D01*
X183039700Y-95782607D02*
X183039700Y-95482100D01*
X183039700Y-96872100D02*
X183039700Y-96571593D01*
X113384400Y-105363778D02*
X113384400Y-104846622D01*
X111964400Y-105363778D02*
X111964400Y-104846622D01*
X132599500Y-108716578D02*
X132599500Y-108199422D01*
X131179500Y-108716578D02*
X131179500Y-108199422D01*
X155853200Y-108691178D02*
X155853200Y-108174022D01*
X154433200Y-108691178D02*
X154433200Y-108174022D01*
X104963279Y-95743300D02*
X104637721Y-95743300D01*
X104963279Y-96763300D02*
X104637721Y-96763300D01*
X127264379Y-95819500D02*
X126938821Y-95819500D01*
X127264379Y-96839500D02*
X126938821Y-96839500D01*
X149908479Y-95933800D02*
X149582921Y-95933800D01*
X149908479Y-96953800D02*
X149582921Y-96953800D01*
X111403200Y-105363778D02*
X111403200Y-104846622D01*
X109983200Y-105363778D02*
X109983200Y-104846622D01*
X121908500Y-104376722D02*
X121908500Y-104893878D01*
X123328500Y-104376722D02*
X123328500Y-104893878D01*
X144590700Y-104427522D02*
X144590700Y-104944678D01*
X146010700Y-104427522D02*
X146010700Y-104944678D01*
X105052400Y-98389221D02*
X105052400Y-98714779D01*
X106072400Y-98389221D02*
X106072400Y-98714779D01*
X127340900Y-98439921D02*
X127340900Y-98765479D01*
X128360900Y-98439921D02*
X128360900Y-98765479D01*
X150010400Y-98592421D02*
X150010400Y-98917979D01*
X151030400Y-98592421D02*
X151030400Y-98917979D01*
X116073422Y-104481700D02*
X116590578Y-104481700D01*
X116073422Y-103061700D02*
X116590578Y-103061700D01*
X136259500Y-102141522D02*
X136259500Y-102658678D01*
X137679500Y-102141522D02*
X137679500Y-102658678D01*
X159856100Y-101923322D02*
X159856100Y-102440478D01*
X161276100Y-101923322D02*
X161276100Y-102440478D01*
X112181321Y-98973100D02*
X112506879Y-98973100D01*
X112181321Y-97953100D02*
X112506879Y-97953100D01*
X134050821Y-99455700D02*
X134376379Y-99455700D01*
X134050821Y-98435700D02*
X134376379Y-98435700D01*
X157037821Y-100268500D02*
X157363379Y-100268500D01*
X157037821Y-99248500D02*
X157363379Y-99248500D01*
X112409700Y-107043100D02*
X113869700Y-107043100D01*
X112409700Y-110203100D02*
X114569700Y-110203100D01*
X112409700Y-110203100D02*
X112409700Y-109273100D01*
X112409700Y-107043100D02*
X112409700Y-107973100D01*
X129792000Y-109999900D02*
X128332000Y-109999900D01*
X129792000Y-106839900D02*
X127632000Y-106839900D01*
X129792000Y-106839900D02*
X129792000Y-107769900D01*
X129792000Y-109999900D02*
X129792000Y-109069900D01*
X153134600Y-110076100D02*
X151674600Y-110076100D01*
X153134600Y-106916100D02*
X150974600Y-106916100D01*
X153134600Y-106916100D02*
X153134600Y-107846100D01*
X153134600Y-110076100D02*
X153134600Y-109146100D01*
X115889500Y-107043100D02*
X117349500Y-107043100D01*
X115889500Y-110203100D02*
X118049500Y-110203100D01*
X115889500Y-110203100D02*
X115889500Y-109273100D01*
X115889500Y-107043100D02*
X115889500Y-107973100D01*
X126159800Y-109949100D02*
X124699800Y-109949100D01*
X126159800Y-106789100D02*
X123999800Y-106789100D01*
X126159800Y-106789100D02*
X126159800Y-107719100D01*
X126159800Y-109949100D02*
X126159800Y-109019100D01*
X149600700Y-110048200D02*
X148140700Y-110048200D01*
X149600700Y-106888200D02*
X147440700Y-106888200D01*
X149600700Y-106888200D02*
X149600700Y-107818200D01*
X149600700Y-110048200D02*
X149600700Y-109118200D01*
X111069200Y-107904500D02*
X111069200Y-109364500D01*
X107909200Y-107904500D02*
X107909200Y-110064500D01*
X107909200Y-107904500D02*
X108839200Y-107904500D01*
X111069200Y-107904500D02*
X110139200Y-107904500D01*
X126121700Y-102672000D02*
X124661700Y-102672000D01*
X126121700Y-99512000D02*
X123961700Y-99512000D01*
X126121700Y-99512000D02*
X126121700Y-100442000D01*
X126121700Y-102672000D02*
X126121700Y-101742000D01*
X148803900Y-102722800D02*
X147343900Y-102722800D01*
X148803900Y-99562800D02*
X146643900Y-99562800D01*
X148803900Y-99562800D02*
X148803900Y-100492800D01*
X148803900Y-102722800D02*
X148803900Y-101792800D01*
X104185600Y-109421200D02*
X104185600Y-107961200D01*
X107345600Y-109421200D02*
X107345600Y-107261200D01*
X107345600Y-109421200D02*
X106415600Y-109421200D01*
X104185600Y-109421200D02*
X105115600Y-109421200D01*
X126096300Y-106240700D02*
X124636300Y-106240700D01*
X126096300Y-103080700D02*
X123936300Y-103080700D01*
X126096300Y-103080700D02*
X126096300Y-104010700D01*
X126096300Y-106240700D02*
X126096300Y-105310700D01*
X148803900Y-106316900D02*
X147343900Y-106316900D01*
X148803900Y-103156900D02*
X146643900Y-103156900D01*
X148803900Y-103156900D02*
X148803900Y-104086900D01*
X148803900Y-106316900D02*
X148803900Y-105386900D01*
X111190500Y-99499300D02*
X112650500Y-99499300D01*
X111190500Y-102659300D02*
X113350500Y-102659300D01*
X111190500Y-102659300D02*
X111190500Y-101729300D01*
X111190500Y-99499300D02*
X111190500Y-100429300D01*
X133466300Y-99943800D02*
X134926300Y-99943800D01*
X133466300Y-103103800D02*
X135626300Y-103103800D01*
X133466300Y-103103800D02*
X133466300Y-102173800D01*
X133466300Y-99943800D02*
X133466300Y-100873800D01*
X156526200Y-100731200D02*
X157986200Y-100731200D01*
X156526200Y-103891200D02*
X158686200Y-103891200D01*
X156526200Y-103891200D02*
X156526200Y-102961200D01*
X156526200Y-100731200D02*
X156526200Y-101661200D01*
X117084000Y-100297200D02*
X117084000Y-101757200D01*
X113924000Y-100297200D02*
X113924000Y-102457200D01*
X113924000Y-100297200D02*
X114854000Y-100297200D01*
X117084000Y-100297200D02*
X116154000Y-100297200D01*
X137797000Y-96413200D02*
X139257000Y-96413200D01*
X137797000Y-99573200D02*
X139957000Y-99573200D01*
X137797000Y-99573200D02*
X137797000Y-98643200D01*
X137797000Y-96413200D02*
X137797000Y-97343200D01*
X160711100Y-97096500D02*
X162171100Y-97096500D01*
X160711100Y-100256500D02*
X162871100Y-100256500D01*
X160711100Y-100256500D02*
X160711100Y-99326500D01*
X160711100Y-97096500D02*
X160711100Y-98026500D01*
X110986100Y-97176900D02*
X110986100Y-96481900D01*
X111671100Y-97176900D02*
X110986100Y-97176900D01*
X112356100Y-95873624D02*
X112356100Y-95786900D01*
X112356100Y-97176900D02*
X112356100Y-97090176D01*
X112356100Y-95786900D02*
X114231100Y-95786900D01*
X112356100Y-97176900D02*
X114231100Y-97176900D01*
X114231100Y-96087407D02*
X114231100Y-95786900D01*
X114231100Y-97176900D02*
X114231100Y-96876393D01*
X133071400Y-97621400D02*
X133071400Y-96926400D01*
X133756400Y-97621400D02*
X133071400Y-97621400D01*
X134441400Y-96318124D02*
X134441400Y-96231400D01*
X134441400Y-97621400D02*
X134441400Y-97534676D01*
X134441400Y-96231400D02*
X136316400Y-96231400D01*
X134441400Y-97621400D02*
X136316400Y-97621400D01*
X136316400Y-96531907D02*
X136316400Y-96231400D01*
X136316400Y-97621400D02*
X136316400Y-97320893D01*
X155982200Y-98485000D02*
X155982200Y-97790000D01*
X156667200Y-98485000D02*
X155982200Y-98485000D01*
X157352200Y-97181724D02*
X157352200Y-97095000D01*
X157352200Y-98485000D02*
X157352200Y-98398276D01*
X157352200Y-97095000D02*
X159227200Y-97095000D01*
X157352200Y-98485000D02*
X159227200Y-98485000D01*
X159227200Y-97395507D02*
X159227200Y-97095000D01*
X159227200Y-98485000D02*
X159227200Y-98184493D01*
X183303900Y-110670300D02*
X183603900Y-110070300D01*
X183903900Y-110670300D02*
X183303900Y-110670300D01*
X183603900Y-110070300D02*
X183903900Y-110670300D01*
X188513900Y-97830300D02*
X188513900Y-109870300D01*
X181493900Y-97830300D02*
X188513900Y-97830300D01*
X181493900Y-99030300D02*
X181493900Y-97830300D01*
X179793900Y-99030300D02*
X181493900Y-99030300D01*
X179793900Y-108670300D02*
X179793900Y-99030300D01*
X181493900Y-108670300D02*
X179793900Y-108670300D01*
X181493900Y-109870300D02*
X181493900Y-108670300D01*
X188513900Y-109870300D02*
X181493900Y-109870300D01*
X99487000Y-97165200D02*
X99187000Y-97765200D01*
X98887000Y-97165200D02*
X99487000Y-97165200D01*
X99187000Y-97765200D02*
X98887000Y-97165200D01*
X94277000Y-110005200D02*
X94277000Y-97965200D01*
X101297000Y-110005200D02*
X94277000Y-110005200D01*
X101297000Y-108805200D02*
X101297000Y-110005200D01*
X102997000Y-108805200D02*
X101297000Y-108805200D01*
X102997000Y-99165200D02*
X102997000Y-108805200D01*
X101297000Y-99165200D02*
X102997000Y-99165200D01*
X101297000Y-97965200D02*
X101297000Y-99165200D01*
X94277000Y-97965200D02*
X101297000Y-97965200D01*
D10*
X142460842Y-97437180D02*
X142127509Y-96960990D01*
X141889414Y-97437180D02*
X141889414Y-96437180D01*
X142270366Y-96437180D01*
X142365604Y-96484800D01*
X142413223Y-96532419D01*
X142460842Y-96627657D01*
X142460842Y-96770514D01*
X142413223Y-96865752D01*
X142365604Y-96913371D01*
X142270366Y-96960990D01*
X141889414Y-96960990D01*
X142841795Y-96532419D02*
X142889414Y-96484800D01*
X142984652Y-96437180D01*
X143222747Y-96437180D01*
X143317985Y-96484800D01*
X143365604Y-96532419D01*
X143413223Y-96627657D01*
X143413223Y-96722895D01*
X143365604Y-96865752D01*
X142794176Y-97437180D01*
X143413223Y-97437180D01*
X143794176Y-96532419D02*
X143841795Y-96484800D01*
X143937033Y-96437180D01*
X144175128Y-96437180D01*
X144270366Y-96484800D01*
X144317985Y-96532419D01*
X144365604Y-96627657D01*
X144365604Y-96722895D01*
X144317985Y-96865752D01*
X143746557Y-97437180D01*
X144365604Y-97437180D01*
X119765742Y-97386380D02*
X119432409Y-96910190D01*
X119194314Y-97386380D02*
X119194314Y-96386380D01*
X119575266Y-96386380D01*
X119670504Y-96434000D01*
X119718123Y-96481619D01*
X119765742Y-96576857D01*
X119765742Y-96719714D01*
X119718123Y-96814952D01*
X119670504Y-96862571D01*
X119575266Y-96910190D01*
X119194314Y-96910190D01*
X120146695Y-96481619D02*
X120194314Y-96434000D01*
X120289552Y-96386380D01*
X120527647Y-96386380D01*
X120622885Y-96434000D01*
X120670504Y-96481619D01*
X120718123Y-96576857D01*
X120718123Y-96672095D01*
X120670504Y-96814952D01*
X120099076Y-97386380D01*
X120718123Y-97386380D01*
X121670504Y-97386380D02*
X121099076Y-97386380D01*
X121384790Y-97386380D02*
X121384790Y-96386380D01*
X121289552Y-96529238D01*
X121194314Y-96624476D01*
X121099076Y-96672095D01*
X184935833Y-95669380D02*
X184602500Y-95193190D01*
X184364404Y-95669380D02*
X184364404Y-94669380D01*
X184745357Y-94669380D01*
X184840595Y-94717000D01*
X184888214Y-94764619D01*
X184935833Y-94859857D01*
X184935833Y-95002714D01*
X184888214Y-95097952D01*
X184840595Y-95145571D01*
X184745357Y-95193190D01*
X184364404Y-95193190D01*
X185412023Y-95669380D02*
X185602500Y-95669380D01*
X185697738Y-95621761D01*
X185745357Y-95574142D01*
X185840595Y-95431285D01*
X185888214Y-95240809D01*
X185888214Y-94859857D01*
X185840595Y-94764619D01*
X185792976Y-94717000D01*
X185697738Y-94669380D01*
X185507261Y-94669380D01*
X185412023Y-94717000D01*
X185364404Y-94764619D01*
X185316785Y-94859857D01*
X185316785Y-95097952D01*
X185364404Y-95193190D01*
X185412023Y-95240809D01*
X185507261Y-95288428D01*
X185697738Y-95288428D01*
X185792976Y-95240809D01*
X185840595Y-95193190D01*
X185888214Y-95097952D01*
X110675880Y-97796704D02*
X111485404Y-97796704D01*
X111580642Y-97749085D01*
X111628261Y-97701466D01*
X111675880Y-97606228D01*
X111675880Y-97415752D01*
X111628261Y-97320514D01*
X111580642Y-97272895D01*
X111485404Y-97225276D01*
X110675880Y-97225276D01*
X111009214Y-96320514D02*
X111675880Y-96320514D01*
X110628261Y-96558609D02*
X111342547Y-96796704D01*
X111342547Y-96177657D01*
X132648880Y-97815304D02*
X133458404Y-97815304D01*
X133553642Y-97767685D01*
X133601261Y-97720066D01*
X133648880Y-97624828D01*
X133648880Y-97434352D01*
X133601261Y-97339114D01*
X133553642Y-97291495D01*
X133458404Y-97243876D01*
X132648880Y-97243876D01*
X132648880Y-96862923D02*
X132648880Y-96243876D01*
X133029833Y-96577209D01*
X133029833Y-96434352D01*
X133077452Y-96339114D01*
X133125071Y-96291495D01*
X133220309Y-96243876D01*
X133458404Y-96243876D01*
X133553642Y-96291495D01*
X133601261Y-96339114D01*
X133648880Y-96434352D01*
X133648880Y-96720066D01*
X133601261Y-96815304D01*
X133553642Y-96862923D01*
X155750180Y-97840704D02*
X156559704Y-97840704D01*
X156654942Y-97793085D01*
X156702561Y-97745466D01*
X156750180Y-97650228D01*
X156750180Y-97459752D01*
X156702561Y-97364514D01*
X156654942Y-97316895D01*
X156559704Y-97269276D01*
X155750180Y-97269276D01*
X155845419Y-96840704D02*
X155797800Y-96793085D01*
X155750180Y-96697847D01*
X155750180Y-96459752D01*
X155797800Y-96364514D01*
X155845419Y-96316895D01*
X155940657Y-96269276D01*
X156035895Y-96269276D01*
X156178752Y-96316895D01*
X156750180Y-96888323D01*
X156750180Y-96269276D01*
X179499180Y-97815304D02*
X180308704Y-97815304D01*
X180403942Y-97767685D01*
X180451561Y-97720066D01*
X180499180Y-97624828D01*
X180499180Y-97434352D01*
X180451561Y-97339114D01*
X180403942Y-97291495D01*
X180308704Y-97243876D01*
X179499180Y-97243876D01*
X180499180Y-96243876D02*
X180499180Y-96815304D01*
X180499180Y-96529590D02*
X179499180Y-96529590D01*
X179642038Y-96624828D01*
X179737276Y-96720066D01*
X179784895Y-96815304D01*
X143486357Y-100706180D02*
X143486357Y-99706180D01*
X143724452Y-100801419D02*
X144486357Y-100801419D01*
X145248261Y-99753800D02*
X145153023Y-99706180D01*
X145010166Y-99706180D01*
X144867309Y-99753800D01*
X144772071Y-99849038D01*
X144724452Y-99944276D01*
X144676833Y-100134752D01*
X144676833Y-100277609D01*
X144724452Y-100468085D01*
X144772071Y-100563323D01*
X144867309Y-100658561D01*
X145010166Y-100706180D01*
X145105404Y-100706180D01*
X145248261Y-100658561D01*
X145295880Y-100610942D01*
X145295880Y-100277609D01*
X145105404Y-100277609D01*
X146248261Y-100706180D02*
X145676833Y-100706180D01*
X145962547Y-100706180D02*
X145962547Y-99706180D01*
X145867309Y-99849038D01*
X145772071Y-99944276D01*
X145676833Y-99991895D01*
X162866557Y-96337380D02*
X162866557Y-95337380D01*
X163104652Y-96432619D02*
X163866557Y-96432619D01*
X164437985Y-95813571D02*
X164580842Y-95861190D01*
X164628461Y-95908809D01*
X164676080Y-96004047D01*
X164676080Y-96146904D01*
X164628461Y-96242142D01*
X164580842Y-96289761D01*
X164485604Y-96337380D01*
X164104652Y-96337380D01*
X164104652Y-95337380D01*
X164437985Y-95337380D01*
X164533223Y-95385000D01*
X164580842Y-95432619D01*
X164628461Y-95527857D01*
X164628461Y-95623095D01*
X164580842Y-95718333D01*
X164533223Y-95765952D01*
X164437985Y-95813571D01*
X164104652Y-95813571D01*
X165628461Y-96337380D02*
X165057033Y-96337380D01*
X165342747Y-96337380D02*
X165342747Y-95337380D01*
X165247509Y-95480238D01*
X165152271Y-95575476D01*
X165057033Y-95623095D01*
X146426180Y-111656642D02*
X145426180Y-111656642D01*
X146521419Y-111418547D02*
X146521419Y-110656642D01*
X146426180Y-109847119D02*
X145949990Y-110180452D01*
X146426180Y-110418547D02*
X145426180Y-110418547D01*
X145426180Y-110037595D01*
X145473800Y-109942357D01*
X145521419Y-109894738D01*
X145616657Y-109847119D01*
X145759514Y-109847119D01*
X145854752Y-109894738D01*
X145902371Y-109942357D01*
X145949990Y-110037595D01*
X145949990Y-110418547D01*
X146426180Y-108894738D02*
X146426180Y-109466166D01*
X146426180Y-109180452D02*
X145426180Y-109180452D01*
X145569038Y-109275690D01*
X145664276Y-109370928D01*
X145711895Y-109466166D01*
X139357195Y-110805980D02*
X139357195Y-111615504D01*
X139404814Y-111710742D01*
X139452433Y-111758361D01*
X139547671Y-111805980D01*
X139738147Y-111805980D01*
X139833385Y-111758361D01*
X139881004Y-111710742D01*
X139928623Y-111615504D01*
X139928623Y-110805980D01*
X140881004Y-110805980D02*
X140404814Y-110805980D01*
X140357195Y-111282171D01*
X140404814Y-111234552D01*
X140500052Y-111186933D01*
X140738147Y-111186933D01*
X140833385Y-111234552D01*
X140881004Y-111282171D01*
X140928623Y-111377409D01*
X140928623Y-111615504D01*
X140881004Y-111710742D01*
X140833385Y-111758361D01*
X140738147Y-111805980D01*
X140500052Y-111805980D01*
X140404814Y-111758361D01*
X140357195Y-111710742D01*
X144509742Y-108840566D02*
X144557361Y-108888185D01*
X144604980Y-109031042D01*
X144604980Y-109126280D01*
X144557361Y-109269138D01*
X144462123Y-109364376D01*
X144366885Y-109411995D01*
X144176409Y-109459614D01*
X144033552Y-109459614D01*
X143843076Y-109411995D01*
X143747838Y-109364376D01*
X143652600Y-109269138D01*
X143604980Y-109126280D01*
X143604980Y-109031042D01*
X143652600Y-108888185D01*
X143700219Y-108840566D01*
X143700219Y-108459614D02*
X143652600Y-108411995D01*
X143604980Y-108316757D01*
X143604980Y-108078661D01*
X143652600Y-107983423D01*
X143700219Y-107935804D01*
X143795457Y-107888185D01*
X143890695Y-107888185D01*
X144033552Y-107935804D01*
X144604980Y-108507233D01*
X144604980Y-107888185D01*
X136539242Y-108764366D02*
X136586861Y-108811985D01*
X136634480Y-108954842D01*
X136634480Y-109050080D01*
X136586861Y-109192938D01*
X136491623Y-109288176D01*
X136396385Y-109335795D01*
X136205909Y-109383414D01*
X136063052Y-109383414D01*
X135872576Y-109335795D01*
X135777338Y-109288176D01*
X135682100Y-109192938D01*
X135634480Y-109050080D01*
X135634480Y-108954842D01*
X135682100Y-108811985D01*
X135729719Y-108764366D01*
X136634480Y-107811985D02*
X136634480Y-108383414D01*
X136634480Y-108097700D02*
X135634480Y-108097700D01*
X135777338Y-108192938D01*
X135872576Y-108288176D01*
X135920195Y-108383414D01*
X175304461Y-110809019D02*
X175209223Y-110761400D01*
X175113985Y-110666161D01*
X174971128Y-110523304D01*
X174875890Y-110475685D01*
X174780652Y-110475685D01*
X174828271Y-110713780D02*
X174733033Y-110666161D01*
X174637795Y-110570923D01*
X174590176Y-110380447D01*
X174590176Y-110047114D01*
X174637795Y-109856638D01*
X174733033Y-109761400D01*
X174828271Y-109713780D01*
X175018747Y-109713780D01*
X175113985Y-109761400D01*
X175209223Y-109856638D01*
X175256842Y-110047114D01*
X175256842Y-110380447D01*
X175209223Y-110570923D01*
X175113985Y-110666161D01*
X175018747Y-110713780D01*
X174828271Y-110713780D01*
X175590176Y-109713780D02*
X176209223Y-109713780D01*
X175875890Y-110094733D01*
X176018747Y-110094733D01*
X176113985Y-110142352D01*
X176161604Y-110189971D01*
X176209223Y-110285209D01*
X176209223Y-110523304D01*
X176161604Y-110618542D01*
X176113985Y-110666161D01*
X176018747Y-110713780D01*
X175733033Y-110713780D01*
X175637795Y-110666161D01*
X175590176Y-110618542D01*
X168965642Y-111831380D02*
X168632309Y-111355190D01*
X168394214Y-111831380D02*
X168394214Y-110831380D01*
X168775166Y-110831380D01*
X168870404Y-110879000D01*
X168918023Y-110926619D01*
X168965642Y-111021857D01*
X168965642Y-111164714D01*
X168918023Y-111259952D01*
X168870404Y-111307571D01*
X168775166Y-111355190D01*
X168394214Y-111355190D01*
X169918023Y-111831380D02*
X169346595Y-111831380D01*
X169632309Y-111831380D02*
X169632309Y-110831380D01*
X169537071Y-110974238D01*
X169441833Y-111069476D01*
X169346595Y-111117095D01*
X170489452Y-111259952D02*
X170394214Y-111212333D01*
X170346595Y-111164714D01*
X170298976Y-111069476D01*
X170298976Y-111021857D01*
X170346595Y-110926619D01*
X170394214Y-110879000D01*
X170489452Y-110831380D01*
X170679928Y-110831380D01*
X170775166Y-110879000D01*
X170822785Y-110926619D01*
X170870404Y-111021857D01*
X170870404Y-111069476D01*
X170822785Y-111164714D01*
X170775166Y-111212333D01*
X170679928Y-111259952D01*
X170489452Y-111259952D01*
X170394214Y-111307571D01*
X170346595Y-111355190D01*
X170298976Y-111450428D01*
X170298976Y-111640904D01*
X170346595Y-111736142D01*
X170394214Y-111783761D01*
X170489452Y-111831380D01*
X170679928Y-111831380D01*
X170775166Y-111783761D01*
X170822785Y-111736142D01*
X170870404Y-111640904D01*
X170870404Y-111450428D01*
X170822785Y-111355190D01*
X170775166Y-111307571D01*
X170679928Y-111259952D01*
X171010342Y-95524580D02*
X170677009Y-95048390D01*
X170438914Y-95524580D02*
X170438914Y-94524580D01*
X170819866Y-94524580D01*
X170915104Y-94572200D01*
X170962723Y-94619819D01*
X171010342Y-94715057D01*
X171010342Y-94857914D01*
X170962723Y-94953152D01*
X170915104Y-95000771D01*
X170819866Y-95048390D01*
X170438914Y-95048390D01*
X171962723Y-95524580D02*
X171391295Y-95524580D01*
X171677009Y-95524580D02*
X171677009Y-94524580D01*
X171581771Y-94667438D01*
X171486533Y-94762676D01*
X171391295Y-94810295D01*
X172296057Y-94524580D02*
X172962723Y-94524580D01*
X172534152Y-95524580D01*
X173880542Y-107335580D02*
X173547209Y-106859390D01*
X173309114Y-107335580D02*
X173309114Y-106335580D01*
X173690066Y-106335580D01*
X173785304Y-106383200D01*
X173832923Y-106430819D01*
X173880542Y-106526057D01*
X173880542Y-106668914D01*
X173832923Y-106764152D01*
X173785304Y-106811771D01*
X173690066Y-106859390D01*
X173309114Y-106859390D01*
X174832923Y-107335580D02*
X174261495Y-107335580D01*
X174547209Y-107335580D02*
X174547209Y-106335580D01*
X174451971Y-106478438D01*
X174356733Y-106573676D01*
X174261495Y-106621295D01*
X175166257Y-106335580D02*
X175785304Y-106335580D01*
X175451971Y-106716533D01*
X175594828Y-106716533D01*
X175690066Y-106764152D01*
X175737685Y-106811771D01*
X175785304Y-106907009D01*
X175785304Y-107145104D01*
X175737685Y-107240342D01*
X175690066Y-107287961D01*
X175594828Y-107335580D01*
X175309114Y-107335580D01*
X175213876Y-107287961D01*
X175166257Y-107240342D01*
X173855142Y-95524580D02*
X173521809Y-95048390D01*
X173283714Y-95524580D02*
X173283714Y-94524580D01*
X173664666Y-94524580D01*
X173759904Y-94572200D01*
X173807523Y-94619819D01*
X173855142Y-94715057D01*
X173855142Y-94857914D01*
X173807523Y-94953152D01*
X173759904Y-95000771D01*
X173664666Y-95048390D01*
X173283714Y-95048390D01*
X174807523Y-95524580D02*
X174236095Y-95524580D01*
X174521809Y-95524580D02*
X174521809Y-94524580D01*
X174426571Y-94667438D01*
X174331333Y-94762676D01*
X174236095Y-94810295D01*
X175188476Y-94619819D02*
X175236095Y-94572200D01*
X175331333Y-94524580D01*
X175569428Y-94524580D01*
X175664666Y-94572200D01*
X175712285Y-94619819D01*
X175759904Y-94715057D01*
X175759904Y-94810295D01*
X175712285Y-94953152D01*
X175140857Y-95524580D01*
X175759904Y-95524580D01*
X173886833Y-106065580D02*
X173553500Y-105589390D01*
X173315404Y-106065580D02*
X173315404Y-105065580D01*
X173696357Y-105065580D01*
X173791595Y-105113200D01*
X173839214Y-105160819D01*
X173886833Y-105256057D01*
X173886833Y-105398914D01*
X173839214Y-105494152D01*
X173791595Y-105541771D01*
X173696357Y-105589390D01*
X173315404Y-105589390D01*
X174458261Y-105494152D02*
X174363023Y-105446533D01*
X174315404Y-105398914D01*
X174267785Y-105303676D01*
X174267785Y-105256057D01*
X174315404Y-105160819D01*
X174363023Y-105113200D01*
X174458261Y-105065580D01*
X174648738Y-105065580D01*
X174743976Y-105113200D01*
X174791595Y-105160819D01*
X174839214Y-105256057D01*
X174839214Y-105303676D01*
X174791595Y-105398914D01*
X174743976Y-105446533D01*
X174648738Y-105494152D01*
X174458261Y-105494152D01*
X174363023Y-105541771D01*
X174315404Y-105589390D01*
X174267785Y-105684628D01*
X174267785Y-105875104D01*
X174315404Y-105970342D01*
X174363023Y-106017961D01*
X174458261Y-106065580D01*
X174648738Y-106065580D01*
X174743976Y-106017961D01*
X174791595Y-105970342D01*
X174839214Y-105875104D01*
X174839214Y-105684628D01*
X174791595Y-105589390D01*
X174743976Y-105541771D01*
X174648738Y-105494152D01*
X167841633Y-96845380D02*
X167508300Y-96369190D01*
X167270204Y-96845380D02*
X167270204Y-95845380D01*
X167651157Y-95845380D01*
X167746395Y-95893000D01*
X167794014Y-95940619D01*
X167841633Y-96035857D01*
X167841633Y-96178714D01*
X167794014Y-96273952D01*
X167746395Y-96321571D01*
X167651157Y-96369190D01*
X167270204Y-96369190D01*
X168174966Y-95845380D02*
X168841633Y-95845380D01*
X168413061Y-96845380D01*
X168281361Y-99417119D02*
X168186123Y-99369500D01*
X168090885Y-99274261D01*
X167948028Y-99131404D01*
X167852790Y-99083785D01*
X167757552Y-99083785D01*
X167805171Y-99321880D02*
X167709933Y-99274261D01*
X167614695Y-99179023D01*
X167567076Y-98988547D01*
X167567076Y-98655214D01*
X167614695Y-98464738D01*
X167709933Y-98369500D01*
X167805171Y-98321880D01*
X167995647Y-98321880D01*
X168090885Y-98369500D01*
X168186123Y-98464738D01*
X168233742Y-98655214D01*
X168233742Y-98988547D01*
X168186123Y-99179023D01*
X168090885Y-99274261D01*
X167995647Y-99321880D01*
X167805171Y-99321880D01*
X169090885Y-98321880D02*
X168900409Y-98321880D01*
X168805171Y-98369500D01*
X168757552Y-98417119D01*
X168662314Y-98559976D01*
X168614695Y-98750452D01*
X168614695Y-99131404D01*
X168662314Y-99226642D01*
X168709933Y-99274261D01*
X168805171Y-99321880D01*
X168995647Y-99321880D01*
X169090885Y-99274261D01*
X169138504Y-99226642D01*
X169186123Y-99131404D01*
X169186123Y-98893309D01*
X169138504Y-98798071D01*
X169090885Y-98750452D01*
X168995647Y-98702833D01*
X168805171Y-98702833D01*
X168709933Y-98750452D01*
X168662314Y-98798071D01*
X168614695Y-98893309D01*
X163950661Y-109081819D02*
X163855423Y-109034200D01*
X163760185Y-108938961D01*
X163617328Y-108796104D01*
X163522090Y-108748485D01*
X163426852Y-108748485D01*
X163474471Y-108986580D02*
X163379233Y-108938961D01*
X163283995Y-108843723D01*
X163236376Y-108653247D01*
X163236376Y-108319914D01*
X163283995Y-108129438D01*
X163379233Y-108034200D01*
X163474471Y-107986580D01*
X163664947Y-107986580D01*
X163760185Y-108034200D01*
X163855423Y-108129438D01*
X163903042Y-108319914D01*
X163903042Y-108653247D01*
X163855423Y-108843723D01*
X163760185Y-108938961D01*
X163664947Y-108986580D01*
X163474471Y-108986580D01*
X164807804Y-107986580D02*
X164331614Y-107986580D01*
X164283995Y-108462771D01*
X164331614Y-108415152D01*
X164426852Y-108367533D01*
X164664947Y-108367533D01*
X164760185Y-108415152D01*
X164807804Y-108462771D01*
X164855423Y-108558009D01*
X164855423Y-108796104D01*
X164807804Y-108891342D01*
X164760185Y-108938961D01*
X164664947Y-108986580D01*
X164426852Y-108986580D01*
X164331614Y-108938961D01*
X164283995Y-108891342D01*
X175456861Y-100369619D02*
X175361623Y-100322000D01*
X175266385Y-100226761D01*
X175123528Y-100083904D01*
X175028290Y-100036285D01*
X174933052Y-100036285D01*
X174980671Y-100274380D02*
X174885433Y-100226761D01*
X174790195Y-100131523D01*
X174742576Y-99941047D01*
X174742576Y-99607714D01*
X174790195Y-99417238D01*
X174885433Y-99322000D01*
X174980671Y-99274380D01*
X175171147Y-99274380D01*
X175266385Y-99322000D01*
X175361623Y-99417238D01*
X175409242Y-99607714D01*
X175409242Y-99941047D01*
X175361623Y-100131523D01*
X175266385Y-100226761D01*
X175171147Y-100274380D01*
X174980671Y-100274380D01*
X176266385Y-99607714D02*
X176266385Y-100274380D01*
X176028290Y-99226761D02*
X175790195Y-99941047D01*
X176409242Y-99941047D01*
X166439861Y-99379019D02*
X166344623Y-99331400D01*
X166249385Y-99236161D01*
X166106528Y-99093304D01*
X166011290Y-99045685D01*
X165916052Y-99045685D01*
X165963671Y-99283780D02*
X165868433Y-99236161D01*
X165773195Y-99140923D01*
X165725576Y-98950447D01*
X165725576Y-98617114D01*
X165773195Y-98426638D01*
X165868433Y-98331400D01*
X165963671Y-98283780D01*
X166154147Y-98283780D01*
X166249385Y-98331400D01*
X166344623Y-98426638D01*
X166392242Y-98617114D01*
X166392242Y-98950447D01*
X166344623Y-99140923D01*
X166249385Y-99236161D01*
X166154147Y-99283780D01*
X165963671Y-99283780D01*
X166773195Y-98379019D02*
X166820814Y-98331400D01*
X166916052Y-98283780D01*
X167154147Y-98283780D01*
X167249385Y-98331400D01*
X167297004Y-98379019D01*
X167344623Y-98474257D01*
X167344623Y-98569495D01*
X167297004Y-98712352D01*
X166725576Y-99283780D01*
X167344623Y-99283780D01*
X163518861Y-105424219D02*
X163423623Y-105376600D01*
X163328385Y-105281361D01*
X163185528Y-105138504D01*
X163090290Y-105090885D01*
X162995052Y-105090885D01*
X163042671Y-105328980D02*
X162947433Y-105281361D01*
X162852195Y-105186123D01*
X162804576Y-104995647D01*
X162804576Y-104662314D01*
X162852195Y-104471838D01*
X162947433Y-104376600D01*
X163042671Y-104328980D01*
X163233147Y-104328980D01*
X163328385Y-104376600D01*
X163423623Y-104471838D01*
X163471242Y-104662314D01*
X163471242Y-104995647D01*
X163423623Y-105186123D01*
X163328385Y-105281361D01*
X163233147Y-105328980D01*
X163042671Y-105328980D01*
X164423623Y-105328980D02*
X163852195Y-105328980D01*
X164137909Y-105328980D02*
X164137909Y-104328980D01*
X164042671Y-104471838D01*
X163947433Y-104567076D01*
X163852195Y-104614695D01*
X111476780Y-105748057D02*
X111000590Y-106081390D01*
X111476780Y-106319485D02*
X110476780Y-106319485D01*
X110476780Y-105938533D01*
X110524400Y-105843295D01*
X110572019Y-105795676D01*
X110667257Y-105748057D01*
X110810114Y-105748057D01*
X110905352Y-105795676D01*
X110952971Y-105843295D01*
X111000590Y-105938533D01*
X111000590Y-106319485D01*
X110572019Y-105367104D02*
X110524400Y-105319485D01*
X110476780Y-105224247D01*
X110476780Y-104986152D01*
X110524400Y-104890914D01*
X110572019Y-104843295D01*
X110667257Y-104795676D01*
X110762495Y-104795676D01*
X110905352Y-104843295D01*
X111476780Y-105414723D01*
X111476780Y-104795676D01*
X110905352Y-104224247D02*
X110857733Y-104319485D01*
X110810114Y-104367104D01*
X110714876Y-104414723D01*
X110667257Y-104414723D01*
X110572019Y-104367104D01*
X110524400Y-104319485D01*
X110476780Y-104224247D01*
X110476780Y-104033771D01*
X110524400Y-103938533D01*
X110572019Y-103890914D01*
X110667257Y-103843295D01*
X110714876Y-103843295D01*
X110810114Y-103890914D01*
X110857733Y-103938533D01*
X110905352Y-104033771D01*
X110905352Y-104224247D01*
X110952971Y-104319485D01*
X111000590Y-104367104D01*
X111095828Y-104414723D01*
X111286304Y-104414723D01*
X111381542Y-104367104D01*
X111429161Y-104319485D01*
X111476780Y-104224247D01*
X111476780Y-104033771D01*
X111429161Y-103938533D01*
X111381542Y-103890914D01*
X111286304Y-103843295D01*
X111095828Y-103843295D01*
X111000590Y-103890914D01*
X110952971Y-103938533D01*
X110905352Y-104033771D01*
X131602242Y-111501180D02*
X131268909Y-111024990D01*
X131030814Y-111501180D02*
X131030814Y-110501180D01*
X131411766Y-110501180D01*
X131507004Y-110548800D01*
X131554623Y-110596419D01*
X131602242Y-110691657D01*
X131602242Y-110834514D01*
X131554623Y-110929752D01*
X131507004Y-110977371D01*
X131411766Y-111024990D01*
X131030814Y-111024990D01*
X131983195Y-110596419D02*
X132030814Y-110548800D01*
X132126052Y-110501180D01*
X132364147Y-110501180D01*
X132459385Y-110548800D01*
X132507004Y-110596419D01*
X132554623Y-110691657D01*
X132554623Y-110786895D01*
X132507004Y-110929752D01*
X131935576Y-111501180D01*
X132554623Y-111501180D01*
X132887957Y-110501180D02*
X133554623Y-110501180D01*
X133126052Y-111501180D01*
X154944842Y-111399580D02*
X154611509Y-110923390D01*
X154373414Y-111399580D02*
X154373414Y-110399580D01*
X154754366Y-110399580D01*
X154849604Y-110447200D01*
X154897223Y-110494819D01*
X154944842Y-110590057D01*
X154944842Y-110732914D01*
X154897223Y-110828152D01*
X154849604Y-110875771D01*
X154754366Y-110923390D01*
X154373414Y-110923390D01*
X155325795Y-110494819D02*
X155373414Y-110447200D01*
X155468652Y-110399580D01*
X155706747Y-110399580D01*
X155801985Y-110447200D01*
X155849604Y-110494819D01*
X155897223Y-110590057D01*
X155897223Y-110685295D01*
X155849604Y-110828152D01*
X155278176Y-111399580D01*
X155897223Y-111399580D01*
X156754366Y-110399580D02*
X156563890Y-110399580D01*
X156468652Y-110447200D01*
X156421033Y-110494819D01*
X156325795Y-110637676D01*
X156278176Y-110828152D01*
X156278176Y-111209104D01*
X156325795Y-111304342D01*
X156373414Y-111351961D01*
X156468652Y-111399580D01*
X156659128Y-111399580D01*
X156754366Y-111351961D01*
X156801985Y-111304342D01*
X156849604Y-111209104D01*
X156849604Y-110971009D01*
X156801985Y-110875771D01*
X156754366Y-110828152D01*
X156659128Y-110780533D01*
X156468652Y-110780533D01*
X156373414Y-110828152D01*
X156325795Y-110875771D01*
X156278176Y-110971009D01*
X101223842Y-96718380D02*
X100890509Y-96242190D01*
X100652414Y-96718380D02*
X100652414Y-95718380D01*
X101033366Y-95718380D01*
X101128604Y-95766000D01*
X101176223Y-95813619D01*
X101223842Y-95908857D01*
X101223842Y-96051714D01*
X101176223Y-96146952D01*
X101128604Y-96194571D01*
X101033366Y-96242190D01*
X100652414Y-96242190D01*
X101604795Y-95813619D02*
X101652414Y-95766000D01*
X101747652Y-95718380D01*
X101985747Y-95718380D01*
X102080985Y-95766000D01*
X102128604Y-95813619D01*
X102176223Y-95908857D01*
X102176223Y-96004095D01*
X102128604Y-96146952D01*
X101557176Y-96718380D01*
X102176223Y-96718380D01*
X103080985Y-95718380D02*
X102604795Y-95718380D01*
X102557176Y-96194571D01*
X102604795Y-96146952D01*
X102700033Y-96099333D01*
X102938128Y-96099333D01*
X103033366Y-96146952D01*
X103080985Y-96194571D01*
X103128604Y-96289809D01*
X103128604Y-96527904D01*
X103080985Y-96623142D01*
X103033366Y-96670761D01*
X102938128Y-96718380D01*
X102700033Y-96718380D01*
X102604795Y-96670761D01*
X102557176Y-96623142D01*
X123423442Y-96781880D02*
X123090109Y-96305690D01*
X122852014Y-96781880D02*
X122852014Y-95781880D01*
X123232966Y-95781880D01*
X123328204Y-95829500D01*
X123375823Y-95877119D01*
X123423442Y-95972357D01*
X123423442Y-96115214D01*
X123375823Y-96210452D01*
X123328204Y-96258071D01*
X123232966Y-96305690D01*
X122852014Y-96305690D01*
X123804395Y-95877119D02*
X123852014Y-95829500D01*
X123947252Y-95781880D01*
X124185347Y-95781880D01*
X124280585Y-95829500D01*
X124328204Y-95877119D01*
X124375823Y-95972357D01*
X124375823Y-96067595D01*
X124328204Y-96210452D01*
X123756776Y-96781880D01*
X124375823Y-96781880D01*
X125232966Y-96115214D02*
X125232966Y-96781880D01*
X124994871Y-95734261D02*
X124756776Y-96448547D01*
X125375823Y-96448547D01*
X146067542Y-96934280D02*
X145734209Y-96458090D01*
X145496114Y-96934280D02*
X145496114Y-95934280D01*
X145877066Y-95934280D01*
X145972304Y-95981900D01*
X146019923Y-96029519D01*
X146067542Y-96124757D01*
X146067542Y-96267614D01*
X146019923Y-96362852D01*
X145972304Y-96410471D01*
X145877066Y-96458090D01*
X145496114Y-96458090D01*
X146448495Y-96029519D02*
X146496114Y-95981900D01*
X146591352Y-95934280D01*
X146829447Y-95934280D01*
X146924685Y-95981900D01*
X146972304Y-96029519D01*
X147019923Y-96124757D01*
X147019923Y-96219995D01*
X146972304Y-96362852D01*
X146400876Y-96934280D01*
X147019923Y-96934280D01*
X147353257Y-95934280D02*
X147972304Y-95934280D01*
X147638971Y-96315233D01*
X147781828Y-96315233D01*
X147877066Y-96362852D01*
X147924685Y-96410471D01*
X147972304Y-96505709D01*
X147972304Y-96743804D01*
X147924685Y-96839042D01*
X147877066Y-96886661D01*
X147781828Y-96934280D01*
X147496114Y-96934280D01*
X147400876Y-96886661D01*
X147353257Y-96839042D01*
X109495580Y-105748057D02*
X109019390Y-106081390D01*
X109495580Y-106319485D02*
X108495580Y-106319485D01*
X108495580Y-105938533D01*
X108543200Y-105843295D01*
X108590819Y-105795676D01*
X108686057Y-105748057D01*
X108828914Y-105748057D01*
X108924152Y-105795676D01*
X108971771Y-105843295D01*
X109019390Y-105938533D01*
X109019390Y-106319485D01*
X108590819Y-105367104D02*
X108543200Y-105319485D01*
X108495580Y-105224247D01*
X108495580Y-104986152D01*
X108543200Y-104890914D01*
X108590819Y-104843295D01*
X108686057Y-104795676D01*
X108781295Y-104795676D01*
X108924152Y-104843295D01*
X109495580Y-105414723D01*
X109495580Y-104795676D01*
X108495580Y-104176628D02*
X108495580Y-104081390D01*
X108543200Y-103986152D01*
X108590819Y-103938533D01*
X108686057Y-103890914D01*
X108876533Y-103843295D01*
X109114628Y-103843295D01*
X109305104Y-103890914D01*
X109400342Y-103938533D01*
X109447961Y-103986152D01*
X109495580Y-104081390D01*
X109495580Y-104176628D01*
X109447961Y-104271866D01*
X109400342Y-104319485D01*
X109305104Y-104367104D01*
X109114628Y-104414723D01*
X108876533Y-104414723D01*
X108686057Y-104367104D01*
X108590819Y-104319485D01*
X108543200Y-104271866D01*
X108495580Y-104176628D01*
X121305580Y-105341657D02*
X120829390Y-105674990D01*
X121305580Y-105913085D02*
X120305580Y-105913085D01*
X120305580Y-105532133D01*
X120353200Y-105436895D01*
X120400819Y-105389276D01*
X120496057Y-105341657D01*
X120638914Y-105341657D01*
X120734152Y-105389276D01*
X120781771Y-105436895D01*
X120829390Y-105532133D01*
X120829390Y-105913085D01*
X121305580Y-104389276D02*
X121305580Y-104960704D01*
X121305580Y-104674990D02*
X120305580Y-104674990D01*
X120448438Y-104770228D01*
X120543676Y-104865466D01*
X120591295Y-104960704D01*
X121305580Y-103913085D02*
X121305580Y-103722609D01*
X121257961Y-103627371D01*
X121210342Y-103579752D01*
X121067485Y-103484514D01*
X120877009Y-103436895D01*
X120496057Y-103436895D01*
X120400819Y-103484514D01*
X120353200Y-103532133D01*
X120305580Y-103627371D01*
X120305580Y-103817847D01*
X120353200Y-103913085D01*
X120400819Y-103960704D01*
X120496057Y-104008323D01*
X120734152Y-104008323D01*
X120829390Y-103960704D01*
X120877009Y-103913085D01*
X120924628Y-103817847D01*
X120924628Y-103627371D01*
X120877009Y-103532133D01*
X120829390Y-103484514D01*
X120734152Y-103436895D01*
X142130542Y-104147880D02*
X141797209Y-103671690D01*
X141559114Y-104147880D02*
X141559114Y-103147880D01*
X141940066Y-103147880D01*
X142035304Y-103195500D01*
X142082923Y-103243119D01*
X142130542Y-103338357D01*
X142130542Y-103481214D01*
X142082923Y-103576452D01*
X142035304Y-103624071D01*
X141940066Y-103671690D01*
X141559114Y-103671690D01*
X143082923Y-104147880D02*
X142511495Y-104147880D01*
X142797209Y-104147880D02*
X142797209Y-103147880D01*
X142701971Y-103290738D01*
X142606733Y-103385976D01*
X142511495Y-103433595D01*
X143940066Y-103147880D02*
X143749590Y-103147880D01*
X143654352Y-103195500D01*
X143606733Y-103243119D01*
X143511495Y-103385976D01*
X143463876Y-103576452D01*
X143463876Y-103957404D01*
X143511495Y-104052642D01*
X143559114Y-104100261D01*
X143654352Y-104147880D01*
X143844828Y-104147880D01*
X143940066Y-104100261D01*
X143987685Y-104052642D01*
X144035304Y-103957404D01*
X144035304Y-103719309D01*
X143987685Y-103624071D01*
X143940066Y-103576452D01*
X143844828Y-103528833D01*
X143654352Y-103528833D01*
X143559114Y-103576452D01*
X143511495Y-103624071D01*
X143463876Y-103719309D01*
X104605080Y-99296457D02*
X104128890Y-99629790D01*
X104605080Y-99867885D02*
X103605080Y-99867885D01*
X103605080Y-99486933D01*
X103652700Y-99391695D01*
X103700319Y-99344076D01*
X103795557Y-99296457D01*
X103938414Y-99296457D01*
X104033652Y-99344076D01*
X104081271Y-99391695D01*
X104128890Y-99486933D01*
X104128890Y-99867885D01*
X104605080Y-98344076D02*
X104605080Y-98915504D01*
X104605080Y-98629790D02*
X103605080Y-98629790D01*
X103747938Y-98725028D01*
X103843176Y-98820266D01*
X103890795Y-98915504D01*
X103605080Y-97439314D02*
X103605080Y-97915504D01*
X104081271Y-97963123D01*
X104033652Y-97915504D01*
X103986033Y-97820266D01*
X103986033Y-97582171D01*
X104033652Y-97486933D01*
X104081271Y-97439314D01*
X104176509Y-97391695D01*
X104414604Y-97391695D01*
X104509842Y-97439314D01*
X104557461Y-97486933D01*
X104605080Y-97582171D01*
X104605080Y-97820266D01*
X104557461Y-97915504D01*
X104509842Y-97963123D01*
X128303280Y-102179357D02*
X127827090Y-102512690D01*
X128303280Y-102750785D02*
X127303280Y-102750785D01*
X127303280Y-102369833D01*
X127350900Y-102274595D01*
X127398519Y-102226976D01*
X127493757Y-102179357D01*
X127636614Y-102179357D01*
X127731852Y-102226976D01*
X127779471Y-102274595D01*
X127827090Y-102369833D01*
X127827090Y-102750785D01*
X128303280Y-101226976D02*
X128303280Y-101798404D01*
X128303280Y-101512690D02*
X127303280Y-101512690D01*
X127446138Y-101607928D01*
X127541376Y-101703166D01*
X127588995Y-101798404D01*
X127636614Y-100369833D02*
X128303280Y-100369833D01*
X127255661Y-100607928D02*
X127969947Y-100846023D01*
X127969947Y-100226976D01*
X151074380Y-102166657D02*
X150598190Y-102499990D01*
X151074380Y-102738085D02*
X150074380Y-102738085D01*
X150074380Y-102357133D01*
X150122000Y-102261895D01*
X150169619Y-102214276D01*
X150264857Y-102166657D01*
X150407714Y-102166657D01*
X150502952Y-102214276D01*
X150550571Y-102261895D01*
X150598190Y-102357133D01*
X150598190Y-102738085D01*
X151074380Y-101214276D02*
X151074380Y-101785704D01*
X151074380Y-101499990D02*
X150074380Y-101499990D01*
X150217238Y-101595228D01*
X150312476Y-101690466D01*
X150360095Y-101785704D01*
X151074380Y-100261895D02*
X151074380Y-100833323D01*
X151074380Y-100547609D02*
X150074380Y-100547609D01*
X150217238Y-100642847D01*
X150312476Y-100738085D01*
X150360095Y-100833323D01*
X116139933Y-105849680D02*
X115806600Y-105373490D01*
X115568504Y-105849680D02*
X115568504Y-104849680D01*
X115949457Y-104849680D01*
X116044695Y-104897300D01*
X116092314Y-104944919D01*
X116139933Y-105040157D01*
X116139933Y-105183014D01*
X116092314Y-105278252D01*
X116044695Y-105325871D01*
X115949457Y-105373490D01*
X115568504Y-105373490D01*
X116997076Y-104849680D02*
X116806600Y-104849680D01*
X116711361Y-104897300D01*
X116663742Y-104944919D01*
X116568504Y-105087776D01*
X116520885Y-105278252D01*
X116520885Y-105659204D01*
X116568504Y-105754442D01*
X116616123Y-105802061D01*
X116711361Y-105849680D01*
X116901838Y-105849680D01*
X116997076Y-105802061D01*
X117044695Y-105754442D01*
X117092314Y-105659204D01*
X117092314Y-105421109D01*
X117044695Y-105325871D01*
X116997076Y-105278252D01*
X116901838Y-105230633D01*
X116711361Y-105230633D01*
X116616123Y-105278252D01*
X116568504Y-105325871D01*
X116520885Y-105421109D01*
X139174480Y-102579466D02*
X138698290Y-102912800D01*
X139174480Y-103150895D02*
X138174480Y-103150895D01*
X138174480Y-102769942D01*
X138222100Y-102674704D01*
X138269719Y-102627085D01*
X138364957Y-102579466D01*
X138507814Y-102579466D01*
X138603052Y-102627085D01*
X138650671Y-102674704D01*
X138698290Y-102769942D01*
X138698290Y-103150895D01*
X138174480Y-101674704D02*
X138174480Y-102150895D01*
X138650671Y-102198514D01*
X138603052Y-102150895D01*
X138555433Y-102055657D01*
X138555433Y-101817561D01*
X138603052Y-101722323D01*
X138650671Y-101674704D01*
X138745909Y-101627085D01*
X138984004Y-101627085D01*
X139079242Y-101674704D01*
X139126861Y-101722323D01*
X139174480Y-101817561D01*
X139174480Y-102055657D01*
X139126861Y-102150895D01*
X139079242Y-102198514D01*
X160285133Y-105074980D02*
X159951800Y-104598790D01*
X159713704Y-105074980D02*
X159713704Y-104074980D01*
X160094657Y-104074980D01*
X160189895Y-104122600D01*
X160237514Y-104170219D01*
X160285133Y-104265457D01*
X160285133Y-104408314D01*
X160237514Y-104503552D01*
X160189895Y-104551171D01*
X160094657Y-104598790D01*
X159713704Y-104598790D01*
X161142276Y-104408314D02*
X161142276Y-105074980D01*
X160904180Y-104027361D02*
X160666085Y-104741647D01*
X161285133Y-104741647D01*
X114603233Y-99105980D02*
X114269900Y-98629790D01*
X114031804Y-99105980D02*
X114031804Y-98105980D01*
X114412757Y-98105980D01*
X114507995Y-98153600D01*
X114555614Y-98201219D01*
X114603233Y-98296457D01*
X114603233Y-98439314D01*
X114555614Y-98534552D01*
X114507995Y-98582171D01*
X114412757Y-98629790D01*
X114031804Y-98629790D01*
X114936566Y-98105980D02*
X115555614Y-98105980D01*
X115222280Y-98486933D01*
X115365138Y-98486933D01*
X115460376Y-98534552D01*
X115507995Y-98582171D01*
X115555614Y-98677409D01*
X115555614Y-98915504D01*
X115507995Y-99010742D01*
X115460376Y-99058361D01*
X115365138Y-99105980D01*
X115079423Y-99105980D01*
X114984185Y-99058361D01*
X114936566Y-99010742D01*
X136574233Y-99715580D02*
X136240900Y-99239390D01*
X136002804Y-99715580D02*
X136002804Y-98715580D01*
X136383757Y-98715580D01*
X136478995Y-98763200D01*
X136526614Y-98810819D01*
X136574233Y-98906057D01*
X136574233Y-99048914D01*
X136526614Y-99144152D01*
X136478995Y-99191771D01*
X136383757Y-99239390D01*
X136002804Y-99239390D01*
X136955185Y-98810819D02*
X137002804Y-98763200D01*
X137098042Y-98715580D01*
X137336138Y-98715580D01*
X137431376Y-98763200D01*
X137478995Y-98810819D01*
X137526614Y-98906057D01*
X137526614Y-99001295D01*
X137478995Y-99144152D01*
X136907566Y-99715580D01*
X137526614Y-99715580D01*
X159396133Y-100236280D02*
X159062800Y-99760090D01*
X158824704Y-100236280D02*
X158824704Y-99236280D01*
X159205657Y-99236280D01*
X159300895Y-99283900D01*
X159348514Y-99331519D01*
X159396133Y-99426757D01*
X159396133Y-99569614D01*
X159348514Y-99664852D01*
X159300895Y-99712471D01*
X159205657Y-99760090D01*
X158824704Y-99760090D01*
X160348514Y-100236280D02*
X159777085Y-100236280D01*
X160062800Y-100236280D02*
X160062800Y-99236280D01*
X159967561Y-99379138D01*
X159872323Y-99474376D01*
X159777085Y-99521995D01*
X112598271Y-111670719D02*
X112503033Y-111623100D01*
X112407795Y-111527861D01*
X112264938Y-111385004D01*
X112169700Y-111337385D01*
X112074461Y-111337385D01*
X112122080Y-111575480D02*
X112026842Y-111527861D01*
X111931604Y-111432623D01*
X111883985Y-111242147D01*
X111883985Y-110908814D01*
X111931604Y-110718338D01*
X112026842Y-110623100D01*
X112122080Y-110575480D01*
X112312557Y-110575480D01*
X112407795Y-110623100D01*
X112503033Y-110718338D01*
X112550652Y-110908814D01*
X112550652Y-111242147D01*
X112503033Y-111432623D01*
X112407795Y-111527861D01*
X112312557Y-111575480D01*
X112122080Y-111575480D01*
X112931604Y-110670719D02*
X112979223Y-110623100D01*
X113074461Y-110575480D01*
X113312557Y-110575480D01*
X113407795Y-110623100D01*
X113455414Y-110670719D01*
X113503033Y-110765957D01*
X113503033Y-110861195D01*
X113455414Y-111004052D01*
X112883985Y-111575480D01*
X113503033Y-111575480D01*
X114407795Y-110575480D02*
X113931604Y-110575480D01*
X113883985Y-111051671D01*
X113931604Y-111004052D01*
X114026842Y-110956433D01*
X114264938Y-110956433D01*
X114360176Y-111004052D01*
X114407795Y-111051671D01*
X114455414Y-111146909D01*
X114455414Y-111385004D01*
X114407795Y-111480242D01*
X114360176Y-111527861D01*
X114264938Y-111575480D01*
X114026842Y-111575480D01*
X113931604Y-111527861D01*
X113883985Y-111480242D01*
X128333571Y-111532919D02*
X128238333Y-111485300D01*
X128143095Y-111390061D01*
X128000238Y-111247204D01*
X127905000Y-111199585D01*
X127809761Y-111199585D01*
X127857380Y-111437680D02*
X127762142Y-111390061D01*
X127666904Y-111294823D01*
X127619285Y-111104347D01*
X127619285Y-110771014D01*
X127666904Y-110580538D01*
X127762142Y-110485300D01*
X127857380Y-110437680D01*
X128047857Y-110437680D01*
X128143095Y-110485300D01*
X128238333Y-110580538D01*
X128285952Y-110771014D01*
X128285952Y-111104347D01*
X128238333Y-111294823D01*
X128143095Y-111390061D01*
X128047857Y-111437680D01*
X127857380Y-111437680D01*
X128666904Y-110532919D02*
X128714523Y-110485300D01*
X128809761Y-110437680D01*
X129047857Y-110437680D01*
X129143095Y-110485300D01*
X129190714Y-110532919D01*
X129238333Y-110628157D01*
X129238333Y-110723395D01*
X129190714Y-110866252D01*
X128619285Y-111437680D01*
X129238333Y-111437680D01*
X130095476Y-110771014D02*
X130095476Y-111437680D01*
X129857380Y-110390061D02*
X129619285Y-111104347D01*
X130238333Y-111104347D01*
X151701571Y-111545619D02*
X151606333Y-111498000D01*
X151511095Y-111402761D01*
X151368238Y-111259904D01*
X151273000Y-111212285D01*
X151177761Y-111212285D01*
X151225380Y-111450380D02*
X151130142Y-111402761D01*
X151034904Y-111307523D01*
X150987285Y-111117047D01*
X150987285Y-110783714D01*
X151034904Y-110593238D01*
X151130142Y-110498000D01*
X151225380Y-110450380D01*
X151415857Y-110450380D01*
X151511095Y-110498000D01*
X151606333Y-110593238D01*
X151653952Y-110783714D01*
X151653952Y-111117047D01*
X151606333Y-111307523D01*
X151511095Y-111402761D01*
X151415857Y-111450380D01*
X151225380Y-111450380D01*
X152034904Y-110545619D02*
X152082523Y-110498000D01*
X152177761Y-110450380D01*
X152415857Y-110450380D01*
X152511095Y-110498000D01*
X152558714Y-110545619D01*
X152606333Y-110640857D01*
X152606333Y-110736095D01*
X152558714Y-110878952D01*
X151987285Y-111450380D01*
X152606333Y-111450380D01*
X152939666Y-110450380D02*
X153558714Y-110450380D01*
X153225380Y-110831333D01*
X153368238Y-110831333D01*
X153463476Y-110878952D01*
X153511095Y-110926571D01*
X153558714Y-111021809D01*
X153558714Y-111259904D01*
X153511095Y-111355142D01*
X153463476Y-111402761D01*
X153368238Y-111450380D01*
X153082523Y-111450380D01*
X152987285Y-111402761D01*
X152939666Y-111355142D01*
X116078071Y-111670719D02*
X115982833Y-111623100D01*
X115887595Y-111527861D01*
X115744738Y-111385004D01*
X115649500Y-111337385D01*
X115554261Y-111337385D01*
X115601880Y-111575480D02*
X115506642Y-111527861D01*
X115411404Y-111432623D01*
X115363785Y-111242147D01*
X115363785Y-110908814D01*
X115411404Y-110718338D01*
X115506642Y-110623100D01*
X115601880Y-110575480D01*
X115792357Y-110575480D01*
X115887595Y-110623100D01*
X115982833Y-110718338D01*
X116030452Y-110908814D01*
X116030452Y-111242147D01*
X115982833Y-111432623D01*
X115887595Y-111527861D01*
X115792357Y-111575480D01*
X115601880Y-111575480D01*
X116411404Y-110670719D02*
X116459023Y-110623100D01*
X116554261Y-110575480D01*
X116792357Y-110575480D01*
X116887595Y-110623100D01*
X116935214Y-110670719D01*
X116982833Y-110765957D01*
X116982833Y-110861195D01*
X116935214Y-111004052D01*
X116363785Y-111575480D01*
X116982833Y-111575480D01*
X117363785Y-110670719D02*
X117411404Y-110623100D01*
X117506642Y-110575480D01*
X117744738Y-110575480D01*
X117839976Y-110623100D01*
X117887595Y-110670719D01*
X117935214Y-110765957D01*
X117935214Y-110861195D01*
X117887595Y-111004052D01*
X117316166Y-111575480D01*
X117935214Y-111575480D01*
X123432819Y-108864328D02*
X123385200Y-108959566D01*
X123289961Y-109054804D01*
X123147104Y-109197661D01*
X123099485Y-109292900D01*
X123099485Y-109388138D01*
X123337580Y-109340519D02*
X123289961Y-109435757D01*
X123194723Y-109530995D01*
X123004247Y-109578614D01*
X122670914Y-109578614D01*
X122480438Y-109530995D01*
X122385200Y-109435757D01*
X122337580Y-109340519D01*
X122337580Y-109150042D01*
X122385200Y-109054804D01*
X122480438Y-108959566D01*
X122670914Y-108911947D01*
X123004247Y-108911947D01*
X123194723Y-108959566D01*
X123289961Y-109054804D01*
X123337580Y-109150042D01*
X123337580Y-109340519D01*
X122432819Y-108530995D02*
X122385200Y-108483376D01*
X122337580Y-108388138D01*
X122337580Y-108150042D01*
X122385200Y-108054804D01*
X122432819Y-108007185D01*
X122528057Y-107959566D01*
X122623295Y-107959566D01*
X122766152Y-108007185D01*
X123337580Y-108578614D01*
X123337580Y-107959566D01*
X123337580Y-107007185D02*
X123337580Y-107578614D01*
X123337580Y-107292900D02*
X122337580Y-107292900D01*
X122480438Y-107388138D01*
X122575676Y-107483376D01*
X122623295Y-107578614D01*
X148209071Y-111507519D02*
X148113833Y-111459900D01*
X148018595Y-111364661D01*
X147875738Y-111221804D01*
X147780500Y-111174185D01*
X147685261Y-111174185D01*
X147732880Y-111412280D02*
X147637642Y-111364661D01*
X147542404Y-111269423D01*
X147494785Y-111078947D01*
X147494785Y-110745614D01*
X147542404Y-110555138D01*
X147637642Y-110459900D01*
X147732880Y-110412280D01*
X147923357Y-110412280D01*
X148018595Y-110459900D01*
X148113833Y-110555138D01*
X148161452Y-110745614D01*
X148161452Y-111078947D01*
X148113833Y-111269423D01*
X148018595Y-111364661D01*
X147923357Y-111412280D01*
X147732880Y-111412280D01*
X148542404Y-110507519D02*
X148590023Y-110459900D01*
X148685261Y-110412280D01*
X148923357Y-110412280D01*
X149018595Y-110459900D01*
X149066214Y-110507519D01*
X149113833Y-110602757D01*
X149113833Y-110697995D01*
X149066214Y-110840852D01*
X148494785Y-111412280D01*
X149113833Y-111412280D01*
X149732880Y-110412280D02*
X149828119Y-110412280D01*
X149923357Y-110459900D01*
X149970976Y-110507519D01*
X150018595Y-110602757D01*
X150066214Y-110793233D01*
X150066214Y-111031328D01*
X150018595Y-111221804D01*
X149970976Y-111317042D01*
X149923357Y-111364661D01*
X149828119Y-111412280D01*
X149732880Y-111412280D01*
X149637642Y-111364661D01*
X149590023Y-111317042D01*
X149542404Y-111221804D01*
X149494785Y-111031328D01*
X149494785Y-110793233D01*
X149542404Y-110602757D01*
X149590023Y-110507519D01*
X149637642Y-110459900D01*
X149732880Y-110412280D01*
X109042271Y-111672619D02*
X108947033Y-111625000D01*
X108851795Y-111529761D01*
X108708938Y-111386904D01*
X108613700Y-111339285D01*
X108518461Y-111339285D01*
X108566080Y-111577380D02*
X108470842Y-111529761D01*
X108375604Y-111434523D01*
X108327985Y-111244047D01*
X108327985Y-110910714D01*
X108375604Y-110720238D01*
X108470842Y-110625000D01*
X108566080Y-110577380D01*
X108756557Y-110577380D01*
X108851795Y-110625000D01*
X108947033Y-110720238D01*
X108994652Y-110910714D01*
X108994652Y-111244047D01*
X108947033Y-111434523D01*
X108851795Y-111529761D01*
X108756557Y-111577380D01*
X108566080Y-111577380D01*
X109947033Y-111577380D02*
X109375604Y-111577380D01*
X109661319Y-111577380D02*
X109661319Y-110577380D01*
X109566080Y-110720238D01*
X109470842Y-110815476D01*
X109375604Y-110863095D01*
X110423223Y-111577380D02*
X110613700Y-111577380D01*
X110708938Y-111529761D01*
X110756557Y-111482142D01*
X110851795Y-111339285D01*
X110899414Y-111148809D01*
X110899414Y-110767857D01*
X110851795Y-110672619D01*
X110804176Y-110625000D01*
X110708938Y-110577380D01*
X110518461Y-110577380D01*
X110423223Y-110625000D01*
X110375604Y-110672619D01*
X110327985Y-110767857D01*
X110327985Y-111005952D01*
X110375604Y-111101190D01*
X110423223Y-111148809D01*
X110518461Y-111196428D01*
X110708938Y-111196428D01*
X110804176Y-111148809D01*
X110851795Y-111101190D01*
X110899414Y-111005952D01*
X124053671Y-99099619D02*
X123958433Y-99052000D01*
X123863195Y-98956761D01*
X123720338Y-98813904D01*
X123625100Y-98766285D01*
X123529861Y-98766285D01*
X123577480Y-99004380D02*
X123482242Y-98956761D01*
X123387004Y-98861523D01*
X123339385Y-98671047D01*
X123339385Y-98337714D01*
X123387004Y-98147238D01*
X123482242Y-98052000D01*
X123577480Y-98004380D01*
X123767957Y-98004380D01*
X123863195Y-98052000D01*
X123958433Y-98147238D01*
X124006052Y-98337714D01*
X124006052Y-98671047D01*
X123958433Y-98861523D01*
X123863195Y-98956761D01*
X123767957Y-99004380D01*
X123577480Y-99004380D01*
X124958433Y-99004380D02*
X124387004Y-99004380D01*
X124672719Y-99004380D02*
X124672719Y-98004380D01*
X124577480Y-98147238D01*
X124482242Y-98242476D01*
X124387004Y-98290095D01*
X125529861Y-98432952D02*
X125434623Y-98385333D01*
X125387004Y-98337714D01*
X125339385Y-98242476D01*
X125339385Y-98194857D01*
X125387004Y-98099619D01*
X125434623Y-98052000D01*
X125529861Y-98004380D01*
X125720338Y-98004380D01*
X125815576Y-98052000D01*
X125863195Y-98099619D01*
X125910814Y-98194857D01*
X125910814Y-98242476D01*
X125863195Y-98337714D01*
X125815576Y-98385333D01*
X125720338Y-98432952D01*
X125529861Y-98432952D01*
X125434623Y-98480571D01*
X125387004Y-98528190D01*
X125339385Y-98623428D01*
X125339385Y-98813904D01*
X125387004Y-98909142D01*
X125434623Y-98956761D01*
X125529861Y-99004380D01*
X125720338Y-99004380D01*
X125815576Y-98956761D01*
X125863195Y-98909142D01*
X125910814Y-98813904D01*
X125910814Y-98623428D01*
X125863195Y-98528190D01*
X125815576Y-98480571D01*
X125720338Y-98432952D01*
X147472471Y-99190419D02*
X147377233Y-99142800D01*
X147281995Y-99047561D01*
X147139138Y-98904704D01*
X147043900Y-98857085D01*
X146948661Y-98857085D01*
X146996280Y-99095180D02*
X146901042Y-99047561D01*
X146805804Y-98952323D01*
X146758185Y-98761847D01*
X146758185Y-98428514D01*
X146805804Y-98238038D01*
X146901042Y-98142800D01*
X146996280Y-98095180D01*
X147186757Y-98095180D01*
X147281995Y-98142800D01*
X147377233Y-98238038D01*
X147424852Y-98428514D01*
X147424852Y-98761847D01*
X147377233Y-98952323D01*
X147281995Y-99047561D01*
X147186757Y-99095180D01*
X146996280Y-99095180D01*
X148377233Y-99095180D02*
X147805804Y-99095180D01*
X148091519Y-99095180D02*
X148091519Y-98095180D01*
X147996280Y-98238038D01*
X147901042Y-98333276D01*
X147805804Y-98380895D01*
X148710566Y-98095180D02*
X149377233Y-98095180D01*
X148948661Y-99095180D01*
X105333871Y-111659919D02*
X105238633Y-111612300D01*
X105143395Y-111517061D01*
X105000538Y-111374204D01*
X104905300Y-111326585D01*
X104810061Y-111326585D01*
X104857680Y-111564680D02*
X104762442Y-111517061D01*
X104667204Y-111421823D01*
X104619585Y-111231347D01*
X104619585Y-110898014D01*
X104667204Y-110707538D01*
X104762442Y-110612300D01*
X104857680Y-110564680D01*
X105048157Y-110564680D01*
X105143395Y-110612300D01*
X105238633Y-110707538D01*
X105286252Y-110898014D01*
X105286252Y-111231347D01*
X105238633Y-111421823D01*
X105143395Y-111517061D01*
X105048157Y-111564680D01*
X104857680Y-111564680D01*
X106238633Y-111564680D02*
X105667204Y-111564680D01*
X105952919Y-111564680D02*
X105952919Y-110564680D01*
X105857680Y-110707538D01*
X105762442Y-110802776D01*
X105667204Y-110850395D01*
X107095776Y-110564680D02*
X106905300Y-110564680D01*
X106810061Y-110612300D01*
X106762442Y-110659919D01*
X106667204Y-110802776D01*
X106619585Y-110993252D01*
X106619585Y-111374204D01*
X106667204Y-111469442D01*
X106714823Y-111517061D01*
X106810061Y-111564680D01*
X107000538Y-111564680D01*
X107095776Y-111517061D01*
X107143395Y-111469442D01*
X107191014Y-111374204D01*
X107191014Y-111136109D01*
X107143395Y-111040871D01*
X107095776Y-110993252D01*
X107000538Y-110945633D01*
X106810061Y-110945633D01*
X106714823Y-110993252D01*
X106667204Y-111040871D01*
X106619585Y-111136109D01*
X127762071Y-104382819D02*
X127666833Y-104335200D01*
X127571595Y-104239961D01*
X127428738Y-104097104D01*
X127333500Y-104049485D01*
X127238261Y-104049485D01*
X127285880Y-104287580D02*
X127190642Y-104239961D01*
X127095404Y-104144723D01*
X127047785Y-103954247D01*
X127047785Y-103620914D01*
X127095404Y-103430438D01*
X127190642Y-103335200D01*
X127285880Y-103287580D01*
X127476357Y-103287580D01*
X127571595Y-103335200D01*
X127666833Y-103430438D01*
X127714452Y-103620914D01*
X127714452Y-103954247D01*
X127666833Y-104144723D01*
X127571595Y-104239961D01*
X127476357Y-104287580D01*
X127285880Y-104287580D01*
X128666833Y-104287580D02*
X128095404Y-104287580D01*
X128381119Y-104287580D02*
X128381119Y-103287580D01*
X128285880Y-103430438D01*
X128190642Y-103525676D01*
X128095404Y-103573295D01*
X129571595Y-103287580D02*
X129095404Y-103287580D01*
X129047785Y-103763771D01*
X129095404Y-103716152D01*
X129190642Y-103668533D01*
X129428738Y-103668533D01*
X129523976Y-103716152D01*
X129571595Y-103763771D01*
X129619214Y-103859009D01*
X129619214Y-104097104D01*
X129571595Y-104192342D01*
X129523976Y-104239961D01*
X129428738Y-104287580D01*
X129190642Y-104287580D01*
X129095404Y-104239961D01*
X129047785Y-104192342D01*
X150787171Y-105119419D02*
X150691933Y-105071800D01*
X150596695Y-104976561D01*
X150453838Y-104833704D01*
X150358600Y-104786085D01*
X150263361Y-104786085D01*
X150310980Y-105024180D02*
X150215742Y-104976561D01*
X150120504Y-104881323D01*
X150072885Y-104690847D01*
X150072885Y-104357514D01*
X150120504Y-104167038D01*
X150215742Y-104071800D01*
X150310980Y-104024180D01*
X150501457Y-104024180D01*
X150596695Y-104071800D01*
X150691933Y-104167038D01*
X150739552Y-104357514D01*
X150739552Y-104690847D01*
X150691933Y-104881323D01*
X150596695Y-104976561D01*
X150501457Y-105024180D01*
X150310980Y-105024180D01*
X151691933Y-105024180D02*
X151120504Y-105024180D01*
X151406219Y-105024180D02*
X151406219Y-104024180D01*
X151310980Y-104167038D01*
X151215742Y-104262276D01*
X151120504Y-104309895D01*
X152549076Y-104357514D02*
X152549076Y-105024180D01*
X152310980Y-103976561D02*
X152072885Y-104690847D01*
X152691933Y-104690847D01*
X110097819Y-102082528D02*
X110050200Y-102177766D01*
X109954961Y-102273004D01*
X109812104Y-102415861D01*
X109764485Y-102511100D01*
X109764485Y-102606338D01*
X110002580Y-102558719D02*
X109954961Y-102653957D01*
X109859723Y-102749195D01*
X109669247Y-102796814D01*
X109335914Y-102796814D01*
X109145438Y-102749195D01*
X109050200Y-102653957D01*
X109002580Y-102558719D01*
X109002580Y-102368242D01*
X109050200Y-102273004D01*
X109145438Y-102177766D01*
X109335914Y-102130147D01*
X109669247Y-102130147D01*
X109859723Y-102177766D01*
X109954961Y-102273004D01*
X110002580Y-102368242D01*
X110002580Y-102558719D01*
X110002580Y-101177766D02*
X110002580Y-101749195D01*
X110002580Y-101463480D02*
X109002580Y-101463480D01*
X109145438Y-101558719D01*
X109240676Y-101653957D01*
X109288295Y-101749195D01*
X109002580Y-100844433D02*
X109002580Y-100225385D01*
X109383533Y-100558719D01*
X109383533Y-100415861D01*
X109431152Y-100320623D01*
X109478771Y-100273004D01*
X109574009Y-100225385D01*
X109812104Y-100225385D01*
X109907342Y-100273004D01*
X109954961Y-100320623D01*
X110002580Y-100415861D01*
X110002580Y-100701576D01*
X109954961Y-100796814D01*
X109907342Y-100844433D01*
X133654871Y-104571419D02*
X133559633Y-104523800D01*
X133464395Y-104428561D01*
X133321538Y-104285704D01*
X133226300Y-104238085D01*
X133131061Y-104238085D01*
X133178680Y-104476180D02*
X133083442Y-104428561D01*
X132988204Y-104333323D01*
X132940585Y-104142847D01*
X132940585Y-103809514D01*
X132988204Y-103619038D01*
X133083442Y-103523800D01*
X133178680Y-103476180D01*
X133369157Y-103476180D01*
X133464395Y-103523800D01*
X133559633Y-103619038D01*
X133607252Y-103809514D01*
X133607252Y-104142847D01*
X133559633Y-104333323D01*
X133464395Y-104428561D01*
X133369157Y-104476180D01*
X133178680Y-104476180D01*
X134559633Y-104476180D02*
X133988204Y-104476180D01*
X134273919Y-104476180D02*
X134273919Y-103476180D01*
X134178680Y-103619038D01*
X134083442Y-103714276D01*
X133988204Y-103761895D01*
X134940585Y-103571419D02*
X134988204Y-103523800D01*
X135083442Y-103476180D01*
X135321538Y-103476180D01*
X135416776Y-103523800D01*
X135464395Y-103571419D01*
X135512014Y-103666657D01*
X135512014Y-103761895D01*
X135464395Y-103904752D01*
X134892966Y-104476180D01*
X135512014Y-104476180D01*
X156714771Y-105358819D02*
X156619533Y-105311200D01*
X156524295Y-105215961D01*
X156381438Y-105073104D01*
X156286200Y-105025485D01*
X156190961Y-105025485D01*
X156238580Y-105263580D02*
X156143342Y-105215961D01*
X156048104Y-105120723D01*
X156000485Y-104930247D01*
X156000485Y-104596914D01*
X156048104Y-104406438D01*
X156143342Y-104311200D01*
X156238580Y-104263580D01*
X156429057Y-104263580D01*
X156524295Y-104311200D01*
X156619533Y-104406438D01*
X156667152Y-104596914D01*
X156667152Y-104930247D01*
X156619533Y-105120723D01*
X156524295Y-105215961D01*
X156429057Y-105263580D01*
X156238580Y-105263580D01*
X157619533Y-105263580D02*
X157048104Y-105263580D01*
X157333819Y-105263580D02*
X157333819Y-104263580D01*
X157238580Y-104406438D01*
X157143342Y-104501676D01*
X157048104Y-104549295D01*
X158571914Y-105263580D02*
X158000485Y-105263580D01*
X158286200Y-105263580D02*
X158286200Y-104263580D01*
X158190961Y-104406438D01*
X158095723Y-104501676D01*
X158000485Y-104549295D01*
X118148171Y-101626919D02*
X118052933Y-101579300D01*
X117957695Y-101484061D01*
X117814838Y-101341204D01*
X117719600Y-101293585D01*
X117624361Y-101293585D01*
X117671980Y-101531680D02*
X117576742Y-101484061D01*
X117481504Y-101388823D01*
X117433885Y-101198347D01*
X117433885Y-100865014D01*
X117481504Y-100674538D01*
X117576742Y-100579300D01*
X117671980Y-100531680D01*
X117862457Y-100531680D01*
X117957695Y-100579300D01*
X118052933Y-100674538D01*
X118100552Y-100865014D01*
X118100552Y-101198347D01*
X118052933Y-101388823D01*
X117957695Y-101484061D01*
X117862457Y-101531680D01*
X117671980Y-101531680D01*
X119052933Y-101531680D02*
X118481504Y-101531680D01*
X118767219Y-101531680D02*
X118767219Y-100531680D01*
X118671980Y-100674538D01*
X118576742Y-100769776D01*
X118481504Y-100817395D01*
X119671980Y-100531680D02*
X119767219Y-100531680D01*
X119862457Y-100579300D01*
X119910076Y-100626919D01*
X119957695Y-100722157D01*
X120005314Y-100912633D01*
X120005314Y-101150728D01*
X119957695Y-101341204D01*
X119910076Y-101436442D01*
X119862457Y-101484061D01*
X119767219Y-101531680D01*
X119671980Y-101531680D01*
X119576742Y-101484061D01*
X119529123Y-101436442D01*
X119481504Y-101341204D01*
X119433885Y-101150728D01*
X119433885Y-100912633D01*
X119481504Y-100722157D01*
X119529123Y-100626919D01*
X119576742Y-100579300D01*
X119671980Y-100531680D01*
X141746219Y-99777538D02*
X141698600Y-99872776D01*
X141603361Y-99968014D01*
X141460504Y-100110871D01*
X141412885Y-100206109D01*
X141412885Y-100301347D01*
X141650980Y-100253728D02*
X141603361Y-100348966D01*
X141508123Y-100444204D01*
X141317647Y-100491823D01*
X140984314Y-100491823D01*
X140793838Y-100444204D01*
X140698600Y-100348966D01*
X140650980Y-100253728D01*
X140650980Y-100063252D01*
X140698600Y-99968014D01*
X140793838Y-99872776D01*
X140984314Y-99825157D01*
X141317647Y-99825157D01*
X141508123Y-99872776D01*
X141603361Y-99968014D01*
X141650980Y-100063252D01*
X141650980Y-100253728D01*
X141650980Y-99348966D02*
X141650980Y-99158490D01*
X141603361Y-99063252D01*
X141555742Y-99015633D01*
X141412885Y-98920395D01*
X141222409Y-98872776D01*
X140841457Y-98872776D01*
X140746219Y-98920395D01*
X140698600Y-98968014D01*
X140650980Y-99063252D01*
X140650980Y-99253728D01*
X140698600Y-99348966D01*
X140746219Y-99396585D01*
X140841457Y-99444204D01*
X141079552Y-99444204D01*
X141174790Y-99396585D01*
X141222409Y-99348966D01*
X141270028Y-99253728D01*
X141270028Y-99063252D01*
X141222409Y-98968014D01*
X141174790Y-98920395D01*
X141079552Y-98872776D01*
X161321761Y-96775519D02*
X161226523Y-96727900D01*
X161131285Y-96632661D01*
X160988428Y-96489804D01*
X160893190Y-96442185D01*
X160797952Y-96442185D01*
X160845571Y-96680280D02*
X160750333Y-96632661D01*
X160655095Y-96537423D01*
X160607476Y-96346947D01*
X160607476Y-96013614D01*
X160655095Y-95823138D01*
X160750333Y-95727900D01*
X160845571Y-95680280D01*
X161036047Y-95680280D01*
X161131285Y-95727900D01*
X161226523Y-95823138D01*
X161274142Y-96013614D01*
X161274142Y-96346947D01*
X161226523Y-96537423D01*
X161131285Y-96632661D01*
X161036047Y-96680280D01*
X160845571Y-96680280D01*
X161845571Y-96108852D02*
X161750333Y-96061233D01*
X161702714Y-96013614D01*
X161655095Y-95918376D01*
X161655095Y-95870757D01*
X161702714Y-95775519D01*
X161750333Y-95727900D01*
X161845571Y-95680280D01*
X162036047Y-95680280D01*
X162131285Y-95727900D01*
X162178904Y-95775519D01*
X162226523Y-95870757D01*
X162226523Y-95918376D01*
X162178904Y-96013614D01*
X162131285Y-96061233D01*
X162036047Y-96108852D01*
X161845571Y-96108852D01*
X161750333Y-96156471D01*
X161702714Y-96204090D01*
X161655095Y-96299328D01*
X161655095Y-96489804D01*
X161702714Y-96585042D01*
X161750333Y-96632661D01*
X161845571Y-96680280D01*
X162036047Y-96680280D01*
X162131285Y-96632661D01*
X162178904Y-96585042D01*
X162226523Y-96489804D01*
X162226523Y-96299328D01*
X162178904Y-96204090D01*
X162131285Y-96156471D01*
X162036047Y-96108852D01*
M02*
