G04 #@! TF.GenerationSoftware,KiCad,Pcbnew,(5.1.2)-2*
G04 #@! TF.CreationDate,2020-01-05T19:11:53-05:00*
G04 #@! TF.ProjectId,AddressableLED,41646472-6573-4736-9162-6c654c45442e,rev?*
G04 #@! TF.SameCoordinates,Original*
G04 #@! TF.FileFunction,Paste,Bot*
G04 #@! TF.FilePolarity,Positive*
%FSLAX46Y46*%
G04 Gerber Fmt 4.6, Leading zero omitted, Abs format (unit mm)*
G04 Created by KiCad (PCBNEW (5.1.2)-2) date 2020-01-05 19:11:53*
%MOMM*%
%LPD*%
G04 APERTURE LIST*
%ADD10C,0.100000*%
%ADD11C,1.100000*%
%ADD12C,0.670000*%
%ADD13C,0.980000*%
G04 APERTURE END LIST*
D10*
G36*
X178367655Y-103946924D02*
G01*
X178394350Y-103950884D01*
X178420528Y-103957441D01*
X178445938Y-103966533D01*
X178470334Y-103978072D01*
X178493482Y-103991946D01*
X178515158Y-104008022D01*
X178535154Y-104026146D01*
X178553278Y-104046142D01*
X178569354Y-104067818D01*
X178583228Y-104090966D01*
X178594767Y-104115362D01*
X178603859Y-104140772D01*
X178610416Y-104166950D01*
X178614376Y-104193645D01*
X178615700Y-104220600D01*
X178615700Y-104770600D01*
X178614376Y-104797555D01*
X178610416Y-104824250D01*
X178603859Y-104850428D01*
X178594767Y-104875838D01*
X178583228Y-104900234D01*
X178569354Y-104923382D01*
X178553278Y-104945058D01*
X178535154Y-104965054D01*
X178515158Y-104983178D01*
X178493482Y-104999254D01*
X178470334Y-105013128D01*
X178445938Y-105024667D01*
X178420528Y-105033759D01*
X178394350Y-105040316D01*
X178367655Y-105044276D01*
X178340700Y-105045600D01*
X174490700Y-105045600D01*
X174463745Y-105044276D01*
X174437050Y-105040316D01*
X174410872Y-105033759D01*
X174385462Y-105024667D01*
X174361066Y-105013128D01*
X174337918Y-104999254D01*
X174316242Y-104983178D01*
X174296246Y-104965054D01*
X174278122Y-104945058D01*
X174262046Y-104923382D01*
X174248172Y-104900234D01*
X174236633Y-104875838D01*
X174227541Y-104850428D01*
X174220984Y-104824250D01*
X174217024Y-104797555D01*
X174215700Y-104770600D01*
X174215700Y-104220600D01*
X174217024Y-104193645D01*
X174220984Y-104166950D01*
X174227541Y-104140772D01*
X174236633Y-104115362D01*
X174248172Y-104090966D01*
X174262046Y-104067818D01*
X174278122Y-104046142D01*
X174296246Y-104026146D01*
X174316242Y-104008022D01*
X174337918Y-103991946D01*
X174361066Y-103978072D01*
X174385462Y-103966533D01*
X174410872Y-103957441D01*
X174437050Y-103950884D01*
X174463745Y-103946924D01*
X174490700Y-103945600D01*
X178340700Y-103945600D01*
X178367655Y-103946924D01*
X178367655Y-103946924D01*
G37*
D11*
X176415700Y-104495600D03*
D10*
G36*
X178456218Y-102298907D02*
G01*
X178472478Y-102301318D01*
X178488423Y-102305312D01*
X178503899Y-102310850D01*
X178518759Y-102317878D01*
X178532858Y-102326329D01*
X178546061Y-102336121D01*
X178558240Y-102347160D01*
X178569279Y-102359339D01*
X178579071Y-102372542D01*
X178587522Y-102386641D01*
X178594550Y-102401501D01*
X178600088Y-102416977D01*
X178604082Y-102432922D01*
X178606493Y-102449182D01*
X178607300Y-102465600D01*
X178607300Y-103230600D01*
X178606493Y-103247018D01*
X178604082Y-103263278D01*
X178600088Y-103279223D01*
X178594550Y-103294699D01*
X178587522Y-103309559D01*
X178579071Y-103323658D01*
X178569279Y-103336861D01*
X178558240Y-103349040D01*
X178546061Y-103360079D01*
X178532858Y-103369871D01*
X178518759Y-103378322D01*
X178503899Y-103385350D01*
X178488423Y-103390888D01*
X178472478Y-103394882D01*
X178456218Y-103397293D01*
X178439800Y-103398100D01*
X178104800Y-103398100D01*
X178088382Y-103397293D01*
X178072122Y-103394882D01*
X178056177Y-103390888D01*
X178040701Y-103385350D01*
X178025841Y-103378322D01*
X178011742Y-103369871D01*
X177998539Y-103360079D01*
X177986360Y-103349040D01*
X177975321Y-103336861D01*
X177965529Y-103323658D01*
X177957078Y-103309559D01*
X177950050Y-103294699D01*
X177944512Y-103279223D01*
X177940518Y-103263278D01*
X177938107Y-103247018D01*
X177937300Y-103230600D01*
X177937300Y-102465600D01*
X177938107Y-102449182D01*
X177940518Y-102432922D01*
X177944512Y-102416977D01*
X177950050Y-102401501D01*
X177957078Y-102386641D01*
X177965529Y-102372542D01*
X177975321Y-102359339D01*
X177986360Y-102347160D01*
X177998539Y-102336121D01*
X178011742Y-102326329D01*
X178025841Y-102317878D01*
X178040701Y-102310850D01*
X178056177Y-102305312D01*
X178072122Y-102301318D01*
X178088382Y-102298907D01*
X178104800Y-102298100D01*
X178439800Y-102298100D01*
X178456218Y-102298907D01*
X178456218Y-102298907D01*
G37*
D12*
X178272300Y-102848100D03*
D10*
G36*
X178456218Y-105593907D02*
G01*
X178472478Y-105596318D01*
X178488423Y-105600312D01*
X178503899Y-105605850D01*
X178518759Y-105612878D01*
X178532858Y-105621329D01*
X178546061Y-105631121D01*
X178558240Y-105642160D01*
X178569279Y-105654339D01*
X178579071Y-105667542D01*
X178587522Y-105681641D01*
X178594550Y-105696501D01*
X178600088Y-105711977D01*
X178604082Y-105727922D01*
X178606493Y-105744182D01*
X178607300Y-105760600D01*
X178607300Y-106525600D01*
X178606493Y-106542018D01*
X178604082Y-106558278D01*
X178600088Y-106574223D01*
X178594550Y-106589699D01*
X178587522Y-106604559D01*
X178579071Y-106618658D01*
X178569279Y-106631861D01*
X178558240Y-106644040D01*
X178546061Y-106655079D01*
X178532858Y-106664871D01*
X178518759Y-106673322D01*
X178503899Y-106680350D01*
X178488423Y-106685888D01*
X178472478Y-106689882D01*
X178456218Y-106692293D01*
X178439800Y-106693100D01*
X178104800Y-106693100D01*
X178088382Y-106692293D01*
X178072122Y-106689882D01*
X178056177Y-106685888D01*
X178040701Y-106680350D01*
X178025841Y-106673322D01*
X178011742Y-106664871D01*
X177998539Y-106655079D01*
X177986360Y-106644040D01*
X177975321Y-106631861D01*
X177965529Y-106618658D01*
X177957078Y-106604559D01*
X177950050Y-106589699D01*
X177944512Y-106574223D01*
X177940518Y-106558278D01*
X177938107Y-106542018D01*
X177937300Y-106525600D01*
X177937300Y-105760600D01*
X177938107Y-105744182D01*
X177940518Y-105727922D01*
X177944512Y-105711977D01*
X177950050Y-105696501D01*
X177957078Y-105681641D01*
X177965529Y-105667542D01*
X177975321Y-105654339D01*
X177986360Y-105642160D01*
X177998539Y-105631121D01*
X178011742Y-105621329D01*
X178025841Y-105612878D01*
X178040701Y-105605850D01*
X178056177Y-105600312D01*
X178072122Y-105596318D01*
X178088382Y-105593907D01*
X178104800Y-105593100D01*
X178439800Y-105593100D01*
X178456218Y-105593907D01*
X178456218Y-105593907D01*
G37*
D12*
X178272300Y-106143100D03*
D10*
G36*
X177286218Y-102298907D02*
G01*
X177302478Y-102301318D01*
X177318423Y-102305312D01*
X177333899Y-102310850D01*
X177348759Y-102317878D01*
X177362858Y-102326329D01*
X177376061Y-102336121D01*
X177388240Y-102347160D01*
X177399279Y-102359339D01*
X177409071Y-102372542D01*
X177417522Y-102386641D01*
X177424550Y-102401501D01*
X177430088Y-102416977D01*
X177434082Y-102432922D01*
X177436493Y-102449182D01*
X177437300Y-102465600D01*
X177437300Y-103230600D01*
X177436493Y-103247018D01*
X177434082Y-103263278D01*
X177430088Y-103279223D01*
X177424550Y-103294699D01*
X177417522Y-103309559D01*
X177409071Y-103323658D01*
X177399279Y-103336861D01*
X177388240Y-103349040D01*
X177376061Y-103360079D01*
X177362858Y-103369871D01*
X177348759Y-103378322D01*
X177333899Y-103385350D01*
X177318423Y-103390888D01*
X177302478Y-103394882D01*
X177286218Y-103397293D01*
X177269800Y-103398100D01*
X176934800Y-103398100D01*
X176918382Y-103397293D01*
X176902122Y-103394882D01*
X176886177Y-103390888D01*
X176870701Y-103385350D01*
X176855841Y-103378322D01*
X176841742Y-103369871D01*
X176828539Y-103360079D01*
X176816360Y-103349040D01*
X176805321Y-103336861D01*
X176795529Y-103323658D01*
X176787078Y-103309559D01*
X176780050Y-103294699D01*
X176774512Y-103279223D01*
X176770518Y-103263278D01*
X176768107Y-103247018D01*
X176767300Y-103230600D01*
X176767300Y-102465600D01*
X176768107Y-102449182D01*
X176770518Y-102432922D01*
X176774512Y-102416977D01*
X176780050Y-102401501D01*
X176787078Y-102386641D01*
X176795529Y-102372542D01*
X176805321Y-102359339D01*
X176816360Y-102347160D01*
X176828539Y-102336121D01*
X176841742Y-102326329D01*
X176855841Y-102317878D01*
X176870701Y-102310850D01*
X176886177Y-102305312D01*
X176902122Y-102301318D01*
X176918382Y-102298907D01*
X176934800Y-102298100D01*
X177269800Y-102298100D01*
X177286218Y-102298907D01*
X177286218Y-102298907D01*
G37*
D12*
X177102300Y-102848100D03*
D10*
G36*
X177286218Y-105593907D02*
G01*
X177302478Y-105596318D01*
X177318423Y-105600312D01*
X177333899Y-105605850D01*
X177348759Y-105612878D01*
X177362858Y-105621329D01*
X177376061Y-105631121D01*
X177388240Y-105642160D01*
X177399279Y-105654339D01*
X177409071Y-105667542D01*
X177417522Y-105681641D01*
X177424550Y-105696501D01*
X177430088Y-105711977D01*
X177434082Y-105727922D01*
X177436493Y-105744182D01*
X177437300Y-105760600D01*
X177437300Y-106525600D01*
X177436493Y-106542018D01*
X177434082Y-106558278D01*
X177430088Y-106574223D01*
X177424550Y-106589699D01*
X177417522Y-106604559D01*
X177409071Y-106618658D01*
X177399279Y-106631861D01*
X177388240Y-106644040D01*
X177376061Y-106655079D01*
X177362858Y-106664871D01*
X177348759Y-106673322D01*
X177333899Y-106680350D01*
X177318423Y-106685888D01*
X177302478Y-106689882D01*
X177286218Y-106692293D01*
X177269800Y-106693100D01*
X176934800Y-106693100D01*
X176918382Y-106692293D01*
X176902122Y-106689882D01*
X176886177Y-106685888D01*
X176870701Y-106680350D01*
X176855841Y-106673322D01*
X176841742Y-106664871D01*
X176828539Y-106655079D01*
X176816360Y-106644040D01*
X176805321Y-106631861D01*
X176795529Y-106618658D01*
X176787078Y-106604559D01*
X176780050Y-106589699D01*
X176774512Y-106574223D01*
X176770518Y-106558278D01*
X176768107Y-106542018D01*
X176767300Y-106525600D01*
X176767300Y-105760600D01*
X176768107Y-105744182D01*
X176770518Y-105727922D01*
X176774512Y-105711977D01*
X176780050Y-105696501D01*
X176787078Y-105681641D01*
X176795529Y-105667542D01*
X176805321Y-105654339D01*
X176816360Y-105642160D01*
X176828539Y-105631121D01*
X176841742Y-105621329D01*
X176855841Y-105612878D01*
X176870701Y-105605850D01*
X176886177Y-105600312D01*
X176902122Y-105596318D01*
X176918382Y-105593907D01*
X176934800Y-105593100D01*
X177269800Y-105593100D01*
X177286218Y-105593907D01*
X177286218Y-105593907D01*
G37*
D12*
X177102300Y-106143100D03*
D10*
G36*
X176116218Y-102298907D02*
G01*
X176132478Y-102301318D01*
X176148423Y-102305312D01*
X176163899Y-102310850D01*
X176178759Y-102317878D01*
X176192858Y-102326329D01*
X176206061Y-102336121D01*
X176218240Y-102347160D01*
X176229279Y-102359339D01*
X176239071Y-102372542D01*
X176247522Y-102386641D01*
X176254550Y-102401501D01*
X176260088Y-102416977D01*
X176264082Y-102432922D01*
X176266493Y-102449182D01*
X176267300Y-102465600D01*
X176267300Y-103230600D01*
X176266493Y-103247018D01*
X176264082Y-103263278D01*
X176260088Y-103279223D01*
X176254550Y-103294699D01*
X176247522Y-103309559D01*
X176239071Y-103323658D01*
X176229279Y-103336861D01*
X176218240Y-103349040D01*
X176206061Y-103360079D01*
X176192858Y-103369871D01*
X176178759Y-103378322D01*
X176163899Y-103385350D01*
X176148423Y-103390888D01*
X176132478Y-103394882D01*
X176116218Y-103397293D01*
X176099800Y-103398100D01*
X175764800Y-103398100D01*
X175748382Y-103397293D01*
X175732122Y-103394882D01*
X175716177Y-103390888D01*
X175700701Y-103385350D01*
X175685841Y-103378322D01*
X175671742Y-103369871D01*
X175658539Y-103360079D01*
X175646360Y-103349040D01*
X175635321Y-103336861D01*
X175625529Y-103323658D01*
X175617078Y-103309559D01*
X175610050Y-103294699D01*
X175604512Y-103279223D01*
X175600518Y-103263278D01*
X175598107Y-103247018D01*
X175597300Y-103230600D01*
X175597300Y-102465600D01*
X175598107Y-102449182D01*
X175600518Y-102432922D01*
X175604512Y-102416977D01*
X175610050Y-102401501D01*
X175617078Y-102386641D01*
X175625529Y-102372542D01*
X175635321Y-102359339D01*
X175646360Y-102347160D01*
X175658539Y-102336121D01*
X175671742Y-102326329D01*
X175685841Y-102317878D01*
X175700701Y-102310850D01*
X175716177Y-102305312D01*
X175732122Y-102301318D01*
X175748382Y-102298907D01*
X175764800Y-102298100D01*
X176099800Y-102298100D01*
X176116218Y-102298907D01*
X176116218Y-102298907D01*
G37*
D12*
X175932300Y-102848100D03*
D10*
G36*
X176116218Y-105593907D02*
G01*
X176132478Y-105596318D01*
X176148423Y-105600312D01*
X176163899Y-105605850D01*
X176178759Y-105612878D01*
X176192858Y-105621329D01*
X176206061Y-105631121D01*
X176218240Y-105642160D01*
X176229279Y-105654339D01*
X176239071Y-105667542D01*
X176247522Y-105681641D01*
X176254550Y-105696501D01*
X176260088Y-105711977D01*
X176264082Y-105727922D01*
X176266493Y-105744182D01*
X176267300Y-105760600D01*
X176267300Y-106525600D01*
X176266493Y-106542018D01*
X176264082Y-106558278D01*
X176260088Y-106574223D01*
X176254550Y-106589699D01*
X176247522Y-106604559D01*
X176239071Y-106618658D01*
X176229279Y-106631861D01*
X176218240Y-106644040D01*
X176206061Y-106655079D01*
X176192858Y-106664871D01*
X176178759Y-106673322D01*
X176163899Y-106680350D01*
X176148423Y-106685888D01*
X176132478Y-106689882D01*
X176116218Y-106692293D01*
X176099800Y-106693100D01*
X175764800Y-106693100D01*
X175748382Y-106692293D01*
X175732122Y-106689882D01*
X175716177Y-106685888D01*
X175700701Y-106680350D01*
X175685841Y-106673322D01*
X175671742Y-106664871D01*
X175658539Y-106655079D01*
X175646360Y-106644040D01*
X175635321Y-106631861D01*
X175625529Y-106618658D01*
X175617078Y-106604559D01*
X175610050Y-106589699D01*
X175604512Y-106574223D01*
X175600518Y-106558278D01*
X175598107Y-106542018D01*
X175597300Y-106525600D01*
X175597300Y-105760600D01*
X175598107Y-105744182D01*
X175600518Y-105727922D01*
X175604512Y-105711977D01*
X175610050Y-105696501D01*
X175617078Y-105681641D01*
X175625529Y-105667542D01*
X175635321Y-105654339D01*
X175646360Y-105642160D01*
X175658539Y-105631121D01*
X175671742Y-105621329D01*
X175685841Y-105612878D01*
X175700701Y-105605850D01*
X175716177Y-105600312D01*
X175732122Y-105596318D01*
X175748382Y-105593907D01*
X175764800Y-105593100D01*
X176099800Y-105593100D01*
X176116218Y-105593907D01*
X176116218Y-105593907D01*
G37*
D12*
X175932300Y-106143100D03*
D10*
G36*
X174876314Y-102299280D02*
G01*
X174900097Y-102302808D01*
X174923420Y-102308650D01*
X174946057Y-102316750D01*
X174967792Y-102327029D01*
X174988415Y-102339390D01*
X175007726Y-102353712D01*
X175025541Y-102369859D01*
X175041688Y-102387674D01*
X175056010Y-102406985D01*
X175068371Y-102427608D01*
X175078650Y-102449343D01*
X175086750Y-102471980D01*
X175092592Y-102495303D01*
X175096120Y-102519086D01*
X175097300Y-102543100D01*
X175097300Y-103153100D01*
X175096120Y-103177114D01*
X175092592Y-103200897D01*
X175086750Y-103224220D01*
X175078650Y-103246857D01*
X175068371Y-103268592D01*
X175056010Y-103289215D01*
X175041688Y-103308526D01*
X175025541Y-103326341D01*
X175007726Y-103342488D01*
X174988415Y-103356810D01*
X174967792Y-103369171D01*
X174946057Y-103379450D01*
X174923420Y-103387550D01*
X174900097Y-103393392D01*
X174876314Y-103396920D01*
X174852300Y-103398100D01*
X174362300Y-103398100D01*
X174338286Y-103396920D01*
X174314503Y-103393392D01*
X174291180Y-103387550D01*
X174268543Y-103379450D01*
X174246808Y-103369171D01*
X174226185Y-103356810D01*
X174206874Y-103342488D01*
X174189059Y-103326341D01*
X174172912Y-103308526D01*
X174158590Y-103289215D01*
X174146229Y-103268592D01*
X174135950Y-103246857D01*
X174127850Y-103224220D01*
X174122008Y-103200897D01*
X174118480Y-103177114D01*
X174117300Y-103153100D01*
X174117300Y-102543100D01*
X174118480Y-102519086D01*
X174122008Y-102495303D01*
X174127850Y-102471980D01*
X174135950Y-102449343D01*
X174146229Y-102427608D01*
X174158590Y-102406985D01*
X174172912Y-102387674D01*
X174189059Y-102369859D01*
X174206874Y-102353712D01*
X174226185Y-102339390D01*
X174246808Y-102327029D01*
X174268543Y-102316750D01*
X174291180Y-102308650D01*
X174314503Y-102302808D01*
X174338286Y-102299280D01*
X174362300Y-102298100D01*
X174852300Y-102298100D01*
X174876314Y-102299280D01*
X174876314Y-102299280D01*
G37*
D13*
X174607300Y-102848100D03*
D10*
G36*
X174876314Y-105594280D02*
G01*
X174900097Y-105597808D01*
X174923420Y-105603650D01*
X174946057Y-105611750D01*
X174967792Y-105622029D01*
X174988415Y-105634390D01*
X175007726Y-105648712D01*
X175025541Y-105664859D01*
X175041688Y-105682674D01*
X175056010Y-105701985D01*
X175068371Y-105722608D01*
X175078650Y-105744343D01*
X175086750Y-105766980D01*
X175092592Y-105790303D01*
X175096120Y-105814086D01*
X175097300Y-105838100D01*
X175097300Y-106448100D01*
X175096120Y-106472114D01*
X175092592Y-106495897D01*
X175086750Y-106519220D01*
X175078650Y-106541857D01*
X175068371Y-106563592D01*
X175056010Y-106584215D01*
X175041688Y-106603526D01*
X175025541Y-106621341D01*
X175007726Y-106637488D01*
X174988415Y-106651810D01*
X174967792Y-106664171D01*
X174946057Y-106674450D01*
X174923420Y-106682550D01*
X174900097Y-106688392D01*
X174876314Y-106691920D01*
X174852300Y-106693100D01*
X174362300Y-106693100D01*
X174338286Y-106691920D01*
X174314503Y-106688392D01*
X174291180Y-106682550D01*
X174268543Y-106674450D01*
X174246808Y-106664171D01*
X174226185Y-106651810D01*
X174206874Y-106637488D01*
X174189059Y-106621341D01*
X174172912Y-106603526D01*
X174158590Y-106584215D01*
X174146229Y-106563592D01*
X174135950Y-106541857D01*
X174127850Y-106519220D01*
X174122008Y-106495897D01*
X174118480Y-106472114D01*
X174117300Y-106448100D01*
X174117300Y-105838100D01*
X174118480Y-105814086D01*
X174122008Y-105790303D01*
X174127850Y-105766980D01*
X174135950Y-105744343D01*
X174146229Y-105722608D01*
X174158590Y-105701985D01*
X174172912Y-105682674D01*
X174189059Y-105664859D01*
X174206874Y-105648712D01*
X174226185Y-105634390D01*
X174246808Y-105622029D01*
X174268543Y-105611750D01*
X174291180Y-105603650D01*
X174314503Y-105597808D01*
X174338286Y-105594280D01*
X174362300Y-105593100D01*
X174852300Y-105593100D01*
X174876314Y-105594280D01*
X174876314Y-105594280D01*
G37*
D13*
X174607300Y-106143100D03*
D10*
G36*
X108606555Y-103362724D02*
G01*
X108633250Y-103366684D01*
X108659428Y-103373241D01*
X108684838Y-103382333D01*
X108709234Y-103393872D01*
X108732382Y-103407746D01*
X108754058Y-103423822D01*
X108774054Y-103441946D01*
X108792178Y-103461942D01*
X108808254Y-103483618D01*
X108822128Y-103506766D01*
X108833667Y-103531162D01*
X108842759Y-103556572D01*
X108849316Y-103582750D01*
X108853276Y-103609445D01*
X108854600Y-103636400D01*
X108854600Y-104186400D01*
X108853276Y-104213355D01*
X108849316Y-104240050D01*
X108842759Y-104266228D01*
X108833667Y-104291638D01*
X108822128Y-104316034D01*
X108808254Y-104339182D01*
X108792178Y-104360858D01*
X108774054Y-104380854D01*
X108754058Y-104398978D01*
X108732382Y-104415054D01*
X108709234Y-104428928D01*
X108684838Y-104440467D01*
X108659428Y-104449559D01*
X108633250Y-104456116D01*
X108606555Y-104460076D01*
X108579600Y-104461400D01*
X104729600Y-104461400D01*
X104702645Y-104460076D01*
X104675950Y-104456116D01*
X104649772Y-104449559D01*
X104624362Y-104440467D01*
X104599966Y-104428928D01*
X104576818Y-104415054D01*
X104555142Y-104398978D01*
X104535146Y-104380854D01*
X104517022Y-104360858D01*
X104500946Y-104339182D01*
X104487072Y-104316034D01*
X104475533Y-104291638D01*
X104466441Y-104266228D01*
X104459884Y-104240050D01*
X104455924Y-104213355D01*
X104454600Y-104186400D01*
X104454600Y-103636400D01*
X104455924Y-103609445D01*
X104459884Y-103582750D01*
X104466441Y-103556572D01*
X104475533Y-103531162D01*
X104487072Y-103506766D01*
X104500946Y-103483618D01*
X104517022Y-103461942D01*
X104535146Y-103441946D01*
X104555142Y-103423822D01*
X104576818Y-103407746D01*
X104599966Y-103393872D01*
X104624362Y-103382333D01*
X104649772Y-103373241D01*
X104675950Y-103366684D01*
X104702645Y-103362724D01*
X104729600Y-103361400D01*
X108579600Y-103361400D01*
X108606555Y-103362724D01*
X108606555Y-103362724D01*
G37*
D11*
X106654600Y-103911400D03*
D10*
G36*
X108695118Y-101714707D02*
G01*
X108711378Y-101717118D01*
X108727323Y-101721112D01*
X108742799Y-101726650D01*
X108757659Y-101733678D01*
X108771758Y-101742129D01*
X108784961Y-101751921D01*
X108797140Y-101762960D01*
X108808179Y-101775139D01*
X108817971Y-101788342D01*
X108826422Y-101802441D01*
X108833450Y-101817301D01*
X108838988Y-101832777D01*
X108842982Y-101848722D01*
X108845393Y-101864982D01*
X108846200Y-101881400D01*
X108846200Y-102646400D01*
X108845393Y-102662818D01*
X108842982Y-102679078D01*
X108838988Y-102695023D01*
X108833450Y-102710499D01*
X108826422Y-102725359D01*
X108817971Y-102739458D01*
X108808179Y-102752661D01*
X108797140Y-102764840D01*
X108784961Y-102775879D01*
X108771758Y-102785671D01*
X108757659Y-102794122D01*
X108742799Y-102801150D01*
X108727323Y-102806688D01*
X108711378Y-102810682D01*
X108695118Y-102813093D01*
X108678700Y-102813900D01*
X108343700Y-102813900D01*
X108327282Y-102813093D01*
X108311022Y-102810682D01*
X108295077Y-102806688D01*
X108279601Y-102801150D01*
X108264741Y-102794122D01*
X108250642Y-102785671D01*
X108237439Y-102775879D01*
X108225260Y-102764840D01*
X108214221Y-102752661D01*
X108204429Y-102739458D01*
X108195978Y-102725359D01*
X108188950Y-102710499D01*
X108183412Y-102695023D01*
X108179418Y-102679078D01*
X108177007Y-102662818D01*
X108176200Y-102646400D01*
X108176200Y-101881400D01*
X108177007Y-101864982D01*
X108179418Y-101848722D01*
X108183412Y-101832777D01*
X108188950Y-101817301D01*
X108195978Y-101802441D01*
X108204429Y-101788342D01*
X108214221Y-101775139D01*
X108225260Y-101762960D01*
X108237439Y-101751921D01*
X108250642Y-101742129D01*
X108264741Y-101733678D01*
X108279601Y-101726650D01*
X108295077Y-101721112D01*
X108311022Y-101717118D01*
X108327282Y-101714707D01*
X108343700Y-101713900D01*
X108678700Y-101713900D01*
X108695118Y-101714707D01*
X108695118Y-101714707D01*
G37*
D12*
X108511200Y-102263900D03*
D10*
G36*
X108695118Y-105009707D02*
G01*
X108711378Y-105012118D01*
X108727323Y-105016112D01*
X108742799Y-105021650D01*
X108757659Y-105028678D01*
X108771758Y-105037129D01*
X108784961Y-105046921D01*
X108797140Y-105057960D01*
X108808179Y-105070139D01*
X108817971Y-105083342D01*
X108826422Y-105097441D01*
X108833450Y-105112301D01*
X108838988Y-105127777D01*
X108842982Y-105143722D01*
X108845393Y-105159982D01*
X108846200Y-105176400D01*
X108846200Y-105941400D01*
X108845393Y-105957818D01*
X108842982Y-105974078D01*
X108838988Y-105990023D01*
X108833450Y-106005499D01*
X108826422Y-106020359D01*
X108817971Y-106034458D01*
X108808179Y-106047661D01*
X108797140Y-106059840D01*
X108784961Y-106070879D01*
X108771758Y-106080671D01*
X108757659Y-106089122D01*
X108742799Y-106096150D01*
X108727323Y-106101688D01*
X108711378Y-106105682D01*
X108695118Y-106108093D01*
X108678700Y-106108900D01*
X108343700Y-106108900D01*
X108327282Y-106108093D01*
X108311022Y-106105682D01*
X108295077Y-106101688D01*
X108279601Y-106096150D01*
X108264741Y-106089122D01*
X108250642Y-106080671D01*
X108237439Y-106070879D01*
X108225260Y-106059840D01*
X108214221Y-106047661D01*
X108204429Y-106034458D01*
X108195978Y-106020359D01*
X108188950Y-106005499D01*
X108183412Y-105990023D01*
X108179418Y-105974078D01*
X108177007Y-105957818D01*
X108176200Y-105941400D01*
X108176200Y-105176400D01*
X108177007Y-105159982D01*
X108179418Y-105143722D01*
X108183412Y-105127777D01*
X108188950Y-105112301D01*
X108195978Y-105097441D01*
X108204429Y-105083342D01*
X108214221Y-105070139D01*
X108225260Y-105057960D01*
X108237439Y-105046921D01*
X108250642Y-105037129D01*
X108264741Y-105028678D01*
X108279601Y-105021650D01*
X108295077Y-105016112D01*
X108311022Y-105012118D01*
X108327282Y-105009707D01*
X108343700Y-105008900D01*
X108678700Y-105008900D01*
X108695118Y-105009707D01*
X108695118Y-105009707D01*
G37*
D12*
X108511200Y-105558900D03*
D10*
G36*
X107525118Y-101714707D02*
G01*
X107541378Y-101717118D01*
X107557323Y-101721112D01*
X107572799Y-101726650D01*
X107587659Y-101733678D01*
X107601758Y-101742129D01*
X107614961Y-101751921D01*
X107627140Y-101762960D01*
X107638179Y-101775139D01*
X107647971Y-101788342D01*
X107656422Y-101802441D01*
X107663450Y-101817301D01*
X107668988Y-101832777D01*
X107672982Y-101848722D01*
X107675393Y-101864982D01*
X107676200Y-101881400D01*
X107676200Y-102646400D01*
X107675393Y-102662818D01*
X107672982Y-102679078D01*
X107668988Y-102695023D01*
X107663450Y-102710499D01*
X107656422Y-102725359D01*
X107647971Y-102739458D01*
X107638179Y-102752661D01*
X107627140Y-102764840D01*
X107614961Y-102775879D01*
X107601758Y-102785671D01*
X107587659Y-102794122D01*
X107572799Y-102801150D01*
X107557323Y-102806688D01*
X107541378Y-102810682D01*
X107525118Y-102813093D01*
X107508700Y-102813900D01*
X107173700Y-102813900D01*
X107157282Y-102813093D01*
X107141022Y-102810682D01*
X107125077Y-102806688D01*
X107109601Y-102801150D01*
X107094741Y-102794122D01*
X107080642Y-102785671D01*
X107067439Y-102775879D01*
X107055260Y-102764840D01*
X107044221Y-102752661D01*
X107034429Y-102739458D01*
X107025978Y-102725359D01*
X107018950Y-102710499D01*
X107013412Y-102695023D01*
X107009418Y-102679078D01*
X107007007Y-102662818D01*
X107006200Y-102646400D01*
X107006200Y-101881400D01*
X107007007Y-101864982D01*
X107009418Y-101848722D01*
X107013412Y-101832777D01*
X107018950Y-101817301D01*
X107025978Y-101802441D01*
X107034429Y-101788342D01*
X107044221Y-101775139D01*
X107055260Y-101762960D01*
X107067439Y-101751921D01*
X107080642Y-101742129D01*
X107094741Y-101733678D01*
X107109601Y-101726650D01*
X107125077Y-101721112D01*
X107141022Y-101717118D01*
X107157282Y-101714707D01*
X107173700Y-101713900D01*
X107508700Y-101713900D01*
X107525118Y-101714707D01*
X107525118Y-101714707D01*
G37*
D12*
X107341200Y-102263900D03*
D10*
G36*
X107525118Y-105009707D02*
G01*
X107541378Y-105012118D01*
X107557323Y-105016112D01*
X107572799Y-105021650D01*
X107587659Y-105028678D01*
X107601758Y-105037129D01*
X107614961Y-105046921D01*
X107627140Y-105057960D01*
X107638179Y-105070139D01*
X107647971Y-105083342D01*
X107656422Y-105097441D01*
X107663450Y-105112301D01*
X107668988Y-105127777D01*
X107672982Y-105143722D01*
X107675393Y-105159982D01*
X107676200Y-105176400D01*
X107676200Y-105941400D01*
X107675393Y-105957818D01*
X107672982Y-105974078D01*
X107668988Y-105990023D01*
X107663450Y-106005499D01*
X107656422Y-106020359D01*
X107647971Y-106034458D01*
X107638179Y-106047661D01*
X107627140Y-106059840D01*
X107614961Y-106070879D01*
X107601758Y-106080671D01*
X107587659Y-106089122D01*
X107572799Y-106096150D01*
X107557323Y-106101688D01*
X107541378Y-106105682D01*
X107525118Y-106108093D01*
X107508700Y-106108900D01*
X107173700Y-106108900D01*
X107157282Y-106108093D01*
X107141022Y-106105682D01*
X107125077Y-106101688D01*
X107109601Y-106096150D01*
X107094741Y-106089122D01*
X107080642Y-106080671D01*
X107067439Y-106070879D01*
X107055260Y-106059840D01*
X107044221Y-106047661D01*
X107034429Y-106034458D01*
X107025978Y-106020359D01*
X107018950Y-106005499D01*
X107013412Y-105990023D01*
X107009418Y-105974078D01*
X107007007Y-105957818D01*
X107006200Y-105941400D01*
X107006200Y-105176400D01*
X107007007Y-105159982D01*
X107009418Y-105143722D01*
X107013412Y-105127777D01*
X107018950Y-105112301D01*
X107025978Y-105097441D01*
X107034429Y-105083342D01*
X107044221Y-105070139D01*
X107055260Y-105057960D01*
X107067439Y-105046921D01*
X107080642Y-105037129D01*
X107094741Y-105028678D01*
X107109601Y-105021650D01*
X107125077Y-105016112D01*
X107141022Y-105012118D01*
X107157282Y-105009707D01*
X107173700Y-105008900D01*
X107508700Y-105008900D01*
X107525118Y-105009707D01*
X107525118Y-105009707D01*
G37*
D12*
X107341200Y-105558900D03*
D10*
G36*
X106355118Y-101714707D02*
G01*
X106371378Y-101717118D01*
X106387323Y-101721112D01*
X106402799Y-101726650D01*
X106417659Y-101733678D01*
X106431758Y-101742129D01*
X106444961Y-101751921D01*
X106457140Y-101762960D01*
X106468179Y-101775139D01*
X106477971Y-101788342D01*
X106486422Y-101802441D01*
X106493450Y-101817301D01*
X106498988Y-101832777D01*
X106502982Y-101848722D01*
X106505393Y-101864982D01*
X106506200Y-101881400D01*
X106506200Y-102646400D01*
X106505393Y-102662818D01*
X106502982Y-102679078D01*
X106498988Y-102695023D01*
X106493450Y-102710499D01*
X106486422Y-102725359D01*
X106477971Y-102739458D01*
X106468179Y-102752661D01*
X106457140Y-102764840D01*
X106444961Y-102775879D01*
X106431758Y-102785671D01*
X106417659Y-102794122D01*
X106402799Y-102801150D01*
X106387323Y-102806688D01*
X106371378Y-102810682D01*
X106355118Y-102813093D01*
X106338700Y-102813900D01*
X106003700Y-102813900D01*
X105987282Y-102813093D01*
X105971022Y-102810682D01*
X105955077Y-102806688D01*
X105939601Y-102801150D01*
X105924741Y-102794122D01*
X105910642Y-102785671D01*
X105897439Y-102775879D01*
X105885260Y-102764840D01*
X105874221Y-102752661D01*
X105864429Y-102739458D01*
X105855978Y-102725359D01*
X105848950Y-102710499D01*
X105843412Y-102695023D01*
X105839418Y-102679078D01*
X105837007Y-102662818D01*
X105836200Y-102646400D01*
X105836200Y-101881400D01*
X105837007Y-101864982D01*
X105839418Y-101848722D01*
X105843412Y-101832777D01*
X105848950Y-101817301D01*
X105855978Y-101802441D01*
X105864429Y-101788342D01*
X105874221Y-101775139D01*
X105885260Y-101762960D01*
X105897439Y-101751921D01*
X105910642Y-101742129D01*
X105924741Y-101733678D01*
X105939601Y-101726650D01*
X105955077Y-101721112D01*
X105971022Y-101717118D01*
X105987282Y-101714707D01*
X106003700Y-101713900D01*
X106338700Y-101713900D01*
X106355118Y-101714707D01*
X106355118Y-101714707D01*
G37*
D12*
X106171200Y-102263900D03*
D10*
G36*
X106355118Y-105009707D02*
G01*
X106371378Y-105012118D01*
X106387323Y-105016112D01*
X106402799Y-105021650D01*
X106417659Y-105028678D01*
X106431758Y-105037129D01*
X106444961Y-105046921D01*
X106457140Y-105057960D01*
X106468179Y-105070139D01*
X106477971Y-105083342D01*
X106486422Y-105097441D01*
X106493450Y-105112301D01*
X106498988Y-105127777D01*
X106502982Y-105143722D01*
X106505393Y-105159982D01*
X106506200Y-105176400D01*
X106506200Y-105941400D01*
X106505393Y-105957818D01*
X106502982Y-105974078D01*
X106498988Y-105990023D01*
X106493450Y-106005499D01*
X106486422Y-106020359D01*
X106477971Y-106034458D01*
X106468179Y-106047661D01*
X106457140Y-106059840D01*
X106444961Y-106070879D01*
X106431758Y-106080671D01*
X106417659Y-106089122D01*
X106402799Y-106096150D01*
X106387323Y-106101688D01*
X106371378Y-106105682D01*
X106355118Y-106108093D01*
X106338700Y-106108900D01*
X106003700Y-106108900D01*
X105987282Y-106108093D01*
X105971022Y-106105682D01*
X105955077Y-106101688D01*
X105939601Y-106096150D01*
X105924741Y-106089122D01*
X105910642Y-106080671D01*
X105897439Y-106070879D01*
X105885260Y-106059840D01*
X105874221Y-106047661D01*
X105864429Y-106034458D01*
X105855978Y-106020359D01*
X105848950Y-106005499D01*
X105843412Y-105990023D01*
X105839418Y-105974078D01*
X105837007Y-105957818D01*
X105836200Y-105941400D01*
X105836200Y-105176400D01*
X105837007Y-105159982D01*
X105839418Y-105143722D01*
X105843412Y-105127777D01*
X105848950Y-105112301D01*
X105855978Y-105097441D01*
X105864429Y-105083342D01*
X105874221Y-105070139D01*
X105885260Y-105057960D01*
X105897439Y-105046921D01*
X105910642Y-105037129D01*
X105924741Y-105028678D01*
X105939601Y-105021650D01*
X105955077Y-105016112D01*
X105971022Y-105012118D01*
X105987282Y-105009707D01*
X106003700Y-105008900D01*
X106338700Y-105008900D01*
X106355118Y-105009707D01*
X106355118Y-105009707D01*
G37*
D12*
X106171200Y-105558900D03*
D10*
G36*
X105115214Y-101715080D02*
G01*
X105138997Y-101718608D01*
X105162320Y-101724450D01*
X105184957Y-101732550D01*
X105206692Y-101742829D01*
X105227315Y-101755190D01*
X105246626Y-101769512D01*
X105264441Y-101785659D01*
X105280588Y-101803474D01*
X105294910Y-101822785D01*
X105307271Y-101843408D01*
X105317550Y-101865143D01*
X105325650Y-101887780D01*
X105331492Y-101911103D01*
X105335020Y-101934886D01*
X105336200Y-101958900D01*
X105336200Y-102568900D01*
X105335020Y-102592914D01*
X105331492Y-102616697D01*
X105325650Y-102640020D01*
X105317550Y-102662657D01*
X105307271Y-102684392D01*
X105294910Y-102705015D01*
X105280588Y-102724326D01*
X105264441Y-102742141D01*
X105246626Y-102758288D01*
X105227315Y-102772610D01*
X105206692Y-102784971D01*
X105184957Y-102795250D01*
X105162320Y-102803350D01*
X105138997Y-102809192D01*
X105115214Y-102812720D01*
X105091200Y-102813900D01*
X104601200Y-102813900D01*
X104577186Y-102812720D01*
X104553403Y-102809192D01*
X104530080Y-102803350D01*
X104507443Y-102795250D01*
X104485708Y-102784971D01*
X104465085Y-102772610D01*
X104445774Y-102758288D01*
X104427959Y-102742141D01*
X104411812Y-102724326D01*
X104397490Y-102705015D01*
X104385129Y-102684392D01*
X104374850Y-102662657D01*
X104366750Y-102640020D01*
X104360908Y-102616697D01*
X104357380Y-102592914D01*
X104356200Y-102568900D01*
X104356200Y-101958900D01*
X104357380Y-101934886D01*
X104360908Y-101911103D01*
X104366750Y-101887780D01*
X104374850Y-101865143D01*
X104385129Y-101843408D01*
X104397490Y-101822785D01*
X104411812Y-101803474D01*
X104427959Y-101785659D01*
X104445774Y-101769512D01*
X104465085Y-101755190D01*
X104485708Y-101742829D01*
X104507443Y-101732550D01*
X104530080Y-101724450D01*
X104553403Y-101718608D01*
X104577186Y-101715080D01*
X104601200Y-101713900D01*
X105091200Y-101713900D01*
X105115214Y-101715080D01*
X105115214Y-101715080D01*
G37*
D13*
X104846200Y-102263900D03*
D10*
G36*
X105115214Y-105010080D02*
G01*
X105138997Y-105013608D01*
X105162320Y-105019450D01*
X105184957Y-105027550D01*
X105206692Y-105037829D01*
X105227315Y-105050190D01*
X105246626Y-105064512D01*
X105264441Y-105080659D01*
X105280588Y-105098474D01*
X105294910Y-105117785D01*
X105307271Y-105138408D01*
X105317550Y-105160143D01*
X105325650Y-105182780D01*
X105331492Y-105206103D01*
X105335020Y-105229886D01*
X105336200Y-105253900D01*
X105336200Y-105863900D01*
X105335020Y-105887914D01*
X105331492Y-105911697D01*
X105325650Y-105935020D01*
X105317550Y-105957657D01*
X105307271Y-105979392D01*
X105294910Y-106000015D01*
X105280588Y-106019326D01*
X105264441Y-106037141D01*
X105246626Y-106053288D01*
X105227315Y-106067610D01*
X105206692Y-106079971D01*
X105184957Y-106090250D01*
X105162320Y-106098350D01*
X105138997Y-106104192D01*
X105115214Y-106107720D01*
X105091200Y-106108900D01*
X104601200Y-106108900D01*
X104577186Y-106107720D01*
X104553403Y-106104192D01*
X104530080Y-106098350D01*
X104507443Y-106090250D01*
X104485708Y-106079971D01*
X104465085Y-106067610D01*
X104445774Y-106053288D01*
X104427959Y-106037141D01*
X104411812Y-106019326D01*
X104397490Y-106000015D01*
X104385129Y-105979392D01*
X104374850Y-105957657D01*
X104366750Y-105935020D01*
X104360908Y-105911697D01*
X104357380Y-105887914D01*
X104356200Y-105863900D01*
X104356200Y-105253900D01*
X104357380Y-105229886D01*
X104360908Y-105206103D01*
X104366750Y-105182780D01*
X104374850Y-105160143D01*
X104385129Y-105138408D01*
X104397490Y-105117785D01*
X104411812Y-105098474D01*
X104427959Y-105080659D01*
X104445774Y-105064512D01*
X104465085Y-105050190D01*
X104485708Y-105037829D01*
X104507443Y-105027550D01*
X104530080Y-105019450D01*
X104553403Y-105013608D01*
X104577186Y-105010080D01*
X104601200Y-105008900D01*
X105091200Y-105008900D01*
X105115214Y-105010080D01*
X105115214Y-105010080D01*
G37*
D13*
X104846200Y-105558900D03*
D10*
G36*
X131606555Y-103362724D02*
G01*
X131633250Y-103366684D01*
X131659428Y-103373241D01*
X131684838Y-103382333D01*
X131709234Y-103393872D01*
X131732382Y-103407746D01*
X131754058Y-103423822D01*
X131774054Y-103441946D01*
X131792178Y-103461942D01*
X131808254Y-103483618D01*
X131822128Y-103506766D01*
X131833667Y-103531162D01*
X131842759Y-103556572D01*
X131849316Y-103582750D01*
X131853276Y-103609445D01*
X131854600Y-103636400D01*
X131854600Y-104186400D01*
X131853276Y-104213355D01*
X131849316Y-104240050D01*
X131842759Y-104266228D01*
X131833667Y-104291638D01*
X131822128Y-104316034D01*
X131808254Y-104339182D01*
X131792178Y-104360858D01*
X131774054Y-104380854D01*
X131754058Y-104398978D01*
X131732382Y-104415054D01*
X131709234Y-104428928D01*
X131684838Y-104440467D01*
X131659428Y-104449559D01*
X131633250Y-104456116D01*
X131606555Y-104460076D01*
X131579600Y-104461400D01*
X127729600Y-104461400D01*
X127702645Y-104460076D01*
X127675950Y-104456116D01*
X127649772Y-104449559D01*
X127624362Y-104440467D01*
X127599966Y-104428928D01*
X127576818Y-104415054D01*
X127555142Y-104398978D01*
X127535146Y-104380854D01*
X127517022Y-104360858D01*
X127500946Y-104339182D01*
X127487072Y-104316034D01*
X127475533Y-104291638D01*
X127466441Y-104266228D01*
X127459884Y-104240050D01*
X127455924Y-104213355D01*
X127454600Y-104186400D01*
X127454600Y-103636400D01*
X127455924Y-103609445D01*
X127459884Y-103582750D01*
X127466441Y-103556572D01*
X127475533Y-103531162D01*
X127487072Y-103506766D01*
X127500946Y-103483618D01*
X127517022Y-103461942D01*
X127535146Y-103441946D01*
X127555142Y-103423822D01*
X127576818Y-103407746D01*
X127599966Y-103393872D01*
X127624362Y-103382333D01*
X127649772Y-103373241D01*
X127675950Y-103366684D01*
X127702645Y-103362724D01*
X127729600Y-103361400D01*
X131579600Y-103361400D01*
X131606555Y-103362724D01*
X131606555Y-103362724D01*
G37*
D11*
X129654600Y-103911400D03*
D10*
G36*
X131695118Y-101714707D02*
G01*
X131711378Y-101717118D01*
X131727323Y-101721112D01*
X131742799Y-101726650D01*
X131757659Y-101733678D01*
X131771758Y-101742129D01*
X131784961Y-101751921D01*
X131797140Y-101762960D01*
X131808179Y-101775139D01*
X131817971Y-101788342D01*
X131826422Y-101802441D01*
X131833450Y-101817301D01*
X131838988Y-101832777D01*
X131842982Y-101848722D01*
X131845393Y-101864982D01*
X131846200Y-101881400D01*
X131846200Y-102646400D01*
X131845393Y-102662818D01*
X131842982Y-102679078D01*
X131838988Y-102695023D01*
X131833450Y-102710499D01*
X131826422Y-102725359D01*
X131817971Y-102739458D01*
X131808179Y-102752661D01*
X131797140Y-102764840D01*
X131784961Y-102775879D01*
X131771758Y-102785671D01*
X131757659Y-102794122D01*
X131742799Y-102801150D01*
X131727323Y-102806688D01*
X131711378Y-102810682D01*
X131695118Y-102813093D01*
X131678700Y-102813900D01*
X131343700Y-102813900D01*
X131327282Y-102813093D01*
X131311022Y-102810682D01*
X131295077Y-102806688D01*
X131279601Y-102801150D01*
X131264741Y-102794122D01*
X131250642Y-102785671D01*
X131237439Y-102775879D01*
X131225260Y-102764840D01*
X131214221Y-102752661D01*
X131204429Y-102739458D01*
X131195978Y-102725359D01*
X131188950Y-102710499D01*
X131183412Y-102695023D01*
X131179418Y-102679078D01*
X131177007Y-102662818D01*
X131176200Y-102646400D01*
X131176200Y-101881400D01*
X131177007Y-101864982D01*
X131179418Y-101848722D01*
X131183412Y-101832777D01*
X131188950Y-101817301D01*
X131195978Y-101802441D01*
X131204429Y-101788342D01*
X131214221Y-101775139D01*
X131225260Y-101762960D01*
X131237439Y-101751921D01*
X131250642Y-101742129D01*
X131264741Y-101733678D01*
X131279601Y-101726650D01*
X131295077Y-101721112D01*
X131311022Y-101717118D01*
X131327282Y-101714707D01*
X131343700Y-101713900D01*
X131678700Y-101713900D01*
X131695118Y-101714707D01*
X131695118Y-101714707D01*
G37*
D12*
X131511200Y-102263900D03*
D10*
G36*
X131695118Y-105009707D02*
G01*
X131711378Y-105012118D01*
X131727323Y-105016112D01*
X131742799Y-105021650D01*
X131757659Y-105028678D01*
X131771758Y-105037129D01*
X131784961Y-105046921D01*
X131797140Y-105057960D01*
X131808179Y-105070139D01*
X131817971Y-105083342D01*
X131826422Y-105097441D01*
X131833450Y-105112301D01*
X131838988Y-105127777D01*
X131842982Y-105143722D01*
X131845393Y-105159982D01*
X131846200Y-105176400D01*
X131846200Y-105941400D01*
X131845393Y-105957818D01*
X131842982Y-105974078D01*
X131838988Y-105990023D01*
X131833450Y-106005499D01*
X131826422Y-106020359D01*
X131817971Y-106034458D01*
X131808179Y-106047661D01*
X131797140Y-106059840D01*
X131784961Y-106070879D01*
X131771758Y-106080671D01*
X131757659Y-106089122D01*
X131742799Y-106096150D01*
X131727323Y-106101688D01*
X131711378Y-106105682D01*
X131695118Y-106108093D01*
X131678700Y-106108900D01*
X131343700Y-106108900D01*
X131327282Y-106108093D01*
X131311022Y-106105682D01*
X131295077Y-106101688D01*
X131279601Y-106096150D01*
X131264741Y-106089122D01*
X131250642Y-106080671D01*
X131237439Y-106070879D01*
X131225260Y-106059840D01*
X131214221Y-106047661D01*
X131204429Y-106034458D01*
X131195978Y-106020359D01*
X131188950Y-106005499D01*
X131183412Y-105990023D01*
X131179418Y-105974078D01*
X131177007Y-105957818D01*
X131176200Y-105941400D01*
X131176200Y-105176400D01*
X131177007Y-105159982D01*
X131179418Y-105143722D01*
X131183412Y-105127777D01*
X131188950Y-105112301D01*
X131195978Y-105097441D01*
X131204429Y-105083342D01*
X131214221Y-105070139D01*
X131225260Y-105057960D01*
X131237439Y-105046921D01*
X131250642Y-105037129D01*
X131264741Y-105028678D01*
X131279601Y-105021650D01*
X131295077Y-105016112D01*
X131311022Y-105012118D01*
X131327282Y-105009707D01*
X131343700Y-105008900D01*
X131678700Y-105008900D01*
X131695118Y-105009707D01*
X131695118Y-105009707D01*
G37*
D12*
X131511200Y-105558900D03*
D10*
G36*
X130525118Y-101714707D02*
G01*
X130541378Y-101717118D01*
X130557323Y-101721112D01*
X130572799Y-101726650D01*
X130587659Y-101733678D01*
X130601758Y-101742129D01*
X130614961Y-101751921D01*
X130627140Y-101762960D01*
X130638179Y-101775139D01*
X130647971Y-101788342D01*
X130656422Y-101802441D01*
X130663450Y-101817301D01*
X130668988Y-101832777D01*
X130672982Y-101848722D01*
X130675393Y-101864982D01*
X130676200Y-101881400D01*
X130676200Y-102646400D01*
X130675393Y-102662818D01*
X130672982Y-102679078D01*
X130668988Y-102695023D01*
X130663450Y-102710499D01*
X130656422Y-102725359D01*
X130647971Y-102739458D01*
X130638179Y-102752661D01*
X130627140Y-102764840D01*
X130614961Y-102775879D01*
X130601758Y-102785671D01*
X130587659Y-102794122D01*
X130572799Y-102801150D01*
X130557323Y-102806688D01*
X130541378Y-102810682D01*
X130525118Y-102813093D01*
X130508700Y-102813900D01*
X130173700Y-102813900D01*
X130157282Y-102813093D01*
X130141022Y-102810682D01*
X130125077Y-102806688D01*
X130109601Y-102801150D01*
X130094741Y-102794122D01*
X130080642Y-102785671D01*
X130067439Y-102775879D01*
X130055260Y-102764840D01*
X130044221Y-102752661D01*
X130034429Y-102739458D01*
X130025978Y-102725359D01*
X130018950Y-102710499D01*
X130013412Y-102695023D01*
X130009418Y-102679078D01*
X130007007Y-102662818D01*
X130006200Y-102646400D01*
X130006200Y-101881400D01*
X130007007Y-101864982D01*
X130009418Y-101848722D01*
X130013412Y-101832777D01*
X130018950Y-101817301D01*
X130025978Y-101802441D01*
X130034429Y-101788342D01*
X130044221Y-101775139D01*
X130055260Y-101762960D01*
X130067439Y-101751921D01*
X130080642Y-101742129D01*
X130094741Y-101733678D01*
X130109601Y-101726650D01*
X130125077Y-101721112D01*
X130141022Y-101717118D01*
X130157282Y-101714707D01*
X130173700Y-101713900D01*
X130508700Y-101713900D01*
X130525118Y-101714707D01*
X130525118Y-101714707D01*
G37*
D12*
X130341200Y-102263900D03*
D10*
G36*
X130525118Y-105009707D02*
G01*
X130541378Y-105012118D01*
X130557323Y-105016112D01*
X130572799Y-105021650D01*
X130587659Y-105028678D01*
X130601758Y-105037129D01*
X130614961Y-105046921D01*
X130627140Y-105057960D01*
X130638179Y-105070139D01*
X130647971Y-105083342D01*
X130656422Y-105097441D01*
X130663450Y-105112301D01*
X130668988Y-105127777D01*
X130672982Y-105143722D01*
X130675393Y-105159982D01*
X130676200Y-105176400D01*
X130676200Y-105941400D01*
X130675393Y-105957818D01*
X130672982Y-105974078D01*
X130668988Y-105990023D01*
X130663450Y-106005499D01*
X130656422Y-106020359D01*
X130647971Y-106034458D01*
X130638179Y-106047661D01*
X130627140Y-106059840D01*
X130614961Y-106070879D01*
X130601758Y-106080671D01*
X130587659Y-106089122D01*
X130572799Y-106096150D01*
X130557323Y-106101688D01*
X130541378Y-106105682D01*
X130525118Y-106108093D01*
X130508700Y-106108900D01*
X130173700Y-106108900D01*
X130157282Y-106108093D01*
X130141022Y-106105682D01*
X130125077Y-106101688D01*
X130109601Y-106096150D01*
X130094741Y-106089122D01*
X130080642Y-106080671D01*
X130067439Y-106070879D01*
X130055260Y-106059840D01*
X130044221Y-106047661D01*
X130034429Y-106034458D01*
X130025978Y-106020359D01*
X130018950Y-106005499D01*
X130013412Y-105990023D01*
X130009418Y-105974078D01*
X130007007Y-105957818D01*
X130006200Y-105941400D01*
X130006200Y-105176400D01*
X130007007Y-105159982D01*
X130009418Y-105143722D01*
X130013412Y-105127777D01*
X130018950Y-105112301D01*
X130025978Y-105097441D01*
X130034429Y-105083342D01*
X130044221Y-105070139D01*
X130055260Y-105057960D01*
X130067439Y-105046921D01*
X130080642Y-105037129D01*
X130094741Y-105028678D01*
X130109601Y-105021650D01*
X130125077Y-105016112D01*
X130141022Y-105012118D01*
X130157282Y-105009707D01*
X130173700Y-105008900D01*
X130508700Y-105008900D01*
X130525118Y-105009707D01*
X130525118Y-105009707D01*
G37*
D12*
X130341200Y-105558900D03*
D10*
G36*
X129355118Y-101714707D02*
G01*
X129371378Y-101717118D01*
X129387323Y-101721112D01*
X129402799Y-101726650D01*
X129417659Y-101733678D01*
X129431758Y-101742129D01*
X129444961Y-101751921D01*
X129457140Y-101762960D01*
X129468179Y-101775139D01*
X129477971Y-101788342D01*
X129486422Y-101802441D01*
X129493450Y-101817301D01*
X129498988Y-101832777D01*
X129502982Y-101848722D01*
X129505393Y-101864982D01*
X129506200Y-101881400D01*
X129506200Y-102646400D01*
X129505393Y-102662818D01*
X129502982Y-102679078D01*
X129498988Y-102695023D01*
X129493450Y-102710499D01*
X129486422Y-102725359D01*
X129477971Y-102739458D01*
X129468179Y-102752661D01*
X129457140Y-102764840D01*
X129444961Y-102775879D01*
X129431758Y-102785671D01*
X129417659Y-102794122D01*
X129402799Y-102801150D01*
X129387323Y-102806688D01*
X129371378Y-102810682D01*
X129355118Y-102813093D01*
X129338700Y-102813900D01*
X129003700Y-102813900D01*
X128987282Y-102813093D01*
X128971022Y-102810682D01*
X128955077Y-102806688D01*
X128939601Y-102801150D01*
X128924741Y-102794122D01*
X128910642Y-102785671D01*
X128897439Y-102775879D01*
X128885260Y-102764840D01*
X128874221Y-102752661D01*
X128864429Y-102739458D01*
X128855978Y-102725359D01*
X128848950Y-102710499D01*
X128843412Y-102695023D01*
X128839418Y-102679078D01*
X128837007Y-102662818D01*
X128836200Y-102646400D01*
X128836200Y-101881400D01*
X128837007Y-101864982D01*
X128839418Y-101848722D01*
X128843412Y-101832777D01*
X128848950Y-101817301D01*
X128855978Y-101802441D01*
X128864429Y-101788342D01*
X128874221Y-101775139D01*
X128885260Y-101762960D01*
X128897439Y-101751921D01*
X128910642Y-101742129D01*
X128924741Y-101733678D01*
X128939601Y-101726650D01*
X128955077Y-101721112D01*
X128971022Y-101717118D01*
X128987282Y-101714707D01*
X129003700Y-101713900D01*
X129338700Y-101713900D01*
X129355118Y-101714707D01*
X129355118Y-101714707D01*
G37*
D12*
X129171200Y-102263900D03*
D10*
G36*
X129355118Y-105009707D02*
G01*
X129371378Y-105012118D01*
X129387323Y-105016112D01*
X129402799Y-105021650D01*
X129417659Y-105028678D01*
X129431758Y-105037129D01*
X129444961Y-105046921D01*
X129457140Y-105057960D01*
X129468179Y-105070139D01*
X129477971Y-105083342D01*
X129486422Y-105097441D01*
X129493450Y-105112301D01*
X129498988Y-105127777D01*
X129502982Y-105143722D01*
X129505393Y-105159982D01*
X129506200Y-105176400D01*
X129506200Y-105941400D01*
X129505393Y-105957818D01*
X129502982Y-105974078D01*
X129498988Y-105990023D01*
X129493450Y-106005499D01*
X129486422Y-106020359D01*
X129477971Y-106034458D01*
X129468179Y-106047661D01*
X129457140Y-106059840D01*
X129444961Y-106070879D01*
X129431758Y-106080671D01*
X129417659Y-106089122D01*
X129402799Y-106096150D01*
X129387323Y-106101688D01*
X129371378Y-106105682D01*
X129355118Y-106108093D01*
X129338700Y-106108900D01*
X129003700Y-106108900D01*
X128987282Y-106108093D01*
X128971022Y-106105682D01*
X128955077Y-106101688D01*
X128939601Y-106096150D01*
X128924741Y-106089122D01*
X128910642Y-106080671D01*
X128897439Y-106070879D01*
X128885260Y-106059840D01*
X128874221Y-106047661D01*
X128864429Y-106034458D01*
X128855978Y-106020359D01*
X128848950Y-106005499D01*
X128843412Y-105990023D01*
X128839418Y-105974078D01*
X128837007Y-105957818D01*
X128836200Y-105941400D01*
X128836200Y-105176400D01*
X128837007Y-105159982D01*
X128839418Y-105143722D01*
X128843412Y-105127777D01*
X128848950Y-105112301D01*
X128855978Y-105097441D01*
X128864429Y-105083342D01*
X128874221Y-105070139D01*
X128885260Y-105057960D01*
X128897439Y-105046921D01*
X128910642Y-105037129D01*
X128924741Y-105028678D01*
X128939601Y-105021650D01*
X128955077Y-105016112D01*
X128971022Y-105012118D01*
X128987282Y-105009707D01*
X129003700Y-105008900D01*
X129338700Y-105008900D01*
X129355118Y-105009707D01*
X129355118Y-105009707D01*
G37*
D12*
X129171200Y-105558900D03*
D10*
G36*
X128115214Y-101715080D02*
G01*
X128138997Y-101718608D01*
X128162320Y-101724450D01*
X128184957Y-101732550D01*
X128206692Y-101742829D01*
X128227315Y-101755190D01*
X128246626Y-101769512D01*
X128264441Y-101785659D01*
X128280588Y-101803474D01*
X128294910Y-101822785D01*
X128307271Y-101843408D01*
X128317550Y-101865143D01*
X128325650Y-101887780D01*
X128331492Y-101911103D01*
X128335020Y-101934886D01*
X128336200Y-101958900D01*
X128336200Y-102568900D01*
X128335020Y-102592914D01*
X128331492Y-102616697D01*
X128325650Y-102640020D01*
X128317550Y-102662657D01*
X128307271Y-102684392D01*
X128294910Y-102705015D01*
X128280588Y-102724326D01*
X128264441Y-102742141D01*
X128246626Y-102758288D01*
X128227315Y-102772610D01*
X128206692Y-102784971D01*
X128184957Y-102795250D01*
X128162320Y-102803350D01*
X128138997Y-102809192D01*
X128115214Y-102812720D01*
X128091200Y-102813900D01*
X127601200Y-102813900D01*
X127577186Y-102812720D01*
X127553403Y-102809192D01*
X127530080Y-102803350D01*
X127507443Y-102795250D01*
X127485708Y-102784971D01*
X127465085Y-102772610D01*
X127445774Y-102758288D01*
X127427959Y-102742141D01*
X127411812Y-102724326D01*
X127397490Y-102705015D01*
X127385129Y-102684392D01*
X127374850Y-102662657D01*
X127366750Y-102640020D01*
X127360908Y-102616697D01*
X127357380Y-102592914D01*
X127356200Y-102568900D01*
X127356200Y-101958900D01*
X127357380Y-101934886D01*
X127360908Y-101911103D01*
X127366750Y-101887780D01*
X127374850Y-101865143D01*
X127385129Y-101843408D01*
X127397490Y-101822785D01*
X127411812Y-101803474D01*
X127427959Y-101785659D01*
X127445774Y-101769512D01*
X127465085Y-101755190D01*
X127485708Y-101742829D01*
X127507443Y-101732550D01*
X127530080Y-101724450D01*
X127553403Y-101718608D01*
X127577186Y-101715080D01*
X127601200Y-101713900D01*
X128091200Y-101713900D01*
X128115214Y-101715080D01*
X128115214Y-101715080D01*
G37*
D13*
X127846200Y-102263900D03*
D10*
G36*
X128115214Y-105010080D02*
G01*
X128138997Y-105013608D01*
X128162320Y-105019450D01*
X128184957Y-105027550D01*
X128206692Y-105037829D01*
X128227315Y-105050190D01*
X128246626Y-105064512D01*
X128264441Y-105080659D01*
X128280588Y-105098474D01*
X128294910Y-105117785D01*
X128307271Y-105138408D01*
X128317550Y-105160143D01*
X128325650Y-105182780D01*
X128331492Y-105206103D01*
X128335020Y-105229886D01*
X128336200Y-105253900D01*
X128336200Y-105863900D01*
X128335020Y-105887914D01*
X128331492Y-105911697D01*
X128325650Y-105935020D01*
X128317550Y-105957657D01*
X128307271Y-105979392D01*
X128294910Y-106000015D01*
X128280588Y-106019326D01*
X128264441Y-106037141D01*
X128246626Y-106053288D01*
X128227315Y-106067610D01*
X128206692Y-106079971D01*
X128184957Y-106090250D01*
X128162320Y-106098350D01*
X128138997Y-106104192D01*
X128115214Y-106107720D01*
X128091200Y-106108900D01*
X127601200Y-106108900D01*
X127577186Y-106107720D01*
X127553403Y-106104192D01*
X127530080Y-106098350D01*
X127507443Y-106090250D01*
X127485708Y-106079971D01*
X127465085Y-106067610D01*
X127445774Y-106053288D01*
X127427959Y-106037141D01*
X127411812Y-106019326D01*
X127397490Y-106000015D01*
X127385129Y-105979392D01*
X127374850Y-105957657D01*
X127366750Y-105935020D01*
X127360908Y-105911697D01*
X127357380Y-105887914D01*
X127356200Y-105863900D01*
X127356200Y-105253900D01*
X127357380Y-105229886D01*
X127360908Y-105206103D01*
X127366750Y-105182780D01*
X127374850Y-105160143D01*
X127385129Y-105138408D01*
X127397490Y-105117785D01*
X127411812Y-105098474D01*
X127427959Y-105080659D01*
X127445774Y-105064512D01*
X127465085Y-105050190D01*
X127485708Y-105037829D01*
X127507443Y-105027550D01*
X127530080Y-105019450D01*
X127553403Y-105013608D01*
X127577186Y-105010080D01*
X127601200Y-105008900D01*
X128091200Y-105008900D01*
X128115214Y-105010080D01*
X128115214Y-105010080D01*
G37*
D13*
X127846200Y-105558900D03*
D10*
G36*
X154606555Y-103362724D02*
G01*
X154633250Y-103366684D01*
X154659428Y-103373241D01*
X154684838Y-103382333D01*
X154709234Y-103393872D01*
X154732382Y-103407746D01*
X154754058Y-103423822D01*
X154774054Y-103441946D01*
X154792178Y-103461942D01*
X154808254Y-103483618D01*
X154822128Y-103506766D01*
X154833667Y-103531162D01*
X154842759Y-103556572D01*
X154849316Y-103582750D01*
X154853276Y-103609445D01*
X154854600Y-103636400D01*
X154854600Y-104186400D01*
X154853276Y-104213355D01*
X154849316Y-104240050D01*
X154842759Y-104266228D01*
X154833667Y-104291638D01*
X154822128Y-104316034D01*
X154808254Y-104339182D01*
X154792178Y-104360858D01*
X154774054Y-104380854D01*
X154754058Y-104398978D01*
X154732382Y-104415054D01*
X154709234Y-104428928D01*
X154684838Y-104440467D01*
X154659428Y-104449559D01*
X154633250Y-104456116D01*
X154606555Y-104460076D01*
X154579600Y-104461400D01*
X150729600Y-104461400D01*
X150702645Y-104460076D01*
X150675950Y-104456116D01*
X150649772Y-104449559D01*
X150624362Y-104440467D01*
X150599966Y-104428928D01*
X150576818Y-104415054D01*
X150555142Y-104398978D01*
X150535146Y-104380854D01*
X150517022Y-104360858D01*
X150500946Y-104339182D01*
X150487072Y-104316034D01*
X150475533Y-104291638D01*
X150466441Y-104266228D01*
X150459884Y-104240050D01*
X150455924Y-104213355D01*
X150454600Y-104186400D01*
X150454600Y-103636400D01*
X150455924Y-103609445D01*
X150459884Y-103582750D01*
X150466441Y-103556572D01*
X150475533Y-103531162D01*
X150487072Y-103506766D01*
X150500946Y-103483618D01*
X150517022Y-103461942D01*
X150535146Y-103441946D01*
X150555142Y-103423822D01*
X150576818Y-103407746D01*
X150599966Y-103393872D01*
X150624362Y-103382333D01*
X150649772Y-103373241D01*
X150675950Y-103366684D01*
X150702645Y-103362724D01*
X150729600Y-103361400D01*
X154579600Y-103361400D01*
X154606555Y-103362724D01*
X154606555Y-103362724D01*
G37*
D11*
X152654600Y-103911400D03*
D10*
G36*
X154695118Y-101714707D02*
G01*
X154711378Y-101717118D01*
X154727323Y-101721112D01*
X154742799Y-101726650D01*
X154757659Y-101733678D01*
X154771758Y-101742129D01*
X154784961Y-101751921D01*
X154797140Y-101762960D01*
X154808179Y-101775139D01*
X154817971Y-101788342D01*
X154826422Y-101802441D01*
X154833450Y-101817301D01*
X154838988Y-101832777D01*
X154842982Y-101848722D01*
X154845393Y-101864982D01*
X154846200Y-101881400D01*
X154846200Y-102646400D01*
X154845393Y-102662818D01*
X154842982Y-102679078D01*
X154838988Y-102695023D01*
X154833450Y-102710499D01*
X154826422Y-102725359D01*
X154817971Y-102739458D01*
X154808179Y-102752661D01*
X154797140Y-102764840D01*
X154784961Y-102775879D01*
X154771758Y-102785671D01*
X154757659Y-102794122D01*
X154742799Y-102801150D01*
X154727323Y-102806688D01*
X154711378Y-102810682D01*
X154695118Y-102813093D01*
X154678700Y-102813900D01*
X154343700Y-102813900D01*
X154327282Y-102813093D01*
X154311022Y-102810682D01*
X154295077Y-102806688D01*
X154279601Y-102801150D01*
X154264741Y-102794122D01*
X154250642Y-102785671D01*
X154237439Y-102775879D01*
X154225260Y-102764840D01*
X154214221Y-102752661D01*
X154204429Y-102739458D01*
X154195978Y-102725359D01*
X154188950Y-102710499D01*
X154183412Y-102695023D01*
X154179418Y-102679078D01*
X154177007Y-102662818D01*
X154176200Y-102646400D01*
X154176200Y-101881400D01*
X154177007Y-101864982D01*
X154179418Y-101848722D01*
X154183412Y-101832777D01*
X154188950Y-101817301D01*
X154195978Y-101802441D01*
X154204429Y-101788342D01*
X154214221Y-101775139D01*
X154225260Y-101762960D01*
X154237439Y-101751921D01*
X154250642Y-101742129D01*
X154264741Y-101733678D01*
X154279601Y-101726650D01*
X154295077Y-101721112D01*
X154311022Y-101717118D01*
X154327282Y-101714707D01*
X154343700Y-101713900D01*
X154678700Y-101713900D01*
X154695118Y-101714707D01*
X154695118Y-101714707D01*
G37*
D12*
X154511200Y-102263900D03*
D10*
G36*
X154695118Y-105009707D02*
G01*
X154711378Y-105012118D01*
X154727323Y-105016112D01*
X154742799Y-105021650D01*
X154757659Y-105028678D01*
X154771758Y-105037129D01*
X154784961Y-105046921D01*
X154797140Y-105057960D01*
X154808179Y-105070139D01*
X154817971Y-105083342D01*
X154826422Y-105097441D01*
X154833450Y-105112301D01*
X154838988Y-105127777D01*
X154842982Y-105143722D01*
X154845393Y-105159982D01*
X154846200Y-105176400D01*
X154846200Y-105941400D01*
X154845393Y-105957818D01*
X154842982Y-105974078D01*
X154838988Y-105990023D01*
X154833450Y-106005499D01*
X154826422Y-106020359D01*
X154817971Y-106034458D01*
X154808179Y-106047661D01*
X154797140Y-106059840D01*
X154784961Y-106070879D01*
X154771758Y-106080671D01*
X154757659Y-106089122D01*
X154742799Y-106096150D01*
X154727323Y-106101688D01*
X154711378Y-106105682D01*
X154695118Y-106108093D01*
X154678700Y-106108900D01*
X154343700Y-106108900D01*
X154327282Y-106108093D01*
X154311022Y-106105682D01*
X154295077Y-106101688D01*
X154279601Y-106096150D01*
X154264741Y-106089122D01*
X154250642Y-106080671D01*
X154237439Y-106070879D01*
X154225260Y-106059840D01*
X154214221Y-106047661D01*
X154204429Y-106034458D01*
X154195978Y-106020359D01*
X154188950Y-106005499D01*
X154183412Y-105990023D01*
X154179418Y-105974078D01*
X154177007Y-105957818D01*
X154176200Y-105941400D01*
X154176200Y-105176400D01*
X154177007Y-105159982D01*
X154179418Y-105143722D01*
X154183412Y-105127777D01*
X154188950Y-105112301D01*
X154195978Y-105097441D01*
X154204429Y-105083342D01*
X154214221Y-105070139D01*
X154225260Y-105057960D01*
X154237439Y-105046921D01*
X154250642Y-105037129D01*
X154264741Y-105028678D01*
X154279601Y-105021650D01*
X154295077Y-105016112D01*
X154311022Y-105012118D01*
X154327282Y-105009707D01*
X154343700Y-105008900D01*
X154678700Y-105008900D01*
X154695118Y-105009707D01*
X154695118Y-105009707D01*
G37*
D12*
X154511200Y-105558900D03*
D10*
G36*
X153525118Y-101714707D02*
G01*
X153541378Y-101717118D01*
X153557323Y-101721112D01*
X153572799Y-101726650D01*
X153587659Y-101733678D01*
X153601758Y-101742129D01*
X153614961Y-101751921D01*
X153627140Y-101762960D01*
X153638179Y-101775139D01*
X153647971Y-101788342D01*
X153656422Y-101802441D01*
X153663450Y-101817301D01*
X153668988Y-101832777D01*
X153672982Y-101848722D01*
X153675393Y-101864982D01*
X153676200Y-101881400D01*
X153676200Y-102646400D01*
X153675393Y-102662818D01*
X153672982Y-102679078D01*
X153668988Y-102695023D01*
X153663450Y-102710499D01*
X153656422Y-102725359D01*
X153647971Y-102739458D01*
X153638179Y-102752661D01*
X153627140Y-102764840D01*
X153614961Y-102775879D01*
X153601758Y-102785671D01*
X153587659Y-102794122D01*
X153572799Y-102801150D01*
X153557323Y-102806688D01*
X153541378Y-102810682D01*
X153525118Y-102813093D01*
X153508700Y-102813900D01*
X153173700Y-102813900D01*
X153157282Y-102813093D01*
X153141022Y-102810682D01*
X153125077Y-102806688D01*
X153109601Y-102801150D01*
X153094741Y-102794122D01*
X153080642Y-102785671D01*
X153067439Y-102775879D01*
X153055260Y-102764840D01*
X153044221Y-102752661D01*
X153034429Y-102739458D01*
X153025978Y-102725359D01*
X153018950Y-102710499D01*
X153013412Y-102695023D01*
X153009418Y-102679078D01*
X153007007Y-102662818D01*
X153006200Y-102646400D01*
X153006200Y-101881400D01*
X153007007Y-101864982D01*
X153009418Y-101848722D01*
X153013412Y-101832777D01*
X153018950Y-101817301D01*
X153025978Y-101802441D01*
X153034429Y-101788342D01*
X153044221Y-101775139D01*
X153055260Y-101762960D01*
X153067439Y-101751921D01*
X153080642Y-101742129D01*
X153094741Y-101733678D01*
X153109601Y-101726650D01*
X153125077Y-101721112D01*
X153141022Y-101717118D01*
X153157282Y-101714707D01*
X153173700Y-101713900D01*
X153508700Y-101713900D01*
X153525118Y-101714707D01*
X153525118Y-101714707D01*
G37*
D12*
X153341200Y-102263900D03*
D10*
G36*
X153525118Y-105009707D02*
G01*
X153541378Y-105012118D01*
X153557323Y-105016112D01*
X153572799Y-105021650D01*
X153587659Y-105028678D01*
X153601758Y-105037129D01*
X153614961Y-105046921D01*
X153627140Y-105057960D01*
X153638179Y-105070139D01*
X153647971Y-105083342D01*
X153656422Y-105097441D01*
X153663450Y-105112301D01*
X153668988Y-105127777D01*
X153672982Y-105143722D01*
X153675393Y-105159982D01*
X153676200Y-105176400D01*
X153676200Y-105941400D01*
X153675393Y-105957818D01*
X153672982Y-105974078D01*
X153668988Y-105990023D01*
X153663450Y-106005499D01*
X153656422Y-106020359D01*
X153647971Y-106034458D01*
X153638179Y-106047661D01*
X153627140Y-106059840D01*
X153614961Y-106070879D01*
X153601758Y-106080671D01*
X153587659Y-106089122D01*
X153572799Y-106096150D01*
X153557323Y-106101688D01*
X153541378Y-106105682D01*
X153525118Y-106108093D01*
X153508700Y-106108900D01*
X153173700Y-106108900D01*
X153157282Y-106108093D01*
X153141022Y-106105682D01*
X153125077Y-106101688D01*
X153109601Y-106096150D01*
X153094741Y-106089122D01*
X153080642Y-106080671D01*
X153067439Y-106070879D01*
X153055260Y-106059840D01*
X153044221Y-106047661D01*
X153034429Y-106034458D01*
X153025978Y-106020359D01*
X153018950Y-106005499D01*
X153013412Y-105990023D01*
X153009418Y-105974078D01*
X153007007Y-105957818D01*
X153006200Y-105941400D01*
X153006200Y-105176400D01*
X153007007Y-105159982D01*
X153009418Y-105143722D01*
X153013412Y-105127777D01*
X153018950Y-105112301D01*
X153025978Y-105097441D01*
X153034429Y-105083342D01*
X153044221Y-105070139D01*
X153055260Y-105057960D01*
X153067439Y-105046921D01*
X153080642Y-105037129D01*
X153094741Y-105028678D01*
X153109601Y-105021650D01*
X153125077Y-105016112D01*
X153141022Y-105012118D01*
X153157282Y-105009707D01*
X153173700Y-105008900D01*
X153508700Y-105008900D01*
X153525118Y-105009707D01*
X153525118Y-105009707D01*
G37*
D12*
X153341200Y-105558900D03*
D10*
G36*
X152355118Y-101714707D02*
G01*
X152371378Y-101717118D01*
X152387323Y-101721112D01*
X152402799Y-101726650D01*
X152417659Y-101733678D01*
X152431758Y-101742129D01*
X152444961Y-101751921D01*
X152457140Y-101762960D01*
X152468179Y-101775139D01*
X152477971Y-101788342D01*
X152486422Y-101802441D01*
X152493450Y-101817301D01*
X152498988Y-101832777D01*
X152502982Y-101848722D01*
X152505393Y-101864982D01*
X152506200Y-101881400D01*
X152506200Y-102646400D01*
X152505393Y-102662818D01*
X152502982Y-102679078D01*
X152498988Y-102695023D01*
X152493450Y-102710499D01*
X152486422Y-102725359D01*
X152477971Y-102739458D01*
X152468179Y-102752661D01*
X152457140Y-102764840D01*
X152444961Y-102775879D01*
X152431758Y-102785671D01*
X152417659Y-102794122D01*
X152402799Y-102801150D01*
X152387323Y-102806688D01*
X152371378Y-102810682D01*
X152355118Y-102813093D01*
X152338700Y-102813900D01*
X152003700Y-102813900D01*
X151987282Y-102813093D01*
X151971022Y-102810682D01*
X151955077Y-102806688D01*
X151939601Y-102801150D01*
X151924741Y-102794122D01*
X151910642Y-102785671D01*
X151897439Y-102775879D01*
X151885260Y-102764840D01*
X151874221Y-102752661D01*
X151864429Y-102739458D01*
X151855978Y-102725359D01*
X151848950Y-102710499D01*
X151843412Y-102695023D01*
X151839418Y-102679078D01*
X151837007Y-102662818D01*
X151836200Y-102646400D01*
X151836200Y-101881400D01*
X151837007Y-101864982D01*
X151839418Y-101848722D01*
X151843412Y-101832777D01*
X151848950Y-101817301D01*
X151855978Y-101802441D01*
X151864429Y-101788342D01*
X151874221Y-101775139D01*
X151885260Y-101762960D01*
X151897439Y-101751921D01*
X151910642Y-101742129D01*
X151924741Y-101733678D01*
X151939601Y-101726650D01*
X151955077Y-101721112D01*
X151971022Y-101717118D01*
X151987282Y-101714707D01*
X152003700Y-101713900D01*
X152338700Y-101713900D01*
X152355118Y-101714707D01*
X152355118Y-101714707D01*
G37*
D12*
X152171200Y-102263900D03*
D10*
G36*
X152355118Y-105009707D02*
G01*
X152371378Y-105012118D01*
X152387323Y-105016112D01*
X152402799Y-105021650D01*
X152417659Y-105028678D01*
X152431758Y-105037129D01*
X152444961Y-105046921D01*
X152457140Y-105057960D01*
X152468179Y-105070139D01*
X152477971Y-105083342D01*
X152486422Y-105097441D01*
X152493450Y-105112301D01*
X152498988Y-105127777D01*
X152502982Y-105143722D01*
X152505393Y-105159982D01*
X152506200Y-105176400D01*
X152506200Y-105941400D01*
X152505393Y-105957818D01*
X152502982Y-105974078D01*
X152498988Y-105990023D01*
X152493450Y-106005499D01*
X152486422Y-106020359D01*
X152477971Y-106034458D01*
X152468179Y-106047661D01*
X152457140Y-106059840D01*
X152444961Y-106070879D01*
X152431758Y-106080671D01*
X152417659Y-106089122D01*
X152402799Y-106096150D01*
X152387323Y-106101688D01*
X152371378Y-106105682D01*
X152355118Y-106108093D01*
X152338700Y-106108900D01*
X152003700Y-106108900D01*
X151987282Y-106108093D01*
X151971022Y-106105682D01*
X151955077Y-106101688D01*
X151939601Y-106096150D01*
X151924741Y-106089122D01*
X151910642Y-106080671D01*
X151897439Y-106070879D01*
X151885260Y-106059840D01*
X151874221Y-106047661D01*
X151864429Y-106034458D01*
X151855978Y-106020359D01*
X151848950Y-106005499D01*
X151843412Y-105990023D01*
X151839418Y-105974078D01*
X151837007Y-105957818D01*
X151836200Y-105941400D01*
X151836200Y-105176400D01*
X151837007Y-105159982D01*
X151839418Y-105143722D01*
X151843412Y-105127777D01*
X151848950Y-105112301D01*
X151855978Y-105097441D01*
X151864429Y-105083342D01*
X151874221Y-105070139D01*
X151885260Y-105057960D01*
X151897439Y-105046921D01*
X151910642Y-105037129D01*
X151924741Y-105028678D01*
X151939601Y-105021650D01*
X151955077Y-105016112D01*
X151971022Y-105012118D01*
X151987282Y-105009707D01*
X152003700Y-105008900D01*
X152338700Y-105008900D01*
X152355118Y-105009707D01*
X152355118Y-105009707D01*
G37*
D12*
X152171200Y-105558900D03*
D10*
G36*
X151115214Y-101715080D02*
G01*
X151138997Y-101718608D01*
X151162320Y-101724450D01*
X151184957Y-101732550D01*
X151206692Y-101742829D01*
X151227315Y-101755190D01*
X151246626Y-101769512D01*
X151264441Y-101785659D01*
X151280588Y-101803474D01*
X151294910Y-101822785D01*
X151307271Y-101843408D01*
X151317550Y-101865143D01*
X151325650Y-101887780D01*
X151331492Y-101911103D01*
X151335020Y-101934886D01*
X151336200Y-101958900D01*
X151336200Y-102568900D01*
X151335020Y-102592914D01*
X151331492Y-102616697D01*
X151325650Y-102640020D01*
X151317550Y-102662657D01*
X151307271Y-102684392D01*
X151294910Y-102705015D01*
X151280588Y-102724326D01*
X151264441Y-102742141D01*
X151246626Y-102758288D01*
X151227315Y-102772610D01*
X151206692Y-102784971D01*
X151184957Y-102795250D01*
X151162320Y-102803350D01*
X151138997Y-102809192D01*
X151115214Y-102812720D01*
X151091200Y-102813900D01*
X150601200Y-102813900D01*
X150577186Y-102812720D01*
X150553403Y-102809192D01*
X150530080Y-102803350D01*
X150507443Y-102795250D01*
X150485708Y-102784971D01*
X150465085Y-102772610D01*
X150445774Y-102758288D01*
X150427959Y-102742141D01*
X150411812Y-102724326D01*
X150397490Y-102705015D01*
X150385129Y-102684392D01*
X150374850Y-102662657D01*
X150366750Y-102640020D01*
X150360908Y-102616697D01*
X150357380Y-102592914D01*
X150356200Y-102568900D01*
X150356200Y-101958900D01*
X150357380Y-101934886D01*
X150360908Y-101911103D01*
X150366750Y-101887780D01*
X150374850Y-101865143D01*
X150385129Y-101843408D01*
X150397490Y-101822785D01*
X150411812Y-101803474D01*
X150427959Y-101785659D01*
X150445774Y-101769512D01*
X150465085Y-101755190D01*
X150485708Y-101742829D01*
X150507443Y-101732550D01*
X150530080Y-101724450D01*
X150553403Y-101718608D01*
X150577186Y-101715080D01*
X150601200Y-101713900D01*
X151091200Y-101713900D01*
X151115214Y-101715080D01*
X151115214Y-101715080D01*
G37*
D13*
X150846200Y-102263900D03*
D10*
G36*
X151115214Y-105010080D02*
G01*
X151138997Y-105013608D01*
X151162320Y-105019450D01*
X151184957Y-105027550D01*
X151206692Y-105037829D01*
X151227315Y-105050190D01*
X151246626Y-105064512D01*
X151264441Y-105080659D01*
X151280588Y-105098474D01*
X151294910Y-105117785D01*
X151307271Y-105138408D01*
X151317550Y-105160143D01*
X151325650Y-105182780D01*
X151331492Y-105206103D01*
X151335020Y-105229886D01*
X151336200Y-105253900D01*
X151336200Y-105863900D01*
X151335020Y-105887914D01*
X151331492Y-105911697D01*
X151325650Y-105935020D01*
X151317550Y-105957657D01*
X151307271Y-105979392D01*
X151294910Y-106000015D01*
X151280588Y-106019326D01*
X151264441Y-106037141D01*
X151246626Y-106053288D01*
X151227315Y-106067610D01*
X151206692Y-106079971D01*
X151184957Y-106090250D01*
X151162320Y-106098350D01*
X151138997Y-106104192D01*
X151115214Y-106107720D01*
X151091200Y-106108900D01*
X150601200Y-106108900D01*
X150577186Y-106107720D01*
X150553403Y-106104192D01*
X150530080Y-106098350D01*
X150507443Y-106090250D01*
X150485708Y-106079971D01*
X150465085Y-106067610D01*
X150445774Y-106053288D01*
X150427959Y-106037141D01*
X150411812Y-106019326D01*
X150397490Y-106000015D01*
X150385129Y-105979392D01*
X150374850Y-105957657D01*
X150366750Y-105935020D01*
X150360908Y-105911697D01*
X150357380Y-105887914D01*
X150356200Y-105863900D01*
X150356200Y-105253900D01*
X150357380Y-105229886D01*
X150360908Y-105206103D01*
X150366750Y-105182780D01*
X150374850Y-105160143D01*
X150385129Y-105138408D01*
X150397490Y-105117785D01*
X150411812Y-105098474D01*
X150427959Y-105080659D01*
X150445774Y-105064512D01*
X150465085Y-105050190D01*
X150485708Y-105037829D01*
X150507443Y-105027550D01*
X150530080Y-105019450D01*
X150553403Y-105013608D01*
X150577186Y-105010080D01*
X150601200Y-105008900D01*
X151091200Y-105008900D01*
X151115214Y-105010080D01*
X151115214Y-105010080D01*
G37*
D13*
X150846200Y-105558900D03*
M02*
