M48
; DRILL file {KiCad (5.1.2)-2} date 5/22/2020 12:57:23 AM
; FORMAT={-:-/ absolute / metric / decimal}
; #@! TF.CreationDate,2020-05-22T00:57:23-04:00
; #@! TF.GenerationSoftware,Kicad,Pcbnew,(5.1.2)-2
; #@! TF.FileFunction,Plated,1,2,PTH
FMAT,2
METRIC
T1C0.300
T2C0.400
T3C1.000
%
G90
G05
T1
X161.1Y-110.5
X181.1Y-112.5
X182.6Y-110.5
X176.9Y-122.0
X156.1Y-110.5
X153.1Y-123.1
X153.1Y-119.7
X177.6Y-111.5
X173.6Y-110.5
X181.9Y-123.0
X152.1Y-111.5
X156.1Y-121.7
X175.6Y-111.5
X174.6Y-110.5
X182.9Y-122.0
X155.1Y-112.5
X163.9Y-121.7
X154.1Y-123.1
X181.6Y-111.5
X179.9Y-121.0
X180.6Y-110.5
X178.9Y-123.0
X153.1Y-113.5
X164.9Y-119.7
X157.1Y-121.7
X183.1Y-112.5
X179.9Y-122.0
X179.9Y-123.0
X154.1Y-121.7
X161.9Y-123.1
X180.9Y-120.0
X157.1Y-120.7
X155.1Y-113.5
X156.1Y-123.1
X178.9Y-122.0
X152.1Y-121.7
X156.1Y-119.7
X156.1Y-111.5
X156.1Y-120.7
X162.9Y-118.7
X165.1Y-110.5
X174.9Y-123.0
X155.1Y-111.5
X182.9Y-121.0
X162.9Y-120.7
X163.1Y-110.5
X174.6Y-111.5
X178.6Y-110.5
X181.9Y-122.0
X154.1Y-111.5
X155.1Y-123.1
X160.1Y-110.5
X182.1Y-112.5
X171.9Y-123.0
X170.9Y-122.0
X155.1Y-110.5
X161.9Y-121.7
X164.9Y-118.7
X158.1Y-110.5
X178.6Y-111.5
X175.6Y-110.5
X180.9Y-123.0
X152.1Y-113.5
X161.9Y-118.7
X157.1Y-123.1
X180.6Y-111.5
X175.9Y-123.0
X177.9Y-123.0
X153.1Y-112.5
X162.9Y-121.7
X163.9Y-118.7
X180.1Y-112.5
X180.9Y-121.0
X171.6Y-110.5
X172.9Y-122.0
X163.9Y-119.7
X162.9Y-123.1
X180.1Y-113.5
X179.9Y-120.0
X176.9Y-123.0
X154.1Y-120.7
X164.9Y-123.1
X155.1Y-120.7
X164.1Y-110.5
X182.9Y-120.0
X161.9Y-120.7
X155.1Y-119.7
X152.1Y-112.5
X153.1Y-121.7
X162.1Y-110.5
X172.6Y-110.5
X156.1Y-112.5
X152.1Y-120.7
X154.1Y-119.7
X182.1Y-113.5
X181.6Y-110.5
X174.9Y-122.0
X152.1Y-119.7
X160.9Y-123.1
X159.1Y-110.5
X176.6Y-111.5
X172.9Y-123.0
X173.9Y-122.0
X154.1Y-110.5
X164.9Y-121.7
X157.1Y-110.5
X179.6Y-111.5
X179.6Y-110.5
X175.9Y-122.0
X154.1Y-112.5
X160.9Y-118.7
X182.6Y-111.5
X176.6Y-110.5
X180.9Y-122.0
X153.1Y-110.5
X160.9Y-121.7
X173.6Y-111.5
X181.9Y-120.0
X170.9Y-123.0
X182.9Y-123.0
X162.9Y-119.7
X163.9Y-123.1
X181.1Y-113.5
X171.9Y-122.0
X164.9Y-120.7
X156.1Y-113.5
X178.9Y-121.0
X155.1Y-121.7
X160.9Y-119.7
X178.9Y-120.0
X163.9Y-120.7
X157.1Y-119.7
X173.9Y-123.0
X154.1Y-113.5
X181.9Y-121.0
X153.1Y-120.7
X161.9Y-119.7
X183.1Y-113.5
X177.6Y-110.5
X177.9Y-122.0
X153.1Y-111.5
X160.9Y-120.7
T2
X160.7Y-113.7
X161.7Y-111.9
X170.2Y-113.3
X172.3Y-112.2
X178.8Y-113.7
T3
X152.6Y-115.58
X152.6Y-118.12
X155.14Y-115.58
X155.14Y-118.12
X179.9Y-115.58
X179.9Y-118.12
X182.44Y-115.58
X182.44Y-118.12
T0
M30
