G04 #@! TF.GenerationSoftware,KiCad,Pcbnew,(5.1.2)-2*
G04 #@! TF.CreationDate,2020-05-22T00:57:25-04:00*
G04 #@! TF.ProjectId,SWSupply,53575375-7070-46c7-992e-6b696361645f,rev?*
G04 #@! TF.SameCoordinates,Original*
G04 #@! TF.FileFunction,Soldermask,Top*
G04 #@! TF.FilePolarity,Negative*
%FSLAX46Y46*%
G04 Gerber Fmt 4.6, Leading zero omitted, Abs format (unit mm)*
G04 Created by KiCad (PCBNEW (5.1.2)-2) date 2020-05-22 00:57:25*
%MOMM*%
%LPD*%
G04 APERTURE LIST*
%ADD10C,0.100000*%
G04 APERTURE END LIST*
D10*
G36*
X159884468Y-122503565D02*
G01*
X159923138Y-122515296D01*
X159958777Y-122534346D01*
X159990017Y-122559983D01*
X160015654Y-122591223D01*
X160034704Y-122626862D01*
X160046435Y-122665532D01*
X160051000Y-122711888D01*
X160051000Y-123363112D01*
X160046435Y-123409468D01*
X160034704Y-123448138D01*
X160015654Y-123483777D01*
X159990017Y-123515017D01*
X159958777Y-123540654D01*
X159923138Y-123559704D01*
X159884468Y-123571435D01*
X159838112Y-123576000D01*
X158761888Y-123576000D01*
X158715532Y-123571435D01*
X158676862Y-123559704D01*
X158641223Y-123540654D01*
X158609983Y-123515017D01*
X158584346Y-123483777D01*
X158565296Y-123448138D01*
X158553565Y-123409468D01*
X158549000Y-123363112D01*
X158549000Y-122711888D01*
X158553565Y-122665532D01*
X158565296Y-122626862D01*
X158584346Y-122591223D01*
X158609983Y-122559983D01*
X158641223Y-122534346D01*
X158676862Y-122515296D01*
X158715532Y-122503565D01*
X158761888Y-122499000D01*
X159838112Y-122499000D01*
X159884468Y-122503565D01*
X159884468Y-122503565D01*
G37*
G36*
X169771000Y-123262000D02*
G01*
X168269000Y-123262000D01*
X168269000Y-121770000D01*
X169771000Y-121770000D01*
X169771000Y-123262000D01*
X169771000Y-123262000D01*
G37*
G36*
X167931000Y-123262000D02*
G01*
X166429000Y-123262000D01*
X166429000Y-121770000D01*
X167931000Y-121770000D01*
X167931000Y-123262000D01*
X167931000Y-123262000D01*
G37*
G36*
X159884468Y-120628565D02*
G01*
X159923138Y-120640296D01*
X159958777Y-120659346D01*
X159990017Y-120684983D01*
X160015654Y-120716223D01*
X160034704Y-120751862D01*
X160046435Y-120790532D01*
X160051000Y-120836888D01*
X160051000Y-121488112D01*
X160046435Y-121534468D01*
X160034704Y-121573138D01*
X160015654Y-121608777D01*
X159990017Y-121640017D01*
X159958777Y-121665654D01*
X159923138Y-121684704D01*
X159884468Y-121696435D01*
X159838112Y-121701000D01*
X158761888Y-121701000D01*
X158715532Y-121696435D01*
X158676862Y-121684704D01*
X158641223Y-121665654D01*
X158609983Y-121640017D01*
X158584346Y-121608777D01*
X158565296Y-121573138D01*
X158553565Y-121534468D01*
X158549000Y-121488112D01*
X158549000Y-120836888D01*
X158553565Y-120790532D01*
X158565296Y-120751862D01*
X158584346Y-120716223D01*
X158609983Y-120684983D01*
X158641223Y-120659346D01*
X158676862Y-120640296D01*
X158715532Y-120628565D01*
X158761888Y-120624000D01*
X159838112Y-120624000D01*
X159884468Y-120628565D01*
X159884468Y-120628565D01*
G37*
G36*
X177530998Y-119378052D02*
G01*
X177564653Y-119388262D01*
X177595666Y-119404839D01*
X177622852Y-119427150D01*
X177645163Y-119454336D01*
X177661740Y-119485349D01*
X177671950Y-119519004D01*
X177676001Y-119560139D01*
X177676001Y-120889863D01*
X177671950Y-120930998D01*
X177661740Y-120964653D01*
X177645163Y-120995666D01*
X177622852Y-121022852D01*
X177595666Y-121045163D01*
X177564653Y-121061740D01*
X177530998Y-121071950D01*
X177489863Y-121076001D01*
X174985139Y-121076001D01*
X174944004Y-121071950D01*
X174910349Y-121061740D01*
X174879336Y-121045163D01*
X174852150Y-121022852D01*
X174829839Y-120995666D01*
X174813262Y-120964653D01*
X174803052Y-120930998D01*
X174799001Y-120889863D01*
X174799001Y-119560139D01*
X174803052Y-119519004D01*
X174813262Y-119485349D01*
X174829839Y-119454336D01*
X174852150Y-119427150D01*
X174879336Y-119404839D01*
X174910349Y-119388262D01*
X174944004Y-119378052D01*
X174985139Y-119374001D01*
X177489863Y-119374001D01*
X177530998Y-119378052D01*
X177530998Y-119378052D01*
G37*
G36*
X173405998Y-119378052D02*
G01*
X173439653Y-119388262D01*
X173470666Y-119404839D01*
X173497852Y-119427150D01*
X173520163Y-119454336D01*
X173536740Y-119485349D01*
X173546950Y-119519004D01*
X173551001Y-119560139D01*
X173551001Y-120889863D01*
X173546950Y-120930998D01*
X173536740Y-120964653D01*
X173520163Y-120995666D01*
X173497852Y-121022852D01*
X173470666Y-121045163D01*
X173439653Y-121061740D01*
X173405998Y-121071950D01*
X173364863Y-121076001D01*
X170860139Y-121076001D01*
X170819004Y-121071950D01*
X170785349Y-121061740D01*
X170754336Y-121045163D01*
X170727150Y-121022852D01*
X170704839Y-120995666D01*
X170688262Y-120964653D01*
X170678052Y-120930998D01*
X170674001Y-120889863D01*
X170674001Y-119560139D01*
X170678052Y-119519004D01*
X170688262Y-119485349D01*
X170704839Y-119454336D01*
X170727150Y-119427150D01*
X170754336Y-119404839D01*
X170785349Y-119388262D01*
X170819004Y-119378052D01*
X170860139Y-119374001D01*
X173364863Y-119374001D01*
X173405998Y-119378052D01*
X173405998Y-119378052D01*
G37*
G36*
X169831000Y-121026000D02*
G01*
X166369000Y-121026000D01*
X166369000Y-116064000D01*
X169831000Y-116064000D01*
X169831000Y-121026000D01*
X169831000Y-121026000D01*
G37*
G36*
X159884468Y-119003565D02*
G01*
X159923138Y-119015296D01*
X159958777Y-119034346D01*
X159990017Y-119059983D01*
X160015654Y-119091223D01*
X160034704Y-119126862D01*
X160046435Y-119165532D01*
X160051000Y-119211888D01*
X160051000Y-119863112D01*
X160046435Y-119909468D01*
X160034704Y-119948138D01*
X160015654Y-119983777D01*
X159990017Y-120015017D01*
X159958777Y-120040654D01*
X159923138Y-120059704D01*
X159884468Y-120071435D01*
X159838112Y-120076000D01*
X158761888Y-120076000D01*
X158715532Y-120071435D01*
X158676862Y-120059704D01*
X158641223Y-120040654D01*
X158609983Y-120015017D01*
X158584346Y-119983777D01*
X158565296Y-119948138D01*
X158553565Y-119909468D01*
X158549000Y-119863112D01*
X158549000Y-119211888D01*
X158553565Y-119165532D01*
X158565296Y-119126862D01*
X158584346Y-119091223D01*
X158609983Y-119059983D01*
X158641223Y-119034346D01*
X158676862Y-119015296D01*
X158715532Y-119003565D01*
X158761888Y-118999000D01*
X159838112Y-118999000D01*
X159884468Y-119003565D01*
X159884468Y-119003565D01*
G37*
G36*
X152710442Y-117225518D02*
G01*
X152776627Y-117232037D01*
X152946466Y-117283557D01*
X153102991Y-117367222D01*
X153134706Y-117393250D01*
X153240186Y-117479814D01*
X153304212Y-117557831D01*
X153352778Y-117617009D01*
X153436443Y-117773534D01*
X153487963Y-117943373D01*
X153505359Y-118120000D01*
X153487963Y-118296627D01*
X153436443Y-118466466D01*
X153352778Y-118622991D01*
X153323448Y-118658729D01*
X153240186Y-118760186D01*
X153138729Y-118843448D01*
X153102991Y-118872778D01*
X152946466Y-118956443D01*
X152776627Y-119007963D01*
X152710443Y-119014481D01*
X152644260Y-119021000D01*
X152555740Y-119021000D01*
X152489557Y-119014481D01*
X152423373Y-119007963D01*
X152253534Y-118956443D01*
X152097009Y-118872778D01*
X152061271Y-118843448D01*
X151959814Y-118760186D01*
X151876552Y-118658729D01*
X151847222Y-118622991D01*
X151763557Y-118466466D01*
X151712037Y-118296627D01*
X151694641Y-118120000D01*
X151712037Y-117943373D01*
X151763557Y-117773534D01*
X151847222Y-117617009D01*
X151895788Y-117557831D01*
X151959814Y-117479814D01*
X152065294Y-117393250D01*
X152097009Y-117367222D01*
X152253534Y-117283557D01*
X152423373Y-117232037D01*
X152489558Y-117225518D01*
X152555740Y-117219000D01*
X152644260Y-117219000D01*
X152710442Y-117225518D01*
X152710442Y-117225518D01*
G37*
G36*
X155250442Y-117225518D02*
G01*
X155316627Y-117232037D01*
X155486466Y-117283557D01*
X155642991Y-117367222D01*
X155674706Y-117393250D01*
X155780186Y-117479814D01*
X155844212Y-117557831D01*
X155892778Y-117617009D01*
X155976443Y-117773534D01*
X156027963Y-117943373D01*
X156045359Y-118120000D01*
X156027963Y-118296627D01*
X155976443Y-118466466D01*
X155892778Y-118622991D01*
X155863448Y-118658729D01*
X155780186Y-118760186D01*
X155678729Y-118843448D01*
X155642991Y-118872778D01*
X155486466Y-118956443D01*
X155316627Y-119007963D01*
X155250443Y-119014481D01*
X155184260Y-119021000D01*
X155095740Y-119021000D01*
X155029557Y-119014481D01*
X154963373Y-119007963D01*
X154793534Y-118956443D01*
X154637009Y-118872778D01*
X154601271Y-118843448D01*
X154499814Y-118760186D01*
X154416552Y-118658729D01*
X154387222Y-118622991D01*
X154303557Y-118466466D01*
X154252037Y-118296627D01*
X154234641Y-118120000D01*
X154252037Y-117943373D01*
X154303557Y-117773534D01*
X154387222Y-117617009D01*
X154435788Y-117557831D01*
X154499814Y-117479814D01*
X154605294Y-117393250D01*
X154637009Y-117367222D01*
X154793534Y-117283557D01*
X154963373Y-117232037D01*
X155029558Y-117225518D01*
X155095740Y-117219000D01*
X155184260Y-117219000D01*
X155250442Y-117225518D01*
X155250442Y-117225518D01*
G37*
G36*
X182550442Y-117225518D02*
G01*
X182616627Y-117232037D01*
X182786466Y-117283557D01*
X182942991Y-117367222D01*
X182974706Y-117393250D01*
X183080186Y-117479814D01*
X183144212Y-117557831D01*
X183192778Y-117617009D01*
X183276443Y-117773534D01*
X183327963Y-117943373D01*
X183345359Y-118120000D01*
X183327963Y-118296627D01*
X183276443Y-118466466D01*
X183192778Y-118622991D01*
X183163448Y-118658729D01*
X183080186Y-118760186D01*
X182978729Y-118843448D01*
X182942991Y-118872778D01*
X182786466Y-118956443D01*
X182616627Y-119007963D01*
X182550443Y-119014481D01*
X182484260Y-119021000D01*
X182395740Y-119021000D01*
X182329557Y-119014481D01*
X182263373Y-119007963D01*
X182093534Y-118956443D01*
X181937009Y-118872778D01*
X181901271Y-118843448D01*
X181799814Y-118760186D01*
X181716552Y-118658729D01*
X181687222Y-118622991D01*
X181603557Y-118466466D01*
X181552037Y-118296627D01*
X181534641Y-118120000D01*
X181552037Y-117943373D01*
X181603557Y-117773534D01*
X181687222Y-117617009D01*
X181735788Y-117557831D01*
X181799814Y-117479814D01*
X181905294Y-117393250D01*
X181937009Y-117367222D01*
X182093534Y-117283557D01*
X182263373Y-117232037D01*
X182329558Y-117225518D01*
X182395740Y-117219000D01*
X182484260Y-117219000D01*
X182550442Y-117225518D01*
X182550442Y-117225518D01*
G37*
G36*
X180010442Y-117225518D02*
G01*
X180076627Y-117232037D01*
X180246466Y-117283557D01*
X180402991Y-117367222D01*
X180434706Y-117393250D01*
X180540186Y-117479814D01*
X180604212Y-117557831D01*
X180652778Y-117617009D01*
X180736443Y-117773534D01*
X180787963Y-117943373D01*
X180805359Y-118120000D01*
X180787963Y-118296627D01*
X180736443Y-118466466D01*
X180652778Y-118622991D01*
X180623448Y-118658729D01*
X180540186Y-118760186D01*
X180438729Y-118843448D01*
X180402991Y-118872778D01*
X180246466Y-118956443D01*
X180076627Y-119007963D01*
X180010443Y-119014481D01*
X179944260Y-119021000D01*
X179855740Y-119021000D01*
X179789557Y-119014481D01*
X179723373Y-119007963D01*
X179553534Y-118956443D01*
X179397009Y-118872778D01*
X179361271Y-118843448D01*
X179259814Y-118760186D01*
X179176552Y-118658729D01*
X179147222Y-118622991D01*
X179063557Y-118466466D01*
X179012037Y-118296627D01*
X178994641Y-118120000D01*
X179012037Y-117943373D01*
X179063557Y-117773534D01*
X179147222Y-117617009D01*
X179195788Y-117557831D01*
X179259814Y-117479814D01*
X179365294Y-117393250D01*
X179397009Y-117367222D01*
X179553534Y-117283557D01*
X179723373Y-117232037D01*
X179789558Y-117225518D01*
X179855740Y-117219000D01*
X179944260Y-117219000D01*
X180010442Y-117225518D01*
X180010442Y-117225518D01*
G37*
G36*
X159884468Y-117128565D02*
G01*
X159923138Y-117140296D01*
X159958777Y-117159346D01*
X159990017Y-117184983D01*
X160015654Y-117216223D01*
X160034704Y-117251862D01*
X160046435Y-117290532D01*
X160051000Y-117336888D01*
X160051000Y-117988112D01*
X160046435Y-118034468D01*
X160034704Y-118073138D01*
X160015654Y-118108777D01*
X159990017Y-118140017D01*
X159958777Y-118165654D01*
X159923138Y-118184704D01*
X159884468Y-118196435D01*
X159838112Y-118201000D01*
X158761888Y-118201000D01*
X158715532Y-118196435D01*
X158676862Y-118184704D01*
X158641223Y-118165654D01*
X158609983Y-118140017D01*
X158584346Y-118108777D01*
X158565296Y-118073138D01*
X158553565Y-118034468D01*
X158549000Y-117988112D01*
X158549000Y-117336888D01*
X158553565Y-117290532D01*
X158565296Y-117251862D01*
X158584346Y-117216223D01*
X158609983Y-117184983D01*
X158641223Y-117159346D01*
X158676862Y-117140296D01*
X158715532Y-117128565D01*
X158761888Y-117124000D01*
X159838112Y-117124000D01*
X159884468Y-117128565D01*
X159884468Y-117128565D01*
G37*
G36*
X164851000Y-117626000D02*
G01*
X161349000Y-117626000D01*
X161349000Y-116544000D01*
X164851000Y-116544000D01*
X164851000Y-117626000D01*
X164851000Y-117626000D01*
G37*
G36*
X170771938Y-116831716D02*
G01*
X170792557Y-116837971D01*
X170811553Y-116848124D01*
X170828208Y-116861792D01*
X170841876Y-116878447D01*
X170852029Y-116897443D01*
X170858284Y-116918062D01*
X170861000Y-116945640D01*
X170861000Y-117454360D01*
X170858284Y-117481938D01*
X170852029Y-117502557D01*
X170841876Y-117521553D01*
X170828208Y-117538208D01*
X170811553Y-117551876D01*
X170792557Y-117562029D01*
X170771938Y-117568284D01*
X170744360Y-117571000D01*
X170285640Y-117571000D01*
X170258062Y-117568284D01*
X170237443Y-117562029D01*
X170218447Y-117551876D01*
X170201792Y-117538208D01*
X170188124Y-117521553D01*
X170177971Y-117502557D01*
X170171716Y-117481938D01*
X170169000Y-117454360D01*
X170169000Y-116945640D01*
X170171716Y-116918062D01*
X170177971Y-116897443D01*
X170188124Y-116878447D01*
X170201792Y-116861792D01*
X170218447Y-116848124D01*
X170237443Y-116837971D01*
X170258062Y-116831716D01*
X170285640Y-116829000D01*
X170744360Y-116829000D01*
X170771938Y-116831716D01*
X170771938Y-116831716D01*
G37*
G36*
X171741938Y-116831716D02*
G01*
X171762557Y-116837971D01*
X171781553Y-116848124D01*
X171798208Y-116861792D01*
X171811876Y-116878447D01*
X171822029Y-116897443D01*
X171828284Y-116918062D01*
X171831000Y-116945640D01*
X171831000Y-117454360D01*
X171828284Y-117481938D01*
X171822029Y-117502557D01*
X171811876Y-117521553D01*
X171798208Y-117538208D01*
X171781553Y-117551876D01*
X171762557Y-117562029D01*
X171741938Y-117568284D01*
X171714360Y-117571000D01*
X171255640Y-117571000D01*
X171228062Y-117568284D01*
X171207443Y-117562029D01*
X171188447Y-117551876D01*
X171171792Y-117538208D01*
X171158124Y-117521553D01*
X171147971Y-117502557D01*
X171141716Y-117481938D01*
X171139000Y-117454360D01*
X171139000Y-116945640D01*
X171141716Y-116918062D01*
X171147971Y-116897443D01*
X171158124Y-116878447D01*
X171171792Y-116861792D01*
X171188447Y-116848124D01*
X171207443Y-116837971D01*
X171228062Y-116831716D01*
X171255640Y-116829000D01*
X171714360Y-116829000D01*
X171741938Y-116831716D01*
X171741938Y-116831716D01*
G37*
G36*
X180801000Y-116481000D02*
G01*
X178999000Y-116481000D01*
X178999000Y-114679000D01*
X180801000Y-114679000D01*
X180801000Y-116481000D01*
X180801000Y-116481000D01*
G37*
G36*
X155250442Y-114685518D02*
G01*
X155316627Y-114692037D01*
X155486466Y-114743557D01*
X155642991Y-114827222D01*
X155678729Y-114856552D01*
X155780186Y-114939814D01*
X155834500Y-115005997D01*
X155892778Y-115077009D01*
X155976443Y-115233534D01*
X156027963Y-115403373D01*
X156045359Y-115580000D01*
X156027963Y-115756627D01*
X155976443Y-115926466D01*
X155892778Y-116082991D01*
X155863448Y-116118729D01*
X155780186Y-116220186D01*
X155678729Y-116303448D01*
X155642991Y-116332778D01*
X155486466Y-116416443D01*
X155316627Y-116467963D01*
X155250442Y-116474482D01*
X155184260Y-116481000D01*
X155095740Y-116481000D01*
X155029558Y-116474482D01*
X154963373Y-116467963D01*
X154793534Y-116416443D01*
X154637009Y-116332778D01*
X154601271Y-116303448D01*
X154499814Y-116220186D01*
X154416552Y-116118729D01*
X154387222Y-116082991D01*
X154303557Y-115926466D01*
X154252037Y-115756627D01*
X154234641Y-115580000D01*
X154252037Y-115403373D01*
X154303557Y-115233534D01*
X154387222Y-115077009D01*
X154445500Y-115005997D01*
X154499814Y-114939814D01*
X154601271Y-114856552D01*
X154637009Y-114827222D01*
X154793534Y-114743557D01*
X154963373Y-114692037D01*
X155029558Y-114685518D01*
X155095740Y-114679000D01*
X155184260Y-114679000D01*
X155250442Y-114685518D01*
X155250442Y-114685518D01*
G37*
G36*
X182550442Y-114685518D02*
G01*
X182616627Y-114692037D01*
X182786466Y-114743557D01*
X182942991Y-114827222D01*
X182978729Y-114856552D01*
X183080186Y-114939814D01*
X183134500Y-115005997D01*
X183192778Y-115077009D01*
X183276443Y-115233534D01*
X183327963Y-115403373D01*
X183345359Y-115580000D01*
X183327963Y-115756627D01*
X183276443Y-115926466D01*
X183192778Y-116082991D01*
X183163448Y-116118729D01*
X183080186Y-116220186D01*
X182978729Y-116303448D01*
X182942991Y-116332778D01*
X182786466Y-116416443D01*
X182616627Y-116467963D01*
X182550442Y-116474482D01*
X182484260Y-116481000D01*
X182395740Y-116481000D01*
X182329558Y-116474482D01*
X182263373Y-116467963D01*
X182093534Y-116416443D01*
X181937009Y-116332778D01*
X181901271Y-116303448D01*
X181799814Y-116220186D01*
X181716552Y-116118729D01*
X181687222Y-116082991D01*
X181603557Y-115926466D01*
X181552037Y-115756627D01*
X181534641Y-115580000D01*
X181552037Y-115403373D01*
X181603557Y-115233534D01*
X181687222Y-115077009D01*
X181745500Y-115005997D01*
X181799814Y-114939814D01*
X181901271Y-114856552D01*
X181937009Y-114827222D01*
X182093534Y-114743557D01*
X182263373Y-114692037D01*
X182329558Y-114685518D01*
X182395740Y-114679000D01*
X182484260Y-114679000D01*
X182550442Y-114685518D01*
X182550442Y-114685518D01*
G37*
G36*
X153501000Y-116481000D02*
G01*
X151699000Y-116481000D01*
X151699000Y-114679000D01*
X153501000Y-114679000D01*
X153501000Y-116481000D01*
X153501000Y-116481000D01*
G37*
G36*
X159751000Y-115576000D02*
G01*
X158049000Y-115576000D01*
X158049000Y-113974000D01*
X159751000Y-113974000D01*
X159751000Y-115576000D01*
X159751000Y-115576000D01*
G37*
G36*
X164851000Y-115256000D02*
G01*
X161349000Y-115256000D01*
X161349000Y-114174000D01*
X164851000Y-114174000D01*
X164851000Y-115256000D01*
X164851000Y-115256000D01*
G37*
G36*
X177605997Y-113453051D02*
G01*
X177639652Y-113463261D01*
X177670665Y-113479838D01*
X177697851Y-113502149D01*
X177720162Y-113529335D01*
X177736739Y-113560348D01*
X177746949Y-113594003D01*
X177751000Y-113635138D01*
X177751000Y-114964862D01*
X177746949Y-115005997D01*
X177736739Y-115039652D01*
X177720162Y-115070665D01*
X177697851Y-115097851D01*
X177670665Y-115120162D01*
X177639652Y-115136739D01*
X177605997Y-115146949D01*
X177564862Y-115151000D01*
X175060138Y-115151000D01*
X175019003Y-115146949D01*
X174985348Y-115136739D01*
X174954335Y-115120162D01*
X174927149Y-115097851D01*
X174904838Y-115070665D01*
X174888261Y-115039652D01*
X174878051Y-115005997D01*
X174874000Y-114964862D01*
X174874000Y-113635138D01*
X174878051Y-113594003D01*
X174888261Y-113560348D01*
X174904838Y-113529335D01*
X174927149Y-113502149D01*
X174954335Y-113479838D01*
X174985348Y-113463261D01*
X175019003Y-113453051D01*
X175060138Y-113449000D01*
X177564862Y-113449000D01*
X177605997Y-113453051D01*
X177605997Y-113453051D01*
G37*
G36*
X173480997Y-113453051D02*
G01*
X173514652Y-113463261D01*
X173545665Y-113479838D01*
X173572851Y-113502149D01*
X173595162Y-113529335D01*
X173611739Y-113560348D01*
X173621949Y-113594003D01*
X173626000Y-113635138D01*
X173626000Y-114964862D01*
X173621949Y-115005997D01*
X173611739Y-115039652D01*
X173595162Y-115070665D01*
X173572851Y-115097851D01*
X173545665Y-115120162D01*
X173514652Y-115136739D01*
X173480997Y-115146949D01*
X173439862Y-115151000D01*
X170935138Y-115151000D01*
X170894003Y-115146949D01*
X170860348Y-115136739D01*
X170829335Y-115120162D01*
X170802149Y-115097851D01*
X170779838Y-115070665D01*
X170763261Y-115039652D01*
X170753051Y-115005997D01*
X170749000Y-114964862D01*
X170749000Y-113635138D01*
X170753051Y-113594003D01*
X170763261Y-113560348D01*
X170779838Y-113529335D01*
X170802149Y-113502149D01*
X170829335Y-113479838D01*
X170860348Y-113463261D01*
X170894003Y-113453051D01*
X170935138Y-113449000D01*
X173439862Y-113449000D01*
X173480997Y-113453051D01*
X173480997Y-113453051D01*
G37*
G36*
X169281000Y-113626000D02*
G01*
X168119000Y-113626000D01*
X168119000Y-110974000D01*
X169281000Y-110974000D01*
X169281000Y-113626000D01*
X169281000Y-113626000D01*
G37*
G36*
X167081000Y-113626000D02*
G01*
X165919000Y-113626000D01*
X165919000Y-110974000D01*
X167081000Y-110974000D01*
X167081000Y-113626000D01*
X167081000Y-113626000D01*
G37*
G36*
X178271938Y-112231716D02*
G01*
X178292557Y-112237971D01*
X178311553Y-112248124D01*
X178328208Y-112261792D01*
X178341876Y-112278447D01*
X178352029Y-112297443D01*
X178358284Y-112318062D01*
X178361000Y-112345640D01*
X178361000Y-112854360D01*
X178358284Y-112881938D01*
X178352029Y-112902557D01*
X178341876Y-112921553D01*
X178328208Y-112938208D01*
X178311553Y-112951876D01*
X178292557Y-112962029D01*
X178271938Y-112968284D01*
X178244360Y-112971000D01*
X177785640Y-112971000D01*
X177758062Y-112968284D01*
X177737443Y-112962029D01*
X177718447Y-112951876D01*
X177701792Y-112938208D01*
X177688124Y-112921553D01*
X177677971Y-112902557D01*
X177671716Y-112881938D01*
X177669000Y-112854360D01*
X177669000Y-112345640D01*
X177671716Y-112318062D01*
X177677971Y-112297443D01*
X177688124Y-112278447D01*
X177701792Y-112261792D01*
X177718447Y-112248124D01*
X177737443Y-112237971D01*
X177758062Y-112231716D01*
X177785640Y-112229000D01*
X178244360Y-112229000D01*
X178271938Y-112231716D01*
X178271938Y-112231716D01*
G37*
G36*
X179241938Y-112231716D02*
G01*
X179262557Y-112237971D01*
X179281553Y-112248124D01*
X179298208Y-112261792D01*
X179311876Y-112278447D01*
X179322029Y-112297443D01*
X179328284Y-112318062D01*
X179331000Y-112345640D01*
X179331000Y-112854360D01*
X179328284Y-112881938D01*
X179322029Y-112902557D01*
X179311876Y-112921553D01*
X179298208Y-112938208D01*
X179281553Y-112951876D01*
X179262557Y-112962029D01*
X179241938Y-112968284D01*
X179214360Y-112971000D01*
X178755640Y-112971000D01*
X178728062Y-112968284D01*
X178707443Y-112962029D01*
X178688447Y-112951876D01*
X178671792Y-112938208D01*
X178658124Y-112921553D01*
X178647971Y-112902557D01*
X178641716Y-112881938D01*
X178639000Y-112854360D01*
X178639000Y-112345640D01*
X178641716Y-112318062D01*
X178647971Y-112297443D01*
X178658124Y-112278447D01*
X178671792Y-112261792D01*
X178688447Y-112248124D01*
X178707443Y-112237971D01*
X178728062Y-112231716D01*
X178755640Y-112229000D01*
X179214360Y-112229000D01*
X179241938Y-112231716D01*
X179241938Y-112231716D01*
G37*
G36*
X158551000Y-112876000D02*
G01*
X157249000Y-112876000D01*
X157249000Y-111574000D01*
X158551000Y-111574000D01*
X158551000Y-112876000D01*
X158551000Y-112876000D01*
G37*
G36*
X160551000Y-112876000D02*
G01*
X159249000Y-112876000D01*
X159249000Y-111574000D01*
X160551000Y-111574000D01*
X160551000Y-112876000D01*
X160551000Y-112876000D01*
G37*
G36*
X163271938Y-111531716D02*
G01*
X163292557Y-111537971D01*
X163311553Y-111548124D01*
X163328208Y-111561792D01*
X163341876Y-111578447D01*
X163352029Y-111597443D01*
X163358284Y-111618062D01*
X163361000Y-111645640D01*
X163361000Y-112154360D01*
X163358284Y-112181938D01*
X163352029Y-112202557D01*
X163341876Y-112221553D01*
X163328208Y-112238208D01*
X163311553Y-112251876D01*
X163292557Y-112262029D01*
X163271938Y-112268284D01*
X163244360Y-112271000D01*
X162785640Y-112271000D01*
X162758062Y-112268284D01*
X162737443Y-112262029D01*
X162718447Y-112251876D01*
X162701792Y-112238208D01*
X162688124Y-112221553D01*
X162677971Y-112202557D01*
X162671716Y-112181938D01*
X162669000Y-112154360D01*
X162669000Y-111645640D01*
X162671716Y-111618062D01*
X162677971Y-111597443D01*
X162688124Y-111578447D01*
X162701792Y-111561792D01*
X162718447Y-111548124D01*
X162737443Y-111537971D01*
X162758062Y-111531716D01*
X162785640Y-111529000D01*
X163244360Y-111529000D01*
X163271938Y-111531716D01*
X163271938Y-111531716D01*
G37*
G36*
X164241938Y-111531716D02*
G01*
X164262557Y-111537971D01*
X164281553Y-111548124D01*
X164298208Y-111561792D01*
X164311876Y-111578447D01*
X164322029Y-111597443D01*
X164328284Y-111618062D01*
X164331000Y-111645640D01*
X164331000Y-112154360D01*
X164328284Y-112181938D01*
X164322029Y-112202557D01*
X164311876Y-112221553D01*
X164298208Y-112238208D01*
X164281553Y-112251876D01*
X164262557Y-112262029D01*
X164241938Y-112268284D01*
X164214360Y-112271000D01*
X163755640Y-112271000D01*
X163728062Y-112268284D01*
X163707443Y-112262029D01*
X163688447Y-112251876D01*
X163671792Y-112238208D01*
X163658124Y-112221553D01*
X163647971Y-112202557D01*
X163641716Y-112181938D01*
X163639000Y-112154360D01*
X163639000Y-111645640D01*
X163641716Y-111618062D01*
X163647971Y-111597443D01*
X163658124Y-111578447D01*
X163671792Y-111561792D01*
X163688447Y-111548124D01*
X163707443Y-111537971D01*
X163728062Y-111531716D01*
X163755640Y-111529000D01*
X164214360Y-111529000D01*
X164241938Y-111531716D01*
X164241938Y-111531716D01*
G37*
G36*
X171741938Y-111031716D02*
G01*
X171762557Y-111037971D01*
X171781553Y-111048124D01*
X171798208Y-111061792D01*
X171811876Y-111078447D01*
X171822029Y-111097443D01*
X171828284Y-111118062D01*
X171831000Y-111145640D01*
X171831000Y-111654360D01*
X171828284Y-111681938D01*
X171822029Y-111702557D01*
X171811876Y-111721553D01*
X171798208Y-111738208D01*
X171781553Y-111751876D01*
X171762557Y-111762029D01*
X171741938Y-111768284D01*
X171714360Y-111771000D01*
X171255640Y-111771000D01*
X171228062Y-111768284D01*
X171207443Y-111762029D01*
X171188447Y-111751876D01*
X171171792Y-111738208D01*
X171158124Y-111721553D01*
X171147971Y-111702557D01*
X171141716Y-111681938D01*
X171139000Y-111654360D01*
X171139000Y-111145640D01*
X171141716Y-111118062D01*
X171147971Y-111097443D01*
X171158124Y-111078447D01*
X171171792Y-111061792D01*
X171188447Y-111048124D01*
X171207443Y-111037971D01*
X171228062Y-111031716D01*
X171255640Y-111029000D01*
X171714360Y-111029000D01*
X171741938Y-111031716D01*
X171741938Y-111031716D01*
G37*
G36*
X170771938Y-111031716D02*
G01*
X170792557Y-111037971D01*
X170811553Y-111048124D01*
X170828208Y-111061792D01*
X170841876Y-111078447D01*
X170852029Y-111097443D01*
X170858284Y-111118062D01*
X170861000Y-111145640D01*
X170861000Y-111654360D01*
X170858284Y-111681938D01*
X170852029Y-111702557D01*
X170841876Y-111721553D01*
X170828208Y-111738208D01*
X170811553Y-111751876D01*
X170792557Y-111762029D01*
X170771938Y-111768284D01*
X170744360Y-111771000D01*
X170285640Y-111771000D01*
X170258062Y-111768284D01*
X170237443Y-111762029D01*
X170218447Y-111751876D01*
X170201792Y-111738208D01*
X170188124Y-111721553D01*
X170177971Y-111702557D01*
X170171716Y-111681938D01*
X170169000Y-111654360D01*
X170169000Y-111145640D01*
X170171716Y-111118062D01*
X170177971Y-111097443D01*
X170188124Y-111078447D01*
X170201792Y-111061792D01*
X170218447Y-111048124D01*
X170237443Y-111037971D01*
X170258062Y-111031716D01*
X170285640Y-111029000D01*
X170744360Y-111029000D01*
X170771938Y-111031716D01*
X170771938Y-111031716D01*
G37*
M02*
