G04 #@! TF.GenerationSoftware,KiCad,Pcbnew,(5.1.2)-2*
G04 #@! TF.CreationDate,2020-05-22T00:57:25-04:00*
G04 #@! TF.ProjectId,SWSupply,53575375-7070-46c7-992e-6b696361645f,rev?*
G04 #@! TF.SameCoordinates,Original*
G04 #@! TF.FileFunction,Paste,Top*
G04 #@! TF.FilePolarity,Positive*
%FSLAX46Y46*%
G04 Gerber Fmt 4.6, Leading zero omitted, Abs format (unit mm)*
G04 Created by KiCad (PCBNEW (5.1.2)-2) date 2020-05-22 00:57:25*
%MOMM*%
%LPD*%
G04 APERTURE LIST*
%ADD10R,3.400000X0.980000*%
%ADD11R,1.200000X1.200000*%
%ADD12R,1.600000X1.500000*%
%ADD13R,1.400000X1.390000*%
%ADD14R,3.360000X4.860000*%
%ADD15R,1.060000X0.650000*%
%ADD16C,0.100000*%
%ADD17C,0.590000*%
%ADD18C,0.975000*%
%ADD19C,1.600000*%
G04 APERTURE END LIST*
D10*
X163100000Y-117085000D03*
X163100000Y-114715000D03*
D11*
X159900000Y-112225000D03*
D12*
X158900000Y-114775000D03*
D11*
X157900000Y-112225000D03*
D13*
X167180000Y-122516000D03*
X169020000Y-122516000D03*
D14*
X168100000Y-118545000D03*
D15*
X168700000Y-112300000D03*
X168700000Y-111350000D03*
X168700000Y-113250000D03*
X166500000Y-113250000D03*
X166500000Y-112300000D03*
X166500000Y-111350000D03*
D16*
G36*
X164146958Y-111580710D02*
G01*
X164161276Y-111582834D01*
X164175317Y-111586351D01*
X164188946Y-111591228D01*
X164202031Y-111597417D01*
X164214447Y-111604858D01*
X164226073Y-111613481D01*
X164236798Y-111623202D01*
X164246519Y-111633927D01*
X164255142Y-111645553D01*
X164262583Y-111657969D01*
X164268772Y-111671054D01*
X164273649Y-111684683D01*
X164277166Y-111698724D01*
X164279290Y-111713042D01*
X164280000Y-111727500D01*
X164280000Y-112072500D01*
X164279290Y-112086958D01*
X164277166Y-112101276D01*
X164273649Y-112115317D01*
X164268772Y-112128946D01*
X164262583Y-112142031D01*
X164255142Y-112154447D01*
X164246519Y-112166073D01*
X164236798Y-112176798D01*
X164226073Y-112186519D01*
X164214447Y-112195142D01*
X164202031Y-112202583D01*
X164188946Y-112208772D01*
X164175317Y-112213649D01*
X164161276Y-112217166D01*
X164146958Y-112219290D01*
X164132500Y-112220000D01*
X163837500Y-112220000D01*
X163823042Y-112219290D01*
X163808724Y-112217166D01*
X163794683Y-112213649D01*
X163781054Y-112208772D01*
X163767969Y-112202583D01*
X163755553Y-112195142D01*
X163743927Y-112186519D01*
X163733202Y-112176798D01*
X163723481Y-112166073D01*
X163714858Y-112154447D01*
X163707417Y-112142031D01*
X163701228Y-112128946D01*
X163696351Y-112115317D01*
X163692834Y-112101276D01*
X163690710Y-112086958D01*
X163690000Y-112072500D01*
X163690000Y-111727500D01*
X163690710Y-111713042D01*
X163692834Y-111698724D01*
X163696351Y-111684683D01*
X163701228Y-111671054D01*
X163707417Y-111657969D01*
X163714858Y-111645553D01*
X163723481Y-111633927D01*
X163733202Y-111623202D01*
X163743927Y-111613481D01*
X163755553Y-111604858D01*
X163767969Y-111597417D01*
X163781054Y-111591228D01*
X163794683Y-111586351D01*
X163808724Y-111582834D01*
X163823042Y-111580710D01*
X163837500Y-111580000D01*
X164132500Y-111580000D01*
X164146958Y-111580710D01*
X164146958Y-111580710D01*
G37*
D17*
X163985000Y-111900000D03*
D16*
G36*
X163176958Y-111580710D02*
G01*
X163191276Y-111582834D01*
X163205317Y-111586351D01*
X163218946Y-111591228D01*
X163232031Y-111597417D01*
X163244447Y-111604858D01*
X163256073Y-111613481D01*
X163266798Y-111623202D01*
X163276519Y-111633927D01*
X163285142Y-111645553D01*
X163292583Y-111657969D01*
X163298772Y-111671054D01*
X163303649Y-111684683D01*
X163307166Y-111698724D01*
X163309290Y-111713042D01*
X163310000Y-111727500D01*
X163310000Y-112072500D01*
X163309290Y-112086958D01*
X163307166Y-112101276D01*
X163303649Y-112115317D01*
X163298772Y-112128946D01*
X163292583Y-112142031D01*
X163285142Y-112154447D01*
X163276519Y-112166073D01*
X163266798Y-112176798D01*
X163256073Y-112186519D01*
X163244447Y-112195142D01*
X163232031Y-112202583D01*
X163218946Y-112208772D01*
X163205317Y-112213649D01*
X163191276Y-112217166D01*
X163176958Y-112219290D01*
X163162500Y-112220000D01*
X162867500Y-112220000D01*
X162853042Y-112219290D01*
X162838724Y-112217166D01*
X162824683Y-112213649D01*
X162811054Y-112208772D01*
X162797969Y-112202583D01*
X162785553Y-112195142D01*
X162773927Y-112186519D01*
X162763202Y-112176798D01*
X162753481Y-112166073D01*
X162744858Y-112154447D01*
X162737417Y-112142031D01*
X162731228Y-112128946D01*
X162726351Y-112115317D01*
X162722834Y-112101276D01*
X162720710Y-112086958D01*
X162720000Y-112072500D01*
X162720000Y-111727500D01*
X162720710Y-111713042D01*
X162722834Y-111698724D01*
X162726351Y-111684683D01*
X162731228Y-111671054D01*
X162737417Y-111657969D01*
X162744858Y-111645553D01*
X162753481Y-111633927D01*
X162763202Y-111623202D01*
X162773927Y-111613481D01*
X162785553Y-111604858D01*
X162797969Y-111597417D01*
X162811054Y-111591228D01*
X162824683Y-111586351D01*
X162838724Y-111582834D01*
X162853042Y-111580710D01*
X162867500Y-111580000D01*
X163162500Y-111580000D01*
X163176958Y-111580710D01*
X163176958Y-111580710D01*
G37*
D17*
X163015000Y-111900000D03*
D16*
G36*
X171646958Y-111080710D02*
G01*
X171661276Y-111082834D01*
X171675317Y-111086351D01*
X171688946Y-111091228D01*
X171702031Y-111097417D01*
X171714447Y-111104858D01*
X171726073Y-111113481D01*
X171736798Y-111123202D01*
X171746519Y-111133927D01*
X171755142Y-111145553D01*
X171762583Y-111157969D01*
X171768772Y-111171054D01*
X171773649Y-111184683D01*
X171777166Y-111198724D01*
X171779290Y-111213042D01*
X171780000Y-111227500D01*
X171780000Y-111572500D01*
X171779290Y-111586958D01*
X171777166Y-111601276D01*
X171773649Y-111615317D01*
X171768772Y-111628946D01*
X171762583Y-111642031D01*
X171755142Y-111654447D01*
X171746519Y-111666073D01*
X171736798Y-111676798D01*
X171726073Y-111686519D01*
X171714447Y-111695142D01*
X171702031Y-111702583D01*
X171688946Y-111708772D01*
X171675317Y-111713649D01*
X171661276Y-111717166D01*
X171646958Y-111719290D01*
X171632500Y-111720000D01*
X171337500Y-111720000D01*
X171323042Y-111719290D01*
X171308724Y-111717166D01*
X171294683Y-111713649D01*
X171281054Y-111708772D01*
X171267969Y-111702583D01*
X171255553Y-111695142D01*
X171243927Y-111686519D01*
X171233202Y-111676798D01*
X171223481Y-111666073D01*
X171214858Y-111654447D01*
X171207417Y-111642031D01*
X171201228Y-111628946D01*
X171196351Y-111615317D01*
X171192834Y-111601276D01*
X171190710Y-111586958D01*
X171190000Y-111572500D01*
X171190000Y-111227500D01*
X171190710Y-111213042D01*
X171192834Y-111198724D01*
X171196351Y-111184683D01*
X171201228Y-111171054D01*
X171207417Y-111157969D01*
X171214858Y-111145553D01*
X171223481Y-111133927D01*
X171233202Y-111123202D01*
X171243927Y-111113481D01*
X171255553Y-111104858D01*
X171267969Y-111097417D01*
X171281054Y-111091228D01*
X171294683Y-111086351D01*
X171308724Y-111082834D01*
X171323042Y-111080710D01*
X171337500Y-111080000D01*
X171632500Y-111080000D01*
X171646958Y-111080710D01*
X171646958Y-111080710D01*
G37*
D17*
X171485000Y-111400000D03*
D16*
G36*
X170676958Y-111080710D02*
G01*
X170691276Y-111082834D01*
X170705317Y-111086351D01*
X170718946Y-111091228D01*
X170732031Y-111097417D01*
X170744447Y-111104858D01*
X170756073Y-111113481D01*
X170766798Y-111123202D01*
X170776519Y-111133927D01*
X170785142Y-111145553D01*
X170792583Y-111157969D01*
X170798772Y-111171054D01*
X170803649Y-111184683D01*
X170807166Y-111198724D01*
X170809290Y-111213042D01*
X170810000Y-111227500D01*
X170810000Y-111572500D01*
X170809290Y-111586958D01*
X170807166Y-111601276D01*
X170803649Y-111615317D01*
X170798772Y-111628946D01*
X170792583Y-111642031D01*
X170785142Y-111654447D01*
X170776519Y-111666073D01*
X170766798Y-111676798D01*
X170756073Y-111686519D01*
X170744447Y-111695142D01*
X170732031Y-111702583D01*
X170718946Y-111708772D01*
X170705317Y-111713649D01*
X170691276Y-111717166D01*
X170676958Y-111719290D01*
X170662500Y-111720000D01*
X170367500Y-111720000D01*
X170353042Y-111719290D01*
X170338724Y-111717166D01*
X170324683Y-111713649D01*
X170311054Y-111708772D01*
X170297969Y-111702583D01*
X170285553Y-111695142D01*
X170273927Y-111686519D01*
X170263202Y-111676798D01*
X170253481Y-111666073D01*
X170244858Y-111654447D01*
X170237417Y-111642031D01*
X170231228Y-111628946D01*
X170226351Y-111615317D01*
X170222834Y-111601276D01*
X170220710Y-111586958D01*
X170220000Y-111572500D01*
X170220000Y-111227500D01*
X170220710Y-111213042D01*
X170222834Y-111198724D01*
X170226351Y-111184683D01*
X170231228Y-111171054D01*
X170237417Y-111157969D01*
X170244858Y-111145553D01*
X170253481Y-111133927D01*
X170263202Y-111123202D01*
X170273927Y-111113481D01*
X170285553Y-111104858D01*
X170297969Y-111097417D01*
X170311054Y-111091228D01*
X170324683Y-111086351D01*
X170338724Y-111082834D01*
X170353042Y-111080710D01*
X170367500Y-111080000D01*
X170662500Y-111080000D01*
X170676958Y-111080710D01*
X170676958Y-111080710D01*
G37*
D17*
X170515000Y-111400000D03*
D16*
G36*
X159780142Y-117176174D02*
G01*
X159803803Y-117179684D01*
X159827007Y-117185496D01*
X159849529Y-117193554D01*
X159871153Y-117203782D01*
X159891670Y-117216079D01*
X159910883Y-117230329D01*
X159928607Y-117246393D01*
X159944671Y-117264117D01*
X159958921Y-117283330D01*
X159971218Y-117303847D01*
X159981446Y-117325471D01*
X159989504Y-117347993D01*
X159995316Y-117371197D01*
X159998826Y-117394858D01*
X160000000Y-117418750D01*
X160000000Y-117906250D01*
X159998826Y-117930142D01*
X159995316Y-117953803D01*
X159989504Y-117977007D01*
X159981446Y-117999529D01*
X159971218Y-118021153D01*
X159958921Y-118041670D01*
X159944671Y-118060883D01*
X159928607Y-118078607D01*
X159910883Y-118094671D01*
X159891670Y-118108921D01*
X159871153Y-118121218D01*
X159849529Y-118131446D01*
X159827007Y-118139504D01*
X159803803Y-118145316D01*
X159780142Y-118148826D01*
X159756250Y-118150000D01*
X158843750Y-118150000D01*
X158819858Y-118148826D01*
X158796197Y-118145316D01*
X158772993Y-118139504D01*
X158750471Y-118131446D01*
X158728847Y-118121218D01*
X158708330Y-118108921D01*
X158689117Y-118094671D01*
X158671393Y-118078607D01*
X158655329Y-118060883D01*
X158641079Y-118041670D01*
X158628782Y-118021153D01*
X158618554Y-117999529D01*
X158610496Y-117977007D01*
X158604684Y-117953803D01*
X158601174Y-117930142D01*
X158600000Y-117906250D01*
X158600000Y-117418750D01*
X158601174Y-117394858D01*
X158604684Y-117371197D01*
X158610496Y-117347993D01*
X158618554Y-117325471D01*
X158628782Y-117303847D01*
X158641079Y-117283330D01*
X158655329Y-117264117D01*
X158671393Y-117246393D01*
X158689117Y-117230329D01*
X158708330Y-117216079D01*
X158728847Y-117203782D01*
X158750471Y-117193554D01*
X158772993Y-117185496D01*
X158796197Y-117179684D01*
X158819858Y-117176174D01*
X158843750Y-117175000D01*
X159756250Y-117175000D01*
X159780142Y-117176174D01*
X159780142Y-117176174D01*
G37*
D18*
X159300000Y-117662500D03*
D16*
G36*
X159780142Y-119051174D02*
G01*
X159803803Y-119054684D01*
X159827007Y-119060496D01*
X159849529Y-119068554D01*
X159871153Y-119078782D01*
X159891670Y-119091079D01*
X159910883Y-119105329D01*
X159928607Y-119121393D01*
X159944671Y-119139117D01*
X159958921Y-119158330D01*
X159971218Y-119178847D01*
X159981446Y-119200471D01*
X159989504Y-119222993D01*
X159995316Y-119246197D01*
X159998826Y-119269858D01*
X160000000Y-119293750D01*
X160000000Y-119781250D01*
X159998826Y-119805142D01*
X159995316Y-119828803D01*
X159989504Y-119852007D01*
X159981446Y-119874529D01*
X159971218Y-119896153D01*
X159958921Y-119916670D01*
X159944671Y-119935883D01*
X159928607Y-119953607D01*
X159910883Y-119969671D01*
X159891670Y-119983921D01*
X159871153Y-119996218D01*
X159849529Y-120006446D01*
X159827007Y-120014504D01*
X159803803Y-120020316D01*
X159780142Y-120023826D01*
X159756250Y-120025000D01*
X158843750Y-120025000D01*
X158819858Y-120023826D01*
X158796197Y-120020316D01*
X158772993Y-120014504D01*
X158750471Y-120006446D01*
X158728847Y-119996218D01*
X158708330Y-119983921D01*
X158689117Y-119969671D01*
X158671393Y-119953607D01*
X158655329Y-119935883D01*
X158641079Y-119916670D01*
X158628782Y-119896153D01*
X158618554Y-119874529D01*
X158610496Y-119852007D01*
X158604684Y-119828803D01*
X158601174Y-119805142D01*
X158600000Y-119781250D01*
X158600000Y-119293750D01*
X158601174Y-119269858D01*
X158604684Y-119246197D01*
X158610496Y-119222993D01*
X158618554Y-119200471D01*
X158628782Y-119178847D01*
X158641079Y-119158330D01*
X158655329Y-119139117D01*
X158671393Y-119121393D01*
X158689117Y-119105329D01*
X158708330Y-119091079D01*
X158728847Y-119078782D01*
X158750471Y-119068554D01*
X158772993Y-119060496D01*
X158796197Y-119054684D01*
X158819858Y-119051174D01*
X158843750Y-119050000D01*
X159756250Y-119050000D01*
X159780142Y-119051174D01*
X159780142Y-119051174D01*
G37*
D18*
X159300000Y-119537500D03*
D16*
G36*
X159780142Y-122551174D02*
G01*
X159803803Y-122554684D01*
X159827007Y-122560496D01*
X159849529Y-122568554D01*
X159871153Y-122578782D01*
X159891670Y-122591079D01*
X159910883Y-122605329D01*
X159928607Y-122621393D01*
X159944671Y-122639117D01*
X159958921Y-122658330D01*
X159971218Y-122678847D01*
X159981446Y-122700471D01*
X159989504Y-122722993D01*
X159995316Y-122746197D01*
X159998826Y-122769858D01*
X160000000Y-122793750D01*
X160000000Y-123281250D01*
X159998826Y-123305142D01*
X159995316Y-123328803D01*
X159989504Y-123352007D01*
X159981446Y-123374529D01*
X159971218Y-123396153D01*
X159958921Y-123416670D01*
X159944671Y-123435883D01*
X159928607Y-123453607D01*
X159910883Y-123469671D01*
X159891670Y-123483921D01*
X159871153Y-123496218D01*
X159849529Y-123506446D01*
X159827007Y-123514504D01*
X159803803Y-123520316D01*
X159780142Y-123523826D01*
X159756250Y-123525000D01*
X158843750Y-123525000D01*
X158819858Y-123523826D01*
X158796197Y-123520316D01*
X158772993Y-123514504D01*
X158750471Y-123506446D01*
X158728847Y-123496218D01*
X158708330Y-123483921D01*
X158689117Y-123469671D01*
X158671393Y-123453607D01*
X158655329Y-123435883D01*
X158641079Y-123416670D01*
X158628782Y-123396153D01*
X158618554Y-123374529D01*
X158610496Y-123352007D01*
X158604684Y-123328803D01*
X158601174Y-123305142D01*
X158600000Y-123281250D01*
X158600000Y-122793750D01*
X158601174Y-122769858D01*
X158604684Y-122746197D01*
X158610496Y-122722993D01*
X158618554Y-122700471D01*
X158628782Y-122678847D01*
X158641079Y-122658330D01*
X158655329Y-122639117D01*
X158671393Y-122621393D01*
X158689117Y-122605329D01*
X158708330Y-122591079D01*
X158728847Y-122578782D01*
X158750471Y-122568554D01*
X158772993Y-122560496D01*
X158796197Y-122554684D01*
X158819858Y-122551174D01*
X158843750Y-122550000D01*
X159756250Y-122550000D01*
X159780142Y-122551174D01*
X159780142Y-122551174D01*
G37*
D18*
X159300000Y-123037500D03*
D16*
G36*
X159780142Y-120676174D02*
G01*
X159803803Y-120679684D01*
X159827007Y-120685496D01*
X159849529Y-120693554D01*
X159871153Y-120703782D01*
X159891670Y-120716079D01*
X159910883Y-120730329D01*
X159928607Y-120746393D01*
X159944671Y-120764117D01*
X159958921Y-120783330D01*
X159971218Y-120803847D01*
X159981446Y-120825471D01*
X159989504Y-120847993D01*
X159995316Y-120871197D01*
X159998826Y-120894858D01*
X160000000Y-120918750D01*
X160000000Y-121406250D01*
X159998826Y-121430142D01*
X159995316Y-121453803D01*
X159989504Y-121477007D01*
X159981446Y-121499529D01*
X159971218Y-121521153D01*
X159958921Y-121541670D01*
X159944671Y-121560883D01*
X159928607Y-121578607D01*
X159910883Y-121594671D01*
X159891670Y-121608921D01*
X159871153Y-121621218D01*
X159849529Y-121631446D01*
X159827007Y-121639504D01*
X159803803Y-121645316D01*
X159780142Y-121648826D01*
X159756250Y-121650000D01*
X158843750Y-121650000D01*
X158819858Y-121648826D01*
X158796197Y-121645316D01*
X158772993Y-121639504D01*
X158750471Y-121631446D01*
X158728847Y-121621218D01*
X158708330Y-121608921D01*
X158689117Y-121594671D01*
X158671393Y-121578607D01*
X158655329Y-121560883D01*
X158641079Y-121541670D01*
X158628782Y-121521153D01*
X158618554Y-121499529D01*
X158610496Y-121477007D01*
X158604684Y-121453803D01*
X158601174Y-121430142D01*
X158600000Y-121406250D01*
X158600000Y-120918750D01*
X158601174Y-120894858D01*
X158604684Y-120871197D01*
X158610496Y-120847993D01*
X158618554Y-120825471D01*
X158628782Y-120803847D01*
X158641079Y-120783330D01*
X158655329Y-120764117D01*
X158671393Y-120746393D01*
X158689117Y-120730329D01*
X158708330Y-120716079D01*
X158728847Y-120703782D01*
X158750471Y-120693554D01*
X158772993Y-120685496D01*
X158796197Y-120679684D01*
X158819858Y-120676174D01*
X158843750Y-120675000D01*
X159756250Y-120675000D01*
X159780142Y-120676174D01*
X159780142Y-120676174D01*
G37*
D18*
X159300000Y-121162500D03*
D16*
G36*
X171646958Y-116880710D02*
G01*
X171661276Y-116882834D01*
X171675317Y-116886351D01*
X171688946Y-116891228D01*
X171702031Y-116897417D01*
X171714447Y-116904858D01*
X171726073Y-116913481D01*
X171736798Y-116923202D01*
X171746519Y-116933927D01*
X171755142Y-116945553D01*
X171762583Y-116957969D01*
X171768772Y-116971054D01*
X171773649Y-116984683D01*
X171777166Y-116998724D01*
X171779290Y-117013042D01*
X171780000Y-117027500D01*
X171780000Y-117372500D01*
X171779290Y-117386958D01*
X171777166Y-117401276D01*
X171773649Y-117415317D01*
X171768772Y-117428946D01*
X171762583Y-117442031D01*
X171755142Y-117454447D01*
X171746519Y-117466073D01*
X171736798Y-117476798D01*
X171726073Y-117486519D01*
X171714447Y-117495142D01*
X171702031Y-117502583D01*
X171688946Y-117508772D01*
X171675317Y-117513649D01*
X171661276Y-117517166D01*
X171646958Y-117519290D01*
X171632500Y-117520000D01*
X171337500Y-117520000D01*
X171323042Y-117519290D01*
X171308724Y-117517166D01*
X171294683Y-117513649D01*
X171281054Y-117508772D01*
X171267969Y-117502583D01*
X171255553Y-117495142D01*
X171243927Y-117486519D01*
X171233202Y-117476798D01*
X171223481Y-117466073D01*
X171214858Y-117454447D01*
X171207417Y-117442031D01*
X171201228Y-117428946D01*
X171196351Y-117415317D01*
X171192834Y-117401276D01*
X171190710Y-117386958D01*
X171190000Y-117372500D01*
X171190000Y-117027500D01*
X171190710Y-117013042D01*
X171192834Y-116998724D01*
X171196351Y-116984683D01*
X171201228Y-116971054D01*
X171207417Y-116957969D01*
X171214858Y-116945553D01*
X171223481Y-116933927D01*
X171233202Y-116923202D01*
X171243927Y-116913481D01*
X171255553Y-116904858D01*
X171267969Y-116897417D01*
X171281054Y-116891228D01*
X171294683Y-116886351D01*
X171308724Y-116882834D01*
X171323042Y-116880710D01*
X171337500Y-116880000D01*
X171632500Y-116880000D01*
X171646958Y-116880710D01*
X171646958Y-116880710D01*
G37*
D17*
X171485000Y-117200000D03*
D16*
G36*
X170676958Y-116880710D02*
G01*
X170691276Y-116882834D01*
X170705317Y-116886351D01*
X170718946Y-116891228D01*
X170732031Y-116897417D01*
X170744447Y-116904858D01*
X170756073Y-116913481D01*
X170766798Y-116923202D01*
X170776519Y-116933927D01*
X170785142Y-116945553D01*
X170792583Y-116957969D01*
X170798772Y-116971054D01*
X170803649Y-116984683D01*
X170807166Y-116998724D01*
X170809290Y-117013042D01*
X170810000Y-117027500D01*
X170810000Y-117372500D01*
X170809290Y-117386958D01*
X170807166Y-117401276D01*
X170803649Y-117415317D01*
X170798772Y-117428946D01*
X170792583Y-117442031D01*
X170785142Y-117454447D01*
X170776519Y-117466073D01*
X170766798Y-117476798D01*
X170756073Y-117486519D01*
X170744447Y-117495142D01*
X170732031Y-117502583D01*
X170718946Y-117508772D01*
X170705317Y-117513649D01*
X170691276Y-117517166D01*
X170676958Y-117519290D01*
X170662500Y-117520000D01*
X170367500Y-117520000D01*
X170353042Y-117519290D01*
X170338724Y-117517166D01*
X170324683Y-117513649D01*
X170311054Y-117508772D01*
X170297969Y-117502583D01*
X170285553Y-117495142D01*
X170273927Y-117486519D01*
X170263202Y-117476798D01*
X170253481Y-117466073D01*
X170244858Y-117454447D01*
X170237417Y-117442031D01*
X170231228Y-117428946D01*
X170226351Y-117415317D01*
X170222834Y-117401276D01*
X170220710Y-117386958D01*
X170220000Y-117372500D01*
X170220000Y-117027500D01*
X170220710Y-117013042D01*
X170222834Y-116998724D01*
X170226351Y-116984683D01*
X170231228Y-116971054D01*
X170237417Y-116957969D01*
X170244858Y-116945553D01*
X170253481Y-116933927D01*
X170263202Y-116923202D01*
X170273927Y-116913481D01*
X170285553Y-116904858D01*
X170297969Y-116897417D01*
X170311054Y-116891228D01*
X170324683Y-116886351D01*
X170338724Y-116882834D01*
X170353042Y-116880710D01*
X170367500Y-116880000D01*
X170662500Y-116880000D01*
X170676958Y-116880710D01*
X170676958Y-116880710D01*
G37*
D17*
X170515000Y-117200000D03*
D16*
G36*
X178176958Y-112280710D02*
G01*
X178191276Y-112282834D01*
X178205317Y-112286351D01*
X178218946Y-112291228D01*
X178232031Y-112297417D01*
X178244447Y-112304858D01*
X178256073Y-112313481D01*
X178266798Y-112323202D01*
X178276519Y-112333927D01*
X178285142Y-112345553D01*
X178292583Y-112357969D01*
X178298772Y-112371054D01*
X178303649Y-112384683D01*
X178307166Y-112398724D01*
X178309290Y-112413042D01*
X178310000Y-112427500D01*
X178310000Y-112772500D01*
X178309290Y-112786958D01*
X178307166Y-112801276D01*
X178303649Y-112815317D01*
X178298772Y-112828946D01*
X178292583Y-112842031D01*
X178285142Y-112854447D01*
X178276519Y-112866073D01*
X178266798Y-112876798D01*
X178256073Y-112886519D01*
X178244447Y-112895142D01*
X178232031Y-112902583D01*
X178218946Y-112908772D01*
X178205317Y-112913649D01*
X178191276Y-112917166D01*
X178176958Y-112919290D01*
X178162500Y-112920000D01*
X177867500Y-112920000D01*
X177853042Y-112919290D01*
X177838724Y-112917166D01*
X177824683Y-112913649D01*
X177811054Y-112908772D01*
X177797969Y-112902583D01*
X177785553Y-112895142D01*
X177773927Y-112886519D01*
X177763202Y-112876798D01*
X177753481Y-112866073D01*
X177744858Y-112854447D01*
X177737417Y-112842031D01*
X177731228Y-112828946D01*
X177726351Y-112815317D01*
X177722834Y-112801276D01*
X177720710Y-112786958D01*
X177720000Y-112772500D01*
X177720000Y-112427500D01*
X177720710Y-112413042D01*
X177722834Y-112398724D01*
X177726351Y-112384683D01*
X177731228Y-112371054D01*
X177737417Y-112357969D01*
X177744858Y-112345553D01*
X177753481Y-112333927D01*
X177763202Y-112323202D01*
X177773927Y-112313481D01*
X177785553Y-112304858D01*
X177797969Y-112297417D01*
X177811054Y-112291228D01*
X177824683Y-112286351D01*
X177838724Y-112282834D01*
X177853042Y-112280710D01*
X177867500Y-112280000D01*
X178162500Y-112280000D01*
X178176958Y-112280710D01*
X178176958Y-112280710D01*
G37*
D17*
X178015000Y-112600000D03*
D16*
G36*
X179146958Y-112280710D02*
G01*
X179161276Y-112282834D01*
X179175317Y-112286351D01*
X179188946Y-112291228D01*
X179202031Y-112297417D01*
X179214447Y-112304858D01*
X179226073Y-112313481D01*
X179236798Y-112323202D01*
X179246519Y-112333927D01*
X179255142Y-112345553D01*
X179262583Y-112357969D01*
X179268772Y-112371054D01*
X179273649Y-112384683D01*
X179277166Y-112398724D01*
X179279290Y-112413042D01*
X179280000Y-112427500D01*
X179280000Y-112772500D01*
X179279290Y-112786958D01*
X179277166Y-112801276D01*
X179273649Y-112815317D01*
X179268772Y-112828946D01*
X179262583Y-112842031D01*
X179255142Y-112854447D01*
X179246519Y-112866073D01*
X179236798Y-112876798D01*
X179226073Y-112886519D01*
X179214447Y-112895142D01*
X179202031Y-112902583D01*
X179188946Y-112908772D01*
X179175317Y-112913649D01*
X179161276Y-112917166D01*
X179146958Y-112919290D01*
X179132500Y-112920000D01*
X178837500Y-112920000D01*
X178823042Y-112919290D01*
X178808724Y-112917166D01*
X178794683Y-112913649D01*
X178781054Y-112908772D01*
X178767969Y-112902583D01*
X178755553Y-112895142D01*
X178743927Y-112886519D01*
X178733202Y-112876798D01*
X178723481Y-112866073D01*
X178714858Y-112854447D01*
X178707417Y-112842031D01*
X178701228Y-112828946D01*
X178696351Y-112815317D01*
X178692834Y-112801276D01*
X178690710Y-112786958D01*
X178690000Y-112772500D01*
X178690000Y-112427500D01*
X178690710Y-112413042D01*
X178692834Y-112398724D01*
X178696351Y-112384683D01*
X178701228Y-112371054D01*
X178707417Y-112357969D01*
X178714858Y-112345553D01*
X178723481Y-112333927D01*
X178733202Y-112323202D01*
X178743927Y-112313481D01*
X178755553Y-112304858D01*
X178767969Y-112297417D01*
X178781054Y-112291228D01*
X178794683Y-112286351D01*
X178808724Y-112282834D01*
X178823042Y-112280710D01*
X178837500Y-112280000D01*
X179132500Y-112280000D01*
X179146958Y-112280710D01*
X179146958Y-112280710D01*
G37*
D17*
X178985000Y-112600000D03*
D16*
G36*
X177399505Y-119426205D02*
G01*
X177423774Y-119429805D01*
X177447572Y-119435766D01*
X177470672Y-119444031D01*
X177492850Y-119454521D01*
X177513894Y-119467134D01*
X177533599Y-119481748D01*
X177551778Y-119498224D01*
X177568254Y-119516403D01*
X177582868Y-119536108D01*
X177595481Y-119557152D01*
X177605971Y-119579330D01*
X177614236Y-119602430D01*
X177620197Y-119626228D01*
X177623797Y-119650497D01*
X177625001Y-119675001D01*
X177625001Y-120775001D01*
X177623797Y-120799505D01*
X177620197Y-120823774D01*
X177614236Y-120847572D01*
X177605971Y-120870672D01*
X177595481Y-120892850D01*
X177582868Y-120913894D01*
X177568254Y-120933599D01*
X177551778Y-120951778D01*
X177533599Y-120968254D01*
X177513894Y-120982868D01*
X177492850Y-120995481D01*
X177470672Y-121005971D01*
X177447572Y-121014236D01*
X177423774Y-121020197D01*
X177399505Y-121023797D01*
X177375001Y-121025001D01*
X175100001Y-121025001D01*
X175075497Y-121023797D01*
X175051228Y-121020197D01*
X175027430Y-121014236D01*
X175004330Y-121005971D01*
X174982152Y-120995481D01*
X174961108Y-120982868D01*
X174941403Y-120968254D01*
X174923224Y-120951778D01*
X174906748Y-120933599D01*
X174892134Y-120913894D01*
X174879521Y-120892850D01*
X174869031Y-120870672D01*
X174860766Y-120847572D01*
X174854805Y-120823774D01*
X174851205Y-120799505D01*
X174850001Y-120775001D01*
X174850001Y-119675001D01*
X174851205Y-119650497D01*
X174854805Y-119626228D01*
X174860766Y-119602430D01*
X174869031Y-119579330D01*
X174879521Y-119557152D01*
X174892134Y-119536108D01*
X174906748Y-119516403D01*
X174923224Y-119498224D01*
X174941403Y-119481748D01*
X174961108Y-119467134D01*
X174982152Y-119454521D01*
X175004330Y-119444031D01*
X175027430Y-119435766D01*
X175051228Y-119429805D01*
X175075497Y-119426205D01*
X175100001Y-119425001D01*
X177375001Y-119425001D01*
X177399505Y-119426205D01*
X177399505Y-119426205D01*
G37*
D19*
X176237501Y-120225001D03*
D16*
G36*
X173274505Y-119426205D02*
G01*
X173298774Y-119429805D01*
X173322572Y-119435766D01*
X173345672Y-119444031D01*
X173367850Y-119454521D01*
X173388894Y-119467134D01*
X173408599Y-119481748D01*
X173426778Y-119498224D01*
X173443254Y-119516403D01*
X173457868Y-119536108D01*
X173470481Y-119557152D01*
X173480971Y-119579330D01*
X173489236Y-119602430D01*
X173495197Y-119626228D01*
X173498797Y-119650497D01*
X173500001Y-119675001D01*
X173500001Y-120775001D01*
X173498797Y-120799505D01*
X173495197Y-120823774D01*
X173489236Y-120847572D01*
X173480971Y-120870672D01*
X173470481Y-120892850D01*
X173457868Y-120913894D01*
X173443254Y-120933599D01*
X173426778Y-120951778D01*
X173408599Y-120968254D01*
X173388894Y-120982868D01*
X173367850Y-120995481D01*
X173345672Y-121005971D01*
X173322572Y-121014236D01*
X173298774Y-121020197D01*
X173274505Y-121023797D01*
X173250001Y-121025001D01*
X170975001Y-121025001D01*
X170950497Y-121023797D01*
X170926228Y-121020197D01*
X170902430Y-121014236D01*
X170879330Y-121005971D01*
X170857152Y-120995481D01*
X170836108Y-120982868D01*
X170816403Y-120968254D01*
X170798224Y-120951778D01*
X170781748Y-120933599D01*
X170767134Y-120913894D01*
X170754521Y-120892850D01*
X170744031Y-120870672D01*
X170735766Y-120847572D01*
X170729805Y-120823774D01*
X170726205Y-120799505D01*
X170725001Y-120775001D01*
X170725001Y-119675001D01*
X170726205Y-119650497D01*
X170729805Y-119626228D01*
X170735766Y-119602430D01*
X170744031Y-119579330D01*
X170754521Y-119557152D01*
X170767134Y-119536108D01*
X170781748Y-119516403D01*
X170798224Y-119498224D01*
X170816403Y-119481748D01*
X170836108Y-119467134D01*
X170857152Y-119454521D01*
X170879330Y-119444031D01*
X170902430Y-119435766D01*
X170926228Y-119429805D01*
X170950497Y-119426205D01*
X170975001Y-119425001D01*
X173250001Y-119425001D01*
X173274505Y-119426205D01*
X173274505Y-119426205D01*
G37*
D19*
X172112501Y-120225001D03*
D16*
G36*
X177474504Y-113501204D02*
G01*
X177498773Y-113504804D01*
X177522571Y-113510765D01*
X177545671Y-113519030D01*
X177567849Y-113529520D01*
X177588893Y-113542133D01*
X177608598Y-113556747D01*
X177626777Y-113573223D01*
X177643253Y-113591402D01*
X177657867Y-113611107D01*
X177670480Y-113632151D01*
X177680970Y-113654329D01*
X177689235Y-113677429D01*
X177695196Y-113701227D01*
X177698796Y-113725496D01*
X177700000Y-113750000D01*
X177700000Y-114850000D01*
X177698796Y-114874504D01*
X177695196Y-114898773D01*
X177689235Y-114922571D01*
X177680970Y-114945671D01*
X177670480Y-114967849D01*
X177657867Y-114988893D01*
X177643253Y-115008598D01*
X177626777Y-115026777D01*
X177608598Y-115043253D01*
X177588893Y-115057867D01*
X177567849Y-115070480D01*
X177545671Y-115080970D01*
X177522571Y-115089235D01*
X177498773Y-115095196D01*
X177474504Y-115098796D01*
X177450000Y-115100000D01*
X175175000Y-115100000D01*
X175150496Y-115098796D01*
X175126227Y-115095196D01*
X175102429Y-115089235D01*
X175079329Y-115080970D01*
X175057151Y-115070480D01*
X175036107Y-115057867D01*
X175016402Y-115043253D01*
X174998223Y-115026777D01*
X174981747Y-115008598D01*
X174967133Y-114988893D01*
X174954520Y-114967849D01*
X174944030Y-114945671D01*
X174935765Y-114922571D01*
X174929804Y-114898773D01*
X174926204Y-114874504D01*
X174925000Y-114850000D01*
X174925000Y-113750000D01*
X174926204Y-113725496D01*
X174929804Y-113701227D01*
X174935765Y-113677429D01*
X174944030Y-113654329D01*
X174954520Y-113632151D01*
X174967133Y-113611107D01*
X174981747Y-113591402D01*
X174998223Y-113573223D01*
X175016402Y-113556747D01*
X175036107Y-113542133D01*
X175057151Y-113529520D01*
X175079329Y-113519030D01*
X175102429Y-113510765D01*
X175126227Y-113504804D01*
X175150496Y-113501204D01*
X175175000Y-113500000D01*
X177450000Y-113500000D01*
X177474504Y-113501204D01*
X177474504Y-113501204D01*
G37*
D19*
X176312500Y-114300000D03*
D16*
G36*
X173349504Y-113501204D02*
G01*
X173373773Y-113504804D01*
X173397571Y-113510765D01*
X173420671Y-113519030D01*
X173442849Y-113529520D01*
X173463893Y-113542133D01*
X173483598Y-113556747D01*
X173501777Y-113573223D01*
X173518253Y-113591402D01*
X173532867Y-113611107D01*
X173545480Y-113632151D01*
X173555970Y-113654329D01*
X173564235Y-113677429D01*
X173570196Y-113701227D01*
X173573796Y-113725496D01*
X173575000Y-113750000D01*
X173575000Y-114850000D01*
X173573796Y-114874504D01*
X173570196Y-114898773D01*
X173564235Y-114922571D01*
X173555970Y-114945671D01*
X173545480Y-114967849D01*
X173532867Y-114988893D01*
X173518253Y-115008598D01*
X173501777Y-115026777D01*
X173483598Y-115043253D01*
X173463893Y-115057867D01*
X173442849Y-115070480D01*
X173420671Y-115080970D01*
X173397571Y-115089235D01*
X173373773Y-115095196D01*
X173349504Y-115098796D01*
X173325000Y-115100000D01*
X171050000Y-115100000D01*
X171025496Y-115098796D01*
X171001227Y-115095196D01*
X170977429Y-115089235D01*
X170954329Y-115080970D01*
X170932151Y-115070480D01*
X170911107Y-115057867D01*
X170891402Y-115043253D01*
X170873223Y-115026777D01*
X170856747Y-115008598D01*
X170842133Y-114988893D01*
X170829520Y-114967849D01*
X170819030Y-114945671D01*
X170810765Y-114922571D01*
X170804804Y-114898773D01*
X170801204Y-114874504D01*
X170800000Y-114850000D01*
X170800000Y-113750000D01*
X170801204Y-113725496D01*
X170804804Y-113701227D01*
X170810765Y-113677429D01*
X170819030Y-113654329D01*
X170829520Y-113632151D01*
X170842133Y-113611107D01*
X170856747Y-113591402D01*
X170873223Y-113573223D01*
X170891402Y-113556747D01*
X170911107Y-113542133D01*
X170932151Y-113529520D01*
X170954329Y-113519030D01*
X170977429Y-113510765D01*
X171001227Y-113504804D01*
X171025496Y-113501204D01*
X171050000Y-113500000D01*
X173325000Y-113500000D01*
X173349504Y-113501204D01*
X173349504Y-113501204D01*
G37*
D19*
X172187500Y-114300000D03*
M02*
