G04 #@! TF.GenerationSoftware,KiCad,Pcbnew,(5.1.2)-2*
G04 #@! TF.CreationDate,2020-05-22T00:57:25-04:00*
G04 #@! TF.ProjectId,SWSupply,53575375-7070-46c7-992e-6b696361645f,rev?*
G04 #@! TF.SameCoordinates,Original*
G04 #@! TF.FileFunction,Copper,L1,Top*
G04 #@! TF.FilePolarity,Positive*
%FSLAX46Y46*%
G04 Gerber Fmt 4.6, Leading zero omitted, Abs format (unit mm)*
G04 Created by KiCad (PCBNEW (5.1.2)-2) date 2020-05-22 00:57:25*
%MOMM*%
%LPD*%
G04 APERTURE LIST*
%ADD10C,0.600000*%
%ADD11R,3.400000X0.980000*%
%ADD12R,1.200000X1.200000*%
%ADD13R,1.600000X1.500000*%
%ADD14R,1.400000X1.390000*%
%ADD15R,3.360000X4.860000*%
%ADD16R,1.060000X0.650000*%
%ADD17C,0.100000*%
%ADD18C,0.590000*%
%ADD19O,1.700000X1.700000*%
%ADD20R,1.700000X1.700000*%
%ADD21C,0.975000*%
%ADD22C,1.600000*%
%ADD23C,0.800000*%
%ADD24C,0.250000*%
%ADD25C,0.254000*%
G04 APERTURE END LIST*
D10*
X164900000Y-123100000D03*
X163900000Y-123100000D03*
X162900000Y-123100000D03*
X161900000Y-123100000D03*
X160900000Y-123100000D03*
X157100000Y-123100000D03*
X156100000Y-123100000D03*
X155100000Y-123100000D03*
X154100000Y-123100000D03*
X153100000Y-123100000D03*
X164900000Y-118700000D03*
X163900000Y-118700000D03*
X162900000Y-118700000D03*
X161900000Y-118700000D03*
X160900000Y-118700000D03*
X164900000Y-121700000D03*
X163900000Y-121700000D03*
X162900000Y-121700000D03*
X161900000Y-121700000D03*
X160900000Y-121700000D03*
X157100000Y-121700000D03*
X156100000Y-121700000D03*
X155100000Y-121700000D03*
X154100000Y-121700000D03*
X153100000Y-121700000D03*
X152100000Y-121700000D03*
X164900000Y-120700000D03*
X163900000Y-120700000D03*
X162900000Y-120700000D03*
X161900000Y-120700000D03*
X160900000Y-120700000D03*
X157100000Y-120700000D03*
X156100000Y-120700000D03*
X155100000Y-120700000D03*
X154100000Y-120700000D03*
X153100000Y-120700000D03*
X152100000Y-120700000D03*
X164900000Y-119700000D03*
X163900000Y-119700000D03*
X162900000Y-119700000D03*
X161900000Y-119700000D03*
X160900000Y-119700000D03*
X157100000Y-119700000D03*
X156100000Y-119700000D03*
X155100000Y-119700000D03*
X154100000Y-119700000D03*
X153100000Y-119700000D03*
X165100000Y-110500000D03*
X164100000Y-110500000D03*
X163100000Y-110500000D03*
X162100000Y-110500000D03*
X161100000Y-110500000D03*
X160100000Y-110500000D03*
X159100000Y-110500000D03*
X158100000Y-110500000D03*
X157100000Y-110500000D03*
X156100000Y-113500000D03*
X155100000Y-113500000D03*
X154100000Y-113500000D03*
X153100000Y-113500000D03*
X152100000Y-113500000D03*
X156100000Y-112500000D03*
X155100000Y-112500000D03*
X154100000Y-112500000D03*
X153100000Y-112500000D03*
X152100000Y-112500000D03*
X156100000Y-111500000D03*
X155100000Y-111500000D03*
X154100000Y-111500000D03*
X153100000Y-111500000D03*
X152100000Y-111500000D03*
X152100000Y-119700000D03*
X156100000Y-110500000D03*
X155100000Y-110500000D03*
X154100000Y-110500000D03*
X153100000Y-110500000D03*
X180100000Y-112500000D03*
X181100000Y-112500000D03*
X182100000Y-112500000D03*
X183100000Y-112500000D03*
X180100000Y-113500000D03*
X181100000Y-113500000D03*
X182100000Y-113500000D03*
X183100000Y-113500000D03*
X173600000Y-111500000D03*
X174600000Y-111500000D03*
X175600000Y-111500000D03*
X176600000Y-111500000D03*
X177600000Y-111500000D03*
X178600000Y-111500000D03*
X179600000Y-111500000D03*
X180600000Y-111500000D03*
X181600000Y-111500000D03*
X182600000Y-111500000D03*
X171600000Y-110500000D03*
X172600000Y-110500000D03*
X173600000Y-110500000D03*
X174600000Y-110500000D03*
X175600000Y-110500000D03*
X176600000Y-110500000D03*
X177600000Y-110500000D03*
X178600000Y-110500000D03*
X179600000Y-110500000D03*
X180600000Y-110500000D03*
X181600000Y-110500000D03*
X182600000Y-110500000D03*
X170900000Y-123000000D03*
X171900000Y-123000000D03*
X172900000Y-123000000D03*
X173900000Y-123000000D03*
X174900000Y-123000000D03*
X175900000Y-123000000D03*
X176900000Y-123000000D03*
X177900000Y-123000000D03*
X178900000Y-123000000D03*
X170900000Y-122000000D03*
X171900000Y-122000000D03*
X172900000Y-122000000D03*
X173900000Y-122000000D03*
X174900000Y-122000000D03*
X175900000Y-122000000D03*
X176900000Y-122000000D03*
X177900000Y-122000000D03*
X182900000Y-123000000D03*
X181900000Y-123000000D03*
X180900000Y-123000000D03*
X179900000Y-123000000D03*
X182900000Y-122000000D03*
X181900000Y-122000000D03*
X180900000Y-122000000D03*
X179900000Y-122000000D03*
X178900000Y-122000000D03*
X182900000Y-121000000D03*
X181900000Y-121000000D03*
X180900000Y-121000000D03*
X179900000Y-121000000D03*
X178900000Y-121000000D03*
X182900000Y-120000000D03*
X181900000Y-120000000D03*
X180900000Y-120000000D03*
X179900000Y-120000000D03*
X178900000Y-120000000D03*
D11*
X163100000Y-117085000D03*
X163100000Y-114715000D03*
D12*
X159900000Y-112225000D03*
D13*
X158900000Y-114775000D03*
D12*
X157900000Y-112225000D03*
D14*
X167180000Y-122516000D03*
X169020000Y-122516000D03*
D15*
X168100000Y-118545000D03*
D16*
X168700000Y-112300000D03*
X168700000Y-111350000D03*
X168700000Y-113250000D03*
X166500000Y-113250000D03*
X166500000Y-112300000D03*
X166500000Y-111350000D03*
D17*
G36*
X164146958Y-111580710D02*
G01*
X164161276Y-111582834D01*
X164175317Y-111586351D01*
X164188946Y-111591228D01*
X164202031Y-111597417D01*
X164214447Y-111604858D01*
X164226073Y-111613481D01*
X164236798Y-111623202D01*
X164246519Y-111633927D01*
X164255142Y-111645553D01*
X164262583Y-111657969D01*
X164268772Y-111671054D01*
X164273649Y-111684683D01*
X164277166Y-111698724D01*
X164279290Y-111713042D01*
X164280000Y-111727500D01*
X164280000Y-112072500D01*
X164279290Y-112086958D01*
X164277166Y-112101276D01*
X164273649Y-112115317D01*
X164268772Y-112128946D01*
X164262583Y-112142031D01*
X164255142Y-112154447D01*
X164246519Y-112166073D01*
X164236798Y-112176798D01*
X164226073Y-112186519D01*
X164214447Y-112195142D01*
X164202031Y-112202583D01*
X164188946Y-112208772D01*
X164175317Y-112213649D01*
X164161276Y-112217166D01*
X164146958Y-112219290D01*
X164132500Y-112220000D01*
X163837500Y-112220000D01*
X163823042Y-112219290D01*
X163808724Y-112217166D01*
X163794683Y-112213649D01*
X163781054Y-112208772D01*
X163767969Y-112202583D01*
X163755553Y-112195142D01*
X163743927Y-112186519D01*
X163733202Y-112176798D01*
X163723481Y-112166073D01*
X163714858Y-112154447D01*
X163707417Y-112142031D01*
X163701228Y-112128946D01*
X163696351Y-112115317D01*
X163692834Y-112101276D01*
X163690710Y-112086958D01*
X163690000Y-112072500D01*
X163690000Y-111727500D01*
X163690710Y-111713042D01*
X163692834Y-111698724D01*
X163696351Y-111684683D01*
X163701228Y-111671054D01*
X163707417Y-111657969D01*
X163714858Y-111645553D01*
X163723481Y-111633927D01*
X163733202Y-111623202D01*
X163743927Y-111613481D01*
X163755553Y-111604858D01*
X163767969Y-111597417D01*
X163781054Y-111591228D01*
X163794683Y-111586351D01*
X163808724Y-111582834D01*
X163823042Y-111580710D01*
X163837500Y-111580000D01*
X164132500Y-111580000D01*
X164146958Y-111580710D01*
X164146958Y-111580710D01*
G37*
D18*
X163985000Y-111900000D03*
D17*
G36*
X163176958Y-111580710D02*
G01*
X163191276Y-111582834D01*
X163205317Y-111586351D01*
X163218946Y-111591228D01*
X163232031Y-111597417D01*
X163244447Y-111604858D01*
X163256073Y-111613481D01*
X163266798Y-111623202D01*
X163276519Y-111633927D01*
X163285142Y-111645553D01*
X163292583Y-111657969D01*
X163298772Y-111671054D01*
X163303649Y-111684683D01*
X163307166Y-111698724D01*
X163309290Y-111713042D01*
X163310000Y-111727500D01*
X163310000Y-112072500D01*
X163309290Y-112086958D01*
X163307166Y-112101276D01*
X163303649Y-112115317D01*
X163298772Y-112128946D01*
X163292583Y-112142031D01*
X163285142Y-112154447D01*
X163276519Y-112166073D01*
X163266798Y-112176798D01*
X163256073Y-112186519D01*
X163244447Y-112195142D01*
X163232031Y-112202583D01*
X163218946Y-112208772D01*
X163205317Y-112213649D01*
X163191276Y-112217166D01*
X163176958Y-112219290D01*
X163162500Y-112220000D01*
X162867500Y-112220000D01*
X162853042Y-112219290D01*
X162838724Y-112217166D01*
X162824683Y-112213649D01*
X162811054Y-112208772D01*
X162797969Y-112202583D01*
X162785553Y-112195142D01*
X162773927Y-112186519D01*
X162763202Y-112176798D01*
X162753481Y-112166073D01*
X162744858Y-112154447D01*
X162737417Y-112142031D01*
X162731228Y-112128946D01*
X162726351Y-112115317D01*
X162722834Y-112101276D01*
X162720710Y-112086958D01*
X162720000Y-112072500D01*
X162720000Y-111727500D01*
X162720710Y-111713042D01*
X162722834Y-111698724D01*
X162726351Y-111684683D01*
X162731228Y-111671054D01*
X162737417Y-111657969D01*
X162744858Y-111645553D01*
X162753481Y-111633927D01*
X162763202Y-111623202D01*
X162773927Y-111613481D01*
X162785553Y-111604858D01*
X162797969Y-111597417D01*
X162811054Y-111591228D01*
X162824683Y-111586351D01*
X162838724Y-111582834D01*
X162853042Y-111580710D01*
X162867500Y-111580000D01*
X163162500Y-111580000D01*
X163176958Y-111580710D01*
X163176958Y-111580710D01*
G37*
D18*
X163015000Y-111900000D03*
D17*
G36*
X171646958Y-111080710D02*
G01*
X171661276Y-111082834D01*
X171675317Y-111086351D01*
X171688946Y-111091228D01*
X171702031Y-111097417D01*
X171714447Y-111104858D01*
X171726073Y-111113481D01*
X171736798Y-111123202D01*
X171746519Y-111133927D01*
X171755142Y-111145553D01*
X171762583Y-111157969D01*
X171768772Y-111171054D01*
X171773649Y-111184683D01*
X171777166Y-111198724D01*
X171779290Y-111213042D01*
X171780000Y-111227500D01*
X171780000Y-111572500D01*
X171779290Y-111586958D01*
X171777166Y-111601276D01*
X171773649Y-111615317D01*
X171768772Y-111628946D01*
X171762583Y-111642031D01*
X171755142Y-111654447D01*
X171746519Y-111666073D01*
X171736798Y-111676798D01*
X171726073Y-111686519D01*
X171714447Y-111695142D01*
X171702031Y-111702583D01*
X171688946Y-111708772D01*
X171675317Y-111713649D01*
X171661276Y-111717166D01*
X171646958Y-111719290D01*
X171632500Y-111720000D01*
X171337500Y-111720000D01*
X171323042Y-111719290D01*
X171308724Y-111717166D01*
X171294683Y-111713649D01*
X171281054Y-111708772D01*
X171267969Y-111702583D01*
X171255553Y-111695142D01*
X171243927Y-111686519D01*
X171233202Y-111676798D01*
X171223481Y-111666073D01*
X171214858Y-111654447D01*
X171207417Y-111642031D01*
X171201228Y-111628946D01*
X171196351Y-111615317D01*
X171192834Y-111601276D01*
X171190710Y-111586958D01*
X171190000Y-111572500D01*
X171190000Y-111227500D01*
X171190710Y-111213042D01*
X171192834Y-111198724D01*
X171196351Y-111184683D01*
X171201228Y-111171054D01*
X171207417Y-111157969D01*
X171214858Y-111145553D01*
X171223481Y-111133927D01*
X171233202Y-111123202D01*
X171243927Y-111113481D01*
X171255553Y-111104858D01*
X171267969Y-111097417D01*
X171281054Y-111091228D01*
X171294683Y-111086351D01*
X171308724Y-111082834D01*
X171323042Y-111080710D01*
X171337500Y-111080000D01*
X171632500Y-111080000D01*
X171646958Y-111080710D01*
X171646958Y-111080710D01*
G37*
D18*
X171485000Y-111400000D03*
D17*
G36*
X170676958Y-111080710D02*
G01*
X170691276Y-111082834D01*
X170705317Y-111086351D01*
X170718946Y-111091228D01*
X170732031Y-111097417D01*
X170744447Y-111104858D01*
X170756073Y-111113481D01*
X170766798Y-111123202D01*
X170776519Y-111133927D01*
X170785142Y-111145553D01*
X170792583Y-111157969D01*
X170798772Y-111171054D01*
X170803649Y-111184683D01*
X170807166Y-111198724D01*
X170809290Y-111213042D01*
X170810000Y-111227500D01*
X170810000Y-111572500D01*
X170809290Y-111586958D01*
X170807166Y-111601276D01*
X170803649Y-111615317D01*
X170798772Y-111628946D01*
X170792583Y-111642031D01*
X170785142Y-111654447D01*
X170776519Y-111666073D01*
X170766798Y-111676798D01*
X170756073Y-111686519D01*
X170744447Y-111695142D01*
X170732031Y-111702583D01*
X170718946Y-111708772D01*
X170705317Y-111713649D01*
X170691276Y-111717166D01*
X170676958Y-111719290D01*
X170662500Y-111720000D01*
X170367500Y-111720000D01*
X170353042Y-111719290D01*
X170338724Y-111717166D01*
X170324683Y-111713649D01*
X170311054Y-111708772D01*
X170297969Y-111702583D01*
X170285553Y-111695142D01*
X170273927Y-111686519D01*
X170263202Y-111676798D01*
X170253481Y-111666073D01*
X170244858Y-111654447D01*
X170237417Y-111642031D01*
X170231228Y-111628946D01*
X170226351Y-111615317D01*
X170222834Y-111601276D01*
X170220710Y-111586958D01*
X170220000Y-111572500D01*
X170220000Y-111227500D01*
X170220710Y-111213042D01*
X170222834Y-111198724D01*
X170226351Y-111184683D01*
X170231228Y-111171054D01*
X170237417Y-111157969D01*
X170244858Y-111145553D01*
X170253481Y-111133927D01*
X170263202Y-111123202D01*
X170273927Y-111113481D01*
X170285553Y-111104858D01*
X170297969Y-111097417D01*
X170311054Y-111091228D01*
X170324683Y-111086351D01*
X170338724Y-111082834D01*
X170353042Y-111080710D01*
X170367500Y-111080000D01*
X170662500Y-111080000D01*
X170676958Y-111080710D01*
X170676958Y-111080710D01*
G37*
D18*
X170515000Y-111400000D03*
D19*
X155140000Y-118120000D03*
X152600000Y-118120000D03*
X155140000Y-115580000D03*
D20*
X152600000Y-115580000D03*
D19*
X182440000Y-118120000D03*
X179900000Y-118120000D03*
X182440000Y-115580000D03*
D20*
X179900000Y-115580000D03*
D17*
G36*
X159780142Y-117176174D02*
G01*
X159803803Y-117179684D01*
X159827007Y-117185496D01*
X159849529Y-117193554D01*
X159871153Y-117203782D01*
X159891670Y-117216079D01*
X159910883Y-117230329D01*
X159928607Y-117246393D01*
X159944671Y-117264117D01*
X159958921Y-117283330D01*
X159971218Y-117303847D01*
X159981446Y-117325471D01*
X159989504Y-117347993D01*
X159995316Y-117371197D01*
X159998826Y-117394858D01*
X160000000Y-117418750D01*
X160000000Y-117906250D01*
X159998826Y-117930142D01*
X159995316Y-117953803D01*
X159989504Y-117977007D01*
X159981446Y-117999529D01*
X159971218Y-118021153D01*
X159958921Y-118041670D01*
X159944671Y-118060883D01*
X159928607Y-118078607D01*
X159910883Y-118094671D01*
X159891670Y-118108921D01*
X159871153Y-118121218D01*
X159849529Y-118131446D01*
X159827007Y-118139504D01*
X159803803Y-118145316D01*
X159780142Y-118148826D01*
X159756250Y-118150000D01*
X158843750Y-118150000D01*
X158819858Y-118148826D01*
X158796197Y-118145316D01*
X158772993Y-118139504D01*
X158750471Y-118131446D01*
X158728847Y-118121218D01*
X158708330Y-118108921D01*
X158689117Y-118094671D01*
X158671393Y-118078607D01*
X158655329Y-118060883D01*
X158641079Y-118041670D01*
X158628782Y-118021153D01*
X158618554Y-117999529D01*
X158610496Y-117977007D01*
X158604684Y-117953803D01*
X158601174Y-117930142D01*
X158600000Y-117906250D01*
X158600000Y-117418750D01*
X158601174Y-117394858D01*
X158604684Y-117371197D01*
X158610496Y-117347993D01*
X158618554Y-117325471D01*
X158628782Y-117303847D01*
X158641079Y-117283330D01*
X158655329Y-117264117D01*
X158671393Y-117246393D01*
X158689117Y-117230329D01*
X158708330Y-117216079D01*
X158728847Y-117203782D01*
X158750471Y-117193554D01*
X158772993Y-117185496D01*
X158796197Y-117179684D01*
X158819858Y-117176174D01*
X158843750Y-117175000D01*
X159756250Y-117175000D01*
X159780142Y-117176174D01*
X159780142Y-117176174D01*
G37*
D21*
X159300000Y-117662500D03*
D17*
G36*
X159780142Y-119051174D02*
G01*
X159803803Y-119054684D01*
X159827007Y-119060496D01*
X159849529Y-119068554D01*
X159871153Y-119078782D01*
X159891670Y-119091079D01*
X159910883Y-119105329D01*
X159928607Y-119121393D01*
X159944671Y-119139117D01*
X159958921Y-119158330D01*
X159971218Y-119178847D01*
X159981446Y-119200471D01*
X159989504Y-119222993D01*
X159995316Y-119246197D01*
X159998826Y-119269858D01*
X160000000Y-119293750D01*
X160000000Y-119781250D01*
X159998826Y-119805142D01*
X159995316Y-119828803D01*
X159989504Y-119852007D01*
X159981446Y-119874529D01*
X159971218Y-119896153D01*
X159958921Y-119916670D01*
X159944671Y-119935883D01*
X159928607Y-119953607D01*
X159910883Y-119969671D01*
X159891670Y-119983921D01*
X159871153Y-119996218D01*
X159849529Y-120006446D01*
X159827007Y-120014504D01*
X159803803Y-120020316D01*
X159780142Y-120023826D01*
X159756250Y-120025000D01*
X158843750Y-120025000D01*
X158819858Y-120023826D01*
X158796197Y-120020316D01*
X158772993Y-120014504D01*
X158750471Y-120006446D01*
X158728847Y-119996218D01*
X158708330Y-119983921D01*
X158689117Y-119969671D01*
X158671393Y-119953607D01*
X158655329Y-119935883D01*
X158641079Y-119916670D01*
X158628782Y-119896153D01*
X158618554Y-119874529D01*
X158610496Y-119852007D01*
X158604684Y-119828803D01*
X158601174Y-119805142D01*
X158600000Y-119781250D01*
X158600000Y-119293750D01*
X158601174Y-119269858D01*
X158604684Y-119246197D01*
X158610496Y-119222993D01*
X158618554Y-119200471D01*
X158628782Y-119178847D01*
X158641079Y-119158330D01*
X158655329Y-119139117D01*
X158671393Y-119121393D01*
X158689117Y-119105329D01*
X158708330Y-119091079D01*
X158728847Y-119078782D01*
X158750471Y-119068554D01*
X158772993Y-119060496D01*
X158796197Y-119054684D01*
X158819858Y-119051174D01*
X158843750Y-119050000D01*
X159756250Y-119050000D01*
X159780142Y-119051174D01*
X159780142Y-119051174D01*
G37*
D21*
X159300000Y-119537500D03*
D17*
G36*
X159780142Y-122551174D02*
G01*
X159803803Y-122554684D01*
X159827007Y-122560496D01*
X159849529Y-122568554D01*
X159871153Y-122578782D01*
X159891670Y-122591079D01*
X159910883Y-122605329D01*
X159928607Y-122621393D01*
X159944671Y-122639117D01*
X159958921Y-122658330D01*
X159971218Y-122678847D01*
X159981446Y-122700471D01*
X159989504Y-122722993D01*
X159995316Y-122746197D01*
X159998826Y-122769858D01*
X160000000Y-122793750D01*
X160000000Y-123281250D01*
X159998826Y-123305142D01*
X159995316Y-123328803D01*
X159989504Y-123352007D01*
X159981446Y-123374529D01*
X159971218Y-123396153D01*
X159958921Y-123416670D01*
X159944671Y-123435883D01*
X159928607Y-123453607D01*
X159910883Y-123469671D01*
X159891670Y-123483921D01*
X159871153Y-123496218D01*
X159849529Y-123506446D01*
X159827007Y-123514504D01*
X159803803Y-123520316D01*
X159780142Y-123523826D01*
X159756250Y-123525000D01*
X158843750Y-123525000D01*
X158819858Y-123523826D01*
X158796197Y-123520316D01*
X158772993Y-123514504D01*
X158750471Y-123506446D01*
X158728847Y-123496218D01*
X158708330Y-123483921D01*
X158689117Y-123469671D01*
X158671393Y-123453607D01*
X158655329Y-123435883D01*
X158641079Y-123416670D01*
X158628782Y-123396153D01*
X158618554Y-123374529D01*
X158610496Y-123352007D01*
X158604684Y-123328803D01*
X158601174Y-123305142D01*
X158600000Y-123281250D01*
X158600000Y-122793750D01*
X158601174Y-122769858D01*
X158604684Y-122746197D01*
X158610496Y-122722993D01*
X158618554Y-122700471D01*
X158628782Y-122678847D01*
X158641079Y-122658330D01*
X158655329Y-122639117D01*
X158671393Y-122621393D01*
X158689117Y-122605329D01*
X158708330Y-122591079D01*
X158728847Y-122578782D01*
X158750471Y-122568554D01*
X158772993Y-122560496D01*
X158796197Y-122554684D01*
X158819858Y-122551174D01*
X158843750Y-122550000D01*
X159756250Y-122550000D01*
X159780142Y-122551174D01*
X159780142Y-122551174D01*
G37*
D21*
X159300000Y-123037500D03*
D17*
G36*
X159780142Y-120676174D02*
G01*
X159803803Y-120679684D01*
X159827007Y-120685496D01*
X159849529Y-120693554D01*
X159871153Y-120703782D01*
X159891670Y-120716079D01*
X159910883Y-120730329D01*
X159928607Y-120746393D01*
X159944671Y-120764117D01*
X159958921Y-120783330D01*
X159971218Y-120803847D01*
X159981446Y-120825471D01*
X159989504Y-120847993D01*
X159995316Y-120871197D01*
X159998826Y-120894858D01*
X160000000Y-120918750D01*
X160000000Y-121406250D01*
X159998826Y-121430142D01*
X159995316Y-121453803D01*
X159989504Y-121477007D01*
X159981446Y-121499529D01*
X159971218Y-121521153D01*
X159958921Y-121541670D01*
X159944671Y-121560883D01*
X159928607Y-121578607D01*
X159910883Y-121594671D01*
X159891670Y-121608921D01*
X159871153Y-121621218D01*
X159849529Y-121631446D01*
X159827007Y-121639504D01*
X159803803Y-121645316D01*
X159780142Y-121648826D01*
X159756250Y-121650000D01*
X158843750Y-121650000D01*
X158819858Y-121648826D01*
X158796197Y-121645316D01*
X158772993Y-121639504D01*
X158750471Y-121631446D01*
X158728847Y-121621218D01*
X158708330Y-121608921D01*
X158689117Y-121594671D01*
X158671393Y-121578607D01*
X158655329Y-121560883D01*
X158641079Y-121541670D01*
X158628782Y-121521153D01*
X158618554Y-121499529D01*
X158610496Y-121477007D01*
X158604684Y-121453803D01*
X158601174Y-121430142D01*
X158600000Y-121406250D01*
X158600000Y-120918750D01*
X158601174Y-120894858D01*
X158604684Y-120871197D01*
X158610496Y-120847993D01*
X158618554Y-120825471D01*
X158628782Y-120803847D01*
X158641079Y-120783330D01*
X158655329Y-120764117D01*
X158671393Y-120746393D01*
X158689117Y-120730329D01*
X158708330Y-120716079D01*
X158728847Y-120703782D01*
X158750471Y-120693554D01*
X158772993Y-120685496D01*
X158796197Y-120679684D01*
X158819858Y-120676174D01*
X158843750Y-120675000D01*
X159756250Y-120675000D01*
X159780142Y-120676174D01*
X159780142Y-120676174D01*
G37*
D21*
X159300000Y-121162500D03*
D17*
G36*
X171646958Y-116880710D02*
G01*
X171661276Y-116882834D01*
X171675317Y-116886351D01*
X171688946Y-116891228D01*
X171702031Y-116897417D01*
X171714447Y-116904858D01*
X171726073Y-116913481D01*
X171736798Y-116923202D01*
X171746519Y-116933927D01*
X171755142Y-116945553D01*
X171762583Y-116957969D01*
X171768772Y-116971054D01*
X171773649Y-116984683D01*
X171777166Y-116998724D01*
X171779290Y-117013042D01*
X171780000Y-117027500D01*
X171780000Y-117372500D01*
X171779290Y-117386958D01*
X171777166Y-117401276D01*
X171773649Y-117415317D01*
X171768772Y-117428946D01*
X171762583Y-117442031D01*
X171755142Y-117454447D01*
X171746519Y-117466073D01*
X171736798Y-117476798D01*
X171726073Y-117486519D01*
X171714447Y-117495142D01*
X171702031Y-117502583D01*
X171688946Y-117508772D01*
X171675317Y-117513649D01*
X171661276Y-117517166D01*
X171646958Y-117519290D01*
X171632500Y-117520000D01*
X171337500Y-117520000D01*
X171323042Y-117519290D01*
X171308724Y-117517166D01*
X171294683Y-117513649D01*
X171281054Y-117508772D01*
X171267969Y-117502583D01*
X171255553Y-117495142D01*
X171243927Y-117486519D01*
X171233202Y-117476798D01*
X171223481Y-117466073D01*
X171214858Y-117454447D01*
X171207417Y-117442031D01*
X171201228Y-117428946D01*
X171196351Y-117415317D01*
X171192834Y-117401276D01*
X171190710Y-117386958D01*
X171190000Y-117372500D01*
X171190000Y-117027500D01*
X171190710Y-117013042D01*
X171192834Y-116998724D01*
X171196351Y-116984683D01*
X171201228Y-116971054D01*
X171207417Y-116957969D01*
X171214858Y-116945553D01*
X171223481Y-116933927D01*
X171233202Y-116923202D01*
X171243927Y-116913481D01*
X171255553Y-116904858D01*
X171267969Y-116897417D01*
X171281054Y-116891228D01*
X171294683Y-116886351D01*
X171308724Y-116882834D01*
X171323042Y-116880710D01*
X171337500Y-116880000D01*
X171632500Y-116880000D01*
X171646958Y-116880710D01*
X171646958Y-116880710D01*
G37*
D18*
X171485000Y-117200000D03*
D17*
G36*
X170676958Y-116880710D02*
G01*
X170691276Y-116882834D01*
X170705317Y-116886351D01*
X170718946Y-116891228D01*
X170732031Y-116897417D01*
X170744447Y-116904858D01*
X170756073Y-116913481D01*
X170766798Y-116923202D01*
X170776519Y-116933927D01*
X170785142Y-116945553D01*
X170792583Y-116957969D01*
X170798772Y-116971054D01*
X170803649Y-116984683D01*
X170807166Y-116998724D01*
X170809290Y-117013042D01*
X170810000Y-117027500D01*
X170810000Y-117372500D01*
X170809290Y-117386958D01*
X170807166Y-117401276D01*
X170803649Y-117415317D01*
X170798772Y-117428946D01*
X170792583Y-117442031D01*
X170785142Y-117454447D01*
X170776519Y-117466073D01*
X170766798Y-117476798D01*
X170756073Y-117486519D01*
X170744447Y-117495142D01*
X170732031Y-117502583D01*
X170718946Y-117508772D01*
X170705317Y-117513649D01*
X170691276Y-117517166D01*
X170676958Y-117519290D01*
X170662500Y-117520000D01*
X170367500Y-117520000D01*
X170353042Y-117519290D01*
X170338724Y-117517166D01*
X170324683Y-117513649D01*
X170311054Y-117508772D01*
X170297969Y-117502583D01*
X170285553Y-117495142D01*
X170273927Y-117486519D01*
X170263202Y-117476798D01*
X170253481Y-117466073D01*
X170244858Y-117454447D01*
X170237417Y-117442031D01*
X170231228Y-117428946D01*
X170226351Y-117415317D01*
X170222834Y-117401276D01*
X170220710Y-117386958D01*
X170220000Y-117372500D01*
X170220000Y-117027500D01*
X170220710Y-117013042D01*
X170222834Y-116998724D01*
X170226351Y-116984683D01*
X170231228Y-116971054D01*
X170237417Y-116957969D01*
X170244858Y-116945553D01*
X170253481Y-116933927D01*
X170263202Y-116923202D01*
X170273927Y-116913481D01*
X170285553Y-116904858D01*
X170297969Y-116897417D01*
X170311054Y-116891228D01*
X170324683Y-116886351D01*
X170338724Y-116882834D01*
X170353042Y-116880710D01*
X170367500Y-116880000D01*
X170662500Y-116880000D01*
X170676958Y-116880710D01*
X170676958Y-116880710D01*
G37*
D18*
X170515000Y-117200000D03*
D17*
G36*
X178176958Y-112280710D02*
G01*
X178191276Y-112282834D01*
X178205317Y-112286351D01*
X178218946Y-112291228D01*
X178232031Y-112297417D01*
X178244447Y-112304858D01*
X178256073Y-112313481D01*
X178266798Y-112323202D01*
X178276519Y-112333927D01*
X178285142Y-112345553D01*
X178292583Y-112357969D01*
X178298772Y-112371054D01*
X178303649Y-112384683D01*
X178307166Y-112398724D01*
X178309290Y-112413042D01*
X178310000Y-112427500D01*
X178310000Y-112772500D01*
X178309290Y-112786958D01*
X178307166Y-112801276D01*
X178303649Y-112815317D01*
X178298772Y-112828946D01*
X178292583Y-112842031D01*
X178285142Y-112854447D01*
X178276519Y-112866073D01*
X178266798Y-112876798D01*
X178256073Y-112886519D01*
X178244447Y-112895142D01*
X178232031Y-112902583D01*
X178218946Y-112908772D01*
X178205317Y-112913649D01*
X178191276Y-112917166D01*
X178176958Y-112919290D01*
X178162500Y-112920000D01*
X177867500Y-112920000D01*
X177853042Y-112919290D01*
X177838724Y-112917166D01*
X177824683Y-112913649D01*
X177811054Y-112908772D01*
X177797969Y-112902583D01*
X177785553Y-112895142D01*
X177773927Y-112886519D01*
X177763202Y-112876798D01*
X177753481Y-112866073D01*
X177744858Y-112854447D01*
X177737417Y-112842031D01*
X177731228Y-112828946D01*
X177726351Y-112815317D01*
X177722834Y-112801276D01*
X177720710Y-112786958D01*
X177720000Y-112772500D01*
X177720000Y-112427500D01*
X177720710Y-112413042D01*
X177722834Y-112398724D01*
X177726351Y-112384683D01*
X177731228Y-112371054D01*
X177737417Y-112357969D01*
X177744858Y-112345553D01*
X177753481Y-112333927D01*
X177763202Y-112323202D01*
X177773927Y-112313481D01*
X177785553Y-112304858D01*
X177797969Y-112297417D01*
X177811054Y-112291228D01*
X177824683Y-112286351D01*
X177838724Y-112282834D01*
X177853042Y-112280710D01*
X177867500Y-112280000D01*
X178162500Y-112280000D01*
X178176958Y-112280710D01*
X178176958Y-112280710D01*
G37*
D18*
X178015000Y-112600000D03*
D17*
G36*
X179146958Y-112280710D02*
G01*
X179161276Y-112282834D01*
X179175317Y-112286351D01*
X179188946Y-112291228D01*
X179202031Y-112297417D01*
X179214447Y-112304858D01*
X179226073Y-112313481D01*
X179236798Y-112323202D01*
X179246519Y-112333927D01*
X179255142Y-112345553D01*
X179262583Y-112357969D01*
X179268772Y-112371054D01*
X179273649Y-112384683D01*
X179277166Y-112398724D01*
X179279290Y-112413042D01*
X179280000Y-112427500D01*
X179280000Y-112772500D01*
X179279290Y-112786958D01*
X179277166Y-112801276D01*
X179273649Y-112815317D01*
X179268772Y-112828946D01*
X179262583Y-112842031D01*
X179255142Y-112854447D01*
X179246519Y-112866073D01*
X179236798Y-112876798D01*
X179226073Y-112886519D01*
X179214447Y-112895142D01*
X179202031Y-112902583D01*
X179188946Y-112908772D01*
X179175317Y-112913649D01*
X179161276Y-112917166D01*
X179146958Y-112919290D01*
X179132500Y-112920000D01*
X178837500Y-112920000D01*
X178823042Y-112919290D01*
X178808724Y-112917166D01*
X178794683Y-112913649D01*
X178781054Y-112908772D01*
X178767969Y-112902583D01*
X178755553Y-112895142D01*
X178743927Y-112886519D01*
X178733202Y-112876798D01*
X178723481Y-112866073D01*
X178714858Y-112854447D01*
X178707417Y-112842031D01*
X178701228Y-112828946D01*
X178696351Y-112815317D01*
X178692834Y-112801276D01*
X178690710Y-112786958D01*
X178690000Y-112772500D01*
X178690000Y-112427500D01*
X178690710Y-112413042D01*
X178692834Y-112398724D01*
X178696351Y-112384683D01*
X178701228Y-112371054D01*
X178707417Y-112357969D01*
X178714858Y-112345553D01*
X178723481Y-112333927D01*
X178733202Y-112323202D01*
X178743927Y-112313481D01*
X178755553Y-112304858D01*
X178767969Y-112297417D01*
X178781054Y-112291228D01*
X178794683Y-112286351D01*
X178808724Y-112282834D01*
X178823042Y-112280710D01*
X178837500Y-112280000D01*
X179132500Y-112280000D01*
X179146958Y-112280710D01*
X179146958Y-112280710D01*
G37*
D18*
X178985000Y-112600000D03*
D17*
G36*
X177399505Y-119426205D02*
G01*
X177423774Y-119429805D01*
X177447572Y-119435766D01*
X177470672Y-119444031D01*
X177492850Y-119454521D01*
X177513894Y-119467134D01*
X177533599Y-119481748D01*
X177551778Y-119498224D01*
X177568254Y-119516403D01*
X177582868Y-119536108D01*
X177595481Y-119557152D01*
X177605971Y-119579330D01*
X177614236Y-119602430D01*
X177620197Y-119626228D01*
X177623797Y-119650497D01*
X177625001Y-119675001D01*
X177625001Y-120775001D01*
X177623797Y-120799505D01*
X177620197Y-120823774D01*
X177614236Y-120847572D01*
X177605971Y-120870672D01*
X177595481Y-120892850D01*
X177582868Y-120913894D01*
X177568254Y-120933599D01*
X177551778Y-120951778D01*
X177533599Y-120968254D01*
X177513894Y-120982868D01*
X177492850Y-120995481D01*
X177470672Y-121005971D01*
X177447572Y-121014236D01*
X177423774Y-121020197D01*
X177399505Y-121023797D01*
X177375001Y-121025001D01*
X175100001Y-121025001D01*
X175075497Y-121023797D01*
X175051228Y-121020197D01*
X175027430Y-121014236D01*
X175004330Y-121005971D01*
X174982152Y-120995481D01*
X174961108Y-120982868D01*
X174941403Y-120968254D01*
X174923224Y-120951778D01*
X174906748Y-120933599D01*
X174892134Y-120913894D01*
X174879521Y-120892850D01*
X174869031Y-120870672D01*
X174860766Y-120847572D01*
X174854805Y-120823774D01*
X174851205Y-120799505D01*
X174850001Y-120775001D01*
X174850001Y-119675001D01*
X174851205Y-119650497D01*
X174854805Y-119626228D01*
X174860766Y-119602430D01*
X174869031Y-119579330D01*
X174879521Y-119557152D01*
X174892134Y-119536108D01*
X174906748Y-119516403D01*
X174923224Y-119498224D01*
X174941403Y-119481748D01*
X174961108Y-119467134D01*
X174982152Y-119454521D01*
X175004330Y-119444031D01*
X175027430Y-119435766D01*
X175051228Y-119429805D01*
X175075497Y-119426205D01*
X175100001Y-119425001D01*
X177375001Y-119425001D01*
X177399505Y-119426205D01*
X177399505Y-119426205D01*
G37*
D22*
X176237501Y-120225001D03*
D17*
G36*
X173274505Y-119426205D02*
G01*
X173298774Y-119429805D01*
X173322572Y-119435766D01*
X173345672Y-119444031D01*
X173367850Y-119454521D01*
X173388894Y-119467134D01*
X173408599Y-119481748D01*
X173426778Y-119498224D01*
X173443254Y-119516403D01*
X173457868Y-119536108D01*
X173470481Y-119557152D01*
X173480971Y-119579330D01*
X173489236Y-119602430D01*
X173495197Y-119626228D01*
X173498797Y-119650497D01*
X173500001Y-119675001D01*
X173500001Y-120775001D01*
X173498797Y-120799505D01*
X173495197Y-120823774D01*
X173489236Y-120847572D01*
X173480971Y-120870672D01*
X173470481Y-120892850D01*
X173457868Y-120913894D01*
X173443254Y-120933599D01*
X173426778Y-120951778D01*
X173408599Y-120968254D01*
X173388894Y-120982868D01*
X173367850Y-120995481D01*
X173345672Y-121005971D01*
X173322572Y-121014236D01*
X173298774Y-121020197D01*
X173274505Y-121023797D01*
X173250001Y-121025001D01*
X170975001Y-121025001D01*
X170950497Y-121023797D01*
X170926228Y-121020197D01*
X170902430Y-121014236D01*
X170879330Y-121005971D01*
X170857152Y-120995481D01*
X170836108Y-120982868D01*
X170816403Y-120968254D01*
X170798224Y-120951778D01*
X170781748Y-120933599D01*
X170767134Y-120913894D01*
X170754521Y-120892850D01*
X170744031Y-120870672D01*
X170735766Y-120847572D01*
X170729805Y-120823774D01*
X170726205Y-120799505D01*
X170725001Y-120775001D01*
X170725001Y-119675001D01*
X170726205Y-119650497D01*
X170729805Y-119626228D01*
X170735766Y-119602430D01*
X170744031Y-119579330D01*
X170754521Y-119557152D01*
X170767134Y-119536108D01*
X170781748Y-119516403D01*
X170798224Y-119498224D01*
X170816403Y-119481748D01*
X170836108Y-119467134D01*
X170857152Y-119454521D01*
X170879330Y-119444031D01*
X170902430Y-119435766D01*
X170926228Y-119429805D01*
X170950497Y-119426205D01*
X170975001Y-119425001D01*
X173250001Y-119425001D01*
X173274505Y-119426205D01*
X173274505Y-119426205D01*
G37*
D22*
X172112501Y-120225001D03*
D17*
G36*
X177474504Y-113501204D02*
G01*
X177498773Y-113504804D01*
X177522571Y-113510765D01*
X177545671Y-113519030D01*
X177567849Y-113529520D01*
X177588893Y-113542133D01*
X177608598Y-113556747D01*
X177626777Y-113573223D01*
X177643253Y-113591402D01*
X177657867Y-113611107D01*
X177670480Y-113632151D01*
X177680970Y-113654329D01*
X177689235Y-113677429D01*
X177695196Y-113701227D01*
X177698796Y-113725496D01*
X177700000Y-113750000D01*
X177700000Y-114850000D01*
X177698796Y-114874504D01*
X177695196Y-114898773D01*
X177689235Y-114922571D01*
X177680970Y-114945671D01*
X177670480Y-114967849D01*
X177657867Y-114988893D01*
X177643253Y-115008598D01*
X177626777Y-115026777D01*
X177608598Y-115043253D01*
X177588893Y-115057867D01*
X177567849Y-115070480D01*
X177545671Y-115080970D01*
X177522571Y-115089235D01*
X177498773Y-115095196D01*
X177474504Y-115098796D01*
X177450000Y-115100000D01*
X175175000Y-115100000D01*
X175150496Y-115098796D01*
X175126227Y-115095196D01*
X175102429Y-115089235D01*
X175079329Y-115080970D01*
X175057151Y-115070480D01*
X175036107Y-115057867D01*
X175016402Y-115043253D01*
X174998223Y-115026777D01*
X174981747Y-115008598D01*
X174967133Y-114988893D01*
X174954520Y-114967849D01*
X174944030Y-114945671D01*
X174935765Y-114922571D01*
X174929804Y-114898773D01*
X174926204Y-114874504D01*
X174925000Y-114850000D01*
X174925000Y-113750000D01*
X174926204Y-113725496D01*
X174929804Y-113701227D01*
X174935765Y-113677429D01*
X174944030Y-113654329D01*
X174954520Y-113632151D01*
X174967133Y-113611107D01*
X174981747Y-113591402D01*
X174998223Y-113573223D01*
X175016402Y-113556747D01*
X175036107Y-113542133D01*
X175057151Y-113529520D01*
X175079329Y-113519030D01*
X175102429Y-113510765D01*
X175126227Y-113504804D01*
X175150496Y-113501204D01*
X175175000Y-113500000D01*
X177450000Y-113500000D01*
X177474504Y-113501204D01*
X177474504Y-113501204D01*
G37*
D22*
X176312500Y-114300000D03*
D17*
G36*
X173349504Y-113501204D02*
G01*
X173373773Y-113504804D01*
X173397571Y-113510765D01*
X173420671Y-113519030D01*
X173442849Y-113529520D01*
X173463893Y-113542133D01*
X173483598Y-113556747D01*
X173501777Y-113573223D01*
X173518253Y-113591402D01*
X173532867Y-113611107D01*
X173545480Y-113632151D01*
X173555970Y-113654329D01*
X173564235Y-113677429D01*
X173570196Y-113701227D01*
X173573796Y-113725496D01*
X173575000Y-113750000D01*
X173575000Y-114850000D01*
X173573796Y-114874504D01*
X173570196Y-114898773D01*
X173564235Y-114922571D01*
X173555970Y-114945671D01*
X173545480Y-114967849D01*
X173532867Y-114988893D01*
X173518253Y-115008598D01*
X173501777Y-115026777D01*
X173483598Y-115043253D01*
X173463893Y-115057867D01*
X173442849Y-115070480D01*
X173420671Y-115080970D01*
X173397571Y-115089235D01*
X173373773Y-115095196D01*
X173349504Y-115098796D01*
X173325000Y-115100000D01*
X171050000Y-115100000D01*
X171025496Y-115098796D01*
X171001227Y-115095196D01*
X170977429Y-115089235D01*
X170954329Y-115080970D01*
X170932151Y-115070480D01*
X170911107Y-115057867D01*
X170891402Y-115043253D01*
X170873223Y-115026777D01*
X170856747Y-115008598D01*
X170842133Y-114988893D01*
X170829520Y-114967849D01*
X170819030Y-114945671D01*
X170810765Y-114922571D01*
X170804804Y-114898773D01*
X170801204Y-114874504D01*
X170800000Y-114850000D01*
X170800000Y-113750000D01*
X170801204Y-113725496D01*
X170804804Y-113701227D01*
X170810765Y-113677429D01*
X170819030Y-113654329D01*
X170829520Y-113632151D01*
X170842133Y-113611107D01*
X170856747Y-113591402D01*
X170873223Y-113573223D01*
X170891402Y-113556747D01*
X170911107Y-113542133D01*
X170932151Y-113529520D01*
X170954329Y-113519030D01*
X170977429Y-113510765D01*
X171001227Y-113504804D01*
X171025496Y-113501204D01*
X171050000Y-113500000D01*
X173325000Y-113500000D01*
X173349504Y-113501204D01*
X173349504Y-113501204D01*
G37*
D22*
X172187500Y-114300000D03*
D23*
X170200000Y-113299998D03*
X172300000Y-112200000D03*
X161700000Y-111900000D03*
X160700000Y-113700000D03*
X178800000Y-113700000D03*
D24*
X157602500Y-117662500D02*
X159300000Y-117662500D01*
X155140000Y-115200000D02*
X157602500Y-117662500D01*
X170050002Y-113150000D02*
X170200000Y-113299998D01*
X168700000Y-113150000D02*
X170050002Y-113150000D01*
X170515000Y-111820000D02*
X170515000Y-111400000D01*
X170895000Y-112200000D02*
X170515000Y-111820000D01*
X172300000Y-112200000D02*
X170895000Y-112200000D01*
X163015000Y-111900000D02*
X161700000Y-111900000D01*
X170865004Y-112925002D02*
X176889998Y-112925002D01*
X168700000Y-111250000D02*
X169190002Y-111250000D01*
X169190002Y-111250000D02*
X170865004Y-112925002D01*
X177215000Y-112600000D02*
X178015000Y-112600000D01*
X176889998Y-112925002D02*
X177215000Y-112600000D01*
X178800000Y-112785000D02*
X178985000Y-112600000D01*
X178800000Y-113700000D02*
X178800000Y-112785000D01*
X158900000Y-115175000D02*
X160325000Y-116600000D01*
X158900000Y-114175000D02*
X158900000Y-115175000D01*
X160325000Y-116600000D02*
X160600000Y-116600000D01*
X163678230Y-112725002D02*
X160400002Y-112725002D01*
X160400002Y-112725002D02*
X159900000Y-112225000D01*
X163985000Y-112418232D02*
X163985000Y-111900000D01*
X163678230Y-112725002D02*
X163985000Y-112418232D01*
X166970000Y-113250000D02*
X166500000Y-113250000D01*
X167920000Y-112300000D02*
X166970000Y-113250000D01*
X168700000Y-112300000D02*
X167920000Y-112300000D01*
D25*
G36*
X165876492Y-112145097D02*
G01*
X165970000Y-112154307D01*
X167030000Y-112154307D01*
X167073000Y-112150072D01*
X167073000Y-112295645D01*
X166922952Y-112445693D01*
X165970000Y-112445693D01*
X165876492Y-112454903D01*
X165816833Y-112473000D01*
X165400000Y-112473000D01*
X165375224Y-112475440D01*
X165351399Y-112482667D01*
X165329443Y-112494403D01*
X165310197Y-112510197D01*
X165294403Y-112529443D01*
X165282667Y-112551399D01*
X165275440Y-112575224D01*
X165273000Y-112600000D01*
X165273000Y-115373000D01*
X160179307Y-115373000D01*
X160179307Y-114025000D01*
X160170097Y-113931492D01*
X160142822Y-113841577D01*
X160127000Y-113811976D01*
X160127000Y-113304307D01*
X160235890Y-113304307D01*
X160281989Y-113318291D01*
X160293184Y-113319393D01*
X160370436Y-113327002D01*
X160370443Y-113327002D01*
X160400002Y-113329913D01*
X160429561Y-113327002D01*
X163648674Y-113327002D01*
X163678230Y-113329913D01*
X163707786Y-113327002D01*
X163707796Y-113327002D01*
X163796242Y-113318291D01*
X163909720Y-113283868D01*
X164014301Y-113227968D01*
X164105967Y-113152739D01*
X164124818Y-113129769D01*
X164389772Y-112864816D01*
X164412737Y-112845969D01*
X164487966Y-112754303D01*
X164543866Y-112649722D01*
X164578289Y-112536244D01*
X164580937Y-112509361D01*
X164653671Y-112420735D01*
X164711594Y-112312369D01*
X164747263Y-112194784D01*
X164751507Y-112151691D01*
X164767968Y-112127000D01*
X165816833Y-112127000D01*
X165876492Y-112145097D01*
X165876492Y-112145097D01*
G37*
X165876492Y-112145097D02*
X165970000Y-112154307D01*
X167030000Y-112154307D01*
X167073000Y-112150072D01*
X167073000Y-112295645D01*
X166922952Y-112445693D01*
X165970000Y-112445693D01*
X165876492Y-112454903D01*
X165816833Y-112473000D01*
X165400000Y-112473000D01*
X165375224Y-112475440D01*
X165351399Y-112482667D01*
X165329443Y-112494403D01*
X165310197Y-112510197D01*
X165294403Y-112529443D01*
X165282667Y-112551399D01*
X165275440Y-112575224D01*
X165273000Y-112600000D01*
X165273000Y-115373000D01*
X160179307Y-115373000D01*
X160179307Y-114025000D01*
X160170097Y-113931492D01*
X160142822Y-113841577D01*
X160127000Y-113811976D01*
X160127000Y-113304307D01*
X160235890Y-113304307D01*
X160281989Y-113318291D01*
X160293184Y-113319393D01*
X160370436Y-113327002D01*
X160370443Y-113327002D01*
X160400002Y-113329913D01*
X160429561Y-113327002D01*
X163648674Y-113327002D01*
X163678230Y-113329913D01*
X163707786Y-113327002D01*
X163707796Y-113327002D01*
X163796242Y-113318291D01*
X163909720Y-113283868D01*
X164014301Y-113227968D01*
X164105967Y-113152739D01*
X164124818Y-113129769D01*
X164389772Y-112864816D01*
X164412737Y-112845969D01*
X164487966Y-112754303D01*
X164543866Y-112649722D01*
X164578289Y-112536244D01*
X164580937Y-112509361D01*
X164653671Y-112420735D01*
X164711594Y-112312369D01*
X164747263Y-112194784D01*
X164751507Y-112151691D01*
X164767968Y-112127000D01*
X165816833Y-112127000D01*
X165876492Y-112145097D01*
G36*
X182390497Y-110232891D02*
G01*
X182669927Y-110317256D01*
X182927647Y-110454289D01*
X183153847Y-110638773D01*
X183339901Y-110863673D01*
X183478731Y-111120435D01*
X183565045Y-111399270D01*
X183598001Y-111712821D01*
X183598000Y-116473000D01*
X178000000Y-116473000D01*
X177975224Y-116475440D01*
X177898687Y-116490664D01*
X177874862Y-116497891D01*
X177852905Y-116509628D01*
X177788021Y-116552983D01*
X177768776Y-116568777D01*
X177752983Y-116588021D01*
X177709628Y-116652905D01*
X177697892Y-116674861D01*
X177690664Y-116698687D01*
X177675440Y-116775224D01*
X177673000Y-116800000D01*
X177673000Y-120787491D01*
X177665144Y-120826984D01*
X177649859Y-120849859D01*
X177626984Y-120865144D01*
X177587491Y-120873000D01*
X174512509Y-120873000D01*
X174473016Y-120865144D01*
X174450141Y-120849859D01*
X174434856Y-120826984D01*
X174427000Y-120787491D01*
X174427000Y-118200000D01*
X174424560Y-118175224D01*
X174409336Y-118098687D01*
X174402109Y-118074862D01*
X174390372Y-118052905D01*
X174347017Y-117988021D01*
X174331223Y-117968776D01*
X174311979Y-117952983D01*
X174247095Y-117909628D01*
X174225139Y-117897892D01*
X174201313Y-117890664D01*
X174124776Y-117875440D01*
X174100000Y-117873000D01*
X171412509Y-117873000D01*
X171373016Y-117865144D01*
X171350141Y-117849859D01*
X171334856Y-117826984D01*
X171327000Y-117787491D01*
X171327000Y-116612509D01*
X171334856Y-116573016D01*
X171350141Y-116550141D01*
X171373016Y-116534856D01*
X171412509Y-116527000D01*
X174000000Y-116527000D01*
X174024776Y-116524560D01*
X174101313Y-116509336D01*
X174125138Y-116502109D01*
X174147095Y-116490372D01*
X174211979Y-116447017D01*
X174231224Y-116431223D01*
X174247017Y-116411979D01*
X174290372Y-116347095D01*
X174302108Y-116325139D01*
X174309336Y-116301313D01*
X174324560Y-116224776D01*
X174327000Y-116200000D01*
X174327000Y-113527002D01*
X176860442Y-113527002D01*
X176889998Y-113529913D01*
X176919554Y-113527002D01*
X176919564Y-113527002D01*
X177008010Y-113518291D01*
X177121488Y-113483868D01*
X177226069Y-113427968D01*
X177317735Y-113352739D01*
X177336586Y-113329769D01*
X177438757Y-113227599D01*
X177519265Y-113293671D01*
X177627631Y-113351594D01*
X177745216Y-113387263D01*
X177867500Y-113399307D01*
X177975294Y-113399307D01*
X177956703Y-113444189D01*
X177923000Y-113613623D01*
X177923000Y-113786377D01*
X177956703Y-113955811D01*
X178022813Y-114115415D01*
X178118790Y-114259055D01*
X178240945Y-114381210D01*
X178384585Y-114477187D01*
X178544189Y-114543297D01*
X178713623Y-114577000D01*
X178886377Y-114577000D01*
X179055811Y-114543297D01*
X179215415Y-114477187D01*
X179359055Y-114381210D01*
X179481210Y-114259055D01*
X179577187Y-114115415D01*
X179643297Y-113955811D01*
X179677000Y-113786377D01*
X179677000Y-113613623D01*
X179643297Y-113444189D01*
X179577187Y-113284585D01*
X179546949Y-113239330D01*
X179575719Y-113215719D01*
X179653671Y-113120735D01*
X179711594Y-113012369D01*
X179747263Y-112894784D01*
X179759307Y-112772500D01*
X179759307Y-112427500D01*
X179747263Y-112305216D01*
X179711594Y-112187631D01*
X179653671Y-112079265D01*
X179575719Y-111984281D01*
X179480735Y-111906329D01*
X179372369Y-111848406D01*
X179254784Y-111812737D01*
X179132500Y-111800693D01*
X178837500Y-111800693D01*
X178715216Y-111812737D01*
X178597631Y-111848406D01*
X178500000Y-111900591D01*
X178402369Y-111848406D01*
X178284784Y-111812737D01*
X178162500Y-111800693D01*
X177867500Y-111800693D01*
X177745216Y-111812737D01*
X177627631Y-111848406D01*
X177519265Y-111906329D01*
X177424281Y-111984281D01*
X177413022Y-111998000D01*
X177244556Y-111998000D01*
X177214999Y-111995089D01*
X177185443Y-111998000D01*
X177185434Y-111998000D01*
X177096988Y-112006711D01*
X176983510Y-112041134D01*
X176878929Y-112097034D01*
X176787263Y-112172263D01*
X176768415Y-112195229D01*
X176640642Y-112323002D01*
X174167110Y-112323002D01*
X174147095Y-112309628D01*
X174125139Y-112297892D01*
X174101313Y-112290664D01*
X174024776Y-112275440D01*
X174000000Y-112273000D01*
X173177000Y-112273000D01*
X173177000Y-112113623D01*
X173143297Y-111944189D01*
X173077187Y-111784585D01*
X172981210Y-111640945D01*
X172859055Y-111518790D01*
X172715415Y-111422813D01*
X172555811Y-111356703D01*
X172386377Y-111323000D01*
X172213623Y-111323000D01*
X172044189Y-111356703D01*
X171884585Y-111422813D01*
X171740945Y-111518790D01*
X171661735Y-111598000D01*
X171286795Y-111598000D01*
X171289307Y-111572500D01*
X171289307Y-111227500D01*
X171277263Y-111105216D01*
X171241594Y-110987631D01*
X171183671Y-110879265D01*
X171105719Y-110784281D01*
X171010735Y-110706329D01*
X170902369Y-110648406D01*
X170784784Y-110612737D01*
X170745712Y-110608889D01*
X170725139Y-110597892D01*
X170701313Y-110590664D01*
X170624776Y-110575440D01*
X170600000Y-110573000D01*
X169383167Y-110573000D01*
X169323508Y-110554903D01*
X169230000Y-110545693D01*
X168170000Y-110545693D01*
X168076492Y-110554903D01*
X168016833Y-110573000D01*
X167600000Y-110573000D01*
X167575224Y-110575440D01*
X167498687Y-110590664D01*
X167474862Y-110597891D01*
X167452905Y-110609628D01*
X167388021Y-110652983D01*
X167368776Y-110668777D01*
X167352983Y-110688021D01*
X167309628Y-110752905D01*
X167297892Y-110774861D01*
X167290664Y-110798687D01*
X167275440Y-110875224D01*
X167273000Y-110900000D01*
X167273000Y-111385278D01*
X167259497Y-111435995D01*
X167234665Y-111461065D01*
X167184077Y-111475051D01*
X164714911Y-111498567D01*
X164711594Y-111487631D01*
X164653671Y-111379265D01*
X164575719Y-111284281D01*
X164480735Y-111206329D01*
X164372369Y-111148406D01*
X164254784Y-111112737D01*
X164132500Y-111100693D01*
X163837500Y-111100693D01*
X163715216Y-111112737D01*
X163597631Y-111148406D01*
X163500000Y-111200591D01*
X163402369Y-111148406D01*
X163284784Y-111112737D01*
X163162500Y-111100693D01*
X162867500Y-111100693D01*
X162745216Y-111112737D01*
X162627631Y-111148406D01*
X162519265Y-111206329D01*
X162424281Y-111284281D01*
X162413022Y-111298000D01*
X162338265Y-111298000D01*
X162259055Y-111218790D01*
X162115415Y-111122813D01*
X161955811Y-111056703D01*
X161786377Y-111023000D01*
X161613623Y-111023000D01*
X161444189Y-111056703D01*
X161284585Y-111122813D01*
X161140945Y-111218790D01*
X161018790Y-111340945D01*
X160945547Y-111450561D01*
X160942822Y-111441577D01*
X160898529Y-111358711D01*
X160838921Y-111286079D01*
X160766289Y-111226471D01*
X160683423Y-111182178D01*
X160593508Y-111154903D01*
X160500000Y-111145693D01*
X159300000Y-111145693D01*
X159206492Y-111154903D01*
X159116577Y-111182178D01*
X159033711Y-111226471D01*
X158961079Y-111286079D01*
X158901471Y-111358711D01*
X158900000Y-111361463D01*
X158898529Y-111358711D01*
X158838921Y-111286079D01*
X158766289Y-111226471D01*
X158683423Y-111182178D01*
X158593508Y-111154903D01*
X158500000Y-111145693D01*
X157300000Y-111145693D01*
X157206492Y-111154903D01*
X157116577Y-111182178D01*
X157033711Y-111226471D01*
X156961079Y-111286079D01*
X156901471Y-111358711D01*
X156857178Y-111441577D01*
X156829903Y-111531492D01*
X156820693Y-111625000D01*
X156820693Y-111728421D01*
X156820547Y-111728601D01*
X156808915Y-111750613D01*
X156803753Y-111765980D01*
X156777275Y-111865429D01*
X156773000Y-111898104D01*
X156773000Y-116287491D01*
X156765144Y-116326984D01*
X156749859Y-116349859D01*
X156726984Y-116365144D01*
X156687491Y-116373000D01*
X151402000Y-116373000D01*
X151402000Y-111724551D01*
X151432891Y-111409503D01*
X151517256Y-111130073D01*
X151654289Y-110872353D01*
X151838773Y-110646153D01*
X152063673Y-110460099D01*
X152320435Y-110321269D01*
X152599270Y-110234955D01*
X152912812Y-110202000D01*
X182075449Y-110202000D01*
X182390497Y-110232891D01*
X182390497Y-110232891D01*
G37*
X182390497Y-110232891D02*
X182669927Y-110317256D01*
X182927647Y-110454289D01*
X183153847Y-110638773D01*
X183339901Y-110863673D01*
X183478731Y-111120435D01*
X183565045Y-111399270D01*
X183598001Y-111712821D01*
X183598000Y-116473000D01*
X178000000Y-116473000D01*
X177975224Y-116475440D01*
X177898687Y-116490664D01*
X177874862Y-116497891D01*
X177852905Y-116509628D01*
X177788021Y-116552983D01*
X177768776Y-116568777D01*
X177752983Y-116588021D01*
X177709628Y-116652905D01*
X177697892Y-116674861D01*
X177690664Y-116698687D01*
X177675440Y-116775224D01*
X177673000Y-116800000D01*
X177673000Y-120787491D01*
X177665144Y-120826984D01*
X177649859Y-120849859D01*
X177626984Y-120865144D01*
X177587491Y-120873000D01*
X174512509Y-120873000D01*
X174473016Y-120865144D01*
X174450141Y-120849859D01*
X174434856Y-120826984D01*
X174427000Y-120787491D01*
X174427000Y-118200000D01*
X174424560Y-118175224D01*
X174409336Y-118098687D01*
X174402109Y-118074862D01*
X174390372Y-118052905D01*
X174347017Y-117988021D01*
X174331223Y-117968776D01*
X174311979Y-117952983D01*
X174247095Y-117909628D01*
X174225139Y-117897892D01*
X174201313Y-117890664D01*
X174124776Y-117875440D01*
X174100000Y-117873000D01*
X171412509Y-117873000D01*
X171373016Y-117865144D01*
X171350141Y-117849859D01*
X171334856Y-117826984D01*
X171327000Y-117787491D01*
X171327000Y-116612509D01*
X171334856Y-116573016D01*
X171350141Y-116550141D01*
X171373016Y-116534856D01*
X171412509Y-116527000D01*
X174000000Y-116527000D01*
X174024776Y-116524560D01*
X174101313Y-116509336D01*
X174125138Y-116502109D01*
X174147095Y-116490372D01*
X174211979Y-116447017D01*
X174231224Y-116431223D01*
X174247017Y-116411979D01*
X174290372Y-116347095D01*
X174302108Y-116325139D01*
X174309336Y-116301313D01*
X174324560Y-116224776D01*
X174327000Y-116200000D01*
X174327000Y-113527002D01*
X176860442Y-113527002D01*
X176889998Y-113529913D01*
X176919554Y-113527002D01*
X176919564Y-113527002D01*
X177008010Y-113518291D01*
X177121488Y-113483868D01*
X177226069Y-113427968D01*
X177317735Y-113352739D01*
X177336586Y-113329769D01*
X177438757Y-113227599D01*
X177519265Y-113293671D01*
X177627631Y-113351594D01*
X177745216Y-113387263D01*
X177867500Y-113399307D01*
X177975294Y-113399307D01*
X177956703Y-113444189D01*
X177923000Y-113613623D01*
X177923000Y-113786377D01*
X177956703Y-113955811D01*
X178022813Y-114115415D01*
X178118790Y-114259055D01*
X178240945Y-114381210D01*
X178384585Y-114477187D01*
X178544189Y-114543297D01*
X178713623Y-114577000D01*
X178886377Y-114577000D01*
X179055811Y-114543297D01*
X179215415Y-114477187D01*
X179359055Y-114381210D01*
X179481210Y-114259055D01*
X179577187Y-114115415D01*
X179643297Y-113955811D01*
X179677000Y-113786377D01*
X179677000Y-113613623D01*
X179643297Y-113444189D01*
X179577187Y-113284585D01*
X179546949Y-113239330D01*
X179575719Y-113215719D01*
X179653671Y-113120735D01*
X179711594Y-113012369D01*
X179747263Y-112894784D01*
X179759307Y-112772500D01*
X179759307Y-112427500D01*
X179747263Y-112305216D01*
X179711594Y-112187631D01*
X179653671Y-112079265D01*
X179575719Y-111984281D01*
X179480735Y-111906329D01*
X179372369Y-111848406D01*
X179254784Y-111812737D01*
X179132500Y-111800693D01*
X178837500Y-111800693D01*
X178715216Y-111812737D01*
X178597631Y-111848406D01*
X178500000Y-111900591D01*
X178402369Y-111848406D01*
X178284784Y-111812737D01*
X178162500Y-111800693D01*
X177867500Y-111800693D01*
X177745216Y-111812737D01*
X177627631Y-111848406D01*
X177519265Y-111906329D01*
X177424281Y-111984281D01*
X177413022Y-111998000D01*
X177244556Y-111998000D01*
X177214999Y-111995089D01*
X177185443Y-111998000D01*
X177185434Y-111998000D01*
X177096988Y-112006711D01*
X176983510Y-112041134D01*
X176878929Y-112097034D01*
X176787263Y-112172263D01*
X176768415Y-112195229D01*
X176640642Y-112323002D01*
X174167110Y-112323002D01*
X174147095Y-112309628D01*
X174125139Y-112297892D01*
X174101313Y-112290664D01*
X174024776Y-112275440D01*
X174000000Y-112273000D01*
X173177000Y-112273000D01*
X173177000Y-112113623D01*
X173143297Y-111944189D01*
X173077187Y-111784585D01*
X172981210Y-111640945D01*
X172859055Y-111518790D01*
X172715415Y-111422813D01*
X172555811Y-111356703D01*
X172386377Y-111323000D01*
X172213623Y-111323000D01*
X172044189Y-111356703D01*
X171884585Y-111422813D01*
X171740945Y-111518790D01*
X171661735Y-111598000D01*
X171286795Y-111598000D01*
X171289307Y-111572500D01*
X171289307Y-111227500D01*
X171277263Y-111105216D01*
X171241594Y-110987631D01*
X171183671Y-110879265D01*
X171105719Y-110784281D01*
X171010735Y-110706329D01*
X170902369Y-110648406D01*
X170784784Y-110612737D01*
X170745712Y-110608889D01*
X170725139Y-110597892D01*
X170701313Y-110590664D01*
X170624776Y-110575440D01*
X170600000Y-110573000D01*
X169383167Y-110573000D01*
X169323508Y-110554903D01*
X169230000Y-110545693D01*
X168170000Y-110545693D01*
X168076492Y-110554903D01*
X168016833Y-110573000D01*
X167600000Y-110573000D01*
X167575224Y-110575440D01*
X167498687Y-110590664D01*
X167474862Y-110597891D01*
X167452905Y-110609628D01*
X167388021Y-110652983D01*
X167368776Y-110668777D01*
X167352983Y-110688021D01*
X167309628Y-110752905D01*
X167297892Y-110774861D01*
X167290664Y-110798687D01*
X167275440Y-110875224D01*
X167273000Y-110900000D01*
X167273000Y-111385278D01*
X167259497Y-111435995D01*
X167234665Y-111461065D01*
X167184077Y-111475051D01*
X164714911Y-111498567D01*
X164711594Y-111487631D01*
X164653671Y-111379265D01*
X164575719Y-111284281D01*
X164480735Y-111206329D01*
X164372369Y-111148406D01*
X164254784Y-111112737D01*
X164132500Y-111100693D01*
X163837500Y-111100693D01*
X163715216Y-111112737D01*
X163597631Y-111148406D01*
X163500000Y-111200591D01*
X163402369Y-111148406D01*
X163284784Y-111112737D01*
X163162500Y-111100693D01*
X162867500Y-111100693D01*
X162745216Y-111112737D01*
X162627631Y-111148406D01*
X162519265Y-111206329D01*
X162424281Y-111284281D01*
X162413022Y-111298000D01*
X162338265Y-111298000D01*
X162259055Y-111218790D01*
X162115415Y-111122813D01*
X161955811Y-111056703D01*
X161786377Y-111023000D01*
X161613623Y-111023000D01*
X161444189Y-111056703D01*
X161284585Y-111122813D01*
X161140945Y-111218790D01*
X161018790Y-111340945D01*
X160945547Y-111450561D01*
X160942822Y-111441577D01*
X160898529Y-111358711D01*
X160838921Y-111286079D01*
X160766289Y-111226471D01*
X160683423Y-111182178D01*
X160593508Y-111154903D01*
X160500000Y-111145693D01*
X159300000Y-111145693D01*
X159206492Y-111154903D01*
X159116577Y-111182178D01*
X159033711Y-111226471D01*
X158961079Y-111286079D01*
X158901471Y-111358711D01*
X158900000Y-111361463D01*
X158898529Y-111358711D01*
X158838921Y-111286079D01*
X158766289Y-111226471D01*
X158683423Y-111182178D01*
X158593508Y-111154903D01*
X158500000Y-111145693D01*
X157300000Y-111145693D01*
X157206492Y-111154903D01*
X157116577Y-111182178D01*
X157033711Y-111226471D01*
X156961079Y-111286079D01*
X156901471Y-111358711D01*
X156857178Y-111441577D01*
X156829903Y-111531492D01*
X156820693Y-111625000D01*
X156820693Y-111728421D01*
X156820547Y-111728601D01*
X156808915Y-111750613D01*
X156803753Y-111765980D01*
X156777275Y-111865429D01*
X156773000Y-111898104D01*
X156773000Y-116287491D01*
X156765144Y-116326984D01*
X156749859Y-116349859D01*
X156726984Y-116365144D01*
X156687491Y-116373000D01*
X151402000Y-116373000D01*
X151402000Y-111724551D01*
X151432891Y-111409503D01*
X151517256Y-111130073D01*
X151654289Y-110872353D01*
X151838773Y-110646153D01*
X152063673Y-110460099D01*
X152320435Y-110321269D01*
X152599270Y-110234955D01*
X152912812Y-110202000D01*
X182075449Y-110202000D01*
X182390497Y-110232891D01*
G36*
X165226984Y-116234856D02*
G01*
X165249859Y-116250141D01*
X165265144Y-116273016D01*
X165273000Y-116312509D01*
X165273000Y-122123000D01*
X160023946Y-122123000D01*
X159897311Y-122084586D01*
X159756250Y-122070693D01*
X158843750Y-122070693D01*
X158702689Y-122084586D01*
X158576054Y-122123000D01*
X151416275Y-122123000D01*
X151402000Y-121987187D01*
X151402000Y-117127000D01*
X156215644Y-117127000D01*
X156673000Y-117584356D01*
X156673000Y-118400000D01*
X156675440Y-118424776D01*
X156690664Y-118501313D01*
X156697891Y-118525138D01*
X156709628Y-118547095D01*
X156752983Y-118611979D01*
X156768777Y-118631224D01*
X156788021Y-118647017D01*
X156852905Y-118690372D01*
X156874861Y-118702108D01*
X156898687Y-118709336D01*
X156975224Y-118724560D01*
X157000000Y-118727000D01*
X160200000Y-118727000D01*
X160224776Y-118724560D01*
X160301313Y-118709336D01*
X160325138Y-118702109D01*
X160347095Y-118690372D01*
X160411979Y-118647017D01*
X160431224Y-118631223D01*
X160447017Y-118611979D01*
X160490372Y-118547095D01*
X160502108Y-118525139D01*
X160509336Y-118501313D01*
X160524560Y-118424776D01*
X160527000Y-118400000D01*
X160527000Y-116312509D01*
X160534856Y-116273016D01*
X160550141Y-116250141D01*
X160573016Y-116234856D01*
X160612509Y-116227000D01*
X165187491Y-116227000D01*
X165226984Y-116234856D01*
X165226984Y-116234856D01*
G37*
X165226984Y-116234856D02*
X165249859Y-116250141D01*
X165265144Y-116273016D01*
X165273000Y-116312509D01*
X165273000Y-122123000D01*
X160023946Y-122123000D01*
X159897311Y-122084586D01*
X159756250Y-122070693D01*
X158843750Y-122070693D01*
X158702689Y-122084586D01*
X158576054Y-122123000D01*
X151416275Y-122123000D01*
X151402000Y-121987187D01*
X151402000Y-117127000D01*
X156215644Y-117127000D01*
X156673000Y-117584356D01*
X156673000Y-118400000D01*
X156675440Y-118424776D01*
X156690664Y-118501313D01*
X156697891Y-118525138D01*
X156709628Y-118547095D01*
X156752983Y-118611979D01*
X156768777Y-118631224D01*
X156788021Y-118647017D01*
X156852905Y-118690372D01*
X156874861Y-118702108D01*
X156898687Y-118709336D01*
X156975224Y-118724560D01*
X157000000Y-118727000D01*
X160200000Y-118727000D01*
X160224776Y-118724560D01*
X160301313Y-118709336D01*
X160325138Y-118702109D01*
X160347095Y-118690372D01*
X160411979Y-118647017D01*
X160431224Y-118631223D01*
X160447017Y-118611979D01*
X160490372Y-118547095D01*
X160502108Y-118525139D01*
X160509336Y-118501313D01*
X160524560Y-118424776D01*
X160527000Y-118400000D01*
X160527000Y-116312509D01*
X160534856Y-116273016D01*
X160550141Y-116250141D01*
X160573016Y-116234856D01*
X160612509Y-116227000D01*
X165187491Y-116227000D01*
X165226984Y-116234856D01*
G36*
X183598000Y-121975449D02*
G01*
X183567109Y-122290494D01*
X183482745Y-122569923D01*
X183345712Y-122827646D01*
X183161228Y-123053845D01*
X182936327Y-123239901D01*
X182679566Y-123378731D01*
X182400730Y-123465045D01*
X182087187Y-123498000D01*
X165927000Y-123498000D01*
X165927000Y-121712509D01*
X165934856Y-121673016D01*
X165950141Y-121650141D01*
X165973016Y-121634856D01*
X166012509Y-121627000D01*
X178000000Y-121627000D01*
X178024776Y-121624560D01*
X178101313Y-121609336D01*
X178125138Y-121602109D01*
X178147095Y-121590372D01*
X178211979Y-121547017D01*
X178231224Y-121531223D01*
X178247017Y-121511979D01*
X178290372Y-121447095D01*
X178302108Y-121425139D01*
X178309336Y-121401313D01*
X178324560Y-121324776D01*
X178327000Y-121300000D01*
X178327000Y-117312509D01*
X178334856Y-117273016D01*
X178350141Y-117250141D01*
X178373016Y-117234856D01*
X178412509Y-117227000D01*
X183598001Y-117227000D01*
X183598000Y-121975449D01*
X183598000Y-121975449D01*
G37*
X183598000Y-121975449D02*
X183567109Y-122290494D01*
X183482745Y-122569923D01*
X183345712Y-122827646D01*
X183161228Y-123053845D01*
X182936327Y-123239901D01*
X182679566Y-123378731D01*
X182400730Y-123465045D01*
X182087187Y-123498000D01*
X165927000Y-123498000D01*
X165927000Y-121712509D01*
X165934856Y-121673016D01*
X165950141Y-121650141D01*
X165973016Y-121634856D01*
X166012509Y-121627000D01*
X178000000Y-121627000D01*
X178024776Y-121624560D01*
X178101313Y-121609336D01*
X178125138Y-121602109D01*
X178147095Y-121590372D01*
X178211979Y-121547017D01*
X178231224Y-121531223D01*
X178247017Y-121511979D01*
X178290372Y-121447095D01*
X178302108Y-121425139D01*
X178309336Y-121401313D01*
X178324560Y-121324776D01*
X178327000Y-121300000D01*
X178327000Y-117312509D01*
X178334856Y-117273016D01*
X178350141Y-117250141D01*
X178373016Y-117234856D01*
X178412509Y-117227000D01*
X183598001Y-117227000D01*
X183598000Y-121975449D01*
G36*
X167059259Y-113133961D02*
G01*
X167066039Y-113140741D01*
X167097423Y-113257870D01*
X167106193Y-113281170D01*
X167119340Y-113302312D01*
X167130293Y-113314803D01*
X167185197Y-113369707D01*
X167204443Y-113385501D01*
X167226399Y-113397237D01*
X167242130Y-113402577D01*
X167317130Y-113422673D01*
X167350000Y-113427000D01*
X167690693Y-113427000D01*
X167690693Y-113575000D01*
X167699903Y-113668508D01*
X167727178Y-113758423D01*
X167771471Y-113841289D01*
X167831079Y-113913921D01*
X167903711Y-113973529D01*
X167986577Y-114017822D01*
X168076492Y-114045097D01*
X168170000Y-114054307D01*
X169230000Y-114054307D01*
X169323508Y-114045097D01*
X169413423Y-114017822D01*
X169496289Y-113973529D01*
X169568921Y-113913921D01*
X169571056Y-113911319D01*
X169640945Y-113981208D01*
X169784585Y-114077185D01*
X169944189Y-114143295D01*
X170113623Y-114176998D01*
X170286377Y-114176998D01*
X170455811Y-114143295D01*
X170615415Y-114077185D01*
X170759055Y-113981208D01*
X170881210Y-113859053D01*
X170977187Y-113715413D01*
X171043297Y-113555809D01*
X171049027Y-113527002D01*
X173673000Y-113527002D01*
X173673000Y-115787491D01*
X173665144Y-115826984D01*
X173649859Y-115849859D01*
X173626984Y-115865144D01*
X173587491Y-115873000D01*
X170982843Y-115873000D01*
X170958067Y-115875440D01*
X170881530Y-115890664D01*
X170857705Y-115897891D01*
X170835748Y-115909628D01*
X170770863Y-115952983D01*
X170751618Y-115968776D01*
X170668776Y-116051618D01*
X170652983Y-116070863D01*
X170609628Y-116135748D01*
X170597891Y-116157705D01*
X170590664Y-116181530D01*
X170575440Y-116258067D01*
X170573000Y-116282843D01*
X170573000Y-118117157D01*
X170575440Y-118141933D01*
X170590664Y-118218470D01*
X170597891Y-118242295D01*
X170609628Y-118264252D01*
X170652983Y-118329137D01*
X170668776Y-118348382D01*
X170751618Y-118431224D01*
X170770863Y-118447017D01*
X170835748Y-118490372D01*
X170857705Y-118502109D01*
X170881530Y-118509336D01*
X170958067Y-118524560D01*
X170982843Y-118527000D01*
X173487491Y-118527000D01*
X173526984Y-118534856D01*
X173549859Y-118550141D01*
X173565144Y-118573016D01*
X173573000Y-118612509D01*
X173573000Y-120787491D01*
X173565144Y-120826984D01*
X173549859Y-120849859D01*
X173526984Y-120865144D01*
X173487491Y-120873000D01*
X166012509Y-120873000D01*
X165973016Y-120865144D01*
X165950141Y-120849859D01*
X165934856Y-120826984D01*
X165927000Y-120787491D01*
X165927000Y-113212509D01*
X165934856Y-113173016D01*
X165950141Y-113150141D01*
X165973016Y-113134856D01*
X166012509Y-113127000D01*
X167033279Y-113127000D01*
X167059259Y-113133961D01*
X167059259Y-113133961D01*
G37*
X167059259Y-113133961D02*
X167066039Y-113140741D01*
X167097423Y-113257870D01*
X167106193Y-113281170D01*
X167119340Y-113302312D01*
X167130293Y-113314803D01*
X167185197Y-113369707D01*
X167204443Y-113385501D01*
X167226399Y-113397237D01*
X167242130Y-113402577D01*
X167317130Y-113422673D01*
X167350000Y-113427000D01*
X167690693Y-113427000D01*
X167690693Y-113575000D01*
X167699903Y-113668508D01*
X167727178Y-113758423D01*
X167771471Y-113841289D01*
X167831079Y-113913921D01*
X167903711Y-113973529D01*
X167986577Y-114017822D01*
X168076492Y-114045097D01*
X168170000Y-114054307D01*
X169230000Y-114054307D01*
X169323508Y-114045097D01*
X169413423Y-114017822D01*
X169496289Y-113973529D01*
X169568921Y-113913921D01*
X169571056Y-113911319D01*
X169640945Y-113981208D01*
X169784585Y-114077185D01*
X169944189Y-114143295D01*
X170113623Y-114176998D01*
X170286377Y-114176998D01*
X170455811Y-114143295D01*
X170615415Y-114077185D01*
X170759055Y-113981208D01*
X170881210Y-113859053D01*
X170977187Y-113715413D01*
X171043297Y-113555809D01*
X171049027Y-113527002D01*
X173673000Y-113527002D01*
X173673000Y-115787491D01*
X173665144Y-115826984D01*
X173649859Y-115849859D01*
X173626984Y-115865144D01*
X173587491Y-115873000D01*
X170982843Y-115873000D01*
X170958067Y-115875440D01*
X170881530Y-115890664D01*
X170857705Y-115897891D01*
X170835748Y-115909628D01*
X170770863Y-115952983D01*
X170751618Y-115968776D01*
X170668776Y-116051618D01*
X170652983Y-116070863D01*
X170609628Y-116135748D01*
X170597891Y-116157705D01*
X170590664Y-116181530D01*
X170575440Y-116258067D01*
X170573000Y-116282843D01*
X170573000Y-118117157D01*
X170575440Y-118141933D01*
X170590664Y-118218470D01*
X170597891Y-118242295D01*
X170609628Y-118264252D01*
X170652983Y-118329137D01*
X170668776Y-118348382D01*
X170751618Y-118431224D01*
X170770863Y-118447017D01*
X170835748Y-118490372D01*
X170857705Y-118502109D01*
X170881530Y-118509336D01*
X170958067Y-118524560D01*
X170982843Y-118527000D01*
X173487491Y-118527000D01*
X173526984Y-118534856D01*
X173549859Y-118550141D01*
X173565144Y-118573016D01*
X173573000Y-118612509D01*
X173573000Y-120787491D01*
X173565144Y-120826984D01*
X173549859Y-120849859D01*
X173526984Y-120865144D01*
X173487491Y-120873000D01*
X166012509Y-120873000D01*
X165973016Y-120865144D01*
X165950141Y-120849859D01*
X165934856Y-120826984D01*
X165927000Y-120787491D01*
X165927000Y-113212509D01*
X165934856Y-113173016D01*
X165950141Y-113150141D01*
X165973016Y-113134856D01*
X166012509Y-113127000D01*
X167033279Y-113127000D01*
X167059259Y-113133961D01*
G36*
X165273000Y-123498000D02*
G01*
X152924551Y-123498000D01*
X152609506Y-123467109D01*
X152330077Y-123382745D01*
X152072354Y-123245712D01*
X151846155Y-123061228D01*
X151660099Y-122836327D01*
X151600986Y-122727000D01*
X165273000Y-122727000D01*
X165273000Y-123498000D01*
X165273000Y-123498000D01*
G37*
X165273000Y-123498000D02*
X152924551Y-123498000D01*
X152609506Y-123467109D01*
X152330077Y-123382745D01*
X152072354Y-123245712D01*
X151846155Y-123061228D01*
X151660099Y-122836327D01*
X151600986Y-122727000D01*
X165273000Y-122727000D01*
X165273000Y-123498000D01*
M02*
