G04 #@! TF.GenerationSoftware,KiCad,Pcbnew,(5.1.2)-2*
G04 #@! TF.CreationDate,2020-05-22T00:57:25-04:00*
G04 #@! TF.ProjectId,SWSupply,53575375-7070-46c7-992e-6b696361645f,rev?*
G04 #@! TF.SameCoordinates,Original*
G04 #@! TF.FileFunction,Legend,Top*
G04 #@! TF.FilePolarity,Positive*
%FSLAX46Y46*%
G04 Gerber Fmt 4.6, Leading zero omitted, Abs format (unit mm)*
G04 Created by KiCad (PCBNEW (5.1.2)-2) date 2020-05-22 00:57:25*
%MOMM*%
%LPD*%
G04 APERTURE LIST*
%ADD10C,0.150000*%
%ADD11C,0.120000*%
G04 APERTURE END LIST*
D10*
X180657142Y-121352380D02*
X180657142Y-120352380D01*
X181133333Y-121352380D02*
X181133333Y-120352380D01*
X181704761Y-121352380D01*
X181704761Y-120352380D01*
X182180952Y-120971428D02*
X182942857Y-120971428D01*
X182561904Y-121352380D02*
X182561904Y-120590476D01*
X180338095Y-112500000D02*
X180242857Y-112452380D01*
X180100000Y-112452380D01*
X179957142Y-112500000D01*
X179861904Y-112595238D01*
X179814285Y-112690476D01*
X179766666Y-112880952D01*
X179766666Y-113023809D01*
X179814285Y-113214285D01*
X179861904Y-113309523D01*
X179957142Y-113404761D01*
X180100000Y-113452380D01*
X180195238Y-113452380D01*
X180338095Y-113404761D01*
X180385714Y-113357142D01*
X180385714Y-113023809D01*
X180195238Y-113023809D01*
X180814285Y-113452380D02*
X180814285Y-112452380D01*
X181385714Y-113452380D01*
X181385714Y-112452380D01*
X181861904Y-113452380D02*
X181861904Y-112452380D01*
X182100000Y-112452380D01*
X182242857Y-112500000D01*
X182338095Y-112595238D01*
X182385714Y-112690476D01*
X182433333Y-112880952D01*
X182433333Y-113023809D01*
X182385714Y-113214285D01*
X182338095Y-113309523D01*
X182242857Y-113404761D01*
X182100000Y-113452380D01*
X181861904Y-113452380D01*
X153038095Y-112500000D02*
X152942857Y-112452380D01*
X152800000Y-112452380D01*
X152657142Y-112500000D01*
X152561904Y-112595238D01*
X152514285Y-112690476D01*
X152466666Y-112880952D01*
X152466666Y-113023809D01*
X152514285Y-113214285D01*
X152561904Y-113309523D01*
X152657142Y-113404761D01*
X152800000Y-113452380D01*
X152895238Y-113452380D01*
X153038095Y-113404761D01*
X153085714Y-113357142D01*
X153085714Y-113023809D01*
X152895238Y-113023809D01*
X153514285Y-113452380D02*
X153514285Y-112452380D01*
X154085714Y-113452380D01*
X154085714Y-112452380D01*
X154561904Y-113452380D02*
X154561904Y-112452380D01*
X154800000Y-112452380D01*
X154942857Y-112500000D01*
X155038095Y-112595238D01*
X155085714Y-112690476D01*
X155133333Y-112880952D01*
X155133333Y-113023809D01*
X155085714Y-113214285D01*
X155038095Y-113309523D01*
X154942857Y-113404761D01*
X154800000Y-113452380D01*
X154561904Y-113452380D01*
X152880952Y-120352380D02*
X153071428Y-120352380D01*
X153166666Y-120400000D01*
X153261904Y-120495238D01*
X153309523Y-120685714D01*
X153309523Y-121019047D01*
X153261904Y-121209523D01*
X153166666Y-121304761D01*
X153071428Y-121352380D01*
X152880952Y-121352380D01*
X152785714Y-121304761D01*
X152690476Y-121209523D01*
X152642857Y-121019047D01*
X152642857Y-120685714D01*
X152690476Y-120495238D01*
X152785714Y-120400000D01*
X152880952Y-120352380D01*
X153738095Y-120352380D02*
X153738095Y-121161904D01*
X153785714Y-121257142D01*
X153833333Y-121304761D01*
X153928571Y-121352380D01*
X154119047Y-121352380D01*
X154214285Y-121304761D01*
X154261904Y-121257142D01*
X154309523Y-121161904D01*
X154309523Y-120352380D01*
X154642857Y-120352380D02*
X155214285Y-120352380D01*
X154928571Y-121352380D02*
X154928571Y-120352380D01*
X155547619Y-120971428D02*
X156309523Y-120971428D01*
X155928571Y-121352380D02*
X155928571Y-120590476D01*
D11*
X165254000Y-113746000D02*
X165254000Y-118054000D01*
X160946000Y-118054000D02*
X160946000Y-113746000D01*
X157200000Y-111400000D02*
X157675000Y-111400000D01*
X160125000Y-111400000D02*
X160600000Y-111400000D01*
X160125000Y-115675000D02*
X160600000Y-115675000D01*
X157200000Y-115675000D02*
X157660000Y-115675000D01*
X160600000Y-115675000D02*
X160600000Y-111400000D01*
X157200000Y-115675000D02*
X157200000Y-111400000D01*
X165950000Y-120235000D02*
X165950000Y-123435000D01*
X167950000Y-123435000D02*
X165950000Y-123435000D01*
X168250000Y-115865000D02*
X170250000Y-115865000D01*
X170250000Y-119065000D02*
X170250000Y-115865000D01*
X168500000Y-110690000D02*
X166050000Y-110690000D01*
X166700000Y-113910000D02*
X168500000Y-113910000D01*
X151270000Y-114250000D02*
X152600000Y-114250000D01*
X151270000Y-115580000D02*
X151270000Y-114250000D01*
X153870000Y-114250000D02*
X156470000Y-114250000D01*
X153870000Y-116850000D02*
X153870000Y-114250000D01*
X151270000Y-116850000D02*
X153870000Y-116850000D01*
X156470000Y-114250000D02*
X156470000Y-119450000D01*
X151270000Y-116850000D02*
X151270000Y-119450000D01*
X151270000Y-119450000D02*
X156470000Y-119450000D01*
X178570000Y-114250000D02*
X179900000Y-114250000D01*
X178570000Y-115580000D02*
X178570000Y-114250000D01*
X181170000Y-114250000D02*
X183770000Y-114250000D01*
X181170000Y-116850000D02*
X181170000Y-114250000D01*
X178570000Y-116850000D02*
X181170000Y-116850000D01*
X183770000Y-114250000D02*
X183770000Y-119450000D01*
X178570000Y-116850000D02*
X178570000Y-119450000D01*
X178570000Y-119450000D02*
X183770000Y-119450000D01*
X160010000Y-118858578D02*
X160010000Y-118341422D01*
X158590000Y-118858578D02*
X158590000Y-118341422D01*
X158590000Y-121841422D02*
X158590000Y-122358578D01*
X160010000Y-121841422D02*
X160010000Y-122358578D01*
X171415001Y-121920564D02*
X172479438Y-122985001D01*
X171415001Y-118529438D02*
X172479438Y-117465001D01*
X171415001Y-118529438D02*
X171415001Y-119165001D01*
X171415001Y-121920564D02*
X171415001Y-121285001D01*
X172479438Y-122985001D02*
X176935001Y-122985001D01*
X172479438Y-117465001D02*
X176935001Y-117465001D01*
X176935001Y-117465001D02*
X176935001Y-119165001D01*
X176935001Y-122985001D02*
X176935001Y-121285001D01*
X171490000Y-115995563D02*
X172554437Y-117060000D01*
X171490000Y-112604437D02*
X172554437Y-111540000D01*
X171490000Y-112604437D02*
X171490000Y-113240000D01*
X171490000Y-115995563D02*
X171490000Y-115360000D01*
X172554437Y-117060000D02*
X177010000Y-117060000D01*
X172554437Y-111540000D02*
X177010000Y-111540000D01*
X177010000Y-111540000D02*
X177010000Y-113240000D01*
X177010000Y-117060000D02*
X177010000Y-115360000D01*
D10*
X166552380Y-116066666D02*
X166552380Y-116542857D01*
X165552380Y-116542857D01*
X166552380Y-115209523D02*
X166552380Y-115780952D01*
X166552380Y-115495238D02*
X165552380Y-115495238D01*
X165695238Y-115590476D01*
X165790476Y-115685714D01*
X165838095Y-115780952D01*
X158204761Y-111152380D02*
X157871428Y-110676190D01*
X157633333Y-111152380D02*
X157633333Y-110152380D01*
X158014285Y-110152380D01*
X158109523Y-110200000D01*
X158157142Y-110247619D01*
X158204761Y-110342857D01*
X158204761Y-110485714D01*
X158157142Y-110580952D01*
X158109523Y-110628571D01*
X158014285Y-110676190D01*
X157633333Y-110676190D01*
X158490476Y-110152380D02*
X158823809Y-111152380D01*
X159157142Y-110152380D01*
X160014285Y-111152380D02*
X159442857Y-111152380D01*
X159728571Y-111152380D02*
X159728571Y-110152380D01*
X159633333Y-110295238D01*
X159538095Y-110390476D01*
X159442857Y-110438095D01*
X164061904Y-121852380D02*
X164061904Y-120852380D01*
X164300000Y-120852380D01*
X164442857Y-120900000D01*
X164538095Y-120995238D01*
X164585714Y-121090476D01*
X164633333Y-121280952D01*
X164633333Y-121423809D01*
X164585714Y-121614285D01*
X164538095Y-121709523D01*
X164442857Y-121804761D01*
X164300000Y-121852380D01*
X164061904Y-121852380D01*
X165585714Y-121852380D02*
X165014285Y-121852380D01*
X165300000Y-121852380D02*
X165300000Y-120852380D01*
X165204761Y-120995238D01*
X165109523Y-121090476D01*
X165014285Y-121138095D01*
X166838095Y-114352380D02*
X166838095Y-115161904D01*
X166885714Y-115257142D01*
X166933333Y-115304761D01*
X167028571Y-115352380D01*
X167219047Y-115352380D01*
X167314285Y-115304761D01*
X167361904Y-115257142D01*
X167409523Y-115161904D01*
X167409523Y-114352380D01*
X168409523Y-115352380D02*
X167838095Y-115352380D01*
X168123809Y-115352380D02*
X168123809Y-114352380D01*
X168028571Y-114495238D01*
X167933333Y-114590476D01*
X167838095Y-114638095D01*
X163333333Y-111182380D02*
X163000000Y-110706190D01*
X162761904Y-111182380D02*
X162761904Y-110182380D01*
X163142857Y-110182380D01*
X163238095Y-110230000D01*
X163285714Y-110277619D01*
X163333333Y-110372857D01*
X163333333Y-110515714D01*
X163285714Y-110610952D01*
X163238095Y-110658571D01*
X163142857Y-110706190D01*
X162761904Y-110706190D01*
X163714285Y-110277619D02*
X163761904Y-110230000D01*
X163857142Y-110182380D01*
X164095238Y-110182380D01*
X164190476Y-110230000D01*
X164238095Y-110277619D01*
X164285714Y-110372857D01*
X164285714Y-110468095D01*
X164238095Y-110610952D01*
X163666666Y-111182380D01*
X164285714Y-111182380D01*
X170333333Y-113252380D02*
X170000000Y-112776190D01*
X169761904Y-113252380D02*
X169761904Y-112252380D01*
X170142857Y-112252380D01*
X170238095Y-112300000D01*
X170285714Y-112347619D01*
X170333333Y-112442857D01*
X170333333Y-112585714D01*
X170285714Y-112680952D01*
X170238095Y-112728571D01*
X170142857Y-112776190D01*
X169761904Y-112776190D01*
X171285714Y-113252380D02*
X170714285Y-113252380D01*
X171000000Y-113252380D02*
X171000000Y-112252380D01*
X170904761Y-112395238D01*
X170809523Y-112490476D01*
X170714285Y-112538095D01*
X161133333Y-119957142D02*
X161085714Y-120004761D01*
X160942857Y-120052380D01*
X160847619Y-120052380D01*
X160704761Y-120004761D01*
X160609523Y-119909523D01*
X160561904Y-119814285D01*
X160514285Y-119623809D01*
X160514285Y-119480952D01*
X160561904Y-119290476D01*
X160609523Y-119195238D01*
X160704761Y-119100000D01*
X160847619Y-119052380D01*
X160942857Y-119052380D01*
X161085714Y-119100000D01*
X161133333Y-119147619D01*
X161990476Y-119052380D02*
X161800000Y-119052380D01*
X161704761Y-119100000D01*
X161657142Y-119147619D01*
X161561904Y-119290476D01*
X161514285Y-119480952D01*
X161514285Y-119861904D01*
X161561904Y-119957142D01*
X161609523Y-120004761D01*
X161704761Y-120052380D01*
X161895238Y-120052380D01*
X161990476Y-120004761D01*
X162038095Y-119957142D01*
X162085714Y-119861904D01*
X162085714Y-119623809D01*
X162038095Y-119528571D01*
X161990476Y-119480952D01*
X161895238Y-119433333D01*
X161704761Y-119433333D01*
X161609523Y-119480952D01*
X161561904Y-119528571D01*
X161514285Y-119623809D01*
X161233333Y-122457142D02*
X161185714Y-122504761D01*
X161042857Y-122552380D01*
X160947619Y-122552380D01*
X160804761Y-122504761D01*
X160709523Y-122409523D01*
X160661904Y-122314285D01*
X160614285Y-122123809D01*
X160614285Y-121980952D01*
X160661904Y-121790476D01*
X160709523Y-121695238D01*
X160804761Y-121600000D01*
X160947619Y-121552380D01*
X161042857Y-121552380D01*
X161185714Y-121600000D01*
X161233333Y-121647619D01*
X162138095Y-121552380D02*
X161661904Y-121552380D01*
X161614285Y-122028571D01*
X161661904Y-121980952D01*
X161757142Y-121933333D01*
X161995238Y-121933333D01*
X162090476Y-121980952D01*
X162138095Y-122028571D01*
X162185714Y-122123809D01*
X162185714Y-122361904D01*
X162138095Y-122457142D01*
X162090476Y-122504761D01*
X161995238Y-122552380D01*
X161757142Y-122552380D01*
X161661904Y-122504761D01*
X161614285Y-122457142D01*
X170833333Y-116557142D02*
X170785714Y-116604761D01*
X170642857Y-116652380D01*
X170547619Y-116652380D01*
X170404761Y-116604761D01*
X170309523Y-116509523D01*
X170261904Y-116414285D01*
X170214285Y-116223809D01*
X170214285Y-116080952D01*
X170261904Y-115890476D01*
X170309523Y-115795238D01*
X170404761Y-115700000D01*
X170547619Y-115652380D01*
X170642857Y-115652380D01*
X170785714Y-115700000D01*
X170833333Y-115747619D01*
X171690476Y-115985714D02*
X171690476Y-116652380D01*
X171452380Y-115604761D02*
X171214285Y-116319047D01*
X171833333Y-116319047D01*
X178333333Y-111757142D02*
X178285714Y-111804761D01*
X178142857Y-111852380D01*
X178047619Y-111852380D01*
X177904761Y-111804761D01*
X177809523Y-111709523D01*
X177761904Y-111614285D01*
X177714285Y-111423809D01*
X177714285Y-111280952D01*
X177761904Y-111090476D01*
X177809523Y-110995238D01*
X177904761Y-110900000D01*
X178047619Y-110852380D01*
X178142857Y-110852380D01*
X178285714Y-110900000D01*
X178333333Y-110947619D01*
X178666666Y-110852380D02*
X179285714Y-110852380D01*
X178952380Y-111233333D01*
X179095238Y-111233333D01*
X179190476Y-111280952D01*
X179238095Y-111328571D01*
X179285714Y-111423809D01*
X179285714Y-111661904D01*
X179238095Y-111757142D01*
X179190476Y-111804761D01*
X179095238Y-111852380D01*
X178809523Y-111852380D01*
X178714285Y-111804761D01*
X178666666Y-111757142D01*
X177933333Y-122757142D02*
X177885714Y-122804761D01*
X177742857Y-122852380D01*
X177647619Y-122852380D01*
X177504761Y-122804761D01*
X177409523Y-122709523D01*
X177361904Y-122614285D01*
X177314285Y-122423809D01*
X177314285Y-122280952D01*
X177361904Y-122090476D01*
X177409523Y-121995238D01*
X177504761Y-121900000D01*
X177647619Y-121852380D01*
X177742857Y-121852380D01*
X177885714Y-121900000D01*
X177933333Y-121947619D01*
X178314285Y-121947619D02*
X178361904Y-121900000D01*
X178457142Y-121852380D01*
X178695238Y-121852380D01*
X178790476Y-121900000D01*
X178838095Y-121947619D01*
X178885714Y-122042857D01*
X178885714Y-122138095D01*
X178838095Y-122280952D01*
X178266666Y-122852380D01*
X178885714Y-122852380D01*
X174633333Y-111257142D02*
X174585714Y-111304761D01*
X174442857Y-111352380D01*
X174347619Y-111352380D01*
X174204761Y-111304761D01*
X174109523Y-111209523D01*
X174061904Y-111114285D01*
X174014285Y-110923809D01*
X174014285Y-110780952D01*
X174061904Y-110590476D01*
X174109523Y-110495238D01*
X174204761Y-110400000D01*
X174347619Y-110352380D01*
X174442857Y-110352380D01*
X174585714Y-110400000D01*
X174633333Y-110447619D01*
X175585714Y-111352380D02*
X175014285Y-111352380D01*
X175300000Y-111352380D02*
X175300000Y-110352380D01*
X175204761Y-110495238D01*
X175109523Y-110590476D01*
X175014285Y-110638095D01*
M02*
