G04 #@! TF.GenerationSoftware,KiCad,Pcbnew,(5.1.2)-2*
G04 #@! TF.CreationDate,2020-05-22T00:57:25-04:00*
G04 #@! TF.ProjectId,SWSupply,53575375-7070-46c7-992e-6b696361645f,rev?*
G04 #@! TF.SameCoordinates,Original*
G04 #@! TF.FileFunction,Copper,L2,Bot*
G04 #@! TF.FilePolarity,Positive*
%FSLAX46Y46*%
G04 Gerber Fmt 4.6, Leading zero omitted, Abs format (unit mm)*
G04 Created by KiCad (PCBNEW (5.1.2)-2) date 2020-05-22 00:57:25*
%MOMM*%
%LPD*%
G04 APERTURE LIST*
%ADD10C,0.600000*%
%ADD11O,1.700000X1.700000*%
%ADD12R,1.700000X1.700000*%
%ADD13C,0.800000*%
%ADD14C,0.250000*%
%ADD15C,0.254000*%
G04 APERTURE END LIST*
D10*
X164900000Y-123100000D03*
X163900000Y-123100000D03*
X162900000Y-123100000D03*
X161900000Y-123100000D03*
X160900000Y-123100000D03*
X157100000Y-123100000D03*
X156100000Y-123100000D03*
X155100000Y-123100000D03*
X154100000Y-123100000D03*
X153100000Y-123100000D03*
X164900000Y-118700000D03*
X163900000Y-118700000D03*
X162900000Y-118700000D03*
X161900000Y-118700000D03*
X160900000Y-118700000D03*
X164900000Y-121700000D03*
X163900000Y-121700000D03*
X162900000Y-121700000D03*
X161900000Y-121700000D03*
X160900000Y-121700000D03*
X157100000Y-121700000D03*
X156100000Y-121700000D03*
X155100000Y-121700000D03*
X154100000Y-121700000D03*
X153100000Y-121700000D03*
X152100000Y-121700000D03*
X164900000Y-120700000D03*
X163900000Y-120700000D03*
X162900000Y-120700000D03*
X161900000Y-120700000D03*
X160900000Y-120700000D03*
X157100000Y-120700000D03*
X156100000Y-120700000D03*
X155100000Y-120700000D03*
X154100000Y-120700000D03*
X153100000Y-120700000D03*
X152100000Y-120700000D03*
X164900000Y-119700000D03*
X163900000Y-119700000D03*
X162900000Y-119700000D03*
X161900000Y-119700000D03*
X160900000Y-119700000D03*
X157100000Y-119700000D03*
X156100000Y-119700000D03*
X155100000Y-119700000D03*
X154100000Y-119700000D03*
X153100000Y-119700000D03*
X165100000Y-110500000D03*
X164100000Y-110500000D03*
X163100000Y-110500000D03*
X162100000Y-110500000D03*
X161100000Y-110500000D03*
X160100000Y-110500000D03*
X159100000Y-110500000D03*
X158100000Y-110500000D03*
X157100000Y-110500000D03*
X156100000Y-113500000D03*
X155100000Y-113500000D03*
X154100000Y-113500000D03*
X153100000Y-113500000D03*
X152100000Y-113500000D03*
X156100000Y-112500000D03*
X155100000Y-112500000D03*
X154100000Y-112500000D03*
X153100000Y-112500000D03*
X152100000Y-112500000D03*
X156100000Y-111500000D03*
X155100000Y-111500000D03*
X154100000Y-111500000D03*
X153100000Y-111500000D03*
X152100000Y-111500000D03*
X152100000Y-119700000D03*
X156100000Y-110500000D03*
X155100000Y-110500000D03*
X154100000Y-110500000D03*
X153100000Y-110500000D03*
X180100000Y-112500000D03*
X181100000Y-112500000D03*
X182100000Y-112500000D03*
X183100000Y-112500000D03*
X180100000Y-113500000D03*
X181100000Y-113500000D03*
X182100000Y-113500000D03*
X183100000Y-113500000D03*
X173600000Y-111500000D03*
X174600000Y-111500000D03*
X175600000Y-111500000D03*
X176600000Y-111500000D03*
X177600000Y-111500000D03*
X178600000Y-111500000D03*
X179600000Y-111500000D03*
X180600000Y-111500000D03*
X181600000Y-111500000D03*
X182600000Y-111500000D03*
X171600000Y-110500000D03*
X172600000Y-110500000D03*
X173600000Y-110500000D03*
X174600000Y-110500000D03*
X175600000Y-110500000D03*
X176600000Y-110500000D03*
X177600000Y-110500000D03*
X178600000Y-110500000D03*
X179600000Y-110500000D03*
X180600000Y-110500000D03*
X181600000Y-110500000D03*
X182600000Y-110500000D03*
X170900000Y-123000000D03*
X171900000Y-123000000D03*
X172900000Y-123000000D03*
X173900000Y-123000000D03*
X174900000Y-123000000D03*
X175900000Y-123000000D03*
X176900000Y-123000000D03*
X177900000Y-123000000D03*
X178900000Y-123000000D03*
X170900000Y-122000000D03*
X171900000Y-122000000D03*
X172900000Y-122000000D03*
X173900000Y-122000000D03*
X174900000Y-122000000D03*
X175900000Y-122000000D03*
X176900000Y-122000000D03*
X177900000Y-122000000D03*
X182900000Y-123000000D03*
X181900000Y-123000000D03*
X180900000Y-123000000D03*
X179900000Y-123000000D03*
X182900000Y-122000000D03*
X181900000Y-122000000D03*
X180900000Y-122000000D03*
X179900000Y-122000000D03*
X178900000Y-122000000D03*
X182900000Y-121000000D03*
X181900000Y-121000000D03*
X180900000Y-121000000D03*
X179900000Y-121000000D03*
X178900000Y-121000000D03*
X182900000Y-120000000D03*
X181900000Y-120000000D03*
X180900000Y-120000000D03*
X179900000Y-120000000D03*
X178900000Y-120000000D03*
D11*
X155140000Y-118120000D03*
X152600000Y-118120000D03*
X155140000Y-115580000D03*
D12*
X152600000Y-115580000D03*
D11*
X182440000Y-118120000D03*
X179900000Y-118120000D03*
X182440000Y-115580000D03*
D12*
X179900000Y-115580000D03*
D13*
X170200000Y-113299998D03*
X172300000Y-112200000D03*
X161700000Y-111900000D03*
X160700000Y-113700000D03*
X178800000Y-113700000D03*
D14*
X171734315Y-112200000D02*
X172300000Y-112200000D01*
X171299998Y-112200000D02*
X171734315Y-112200000D01*
X170200000Y-113299998D02*
X171299998Y-112200000D01*
X162265685Y-111900000D02*
X161700000Y-111900000D01*
X168800002Y-111900000D02*
X162265685Y-111900000D01*
X170200000Y-113299998D02*
X168800002Y-111900000D01*
X160700000Y-113700000D02*
X161099999Y-114099999D01*
X178400001Y-114099999D02*
X178800000Y-113700000D01*
X161099999Y-114099999D02*
X178400001Y-114099999D01*
D15*
G36*
X182390497Y-110232891D02*
G01*
X182669927Y-110317256D01*
X182927647Y-110454289D01*
X183153847Y-110638773D01*
X183339901Y-110863673D01*
X183478731Y-111120435D01*
X183565045Y-111399270D01*
X183598001Y-111712821D01*
X183598001Y-116623000D01*
X178200000Y-116623000D01*
X178106942Y-116632165D01*
X178017460Y-116659309D01*
X177934993Y-116703389D01*
X177862710Y-116762710D01*
X177803389Y-116834993D01*
X177759309Y-116917460D01*
X177732165Y-117006942D01*
X177723000Y-117100000D01*
X177723000Y-121023000D01*
X169300000Y-121023000D01*
X169206942Y-121032165D01*
X169117460Y-121059309D01*
X169034993Y-121103389D01*
X168962710Y-121162710D01*
X168903389Y-121234993D01*
X168859309Y-121317460D01*
X168832165Y-121406942D01*
X168823000Y-121500000D01*
X168823000Y-123498000D01*
X152924551Y-123498000D01*
X152609506Y-123467109D01*
X152330077Y-123382745D01*
X152072354Y-123245712D01*
X151846155Y-123061228D01*
X151801868Y-123007695D01*
X165200000Y-123007695D01*
X165293058Y-122998530D01*
X165382540Y-122971386D01*
X165465007Y-122927306D01*
X165537290Y-122867985D01*
X165596611Y-122795702D01*
X165640691Y-122713235D01*
X165667835Y-122623753D01*
X165677000Y-122530695D01*
X165677000Y-118000000D01*
X165667835Y-117906942D01*
X165640691Y-117817460D01*
X165596611Y-117734993D01*
X165537290Y-117662710D01*
X165465007Y-117603389D01*
X165382540Y-117559309D01*
X165293058Y-117532165D01*
X165200000Y-117523000D01*
X160400000Y-117523000D01*
X160306942Y-117532165D01*
X160217460Y-117559309D01*
X160134993Y-117603389D01*
X160062710Y-117662710D01*
X160003389Y-117734993D01*
X159959309Y-117817460D01*
X159932165Y-117906942D01*
X159923000Y-118000000D01*
X159923000Y-118153695D01*
X157277000Y-118153695D01*
X157277000Y-117000000D01*
X157267835Y-116906942D01*
X157240691Y-116817460D01*
X157196611Y-116734993D01*
X157137290Y-116662710D01*
X157065007Y-116603389D01*
X156982540Y-116559309D01*
X156893058Y-116532165D01*
X156800000Y-116523000D01*
X151402000Y-116523000D01*
X151402000Y-113613623D01*
X159823000Y-113613623D01*
X159823000Y-113786377D01*
X159856703Y-113955811D01*
X159922813Y-114115415D01*
X160018790Y-114259055D01*
X160140945Y-114381210D01*
X160284585Y-114477187D01*
X160444189Y-114543297D01*
X160613623Y-114577000D01*
X160732290Y-114577000D01*
X160763928Y-114602965D01*
X160868509Y-114658865D01*
X160981987Y-114693288D01*
X161070433Y-114701999D01*
X161070442Y-114701999D01*
X161099998Y-114704910D01*
X161129555Y-114701999D01*
X178370445Y-114701999D01*
X178400001Y-114704910D01*
X178429557Y-114701999D01*
X178429567Y-114701999D01*
X178518013Y-114693288D01*
X178631491Y-114658865D01*
X178736072Y-114602965D01*
X178767710Y-114577000D01*
X178886377Y-114577000D01*
X179055811Y-114543297D01*
X179215415Y-114477187D01*
X179359055Y-114381210D01*
X179481210Y-114259055D01*
X179577187Y-114115415D01*
X179643297Y-113955811D01*
X179677000Y-113786377D01*
X179677000Y-113613623D01*
X179643297Y-113444189D01*
X179577187Y-113284585D01*
X179481210Y-113140945D01*
X179359055Y-113018790D01*
X179215415Y-112922813D01*
X179055811Y-112856703D01*
X178886377Y-112823000D01*
X178713623Y-112823000D01*
X178544189Y-112856703D01*
X178384585Y-112922813D01*
X178240945Y-113018790D01*
X178118790Y-113140945D01*
X178022813Y-113284585D01*
X177956703Y-113444189D01*
X177945999Y-113497999D01*
X171054796Y-113497999D01*
X171077000Y-113386375D01*
X171077000Y-113274354D01*
X171549355Y-112802000D01*
X171661735Y-112802000D01*
X171740945Y-112881210D01*
X171884585Y-112977187D01*
X172044189Y-113043297D01*
X172213623Y-113077000D01*
X172386377Y-113077000D01*
X172555811Y-113043297D01*
X172715415Y-112977187D01*
X172859055Y-112881210D01*
X172981210Y-112759055D01*
X173077187Y-112615415D01*
X173143297Y-112455811D01*
X173177000Y-112286377D01*
X173177000Y-112113623D01*
X173143297Y-111944189D01*
X173077187Y-111784585D01*
X172981210Y-111640945D01*
X172859055Y-111518790D01*
X172715415Y-111422813D01*
X172555811Y-111356703D01*
X172386377Y-111323000D01*
X172213623Y-111323000D01*
X172044189Y-111356703D01*
X171884585Y-111422813D01*
X171740945Y-111518790D01*
X171661735Y-111598000D01*
X171329554Y-111598000D01*
X171299997Y-111595089D01*
X171270441Y-111598000D01*
X171270432Y-111598000D01*
X171181986Y-111606711D01*
X171068508Y-111641134D01*
X170963927Y-111697034D01*
X170963925Y-111697035D01*
X170963926Y-111697035D01*
X170895225Y-111753416D01*
X170895221Y-111753420D01*
X170872261Y-111772263D01*
X170853418Y-111795223D01*
X170225644Y-112422998D01*
X170174356Y-112422998D01*
X169246591Y-111495234D01*
X169227739Y-111472263D01*
X169136073Y-111397034D01*
X169031492Y-111341134D01*
X168918014Y-111306711D01*
X168829568Y-111298000D01*
X168829558Y-111298000D01*
X168800002Y-111295089D01*
X168770446Y-111298000D01*
X162338265Y-111298000D01*
X162259055Y-111218790D01*
X162115415Y-111122813D01*
X161955811Y-111056703D01*
X161786377Y-111023000D01*
X161613623Y-111023000D01*
X161444189Y-111056703D01*
X161284585Y-111122813D01*
X161140945Y-111218790D01*
X161018790Y-111340945D01*
X160922813Y-111484585D01*
X160856703Y-111644189D01*
X160823000Y-111813623D01*
X160823000Y-111986377D01*
X160856703Y-112155811D01*
X160922813Y-112315415D01*
X161018790Y-112459055D01*
X161140945Y-112581210D01*
X161284585Y-112677187D01*
X161444189Y-112743297D01*
X161613623Y-112777000D01*
X161786377Y-112777000D01*
X161955811Y-112743297D01*
X162115415Y-112677187D01*
X162259055Y-112581210D01*
X162338265Y-112502000D01*
X168550647Y-112502000D01*
X169323000Y-113274354D01*
X169323000Y-113386375D01*
X169345204Y-113497999D01*
X161554001Y-113497999D01*
X161543297Y-113444189D01*
X161477187Y-113284585D01*
X161381210Y-113140945D01*
X161259055Y-113018790D01*
X161115415Y-112922813D01*
X160955811Y-112856703D01*
X160786377Y-112823000D01*
X160613623Y-112823000D01*
X160444189Y-112856703D01*
X160284585Y-112922813D01*
X160140945Y-113018790D01*
X160018790Y-113140945D01*
X159922813Y-113284585D01*
X159856703Y-113444189D01*
X159823000Y-113613623D01*
X151402000Y-113613623D01*
X151402000Y-111724551D01*
X151432891Y-111409503D01*
X151517256Y-111130073D01*
X151654289Y-110872353D01*
X151838773Y-110646153D01*
X152063673Y-110460099D01*
X152320435Y-110321269D01*
X152599270Y-110234955D01*
X152912812Y-110202000D01*
X182075449Y-110202000D01*
X182390497Y-110232891D01*
X182390497Y-110232891D01*
G37*
X182390497Y-110232891D02*
X182669927Y-110317256D01*
X182927647Y-110454289D01*
X183153847Y-110638773D01*
X183339901Y-110863673D01*
X183478731Y-111120435D01*
X183565045Y-111399270D01*
X183598001Y-111712821D01*
X183598001Y-116623000D01*
X178200000Y-116623000D01*
X178106942Y-116632165D01*
X178017460Y-116659309D01*
X177934993Y-116703389D01*
X177862710Y-116762710D01*
X177803389Y-116834993D01*
X177759309Y-116917460D01*
X177732165Y-117006942D01*
X177723000Y-117100000D01*
X177723000Y-121023000D01*
X169300000Y-121023000D01*
X169206942Y-121032165D01*
X169117460Y-121059309D01*
X169034993Y-121103389D01*
X168962710Y-121162710D01*
X168903389Y-121234993D01*
X168859309Y-121317460D01*
X168832165Y-121406942D01*
X168823000Y-121500000D01*
X168823000Y-123498000D01*
X152924551Y-123498000D01*
X152609506Y-123467109D01*
X152330077Y-123382745D01*
X152072354Y-123245712D01*
X151846155Y-123061228D01*
X151801868Y-123007695D01*
X165200000Y-123007695D01*
X165293058Y-122998530D01*
X165382540Y-122971386D01*
X165465007Y-122927306D01*
X165537290Y-122867985D01*
X165596611Y-122795702D01*
X165640691Y-122713235D01*
X165667835Y-122623753D01*
X165677000Y-122530695D01*
X165677000Y-118000000D01*
X165667835Y-117906942D01*
X165640691Y-117817460D01*
X165596611Y-117734993D01*
X165537290Y-117662710D01*
X165465007Y-117603389D01*
X165382540Y-117559309D01*
X165293058Y-117532165D01*
X165200000Y-117523000D01*
X160400000Y-117523000D01*
X160306942Y-117532165D01*
X160217460Y-117559309D01*
X160134993Y-117603389D01*
X160062710Y-117662710D01*
X160003389Y-117734993D01*
X159959309Y-117817460D01*
X159932165Y-117906942D01*
X159923000Y-118000000D01*
X159923000Y-118153695D01*
X157277000Y-118153695D01*
X157277000Y-117000000D01*
X157267835Y-116906942D01*
X157240691Y-116817460D01*
X157196611Y-116734993D01*
X157137290Y-116662710D01*
X157065007Y-116603389D01*
X156982540Y-116559309D01*
X156893058Y-116532165D01*
X156800000Y-116523000D01*
X151402000Y-116523000D01*
X151402000Y-113613623D01*
X159823000Y-113613623D01*
X159823000Y-113786377D01*
X159856703Y-113955811D01*
X159922813Y-114115415D01*
X160018790Y-114259055D01*
X160140945Y-114381210D01*
X160284585Y-114477187D01*
X160444189Y-114543297D01*
X160613623Y-114577000D01*
X160732290Y-114577000D01*
X160763928Y-114602965D01*
X160868509Y-114658865D01*
X160981987Y-114693288D01*
X161070433Y-114701999D01*
X161070442Y-114701999D01*
X161099998Y-114704910D01*
X161129555Y-114701999D01*
X178370445Y-114701999D01*
X178400001Y-114704910D01*
X178429557Y-114701999D01*
X178429567Y-114701999D01*
X178518013Y-114693288D01*
X178631491Y-114658865D01*
X178736072Y-114602965D01*
X178767710Y-114577000D01*
X178886377Y-114577000D01*
X179055811Y-114543297D01*
X179215415Y-114477187D01*
X179359055Y-114381210D01*
X179481210Y-114259055D01*
X179577187Y-114115415D01*
X179643297Y-113955811D01*
X179677000Y-113786377D01*
X179677000Y-113613623D01*
X179643297Y-113444189D01*
X179577187Y-113284585D01*
X179481210Y-113140945D01*
X179359055Y-113018790D01*
X179215415Y-112922813D01*
X179055811Y-112856703D01*
X178886377Y-112823000D01*
X178713623Y-112823000D01*
X178544189Y-112856703D01*
X178384585Y-112922813D01*
X178240945Y-113018790D01*
X178118790Y-113140945D01*
X178022813Y-113284585D01*
X177956703Y-113444189D01*
X177945999Y-113497999D01*
X171054796Y-113497999D01*
X171077000Y-113386375D01*
X171077000Y-113274354D01*
X171549355Y-112802000D01*
X171661735Y-112802000D01*
X171740945Y-112881210D01*
X171884585Y-112977187D01*
X172044189Y-113043297D01*
X172213623Y-113077000D01*
X172386377Y-113077000D01*
X172555811Y-113043297D01*
X172715415Y-112977187D01*
X172859055Y-112881210D01*
X172981210Y-112759055D01*
X173077187Y-112615415D01*
X173143297Y-112455811D01*
X173177000Y-112286377D01*
X173177000Y-112113623D01*
X173143297Y-111944189D01*
X173077187Y-111784585D01*
X172981210Y-111640945D01*
X172859055Y-111518790D01*
X172715415Y-111422813D01*
X172555811Y-111356703D01*
X172386377Y-111323000D01*
X172213623Y-111323000D01*
X172044189Y-111356703D01*
X171884585Y-111422813D01*
X171740945Y-111518790D01*
X171661735Y-111598000D01*
X171329554Y-111598000D01*
X171299997Y-111595089D01*
X171270441Y-111598000D01*
X171270432Y-111598000D01*
X171181986Y-111606711D01*
X171068508Y-111641134D01*
X170963927Y-111697034D01*
X170963925Y-111697035D01*
X170963926Y-111697035D01*
X170895225Y-111753416D01*
X170895221Y-111753420D01*
X170872261Y-111772263D01*
X170853418Y-111795223D01*
X170225644Y-112422998D01*
X170174356Y-112422998D01*
X169246591Y-111495234D01*
X169227739Y-111472263D01*
X169136073Y-111397034D01*
X169031492Y-111341134D01*
X168918014Y-111306711D01*
X168829568Y-111298000D01*
X168829558Y-111298000D01*
X168800002Y-111295089D01*
X168770446Y-111298000D01*
X162338265Y-111298000D01*
X162259055Y-111218790D01*
X162115415Y-111122813D01*
X161955811Y-111056703D01*
X161786377Y-111023000D01*
X161613623Y-111023000D01*
X161444189Y-111056703D01*
X161284585Y-111122813D01*
X161140945Y-111218790D01*
X161018790Y-111340945D01*
X160922813Y-111484585D01*
X160856703Y-111644189D01*
X160823000Y-111813623D01*
X160823000Y-111986377D01*
X160856703Y-112155811D01*
X160922813Y-112315415D01*
X161018790Y-112459055D01*
X161140945Y-112581210D01*
X161284585Y-112677187D01*
X161444189Y-112743297D01*
X161613623Y-112777000D01*
X161786377Y-112777000D01*
X161955811Y-112743297D01*
X162115415Y-112677187D01*
X162259055Y-112581210D01*
X162338265Y-112502000D01*
X168550647Y-112502000D01*
X169323000Y-113274354D01*
X169323000Y-113386375D01*
X169345204Y-113497999D01*
X161554001Y-113497999D01*
X161543297Y-113444189D01*
X161477187Y-113284585D01*
X161381210Y-113140945D01*
X161259055Y-113018790D01*
X161115415Y-112922813D01*
X160955811Y-112856703D01*
X160786377Y-112823000D01*
X160613623Y-112823000D01*
X160444189Y-112856703D01*
X160284585Y-112922813D01*
X160140945Y-113018790D01*
X160018790Y-113140945D01*
X159922813Y-113284585D01*
X159856703Y-113444189D01*
X159823000Y-113613623D01*
X151402000Y-113613623D01*
X151402000Y-111724551D01*
X151432891Y-111409503D01*
X151517256Y-111130073D01*
X151654289Y-110872353D01*
X151838773Y-110646153D01*
X152063673Y-110460099D01*
X152320435Y-110321269D01*
X152599270Y-110234955D01*
X152912812Y-110202000D01*
X182075449Y-110202000D01*
X182390497Y-110232891D01*
G36*
X156673000Y-118630695D02*
G01*
X156675440Y-118655471D01*
X156682667Y-118679296D01*
X156694403Y-118701252D01*
X156710197Y-118720498D01*
X156729443Y-118736292D01*
X156751399Y-118748028D01*
X156775224Y-118755255D01*
X156800000Y-118757695D01*
X160400000Y-118757695D01*
X160424776Y-118755255D01*
X160448601Y-118748028D01*
X160470557Y-118736292D01*
X160489803Y-118720498D01*
X160505597Y-118701252D01*
X160517333Y-118679296D01*
X160524560Y-118655471D01*
X160527000Y-118630695D01*
X160527000Y-118127000D01*
X165073000Y-118127000D01*
X165073000Y-122342189D01*
X164976528Y-122323000D01*
X164823472Y-122323000D01*
X164673357Y-122352859D01*
X164550628Y-122403695D01*
X164249372Y-122403695D01*
X164126643Y-122352859D01*
X163976528Y-122323000D01*
X163823472Y-122323000D01*
X163673357Y-122352859D01*
X163550628Y-122403695D01*
X163249372Y-122403695D01*
X163126643Y-122352859D01*
X162976528Y-122323000D01*
X162823472Y-122323000D01*
X162673357Y-122352859D01*
X162550628Y-122403695D01*
X162249372Y-122403695D01*
X162126643Y-122352859D01*
X161976528Y-122323000D01*
X161823472Y-122323000D01*
X161673357Y-122352859D01*
X161550628Y-122403695D01*
X161249372Y-122403695D01*
X161126643Y-122352859D01*
X160976528Y-122323000D01*
X160823472Y-122323000D01*
X160673357Y-122352859D01*
X160550628Y-122403695D01*
X157449372Y-122403695D01*
X157326643Y-122352859D01*
X157176528Y-122323000D01*
X157023472Y-122323000D01*
X156873357Y-122352859D01*
X156750628Y-122403695D01*
X156449372Y-122403695D01*
X156326643Y-122352859D01*
X156176528Y-122323000D01*
X156023472Y-122323000D01*
X155873357Y-122352859D01*
X155750628Y-122403695D01*
X155449372Y-122403695D01*
X155326643Y-122352859D01*
X155176528Y-122323000D01*
X155023472Y-122323000D01*
X154873357Y-122352859D01*
X154750628Y-122403695D01*
X154449372Y-122403695D01*
X154326643Y-122352859D01*
X154176528Y-122323000D01*
X154023472Y-122323000D01*
X153873357Y-122352859D01*
X153750628Y-122403695D01*
X153449372Y-122403695D01*
X153326643Y-122352859D01*
X153176528Y-122323000D01*
X153023472Y-122323000D01*
X152873357Y-122352859D01*
X152750628Y-122403695D01*
X151466828Y-122403695D01*
X151434955Y-122300730D01*
X151402000Y-121987187D01*
X151402000Y-117127000D01*
X156673000Y-117127000D01*
X156673000Y-118630695D01*
X156673000Y-118630695D01*
G37*
X156673000Y-118630695D02*
X156675440Y-118655471D01*
X156682667Y-118679296D01*
X156694403Y-118701252D01*
X156710197Y-118720498D01*
X156729443Y-118736292D01*
X156751399Y-118748028D01*
X156775224Y-118755255D01*
X156800000Y-118757695D01*
X160400000Y-118757695D01*
X160424776Y-118755255D01*
X160448601Y-118748028D01*
X160470557Y-118736292D01*
X160489803Y-118720498D01*
X160505597Y-118701252D01*
X160517333Y-118679296D01*
X160524560Y-118655471D01*
X160527000Y-118630695D01*
X160527000Y-118127000D01*
X165073000Y-118127000D01*
X165073000Y-122342189D01*
X164976528Y-122323000D01*
X164823472Y-122323000D01*
X164673357Y-122352859D01*
X164550628Y-122403695D01*
X164249372Y-122403695D01*
X164126643Y-122352859D01*
X163976528Y-122323000D01*
X163823472Y-122323000D01*
X163673357Y-122352859D01*
X163550628Y-122403695D01*
X163249372Y-122403695D01*
X163126643Y-122352859D01*
X162976528Y-122323000D01*
X162823472Y-122323000D01*
X162673357Y-122352859D01*
X162550628Y-122403695D01*
X162249372Y-122403695D01*
X162126643Y-122352859D01*
X161976528Y-122323000D01*
X161823472Y-122323000D01*
X161673357Y-122352859D01*
X161550628Y-122403695D01*
X161249372Y-122403695D01*
X161126643Y-122352859D01*
X160976528Y-122323000D01*
X160823472Y-122323000D01*
X160673357Y-122352859D01*
X160550628Y-122403695D01*
X157449372Y-122403695D01*
X157326643Y-122352859D01*
X157176528Y-122323000D01*
X157023472Y-122323000D01*
X156873357Y-122352859D01*
X156750628Y-122403695D01*
X156449372Y-122403695D01*
X156326643Y-122352859D01*
X156176528Y-122323000D01*
X156023472Y-122323000D01*
X155873357Y-122352859D01*
X155750628Y-122403695D01*
X155449372Y-122403695D01*
X155326643Y-122352859D01*
X155176528Y-122323000D01*
X155023472Y-122323000D01*
X154873357Y-122352859D01*
X154750628Y-122403695D01*
X154449372Y-122403695D01*
X154326643Y-122352859D01*
X154176528Y-122323000D01*
X154023472Y-122323000D01*
X153873357Y-122352859D01*
X153750628Y-122403695D01*
X153449372Y-122403695D01*
X153326643Y-122352859D01*
X153176528Y-122323000D01*
X153023472Y-122323000D01*
X152873357Y-122352859D01*
X152750628Y-122403695D01*
X151466828Y-122403695D01*
X151434955Y-122300730D01*
X151402000Y-121987187D01*
X151402000Y-117127000D01*
X156673000Y-117127000D01*
X156673000Y-118630695D01*
G36*
X183598000Y-121975449D02*
G01*
X183567109Y-122290494D01*
X183482745Y-122569923D01*
X183345712Y-122827646D01*
X183161228Y-123053845D01*
X182936327Y-123239901D01*
X182679566Y-123378731D01*
X182400730Y-123465045D01*
X182087187Y-123498000D01*
X169427000Y-123498000D01*
X169427000Y-121627000D01*
X178200000Y-121627000D01*
X178224776Y-121624560D01*
X178248601Y-121617333D01*
X178270557Y-121605597D01*
X178289803Y-121589803D01*
X178305597Y-121570557D01*
X178317333Y-121548601D01*
X178324560Y-121524776D01*
X178327000Y-121500000D01*
X178327000Y-117227000D01*
X183598001Y-117227000D01*
X183598000Y-121975449D01*
X183598000Y-121975449D01*
G37*
X183598000Y-121975449D02*
X183567109Y-122290494D01*
X183482745Y-122569923D01*
X183345712Y-122827646D01*
X183161228Y-123053845D01*
X182936327Y-123239901D01*
X182679566Y-123378731D01*
X182400730Y-123465045D01*
X182087187Y-123498000D01*
X169427000Y-123498000D01*
X169427000Y-121627000D01*
X178200000Y-121627000D01*
X178224776Y-121624560D01*
X178248601Y-121617333D01*
X178270557Y-121605597D01*
X178289803Y-121589803D01*
X178305597Y-121570557D01*
X178317333Y-121548601D01*
X178324560Y-121524776D01*
X178327000Y-121500000D01*
X178327000Y-117227000D01*
X183598001Y-117227000D01*
X183598000Y-121975449D01*
M02*
