G04 #@! TF.GenerationSoftware,KiCad,Pcbnew,(5.1.2)-2*
G04 #@! TF.CreationDate,2020-02-18T23:36:01-05:00*
G04 #@! TF.ProjectId,_autosave-AddressableLED,5f617574-6f73-4617-9665-2d4164647265,rev?*
G04 #@! TF.SameCoordinates,Original*
G04 #@! TF.FileFunction,Legend,Bot*
G04 #@! TF.FilePolarity,Positive*
%FSLAX46Y46*%
G04 Gerber Fmt 4.6, Leading zero omitted, Abs format (unit mm)*
G04 Created by KiCad (PCBNEW (5.1.2)-2) date 2020-02-18 23:36:01*
%MOMM*%
%LPD*%
G04 APERTURE LIST*
%ADD10C,0.150000*%
%ADD11C,0.120000*%
G04 APERTURE END LIST*
D10*
X169669047Y-100252380D02*
X169669047Y-100966666D01*
X169716666Y-101109523D01*
X169811904Y-101204761D01*
X169954761Y-101252380D01*
X170050000Y-101252380D01*
X168716666Y-101252380D02*
X169192857Y-101252380D01*
X169192857Y-100252380D01*
X167811904Y-101157142D02*
X167859523Y-101204761D01*
X168002380Y-101252380D01*
X168097619Y-101252380D01*
X168240476Y-101204761D01*
X168335714Y-101109523D01*
X168383333Y-101014285D01*
X168430952Y-100823809D01*
X168430952Y-100680952D01*
X168383333Y-100490476D01*
X168335714Y-100395238D01*
X168240476Y-100300000D01*
X168097619Y-100252380D01*
X168002380Y-100252380D01*
X167859523Y-100300000D01*
X167811904Y-100347619D01*
X167097619Y-100252380D02*
X167097619Y-100966666D01*
X167145238Y-101109523D01*
X167240476Y-101204761D01*
X167383333Y-101252380D01*
X167478571Y-101252380D01*
X166145238Y-101252380D02*
X166621428Y-101252380D01*
X166621428Y-100252380D01*
X165240476Y-101157142D02*
X165288095Y-101204761D01*
X165430952Y-101252380D01*
X165526190Y-101252380D01*
X165669047Y-101204761D01*
X165764285Y-101109523D01*
X165811904Y-101014285D01*
X165859523Y-100823809D01*
X165859523Y-100680952D01*
X165811904Y-100490476D01*
X165764285Y-100395238D01*
X165669047Y-100300000D01*
X165526190Y-100252380D01*
X165430952Y-100252380D01*
X165288095Y-100300000D01*
X165240476Y-100347619D01*
X164526190Y-100252380D02*
X164526190Y-100966666D01*
X164573809Y-101109523D01*
X164669047Y-101204761D01*
X164811904Y-101252380D01*
X164907142Y-101252380D01*
X163573809Y-101252380D02*
X164050000Y-101252380D01*
X164050000Y-100252380D01*
X162669047Y-101157142D02*
X162716666Y-101204761D01*
X162859523Y-101252380D01*
X162954761Y-101252380D01*
X163097619Y-101204761D01*
X163192857Y-101109523D01*
X163240476Y-101014285D01*
X163288095Y-100823809D01*
X163288095Y-100680952D01*
X163240476Y-100490476D01*
X163192857Y-100395238D01*
X163097619Y-100300000D01*
X162954761Y-100252380D01*
X162859523Y-100252380D01*
X162716666Y-100300000D01*
X162669047Y-100347619D01*
X161954761Y-100252380D02*
X161954761Y-100966666D01*
X162002380Y-101109523D01*
X162097619Y-101204761D01*
X162240476Y-101252380D01*
X162335714Y-101252380D01*
X161002380Y-101252380D02*
X161478571Y-101252380D01*
X161478571Y-100252380D01*
X160097619Y-101157142D02*
X160145238Y-101204761D01*
X160288095Y-101252380D01*
X160383333Y-101252380D01*
X160526190Y-101204761D01*
X160621428Y-101109523D01*
X160669047Y-101014285D01*
X160716666Y-100823809D01*
X160716666Y-100680952D01*
X160669047Y-100490476D01*
X160621428Y-100395238D01*
X160526190Y-100300000D01*
X160383333Y-100252380D01*
X160288095Y-100252380D01*
X160145238Y-100300000D01*
X160097619Y-100347619D01*
X123969047Y-109977380D02*
X123969047Y-108977380D01*
X123969047Y-109453571D02*
X123397619Y-109453571D01*
X123397619Y-109977380D02*
X123397619Y-108977380D01*
X122921428Y-109977380D02*
X122921428Y-109310714D01*
X122921428Y-108977380D02*
X122969047Y-109025000D01*
X122921428Y-109072619D01*
X122873809Y-109025000D01*
X122921428Y-108977380D01*
X122921428Y-109072619D01*
X122016666Y-109310714D02*
X122016666Y-110120238D01*
X122064285Y-110215476D01*
X122111904Y-110263095D01*
X122207142Y-110310714D01*
X122350000Y-110310714D01*
X122445238Y-110263095D01*
X122016666Y-109929761D02*
X122111904Y-109977380D01*
X122302380Y-109977380D01*
X122397619Y-109929761D01*
X122445238Y-109882142D01*
X122492857Y-109786904D01*
X122492857Y-109501190D01*
X122445238Y-109405952D01*
X122397619Y-109358333D01*
X122302380Y-109310714D01*
X122111904Y-109310714D01*
X122016666Y-109358333D01*
X121540476Y-109977380D02*
X121540476Y-108977380D01*
X121111904Y-109977380D02*
X121111904Y-109453571D01*
X121159523Y-109358333D01*
X121254761Y-109310714D01*
X121397619Y-109310714D01*
X121492857Y-109358333D01*
X121540476Y-109405952D01*
X120635714Y-109596428D02*
X119873809Y-109596428D01*
X119397619Y-109977380D02*
X119397619Y-108977380D01*
X119016666Y-108977380D01*
X118921428Y-109025000D01*
X118873809Y-109072619D01*
X118826190Y-109167857D01*
X118826190Y-109310714D01*
X118873809Y-109405952D01*
X118921428Y-109453571D01*
X119016666Y-109501190D01*
X119397619Y-109501190D01*
X118254761Y-109977380D02*
X118350000Y-109929761D01*
X118397619Y-109882142D01*
X118445238Y-109786904D01*
X118445238Y-109501190D01*
X118397619Y-109405952D01*
X118350000Y-109358333D01*
X118254761Y-109310714D01*
X118111904Y-109310714D01*
X118016666Y-109358333D01*
X117969047Y-109405952D01*
X117921428Y-109501190D01*
X117921428Y-109786904D01*
X117969047Y-109882142D01*
X118016666Y-109929761D01*
X118111904Y-109977380D01*
X118254761Y-109977380D01*
X117588095Y-109310714D02*
X117397619Y-109977380D01*
X117207142Y-109501190D01*
X117016666Y-109977380D01*
X116826190Y-109310714D01*
X116064285Y-109929761D02*
X116159523Y-109977380D01*
X116350000Y-109977380D01*
X116445238Y-109929761D01*
X116492857Y-109834523D01*
X116492857Y-109453571D01*
X116445238Y-109358333D01*
X116350000Y-109310714D01*
X116159523Y-109310714D01*
X116064285Y-109358333D01*
X116016666Y-109453571D01*
X116016666Y-109548809D01*
X116492857Y-109644047D01*
X115588095Y-109977380D02*
X115588095Y-109310714D01*
X115588095Y-109501190D02*
X115540476Y-109405952D01*
X115492857Y-109358333D01*
X115397619Y-109310714D01*
X115302380Y-109310714D01*
X113635714Y-109977380D02*
X113969047Y-109501190D01*
X114207142Y-109977380D02*
X114207142Y-108977380D01*
X113826190Y-108977380D01*
X113730952Y-109025000D01*
X113683333Y-109072619D01*
X113635714Y-109167857D01*
X113635714Y-109310714D01*
X113683333Y-109405952D01*
X113730952Y-109453571D01*
X113826190Y-109501190D01*
X114207142Y-109501190D01*
X112683333Y-109025000D02*
X112778571Y-108977380D01*
X112921428Y-108977380D01*
X113064285Y-109025000D01*
X113159523Y-109120238D01*
X113207142Y-109215476D01*
X113254761Y-109405952D01*
X113254761Y-109548809D01*
X113207142Y-109739285D01*
X113159523Y-109834523D01*
X113064285Y-109929761D01*
X112921428Y-109977380D01*
X112826190Y-109977380D01*
X112683333Y-109929761D01*
X112635714Y-109882142D01*
X112635714Y-109548809D01*
X112826190Y-109548809D01*
X111873809Y-109453571D02*
X111730952Y-109501190D01*
X111683333Y-109548809D01*
X111635714Y-109644047D01*
X111635714Y-109786904D01*
X111683333Y-109882142D01*
X111730952Y-109929761D01*
X111826190Y-109977380D01*
X112207142Y-109977380D01*
X112207142Y-108977380D01*
X111873809Y-108977380D01*
X111778571Y-109025000D01*
X111730952Y-109072619D01*
X111683333Y-109167857D01*
X111683333Y-109263095D01*
X111730952Y-109358333D01*
X111778571Y-109405952D01*
X111873809Y-109453571D01*
X112207142Y-109453571D01*
X110445238Y-109977380D02*
X110445238Y-109310714D01*
X110445238Y-109405952D02*
X110397619Y-109358333D01*
X110302380Y-109310714D01*
X110159523Y-109310714D01*
X110064285Y-109358333D01*
X110016666Y-109453571D01*
X110016666Y-109977380D01*
X110016666Y-109453571D02*
X109969047Y-109358333D01*
X109873809Y-109310714D01*
X109730952Y-109310714D01*
X109635714Y-109358333D01*
X109588095Y-109453571D01*
X109588095Y-109977380D01*
X108969047Y-109977380D02*
X109064285Y-109929761D01*
X109111904Y-109882142D01*
X109159523Y-109786904D01*
X109159523Y-109501190D01*
X109111904Y-109405952D01*
X109064285Y-109358333D01*
X108969047Y-109310714D01*
X108826190Y-109310714D01*
X108730952Y-109358333D01*
X108683333Y-109405952D01*
X108635714Y-109501190D01*
X108635714Y-109786904D01*
X108683333Y-109882142D01*
X108730952Y-109929761D01*
X108826190Y-109977380D01*
X108969047Y-109977380D01*
X107778571Y-109977380D02*
X107778571Y-108977380D01*
X107778571Y-109929761D02*
X107873809Y-109977380D01*
X108064285Y-109977380D01*
X108159523Y-109929761D01*
X108207142Y-109882142D01*
X108254761Y-109786904D01*
X108254761Y-109501190D01*
X108207142Y-109405952D01*
X108159523Y-109358333D01*
X108064285Y-109310714D01*
X107873809Y-109310714D01*
X107778571Y-109358333D01*
X106873809Y-109310714D02*
X106873809Y-109977380D01*
X107302380Y-109310714D02*
X107302380Y-109834523D01*
X107254761Y-109929761D01*
X107159523Y-109977380D01*
X107016666Y-109977380D01*
X106921428Y-109929761D01*
X106873809Y-109882142D01*
X106254761Y-109977380D02*
X106350000Y-109929761D01*
X106397619Y-109834523D01*
X106397619Y-108977380D01*
X105492857Y-109929761D02*
X105588095Y-109977380D01*
X105778571Y-109977380D01*
X105873809Y-109929761D01*
X105921428Y-109834523D01*
X105921428Y-109453571D01*
X105873809Y-109358333D01*
X105778571Y-109310714D01*
X105588095Y-109310714D01*
X105492857Y-109358333D01*
X105445238Y-109453571D01*
X105445238Y-109548809D01*
X105921428Y-109644047D01*
X104254761Y-109596428D02*
X103492857Y-109596428D01*
X101683333Y-109977380D02*
X102016666Y-109501190D01*
X102254761Y-109977380D02*
X102254761Y-108977380D01*
X101873809Y-108977380D01*
X101778571Y-109025000D01*
X101730952Y-109072619D01*
X101683333Y-109167857D01*
X101683333Y-109310714D01*
X101730952Y-109405952D01*
X101778571Y-109453571D01*
X101873809Y-109501190D01*
X102254761Y-109501190D01*
X100873809Y-109929761D02*
X100969047Y-109977380D01*
X101159523Y-109977380D01*
X101254761Y-109929761D01*
X101302380Y-109834523D01*
X101302380Y-109453571D01*
X101254761Y-109358333D01*
X101159523Y-109310714D01*
X100969047Y-109310714D01*
X100873809Y-109358333D01*
X100826190Y-109453571D01*
X100826190Y-109548809D01*
X101302380Y-109644047D01*
X100492857Y-109310714D02*
X100254761Y-109977380D01*
X100016666Y-109310714D01*
X99445238Y-108977380D02*
X99350000Y-108977380D01*
X99254761Y-109025000D01*
X99207142Y-109072619D01*
X99159523Y-109167857D01*
X99111904Y-109358333D01*
X99111904Y-109596428D01*
X99159523Y-109786904D01*
X99207142Y-109882142D01*
X99254761Y-109929761D01*
X99350000Y-109977380D01*
X99445238Y-109977380D01*
X99540476Y-109929761D01*
X99588095Y-109882142D01*
X99635714Y-109786904D01*
X99683333Y-109596428D01*
X99683333Y-109358333D01*
X99635714Y-109167857D01*
X99588095Y-109072619D01*
X99540476Y-109025000D01*
X99445238Y-108977380D01*
X98683333Y-109882142D02*
X98635714Y-109929761D01*
X98683333Y-109977380D01*
X98730952Y-109929761D01*
X98683333Y-109882142D01*
X98683333Y-109977380D01*
X98302380Y-108977380D02*
X97683333Y-108977380D01*
X98016666Y-109358333D01*
X97873809Y-109358333D01*
X97778571Y-109405952D01*
X97730952Y-109453571D01*
X97683333Y-109548809D01*
X97683333Y-109786904D01*
X97730952Y-109882142D01*
X97778571Y-109929761D01*
X97873809Y-109977380D01*
X98159523Y-109977380D01*
X98254761Y-109929761D01*
X98302380Y-109882142D01*
X115040476Y-111627380D02*
X115516666Y-111627380D01*
X115516666Y-110627380D01*
X114564285Y-111627380D02*
X114659523Y-111579761D01*
X114707142Y-111532142D01*
X114754761Y-111436904D01*
X114754761Y-111151190D01*
X114707142Y-111055952D01*
X114659523Y-111008333D01*
X114564285Y-110960714D01*
X114421428Y-110960714D01*
X114326190Y-111008333D01*
X114278571Y-111055952D01*
X114230952Y-111151190D01*
X114230952Y-111436904D01*
X114278571Y-111532142D01*
X114326190Y-111579761D01*
X114421428Y-111627380D01*
X114564285Y-111627380D01*
X113373809Y-110960714D02*
X113373809Y-111770238D01*
X113421428Y-111865476D01*
X113469047Y-111913095D01*
X113564285Y-111960714D01*
X113707142Y-111960714D01*
X113802380Y-111913095D01*
X113373809Y-111579761D02*
X113469047Y-111627380D01*
X113659523Y-111627380D01*
X113754761Y-111579761D01*
X113802380Y-111532142D01*
X113850000Y-111436904D01*
X113850000Y-111151190D01*
X113802380Y-111055952D01*
X113754761Y-111008333D01*
X113659523Y-110960714D01*
X113469047Y-110960714D01*
X113373809Y-111008333D01*
X112469047Y-111627380D02*
X112469047Y-111103571D01*
X112516666Y-111008333D01*
X112611904Y-110960714D01*
X112802380Y-110960714D01*
X112897619Y-111008333D01*
X112469047Y-111579761D02*
X112564285Y-111627380D01*
X112802380Y-111627380D01*
X112897619Y-111579761D01*
X112945238Y-111484523D01*
X112945238Y-111389285D01*
X112897619Y-111294047D01*
X112802380Y-111246428D01*
X112564285Y-111246428D01*
X112469047Y-111198809D01*
X111992857Y-110960714D02*
X111992857Y-111627380D01*
X111992857Y-111055952D02*
X111945238Y-111008333D01*
X111850000Y-110960714D01*
X111707142Y-110960714D01*
X111611904Y-111008333D01*
X111564285Y-111103571D01*
X111564285Y-111627380D01*
X109992857Y-111103571D02*
X109849999Y-111151190D01*
X109802380Y-111198809D01*
X109754761Y-111294047D01*
X109754761Y-111436904D01*
X109802380Y-111532142D01*
X109849999Y-111579761D01*
X109945238Y-111627380D01*
X110326190Y-111627380D01*
X110326190Y-110627380D01*
X109992857Y-110627380D01*
X109897619Y-110675000D01*
X109849999Y-110722619D01*
X109802380Y-110817857D01*
X109802380Y-110913095D01*
X109849999Y-111008333D01*
X109897619Y-111055952D01*
X109992857Y-111103571D01*
X110326190Y-111103571D01*
X109183333Y-111627380D02*
X109278571Y-111579761D01*
X109326190Y-111484523D01*
X109326190Y-110627380D01*
X108421428Y-111579761D02*
X108516666Y-111627380D01*
X108707142Y-111627380D01*
X108802380Y-111579761D01*
X108849999Y-111484523D01*
X108849999Y-111103571D01*
X108802380Y-111008333D01*
X108707142Y-110960714D01*
X108516666Y-110960714D01*
X108421428Y-111008333D01*
X108373809Y-111103571D01*
X108373809Y-111198809D01*
X108849999Y-111294047D01*
X107516666Y-111627380D02*
X107516666Y-111103571D01*
X107564285Y-111008333D01*
X107659523Y-110960714D01*
X107849999Y-110960714D01*
X107945238Y-111008333D01*
X107516666Y-111579761D02*
X107611904Y-111627380D01*
X107849999Y-111627380D01*
X107945238Y-111579761D01*
X107992857Y-111484523D01*
X107992857Y-111389285D01*
X107945238Y-111294047D01*
X107849999Y-111246428D01*
X107611904Y-111246428D01*
X107516666Y-111198809D01*
X107040476Y-111627380D02*
X107040476Y-110960714D01*
X107040476Y-111055952D02*
X106992857Y-111008333D01*
X106897619Y-110960714D01*
X106754761Y-110960714D01*
X106659523Y-111008333D01*
X106611904Y-111103571D01*
X106611904Y-111627380D01*
X106611904Y-111103571D02*
X106564285Y-111008333D01*
X106469047Y-110960714D01*
X106326190Y-110960714D01*
X106230952Y-111008333D01*
X106183333Y-111103571D01*
X106183333Y-111627380D01*
D11*
X147310000Y-110037221D02*
X147310000Y-110362779D01*
X146290000Y-110037221D02*
X146290000Y-110362779D01*
X148160000Y-105320000D02*
X146700000Y-105320000D01*
X148160000Y-108480000D02*
X146000000Y-108480000D01*
X148160000Y-108480000D02*
X148160000Y-107550000D01*
X148160000Y-105320000D02*
X148160000Y-106250000D01*
X138437221Y-116290000D02*
X138762779Y-116290000D01*
X138437221Y-117310000D02*
X138762779Y-117310000D01*
X130462779Y-105510000D02*
X130137221Y-105510000D01*
X130462779Y-104490000D02*
X130137221Y-104490000D01*
X130575279Y-116510000D02*
X130249721Y-116510000D01*
X130575279Y-115490000D02*
X130249721Y-115490000D01*
X133312779Y-110910000D02*
X132987221Y-110910000D01*
X133312779Y-109890000D02*
X132987221Y-109890000D01*
X133312779Y-112510000D02*
X132987221Y-112510000D01*
X133312779Y-111490000D02*
X132987221Y-111490000D01*
X135437221Y-116290000D02*
X135762779Y-116290000D01*
X135437221Y-117310000D02*
X135762779Y-117310000D01*
X127325000Y-105475000D02*
X127325000Y-115275000D01*
X131825000Y-105475000D02*
X127325000Y-105475000D01*
X131825000Y-115275000D02*
X131825000Y-105475000D01*
X127325000Y-115275000D02*
X131825000Y-115275000D01*
D10*
X136375000Y-114068000D02*
X134950000Y-114068000D01*
X143625000Y-114293000D02*
X143300000Y-114293000D01*
X143625000Y-107043000D02*
X143300000Y-107043000D01*
X136375000Y-107043000D02*
X136700000Y-107043000D01*
X136375000Y-114293000D02*
X136700000Y-114293000D01*
X136375000Y-107043000D02*
X136375000Y-107368000D01*
X143625000Y-107043000D02*
X143625000Y-107368000D01*
X143625000Y-114293000D02*
X143625000Y-113968000D01*
X136375000Y-114293000D02*
X136375000Y-114068000D01*
D11*
X151130000Y-111160000D02*
X151130000Y-109700000D01*
X147970000Y-111160000D02*
X147970000Y-109000000D01*
X147970000Y-111160000D02*
X148900000Y-111160000D01*
X151130000Y-111160000D02*
X150200000Y-111160000D01*
X150487221Y-104790000D02*
X150812779Y-104790000D01*
X150487221Y-105810000D02*
X150812779Y-105810000D01*
X152610000Y-110037221D02*
X152610000Y-110362779D01*
X151590000Y-110037221D02*
X151590000Y-110362779D01*
D10*
X147252380Y-112657142D02*
X146776190Y-112323809D01*
X147252380Y-112085714D02*
X146252380Y-112085714D01*
X146252380Y-112466666D01*
X146300000Y-112561904D01*
X146347619Y-112609523D01*
X146442857Y-112657142D01*
X146585714Y-112657142D01*
X146680952Y-112609523D01*
X146728571Y-112561904D01*
X146776190Y-112466666D01*
X146776190Y-112085714D01*
X147252380Y-113609523D02*
X147252380Y-113038095D01*
X147252380Y-113323809D02*
X146252380Y-113323809D01*
X146395238Y-113228571D01*
X146490476Y-113133333D01*
X146538095Y-113038095D01*
X146252380Y-114228571D02*
X146252380Y-114323809D01*
X146300000Y-114419047D01*
X146347619Y-114466666D01*
X146442857Y-114514285D01*
X146633333Y-114561904D01*
X146871428Y-114561904D01*
X147061904Y-114514285D01*
X147157142Y-114466666D01*
X147204761Y-114419047D01*
X147252380Y-114323809D01*
X147252380Y-114228571D01*
X147204761Y-114133333D01*
X147157142Y-114085714D01*
X147061904Y-114038095D01*
X146871428Y-113990476D01*
X146633333Y-113990476D01*
X146442857Y-114038095D01*
X146347619Y-114085714D01*
X146300000Y-114133333D01*
X146252380Y-114228571D01*
X147395238Y-104947619D02*
X147490476Y-104900000D01*
X147585714Y-104804761D01*
X147728571Y-104661904D01*
X147823809Y-104614285D01*
X147919047Y-104614285D01*
X147871428Y-104852380D02*
X147966666Y-104804761D01*
X148061904Y-104709523D01*
X148109523Y-104519047D01*
X148109523Y-104185714D01*
X148061904Y-103995238D01*
X147966666Y-103900000D01*
X147871428Y-103852380D01*
X147680952Y-103852380D01*
X147585714Y-103900000D01*
X147490476Y-103995238D01*
X147442857Y-104185714D01*
X147442857Y-104519047D01*
X147490476Y-104709523D01*
X147585714Y-104804761D01*
X147680952Y-104852380D01*
X147871428Y-104852380D01*
X147109523Y-103852380D02*
X146442857Y-103852380D01*
X146871428Y-104852380D01*
X138766666Y-118682380D02*
X139100000Y-118206190D01*
X139338095Y-118682380D02*
X139338095Y-117682380D01*
X138957142Y-117682380D01*
X138861904Y-117730000D01*
X138814285Y-117777619D01*
X138766666Y-117872857D01*
X138766666Y-118015714D01*
X138814285Y-118110952D01*
X138861904Y-118158571D01*
X138957142Y-118206190D01*
X139338095Y-118206190D01*
X138290476Y-118682380D02*
X138100000Y-118682380D01*
X138004761Y-118634761D01*
X137957142Y-118587142D01*
X137861904Y-118444285D01*
X137814285Y-118253809D01*
X137814285Y-117872857D01*
X137861904Y-117777619D01*
X137909523Y-117730000D01*
X138004761Y-117682380D01*
X138195238Y-117682380D01*
X138290476Y-117730000D01*
X138338095Y-117777619D01*
X138385714Y-117872857D01*
X138385714Y-118110952D01*
X138338095Y-118206190D01*
X138290476Y-118253809D01*
X138195238Y-118301428D01*
X138004761Y-118301428D01*
X137909523Y-118253809D01*
X137861904Y-118206190D01*
X137814285Y-118110952D01*
X130466666Y-103927142D02*
X130514285Y-103974761D01*
X130657142Y-104022380D01*
X130752380Y-104022380D01*
X130895238Y-103974761D01*
X130990476Y-103879523D01*
X131038095Y-103784285D01*
X131085714Y-103593809D01*
X131085714Y-103450952D01*
X131038095Y-103260476D01*
X130990476Y-103165238D01*
X130895238Y-103070000D01*
X130752380Y-103022380D01*
X130657142Y-103022380D01*
X130514285Y-103070000D01*
X130466666Y-103117619D01*
X130133333Y-103022380D02*
X129466666Y-103022380D01*
X129895238Y-104022380D01*
X127916666Y-116507142D02*
X127964285Y-116554761D01*
X128107142Y-116602380D01*
X128202380Y-116602380D01*
X128345238Y-116554761D01*
X128440476Y-116459523D01*
X128488095Y-116364285D01*
X128535714Y-116173809D01*
X128535714Y-116030952D01*
X128488095Y-115840476D01*
X128440476Y-115745238D01*
X128345238Y-115650000D01*
X128202380Y-115602380D01*
X128107142Y-115602380D01*
X127964285Y-115650000D01*
X127916666Y-115697619D01*
X127059523Y-115602380D02*
X127250000Y-115602380D01*
X127345238Y-115650000D01*
X127392857Y-115697619D01*
X127488095Y-115840476D01*
X127535714Y-116030952D01*
X127535714Y-116411904D01*
X127488095Y-116507142D01*
X127440476Y-116554761D01*
X127345238Y-116602380D01*
X127154761Y-116602380D01*
X127059523Y-116554761D01*
X127011904Y-116507142D01*
X126964285Y-116411904D01*
X126964285Y-116173809D01*
X127011904Y-116078571D01*
X127059523Y-116030952D01*
X127154761Y-115983333D01*
X127345238Y-115983333D01*
X127440476Y-116030952D01*
X127488095Y-116078571D01*
X127535714Y-116173809D01*
X133316666Y-109327142D02*
X133364285Y-109374761D01*
X133507142Y-109422380D01*
X133602380Y-109422380D01*
X133745238Y-109374761D01*
X133840476Y-109279523D01*
X133888095Y-109184285D01*
X133935714Y-108993809D01*
X133935714Y-108850952D01*
X133888095Y-108660476D01*
X133840476Y-108565238D01*
X133745238Y-108470000D01*
X133602380Y-108422380D01*
X133507142Y-108422380D01*
X133364285Y-108470000D01*
X133316666Y-108517619D01*
X132411904Y-108422380D02*
X132888095Y-108422380D01*
X132935714Y-108898571D01*
X132888095Y-108850952D01*
X132792857Y-108803333D01*
X132554761Y-108803333D01*
X132459523Y-108850952D01*
X132411904Y-108898571D01*
X132364285Y-108993809D01*
X132364285Y-109231904D01*
X132411904Y-109327142D01*
X132459523Y-109374761D01*
X132554761Y-109422380D01*
X132792857Y-109422380D01*
X132888095Y-109374761D01*
X132935714Y-109327142D01*
X133366666Y-113957142D02*
X133414285Y-114004761D01*
X133557142Y-114052380D01*
X133652380Y-114052380D01*
X133795238Y-114004761D01*
X133890476Y-113909523D01*
X133938095Y-113814285D01*
X133985714Y-113623809D01*
X133985714Y-113480952D01*
X133938095Y-113290476D01*
X133890476Y-113195238D01*
X133795238Y-113100000D01*
X133652380Y-113052380D01*
X133557142Y-113052380D01*
X133414285Y-113100000D01*
X133366666Y-113147619D01*
X132509523Y-113385714D02*
X132509523Y-114052380D01*
X132747619Y-113004761D02*
X132985714Y-113719047D01*
X132366666Y-113719047D01*
X135766666Y-118587142D02*
X135814285Y-118634761D01*
X135957142Y-118682380D01*
X136052380Y-118682380D01*
X136195238Y-118634761D01*
X136290476Y-118539523D01*
X136338095Y-118444285D01*
X136385714Y-118253809D01*
X136385714Y-118110952D01*
X136338095Y-117920476D01*
X136290476Y-117825238D01*
X136195238Y-117730000D01*
X136052380Y-117682380D01*
X135957142Y-117682380D01*
X135814285Y-117730000D01*
X135766666Y-117777619D01*
X135433333Y-117682380D02*
X134814285Y-117682380D01*
X135147619Y-118063333D01*
X135004761Y-118063333D01*
X134909523Y-118110952D01*
X134861904Y-118158571D01*
X134814285Y-118253809D01*
X134814285Y-118491904D01*
X134861904Y-118587142D01*
X134909523Y-118634761D01*
X135004761Y-118682380D01*
X135290476Y-118682380D01*
X135385714Y-118634761D01*
X135433333Y-118587142D01*
X126476190Y-113576190D02*
X126476190Y-114052380D01*
X126809523Y-113052380D02*
X126476190Y-113576190D01*
X126142857Y-113052380D01*
X125285714Y-114052380D02*
X125857142Y-114052380D01*
X125571428Y-114052380D02*
X125571428Y-113052380D01*
X125666666Y-113195238D01*
X125761904Y-113290476D01*
X125857142Y-113338095D01*
X140761904Y-103952380D02*
X140761904Y-104761904D01*
X140714285Y-104857142D01*
X140666666Y-104904761D01*
X140571428Y-104952380D01*
X140380952Y-104952380D01*
X140285714Y-104904761D01*
X140238095Y-104857142D01*
X140190476Y-104761904D01*
X140190476Y-103952380D01*
X139190476Y-104952380D02*
X139761904Y-104952380D01*
X139476190Y-104952380D02*
X139476190Y-103952380D01*
X139571428Y-104095238D01*
X139666666Y-104190476D01*
X139761904Y-104238095D01*
X150337304Y-112316180D02*
X150337304Y-113125704D01*
X150289685Y-113220942D01*
X150242066Y-113268561D01*
X150146828Y-113316180D01*
X149956352Y-113316180D01*
X149861114Y-113268561D01*
X149813495Y-113220942D01*
X149765876Y-113125704D01*
X149765876Y-112316180D01*
X148813495Y-112316180D02*
X149289685Y-112316180D01*
X149337304Y-112792371D01*
X149289685Y-112744752D01*
X149194447Y-112697133D01*
X148956352Y-112697133D01*
X148861114Y-112744752D01*
X148813495Y-112792371D01*
X148765876Y-112887609D01*
X148765876Y-113125704D01*
X148813495Y-113220942D01*
X148861114Y-113268561D01*
X148956352Y-113316180D01*
X149194447Y-113316180D01*
X149289685Y-113268561D01*
X149337304Y-113220942D01*
X150816666Y-107087142D02*
X150864285Y-107134761D01*
X151007142Y-107182380D01*
X151102380Y-107182380D01*
X151245238Y-107134761D01*
X151340476Y-107039523D01*
X151388095Y-106944285D01*
X151435714Y-106753809D01*
X151435714Y-106610952D01*
X151388095Y-106420476D01*
X151340476Y-106325238D01*
X151245238Y-106230000D01*
X151102380Y-106182380D01*
X151007142Y-106182380D01*
X150864285Y-106230000D01*
X150816666Y-106277619D01*
X150435714Y-106277619D02*
X150388095Y-106230000D01*
X150292857Y-106182380D01*
X150054761Y-106182380D01*
X149959523Y-106230000D01*
X149911904Y-106277619D01*
X149864285Y-106372857D01*
X149864285Y-106468095D01*
X149911904Y-106610952D01*
X150483333Y-107182380D01*
X149864285Y-107182380D01*
X153841442Y-109957133D02*
X153889061Y-109909514D01*
X153936680Y-109766657D01*
X153936680Y-109671419D01*
X153889061Y-109528561D01*
X153793823Y-109433323D01*
X153698585Y-109385704D01*
X153508109Y-109338085D01*
X153365252Y-109338085D01*
X153174776Y-109385704D01*
X153079538Y-109433323D01*
X152984300Y-109528561D01*
X152936680Y-109671419D01*
X152936680Y-109766657D01*
X152984300Y-109909514D01*
X153031919Y-109957133D01*
X153936680Y-110909514D02*
X153936680Y-110338085D01*
X153936680Y-110623800D02*
X152936680Y-110623800D01*
X153079538Y-110528561D01*
X153174776Y-110433323D01*
X153222395Y-110338085D01*
M02*
