G04 #@! TF.GenerationSoftware,KiCad,Pcbnew,(5.1.2)-2*
G04 #@! TF.CreationDate,2020-02-18T23:36:01-05:00*
G04 #@! TF.ProjectId,_autosave-AddressableLED,5f617574-6f73-4617-9665-2d4164647265,rev?*
G04 #@! TF.SameCoordinates,Original*
G04 #@! TF.FileFunction,Copper,L2,Bot*
G04 #@! TF.FilePolarity,Positive*
%FSLAX46Y46*%
G04 Gerber Fmt 4.6, Leading zero omitted, Abs format (unit mm)*
G04 Created by KiCad (PCBNEW (5.1.2)-2) date 2020-02-18 23:36:01*
%MOMM*%
%LPD*%
G04 APERTURE LIST*
%ADD10C,1.500000*%
%ADD11C,2.500000*%
%ADD12C,0.100000*%
%ADD13C,0.875000*%
%ADD14R,0.900000X0.800000*%
%ADD15O,1.700000X1.700000*%
%ADD16R,1.700000X1.700000*%
%ADD17R,1.200000X3.500000*%
%ADD18R,0.550000X1.600000*%
%ADD19R,1.600000X0.550000*%
%ADD20R,0.800000X0.900000*%
%ADD21C,0.800000*%
%ADD22C,0.450000*%
%ADD23C,0.650000*%
%ADD24C,0.250000*%
%ADD25C,0.254000*%
G04 APERTURE END LIST*
D10*
X188000000Y-108500000D03*
D11*
X186500000Y-105600000D03*
D10*
X188000000Y-111500000D03*
D11*
X186500000Y-114400000D03*
D10*
X92000000Y-111500000D03*
D11*
X93500000Y-114400000D03*
D10*
X92000000Y-108500000D03*
D11*
X93500000Y-105600000D03*
D12*
G36*
X147077691Y-110551053D02*
G01*
X147098926Y-110554203D01*
X147119750Y-110559419D01*
X147139962Y-110566651D01*
X147159368Y-110575830D01*
X147177781Y-110586866D01*
X147195024Y-110599654D01*
X147210930Y-110614070D01*
X147225346Y-110629976D01*
X147238134Y-110647219D01*
X147249170Y-110665632D01*
X147258349Y-110685038D01*
X147265581Y-110705250D01*
X147270797Y-110726074D01*
X147273947Y-110747309D01*
X147275000Y-110768750D01*
X147275000Y-111206250D01*
X147273947Y-111227691D01*
X147270797Y-111248926D01*
X147265581Y-111269750D01*
X147258349Y-111289962D01*
X147249170Y-111309368D01*
X147238134Y-111327781D01*
X147225346Y-111345024D01*
X147210930Y-111360930D01*
X147195024Y-111375346D01*
X147177781Y-111388134D01*
X147159368Y-111399170D01*
X147139962Y-111408349D01*
X147119750Y-111415581D01*
X147098926Y-111420797D01*
X147077691Y-111423947D01*
X147056250Y-111425000D01*
X146543750Y-111425000D01*
X146522309Y-111423947D01*
X146501074Y-111420797D01*
X146480250Y-111415581D01*
X146460038Y-111408349D01*
X146440632Y-111399170D01*
X146422219Y-111388134D01*
X146404976Y-111375346D01*
X146389070Y-111360930D01*
X146374654Y-111345024D01*
X146361866Y-111327781D01*
X146350830Y-111309368D01*
X146341651Y-111289962D01*
X146334419Y-111269750D01*
X146329203Y-111248926D01*
X146326053Y-111227691D01*
X146325000Y-111206250D01*
X146325000Y-110768750D01*
X146326053Y-110747309D01*
X146329203Y-110726074D01*
X146334419Y-110705250D01*
X146341651Y-110685038D01*
X146350830Y-110665632D01*
X146361866Y-110647219D01*
X146374654Y-110629976D01*
X146389070Y-110614070D01*
X146404976Y-110599654D01*
X146422219Y-110586866D01*
X146440632Y-110575830D01*
X146460038Y-110566651D01*
X146480250Y-110559419D01*
X146501074Y-110554203D01*
X146522309Y-110551053D01*
X146543750Y-110550000D01*
X147056250Y-110550000D01*
X147077691Y-110551053D01*
X147077691Y-110551053D01*
G37*
D13*
X146800000Y-110987500D03*
D12*
G36*
X147077691Y-108976053D02*
G01*
X147098926Y-108979203D01*
X147119750Y-108984419D01*
X147139962Y-108991651D01*
X147159368Y-109000830D01*
X147177781Y-109011866D01*
X147195024Y-109024654D01*
X147210930Y-109039070D01*
X147225346Y-109054976D01*
X147238134Y-109072219D01*
X147249170Y-109090632D01*
X147258349Y-109110038D01*
X147265581Y-109130250D01*
X147270797Y-109151074D01*
X147273947Y-109172309D01*
X147275000Y-109193750D01*
X147275000Y-109631250D01*
X147273947Y-109652691D01*
X147270797Y-109673926D01*
X147265581Y-109694750D01*
X147258349Y-109714962D01*
X147249170Y-109734368D01*
X147238134Y-109752781D01*
X147225346Y-109770024D01*
X147210930Y-109785930D01*
X147195024Y-109800346D01*
X147177781Y-109813134D01*
X147159368Y-109824170D01*
X147139962Y-109833349D01*
X147119750Y-109840581D01*
X147098926Y-109845797D01*
X147077691Y-109848947D01*
X147056250Y-109850000D01*
X146543750Y-109850000D01*
X146522309Y-109848947D01*
X146501074Y-109845797D01*
X146480250Y-109840581D01*
X146460038Y-109833349D01*
X146440632Y-109824170D01*
X146422219Y-109813134D01*
X146404976Y-109800346D01*
X146389070Y-109785930D01*
X146374654Y-109770024D01*
X146361866Y-109752781D01*
X146350830Y-109734368D01*
X146341651Y-109714962D01*
X146334419Y-109694750D01*
X146329203Y-109673926D01*
X146326053Y-109652691D01*
X146325000Y-109631250D01*
X146325000Y-109193750D01*
X146326053Y-109172309D01*
X146329203Y-109151074D01*
X146334419Y-109130250D01*
X146341651Y-109110038D01*
X146350830Y-109090632D01*
X146361866Y-109072219D01*
X146374654Y-109054976D01*
X146389070Y-109039070D01*
X146404976Y-109024654D01*
X146422219Y-109011866D01*
X146440632Y-109000830D01*
X146460038Y-108991651D01*
X146480250Y-108984419D01*
X146501074Y-108979203D01*
X146522309Y-108976053D01*
X146543750Y-108975000D01*
X147056250Y-108975000D01*
X147077691Y-108976053D01*
X147077691Y-108976053D01*
G37*
D13*
X146800000Y-109412500D03*
D14*
X148400000Y-106900000D03*
X146400000Y-105950000D03*
X146400000Y-107850000D03*
D15*
X145110000Y-101900000D03*
X142570000Y-101900000D03*
X140030000Y-101900000D03*
X137490000Y-101900000D03*
D16*
X134950000Y-101900000D03*
D12*
G36*
X139627691Y-116326053D02*
G01*
X139648926Y-116329203D01*
X139669750Y-116334419D01*
X139689962Y-116341651D01*
X139709368Y-116350830D01*
X139727781Y-116361866D01*
X139745024Y-116374654D01*
X139760930Y-116389070D01*
X139775346Y-116404976D01*
X139788134Y-116422219D01*
X139799170Y-116440632D01*
X139808349Y-116460038D01*
X139815581Y-116480250D01*
X139820797Y-116501074D01*
X139823947Y-116522309D01*
X139825000Y-116543750D01*
X139825000Y-117056250D01*
X139823947Y-117077691D01*
X139820797Y-117098926D01*
X139815581Y-117119750D01*
X139808349Y-117139962D01*
X139799170Y-117159368D01*
X139788134Y-117177781D01*
X139775346Y-117195024D01*
X139760930Y-117210930D01*
X139745024Y-117225346D01*
X139727781Y-117238134D01*
X139709368Y-117249170D01*
X139689962Y-117258349D01*
X139669750Y-117265581D01*
X139648926Y-117270797D01*
X139627691Y-117273947D01*
X139606250Y-117275000D01*
X139168750Y-117275000D01*
X139147309Y-117273947D01*
X139126074Y-117270797D01*
X139105250Y-117265581D01*
X139085038Y-117258349D01*
X139065632Y-117249170D01*
X139047219Y-117238134D01*
X139029976Y-117225346D01*
X139014070Y-117210930D01*
X138999654Y-117195024D01*
X138986866Y-117177781D01*
X138975830Y-117159368D01*
X138966651Y-117139962D01*
X138959419Y-117119750D01*
X138954203Y-117098926D01*
X138951053Y-117077691D01*
X138950000Y-117056250D01*
X138950000Y-116543750D01*
X138951053Y-116522309D01*
X138954203Y-116501074D01*
X138959419Y-116480250D01*
X138966651Y-116460038D01*
X138975830Y-116440632D01*
X138986866Y-116422219D01*
X138999654Y-116404976D01*
X139014070Y-116389070D01*
X139029976Y-116374654D01*
X139047219Y-116361866D01*
X139065632Y-116350830D01*
X139085038Y-116341651D01*
X139105250Y-116334419D01*
X139126074Y-116329203D01*
X139147309Y-116326053D01*
X139168750Y-116325000D01*
X139606250Y-116325000D01*
X139627691Y-116326053D01*
X139627691Y-116326053D01*
G37*
D13*
X139387500Y-116800000D03*
D12*
G36*
X138052691Y-116326053D02*
G01*
X138073926Y-116329203D01*
X138094750Y-116334419D01*
X138114962Y-116341651D01*
X138134368Y-116350830D01*
X138152781Y-116361866D01*
X138170024Y-116374654D01*
X138185930Y-116389070D01*
X138200346Y-116404976D01*
X138213134Y-116422219D01*
X138224170Y-116440632D01*
X138233349Y-116460038D01*
X138240581Y-116480250D01*
X138245797Y-116501074D01*
X138248947Y-116522309D01*
X138250000Y-116543750D01*
X138250000Y-117056250D01*
X138248947Y-117077691D01*
X138245797Y-117098926D01*
X138240581Y-117119750D01*
X138233349Y-117139962D01*
X138224170Y-117159368D01*
X138213134Y-117177781D01*
X138200346Y-117195024D01*
X138185930Y-117210930D01*
X138170024Y-117225346D01*
X138152781Y-117238134D01*
X138134368Y-117249170D01*
X138114962Y-117258349D01*
X138094750Y-117265581D01*
X138073926Y-117270797D01*
X138052691Y-117273947D01*
X138031250Y-117275000D01*
X137593750Y-117275000D01*
X137572309Y-117273947D01*
X137551074Y-117270797D01*
X137530250Y-117265581D01*
X137510038Y-117258349D01*
X137490632Y-117249170D01*
X137472219Y-117238134D01*
X137454976Y-117225346D01*
X137439070Y-117210930D01*
X137424654Y-117195024D01*
X137411866Y-117177781D01*
X137400830Y-117159368D01*
X137391651Y-117139962D01*
X137384419Y-117119750D01*
X137379203Y-117098926D01*
X137376053Y-117077691D01*
X137375000Y-117056250D01*
X137375000Y-116543750D01*
X137376053Y-116522309D01*
X137379203Y-116501074D01*
X137384419Y-116480250D01*
X137391651Y-116460038D01*
X137400830Y-116440632D01*
X137411866Y-116422219D01*
X137424654Y-116404976D01*
X137439070Y-116389070D01*
X137454976Y-116374654D01*
X137472219Y-116361866D01*
X137490632Y-116350830D01*
X137510038Y-116341651D01*
X137530250Y-116334419D01*
X137551074Y-116329203D01*
X137572309Y-116326053D01*
X137593750Y-116325000D01*
X138031250Y-116325000D01*
X138052691Y-116326053D01*
X138052691Y-116326053D01*
G37*
D13*
X137812500Y-116800000D03*
D12*
G36*
X129752691Y-104526053D02*
G01*
X129773926Y-104529203D01*
X129794750Y-104534419D01*
X129814962Y-104541651D01*
X129834368Y-104550830D01*
X129852781Y-104561866D01*
X129870024Y-104574654D01*
X129885930Y-104589070D01*
X129900346Y-104604976D01*
X129913134Y-104622219D01*
X129924170Y-104640632D01*
X129933349Y-104660038D01*
X129940581Y-104680250D01*
X129945797Y-104701074D01*
X129948947Y-104722309D01*
X129950000Y-104743750D01*
X129950000Y-105256250D01*
X129948947Y-105277691D01*
X129945797Y-105298926D01*
X129940581Y-105319750D01*
X129933349Y-105339962D01*
X129924170Y-105359368D01*
X129913134Y-105377781D01*
X129900346Y-105395024D01*
X129885930Y-105410930D01*
X129870024Y-105425346D01*
X129852781Y-105438134D01*
X129834368Y-105449170D01*
X129814962Y-105458349D01*
X129794750Y-105465581D01*
X129773926Y-105470797D01*
X129752691Y-105473947D01*
X129731250Y-105475000D01*
X129293750Y-105475000D01*
X129272309Y-105473947D01*
X129251074Y-105470797D01*
X129230250Y-105465581D01*
X129210038Y-105458349D01*
X129190632Y-105449170D01*
X129172219Y-105438134D01*
X129154976Y-105425346D01*
X129139070Y-105410930D01*
X129124654Y-105395024D01*
X129111866Y-105377781D01*
X129100830Y-105359368D01*
X129091651Y-105339962D01*
X129084419Y-105319750D01*
X129079203Y-105298926D01*
X129076053Y-105277691D01*
X129075000Y-105256250D01*
X129075000Y-104743750D01*
X129076053Y-104722309D01*
X129079203Y-104701074D01*
X129084419Y-104680250D01*
X129091651Y-104660038D01*
X129100830Y-104640632D01*
X129111866Y-104622219D01*
X129124654Y-104604976D01*
X129139070Y-104589070D01*
X129154976Y-104574654D01*
X129172219Y-104561866D01*
X129190632Y-104550830D01*
X129210038Y-104541651D01*
X129230250Y-104534419D01*
X129251074Y-104529203D01*
X129272309Y-104526053D01*
X129293750Y-104525000D01*
X129731250Y-104525000D01*
X129752691Y-104526053D01*
X129752691Y-104526053D01*
G37*
D13*
X129512500Y-105000000D03*
D12*
G36*
X131327691Y-104526053D02*
G01*
X131348926Y-104529203D01*
X131369750Y-104534419D01*
X131389962Y-104541651D01*
X131409368Y-104550830D01*
X131427781Y-104561866D01*
X131445024Y-104574654D01*
X131460930Y-104589070D01*
X131475346Y-104604976D01*
X131488134Y-104622219D01*
X131499170Y-104640632D01*
X131508349Y-104660038D01*
X131515581Y-104680250D01*
X131520797Y-104701074D01*
X131523947Y-104722309D01*
X131525000Y-104743750D01*
X131525000Y-105256250D01*
X131523947Y-105277691D01*
X131520797Y-105298926D01*
X131515581Y-105319750D01*
X131508349Y-105339962D01*
X131499170Y-105359368D01*
X131488134Y-105377781D01*
X131475346Y-105395024D01*
X131460930Y-105410930D01*
X131445024Y-105425346D01*
X131427781Y-105438134D01*
X131409368Y-105449170D01*
X131389962Y-105458349D01*
X131369750Y-105465581D01*
X131348926Y-105470797D01*
X131327691Y-105473947D01*
X131306250Y-105475000D01*
X130868750Y-105475000D01*
X130847309Y-105473947D01*
X130826074Y-105470797D01*
X130805250Y-105465581D01*
X130785038Y-105458349D01*
X130765632Y-105449170D01*
X130747219Y-105438134D01*
X130729976Y-105425346D01*
X130714070Y-105410930D01*
X130699654Y-105395024D01*
X130686866Y-105377781D01*
X130675830Y-105359368D01*
X130666651Y-105339962D01*
X130659419Y-105319750D01*
X130654203Y-105298926D01*
X130651053Y-105277691D01*
X130650000Y-105256250D01*
X130650000Y-104743750D01*
X130651053Y-104722309D01*
X130654203Y-104701074D01*
X130659419Y-104680250D01*
X130666651Y-104660038D01*
X130675830Y-104640632D01*
X130686866Y-104622219D01*
X130699654Y-104604976D01*
X130714070Y-104589070D01*
X130729976Y-104574654D01*
X130747219Y-104561866D01*
X130765632Y-104550830D01*
X130785038Y-104541651D01*
X130805250Y-104534419D01*
X130826074Y-104529203D01*
X130847309Y-104526053D01*
X130868750Y-104525000D01*
X131306250Y-104525000D01*
X131327691Y-104526053D01*
X131327691Y-104526053D01*
G37*
D13*
X131087500Y-105000000D03*
D12*
G36*
X129865191Y-115526053D02*
G01*
X129886426Y-115529203D01*
X129907250Y-115534419D01*
X129927462Y-115541651D01*
X129946868Y-115550830D01*
X129965281Y-115561866D01*
X129982524Y-115574654D01*
X129998430Y-115589070D01*
X130012846Y-115604976D01*
X130025634Y-115622219D01*
X130036670Y-115640632D01*
X130045849Y-115660038D01*
X130053081Y-115680250D01*
X130058297Y-115701074D01*
X130061447Y-115722309D01*
X130062500Y-115743750D01*
X130062500Y-116256250D01*
X130061447Y-116277691D01*
X130058297Y-116298926D01*
X130053081Y-116319750D01*
X130045849Y-116339962D01*
X130036670Y-116359368D01*
X130025634Y-116377781D01*
X130012846Y-116395024D01*
X129998430Y-116410930D01*
X129982524Y-116425346D01*
X129965281Y-116438134D01*
X129946868Y-116449170D01*
X129927462Y-116458349D01*
X129907250Y-116465581D01*
X129886426Y-116470797D01*
X129865191Y-116473947D01*
X129843750Y-116475000D01*
X129406250Y-116475000D01*
X129384809Y-116473947D01*
X129363574Y-116470797D01*
X129342750Y-116465581D01*
X129322538Y-116458349D01*
X129303132Y-116449170D01*
X129284719Y-116438134D01*
X129267476Y-116425346D01*
X129251570Y-116410930D01*
X129237154Y-116395024D01*
X129224366Y-116377781D01*
X129213330Y-116359368D01*
X129204151Y-116339962D01*
X129196919Y-116319750D01*
X129191703Y-116298926D01*
X129188553Y-116277691D01*
X129187500Y-116256250D01*
X129187500Y-115743750D01*
X129188553Y-115722309D01*
X129191703Y-115701074D01*
X129196919Y-115680250D01*
X129204151Y-115660038D01*
X129213330Y-115640632D01*
X129224366Y-115622219D01*
X129237154Y-115604976D01*
X129251570Y-115589070D01*
X129267476Y-115574654D01*
X129284719Y-115561866D01*
X129303132Y-115550830D01*
X129322538Y-115541651D01*
X129342750Y-115534419D01*
X129363574Y-115529203D01*
X129384809Y-115526053D01*
X129406250Y-115525000D01*
X129843750Y-115525000D01*
X129865191Y-115526053D01*
X129865191Y-115526053D01*
G37*
D13*
X129625000Y-116000000D03*
D12*
G36*
X131440191Y-115526053D02*
G01*
X131461426Y-115529203D01*
X131482250Y-115534419D01*
X131502462Y-115541651D01*
X131521868Y-115550830D01*
X131540281Y-115561866D01*
X131557524Y-115574654D01*
X131573430Y-115589070D01*
X131587846Y-115604976D01*
X131600634Y-115622219D01*
X131611670Y-115640632D01*
X131620849Y-115660038D01*
X131628081Y-115680250D01*
X131633297Y-115701074D01*
X131636447Y-115722309D01*
X131637500Y-115743750D01*
X131637500Y-116256250D01*
X131636447Y-116277691D01*
X131633297Y-116298926D01*
X131628081Y-116319750D01*
X131620849Y-116339962D01*
X131611670Y-116359368D01*
X131600634Y-116377781D01*
X131587846Y-116395024D01*
X131573430Y-116410930D01*
X131557524Y-116425346D01*
X131540281Y-116438134D01*
X131521868Y-116449170D01*
X131502462Y-116458349D01*
X131482250Y-116465581D01*
X131461426Y-116470797D01*
X131440191Y-116473947D01*
X131418750Y-116475000D01*
X130981250Y-116475000D01*
X130959809Y-116473947D01*
X130938574Y-116470797D01*
X130917750Y-116465581D01*
X130897538Y-116458349D01*
X130878132Y-116449170D01*
X130859719Y-116438134D01*
X130842476Y-116425346D01*
X130826570Y-116410930D01*
X130812154Y-116395024D01*
X130799366Y-116377781D01*
X130788330Y-116359368D01*
X130779151Y-116339962D01*
X130771919Y-116319750D01*
X130766703Y-116298926D01*
X130763553Y-116277691D01*
X130762500Y-116256250D01*
X130762500Y-115743750D01*
X130763553Y-115722309D01*
X130766703Y-115701074D01*
X130771919Y-115680250D01*
X130779151Y-115660038D01*
X130788330Y-115640632D01*
X130799366Y-115622219D01*
X130812154Y-115604976D01*
X130826570Y-115589070D01*
X130842476Y-115574654D01*
X130859719Y-115561866D01*
X130878132Y-115550830D01*
X130897538Y-115541651D01*
X130917750Y-115534419D01*
X130938574Y-115529203D01*
X130959809Y-115526053D01*
X130981250Y-115525000D01*
X131418750Y-115525000D01*
X131440191Y-115526053D01*
X131440191Y-115526053D01*
G37*
D13*
X131200000Y-116000000D03*
D12*
G36*
X132602691Y-109926053D02*
G01*
X132623926Y-109929203D01*
X132644750Y-109934419D01*
X132664962Y-109941651D01*
X132684368Y-109950830D01*
X132702781Y-109961866D01*
X132720024Y-109974654D01*
X132735930Y-109989070D01*
X132750346Y-110004976D01*
X132763134Y-110022219D01*
X132774170Y-110040632D01*
X132783349Y-110060038D01*
X132790581Y-110080250D01*
X132795797Y-110101074D01*
X132798947Y-110122309D01*
X132800000Y-110143750D01*
X132800000Y-110656250D01*
X132798947Y-110677691D01*
X132795797Y-110698926D01*
X132790581Y-110719750D01*
X132783349Y-110739962D01*
X132774170Y-110759368D01*
X132763134Y-110777781D01*
X132750346Y-110795024D01*
X132735930Y-110810930D01*
X132720024Y-110825346D01*
X132702781Y-110838134D01*
X132684368Y-110849170D01*
X132664962Y-110858349D01*
X132644750Y-110865581D01*
X132623926Y-110870797D01*
X132602691Y-110873947D01*
X132581250Y-110875000D01*
X132143750Y-110875000D01*
X132122309Y-110873947D01*
X132101074Y-110870797D01*
X132080250Y-110865581D01*
X132060038Y-110858349D01*
X132040632Y-110849170D01*
X132022219Y-110838134D01*
X132004976Y-110825346D01*
X131989070Y-110810930D01*
X131974654Y-110795024D01*
X131961866Y-110777781D01*
X131950830Y-110759368D01*
X131941651Y-110739962D01*
X131934419Y-110719750D01*
X131929203Y-110698926D01*
X131926053Y-110677691D01*
X131925000Y-110656250D01*
X131925000Y-110143750D01*
X131926053Y-110122309D01*
X131929203Y-110101074D01*
X131934419Y-110080250D01*
X131941651Y-110060038D01*
X131950830Y-110040632D01*
X131961866Y-110022219D01*
X131974654Y-110004976D01*
X131989070Y-109989070D01*
X132004976Y-109974654D01*
X132022219Y-109961866D01*
X132040632Y-109950830D01*
X132060038Y-109941651D01*
X132080250Y-109934419D01*
X132101074Y-109929203D01*
X132122309Y-109926053D01*
X132143750Y-109925000D01*
X132581250Y-109925000D01*
X132602691Y-109926053D01*
X132602691Y-109926053D01*
G37*
D13*
X132362500Y-110400000D03*
D12*
G36*
X134177691Y-109926053D02*
G01*
X134198926Y-109929203D01*
X134219750Y-109934419D01*
X134239962Y-109941651D01*
X134259368Y-109950830D01*
X134277781Y-109961866D01*
X134295024Y-109974654D01*
X134310930Y-109989070D01*
X134325346Y-110004976D01*
X134338134Y-110022219D01*
X134349170Y-110040632D01*
X134358349Y-110060038D01*
X134365581Y-110080250D01*
X134370797Y-110101074D01*
X134373947Y-110122309D01*
X134375000Y-110143750D01*
X134375000Y-110656250D01*
X134373947Y-110677691D01*
X134370797Y-110698926D01*
X134365581Y-110719750D01*
X134358349Y-110739962D01*
X134349170Y-110759368D01*
X134338134Y-110777781D01*
X134325346Y-110795024D01*
X134310930Y-110810930D01*
X134295024Y-110825346D01*
X134277781Y-110838134D01*
X134259368Y-110849170D01*
X134239962Y-110858349D01*
X134219750Y-110865581D01*
X134198926Y-110870797D01*
X134177691Y-110873947D01*
X134156250Y-110875000D01*
X133718750Y-110875000D01*
X133697309Y-110873947D01*
X133676074Y-110870797D01*
X133655250Y-110865581D01*
X133635038Y-110858349D01*
X133615632Y-110849170D01*
X133597219Y-110838134D01*
X133579976Y-110825346D01*
X133564070Y-110810930D01*
X133549654Y-110795024D01*
X133536866Y-110777781D01*
X133525830Y-110759368D01*
X133516651Y-110739962D01*
X133509419Y-110719750D01*
X133504203Y-110698926D01*
X133501053Y-110677691D01*
X133500000Y-110656250D01*
X133500000Y-110143750D01*
X133501053Y-110122309D01*
X133504203Y-110101074D01*
X133509419Y-110080250D01*
X133516651Y-110060038D01*
X133525830Y-110040632D01*
X133536866Y-110022219D01*
X133549654Y-110004976D01*
X133564070Y-109989070D01*
X133579976Y-109974654D01*
X133597219Y-109961866D01*
X133615632Y-109950830D01*
X133635038Y-109941651D01*
X133655250Y-109934419D01*
X133676074Y-109929203D01*
X133697309Y-109926053D01*
X133718750Y-109925000D01*
X134156250Y-109925000D01*
X134177691Y-109926053D01*
X134177691Y-109926053D01*
G37*
D13*
X133937500Y-110400000D03*
D12*
G36*
X132602691Y-111526053D02*
G01*
X132623926Y-111529203D01*
X132644750Y-111534419D01*
X132664962Y-111541651D01*
X132684368Y-111550830D01*
X132702781Y-111561866D01*
X132720024Y-111574654D01*
X132735930Y-111589070D01*
X132750346Y-111604976D01*
X132763134Y-111622219D01*
X132774170Y-111640632D01*
X132783349Y-111660038D01*
X132790581Y-111680250D01*
X132795797Y-111701074D01*
X132798947Y-111722309D01*
X132800000Y-111743750D01*
X132800000Y-112256250D01*
X132798947Y-112277691D01*
X132795797Y-112298926D01*
X132790581Y-112319750D01*
X132783349Y-112339962D01*
X132774170Y-112359368D01*
X132763134Y-112377781D01*
X132750346Y-112395024D01*
X132735930Y-112410930D01*
X132720024Y-112425346D01*
X132702781Y-112438134D01*
X132684368Y-112449170D01*
X132664962Y-112458349D01*
X132644750Y-112465581D01*
X132623926Y-112470797D01*
X132602691Y-112473947D01*
X132581250Y-112475000D01*
X132143750Y-112475000D01*
X132122309Y-112473947D01*
X132101074Y-112470797D01*
X132080250Y-112465581D01*
X132060038Y-112458349D01*
X132040632Y-112449170D01*
X132022219Y-112438134D01*
X132004976Y-112425346D01*
X131989070Y-112410930D01*
X131974654Y-112395024D01*
X131961866Y-112377781D01*
X131950830Y-112359368D01*
X131941651Y-112339962D01*
X131934419Y-112319750D01*
X131929203Y-112298926D01*
X131926053Y-112277691D01*
X131925000Y-112256250D01*
X131925000Y-111743750D01*
X131926053Y-111722309D01*
X131929203Y-111701074D01*
X131934419Y-111680250D01*
X131941651Y-111660038D01*
X131950830Y-111640632D01*
X131961866Y-111622219D01*
X131974654Y-111604976D01*
X131989070Y-111589070D01*
X132004976Y-111574654D01*
X132022219Y-111561866D01*
X132040632Y-111550830D01*
X132060038Y-111541651D01*
X132080250Y-111534419D01*
X132101074Y-111529203D01*
X132122309Y-111526053D01*
X132143750Y-111525000D01*
X132581250Y-111525000D01*
X132602691Y-111526053D01*
X132602691Y-111526053D01*
G37*
D13*
X132362500Y-112000000D03*
D12*
G36*
X134177691Y-111526053D02*
G01*
X134198926Y-111529203D01*
X134219750Y-111534419D01*
X134239962Y-111541651D01*
X134259368Y-111550830D01*
X134277781Y-111561866D01*
X134295024Y-111574654D01*
X134310930Y-111589070D01*
X134325346Y-111604976D01*
X134338134Y-111622219D01*
X134349170Y-111640632D01*
X134358349Y-111660038D01*
X134365581Y-111680250D01*
X134370797Y-111701074D01*
X134373947Y-111722309D01*
X134375000Y-111743750D01*
X134375000Y-112256250D01*
X134373947Y-112277691D01*
X134370797Y-112298926D01*
X134365581Y-112319750D01*
X134358349Y-112339962D01*
X134349170Y-112359368D01*
X134338134Y-112377781D01*
X134325346Y-112395024D01*
X134310930Y-112410930D01*
X134295024Y-112425346D01*
X134277781Y-112438134D01*
X134259368Y-112449170D01*
X134239962Y-112458349D01*
X134219750Y-112465581D01*
X134198926Y-112470797D01*
X134177691Y-112473947D01*
X134156250Y-112475000D01*
X133718750Y-112475000D01*
X133697309Y-112473947D01*
X133676074Y-112470797D01*
X133655250Y-112465581D01*
X133635038Y-112458349D01*
X133615632Y-112449170D01*
X133597219Y-112438134D01*
X133579976Y-112425346D01*
X133564070Y-112410930D01*
X133549654Y-112395024D01*
X133536866Y-112377781D01*
X133525830Y-112359368D01*
X133516651Y-112339962D01*
X133509419Y-112319750D01*
X133504203Y-112298926D01*
X133501053Y-112277691D01*
X133500000Y-112256250D01*
X133500000Y-111743750D01*
X133501053Y-111722309D01*
X133504203Y-111701074D01*
X133509419Y-111680250D01*
X133516651Y-111660038D01*
X133525830Y-111640632D01*
X133536866Y-111622219D01*
X133549654Y-111604976D01*
X133564070Y-111589070D01*
X133579976Y-111574654D01*
X133597219Y-111561866D01*
X133615632Y-111550830D01*
X133635038Y-111541651D01*
X133655250Y-111534419D01*
X133676074Y-111529203D01*
X133697309Y-111526053D01*
X133718750Y-111525000D01*
X134156250Y-111525000D01*
X134177691Y-111526053D01*
X134177691Y-111526053D01*
G37*
D13*
X133937500Y-112000000D03*
D12*
G36*
X136627691Y-116326053D02*
G01*
X136648926Y-116329203D01*
X136669750Y-116334419D01*
X136689962Y-116341651D01*
X136709368Y-116350830D01*
X136727781Y-116361866D01*
X136745024Y-116374654D01*
X136760930Y-116389070D01*
X136775346Y-116404976D01*
X136788134Y-116422219D01*
X136799170Y-116440632D01*
X136808349Y-116460038D01*
X136815581Y-116480250D01*
X136820797Y-116501074D01*
X136823947Y-116522309D01*
X136825000Y-116543750D01*
X136825000Y-117056250D01*
X136823947Y-117077691D01*
X136820797Y-117098926D01*
X136815581Y-117119750D01*
X136808349Y-117139962D01*
X136799170Y-117159368D01*
X136788134Y-117177781D01*
X136775346Y-117195024D01*
X136760930Y-117210930D01*
X136745024Y-117225346D01*
X136727781Y-117238134D01*
X136709368Y-117249170D01*
X136689962Y-117258349D01*
X136669750Y-117265581D01*
X136648926Y-117270797D01*
X136627691Y-117273947D01*
X136606250Y-117275000D01*
X136168750Y-117275000D01*
X136147309Y-117273947D01*
X136126074Y-117270797D01*
X136105250Y-117265581D01*
X136085038Y-117258349D01*
X136065632Y-117249170D01*
X136047219Y-117238134D01*
X136029976Y-117225346D01*
X136014070Y-117210930D01*
X135999654Y-117195024D01*
X135986866Y-117177781D01*
X135975830Y-117159368D01*
X135966651Y-117139962D01*
X135959419Y-117119750D01*
X135954203Y-117098926D01*
X135951053Y-117077691D01*
X135950000Y-117056250D01*
X135950000Y-116543750D01*
X135951053Y-116522309D01*
X135954203Y-116501074D01*
X135959419Y-116480250D01*
X135966651Y-116460038D01*
X135975830Y-116440632D01*
X135986866Y-116422219D01*
X135999654Y-116404976D01*
X136014070Y-116389070D01*
X136029976Y-116374654D01*
X136047219Y-116361866D01*
X136065632Y-116350830D01*
X136085038Y-116341651D01*
X136105250Y-116334419D01*
X136126074Y-116329203D01*
X136147309Y-116326053D01*
X136168750Y-116325000D01*
X136606250Y-116325000D01*
X136627691Y-116326053D01*
X136627691Y-116326053D01*
G37*
D13*
X136387500Y-116800000D03*
D12*
G36*
X135052691Y-116326053D02*
G01*
X135073926Y-116329203D01*
X135094750Y-116334419D01*
X135114962Y-116341651D01*
X135134368Y-116350830D01*
X135152781Y-116361866D01*
X135170024Y-116374654D01*
X135185930Y-116389070D01*
X135200346Y-116404976D01*
X135213134Y-116422219D01*
X135224170Y-116440632D01*
X135233349Y-116460038D01*
X135240581Y-116480250D01*
X135245797Y-116501074D01*
X135248947Y-116522309D01*
X135250000Y-116543750D01*
X135250000Y-117056250D01*
X135248947Y-117077691D01*
X135245797Y-117098926D01*
X135240581Y-117119750D01*
X135233349Y-117139962D01*
X135224170Y-117159368D01*
X135213134Y-117177781D01*
X135200346Y-117195024D01*
X135185930Y-117210930D01*
X135170024Y-117225346D01*
X135152781Y-117238134D01*
X135134368Y-117249170D01*
X135114962Y-117258349D01*
X135094750Y-117265581D01*
X135073926Y-117270797D01*
X135052691Y-117273947D01*
X135031250Y-117275000D01*
X134593750Y-117275000D01*
X134572309Y-117273947D01*
X134551074Y-117270797D01*
X134530250Y-117265581D01*
X134510038Y-117258349D01*
X134490632Y-117249170D01*
X134472219Y-117238134D01*
X134454976Y-117225346D01*
X134439070Y-117210930D01*
X134424654Y-117195024D01*
X134411866Y-117177781D01*
X134400830Y-117159368D01*
X134391651Y-117139962D01*
X134384419Y-117119750D01*
X134379203Y-117098926D01*
X134376053Y-117077691D01*
X134375000Y-117056250D01*
X134375000Y-116543750D01*
X134376053Y-116522309D01*
X134379203Y-116501074D01*
X134384419Y-116480250D01*
X134391651Y-116460038D01*
X134400830Y-116440632D01*
X134411866Y-116422219D01*
X134424654Y-116404976D01*
X134439070Y-116389070D01*
X134454976Y-116374654D01*
X134472219Y-116361866D01*
X134490632Y-116350830D01*
X134510038Y-116341651D01*
X134530250Y-116334419D01*
X134551074Y-116329203D01*
X134572309Y-116326053D01*
X134593750Y-116325000D01*
X135031250Y-116325000D01*
X135052691Y-116326053D01*
X135052691Y-116326053D01*
G37*
D13*
X134812500Y-116800000D03*
D17*
X129600000Y-107750000D03*
X129600000Y-113250000D03*
D18*
X137200000Y-114918000D03*
X138000000Y-114918000D03*
X138800000Y-114918000D03*
X139600000Y-114918000D03*
X140400000Y-114918000D03*
X141200000Y-114918000D03*
X142000000Y-114918000D03*
X142800000Y-114918000D03*
D19*
X144250000Y-113468000D03*
X144250000Y-112668000D03*
X144250000Y-111868000D03*
X144250000Y-111068000D03*
X144250000Y-110268000D03*
X144250000Y-109468000D03*
X144250000Y-108668000D03*
X144250000Y-107868000D03*
D18*
X142800000Y-106418000D03*
X142000000Y-106418000D03*
X141200000Y-106418000D03*
X140400000Y-106418000D03*
X139600000Y-106418000D03*
X138800000Y-106418000D03*
X138000000Y-106418000D03*
X137200000Y-106418000D03*
D19*
X135750000Y-107868000D03*
X135750000Y-108668000D03*
X135750000Y-109468000D03*
X135750000Y-110268000D03*
X135750000Y-111068000D03*
X135750000Y-111868000D03*
X135750000Y-112668000D03*
X135750000Y-113468000D03*
D20*
X149550000Y-111400000D03*
X150500000Y-109400000D03*
X148600000Y-109400000D03*
D12*
G36*
X151677691Y-104826053D02*
G01*
X151698926Y-104829203D01*
X151719750Y-104834419D01*
X151739962Y-104841651D01*
X151759368Y-104850830D01*
X151777781Y-104861866D01*
X151795024Y-104874654D01*
X151810930Y-104889070D01*
X151825346Y-104904976D01*
X151838134Y-104922219D01*
X151849170Y-104940632D01*
X151858349Y-104960038D01*
X151865581Y-104980250D01*
X151870797Y-105001074D01*
X151873947Y-105022309D01*
X151875000Y-105043750D01*
X151875000Y-105556250D01*
X151873947Y-105577691D01*
X151870797Y-105598926D01*
X151865581Y-105619750D01*
X151858349Y-105639962D01*
X151849170Y-105659368D01*
X151838134Y-105677781D01*
X151825346Y-105695024D01*
X151810930Y-105710930D01*
X151795024Y-105725346D01*
X151777781Y-105738134D01*
X151759368Y-105749170D01*
X151739962Y-105758349D01*
X151719750Y-105765581D01*
X151698926Y-105770797D01*
X151677691Y-105773947D01*
X151656250Y-105775000D01*
X151218750Y-105775000D01*
X151197309Y-105773947D01*
X151176074Y-105770797D01*
X151155250Y-105765581D01*
X151135038Y-105758349D01*
X151115632Y-105749170D01*
X151097219Y-105738134D01*
X151079976Y-105725346D01*
X151064070Y-105710930D01*
X151049654Y-105695024D01*
X151036866Y-105677781D01*
X151025830Y-105659368D01*
X151016651Y-105639962D01*
X151009419Y-105619750D01*
X151004203Y-105598926D01*
X151001053Y-105577691D01*
X151000000Y-105556250D01*
X151000000Y-105043750D01*
X151001053Y-105022309D01*
X151004203Y-105001074D01*
X151009419Y-104980250D01*
X151016651Y-104960038D01*
X151025830Y-104940632D01*
X151036866Y-104922219D01*
X151049654Y-104904976D01*
X151064070Y-104889070D01*
X151079976Y-104874654D01*
X151097219Y-104861866D01*
X151115632Y-104850830D01*
X151135038Y-104841651D01*
X151155250Y-104834419D01*
X151176074Y-104829203D01*
X151197309Y-104826053D01*
X151218750Y-104825000D01*
X151656250Y-104825000D01*
X151677691Y-104826053D01*
X151677691Y-104826053D01*
G37*
D13*
X151437500Y-105300000D03*
D12*
G36*
X150102691Y-104826053D02*
G01*
X150123926Y-104829203D01*
X150144750Y-104834419D01*
X150164962Y-104841651D01*
X150184368Y-104850830D01*
X150202781Y-104861866D01*
X150220024Y-104874654D01*
X150235930Y-104889070D01*
X150250346Y-104904976D01*
X150263134Y-104922219D01*
X150274170Y-104940632D01*
X150283349Y-104960038D01*
X150290581Y-104980250D01*
X150295797Y-105001074D01*
X150298947Y-105022309D01*
X150300000Y-105043750D01*
X150300000Y-105556250D01*
X150298947Y-105577691D01*
X150295797Y-105598926D01*
X150290581Y-105619750D01*
X150283349Y-105639962D01*
X150274170Y-105659368D01*
X150263134Y-105677781D01*
X150250346Y-105695024D01*
X150235930Y-105710930D01*
X150220024Y-105725346D01*
X150202781Y-105738134D01*
X150184368Y-105749170D01*
X150164962Y-105758349D01*
X150144750Y-105765581D01*
X150123926Y-105770797D01*
X150102691Y-105773947D01*
X150081250Y-105775000D01*
X149643750Y-105775000D01*
X149622309Y-105773947D01*
X149601074Y-105770797D01*
X149580250Y-105765581D01*
X149560038Y-105758349D01*
X149540632Y-105749170D01*
X149522219Y-105738134D01*
X149504976Y-105725346D01*
X149489070Y-105710930D01*
X149474654Y-105695024D01*
X149461866Y-105677781D01*
X149450830Y-105659368D01*
X149441651Y-105639962D01*
X149434419Y-105619750D01*
X149429203Y-105598926D01*
X149426053Y-105577691D01*
X149425000Y-105556250D01*
X149425000Y-105043750D01*
X149426053Y-105022309D01*
X149429203Y-105001074D01*
X149434419Y-104980250D01*
X149441651Y-104960038D01*
X149450830Y-104940632D01*
X149461866Y-104922219D01*
X149474654Y-104904976D01*
X149489070Y-104889070D01*
X149504976Y-104874654D01*
X149522219Y-104861866D01*
X149540632Y-104850830D01*
X149560038Y-104841651D01*
X149580250Y-104834419D01*
X149601074Y-104829203D01*
X149622309Y-104826053D01*
X149643750Y-104825000D01*
X150081250Y-104825000D01*
X150102691Y-104826053D01*
X150102691Y-104826053D01*
G37*
D13*
X149862500Y-105300000D03*
D12*
G36*
X152377691Y-110551053D02*
G01*
X152398926Y-110554203D01*
X152419750Y-110559419D01*
X152439962Y-110566651D01*
X152459368Y-110575830D01*
X152477781Y-110586866D01*
X152495024Y-110599654D01*
X152510930Y-110614070D01*
X152525346Y-110629976D01*
X152538134Y-110647219D01*
X152549170Y-110665632D01*
X152558349Y-110685038D01*
X152565581Y-110705250D01*
X152570797Y-110726074D01*
X152573947Y-110747309D01*
X152575000Y-110768750D01*
X152575000Y-111206250D01*
X152573947Y-111227691D01*
X152570797Y-111248926D01*
X152565581Y-111269750D01*
X152558349Y-111289962D01*
X152549170Y-111309368D01*
X152538134Y-111327781D01*
X152525346Y-111345024D01*
X152510930Y-111360930D01*
X152495024Y-111375346D01*
X152477781Y-111388134D01*
X152459368Y-111399170D01*
X152439962Y-111408349D01*
X152419750Y-111415581D01*
X152398926Y-111420797D01*
X152377691Y-111423947D01*
X152356250Y-111425000D01*
X151843750Y-111425000D01*
X151822309Y-111423947D01*
X151801074Y-111420797D01*
X151780250Y-111415581D01*
X151760038Y-111408349D01*
X151740632Y-111399170D01*
X151722219Y-111388134D01*
X151704976Y-111375346D01*
X151689070Y-111360930D01*
X151674654Y-111345024D01*
X151661866Y-111327781D01*
X151650830Y-111309368D01*
X151641651Y-111289962D01*
X151634419Y-111269750D01*
X151629203Y-111248926D01*
X151626053Y-111227691D01*
X151625000Y-111206250D01*
X151625000Y-110768750D01*
X151626053Y-110747309D01*
X151629203Y-110726074D01*
X151634419Y-110705250D01*
X151641651Y-110685038D01*
X151650830Y-110665632D01*
X151661866Y-110647219D01*
X151674654Y-110629976D01*
X151689070Y-110614070D01*
X151704976Y-110599654D01*
X151722219Y-110586866D01*
X151740632Y-110575830D01*
X151760038Y-110566651D01*
X151780250Y-110559419D01*
X151801074Y-110554203D01*
X151822309Y-110551053D01*
X151843750Y-110550000D01*
X152356250Y-110550000D01*
X152377691Y-110551053D01*
X152377691Y-110551053D01*
G37*
D13*
X152100000Y-110987500D03*
D12*
G36*
X152377691Y-108976053D02*
G01*
X152398926Y-108979203D01*
X152419750Y-108984419D01*
X152439962Y-108991651D01*
X152459368Y-109000830D01*
X152477781Y-109011866D01*
X152495024Y-109024654D01*
X152510930Y-109039070D01*
X152525346Y-109054976D01*
X152538134Y-109072219D01*
X152549170Y-109090632D01*
X152558349Y-109110038D01*
X152565581Y-109130250D01*
X152570797Y-109151074D01*
X152573947Y-109172309D01*
X152575000Y-109193750D01*
X152575000Y-109631250D01*
X152573947Y-109652691D01*
X152570797Y-109673926D01*
X152565581Y-109694750D01*
X152558349Y-109714962D01*
X152549170Y-109734368D01*
X152538134Y-109752781D01*
X152525346Y-109770024D01*
X152510930Y-109785930D01*
X152495024Y-109800346D01*
X152477781Y-109813134D01*
X152459368Y-109824170D01*
X152439962Y-109833349D01*
X152419750Y-109840581D01*
X152398926Y-109845797D01*
X152377691Y-109848947D01*
X152356250Y-109850000D01*
X151843750Y-109850000D01*
X151822309Y-109848947D01*
X151801074Y-109845797D01*
X151780250Y-109840581D01*
X151760038Y-109833349D01*
X151740632Y-109824170D01*
X151722219Y-109813134D01*
X151704976Y-109800346D01*
X151689070Y-109785930D01*
X151674654Y-109770024D01*
X151661866Y-109752781D01*
X151650830Y-109734368D01*
X151641651Y-109714962D01*
X151634419Y-109694750D01*
X151629203Y-109673926D01*
X151626053Y-109652691D01*
X151625000Y-109631250D01*
X151625000Y-109193750D01*
X151626053Y-109172309D01*
X151629203Y-109151074D01*
X151634419Y-109130250D01*
X151641651Y-109110038D01*
X151650830Y-109090632D01*
X151661866Y-109072219D01*
X151674654Y-109054976D01*
X151689070Y-109039070D01*
X151704976Y-109024654D01*
X151722219Y-109011866D01*
X151740632Y-109000830D01*
X151760038Y-108991651D01*
X151780250Y-108984419D01*
X151801074Y-108979203D01*
X151822309Y-108976053D01*
X151843750Y-108975000D01*
X152356250Y-108975000D01*
X152377691Y-108976053D01*
X152377691Y-108976053D01*
G37*
D13*
X152100000Y-109412500D03*
D21*
X116028568Y-116100000D03*
X114671426Y-116100000D03*
X111957142Y-116100000D03*
X117385710Y-116100000D03*
X118742852Y-116100000D03*
X110600000Y-116100000D03*
X120100000Y-116100000D03*
X113314284Y-116100000D03*
X120150000Y-114850000D03*
X114721426Y-112350000D03*
X110650000Y-114850000D03*
X113364284Y-114850000D03*
X118792852Y-113550000D03*
X112007142Y-112350000D03*
X111957142Y-111150000D03*
X114671426Y-111150000D03*
X110600000Y-111150000D03*
X117435710Y-114850000D03*
X116078568Y-113550000D03*
X112007142Y-114850000D03*
X116078568Y-112350000D03*
X110650000Y-112350000D03*
X113364284Y-113550000D03*
X116028568Y-111150000D03*
X113314284Y-111150000D03*
X120150000Y-112350000D03*
X112007142Y-113550000D03*
X118742852Y-111150000D03*
X110650000Y-113550000D03*
X116078568Y-114850000D03*
X117435710Y-112350000D03*
X117385710Y-111150000D03*
X118792852Y-114850000D03*
X120150000Y-113550000D03*
X120100000Y-111150000D03*
X114721426Y-113550000D03*
X118792852Y-112350000D03*
X117435710Y-113550000D03*
X114721426Y-114850000D03*
X113364284Y-112350000D03*
X165978568Y-114850000D03*
X164621426Y-114850000D03*
X161907142Y-114850000D03*
X167335710Y-114850000D03*
X168692852Y-114850000D03*
X160550000Y-114850000D03*
X170050000Y-114850000D03*
X163264284Y-114850000D03*
X165978568Y-113550000D03*
X164621426Y-113550000D03*
X161907142Y-113550000D03*
X167335710Y-113550000D03*
X168692852Y-113550000D03*
X160550000Y-113550000D03*
X170050000Y-113550000D03*
X163264284Y-113550000D03*
X165978568Y-112350000D03*
X164621426Y-112350000D03*
X161907142Y-112350000D03*
X167335710Y-112350000D03*
X168692852Y-112350000D03*
X160550000Y-112350000D03*
X170050000Y-112350000D03*
X163264284Y-112350000D03*
X165928568Y-111150000D03*
X164571426Y-111150000D03*
X161857142Y-111150000D03*
X167285710Y-111150000D03*
X168642852Y-111150000D03*
X160500000Y-111150000D03*
X170000000Y-111150000D03*
X163214284Y-111150000D03*
X163214284Y-116100000D03*
X167285710Y-116100000D03*
X160500000Y-116100000D03*
X161857142Y-116100000D03*
X170000000Y-116100000D03*
X164571426Y-116100000D03*
X165928568Y-116100000D03*
X168642852Y-116100000D03*
X175600000Y-107100000D03*
X178100000Y-113100000D03*
X133550000Y-114650000D03*
X133550000Y-115650000D03*
X132250000Y-105100000D03*
X150550000Y-108300000D03*
X151900000Y-107100000D03*
X153100000Y-107100000D03*
X154200000Y-107100000D03*
X176900000Y-107100000D03*
X178100000Y-107100000D03*
X179200000Y-107100000D03*
X128100000Y-107100000D03*
X104200000Y-107100000D03*
X103100000Y-107100000D03*
X101900000Y-107100000D03*
X127017732Y-107099955D03*
X152200000Y-103350000D03*
X142317997Y-108317999D03*
X102200000Y-101600000D03*
X127200000Y-101600000D03*
X144950000Y-105750000D03*
X177150000Y-103350000D03*
X150600000Y-101600000D03*
X139800000Y-109125010D03*
X125550000Y-103350000D03*
X100550000Y-103350000D03*
X143300000Y-104350000D03*
X175550000Y-101600000D03*
X153122800Y-113100000D03*
X150608371Y-107108371D03*
X128100000Y-113100000D03*
X126017724Y-107102532D03*
X100700000Y-107150000D03*
X102850000Y-113000000D03*
X153750000Y-102475000D03*
X145350000Y-104250000D03*
X141145876Y-108945876D03*
X128800000Y-102550000D03*
X178700000Y-102475000D03*
X103800000Y-102524990D03*
X137374979Y-109600010D03*
X142750000Y-109550000D03*
X137374979Y-111900001D03*
X138000000Y-113500000D03*
X139852197Y-112814545D03*
X140850000Y-118700000D03*
X140850000Y-116800000D03*
X134800000Y-115600000D03*
D22*
X178100000Y-109600000D02*
X175600000Y-107100000D01*
X178100000Y-113100000D02*
X178100000Y-109600000D01*
X144250000Y-111068000D02*
X145568000Y-111068000D01*
X136790002Y-110268000D02*
X135750000Y-110268000D01*
X137590002Y-111068000D02*
X136790002Y-110268000D01*
X144250000Y-111068000D02*
X137590002Y-111068000D01*
X132150000Y-105000000D02*
X132250000Y-105100000D01*
X131087500Y-105000000D02*
X132150000Y-105000000D01*
X149550000Y-110500000D02*
X149550000Y-110650000D01*
X149550000Y-110650000D02*
X149550000Y-111400000D01*
X149550000Y-107000000D02*
X149550000Y-110650000D01*
X151250000Y-105300000D02*
X149550000Y-107000000D01*
X151337500Y-105300000D02*
X151250000Y-105300000D01*
X139149990Y-107649990D02*
X141649988Y-107649990D01*
X141649988Y-107649990D02*
X141917998Y-107918000D01*
X141917998Y-107918000D02*
X142317997Y-108317999D01*
X138800000Y-106418000D02*
X138800000Y-107300000D01*
X138800000Y-107300000D02*
X139149990Y-107649990D01*
X148545982Y-103350000D02*
X177150000Y-103350000D01*
X130000000Y-101600000D02*
X102600000Y-101600000D01*
X138800000Y-106418000D02*
X138800000Y-105168000D01*
X134619232Y-103949978D02*
X132269254Y-101600000D01*
X138800000Y-105168000D02*
X137581978Y-103949978D01*
X132269254Y-101600000D02*
X130050000Y-101600000D01*
X137581978Y-103949978D02*
X134619232Y-103949978D01*
X147550000Y-103350000D02*
X148600000Y-103350000D01*
X145775001Y-105124999D02*
X147550000Y-103350000D01*
X144950000Y-105750000D02*
X145575001Y-105124999D01*
X145575001Y-105124999D02*
X145775001Y-105124999D01*
X138657010Y-109125010D02*
X139234315Y-109125010D01*
X139234315Y-109125010D02*
X139800000Y-109125010D01*
X137200000Y-107668000D02*
X138657010Y-109125010D01*
X137200000Y-106418000D02*
X137200000Y-107668000D01*
X175550000Y-101600000D02*
X148233280Y-101600000D01*
X129922916Y-103350000D02*
X124150000Y-103350000D01*
X132050000Y-103350000D02*
X129650000Y-103350000D01*
X137200000Y-106418000D02*
X135118000Y-106418000D01*
X135118000Y-106418000D02*
X132050000Y-103350000D01*
X153122800Y-113100000D02*
X153122800Y-108822800D01*
X153122800Y-108822800D02*
X152800000Y-108500000D01*
X151008370Y-107508370D02*
X150608371Y-107108371D01*
X152000000Y-108500000D02*
X151008370Y-107508370D01*
X152800000Y-108500000D02*
X152000000Y-108500000D01*
X128100000Y-113100000D02*
X126017724Y-111017724D01*
X126017724Y-111017724D02*
X126017724Y-107668217D01*
X126017724Y-107668217D02*
X126017724Y-107102532D01*
X102850000Y-109750000D02*
X102850000Y-113000000D01*
X100700000Y-107100000D02*
X100700000Y-107600000D01*
X100700000Y-107600000D02*
X102850000Y-109750000D01*
X138000000Y-106418000D02*
X138000000Y-107458002D01*
X138000000Y-107458002D02*
X138841998Y-108300000D01*
X140500000Y-108300000D02*
X140745877Y-108545877D01*
X138841998Y-108300000D02*
X140500000Y-108300000D01*
X140745877Y-108545877D02*
X141145876Y-108945876D01*
X148220992Y-102475000D02*
X178700000Y-102475000D01*
X129250000Y-102475000D02*
X103838892Y-102475000D01*
X124100000Y-103350000D02*
X100550000Y-103350000D01*
X148600000Y-101600000D02*
X147283280Y-101600000D01*
X145683280Y-103200000D02*
X147283280Y-101600000D01*
X144450000Y-103200000D02*
X145683280Y-103200000D01*
X143300000Y-104350000D02*
X144450000Y-103200000D01*
X132200000Y-102475000D02*
X129275000Y-102475000D01*
X132250000Y-102500000D02*
X132200000Y-102500000D01*
X137221991Y-104599989D02*
X134349989Y-104599989D01*
X138000000Y-105377998D02*
X137221991Y-104599989D01*
X134349989Y-104599989D02*
X132250000Y-102500000D01*
X138000000Y-106418000D02*
X138000000Y-105377998D01*
X147345992Y-102475000D02*
X148220992Y-102475000D01*
X145970991Y-103850001D02*
X147345992Y-102475000D01*
X145749999Y-103850001D02*
X145970991Y-103850001D01*
X145350000Y-104250000D02*
X145749999Y-103850001D01*
X134605500Y-111068000D02*
X135750000Y-111068000D01*
X133937500Y-110400000D02*
X134605500Y-111068000D01*
X134950750Y-111068000D02*
X135750000Y-111068000D01*
X134018750Y-112000000D02*
X134524999Y-111493751D01*
X134524999Y-111493751D02*
X134524999Y-111252999D01*
X133937500Y-112000000D02*
X134018750Y-112000000D01*
X134524999Y-111252999D02*
X134609999Y-111167999D01*
X134609999Y-111167999D02*
X134850751Y-111167999D01*
X134850751Y-111167999D02*
X134950750Y-111068000D01*
X142350001Y-109949999D02*
X142750000Y-109550000D01*
X142299991Y-110000009D02*
X142350001Y-109949999D01*
X137774978Y-110000009D02*
X142299991Y-110000009D01*
X137374979Y-109600010D02*
X137774978Y-110000009D01*
X144250000Y-108668000D02*
X143153004Y-108668000D01*
X143153004Y-108668000D02*
X142750000Y-109071004D01*
X142750000Y-109071004D02*
X142750000Y-109550000D01*
X145290002Y-108668000D02*
X144250000Y-108668000D01*
X145475001Y-108483001D02*
X145290002Y-108668000D01*
X145475001Y-106874999D02*
X145475001Y-108483001D01*
X146350000Y-106000000D02*
X145475001Y-106874999D01*
X146400000Y-106000000D02*
X146350000Y-106000000D01*
X135750000Y-111068000D02*
X136668000Y-111068000D01*
X136974980Y-111500002D02*
X137374979Y-111900001D01*
X136974980Y-111374980D02*
X136974980Y-111500002D01*
X136668000Y-111068000D02*
X136974980Y-111374980D01*
X138000000Y-114918000D02*
X138000000Y-113500000D01*
X139452198Y-113214544D02*
X139852197Y-112814545D01*
X138800000Y-114918000D02*
X138800000Y-113866742D01*
X138800000Y-113866742D02*
X139452198Y-113214544D01*
X139600000Y-116587500D02*
X139600000Y-114918000D01*
X139387500Y-116800000D02*
X139600000Y-116587500D01*
D23*
X186939340Y-111500000D02*
X188000000Y-111500000D01*
X186772998Y-111500000D02*
X186939340Y-111500000D01*
X179622978Y-118650020D02*
X186772998Y-111500000D01*
X102547925Y-118650020D02*
X179622978Y-118650020D01*
X92000000Y-111500000D02*
X95397905Y-111500000D01*
X95397905Y-111500000D02*
X102547925Y-118650020D01*
D22*
X140400000Y-116350000D02*
X140850000Y-116800000D01*
X140400000Y-114918000D02*
X140400000Y-116350000D01*
D23*
X102900010Y-117800010D02*
X139914328Y-117800010D01*
X92000000Y-108500000D02*
X93600000Y-108500000D01*
X93600000Y-108500000D02*
X102900010Y-117800010D01*
X178699990Y-117800010D02*
X188000000Y-108500000D01*
X139914328Y-117800010D02*
X139914338Y-117800000D01*
X143200010Y-117800010D02*
X178699990Y-117800010D01*
D22*
X141200000Y-115800000D02*
X143200010Y-117800010D01*
X141200000Y-114918000D02*
X141200000Y-115800000D01*
D24*
X139914328Y-117800010D02*
X143200010Y-117800010D01*
D22*
X129600000Y-105087500D02*
X129512500Y-105000000D01*
X129600000Y-107750000D02*
X129600000Y-105087500D01*
X135632000Y-107750000D02*
X135750000Y-107868000D01*
X129600000Y-107750000D02*
X135632000Y-107750000D01*
X129600000Y-115975000D02*
X129625000Y-116000000D01*
X129600000Y-113250000D02*
X129600000Y-115975000D01*
X134500000Y-108668000D02*
X135750000Y-108668000D01*
X131982000Y-108668000D02*
X134500000Y-108668000D01*
X129600000Y-111050000D02*
X131982000Y-108668000D01*
X129600000Y-113250000D02*
X129600000Y-111050000D01*
X136387500Y-116800000D02*
X137812500Y-116800000D01*
X134812500Y-115612500D02*
X134800000Y-115600000D01*
X134812500Y-116800000D02*
X134812500Y-115612500D01*
X146400000Y-109012500D02*
X146800000Y-109412500D01*
X146400000Y-107900000D02*
X146400000Y-109012500D01*
X146800000Y-108950000D02*
X146800000Y-109412500D01*
X147400000Y-108350000D02*
X146800000Y-108950000D01*
X147400000Y-106100000D02*
X147400000Y-108350000D01*
X149762500Y-105300000D02*
X148200000Y-105300000D01*
X148200000Y-105300000D02*
X147400000Y-106100000D01*
X147012500Y-110987500D02*
X148600000Y-109400000D01*
X146800000Y-110987500D02*
X147012500Y-110987500D01*
X148400000Y-109200000D02*
X148600000Y-109400000D01*
X148400000Y-106950000D02*
X148400000Y-109200000D01*
D25*
G36*
X180236054Y-99785806D02*
G01*
X181454199Y-100008279D01*
X182636800Y-100375487D01*
X183766717Y-100882108D01*
X184827594Y-101520807D01*
X185804048Y-102282324D01*
X186681943Y-103155635D01*
X187238770Y-103861968D01*
X187175874Y-103830567D01*
X186817688Y-103732710D01*
X186447294Y-103706611D01*
X186078925Y-103753275D01*
X185726738Y-103870906D01*
X185491914Y-103996423D01*
X185366000Y-104286395D01*
X186500000Y-105420395D01*
X186514143Y-105406253D01*
X186693748Y-105585858D01*
X186679605Y-105600000D01*
X187813605Y-106734000D01*
X188103577Y-106608086D01*
X188269433Y-106275874D01*
X188367290Y-105917688D01*
X188375123Y-105806521D01*
X188605337Y-106312850D01*
X188978733Y-107493518D01*
X188984877Y-107526192D01*
X188882886Y-107424201D01*
X188656043Y-107272629D01*
X188403989Y-107168225D01*
X188136411Y-107115000D01*
X187863589Y-107115000D01*
X187596011Y-107168225D01*
X187499211Y-107208321D01*
X187508086Y-107203577D01*
X187634000Y-106913605D01*
X186500000Y-105779605D01*
X185366000Y-106913605D01*
X185491914Y-107203577D01*
X185824126Y-107369433D01*
X186182312Y-107467290D01*
X186552706Y-107493389D01*
X186921075Y-107446725D01*
X187245648Y-107338317D01*
X187117114Y-107424201D01*
X186924201Y-107617114D01*
X186772629Y-107843957D01*
X186668225Y-108096011D01*
X186615000Y-108363589D01*
X186615000Y-108527355D01*
X185269355Y-109873000D01*
X178960000Y-109873000D01*
X178960000Y-109642239D01*
X178964160Y-109600000D01*
X178960000Y-109557761D01*
X178960000Y-109557754D01*
X178947556Y-109431411D01*
X178944632Y-109421770D01*
X178925636Y-109359149D01*
X178898381Y-109269300D01*
X178818524Y-109119898D01*
X178743727Y-109028758D01*
X178737984Y-109021760D01*
X178737983Y-109021759D01*
X178711054Y-108988946D01*
X178678241Y-108962017D01*
X176615314Y-106899091D01*
X176595226Y-106798102D01*
X176517205Y-106609744D01*
X176403937Y-106440226D01*
X176259774Y-106296063D01*
X176090256Y-106182795D01*
X175901898Y-106104774D01*
X175701939Y-106065000D01*
X175498061Y-106065000D01*
X175298102Y-106104774D01*
X175109744Y-106182795D01*
X174940226Y-106296063D01*
X174796063Y-106440226D01*
X174682795Y-106609744D01*
X174604774Y-106798102D01*
X174565000Y-106998061D01*
X174565000Y-107201939D01*
X174604774Y-107401898D01*
X174682795Y-107590256D01*
X174796063Y-107759774D01*
X174940226Y-107903937D01*
X175109744Y-108017205D01*
X175298102Y-108095226D01*
X175399091Y-108115314D01*
X177156776Y-109873000D01*
X153982800Y-109873000D01*
X153982800Y-108865038D01*
X153986960Y-108822799D01*
X153982800Y-108780560D01*
X153982800Y-108780554D01*
X153971169Y-108662463D01*
X153970356Y-108654210D01*
X153952548Y-108595506D01*
X153921181Y-108492100D01*
X153841324Y-108342698D01*
X153733854Y-108211746D01*
X153701035Y-108184812D01*
X153437988Y-107921765D01*
X153411054Y-107888946D01*
X153280102Y-107781476D01*
X153130700Y-107701619D01*
X152968589Y-107652444D01*
X152842246Y-107640000D01*
X152842239Y-107640000D01*
X152800000Y-107635840D01*
X152757761Y-107640000D01*
X152356224Y-107640000D01*
X151623685Y-106907462D01*
X151603597Y-106806473D01*
X151525576Y-106618115D01*
X151412308Y-106448597D01*
X151376783Y-106413072D01*
X151656250Y-106413072D01*
X151823408Y-106396608D01*
X151984142Y-106347850D01*
X152132275Y-106268671D01*
X152262115Y-106162115D01*
X152368671Y-106032275D01*
X152447850Y-105884142D01*
X152496608Y-105723408D01*
X152503571Y-105652706D01*
X184606611Y-105652706D01*
X184653275Y-106021075D01*
X184770906Y-106373262D01*
X184896423Y-106608086D01*
X185186395Y-106734000D01*
X186320395Y-105600000D01*
X185186395Y-104466000D01*
X184896423Y-104591914D01*
X184730567Y-104924126D01*
X184632710Y-105282312D01*
X184606611Y-105652706D01*
X152503571Y-105652706D01*
X152513072Y-105556250D01*
X152513072Y-105043750D01*
X152496608Y-104876592D01*
X152447850Y-104715858D01*
X152368671Y-104567725D01*
X152262115Y-104437885D01*
X152197674Y-104385000D01*
X152301939Y-104385000D01*
X152501898Y-104345226D01*
X152690256Y-104267205D01*
X152775870Y-104210000D01*
X176574130Y-104210000D01*
X176659744Y-104267205D01*
X176848102Y-104345226D01*
X177048061Y-104385000D01*
X177251939Y-104385000D01*
X177451898Y-104345226D01*
X177640256Y-104267205D01*
X177809774Y-104153937D01*
X177953937Y-104009774D01*
X178067205Y-103840256D01*
X178145226Y-103651898D01*
X178185000Y-103451939D01*
X178185000Y-103375672D01*
X178209744Y-103392205D01*
X178398102Y-103470226D01*
X178598061Y-103510000D01*
X178801939Y-103510000D01*
X179001898Y-103470226D01*
X179190256Y-103392205D01*
X179359774Y-103278937D01*
X179503937Y-103134774D01*
X179617205Y-102965256D01*
X179695226Y-102776898D01*
X179735000Y-102576939D01*
X179735000Y-102373061D01*
X179695226Y-102173102D01*
X179617205Y-101984744D01*
X179503937Y-101815226D01*
X179359774Y-101671063D01*
X179190256Y-101557795D01*
X179001898Y-101479774D01*
X178801939Y-101440000D01*
X178598061Y-101440000D01*
X178398102Y-101479774D01*
X178209744Y-101557795D01*
X178124130Y-101615000D01*
X176585000Y-101615000D01*
X176585000Y-101498061D01*
X176545226Y-101298102D01*
X176467205Y-101109744D01*
X176353937Y-100940226D01*
X176209774Y-100796063D01*
X176040256Y-100682795D01*
X175851898Y-100604774D01*
X175651939Y-100565000D01*
X175448061Y-100565000D01*
X175248102Y-100604774D01*
X175059744Y-100682795D01*
X174974130Y-100740000D01*
X151175870Y-100740000D01*
X151090256Y-100682795D01*
X150901898Y-100604774D01*
X150701939Y-100565000D01*
X150498061Y-100565000D01*
X150298102Y-100604774D01*
X150109744Y-100682795D01*
X150024130Y-100740000D01*
X147325526Y-100740000D01*
X147283280Y-100735839D01*
X147114690Y-100752444D01*
X146952579Y-100801619D01*
X146900539Y-100829436D01*
X146803178Y-100881476D01*
X146672226Y-100988946D01*
X146645297Y-101021759D01*
X146433308Y-101233748D01*
X146305178Y-101018645D01*
X146110269Y-100802412D01*
X145876920Y-100628359D01*
X145614099Y-100503175D01*
X145466890Y-100458524D01*
X145237000Y-100579845D01*
X145237000Y-101773000D01*
X145257000Y-101773000D01*
X145257000Y-102027000D01*
X145237000Y-102027000D01*
X145237000Y-102047000D01*
X144983000Y-102047000D01*
X144983000Y-102027000D01*
X144963000Y-102027000D01*
X144963000Y-101773000D01*
X144983000Y-101773000D01*
X144983000Y-100579845D01*
X144753110Y-100458524D01*
X144605901Y-100503175D01*
X144343080Y-100628359D01*
X144109731Y-100802412D01*
X143914822Y-101018645D01*
X143845201Y-101135523D01*
X143810706Y-101070986D01*
X143625134Y-100844866D01*
X143399014Y-100659294D01*
X143141034Y-100521401D01*
X142861111Y-100436487D01*
X142642950Y-100415000D01*
X142497050Y-100415000D01*
X142278889Y-100436487D01*
X141998966Y-100521401D01*
X141740986Y-100659294D01*
X141514866Y-100844866D01*
X141329294Y-101070986D01*
X141300000Y-101125791D01*
X141270706Y-101070986D01*
X141085134Y-100844866D01*
X140859014Y-100659294D01*
X140601034Y-100521401D01*
X140321111Y-100436487D01*
X140102950Y-100415000D01*
X139957050Y-100415000D01*
X139738889Y-100436487D01*
X139458966Y-100521401D01*
X139200986Y-100659294D01*
X138974866Y-100844866D01*
X138789294Y-101070986D01*
X138760000Y-101125791D01*
X138730706Y-101070986D01*
X138545134Y-100844866D01*
X138319014Y-100659294D01*
X138061034Y-100521401D01*
X137781111Y-100436487D01*
X137562950Y-100415000D01*
X137417050Y-100415000D01*
X137198889Y-100436487D01*
X136918966Y-100521401D01*
X136660986Y-100659294D01*
X136434866Y-100844866D01*
X136410393Y-100874687D01*
X136389502Y-100805820D01*
X136330537Y-100695506D01*
X136251185Y-100598815D01*
X136154494Y-100519463D01*
X136044180Y-100460498D01*
X135924482Y-100424188D01*
X135800000Y-100411928D01*
X134100000Y-100411928D01*
X133975518Y-100424188D01*
X133855820Y-100460498D01*
X133745506Y-100519463D01*
X133648815Y-100598815D01*
X133569463Y-100695506D01*
X133510498Y-100805820D01*
X133474188Y-100925518D01*
X133461928Y-101050000D01*
X133461928Y-101576451D01*
X132907242Y-101021765D01*
X132880308Y-100988946D01*
X132749356Y-100881476D01*
X132599954Y-100801619D01*
X132437843Y-100752444D01*
X132311500Y-100740000D01*
X132311493Y-100740000D01*
X132269254Y-100735840D01*
X132227015Y-100740000D01*
X127775870Y-100740000D01*
X127690256Y-100682795D01*
X127501898Y-100604774D01*
X127301939Y-100565000D01*
X127098061Y-100565000D01*
X126898102Y-100604774D01*
X126709744Y-100682795D01*
X126624130Y-100740000D01*
X102775870Y-100740000D01*
X102690256Y-100682795D01*
X102501898Y-100604774D01*
X102301939Y-100565000D01*
X102098061Y-100565000D01*
X101898102Y-100604774D01*
X101709744Y-100682795D01*
X101540226Y-100796063D01*
X101396063Y-100940226D01*
X101282795Y-101109744D01*
X101204774Y-101298102D01*
X101165000Y-101498061D01*
X101165000Y-101701939D01*
X101204774Y-101901898D01*
X101282795Y-102090256D01*
X101396063Y-102259774D01*
X101540226Y-102403937D01*
X101669029Y-102490000D01*
X101125870Y-102490000D01*
X101040256Y-102432795D01*
X100851898Y-102354774D01*
X100651939Y-102315000D01*
X100448061Y-102315000D01*
X100248102Y-102354774D01*
X100059744Y-102432795D01*
X99890226Y-102546063D01*
X99746063Y-102690226D01*
X99632795Y-102859744D01*
X99554774Y-103048102D01*
X99515000Y-103248061D01*
X99515000Y-103451939D01*
X99554774Y-103651898D01*
X99632795Y-103840256D01*
X99746063Y-104009774D01*
X99890226Y-104153937D01*
X100059744Y-104267205D01*
X100248102Y-104345226D01*
X100448061Y-104385000D01*
X100651939Y-104385000D01*
X100851898Y-104345226D01*
X101040256Y-104267205D01*
X101125870Y-104210000D01*
X124974130Y-104210000D01*
X125059744Y-104267205D01*
X125248102Y-104345226D01*
X125448061Y-104385000D01*
X125651939Y-104385000D01*
X125851898Y-104345226D01*
X126040256Y-104267205D01*
X126125870Y-104210000D01*
X128628702Y-104210000D01*
X128581329Y-104267725D01*
X128502150Y-104415858D01*
X128453392Y-104576592D01*
X128436928Y-104743750D01*
X128436928Y-105256250D01*
X128453392Y-105423408D01*
X128502150Y-105584142D01*
X128509121Y-105597183D01*
X128469463Y-105645506D01*
X128410498Y-105755820D01*
X128374188Y-105875518D01*
X128361928Y-106000000D01*
X128361928Y-109500000D01*
X128374188Y-109624482D01*
X128410498Y-109744180D01*
X128469463Y-109854494D01*
X128484650Y-109873000D01*
X126877724Y-109873000D01*
X126877724Y-107678402D01*
X126934929Y-107592788D01*
X127012950Y-107404430D01*
X127052724Y-107204471D01*
X127052724Y-107000593D01*
X127012950Y-106800634D01*
X126934929Y-106612276D01*
X126821661Y-106442758D01*
X126677498Y-106298595D01*
X126507980Y-106185327D01*
X126319622Y-106107306D01*
X126119663Y-106067532D01*
X125915785Y-106067532D01*
X125715826Y-106107306D01*
X125527468Y-106185327D01*
X125357950Y-106298595D01*
X125213787Y-106442758D01*
X125100519Y-106612276D01*
X125022498Y-106800634D01*
X124982724Y-107000593D01*
X124982724Y-107204471D01*
X125022498Y-107404430D01*
X125100519Y-107592788D01*
X125157724Y-107678402D01*
X125157724Y-107710462D01*
X125157725Y-107710472D01*
X125157724Y-109873000D01*
X103710000Y-109873000D01*
X103710000Y-109792238D01*
X103714160Y-109749999D01*
X103710000Y-109707760D01*
X103710000Y-109707754D01*
X103697556Y-109581411D01*
X103697459Y-109581089D01*
X103677579Y-109515556D01*
X103648381Y-109419300D01*
X103568524Y-109269898D01*
X103461054Y-109138946D01*
X103428242Y-109112018D01*
X101707320Y-107391097D01*
X101735000Y-107251939D01*
X101735000Y-107048061D01*
X101695226Y-106848102D01*
X101617205Y-106659744D01*
X101503937Y-106490226D01*
X101359774Y-106346063D01*
X101190256Y-106232795D01*
X101001898Y-106154774D01*
X100801939Y-106115000D01*
X100598061Y-106115000D01*
X100398102Y-106154774D01*
X100209744Y-106232795D01*
X100040226Y-106346063D01*
X99896063Y-106490226D01*
X99782795Y-106659744D01*
X99704774Y-106848102D01*
X99665000Y-107048061D01*
X99665000Y-107251939D01*
X99704774Y-107451898D01*
X99782795Y-107640256D01*
X99849660Y-107740327D01*
X99852444Y-107768589D01*
X99901619Y-107930700D01*
X99954705Y-108030016D01*
X99981477Y-108080102D01*
X100060033Y-108175822D01*
X100088947Y-108211054D01*
X100121760Y-108237983D01*
X101756776Y-109873000D01*
X96330644Y-109873000D01*
X94312175Y-107854531D01*
X94282107Y-107817893D01*
X94135928Y-107697927D01*
X93969154Y-107608784D01*
X93788193Y-107553890D01*
X93647162Y-107540000D01*
X93647152Y-107540000D01*
X93600000Y-107535356D01*
X93552848Y-107540000D01*
X92998685Y-107540000D01*
X92882886Y-107424201D01*
X92732340Y-107323609D01*
X92824126Y-107369433D01*
X93182312Y-107467290D01*
X93552706Y-107493389D01*
X93921075Y-107446725D01*
X94273262Y-107329094D01*
X94508086Y-107203577D01*
X94634000Y-106913605D01*
X93500000Y-105779605D01*
X92366000Y-106913605D01*
X92491914Y-107203577D01*
X92504470Y-107209845D01*
X92403989Y-107168225D01*
X92136411Y-107115000D01*
X91863589Y-107115000D01*
X91596011Y-107168225D01*
X91343957Y-107272629D01*
X91117114Y-107424201D01*
X91018538Y-107522777D01*
X91356575Y-106413645D01*
X91625848Y-105804563D01*
X91653275Y-106021075D01*
X91770906Y-106373262D01*
X91896423Y-106608086D01*
X92186395Y-106734000D01*
X93320395Y-105600000D01*
X93679605Y-105600000D01*
X94813605Y-106734000D01*
X95103577Y-106608086D01*
X95269433Y-106275874D01*
X95367290Y-105917688D01*
X95393389Y-105547294D01*
X95346725Y-105178925D01*
X95229094Y-104826738D01*
X95103577Y-104591914D01*
X94813605Y-104466000D01*
X93679605Y-105600000D01*
X93320395Y-105600000D01*
X93306253Y-105585858D01*
X93485858Y-105406253D01*
X93500000Y-105420395D01*
X94634000Y-104286395D01*
X94508086Y-103996423D01*
X94175874Y-103830567D01*
X93817688Y-103732710D01*
X93447294Y-103706611D01*
X93078925Y-103753275D01*
X92767949Y-103857141D01*
X93246810Y-103236449D01*
X94115510Y-102353997D01*
X95083940Y-101582291D01*
X96138061Y-100932524D01*
X97262613Y-100414097D01*
X98441303Y-100034527D01*
X99657051Y-99799311D01*
X100911774Y-99710471D01*
X101001807Y-99710000D01*
X178978622Y-99710000D01*
X180236054Y-99785806D01*
X180236054Y-99785806D01*
G37*
X180236054Y-99785806D02*
X181454199Y-100008279D01*
X182636800Y-100375487D01*
X183766717Y-100882108D01*
X184827594Y-101520807D01*
X185804048Y-102282324D01*
X186681943Y-103155635D01*
X187238770Y-103861968D01*
X187175874Y-103830567D01*
X186817688Y-103732710D01*
X186447294Y-103706611D01*
X186078925Y-103753275D01*
X185726738Y-103870906D01*
X185491914Y-103996423D01*
X185366000Y-104286395D01*
X186500000Y-105420395D01*
X186514143Y-105406253D01*
X186693748Y-105585858D01*
X186679605Y-105600000D01*
X187813605Y-106734000D01*
X188103577Y-106608086D01*
X188269433Y-106275874D01*
X188367290Y-105917688D01*
X188375123Y-105806521D01*
X188605337Y-106312850D01*
X188978733Y-107493518D01*
X188984877Y-107526192D01*
X188882886Y-107424201D01*
X188656043Y-107272629D01*
X188403989Y-107168225D01*
X188136411Y-107115000D01*
X187863589Y-107115000D01*
X187596011Y-107168225D01*
X187499211Y-107208321D01*
X187508086Y-107203577D01*
X187634000Y-106913605D01*
X186500000Y-105779605D01*
X185366000Y-106913605D01*
X185491914Y-107203577D01*
X185824126Y-107369433D01*
X186182312Y-107467290D01*
X186552706Y-107493389D01*
X186921075Y-107446725D01*
X187245648Y-107338317D01*
X187117114Y-107424201D01*
X186924201Y-107617114D01*
X186772629Y-107843957D01*
X186668225Y-108096011D01*
X186615000Y-108363589D01*
X186615000Y-108527355D01*
X185269355Y-109873000D01*
X178960000Y-109873000D01*
X178960000Y-109642239D01*
X178964160Y-109600000D01*
X178960000Y-109557761D01*
X178960000Y-109557754D01*
X178947556Y-109431411D01*
X178944632Y-109421770D01*
X178925636Y-109359149D01*
X178898381Y-109269300D01*
X178818524Y-109119898D01*
X178743727Y-109028758D01*
X178737984Y-109021760D01*
X178737983Y-109021759D01*
X178711054Y-108988946D01*
X178678241Y-108962017D01*
X176615314Y-106899091D01*
X176595226Y-106798102D01*
X176517205Y-106609744D01*
X176403937Y-106440226D01*
X176259774Y-106296063D01*
X176090256Y-106182795D01*
X175901898Y-106104774D01*
X175701939Y-106065000D01*
X175498061Y-106065000D01*
X175298102Y-106104774D01*
X175109744Y-106182795D01*
X174940226Y-106296063D01*
X174796063Y-106440226D01*
X174682795Y-106609744D01*
X174604774Y-106798102D01*
X174565000Y-106998061D01*
X174565000Y-107201939D01*
X174604774Y-107401898D01*
X174682795Y-107590256D01*
X174796063Y-107759774D01*
X174940226Y-107903937D01*
X175109744Y-108017205D01*
X175298102Y-108095226D01*
X175399091Y-108115314D01*
X177156776Y-109873000D01*
X153982800Y-109873000D01*
X153982800Y-108865038D01*
X153986960Y-108822799D01*
X153982800Y-108780560D01*
X153982800Y-108780554D01*
X153971169Y-108662463D01*
X153970356Y-108654210D01*
X153952548Y-108595506D01*
X153921181Y-108492100D01*
X153841324Y-108342698D01*
X153733854Y-108211746D01*
X153701035Y-108184812D01*
X153437988Y-107921765D01*
X153411054Y-107888946D01*
X153280102Y-107781476D01*
X153130700Y-107701619D01*
X152968589Y-107652444D01*
X152842246Y-107640000D01*
X152842239Y-107640000D01*
X152800000Y-107635840D01*
X152757761Y-107640000D01*
X152356224Y-107640000D01*
X151623685Y-106907462D01*
X151603597Y-106806473D01*
X151525576Y-106618115D01*
X151412308Y-106448597D01*
X151376783Y-106413072D01*
X151656250Y-106413072D01*
X151823408Y-106396608D01*
X151984142Y-106347850D01*
X152132275Y-106268671D01*
X152262115Y-106162115D01*
X152368671Y-106032275D01*
X152447850Y-105884142D01*
X152496608Y-105723408D01*
X152503571Y-105652706D01*
X184606611Y-105652706D01*
X184653275Y-106021075D01*
X184770906Y-106373262D01*
X184896423Y-106608086D01*
X185186395Y-106734000D01*
X186320395Y-105600000D01*
X185186395Y-104466000D01*
X184896423Y-104591914D01*
X184730567Y-104924126D01*
X184632710Y-105282312D01*
X184606611Y-105652706D01*
X152503571Y-105652706D01*
X152513072Y-105556250D01*
X152513072Y-105043750D01*
X152496608Y-104876592D01*
X152447850Y-104715858D01*
X152368671Y-104567725D01*
X152262115Y-104437885D01*
X152197674Y-104385000D01*
X152301939Y-104385000D01*
X152501898Y-104345226D01*
X152690256Y-104267205D01*
X152775870Y-104210000D01*
X176574130Y-104210000D01*
X176659744Y-104267205D01*
X176848102Y-104345226D01*
X177048061Y-104385000D01*
X177251939Y-104385000D01*
X177451898Y-104345226D01*
X177640256Y-104267205D01*
X177809774Y-104153937D01*
X177953937Y-104009774D01*
X178067205Y-103840256D01*
X178145226Y-103651898D01*
X178185000Y-103451939D01*
X178185000Y-103375672D01*
X178209744Y-103392205D01*
X178398102Y-103470226D01*
X178598061Y-103510000D01*
X178801939Y-103510000D01*
X179001898Y-103470226D01*
X179190256Y-103392205D01*
X179359774Y-103278937D01*
X179503937Y-103134774D01*
X179617205Y-102965256D01*
X179695226Y-102776898D01*
X179735000Y-102576939D01*
X179735000Y-102373061D01*
X179695226Y-102173102D01*
X179617205Y-101984744D01*
X179503937Y-101815226D01*
X179359774Y-101671063D01*
X179190256Y-101557795D01*
X179001898Y-101479774D01*
X178801939Y-101440000D01*
X178598061Y-101440000D01*
X178398102Y-101479774D01*
X178209744Y-101557795D01*
X178124130Y-101615000D01*
X176585000Y-101615000D01*
X176585000Y-101498061D01*
X176545226Y-101298102D01*
X176467205Y-101109744D01*
X176353937Y-100940226D01*
X176209774Y-100796063D01*
X176040256Y-100682795D01*
X175851898Y-100604774D01*
X175651939Y-100565000D01*
X175448061Y-100565000D01*
X175248102Y-100604774D01*
X175059744Y-100682795D01*
X174974130Y-100740000D01*
X151175870Y-100740000D01*
X151090256Y-100682795D01*
X150901898Y-100604774D01*
X150701939Y-100565000D01*
X150498061Y-100565000D01*
X150298102Y-100604774D01*
X150109744Y-100682795D01*
X150024130Y-100740000D01*
X147325526Y-100740000D01*
X147283280Y-100735839D01*
X147114690Y-100752444D01*
X146952579Y-100801619D01*
X146900539Y-100829436D01*
X146803178Y-100881476D01*
X146672226Y-100988946D01*
X146645297Y-101021759D01*
X146433308Y-101233748D01*
X146305178Y-101018645D01*
X146110269Y-100802412D01*
X145876920Y-100628359D01*
X145614099Y-100503175D01*
X145466890Y-100458524D01*
X145237000Y-100579845D01*
X145237000Y-101773000D01*
X145257000Y-101773000D01*
X145257000Y-102027000D01*
X145237000Y-102027000D01*
X145237000Y-102047000D01*
X144983000Y-102047000D01*
X144983000Y-102027000D01*
X144963000Y-102027000D01*
X144963000Y-101773000D01*
X144983000Y-101773000D01*
X144983000Y-100579845D01*
X144753110Y-100458524D01*
X144605901Y-100503175D01*
X144343080Y-100628359D01*
X144109731Y-100802412D01*
X143914822Y-101018645D01*
X143845201Y-101135523D01*
X143810706Y-101070986D01*
X143625134Y-100844866D01*
X143399014Y-100659294D01*
X143141034Y-100521401D01*
X142861111Y-100436487D01*
X142642950Y-100415000D01*
X142497050Y-100415000D01*
X142278889Y-100436487D01*
X141998966Y-100521401D01*
X141740986Y-100659294D01*
X141514866Y-100844866D01*
X141329294Y-101070986D01*
X141300000Y-101125791D01*
X141270706Y-101070986D01*
X141085134Y-100844866D01*
X140859014Y-100659294D01*
X140601034Y-100521401D01*
X140321111Y-100436487D01*
X140102950Y-100415000D01*
X139957050Y-100415000D01*
X139738889Y-100436487D01*
X139458966Y-100521401D01*
X139200986Y-100659294D01*
X138974866Y-100844866D01*
X138789294Y-101070986D01*
X138760000Y-101125791D01*
X138730706Y-101070986D01*
X138545134Y-100844866D01*
X138319014Y-100659294D01*
X138061034Y-100521401D01*
X137781111Y-100436487D01*
X137562950Y-100415000D01*
X137417050Y-100415000D01*
X137198889Y-100436487D01*
X136918966Y-100521401D01*
X136660986Y-100659294D01*
X136434866Y-100844866D01*
X136410393Y-100874687D01*
X136389502Y-100805820D01*
X136330537Y-100695506D01*
X136251185Y-100598815D01*
X136154494Y-100519463D01*
X136044180Y-100460498D01*
X135924482Y-100424188D01*
X135800000Y-100411928D01*
X134100000Y-100411928D01*
X133975518Y-100424188D01*
X133855820Y-100460498D01*
X133745506Y-100519463D01*
X133648815Y-100598815D01*
X133569463Y-100695506D01*
X133510498Y-100805820D01*
X133474188Y-100925518D01*
X133461928Y-101050000D01*
X133461928Y-101576451D01*
X132907242Y-101021765D01*
X132880308Y-100988946D01*
X132749356Y-100881476D01*
X132599954Y-100801619D01*
X132437843Y-100752444D01*
X132311500Y-100740000D01*
X132311493Y-100740000D01*
X132269254Y-100735840D01*
X132227015Y-100740000D01*
X127775870Y-100740000D01*
X127690256Y-100682795D01*
X127501898Y-100604774D01*
X127301939Y-100565000D01*
X127098061Y-100565000D01*
X126898102Y-100604774D01*
X126709744Y-100682795D01*
X126624130Y-100740000D01*
X102775870Y-100740000D01*
X102690256Y-100682795D01*
X102501898Y-100604774D01*
X102301939Y-100565000D01*
X102098061Y-100565000D01*
X101898102Y-100604774D01*
X101709744Y-100682795D01*
X101540226Y-100796063D01*
X101396063Y-100940226D01*
X101282795Y-101109744D01*
X101204774Y-101298102D01*
X101165000Y-101498061D01*
X101165000Y-101701939D01*
X101204774Y-101901898D01*
X101282795Y-102090256D01*
X101396063Y-102259774D01*
X101540226Y-102403937D01*
X101669029Y-102490000D01*
X101125870Y-102490000D01*
X101040256Y-102432795D01*
X100851898Y-102354774D01*
X100651939Y-102315000D01*
X100448061Y-102315000D01*
X100248102Y-102354774D01*
X100059744Y-102432795D01*
X99890226Y-102546063D01*
X99746063Y-102690226D01*
X99632795Y-102859744D01*
X99554774Y-103048102D01*
X99515000Y-103248061D01*
X99515000Y-103451939D01*
X99554774Y-103651898D01*
X99632795Y-103840256D01*
X99746063Y-104009774D01*
X99890226Y-104153937D01*
X100059744Y-104267205D01*
X100248102Y-104345226D01*
X100448061Y-104385000D01*
X100651939Y-104385000D01*
X100851898Y-104345226D01*
X101040256Y-104267205D01*
X101125870Y-104210000D01*
X124974130Y-104210000D01*
X125059744Y-104267205D01*
X125248102Y-104345226D01*
X125448061Y-104385000D01*
X125651939Y-104385000D01*
X125851898Y-104345226D01*
X126040256Y-104267205D01*
X126125870Y-104210000D01*
X128628702Y-104210000D01*
X128581329Y-104267725D01*
X128502150Y-104415858D01*
X128453392Y-104576592D01*
X128436928Y-104743750D01*
X128436928Y-105256250D01*
X128453392Y-105423408D01*
X128502150Y-105584142D01*
X128509121Y-105597183D01*
X128469463Y-105645506D01*
X128410498Y-105755820D01*
X128374188Y-105875518D01*
X128361928Y-106000000D01*
X128361928Y-109500000D01*
X128374188Y-109624482D01*
X128410498Y-109744180D01*
X128469463Y-109854494D01*
X128484650Y-109873000D01*
X126877724Y-109873000D01*
X126877724Y-107678402D01*
X126934929Y-107592788D01*
X127012950Y-107404430D01*
X127052724Y-107204471D01*
X127052724Y-107000593D01*
X127012950Y-106800634D01*
X126934929Y-106612276D01*
X126821661Y-106442758D01*
X126677498Y-106298595D01*
X126507980Y-106185327D01*
X126319622Y-106107306D01*
X126119663Y-106067532D01*
X125915785Y-106067532D01*
X125715826Y-106107306D01*
X125527468Y-106185327D01*
X125357950Y-106298595D01*
X125213787Y-106442758D01*
X125100519Y-106612276D01*
X125022498Y-106800634D01*
X124982724Y-107000593D01*
X124982724Y-107204471D01*
X125022498Y-107404430D01*
X125100519Y-107592788D01*
X125157724Y-107678402D01*
X125157724Y-107710462D01*
X125157725Y-107710472D01*
X125157724Y-109873000D01*
X103710000Y-109873000D01*
X103710000Y-109792238D01*
X103714160Y-109749999D01*
X103710000Y-109707760D01*
X103710000Y-109707754D01*
X103697556Y-109581411D01*
X103697459Y-109581089D01*
X103677579Y-109515556D01*
X103648381Y-109419300D01*
X103568524Y-109269898D01*
X103461054Y-109138946D01*
X103428242Y-109112018D01*
X101707320Y-107391097D01*
X101735000Y-107251939D01*
X101735000Y-107048061D01*
X101695226Y-106848102D01*
X101617205Y-106659744D01*
X101503937Y-106490226D01*
X101359774Y-106346063D01*
X101190256Y-106232795D01*
X101001898Y-106154774D01*
X100801939Y-106115000D01*
X100598061Y-106115000D01*
X100398102Y-106154774D01*
X100209744Y-106232795D01*
X100040226Y-106346063D01*
X99896063Y-106490226D01*
X99782795Y-106659744D01*
X99704774Y-106848102D01*
X99665000Y-107048061D01*
X99665000Y-107251939D01*
X99704774Y-107451898D01*
X99782795Y-107640256D01*
X99849660Y-107740327D01*
X99852444Y-107768589D01*
X99901619Y-107930700D01*
X99954705Y-108030016D01*
X99981477Y-108080102D01*
X100060033Y-108175822D01*
X100088947Y-108211054D01*
X100121760Y-108237983D01*
X101756776Y-109873000D01*
X96330644Y-109873000D01*
X94312175Y-107854531D01*
X94282107Y-107817893D01*
X94135928Y-107697927D01*
X93969154Y-107608784D01*
X93788193Y-107553890D01*
X93647162Y-107540000D01*
X93647152Y-107540000D01*
X93600000Y-107535356D01*
X93552848Y-107540000D01*
X92998685Y-107540000D01*
X92882886Y-107424201D01*
X92732340Y-107323609D01*
X92824126Y-107369433D01*
X93182312Y-107467290D01*
X93552706Y-107493389D01*
X93921075Y-107446725D01*
X94273262Y-107329094D01*
X94508086Y-107203577D01*
X94634000Y-106913605D01*
X93500000Y-105779605D01*
X92366000Y-106913605D01*
X92491914Y-107203577D01*
X92504470Y-107209845D01*
X92403989Y-107168225D01*
X92136411Y-107115000D01*
X91863589Y-107115000D01*
X91596011Y-107168225D01*
X91343957Y-107272629D01*
X91117114Y-107424201D01*
X91018538Y-107522777D01*
X91356575Y-106413645D01*
X91625848Y-105804563D01*
X91653275Y-106021075D01*
X91770906Y-106373262D01*
X91896423Y-106608086D01*
X92186395Y-106734000D01*
X93320395Y-105600000D01*
X93679605Y-105600000D01*
X94813605Y-106734000D01*
X95103577Y-106608086D01*
X95269433Y-106275874D01*
X95367290Y-105917688D01*
X95393389Y-105547294D01*
X95346725Y-105178925D01*
X95229094Y-104826738D01*
X95103577Y-104591914D01*
X94813605Y-104466000D01*
X93679605Y-105600000D01*
X93320395Y-105600000D01*
X93306253Y-105585858D01*
X93485858Y-105406253D01*
X93500000Y-105420395D01*
X94634000Y-104286395D01*
X94508086Y-103996423D01*
X94175874Y-103830567D01*
X93817688Y-103732710D01*
X93447294Y-103706611D01*
X93078925Y-103753275D01*
X92767949Y-103857141D01*
X93246810Y-103236449D01*
X94115510Y-102353997D01*
X95083940Y-101582291D01*
X96138061Y-100932524D01*
X97262613Y-100414097D01*
X98441303Y-100034527D01*
X99657051Y-99799311D01*
X100911774Y-99710471D01*
X101001807Y-99710000D01*
X178978622Y-99710000D01*
X180236054Y-99785806D01*
G36*
X150692263Y-108408487D02*
G01*
X150627000Y-108473750D01*
X150627000Y-109273000D01*
X151136250Y-109273000D01*
X151148750Y-109285500D01*
X151645201Y-109285500D01*
X151669299Y-109298381D01*
X151831410Y-109347556D01*
X152000000Y-109364161D01*
X152042246Y-109360000D01*
X152247000Y-109360000D01*
X152247000Y-109539500D01*
X152227000Y-109539500D01*
X152227000Y-109559500D01*
X151973000Y-109559500D01*
X151973000Y-109539500D01*
X151388750Y-109539500D01*
X151376250Y-109527000D01*
X150627000Y-109527000D01*
X150627000Y-109547000D01*
X150410000Y-109547000D01*
X150410000Y-108126223D01*
X150692263Y-108408487D01*
X150692263Y-108408487D01*
G37*
X150692263Y-108408487D02*
X150627000Y-108473750D01*
X150627000Y-109273000D01*
X151136250Y-109273000D01*
X151148750Y-109285500D01*
X151645201Y-109285500D01*
X151669299Y-109298381D01*
X151831410Y-109347556D01*
X152000000Y-109364161D01*
X152042246Y-109360000D01*
X152247000Y-109360000D01*
X152247000Y-109539500D01*
X152227000Y-109539500D01*
X152227000Y-109559500D01*
X151973000Y-109559500D01*
X151973000Y-109539500D01*
X151388750Y-109539500D01*
X151376250Y-109527000D01*
X150627000Y-109527000D01*
X150627000Y-109547000D01*
X150410000Y-109547000D01*
X150410000Y-108126223D01*
X150692263Y-108408487D01*
G36*
X101835754Y-119295494D02*
G01*
X101865818Y-119332127D01*
X101902450Y-119362190D01*
X102011996Y-119452093D01*
X102064667Y-119480246D01*
X102178771Y-119541236D01*
X102359732Y-119596130D01*
X102500763Y-119610020D01*
X102500772Y-119610020D01*
X102547924Y-119614664D01*
X102595076Y-119610020D01*
X140348991Y-119610020D01*
X140359744Y-119617205D01*
X140548102Y-119695226D01*
X140748061Y-119735000D01*
X140951939Y-119735000D01*
X141151898Y-119695226D01*
X141340256Y-119617205D01*
X141351009Y-119610020D01*
X179575826Y-119610020D01*
X179622978Y-119614664D01*
X179670130Y-119610020D01*
X179670140Y-119610020D01*
X179811171Y-119596130D01*
X179992132Y-119541236D01*
X180158906Y-119452093D01*
X180305085Y-119332127D01*
X180335153Y-119295489D01*
X184692407Y-114938236D01*
X184770906Y-115173262D01*
X184896423Y-115408086D01*
X185186395Y-115534000D01*
X186320395Y-114400000D01*
X186306253Y-114385858D01*
X186485858Y-114206253D01*
X186500000Y-114220395D01*
X187634000Y-113086395D01*
X187508086Y-112796423D01*
X187495530Y-112790155D01*
X187596011Y-112831775D01*
X187863589Y-112885000D01*
X188136411Y-112885000D01*
X188403989Y-112831775D01*
X188656043Y-112727371D01*
X188882886Y-112575799D01*
X188981462Y-112477223D01*
X188643425Y-113586355D01*
X188374152Y-114195437D01*
X188346725Y-113978925D01*
X188229094Y-113626738D01*
X188103577Y-113391914D01*
X187813605Y-113266000D01*
X186679605Y-114400000D01*
X186693748Y-114414143D01*
X186514143Y-114593748D01*
X186500000Y-114579605D01*
X185366000Y-115713605D01*
X185491914Y-116003577D01*
X185824126Y-116169433D01*
X186182312Y-116267290D01*
X186552706Y-116293389D01*
X186921075Y-116246725D01*
X187232051Y-116142858D01*
X186753194Y-116763546D01*
X185884495Y-117646000D01*
X184916060Y-118417709D01*
X183861939Y-119067476D01*
X182737387Y-119585903D01*
X181558698Y-119965473D01*
X180342949Y-120200689D01*
X179088225Y-120289529D01*
X178998193Y-120290000D01*
X101021378Y-120290000D01*
X99763946Y-120214194D01*
X98545799Y-119991720D01*
X97363200Y-119624513D01*
X96233285Y-119117894D01*
X95172406Y-118479193D01*
X94195952Y-117717676D01*
X93318054Y-116844361D01*
X92761230Y-116138032D01*
X92824126Y-116169433D01*
X93182312Y-116267290D01*
X93552706Y-116293389D01*
X93921075Y-116246725D01*
X94273262Y-116129094D01*
X94508086Y-116003577D01*
X94634000Y-115713605D01*
X93500000Y-114579605D01*
X93485858Y-114593748D01*
X93306253Y-114414143D01*
X93320395Y-114400000D01*
X93679605Y-114400000D01*
X94813605Y-115534000D01*
X95103577Y-115408086D01*
X95269433Y-115075874D01*
X95367290Y-114717688D01*
X95393389Y-114347294D01*
X95346725Y-113978925D01*
X95229094Y-113626738D01*
X95103577Y-113391914D01*
X94813605Y-113266000D01*
X93679605Y-114400000D01*
X93320395Y-114400000D01*
X92186395Y-113266000D01*
X91896423Y-113391914D01*
X91730567Y-113724126D01*
X91632710Y-114082312D01*
X91624877Y-114193479D01*
X91394660Y-113687143D01*
X91021267Y-112506482D01*
X91015123Y-112473808D01*
X91117114Y-112575799D01*
X91343957Y-112727371D01*
X91596011Y-112831775D01*
X91863589Y-112885000D01*
X92136411Y-112885000D01*
X92403989Y-112831775D01*
X92500789Y-112791679D01*
X92491914Y-112796423D01*
X92366000Y-113086395D01*
X93500000Y-114220395D01*
X94634000Y-113086395D01*
X94508086Y-112796423D01*
X94175874Y-112630567D01*
X93817688Y-112532710D01*
X93447294Y-112506611D01*
X93078925Y-112553275D01*
X92754352Y-112661683D01*
X92882886Y-112575799D01*
X92998685Y-112460000D01*
X95000261Y-112460000D01*
X101835754Y-119295494D01*
X101835754Y-119295494D01*
G37*
X101835754Y-119295494D02*
X101865818Y-119332127D01*
X101902450Y-119362190D01*
X102011996Y-119452093D01*
X102064667Y-119480246D01*
X102178771Y-119541236D01*
X102359732Y-119596130D01*
X102500763Y-119610020D01*
X102500772Y-119610020D01*
X102547924Y-119614664D01*
X102595076Y-119610020D01*
X140348991Y-119610020D01*
X140359744Y-119617205D01*
X140548102Y-119695226D01*
X140748061Y-119735000D01*
X140951939Y-119735000D01*
X141151898Y-119695226D01*
X141340256Y-119617205D01*
X141351009Y-119610020D01*
X179575826Y-119610020D01*
X179622978Y-119614664D01*
X179670130Y-119610020D01*
X179670140Y-119610020D01*
X179811171Y-119596130D01*
X179992132Y-119541236D01*
X180158906Y-119452093D01*
X180305085Y-119332127D01*
X180335153Y-119295489D01*
X184692407Y-114938236D01*
X184770906Y-115173262D01*
X184896423Y-115408086D01*
X185186395Y-115534000D01*
X186320395Y-114400000D01*
X186306253Y-114385858D01*
X186485858Y-114206253D01*
X186500000Y-114220395D01*
X187634000Y-113086395D01*
X187508086Y-112796423D01*
X187495530Y-112790155D01*
X187596011Y-112831775D01*
X187863589Y-112885000D01*
X188136411Y-112885000D01*
X188403989Y-112831775D01*
X188656043Y-112727371D01*
X188882886Y-112575799D01*
X188981462Y-112477223D01*
X188643425Y-113586355D01*
X188374152Y-114195437D01*
X188346725Y-113978925D01*
X188229094Y-113626738D01*
X188103577Y-113391914D01*
X187813605Y-113266000D01*
X186679605Y-114400000D01*
X186693748Y-114414143D01*
X186514143Y-114593748D01*
X186500000Y-114579605D01*
X185366000Y-115713605D01*
X185491914Y-116003577D01*
X185824126Y-116169433D01*
X186182312Y-116267290D01*
X186552706Y-116293389D01*
X186921075Y-116246725D01*
X187232051Y-116142858D01*
X186753194Y-116763546D01*
X185884495Y-117646000D01*
X184916060Y-118417709D01*
X183861939Y-119067476D01*
X182737387Y-119585903D01*
X181558698Y-119965473D01*
X180342949Y-120200689D01*
X179088225Y-120289529D01*
X178998193Y-120290000D01*
X101021378Y-120290000D01*
X99763946Y-120214194D01*
X98545799Y-119991720D01*
X97363200Y-119624513D01*
X96233285Y-119117894D01*
X95172406Y-118479193D01*
X94195952Y-117717676D01*
X93318054Y-116844361D01*
X92761230Y-116138032D01*
X92824126Y-116169433D01*
X93182312Y-116267290D01*
X93552706Y-116293389D01*
X93921075Y-116246725D01*
X94273262Y-116129094D01*
X94508086Y-116003577D01*
X94634000Y-115713605D01*
X93500000Y-114579605D01*
X93485858Y-114593748D01*
X93306253Y-114414143D01*
X93320395Y-114400000D01*
X93679605Y-114400000D01*
X94813605Y-115534000D01*
X95103577Y-115408086D01*
X95269433Y-115075874D01*
X95367290Y-114717688D01*
X95393389Y-114347294D01*
X95346725Y-113978925D01*
X95229094Y-113626738D01*
X95103577Y-113391914D01*
X94813605Y-113266000D01*
X93679605Y-114400000D01*
X93320395Y-114400000D01*
X92186395Y-113266000D01*
X91896423Y-113391914D01*
X91730567Y-113724126D01*
X91632710Y-114082312D01*
X91624877Y-114193479D01*
X91394660Y-113687143D01*
X91021267Y-112506482D01*
X91015123Y-112473808D01*
X91117114Y-112575799D01*
X91343957Y-112727371D01*
X91596011Y-112831775D01*
X91863589Y-112885000D01*
X92136411Y-112885000D01*
X92403989Y-112831775D01*
X92500789Y-112791679D01*
X92491914Y-112796423D01*
X92366000Y-113086395D01*
X93500000Y-114220395D01*
X94634000Y-113086395D01*
X94508086Y-112796423D01*
X94175874Y-112630567D01*
X93817688Y-112532710D01*
X93447294Y-112506611D01*
X93078925Y-112553275D01*
X92754352Y-112661683D01*
X92882886Y-112575799D01*
X92998685Y-112460000D01*
X95000261Y-112460000D01*
X101835754Y-119295494D01*
G36*
X145686928Y-111206250D02*
G01*
X145703392Y-111373408D01*
X145752150Y-111534142D01*
X145831329Y-111682275D01*
X145937885Y-111812115D01*
X146067725Y-111918671D01*
X146215858Y-111997850D01*
X146376592Y-112046608D01*
X146543750Y-112063072D01*
X147056250Y-112063072D01*
X147223408Y-112046608D01*
X147384142Y-111997850D01*
X147532275Y-111918671D01*
X147615951Y-111850000D01*
X148511928Y-111850000D01*
X148524188Y-111974482D01*
X148560498Y-112094180D01*
X148619463Y-112204494D01*
X148698815Y-112301185D01*
X148795506Y-112380537D01*
X148905820Y-112439502D01*
X149025518Y-112475812D01*
X149150000Y-112488072D01*
X149264250Y-112485000D01*
X149423000Y-112326250D01*
X149423000Y-111527000D01*
X149677000Y-111527000D01*
X149677000Y-112326250D01*
X149835750Y-112485000D01*
X149950000Y-112488072D01*
X150074482Y-112475812D01*
X150194180Y-112439502D01*
X150304494Y-112380537D01*
X150401185Y-112301185D01*
X150480537Y-112204494D01*
X150539502Y-112094180D01*
X150575812Y-111974482D01*
X150588072Y-111850000D01*
X150585000Y-111685750D01*
X150426250Y-111527000D01*
X149677000Y-111527000D01*
X149423000Y-111527000D01*
X148673750Y-111527000D01*
X148515000Y-111685750D01*
X148511928Y-111850000D01*
X147615951Y-111850000D01*
X147662115Y-111812115D01*
X147768671Y-111682275D01*
X147847850Y-111534142D01*
X147880957Y-111425000D01*
X150986928Y-111425000D01*
X150999188Y-111549482D01*
X151035498Y-111669180D01*
X151094463Y-111779494D01*
X151173815Y-111876185D01*
X151270506Y-111955537D01*
X151380820Y-112014502D01*
X151500518Y-112050812D01*
X151625000Y-112063072D01*
X151814250Y-112060000D01*
X151973000Y-111901250D01*
X151973000Y-111114500D01*
X151148750Y-111114500D01*
X150990000Y-111273250D01*
X150986928Y-111425000D01*
X147880957Y-111425000D01*
X147896608Y-111373408D01*
X147902485Y-111313738D01*
X148439223Y-110777000D01*
X148538906Y-110777000D01*
X148524188Y-110825518D01*
X148511928Y-110950000D01*
X148515000Y-111114250D01*
X148673750Y-111273000D01*
X149423000Y-111273000D01*
X149423000Y-111253000D01*
X149677000Y-111253000D01*
X149677000Y-111273000D01*
X150426250Y-111273000D01*
X150585000Y-111114250D01*
X150588072Y-110950000D01*
X150575812Y-110825518D01*
X150561094Y-110777000D01*
X151065250Y-110777000D01*
X151148750Y-110860500D01*
X151973000Y-110860500D01*
X151973000Y-110840500D01*
X152227000Y-110840500D01*
X152227000Y-110860500D01*
X152247000Y-110860500D01*
X152247000Y-111114500D01*
X152227000Y-111114500D01*
X152227000Y-111901250D01*
X152262800Y-111937050D01*
X152262800Y-112524130D01*
X152205595Y-112609744D01*
X152127574Y-112798102D01*
X152087800Y-112998061D01*
X152087800Y-113201939D01*
X152127574Y-113401898D01*
X152205595Y-113590256D01*
X152318863Y-113759774D01*
X152463026Y-113903937D01*
X152632544Y-114017205D01*
X152820902Y-114095226D01*
X153020861Y-114135000D01*
X153224739Y-114135000D01*
X153424698Y-114095226D01*
X153613056Y-114017205D01*
X153782574Y-113903937D01*
X153926737Y-113759774D01*
X154040005Y-113590256D01*
X154118026Y-113401898D01*
X154157800Y-113201939D01*
X154157800Y-112998061D01*
X154118026Y-112798102D01*
X154040005Y-112609744D01*
X153982800Y-112524130D01*
X153982800Y-110777000D01*
X177240001Y-110777000D01*
X177240000Y-112524130D01*
X177182795Y-112609744D01*
X177104774Y-112798102D01*
X177065000Y-112998061D01*
X177065000Y-113201939D01*
X177104774Y-113401898D01*
X177182795Y-113590256D01*
X177296063Y-113759774D01*
X177440226Y-113903937D01*
X177609744Y-114017205D01*
X177798102Y-114095226D01*
X177998061Y-114135000D01*
X178201939Y-114135000D01*
X178401898Y-114095226D01*
X178590256Y-114017205D01*
X178759774Y-113903937D01*
X178903937Y-113759774D01*
X179017205Y-113590256D01*
X179095226Y-113401898D01*
X179135000Y-113201939D01*
X179135000Y-112998061D01*
X179095226Y-112798102D01*
X179017205Y-112609744D01*
X178960000Y-112524130D01*
X178960000Y-110777000D01*
X184365355Y-110777000D01*
X178302346Y-116840010D01*
X143456234Y-116840010D01*
X142972296Y-116356072D01*
X143075000Y-116356072D01*
X143199482Y-116343812D01*
X143319180Y-116307502D01*
X143429494Y-116248537D01*
X143526185Y-116169185D01*
X143605537Y-116072494D01*
X143664502Y-115962180D01*
X143700812Y-115842482D01*
X143713072Y-115718000D01*
X143713072Y-114381072D01*
X145050000Y-114381072D01*
X145174482Y-114368812D01*
X145294180Y-114332502D01*
X145404494Y-114273537D01*
X145501185Y-114194185D01*
X145580537Y-114097494D01*
X145639502Y-113987180D01*
X145675812Y-113867482D01*
X145688072Y-113743000D01*
X145688072Y-113193000D01*
X145675812Y-113068518D01*
X145675655Y-113068000D01*
X145675812Y-113067482D01*
X145688072Y-112943000D01*
X145688072Y-112393000D01*
X145675812Y-112268518D01*
X145675655Y-112268000D01*
X145675812Y-112267482D01*
X145688072Y-112143000D01*
X145688072Y-111593000D01*
X145675812Y-111468518D01*
X145675467Y-111467380D01*
X145685000Y-111353750D01*
X145592917Y-111261667D01*
X145580537Y-111238506D01*
X145501185Y-111141815D01*
X145411241Y-111068000D01*
X145501185Y-110994185D01*
X145580537Y-110897494D01*
X145592917Y-110874333D01*
X145685000Y-110782250D01*
X145684560Y-110777000D01*
X145686928Y-110777000D01*
X145686928Y-111206250D01*
X145686928Y-111206250D01*
G37*
X145686928Y-111206250D02*
X145703392Y-111373408D01*
X145752150Y-111534142D01*
X145831329Y-111682275D01*
X145937885Y-111812115D01*
X146067725Y-111918671D01*
X146215858Y-111997850D01*
X146376592Y-112046608D01*
X146543750Y-112063072D01*
X147056250Y-112063072D01*
X147223408Y-112046608D01*
X147384142Y-111997850D01*
X147532275Y-111918671D01*
X147615951Y-111850000D01*
X148511928Y-111850000D01*
X148524188Y-111974482D01*
X148560498Y-112094180D01*
X148619463Y-112204494D01*
X148698815Y-112301185D01*
X148795506Y-112380537D01*
X148905820Y-112439502D01*
X149025518Y-112475812D01*
X149150000Y-112488072D01*
X149264250Y-112485000D01*
X149423000Y-112326250D01*
X149423000Y-111527000D01*
X149677000Y-111527000D01*
X149677000Y-112326250D01*
X149835750Y-112485000D01*
X149950000Y-112488072D01*
X150074482Y-112475812D01*
X150194180Y-112439502D01*
X150304494Y-112380537D01*
X150401185Y-112301185D01*
X150480537Y-112204494D01*
X150539502Y-112094180D01*
X150575812Y-111974482D01*
X150588072Y-111850000D01*
X150585000Y-111685750D01*
X150426250Y-111527000D01*
X149677000Y-111527000D01*
X149423000Y-111527000D01*
X148673750Y-111527000D01*
X148515000Y-111685750D01*
X148511928Y-111850000D01*
X147615951Y-111850000D01*
X147662115Y-111812115D01*
X147768671Y-111682275D01*
X147847850Y-111534142D01*
X147880957Y-111425000D01*
X150986928Y-111425000D01*
X150999188Y-111549482D01*
X151035498Y-111669180D01*
X151094463Y-111779494D01*
X151173815Y-111876185D01*
X151270506Y-111955537D01*
X151380820Y-112014502D01*
X151500518Y-112050812D01*
X151625000Y-112063072D01*
X151814250Y-112060000D01*
X151973000Y-111901250D01*
X151973000Y-111114500D01*
X151148750Y-111114500D01*
X150990000Y-111273250D01*
X150986928Y-111425000D01*
X147880957Y-111425000D01*
X147896608Y-111373408D01*
X147902485Y-111313738D01*
X148439223Y-110777000D01*
X148538906Y-110777000D01*
X148524188Y-110825518D01*
X148511928Y-110950000D01*
X148515000Y-111114250D01*
X148673750Y-111273000D01*
X149423000Y-111273000D01*
X149423000Y-111253000D01*
X149677000Y-111253000D01*
X149677000Y-111273000D01*
X150426250Y-111273000D01*
X150585000Y-111114250D01*
X150588072Y-110950000D01*
X150575812Y-110825518D01*
X150561094Y-110777000D01*
X151065250Y-110777000D01*
X151148750Y-110860500D01*
X151973000Y-110860500D01*
X151973000Y-110840500D01*
X152227000Y-110840500D01*
X152227000Y-110860500D01*
X152247000Y-110860500D01*
X152247000Y-111114500D01*
X152227000Y-111114500D01*
X152227000Y-111901250D01*
X152262800Y-111937050D01*
X152262800Y-112524130D01*
X152205595Y-112609744D01*
X152127574Y-112798102D01*
X152087800Y-112998061D01*
X152087800Y-113201939D01*
X152127574Y-113401898D01*
X152205595Y-113590256D01*
X152318863Y-113759774D01*
X152463026Y-113903937D01*
X152632544Y-114017205D01*
X152820902Y-114095226D01*
X153020861Y-114135000D01*
X153224739Y-114135000D01*
X153424698Y-114095226D01*
X153613056Y-114017205D01*
X153782574Y-113903937D01*
X153926737Y-113759774D01*
X154040005Y-113590256D01*
X154118026Y-113401898D01*
X154157800Y-113201939D01*
X154157800Y-112998061D01*
X154118026Y-112798102D01*
X154040005Y-112609744D01*
X153982800Y-112524130D01*
X153982800Y-110777000D01*
X177240001Y-110777000D01*
X177240000Y-112524130D01*
X177182795Y-112609744D01*
X177104774Y-112798102D01*
X177065000Y-112998061D01*
X177065000Y-113201939D01*
X177104774Y-113401898D01*
X177182795Y-113590256D01*
X177296063Y-113759774D01*
X177440226Y-113903937D01*
X177609744Y-114017205D01*
X177798102Y-114095226D01*
X177998061Y-114135000D01*
X178201939Y-114135000D01*
X178401898Y-114095226D01*
X178590256Y-114017205D01*
X178759774Y-113903937D01*
X178903937Y-113759774D01*
X179017205Y-113590256D01*
X179095226Y-113401898D01*
X179135000Y-113201939D01*
X179135000Y-112998061D01*
X179095226Y-112798102D01*
X179017205Y-112609744D01*
X178960000Y-112524130D01*
X178960000Y-110777000D01*
X184365355Y-110777000D01*
X178302346Y-116840010D01*
X143456234Y-116840010D01*
X142972296Y-116356072D01*
X143075000Y-116356072D01*
X143199482Y-116343812D01*
X143319180Y-116307502D01*
X143429494Y-116248537D01*
X143526185Y-116169185D01*
X143605537Y-116072494D01*
X143664502Y-115962180D01*
X143700812Y-115842482D01*
X143713072Y-115718000D01*
X143713072Y-114381072D01*
X145050000Y-114381072D01*
X145174482Y-114368812D01*
X145294180Y-114332502D01*
X145404494Y-114273537D01*
X145501185Y-114194185D01*
X145580537Y-114097494D01*
X145639502Y-113987180D01*
X145675812Y-113867482D01*
X145688072Y-113743000D01*
X145688072Y-113193000D01*
X145675812Y-113068518D01*
X145675655Y-113068000D01*
X145675812Y-113067482D01*
X145688072Y-112943000D01*
X145688072Y-112393000D01*
X145675812Y-112268518D01*
X145675655Y-112268000D01*
X145675812Y-112267482D01*
X145688072Y-112143000D01*
X145688072Y-111593000D01*
X145675812Y-111468518D01*
X145675467Y-111467380D01*
X145685000Y-111353750D01*
X145592917Y-111261667D01*
X145580537Y-111238506D01*
X145501185Y-111141815D01*
X145411241Y-111068000D01*
X145501185Y-110994185D01*
X145580537Y-110897494D01*
X145592917Y-110874333D01*
X145685000Y-110782250D01*
X145684560Y-110777000D01*
X145686928Y-110777000D01*
X145686928Y-111206250D01*
G36*
X101990001Y-112424129D02*
G01*
X101932795Y-112509744D01*
X101854774Y-112698102D01*
X101815000Y-112898061D01*
X101815000Y-113101939D01*
X101854774Y-113301898D01*
X101932795Y-113490256D01*
X102046063Y-113659774D01*
X102190226Y-113803937D01*
X102359744Y-113917205D01*
X102548102Y-113995226D01*
X102748061Y-114035000D01*
X102951939Y-114035000D01*
X103151898Y-113995226D01*
X103340256Y-113917205D01*
X103509774Y-113803937D01*
X103653937Y-113659774D01*
X103767205Y-113490256D01*
X103845226Y-113301898D01*
X103885000Y-113101939D01*
X103885000Y-112898061D01*
X103845226Y-112698102D01*
X103767205Y-112509744D01*
X103710000Y-112424130D01*
X103710000Y-110777000D01*
X125157724Y-110777000D01*
X125157724Y-110975485D01*
X125153564Y-111017724D01*
X125157724Y-111059963D01*
X125157724Y-111059969D01*
X125170168Y-111186312D01*
X125219343Y-111348423D01*
X125299200Y-111497825D01*
X125406670Y-111628778D01*
X125439489Y-111655712D01*
X127084686Y-113300910D01*
X127104774Y-113401898D01*
X127182795Y-113590256D01*
X127296063Y-113759774D01*
X127440226Y-113903937D01*
X127609744Y-114017205D01*
X127798102Y-114095226D01*
X127998061Y-114135000D01*
X128201939Y-114135000D01*
X128361928Y-114103176D01*
X128361928Y-115000000D01*
X128374188Y-115124482D01*
X128410498Y-115244180D01*
X128469463Y-115354494D01*
X128548815Y-115451185D01*
X128592947Y-115487403D01*
X128565892Y-115576592D01*
X128549428Y-115743750D01*
X128549428Y-116256250D01*
X128565892Y-116423408D01*
X128614650Y-116584142D01*
X128693829Y-116732275D01*
X128782244Y-116840010D01*
X103297655Y-116840010D01*
X97234644Y-110777000D01*
X101990000Y-110777000D01*
X101990001Y-112424129D01*
X101990001Y-112424129D01*
G37*
X101990001Y-112424129D02*
X101932795Y-112509744D01*
X101854774Y-112698102D01*
X101815000Y-112898061D01*
X101815000Y-113101939D01*
X101854774Y-113301898D01*
X101932795Y-113490256D01*
X102046063Y-113659774D01*
X102190226Y-113803937D01*
X102359744Y-113917205D01*
X102548102Y-113995226D01*
X102748061Y-114035000D01*
X102951939Y-114035000D01*
X103151898Y-113995226D01*
X103340256Y-113917205D01*
X103509774Y-113803937D01*
X103653937Y-113659774D01*
X103767205Y-113490256D01*
X103845226Y-113301898D01*
X103885000Y-113101939D01*
X103885000Y-112898061D01*
X103845226Y-112698102D01*
X103767205Y-112509744D01*
X103710000Y-112424130D01*
X103710000Y-110777000D01*
X125157724Y-110777000D01*
X125157724Y-110975485D01*
X125153564Y-111017724D01*
X125157724Y-111059963D01*
X125157724Y-111059969D01*
X125170168Y-111186312D01*
X125219343Y-111348423D01*
X125299200Y-111497825D01*
X125406670Y-111628778D01*
X125439489Y-111655712D01*
X127084686Y-113300910D01*
X127104774Y-113401898D01*
X127182795Y-113590256D01*
X127296063Y-113759774D01*
X127440226Y-113903937D01*
X127609744Y-114017205D01*
X127798102Y-114095226D01*
X127998061Y-114135000D01*
X128201939Y-114135000D01*
X128361928Y-114103176D01*
X128361928Y-115000000D01*
X128374188Y-115124482D01*
X128410498Y-115244180D01*
X128469463Y-115354494D01*
X128548815Y-115451185D01*
X128592947Y-115487403D01*
X128565892Y-115576592D01*
X128549428Y-115743750D01*
X128549428Y-116256250D01*
X128565892Y-116423408D01*
X128614650Y-116584142D01*
X128693829Y-116732275D01*
X128782244Y-116840010D01*
X103297655Y-116840010D01*
X97234644Y-110777000D01*
X101990000Y-110777000D01*
X101990001Y-112424129D01*
G36*
X131286928Y-110875000D02*
G01*
X131299188Y-110999482D01*
X131335498Y-111119180D01*
X131378698Y-111200000D01*
X131335498Y-111280820D01*
X131299188Y-111400518D01*
X131286928Y-111525000D01*
X131290000Y-111714250D01*
X131448750Y-111873000D01*
X132235500Y-111873000D01*
X132235500Y-110777000D01*
X132489500Y-110777000D01*
X132489500Y-111873000D01*
X132509500Y-111873000D01*
X132509500Y-112127000D01*
X132489500Y-112127000D01*
X132489500Y-112951250D01*
X132648250Y-113110000D01*
X132800000Y-113113072D01*
X132924482Y-113100812D01*
X133044180Y-113064502D01*
X133154494Y-113005537D01*
X133221070Y-112950900D01*
X133242725Y-112968671D01*
X133390858Y-113047850D01*
X133551592Y-113096608D01*
X133718750Y-113113072D01*
X134156250Y-113113072D01*
X134321402Y-113096806D01*
X134311928Y-113193000D01*
X134311928Y-113743000D01*
X134324188Y-113867482D01*
X134360498Y-113987180D01*
X134419463Y-114097494D01*
X134498815Y-114194185D01*
X134595506Y-114273537D01*
X134705820Y-114332502D01*
X134825518Y-114368812D01*
X134950000Y-114381072D01*
X136286928Y-114381072D01*
X136286928Y-115686928D01*
X136168750Y-115686928D01*
X136001592Y-115703392D01*
X135840858Y-115752150D01*
X135823127Y-115761627D01*
X135835000Y-115701939D01*
X135835000Y-115498061D01*
X135795226Y-115298102D01*
X135717205Y-115109744D01*
X135603937Y-114940226D01*
X135459774Y-114796063D01*
X135290256Y-114682795D01*
X135101898Y-114604774D01*
X134901939Y-114565000D01*
X134698061Y-114565000D01*
X134498102Y-114604774D01*
X134309744Y-114682795D01*
X134140226Y-114796063D01*
X133996063Y-114940226D01*
X133882795Y-115109744D01*
X133804774Y-115298102D01*
X133765000Y-115498061D01*
X133765000Y-115701939D01*
X133804774Y-115901898D01*
X133876897Y-116076017D01*
X133802150Y-116215858D01*
X133753392Y-116376592D01*
X133736928Y-116543750D01*
X133736928Y-116840010D01*
X132159407Y-116840010D01*
X132168037Y-116829494D01*
X132227002Y-116719180D01*
X132263312Y-116599482D01*
X132275572Y-116475000D01*
X132272500Y-116285750D01*
X132113750Y-116127000D01*
X131327000Y-116127000D01*
X131327000Y-116147000D01*
X131073000Y-116147000D01*
X131073000Y-116127000D01*
X131053000Y-116127000D01*
X131053000Y-115873000D01*
X131073000Y-115873000D01*
X131073000Y-115048750D01*
X131327000Y-115048750D01*
X131327000Y-115873000D01*
X132113750Y-115873000D01*
X132272500Y-115714250D01*
X132275572Y-115525000D01*
X132263312Y-115400518D01*
X132227002Y-115280820D01*
X132168037Y-115170506D01*
X132088685Y-115073815D01*
X131991994Y-114994463D01*
X131881680Y-114935498D01*
X131761982Y-114899188D01*
X131637500Y-114886928D01*
X131485750Y-114890000D01*
X131327000Y-115048750D01*
X131073000Y-115048750D01*
X130914250Y-114890000D01*
X130838072Y-114888458D01*
X130838072Y-112475000D01*
X131286928Y-112475000D01*
X131299188Y-112599482D01*
X131335498Y-112719180D01*
X131394463Y-112829494D01*
X131473815Y-112926185D01*
X131570506Y-113005537D01*
X131680820Y-113064502D01*
X131800518Y-113100812D01*
X131925000Y-113113072D01*
X132076750Y-113110000D01*
X132235500Y-112951250D01*
X132235500Y-112127000D01*
X131448750Y-112127000D01*
X131290000Y-112285750D01*
X131286928Y-112475000D01*
X130838072Y-112475000D01*
X130838072Y-111500000D01*
X130825812Y-111375518D01*
X130789502Y-111255820D01*
X130730537Y-111145506D01*
X130726111Y-111140113D01*
X131089224Y-110777000D01*
X131288519Y-110777000D01*
X131286928Y-110875000D01*
X131286928Y-110875000D01*
G37*
X131286928Y-110875000D02*
X131299188Y-110999482D01*
X131335498Y-111119180D01*
X131378698Y-111200000D01*
X131335498Y-111280820D01*
X131299188Y-111400518D01*
X131286928Y-111525000D01*
X131290000Y-111714250D01*
X131448750Y-111873000D01*
X132235500Y-111873000D01*
X132235500Y-110777000D01*
X132489500Y-110777000D01*
X132489500Y-111873000D01*
X132509500Y-111873000D01*
X132509500Y-112127000D01*
X132489500Y-112127000D01*
X132489500Y-112951250D01*
X132648250Y-113110000D01*
X132800000Y-113113072D01*
X132924482Y-113100812D01*
X133044180Y-113064502D01*
X133154494Y-113005537D01*
X133221070Y-112950900D01*
X133242725Y-112968671D01*
X133390858Y-113047850D01*
X133551592Y-113096608D01*
X133718750Y-113113072D01*
X134156250Y-113113072D01*
X134321402Y-113096806D01*
X134311928Y-113193000D01*
X134311928Y-113743000D01*
X134324188Y-113867482D01*
X134360498Y-113987180D01*
X134419463Y-114097494D01*
X134498815Y-114194185D01*
X134595506Y-114273537D01*
X134705820Y-114332502D01*
X134825518Y-114368812D01*
X134950000Y-114381072D01*
X136286928Y-114381072D01*
X136286928Y-115686928D01*
X136168750Y-115686928D01*
X136001592Y-115703392D01*
X135840858Y-115752150D01*
X135823127Y-115761627D01*
X135835000Y-115701939D01*
X135835000Y-115498061D01*
X135795226Y-115298102D01*
X135717205Y-115109744D01*
X135603937Y-114940226D01*
X135459774Y-114796063D01*
X135290256Y-114682795D01*
X135101898Y-114604774D01*
X134901939Y-114565000D01*
X134698061Y-114565000D01*
X134498102Y-114604774D01*
X134309744Y-114682795D01*
X134140226Y-114796063D01*
X133996063Y-114940226D01*
X133882795Y-115109744D01*
X133804774Y-115298102D01*
X133765000Y-115498061D01*
X133765000Y-115701939D01*
X133804774Y-115901898D01*
X133876897Y-116076017D01*
X133802150Y-116215858D01*
X133753392Y-116376592D01*
X133736928Y-116543750D01*
X133736928Y-116840010D01*
X132159407Y-116840010D01*
X132168037Y-116829494D01*
X132227002Y-116719180D01*
X132263312Y-116599482D01*
X132275572Y-116475000D01*
X132272500Y-116285750D01*
X132113750Y-116127000D01*
X131327000Y-116127000D01*
X131327000Y-116147000D01*
X131073000Y-116147000D01*
X131073000Y-116127000D01*
X131053000Y-116127000D01*
X131053000Y-115873000D01*
X131073000Y-115873000D01*
X131073000Y-115048750D01*
X131327000Y-115048750D01*
X131327000Y-115873000D01*
X132113750Y-115873000D01*
X132272500Y-115714250D01*
X132275572Y-115525000D01*
X132263312Y-115400518D01*
X132227002Y-115280820D01*
X132168037Y-115170506D01*
X132088685Y-115073815D01*
X131991994Y-114994463D01*
X131881680Y-114935498D01*
X131761982Y-114899188D01*
X131637500Y-114886928D01*
X131485750Y-114890000D01*
X131327000Y-115048750D01*
X131073000Y-115048750D01*
X130914250Y-114890000D01*
X130838072Y-114888458D01*
X130838072Y-112475000D01*
X131286928Y-112475000D01*
X131299188Y-112599482D01*
X131335498Y-112719180D01*
X131394463Y-112829494D01*
X131473815Y-112926185D01*
X131570506Y-113005537D01*
X131680820Y-113064502D01*
X131800518Y-113100812D01*
X131925000Y-113113072D01*
X132076750Y-113110000D01*
X132235500Y-112951250D01*
X132235500Y-112127000D01*
X131448750Y-112127000D01*
X131290000Y-112285750D01*
X131286928Y-112475000D01*
X130838072Y-112475000D01*
X130838072Y-111500000D01*
X130825812Y-111375518D01*
X130789502Y-111255820D01*
X130730537Y-111145506D01*
X130726111Y-111140113D01*
X131089224Y-110777000D01*
X131288519Y-110777000D01*
X131286928Y-110875000D01*
G36*
X142815000Y-110782250D02*
G01*
X142907083Y-110874333D01*
X142919463Y-110897494D01*
X142998815Y-110994185D01*
X143088759Y-111068000D01*
X142998815Y-111141815D01*
X142919463Y-111238506D01*
X142907083Y-111261667D01*
X142815000Y-111353750D01*
X142824533Y-111467380D01*
X142824188Y-111468518D01*
X142811928Y-111593000D01*
X142811928Y-112143000D01*
X142824188Y-112267482D01*
X142824345Y-112268000D01*
X142824188Y-112268518D01*
X142811928Y-112393000D01*
X142811928Y-112943000D01*
X142824188Y-113067482D01*
X142824345Y-113068000D01*
X142824188Y-113068518D01*
X142811928Y-113193000D01*
X142811928Y-113479928D01*
X142525000Y-113479928D01*
X142400518Y-113492188D01*
X142400000Y-113492345D01*
X142399482Y-113492188D01*
X142275000Y-113479928D01*
X141725000Y-113479928D01*
X141600518Y-113492188D01*
X141600000Y-113492345D01*
X141599482Y-113492188D01*
X141475000Y-113479928D01*
X140925000Y-113479928D01*
X140800518Y-113492188D01*
X140800000Y-113492345D01*
X140799482Y-113492188D01*
X140675000Y-113479928D01*
X140650525Y-113479928D01*
X140656134Y-113474319D01*
X140769402Y-113304801D01*
X140847423Y-113116443D01*
X140887197Y-112916484D01*
X140887197Y-112712606D01*
X140847423Y-112512647D01*
X140769402Y-112324289D01*
X140656134Y-112154771D01*
X140511971Y-112010608D01*
X140342453Y-111897340D01*
X140154095Y-111819319D01*
X139954136Y-111779545D01*
X139750258Y-111779545D01*
X139550299Y-111819319D01*
X139361941Y-111897340D01*
X139192423Y-112010608D01*
X139048260Y-112154771D01*
X138934992Y-112324289D01*
X138856971Y-112512647D01*
X138836883Y-112613635D01*
X138707115Y-112743404D01*
X138659774Y-112696063D01*
X138490256Y-112582795D01*
X138301898Y-112504774D01*
X138225783Y-112489634D01*
X138292184Y-112390257D01*
X138370205Y-112201899D01*
X138409979Y-112001940D01*
X138409979Y-111798062D01*
X138370205Y-111598103D01*
X138292184Y-111409745D01*
X138178916Y-111240227D01*
X138034753Y-111096064D01*
X137865235Y-110982796D01*
X137705026Y-110916435D01*
X137693504Y-110894878D01*
X137658921Y-110852739D01*
X137732732Y-110860009D01*
X137732738Y-110860009D01*
X137774977Y-110864169D01*
X137817216Y-110860009D01*
X142257752Y-110860009D01*
X142299991Y-110864169D01*
X142342230Y-110860009D01*
X142342237Y-110860009D01*
X142468580Y-110847565D01*
X142630691Y-110798390D01*
X142670709Y-110777000D01*
X142815440Y-110777000D01*
X142815000Y-110782250D01*
X142815000Y-110782250D01*
G37*
X142815000Y-110782250D02*
X142907083Y-110874333D01*
X142919463Y-110897494D01*
X142998815Y-110994185D01*
X143088759Y-111068000D01*
X142998815Y-111141815D01*
X142919463Y-111238506D01*
X142907083Y-111261667D01*
X142815000Y-111353750D01*
X142824533Y-111467380D01*
X142824188Y-111468518D01*
X142811928Y-111593000D01*
X142811928Y-112143000D01*
X142824188Y-112267482D01*
X142824345Y-112268000D01*
X142824188Y-112268518D01*
X142811928Y-112393000D01*
X142811928Y-112943000D01*
X142824188Y-113067482D01*
X142824345Y-113068000D01*
X142824188Y-113068518D01*
X142811928Y-113193000D01*
X142811928Y-113479928D01*
X142525000Y-113479928D01*
X142400518Y-113492188D01*
X142400000Y-113492345D01*
X142399482Y-113492188D01*
X142275000Y-113479928D01*
X141725000Y-113479928D01*
X141600518Y-113492188D01*
X141600000Y-113492345D01*
X141599482Y-113492188D01*
X141475000Y-113479928D01*
X140925000Y-113479928D01*
X140800518Y-113492188D01*
X140800000Y-113492345D01*
X140799482Y-113492188D01*
X140675000Y-113479928D01*
X140650525Y-113479928D01*
X140656134Y-113474319D01*
X140769402Y-113304801D01*
X140847423Y-113116443D01*
X140887197Y-112916484D01*
X140887197Y-112712606D01*
X140847423Y-112512647D01*
X140769402Y-112324289D01*
X140656134Y-112154771D01*
X140511971Y-112010608D01*
X140342453Y-111897340D01*
X140154095Y-111819319D01*
X139954136Y-111779545D01*
X139750258Y-111779545D01*
X139550299Y-111819319D01*
X139361941Y-111897340D01*
X139192423Y-112010608D01*
X139048260Y-112154771D01*
X138934992Y-112324289D01*
X138856971Y-112512647D01*
X138836883Y-112613635D01*
X138707115Y-112743404D01*
X138659774Y-112696063D01*
X138490256Y-112582795D01*
X138301898Y-112504774D01*
X138225783Y-112489634D01*
X138292184Y-112390257D01*
X138370205Y-112201899D01*
X138409979Y-112001940D01*
X138409979Y-111798062D01*
X138370205Y-111598103D01*
X138292184Y-111409745D01*
X138178916Y-111240227D01*
X138034753Y-111096064D01*
X137865235Y-110982796D01*
X137705026Y-110916435D01*
X137693504Y-110894878D01*
X137658921Y-110852739D01*
X137732732Y-110860009D01*
X137732738Y-110860009D01*
X137774977Y-110864169D01*
X137817216Y-110860009D01*
X142257752Y-110860009D01*
X142299991Y-110864169D01*
X142342230Y-110860009D01*
X142342237Y-110860009D01*
X142468580Y-110847565D01*
X142630691Y-110798390D01*
X142670709Y-110777000D01*
X142815440Y-110777000D01*
X142815000Y-110782250D01*
M02*
