M48
; DRILL file {KiCad (5.1.2)-2} date 2/18/2020 11:35:59 PM
; FORMAT={-:-/ absolute / metric / decimal}
; #@! TF.CreationDate,2020-02-18T23:35:59-05:00
; #@! TF.GenerationSoftware,Kicad,Pcbnew,(5.1.2)-2
; #@! TF.FileFunction,Plated,1,2,PTH
FMAT,2
METRIC
T1C0.400
T2C1.000
T3C1.700
%
G90
G05
T1
X100.55Y-103.35
X100.7Y-107.15
X101.9Y-107.1
X102.2Y-101.6
X102.85Y-113.0
X103.1Y-107.1
X103.8Y-102.525
X104.2Y-107.1
X110.6Y-111.15
X110.6Y-116.1
X110.65Y-112.35
X110.65Y-113.55
X110.65Y-114.85
X111.957Y-111.15
X111.957Y-116.1
X112.007Y-112.35
X112.007Y-113.55
X112.007Y-114.85
X113.314Y-111.15
X113.314Y-116.1
X113.364Y-112.35
X113.364Y-113.55
X113.364Y-114.85
X114.671Y-111.15
X114.671Y-116.1
X114.721Y-112.35
X114.721Y-113.55
X114.721Y-114.85
X116.029Y-111.15
X116.029Y-116.1
X116.079Y-112.35
X116.079Y-113.55
X116.079Y-114.85
X117.386Y-111.15
X117.386Y-116.1
X117.436Y-112.35
X117.436Y-113.55
X117.436Y-114.85
X118.743Y-111.15
X118.743Y-116.1
X118.793Y-112.35
X118.793Y-113.55
X118.793Y-114.85
X120.1Y-111.15
X120.1Y-116.1
X120.15Y-112.35
X120.15Y-113.55
X120.15Y-114.85
X125.55Y-103.35
X126.018Y-107.103
X127.018Y-107.1
X127.2Y-101.6
X128.1Y-107.1
X128.1Y-113.1
X128.8Y-102.55
X132.25Y-105.1
X133.55Y-114.65
X133.55Y-115.65
X134.8Y-115.6
X137.375Y-109.6
X137.375Y-111.9
X138.0Y-113.5
X139.8Y-109.125
X139.852Y-112.815
X140.85Y-116.8
X140.85Y-118.7
X141.146Y-108.946
X142.318Y-108.318
X142.75Y-109.55
X143.3Y-104.35
X144.95Y-105.75
X145.35Y-104.25
X150.55Y-108.3
X150.6Y-101.6
X150.608Y-107.108
X151.9Y-107.1
X152.2Y-103.35
X153.1Y-107.1
X153.123Y-113.1
X153.75Y-102.475
X154.2Y-107.1
X160.5Y-111.15
X160.5Y-116.1
X160.55Y-112.35
X160.55Y-113.55
X160.55Y-114.85
X161.857Y-111.15
X161.857Y-116.1
X161.907Y-112.35
X161.907Y-113.55
X161.907Y-114.85
X163.214Y-111.15
X163.214Y-116.1
X163.264Y-112.35
X163.264Y-113.55
X163.264Y-114.85
X164.571Y-111.15
X164.571Y-116.1
X164.621Y-112.35
X164.621Y-113.55
X164.621Y-114.85
X165.929Y-111.15
X165.929Y-116.1
X165.979Y-112.35
X165.979Y-113.55
X165.979Y-114.85
X167.286Y-111.15
X167.286Y-116.1
X167.336Y-112.35
X167.336Y-113.55
X167.336Y-114.85
X168.643Y-111.15
X168.643Y-116.1
X168.693Y-112.35
X168.693Y-113.55
X168.693Y-114.85
X170.0Y-111.15
X170.0Y-116.1
X170.05Y-112.35
X170.05Y-113.55
X170.05Y-114.85
X175.55Y-101.6
X175.6Y-107.1
X176.9Y-107.1
X177.15Y-103.35
X178.1Y-107.1
X178.1Y-113.1
X178.7Y-102.475
X179.2Y-107.1
T2
X134.95Y-101.9
X137.49Y-101.9
X140.03Y-101.9
X142.57Y-101.9
X145.11Y-101.9
X92.0Y-108.5
X92.0Y-111.5
X188.0Y-108.5
X188.0Y-111.5
T3
X93.5Y-105.6
X93.5Y-114.4
X186.5Y-105.6
X186.5Y-114.4
T0
M30
