G04 #@! TF.GenerationSoftware,KiCad,Pcbnew,(5.1.2)-2*
G04 #@! TF.CreationDate,2020-03-05T19:43:02-05:00*
G04 #@! TF.ProjectId,AddressableLED,41646472-6573-4736-9162-6c654c45442e,rev?*
G04 #@! TF.SameCoordinates,Original*
G04 #@! TF.FileFunction,Paste,Bot*
G04 #@! TF.FilePolarity,Positive*
%FSLAX46Y46*%
G04 Gerber Fmt 4.6, Leading zero omitted, Abs format (unit mm)*
G04 Created by KiCad (PCBNEW (5.1.2)-2) date 2020-03-05 19:43:02*
%MOMM*%
%LPD*%
G04 APERTURE LIST*
%ADD10C,0.100000*%
%ADD11C,0.875000*%
%ADD12R,0.450000X1.450000*%
%ADD13R,0.900000X0.800000*%
%ADD14R,0.800000X0.900000*%
G04 APERTURE END LIST*
D10*
G36*
X139227691Y-102976053D02*
G01*
X139248926Y-102979203D01*
X139269750Y-102984419D01*
X139289962Y-102991651D01*
X139309368Y-103000830D01*
X139327781Y-103011866D01*
X139345024Y-103024654D01*
X139360930Y-103039070D01*
X139375346Y-103054976D01*
X139388134Y-103072219D01*
X139399170Y-103090632D01*
X139408349Y-103110038D01*
X139415581Y-103130250D01*
X139420797Y-103151074D01*
X139423947Y-103172309D01*
X139425000Y-103193750D01*
X139425000Y-103631250D01*
X139423947Y-103652691D01*
X139420797Y-103673926D01*
X139415581Y-103694750D01*
X139408349Y-103714962D01*
X139399170Y-103734368D01*
X139388134Y-103752781D01*
X139375346Y-103770024D01*
X139360930Y-103785930D01*
X139345024Y-103800346D01*
X139327781Y-103813134D01*
X139309368Y-103824170D01*
X139289962Y-103833349D01*
X139269750Y-103840581D01*
X139248926Y-103845797D01*
X139227691Y-103848947D01*
X139206250Y-103850000D01*
X138693750Y-103850000D01*
X138672309Y-103848947D01*
X138651074Y-103845797D01*
X138630250Y-103840581D01*
X138610038Y-103833349D01*
X138590632Y-103824170D01*
X138572219Y-103813134D01*
X138554976Y-103800346D01*
X138539070Y-103785930D01*
X138524654Y-103770024D01*
X138511866Y-103752781D01*
X138500830Y-103734368D01*
X138491651Y-103714962D01*
X138484419Y-103694750D01*
X138479203Y-103673926D01*
X138476053Y-103652691D01*
X138475000Y-103631250D01*
X138475000Y-103193750D01*
X138476053Y-103172309D01*
X138479203Y-103151074D01*
X138484419Y-103130250D01*
X138491651Y-103110038D01*
X138500830Y-103090632D01*
X138511866Y-103072219D01*
X138524654Y-103054976D01*
X138539070Y-103039070D01*
X138554976Y-103024654D01*
X138572219Y-103011866D01*
X138590632Y-103000830D01*
X138610038Y-102991651D01*
X138630250Y-102984419D01*
X138651074Y-102979203D01*
X138672309Y-102976053D01*
X138693750Y-102975000D01*
X139206250Y-102975000D01*
X139227691Y-102976053D01*
X139227691Y-102976053D01*
G37*
D11*
X138950000Y-103412500D03*
D10*
G36*
X139227691Y-104551053D02*
G01*
X139248926Y-104554203D01*
X139269750Y-104559419D01*
X139289962Y-104566651D01*
X139309368Y-104575830D01*
X139327781Y-104586866D01*
X139345024Y-104599654D01*
X139360930Y-104614070D01*
X139375346Y-104629976D01*
X139388134Y-104647219D01*
X139399170Y-104665632D01*
X139408349Y-104685038D01*
X139415581Y-104705250D01*
X139420797Y-104726074D01*
X139423947Y-104747309D01*
X139425000Y-104768750D01*
X139425000Y-105206250D01*
X139423947Y-105227691D01*
X139420797Y-105248926D01*
X139415581Y-105269750D01*
X139408349Y-105289962D01*
X139399170Y-105309368D01*
X139388134Y-105327781D01*
X139375346Y-105345024D01*
X139360930Y-105360930D01*
X139345024Y-105375346D01*
X139327781Y-105388134D01*
X139309368Y-105399170D01*
X139289962Y-105408349D01*
X139269750Y-105415581D01*
X139248926Y-105420797D01*
X139227691Y-105423947D01*
X139206250Y-105425000D01*
X138693750Y-105425000D01*
X138672309Y-105423947D01*
X138651074Y-105420797D01*
X138630250Y-105415581D01*
X138610038Y-105408349D01*
X138590632Y-105399170D01*
X138572219Y-105388134D01*
X138554976Y-105375346D01*
X138539070Y-105360930D01*
X138524654Y-105345024D01*
X138511866Y-105327781D01*
X138500830Y-105309368D01*
X138491651Y-105289962D01*
X138484419Y-105269750D01*
X138479203Y-105248926D01*
X138476053Y-105227691D01*
X138475000Y-105206250D01*
X138475000Y-104768750D01*
X138476053Y-104747309D01*
X138479203Y-104726074D01*
X138484419Y-104705250D01*
X138491651Y-104685038D01*
X138500830Y-104665632D01*
X138511866Y-104647219D01*
X138524654Y-104629976D01*
X138539070Y-104614070D01*
X138554976Y-104599654D01*
X138572219Y-104586866D01*
X138590632Y-104575830D01*
X138610038Y-104566651D01*
X138630250Y-104559419D01*
X138651074Y-104554203D01*
X138672309Y-104551053D01*
X138693750Y-104550000D01*
X139206250Y-104550000D01*
X139227691Y-104551053D01*
X139227691Y-104551053D01*
G37*
D11*
X138950000Y-104987500D03*
D10*
G36*
X146077691Y-101126053D02*
G01*
X146098926Y-101129203D01*
X146119750Y-101134419D01*
X146139962Y-101141651D01*
X146159368Y-101150830D01*
X146177781Y-101161866D01*
X146195024Y-101174654D01*
X146210930Y-101189070D01*
X146225346Y-101204976D01*
X146238134Y-101222219D01*
X146249170Y-101240632D01*
X146258349Y-101260038D01*
X146265581Y-101280250D01*
X146270797Y-101301074D01*
X146273947Y-101322309D01*
X146275000Y-101343750D01*
X146275000Y-101856250D01*
X146273947Y-101877691D01*
X146270797Y-101898926D01*
X146265581Y-101919750D01*
X146258349Y-101939962D01*
X146249170Y-101959368D01*
X146238134Y-101977781D01*
X146225346Y-101995024D01*
X146210930Y-102010930D01*
X146195024Y-102025346D01*
X146177781Y-102038134D01*
X146159368Y-102049170D01*
X146139962Y-102058349D01*
X146119750Y-102065581D01*
X146098926Y-102070797D01*
X146077691Y-102073947D01*
X146056250Y-102075000D01*
X145618750Y-102075000D01*
X145597309Y-102073947D01*
X145576074Y-102070797D01*
X145555250Y-102065581D01*
X145535038Y-102058349D01*
X145515632Y-102049170D01*
X145497219Y-102038134D01*
X145479976Y-102025346D01*
X145464070Y-102010930D01*
X145449654Y-101995024D01*
X145436866Y-101977781D01*
X145425830Y-101959368D01*
X145416651Y-101939962D01*
X145409419Y-101919750D01*
X145404203Y-101898926D01*
X145401053Y-101877691D01*
X145400000Y-101856250D01*
X145400000Y-101343750D01*
X145401053Y-101322309D01*
X145404203Y-101301074D01*
X145409419Y-101280250D01*
X145416651Y-101260038D01*
X145425830Y-101240632D01*
X145436866Y-101222219D01*
X145449654Y-101204976D01*
X145464070Y-101189070D01*
X145479976Y-101174654D01*
X145497219Y-101161866D01*
X145515632Y-101150830D01*
X145535038Y-101141651D01*
X145555250Y-101134419D01*
X145576074Y-101129203D01*
X145597309Y-101126053D01*
X145618750Y-101125000D01*
X146056250Y-101125000D01*
X146077691Y-101126053D01*
X146077691Y-101126053D01*
G37*
D11*
X145837500Y-101600000D03*
D10*
G36*
X144502691Y-101126053D02*
G01*
X144523926Y-101129203D01*
X144544750Y-101134419D01*
X144564962Y-101141651D01*
X144584368Y-101150830D01*
X144602781Y-101161866D01*
X144620024Y-101174654D01*
X144635930Y-101189070D01*
X144650346Y-101204976D01*
X144663134Y-101222219D01*
X144674170Y-101240632D01*
X144683349Y-101260038D01*
X144690581Y-101280250D01*
X144695797Y-101301074D01*
X144698947Y-101322309D01*
X144700000Y-101343750D01*
X144700000Y-101856250D01*
X144698947Y-101877691D01*
X144695797Y-101898926D01*
X144690581Y-101919750D01*
X144683349Y-101939962D01*
X144674170Y-101959368D01*
X144663134Y-101977781D01*
X144650346Y-101995024D01*
X144635930Y-102010930D01*
X144620024Y-102025346D01*
X144602781Y-102038134D01*
X144584368Y-102049170D01*
X144564962Y-102058349D01*
X144544750Y-102065581D01*
X144523926Y-102070797D01*
X144502691Y-102073947D01*
X144481250Y-102075000D01*
X144043750Y-102075000D01*
X144022309Y-102073947D01*
X144001074Y-102070797D01*
X143980250Y-102065581D01*
X143960038Y-102058349D01*
X143940632Y-102049170D01*
X143922219Y-102038134D01*
X143904976Y-102025346D01*
X143889070Y-102010930D01*
X143874654Y-101995024D01*
X143861866Y-101977781D01*
X143850830Y-101959368D01*
X143841651Y-101939962D01*
X143834419Y-101919750D01*
X143829203Y-101898926D01*
X143826053Y-101877691D01*
X143825000Y-101856250D01*
X143825000Y-101343750D01*
X143826053Y-101322309D01*
X143829203Y-101301074D01*
X143834419Y-101280250D01*
X143841651Y-101260038D01*
X143850830Y-101240632D01*
X143861866Y-101222219D01*
X143874654Y-101204976D01*
X143889070Y-101189070D01*
X143904976Y-101174654D01*
X143922219Y-101161866D01*
X143940632Y-101150830D01*
X143960038Y-101141651D01*
X143980250Y-101134419D01*
X144001074Y-101129203D01*
X144022309Y-101126053D01*
X144043750Y-101125000D01*
X144481250Y-101125000D01*
X144502691Y-101126053D01*
X144502691Y-101126053D01*
G37*
D11*
X144262500Y-101600000D03*
D12*
X137075000Y-112750000D03*
X137725000Y-112750000D03*
X138375000Y-112750000D03*
X139025000Y-112750000D03*
X139675000Y-112750000D03*
X140325000Y-112750000D03*
X140975000Y-112750000D03*
X141625000Y-112750000D03*
X142275000Y-112750000D03*
X142925000Y-112750000D03*
X142925000Y-106850000D03*
X142275000Y-106850000D03*
X141625000Y-106850000D03*
X140975000Y-106850000D03*
X140325000Y-106850000D03*
X139675000Y-106850000D03*
X139025000Y-106850000D03*
X138375000Y-106850000D03*
X137725000Y-106850000D03*
X137075000Y-106850000D03*
D10*
G36*
X146427691Y-111501053D02*
G01*
X146448926Y-111504203D01*
X146469750Y-111509419D01*
X146489962Y-111516651D01*
X146509368Y-111525830D01*
X146527781Y-111536866D01*
X146545024Y-111549654D01*
X146560930Y-111564070D01*
X146575346Y-111579976D01*
X146588134Y-111597219D01*
X146599170Y-111615632D01*
X146608349Y-111635038D01*
X146615581Y-111655250D01*
X146620797Y-111676074D01*
X146623947Y-111697309D01*
X146625000Y-111718750D01*
X146625000Y-112156250D01*
X146623947Y-112177691D01*
X146620797Y-112198926D01*
X146615581Y-112219750D01*
X146608349Y-112239962D01*
X146599170Y-112259368D01*
X146588134Y-112277781D01*
X146575346Y-112295024D01*
X146560930Y-112310930D01*
X146545024Y-112325346D01*
X146527781Y-112338134D01*
X146509368Y-112349170D01*
X146489962Y-112358349D01*
X146469750Y-112365581D01*
X146448926Y-112370797D01*
X146427691Y-112373947D01*
X146406250Y-112375000D01*
X145893750Y-112375000D01*
X145872309Y-112373947D01*
X145851074Y-112370797D01*
X145830250Y-112365581D01*
X145810038Y-112358349D01*
X145790632Y-112349170D01*
X145772219Y-112338134D01*
X145754976Y-112325346D01*
X145739070Y-112310930D01*
X145724654Y-112295024D01*
X145711866Y-112277781D01*
X145700830Y-112259368D01*
X145691651Y-112239962D01*
X145684419Y-112219750D01*
X145679203Y-112198926D01*
X145676053Y-112177691D01*
X145675000Y-112156250D01*
X145675000Y-111718750D01*
X145676053Y-111697309D01*
X145679203Y-111676074D01*
X145684419Y-111655250D01*
X145691651Y-111635038D01*
X145700830Y-111615632D01*
X145711866Y-111597219D01*
X145724654Y-111579976D01*
X145739070Y-111564070D01*
X145754976Y-111549654D01*
X145772219Y-111536866D01*
X145790632Y-111525830D01*
X145810038Y-111516651D01*
X145830250Y-111509419D01*
X145851074Y-111504203D01*
X145872309Y-111501053D01*
X145893750Y-111500000D01*
X146406250Y-111500000D01*
X146427691Y-111501053D01*
X146427691Y-111501053D01*
G37*
D11*
X146150000Y-111937500D03*
D10*
G36*
X146427691Y-109926053D02*
G01*
X146448926Y-109929203D01*
X146469750Y-109934419D01*
X146489962Y-109941651D01*
X146509368Y-109950830D01*
X146527781Y-109961866D01*
X146545024Y-109974654D01*
X146560930Y-109989070D01*
X146575346Y-110004976D01*
X146588134Y-110022219D01*
X146599170Y-110040632D01*
X146608349Y-110060038D01*
X146615581Y-110080250D01*
X146620797Y-110101074D01*
X146623947Y-110122309D01*
X146625000Y-110143750D01*
X146625000Y-110581250D01*
X146623947Y-110602691D01*
X146620797Y-110623926D01*
X146615581Y-110644750D01*
X146608349Y-110664962D01*
X146599170Y-110684368D01*
X146588134Y-110702781D01*
X146575346Y-110720024D01*
X146560930Y-110735930D01*
X146545024Y-110750346D01*
X146527781Y-110763134D01*
X146509368Y-110774170D01*
X146489962Y-110783349D01*
X146469750Y-110790581D01*
X146448926Y-110795797D01*
X146427691Y-110798947D01*
X146406250Y-110800000D01*
X145893750Y-110800000D01*
X145872309Y-110798947D01*
X145851074Y-110795797D01*
X145830250Y-110790581D01*
X145810038Y-110783349D01*
X145790632Y-110774170D01*
X145772219Y-110763134D01*
X145754976Y-110750346D01*
X145739070Y-110735930D01*
X145724654Y-110720024D01*
X145711866Y-110702781D01*
X145700830Y-110684368D01*
X145691651Y-110664962D01*
X145684419Y-110644750D01*
X145679203Y-110623926D01*
X145676053Y-110602691D01*
X145675000Y-110581250D01*
X145675000Y-110143750D01*
X145676053Y-110122309D01*
X145679203Y-110101074D01*
X145684419Y-110080250D01*
X145691651Y-110060038D01*
X145700830Y-110040632D01*
X145711866Y-110022219D01*
X145724654Y-110004976D01*
X145739070Y-109989070D01*
X145754976Y-109974654D01*
X145772219Y-109961866D01*
X145790632Y-109950830D01*
X145810038Y-109941651D01*
X145830250Y-109934419D01*
X145851074Y-109929203D01*
X145872309Y-109926053D01*
X145893750Y-109925000D01*
X146406250Y-109925000D01*
X146427691Y-109926053D01*
X146427691Y-109926053D01*
G37*
D11*
X146150000Y-110362500D03*
D13*
X148100000Y-107850000D03*
X146100000Y-106900000D03*
X146100000Y-108800000D03*
D14*
X150700000Y-111150000D03*
X151650000Y-109150000D03*
X149750000Y-109150000D03*
D10*
G36*
X147977691Y-111501053D02*
G01*
X147998926Y-111504203D01*
X148019750Y-111509419D01*
X148039962Y-111516651D01*
X148059368Y-111525830D01*
X148077781Y-111536866D01*
X148095024Y-111549654D01*
X148110930Y-111564070D01*
X148125346Y-111579976D01*
X148138134Y-111597219D01*
X148149170Y-111615632D01*
X148158349Y-111635038D01*
X148165581Y-111655250D01*
X148170797Y-111676074D01*
X148173947Y-111697309D01*
X148175000Y-111718750D01*
X148175000Y-112156250D01*
X148173947Y-112177691D01*
X148170797Y-112198926D01*
X148165581Y-112219750D01*
X148158349Y-112239962D01*
X148149170Y-112259368D01*
X148138134Y-112277781D01*
X148125346Y-112295024D01*
X148110930Y-112310930D01*
X148095024Y-112325346D01*
X148077781Y-112338134D01*
X148059368Y-112349170D01*
X148039962Y-112358349D01*
X148019750Y-112365581D01*
X147998926Y-112370797D01*
X147977691Y-112373947D01*
X147956250Y-112375000D01*
X147443750Y-112375000D01*
X147422309Y-112373947D01*
X147401074Y-112370797D01*
X147380250Y-112365581D01*
X147360038Y-112358349D01*
X147340632Y-112349170D01*
X147322219Y-112338134D01*
X147304976Y-112325346D01*
X147289070Y-112310930D01*
X147274654Y-112295024D01*
X147261866Y-112277781D01*
X147250830Y-112259368D01*
X147241651Y-112239962D01*
X147234419Y-112219750D01*
X147229203Y-112198926D01*
X147226053Y-112177691D01*
X147225000Y-112156250D01*
X147225000Y-111718750D01*
X147226053Y-111697309D01*
X147229203Y-111676074D01*
X147234419Y-111655250D01*
X147241651Y-111635038D01*
X147250830Y-111615632D01*
X147261866Y-111597219D01*
X147274654Y-111579976D01*
X147289070Y-111564070D01*
X147304976Y-111549654D01*
X147322219Y-111536866D01*
X147340632Y-111525830D01*
X147360038Y-111516651D01*
X147380250Y-111509419D01*
X147401074Y-111504203D01*
X147422309Y-111501053D01*
X147443750Y-111500000D01*
X147956250Y-111500000D01*
X147977691Y-111501053D01*
X147977691Y-111501053D01*
G37*
D11*
X147700000Y-111937500D03*
D10*
G36*
X147977691Y-109926053D02*
G01*
X147998926Y-109929203D01*
X148019750Y-109934419D01*
X148039962Y-109941651D01*
X148059368Y-109950830D01*
X148077781Y-109961866D01*
X148095024Y-109974654D01*
X148110930Y-109989070D01*
X148125346Y-110004976D01*
X148138134Y-110022219D01*
X148149170Y-110040632D01*
X148158349Y-110060038D01*
X148165581Y-110080250D01*
X148170797Y-110101074D01*
X148173947Y-110122309D01*
X148175000Y-110143750D01*
X148175000Y-110581250D01*
X148173947Y-110602691D01*
X148170797Y-110623926D01*
X148165581Y-110644750D01*
X148158349Y-110664962D01*
X148149170Y-110684368D01*
X148138134Y-110702781D01*
X148125346Y-110720024D01*
X148110930Y-110735930D01*
X148095024Y-110750346D01*
X148077781Y-110763134D01*
X148059368Y-110774170D01*
X148039962Y-110783349D01*
X148019750Y-110790581D01*
X147998926Y-110795797D01*
X147977691Y-110798947D01*
X147956250Y-110800000D01*
X147443750Y-110800000D01*
X147422309Y-110798947D01*
X147401074Y-110795797D01*
X147380250Y-110790581D01*
X147360038Y-110783349D01*
X147340632Y-110774170D01*
X147322219Y-110763134D01*
X147304976Y-110750346D01*
X147289070Y-110735930D01*
X147274654Y-110720024D01*
X147261866Y-110702781D01*
X147250830Y-110684368D01*
X147241651Y-110664962D01*
X147234419Y-110644750D01*
X147229203Y-110623926D01*
X147226053Y-110602691D01*
X147225000Y-110581250D01*
X147225000Y-110143750D01*
X147226053Y-110122309D01*
X147229203Y-110101074D01*
X147234419Y-110080250D01*
X147241651Y-110060038D01*
X147250830Y-110040632D01*
X147261866Y-110022219D01*
X147274654Y-110004976D01*
X147289070Y-109989070D01*
X147304976Y-109974654D01*
X147322219Y-109961866D01*
X147340632Y-109950830D01*
X147360038Y-109941651D01*
X147380250Y-109934419D01*
X147401074Y-109929203D01*
X147422309Y-109926053D01*
X147443750Y-109925000D01*
X147956250Y-109925000D01*
X147977691Y-109926053D01*
X147977691Y-109926053D01*
G37*
D11*
X147700000Y-110362500D03*
D10*
G36*
X153527691Y-110301053D02*
G01*
X153548926Y-110304203D01*
X153569750Y-110309419D01*
X153589962Y-110316651D01*
X153609368Y-110325830D01*
X153627781Y-110336866D01*
X153645024Y-110349654D01*
X153660930Y-110364070D01*
X153675346Y-110379976D01*
X153688134Y-110397219D01*
X153699170Y-110415632D01*
X153708349Y-110435038D01*
X153715581Y-110455250D01*
X153720797Y-110476074D01*
X153723947Y-110497309D01*
X153725000Y-110518750D01*
X153725000Y-110956250D01*
X153723947Y-110977691D01*
X153720797Y-110998926D01*
X153715581Y-111019750D01*
X153708349Y-111039962D01*
X153699170Y-111059368D01*
X153688134Y-111077781D01*
X153675346Y-111095024D01*
X153660930Y-111110930D01*
X153645024Y-111125346D01*
X153627781Y-111138134D01*
X153609368Y-111149170D01*
X153589962Y-111158349D01*
X153569750Y-111165581D01*
X153548926Y-111170797D01*
X153527691Y-111173947D01*
X153506250Y-111175000D01*
X152993750Y-111175000D01*
X152972309Y-111173947D01*
X152951074Y-111170797D01*
X152930250Y-111165581D01*
X152910038Y-111158349D01*
X152890632Y-111149170D01*
X152872219Y-111138134D01*
X152854976Y-111125346D01*
X152839070Y-111110930D01*
X152824654Y-111095024D01*
X152811866Y-111077781D01*
X152800830Y-111059368D01*
X152791651Y-111039962D01*
X152784419Y-111019750D01*
X152779203Y-110998926D01*
X152776053Y-110977691D01*
X152775000Y-110956250D01*
X152775000Y-110518750D01*
X152776053Y-110497309D01*
X152779203Y-110476074D01*
X152784419Y-110455250D01*
X152791651Y-110435038D01*
X152800830Y-110415632D01*
X152811866Y-110397219D01*
X152824654Y-110379976D01*
X152839070Y-110364070D01*
X152854976Y-110349654D01*
X152872219Y-110336866D01*
X152890632Y-110325830D01*
X152910038Y-110316651D01*
X152930250Y-110309419D01*
X152951074Y-110304203D01*
X152972309Y-110301053D01*
X152993750Y-110300000D01*
X153506250Y-110300000D01*
X153527691Y-110301053D01*
X153527691Y-110301053D01*
G37*
D11*
X153250000Y-110737500D03*
D10*
G36*
X153527691Y-108726053D02*
G01*
X153548926Y-108729203D01*
X153569750Y-108734419D01*
X153589962Y-108741651D01*
X153609368Y-108750830D01*
X153627781Y-108761866D01*
X153645024Y-108774654D01*
X153660930Y-108789070D01*
X153675346Y-108804976D01*
X153688134Y-108822219D01*
X153699170Y-108840632D01*
X153708349Y-108860038D01*
X153715581Y-108880250D01*
X153720797Y-108901074D01*
X153723947Y-108922309D01*
X153725000Y-108943750D01*
X153725000Y-109381250D01*
X153723947Y-109402691D01*
X153720797Y-109423926D01*
X153715581Y-109444750D01*
X153708349Y-109464962D01*
X153699170Y-109484368D01*
X153688134Y-109502781D01*
X153675346Y-109520024D01*
X153660930Y-109535930D01*
X153645024Y-109550346D01*
X153627781Y-109563134D01*
X153609368Y-109574170D01*
X153589962Y-109583349D01*
X153569750Y-109590581D01*
X153548926Y-109595797D01*
X153527691Y-109598947D01*
X153506250Y-109600000D01*
X152993750Y-109600000D01*
X152972309Y-109598947D01*
X152951074Y-109595797D01*
X152930250Y-109590581D01*
X152910038Y-109583349D01*
X152890632Y-109574170D01*
X152872219Y-109563134D01*
X152854976Y-109550346D01*
X152839070Y-109535930D01*
X152824654Y-109520024D01*
X152811866Y-109502781D01*
X152800830Y-109484368D01*
X152791651Y-109464962D01*
X152784419Y-109444750D01*
X152779203Y-109423926D01*
X152776053Y-109402691D01*
X152775000Y-109381250D01*
X152775000Y-108943750D01*
X152776053Y-108922309D01*
X152779203Y-108901074D01*
X152784419Y-108880250D01*
X152791651Y-108860038D01*
X152800830Y-108840632D01*
X152811866Y-108822219D01*
X152824654Y-108804976D01*
X152839070Y-108789070D01*
X152854976Y-108774654D01*
X152872219Y-108761866D01*
X152890632Y-108750830D01*
X152910038Y-108741651D01*
X152930250Y-108734419D01*
X152951074Y-108729203D01*
X152972309Y-108726053D01*
X152993750Y-108725000D01*
X153506250Y-108725000D01*
X153527691Y-108726053D01*
X153527691Y-108726053D01*
G37*
D11*
X153250000Y-109162500D03*
M02*
