G04 #@! TF.GenerationSoftware,KiCad,Pcbnew,(5.1.4)-1*
G04 #@! TF.CreationDate,2020-03-30T14:47:18-04:00*
G04 #@! TF.ProjectId,ProgAdapter,50726f67-4164-4617-9074-65722e6b6963,rev?*
G04 #@! TF.SameCoordinates,Original*
G04 #@! TF.FileFunction,Copper,L1,Top*
G04 #@! TF.FilePolarity,Positive*
%FSLAX46Y46*%
G04 Gerber Fmt 4.6, Leading zero omitted, Abs format (unit mm)*
G04 Created by KiCad (PCBNEW (5.1.4)-1) date 2020-03-30 14:47:18*
%MOMM*%
%LPD*%
G04 APERTURE LIST*
%ADD10O,1.700000X1.700000*%
%ADD11R,1.700000X1.700000*%
%ADD12C,0.800000*%
%ADD13C,0.250000*%
G04 APERTURE END LIST*
D10*
X109420000Y-97640000D03*
X109420000Y-95100000D03*
X111960000Y-97640000D03*
X111960000Y-95100000D03*
X114500000Y-97640000D03*
X114500000Y-95100000D03*
X117040000Y-97640000D03*
X117040000Y-95100000D03*
X119580000Y-97640000D03*
D11*
X119580000Y-95100000D03*
D12*
X117000000Y-80500000D03*
X115725000Y-80500000D03*
X114450000Y-80500000D03*
X113175000Y-80500000D03*
X111900000Y-80500000D03*
D13*
X117500000Y-81000000D02*
X117000000Y-80500000D01*
X119580000Y-95100000D02*
X117500000Y-93020000D01*
X117500000Y-93020000D02*
X117500000Y-81000000D01*
X116400000Y-81175000D02*
X115725000Y-80500000D01*
X117040000Y-95100000D02*
X116400000Y-94460000D01*
X116400000Y-94460000D02*
X116400000Y-81175000D01*
X114500000Y-80550000D02*
X114450000Y-80500000D01*
X114500000Y-95100000D02*
X114500000Y-80550000D01*
X112600000Y-81075000D02*
X113175000Y-80500000D01*
X111960000Y-95100000D02*
X112600000Y-94460000D01*
X112600000Y-94460000D02*
X112600000Y-81075000D01*
X111400000Y-81000000D02*
X111900000Y-80500000D01*
X109420000Y-95100000D02*
X111400000Y-93120000D01*
X111400000Y-93120000D02*
X111400000Y-81000000D01*
M02*
