G04 #@! TF.GenerationSoftware,KiCad,Pcbnew,(5.1.4)-1*
G04 #@! TF.CreationDate,2020-03-30T14:47:18-04:00*
G04 #@! TF.ProjectId,ProgAdapter,50726f67-4164-4617-9074-65722e6b6963,rev?*
G04 #@! TF.SameCoordinates,Original*
G04 #@! TF.FileFunction,Legend,Top*
G04 #@! TF.FilePolarity,Positive*
%FSLAX46Y46*%
G04 Gerber Fmt 4.6, Leading zero omitted, Abs format (unit mm)*
G04 Created by KiCad (PCBNEW (5.1.4)-1) date 2020-03-30 14:47:18*
%MOMM*%
%LPD*%
G04 APERTURE LIST*
%ADD10C,0.120000*%
G04 APERTURE END LIST*
D10*
X120850000Y-93830000D02*
X120850000Y-95100000D01*
X119580000Y-93830000D02*
X120850000Y-93830000D01*
X109040000Y-96142929D02*
X109040000Y-96597071D01*
X109800000Y-96142929D02*
X109800000Y-96597071D01*
X109040000Y-98682929D02*
X109040000Y-99080000D01*
X109800000Y-98682929D02*
X109800000Y-99080000D01*
X109040000Y-107740000D02*
X109040000Y-101740000D01*
X109800000Y-107740000D02*
X109040000Y-107740000D01*
X109800000Y-101740000D02*
X109800000Y-107740000D01*
X110690000Y-99080000D02*
X110690000Y-101740000D01*
X111580000Y-96142929D02*
X111580000Y-96597071D01*
X112340000Y-96142929D02*
X112340000Y-96597071D01*
X111580000Y-98682929D02*
X111580000Y-99080000D01*
X112340000Y-98682929D02*
X112340000Y-99080000D01*
X111580000Y-107740000D02*
X111580000Y-101740000D01*
X112340000Y-107740000D02*
X111580000Y-107740000D01*
X112340000Y-101740000D02*
X112340000Y-107740000D01*
X113230000Y-99080000D02*
X113230000Y-101740000D01*
X114120000Y-96142929D02*
X114120000Y-96597071D01*
X114880000Y-96142929D02*
X114880000Y-96597071D01*
X114120000Y-98682929D02*
X114120000Y-99080000D01*
X114880000Y-98682929D02*
X114880000Y-99080000D01*
X114120000Y-107740000D02*
X114120000Y-101740000D01*
X114880000Y-107740000D02*
X114120000Y-107740000D01*
X114880000Y-101740000D02*
X114880000Y-107740000D01*
X115770000Y-99080000D02*
X115770000Y-101740000D01*
X116660000Y-96142929D02*
X116660000Y-96597071D01*
X117420000Y-96142929D02*
X117420000Y-96597071D01*
X116660000Y-98682929D02*
X116660000Y-99080000D01*
X117420000Y-98682929D02*
X117420000Y-99080000D01*
X116660000Y-107740000D02*
X116660000Y-101740000D01*
X117420000Y-107740000D02*
X116660000Y-107740000D01*
X117420000Y-101740000D02*
X117420000Y-107740000D01*
X118310000Y-99080000D02*
X118310000Y-101740000D01*
X119200000Y-96210000D02*
X119200000Y-96597071D01*
X119960000Y-96210000D02*
X119960000Y-96597071D01*
X119200000Y-98682929D02*
X119200000Y-99080000D01*
X119960000Y-98682929D02*
X119960000Y-99080000D01*
X119300000Y-101740000D02*
X119300000Y-107740000D01*
X119420000Y-101740000D02*
X119420000Y-107740000D01*
X119540000Y-101740000D02*
X119540000Y-107740000D01*
X119660000Y-101740000D02*
X119660000Y-107740000D01*
X119780000Y-101740000D02*
X119780000Y-107740000D01*
X119900000Y-101740000D02*
X119900000Y-107740000D01*
X119200000Y-107740000D02*
X119200000Y-101740000D01*
X119960000Y-107740000D02*
X119200000Y-107740000D01*
X119960000Y-101740000D02*
X119960000Y-107740000D01*
X120910000Y-101740000D02*
X120910000Y-99080000D01*
X108090000Y-101740000D02*
X120910000Y-101740000D01*
X108090000Y-99080000D02*
X108090000Y-101740000D01*
X120910000Y-99080000D02*
X108090000Y-99080000D01*
M02*
