G04 #@! TF.GenerationSoftware,KiCad,Pcbnew,(5.1.4)-1*
G04 #@! TF.CreationDate,2020-03-30T14:47:18-04:00*
G04 #@! TF.ProjectId,ProgAdapter,50726f67-4164-4617-9074-65722e6b6963,rev?*
G04 #@! TF.SameCoordinates,Original*
G04 #@! TF.FileFunction,Copper,L2,Bot*
G04 #@! TF.FilePolarity,Positive*
%FSLAX46Y46*%
G04 Gerber Fmt 4.6, Leading zero omitted, Abs format (unit mm)*
G04 Created by KiCad (PCBNEW (5.1.4)-1) date 2020-03-30 14:47:18*
%MOMM*%
%LPD*%
G04 APERTURE LIST*
%ADD10O,1.700000X1.700000*%
%ADD11R,1.700000X1.700000*%
%ADD12R,0.740000X2.400000*%
%ADD13C,0.800000*%
%ADD14C,0.250000*%
G04 APERTURE END LIST*
D10*
X109420000Y-97640000D03*
X109420000Y-95100000D03*
X111960000Y-97640000D03*
X111960000Y-95100000D03*
X114500000Y-97640000D03*
X114500000Y-95100000D03*
X117040000Y-97640000D03*
X117040000Y-95100000D03*
X119580000Y-97640000D03*
D11*
X119580000Y-95100000D03*
D12*
X117040000Y-86550000D03*
X117040000Y-82650000D03*
X115770000Y-86550000D03*
X115770000Y-82650000D03*
X114500000Y-86550000D03*
X114500000Y-82650000D03*
X113230000Y-86550000D03*
X113230000Y-82650000D03*
X111960000Y-86550000D03*
X111960000Y-82650000D03*
D13*
X117000000Y-80500000D03*
X115725000Y-80500000D03*
X114450000Y-80500000D03*
X113175000Y-80500000D03*
X111900000Y-80500000D03*
D14*
X117040000Y-90340000D02*
X117040000Y-86550000D01*
X120755001Y-94055001D02*
X117040000Y-90340000D01*
X119580000Y-97640000D02*
X120755001Y-96464999D01*
X120755001Y-96464999D02*
X120755001Y-94055001D01*
X117000000Y-82610000D02*
X117040000Y-82650000D01*
X117000000Y-80500000D02*
X117000000Y-82610000D01*
X115770000Y-88000000D02*
X115770000Y-86550000D01*
X115770000Y-90770000D02*
X115770000Y-88000000D01*
X118215001Y-93215001D02*
X115770000Y-90770000D01*
X117040000Y-97640000D02*
X118215001Y-96464999D01*
X118215001Y-96464999D02*
X118215001Y-93215001D01*
X115725000Y-82605000D02*
X115770000Y-82650000D01*
X115725000Y-80500000D02*
X115725000Y-82605000D01*
X114500000Y-88000000D02*
X114500000Y-86550000D01*
X114500000Y-90800000D02*
X114500000Y-88000000D01*
X115675001Y-91975001D02*
X114500000Y-90800000D01*
X114500000Y-97640000D02*
X115675001Y-96464999D01*
X115675001Y-96464999D02*
X115675001Y-91975001D01*
X114450000Y-82600000D02*
X114500000Y-82650000D01*
X114450000Y-80500000D02*
X114450000Y-82600000D01*
X113230000Y-96370000D02*
X113230000Y-86550000D01*
X111960000Y-97640000D02*
X113230000Y-96370000D01*
X113175000Y-82595000D02*
X113230000Y-82650000D01*
X113175000Y-80500000D02*
X113175000Y-82595000D01*
X111960000Y-91040000D02*
X111960000Y-86550000D01*
X110784999Y-92215001D02*
X111960000Y-91040000D01*
X109420000Y-97640000D02*
X110784999Y-96275001D01*
X110784999Y-96275001D02*
X110784999Y-92215001D01*
X111900000Y-82590000D02*
X111960000Y-82650000D01*
X111900000Y-80500000D02*
X111900000Y-82590000D01*
M02*
