G04 #@! TF.GenerationSoftware,KiCad,Pcbnew,(5.1.4)-1*
G04 #@! TF.CreationDate,2019-12-17T16:38:54-05:00*
G04 #@! TF.ProjectId,BJTPreamp,424a5450-7265-4616-9d70-2e6b69636164,rev?*
G04 #@! TF.SameCoordinates,Original*
G04 #@! TF.FileFunction,Soldermask,Top*
G04 #@! TF.FilePolarity,Negative*
%FSLAX46Y46*%
G04 Gerber Fmt 4.6, Leading zero omitted, Abs format (unit mm)*
G04 Created by KiCad (PCBNEW (5.1.4)-1) date 2019-12-17 16:38:54*
%MOMM*%
%LPD*%
G04 APERTURE LIST*
%ADD10C,0.100000*%
G04 APERTURE END LIST*
D10*
G36*
X82066691Y-100277985D02*
G01*
X82100669Y-100288293D01*
X82131990Y-100305034D01*
X82159439Y-100327561D01*
X82181966Y-100355010D01*
X82198707Y-100386331D01*
X82209015Y-100420309D01*
X82213100Y-100461790D01*
X82213100Y-101138010D01*
X82209015Y-101179491D01*
X82198707Y-101213469D01*
X82181966Y-101244790D01*
X82159439Y-101272239D01*
X82131990Y-101294766D01*
X82100669Y-101311507D01*
X82066691Y-101321815D01*
X82025210Y-101325900D01*
X81423990Y-101325900D01*
X81382509Y-101321815D01*
X81348531Y-101311507D01*
X81317210Y-101294766D01*
X81289761Y-101272239D01*
X81267234Y-101244790D01*
X81250493Y-101213469D01*
X81240185Y-101179491D01*
X81236100Y-101138010D01*
X81236100Y-100461790D01*
X81240185Y-100420309D01*
X81250493Y-100386331D01*
X81267234Y-100355010D01*
X81289761Y-100327561D01*
X81317210Y-100305034D01*
X81348531Y-100288293D01*
X81382509Y-100277985D01*
X81423990Y-100273900D01*
X82025210Y-100273900D01*
X82066691Y-100277985D01*
X82066691Y-100277985D01*
G37*
G36*
X80491691Y-100277985D02*
G01*
X80525669Y-100288293D01*
X80556990Y-100305034D01*
X80584439Y-100327561D01*
X80606966Y-100355010D01*
X80623707Y-100386331D01*
X80634015Y-100420309D01*
X80638100Y-100461790D01*
X80638100Y-101138010D01*
X80634015Y-101179491D01*
X80623707Y-101213469D01*
X80606966Y-101244790D01*
X80584439Y-101272239D01*
X80556990Y-101294766D01*
X80525669Y-101311507D01*
X80491691Y-101321815D01*
X80450210Y-101325900D01*
X79848990Y-101325900D01*
X79807509Y-101321815D01*
X79773531Y-101311507D01*
X79742210Y-101294766D01*
X79714761Y-101272239D01*
X79692234Y-101244790D01*
X79675493Y-101213469D01*
X79665185Y-101179491D01*
X79661100Y-101138010D01*
X79661100Y-100461790D01*
X79665185Y-100420309D01*
X79675493Y-100386331D01*
X79692234Y-100355010D01*
X79714761Y-100327561D01*
X79742210Y-100305034D01*
X79773531Y-100288293D01*
X79807509Y-100277985D01*
X79848990Y-100273900D01*
X80450210Y-100273900D01*
X80491691Y-100277985D01*
X80491691Y-100277985D01*
G37*
G36*
X83577291Y-99756785D02*
G01*
X83611269Y-99767093D01*
X83642590Y-99783834D01*
X83670039Y-99806361D01*
X83692566Y-99833810D01*
X83709307Y-99865131D01*
X83719615Y-99899109D01*
X83723700Y-99940590D01*
X83723700Y-100541810D01*
X83719615Y-100583291D01*
X83709307Y-100617269D01*
X83692566Y-100648590D01*
X83670039Y-100676039D01*
X83642590Y-100698566D01*
X83611269Y-100715307D01*
X83577291Y-100725615D01*
X83535810Y-100729700D01*
X82859590Y-100729700D01*
X82818109Y-100725615D01*
X82784131Y-100715307D01*
X82752810Y-100698566D01*
X82725361Y-100676039D01*
X82702834Y-100648590D01*
X82686093Y-100617269D01*
X82675785Y-100583291D01*
X82671700Y-100541810D01*
X82671700Y-99940590D01*
X82675785Y-99899109D01*
X82686093Y-99865131D01*
X82702834Y-99833810D01*
X82725361Y-99806361D01*
X82752810Y-99783834D01*
X82784131Y-99767093D01*
X82818109Y-99756785D01*
X82859590Y-99752700D01*
X83535810Y-99752700D01*
X83577291Y-99756785D01*
X83577291Y-99756785D01*
G37*
G36*
X73237503Y-97364195D02*
G01*
X73385990Y-97425700D01*
X73465171Y-97458498D01*
X73670066Y-97595405D01*
X73844315Y-97769654D01*
X73979579Y-97972090D01*
X73981223Y-97974551D01*
X74075525Y-98202217D01*
X74123600Y-98443906D01*
X74123600Y-98690334D01*
X74075525Y-98932023D01*
X73983290Y-99154700D01*
X73981222Y-99159691D01*
X73844315Y-99364586D01*
X73670066Y-99538835D01*
X73465171Y-99675742D01*
X73465170Y-99675743D01*
X73465169Y-99675743D01*
X73237503Y-99770045D01*
X72995814Y-99818120D01*
X72749386Y-99818120D01*
X72507697Y-99770045D01*
X72280031Y-99675743D01*
X72280030Y-99675743D01*
X72280029Y-99675742D01*
X72075134Y-99538835D01*
X71900885Y-99364586D01*
X71763978Y-99159691D01*
X71761911Y-99154700D01*
X71669675Y-98932023D01*
X71621600Y-98690334D01*
X71621600Y-98443906D01*
X71669675Y-98202217D01*
X71763977Y-97974551D01*
X71765621Y-97972090D01*
X71900885Y-97769654D01*
X72075134Y-97595405D01*
X72280029Y-97458498D01*
X72359211Y-97425700D01*
X72507697Y-97364195D01*
X72749386Y-97316120D01*
X72995814Y-97316120D01*
X73237503Y-97364195D01*
X73237503Y-97364195D01*
G37*
G36*
X92116960Y-99792840D02*
G01*
X89614960Y-99792840D01*
X89614960Y-97290840D01*
X92116960Y-97290840D01*
X92116960Y-99792840D01*
X92116960Y-99792840D01*
G37*
G36*
X86849900Y-99679200D02*
G01*
X86047900Y-99679200D01*
X86047900Y-98977200D01*
X86849900Y-98977200D01*
X86849900Y-99679200D01*
X86849900Y-99679200D01*
G37*
G36*
X79308598Y-98185847D02*
G01*
X79344167Y-98196637D01*
X79376939Y-98214154D01*
X79405669Y-98237731D01*
X79429246Y-98266461D01*
X79446763Y-98299233D01*
X79457553Y-98334802D01*
X79461800Y-98377925D01*
X79461800Y-99437275D01*
X79457553Y-99480398D01*
X79446763Y-99515967D01*
X79429246Y-99548739D01*
X79405669Y-99577469D01*
X79376939Y-99601046D01*
X79344167Y-99618563D01*
X79308598Y-99629353D01*
X79265475Y-99633600D01*
X78156125Y-99633600D01*
X78113002Y-99629353D01*
X78077433Y-99618563D01*
X78044661Y-99601046D01*
X78015931Y-99577469D01*
X77992354Y-99548739D01*
X77974837Y-99515967D01*
X77964047Y-99480398D01*
X77959800Y-99437275D01*
X77959800Y-98377925D01*
X77964047Y-98334802D01*
X77974837Y-98299233D01*
X77992354Y-98266461D01*
X78015931Y-98237731D01*
X78044661Y-98214154D01*
X78077433Y-98196637D01*
X78113002Y-98185847D01*
X78156125Y-98181600D01*
X79265475Y-98181600D01*
X79308598Y-98185847D01*
X79308598Y-98185847D01*
G37*
G36*
X82008598Y-98185847D02*
G01*
X82044167Y-98196637D01*
X82076939Y-98214154D01*
X82105669Y-98237731D01*
X82129246Y-98266461D01*
X82146763Y-98299233D01*
X82157553Y-98334802D01*
X82161800Y-98377925D01*
X82161800Y-99437275D01*
X82157553Y-99480398D01*
X82146763Y-99515967D01*
X82129246Y-99548739D01*
X82105669Y-99577469D01*
X82076939Y-99601046D01*
X82044167Y-99618563D01*
X82008598Y-99629353D01*
X81965475Y-99633600D01*
X80856125Y-99633600D01*
X80813002Y-99629353D01*
X80777433Y-99618563D01*
X80744661Y-99601046D01*
X80715931Y-99577469D01*
X80692354Y-99548739D01*
X80674837Y-99515967D01*
X80664047Y-99480398D01*
X80659800Y-99437275D01*
X80659800Y-98377925D01*
X80664047Y-98334802D01*
X80674837Y-98299233D01*
X80692354Y-98266461D01*
X80715931Y-98237731D01*
X80744661Y-98214154D01*
X80777433Y-98196637D01*
X80813002Y-98185847D01*
X80856125Y-98181600D01*
X81965475Y-98181600D01*
X82008598Y-98185847D01*
X82008598Y-98185847D01*
G37*
G36*
X83577291Y-98181785D02*
G01*
X83611269Y-98192093D01*
X83642590Y-98208834D01*
X83670039Y-98231361D01*
X83692566Y-98258810D01*
X83709307Y-98290131D01*
X83719615Y-98324109D01*
X83723700Y-98365590D01*
X83723700Y-98966810D01*
X83719615Y-99008291D01*
X83709307Y-99042269D01*
X83692566Y-99073590D01*
X83670039Y-99101039D01*
X83642590Y-99123566D01*
X83611269Y-99140307D01*
X83577291Y-99150615D01*
X83535810Y-99154700D01*
X82859590Y-99154700D01*
X82818109Y-99150615D01*
X82784131Y-99140307D01*
X82752810Y-99123566D01*
X82725361Y-99101039D01*
X82702834Y-99073590D01*
X82686093Y-99042269D01*
X82675785Y-99008291D01*
X82671700Y-98966810D01*
X82671700Y-98365590D01*
X82675785Y-98324109D01*
X82686093Y-98290131D01*
X82702834Y-98258810D01*
X82725361Y-98231361D01*
X82752810Y-98208834D01*
X82784131Y-98192093D01*
X82818109Y-98181785D01*
X82859590Y-98177700D01*
X83535810Y-98177700D01*
X83577291Y-98181785D01*
X83577291Y-98181785D01*
G37*
G36*
X85317191Y-97788285D02*
G01*
X85351169Y-97798593D01*
X85382490Y-97815334D01*
X85409939Y-97837861D01*
X85432466Y-97865310D01*
X85449207Y-97896631D01*
X85459515Y-97930609D01*
X85463600Y-97972090D01*
X85463600Y-98573310D01*
X85459515Y-98614791D01*
X85449207Y-98648769D01*
X85432466Y-98680090D01*
X85409939Y-98707539D01*
X85382490Y-98730066D01*
X85351169Y-98746807D01*
X85317191Y-98757115D01*
X85275710Y-98761200D01*
X84599490Y-98761200D01*
X84558009Y-98757115D01*
X84524031Y-98746807D01*
X84492710Y-98730066D01*
X84465261Y-98707539D01*
X84442734Y-98680090D01*
X84425993Y-98648769D01*
X84415685Y-98614791D01*
X84411600Y-98573310D01*
X84411600Y-97972090D01*
X84415685Y-97930609D01*
X84425993Y-97896631D01*
X84442734Y-97865310D01*
X84465261Y-97837861D01*
X84492710Y-97815334D01*
X84524031Y-97798593D01*
X84558009Y-97788285D01*
X84599490Y-97784200D01*
X85275710Y-97784200D01*
X85317191Y-97788285D01*
X85317191Y-97788285D01*
G37*
G36*
X86849900Y-98279200D02*
G01*
X86047900Y-98279200D01*
X86047900Y-97577200D01*
X86849900Y-97577200D01*
X86849900Y-98279200D01*
X86849900Y-98279200D01*
G37*
G36*
X83098500Y-97425700D02*
G01*
X82096500Y-97425700D01*
X82096500Y-96523700D01*
X83098500Y-96523700D01*
X83098500Y-97425700D01*
X83098500Y-97425700D01*
G37*
G36*
X78360298Y-95802447D02*
G01*
X78395867Y-95813237D01*
X78428639Y-95830754D01*
X78457369Y-95854331D01*
X78480946Y-95883061D01*
X78498463Y-95915833D01*
X78509253Y-95951402D01*
X78513500Y-95994525D01*
X78513500Y-97103875D01*
X78509253Y-97146998D01*
X78498463Y-97182567D01*
X78480946Y-97215339D01*
X78457369Y-97244069D01*
X78428639Y-97267646D01*
X78395867Y-97285163D01*
X78360298Y-97295953D01*
X78317175Y-97300200D01*
X77257825Y-97300200D01*
X77214702Y-97295953D01*
X77179133Y-97285163D01*
X77146361Y-97267646D01*
X77117631Y-97244069D01*
X77094054Y-97215339D01*
X77076537Y-97182567D01*
X77065747Y-97146998D01*
X77061500Y-97103875D01*
X77061500Y-95994525D01*
X77065747Y-95951402D01*
X77076537Y-95915833D01*
X77094054Y-95883061D01*
X77117631Y-95854331D01*
X77146361Y-95830754D01*
X77179133Y-95813237D01*
X77214702Y-95802447D01*
X77257825Y-95798200D01*
X78317175Y-95798200D01*
X78360298Y-95802447D01*
X78360298Y-95802447D01*
G37*
G36*
X85317191Y-96213285D02*
G01*
X85351169Y-96223593D01*
X85382490Y-96240334D01*
X85409939Y-96262861D01*
X85432466Y-96290310D01*
X85449207Y-96321631D01*
X85459515Y-96355609D01*
X85463600Y-96397090D01*
X85463600Y-96998310D01*
X85459515Y-97039791D01*
X85449207Y-97073769D01*
X85432466Y-97105090D01*
X85409939Y-97132539D01*
X85382490Y-97155066D01*
X85351169Y-97171807D01*
X85317191Y-97182115D01*
X85275710Y-97186200D01*
X84599490Y-97186200D01*
X84558009Y-97182115D01*
X84524031Y-97171807D01*
X84492710Y-97155066D01*
X84465261Y-97132539D01*
X84442734Y-97105090D01*
X84425993Y-97073769D01*
X84415685Y-97039791D01*
X84411600Y-96998310D01*
X84411600Y-96397090D01*
X84415685Y-96355609D01*
X84425993Y-96321631D01*
X84442734Y-96290310D01*
X84465261Y-96262861D01*
X84492710Y-96240334D01*
X84524031Y-96223593D01*
X84558009Y-96213285D01*
X84599490Y-96209200D01*
X85275710Y-96209200D01*
X85317191Y-96213285D01*
X85317191Y-96213285D01*
G37*
G36*
X81098500Y-96475700D02*
G01*
X80096500Y-96475700D01*
X80096500Y-95573700D01*
X81098500Y-95573700D01*
X81098500Y-96475700D01*
X81098500Y-96475700D01*
G37*
G36*
X74123600Y-96318120D02*
G01*
X71621600Y-96318120D01*
X71621600Y-93816120D01*
X74123600Y-93816120D01*
X74123600Y-96318120D01*
X74123600Y-96318120D01*
G37*
G36*
X91230863Y-93838915D02*
G01*
X91442219Y-93926461D01*
X91458531Y-93933218D01*
X91663426Y-94070125D01*
X91837675Y-94244374D01*
X91974582Y-94449269D01*
X91974583Y-94449271D01*
X92068885Y-94676937D01*
X92116960Y-94918626D01*
X92116960Y-95165054D01*
X92068885Y-95406743D01*
X92019612Y-95525700D01*
X91974582Y-95634411D01*
X91837675Y-95839306D01*
X91663426Y-96013555D01*
X91458531Y-96150462D01*
X91458530Y-96150463D01*
X91458529Y-96150463D01*
X91230863Y-96244765D01*
X90989174Y-96292840D01*
X90742746Y-96292840D01*
X90501057Y-96244765D01*
X90273391Y-96150463D01*
X90273390Y-96150463D01*
X90273389Y-96150462D01*
X90068494Y-96013555D01*
X89894245Y-95839306D01*
X89757338Y-95634411D01*
X89712309Y-95525700D01*
X89663035Y-95406743D01*
X89614960Y-95165054D01*
X89614960Y-94918626D01*
X89663035Y-94676937D01*
X89757337Y-94449271D01*
X89757338Y-94449269D01*
X89894245Y-94244374D01*
X90068494Y-94070125D01*
X90273389Y-93933218D01*
X90289702Y-93926461D01*
X90501057Y-93838915D01*
X90742746Y-93790840D01*
X90989174Y-93790840D01*
X91230863Y-93838915D01*
X91230863Y-93838915D01*
G37*
G36*
X83098500Y-95525700D02*
G01*
X82096500Y-95525700D01*
X82096500Y-94623700D01*
X83098500Y-94623700D01*
X83098500Y-95525700D01*
X83098500Y-95525700D01*
G37*
G36*
X86016391Y-94461385D02*
G01*
X86050369Y-94471693D01*
X86081690Y-94488434D01*
X86109139Y-94510961D01*
X86131666Y-94538410D01*
X86148407Y-94569731D01*
X86158715Y-94603709D01*
X86162800Y-94645190D01*
X86162800Y-95321410D01*
X86158715Y-95362891D01*
X86148407Y-95396869D01*
X86131666Y-95428190D01*
X86109139Y-95455639D01*
X86081690Y-95478166D01*
X86050369Y-95494907D01*
X86016391Y-95505215D01*
X85974910Y-95509300D01*
X85373690Y-95509300D01*
X85332209Y-95505215D01*
X85298231Y-95494907D01*
X85266910Y-95478166D01*
X85239461Y-95455639D01*
X85216934Y-95428190D01*
X85200193Y-95396869D01*
X85189885Y-95362891D01*
X85185800Y-95321410D01*
X85185800Y-94645190D01*
X85189885Y-94603709D01*
X85200193Y-94569731D01*
X85216934Y-94538410D01*
X85239461Y-94510961D01*
X85266910Y-94488434D01*
X85298231Y-94471693D01*
X85332209Y-94461385D01*
X85373690Y-94457300D01*
X85974910Y-94457300D01*
X86016391Y-94461385D01*
X86016391Y-94461385D01*
G37*
G36*
X84441391Y-94461385D02*
G01*
X84475369Y-94471693D01*
X84506690Y-94488434D01*
X84534139Y-94510961D01*
X84556666Y-94538410D01*
X84573407Y-94569731D01*
X84583715Y-94603709D01*
X84587800Y-94645190D01*
X84587800Y-95321410D01*
X84583715Y-95362891D01*
X84573407Y-95396869D01*
X84556666Y-95428190D01*
X84534139Y-95455639D01*
X84506690Y-95478166D01*
X84475369Y-95494907D01*
X84441391Y-95505215D01*
X84399910Y-95509300D01*
X83798690Y-95509300D01*
X83757209Y-95505215D01*
X83723231Y-95494907D01*
X83691910Y-95478166D01*
X83664461Y-95455639D01*
X83641934Y-95428190D01*
X83625193Y-95396869D01*
X83614885Y-95362891D01*
X83610800Y-95321410D01*
X83610800Y-94645190D01*
X83614885Y-94603709D01*
X83625193Y-94569731D01*
X83641934Y-94538410D01*
X83664461Y-94510961D01*
X83691910Y-94488434D01*
X83723231Y-94471693D01*
X83757209Y-94461385D01*
X83798690Y-94457300D01*
X84399910Y-94457300D01*
X84441391Y-94461385D01*
X84441391Y-94461385D01*
G37*
G36*
X78360298Y-93102447D02*
G01*
X78395867Y-93113237D01*
X78428639Y-93130754D01*
X78457369Y-93154331D01*
X78480946Y-93183061D01*
X78498463Y-93215833D01*
X78509253Y-93251402D01*
X78513500Y-93294525D01*
X78513500Y-94403875D01*
X78509253Y-94446998D01*
X78498463Y-94482567D01*
X78480946Y-94515339D01*
X78457369Y-94544069D01*
X78428639Y-94567646D01*
X78395867Y-94585163D01*
X78360298Y-94595953D01*
X78317175Y-94600200D01*
X77257825Y-94600200D01*
X77214702Y-94595953D01*
X77179133Y-94585163D01*
X77146361Y-94567646D01*
X77117631Y-94544069D01*
X77094054Y-94515339D01*
X77076537Y-94482567D01*
X77065747Y-94446998D01*
X77061500Y-94403875D01*
X77061500Y-93294525D01*
X77065747Y-93251402D01*
X77076537Y-93215833D01*
X77094054Y-93183061D01*
X77117631Y-93154331D01*
X77146361Y-93130754D01*
X77179133Y-93113237D01*
X77214702Y-93102447D01*
X77257825Y-93098200D01*
X78317175Y-93098200D01*
X78360298Y-93102447D01*
X78360298Y-93102447D01*
G37*
G36*
X83018991Y-92950085D02*
G01*
X83052969Y-92960393D01*
X83084290Y-92977134D01*
X83111739Y-92999661D01*
X83134266Y-93027110D01*
X83151007Y-93058431D01*
X83161315Y-93092409D01*
X83165400Y-93133890D01*
X83165400Y-93810110D01*
X83161315Y-93851591D01*
X83151007Y-93885569D01*
X83134266Y-93916890D01*
X83111739Y-93944339D01*
X83084290Y-93966866D01*
X83052969Y-93983607D01*
X83018991Y-93993915D01*
X82977510Y-93998000D01*
X82376290Y-93998000D01*
X82334809Y-93993915D01*
X82300831Y-93983607D01*
X82269510Y-93966866D01*
X82242061Y-93944339D01*
X82219534Y-93916890D01*
X82202793Y-93885569D01*
X82192485Y-93851591D01*
X82188400Y-93810110D01*
X82188400Y-93133890D01*
X82192485Y-93092409D01*
X82202793Y-93058431D01*
X82219534Y-93027110D01*
X82242061Y-92999661D01*
X82269510Y-92977134D01*
X82300831Y-92960393D01*
X82334809Y-92950085D01*
X82376290Y-92946000D01*
X82977510Y-92946000D01*
X83018991Y-92950085D01*
X83018991Y-92950085D01*
G37*
G36*
X81545991Y-92950085D02*
G01*
X81579969Y-92960393D01*
X81611290Y-92977134D01*
X81638739Y-92999661D01*
X81661266Y-93027110D01*
X81678007Y-93058431D01*
X81688315Y-93092409D01*
X81692400Y-93133890D01*
X81692400Y-93810110D01*
X81688315Y-93851591D01*
X81678007Y-93885569D01*
X81661266Y-93916890D01*
X81638739Y-93944339D01*
X81611290Y-93966866D01*
X81579969Y-93983607D01*
X81545991Y-93993915D01*
X81504510Y-93998000D01*
X80903290Y-93998000D01*
X80861809Y-93993915D01*
X80827831Y-93983607D01*
X80796510Y-93966866D01*
X80769061Y-93944339D01*
X80746534Y-93916890D01*
X80729793Y-93885569D01*
X80719485Y-93851591D01*
X80715400Y-93810110D01*
X80715400Y-93133890D01*
X80719485Y-93092409D01*
X80729793Y-93058431D01*
X80746534Y-93027110D01*
X80769061Y-92999661D01*
X80796510Y-92977134D01*
X80827831Y-92960393D01*
X80861809Y-92950085D01*
X80903290Y-92946000D01*
X81504510Y-92946000D01*
X81545991Y-92950085D01*
X81545991Y-92950085D01*
G37*
G36*
X79970991Y-92950085D02*
G01*
X80004969Y-92960393D01*
X80036290Y-92977134D01*
X80063739Y-92999661D01*
X80086266Y-93027110D01*
X80103007Y-93058431D01*
X80113315Y-93092409D01*
X80117400Y-93133890D01*
X80117400Y-93810110D01*
X80113315Y-93851591D01*
X80103007Y-93885569D01*
X80086266Y-93916890D01*
X80063739Y-93944339D01*
X80036290Y-93966866D01*
X80004969Y-93983607D01*
X79970991Y-93993915D01*
X79929510Y-93998000D01*
X79328290Y-93998000D01*
X79286809Y-93993915D01*
X79252831Y-93983607D01*
X79221510Y-93966866D01*
X79194061Y-93944339D01*
X79171534Y-93916890D01*
X79154793Y-93885569D01*
X79144485Y-93851591D01*
X79140400Y-93810110D01*
X79140400Y-93133890D01*
X79144485Y-93092409D01*
X79154793Y-93058431D01*
X79171534Y-93027110D01*
X79194061Y-92999661D01*
X79221510Y-92977134D01*
X79252831Y-92960393D01*
X79286809Y-92950085D01*
X79328290Y-92946000D01*
X79929510Y-92946000D01*
X79970991Y-92950085D01*
X79970991Y-92950085D01*
G37*
G36*
X84593991Y-92950085D02*
G01*
X84627969Y-92960393D01*
X84659290Y-92977134D01*
X84686739Y-92999661D01*
X84709266Y-93027110D01*
X84726007Y-93058431D01*
X84736315Y-93092409D01*
X84740400Y-93133890D01*
X84740400Y-93810110D01*
X84736315Y-93851591D01*
X84726007Y-93885569D01*
X84709266Y-93916890D01*
X84686739Y-93944339D01*
X84659290Y-93966866D01*
X84627969Y-93983607D01*
X84593991Y-93993915D01*
X84552510Y-93998000D01*
X83951290Y-93998000D01*
X83909809Y-93993915D01*
X83875831Y-93983607D01*
X83844510Y-93966866D01*
X83817061Y-93944339D01*
X83794534Y-93916890D01*
X83777793Y-93885569D01*
X83767485Y-93851591D01*
X83763400Y-93810110D01*
X83763400Y-93133890D01*
X83767485Y-93092409D01*
X83777793Y-93058431D01*
X83794534Y-93027110D01*
X83817061Y-92999661D01*
X83844510Y-92977134D01*
X83875831Y-92960393D01*
X83909809Y-92950085D01*
X83951290Y-92946000D01*
X84552510Y-92946000D01*
X84593991Y-92950085D01*
X84593991Y-92950085D01*
G37*
G36*
X72371311Y-91507365D02*
G01*
X72405289Y-91517673D01*
X72436610Y-91534414D01*
X72464059Y-91556941D01*
X72486586Y-91584390D01*
X72503327Y-91615711D01*
X72513635Y-91649689D01*
X72517720Y-91691170D01*
X72517720Y-92367390D01*
X72513635Y-92408871D01*
X72503327Y-92442849D01*
X72486586Y-92474170D01*
X72464059Y-92501619D01*
X72436610Y-92524146D01*
X72405289Y-92540887D01*
X72371311Y-92551195D01*
X72329830Y-92555280D01*
X71728610Y-92555280D01*
X71687129Y-92551195D01*
X71653151Y-92540887D01*
X71621830Y-92524146D01*
X71594381Y-92501619D01*
X71571854Y-92474170D01*
X71555113Y-92442849D01*
X71544805Y-92408871D01*
X71540720Y-92367390D01*
X71540720Y-91691170D01*
X71544805Y-91649689D01*
X71555113Y-91615711D01*
X71571854Y-91584390D01*
X71594381Y-91556941D01*
X71621830Y-91534414D01*
X71653151Y-91517673D01*
X71687129Y-91507365D01*
X71728610Y-91503280D01*
X72329830Y-91503280D01*
X72371311Y-91507365D01*
X72371311Y-91507365D01*
G37*
G36*
X73946311Y-91507365D02*
G01*
X73980289Y-91517673D01*
X74011610Y-91534414D01*
X74039059Y-91556941D01*
X74061586Y-91584390D01*
X74078327Y-91615711D01*
X74088635Y-91649689D01*
X74092720Y-91691170D01*
X74092720Y-92367390D01*
X74088635Y-92408871D01*
X74078327Y-92442849D01*
X74061586Y-92474170D01*
X74039059Y-92501619D01*
X74011610Y-92524146D01*
X73980289Y-92540887D01*
X73946311Y-92551195D01*
X73904830Y-92555280D01*
X73303610Y-92555280D01*
X73262129Y-92551195D01*
X73228151Y-92540887D01*
X73196830Y-92524146D01*
X73169381Y-92501619D01*
X73146854Y-92474170D01*
X73130113Y-92442849D01*
X73119805Y-92408871D01*
X73115720Y-92367390D01*
X73115720Y-91691170D01*
X73119805Y-91649689D01*
X73130113Y-91615711D01*
X73146854Y-91584390D01*
X73169381Y-91556941D01*
X73196830Y-91534414D01*
X73228151Y-91517673D01*
X73262129Y-91507365D01*
X73303610Y-91503280D01*
X73904830Y-91503280D01*
X73946311Y-91507365D01*
X73946311Y-91507365D01*
G37*
G36*
X76761919Y-89747194D02*
G01*
X76774170Y-89747796D01*
X76792589Y-89747796D01*
X76814869Y-89749990D01*
X76898953Y-89766716D01*
X76920380Y-89773216D01*
X76999578Y-89806020D01*
X77005023Y-89808931D01*
X77005029Y-89808933D01*
X77013889Y-89813669D01*
X77013893Y-89813672D01*
X77019334Y-89816580D01*
X77090619Y-89864211D01*
X77107924Y-89878412D01*
X77168548Y-89939036D01*
X77182749Y-89956341D01*
X77230380Y-90027626D01*
X77233288Y-90033067D01*
X77233291Y-90033071D01*
X77238027Y-90041931D01*
X77238029Y-90041937D01*
X77240940Y-90047382D01*
X77273744Y-90126580D01*
X77280244Y-90148007D01*
X77296970Y-90232091D01*
X77299164Y-90254371D01*
X77299164Y-90272790D01*
X77299766Y-90285041D01*
X77301572Y-90303379D01*
X77301572Y-90791100D01*
X77299983Y-90807239D01*
X77297068Y-90816848D01*
X77292330Y-90825712D01*
X77285957Y-90833477D01*
X77273514Y-90843688D01*
X77263145Y-90850618D01*
X77245818Y-90867945D01*
X77232205Y-90888320D01*
X77222829Y-90910960D01*
X77218049Y-90934993D01*
X77218050Y-90959497D01*
X77222832Y-90983530D01*
X77232210Y-91006169D01*
X77245825Y-91026542D01*
X77263152Y-91043869D01*
X77273522Y-91050798D01*
X77285957Y-91061003D01*
X77292330Y-91068768D01*
X77297068Y-91077632D01*
X77299983Y-91087241D01*
X77301572Y-91103380D01*
X77301572Y-91591102D01*
X77299766Y-91609439D01*
X77299164Y-91621690D01*
X77299164Y-91640109D01*
X77296970Y-91662389D01*
X77280244Y-91746473D01*
X77273744Y-91767900D01*
X77240940Y-91847098D01*
X77238029Y-91852543D01*
X77238027Y-91852549D01*
X77233291Y-91861409D01*
X77233288Y-91861413D01*
X77230380Y-91866854D01*
X77182749Y-91938139D01*
X77168548Y-91955444D01*
X77107924Y-92016068D01*
X77090619Y-92030269D01*
X77019334Y-92077900D01*
X77013893Y-92080808D01*
X77013889Y-92080811D01*
X77005029Y-92085547D01*
X77005023Y-92085549D01*
X76999578Y-92088460D01*
X76920380Y-92121264D01*
X76898953Y-92127764D01*
X76814869Y-92144490D01*
X76792589Y-92146684D01*
X76774170Y-92146684D01*
X76761919Y-92147286D01*
X76743582Y-92149092D01*
X76255858Y-92149092D01*
X76237521Y-92147286D01*
X76225270Y-92146684D01*
X76206851Y-92146684D01*
X76184571Y-92144490D01*
X76100487Y-92127764D01*
X76079060Y-92121264D01*
X75999862Y-92088460D01*
X75994417Y-92085549D01*
X75994411Y-92085547D01*
X75985551Y-92080811D01*
X75985547Y-92080808D01*
X75980106Y-92077900D01*
X75908821Y-92030269D01*
X75891516Y-92016068D01*
X75830892Y-91955444D01*
X75816691Y-91938139D01*
X75769060Y-91866854D01*
X75766152Y-91861413D01*
X75766149Y-91861409D01*
X75761413Y-91852549D01*
X75761411Y-91852543D01*
X75758500Y-91847098D01*
X75725696Y-91767900D01*
X75719196Y-91746473D01*
X75702470Y-91662389D01*
X75700276Y-91640109D01*
X75700276Y-91621690D01*
X75699674Y-91609439D01*
X75697868Y-91591102D01*
X75697868Y-91103380D01*
X75699457Y-91087241D01*
X75702372Y-91077632D01*
X75707110Y-91068768D01*
X75713483Y-91061003D01*
X75725926Y-91050792D01*
X75736295Y-91043862D01*
X75753622Y-91026535D01*
X75767235Y-91006160D01*
X75776611Y-90983520D01*
X75781391Y-90959487D01*
X75781390Y-90934983D01*
X75776608Y-90910950D01*
X75767230Y-90888311D01*
X75753615Y-90867938D01*
X75736288Y-90850611D01*
X75725918Y-90843682D01*
X75713483Y-90833477D01*
X75707110Y-90825712D01*
X75702372Y-90816848D01*
X75699457Y-90807239D01*
X75697868Y-90791100D01*
X75697868Y-90303379D01*
X75699674Y-90285041D01*
X75700276Y-90272790D01*
X75700276Y-90254371D01*
X75702470Y-90232091D01*
X75719196Y-90148007D01*
X75725696Y-90126580D01*
X75758500Y-90047382D01*
X75761411Y-90041937D01*
X75761413Y-90041931D01*
X75766149Y-90033071D01*
X75766152Y-90033067D01*
X75769060Y-90027626D01*
X75816691Y-89956341D01*
X75830892Y-89939036D01*
X75891516Y-89878412D01*
X75908821Y-89864211D01*
X75980106Y-89816580D01*
X75985547Y-89813672D01*
X75985551Y-89813669D01*
X75994411Y-89808933D01*
X75994417Y-89808931D01*
X75999862Y-89806020D01*
X76079060Y-89773216D01*
X76100487Y-89766716D01*
X76184571Y-89749990D01*
X76206851Y-89747796D01*
X76225270Y-89747796D01*
X76237521Y-89747194D01*
X76255859Y-89745388D01*
X76743581Y-89745388D01*
X76761919Y-89747194D01*
X76761919Y-89747194D01*
G37*
G36*
X79378119Y-89716954D02*
G01*
X79390370Y-89717556D01*
X79408789Y-89717556D01*
X79431069Y-89719750D01*
X79515153Y-89736476D01*
X79536580Y-89742976D01*
X79615778Y-89775780D01*
X79621223Y-89778691D01*
X79621229Y-89778693D01*
X79630089Y-89783429D01*
X79630093Y-89783432D01*
X79635534Y-89786340D01*
X79706819Y-89833971D01*
X79724124Y-89848172D01*
X79784748Y-89908796D01*
X79798949Y-89926101D01*
X79846580Y-89997386D01*
X79849488Y-90002827D01*
X79849491Y-90002831D01*
X79854227Y-90011691D01*
X79854229Y-90011697D01*
X79857140Y-90017142D01*
X79889944Y-90096340D01*
X79896444Y-90117767D01*
X79913170Y-90201851D01*
X79915364Y-90224131D01*
X79915364Y-90242550D01*
X79915966Y-90254801D01*
X79917772Y-90273139D01*
X79917772Y-90760860D01*
X79916183Y-90776999D01*
X79913268Y-90786608D01*
X79908530Y-90795472D01*
X79902157Y-90803237D01*
X79889714Y-90813448D01*
X79879345Y-90820378D01*
X79862018Y-90837705D01*
X79848405Y-90858080D01*
X79839029Y-90880720D01*
X79834249Y-90904753D01*
X79834250Y-90929257D01*
X79839032Y-90953290D01*
X79848410Y-90975929D01*
X79862025Y-90996302D01*
X79879352Y-91013629D01*
X79889722Y-91020558D01*
X79902157Y-91030763D01*
X79908530Y-91038528D01*
X79913268Y-91047392D01*
X79916183Y-91057001D01*
X79917772Y-91073140D01*
X79917772Y-91560862D01*
X79915966Y-91579199D01*
X79915364Y-91591450D01*
X79915364Y-91609869D01*
X79913170Y-91632149D01*
X79896444Y-91716233D01*
X79889944Y-91737660D01*
X79857140Y-91816858D01*
X79854229Y-91822303D01*
X79854227Y-91822309D01*
X79849491Y-91831169D01*
X79849488Y-91831173D01*
X79846580Y-91836614D01*
X79798949Y-91907899D01*
X79784748Y-91925204D01*
X79724124Y-91985828D01*
X79706819Y-92000029D01*
X79635534Y-92047660D01*
X79630093Y-92050568D01*
X79630089Y-92050571D01*
X79621229Y-92055307D01*
X79621223Y-92055309D01*
X79615778Y-92058220D01*
X79536580Y-92091024D01*
X79515153Y-92097524D01*
X79431069Y-92114250D01*
X79408789Y-92116444D01*
X79390370Y-92116444D01*
X79378119Y-92117046D01*
X79359782Y-92118852D01*
X78872058Y-92118852D01*
X78853721Y-92117046D01*
X78841470Y-92116444D01*
X78823051Y-92116444D01*
X78800771Y-92114250D01*
X78716687Y-92097524D01*
X78695260Y-92091024D01*
X78616062Y-92058220D01*
X78610617Y-92055309D01*
X78610611Y-92055307D01*
X78601751Y-92050571D01*
X78601747Y-92050568D01*
X78596306Y-92047660D01*
X78525021Y-92000029D01*
X78507716Y-91985828D01*
X78447092Y-91925204D01*
X78432891Y-91907899D01*
X78385260Y-91836614D01*
X78382352Y-91831173D01*
X78382349Y-91831169D01*
X78377613Y-91822309D01*
X78377611Y-91822303D01*
X78374700Y-91816858D01*
X78341896Y-91737660D01*
X78335396Y-91716233D01*
X78318670Y-91632149D01*
X78316476Y-91609869D01*
X78316476Y-91591450D01*
X78315874Y-91579199D01*
X78314068Y-91560862D01*
X78314068Y-91073140D01*
X78315657Y-91057001D01*
X78318572Y-91047392D01*
X78323310Y-91038528D01*
X78329683Y-91030763D01*
X78332600Y-91028369D01*
X78337449Y-91024390D01*
X78342126Y-91020552D01*
X78352495Y-91013622D01*
X78369822Y-90996295D01*
X78383435Y-90975920D01*
X78392811Y-90953280D01*
X78397591Y-90929247D01*
X78397590Y-90904743D01*
X78392808Y-90880710D01*
X78383430Y-90858071D01*
X78369815Y-90837698D01*
X78352488Y-90820371D01*
X78342118Y-90813442D01*
X78329683Y-90803237D01*
X78323310Y-90795472D01*
X78318572Y-90786608D01*
X78315657Y-90776999D01*
X78314068Y-90760860D01*
X78314068Y-90273139D01*
X78315874Y-90254801D01*
X78316476Y-90242550D01*
X78316476Y-90224131D01*
X78318670Y-90201851D01*
X78335396Y-90117767D01*
X78341896Y-90096340D01*
X78374700Y-90017142D01*
X78377611Y-90011697D01*
X78377613Y-90011691D01*
X78382349Y-90002831D01*
X78382352Y-90002827D01*
X78385260Y-89997386D01*
X78432891Y-89926101D01*
X78447092Y-89908796D01*
X78507716Y-89848172D01*
X78525021Y-89833971D01*
X78596306Y-89786340D01*
X78601747Y-89783432D01*
X78601751Y-89783429D01*
X78610611Y-89778693D01*
X78610617Y-89778691D01*
X78616062Y-89775780D01*
X78695260Y-89742976D01*
X78716687Y-89736476D01*
X78800771Y-89719750D01*
X78823051Y-89717556D01*
X78841470Y-89717556D01*
X78853721Y-89716954D01*
X78872059Y-89715148D01*
X79359781Y-89715148D01*
X79378119Y-89716954D01*
X79378119Y-89716954D01*
G37*
G36*
X87247039Y-89711634D02*
G01*
X87259290Y-89712236D01*
X87277709Y-89712236D01*
X87299989Y-89714430D01*
X87384073Y-89731156D01*
X87405500Y-89737656D01*
X87484698Y-89770460D01*
X87490143Y-89773371D01*
X87490149Y-89773373D01*
X87499009Y-89778109D01*
X87499013Y-89778112D01*
X87504454Y-89781020D01*
X87575739Y-89828651D01*
X87593044Y-89842852D01*
X87653668Y-89903476D01*
X87667869Y-89920781D01*
X87715500Y-89992066D01*
X87718408Y-89997507D01*
X87718411Y-89997511D01*
X87723147Y-90006371D01*
X87723149Y-90006377D01*
X87726060Y-90011822D01*
X87758864Y-90091020D01*
X87765364Y-90112447D01*
X87782090Y-90196531D01*
X87784284Y-90218811D01*
X87784284Y-90237230D01*
X87784886Y-90249481D01*
X87786692Y-90267819D01*
X87786692Y-90755540D01*
X87785103Y-90771679D01*
X87782188Y-90781288D01*
X87777450Y-90790152D01*
X87771077Y-90797917D01*
X87758634Y-90808128D01*
X87748265Y-90815058D01*
X87730938Y-90832385D01*
X87717325Y-90852760D01*
X87707949Y-90875400D01*
X87703169Y-90899433D01*
X87703170Y-90923937D01*
X87707952Y-90947970D01*
X87717330Y-90970609D01*
X87730945Y-90990982D01*
X87748272Y-91008309D01*
X87758642Y-91015238D01*
X87771077Y-91025443D01*
X87777450Y-91033208D01*
X87782188Y-91042072D01*
X87785103Y-91051681D01*
X87786692Y-91067820D01*
X87786692Y-91555542D01*
X87784886Y-91573879D01*
X87784284Y-91586130D01*
X87784284Y-91604549D01*
X87782090Y-91626829D01*
X87765364Y-91710913D01*
X87758864Y-91732340D01*
X87726060Y-91811538D01*
X87723149Y-91816983D01*
X87723147Y-91816989D01*
X87718411Y-91825849D01*
X87718408Y-91825853D01*
X87715500Y-91831294D01*
X87667869Y-91902579D01*
X87653668Y-91919884D01*
X87593044Y-91980508D01*
X87575739Y-91994709D01*
X87504454Y-92042340D01*
X87499013Y-92045248D01*
X87499009Y-92045251D01*
X87490149Y-92049987D01*
X87490143Y-92049989D01*
X87484698Y-92052900D01*
X87405500Y-92085704D01*
X87384073Y-92092204D01*
X87299989Y-92108930D01*
X87277709Y-92111124D01*
X87259290Y-92111124D01*
X87247039Y-92111726D01*
X87228702Y-92113532D01*
X86740978Y-92113532D01*
X86722641Y-92111726D01*
X86710390Y-92111124D01*
X86691971Y-92111124D01*
X86669691Y-92108930D01*
X86585607Y-92092204D01*
X86564180Y-92085704D01*
X86484982Y-92052900D01*
X86479537Y-92049989D01*
X86479531Y-92049987D01*
X86470671Y-92045251D01*
X86470667Y-92045248D01*
X86465226Y-92042340D01*
X86393941Y-91994709D01*
X86376636Y-91980508D01*
X86316012Y-91919884D01*
X86301811Y-91902579D01*
X86254180Y-91831294D01*
X86251272Y-91825853D01*
X86251269Y-91825849D01*
X86246533Y-91816989D01*
X86246531Y-91816983D01*
X86243620Y-91811538D01*
X86210816Y-91732340D01*
X86204316Y-91710913D01*
X86187590Y-91626829D01*
X86185396Y-91604549D01*
X86185396Y-91586130D01*
X86184794Y-91573879D01*
X86182988Y-91555542D01*
X86182988Y-91067820D01*
X86184577Y-91051681D01*
X86187492Y-91042072D01*
X86192230Y-91033208D01*
X86198603Y-91025443D01*
X86211046Y-91015232D01*
X86221415Y-91008302D01*
X86238742Y-90990975D01*
X86252355Y-90970600D01*
X86261731Y-90947960D01*
X86266511Y-90923927D01*
X86266510Y-90899423D01*
X86261728Y-90875390D01*
X86252350Y-90852751D01*
X86238735Y-90832378D01*
X86221408Y-90815051D01*
X86211038Y-90808122D01*
X86198603Y-90797917D01*
X86192230Y-90790152D01*
X86187492Y-90781288D01*
X86184577Y-90771679D01*
X86182988Y-90755540D01*
X86182988Y-90267819D01*
X86184794Y-90249481D01*
X86185396Y-90237230D01*
X86185396Y-90218811D01*
X86187590Y-90196531D01*
X86204316Y-90112447D01*
X86210816Y-90091020D01*
X86243620Y-90011822D01*
X86246531Y-90006377D01*
X86246533Y-90006371D01*
X86251269Y-89997511D01*
X86251272Y-89997507D01*
X86254180Y-89992066D01*
X86301811Y-89920781D01*
X86316012Y-89903476D01*
X86376636Y-89842852D01*
X86393941Y-89828651D01*
X86465226Y-89781020D01*
X86470667Y-89778112D01*
X86470671Y-89778109D01*
X86479531Y-89773373D01*
X86479537Y-89773371D01*
X86484982Y-89770460D01*
X86564180Y-89737656D01*
X86585607Y-89731156D01*
X86669691Y-89714430D01*
X86691971Y-89712236D01*
X86710390Y-89712236D01*
X86722641Y-89711634D01*
X86740979Y-89709828D01*
X87228701Y-89709828D01*
X87247039Y-89711634D01*
X87247039Y-89711634D01*
G37*
G36*
X84661319Y-89706794D02*
G01*
X84673570Y-89707396D01*
X84691989Y-89707396D01*
X84714269Y-89709590D01*
X84798353Y-89726316D01*
X84819780Y-89732816D01*
X84898978Y-89765620D01*
X84904423Y-89768531D01*
X84904429Y-89768533D01*
X84913289Y-89773269D01*
X84913293Y-89773272D01*
X84918734Y-89776180D01*
X84990019Y-89823811D01*
X85007324Y-89838012D01*
X85067948Y-89898636D01*
X85082149Y-89915941D01*
X85129780Y-89987226D01*
X85132688Y-89992667D01*
X85132691Y-89992671D01*
X85137427Y-90001531D01*
X85137429Y-90001537D01*
X85140340Y-90006982D01*
X85173144Y-90086180D01*
X85179644Y-90107607D01*
X85196370Y-90191691D01*
X85198564Y-90213971D01*
X85198564Y-90232390D01*
X85199166Y-90244641D01*
X85200972Y-90262979D01*
X85200972Y-90750700D01*
X85199383Y-90766839D01*
X85196468Y-90776448D01*
X85191730Y-90785312D01*
X85185554Y-90792837D01*
X85185357Y-90793077D01*
X85182439Y-90795472D01*
X85172914Y-90803288D01*
X85162545Y-90810218D01*
X85145218Y-90827545D01*
X85131605Y-90847920D01*
X85122229Y-90870560D01*
X85117449Y-90894593D01*
X85117450Y-90919097D01*
X85122232Y-90943130D01*
X85131610Y-90965769D01*
X85145225Y-90986142D01*
X85162552Y-91003469D01*
X85172922Y-91010398D01*
X85185357Y-91020603D01*
X85191730Y-91028368D01*
X85196468Y-91037232D01*
X85199383Y-91046841D01*
X85200972Y-91062980D01*
X85200972Y-91550702D01*
X85199166Y-91569039D01*
X85198564Y-91581290D01*
X85198564Y-91599709D01*
X85196370Y-91621989D01*
X85179644Y-91706073D01*
X85173144Y-91727500D01*
X85140340Y-91806698D01*
X85137429Y-91812143D01*
X85137427Y-91812149D01*
X85132691Y-91821009D01*
X85132688Y-91821013D01*
X85129780Y-91826454D01*
X85082149Y-91897739D01*
X85067948Y-91915044D01*
X85007324Y-91975668D01*
X84990019Y-91989869D01*
X84918734Y-92037500D01*
X84913293Y-92040408D01*
X84913289Y-92040411D01*
X84904429Y-92045147D01*
X84904423Y-92045149D01*
X84898978Y-92048060D01*
X84819780Y-92080864D01*
X84798353Y-92087364D01*
X84714269Y-92104090D01*
X84691989Y-92106284D01*
X84673570Y-92106284D01*
X84661319Y-92106886D01*
X84642982Y-92108692D01*
X84155258Y-92108692D01*
X84136921Y-92106886D01*
X84124670Y-92106284D01*
X84106251Y-92106284D01*
X84083971Y-92104090D01*
X83999887Y-92087364D01*
X83978460Y-92080864D01*
X83899262Y-92048060D01*
X83893817Y-92045149D01*
X83893811Y-92045147D01*
X83884951Y-92040411D01*
X83884947Y-92040408D01*
X83879506Y-92037500D01*
X83808221Y-91989869D01*
X83790916Y-91975668D01*
X83730292Y-91915044D01*
X83716091Y-91897739D01*
X83668460Y-91826454D01*
X83665552Y-91821013D01*
X83665549Y-91821009D01*
X83660813Y-91812149D01*
X83660811Y-91812143D01*
X83657900Y-91806698D01*
X83625096Y-91727500D01*
X83618596Y-91706073D01*
X83601870Y-91621989D01*
X83599676Y-91599709D01*
X83599676Y-91581290D01*
X83599074Y-91569039D01*
X83597268Y-91550702D01*
X83597268Y-91062980D01*
X83598857Y-91046841D01*
X83601772Y-91037232D01*
X83606510Y-91028368D01*
X83612883Y-91020603D01*
X83625326Y-91010392D01*
X83635695Y-91003462D01*
X83653022Y-90986135D01*
X83666635Y-90965760D01*
X83676011Y-90943120D01*
X83680791Y-90919087D01*
X83680790Y-90894583D01*
X83676008Y-90870550D01*
X83666630Y-90847911D01*
X83653015Y-90827538D01*
X83635688Y-90810211D01*
X83625318Y-90803282D01*
X83612883Y-90793077D01*
X83606510Y-90785312D01*
X83601772Y-90776448D01*
X83598857Y-90766839D01*
X83597268Y-90750700D01*
X83597268Y-90262979D01*
X83599074Y-90244641D01*
X83599676Y-90232390D01*
X83599676Y-90213971D01*
X83601870Y-90191691D01*
X83618596Y-90107607D01*
X83625096Y-90086180D01*
X83657900Y-90006982D01*
X83660811Y-90001537D01*
X83660813Y-90001531D01*
X83665549Y-89992671D01*
X83665552Y-89992667D01*
X83668460Y-89987226D01*
X83716091Y-89915941D01*
X83730292Y-89898636D01*
X83790916Y-89838012D01*
X83808221Y-89823811D01*
X83879506Y-89776180D01*
X83884947Y-89773272D01*
X83884951Y-89773269D01*
X83893811Y-89768533D01*
X83893817Y-89768531D01*
X83899262Y-89765620D01*
X83978460Y-89732816D01*
X83999887Y-89726316D01*
X84083971Y-89709590D01*
X84106251Y-89707396D01*
X84124670Y-89707396D01*
X84136921Y-89706794D01*
X84155259Y-89704988D01*
X84642981Y-89704988D01*
X84661319Y-89706794D01*
X84661319Y-89706794D01*
G37*
G36*
X82045119Y-89706554D02*
G01*
X82057370Y-89707156D01*
X82075789Y-89707156D01*
X82098069Y-89709350D01*
X82182153Y-89726076D01*
X82203580Y-89732576D01*
X82282778Y-89765380D01*
X82288223Y-89768291D01*
X82288229Y-89768293D01*
X82297089Y-89773029D01*
X82297093Y-89773032D01*
X82302534Y-89775940D01*
X82373819Y-89823571D01*
X82391124Y-89837772D01*
X82451748Y-89898396D01*
X82465949Y-89915701D01*
X82513580Y-89986986D01*
X82516488Y-89992427D01*
X82516491Y-89992431D01*
X82521227Y-90001291D01*
X82521229Y-90001297D01*
X82524140Y-90006742D01*
X82556944Y-90085940D01*
X82563444Y-90107367D01*
X82580170Y-90191451D01*
X82582364Y-90213729D01*
X82582364Y-90232150D01*
X82582966Y-90244401D01*
X82584772Y-90262739D01*
X82584772Y-90750460D01*
X82583183Y-90766599D01*
X82580268Y-90776208D01*
X82575530Y-90785072D01*
X82569157Y-90792837D01*
X82556714Y-90803048D01*
X82546345Y-90809978D01*
X82529018Y-90827305D01*
X82515405Y-90847680D01*
X82506029Y-90870320D01*
X82501249Y-90894353D01*
X82501250Y-90918857D01*
X82506032Y-90942890D01*
X82515410Y-90965529D01*
X82529025Y-90985902D01*
X82546352Y-91003229D01*
X82556722Y-91010158D01*
X82569157Y-91020363D01*
X82575530Y-91028128D01*
X82580268Y-91036992D01*
X82583183Y-91046601D01*
X82584772Y-91062738D01*
X82584772Y-91550462D01*
X82582966Y-91568799D01*
X82582364Y-91581050D01*
X82582364Y-91599469D01*
X82580170Y-91621749D01*
X82563444Y-91705833D01*
X82556944Y-91727260D01*
X82524140Y-91806458D01*
X82521229Y-91811903D01*
X82521227Y-91811909D01*
X82516491Y-91820769D01*
X82516488Y-91820773D01*
X82513580Y-91826214D01*
X82465949Y-91897499D01*
X82451748Y-91914804D01*
X82391124Y-91975428D01*
X82373819Y-91989629D01*
X82302534Y-92037260D01*
X82297093Y-92040168D01*
X82297089Y-92040171D01*
X82288229Y-92044907D01*
X82288223Y-92044909D01*
X82282778Y-92047820D01*
X82203580Y-92080624D01*
X82182153Y-92087124D01*
X82098069Y-92103850D01*
X82075789Y-92106044D01*
X82057370Y-92106044D01*
X82045119Y-92106646D01*
X82026782Y-92108452D01*
X81539058Y-92108452D01*
X81520721Y-92106646D01*
X81508470Y-92106044D01*
X81490051Y-92106044D01*
X81467771Y-92103850D01*
X81383687Y-92087124D01*
X81362260Y-92080624D01*
X81283062Y-92047820D01*
X81277617Y-92044909D01*
X81277611Y-92044907D01*
X81268751Y-92040171D01*
X81268747Y-92040168D01*
X81263306Y-92037260D01*
X81192021Y-91989629D01*
X81174716Y-91975428D01*
X81114092Y-91914804D01*
X81099891Y-91897499D01*
X81052260Y-91826214D01*
X81049352Y-91820773D01*
X81049349Y-91820769D01*
X81044613Y-91811909D01*
X81044611Y-91811903D01*
X81041700Y-91806458D01*
X81008896Y-91727260D01*
X81002396Y-91705833D01*
X80985670Y-91621749D01*
X80983476Y-91599469D01*
X80983476Y-91581050D01*
X80982874Y-91568799D01*
X80981068Y-91550462D01*
X80981068Y-91062738D01*
X80982657Y-91046601D01*
X80985572Y-91036992D01*
X80990310Y-91028128D01*
X80996683Y-91020363D01*
X81009126Y-91010152D01*
X81019495Y-91003222D01*
X81036822Y-90985895D01*
X81050435Y-90965520D01*
X81059811Y-90942880D01*
X81064591Y-90918847D01*
X81064590Y-90894343D01*
X81059808Y-90870310D01*
X81050430Y-90847671D01*
X81036815Y-90827298D01*
X81019488Y-90809971D01*
X81009118Y-90803042D01*
X80996683Y-90792837D01*
X80990310Y-90785072D01*
X80985572Y-90776208D01*
X80982657Y-90766599D01*
X80981068Y-90750460D01*
X80981068Y-90262739D01*
X80982874Y-90244401D01*
X80983476Y-90232150D01*
X80983476Y-90213729D01*
X80985670Y-90191451D01*
X81002396Y-90107367D01*
X81008896Y-90085940D01*
X81041700Y-90006742D01*
X81044611Y-90001297D01*
X81044613Y-90001291D01*
X81049349Y-89992431D01*
X81049352Y-89992427D01*
X81052260Y-89986986D01*
X81099891Y-89915701D01*
X81114092Y-89898396D01*
X81174716Y-89837772D01*
X81192021Y-89823571D01*
X81263306Y-89775940D01*
X81268747Y-89773032D01*
X81268751Y-89773029D01*
X81277611Y-89768293D01*
X81277617Y-89768291D01*
X81283062Y-89765380D01*
X81362260Y-89732576D01*
X81383687Y-89726076D01*
X81467771Y-89709350D01*
X81490051Y-89707156D01*
X81508470Y-89707156D01*
X81520721Y-89706554D01*
X81539059Y-89704748D01*
X82026781Y-89704748D01*
X82045119Y-89706554D01*
X82045119Y-89706554D01*
G37*
G36*
X73925891Y-89592205D02*
G01*
X73959869Y-89602513D01*
X73991190Y-89619254D01*
X74018639Y-89641781D01*
X74041166Y-89669230D01*
X74057907Y-89700551D01*
X74068215Y-89734529D01*
X74072300Y-89776010D01*
X74072300Y-90452230D01*
X74068215Y-90493711D01*
X74057907Y-90527689D01*
X74041166Y-90559010D01*
X74018639Y-90586459D01*
X73991190Y-90608986D01*
X73959869Y-90625727D01*
X73925891Y-90636035D01*
X73884410Y-90640120D01*
X73283190Y-90640120D01*
X73241709Y-90636035D01*
X73207731Y-90625727D01*
X73176410Y-90608986D01*
X73148961Y-90586459D01*
X73126434Y-90559010D01*
X73109693Y-90527689D01*
X73099385Y-90493711D01*
X73095300Y-90452230D01*
X73095300Y-89776010D01*
X73099385Y-89734529D01*
X73109693Y-89700551D01*
X73126434Y-89669230D01*
X73148961Y-89641781D01*
X73176410Y-89619254D01*
X73207731Y-89602513D01*
X73241709Y-89592205D01*
X73283190Y-89588120D01*
X73884410Y-89588120D01*
X73925891Y-89592205D01*
X73925891Y-89592205D01*
G37*
G36*
X72350891Y-89592205D02*
G01*
X72384869Y-89602513D01*
X72416190Y-89619254D01*
X72443639Y-89641781D01*
X72466166Y-89669230D01*
X72482907Y-89700551D01*
X72493215Y-89734529D01*
X72497300Y-89776010D01*
X72497300Y-90452230D01*
X72493215Y-90493711D01*
X72482907Y-90527689D01*
X72466166Y-90559010D01*
X72443639Y-90586459D01*
X72416190Y-90608986D01*
X72384869Y-90625727D01*
X72350891Y-90636035D01*
X72309410Y-90640120D01*
X71708190Y-90640120D01*
X71666709Y-90636035D01*
X71632731Y-90625727D01*
X71601410Y-90608986D01*
X71573961Y-90586459D01*
X71551434Y-90559010D01*
X71534693Y-90527689D01*
X71524385Y-90493711D01*
X71520300Y-90452230D01*
X71520300Y-89776010D01*
X71524385Y-89734529D01*
X71534693Y-89700551D01*
X71551434Y-89669230D01*
X71573961Y-89641781D01*
X71601410Y-89619254D01*
X71632731Y-89602513D01*
X71666709Y-89592205D01*
X71708190Y-89588120D01*
X72309410Y-89588120D01*
X72350891Y-89592205D01*
X72350891Y-89592205D01*
G37*
M02*
