G04 #@! TF.GenerationSoftware,KiCad,Pcbnew,(5.1.4)-1*
G04 #@! TF.CreationDate,2019-12-17T16:38:54-05:00*
G04 #@! TF.ProjectId,BJTPreamp,424a5450-7265-4616-9d70-2e6b69636164,rev?*
G04 #@! TF.SameCoordinates,Original*
G04 #@! TF.FileFunction,Copper,L2,Bot*
G04 #@! TF.FilePolarity,Positive*
%FSLAX46Y46*%
G04 Gerber Fmt 4.6, Leading zero omitted, Abs format (unit mm)*
G04 Created by KiCad (PCBNEW (5.1.4)-1) date 2019-12-17 16:38:54*
%MOMM*%
%LPD*%
G04 APERTURE LIST*
%ADD10R,2.400000X2.400000*%
%ADD11C,2.400000*%
%ADD12C,0.800000*%
%ADD13C,0.250000*%
%ADD14C,0.254000*%
G04 APERTURE END LIST*
D10*
X90865960Y-98541840D03*
D11*
X90865960Y-95041840D03*
X72872600Y-98567120D03*
D10*
X72872600Y-95067120D03*
D12*
X74790300Y-90297000D03*
X76022200Y-97942400D03*
X83083400Y-89636600D03*
X83616800Y-96291400D03*
X81699100Y-95986600D03*
X84556600Y-99529900D03*
X77856080Y-92374720D03*
X85725000Y-89636600D03*
X86512400Y-96710500D03*
X80378300Y-94767400D03*
X85979000Y-93408500D03*
D13*
X74790300Y-90297000D02*
X76022200Y-91528900D01*
X76022200Y-97376715D02*
X76022200Y-97942400D01*
X76022200Y-91528900D02*
X76022200Y-97376715D01*
X86704002Y-92691517D02*
X86704002Y-93769883D01*
X84182485Y-96291400D02*
X83616800Y-96291400D01*
X83083400Y-89636600D02*
X83649085Y-89636600D01*
X83649085Y-89636600D02*
X86704002Y-92691517D01*
X86704002Y-93769883D02*
X84182485Y-96291400D01*
X81699100Y-96672400D02*
X84556600Y-99529900D01*
X81699100Y-95986600D02*
X81699100Y-96672400D01*
X78256079Y-92774719D02*
X77856080Y-92374720D01*
X78565841Y-93084481D02*
X78256079Y-92774719D01*
X78565841Y-98484859D02*
X78565841Y-93084481D01*
X76555600Y-100495100D02*
X78565841Y-98484859D01*
X72872600Y-98567120D02*
X74800580Y-100495100D01*
X74800580Y-100495100D02*
X76555600Y-100495100D01*
X87154013Y-96068887D02*
X86912399Y-96310501D01*
X85725000Y-89636600D02*
X87154013Y-91065613D01*
X87154013Y-91065613D02*
X87154013Y-96068887D01*
X86912399Y-96310501D02*
X86512400Y-96710500D01*
X81737200Y-93408500D02*
X80378300Y-94767400D01*
X85979000Y-93408500D02*
X81737200Y-93408500D01*
D14*
G36*
X94259659Y-88188625D02*
G01*
X94509429Y-88264035D01*
X94739792Y-88386522D01*
X94941980Y-88551422D01*
X95108286Y-88752450D01*
X95232378Y-88981954D01*
X95309531Y-89231195D01*
X95340001Y-89521098D01*
X95340000Y-100767721D01*
X95311375Y-101059660D01*
X95235965Y-101309429D01*
X95113477Y-101539794D01*
X94948579Y-101741979D01*
X94747546Y-101908288D01*
X94518046Y-102032378D01*
X94268805Y-102109531D01*
X93978911Y-102140000D01*
X69832279Y-102140000D01*
X69540340Y-102111375D01*
X69290571Y-102035965D01*
X69060206Y-101913477D01*
X68858021Y-101748579D01*
X68691712Y-101547546D01*
X68567622Y-101318046D01*
X68490469Y-101068805D01*
X68460000Y-100778911D01*
X68460000Y-93867120D01*
X71034528Y-93867120D01*
X71034528Y-96267120D01*
X71046788Y-96391602D01*
X71083098Y-96511300D01*
X71142063Y-96621614D01*
X71221415Y-96718305D01*
X71318106Y-96797657D01*
X71428420Y-96856622D01*
X71548118Y-96892932D01*
X71672600Y-96905192D01*
X72089762Y-96905192D01*
X72003401Y-96940964D01*
X71702856Y-97141782D01*
X71447262Y-97397376D01*
X71246444Y-97697921D01*
X71108118Y-98031870D01*
X71037600Y-98386388D01*
X71037600Y-98747852D01*
X71108118Y-99102370D01*
X71246444Y-99436319D01*
X71447262Y-99736864D01*
X71702856Y-99992458D01*
X72003401Y-100193276D01*
X72337350Y-100331602D01*
X72691868Y-100402120D01*
X73053332Y-100402120D01*
X73407850Y-100331602D01*
X73517048Y-100286371D01*
X74236785Y-101006108D01*
X74260579Y-101035101D01*
X74289572Y-101058895D01*
X74289576Y-101058899D01*
X74305338Y-101071834D01*
X74376304Y-101130074D01*
X74508333Y-101200646D01*
X74651594Y-101244103D01*
X74763247Y-101255100D01*
X74763256Y-101255100D01*
X74800579Y-101258776D01*
X74837902Y-101255100D01*
X76518278Y-101255100D01*
X76555600Y-101258776D01*
X76592922Y-101255100D01*
X76592933Y-101255100D01*
X76704586Y-101244103D01*
X76847847Y-101200646D01*
X76979876Y-101130074D01*
X77095601Y-101035101D01*
X77119404Y-101006097D01*
X79076845Y-99048657D01*
X79105842Y-99024860D01*
X79133305Y-98991396D01*
X79200815Y-98909136D01*
X79271387Y-98777106D01*
X79280261Y-98747852D01*
X79314844Y-98633845D01*
X79325841Y-98522192D01*
X79325841Y-98522183D01*
X79329517Y-98484860D01*
X79325841Y-98447537D01*
X79325841Y-94665461D01*
X79343300Y-94665461D01*
X79343300Y-94869339D01*
X79383074Y-95069298D01*
X79461095Y-95257656D01*
X79574363Y-95427174D01*
X79718526Y-95571337D01*
X79888044Y-95684605D01*
X80076402Y-95762626D01*
X80276361Y-95802400D01*
X80480239Y-95802400D01*
X80680198Y-95762626D01*
X80689108Y-95758935D01*
X80664100Y-95884661D01*
X80664100Y-96088539D01*
X80703874Y-96288498D01*
X80781895Y-96476856D01*
X80895163Y-96646374D01*
X80936979Y-96688190D01*
X80939100Y-96709722D01*
X80939100Y-96709733D01*
X80950097Y-96821386D01*
X80976189Y-96907400D01*
X80993554Y-96964646D01*
X81064126Y-97096676D01*
X81135301Y-97183402D01*
X81159100Y-97212401D01*
X81188098Y-97236199D01*
X83521600Y-99569702D01*
X83521600Y-99631839D01*
X83561374Y-99831798D01*
X83639395Y-100020156D01*
X83752663Y-100189674D01*
X83896826Y-100333837D01*
X84066344Y-100447105D01*
X84254702Y-100525126D01*
X84454661Y-100564900D01*
X84658539Y-100564900D01*
X84858498Y-100525126D01*
X85046856Y-100447105D01*
X85216374Y-100333837D01*
X85360537Y-100189674D01*
X85473805Y-100020156D01*
X85551826Y-99831798D01*
X85591600Y-99631839D01*
X85591600Y-99427961D01*
X85551826Y-99228002D01*
X85473805Y-99039644D01*
X85360537Y-98870126D01*
X85216374Y-98725963D01*
X85046856Y-98612695D01*
X84858498Y-98534674D01*
X84658539Y-98494900D01*
X84596402Y-98494900D01*
X83406309Y-97304808D01*
X83514861Y-97326400D01*
X83718739Y-97326400D01*
X83918698Y-97286626D01*
X84107056Y-97208605D01*
X84276574Y-97095337D01*
X84331524Y-97040387D01*
X84474732Y-96996946D01*
X84606761Y-96926374D01*
X84722486Y-96831401D01*
X84746289Y-96802397D01*
X86394014Y-95154673D01*
X86394014Y-95678772D01*
X86210502Y-95715274D01*
X86022144Y-95793295D01*
X85852626Y-95906563D01*
X85708463Y-96050726D01*
X85595195Y-96220244D01*
X85517174Y-96408602D01*
X85477400Y-96608561D01*
X85477400Y-96812439D01*
X85517174Y-97012398D01*
X85595195Y-97200756D01*
X85708463Y-97370274D01*
X85852626Y-97514437D01*
X86022144Y-97627705D01*
X86210502Y-97705726D01*
X86410461Y-97745500D01*
X86614339Y-97745500D01*
X86814298Y-97705726D01*
X87002656Y-97627705D01*
X87172174Y-97514437D01*
X87316337Y-97370274D01*
X87335335Y-97341840D01*
X89027888Y-97341840D01*
X89027888Y-99741840D01*
X89040148Y-99866322D01*
X89076458Y-99986020D01*
X89135423Y-100096334D01*
X89214775Y-100193025D01*
X89311466Y-100272377D01*
X89421780Y-100331342D01*
X89541478Y-100367652D01*
X89665960Y-100379912D01*
X92065960Y-100379912D01*
X92190442Y-100367652D01*
X92310140Y-100331342D01*
X92420454Y-100272377D01*
X92517145Y-100193025D01*
X92596497Y-100096334D01*
X92655462Y-99986020D01*
X92691772Y-99866322D01*
X92704032Y-99741840D01*
X92704032Y-97341840D01*
X92691772Y-97217358D01*
X92655462Y-97097660D01*
X92596497Y-96987346D01*
X92517145Y-96890655D01*
X92420454Y-96811303D01*
X92310140Y-96752338D01*
X92190442Y-96716028D01*
X92065960Y-96703768D01*
X91659057Y-96703768D01*
X91844446Y-96604676D01*
X91964334Y-96319820D01*
X90865960Y-95221445D01*
X89767586Y-96319820D01*
X89887474Y-96604676D01*
X90086872Y-96703768D01*
X89665960Y-96703768D01*
X89541478Y-96716028D01*
X89421780Y-96752338D01*
X89311466Y-96811303D01*
X89214775Y-96890655D01*
X89135423Y-96987346D01*
X89076458Y-97097660D01*
X89040148Y-97217358D01*
X89027888Y-97341840D01*
X87335335Y-97341840D01*
X87429605Y-97200756D01*
X87507626Y-97012398D01*
X87547400Y-96812439D01*
X87547400Y-96750301D01*
X87665010Y-96632691D01*
X87694014Y-96608888D01*
X87788987Y-96493163D01*
X87859559Y-96361134D01*
X87903016Y-96217873D01*
X87914013Y-96106220D01*
X87914013Y-96106212D01*
X87917689Y-96068887D01*
X87914013Y-96031562D01*
X87914013Y-95096524D01*
X89022893Y-95096524D01*
X89068975Y-95455038D01*
X89184114Y-95797673D01*
X89303124Y-96020326D01*
X89587980Y-96140214D01*
X90686355Y-95041840D01*
X91045565Y-95041840D01*
X92143940Y-96140214D01*
X92428796Y-96020326D01*
X92589659Y-95696630D01*
X92684282Y-95347771D01*
X92709027Y-94987156D01*
X92662945Y-94628642D01*
X92547806Y-94286007D01*
X92428796Y-94063354D01*
X92143940Y-93943466D01*
X91045565Y-95041840D01*
X90686355Y-95041840D01*
X89587980Y-93943466D01*
X89303124Y-94063354D01*
X89142261Y-94387050D01*
X89047638Y-94735909D01*
X89022893Y-95096524D01*
X87914013Y-95096524D01*
X87914013Y-93763860D01*
X89767586Y-93763860D01*
X90865960Y-94862235D01*
X91964334Y-93763860D01*
X91844446Y-93479004D01*
X91520750Y-93318141D01*
X91171891Y-93223518D01*
X90811276Y-93198773D01*
X90452762Y-93244855D01*
X90110127Y-93359994D01*
X89887474Y-93479004D01*
X89767586Y-93763860D01*
X87914013Y-93763860D01*
X87914013Y-91102946D01*
X87917690Y-91065613D01*
X87903016Y-90916627D01*
X87859559Y-90773366D01*
X87788987Y-90641337D01*
X87717812Y-90554610D01*
X87694014Y-90525612D01*
X87665017Y-90501815D01*
X86760000Y-89596799D01*
X86760000Y-89534661D01*
X86720226Y-89334702D01*
X86642205Y-89146344D01*
X86528937Y-88976826D01*
X86384774Y-88832663D01*
X86215256Y-88719395D01*
X86026898Y-88641374D01*
X85826939Y-88601600D01*
X85623061Y-88601600D01*
X85423102Y-88641374D01*
X85234744Y-88719395D01*
X85065226Y-88832663D01*
X84921063Y-88976826D01*
X84807795Y-89146344D01*
X84729774Y-89334702D01*
X84690000Y-89534661D01*
X84690000Y-89602714D01*
X84212889Y-89125603D01*
X84189086Y-89096599D01*
X84073361Y-89001626D01*
X83941332Y-88931054D01*
X83798124Y-88887613D01*
X83743174Y-88832663D01*
X83573656Y-88719395D01*
X83385298Y-88641374D01*
X83185339Y-88601600D01*
X82981461Y-88601600D01*
X82781502Y-88641374D01*
X82593144Y-88719395D01*
X82423626Y-88832663D01*
X82279463Y-88976826D01*
X82166195Y-89146344D01*
X82088174Y-89334702D01*
X82048400Y-89534661D01*
X82048400Y-89738539D01*
X82088174Y-89938498D01*
X82166195Y-90126856D01*
X82279463Y-90296374D01*
X82423626Y-90440537D01*
X82593144Y-90553805D01*
X82781502Y-90631826D01*
X82981461Y-90671600D01*
X83185339Y-90671600D01*
X83385298Y-90631826D01*
X83515555Y-90577871D01*
X85452917Y-92515234D01*
X85319226Y-92604563D01*
X85275289Y-92648500D01*
X81774523Y-92648500D01*
X81737200Y-92644824D01*
X81699877Y-92648500D01*
X81699867Y-92648500D01*
X81588214Y-92659497D01*
X81444953Y-92702954D01*
X81312924Y-92773526D01*
X81197199Y-92868499D01*
X81173401Y-92897497D01*
X80338499Y-93732400D01*
X80276361Y-93732400D01*
X80076402Y-93772174D01*
X79888044Y-93850195D01*
X79718526Y-93963463D01*
X79574363Y-94107626D01*
X79461095Y-94277144D01*
X79383074Y-94465502D01*
X79343300Y-94665461D01*
X79325841Y-94665461D01*
X79325841Y-93121814D01*
X79329518Y-93084481D01*
X79314844Y-92935495D01*
X79271387Y-92792234D01*
X79209588Y-92676618D01*
X79200815Y-92660205D01*
X79105842Y-92544480D01*
X79076838Y-92520677D01*
X78891080Y-92334919D01*
X78891080Y-92272781D01*
X78851306Y-92072822D01*
X78773285Y-91884464D01*
X78660017Y-91714946D01*
X78515854Y-91570783D01*
X78346336Y-91457515D01*
X78157978Y-91379494D01*
X77958019Y-91339720D01*
X77754141Y-91339720D01*
X77554182Y-91379494D01*
X77365824Y-91457515D01*
X77196306Y-91570783D01*
X77052143Y-91714946D01*
X76938875Y-91884464D01*
X76860854Y-92072822D01*
X76821080Y-92272781D01*
X76821080Y-92476659D01*
X76860854Y-92676618D01*
X76938875Y-92864976D01*
X77052143Y-93034494D01*
X77196306Y-93178657D01*
X77365824Y-93291925D01*
X77554182Y-93369946D01*
X77754141Y-93409720D01*
X77805842Y-93409720D01*
X77805841Y-98170057D01*
X76240799Y-99735100D01*
X75115383Y-99735100D01*
X74591851Y-99211568D01*
X74637082Y-99102370D01*
X74707600Y-98747852D01*
X74707600Y-98386388D01*
X74637082Y-98031870D01*
X74498756Y-97697921D01*
X74297938Y-97397376D01*
X74042344Y-97141782D01*
X73741799Y-96940964D01*
X73655438Y-96905192D01*
X74072600Y-96905192D01*
X74197082Y-96892932D01*
X74316780Y-96856622D01*
X74427094Y-96797657D01*
X74523785Y-96718305D01*
X74603137Y-96621614D01*
X74662102Y-96511300D01*
X74698412Y-96391602D01*
X74710672Y-96267120D01*
X74710672Y-93867120D01*
X74698412Y-93742638D01*
X74662102Y-93622940D01*
X74603137Y-93512626D01*
X74523785Y-93415935D01*
X74427094Y-93336583D01*
X74316780Y-93277618D01*
X74197082Y-93241308D01*
X74072600Y-93229048D01*
X71672600Y-93229048D01*
X71548118Y-93241308D01*
X71428420Y-93277618D01*
X71318106Y-93336583D01*
X71221415Y-93415935D01*
X71142063Y-93512626D01*
X71083098Y-93622940D01*
X71046788Y-93742638D01*
X71034528Y-93867120D01*
X68460000Y-93867120D01*
X68460000Y-90195061D01*
X73755300Y-90195061D01*
X73755300Y-90398939D01*
X73795074Y-90598898D01*
X73873095Y-90787256D01*
X73986363Y-90956774D01*
X74130526Y-91100937D01*
X74300044Y-91214205D01*
X74488402Y-91292226D01*
X74688361Y-91332000D01*
X74750499Y-91332000D01*
X75262200Y-91843702D01*
X75262201Y-97238688D01*
X75218263Y-97282626D01*
X75104995Y-97452144D01*
X75026974Y-97640502D01*
X74987200Y-97840461D01*
X74987200Y-98044339D01*
X75026974Y-98244298D01*
X75104995Y-98432656D01*
X75218263Y-98602174D01*
X75362426Y-98746337D01*
X75531944Y-98859605D01*
X75720302Y-98937626D01*
X75920261Y-98977400D01*
X76124139Y-98977400D01*
X76324098Y-98937626D01*
X76512456Y-98859605D01*
X76681974Y-98746337D01*
X76826137Y-98602174D01*
X76939405Y-98432656D01*
X77017426Y-98244298D01*
X77057200Y-98044339D01*
X77057200Y-97840461D01*
X77017426Y-97640502D01*
X76939405Y-97452144D01*
X76826137Y-97282626D01*
X76782200Y-97238689D01*
X76782200Y-91566225D01*
X76785876Y-91528900D01*
X76782200Y-91491575D01*
X76782200Y-91491567D01*
X76771203Y-91379914D01*
X76727746Y-91236653D01*
X76657174Y-91104624D01*
X76562201Y-90988899D01*
X76533204Y-90965102D01*
X75825300Y-90257199D01*
X75825300Y-90195061D01*
X75785526Y-89995102D01*
X75707505Y-89806744D01*
X75594237Y-89637226D01*
X75450074Y-89493063D01*
X75280556Y-89379795D01*
X75092198Y-89301774D01*
X74892239Y-89262000D01*
X74688361Y-89262000D01*
X74488402Y-89301774D01*
X74300044Y-89379795D01*
X74130526Y-89493063D01*
X73986363Y-89637226D01*
X73873095Y-89806744D01*
X73795074Y-89995102D01*
X73755300Y-90195061D01*
X68460000Y-90195061D01*
X68460000Y-89532279D01*
X68488625Y-89240341D01*
X68564035Y-88990571D01*
X68686522Y-88760208D01*
X68851422Y-88558020D01*
X69052450Y-88391714D01*
X69281954Y-88267622D01*
X69531195Y-88190469D01*
X69821088Y-88160000D01*
X93967721Y-88160000D01*
X94259659Y-88188625D01*
X94259659Y-88188625D01*
G37*
X94259659Y-88188625D02*
X94509429Y-88264035D01*
X94739792Y-88386522D01*
X94941980Y-88551422D01*
X95108286Y-88752450D01*
X95232378Y-88981954D01*
X95309531Y-89231195D01*
X95340001Y-89521098D01*
X95340000Y-100767721D01*
X95311375Y-101059660D01*
X95235965Y-101309429D01*
X95113477Y-101539794D01*
X94948579Y-101741979D01*
X94747546Y-101908288D01*
X94518046Y-102032378D01*
X94268805Y-102109531D01*
X93978911Y-102140000D01*
X69832279Y-102140000D01*
X69540340Y-102111375D01*
X69290571Y-102035965D01*
X69060206Y-101913477D01*
X68858021Y-101748579D01*
X68691712Y-101547546D01*
X68567622Y-101318046D01*
X68490469Y-101068805D01*
X68460000Y-100778911D01*
X68460000Y-93867120D01*
X71034528Y-93867120D01*
X71034528Y-96267120D01*
X71046788Y-96391602D01*
X71083098Y-96511300D01*
X71142063Y-96621614D01*
X71221415Y-96718305D01*
X71318106Y-96797657D01*
X71428420Y-96856622D01*
X71548118Y-96892932D01*
X71672600Y-96905192D01*
X72089762Y-96905192D01*
X72003401Y-96940964D01*
X71702856Y-97141782D01*
X71447262Y-97397376D01*
X71246444Y-97697921D01*
X71108118Y-98031870D01*
X71037600Y-98386388D01*
X71037600Y-98747852D01*
X71108118Y-99102370D01*
X71246444Y-99436319D01*
X71447262Y-99736864D01*
X71702856Y-99992458D01*
X72003401Y-100193276D01*
X72337350Y-100331602D01*
X72691868Y-100402120D01*
X73053332Y-100402120D01*
X73407850Y-100331602D01*
X73517048Y-100286371D01*
X74236785Y-101006108D01*
X74260579Y-101035101D01*
X74289572Y-101058895D01*
X74289576Y-101058899D01*
X74305338Y-101071834D01*
X74376304Y-101130074D01*
X74508333Y-101200646D01*
X74651594Y-101244103D01*
X74763247Y-101255100D01*
X74763256Y-101255100D01*
X74800579Y-101258776D01*
X74837902Y-101255100D01*
X76518278Y-101255100D01*
X76555600Y-101258776D01*
X76592922Y-101255100D01*
X76592933Y-101255100D01*
X76704586Y-101244103D01*
X76847847Y-101200646D01*
X76979876Y-101130074D01*
X77095601Y-101035101D01*
X77119404Y-101006097D01*
X79076845Y-99048657D01*
X79105842Y-99024860D01*
X79133305Y-98991396D01*
X79200815Y-98909136D01*
X79271387Y-98777106D01*
X79280261Y-98747852D01*
X79314844Y-98633845D01*
X79325841Y-98522192D01*
X79325841Y-98522183D01*
X79329517Y-98484860D01*
X79325841Y-98447537D01*
X79325841Y-94665461D01*
X79343300Y-94665461D01*
X79343300Y-94869339D01*
X79383074Y-95069298D01*
X79461095Y-95257656D01*
X79574363Y-95427174D01*
X79718526Y-95571337D01*
X79888044Y-95684605D01*
X80076402Y-95762626D01*
X80276361Y-95802400D01*
X80480239Y-95802400D01*
X80680198Y-95762626D01*
X80689108Y-95758935D01*
X80664100Y-95884661D01*
X80664100Y-96088539D01*
X80703874Y-96288498D01*
X80781895Y-96476856D01*
X80895163Y-96646374D01*
X80936979Y-96688190D01*
X80939100Y-96709722D01*
X80939100Y-96709733D01*
X80950097Y-96821386D01*
X80976189Y-96907400D01*
X80993554Y-96964646D01*
X81064126Y-97096676D01*
X81135301Y-97183402D01*
X81159100Y-97212401D01*
X81188098Y-97236199D01*
X83521600Y-99569702D01*
X83521600Y-99631839D01*
X83561374Y-99831798D01*
X83639395Y-100020156D01*
X83752663Y-100189674D01*
X83896826Y-100333837D01*
X84066344Y-100447105D01*
X84254702Y-100525126D01*
X84454661Y-100564900D01*
X84658539Y-100564900D01*
X84858498Y-100525126D01*
X85046856Y-100447105D01*
X85216374Y-100333837D01*
X85360537Y-100189674D01*
X85473805Y-100020156D01*
X85551826Y-99831798D01*
X85591600Y-99631839D01*
X85591600Y-99427961D01*
X85551826Y-99228002D01*
X85473805Y-99039644D01*
X85360537Y-98870126D01*
X85216374Y-98725963D01*
X85046856Y-98612695D01*
X84858498Y-98534674D01*
X84658539Y-98494900D01*
X84596402Y-98494900D01*
X83406309Y-97304808D01*
X83514861Y-97326400D01*
X83718739Y-97326400D01*
X83918698Y-97286626D01*
X84107056Y-97208605D01*
X84276574Y-97095337D01*
X84331524Y-97040387D01*
X84474732Y-96996946D01*
X84606761Y-96926374D01*
X84722486Y-96831401D01*
X84746289Y-96802397D01*
X86394014Y-95154673D01*
X86394014Y-95678772D01*
X86210502Y-95715274D01*
X86022144Y-95793295D01*
X85852626Y-95906563D01*
X85708463Y-96050726D01*
X85595195Y-96220244D01*
X85517174Y-96408602D01*
X85477400Y-96608561D01*
X85477400Y-96812439D01*
X85517174Y-97012398D01*
X85595195Y-97200756D01*
X85708463Y-97370274D01*
X85852626Y-97514437D01*
X86022144Y-97627705D01*
X86210502Y-97705726D01*
X86410461Y-97745500D01*
X86614339Y-97745500D01*
X86814298Y-97705726D01*
X87002656Y-97627705D01*
X87172174Y-97514437D01*
X87316337Y-97370274D01*
X87335335Y-97341840D01*
X89027888Y-97341840D01*
X89027888Y-99741840D01*
X89040148Y-99866322D01*
X89076458Y-99986020D01*
X89135423Y-100096334D01*
X89214775Y-100193025D01*
X89311466Y-100272377D01*
X89421780Y-100331342D01*
X89541478Y-100367652D01*
X89665960Y-100379912D01*
X92065960Y-100379912D01*
X92190442Y-100367652D01*
X92310140Y-100331342D01*
X92420454Y-100272377D01*
X92517145Y-100193025D01*
X92596497Y-100096334D01*
X92655462Y-99986020D01*
X92691772Y-99866322D01*
X92704032Y-99741840D01*
X92704032Y-97341840D01*
X92691772Y-97217358D01*
X92655462Y-97097660D01*
X92596497Y-96987346D01*
X92517145Y-96890655D01*
X92420454Y-96811303D01*
X92310140Y-96752338D01*
X92190442Y-96716028D01*
X92065960Y-96703768D01*
X91659057Y-96703768D01*
X91844446Y-96604676D01*
X91964334Y-96319820D01*
X90865960Y-95221445D01*
X89767586Y-96319820D01*
X89887474Y-96604676D01*
X90086872Y-96703768D01*
X89665960Y-96703768D01*
X89541478Y-96716028D01*
X89421780Y-96752338D01*
X89311466Y-96811303D01*
X89214775Y-96890655D01*
X89135423Y-96987346D01*
X89076458Y-97097660D01*
X89040148Y-97217358D01*
X89027888Y-97341840D01*
X87335335Y-97341840D01*
X87429605Y-97200756D01*
X87507626Y-97012398D01*
X87547400Y-96812439D01*
X87547400Y-96750301D01*
X87665010Y-96632691D01*
X87694014Y-96608888D01*
X87788987Y-96493163D01*
X87859559Y-96361134D01*
X87903016Y-96217873D01*
X87914013Y-96106220D01*
X87914013Y-96106212D01*
X87917689Y-96068887D01*
X87914013Y-96031562D01*
X87914013Y-95096524D01*
X89022893Y-95096524D01*
X89068975Y-95455038D01*
X89184114Y-95797673D01*
X89303124Y-96020326D01*
X89587980Y-96140214D01*
X90686355Y-95041840D01*
X91045565Y-95041840D01*
X92143940Y-96140214D01*
X92428796Y-96020326D01*
X92589659Y-95696630D01*
X92684282Y-95347771D01*
X92709027Y-94987156D01*
X92662945Y-94628642D01*
X92547806Y-94286007D01*
X92428796Y-94063354D01*
X92143940Y-93943466D01*
X91045565Y-95041840D01*
X90686355Y-95041840D01*
X89587980Y-93943466D01*
X89303124Y-94063354D01*
X89142261Y-94387050D01*
X89047638Y-94735909D01*
X89022893Y-95096524D01*
X87914013Y-95096524D01*
X87914013Y-93763860D01*
X89767586Y-93763860D01*
X90865960Y-94862235D01*
X91964334Y-93763860D01*
X91844446Y-93479004D01*
X91520750Y-93318141D01*
X91171891Y-93223518D01*
X90811276Y-93198773D01*
X90452762Y-93244855D01*
X90110127Y-93359994D01*
X89887474Y-93479004D01*
X89767586Y-93763860D01*
X87914013Y-93763860D01*
X87914013Y-91102946D01*
X87917690Y-91065613D01*
X87903016Y-90916627D01*
X87859559Y-90773366D01*
X87788987Y-90641337D01*
X87717812Y-90554610D01*
X87694014Y-90525612D01*
X87665017Y-90501815D01*
X86760000Y-89596799D01*
X86760000Y-89534661D01*
X86720226Y-89334702D01*
X86642205Y-89146344D01*
X86528937Y-88976826D01*
X86384774Y-88832663D01*
X86215256Y-88719395D01*
X86026898Y-88641374D01*
X85826939Y-88601600D01*
X85623061Y-88601600D01*
X85423102Y-88641374D01*
X85234744Y-88719395D01*
X85065226Y-88832663D01*
X84921063Y-88976826D01*
X84807795Y-89146344D01*
X84729774Y-89334702D01*
X84690000Y-89534661D01*
X84690000Y-89602714D01*
X84212889Y-89125603D01*
X84189086Y-89096599D01*
X84073361Y-89001626D01*
X83941332Y-88931054D01*
X83798124Y-88887613D01*
X83743174Y-88832663D01*
X83573656Y-88719395D01*
X83385298Y-88641374D01*
X83185339Y-88601600D01*
X82981461Y-88601600D01*
X82781502Y-88641374D01*
X82593144Y-88719395D01*
X82423626Y-88832663D01*
X82279463Y-88976826D01*
X82166195Y-89146344D01*
X82088174Y-89334702D01*
X82048400Y-89534661D01*
X82048400Y-89738539D01*
X82088174Y-89938498D01*
X82166195Y-90126856D01*
X82279463Y-90296374D01*
X82423626Y-90440537D01*
X82593144Y-90553805D01*
X82781502Y-90631826D01*
X82981461Y-90671600D01*
X83185339Y-90671600D01*
X83385298Y-90631826D01*
X83515555Y-90577871D01*
X85452917Y-92515234D01*
X85319226Y-92604563D01*
X85275289Y-92648500D01*
X81774523Y-92648500D01*
X81737200Y-92644824D01*
X81699877Y-92648500D01*
X81699867Y-92648500D01*
X81588214Y-92659497D01*
X81444953Y-92702954D01*
X81312924Y-92773526D01*
X81197199Y-92868499D01*
X81173401Y-92897497D01*
X80338499Y-93732400D01*
X80276361Y-93732400D01*
X80076402Y-93772174D01*
X79888044Y-93850195D01*
X79718526Y-93963463D01*
X79574363Y-94107626D01*
X79461095Y-94277144D01*
X79383074Y-94465502D01*
X79343300Y-94665461D01*
X79325841Y-94665461D01*
X79325841Y-93121814D01*
X79329518Y-93084481D01*
X79314844Y-92935495D01*
X79271387Y-92792234D01*
X79209588Y-92676618D01*
X79200815Y-92660205D01*
X79105842Y-92544480D01*
X79076838Y-92520677D01*
X78891080Y-92334919D01*
X78891080Y-92272781D01*
X78851306Y-92072822D01*
X78773285Y-91884464D01*
X78660017Y-91714946D01*
X78515854Y-91570783D01*
X78346336Y-91457515D01*
X78157978Y-91379494D01*
X77958019Y-91339720D01*
X77754141Y-91339720D01*
X77554182Y-91379494D01*
X77365824Y-91457515D01*
X77196306Y-91570783D01*
X77052143Y-91714946D01*
X76938875Y-91884464D01*
X76860854Y-92072822D01*
X76821080Y-92272781D01*
X76821080Y-92476659D01*
X76860854Y-92676618D01*
X76938875Y-92864976D01*
X77052143Y-93034494D01*
X77196306Y-93178657D01*
X77365824Y-93291925D01*
X77554182Y-93369946D01*
X77754141Y-93409720D01*
X77805842Y-93409720D01*
X77805841Y-98170057D01*
X76240799Y-99735100D01*
X75115383Y-99735100D01*
X74591851Y-99211568D01*
X74637082Y-99102370D01*
X74707600Y-98747852D01*
X74707600Y-98386388D01*
X74637082Y-98031870D01*
X74498756Y-97697921D01*
X74297938Y-97397376D01*
X74042344Y-97141782D01*
X73741799Y-96940964D01*
X73655438Y-96905192D01*
X74072600Y-96905192D01*
X74197082Y-96892932D01*
X74316780Y-96856622D01*
X74427094Y-96797657D01*
X74523785Y-96718305D01*
X74603137Y-96621614D01*
X74662102Y-96511300D01*
X74698412Y-96391602D01*
X74710672Y-96267120D01*
X74710672Y-93867120D01*
X74698412Y-93742638D01*
X74662102Y-93622940D01*
X74603137Y-93512626D01*
X74523785Y-93415935D01*
X74427094Y-93336583D01*
X74316780Y-93277618D01*
X74197082Y-93241308D01*
X74072600Y-93229048D01*
X71672600Y-93229048D01*
X71548118Y-93241308D01*
X71428420Y-93277618D01*
X71318106Y-93336583D01*
X71221415Y-93415935D01*
X71142063Y-93512626D01*
X71083098Y-93622940D01*
X71046788Y-93742638D01*
X71034528Y-93867120D01*
X68460000Y-93867120D01*
X68460000Y-90195061D01*
X73755300Y-90195061D01*
X73755300Y-90398939D01*
X73795074Y-90598898D01*
X73873095Y-90787256D01*
X73986363Y-90956774D01*
X74130526Y-91100937D01*
X74300044Y-91214205D01*
X74488402Y-91292226D01*
X74688361Y-91332000D01*
X74750499Y-91332000D01*
X75262200Y-91843702D01*
X75262201Y-97238688D01*
X75218263Y-97282626D01*
X75104995Y-97452144D01*
X75026974Y-97640502D01*
X74987200Y-97840461D01*
X74987200Y-98044339D01*
X75026974Y-98244298D01*
X75104995Y-98432656D01*
X75218263Y-98602174D01*
X75362426Y-98746337D01*
X75531944Y-98859605D01*
X75720302Y-98937626D01*
X75920261Y-98977400D01*
X76124139Y-98977400D01*
X76324098Y-98937626D01*
X76512456Y-98859605D01*
X76681974Y-98746337D01*
X76826137Y-98602174D01*
X76939405Y-98432656D01*
X77017426Y-98244298D01*
X77057200Y-98044339D01*
X77057200Y-97840461D01*
X77017426Y-97640502D01*
X76939405Y-97452144D01*
X76826137Y-97282626D01*
X76782200Y-97238689D01*
X76782200Y-91566225D01*
X76785876Y-91528900D01*
X76782200Y-91491575D01*
X76782200Y-91491567D01*
X76771203Y-91379914D01*
X76727746Y-91236653D01*
X76657174Y-91104624D01*
X76562201Y-90988899D01*
X76533204Y-90965102D01*
X75825300Y-90257199D01*
X75825300Y-90195061D01*
X75785526Y-89995102D01*
X75707505Y-89806744D01*
X75594237Y-89637226D01*
X75450074Y-89493063D01*
X75280556Y-89379795D01*
X75092198Y-89301774D01*
X74892239Y-89262000D01*
X74688361Y-89262000D01*
X74488402Y-89301774D01*
X74300044Y-89379795D01*
X74130526Y-89493063D01*
X73986363Y-89637226D01*
X73873095Y-89806744D01*
X73795074Y-89995102D01*
X73755300Y-90195061D01*
X68460000Y-90195061D01*
X68460000Y-89532279D01*
X68488625Y-89240341D01*
X68564035Y-88990571D01*
X68686522Y-88760208D01*
X68851422Y-88558020D01*
X69052450Y-88391714D01*
X69281954Y-88267622D01*
X69531195Y-88190469D01*
X69821088Y-88160000D01*
X93967721Y-88160000D01*
X94259659Y-88188625D01*
M02*
