G04 #@! TF.GenerationSoftware,KiCad,Pcbnew,(5.1.4)-1*
G04 #@! TF.CreationDate,2019-12-17T16:38:54-05:00*
G04 #@! TF.ProjectId,BJTPreamp,424a5450-7265-4616-9d70-2e6b69636164,rev?*
G04 #@! TF.SameCoordinates,Original*
G04 #@! TF.FileFunction,Legend,Bot*
G04 #@! TF.FilePolarity,Positive*
%FSLAX46Y46*%
G04 Gerber Fmt 4.6, Leading zero omitted, Abs format (unit mm)*
G04 Created by KiCad (PCBNEW (5.1.4)-1) date 2019-12-17 16:38:54*
%MOMM*%
%LPD*%
G04 APERTURE LIST*
%ADD10C,0.150000*%
G04 APERTURE END LIST*
D10*
X92788356Y-101372942D02*
X92835975Y-101420561D01*
X92978832Y-101468180D01*
X93074070Y-101468180D01*
X93216927Y-101420561D01*
X93312165Y-101325323D01*
X93359784Y-101230085D01*
X93407403Y-101039609D01*
X93407403Y-100896752D01*
X93359784Y-100706276D01*
X93312165Y-100611038D01*
X93216927Y-100515800D01*
X93074070Y-100468180D01*
X92978832Y-100468180D01*
X92835975Y-100515800D01*
X92788356Y-100563419D01*
X92216927Y-101468180D02*
X92312165Y-101420561D01*
X92359784Y-101372942D01*
X92407403Y-101277704D01*
X92407403Y-100991990D01*
X92359784Y-100896752D01*
X92312165Y-100849133D01*
X92216927Y-100801514D01*
X92074070Y-100801514D01*
X91978832Y-100849133D01*
X91931213Y-100896752D01*
X91883594Y-100991990D01*
X91883594Y-101277704D01*
X91931213Y-101372942D01*
X91978832Y-101420561D01*
X92074070Y-101468180D01*
X92216927Y-101468180D01*
X91455022Y-100801514D02*
X91455022Y-101468180D01*
X91455022Y-100896752D02*
X91407403Y-100849133D01*
X91312165Y-100801514D01*
X91169308Y-100801514D01*
X91074070Y-100849133D01*
X91026451Y-100944371D01*
X91026451Y-101468180D01*
X90121689Y-101468180D02*
X90121689Y-100468180D01*
X90121689Y-101420561D02*
X90216927Y-101468180D01*
X90407403Y-101468180D01*
X90502641Y-101420561D01*
X90550260Y-101372942D01*
X90597880Y-101277704D01*
X90597880Y-100991990D01*
X90550260Y-100896752D01*
X90502641Y-100849133D01*
X90407403Y-100801514D01*
X90216927Y-100801514D01*
X90121689Y-100849133D01*
X89264546Y-101420561D02*
X89359784Y-101468180D01*
X89550260Y-101468180D01*
X89645499Y-101420561D01*
X89693118Y-101325323D01*
X89693118Y-100944371D01*
X89645499Y-100849133D01*
X89550260Y-100801514D01*
X89359784Y-100801514D01*
X89264546Y-100849133D01*
X89216927Y-100944371D01*
X89216927Y-101039609D01*
X89693118Y-101134847D01*
X88788356Y-100801514D02*
X88788356Y-101468180D01*
X88788356Y-100896752D02*
X88740737Y-100849133D01*
X88645499Y-100801514D01*
X88502641Y-100801514D01*
X88407403Y-100849133D01*
X88359784Y-100944371D01*
X88359784Y-101468180D01*
X87931213Y-101420561D02*
X87835975Y-101468180D01*
X87645499Y-101468180D01*
X87550260Y-101420561D01*
X87502641Y-101325323D01*
X87502641Y-101277704D01*
X87550260Y-101182466D01*
X87645499Y-101134847D01*
X87788356Y-101134847D01*
X87883594Y-101087228D01*
X87931213Y-100991990D01*
X87931213Y-100944371D01*
X87883594Y-100849133D01*
X87788356Y-100801514D01*
X87645499Y-100801514D01*
X87550260Y-100849133D01*
X86931213Y-101468180D02*
X87026451Y-101420561D01*
X87074070Y-101372942D01*
X87121689Y-101277704D01*
X87121689Y-100991990D01*
X87074070Y-100896752D01*
X87026451Y-100849133D01*
X86931213Y-100801514D01*
X86788356Y-100801514D01*
X86693118Y-100849133D01*
X86645499Y-100896752D01*
X86597880Y-100991990D01*
X86597880Y-101277704D01*
X86645499Y-101372942D01*
X86693118Y-101420561D01*
X86788356Y-101468180D01*
X86931213Y-101468180D01*
X86169308Y-101468180D02*
X86169308Y-100801514D01*
X86169308Y-100991990D02*
X86121689Y-100896752D01*
X86074070Y-100849133D01*
X85978832Y-100801514D01*
X85883594Y-100801514D01*
X84074070Y-100420561D02*
X84931213Y-101706276D01*
X82978832Y-101468180D02*
X82978832Y-100468180D01*
X82740737Y-100468180D01*
X82597880Y-100515800D01*
X82502641Y-100611038D01*
X82455022Y-100706276D01*
X82407403Y-100896752D01*
X82407403Y-101039609D01*
X82455022Y-101230085D01*
X82502641Y-101325323D01*
X82597880Y-101420561D01*
X82740737Y-101468180D01*
X82978832Y-101468180D01*
X82074070Y-100801514D02*
X81835975Y-101468180D01*
X81597880Y-100801514D02*
X81835975Y-101468180D01*
X81931213Y-101706276D01*
X81978832Y-101753895D01*
X82074070Y-101801514D01*
X81216927Y-100801514D02*
X81216927Y-101468180D01*
X81216927Y-100896752D02*
X81169308Y-100849133D01*
X81074070Y-100801514D01*
X80931213Y-100801514D01*
X80835975Y-100849133D01*
X80788356Y-100944371D01*
X80788356Y-101468180D01*
X79883594Y-101468180D02*
X79883594Y-100944371D01*
X79931213Y-100849133D01*
X80026451Y-100801514D01*
X80216927Y-100801514D01*
X80312165Y-100849133D01*
X79883594Y-101420561D02*
X79978832Y-101468180D01*
X80216927Y-101468180D01*
X80312165Y-101420561D01*
X80359784Y-101325323D01*
X80359784Y-101230085D01*
X80312165Y-101134847D01*
X80216927Y-101087228D01*
X79978832Y-101087228D01*
X79883594Y-101039609D01*
X79407403Y-101468180D02*
X79407403Y-100801514D01*
X79407403Y-100896752D02*
X79359784Y-100849133D01*
X79264546Y-100801514D01*
X79121689Y-100801514D01*
X79026451Y-100849133D01*
X78978832Y-100944371D01*
X78978832Y-101468180D01*
X78978832Y-100944371D02*
X78931213Y-100849133D01*
X78835975Y-100801514D01*
X78693118Y-100801514D01*
X78597880Y-100849133D01*
X78550260Y-100944371D01*
X78550260Y-101468180D01*
X78074070Y-101468180D02*
X78074070Y-100801514D01*
X78074070Y-100468180D02*
X78121689Y-100515800D01*
X78074070Y-100563419D01*
X78026451Y-100515800D01*
X78074070Y-100468180D01*
X78074070Y-100563419D01*
X77169308Y-101420561D02*
X77264546Y-101468180D01*
X77455022Y-101468180D01*
X77550260Y-101420561D01*
X77597880Y-101372942D01*
X77645499Y-101277704D01*
X77645499Y-100991990D01*
X77597880Y-100896752D01*
X77550260Y-100849133D01*
X77455022Y-100801514D01*
X77264546Y-100801514D01*
X77169308Y-100849133D01*
X75978832Y-101468180D02*
X75978832Y-100468180D01*
X75597880Y-100468180D01*
X75502641Y-100515800D01*
X75455022Y-100563419D01*
X75407403Y-100658657D01*
X75407403Y-100801514D01*
X75455022Y-100896752D01*
X75502641Y-100944371D01*
X75597880Y-100991990D01*
X75978832Y-100991990D01*
X74978832Y-101468180D02*
X74978832Y-100801514D01*
X74978832Y-100991990D02*
X74931213Y-100896752D01*
X74883594Y-100849133D01*
X74788356Y-100801514D01*
X74693118Y-100801514D01*
X73978832Y-101420561D02*
X74074070Y-101468180D01*
X74264546Y-101468180D01*
X74359784Y-101420561D01*
X74407403Y-101325323D01*
X74407403Y-100944371D01*
X74359784Y-100849133D01*
X74264546Y-100801514D01*
X74074070Y-100801514D01*
X73978832Y-100849133D01*
X73931213Y-100944371D01*
X73931213Y-101039609D01*
X74407403Y-101134847D01*
X73074070Y-101468180D02*
X73074070Y-100944371D01*
X73121689Y-100849133D01*
X73216927Y-100801514D01*
X73407403Y-100801514D01*
X73502641Y-100849133D01*
X73074070Y-101420561D02*
X73169308Y-101468180D01*
X73407403Y-101468180D01*
X73502641Y-101420561D01*
X73550260Y-101325323D01*
X73550260Y-101230085D01*
X73502641Y-101134847D01*
X73407403Y-101087228D01*
X73169308Y-101087228D01*
X73074070Y-101039609D01*
X72597880Y-101468180D02*
X72597880Y-100801514D01*
X72597880Y-100896752D02*
X72550260Y-100849133D01*
X72455022Y-100801514D01*
X72312165Y-100801514D01*
X72216927Y-100849133D01*
X72169308Y-100944371D01*
X72169308Y-101468180D01*
X72169308Y-100944371D02*
X72121689Y-100849133D01*
X72026451Y-100801514D01*
X71883594Y-100801514D01*
X71788356Y-100849133D01*
X71740737Y-100944371D01*
X71740737Y-101468180D01*
X71264546Y-100801514D02*
X71264546Y-101801514D01*
X71264546Y-100849133D02*
X71169308Y-100801514D01*
X70978832Y-100801514D01*
X70883594Y-100849133D01*
X70835975Y-100896752D01*
X70788356Y-100991990D01*
X70788356Y-101277704D01*
X70835975Y-101372942D01*
X70883594Y-101420561D01*
X70978832Y-101468180D01*
X71169308Y-101468180D01*
X71264546Y-101420561D01*
M02*
