G04 #@! TF.GenerationSoftware,KiCad,Pcbnew,(5.1.4)-1*
G04 #@! TF.CreationDate,2019-12-17T16:38:54-05:00*
G04 #@! TF.ProjectId,BJTPreamp,424a5450-7265-4616-9d70-2e6b69636164,rev?*
G04 #@! TF.SameCoordinates,Original*
G04 #@! TF.FileFunction,Copper,L1,Top*
G04 #@! TF.FilePolarity,Positive*
%FSLAX46Y46*%
G04 Gerber Fmt 4.6, Leading zero omitted, Abs format (unit mm)*
G04 Created by KiCad (PCBNEW (5.1.4)-1) date 2019-12-17 16:38:54*
%MOMM*%
%LPD*%
G04 APERTURE LIST*
%ADD10C,0.100000*%
%ADD11C,1.350000*%
%ADD12C,0.500000*%
%ADD13C,0.875000*%
%ADD14R,0.900000X0.800000*%
%ADD15R,2.400000X2.400000*%
%ADD16C,2.400000*%
%ADD17R,0.700000X0.600000*%
%ADD18C,0.800000*%
%ADD19C,0.250000*%
%ADD20C,0.254000*%
G04 APERTURE END LIST*
D10*
G36*
X79185305Y-98233804D02*
G01*
X79209573Y-98237404D01*
X79233372Y-98243365D01*
X79256471Y-98251630D01*
X79278650Y-98262120D01*
X79299693Y-98274732D01*
X79319399Y-98289347D01*
X79337577Y-98305823D01*
X79354053Y-98324001D01*
X79368668Y-98343707D01*
X79381280Y-98364750D01*
X79391770Y-98386929D01*
X79400035Y-98410028D01*
X79405996Y-98433827D01*
X79409596Y-98458095D01*
X79410800Y-98482599D01*
X79410800Y-99332601D01*
X79409596Y-99357105D01*
X79405996Y-99381373D01*
X79400035Y-99405172D01*
X79391770Y-99428271D01*
X79381280Y-99450450D01*
X79368668Y-99471493D01*
X79354053Y-99491199D01*
X79337577Y-99509377D01*
X79319399Y-99525853D01*
X79299693Y-99540468D01*
X79278650Y-99553080D01*
X79256471Y-99563570D01*
X79233372Y-99571835D01*
X79209573Y-99577796D01*
X79185305Y-99581396D01*
X79160801Y-99582600D01*
X78260799Y-99582600D01*
X78236295Y-99581396D01*
X78212027Y-99577796D01*
X78188228Y-99571835D01*
X78165129Y-99563570D01*
X78142950Y-99553080D01*
X78121907Y-99540468D01*
X78102201Y-99525853D01*
X78084023Y-99509377D01*
X78067547Y-99491199D01*
X78052932Y-99471493D01*
X78040320Y-99450450D01*
X78029830Y-99428271D01*
X78021565Y-99405172D01*
X78015604Y-99381373D01*
X78012004Y-99357105D01*
X78010800Y-99332601D01*
X78010800Y-98482599D01*
X78012004Y-98458095D01*
X78015604Y-98433827D01*
X78021565Y-98410028D01*
X78029830Y-98386929D01*
X78040320Y-98364750D01*
X78052932Y-98343707D01*
X78067547Y-98324001D01*
X78084023Y-98305823D01*
X78102201Y-98289347D01*
X78121907Y-98274732D01*
X78142950Y-98262120D01*
X78165129Y-98251630D01*
X78188228Y-98243365D01*
X78212027Y-98237404D01*
X78236295Y-98233804D01*
X78260799Y-98232600D01*
X79160801Y-98232600D01*
X79185305Y-98233804D01*
X79185305Y-98233804D01*
G37*
D11*
X78710800Y-98907600D03*
D10*
G36*
X81885305Y-98233804D02*
G01*
X81909573Y-98237404D01*
X81933372Y-98243365D01*
X81956471Y-98251630D01*
X81978650Y-98262120D01*
X81999693Y-98274732D01*
X82019399Y-98289347D01*
X82037577Y-98305823D01*
X82054053Y-98324001D01*
X82068668Y-98343707D01*
X82081280Y-98364750D01*
X82091770Y-98386929D01*
X82100035Y-98410028D01*
X82105996Y-98433827D01*
X82109596Y-98458095D01*
X82110800Y-98482599D01*
X82110800Y-99332601D01*
X82109596Y-99357105D01*
X82105996Y-99381373D01*
X82100035Y-99405172D01*
X82091770Y-99428271D01*
X82081280Y-99450450D01*
X82068668Y-99471493D01*
X82054053Y-99491199D01*
X82037577Y-99509377D01*
X82019399Y-99525853D01*
X81999693Y-99540468D01*
X81978650Y-99553080D01*
X81956471Y-99563570D01*
X81933372Y-99571835D01*
X81909573Y-99577796D01*
X81885305Y-99581396D01*
X81860801Y-99582600D01*
X80960799Y-99582600D01*
X80936295Y-99581396D01*
X80912027Y-99577796D01*
X80888228Y-99571835D01*
X80865129Y-99563570D01*
X80842950Y-99553080D01*
X80821907Y-99540468D01*
X80802201Y-99525853D01*
X80784023Y-99509377D01*
X80767547Y-99491199D01*
X80752932Y-99471493D01*
X80740320Y-99450450D01*
X80729830Y-99428271D01*
X80721565Y-99405172D01*
X80715604Y-99381373D01*
X80712004Y-99357105D01*
X80710800Y-99332601D01*
X80710800Y-98482599D01*
X80712004Y-98458095D01*
X80715604Y-98433827D01*
X80721565Y-98410028D01*
X80729830Y-98386929D01*
X80740320Y-98364750D01*
X80752932Y-98343707D01*
X80767547Y-98324001D01*
X80784023Y-98305823D01*
X80802201Y-98289347D01*
X80821907Y-98274732D01*
X80842950Y-98262120D01*
X80865129Y-98251630D01*
X80888228Y-98243365D01*
X80912027Y-98237404D01*
X80936295Y-98233804D01*
X80960799Y-98232600D01*
X81860801Y-98232600D01*
X81885305Y-98233804D01*
X81885305Y-98233804D01*
G37*
D11*
X81410800Y-98907600D03*
D10*
G36*
X78237005Y-95850404D02*
G01*
X78261273Y-95854004D01*
X78285072Y-95859965D01*
X78308171Y-95868230D01*
X78330350Y-95878720D01*
X78351393Y-95891332D01*
X78371099Y-95905947D01*
X78389277Y-95922423D01*
X78405753Y-95940601D01*
X78420368Y-95960307D01*
X78432980Y-95981350D01*
X78443470Y-96003529D01*
X78451735Y-96026628D01*
X78457696Y-96050427D01*
X78461296Y-96074695D01*
X78462500Y-96099199D01*
X78462500Y-96999201D01*
X78461296Y-97023705D01*
X78457696Y-97047973D01*
X78451735Y-97071772D01*
X78443470Y-97094871D01*
X78432980Y-97117050D01*
X78420368Y-97138093D01*
X78405753Y-97157799D01*
X78389277Y-97175977D01*
X78371099Y-97192453D01*
X78351393Y-97207068D01*
X78330350Y-97219680D01*
X78308171Y-97230170D01*
X78285072Y-97238435D01*
X78261273Y-97244396D01*
X78237005Y-97247996D01*
X78212501Y-97249200D01*
X77362499Y-97249200D01*
X77337995Y-97247996D01*
X77313727Y-97244396D01*
X77289928Y-97238435D01*
X77266829Y-97230170D01*
X77244650Y-97219680D01*
X77223607Y-97207068D01*
X77203901Y-97192453D01*
X77185723Y-97175977D01*
X77169247Y-97157799D01*
X77154632Y-97138093D01*
X77142020Y-97117050D01*
X77131530Y-97094871D01*
X77123265Y-97071772D01*
X77117304Y-97047973D01*
X77113704Y-97023705D01*
X77112500Y-96999201D01*
X77112500Y-96099199D01*
X77113704Y-96074695D01*
X77117304Y-96050427D01*
X77123265Y-96026628D01*
X77131530Y-96003529D01*
X77142020Y-95981350D01*
X77154632Y-95960307D01*
X77169247Y-95940601D01*
X77185723Y-95922423D01*
X77203901Y-95905947D01*
X77223607Y-95891332D01*
X77244650Y-95878720D01*
X77266829Y-95868230D01*
X77289928Y-95859965D01*
X77313727Y-95854004D01*
X77337995Y-95850404D01*
X77362499Y-95849200D01*
X78212501Y-95849200D01*
X78237005Y-95850404D01*
X78237005Y-95850404D01*
G37*
D11*
X77787500Y-96549200D03*
D10*
G36*
X78237005Y-93150404D02*
G01*
X78261273Y-93154004D01*
X78285072Y-93159965D01*
X78308171Y-93168230D01*
X78330350Y-93178720D01*
X78351393Y-93191332D01*
X78371099Y-93205947D01*
X78389277Y-93222423D01*
X78405753Y-93240601D01*
X78420368Y-93260307D01*
X78432980Y-93281350D01*
X78443470Y-93303529D01*
X78451735Y-93326628D01*
X78457696Y-93350427D01*
X78461296Y-93374695D01*
X78462500Y-93399199D01*
X78462500Y-94299201D01*
X78461296Y-94323705D01*
X78457696Y-94347973D01*
X78451735Y-94371772D01*
X78443470Y-94394871D01*
X78432980Y-94417050D01*
X78420368Y-94438093D01*
X78405753Y-94457799D01*
X78389277Y-94475977D01*
X78371099Y-94492453D01*
X78351393Y-94507068D01*
X78330350Y-94519680D01*
X78308171Y-94530170D01*
X78285072Y-94538435D01*
X78261273Y-94544396D01*
X78237005Y-94547996D01*
X78212501Y-94549200D01*
X77362499Y-94549200D01*
X77337995Y-94547996D01*
X77313727Y-94544396D01*
X77289928Y-94538435D01*
X77266829Y-94530170D01*
X77244650Y-94519680D01*
X77223607Y-94507068D01*
X77203901Y-94492453D01*
X77185723Y-94475977D01*
X77169247Y-94457799D01*
X77154632Y-94438093D01*
X77142020Y-94417050D01*
X77131530Y-94394871D01*
X77123265Y-94371772D01*
X77117304Y-94347973D01*
X77113704Y-94323705D01*
X77112500Y-94299201D01*
X77112500Y-93399199D01*
X77113704Y-93374695D01*
X77117304Y-93350427D01*
X77123265Y-93326628D01*
X77131530Y-93303529D01*
X77142020Y-93281350D01*
X77154632Y-93260307D01*
X77169247Y-93240601D01*
X77185723Y-93222423D01*
X77203901Y-93205947D01*
X77223607Y-93191332D01*
X77244650Y-93178720D01*
X77266829Y-93168230D01*
X77289928Y-93159965D01*
X77313727Y-93154004D01*
X77337995Y-93150404D01*
X77362499Y-93149200D01*
X78212501Y-93149200D01*
X78237005Y-93150404D01*
X78237005Y-93150404D01*
G37*
D11*
X77787500Y-93849200D03*
D12*
X86984840Y-91561680D03*
D10*
G36*
X87734238Y-91561680D02*
G01*
X87734238Y-91586214D01*
X87729428Y-91635045D01*
X87719856Y-91683170D01*
X87705612Y-91730125D01*
X87686835Y-91775458D01*
X87663704Y-91818731D01*
X87636444Y-91859530D01*
X87605316Y-91897459D01*
X87570619Y-91932156D01*
X87532690Y-91963284D01*
X87491891Y-91990544D01*
X87448618Y-92013675D01*
X87403285Y-92032452D01*
X87356330Y-92046696D01*
X87308205Y-92056268D01*
X87259374Y-92061078D01*
X87234840Y-92061078D01*
X87234840Y-92061680D01*
X86734840Y-92061680D01*
X86734840Y-92061078D01*
X86710306Y-92061078D01*
X86661475Y-92056268D01*
X86613350Y-92046696D01*
X86566395Y-92032452D01*
X86521062Y-92013675D01*
X86477789Y-91990544D01*
X86436990Y-91963284D01*
X86399061Y-91932156D01*
X86364364Y-91897459D01*
X86333236Y-91859530D01*
X86305976Y-91818731D01*
X86282845Y-91775458D01*
X86264068Y-91730125D01*
X86249824Y-91683170D01*
X86240252Y-91635045D01*
X86235442Y-91586214D01*
X86235442Y-91561680D01*
X86234840Y-91561680D01*
X86234840Y-91061680D01*
X87734840Y-91061680D01*
X87734840Y-91561680D01*
X87734238Y-91561680D01*
X87734238Y-91561680D01*
G37*
D12*
X86984840Y-90261680D03*
D10*
G36*
X86234840Y-90761680D02*
G01*
X86234840Y-90261680D01*
X86235442Y-90261680D01*
X86235442Y-90237146D01*
X86240252Y-90188315D01*
X86249824Y-90140190D01*
X86264068Y-90093235D01*
X86282845Y-90047902D01*
X86305976Y-90004629D01*
X86333236Y-89963830D01*
X86364364Y-89925901D01*
X86399061Y-89891204D01*
X86436990Y-89860076D01*
X86477789Y-89832816D01*
X86521062Y-89809685D01*
X86566395Y-89790908D01*
X86613350Y-89776664D01*
X86661475Y-89767092D01*
X86710306Y-89762282D01*
X86734840Y-89762282D01*
X86734840Y-89761680D01*
X87234840Y-89761680D01*
X87234840Y-89762282D01*
X87259374Y-89762282D01*
X87308205Y-89767092D01*
X87356330Y-89776664D01*
X87403285Y-89790908D01*
X87448618Y-89809685D01*
X87491891Y-89832816D01*
X87532690Y-89860076D01*
X87570619Y-89891204D01*
X87605316Y-89925901D01*
X87636444Y-89963830D01*
X87663704Y-90004629D01*
X87686835Y-90047902D01*
X87705612Y-90093235D01*
X87719856Y-90140190D01*
X87729428Y-90188315D01*
X87734238Y-90237146D01*
X87734238Y-90261680D01*
X87734840Y-90261680D01*
X87734840Y-90761680D01*
X86234840Y-90761680D01*
X86234840Y-90761680D01*
G37*
D12*
X76499720Y-90297240D03*
D10*
G36*
X75750322Y-90297240D02*
G01*
X75750322Y-90272706D01*
X75755132Y-90223875D01*
X75764704Y-90175750D01*
X75778948Y-90128795D01*
X75797725Y-90083462D01*
X75820856Y-90040189D01*
X75848116Y-89999390D01*
X75879244Y-89961461D01*
X75913941Y-89926764D01*
X75951870Y-89895636D01*
X75992669Y-89868376D01*
X76035942Y-89845245D01*
X76081275Y-89826468D01*
X76128230Y-89812224D01*
X76176355Y-89802652D01*
X76225186Y-89797842D01*
X76249720Y-89797842D01*
X76249720Y-89797240D01*
X76749720Y-89797240D01*
X76749720Y-89797842D01*
X76774254Y-89797842D01*
X76823085Y-89802652D01*
X76871210Y-89812224D01*
X76918165Y-89826468D01*
X76963498Y-89845245D01*
X77006771Y-89868376D01*
X77047570Y-89895636D01*
X77085499Y-89926764D01*
X77120196Y-89961461D01*
X77151324Y-89999390D01*
X77178584Y-90040189D01*
X77201715Y-90083462D01*
X77220492Y-90128795D01*
X77234736Y-90175750D01*
X77244308Y-90223875D01*
X77249118Y-90272706D01*
X77249118Y-90297240D01*
X77249720Y-90297240D01*
X77249720Y-90797240D01*
X75749720Y-90797240D01*
X75749720Y-90297240D01*
X75750322Y-90297240D01*
X75750322Y-90297240D01*
G37*
D12*
X76499720Y-91597240D03*
D10*
G36*
X77249720Y-91097240D02*
G01*
X77249720Y-91597240D01*
X77249118Y-91597240D01*
X77249118Y-91621774D01*
X77244308Y-91670605D01*
X77234736Y-91718730D01*
X77220492Y-91765685D01*
X77201715Y-91811018D01*
X77178584Y-91854291D01*
X77151324Y-91895090D01*
X77120196Y-91933019D01*
X77085499Y-91967716D01*
X77047570Y-91998844D01*
X77006771Y-92026104D01*
X76963498Y-92049235D01*
X76918165Y-92068012D01*
X76871210Y-92082256D01*
X76823085Y-92091828D01*
X76774254Y-92096638D01*
X76749720Y-92096638D01*
X76749720Y-92097240D01*
X76249720Y-92097240D01*
X76249720Y-92096638D01*
X76225186Y-92096638D01*
X76176355Y-92091828D01*
X76128230Y-92082256D01*
X76081275Y-92068012D01*
X76035942Y-92049235D01*
X75992669Y-92026104D01*
X75951870Y-91998844D01*
X75913941Y-91967716D01*
X75879244Y-91933019D01*
X75848116Y-91895090D01*
X75820856Y-91854291D01*
X75797725Y-91811018D01*
X75778948Y-91765685D01*
X75764704Y-91718730D01*
X75755132Y-91670605D01*
X75750322Y-91621774D01*
X75750322Y-91597240D01*
X75749720Y-91597240D01*
X75749720Y-91097240D01*
X77249720Y-91097240D01*
X77249720Y-91097240D01*
G37*
G36*
X83475391Y-99804753D02*
G01*
X83496626Y-99807903D01*
X83517450Y-99813119D01*
X83537662Y-99820351D01*
X83557068Y-99829530D01*
X83575481Y-99840566D01*
X83592724Y-99853354D01*
X83608630Y-99867770D01*
X83623046Y-99883676D01*
X83635834Y-99900919D01*
X83646870Y-99919332D01*
X83656049Y-99938738D01*
X83663281Y-99958950D01*
X83668497Y-99979774D01*
X83671647Y-100001009D01*
X83672700Y-100022450D01*
X83672700Y-100459950D01*
X83671647Y-100481391D01*
X83668497Y-100502626D01*
X83663281Y-100523450D01*
X83656049Y-100543662D01*
X83646870Y-100563068D01*
X83635834Y-100581481D01*
X83623046Y-100598724D01*
X83608630Y-100614630D01*
X83592724Y-100629046D01*
X83575481Y-100641834D01*
X83557068Y-100652870D01*
X83537662Y-100662049D01*
X83517450Y-100669281D01*
X83496626Y-100674497D01*
X83475391Y-100677647D01*
X83453950Y-100678700D01*
X82941450Y-100678700D01*
X82920009Y-100677647D01*
X82898774Y-100674497D01*
X82877950Y-100669281D01*
X82857738Y-100662049D01*
X82838332Y-100652870D01*
X82819919Y-100641834D01*
X82802676Y-100629046D01*
X82786770Y-100614630D01*
X82772354Y-100598724D01*
X82759566Y-100581481D01*
X82748530Y-100563068D01*
X82739351Y-100543662D01*
X82732119Y-100523450D01*
X82726903Y-100502626D01*
X82723753Y-100481391D01*
X82722700Y-100459950D01*
X82722700Y-100022450D01*
X82723753Y-100001009D01*
X82726903Y-99979774D01*
X82732119Y-99958950D01*
X82739351Y-99938738D01*
X82748530Y-99919332D01*
X82759566Y-99900919D01*
X82772354Y-99883676D01*
X82786770Y-99867770D01*
X82802676Y-99853354D01*
X82819919Y-99840566D01*
X82838332Y-99829530D01*
X82857738Y-99820351D01*
X82877950Y-99813119D01*
X82898774Y-99807903D01*
X82920009Y-99804753D01*
X82941450Y-99803700D01*
X83453950Y-99803700D01*
X83475391Y-99804753D01*
X83475391Y-99804753D01*
G37*
D13*
X83197700Y-100241200D03*
D10*
G36*
X83475391Y-98229753D02*
G01*
X83496626Y-98232903D01*
X83517450Y-98238119D01*
X83537662Y-98245351D01*
X83557068Y-98254530D01*
X83575481Y-98265566D01*
X83592724Y-98278354D01*
X83608630Y-98292770D01*
X83623046Y-98308676D01*
X83635834Y-98325919D01*
X83646870Y-98344332D01*
X83656049Y-98363738D01*
X83663281Y-98383950D01*
X83668497Y-98404774D01*
X83671647Y-98426009D01*
X83672700Y-98447450D01*
X83672700Y-98884950D01*
X83671647Y-98906391D01*
X83668497Y-98927626D01*
X83663281Y-98948450D01*
X83656049Y-98968662D01*
X83646870Y-98988068D01*
X83635834Y-99006481D01*
X83623046Y-99023724D01*
X83608630Y-99039630D01*
X83592724Y-99054046D01*
X83575481Y-99066834D01*
X83557068Y-99077870D01*
X83537662Y-99087049D01*
X83517450Y-99094281D01*
X83496626Y-99099497D01*
X83475391Y-99102647D01*
X83453950Y-99103700D01*
X82941450Y-99103700D01*
X82920009Y-99102647D01*
X82898774Y-99099497D01*
X82877950Y-99094281D01*
X82857738Y-99087049D01*
X82838332Y-99077870D01*
X82819919Y-99066834D01*
X82802676Y-99054046D01*
X82786770Y-99039630D01*
X82772354Y-99023724D01*
X82759566Y-99006481D01*
X82748530Y-98988068D01*
X82739351Y-98968662D01*
X82732119Y-98948450D01*
X82726903Y-98927626D01*
X82723753Y-98906391D01*
X82722700Y-98884950D01*
X82722700Y-98447450D01*
X82723753Y-98426009D01*
X82726903Y-98404774D01*
X82732119Y-98383950D01*
X82739351Y-98363738D01*
X82748530Y-98344332D01*
X82759566Y-98325919D01*
X82772354Y-98308676D01*
X82786770Y-98292770D01*
X82802676Y-98278354D01*
X82819919Y-98265566D01*
X82838332Y-98254530D01*
X82857738Y-98245351D01*
X82877950Y-98238119D01*
X82898774Y-98232903D01*
X82920009Y-98229753D01*
X82941450Y-98228700D01*
X83453950Y-98228700D01*
X83475391Y-98229753D01*
X83475391Y-98229753D01*
G37*
D13*
X83197700Y-98666200D03*
D10*
G36*
X85215291Y-97836253D02*
G01*
X85236526Y-97839403D01*
X85257350Y-97844619D01*
X85277562Y-97851851D01*
X85296968Y-97861030D01*
X85315381Y-97872066D01*
X85332624Y-97884854D01*
X85348530Y-97899270D01*
X85362946Y-97915176D01*
X85375734Y-97932419D01*
X85386770Y-97950832D01*
X85395949Y-97970238D01*
X85403181Y-97990450D01*
X85408397Y-98011274D01*
X85411547Y-98032509D01*
X85412600Y-98053950D01*
X85412600Y-98491450D01*
X85411547Y-98512891D01*
X85408397Y-98534126D01*
X85403181Y-98554950D01*
X85395949Y-98575162D01*
X85386770Y-98594568D01*
X85375734Y-98612981D01*
X85362946Y-98630224D01*
X85348530Y-98646130D01*
X85332624Y-98660546D01*
X85315381Y-98673334D01*
X85296968Y-98684370D01*
X85277562Y-98693549D01*
X85257350Y-98700781D01*
X85236526Y-98705997D01*
X85215291Y-98709147D01*
X85193850Y-98710200D01*
X84681350Y-98710200D01*
X84659909Y-98709147D01*
X84638674Y-98705997D01*
X84617850Y-98700781D01*
X84597638Y-98693549D01*
X84578232Y-98684370D01*
X84559819Y-98673334D01*
X84542576Y-98660546D01*
X84526670Y-98646130D01*
X84512254Y-98630224D01*
X84499466Y-98612981D01*
X84488430Y-98594568D01*
X84479251Y-98575162D01*
X84472019Y-98554950D01*
X84466803Y-98534126D01*
X84463653Y-98512891D01*
X84462600Y-98491450D01*
X84462600Y-98053950D01*
X84463653Y-98032509D01*
X84466803Y-98011274D01*
X84472019Y-97990450D01*
X84479251Y-97970238D01*
X84488430Y-97950832D01*
X84499466Y-97932419D01*
X84512254Y-97915176D01*
X84526670Y-97899270D01*
X84542576Y-97884854D01*
X84559819Y-97872066D01*
X84578232Y-97861030D01*
X84597638Y-97851851D01*
X84617850Y-97844619D01*
X84638674Y-97839403D01*
X84659909Y-97836253D01*
X84681350Y-97835200D01*
X85193850Y-97835200D01*
X85215291Y-97836253D01*
X85215291Y-97836253D01*
G37*
D13*
X84937600Y-98272700D03*
D10*
G36*
X85215291Y-96261253D02*
G01*
X85236526Y-96264403D01*
X85257350Y-96269619D01*
X85277562Y-96276851D01*
X85296968Y-96286030D01*
X85315381Y-96297066D01*
X85332624Y-96309854D01*
X85348530Y-96324270D01*
X85362946Y-96340176D01*
X85375734Y-96357419D01*
X85386770Y-96375832D01*
X85395949Y-96395238D01*
X85403181Y-96415450D01*
X85408397Y-96436274D01*
X85411547Y-96457509D01*
X85412600Y-96478950D01*
X85412600Y-96916450D01*
X85411547Y-96937891D01*
X85408397Y-96959126D01*
X85403181Y-96979950D01*
X85395949Y-97000162D01*
X85386770Y-97019568D01*
X85375734Y-97037981D01*
X85362946Y-97055224D01*
X85348530Y-97071130D01*
X85332624Y-97085546D01*
X85315381Y-97098334D01*
X85296968Y-97109370D01*
X85277562Y-97118549D01*
X85257350Y-97125781D01*
X85236526Y-97130997D01*
X85215291Y-97134147D01*
X85193850Y-97135200D01*
X84681350Y-97135200D01*
X84659909Y-97134147D01*
X84638674Y-97130997D01*
X84617850Y-97125781D01*
X84597638Y-97118549D01*
X84578232Y-97109370D01*
X84559819Y-97098334D01*
X84542576Y-97085546D01*
X84526670Y-97071130D01*
X84512254Y-97055224D01*
X84499466Y-97037981D01*
X84488430Y-97019568D01*
X84479251Y-97000162D01*
X84472019Y-96979950D01*
X84466803Y-96959126D01*
X84463653Y-96937891D01*
X84462600Y-96916450D01*
X84462600Y-96478950D01*
X84463653Y-96457509D01*
X84466803Y-96436274D01*
X84472019Y-96415450D01*
X84479251Y-96395238D01*
X84488430Y-96375832D01*
X84499466Y-96357419D01*
X84512254Y-96340176D01*
X84526670Y-96324270D01*
X84542576Y-96309854D01*
X84559819Y-96297066D01*
X84578232Y-96286030D01*
X84597638Y-96276851D01*
X84617850Y-96269619D01*
X84638674Y-96264403D01*
X84659909Y-96261253D01*
X84681350Y-96260200D01*
X85193850Y-96260200D01*
X85215291Y-96261253D01*
X85215291Y-96261253D01*
G37*
D13*
X84937600Y-96697700D03*
D10*
G36*
X73823991Y-89640173D02*
G01*
X73845226Y-89643323D01*
X73866050Y-89648539D01*
X73886262Y-89655771D01*
X73905668Y-89664950D01*
X73924081Y-89675986D01*
X73941324Y-89688774D01*
X73957230Y-89703190D01*
X73971646Y-89719096D01*
X73984434Y-89736339D01*
X73995470Y-89754752D01*
X74004649Y-89774158D01*
X74011881Y-89794370D01*
X74017097Y-89815194D01*
X74020247Y-89836429D01*
X74021300Y-89857870D01*
X74021300Y-90370370D01*
X74020247Y-90391811D01*
X74017097Y-90413046D01*
X74011881Y-90433870D01*
X74004649Y-90454082D01*
X73995470Y-90473488D01*
X73984434Y-90491901D01*
X73971646Y-90509144D01*
X73957230Y-90525050D01*
X73941324Y-90539466D01*
X73924081Y-90552254D01*
X73905668Y-90563290D01*
X73886262Y-90572469D01*
X73866050Y-90579701D01*
X73845226Y-90584917D01*
X73823991Y-90588067D01*
X73802550Y-90589120D01*
X73365050Y-90589120D01*
X73343609Y-90588067D01*
X73322374Y-90584917D01*
X73301550Y-90579701D01*
X73281338Y-90572469D01*
X73261932Y-90563290D01*
X73243519Y-90552254D01*
X73226276Y-90539466D01*
X73210370Y-90525050D01*
X73195954Y-90509144D01*
X73183166Y-90491901D01*
X73172130Y-90473488D01*
X73162951Y-90454082D01*
X73155719Y-90433870D01*
X73150503Y-90413046D01*
X73147353Y-90391811D01*
X73146300Y-90370370D01*
X73146300Y-89857870D01*
X73147353Y-89836429D01*
X73150503Y-89815194D01*
X73155719Y-89794370D01*
X73162951Y-89774158D01*
X73172130Y-89754752D01*
X73183166Y-89736339D01*
X73195954Y-89719096D01*
X73210370Y-89703190D01*
X73226276Y-89688774D01*
X73243519Y-89675986D01*
X73261932Y-89664950D01*
X73281338Y-89655771D01*
X73301550Y-89648539D01*
X73322374Y-89643323D01*
X73343609Y-89640173D01*
X73365050Y-89639120D01*
X73802550Y-89639120D01*
X73823991Y-89640173D01*
X73823991Y-89640173D01*
G37*
D13*
X73583800Y-90114120D03*
D10*
G36*
X72248991Y-89640173D02*
G01*
X72270226Y-89643323D01*
X72291050Y-89648539D01*
X72311262Y-89655771D01*
X72330668Y-89664950D01*
X72349081Y-89675986D01*
X72366324Y-89688774D01*
X72382230Y-89703190D01*
X72396646Y-89719096D01*
X72409434Y-89736339D01*
X72420470Y-89754752D01*
X72429649Y-89774158D01*
X72436881Y-89794370D01*
X72442097Y-89815194D01*
X72445247Y-89836429D01*
X72446300Y-89857870D01*
X72446300Y-90370370D01*
X72445247Y-90391811D01*
X72442097Y-90413046D01*
X72436881Y-90433870D01*
X72429649Y-90454082D01*
X72420470Y-90473488D01*
X72409434Y-90491901D01*
X72396646Y-90509144D01*
X72382230Y-90525050D01*
X72366324Y-90539466D01*
X72349081Y-90552254D01*
X72330668Y-90563290D01*
X72311262Y-90572469D01*
X72291050Y-90579701D01*
X72270226Y-90584917D01*
X72248991Y-90588067D01*
X72227550Y-90589120D01*
X71790050Y-90589120D01*
X71768609Y-90588067D01*
X71747374Y-90584917D01*
X71726550Y-90579701D01*
X71706338Y-90572469D01*
X71686932Y-90563290D01*
X71668519Y-90552254D01*
X71651276Y-90539466D01*
X71635370Y-90525050D01*
X71620954Y-90509144D01*
X71608166Y-90491901D01*
X71597130Y-90473488D01*
X71587951Y-90454082D01*
X71580719Y-90433870D01*
X71575503Y-90413046D01*
X71572353Y-90391811D01*
X71571300Y-90370370D01*
X71571300Y-89857870D01*
X71572353Y-89836429D01*
X71575503Y-89815194D01*
X71580719Y-89794370D01*
X71587951Y-89774158D01*
X71597130Y-89754752D01*
X71608166Y-89736339D01*
X71620954Y-89719096D01*
X71635370Y-89703190D01*
X71651276Y-89688774D01*
X71668519Y-89675986D01*
X71686932Y-89664950D01*
X71706338Y-89655771D01*
X71726550Y-89648539D01*
X71747374Y-89643323D01*
X71768609Y-89640173D01*
X71790050Y-89639120D01*
X72227550Y-89639120D01*
X72248991Y-89640173D01*
X72248991Y-89640173D01*
G37*
D13*
X72008800Y-90114120D03*
D10*
G36*
X84492091Y-92998053D02*
G01*
X84513326Y-93001203D01*
X84534150Y-93006419D01*
X84554362Y-93013651D01*
X84573768Y-93022830D01*
X84592181Y-93033866D01*
X84609424Y-93046654D01*
X84625330Y-93061070D01*
X84639746Y-93076976D01*
X84652534Y-93094219D01*
X84663570Y-93112632D01*
X84672749Y-93132038D01*
X84679981Y-93152250D01*
X84685197Y-93173074D01*
X84688347Y-93194309D01*
X84689400Y-93215750D01*
X84689400Y-93728250D01*
X84688347Y-93749691D01*
X84685197Y-93770926D01*
X84679981Y-93791750D01*
X84672749Y-93811962D01*
X84663570Y-93831368D01*
X84652534Y-93849781D01*
X84639746Y-93867024D01*
X84625330Y-93882930D01*
X84609424Y-93897346D01*
X84592181Y-93910134D01*
X84573768Y-93921170D01*
X84554362Y-93930349D01*
X84534150Y-93937581D01*
X84513326Y-93942797D01*
X84492091Y-93945947D01*
X84470650Y-93947000D01*
X84033150Y-93947000D01*
X84011709Y-93945947D01*
X83990474Y-93942797D01*
X83969650Y-93937581D01*
X83949438Y-93930349D01*
X83930032Y-93921170D01*
X83911619Y-93910134D01*
X83894376Y-93897346D01*
X83878470Y-93882930D01*
X83864054Y-93867024D01*
X83851266Y-93849781D01*
X83840230Y-93831368D01*
X83831051Y-93811962D01*
X83823819Y-93791750D01*
X83818603Y-93770926D01*
X83815453Y-93749691D01*
X83814400Y-93728250D01*
X83814400Y-93215750D01*
X83815453Y-93194309D01*
X83818603Y-93173074D01*
X83823819Y-93152250D01*
X83831051Y-93132038D01*
X83840230Y-93112632D01*
X83851266Y-93094219D01*
X83864054Y-93076976D01*
X83878470Y-93061070D01*
X83894376Y-93046654D01*
X83911619Y-93033866D01*
X83930032Y-93022830D01*
X83949438Y-93013651D01*
X83969650Y-93006419D01*
X83990474Y-93001203D01*
X84011709Y-92998053D01*
X84033150Y-92997000D01*
X84470650Y-92997000D01*
X84492091Y-92998053D01*
X84492091Y-92998053D01*
G37*
D13*
X84251900Y-93472000D03*
D10*
G36*
X82917091Y-92998053D02*
G01*
X82938326Y-93001203D01*
X82959150Y-93006419D01*
X82979362Y-93013651D01*
X82998768Y-93022830D01*
X83017181Y-93033866D01*
X83034424Y-93046654D01*
X83050330Y-93061070D01*
X83064746Y-93076976D01*
X83077534Y-93094219D01*
X83088570Y-93112632D01*
X83097749Y-93132038D01*
X83104981Y-93152250D01*
X83110197Y-93173074D01*
X83113347Y-93194309D01*
X83114400Y-93215750D01*
X83114400Y-93728250D01*
X83113347Y-93749691D01*
X83110197Y-93770926D01*
X83104981Y-93791750D01*
X83097749Y-93811962D01*
X83088570Y-93831368D01*
X83077534Y-93849781D01*
X83064746Y-93867024D01*
X83050330Y-93882930D01*
X83034424Y-93897346D01*
X83017181Y-93910134D01*
X82998768Y-93921170D01*
X82979362Y-93930349D01*
X82959150Y-93937581D01*
X82938326Y-93942797D01*
X82917091Y-93945947D01*
X82895650Y-93947000D01*
X82458150Y-93947000D01*
X82436709Y-93945947D01*
X82415474Y-93942797D01*
X82394650Y-93937581D01*
X82374438Y-93930349D01*
X82355032Y-93921170D01*
X82336619Y-93910134D01*
X82319376Y-93897346D01*
X82303470Y-93882930D01*
X82289054Y-93867024D01*
X82276266Y-93849781D01*
X82265230Y-93831368D01*
X82256051Y-93811962D01*
X82248819Y-93791750D01*
X82243603Y-93770926D01*
X82240453Y-93749691D01*
X82239400Y-93728250D01*
X82239400Y-93215750D01*
X82240453Y-93194309D01*
X82243603Y-93173074D01*
X82248819Y-93152250D01*
X82256051Y-93132038D01*
X82265230Y-93112632D01*
X82276266Y-93094219D01*
X82289054Y-93076976D01*
X82303470Y-93061070D01*
X82319376Y-93046654D01*
X82336619Y-93033866D01*
X82355032Y-93022830D01*
X82374438Y-93013651D01*
X82394650Y-93006419D01*
X82415474Y-93001203D01*
X82436709Y-92998053D01*
X82458150Y-92997000D01*
X82895650Y-92997000D01*
X82917091Y-92998053D01*
X82917091Y-92998053D01*
G37*
D13*
X82676900Y-93472000D03*
D10*
G36*
X79869091Y-92998053D02*
G01*
X79890326Y-93001203D01*
X79911150Y-93006419D01*
X79931362Y-93013651D01*
X79950768Y-93022830D01*
X79969181Y-93033866D01*
X79986424Y-93046654D01*
X80002330Y-93061070D01*
X80016746Y-93076976D01*
X80029534Y-93094219D01*
X80040570Y-93112632D01*
X80049749Y-93132038D01*
X80056981Y-93152250D01*
X80062197Y-93173074D01*
X80065347Y-93194309D01*
X80066400Y-93215750D01*
X80066400Y-93728250D01*
X80065347Y-93749691D01*
X80062197Y-93770926D01*
X80056981Y-93791750D01*
X80049749Y-93811962D01*
X80040570Y-93831368D01*
X80029534Y-93849781D01*
X80016746Y-93867024D01*
X80002330Y-93882930D01*
X79986424Y-93897346D01*
X79969181Y-93910134D01*
X79950768Y-93921170D01*
X79931362Y-93930349D01*
X79911150Y-93937581D01*
X79890326Y-93942797D01*
X79869091Y-93945947D01*
X79847650Y-93947000D01*
X79410150Y-93947000D01*
X79388709Y-93945947D01*
X79367474Y-93942797D01*
X79346650Y-93937581D01*
X79326438Y-93930349D01*
X79307032Y-93921170D01*
X79288619Y-93910134D01*
X79271376Y-93897346D01*
X79255470Y-93882930D01*
X79241054Y-93867024D01*
X79228266Y-93849781D01*
X79217230Y-93831368D01*
X79208051Y-93811962D01*
X79200819Y-93791750D01*
X79195603Y-93770926D01*
X79192453Y-93749691D01*
X79191400Y-93728250D01*
X79191400Y-93215750D01*
X79192453Y-93194309D01*
X79195603Y-93173074D01*
X79200819Y-93152250D01*
X79208051Y-93132038D01*
X79217230Y-93112632D01*
X79228266Y-93094219D01*
X79241054Y-93076976D01*
X79255470Y-93061070D01*
X79271376Y-93046654D01*
X79288619Y-93033866D01*
X79307032Y-93022830D01*
X79326438Y-93013651D01*
X79346650Y-93006419D01*
X79367474Y-93001203D01*
X79388709Y-92998053D01*
X79410150Y-92997000D01*
X79847650Y-92997000D01*
X79869091Y-92998053D01*
X79869091Y-92998053D01*
G37*
D13*
X79628900Y-93472000D03*
D10*
G36*
X81444091Y-92998053D02*
G01*
X81465326Y-93001203D01*
X81486150Y-93006419D01*
X81506362Y-93013651D01*
X81525768Y-93022830D01*
X81544181Y-93033866D01*
X81561424Y-93046654D01*
X81577330Y-93061070D01*
X81591746Y-93076976D01*
X81604534Y-93094219D01*
X81615570Y-93112632D01*
X81624749Y-93132038D01*
X81631981Y-93152250D01*
X81637197Y-93173074D01*
X81640347Y-93194309D01*
X81641400Y-93215750D01*
X81641400Y-93728250D01*
X81640347Y-93749691D01*
X81637197Y-93770926D01*
X81631981Y-93791750D01*
X81624749Y-93811962D01*
X81615570Y-93831368D01*
X81604534Y-93849781D01*
X81591746Y-93867024D01*
X81577330Y-93882930D01*
X81561424Y-93897346D01*
X81544181Y-93910134D01*
X81525768Y-93921170D01*
X81506362Y-93930349D01*
X81486150Y-93937581D01*
X81465326Y-93942797D01*
X81444091Y-93945947D01*
X81422650Y-93947000D01*
X80985150Y-93947000D01*
X80963709Y-93945947D01*
X80942474Y-93942797D01*
X80921650Y-93937581D01*
X80901438Y-93930349D01*
X80882032Y-93921170D01*
X80863619Y-93910134D01*
X80846376Y-93897346D01*
X80830470Y-93882930D01*
X80816054Y-93867024D01*
X80803266Y-93849781D01*
X80792230Y-93831368D01*
X80783051Y-93811962D01*
X80775819Y-93791750D01*
X80770603Y-93770926D01*
X80767453Y-93749691D01*
X80766400Y-93728250D01*
X80766400Y-93215750D01*
X80767453Y-93194309D01*
X80770603Y-93173074D01*
X80775819Y-93152250D01*
X80783051Y-93132038D01*
X80792230Y-93112632D01*
X80803266Y-93094219D01*
X80816054Y-93076976D01*
X80830470Y-93061070D01*
X80846376Y-93046654D01*
X80863619Y-93033866D01*
X80882032Y-93022830D01*
X80901438Y-93013651D01*
X80921650Y-93006419D01*
X80942474Y-93001203D01*
X80963709Y-92998053D01*
X80985150Y-92997000D01*
X81422650Y-92997000D01*
X81444091Y-92998053D01*
X81444091Y-92998053D01*
G37*
D13*
X81203900Y-93472000D03*
D10*
G36*
X72269411Y-91555333D02*
G01*
X72290646Y-91558483D01*
X72311470Y-91563699D01*
X72331682Y-91570931D01*
X72351088Y-91580110D01*
X72369501Y-91591146D01*
X72386744Y-91603934D01*
X72402650Y-91618350D01*
X72417066Y-91634256D01*
X72429854Y-91651499D01*
X72440890Y-91669912D01*
X72450069Y-91689318D01*
X72457301Y-91709530D01*
X72462517Y-91730354D01*
X72465667Y-91751589D01*
X72466720Y-91773030D01*
X72466720Y-92285530D01*
X72465667Y-92306971D01*
X72462517Y-92328206D01*
X72457301Y-92349030D01*
X72450069Y-92369242D01*
X72440890Y-92388648D01*
X72429854Y-92407061D01*
X72417066Y-92424304D01*
X72402650Y-92440210D01*
X72386744Y-92454626D01*
X72369501Y-92467414D01*
X72351088Y-92478450D01*
X72331682Y-92487629D01*
X72311470Y-92494861D01*
X72290646Y-92500077D01*
X72269411Y-92503227D01*
X72247970Y-92504280D01*
X71810470Y-92504280D01*
X71789029Y-92503227D01*
X71767794Y-92500077D01*
X71746970Y-92494861D01*
X71726758Y-92487629D01*
X71707352Y-92478450D01*
X71688939Y-92467414D01*
X71671696Y-92454626D01*
X71655790Y-92440210D01*
X71641374Y-92424304D01*
X71628586Y-92407061D01*
X71617550Y-92388648D01*
X71608371Y-92369242D01*
X71601139Y-92349030D01*
X71595923Y-92328206D01*
X71592773Y-92306971D01*
X71591720Y-92285530D01*
X71591720Y-91773030D01*
X71592773Y-91751589D01*
X71595923Y-91730354D01*
X71601139Y-91709530D01*
X71608371Y-91689318D01*
X71617550Y-91669912D01*
X71628586Y-91651499D01*
X71641374Y-91634256D01*
X71655790Y-91618350D01*
X71671696Y-91603934D01*
X71688939Y-91591146D01*
X71707352Y-91580110D01*
X71726758Y-91570931D01*
X71746970Y-91563699D01*
X71767794Y-91558483D01*
X71789029Y-91555333D01*
X71810470Y-91554280D01*
X72247970Y-91554280D01*
X72269411Y-91555333D01*
X72269411Y-91555333D01*
G37*
D13*
X72029220Y-92029280D03*
D10*
G36*
X73844411Y-91555333D02*
G01*
X73865646Y-91558483D01*
X73886470Y-91563699D01*
X73906682Y-91570931D01*
X73926088Y-91580110D01*
X73944501Y-91591146D01*
X73961744Y-91603934D01*
X73977650Y-91618350D01*
X73992066Y-91634256D01*
X74004854Y-91651499D01*
X74015890Y-91669912D01*
X74025069Y-91689318D01*
X74032301Y-91709530D01*
X74037517Y-91730354D01*
X74040667Y-91751589D01*
X74041720Y-91773030D01*
X74041720Y-92285530D01*
X74040667Y-92306971D01*
X74037517Y-92328206D01*
X74032301Y-92349030D01*
X74025069Y-92369242D01*
X74015890Y-92388648D01*
X74004854Y-92407061D01*
X73992066Y-92424304D01*
X73977650Y-92440210D01*
X73961744Y-92454626D01*
X73944501Y-92467414D01*
X73926088Y-92478450D01*
X73906682Y-92487629D01*
X73886470Y-92494861D01*
X73865646Y-92500077D01*
X73844411Y-92503227D01*
X73822970Y-92504280D01*
X73385470Y-92504280D01*
X73364029Y-92503227D01*
X73342794Y-92500077D01*
X73321970Y-92494861D01*
X73301758Y-92487629D01*
X73282352Y-92478450D01*
X73263939Y-92467414D01*
X73246696Y-92454626D01*
X73230790Y-92440210D01*
X73216374Y-92424304D01*
X73203586Y-92407061D01*
X73192550Y-92388648D01*
X73183371Y-92369242D01*
X73176139Y-92349030D01*
X73170923Y-92328206D01*
X73167773Y-92306971D01*
X73166720Y-92285530D01*
X73166720Y-91773030D01*
X73167773Y-91751589D01*
X73170923Y-91730354D01*
X73176139Y-91709530D01*
X73183371Y-91689318D01*
X73192550Y-91669912D01*
X73203586Y-91651499D01*
X73216374Y-91634256D01*
X73230790Y-91618350D01*
X73246696Y-91603934D01*
X73263939Y-91591146D01*
X73282352Y-91580110D01*
X73301758Y-91570931D01*
X73321970Y-91563699D01*
X73342794Y-91558483D01*
X73364029Y-91555333D01*
X73385470Y-91554280D01*
X73822970Y-91554280D01*
X73844411Y-91555333D01*
X73844411Y-91555333D01*
G37*
D13*
X73604220Y-92029280D03*
D14*
X80597500Y-96024700D03*
X82597500Y-95074700D03*
X82597500Y-96974700D03*
D12*
X81782920Y-90256600D03*
D10*
G36*
X81033522Y-90256600D02*
G01*
X81033522Y-90232066D01*
X81038332Y-90183235D01*
X81047904Y-90135110D01*
X81062148Y-90088155D01*
X81080925Y-90042822D01*
X81104056Y-89999549D01*
X81131316Y-89958750D01*
X81162444Y-89920821D01*
X81197141Y-89886124D01*
X81235070Y-89854996D01*
X81275869Y-89827736D01*
X81319142Y-89804605D01*
X81364475Y-89785828D01*
X81411430Y-89771584D01*
X81459555Y-89762012D01*
X81508386Y-89757202D01*
X81532920Y-89757202D01*
X81532920Y-89756600D01*
X82032920Y-89756600D01*
X82032920Y-89757202D01*
X82057454Y-89757202D01*
X82106285Y-89762012D01*
X82154410Y-89771584D01*
X82201365Y-89785828D01*
X82246698Y-89804605D01*
X82289971Y-89827736D01*
X82330770Y-89854996D01*
X82368699Y-89886124D01*
X82403396Y-89920821D01*
X82434524Y-89958750D01*
X82461784Y-89999549D01*
X82484915Y-90042822D01*
X82503692Y-90088155D01*
X82517936Y-90135110D01*
X82527508Y-90183235D01*
X82532318Y-90232066D01*
X82532318Y-90256600D01*
X82532920Y-90256600D01*
X82532920Y-90756600D01*
X81032920Y-90756600D01*
X81032920Y-90256600D01*
X81033522Y-90256600D01*
X81033522Y-90256600D01*
G37*
D12*
X81782920Y-91556600D03*
D10*
G36*
X82532920Y-91056600D02*
G01*
X82532920Y-91556600D01*
X82532318Y-91556600D01*
X82532318Y-91581134D01*
X82527508Y-91629965D01*
X82517936Y-91678090D01*
X82503692Y-91725045D01*
X82484915Y-91770378D01*
X82461784Y-91813651D01*
X82434524Y-91854450D01*
X82403396Y-91892379D01*
X82368699Y-91927076D01*
X82330770Y-91958204D01*
X82289971Y-91985464D01*
X82246698Y-92008595D01*
X82201365Y-92027372D01*
X82154410Y-92041616D01*
X82106285Y-92051188D01*
X82057454Y-92055998D01*
X82032920Y-92055998D01*
X82032920Y-92056600D01*
X81532920Y-92056600D01*
X81532920Y-92055998D01*
X81508386Y-92055998D01*
X81459555Y-92051188D01*
X81411430Y-92041616D01*
X81364475Y-92027372D01*
X81319142Y-92008595D01*
X81275869Y-91985464D01*
X81235070Y-91958204D01*
X81197141Y-91927076D01*
X81162444Y-91892379D01*
X81131316Y-91854450D01*
X81104056Y-91813651D01*
X81080925Y-91770378D01*
X81062148Y-91725045D01*
X81047904Y-91678090D01*
X81038332Y-91629965D01*
X81033522Y-91581134D01*
X81033522Y-91556600D01*
X81032920Y-91556600D01*
X81032920Y-91056600D01*
X82532920Y-91056600D01*
X82532920Y-91056600D01*
G37*
D12*
X84399120Y-90256840D03*
D10*
G36*
X83649722Y-90256840D02*
G01*
X83649722Y-90232306D01*
X83654532Y-90183475D01*
X83664104Y-90135350D01*
X83678348Y-90088395D01*
X83697125Y-90043062D01*
X83720256Y-89999789D01*
X83747516Y-89958990D01*
X83778644Y-89921061D01*
X83813341Y-89886364D01*
X83851270Y-89855236D01*
X83892069Y-89827976D01*
X83935342Y-89804845D01*
X83980675Y-89786068D01*
X84027630Y-89771824D01*
X84075755Y-89762252D01*
X84124586Y-89757442D01*
X84149120Y-89757442D01*
X84149120Y-89756840D01*
X84649120Y-89756840D01*
X84649120Y-89757442D01*
X84673654Y-89757442D01*
X84722485Y-89762252D01*
X84770610Y-89771824D01*
X84817565Y-89786068D01*
X84862898Y-89804845D01*
X84906171Y-89827976D01*
X84946970Y-89855236D01*
X84984899Y-89886364D01*
X85019596Y-89921061D01*
X85050724Y-89958990D01*
X85077984Y-89999789D01*
X85101115Y-90043062D01*
X85119892Y-90088395D01*
X85134136Y-90135350D01*
X85143708Y-90183475D01*
X85148518Y-90232306D01*
X85148518Y-90256840D01*
X85149120Y-90256840D01*
X85149120Y-90756840D01*
X83649120Y-90756840D01*
X83649120Y-90256840D01*
X83649722Y-90256840D01*
X83649722Y-90256840D01*
G37*
D12*
X84399120Y-91556840D03*
D10*
G36*
X85149120Y-91056840D02*
G01*
X85149120Y-91556840D01*
X85148518Y-91556840D01*
X85148518Y-91581374D01*
X85143708Y-91630205D01*
X85134136Y-91678330D01*
X85119892Y-91725285D01*
X85101115Y-91770618D01*
X85077984Y-91813891D01*
X85050724Y-91854690D01*
X85019596Y-91892619D01*
X84984899Y-91927316D01*
X84946970Y-91958444D01*
X84906171Y-91985704D01*
X84862898Y-92008835D01*
X84817565Y-92027612D01*
X84770610Y-92041856D01*
X84722485Y-92051428D01*
X84673654Y-92056238D01*
X84649120Y-92056238D01*
X84649120Y-92056840D01*
X84149120Y-92056840D01*
X84149120Y-92056238D01*
X84124586Y-92056238D01*
X84075755Y-92051428D01*
X84027630Y-92041856D01*
X83980675Y-92027612D01*
X83935342Y-92008835D01*
X83892069Y-91985704D01*
X83851270Y-91958444D01*
X83813341Y-91927316D01*
X83778644Y-91892619D01*
X83747516Y-91854690D01*
X83720256Y-91813891D01*
X83697125Y-91770618D01*
X83678348Y-91725285D01*
X83664104Y-91678330D01*
X83654532Y-91630205D01*
X83649722Y-91581374D01*
X83649722Y-91556840D01*
X83649120Y-91556840D01*
X83649120Y-91056840D01*
X85149120Y-91056840D01*
X85149120Y-91056840D01*
G37*
D12*
X79115920Y-90267000D03*
D10*
G36*
X78366522Y-90267000D02*
G01*
X78366522Y-90242466D01*
X78371332Y-90193635D01*
X78380904Y-90145510D01*
X78395148Y-90098555D01*
X78413925Y-90053222D01*
X78437056Y-90009949D01*
X78464316Y-89969150D01*
X78495444Y-89931221D01*
X78530141Y-89896524D01*
X78568070Y-89865396D01*
X78608869Y-89838136D01*
X78652142Y-89815005D01*
X78697475Y-89796228D01*
X78744430Y-89781984D01*
X78792555Y-89772412D01*
X78841386Y-89767602D01*
X78865920Y-89767602D01*
X78865920Y-89767000D01*
X79365920Y-89767000D01*
X79365920Y-89767602D01*
X79390454Y-89767602D01*
X79439285Y-89772412D01*
X79487410Y-89781984D01*
X79534365Y-89796228D01*
X79579698Y-89815005D01*
X79622971Y-89838136D01*
X79663770Y-89865396D01*
X79701699Y-89896524D01*
X79736396Y-89931221D01*
X79767524Y-89969150D01*
X79794784Y-90009949D01*
X79817915Y-90053222D01*
X79836692Y-90098555D01*
X79850936Y-90145510D01*
X79860508Y-90193635D01*
X79865318Y-90242466D01*
X79865318Y-90267000D01*
X79865920Y-90267000D01*
X79865920Y-90767000D01*
X78365920Y-90767000D01*
X78365920Y-90267000D01*
X78366522Y-90267000D01*
X78366522Y-90267000D01*
G37*
D12*
X79115920Y-91567000D03*
D10*
G36*
X79865920Y-91067000D02*
G01*
X79865920Y-91567000D01*
X79865318Y-91567000D01*
X79865318Y-91591534D01*
X79860508Y-91640365D01*
X79850936Y-91688490D01*
X79836692Y-91735445D01*
X79817915Y-91780778D01*
X79794784Y-91824051D01*
X79767524Y-91864850D01*
X79736396Y-91902779D01*
X79701699Y-91937476D01*
X79663770Y-91968604D01*
X79622971Y-91995864D01*
X79579698Y-92018995D01*
X79534365Y-92037772D01*
X79487410Y-92052016D01*
X79439285Y-92061588D01*
X79390454Y-92066398D01*
X79365920Y-92066398D01*
X79365920Y-92067000D01*
X78865920Y-92067000D01*
X78865920Y-92066398D01*
X78841386Y-92066398D01*
X78792555Y-92061588D01*
X78744430Y-92052016D01*
X78697475Y-92037772D01*
X78652142Y-92018995D01*
X78608869Y-91995864D01*
X78568070Y-91968604D01*
X78530141Y-91937476D01*
X78495444Y-91902779D01*
X78464316Y-91864850D01*
X78437056Y-91824051D01*
X78413925Y-91780778D01*
X78395148Y-91735445D01*
X78380904Y-91688490D01*
X78371332Y-91640365D01*
X78366522Y-91591534D01*
X78366522Y-91567000D01*
X78365920Y-91567000D01*
X78365920Y-91067000D01*
X79865920Y-91067000D01*
X79865920Y-91067000D01*
G37*
D15*
X90865960Y-98541840D03*
D16*
X90865960Y-95041840D03*
X72872600Y-98567120D03*
D15*
X72872600Y-95067120D03*
D17*
X86448900Y-97928200D03*
X86448900Y-99328200D03*
D10*
G36*
X80389791Y-100325953D02*
G01*
X80411026Y-100329103D01*
X80431850Y-100334319D01*
X80452062Y-100341551D01*
X80471468Y-100350730D01*
X80489881Y-100361766D01*
X80507124Y-100374554D01*
X80523030Y-100388970D01*
X80537446Y-100404876D01*
X80550234Y-100422119D01*
X80561270Y-100440532D01*
X80570449Y-100459938D01*
X80577681Y-100480150D01*
X80582897Y-100500974D01*
X80586047Y-100522209D01*
X80587100Y-100543650D01*
X80587100Y-101056150D01*
X80586047Y-101077591D01*
X80582897Y-101098826D01*
X80577681Y-101119650D01*
X80570449Y-101139862D01*
X80561270Y-101159268D01*
X80550234Y-101177681D01*
X80537446Y-101194924D01*
X80523030Y-101210830D01*
X80507124Y-101225246D01*
X80489881Y-101238034D01*
X80471468Y-101249070D01*
X80452062Y-101258249D01*
X80431850Y-101265481D01*
X80411026Y-101270697D01*
X80389791Y-101273847D01*
X80368350Y-101274900D01*
X79930850Y-101274900D01*
X79909409Y-101273847D01*
X79888174Y-101270697D01*
X79867350Y-101265481D01*
X79847138Y-101258249D01*
X79827732Y-101249070D01*
X79809319Y-101238034D01*
X79792076Y-101225246D01*
X79776170Y-101210830D01*
X79761754Y-101194924D01*
X79748966Y-101177681D01*
X79737930Y-101159268D01*
X79728751Y-101139862D01*
X79721519Y-101119650D01*
X79716303Y-101098826D01*
X79713153Y-101077591D01*
X79712100Y-101056150D01*
X79712100Y-100543650D01*
X79713153Y-100522209D01*
X79716303Y-100500974D01*
X79721519Y-100480150D01*
X79728751Y-100459938D01*
X79737930Y-100440532D01*
X79748966Y-100422119D01*
X79761754Y-100404876D01*
X79776170Y-100388970D01*
X79792076Y-100374554D01*
X79809319Y-100361766D01*
X79827732Y-100350730D01*
X79847138Y-100341551D01*
X79867350Y-100334319D01*
X79888174Y-100329103D01*
X79909409Y-100325953D01*
X79930850Y-100324900D01*
X80368350Y-100324900D01*
X80389791Y-100325953D01*
X80389791Y-100325953D01*
G37*
D13*
X80149600Y-100799900D03*
D10*
G36*
X81964791Y-100325953D02*
G01*
X81986026Y-100329103D01*
X82006850Y-100334319D01*
X82027062Y-100341551D01*
X82046468Y-100350730D01*
X82064881Y-100361766D01*
X82082124Y-100374554D01*
X82098030Y-100388970D01*
X82112446Y-100404876D01*
X82125234Y-100422119D01*
X82136270Y-100440532D01*
X82145449Y-100459938D01*
X82152681Y-100480150D01*
X82157897Y-100500974D01*
X82161047Y-100522209D01*
X82162100Y-100543650D01*
X82162100Y-101056150D01*
X82161047Y-101077591D01*
X82157897Y-101098826D01*
X82152681Y-101119650D01*
X82145449Y-101139862D01*
X82136270Y-101159268D01*
X82125234Y-101177681D01*
X82112446Y-101194924D01*
X82098030Y-101210830D01*
X82082124Y-101225246D01*
X82064881Y-101238034D01*
X82046468Y-101249070D01*
X82027062Y-101258249D01*
X82006850Y-101265481D01*
X81986026Y-101270697D01*
X81964791Y-101273847D01*
X81943350Y-101274900D01*
X81505850Y-101274900D01*
X81484409Y-101273847D01*
X81463174Y-101270697D01*
X81442350Y-101265481D01*
X81422138Y-101258249D01*
X81402732Y-101249070D01*
X81384319Y-101238034D01*
X81367076Y-101225246D01*
X81351170Y-101210830D01*
X81336754Y-101194924D01*
X81323966Y-101177681D01*
X81312930Y-101159268D01*
X81303751Y-101139862D01*
X81296519Y-101119650D01*
X81291303Y-101098826D01*
X81288153Y-101077591D01*
X81287100Y-101056150D01*
X81287100Y-100543650D01*
X81288153Y-100522209D01*
X81291303Y-100500974D01*
X81296519Y-100480150D01*
X81303751Y-100459938D01*
X81312930Y-100440532D01*
X81323966Y-100422119D01*
X81336754Y-100404876D01*
X81351170Y-100388970D01*
X81367076Y-100374554D01*
X81384319Y-100361766D01*
X81402732Y-100350730D01*
X81422138Y-100341551D01*
X81442350Y-100334319D01*
X81463174Y-100329103D01*
X81484409Y-100325953D01*
X81505850Y-100324900D01*
X81943350Y-100324900D01*
X81964791Y-100325953D01*
X81964791Y-100325953D01*
G37*
D13*
X81724600Y-100799900D03*
D10*
G36*
X85914491Y-94509353D02*
G01*
X85935726Y-94512503D01*
X85956550Y-94517719D01*
X85976762Y-94524951D01*
X85996168Y-94534130D01*
X86014581Y-94545166D01*
X86031824Y-94557954D01*
X86047730Y-94572370D01*
X86062146Y-94588276D01*
X86074934Y-94605519D01*
X86085970Y-94623932D01*
X86095149Y-94643338D01*
X86102381Y-94663550D01*
X86107597Y-94684374D01*
X86110747Y-94705609D01*
X86111800Y-94727050D01*
X86111800Y-95239550D01*
X86110747Y-95260991D01*
X86107597Y-95282226D01*
X86102381Y-95303050D01*
X86095149Y-95323262D01*
X86085970Y-95342668D01*
X86074934Y-95361081D01*
X86062146Y-95378324D01*
X86047730Y-95394230D01*
X86031824Y-95408646D01*
X86014581Y-95421434D01*
X85996168Y-95432470D01*
X85976762Y-95441649D01*
X85956550Y-95448881D01*
X85935726Y-95454097D01*
X85914491Y-95457247D01*
X85893050Y-95458300D01*
X85455550Y-95458300D01*
X85434109Y-95457247D01*
X85412874Y-95454097D01*
X85392050Y-95448881D01*
X85371838Y-95441649D01*
X85352432Y-95432470D01*
X85334019Y-95421434D01*
X85316776Y-95408646D01*
X85300870Y-95394230D01*
X85286454Y-95378324D01*
X85273666Y-95361081D01*
X85262630Y-95342668D01*
X85253451Y-95323262D01*
X85246219Y-95303050D01*
X85241003Y-95282226D01*
X85237853Y-95260991D01*
X85236800Y-95239550D01*
X85236800Y-94727050D01*
X85237853Y-94705609D01*
X85241003Y-94684374D01*
X85246219Y-94663550D01*
X85253451Y-94643338D01*
X85262630Y-94623932D01*
X85273666Y-94605519D01*
X85286454Y-94588276D01*
X85300870Y-94572370D01*
X85316776Y-94557954D01*
X85334019Y-94545166D01*
X85352432Y-94534130D01*
X85371838Y-94524951D01*
X85392050Y-94517719D01*
X85412874Y-94512503D01*
X85434109Y-94509353D01*
X85455550Y-94508300D01*
X85893050Y-94508300D01*
X85914491Y-94509353D01*
X85914491Y-94509353D01*
G37*
D13*
X85674300Y-94983300D03*
D10*
G36*
X84339491Y-94509353D02*
G01*
X84360726Y-94512503D01*
X84381550Y-94517719D01*
X84401762Y-94524951D01*
X84421168Y-94534130D01*
X84439581Y-94545166D01*
X84456824Y-94557954D01*
X84472730Y-94572370D01*
X84487146Y-94588276D01*
X84499934Y-94605519D01*
X84510970Y-94623932D01*
X84520149Y-94643338D01*
X84527381Y-94663550D01*
X84532597Y-94684374D01*
X84535747Y-94705609D01*
X84536800Y-94727050D01*
X84536800Y-95239550D01*
X84535747Y-95260991D01*
X84532597Y-95282226D01*
X84527381Y-95303050D01*
X84520149Y-95323262D01*
X84510970Y-95342668D01*
X84499934Y-95361081D01*
X84487146Y-95378324D01*
X84472730Y-95394230D01*
X84456824Y-95408646D01*
X84439581Y-95421434D01*
X84421168Y-95432470D01*
X84401762Y-95441649D01*
X84381550Y-95448881D01*
X84360726Y-95454097D01*
X84339491Y-95457247D01*
X84318050Y-95458300D01*
X83880550Y-95458300D01*
X83859109Y-95457247D01*
X83837874Y-95454097D01*
X83817050Y-95448881D01*
X83796838Y-95441649D01*
X83777432Y-95432470D01*
X83759019Y-95421434D01*
X83741776Y-95408646D01*
X83725870Y-95394230D01*
X83711454Y-95378324D01*
X83698666Y-95361081D01*
X83687630Y-95342668D01*
X83678451Y-95323262D01*
X83671219Y-95303050D01*
X83666003Y-95282226D01*
X83662853Y-95260991D01*
X83661800Y-95239550D01*
X83661800Y-94727050D01*
X83662853Y-94705609D01*
X83666003Y-94684374D01*
X83671219Y-94663550D01*
X83678451Y-94643338D01*
X83687630Y-94623932D01*
X83698666Y-94605519D01*
X83711454Y-94588276D01*
X83725870Y-94572370D01*
X83741776Y-94557954D01*
X83759019Y-94545166D01*
X83777432Y-94534130D01*
X83796838Y-94524951D01*
X83817050Y-94517719D01*
X83837874Y-94512503D01*
X83859109Y-94509353D01*
X83880550Y-94508300D01*
X84318050Y-94508300D01*
X84339491Y-94509353D01*
X84339491Y-94509353D01*
G37*
D13*
X84099300Y-94983300D03*
D18*
X74790300Y-90297000D03*
X76022200Y-97942400D03*
X83083400Y-89636600D03*
X83616800Y-96291400D03*
X81699100Y-95986600D03*
X84556600Y-99529900D03*
X77856080Y-92374720D03*
X85725000Y-89636600D03*
X86512400Y-96710500D03*
X80378300Y-94767400D03*
X85979000Y-93408500D03*
D19*
X78710800Y-98132600D02*
X79260700Y-97582700D01*
X78710800Y-98907600D02*
X78710800Y-98132600D01*
X79260700Y-97582700D02*
X79260700Y-96951800D01*
X73604220Y-92029280D02*
X75484980Y-92029280D01*
X77103127Y-93164827D02*
X77787500Y-93849200D01*
X76620527Y-93164827D02*
X77103127Y-93164827D01*
X75484980Y-92029280D02*
X76620527Y-93164827D01*
X79251700Y-93849200D02*
X79628900Y-93472000D01*
X77787500Y-93849200D02*
X79251700Y-93849200D01*
X89415960Y-98541840D02*
X90865960Y-98541840D01*
X86657430Y-95783310D02*
X89415960Y-98541840D01*
X84899310Y-95783310D02*
X86657430Y-95783310D01*
X84099300Y-94983300D02*
X84899310Y-95783310D01*
X81203900Y-93472000D02*
X82676900Y-93472000D01*
X84099300Y-94894400D02*
X82676900Y-93472000D01*
X84099300Y-94983300D02*
X84099300Y-94894400D01*
X74790540Y-90297240D02*
X74790300Y-90297000D01*
X76499720Y-90297240D02*
X74790540Y-90297240D01*
X78879700Y-100799900D02*
X76022200Y-97942400D01*
X80149600Y-100799900D02*
X78879700Y-100799900D01*
X83703640Y-90256840D02*
X83083400Y-89636600D01*
X84937600Y-98272700D02*
X86104400Y-98272700D01*
X83616800Y-96951900D02*
X84937600Y-98272700D01*
X86104400Y-98272700D02*
X86448900Y-97928200D01*
X83616800Y-96291400D02*
X83616800Y-96951900D01*
X84399120Y-90256840D02*
X83703640Y-90256840D01*
X82933500Y-96974700D02*
X83616800Y-96291400D01*
X82597500Y-96974700D02*
X82933500Y-96974700D01*
X81262988Y-100338288D02*
X81724600Y-100799900D01*
X81153298Y-100338288D02*
X81262988Y-100338288D01*
X80385790Y-99570780D02*
X81153298Y-100338288D01*
X80385790Y-98244420D02*
X80385790Y-99570780D01*
X81655510Y-96974700D02*
X80385790Y-98244420D01*
X82597500Y-96974700D02*
X81655510Y-96974700D01*
X82956300Y-98907600D02*
X83197700Y-98666200D01*
X81410800Y-98907600D02*
X82956300Y-98907600D01*
X83197700Y-98666200D02*
X83197700Y-98666200D01*
X83692900Y-98666200D02*
X84556600Y-99529900D01*
X83197700Y-98666200D02*
X83692900Y-98666200D01*
X81699100Y-95973100D02*
X82597500Y-95074700D01*
X81699100Y-95986600D02*
X81699100Y-95973100D01*
X78663800Y-91567000D02*
X77856080Y-92374720D01*
X79115920Y-91567000D02*
X78663800Y-91567000D01*
X81772520Y-91567000D02*
X81782920Y-91556600D01*
X79115920Y-91567000D02*
X81772520Y-91567000D01*
X84398880Y-91556600D02*
X84399120Y-91556840D01*
X81782920Y-91556600D02*
X84398880Y-91556600D01*
X75652128Y-91597240D02*
X76499720Y-91597240D01*
X75177138Y-91122250D02*
X75652128Y-91597240D01*
X72936250Y-91122250D02*
X75177138Y-91122250D01*
X72029220Y-92029280D02*
X72936250Y-91122250D01*
X72029220Y-90134540D02*
X72008800Y-90114120D01*
X72029220Y-92029280D02*
X72029220Y-90134540D01*
X72872600Y-92872660D02*
X72872600Y-95067120D01*
X72029220Y-92029280D02*
X72872600Y-92872660D01*
X86290685Y-89636600D02*
X85725000Y-89636600D01*
X86359760Y-89636600D02*
X86290685Y-89636600D01*
X86984840Y-90261680D02*
X86359760Y-89636600D01*
X84950400Y-96710500D02*
X84937600Y-96697700D01*
X86512400Y-96710500D02*
X84950400Y-96710500D01*
X85979000Y-92567520D02*
X85979000Y-92842815D01*
X86984840Y-91561680D02*
X85979000Y-92567520D01*
X85979000Y-92842815D02*
X85979000Y-93408500D01*
X80597500Y-94986600D02*
X80378300Y-94767400D01*
X80597500Y-96024700D02*
X80597500Y-94986600D01*
X85915500Y-93472000D02*
X85979000Y-93408500D01*
X84251900Y-93472000D02*
X85915500Y-93472000D01*
X74225690Y-89472230D02*
X77473558Y-89472230D01*
X77473558Y-89472230D02*
X78268328Y-90267000D01*
X78268328Y-90267000D02*
X79115920Y-90267000D01*
X73583800Y-90114120D02*
X74225690Y-89472230D01*
D20*
G36*
X94259659Y-88188625D02*
G01*
X94509429Y-88264035D01*
X94739792Y-88386522D01*
X94941980Y-88551422D01*
X95108286Y-88752450D01*
X95232378Y-88981954D01*
X95309531Y-89231195D01*
X95340001Y-89521098D01*
X95340000Y-100767721D01*
X95311375Y-101059660D01*
X95235965Y-101309429D01*
X95113477Y-101539794D01*
X94948579Y-101741979D01*
X94747546Y-101908288D01*
X94518046Y-102032378D01*
X94268805Y-102109531D01*
X93978911Y-102140000D01*
X69832279Y-102140000D01*
X69540340Y-102111375D01*
X69290571Y-102035965D01*
X69060206Y-101913477D01*
X68858021Y-101748579D01*
X68691712Y-101547546D01*
X68567622Y-101318046D01*
X68490469Y-101068805D01*
X68460000Y-100778911D01*
X68460000Y-89857870D01*
X70933228Y-89857870D01*
X70933228Y-90370370D01*
X70949692Y-90537528D01*
X70998450Y-90698262D01*
X71077629Y-90846395D01*
X71184185Y-90976235D01*
X71269221Y-91046021D01*
X71269220Y-91114137D01*
X71204605Y-91167165D01*
X71098049Y-91297005D01*
X71018870Y-91445138D01*
X70970112Y-91605872D01*
X70953648Y-91773030D01*
X70953648Y-92285530D01*
X70970112Y-92452688D01*
X71018870Y-92613422D01*
X71098049Y-92761555D01*
X71204605Y-92891395D01*
X71334445Y-92997951D01*
X71482578Y-93077130D01*
X71643312Y-93125888D01*
X71810470Y-93142352D01*
X72067490Y-93142352D01*
X72112600Y-93187463D01*
X72112600Y-93229048D01*
X71672600Y-93229048D01*
X71548118Y-93241308D01*
X71428420Y-93277618D01*
X71318106Y-93336583D01*
X71221415Y-93415935D01*
X71142063Y-93512626D01*
X71083098Y-93622940D01*
X71046788Y-93742638D01*
X71034528Y-93867120D01*
X71034528Y-96267120D01*
X71046788Y-96391602D01*
X71083098Y-96511300D01*
X71142063Y-96621614D01*
X71221415Y-96718305D01*
X71318106Y-96797657D01*
X71428420Y-96856622D01*
X71548118Y-96892932D01*
X71672600Y-96905192D01*
X72089762Y-96905192D01*
X72003401Y-96940964D01*
X71702856Y-97141782D01*
X71447262Y-97397376D01*
X71246444Y-97697921D01*
X71108118Y-98031870D01*
X71037600Y-98386388D01*
X71037600Y-98747852D01*
X71108118Y-99102370D01*
X71246444Y-99436319D01*
X71447262Y-99736864D01*
X71702856Y-99992458D01*
X72003401Y-100193276D01*
X72337350Y-100331602D01*
X72691868Y-100402120D01*
X73053332Y-100402120D01*
X73407850Y-100331602D01*
X73741799Y-100193276D01*
X74042344Y-99992458D01*
X74297938Y-99736864D01*
X74498756Y-99436319D01*
X74637082Y-99102370D01*
X74707600Y-98747852D01*
X74707600Y-98386388D01*
X74637082Y-98031870D01*
X74498756Y-97697921D01*
X74297938Y-97397376D01*
X74042344Y-97141782D01*
X73741799Y-96940964D01*
X73655438Y-96905192D01*
X74072600Y-96905192D01*
X74197082Y-96892932D01*
X74316780Y-96856622D01*
X74427094Y-96797657D01*
X74523785Y-96718305D01*
X74603137Y-96621614D01*
X74662102Y-96511300D01*
X74698412Y-96391602D01*
X74710672Y-96267120D01*
X74710672Y-95849200D01*
X76474428Y-95849200D01*
X76477500Y-96263450D01*
X76636250Y-96422200D01*
X77660500Y-96422200D01*
X77660500Y-95372950D01*
X77914500Y-95372950D01*
X77914500Y-96422200D01*
X78938750Y-96422200D01*
X79097500Y-96263450D01*
X79100572Y-95849200D01*
X79088312Y-95724718D01*
X79052002Y-95605020D01*
X78993037Y-95494706D01*
X78913685Y-95398015D01*
X78816994Y-95318663D01*
X78706680Y-95259698D01*
X78586982Y-95223388D01*
X78462500Y-95211128D01*
X78073250Y-95214200D01*
X77914500Y-95372950D01*
X77660500Y-95372950D01*
X77501750Y-95214200D01*
X77112500Y-95211128D01*
X76988018Y-95223388D01*
X76868320Y-95259698D01*
X76758006Y-95318663D01*
X76661315Y-95398015D01*
X76581963Y-95494706D01*
X76522998Y-95605020D01*
X76486688Y-95724718D01*
X76474428Y-95849200D01*
X74710672Y-95849200D01*
X74710672Y-93867120D01*
X74698412Y-93742638D01*
X74662102Y-93622940D01*
X74603137Y-93512626D01*
X74523785Y-93415935D01*
X74427094Y-93336583D01*
X74316780Y-93277618D01*
X74197082Y-93241308D01*
X74072600Y-93229048D01*
X73632600Y-93229048D01*
X73632600Y-93142352D01*
X73822970Y-93142352D01*
X73990128Y-93125888D01*
X74150862Y-93077130D01*
X74298995Y-92997951D01*
X74428835Y-92891395D01*
X74512638Y-92789280D01*
X75170179Y-92789280D01*
X76056727Y-93675829D01*
X76080526Y-93704828D01*
X76109524Y-93728626D01*
X76196250Y-93799801D01*
X76290530Y-93850195D01*
X76328280Y-93870373D01*
X76471541Y-93913830D01*
X76474428Y-93914114D01*
X76474428Y-94299201D01*
X76491492Y-94472455D01*
X76542028Y-94639051D01*
X76624095Y-94792587D01*
X76734538Y-94927162D01*
X76869113Y-95037605D01*
X77022649Y-95119672D01*
X77189245Y-95170208D01*
X77362499Y-95187272D01*
X78212501Y-95187272D01*
X78385755Y-95170208D01*
X78552351Y-95119672D01*
X78705887Y-95037605D01*
X78840462Y-94927162D01*
X78950905Y-94792587D01*
X79032972Y-94639051D01*
X79042027Y-94609200D01*
X79214378Y-94609200D01*
X79251700Y-94612876D01*
X79289022Y-94609200D01*
X79289033Y-94609200D01*
X79355799Y-94602624D01*
X79343300Y-94665461D01*
X79343300Y-94869339D01*
X79383074Y-95069298D01*
X79461095Y-95257656D01*
X79553374Y-95395762D01*
X79521688Y-95500218D01*
X79509428Y-95624700D01*
X79509428Y-96424700D01*
X79521688Y-96549182D01*
X79557998Y-96668880D01*
X79616963Y-96779194D01*
X79696315Y-96875885D01*
X79793006Y-96955237D01*
X79903320Y-97014202D01*
X80023018Y-97050512D01*
X80147500Y-97062772D01*
X80492636Y-97062772D01*
X79874793Y-97680616D01*
X79845789Y-97704419D01*
X79814549Y-97742485D01*
X79765294Y-97702063D01*
X79654980Y-97643098D01*
X79535282Y-97606788D01*
X79410800Y-97594528D01*
X78996550Y-97597600D01*
X78996001Y-97598149D01*
X79052002Y-97493380D01*
X79088312Y-97373682D01*
X79100572Y-97249200D01*
X79097500Y-96834950D01*
X78938750Y-96676200D01*
X77914500Y-96676200D01*
X77914500Y-96696200D01*
X77660500Y-96696200D01*
X77660500Y-96676200D01*
X76636250Y-96676200D01*
X76477500Y-96834950D01*
X76476201Y-97010177D01*
X76324098Y-96947174D01*
X76124139Y-96907400D01*
X75920261Y-96907400D01*
X75720302Y-96947174D01*
X75531944Y-97025195D01*
X75362426Y-97138463D01*
X75218263Y-97282626D01*
X75104995Y-97452144D01*
X75026974Y-97640502D01*
X74987200Y-97840461D01*
X74987200Y-98044339D01*
X75026974Y-98244298D01*
X75104995Y-98432656D01*
X75218263Y-98602174D01*
X75362426Y-98746337D01*
X75531944Y-98859605D01*
X75720302Y-98937626D01*
X75920261Y-98977400D01*
X75982399Y-98977400D01*
X78315901Y-101310903D01*
X78339699Y-101339901D01*
X78455424Y-101434874D01*
X78587453Y-101505446D01*
X78730714Y-101548903D01*
X78842367Y-101559900D01*
X78842376Y-101559900D01*
X78879699Y-101563576D01*
X78917022Y-101559900D01*
X79241182Y-101559900D01*
X79324985Y-101662015D01*
X79454825Y-101768571D01*
X79602958Y-101847750D01*
X79763692Y-101896508D01*
X79930850Y-101912972D01*
X80368350Y-101912972D01*
X80535508Y-101896508D01*
X80696242Y-101847750D01*
X80844375Y-101768571D01*
X80937100Y-101692474D01*
X81029825Y-101768571D01*
X81177958Y-101847750D01*
X81338692Y-101896508D01*
X81505850Y-101912972D01*
X81943350Y-101912972D01*
X82110508Y-101896508D01*
X82271242Y-101847750D01*
X82419375Y-101768571D01*
X82549215Y-101662015D01*
X82655771Y-101532175D01*
X82734950Y-101384042D01*
X82755518Y-101316239D01*
X82911950Y-101313700D01*
X83070700Y-101154950D01*
X83070700Y-100368200D01*
X83050700Y-100368200D01*
X83050700Y-100114200D01*
X83070700Y-100114200D01*
X83070700Y-100094200D01*
X83324700Y-100094200D01*
X83324700Y-100114200D01*
X83344700Y-100114200D01*
X83344700Y-100368200D01*
X83324700Y-100368200D01*
X83324700Y-101154950D01*
X83483450Y-101313700D01*
X83672700Y-101316772D01*
X83797182Y-101304512D01*
X83916880Y-101268202D01*
X84027194Y-101209237D01*
X84123885Y-101129885D01*
X84203237Y-101033194D01*
X84262202Y-100922880D01*
X84298512Y-100803182D01*
X84310772Y-100678700D01*
X84307877Y-100535703D01*
X84454661Y-100564900D01*
X84658539Y-100564900D01*
X84858498Y-100525126D01*
X85046856Y-100447105D01*
X85216374Y-100333837D01*
X85360537Y-100189674D01*
X85473805Y-100020156D01*
X85523831Y-99899383D01*
X85568363Y-99982694D01*
X85647715Y-100079385D01*
X85744406Y-100158737D01*
X85854720Y-100217702D01*
X85974418Y-100254012D01*
X86098900Y-100266272D01*
X86163150Y-100263200D01*
X86321900Y-100104450D01*
X86321900Y-99455200D01*
X86575900Y-99455200D01*
X86575900Y-100104450D01*
X86734650Y-100263200D01*
X86798900Y-100266272D01*
X86923382Y-100254012D01*
X87043080Y-100217702D01*
X87153394Y-100158737D01*
X87250085Y-100079385D01*
X87329437Y-99982694D01*
X87388402Y-99872380D01*
X87424712Y-99752682D01*
X87436972Y-99628200D01*
X87433900Y-99613950D01*
X87275150Y-99455200D01*
X86575900Y-99455200D01*
X86321900Y-99455200D01*
X86301900Y-99455200D01*
X86301900Y-99201200D01*
X86321900Y-99201200D01*
X86321900Y-99181200D01*
X86575900Y-99181200D01*
X86575900Y-99201200D01*
X87275150Y-99201200D01*
X87433900Y-99042450D01*
X87436972Y-99028200D01*
X87424712Y-98903718D01*
X87388402Y-98784020D01*
X87329437Y-98673706D01*
X87292091Y-98628200D01*
X87329437Y-98582694D01*
X87388402Y-98472380D01*
X87424712Y-98352682D01*
X87436972Y-98228200D01*
X87436972Y-97637653D01*
X88852161Y-99052843D01*
X88875959Y-99081841D01*
X88904957Y-99105639D01*
X88991684Y-99176814D01*
X89027888Y-99196166D01*
X89027888Y-99741840D01*
X89040148Y-99866322D01*
X89076458Y-99986020D01*
X89135423Y-100096334D01*
X89214775Y-100193025D01*
X89311466Y-100272377D01*
X89421780Y-100331342D01*
X89541478Y-100367652D01*
X89665960Y-100379912D01*
X92065960Y-100379912D01*
X92190442Y-100367652D01*
X92310140Y-100331342D01*
X92420454Y-100272377D01*
X92517145Y-100193025D01*
X92596497Y-100096334D01*
X92655462Y-99986020D01*
X92691772Y-99866322D01*
X92704032Y-99741840D01*
X92704032Y-97341840D01*
X92691772Y-97217358D01*
X92655462Y-97097660D01*
X92596497Y-96987346D01*
X92517145Y-96890655D01*
X92420454Y-96811303D01*
X92310140Y-96752338D01*
X92190442Y-96716028D01*
X92065960Y-96703768D01*
X91659057Y-96703768D01*
X91844446Y-96604676D01*
X91964334Y-96319820D01*
X90865960Y-95221445D01*
X89767586Y-96319820D01*
X89887474Y-96604676D01*
X90086872Y-96703768D01*
X89665960Y-96703768D01*
X89541478Y-96716028D01*
X89421780Y-96752338D01*
X89311466Y-96811303D01*
X89214775Y-96890655D01*
X89135423Y-96987346D01*
X89076458Y-97097660D01*
X89069504Y-97120583D01*
X87221234Y-95272313D01*
X87197431Y-95243309D01*
X87081706Y-95148336D01*
X86984774Y-95096524D01*
X89022893Y-95096524D01*
X89068975Y-95455038D01*
X89184114Y-95797673D01*
X89303124Y-96020326D01*
X89587980Y-96140214D01*
X90686355Y-95041840D01*
X91045565Y-95041840D01*
X92143940Y-96140214D01*
X92428796Y-96020326D01*
X92589659Y-95696630D01*
X92684282Y-95347771D01*
X92709027Y-94987156D01*
X92662945Y-94628642D01*
X92547806Y-94286007D01*
X92428796Y-94063354D01*
X92143940Y-93943466D01*
X91045565Y-95041840D01*
X90686355Y-95041840D01*
X89587980Y-93943466D01*
X89303124Y-94063354D01*
X89142261Y-94387050D01*
X89047638Y-94735909D01*
X89022893Y-95096524D01*
X86984774Y-95096524D01*
X86949677Y-95077764D01*
X86806416Y-95034307D01*
X86694763Y-95023310D01*
X86694752Y-95023310D01*
X86657430Y-95019634D01*
X86620108Y-95023310D01*
X85527300Y-95023310D01*
X85527300Y-94856300D01*
X85547300Y-94856300D01*
X85547300Y-94836300D01*
X85801300Y-94836300D01*
X85801300Y-94856300D01*
X86588050Y-94856300D01*
X86746800Y-94697550D01*
X86749872Y-94508300D01*
X86737612Y-94383818D01*
X86701302Y-94264120D01*
X86661519Y-94189692D01*
X86782937Y-94068274D01*
X86896205Y-93898756D01*
X86952081Y-93763860D01*
X89767586Y-93763860D01*
X90865960Y-94862235D01*
X91964334Y-93763860D01*
X91844446Y-93479004D01*
X91520750Y-93318141D01*
X91171891Y-93223518D01*
X90811276Y-93198773D01*
X90452762Y-93244855D01*
X90110127Y-93359994D01*
X89887474Y-93479004D01*
X89767586Y-93763860D01*
X86952081Y-93763860D01*
X86974226Y-93710398D01*
X87014000Y-93510439D01*
X87014000Y-93306561D01*
X86974226Y-93106602D01*
X86896205Y-92918244D01*
X86818849Y-92802472D01*
X86921569Y-92699752D01*
X87234840Y-92699752D01*
X87259290Y-92697344D01*
X87283849Y-92697344D01*
X87408330Y-92685084D01*
X87504463Y-92665962D01*
X87624159Y-92629653D01*
X87714715Y-92592144D01*
X87825032Y-92533178D01*
X87906531Y-92478722D01*
X88003222Y-92399370D01*
X88072530Y-92330062D01*
X88151882Y-92233371D01*
X88206338Y-92151872D01*
X88265304Y-92041555D01*
X88302813Y-91950999D01*
X88339122Y-91831303D01*
X88358244Y-91735170D01*
X88370504Y-91610689D01*
X88370504Y-91586130D01*
X88372912Y-91561680D01*
X88372912Y-91061680D01*
X88360652Y-90937198D01*
X88352911Y-90911680D01*
X88360652Y-90886162D01*
X88372912Y-90761680D01*
X88372912Y-90261680D01*
X88370504Y-90237230D01*
X88370504Y-90212671D01*
X88358244Y-90088190D01*
X88339122Y-89992057D01*
X88302813Y-89872361D01*
X88265304Y-89781805D01*
X88206338Y-89671488D01*
X88151882Y-89589989D01*
X88072530Y-89493298D01*
X88003222Y-89423990D01*
X87906531Y-89344638D01*
X87825032Y-89290182D01*
X87714715Y-89231216D01*
X87624159Y-89193707D01*
X87504463Y-89157398D01*
X87408330Y-89138276D01*
X87283849Y-89126016D01*
X87259290Y-89126016D01*
X87234840Y-89123608D01*
X86921927Y-89123608D01*
X86899761Y-89096599D01*
X86784036Y-89001626D01*
X86652007Y-88931054D01*
X86508746Y-88887597D01*
X86432165Y-88880054D01*
X86384774Y-88832663D01*
X86215256Y-88719395D01*
X86026898Y-88641374D01*
X85826939Y-88601600D01*
X85623061Y-88601600D01*
X85423102Y-88641374D01*
X85234744Y-88719395D01*
X85065226Y-88832663D01*
X84921063Y-88976826D01*
X84816802Y-89132864D01*
X84698129Y-89121176D01*
X84673570Y-89121176D01*
X84649120Y-89118768D01*
X84149120Y-89118768D01*
X84124670Y-89121176D01*
X84100111Y-89121176D01*
X83990971Y-89131925D01*
X83887337Y-88976826D01*
X83743174Y-88832663D01*
X83573656Y-88719395D01*
X83385298Y-88641374D01*
X83185339Y-88601600D01*
X82981461Y-88601600D01*
X82781502Y-88641374D01*
X82593144Y-88719395D01*
X82423626Y-88832663D01*
X82279463Y-88976826D01*
X82166195Y-89146344D01*
X82088174Y-89334702D01*
X82048400Y-89534661D01*
X82048400Y-89738539D01*
X82088174Y-89938498D01*
X82166195Y-90126856D01*
X82279463Y-90296374D01*
X82401617Y-90418528D01*
X81032920Y-90418528D01*
X80908438Y-90430788D01*
X80788740Y-90467098D01*
X80678426Y-90526063D01*
X80581735Y-90605415D01*
X80503992Y-90700145D01*
X80503992Y-90267000D01*
X80501584Y-90242550D01*
X80501584Y-90217991D01*
X80489324Y-90093510D01*
X80470202Y-89997377D01*
X80433893Y-89877681D01*
X80396384Y-89787125D01*
X80337418Y-89676808D01*
X80282962Y-89595309D01*
X80203610Y-89498618D01*
X80134302Y-89429310D01*
X80037611Y-89349958D01*
X79956112Y-89295502D01*
X79845795Y-89236536D01*
X79755239Y-89199027D01*
X79635543Y-89162718D01*
X79539410Y-89143596D01*
X79414929Y-89131336D01*
X79390370Y-89131336D01*
X79365920Y-89128928D01*
X78865920Y-89128928D01*
X78841470Y-89131336D01*
X78816911Y-89131336D01*
X78692430Y-89143596D01*
X78596297Y-89162718D01*
X78476601Y-89199027D01*
X78386045Y-89236536D01*
X78338226Y-89262096D01*
X78037361Y-88961232D01*
X78013559Y-88932229D01*
X77897834Y-88837256D01*
X77765805Y-88766684D01*
X77622544Y-88723227D01*
X77510891Y-88712230D01*
X77510880Y-88712230D01*
X77473558Y-88708554D01*
X77436236Y-88712230D01*
X74263023Y-88712230D01*
X74225690Y-88708553D01*
X74188357Y-88712230D01*
X74076704Y-88723227D01*
X73933443Y-88766684D01*
X73801414Y-88837256D01*
X73685689Y-88932229D01*
X73661890Y-88961228D01*
X73622070Y-89001048D01*
X73365050Y-89001048D01*
X73197892Y-89017512D01*
X73037158Y-89066270D01*
X72889025Y-89145449D01*
X72796300Y-89221546D01*
X72703575Y-89145449D01*
X72555442Y-89066270D01*
X72394708Y-89017512D01*
X72227550Y-89001048D01*
X71790050Y-89001048D01*
X71622892Y-89017512D01*
X71462158Y-89066270D01*
X71314025Y-89145449D01*
X71184185Y-89252005D01*
X71077629Y-89381845D01*
X70998450Y-89529978D01*
X70949692Y-89690712D01*
X70933228Y-89857870D01*
X68460000Y-89857870D01*
X68460000Y-89532279D01*
X68488625Y-89240341D01*
X68564035Y-88990571D01*
X68686522Y-88760208D01*
X68851422Y-88558020D01*
X69052450Y-88391714D01*
X69281954Y-88267622D01*
X69531195Y-88190469D01*
X69821088Y-88160000D01*
X93967721Y-88160000D01*
X94259659Y-88188625D01*
X94259659Y-88188625D01*
G37*
X94259659Y-88188625D02*
X94509429Y-88264035D01*
X94739792Y-88386522D01*
X94941980Y-88551422D01*
X95108286Y-88752450D01*
X95232378Y-88981954D01*
X95309531Y-89231195D01*
X95340001Y-89521098D01*
X95340000Y-100767721D01*
X95311375Y-101059660D01*
X95235965Y-101309429D01*
X95113477Y-101539794D01*
X94948579Y-101741979D01*
X94747546Y-101908288D01*
X94518046Y-102032378D01*
X94268805Y-102109531D01*
X93978911Y-102140000D01*
X69832279Y-102140000D01*
X69540340Y-102111375D01*
X69290571Y-102035965D01*
X69060206Y-101913477D01*
X68858021Y-101748579D01*
X68691712Y-101547546D01*
X68567622Y-101318046D01*
X68490469Y-101068805D01*
X68460000Y-100778911D01*
X68460000Y-89857870D01*
X70933228Y-89857870D01*
X70933228Y-90370370D01*
X70949692Y-90537528D01*
X70998450Y-90698262D01*
X71077629Y-90846395D01*
X71184185Y-90976235D01*
X71269221Y-91046021D01*
X71269220Y-91114137D01*
X71204605Y-91167165D01*
X71098049Y-91297005D01*
X71018870Y-91445138D01*
X70970112Y-91605872D01*
X70953648Y-91773030D01*
X70953648Y-92285530D01*
X70970112Y-92452688D01*
X71018870Y-92613422D01*
X71098049Y-92761555D01*
X71204605Y-92891395D01*
X71334445Y-92997951D01*
X71482578Y-93077130D01*
X71643312Y-93125888D01*
X71810470Y-93142352D01*
X72067490Y-93142352D01*
X72112600Y-93187463D01*
X72112600Y-93229048D01*
X71672600Y-93229048D01*
X71548118Y-93241308D01*
X71428420Y-93277618D01*
X71318106Y-93336583D01*
X71221415Y-93415935D01*
X71142063Y-93512626D01*
X71083098Y-93622940D01*
X71046788Y-93742638D01*
X71034528Y-93867120D01*
X71034528Y-96267120D01*
X71046788Y-96391602D01*
X71083098Y-96511300D01*
X71142063Y-96621614D01*
X71221415Y-96718305D01*
X71318106Y-96797657D01*
X71428420Y-96856622D01*
X71548118Y-96892932D01*
X71672600Y-96905192D01*
X72089762Y-96905192D01*
X72003401Y-96940964D01*
X71702856Y-97141782D01*
X71447262Y-97397376D01*
X71246444Y-97697921D01*
X71108118Y-98031870D01*
X71037600Y-98386388D01*
X71037600Y-98747852D01*
X71108118Y-99102370D01*
X71246444Y-99436319D01*
X71447262Y-99736864D01*
X71702856Y-99992458D01*
X72003401Y-100193276D01*
X72337350Y-100331602D01*
X72691868Y-100402120D01*
X73053332Y-100402120D01*
X73407850Y-100331602D01*
X73741799Y-100193276D01*
X74042344Y-99992458D01*
X74297938Y-99736864D01*
X74498756Y-99436319D01*
X74637082Y-99102370D01*
X74707600Y-98747852D01*
X74707600Y-98386388D01*
X74637082Y-98031870D01*
X74498756Y-97697921D01*
X74297938Y-97397376D01*
X74042344Y-97141782D01*
X73741799Y-96940964D01*
X73655438Y-96905192D01*
X74072600Y-96905192D01*
X74197082Y-96892932D01*
X74316780Y-96856622D01*
X74427094Y-96797657D01*
X74523785Y-96718305D01*
X74603137Y-96621614D01*
X74662102Y-96511300D01*
X74698412Y-96391602D01*
X74710672Y-96267120D01*
X74710672Y-95849200D01*
X76474428Y-95849200D01*
X76477500Y-96263450D01*
X76636250Y-96422200D01*
X77660500Y-96422200D01*
X77660500Y-95372950D01*
X77914500Y-95372950D01*
X77914500Y-96422200D01*
X78938750Y-96422200D01*
X79097500Y-96263450D01*
X79100572Y-95849200D01*
X79088312Y-95724718D01*
X79052002Y-95605020D01*
X78993037Y-95494706D01*
X78913685Y-95398015D01*
X78816994Y-95318663D01*
X78706680Y-95259698D01*
X78586982Y-95223388D01*
X78462500Y-95211128D01*
X78073250Y-95214200D01*
X77914500Y-95372950D01*
X77660500Y-95372950D01*
X77501750Y-95214200D01*
X77112500Y-95211128D01*
X76988018Y-95223388D01*
X76868320Y-95259698D01*
X76758006Y-95318663D01*
X76661315Y-95398015D01*
X76581963Y-95494706D01*
X76522998Y-95605020D01*
X76486688Y-95724718D01*
X76474428Y-95849200D01*
X74710672Y-95849200D01*
X74710672Y-93867120D01*
X74698412Y-93742638D01*
X74662102Y-93622940D01*
X74603137Y-93512626D01*
X74523785Y-93415935D01*
X74427094Y-93336583D01*
X74316780Y-93277618D01*
X74197082Y-93241308D01*
X74072600Y-93229048D01*
X73632600Y-93229048D01*
X73632600Y-93142352D01*
X73822970Y-93142352D01*
X73990128Y-93125888D01*
X74150862Y-93077130D01*
X74298995Y-92997951D01*
X74428835Y-92891395D01*
X74512638Y-92789280D01*
X75170179Y-92789280D01*
X76056727Y-93675829D01*
X76080526Y-93704828D01*
X76109524Y-93728626D01*
X76196250Y-93799801D01*
X76290530Y-93850195D01*
X76328280Y-93870373D01*
X76471541Y-93913830D01*
X76474428Y-93914114D01*
X76474428Y-94299201D01*
X76491492Y-94472455D01*
X76542028Y-94639051D01*
X76624095Y-94792587D01*
X76734538Y-94927162D01*
X76869113Y-95037605D01*
X77022649Y-95119672D01*
X77189245Y-95170208D01*
X77362499Y-95187272D01*
X78212501Y-95187272D01*
X78385755Y-95170208D01*
X78552351Y-95119672D01*
X78705887Y-95037605D01*
X78840462Y-94927162D01*
X78950905Y-94792587D01*
X79032972Y-94639051D01*
X79042027Y-94609200D01*
X79214378Y-94609200D01*
X79251700Y-94612876D01*
X79289022Y-94609200D01*
X79289033Y-94609200D01*
X79355799Y-94602624D01*
X79343300Y-94665461D01*
X79343300Y-94869339D01*
X79383074Y-95069298D01*
X79461095Y-95257656D01*
X79553374Y-95395762D01*
X79521688Y-95500218D01*
X79509428Y-95624700D01*
X79509428Y-96424700D01*
X79521688Y-96549182D01*
X79557998Y-96668880D01*
X79616963Y-96779194D01*
X79696315Y-96875885D01*
X79793006Y-96955237D01*
X79903320Y-97014202D01*
X80023018Y-97050512D01*
X80147500Y-97062772D01*
X80492636Y-97062772D01*
X79874793Y-97680616D01*
X79845789Y-97704419D01*
X79814549Y-97742485D01*
X79765294Y-97702063D01*
X79654980Y-97643098D01*
X79535282Y-97606788D01*
X79410800Y-97594528D01*
X78996550Y-97597600D01*
X78996001Y-97598149D01*
X79052002Y-97493380D01*
X79088312Y-97373682D01*
X79100572Y-97249200D01*
X79097500Y-96834950D01*
X78938750Y-96676200D01*
X77914500Y-96676200D01*
X77914500Y-96696200D01*
X77660500Y-96696200D01*
X77660500Y-96676200D01*
X76636250Y-96676200D01*
X76477500Y-96834950D01*
X76476201Y-97010177D01*
X76324098Y-96947174D01*
X76124139Y-96907400D01*
X75920261Y-96907400D01*
X75720302Y-96947174D01*
X75531944Y-97025195D01*
X75362426Y-97138463D01*
X75218263Y-97282626D01*
X75104995Y-97452144D01*
X75026974Y-97640502D01*
X74987200Y-97840461D01*
X74987200Y-98044339D01*
X75026974Y-98244298D01*
X75104995Y-98432656D01*
X75218263Y-98602174D01*
X75362426Y-98746337D01*
X75531944Y-98859605D01*
X75720302Y-98937626D01*
X75920261Y-98977400D01*
X75982399Y-98977400D01*
X78315901Y-101310903D01*
X78339699Y-101339901D01*
X78455424Y-101434874D01*
X78587453Y-101505446D01*
X78730714Y-101548903D01*
X78842367Y-101559900D01*
X78842376Y-101559900D01*
X78879699Y-101563576D01*
X78917022Y-101559900D01*
X79241182Y-101559900D01*
X79324985Y-101662015D01*
X79454825Y-101768571D01*
X79602958Y-101847750D01*
X79763692Y-101896508D01*
X79930850Y-101912972D01*
X80368350Y-101912972D01*
X80535508Y-101896508D01*
X80696242Y-101847750D01*
X80844375Y-101768571D01*
X80937100Y-101692474D01*
X81029825Y-101768571D01*
X81177958Y-101847750D01*
X81338692Y-101896508D01*
X81505850Y-101912972D01*
X81943350Y-101912972D01*
X82110508Y-101896508D01*
X82271242Y-101847750D01*
X82419375Y-101768571D01*
X82549215Y-101662015D01*
X82655771Y-101532175D01*
X82734950Y-101384042D01*
X82755518Y-101316239D01*
X82911950Y-101313700D01*
X83070700Y-101154950D01*
X83070700Y-100368200D01*
X83050700Y-100368200D01*
X83050700Y-100114200D01*
X83070700Y-100114200D01*
X83070700Y-100094200D01*
X83324700Y-100094200D01*
X83324700Y-100114200D01*
X83344700Y-100114200D01*
X83344700Y-100368200D01*
X83324700Y-100368200D01*
X83324700Y-101154950D01*
X83483450Y-101313700D01*
X83672700Y-101316772D01*
X83797182Y-101304512D01*
X83916880Y-101268202D01*
X84027194Y-101209237D01*
X84123885Y-101129885D01*
X84203237Y-101033194D01*
X84262202Y-100922880D01*
X84298512Y-100803182D01*
X84310772Y-100678700D01*
X84307877Y-100535703D01*
X84454661Y-100564900D01*
X84658539Y-100564900D01*
X84858498Y-100525126D01*
X85046856Y-100447105D01*
X85216374Y-100333837D01*
X85360537Y-100189674D01*
X85473805Y-100020156D01*
X85523831Y-99899383D01*
X85568363Y-99982694D01*
X85647715Y-100079385D01*
X85744406Y-100158737D01*
X85854720Y-100217702D01*
X85974418Y-100254012D01*
X86098900Y-100266272D01*
X86163150Y-100263200D01*
X86321900Y-100104450D01*
X86321900Y-99455200D01*
X86575900Y-99455200D01*
X86575900Y-100104450D01*
X86734650Y-100263200D01*
X86798900Y-100266272D01*
X86923382Y-100254012D01*
X87043080Y-100217702D01*
X87153394Y-100158737D01*
X87250085Y-100079385D01*
X87329437Y-99982694D01*
X87388402Y-99872380D01*
X87424712Y-99752682D01*
X87436972Y-99628200D01*
X87433900Y-99613950D01*
X87275150Y-99455200D01*
X86575900Y-99455200D01*
X86321900Y-99455200D01*
X86301900Y-99455200D01*
X86301900Y-99201200D01*
X86321900Y-99201200D01*
X86321900Y-99181200D01*
X86575900Y-99181200D01*
X86575900Y-99201200D01*
X87275150Y-99201200D01*
X87433900Y-99042450D01*
X87436972Y-99028200D01*
X87424712Y-98903718D01*
X87388402Y-98784020D01*
X87329437Y-98673706D01*
X87292091Y-98628200D01*
X87329437Y-98582694D01*
X87388402Y-98472380D01*
X87424712Y-98352682D01*
X87436972Y-98228200D01*
X87436972Y-97637653D01*
X88852161Y-99052843D01*
X88875959Y-99081841D01*
X88904957Y-99105639D01*
X88991684Y-99176814D01*
X89027888Y-99196166D01*
X89027888Y-99741840D01*
X89040148Y-99866322D01*
X89076458Y-99986020D01*
X89135423Y-100096334D01*
X89214775Y-100193025D01*
X89311466Y-100272377D01*
X89421780Y-100331342D01*
X89541478Y-100367652D01*
X89665960Y-100379912D01*
X92065960Y-100379912D01*
X92190442Y-100367652D01*
X92310140Y-100331342D01*
X92420454Y-100272377D01*
X92517145Y-100193025D01*
X92596497Y-100096334D01*
X92655462Y-99986020D01*
X92691772Y-99866322D01*
X92704032Y-99741840D01*
X92704032Y-97341840D01*
X92691772Y-97217358D01*
X92655462Y-97097660D01*
X92596497Y-96987346D01*
X92517145Y-96890655D01*
X92420454Y-96811303D01*
X92310140Y-96752338D01*
X92190442Y-96716028D01*
X92065960Y-96703768D01*
X91659057Y-96703768D01*
X91844446Y-96604676D01*
X91964334Y-96319820D01*
X90865960Y-95221445D01*
X89767586Y-96319820D01*
X89887474Y-96604676D01*
X90086872Y-96703768D01*
X89665960Y-96703768D01*
X89541478Y-96716028D01*
X89421780Y-96752338D01*
X89311466Y-96811303D01*
X89214775Y-96890655D01*
X89135423Y-96987346D01*
X89076458Y-97097660D01*
X89069504Y-97120583D01*
X87221234Y-95272313D01*
X87197431Y-95243309D01*
X87081706Y-95148336D01*
X86984774Y-95096524D01*
X89022893Y-95096524D01*
X89068975Y-95455038D01*
X89184114Y-95797673D01*
X89303124Y-96020326D01*
X89587980Y-96140214D01*
X90686355Y-95041840D01*
X91045565Y-95041840D01*
X92143940Y-96140214D01*
X92428796Y-96020326D01*
X92589659Y-95696630D01*
X92684282Y-95347771D01*
X92709027Y-94987156D01*
X92662945Y-94628642D01*
X92547806Y-94286007D01*
X92428796Y-94063354D01*
X92143940Y-93943466D01*
X91045565Y-95041840D01*
X90686355Y-95041840D01*
X89587980Y-93943466D01*
X89303124Y-94063354D01*
X89142261Y-94387050D01*
X89047638Y-94735909D01*
X89022893Y-95096524D01*
X86984774Y-95096524D01*
X86949677Y-95077764D01*
X86806416Y-95034307D01*
X86694763Y-95023310D01*
X86694752Y-95023310D01*
X86657430Y-95019634D01*
X86620108Y-95023310D01*
X85527300Y-95023310D01*
X85527300Y-94856300D01*
X85547300Y-94856300D01*
X85547300Y-94836300D01*
X85801300Y-94836300D01*
X85801300Y-94856300D01*
X86588050Y-94856300D01*
X86746800Y-94697550D01*
X86749872Y-94508300D01*
X86737612Y-94383818D01*
X86701302Y-94264120D01*
X86661519Y-94189692D01*
X86782937Y-94068274D01*
X86896205Y-93898756D01*
X86952081Y-93763860D01*
X89767586Y-93763860D01*
X90865960Y-94862235D01*
X91964334Y-93763860D01*
X91844446Y-93479004D01*
X91520750Y-93318141D01*
X91171891Y-93223518D01*
X90811276Y-93198773D01*
X90452762Y-93244855D01*
X90110127Y-93359994D01*
X89887474Y-93479004D01*
X89767586Y-93763860D01*
X86952081Y-93763860D01*
X86974226Y-93710398D01*
X87014000Y-93510439D01*
X87014000Y-93306561D01*
X86974226Y-93106602D01*
X86896205Y-92918244D01*
X86818849Y-92802472D01*
X86921569Y-92699752D01*
X87234840Y-92699752D01*
X87259290Y-92697344D01*
X87283849Y-92697344D01*
X87408330Y-92685084D01*
X87504463Y-92665962D01*
X87624159Y-92629653D01*
X87714715Y-92592144D01*
X87825032Y-92533178D01*
X87906531Y-92478722D01*
X88003222Y-92399370D01*
X88072530Y-92330062D01*
X88151882Y-92233371D01*
X88206338Y-92151872D01*
X88265304Y-92041555D01*
X88302813Y-91950999D01*
X88339122Y-91831303D01*
X88358244Y-91735170D01*
X88370504Y-91610689D01*
X88370504Y-91586130D01*
X88372912Y-91561680D01*
X88372912Y-91061680D01*
X88360652Y-90937198D01*
X88352911Y-90911680D01*
X88360652Y-90886162D01*
X88372912Y-90761680D01*
X88372912Y-90261680D01*
X88370504Y-90237230D01*
X88370504Y-90212671D01*
X88358244Y-90088190D01*
X88339122Y-89992057D01*
X88302813Y-89872361D01*
X88265304Y-89781805D01*
X88206338Y-89671488D01*
X88151882Y-89589989D01*
X88072530Y-89493298D01*
X88003222Y-89423990D01*
X87906531Y-89344638D01*
X87825032Y-89290182D01*
X87714715Y-89231216D01*
X87624159Y-89193707D01*
X87504463Y-89157398D01*
X87408330Y-89138276D01*
X87283849Y-89126016D01*
X87259290Y-89126016D01*
X87234840Y-89123608D01*
X86921927Y-89123608D01*
X86899761Y-89096599D01*
X86784036Y-89001626D01*
X86652007Y-88931054D01*
X86508746Y-88887597D01*
X86432165Y-88880054D01*
X86384774Y-88832663D01*
X86215256Y-88719395D01*
X86026898Y-88641374D01*
X85826939Y-88601600D01*
X85623061Y-88601600D01*
X85423102Y-88641374D01*
X85234744Y-88719395D01*
X85065226Y-88832663D01*
X84921063Y-88976826D01*
X84816802Y-89132864D01*
X84698129Y-89121176D01*
X84673570Y-89121176D01*
X84649120Y-89118768D01*
X84149120Y-89118768D01*
X84124670Y-89121176D01*
X84100111Y-89121176D01*
X83990971Y-89131925D01*
X83887337Y-88976826D01*
X83743174Y-88832663D01*
X83573656Y-88719395D01*
X83385298Y-88641374D01*
X83185339Y-88601600D01*
X82981461Y-88601600D01*
X82781502Y-88641374D01*
X82593144Y-88719395D01*
X82423626Y-88832663D01*
X82279463Y-88976826D01*
X82166195Y-89146344D01*
X82088174Y-89334702D01*
X82048400Y-89534661D01*
X82048400Y-89738539D01*
X82088174Y-89938498D01*
X82166195Y-90126856D01*
X82279463Y-90296374D01*
X82401617Y-90418528D01*
X81032920Y-90418528D01*
X80908438Y-90430788D01*
X80788740Y-90467098D01*
X80678426Y-90526063D01*
X80581735Y-90605415D01*
X80503992Y-90700145D01*
X80503992Y-90267000D01*
X80501584Y-90242550D01*
X80501584Y-90217991D01*
X80489324Y-90093510D01*
X80470202Y-89997377D01*
X80433893Y-89877681D01*
X80396384Y-89787125D01*
X80337418Y-89676808D01*
X80282962Y-89595309D01*
X80203610Y-89498618D01*
X80134302Y-89429310D01*
X80037611Y-89349958D01*
X79956112Y-89295502D01*
X79845795Y-89236536D01*
X79755239Y-89199027D01*
X79635543Y-89162718D01*
X79539410Y-89143596D01*
X79414929Y-89131336D01*
X79390370Y-89131336D01*
X79365920Y-89128928D01*
X78865920Y-89128928D01*
X78841470Y-89131336D01*
X78816911Y-89131336D01*
X78692430Y-89143596D01*
X78596297Y-89162718D01*
X78476601Y-89199027D01*
X78386045Y-89236536D01*
X78338226Y-89262096D01*
X78037361Y-88961232D01*
X78013559Y-88932229D01*
X77897834Y-88837256D01*
X77765805Y-88766684D01*
X77622544Y-88723227D01*
X77510891Y-88712230D01*
X77510880Y-88712230D01*
X77473558Y-88708554D01*
X77436236Y-88712230D01*
X74263023Y-88712230D01*
X74225690Y-88708553D01*
X74188357Y-88712230D01*
X74076704Y-88723227D01*
X73933443Y-88766684D01*
X73801414Y-88837256D01*
X73685689Y-88932229D01*
X73661890Y-88961228D01*
X73622070Y-89001048D01*
X73365050Y-89001048D01*
X73197892Y-89017512D01*
X73037158Y-89066270D01*
X72889025Y-89145449D01*
X72796300Y-89221546D01*
X72703575Y-89145449D01*
X72555442Y-89066270D01*
X72394708Y-89017512D01*
X72227550Y-89001048D01*
X71790050Y-89001048D01*
X71622892Y-89017512D01*
X71462158Y-89066270D01*
X71314025Y-89145449D01*
X71184185Y-89252005D01*
X71077629Y-89381845D01*
X70998450Y-89529978D01*
X70949692Y-89690712D01*
X70933228Y-89857870D01*
X68460000Y-89857870D01*
X68460000Y-89532279D01*
X68488625Y-89240341D01*
X68564035Y-88990571D01*
X68686522Y-88760208D01*
X68851422Y-88558020D01*
X69052450Y-88391714D01*
X69281954Y-88267622D01*
X69531195Y-88190469D01*
X69821088Y-88160000D01*
X93967721Y-88160000D01*
X94259659Y-88188625D01*
G36*
X78837800Y-98780600D02*
G01*
X78857800Y-98780600D01*
X78857800Y-99034600D01*
X78837800Y-99034600D01*
X78837800Y-99054600D01*
X78583800Y-99054600D01*
X78583800Y-99034600D01*
X78563800Y-99034600D01*
X78563800Y-98780600D01*
X78583800Y-98780600D01*
X78583800Y-98760600D01*
X78837800Y-98760600D01*
X78837800Y-98780600D01*
X78837800Y-98780600D01*
G37*
X78837800Y-98780600D02*
X78857800Y-98780600D01*
X78857800Y-99034600D01*
X78837800Y-99034600D01*
X78837800Y-99054600D01*
X78583800Y-99054600D01*
X78583800Y-99034600D01*
X78563800Y-99034600D01*
X78563800Y-98780600D01*
X78583800Y-98780600D01*
X78583800Y-98760600D01*
X78837800Y-98760600D01*
X78837800Y-98780600D01*
M02*
