G04 #@! TF.GenerationSoftware,KiCad,Pcbnew,(5.1.4)-1*
G04 #@! TF.CreationDate,2019-12-17T16:38:54-05:00*
G04 #@! TF.ProjectId,BJTPreamp,424a5450-7265-4616-9d70-2e6b69636164,rev?*
G04 #@! TF.SameCoordinates,Original*
G04 #@! TF.FileFunction,Paste,Top*
G04 #@! TF.FilePolarity,Positive*
%FSLAX46Y46*%
G04 Gerber Fmt 4.6, Leading zero omitted, Abs format (unit mm)*
G04 Created by KiCad (PCBNEW (5.1.4)-1) date 2019-12-17 16:38:54*
%MOMM*%
%LPD*%
G04 APERTURE LIST*
%ADD10C,0.100000*%
%ADD11C,1.350000*%
%ADD12C,0.875000*%
%ADD13R,0.900000X0.800000*%
%ADD14R,0.700000X0.600000*%
G04 APERTURE END LIST*
D10*
G36*
X79185305Y-98233804D02*
G01*
X79209573Y-98237404D01*
X79233372Y-98243365D01*
X79256471Y-98251630D01*
X79278650Y-98262120D01*
X79299693Y-98274732D01*
X79319399Y-98289347D01*
X79337577Y-98305823D01*
X79354053Y-98324001D01*
X79368668Y-98343707D01*
X79381280Y-98364750D01*
X79391770Y-98386929D01*
X79400035Y-98410028D01*
X79405996Y-98433827D01*
X79409596Y-98458095D01*
X79410800Y-98482599D01*
X79410800Y-99332601D01*
X79409596Y-99357105D01*
X79405996Y-99381373D01*
X79400035Y-99405172D01*
X79391770Y-99428271D01*
X79381280Y-99450450D01*
X79368668Y-99471493D01*
X79354053Y-99491199D01*
X79337577Y-99509377D01*
X79319399Y-99525853D01*
X79299693Y-99540468D01*
X79278650Y-99553080D01*
X79256471Y-99563570D01*
X79233372Y-99571835D01*
X79209573Y-99577796D01*
X79185305Y-99581396D01*
X79160801Y-99582600D01*
X78260799Y-99582600D01*
X78236295Y-99581396D01*
X78212027Y-99577796D01*
X78188228Y-99571835D01*
X78165129Y-99563570D01*
X78142950Y-99553080D01*
X78121907Y-99540468D01*
X78102201Y-99525853D01*
X78084023Y-99509377D01*
X78067547Y-99491199D01*
X78052932Y-99471493D01*
X78040320Y-99450450D01*
X78029830Y-99428271D01*
X78021565Y-99405172D01*
X78015604Y-99381373D01*
X78012004Y-99357105D01*
X78010800Y-99332601D01*
X78010800Y-98482599D01*
X78012004Y-98458095D01*
X78015604Y-98433827D01*
X78021565Y-98410028D01*
X78029830Y-98386929D01*
X78040320Y-98364750D01*
X78052932Y-98343707D01*
X78067547Y-98324001D01*
X78084023Y-98305823D01*
X78102201Y-98289347D01*
X78121907Y-98274732D01*
X78142950Y-98262120D01*
X78165129Y-98251630D01*
X78188228Y-98243365D01*
X78212027Y-98237404D01*
X78236295Y-98233804D01*
X78260799Y-98232600D01*
X79160801Y-98232600D01*
X79185305Y-98233804D01*
X79185305Y-98233804D01*
G37*
D11*
X78710800Y-98907600D03*
D10*
G36*
X81885305Y-98233804D02*
G01*
X81909573Y-98237404D01*
X81933372Y-98243365D01*
X81956471Y-98251630D01*
X81978650Y-98262120D01*
X81999693Y-98274732D01*
X82019399Y-98289347D01*
X82037577Y-98305823D01*
X82054053Y-98324001D01*
X82068668Y-98343707D01*
X82081280Y-98364750D01*
X82091770Y-98386929D01*
X82100035Y-98410028D01*
X82105996Y-98433827D01*
X82109596Y-98458095D01*
X82110800Y-98482599D01*
X82110800Y-99332601D01*
X82109596Y-99357105D01*
X82105996Y-99381373D01*
X82100035Y-99405172D01*
X82091770Y-99428271D01*
X82081280Y-99450450D01*
X82068668Y-99471493D01*
X82054053Y-99491199D01*
X82037577Y-99509377D01*
X82019399Y-99525853D01*
X81999693Y-99540468D01*
X81978650Y-99553080D01*
X81956471Y-99563570D01*
X81933372Y-99571835D01*
X81909573Y-99577796D01*
X81885305Y-99581396D01*
X81860801Y-99582600D01*
X80960799Y-99582600D01*
X80936295Y-99581396D01*
X80912027Y-99577796D01*
X80888228Y-99571835D01*
X80865129Y-99563570D01*
X80842950Y-99553080D01*
X80821907Y-99540468D01*
X80802201Y-99525853D01*
X80784023Y-99509377D01*
X80767547Y-99491199D01*
X80752932Y-99471493D01*
X80740320Y-99450450D01*
X80729830Y-99428271D01*
X80721565Y-99405172D01*
X80715604Y-99381373D01*
X80712004Y-99357105D01*
X80710800Y-99332601D01*
X80710800Y-98482599D01*
X80712004Y-98458095D01*
X80715604Y-98433827D01*
X80721565Y-98410028D01*
X80729830Y-98386929D01*
X80740320Y-98364750D01*
X80752932Y-98343707D01*
X80767547Y-98324001D01*
X80784023Y-98305823D01*
X80802201Y-98289347D01*
X80821907Y-98274732D01*
X80842950Y-98262120D01*
X80865129Y-98251630D01*
X80888228Y-98243365D01*
X80912027Y-98237404D01*
X80936295Y-98233804D01*
X80960799Y-98232600D01*
X81860801Y-98232600D01*
X81885305Y-98233804D01*
X81885305Y-98233804D01*
G37*
D11*
X81410800Y-98907600D03*
D10*
G36*
X78237005Y-95850404D02*
G01*
X78261273Y-95854004D01*
X78285072Y-95859965D01*
X78308171Y-95868230D01*
X78330350Y-95878720D01*
X78351393Y-95891332D01*
X78371099Y-95905947D01*
X78389277Y-95922423D01*
X78405753Y-95940601D01*
X78420368Y-95960307D01*
X78432980Y-95981350D01*
X78443470Y-96003529D01*
X78451735Y-96026628D01*
X78457696Y-96050427D01*
X78461296Y-96074695D01*
X78462500Y-96099199D01*
X78462500Y-96999201D01*
X78461296Y-97023705D01*
X78457696Y-97047973D01*
X78451735Y-97071772D01*
X78443470Y-97094871D01*
X78432980Y-97117050D01*
X78420368Y-97138093D01*
X78405753Y-97157799D01*
X78389277Y-97175977D01*
X78371099Y-97192453D01*
X78351393Y-97207068D01*
X78330350Y-97219680D01*
X78308171Y-97230170D01*
X78285072Y-97238435D01*
X78261273Y-97244396D01*
X78237005Y-97247996D01*
X78212501Y-97249200D01*
X77362499Y-97249200D01*
X77337995Y-97247996D01*
X77313727Y-97244396D01*
X77289928Y-97238435D01*
X77266829Y-97230170D01*
X77244650Y-97219680D01*
X77223607Y-97207068D01*
X77203901Y-97192453D01*
X77185723Y-97175977D01*
X77169247Y-97157799D01*
X77154632Y-97138093D01*
X77142020Y-97117050D01*
X77131530Y-97094871D01*
X77123265Y-97071772D01*
X77117304Y-97047973D01*
X77113704Y-97023705D01*
X77112500Y-96999201D01*
X77112500Y-96099199D01*
X77113704Y-96074695D01*
X77117304Y-96050427D01*
X77123265Y-96026628D01*
X77131530Y-96003529D01*
X77142020Y-95981350D01*
X77154632Y-95960307D01*
X77169247Y-95940601D01*
X77185723Y-95922423D01*
X77203901Y-95905947D01*
X77223607Y-95891332D01*
X77244650Y-95878720D01*
X77266829Y-95868230D01*
X77289928Y-95859965D01*
X77313727Y-95854004D01*
X77337995Y-95850404D01*
X77362499Y-95849200D01*
X78212501Y-95849200D01*
X78237005Y-95850404D01*
X78237005Y-95850404D01*
G37*
D11*
X77787500Y-96549200D03*
D10*
G36*
X78237005Y-93150404D02*
G01*
X78261273Y-93154004D01*
X78285072Y-93159965D01*
X78308171Y-93168230D01*
X78330350Y-93178720D01*
X78351393Y-93191332D01*
X78371099Y-93205947D01*
X78389277Y-93222423D01*
X78405753Y-93240601D01*
X78420368Y-93260307D01*
X78432980Y-93281350D01*
X78443470Y-93303529D01*
X78451735Y-93326628D01*
X78457696Y-93350427D01*
X78461296Y-93374695D01*
X78462500Y-93399199D01*
X78462500Y-94299201D01*
X78461296Y-94323705D01*
X78457696Y-94347973D01*
X78451735Y-94371772D01*
X78443470Y-94394871D01*
X78432980Y-94417050D01*
X78420368Y-94438093D01*
X78405753Y-94457799D01*
X78389277Y-94475977D01*
X78371099Y-94492453D01*
X78351393Y-94507068D01*
X78330350Y-94519680D01*
X78308171Y-94530170D01*
X78285072Y-94538435D01*
X78261273Y-94544396D01*
X78237005Y-94547996D01*
X78212501Y-94549200D01*
X77362499Y-94549200D01*
X77337995Y-94547996D01*
X77313727Y-94544396D01*
X77289928Y-94538435D01*
X77266829Y-94530170D01*
X77244650Y-94519680D01*
X77223607Y-94507068D01*
X77203901Y-94492453D01*
X77185723Y-94475977D01*
X77169247Y-94457799D01*
X77154632Y-94438093D01*
X77142020Y-94417050D01*
X77131530Y-94394871D01*
X77123265Y-94371772D01*
X77117304Y-94347973D01*
X77113704Y-94323705D01*
X77112500Y-94299201D01*
X77112500Y-93399199D01*
X77113704Y-93374695D01*
X77117304Y-93350427D01*
X77123265Y-93326628D01*
X77131530Y-93303529D01*
X77142020Y-93281350D01*
X77154632Y-93260307D01*
X77169247Y-93240601D01*
X77185723Y-93222423D01*
X77203901Y-93205947D01*
X77223607Y-93191332D01*
X77244650Y-93178720D01*
X77266829Y-93168230D01*
X77289928Y-93159965D01*
X77313727Y-93154004D01*
X77337995Y-93150404D01*
X77362499Y-93149200D01*
X78212501Y-93149200D01*
X78237005Y-93150404D01*
X78237005Y-93150404D01*
G37*
D11*
X77787500Y-93849200D03*
D10*
G36*
X83475391Y-99804753D02*
G01*
X83496626Y-99807903D01*
X83517450Y-99813119D01*
X83537662Y-99820351D01*
X83557068Y-99829530D01*
X83575481Y-99840566D01*
X83592724Y-99853354D01*
X83608630Y-99867770D01*
X83623046Y-99883676D01*
X83635834Y-99900919D01*
X83646870Y-99919332D01*
X83656049Y-99938738D01*
X83663281Y-99958950D01*
X83668497Y-99979774D01*
X83671647Y-100001009D01*
X83672700Y-100022450D01*
X83672700Y-100459950D01*
X83671647Y-100481391D01*
X83668497Y-100502626D01*
X83663281Y-100523450D01*
X83656049Y-100543662D01*
X83646870Y-100563068D01*
X83635834Y-100581481D01*
X83623046Y-100598724D01*
X83608630Y-100614630D01*
X83592724Y-100629046D01*
X83575481Y-100641834D01*
X83557068Y-100652870D01*
X83537662Y-100662049D01*
X83517450Y-100669281D01*
X83496626Y-100674497D01*
X83475391Y-100677647D01*
X83453950Y-100678700D01*
X82941450Y-100678700D01*
X82920009Y-100677647D01*
X82898774Y-100674497D01*
X82877950Y-100669281D01*
X82857738Y-100662049D01*
X82838332Y-100652870D01*
X82819919Y-100641834D01*
X82802676Y-100629046D01*
X82786770Y-100614630D01*
X82772354Y-100598724D01*
X82759566Y-100581481D01*
X82748530Y-100563068D01*
X82739351Y-100543662D01*
X82732119Y-100523450D01*
X82726903Y-100502626D01*
X82723753Y-100481391D01*
X82722700Y-100459950D01*
X82722700Y-100022450D01*
X82723753Y-100001009D01*
X82726903Y-99979774D01*
X82732119Y-99958950D01*
X82739351Y-99938738D01*
X82748530Y-99919332D01*
X82759566Y-99900919D01*
X82772354Y-99883676D01*
X82786770Y-99867770D01*
X82802676Y-99853354D01*
X82819919Y-99840566D01*
X82838332Y-99829530D01*
X82857738Y-99820351D01*
X82877950Y-99813119D01*
X82898774Y-99807903D01*
X82920009Y-99804753D01*
X82941450Y-99803700D01*
X83453950Y-99803700D01*
X83475391Y-99804753D01*
X83475391Y-99804753D01*
G37*
D12*
X83197700Y-100241200D03*
D10*
G36*
X83475391Y-98229753D02*
G01*
X83496626Y-98232903D01*
X83517450Y-98238119D01*
X83537662Y-98245351D01*
X83557068Y-98254530D01*
X83575481Y-98265566D01*
X83592724Y-98278354D01*
X83608630Y-98292770D01*
X83623046Y-98308676D01*
X83635834Y-98325919D01*
X83646870Y-98344332D01*
X83656049Y-98363738D01*
X83663281Y-98383950D01*
X83668497Y-98404774D01*
X83671647Y-98426009D01*
X83672700Y-98447450D01*
X83672700Y-98884950D01*
X83671647Y-98906391D01*
X83668497Y-98927626D01*
X83663281Y-98948450D01*
X83656049Y-98968662D01*
X83646870Y-98988068D01*
X83635834Y-99006481D01*
X83623046Y-99023724D01*
X83608630Y-99039630D01*
X83592724Y-99054046D01*
X83575481Y-99066834D01*
X83557068Y-99077870D01*
X83537662Y-99087049D01*
X83517450Y-99094281D01*
X83496626Y-99099497D01*
X83475391Y-99102647D01*
X83453950Y-99103700D01*
X82941450Y-99103700D01*
X82920009Y-99102647D01*
X82898774Y-99099497D01*
X82877950Y-99094281D01*
X82857738Y-99087049D01*
X82838332Y-99077870D01*
X82819919Y-99066834D01*
X82802676Y-99054046D01*
X82786770Y-99039630D01*
X82772354Y-99023724D01*
X82759566Y-99006481D01*
X82748530Y-98988068D01*
X82739351Y-98968662D01*
X82732119Y-98948450D01*
X82726903Y-98927626D01*
X82723753Y-98906391D01*
X82722700Y-98884950D01*
X82722700Y-98447450D01*
X82723753Y-98426009D01*
X82726903Y-98404774D01*
X82732119Y-98383950D01*
X82739351Y-98363738D01*
X82748530Y-98344332D01*
X82759566Y-98325919D01*
X82772354Y-98308676D01*
X82786770Y-98292770D01*
X82802676Y-98278354D01*
X82819919Y-98265566D01*
X82838332Y-98254530D01*
X82857738Y-98245351D01*
X82877950Y-98238119D01*
X82898774Y-98232903D01*
X82920009Y-98229753D01*
X82941450Y-98228700D01*
X83453950Y-98228700D01*
X83475391Y-98229753D01*
X83475391Y-98229753D01*
G37*
D12*
X83197700Y-98666200D03*
D10*
G36*
X85215291Y-97836253D02*
G01*
X85236526Y-97839403D01*
X85257350Y-97844619D01*
X85277562Y-97851851D01*
X85296968Y-97861030D01*
X85315381Y-97872066D01*
X85332624Y-97884854D01*
X85348530Y-97899270D01*
X85362946Y-97915176D01*
X85375734Y-97932419D01*
X85386770Y-97950832D01*
X85395949Y-97970238D01*
X85403181Y-97990450D01*
X85408397Y-98011274D01*
X85411547Y-98032509D01*
X85412600Y-98053950D01*
X85412600Y-98491450D01*
X85411547Y-98512891D01*
X85408397Y-98534126D01*
X85403181Y-98554950D01*
X85395949Y-98575162D01*
X85386770Y-98594568D01*
X85375734Y-98612981D01*
X85362946Y-98630224D01*
X85348530Y-98646130D01*
X85332624Y-98660546D01*
X85315381Y-98673334D01*
X85296968Y-98684370D01*
X85277562Y-98693549D01*
X85257350Y-98700781D01*
X85236526Y-98705997D01*
X85215291Y-98709147D01*
X85193850Y-98710200D01*
X84681350Y-98710200D01*
X84659909Y-98709147D01*
X84638674Y-98705997D01*
X84617850Y-98700781D01*
X84597638Y-98693549D01*
X84578232Y-98684370D01*
X84559819Y-98673334D01*
X84542576Y-98660546D01*
X84526670Y-98646130D01*
X84512254Y-98630224D01*
X84499466Y-98612981D01*
X84488430Y-98594568D01*
X84479251Y-98575162D01*
X84472019Y-98554950D01*
X84466803Y-98534126D01*
X84463653Y-98512891D01*
X84462600Y-98491450D01*
X84462600Y-98053950D01*
X84463653Y-98032509D01*
X84466803Y-98011274D01*
X84472019Y-97990450D01*
X84479251Y-97970238D01*
X84488430Y-97950832D01*
X84499466Y-97932419D01*
X84512254Y-97915176D01*
X84526670Y-97899270D01*
X84542576Y-97884854D01*
X84559819Y-97872066D01*
X84578232Y-97861030D01*
X84597638Y-97851851D01*
X84617850Y-97844619D01*
X84638674Y-97839403D01*
X84659909Y-97836253D01*
X84681350Y-97835200D01*
X85193850Y-97835200D01*
X85215291Y-97836253D01*
X85215291Y-97836253D01*
G37*
D12*
X84937600Y-98272700D03*
D10*
G36*
X85215291Y-96261253D02*
G01*
X85236526Y-96264403D01*
X85257350Y-96269619D01*
X85277562Y-96276851D01*
X85296968Y-96286030D01*
X85315381Y-96297066D01*
X85332624Y-96309854D01*
X85348530Y-96324270D01*
X85362946Y-96340176D01*
X85375734Y-96357419D01*
X85386770Y-96375832D01*
X85395949Y-96395238D01*
X85403181Y-96415450D01*
X85408397Y-96436274D01*
X85411547Y-96457509D01*
X85412600Y-96478950D01*
X85412600Y-96916450D01*
X85411547Y-96937891D01*
X85408397Y-96959126D01*
X85403181Y-96979950D01*
X85395949Y-97000162D01*
X85386770Y-97019568D01*
X85375734Y-97037981D01*
X85362946Y-97055224D01*
X85348530Y-97071130D01*
X85332624Y-97085546D01*
X85315381Y-97098334D01*
X85296968Y-97109370D01*
X85277562Y-97118549D01*
X85257350Y-97125781D01*
X85236526Y-97130997D01*
X85215291Y-97134147D01*
X85193850Y-97135200D01*
X84681350Y-97135200D01*
X84659909Y-97134147D01*
X84638674Y-97130997D01*
X84617850Y-97125781D01*
X84597638Y-97118549D01*
X84578232Y-97109370D01*
X84559819Y-97098334D01*
X84542576Y-97085546D01*
X84526670Y-97071130D01*
X84512254Y-97055224D01*
X84499466Y-97037981D01*
X84488430Y-97019568D01*
X84479251Y-97000162D01*
X84472019Y-96979950D01*
X84466803Y-96959126D01*
X84463653Y-96937891D01*
X84462600Y-96916450D01*
X84462600Y-96478950D01*
X84463653Y-96457509D01*
X84466803Y-96436274D01*
X84472019Y-96415450D01*
X84479251Y-96395238D01*
X84488430Y-96375832D01*
X84499466Y-96357419D01*
X84512254Y-96340176D01*
X84526670Y-96324270D01*
X84542576Y-96309854D01*
X84559819Y-96297066D01*
X84578232Y-96286030D01*
X84597638Y-96276851D01*
X84617850Y-96269619D01*
X84638674Y-96264403D01*
X84659909Y-96261253D01*
X84681350Y-96260200D01*
X85193850Y-96260200D01*
X85215291Y-96261253D01*
X85215291Y-96261253D01*
G37*
D12*
X84937600Y-96697700D03*
D10*
G36*
X73823991Y-89640173D02*
G01*
X73845226Y-89643323D01*
X73866050Y-89648539D01*
X73886262Y-89655771D01*
X73905668Y-89664950D01*
X73924081Y-89675986D01*
X73941324Y-89688774D01*
X73957230Y-89703190D01*
X73971646Y-89719096D01*
X73984434Y-89736339D01*
X73995470Y-89754752D01*
X74004649Y-89774158D01*
X74011881Y-89794370D01*
X74017097Y-89815194D01*
X74020247Y-89836429D01*
X74021300Y-89857870D01*
X74021300Y-90370370D01*
X74020247Y-90391811D01*
X74017097Y-90413046D01*
X74011881Y-90433870D01*
X74004649Y-90454082D01*
X73995470Y-90473488D01*
X73984434Y-90491901D01*
X73971646Y-90509144D01*
X73957230Y-90525050D01*
X73941324Y-90539466D01*
X73924081Y-90552254D01*
X73905668Y-90563290D01*
X73886262Y-90572469D01*
X73866050Y-90579701D01*
X73845226Y-90584917D01*
X73823991Y-90588067D01*
X73802550Y-90589120D01*
X73365050Y-90589120D01*
X73343609Y-90588067D01*
X73322374Y-90584917D01*
X73301550Y-90579701D01*
X73281338Y-90572469D01*
X73261932Y-90563290D01*
X73243519Y-90552254D01*
X73226276Y-90539466D01*
X73210370Y-90525050D01*
X73195954Y-90509144D01*
X73183166Y-90491901D01*
X73172130Y-90473488D01*
X73162951Y-90454082D01*
X73155719Y-90433870D01*
X73150503Y-90413046D01*
X73147353Y-90391811D01*
X73146300Y-90370370D01*
X73146300Y-89857870D01*
X73147353Y-89836429D01*
X73150503Y-89815194D01*
X73155719Y-89794370D01*
X73162951Y-89774158D01*
X73172130Y-89754752D01*
X73183166Y-89736339D01*
X73195954Y-89719096D01*
X73210370Y-89703190D01*
X73226276Y-89688774D01*
X73243519Y-89675986D01*
X73261932Y-89664950D01*
X73281338Y-89655771D01*
X73301550Y-89648539D01*
X73322374Y-89643323D01*
X73343609Y-89640173D01*
X73365050Y-89639120D01*
X73802550Y-89639120D01*
X73823991Y-89640173D01*
X73823991Y-89640173D01*
G37*
D12*
X73583800Y-90114120D03*
D10*
G36*
X72248991Y-89640173D02*
G01*
X72270226Y-89643323D01*
X72291050Y-89648539D01*
X72311262Y-89655771D01*
X72330668Y-89664950D01*
X72349081Y-89675986D01*
X72366324Y-89688774D01*
X72382230Y-89703190D01*
X72396646Y-89719096D01*
X72409434Y-89736339D01*
X72420470Y-89754752D01*
X72429649Y-89774158D01*
X72436881Y-89794370D01*
X72442097Y-89815194D01*
X72445247Y-89836429D01*
X72446300Y-89857870D01*
X72446300Y-90370370D01*
X72445247Y-90391811D01*
X72442097Y-90413046D01*
X72436881Y-90433870D01*
X72429649Y-90454082D01*
X72420470Y-90473488D01*
X72409434Y-90491901D01*
X72396646Y-90509144D01*
X72382230Y-90525050D01*
X72366324Y-90539466D01*
X72349081Y-90552254D01*
X72330668Y-90563290D01*
X72311262Y-90572469D01*
X72291050Y-90579701D01*
X72270226Y-90584917D01*
X72248991Y-90588067D01*
X72227550Y-90589120D01*
X71790050Y-90589120D01*
X71768609Y-90588067D01*
X71747374Y-90584917D01*
X71726550Y-90579701D01*
X71706338Y-90572469D01*
X71686932Y-90563290D01*
X71668519Y-90552254D01*
X71651276Y-90539466D01*
X71635370Y-90525050D01*
X71620954Y-90509144D01*
X71608166Y-90491901D01*
X71597130Y-90473488D01*
X71587951Y-90454082D01*
X71580719Y-90433870D01*
X71575503Y-90413046D01*
X71572353Y-90391811D01*
X71571300Y-90370370D01*
X71571300Y-89857870D01*
X71572353Y-89836429D01*
X71575503Y-89815194D01*
X71580719Y-89794370D01*
X71587951Y-89774158D01*
X71597130Y-89754752D01*
X71608166Y-89736339D01*
X71620954Y-89719096D01*
X71635370Y-89703190D01*
X71651276Y-89688774D01*
X71668519Y-89675986D01*
X71686932Y-89664950D01*
X71706338Y-89655771D01*
X71726550Y-89648539D01*
X71747374Y-89643323D01*
X71768609Y-89640173D01*
X71790050Y-89639120D01*
X72227550Y-89639120D01*
X72248991Y-89640173D01*
X72248991Y-89640173D01*
G37*
D12*
X72008800Y-90114120D03*
D10*
G36*
X84492091Y-92998053D02*
G01*
X84513326Y-93001203D01*
X84534150Y-93006419D01*
X84554362Y-93013651D01*
X84573768Y-93022830D01*
X84592181Y-93033866D01*
X84609424Y-93046654D01*
X84625330Y-93061070D01*
X84639746Y-93076976D01*
X84652534Y-93094219D01*
X84663570Y-93112632D01*
X84672749Y-93132038D01*
X84679981Y-93152250D01*
X84685197Y-93173074D01*
X84688347Y-93194309D01*
X84689400Y-93215750D01*
X84689400Y-93728250D01*
X84688347Y-93749691D01*
X84685197Y-93770926D01*
X84679981Y-93791750D01*
X84672749Y-93811962D01*
X84663570Y-93831368D01*
X84652534Y-93849781D01*
X84639746Y-93867024D01*
X84625330Y-93882930D01*
X84609424Y-93897346D01*
X84592181Y-93910134D01*
X84573768Y-93921170D01*
X84554362Y-93930349D01*
X84534150Y-93937581D01*
X84513326Y-93942797D01*
X84492091Y-93945947D01*
X84470650Y-93947000D01*
X84033150Y-93947000D01*
X84011709Y-93945947D01*
X83990474Y-93942797D01*
X83969650Y-93937581D01*
X83949438Y-93930349D01*
X83930032Y-93921170D01*
X83911619Y-93910134D01*
X83894376Y-93897346D01*
X83878470Y-93882930D01*
X83864054Y-93867024D01*
X83851266Y-93849781D01*
X83840230Y-93831368D01*
X83831051Y-93811962D01*
X83823819Y-93791750D01*
X83818603Y-93770926D01*
X83815453Y-93749691D01*
X83814400Y-93728250D01*
X83814400Y-93215750D01*
X83815453Y-93194309D01*
X83818603Y-93173074D01*
X83823819Y-93152250D01*
X83831051Y-93132038D01*
X83840230Y-93112632D01*
X83851266Y-93094219D01*
X83864054Y-93076976D01*
X83878470Y-93061070D01*
X83894376Y-93046654D01*
X83911619Y-93033866D01*
X83930032Y-93022830D01*
X83949438Y-93013651D01*
X83969650Y-93006419D01*
X83990474Y-93001203D01*
X84011709Y-92998053D01*
X84033150Y-92997000D01*
X84470650Y-92997000D01*
X84492091Y-92998053D01*
X84492091Y-92998053D01*
G37*
D12*
X84251900Y-93472000D03*
D10*
G36*
X82917091Y-92998053D02*
G01*
X82938326Y-93001203D01*
X82959150Y-93006419D01*
X82979362Y-93013651D01*
X82998768Y-93022830D01*
X83017181Y-93033866D01*
X83034424Y-93046654D01*
X83050330Y-93061070D01*
X83064746Y-93076976D01*
X83077534Y-93094219D01*
X83088570Y-93112632D01*
X83097749Y-93132038D01*
X83104981Y-93152250D01*
X83110197Y-93173074D01*
X83113347Y-93194309D01*
X83114400Y-93215750D01*
X83114400Y-93728250D01*
X83113347Y-93749691D01*
X83110197Y-93770926D01*
X83104981Y-93791750D01*
X83097749Y-93811962D01*
X83088570Y-93831368D01*
X83077534Y-93849781D01*
X83064746Y-93867024D01*
X83050330Y-93882930D01*
X83034424Y-93897346D01*
X83017181Y-93910134D01*
X82998768Y-93921170D01*
X82979362Y-93930349D01*
X82959150Y-93937581D01*
X82938326Y-93942797D01*
X82917091Y-93945947D01*
X82895650Y-93947000D01*
X82458150Y-93947000D01*
X82436709Y-93945947D01*
X82415474Y-93942797D01*
X82394650Y-93937581D01*
X82374438Y-93930349D01*
X82355032Y-93921170D01*
X82336619Y-93910134D01*
X82319376Y-93897346D01*
X82303470Y-93882930D01*
X82289054Y-93867024D01*
X82276266Y-93849781D01*
X82265230Y-93831368D01*
X82256051Y-93811962D01*
X82248819Y-93791750D01*
X82243603Y-93770926D01*
X82240453Y-93749691D01*
X82239400Y-93728250D01*
X82239400Y-93215750D01*
X82240453Y-93194309D01*
X82243603Y-93173074D01*
X82248819Y-93152250D01*
X82256051Y-93132038D01*
X82265230Y-93112632D01*
X82276266Y-93094219D01*
X82289054Y-93076976D01*
X82303470Y-93061070D01*
X82319376Y-93046654D01*
X82336619Y-93033866D01*
X82355032Y-93022830D01*
X82374438Y-93013651D01*
X82394650Y-93006419D01*
X82415474Y-93001203D01*
X82436709Y-92998053D01*
X82458150Y-92997000D01*
X82895650Y-92997000D01*
X82917091Y-92998053D01*
X82917091Y-92998053D01*
G37*
D12*
X82676900Y-93472000D03*
D10*
G36*
X79869091Y-92998053D02*
G01*
X79890326Y-93001203D01*
X79911150Y-93006419D01*
X79931362Y-93013651D01*
X79950768Y-93022830D01*
X79969181Y-93033866D01*
X79986424Y-93046654D01*
X80002330Y-93061070D01*
X80016746Y-93076976D01*
X80029534Y-93094219D01*
X80040570Y-93112632D01*
X80049749Y-93132038D01*
X80056981Y-93152250D01*
X80062197Y-93173074D01*
X80065347Y-93194309D01*
X80066400Y-93215750D01*
X80066400Y-93728250D01*
X80065347Y-93749691D01*
X80062197Y-93770926D01*
X80056981Y-93791750D01*
X80049749Y-93811962D01*
X80040570Y-93831368D01*
X80029534Y-93849781D01*
X80016746Y-93867024D01*
X80002330Y-93882930D01*
X79986424Y-93897346D01*
X79969181Y-93910134D01*
X79950768Y-93921170D01*
X79931362Y-93930349D01*
X79911150Y-93937581D01*
X79890326Y-93942797D01*
X79869091Y-93945947D01*
X79847650Y-93947000D01*
X79410150Y-93947000D01*
X79388709Y-93945947D01*
X79367474Y-93942797D01*
X79346650Y-93937581D01*
X79326438Y-93930349D01*
X79307032Y-93921170D01*
X79288619Y-93910134D01*
X79271376Y-93897346D01*
X79255470Y-93882930D01*
X79241054Y-93867024D01*
X79228266Y-93849781D01*
X79217230Y-93831368D01*
X79208051Y-93811962D01*
X79200819Y-93791750D01*
X79195603Y-93770926D01*
X79192453Y-93749691D01*
X79191400Y-93728250D01*
X79191400Y-93215750D01*
X79192453Y-93194309D01*
X79195603Y-93173074D01*
X79200819Y-93152250D01*
X79208051Y-93132038D01*
X79217230Y-93112632D01*
X79228266Y-93094219D01*
X79241054Y-93076976D01*
X79255470Y-93061070D01*
X79271376Y-93046654D01*
X79288619Y-93033866D01*
X79307032Y-93022830D01*
X79326438Y-93013651D01*
X79346650Y-93006419D01*
X79367474Y-93001203D01*
X79388709Y-92998053D01*
X79410150Y-92997000D01*
X79847650Y-92997000D01*
X79869091Y-92998053D01*
X79869091Y-92998053D01*
G37*
D12*
X79628900Y-93472000D03*
D10*
G36*
X81444091Y-92998053D02*
G01*
X81465326Y-93001203D01*
X81486150Y-93006419D01*
X81506362Y-93013651D01*
X81525768Y-93022830D01*
X81544181Y-93033866D01*
X81561424Y-93046654D01*
X81577330Y-93061070D01*
X81591746Y-93076976D01*
X81604534Y-93094219D01*
X81615570Y-93112632D01*
X81624749Y-93132038D01*
X81631981Y-93152250D01*
X81637197Y-93173074D01*
X81640347Y-93194309D01*
X81641400Y-93215750D01*
X81641400Y-93728250D01*
X81640347Y-93749691D01*
X81637197Y-93770926D01*
X81631981Y-93791750D01*
X81624749Y-93811962D01*
X81615570Y-93831368D01*
X81604534Y-93849781D01*
X81591746Y-93867024D01*
X81577330Y-93882930D01*
X81561424Y-93897346D01*
X81544181Y-93910134D01*
X81525768Y-93921170D01*
X81506362Y-93930349D01*
X81486150Y-93937581D01*
X81465326Y-93942797D01*
X81444091Y-93945947D01*
X81422650Y-93947000D01*
X80985150Y-93947000D01*
X80963709Y-93945947D01*
X80942474Y-93942797D01*
X80921650Y-93937581D01*
X80901438Y-93930349D01*
X80882032Y-93921170D01*
X80863619Y-93910134D01*
X80846376Y-93897346D01*
X80830470Y-93882930D01*
X80816054Y-93867024D01*
X80803266Y-93849781D01*
X80792230Y-93831368D01*
X80783051Y-93811962D01*
X80775819Y-93791750D01*
X80770603Y-93770926D01*
X80767453Y-93749691D01*
X80766400Y-93728250D01*
X80766400Y-93215750D01*
X80767453Y-93194309D01*
X80770603Y-93173074D01*
X80775819Y-93152250D01*
X80783051Y-93132038D01*
X80792230Y-93112632D01*
X80803266Y-93094219D01*
X80816054Y-93076976D01*
X80830470Y-93061070D01*
X80846376Y-93046654D01*
X80863619Y-93033866D01*
X80882032Y-93022830D01*
X80901438Y-93013651D01*
X80921650Y-93006419D01*
X80942474Y-93001203D01*
X80963709Y-92998053D01*
X80985150Y-92997000D01*
X81422650Y-92997000D01*
X81444091Y-92998053D01*
X81444091Y-92998053D01*
G37*
D12*
X81203900Y-93472000D03*
D10*
G36*
X72269411Y-91555333D02*
G01*
X72290646Y-91558483D01*
X72311470Y-91563699D01*
X72331682Y-91570931D01*
X72351088Y-91580110D01*
X72369501Y-91591146D01*
X72386744Y-91603934D01*
X72402650Y-91618350D01*
X72417066Y-91634256D01*
X72429854Y-91651499D01*
X72440890Y-91669912D01*
X72450069Y-91689318D01*
X72457301Y-91709530D01*
X72462517Y-91730354D01*
X72465667Y-91751589D01*
X72466720Y-91773030D01*
X72466720Y-92285530D01*
X72465667Y-92306971D01*
X72462517Y-92328206D01*
X72457301Y-92349030D01*
X72450069Y-92369242D01*
X72440890Y-92388648D01*
X72429854Y-92407061D01*
X72417066Y-92424304D01*
X72402650Y-92440210D01*
X72386744Y-92454626D01*
X72369501Y-92467414D01*
X72351088Y-92478450D01*
X72331682Y-92487629D01*
X72311470Y-92494861D01*
X72290646Y-92500077D01*
X72269411Y-92503227D01*
X72247970Y-92504280D01*
X71810470Y-92504280D01*
X71789029Y-92503227D01*
X71767794Y-92500077D01*
X71746970Y-92494861D01*
X71726758Y-92487629D01*
X71707352Y-92478450D01*
X71688939Y-92467414D01*
X71671696Y-92454626D01*
X71655790Y-92440210D01*
X71641374Y-92424304D01*
X71628586Y-92407061D01*
X71617550Y-92388648D01*
X71608371Y-92369242D01*
X71601139Y-92349030D01*
X71595923Y-92328206D01*
X71592773Y-92306971D01*
X71591720Y-92285530D01*
X71591720Y-91773030D01*
X71592773Y-91751589D01*
X71595923Y-91730354D01*
X71601139Y-91709530D01*
X71608371Y-91689318D01*
X71617550Y-91669912D01*
X71628586Y-91651499D01*
X71641374Y-91634256D01*
X71655790Y-91618350D01*
X71671696Y-91603934D01*
X71688939Y-91591146D01*
X71707352Y-91580110D01*
X71726758Y-91570931D01*
X71746970Y-91563699D01*
X71767794Y-91558483D01*
X71789029Y-91555333D01*
X71810470Y-91554280D01*
X72247970Y-91554280D01*
X72269411Y-91555333D01*
X72269411Y-91555333D01*
G37*
D12*
X72029220Y-92029280D03*
D10*
G36*
X73844411Y-91555333D02*
G01*
X73865646Y-91558483D01*
X73886470Y-91563699D01*
X73906682Y-91570931D01*
X73926088Y-91580110D01*
X73944501Y-91591146D01*
X73961744Y-91603934D01*
X73977650Y-91618350D01*
X73992066Y-91634256D01*
X74004854Y-91651499D01*
X74015890Y-91669912D01*
X74025069Y-91689318D01*
X74032301Y-91709530D01*
X74037517Y-91730354D01*
X74040667Y-91751589D01*
X74041720Y-91773030D01*
X74041720Y-92285530D01*
X74040667Y-92306971D01*
X74037517Y-92328206D01*
X74032301Y-92349030D01*
X74025069Y-92369242D01*
X74015890Y-92388648D01*
X74004854Y-92407061D01*
X73992066Y-92424304D01*
X73977650Y-92440210D01*
X73961744Y-92454626D01*
X73944501Y-92467414D01*
X73926088Y-92478450D01*
X73906682Y-92487629D01*
X73886470Y-92494861D01*
X73865646Y-92500077D01*
X73844411Y-92503227D01*
X73822970Y-92504280D01*
X73385470Y-92504280D01*
X73364029Y-92503227D01*
X73342794Y-92500077D01*
X73321970Y-92494861D01*
X73301758Y-92487629D01*
X73282352Y-92478450D01*
X73263939Y-92467414D01*
X73246696Y-92454626D01*
X73230790Y-92440210D01*
X73216374Y-92424304D01*
X73203586Y-92407061D01*
X73192550Y-92388648D01*
X73183371Y-92369242D01*
X73176139Y-92349030D01*
X73170923Y-92328206D01*
X73167773Y-92306971D01*
X73166720Y-92285530D01*
X73166720Y-91773030D01*
X73167773Y-91751589D01*
X73170923Y-91730354D01*
X73176139Y-91709530D01*
X73183371Y-91689318D01*
X73192550Y-91669912D01*
X73203586Y-91651499D01*
X73216374Y-91634256D01*
X73230790Y-91618350D01*
X73246696Y-91603934D01*
X73263939Y-91591146D01*
X73282352Y-91580110D01*
X73301758Y-91570931D01*
X73321970Y-91563699D01*
X73342794Y-91558483D01*
X73364029Y-91555333D01*
X73385470Y-91554280D01*
X73822970Y-91554280D01*
X73844411Y-91555333D01*
X73844411Y-91555333D01*
G37*
D12*
X73604220Y-92029280D03*
D13*
X80597500Y-96024700D03*
X82597500Y-95074700D03*
X82597500Y-96974700D03*
D14*
X86448900Y-97928200D03*
X86448900Y-99328200D03*
D10*
G36*
X80389791Y-100325953D02*
G01*
X80411026Y-100329103D01*
X80431850Y-100334319D01*
X80452062Y-100341551D01*
X80471468Y-100350730D01*
X80489881Y-100361766D01*
X80507124Y-100374554D01*
X80523030Y-100388970D01*
X80537446Y-100404876D01*
X80550234Y-100422119D01*
X80561270Y-100440532D01*
X80570449Y-100459938D01*
X80577681Y-100480150D01*
X80582897Y-100500974D01*
X80586047Y-100522209D01*
X80587100Y-100543650D01*
X80587100Y-101056150D01*
X80586047Y-101077591D01*
X80582897Y-101098826D01*
X80577681Y-101119650D01*
X80570449Y-101139862D01*
X80561270Y-101159268D01*
X80550234Y-101177681D01*
X80537446Y-101194924D01*
X80523030Y-101210830D01*
X80507124Y-101225246D01*
X80489881Y-101238034D01*
X80471468Y-101249070D01*
X80452062Y-101258249D01*
X80431850Y-101265481D01*
X80411026Y-101270697D01*
X80389791Y-101273847D01*
X80368350Y-101274900D01*
X79930850Y-101274900D01*
X79909409Y-101273847D01*
X79888174Y-101270697D01*
X79867350Y-101265481D01*
X79847138Y-101258249D01*
X79827732Y-101249070D01*
X79809319Y-101238034D01*
X79792076Y-101225246D01*
X79776170Y-101210830D01*
X79761754Y-101194924D01*
X79748966Y-101177681D01*
X79737930Y-101159268D01*
X79728751Y-101139862D01*
X79721519Y-101119650D01*
X79716303Y-101098826D01*
X79713153Y-101077591D01*
X79712100Y-101056150D01*
X79712100Y-100543650D01*
X79713153Y-100522209D01*
X79716303Y-100500974D01*
X79721519Y-100480150D01*
X79728751Y-100459938D01*
X79737930Y-100440532D01*
X79748966Y-100422119D01*
X79761754Y-100404876D01*
X79776170Y-100388970D01*
X79792076Y-100374554D01*
X79809319Y-100361766D01*
X79827732Y-100350730D01*
X79847138Y-100341551D01*
X79867350Y-100334319D01*
X79888174Y-100329103D01*
X79909409Y-100325953D01*
X79930850Y-100324900D01*
X80368350Y-100324900D01*
X80389791Y-100325953D01*
X80389791Y-100325953D01*
G37*
D12*
X80149600Y-100799900D03*
D10*
G36*
X81964791Y-100325953D02*
G01*
X81986026Y-100329103D01*
X82006850Y-100334319D01*
X82027062Y-100341551D01*
X82046468Y-100350730D01*
X82064881Y-100361766D01*
X82082124Y-100374554D01*
X82098030Y-100388970D01*
X82112446Y-100404876D01*
X82125234Y-100422119D01*
X82136270Y-100440532D01*
X82145449Y-100459938D01*
X82152681Y-100480150D01*
X82157897Y-100500974D01*
X82161047Y-100522209D01*
X82162100Y-100543650D01*
X82162100Y-101056150D01*
X82161047Y-101077591D01*
X82157897Y-101098826D01*
X82152681Y-101119650D01*
X82145449Y-101139862D01*
X82136270Y-101159268D01*
X82125234Y-101177681D01*
X82112446Y-101194924D01*
X82098030Y-101210830D01*
X82082124Y-101225246D01*
X82064881Y-101238034D01*
X82046468Y-101249070D01*
X82027062Y-101258249D01*
X82006850Y-101265481D01*
X81986026Y-101270697D01*
X81964791Y-101273847D01*
X81943350Y-101274900D01*
X81505850Y-101274900D01*
X81484409Y-101273847D01*
X81463174Y-101270697D01*
X81442350Y-101265481D01*
X81422138Y-101258249D01*
X81402732Y-101249070D01*
X81384319Y-101238034D01*
X81367076Y-101225246D01*
X81351170Y-101210830D01*
X81336754Y-101194924D01*
X81323966Y-101177681D01*
X81312930Y-101159268D01*
X81303751Y-101139862D01*
X81296519Y-101119650D01*
X81291303Y-101098826D01*
X81288153Y-101077591D01*
X81287100Y-101056150D01*
X81287100Y-100543650D01*
X81288153Y-100522209D01*
X81291303Y-100500974D01*
X81296519Y-100480150D01*
X81303751Y-100459938D01*
X81312930Y-100440532D01*
X81323966Y-100422119D01*
X81336754Y-100404876D01*
X81351170Y-100388970D01*
X81367076Y-100374554D01*
X81384319Y-100361766D01*
X81402732Y-100350730D01*
X81422138Y-100341551D01*
X81442350Y-100334319D01*
X81463174Y-100329103D01*
X81484409Y-100325953D01*
X81505850Y-100324900D01*
X81943350Y-100324900D01*
X81964791Y-100325953D01*
X81964791Y-100325953D01*
G37*
D12*
X81724600Y-100799900D03*
D10*
G36*
X85914491Y-94509353D02*
G01*
X85935726Y-94512503D01*
X85956550Y-94517719D01*
X85976762Y-94524951D01*
X85996168Y-94534130D01*
X86014581Y-94545166D01*
X86031824Y-94557954D01*
X86047730Y-94572370D01*
X86062146Y-94588276D01*
X86074934Y-94605519D01*
X86085970Y-94623932D01*
X86095149Y-94643338D01*
X86102381Y-94663550D01*
X86107597Y-94684374D01*
X86110747Y-94705609D01*
X86111800Y-94727050D01*
X86111800Y-95239550D01*
X86110747Y-95260991D01*
X86107597Y-95282226D01*
X86102381Y-95303050D01*
X86095149Y-95323262D01*
X86085970Y-95342668D01*
X86074934Y-95361081D01*
X86062146Y-95378324D01*
X86047730Y-95394230D01*
X86031824Y-95408646D01*
X86014581Y-95421434D01*
X85996168Y-95432470D01*
X85976762Y-95441649D01*
X85956550Y-95448881D01*
X85935726Y-95454097D01*
X85914491Y-95457247D01*
X85893050Y-95458300D01*
X85455550Y-95458300D01*
X85434109Y-95457247D01*
X85412874Y-95454097D01*
X85392050Y-95448881D01*
X85371838Y-95441649D01*
X85352432Y-95432470D01*
X85334019Y-95421434D01*
X85316776Y-95408646D01*
X85300870Y-95394230D01*
X85286454Y-95378324D01*
X85273666Y-95361081D01*
X85262630Y-95342668D01*
X85253451Y-95323262D01*
X85246219Y-95303050D01*
X85241003Y-95282226D01*
X85237853Y-95260991D01*
X85236800Y-95239550D01*
X85236800Y-94727050D01*
X85237853Y-94705609D01*
X85241003Y-94684374D01*
X85246219Y-94663550D01*
X85253451Y-94643338D01*
X85262630Y-94623932D01*
X85273666Y-94605519D01*
X85286454Y-94588276D01*
X85300870Y-94572370D01*
X85316776Y-94557954D01*
X85334019Y-94545166D01*
X85352432Y-94534130D01*
X85371838Y-94524951D01*
X85392050Y-94517719D01*
X85412874Y-94512503D01*
X85434109Y-94509353D01*
X85455550Y-94508300D01*
X85893050Y-94508300D01*
X85914491Y-94509353D01*
X85914491Y-94509353D01*
G37*
D12*
X85674300Y-94983300D03*
D10*
G36*
X84339491Y-94509353D02*
G01*
X84360726Y-94512503D01*
X84381550Y-94517719D01*
X84401762Y-94524951D01*
X84421168Y-94534130D01*
X84439581Y-94545166D01*
X84456824Y-94557954D01*
X84472730Y-94572370D01*
X84487146Y-94588276D01*
X84499934Y-94605519D01*
X84510970Y-94623932D01*
X84520149Y-94643338D01*
X84527381Y-94663550D01*
X84532597Y-94684374D01*
X84535747Y-94705609D01*
X84536800Y-94727050D01*
X84536800Y-95239550D01*
X84535747Y-95260991D01*
X84532597Y-95282226D01*
X84527381Y-95303050D01*
X84520149Y-95323262D01*
X84510970Y-95342668D01*
X84499934Y-95361081D01*
X84487146Y-95378324D01*
X84472730Y-95394230D01*
X84456824Y-95408646D01*
X84439581Y-95421434D01*
X84421168Y-95432470D01*
X84401762Y-95441649D01*
X84381550Y-95448881D01*
X84360726Y-95454097D01*
X84339491Y-95457247D01*
X84318050Y-95458300D01*
X83880550Y-95458300D01*
X83859109Y-95457247D01*
X83837874Y-95454097D01*
X83817050Y-95448881D01*
X83796838Y-95441649D01*
X83777432Y-95432470D01*
X83759019Y-95421434D01*
X83741776Y-95408646D01*
X83725870Y-95394230D01*
X83711454Y-95378324D01*
X83698666Y-95361081D01*
X83687630Y-95342668D01*
X83678451Y-95323262D01*
X83671219Y-95303050D01*
X83666003Y-95282226D01*
X83662853Y-95260991D01*
X83661800Y-95239550D01*
X83661800Y-94727050D01*
X83662853Y-94705609D01*
X83666003Y-94684374D01*
X83671219Y-94663550D01*
X83678451Y-94643338D01*
X83687630Y-94623932D01*
X83698666Y-94605519D01*
X83711454Y-94588276D01*
X83725870Y-94572370D01*
X83741776Y-94557954D01*
X83759019Y-94545166D01*
X83777432Y-94534130D01*
X83796838Y-94524951D01*
X83817050Y-94517719D01*
X83837874Y-94512503D01*
X83859109Y-94509353D01*
X83880550Y-94508300D01*
X84318050Y-94508300D01*
X84339491Y-94509353D01*
X84339491Y-94509353D01*
G37*
D12*
X84099300Y-94983300D03*
M02*
