G04 #@! TF.GenerationSoftware,KiCad,Pcbnew,(5.1.4)-1*
G04 #@! TF.CreationDate,2019-12-17T16:38:54-05:00*
G04 #@! TF.ProjectId,BJTPreamp,424a5450-7265-4616-9d70-2e6b69636164,rev?*
G04 #@! TF.SameCoordinates,Original*
G04 #@! TF.FileFunction,Legend,Top*
G04 #@! TF.FilePolarity,Positive*
%FSLAX46Y46*%
G04 Gerber Fmt 4.6, Leading zero omitted, Abs format (unit mm)*
G04 Created by KiCad (PCBNEW (5.1.4)-1) date 2019-12-17 16:38:54*
%MOMM*%
%LPD*%
G04 APERTURE LIST*
%ADD10C,0.150000*%
%ADD11C,0.120000*%
G04 APERTURE END LIST*
D10*
X89733619Y-100696780D02*
X89924095Y-100696780D01*
X90019333Y-100744400D01*
X90114571Y-100839638D01*
X90162190Y-101030114D01*
X90162190Y-101363447D01*
X90114571Y-101553923D01*
X90019333Y-101649161D01*
X89924095Y-101696780D01*
X89733619Y-101696780D01*
X89638380Y-101649161D01*
X89543142Y-101553923D01*
X89495523Y-101363447D01*
X89495523Y-101030114D01*
X89543142Y-100839638D01*
X89638380Y-100744400D01*
X89733619Y-100696780D01*
X91019333Y-101030114D02*
X91019333Y-101696780D01*
X90590761Y-101030114D02*
X90590761Y-101553923D01*
X90638380Y-101649161D01*
X90733619Y-101696780D01*
X90876476Y-101696780D01*
X90971714Y-101649161D01*
X91019333Y-101601542D01*
X91352666Y-101030114D02*
X91733619Y-101030114D01*
X91495523Y-100696780D02*
X91495523Y-101553923D01*
X91543142Y-101649161D01*
X91638380Y-101696780D01*
X91733619Y-101696780D01*
X92066952Y-101315828D02*
X92828857Y-101315828D01*
X92447904Y-101696780D02*
X92447904Y-100934876D01*
X89718379Y-91482660D02*
X89908855Y-91482660D01*
X90004093Y-91530280D01*
X90099331Y-91625518D01*
X90146950Y-91815994D01*
X90146950Y-92149327D01*
X90099331Y-92339803D01*
X90004093Y-92435041D01*
X89908855Y-92482660D01*
X89718379Y-92482660D01*
X89623140Y-92435041D01*
X89527902Y-92339803D01*
X89480283Y-92149327D01*
X89480283Y-91815994D01*
X89527902Y-91625518D01*
X89623140Y-91530280D01*
X89718379Y-91482660D01*
X91004093Y-91815994D02*
X91004093Y-92482660D01*
X90575521Y-91815994D02*
X90575521Y-92339803D01*
X90623140Y-92435041D01*
X90718379Y-92482660D01*
X90861236Y-92482660D01*
X90956474Y-92435041D01*
X91004093Y-92387422D01*
X91337426Y-91815994D02*
X91718379Y-91815994D01*
X91480283Y-91482660D02*
X91480283Y-92339803D01*
X91527902Y-92435041D01*
X91623140Y-92482660D01*
X91718379Y-92482660D01*
X92051712Y-92101708D02*
X92813617Y-92101708D01*
X72580619Y-101722680D02*
X72580619Y-100722680D01*
X72913952Y-101436966D01*
X73247285Y-100722680D01*
X73247285Y-101722680D01*
X73723476Y-101341728D02*
X74485380Y-101341728D01*
X74434819Y-93070940D02*
X74434819Y-92070940D01*
X74768152Y-92785226D01*
X75101485Y-92070940D01*
X75101485Y-93070940D01*
X75577676Y-92689988D02*
X76339580Y-92689988D01*
X75958628Y-93070940D02*
X75958628Y-92309036D01*
D11*
X83190080Y-92476320D02*
X83210400Y-92532200D01*
X82370800Y-97972600D02*
X78460800Y-97972600D01*
X82370800Y-99842600D02*
X82370800Y-97972600D01*
X78460800Y-99842600D02*
X82370800Y-99842600D01*
X76852500Y-92889200D02*
X76852500Y-96799200D01*
X78722500Y-92889200D02*
X76852500Y-92889200D01*
X78722500Y-96799200D02*
X78722500Y-92889200D01*
X87984840Y-90211680D02*
X87984840Y-91611680D01*
X87284840Y-92311680D02*
X86684840Y-92311680D01*
X85984840Y-91611680D02*
X85984840Y-90211680D01*
X86684840Y-89511680D02*
X87284840Y-89511680D01*
X87284840Y-89511680D02*
G75*
G02X87984840Y-90211680I0J-700000D01*
G01*
X85984840Y-90211680D02*
G75*
G02X86684840Y-89511680I700000J0D01*
G01*
X86684840Y-92311680D02*
G75*
G02X85984840Y-91611680I0J700000D01*
G01*
X87984840Y-91611680D02*
G75*
G02X87284840Y-92311680I-700000J0D01*
G01*
X75499720Y-91647240D02*
X75499720Y-90247240D01*
X76199720Y-89547240D02*
X76799720Y-89547240D01*
X77499720Y-90247240D02*
X77499720Y-91647240D01*
X76799720Y-92347240D02*
X76199720Y-92347240D01*
X76199720Y-92347240D02*
G75*
G02X75499720Y-91647240I0J700000D01*
G01*
X77499720Y-91647240D02*
G75*
G02X76799720Y-92347240I-700000J0D01*
G01*
X76799720Y-89547240D02*
G75*
G02X77499720Y-90247240I0J-700000D01*
G01*
X75499720Y-90247240D02*
G75*
G02X76199720Y-89547240I700000J0D01*
G01*
X82687700Y-99290921D02*
X82687700Y-99616479D01*
X83707700Y-99290921D02*
X83707700Y-99616479D01*
X84427600Y-97322421D02*
X84427600Y-97647979D01*
X85447600Y-97322421D02*
X85447600Y-97647979D01*
X72633521Y-90624120D02*
X72959079Y-90624120D01*
X72633521Y-89604120D02*
X72959079Y-89604120D01*
X83301621Y-93982000D02*
X83627179Y-93982000D01*
X83301621Y-92962000D02*
X83627179Y-92962000D01*
X80579179Y-92962000D02*
X80253621Y-92962000D01*
X80579179Y-93982000D02*
X80253621Y-93982000D01*
X72979499Y-91519280D02*
X72653941Y-91519280D01*
X72979499Y-92539280D02*
X72653941Y-92539280D01*
X80837500Y-94444700D02*
X82297500Y-94444700D01*
X80837500Y-97604700D02*
X82997500Y-97604700D01*
X80837500Y-97604700D02*
X80837500Y-96674700D01*
X80837500Y-94444700D02*
X80837500Y-95374700D01*
X80782920Y-91606600D02*
X80782920Y-90206600D01*
X81482920Y-89506600D02*
X82082920Y-89506600D01*
X82782920Y-90206600D02*
X82782920Y-91606600D01*
X82082920Y-92306600D02*
X81482920Y-92306600D01*
X81482920Y-92306600D02*
G75*
G02X80782920Y-91606600I0J700000D01*
G01*
X82782920Y-91606600D02*
G75*
G02X82082920Y-92306600I-700000J0D01*
G01*
X82082920Y-89506600D02*
G75*
G02X82782920Y-90206600I0J-700000D01*
G01*
X80782920Y-90206600D02*
G75*
G02X81482920Y-89506600I700000J0D01*
G01*
X83399120Y-91606840D02*
X83399120Y-90206840D01*
X84099120Y-89506840D02*
X84699120Y-89506840D01*
X85399120Y-90206840D02*
X85399120Y-91606840D01*
X84699120Y-92306840D02*
X84099120Y-92306840D01*
X84099120Y-92306840D02*
G75*
G02X83399120Y-91606840I0J700000D01*
G01*
X85399120Y-91606840D02*
G75*
G02X84699120Y-92306840I-700000J0D01*
G01*
X84699120Y-89506840D02*
G75*
G02X85399120Y-90206840I0J-700000D01*
G01*
X83399120Y-90206840D02*
G75*
G02X84099120Y-89506840I700000J0D01*
G01*
X78115920Y-91617000D02*
X78115920Y-90217000D01*
X78815920Y-89517000D02*
X79415920Y-89517000D01*
X80115920Y-90217000D02*
X80115920Y-91617000D01*
X79415920Y-92317000D02*
X78815920Y-92317000D01*
X78815920Y-92317000D02*
G75*
G02X78115920Y-91617000I0J700000D01*
G01*
X80115920Y-91617000D02*
G75*
G02X79415920Y-92317000I-700000J0D01*
G01*
X79415920Y-89517000D02*
G75*
G02X80115920Y-90217000I0J-700000D01*
G01*
X78115920Y-90217000D02*
G75*
G02X78815920Y-89517000I700000J0D01*
G01*
X92290681Y-97651576D02*
G75*
G02X92545960Y-98541840I-1424721J-890264D01*
G01*
X89975767Y-97116335D02*
G75*
G02X91756960Y-97116840I890193J-1425505D01*
G01*
X89440602Y-99431734D02*
G75*
G02X89425960Y-97675840I1425358J889894D01*
G01*
X91755854Y-99967198D02*
G75*
G02X89999960Y-99981840I-889894J1425358D01*
G01*
X92546059Y-98513166D02*
G75*
G02X92305960Y-99407840I-1680099J-28674D01*
G01*
X92545960Y-95041840D02*
G75*
G03X92545960Y-95041840I-1680000J0D01*
G01*
X94965960Y-100351840D02*
X94965960Y-93231840D01*
X93865960Y-100351840D02*
X93865960Y-93231840D01*
X87705960Y-100351840D02*
X87705960Y-93231840D01*
X95425960Y-100351840D02*
X95425960Y-93231840D01*
X87705960Y-100351840D02*
X95425960Y-100351840D01*
X87705960Y-93231840D02*
X95425960Y-93231840D01*
X89796960Y-93766840D02*
X89924960Y-93895840D01*
X92046960Y-96016840D02*
X92139960Y-96110840D01*
X89590960Y-93971840D02*
X89684960Y-94065840D01*
X91806960Y-96186840D02*
X91934960Y-96315840D01*
X95025960Y-100591840D02*
X95665960Y-100591840D01*
X95665960Y-100591840D02*
X95665960Y-100191840D01*
X68072600Y-93017120D02*
X68072600Y-93417120D01*
X68712600Y-93017120D02*
X68072600Y-93017120D01*
X71931600Y-97422120D02*
X71803600Y-97293120D01*
X74147600Y-99637120D02*
X74053600Y-99543120D01*
X71691600Y-97592120D02*
X71598600Y-97498120D01*
X73941600Y-99842120D02*
X73813600Y-99713120D01*
X76032600Y-100377120D02*
X68312600Y-100377120D01*
X76032600Y-93257120D02*
X68312600Y-93257120D01*
X68312600Y-93257120D02*
X68312600Y-100377120D01*
X76032600Y-93257120D02*
X76032600Y-100377120D01*
X69872600Y-93257120D02*
X69872600Y-100377120D01*
X68772600Y-93257120D02*
X68772600Y-100377120D01*
X74552600Y-98567120D02*
G75*
G03X74552600Y-98567120I-1680000J0D01*
G01*
X71192501Y-95095794D02*
G75*
G02X71432600Y-94201120I1680099J28674D01*
G01*
X71982706Y-93641762D02*
G75*
G02X73738600Y-93627120I889894J-1425358D01*
G01*
X74297958Y-94177226D02*
G75*
G02X74312600Y-95933120I-1425358J-889894D01*
G01*
X73762793Y-96492625D02*
G75*
G02X71981600Y-96492120I-890193J1425505D01*
G01*
X71447879Y-95957384D02*
G75*
G02X71192600Y-95067120I1424721J890264D01*
G01*
X85848900Y-99328200D02*
X85848900Y-97478200D01*
X87048900Y-99328200D02*
X87048900Y-97478200D01*
X87048900Y-97478200D02*
X85848900Y-97478200D01*
X81099879Y-100289900D02*
X80774321Y-100289900D01*
X81099879Y-101309900D02*
X80774321Y-101309900D01*
X84724021Y-95493300D02*
X85049579Y-95493300D01*
X84724021Y-94473300D02*
X85049579Y-94473300D01*
D10*
X77011233Y-100141042D02*
X76963614Y-100188661D01*
X76820757Y-100236280D01*
X76725519Y-100236280D01*
X76582661Y-100188661D01*
X76487423Y-100093423D01*
X76439804Y-99998185D01*
X76392185Y-99807709D01*
X76392185Y-99664852D01*
X76439804Y-99474376D01*
X76487423Y-99379138D01*
X76582661Y-99283900D01*
X76725519Y-99236280D01*
X76820757Y-99236280D01*
X76963614Y-99283900D01*
X77011233Y-99331519D01*
X77868376Y-99569614D02*
X77868376Y-100236280D01*
X77630280Y-99188661D02*
X77392185Y-99902947D01*
X78011233Y-99902947D01*
X77369942Y-98401166D02*
X77417561Y-98448785D01*
X77465180Y-98591642D01*
X77465180Y-98686880D01*
X77417561Y-98829738D01*
X77322323Y-98924976D01*
X77227085Y-98972595D01*
X77036609Y-99020214D01*
X76893752Y-99020214D01*
X76703276Y-98972595D01*
X76608038Y-98924976D01*
X76512800Y-98829738D01*
X76465180Y-98686880D01*
X76465180Y-98591642D01*
X76512800Y-98448785D01*
X76560419Y-98401166D01*
X77465180Y-97448785D02*
X77465180Y-98020214D01*
X77465180Y-97734500D02*
X76465180Y-97734500D01*
X76608038Y-97829738D01*
X76703276Y-97924976D01*
X76750895Y-98020214D01*
X86268963Y-88397051D02*
X86602297Y-88397051D01*
X86745154Y-88920860D02*
X86268963Y-88920860D01*
X86268963Y-87920860D01*
X86745154Y-87920860D01*
X87126106Y-88016099D02*
X87173725Y-87968480D01*
X87268963Y-87920860D01*
X87507059Y-87920860D01*
X87602297Y-87968480D01*
X87649916Y-88016099D01*
X87697535Y-88111337D01*
X87697535Y-88206575D01*
X87649916Y-88349432D01*
X87078487Y-88920860D01*
X87697535Y-88920860D01*
X75824483Y-88391971D02*
X76157817Y-88391971D01*
X76300674Y-88915780D02*
X75824483Y-88915780D01*
X75824483Y-87915780D01*
X76300674Y-87915780D01*
X77253055Y-88915780D02*
X76681626Y-88915780D01*
X76967340Y-88915780D02*
X76967340Y-87915780D01*
X76872102Y-88058638D01*
X76776864Y-88153876D01*
X76681626Y-88201495D01*
X85080080Y-99620366D02*
X84603890Y-99953700D01*
X85080080Y-100191795D02*
X84080080Y-100191795D01*
X84080080Y-99810842D01*
X84127700Y-99715604D01*
X84175319Y-99667985D01*
X84270557Y-99620366D01*
X84413414Y-99620366D01*
X84508652Y-99667985D01*
X84556271Y-99715604D01*
X84603890Y-99810842D01*
X84603890Y-100191795D01*
X84080080Y-98763223D02*
X84080080Y-98953700D01*
X84127700Y-99048938D01*
X84175319Y-99096557D01*
X84318176Y-99191795D01*
X84508652Y-99239414D01*
X84889604Y-99239414D01*
X84984842Y-99191795D01*
X85032461Y-99144176D01*
X85080080Y-99048938D01*
X85080080Y-98858461D01*
X85032461Y-98763223D01*
X84984842Y-98715604D01*
X84889604Y-98667985D01*
X84651509Y-98667985D01*
X84556271Y-98715604D01*
X84508652Y-98763223D01*
X84461033Y-98858461D01*
X84461033Y-99048938D01*
X84508652Y-99144176D01*
X84556271Y-99191795D01*
X84651509Y-99239414D01*
X83653333Y-96680280D02*
X83320000Y-96204090D01*
X83081904Y-96680280D02*
X83081904Y-95680280D01*
X83462857Y-95680280D01*
X83558095Y-95727900D01*
X83605714Y-95775519D01*
X83653333Y-95870757D01*
X83653333Y-96013614D01*
X83605714Y-96108852D01*
X83558095Y-96156471D01*
X83462857Y-96204090D01*
X83081904Y-96204090D01*
X84558095Y-95680280D02*
X84081904Y-95680280D01*
X84034285Y-96156471D01*
X84081904Y-96108852D01*
X84177142Y-96061233D01*
X84415238Y-96061233D01*
X84510476Y-96108852D01*
X84558095Y-96156471D01*
X84605714Y-96251709D01*
X84605714Y-96489804D01*
X84558095Y-96585042D01*
X84510476Y-96632661D01*
X84415238Y-96680280D01*
X84177142Y-96680280D01*
X84081904Y-96632661D01*
X84034285Y-96585042D01*
X70110053Y-90566500D02*
X69776720Y-90090310D01*
X69538624Y-90566500D02*
X69538624Y-89566500D01*
X69919577Y-89566500D01*
X70014815Y-89614120D01*
X70062434Y-89661739D01*
X70110053Y-89756977D01*
X70110053Y-89899834D01*
X70062434Y-89995072D01*
X70014815Y-90042691D01*
X69919577Y-90090310D01*
X69538624Y-90090310D01*
X70967196Y-89899834D02*
X70967196Y-90566500D01*
X70729100Y-89518881D02*
X70491005Y-90233167D01*
X71110053Y-90233167D01*
X85751373Y-93970100D02*
X85418040Y-93493910D01*
X85179944Y-93970100D02*
X85179944Y-92970100D01*
X85560897Y-92970100D01*
X85656135Y-93017720D01*
X85703754Y-93065339D01*
X85751373Y-93160577D01*
X85751373Y-93303434D01*
X85703754Y-93398672D01*
X85656135Y-93446291D01*
X85560897Y-93493910D01*
X85179944Y-93493910D01*
X86084706Y-92970100D02*
X86703754Y-92970100D01*
X86370420Y-93351053D01*
X86513278Y-93351053D01*
X86608516Y-93398672D01*
X86656135Y-93446291D01*
X86703754Y-93541529D01*
X86703754Y-93779624D01*
X86656135Y-93874862D01*
X86608516Y-93922481D01*
X86513278Y-93970100D01*
X86227563Y-93970100D01*
X86132325Y-93922481D01*
X86084706Y-93874862D01*
X79609653Y-95214700D02*
X79276320Y-94738510D01*
X79038224Y-95214700D02*
X79038224Y-94214700D01*
X79419177Y-94214700D01*
X79514415Y-94262320D01*
X79562034Y-94309939D01*
X79609653Y-94405177D01*
X79609653Y-94548034D01*
X79562034Y-94643272D01*
X79514415Y-94690891D01*
X79419177Y-94738510D01*
X79038224Y-94738510D01*
X79990605Y-94309939D02*
X80038224Y-94262320D01*
X80133462Y-94214700D01*
X80371558Y-94214700D01*
X80466796Y-94262320D01*
X80514415Y-94309939D01*
X80562034Y-94405177D01*
X80562034Y-94500415D01*
X80514415Y-94643272D01*
X79942986Y-95214700D01*
X80562034Y-95214700D01*
X70150693Y-92501980D02*
X69817360Y-92025790D01*
X69579264Y-92501980D02*
X69579264Y-91501980D01*
X69960217Y-91501980D01*
X70055455Y-91549600D01*
X70103074Y-91597219D01*
X70150693Y-91692457D01*
X70150693Y-91835314D01*
X70103074Y-91930552D01*
X70055455Y-91978171D01*
X69960217Y-92025790D01*
X69579264Y-92025790D01*
X71103074Y-92501980D02*
X70531645Y-92501980D01*
X70817360Y-92501980D02*
X70817360Y-91501980D01*
X70722121Y-91644838D01*
X70626883Y-91740076D01*
X70531645Y-91787695D01*
X81153403Y-88397051D02*
X81486737Y-88397051D01*
X81629594Y-88920860D02*
X81153403Y-88920860D01*
X81153403Y-87920860D01*
X81629594Y-87920860D01*
X82534356Y-87920860D02*
X82058165Y-87920860D01*
X82010546Y-88397051D01*
X82058165Y-88349432D01*
X82153403Y-88301813D01*
X82391499Y-88301813D01*
X82486737Y-88349432D01*
X82534356Y-88397051D01*
X82581975Y-88492289D01*
X82581975Y-88730384D01*
X82534356Y-88825622D01*
X82486737Y-88873241D01*
X82391499Y-88920860D01*
X82153403Y-88920860D01*
X82058165Y-88873241D01*
X82010546Y-88825622D01*
X83635624Y-88864980D02*
X83635624Y-87864980D01*
X83873720Y-87864980D01*
X84016577Y-87912600D01*
X84111815Y-88007838D01*
X84159434Y-88103076D01*
X84207053Y-88293552D01*
X84207053Y-88436409D01*
X84159434Y-88626885D01*
X84111815Y-88722123D01*
X84016577Y-88817361D01*
X83873720Y-88864980D01*
X83635624Y-88864980D01*
X85064196Y-88198314D02*
X85064196Y-88864980D01*
X84826100Y-87817361D02*
X84588005Y-88531647D01*
X85207053Y-88531647D01*
X78398144Y-88875140D02*
X78398144Y-87875140D01*
X78636240Y-87875140D01*
X78779097Y-87922760D01*
X78874335Y-88017998D01*
X78921954Y-88113236D01*
X78969573Y-88303712D01*
X78969573Y-88446569D01*
X78921954Y-88637045D01*
X78874335Y-88732283D01*
X78779097Y-88827521D01*
X78636240Y-88875140D01*
X78398144Y-88875140D01*
X79302906Y-87875140D02*
X79921954Y-87875140D01*
X79588620Y-88256093D01*
X79731478Y-88256093D01*
X79826716Y-88303712D01*
X79874335Y-88351331D01*
X79921954Y-88446569D01*
X79921954Y-88684664D01*
X79874335Y-88779902D01*
X79826716Y-88827521D01*
X79731478Y-88875140D01*
X79445763Y-88875140D01*
X79350525Y-88827521D01*
X79302906Y-88779902D01*
X86977480Y-101512595D02*
X85977480Y-101512595D01*
X85977480Y-101274500D01*
X86025100Y-101131642D01*
X86120338Y-101036404D01*
X86215576Y-100988785D01*
X86406052Y-100941166D01*
X86548909Y-100941166D01*
X86739385Y-100988785D01*
X86834623Y-101036404D01*
X86929861Y-101131642D01*
X86977480Y-101274500D01*
X86977480Y-101512595D01*
X86977480Y-99988785D02*
X86977480Y-100560214D01*
X86977480Y-100274500D02*
X85977480Y-100274500D01*
X86120338Y-100369738D01*
X86215576Y-100464976D01*
X86263195Y-100560214D01*
X78306633Y-101969842D02*
X78259014Y-102017461D01*
X78116157Y-102065080D01*
X78020919Y-102065080D01*
X77878061Y-102017461D01*
X77782823Y-101922223D01*
X77735204Y-101826985D01*
X77687585Y-101636509D01*
X77687585Y-101493652D01*
X77735204Y-101303176D01*
X77782823Y-101207938D01*
X77878061Y-101112700D01*
X78020919Y-101065080D01*
X78116157Y-101065080D01*
X78259014Y-101112700D01*
X78306633Y-101160319D01*
X78639966Y-101065080D02*
X79259014Y-101065080D01*
X78925680Y-101446033D01*
X79068538Y-101446033D01*
X79163776Y-101493652D01*
X79211395Y-101541271D01*
X79259014Y-101636509D01*
X79259014Y-101874604D01*
X79211395Y-101969842D01*
X79163776Y-102017461D01*
X79068538Y-102065080D01*
X78782823Y-102065080D01*
X78687585Y-102017461D01*
X78639966Y-101969842D01*
X87397862Y-95114406D02*
X87445481Y-95162025D01*
X87493100Y-95304882D01*
X87493100Y-95400120D01*
X87445481Y-95542978D01*
X87350243Y-95638216D01*
X87255005Y-95685835D01*
X87064529Y-95733454D01*
X86921672Y-95733454D01*
X86731196Y-95685835D01*
X86635958Y-95638216D01*
X86540720Y-95542978D01*
X86493100Y-95400120D01*
X86493100Y-95304882D01*
X86540720Y-95162025D01*
X86588339Y-95114406D01*
X86588339Y-94733454D02*
X86540720Y-94685835D01*
X86493100Y-94590597D01*
X86493100Y-94352501D01*
X86540720Y-94257263D01*
X86588339Y-94209644D01*
X86683577Y-94162025D01*
X86778815Y-94162025D01*
X86921672Y-94209644D01*
X87493100Y-94781073D01*
X87493100Y-94162025D01*
M02*
