G04 #@! TF.GenerationSoftware,KiCad,Pcbnew,(5.1.4)-1*
G04 #@! TF.CreationDate,2019-10-22T11:22:40-04:00*
G04 #@! TF.ProjectId,LitLine35mm,4c69744c-696e-4653-9335-6d6d2e6b6963,rev?*
G04 #@! TF.SameCoordinates,Original*
G04 #@! TF.FileFunction,Soldermask,Bot*
G04 #@! TF.FilePolarity,Negative*
%FSLAX46Y46*%
G04 Gerber Fmt 4.6, Leading zero omitted, Abs format (unit mm)*
G04 Created by KiCad (PCBNEW (5.1.4)-1) date 2019-10-22 11:22:40*
%MOMM*%
%LPD*%
G04 APERTURE LIST*
%ADD10C,0.100000*%
G04 APERTURE END LIST*
D10*
G36*
X56273000Y-62242000D02*
G01*
X54471000Y-62242000D01*
X54471000Y-60440000D01*
X56273000Y-60440000D01*
X56273000Y-62242000D01*
X56273000Y-62242000D01*
G37*
G36*
X55482443Y-57906519D02*
G01*
X55548627Y-57913037D01*
X55718466Y-57964557D01*
X55874991Y-58048222D01*
X55910729Y-58077552D01*
X56012186Y-58160814D01*
X56095448Y-58262271D01*
X56124778Y-58298009D01*
X56208443Y-58454534D01*
X56259963Y-58624373D01*
X56277359Y-58801000D01*
X56259963Y-58977627D01*
X56208443Y-59147466D01*
X56124778Y-59303991D01*
X56095448Y-59339729D01*
X56012186Y-59441186D01*
X55910729Y-59524448D01*
X55874991Y-59553778D01*
X55718466Y-59637443D01*
X55548627Y-59688963D01*
X55482443Y-59695481D01*
X55416260Y-59702000D01*
X55327740Y-59702000D01*
X55261557Y-59695481D01*
X55195373Y-59688963D01*
X55025534Y-59637443D01*
X54869009Y-59553778D01*
X54833271Y-59524448D01*
X54731814Y-59441186D01*
X54648552Y-59339729D01*
X54619222Y-59303991D01*
X54535557Y-59147466D01*
X54484037Y-58977627D01*
X54466641Y-58801000D01*
X54484037Y-58624373D01*
X54535557Y-58454534D01*
X54619222Y-58298009D01*
X54648552Y-58262271D01*
X54731814Y-58160814D01*
X54833271Y-58077552D01*
X54869009Y-58048222D01*
X55025534Y-57964557D01*
X55195373Y-57913037D01*
X55261557Y-57906519D01*
X55327740Y-57900000D01*
X55416260Y-57900000D01*
X55482443Y-57906519D01*
X55482443Y-57906519D01*
G37*
G36*
X55482442Y-55366518D02*
G01*
X55548627Y-55373037D01*
X55718466Y-55424557D01*
X55874991Y-55508222D01*
X55910729Y-55537552D01*
X56012186Y-55620814D01*
X56095448Y-55722271D01*
X56124778Y-55758009D01*
X56208443Y-55914534D01*
X56259963Y-56084373D01*
X56277359Y-56261000D01*
X56259963Y-56437627D01*
X56208443Y-56607466D01*
X56124778Y-56763991D01*
X56095448Y-56799729D01*
X56012186Y-56901186D01*
X55910729Y-56984448D01*
X55874991Y-57013778D01*
X55718466Y-57097443D01*
X55548627Y-57148963D01*
X55482443Y-57155481D01*
X55416260Y-57162000D01*
X55327740Y-57162000D01*
X55261557Y-57155481D01*
X55195373Y-57148963D01*
X55025534Y-57097443D01*
X54869009Y-57013778D01*
X54833271Y-56984448D01*
X54731814Y-56901186D01*
X54648552Y-56799729D01*
X54619222Y-56763991D01*
X54535557Y-56607466D01*
X54484037Y-56437627D01*
X54466641Y-56261000D01*
X54484037Y-56084373D01*
X54535557Y-55914534D01*
X54619222Y-55758009D01*
X54648552Y-55722271D01*
X54731814Y-55620814D01*
X54833271Y-55537552D01*
X54869009Y-55508222D01*
X55025534Y-55424557D01*
X55195373Y-55373037D01*
X55261558Y-55366518D01*
X55327740Y-55360000D01*
X55416260Y-55360000D01*
X55482442Y-55366518D01*
X55482442Y-55366518D01*
G37*
G36*
X235511859Y-51556590D02*
G01*
X235584390Y-51571017D01*
X235702864Y-51620091D01*
X235809488Y-51691335D01*
X235900165Y-51782012D01*
X235971409Y-51888636D01*
X236020483Y-52007110D01*
X236045500Y-52132882D01*
X236045500Y-52261118D01*
X236020483Y-52386890D01*
X235971409Y-52505364D01*
X235900165Y-52611988D01*
X235809488Y-52702665D01*
X235702864Y-52773909D01*
X235702863Y-52773910D01*
X235702862Y-52773910D01*
X235584390Y-52822983D01*
X235458619Y-52848000D01*
X235330381Y-52848000D01*
X235204610Y-52822983D01*
X235086138Y-52773910D01*
X235086137Y-52773910D01*
X235086136Y-52773909D01*
X234979512Y-52702665D01*
X234888835Y-52611988D01*
X234817591Y-52505364D01*
X234768517Y-52386890D01*
X234743500Y-52261118D01*
X234743500Y-52132882D01*
X234768517Y-52007110D01*
X234817591Y-51888636D01*
X234888835Y-51782012D01*
X234979512Y-51691335D01*
X235086136Y-51620091D01*
X235204610Y-51571017D01*
X235277141Y-51556590D01*
X235330381Y-51546000D01*
X235458619Y-51546000D01*
X235511859Y-51556590D01*
X235511859Y-51556590D01*
G37*
G36*
X237162859Y-51556590D02*
G01*
X237235390Y-51571017D01*
X237353864Y-51620091D01*
X237460488Y-51691335D01*
X237551165Y-51782012D01*
X237622409Y-51888636D01*
X237671483Y-52007110D01*
X237696500Y-52132882D01*
X237696500Y-52261118D01*
X237671483Y-52386890D01*
X237622409Y-52505364D01*
X237551165Y-52611988D01*
X237460488Y-52702665D01*
X237353864Y-52773909D01*
X237353863Y-52773910D01*
X237353862Y-52773910D01*
X237235390Y-52822983D01*
X237109619Y-52848000D01*
X236981381Y-52848000D01*
X236855610Y-52822983D01*
X236737138Y-52773910D01*
X236737137Y-52773910D01*
X236737136Y-52773909D01*
X236630512Y-52702665D01*
X236539835Y-52611988D01*
X236468591Y-52505364D01*
X236419517Y-52386890D01*
X236394500Y-52261118D01*
X236394500Y-52132882D01*
X236419517Y-52007110D01*
X236468591Y-51888636D01*
X236539835Y-51782012D01*
X236630512Y-51691335D01*
X236737136Y-51620091D01*
X236855610Y-51571017D01*
X236928141Y-51556590D01*
X236981381Y-51546000D01*
X237109619Y-51546000D01*
X237162859Y-51556590D01*
X237162859Y-51556590D01*
G37*
G36*
X239013390Y-51507517D02*
G01*
X239106296Y-51546000D01*
X239131864Y-51556591D01*
X239238488Y-51627835D01*
X239329165Y-51718512D01*
X239400409Y-51825136D01*
X239449483Y-51943610D01*
X239474500Y-52069382D01*
X239474500Y-52197618D01*
X239449483Y-52323390D01*
X239400409Y-52441864D01*
X239329165Y-52548488D01*
X239238488Y-52639165D01*
X239131864Y-52710409D01*
X239131863Y-52710410D01*
X239131862Y-52710410D01*
X239013390Y-52759483D01*
X238887619Y-52784500D01*
X238759381Y-52784500D01*
X238633610Y-52759483D01*
X238515138Y-52710410D01*
X238515137Y-52710410D01*
X238515136Y-52710409D01*
X238408512Y-52639165D01*
X238317835Y-52548488D01*
X238246591Y-52441864D01*
X238197517Y-52323390D01*
X238172500Y-52197618D01*
X238172500Y-52069382D01*
X238197517Y-51943610D01*
X238246591Y-51825136D01*
X238317835Y-51718512D01*
X238408512Y-51627835D01*
X238515136Y-51556591D01*
X238540705Y-51546000D01*
X238633610Y-51507517D01*
X238759381Y-51482500D01*
X238887619Y-51482500D01*
X239013390Y-51507517D01*
X239013390Y-51507517D01*
G37*
G36*
X56273000Y-48907000D02*
G01*
X54471000Y-48907000D01*
X54471000Y-47105000D01*
X56273000Y-47105000D01*
X56273000Y-48907000D01*
X56273000Y-48907000D01*
G37*
G36*
X55482442Y-44571518D02*
G01*
X55548627Y-44578037D01*
X55718466Y-44629557D01*
X55874991Y-44713222D01*
X55910729Y-44742552D01*
X56012186Y-44825814D01*
X56095448Y-44927271D01*
X56124778Y-44963009D01*
X56208443Y-45119534D01*
X56259963Y-45289373D01*
X56277359Y-45466000D01*
X56259963Y-45642627D01*
X56208443Y-45812466D01*
X56124778Y-45968991D01*
X56095448Y-46004729D01*
X56012186Y-46106186D01*
X55910729Y-46189448D01*
X55874991Y-46218778D01*
X55718466Y-46302443D01*
X55548627Y-46353963D01*
X55482443Y-46360481D01*
X55416260Y-46367000D01*
X55327740Y-46367000D01*
X55261557Y-46360481D01*
X55195373Y-46353963D01*
X55025534Y-46302443D01*
X54869009Y-46218778D01*
X54833271Y-46189448D01*
X54731814Y-46106186D01*
X54648552Y-46004729D01*
X54619222Y-45968991D01*
X54535557Y-45812466D01*
X54484037Y-45642627D01*
X54466641Y-45466000D01*
X54484037Y-45289373D01*
X54535557Y-45119534D01*
X54619222Y-44963009D01*
X54648552Y-44927271D01*
X54731814Y-44825814D01*
X54833271Y-44742552D01*
X54869009Y-44713222D01*
X55025534Y-44629557D01*
X55195373Y-44578037D01*
X55261558Y-44571518D01*
X55327740Y-44565000D01*
X55416260Y-44565000D01*
X55482442Y-44571518D01*
X55482442Y-44571518D01*
G37*
G36*
X55482442Y-42031518D02*
G01*
X55548627Y-42038037D01*
X55718466Y-42089557D01*
X55874991Y-42173222D01*
X55910729Y-42202552D01*
X56012186Y-42285814D01*
X56095448Y-42387271D01*
X56124778Y-42423009D01*
X56208443Y-42579534D01*
X56259963Y-42749373D01*
X56277359Y-42926000D01*
X56259963Y-43102627D01*
X56208443Y-43272466D01*
X56124778Y-43428991D01*
X56095448Y-43464729D01*
X56012186Y-43566186D01*
X55910729Y-43649448D01*
X55874991Y-43678778D01*
X55718466Y-43762443D01*
X55548627Y-43813963D01*
X55482442Y-43820482D01*
X55416260Y-43827000D01*
X55327740Y-43827000D01*
X55261558Y-43820482D01*
X55195373Y-43813963D01*
X55025534Y-43762443D01*
X54869009Y-43678778D01*
X54833271Y-43649448D01*
X54731814Y-43566186D01*
X54648552Y-43464729D01*
X54619222Y-43428991D01*
X54535557Y-43272466D01*
X54484037Y-43102627D01*
X54466641Y-42926000D01*
X54484037Y-42749373D01*
X54535557Y-42579534D01*
X54619222Y-42423009D01*
X54648552Y-42387271D01*
X54731814Y-42285814D01*
X54833271Y-42202552D01*
X54869009Y-42173222D01*
X55025534Y-42089557D01*
X55195373Y-42038037D01*
X55261558Y-42031518D01*
X55327740Y-42025000D01*
X55416260Y-42025000D01*
X55482442Y-42031518D01*
X55482442Y-42031518D01*
G37*
M02*
