G04 #@! TF.GenerationSoftware,KiCad,Pcbnew,(5.1.2)-2*
G04 #@! TF.CreationDate,2020-03-05T19:46:53-05:00*
G04 #@! TF.ProjectId,AddressableLED,41646472-6573-4736-9162-6c654c45442e,rev?*
G04 #@! TF.SameCoordinates,Original*
G04 #@! TF.FileFunction,Legend,Top*
G04 #@! TF.FilePolarity,Positive*
%FSLAX46Y46*%
G04 Gerber Fmt 4.6, Leading zero omitted, Abs format (unit mm)*
G04 Created by KiCad (PCBNEW (5.1.2)-2) date 2020-03-05 19:46:53*
%MOMM*%
%LPD*%
G04 APERTURE LIST*
%ADD10C,0.150000*%
%ADD11C,0.300000*%
%ADD12C,0.120000*%
%ADD13C,0.100000*%
G04 APERTURE END LIST*
D10*
X94219047Y-116971428D02*
X94980952Y-116971428D01*
X93385714Y-108904761D02*
X93528571Y-108952380D01*
X93766666Y-108952380D01*
X93861904Y-108904761D01*
X93909523Y-108857142D01*
X93957142Y-108761904D01*
X93957142Y-108666666D01*
X93909523Y-108571428D01*
X93861904Y-108523809D01*
X93766666Y-108476190D01*
X93576190Y-108428571D01*
X93480952Y-108380952D01*
X93433333Y-108333333D01*
X93385714Y-108238095D01*
X93385714Y-108142857D01*
X93433333Y-108047619D01*
X93480952Y-108000000D01*
X93576190Y-107952380D01*
X93814285Y-107952380D01*
X93957142Y-108000000D01*
X94385714Y-108952380D02*
X94385714Y-107952380D01*
X94623809Y-107952380D01*
X94766666Y-108000000D01*
X94861904Y-108095238D01*
X94909523Y-108190476D01*
X94957142Y-108380952D01*
X94957142Y-108523809D01*
X94909523Y-108714285D01*
X94861904Y-108809523D01*
X94766666Y-108904761D01*
X94623809Y-108952380D01*
X94385714Y-108952380D01*
X95338095Y-108666666D02*
X95814285Y-108666666D01*
X95242857Y-108952380D02*
X95576190Y-107952380D01*
X95909523Y-108952380D01*
X93409523Y-111904761D02*
X93552380Y-111952380D01*
X93790476Y-111952380D01*
X93885714Y-111904761D01*
X93933333Y-111857142D01*
X93980952Y-111761904D01*
X93980952Y-111666666D01*
X93933333Y-111571428D01*
X93885714Y-111523809D01*
X93790476Y-111476190D01*
X93600000Y-111428571D01*
X93504761Y-111380952D01*
X93457142Y-111333333D01*
X93409523Y-111238095D01*
X93409523Y-111142857D01*
X93457142Y-111047619D01*
X93504761Y-111000000D01*
X93600000Y-110952380D01*
X93838095Y-110952380D01*
X93980952Y-111000000D01*
X94980952Y-111857142D02*
X94933333Y-111904761D01*
X94790476Y-111952380D01*
X94695238Y-111952380D01*
X94552380Y-111904761D01*
X94457142Y-111809523D01*
X94409523Y-111714285D01*
X94361904Y-111523809D01*
X94361904Y-111380952D01*
X94409523Y-111190476D01*
X94457142Y-111095238D01*
X94552380Y-111000000D01*
X94695238Y-110952380D01*
X94790476Y-110952380D01*
X94933333Y-111000000D01*
X94980952Y-111047619D01*
X95885714Y-111952380D02*
X95409523Y-111952380D01*
X95409523Y-110952380D01*
D11*
X185228571Y-103307142D02*
X186371428Y-103307142D01*
X185800000Y-103878571D02*
X185800000Y-102735714D01*
X94028571Y-103107142D02*
X95171428Y-103107142D01*
X94600000Y-103678571D02*
X94600000Y-102535714D01*
D12*
X143990000Y-113387221D02*
X143990000Y-113712779D01*
X145010000Y-113387221D02*
X145010000Y-113712779D01*
X142165000Y-112065000D02*
X142165000Y-114350000D01*
X143635000Y-112065000D02*
X142165000Y-112065000D01*
X143635000Y-114350000D02*
X143635000Y-112065000D01*
X138285000Y-100430000D02*
X138285000Y-100365000D01*
X141815000Y-100430000D02*
X141815000Y-100365000D01*
X138285000Y-106835000D02*
X138285000Y-106770000D01*
X141815000Y-106835000D02*
X141815000Y-106770000D01*
X143140000Y-106770000D02*
X141815000Y-106770000D01*
X141815000Y-100365000D02*
X138285000Y-100365000D01*
X141815000Y-106835000D02*
X138285000Y-106835000D01*
X135090000Y-106837221D02*
X135090000Y-107162779D01*
X136110000Y-106837221D02*
X136110000Y-107162779D01*
X137860000Y-109112779D02*
X137860000Y-108787221D01*
X136840000Y-109112779D02*
X136840000Y-108787221D01*
X175080000Y-112820000D02*
X175520000Y-112820000D01*
X174580000Y-112320000D02*
X174580000Y-111880000D01*
X174580000Y-112320000D02*
X175080000Y-112820000D01*
X180300000Y-112700000D02*
X179800000Y-112700000D01*
X180300000Y-112700000D02*
X180300000Y-112200000D01*
X180290000Y-107290000D02*
X180290000Y-107790000D01*
X180290000Y-107290000D02*
X179790000Y-107290000D01*
X174700000Y-107300000D02*
X175200000Y-107300000D01*
X174700000Y-107300000D02*
X174700000Y-107800000D01*
X150080000Y-112820000D02*
X150520000Y-112820000D01*
X149580000Y-112320000D02*
X149580000Y-111880000D01*
X149580000Y-112320000D02*
X150080000Y-112820000D01*
X155300000Y-112700000D02*
X154800000Y-112700000D01*
X155300000Y-112700000D02*
X155300000Y-112200000D01*
X155290000Y-107290000D02*
X155290000Y-107790000D01*
X155290000Y-107290000D02*
X154790000Y-107290000D01*
X149700000Y-107300000D02*
X150200000Y-107300000D01*
X149700000Y-107300000D02*
X149700000Y-107800000D01*
X125080000Y-112820000D02*
X125520000Y-112820000D01*
X124580000Y-112320000D02*
X124580000Y-111880000D01*
X124580000Y-112320000D02*
X125080000Y-112820000D01*
X130300000Y-112700000D02*
X129800000Y-112700000D01*
X130300000Y-112700000D02*
X130300000Y-112200000D01*
X130290000Y-107290000D02*
X130290000Y-107790000D01*
X130290000Y-107290000D02*
X129790000Y-107290000D01*
X124700000Y-107300000D02*
X125200000Y-107300000D01*
X124700000Y-107300000D02*
X124700000Y-107800000D01*
X100080000Y-112820000D02*
X100520000Y-112820000D01*
X99580000Y-112320000D02*
X99580000Y-111880000D01*
X99580000Y-112320000D02*
X100080000Y-112820000D01*
X105300000Y-112700000D02*
X104800000Y-112700000D01*
X105300000Y-112700000D02*
X105300000Y-112200000D01*
X105290000Y-107290000D02*
X105290000Y-107790000D01*
X105290000Y-107290000D02*
X104790000Y-107290000D01*
X99700000Y-107300000D02*
X100200000Y-107300000D01*
X99700000Y-107300000D02*
X99700000Y-107800000D01*
X138340000Y-109837221D02*
X138340000Y-110162779D01*
X139360000Y-109837221D02*
X139360000Y-110162779D01*
X139940000Y-109837221D02*
X139940000Y-110162779D01*
X140960000Y-109837221D02*
X140960000Y-110162779D01*
X172140000Y-106420000D02*
X173600000Y-106420000D01*
X172140000Y-109580000D02*
X174300000Y-109580000D01*
X172140000Y-109580000D02*
X172140000Y-108650000D01*
X172140000Y-106420000D02*
X172140000Y-107350000D01*
X182710000Y-116158578D02*
X182710000Y-115641422D01*
X181290000Y-116158578D02*
X181290000Y-115641422D01*
X176679100Y-105037221D02*
X176679100Y-105362779D01*
X177699100Y-105037221D02*
X177699100Y-105362779D01*
X171890000Y-114841422D02*
X171890000Y-115358578D01*
X173310000Y-114841422D02*
X173310000Y-115358578D01*
X175066200Y-105037221D02*
X175066200Y-105362779D01*
X176086200Y-105037221D02*
X176086200Y-105362779D01*
X182817178Y-112490000D02*
X182300022Y-112490000D01*
X182817178Y-113910000D02*
X182300022Y-113910000D01*
X178253900Y-105037221D02*
X178253900Y-105362779D01*
X179273900Y-105037221D02*
X179273900Y-105362779D01*
X179882800Y-116764500D02*
X178422800Y-116764500D01*
X179882800Y-113604500D02*
X177722800Y-113604500D01*
X179882800Y-113604500D02*
X179882800Y-114534500D01*
X179882800Y-116764500D02*
X179882800Y-115834500D01*
X176187100Y-116764500D02*
X174727100Y-116764500D01*
X176187100Y-113604500D02*
X174027100Y-113604500D01*
X176187100Y-113604500D02*
X176187100Y-114534500D01*
X176187100Y-116764500D02*
X176187100Y-115834500D01*
X173660000Y-113180000D02*
X172200000Y-113180000D01*
X173660000Y-110020000D02*
X171500000Y-110020000D01*
X173660000Y-110020000D02*
X173660000Y-110950000D01*
X173660000Y-113180000D02*
X173660000Y-112250000D01*
X181688600Y-108772000D02*
X183148600Y-108772000D01*
X181688600Y-111932000D02*
X183848600Y-111932000D01*
X181688600Y-111932000D02*
X181688600Y-111002000D01*
X181688600Y-108772000D02*
X181688600Y-109702000D01*
X181688600Y-105190600D02*
X183148600Y-105190600D01*
X181688600Y-108350600D02*
X183848600Y-108350600D01*
X181688600Y-108350600D02*
X181688600Y-107420600D01*
X181688600Y-105190600D02*
X181688600Y-106120600D01*
X107610000Y-116158578D02*
X107610000Y-115641422D01*
X106190000Y-116158578D02*
X106190000Y-115641422D01*
X132710000Y-116158578D02*
X132710000Y-115641422D01*
X131290000Y-116158578D02*
X131290000Y-115641422D01*
X157710000Y-116158578D02*
X157710000Y-115641422D01*
X156290000Y-116158578D02*
X156290000Y-115641422D01*
X101679100Y-105044021D02*
X101679100Y-105369579D01*
X102699100Y-105044021D02*
X102699100Y-105369579D01*
X126679100Y-105044021D02*
X126679100Y-105369579D01*
X127699100Y-105044021D02*
X127699100Y-105369579D01*
X151679100Y-105037221D02*
X151679100Y-105362779D01*
X152699100Y-105037221D02*
X152699100Y-105362779D01*
X96890000Y-114841422D02*
X96890000Y-115358578D01*
X98310000Y-114841422D02*
X98310000Y-115358578D01*
X121890000Y-114841422D02*
X121890000Y-115358578D01*
X123310000Y-114841422D02*
X123310000Y-115358578D01*
X146890000Y-114841422D02*
X146890000Y-115358578D01*
X148310000Y-114841422D02*
X148310000Y-115358578D01*
X100066200Y-105044021D02*
X100066200Y-105369579D01*
X101086200Y-105044021D02*
X101086200Y-105369579D01*
X125066200Y-105044021D02*
X125066200Y-105369579D01*
X126086200Y-105044021D02*
X126086200Y-105369579D01*
X150066200Y-105037221D02*
X150066200Y-105362779D01*
X151086200Y-105037221D02*
X151086200Y-105362779D01*
X107817178Y-112490000D02*
X107300022Y-112490000D01*
X107817178Y-113910000D02*
X107300022Y-113910000D01*
X132817178Y-112490000D02*
X132300022Y-112490000D01*
X132817178Y-113910000D02*
X132300022Y-113910000D01*
X157817178Y-112490000D02*
X157300022Y-112490000D01*
X157817178Y-113910000D02*
X157300022Y-113910000D01*
X103253900Y-105044021D02*
X103253900Y-105369579D01*
X104273900Y-105044021D02*
X104273900Y-105369579D01*
X128253900Y-105037221D02*
X128253900Y-105362779D01*
X129273900Y-105037221D02*
X129273900Y-105362779D01*
X153253900Y-105037221D02*
X153253900Y-105362779D01*
X154273900Y-105037221D02*
X154273900Y-105362779D01*
X104882800Y-116764500D02*
X103422800Y-116764500D01*
X104882800Y-113604500D02*
X102722800Y-113604500D01*
X104882800Y-113604500D02*
X104882800Y-114534500D01*
X104882800Y-116764500D02*
X104882800Y-115834500D01*
X129882800Y-116764500D02*
X128422800Y-116764500D01*
X129882800Y-113604500D02*
X127722800Y-113604500D01*
X129882800Y-113604500D02*
X129882800Y-114534500D01*
X129882800Y-116764500D02*
X129882800Y-115834500D01*
X154882800Y-116764500D02*
X153422800Y-116764500D01*
X154882800Y-113604500D02*
X152722800Y-113604500D01*
X154882800Y-113604500D02*
X154882800Y-114534500D01*
X154882800Y-116764500D02*
X154882800Y-115834500D01*
X101187100Y-116764500D02*
X99727100Y-116764500D01*
X101187100Y-113604500D02*
X99027100Y-113604500D01*
X101187100Y-113604500D02*
X101187100Y-114534500D01*
X101187100Y-116764500D02*
X101187100Y-115834500D01*
X126187100Y-116764500D02*
X124727100Y-116764500D01*
X126187100Y-113604500D02*
X124027100Y-113604500D01*
X126187100Y-113604500D02*
X126187100Y-114534500D01*
X126187100Y-116764500D02*
X126187100Y-115834500D01*
X151187100Y-116764500D02*
X149727100Y-116764500D01*
X151187100Y-113604500D02*
X149027100Y-113604500D01*
X151187100Y-113604500D02*
X151187100Y-114534500D01*
X151187100Y-116764500D02*
X151187100Y-115834500D01*
X98660000Y-113180000D02*
X97200000Y-113180000D01*
X98660000Y-110020000D02*
X96500000Y-110020000D01*
X98660000Y-110020000D02*
X98660000Y-110950000D01*
X98660000Y-113180000D02*
X98660000Y-112250000D01*
X123660000Y-113180000D02*
X122200000Y-113180000D01*
X123660000Y-110020000D02*
X121500000Y-110020000D01*
X123660000Y-110020000D02*
X123660000Y-110950000D01*
X123660000Y-113180000D02*
X123660000Y-112250000D01*
X148660000Y-113180000D02*
X147200000Y-113180000D01*
X148660000Y-110020000D02*
X146500000Y-110020000D01*
X148660000Y-110020000D02*
X148660000Y-110950000D01*
X148660000Y-113180000D02*
X148660000Y-112250000D01*
X97140000Y-106420000D02*
X98600000Y-106420000D01*
X97140000Y-109580000D02*
X99300000Y-109580000D01*
X97140000Y-109580000D02*
X97140000Y-108650000D01*
X97140000Y-106420000D02*
X97140000Y-107350000D01*
X122140000Y-106420000D02*
X123600000Y-106420000D01*
X122140000Y-109580000D02*
X124300000Y-109580000D01*
X122140000Y-109580000D02*
X122140000Y-108650000D01*
X122140000Y-106420000D02*
X122140000Y-107350000D01*
X147140000Y-106420000D02*
X148600000Y-106420000D01*
X147140000Y-109580000D02*
X149300000Y-109580000D01*
X147140000Y-109580000D02*
X147140000Y-108650000D01*
X147140000Y-106420000D02*
X147140000Y-107350000D01*
X106688600Y-108772000D02*
X108148600Y-108772000D01*
X106688600Y-111932000D02*
X108848600Y-111932000D01*
X106688600Y-111932000D02*
X106688600Y-111002000D01*
X106688600Y-108772000D02*
X106688600Y-109702000D01*
X131688600Y-108772000D02*
X133148600Y-108772000D01*
X131688600Y-111932000D02*
X133848600Y-111932000D01*
X131688600Y-111932000D02*
X131688600Y-111002000D01*
X131688600Y-108772000D02*
X131688600Y-109702000D01*
X156688600Y-108772000D02*
X158148600Y-108772000D01*
X156688600Y-111932000D02*
X158848600Y-111932000D01*
X156688600Y-111932000D02*
X156688600Y-111002000D01*
X156688600Y-108772000D02*
X156688600Y-109702000D01*
X106688600Y-105190600D02*
X108148600Y-105190600D01*
X106688600Y-108350600D02*
X108848600Y-108350600D01*
X106688600Y-108350600D02*
X106688600Y-107420600D01*
X106688600Y-105190600D02*
X106688600Y-106120600D01*
X131688600Y-105190600D02*
X133148600Y-105190600D01*
X131688600Y-108350600D02*
X133848600Y-108350600D01*
X131688600Y-108350600D02*
X131688600Y-107420600D01*
X131688600Y-105190600D02*
X131688600Y-106120600D01*
X156688600Y-105190600D02*
X158148600Y-105190600D01*
X156688600Y-108350600D02*
X158848600Y-108350600D01*
X156688600Y-108350600D02*
X156688600Y-107420600D01*
X156688600Y-105190600D02*
X156688600Y-106120600D01*
D10*
X145052380Y-117142857D02*
X144576190Y-117476190D01*
X145052380Y-117714285D02*
X144052380Y-117714285D01*
X144052380Y-117333333D01*
X144100000Y-117238095D01*
X144147619Y-117190476D01*
X144242857Y-117142857D01*
X144385714Y-117142857D01*
X144480952Y-117190476D01*
X144528571Y-117238095D01*
X144576190Y-117333333D01*
X144576190Y-117714285D01*
X144052380Y-116809523D02*
X144052380Y-116190476D01*
X144433333Y-116523809D01*
X144433333Y-116380952D01*
X144480952Y-116285714D01*
X144528571Y-116238095D01*
X144623809Y-116190476D01*
X144861904Y-116190476D01*
X144957142Y-116238095D01*
X145004761Y-116285714D01*
X145052380Y-116380952D01*
X145052380Y-116666666D01*
X145004761Y-116761904D01*
X144957142Y-116809523D01*
X144052380Y-115571428D02*
X144052380Y-115476190D01*
X144100000Y-115380952D01*
X144147619Y-115333333D01*
X144242857Y-115285714D01*
X144433333Y-115238095D01*
X144671428Y-115238095D01*
X144861904Y-115285714D01*
X144957142Y-115333333D01*
X145004761Y-115380952D01*
X145052380Y-115476190D01*
X145052380Y-115571428D01*
X145004761Y-115666666D01*
X144957142Y-115714285D01*
X144861904Y-115761904D01*
X144671428Y-115809523D01*
X144433333Y-115809523D01*
X144242857Y-115761904D01*
X144147619Y-115714285D01*
X144100000Y-115666666D01*
X144052380Y-115571428D01*
X143352380Y-116838095D02*
X142352380Y-116838095D01*
X142352380Y-116600000D01*
X142400000Y-116457142D01*
X142495238Y-116361904D01*
X142590476Y-116314285D01*
X142780952Y-116266666D01*
X142923809Y-116266666D01*
X143114285Y-116314285D01*
X143209523Y-116361904D01*
X143304761Y-116457142D01*
X143352380Y-116600000D01*
X143352380Y-116838095D01*
X142352380Y-115361904D02*
X142352380Y-115838095D01*
X142828571Y-115885714D01*
X142780952Y-115838095D01*
X142733333Y-115742857D01*
X142733333Y-115504761D01*
X142780952Y-115409523D01*
X142828571Y-115361904D01*
X142923809Y-115314285D01*
X143161904Y-115314285D01*
X143257142Y-115361904D01*
X143304761Y-115409523D01*
X143352380Y-115504761D01*
X143352380Y-115742857D01*
X143304761Y-115838095D01*
X143257142Y-115885714D01*
X136052380Y-110542857D02*
X135576190Y-110876190D01*
X136052380Y-111114285D02*
X135052380Y-111114285D01*
X135052380Y-110733333D01*
X135100000Y-110638095D01*
X135147619Y-110590476D01*
X135242857Y-110542857D01*
X135385714Y-110542857D01*
X135480952Y-110590476D01*
X135528571Y-110638095D01*
X135576190Y-110733333D01*
X135576190Y-111114285D01*
X135147619Y-110161904D02*
X135100000Y-110114285D01*
X135052380Y-110019047D01*
X135052380Y-109780952D01*
X135100000Y-109685714D01*
X135147619Y-109638095D01*
X135242857Y-109590476D01*
X135338095Y-109590476D01*
X135480952Y-109638095D01*
X136052380Y-110209523D01*
X136052380Y-109590476D01*
X136052380Y-109114285D02*
X136052380Y-108923809D01*
X136004761Y-108828571D01*
X135957142Y-108780952D01*
X135814285Y-108685714D01*
X135623809Y-108638095D01*
X135242857Y-108638095D01*
X135147619Y-108685714D01*
X135100000Y-108733333D01*
X135052380Y-108828571D01*
X135052380Y-109019047D01*
X135100000Y-109114285D01*
X135147619Y-109161904D01*
X135242857Y-109209523D01*
X135480952Y-109209523D01*
X135576190Y-109161904D01*
X135623809Y-109114285D01*
X135671428Y-109019047D01*
X135671428Y-108828571D01*
X135623809Y-108733333D01*
X135576190Y-108685714D01*
X135480952Y-108638095D01*
X137852380Y-112642857D02*
X137376190Y-112976190D01*
X137852380Y-113214285D02*
X136852380Y-113214285D01*
X136852380Y-112833333D01*
X136900000Y-112738095D01*
X136947619Y-112690476D01*
X137042857Y-112642857D01*
X137185714Y-112642857D01*
X137280952Y-112690476D01*
X137328571Y-112738095D01*
X137376190Y-112833333D01*
X137376190Y-113214285D01*
X136947619Y-112261904D02*
X136900000Y-112214285D01*
X136852380Y-112119047D01*
X136852380Y-111880952D01*
X136900000Y-111785714D01*
X136947619Y-111738095D01*
X137042857Y-111690476D01*
X137138095Y-111690476D01*
X137280952Y-111738095D01*
X137852380Y-112309523D01*
X137852380Y-111690476D01*
X136947619Y-111309523D02*
X136900000Y-111261904D01*
X136852380Y-111166666D01*
X136852380Y-110928571D01*
X136900000Y-110833333D01*
X136947619Y-110785714D01*
X137042857Y-110738095D01*
X137138095Y-110738095D01*
X137280952Y-110785714D01*
X137852380Y-111357142D01*
X137852380Y-110738095D01*
D13*
X180726190Y-109569047D02*
X180226190Y-109569047D01*
X180226190Y-109450000D01*
X180250000Y-109378571D01*
X180297619Y-109330952D01*
X180345238Y-109307142D01*
X180440476Y-109283333D01*
X180511904Y-109283333D01*
X180607142Y-109307142D01*
X180654761Y-109330952D01*
X180702380Y-109378571D01*
X180726190Y-109450000D01*
X180726190Y-109569047D01*
X180726190Y-108807142D02*
X180726190Y-109092857D01*
X180726190Y-108950000D02*
X180226190Y-108950000D01*
X180297619Y-108997619D01*
X180345238Y-109045238D01*
X180369047Y-109092857D01*
X155626190Y-109369047D02*
X155126190Y-109369047D01*
X155126190Y-109250000D01*
X155150000Y-109178571D01*
X155197619Y-109130952D01*
X155245238Y-109107142D01*
X155340476Y-109083333D01*
X155411904Y-109083333D01*
X155507142Y-109107142D01*
X155554761Y-109130952D01*
X155602380Y-109178571D01*
X155626190Y-109250000D01*
X155626190Y-109369047D01*
X155173809Y-108892857D02*
X155150000Y-108869047D01*
X155126190Y-108821428D01*
X155126190Y-108702380D01*
X155150000Y-108654761D01*
X155173809Y-108630952D01*
X155221428Y-108607142D01*
X155269047Y-108607142D01*
X155340476Y-108630952D01*
X155626190Y-108916666D01*
X155626190Y-108607142D01*
X130726190Y-108969047D02*
X130226190Y-108969047D01*
X130226190Y-108850000D01*
X130250000Y-108778571D01*
X130297619Y-108730952D01*
X130345238Y-108707142D01*
X130440476Y-108683333D01*
X130511904Y-108683333D01*
X130607142Y-108707142D01*
X130654761Y-108730952D01*
X130702380Y-108778571D01*
X130726190Y-108850000D01*
X130726190Y-108969047D01*
X130226190Y-108516666D02*
X130226190Y-108207142D01*
X130416666Y-108373809D01*
X130416666Y-108302380D01*
X130440476Y-108254761D01*
X130464285Y-108230952D01*
X130511904Y-108207142D01*
X130630952Y-108207142D01*
X130678571Y-108230952D01*
X130702380Y-108254761D01*
X130726190Y-108302380D01*
X130726190Y-108445238D01*
X130702380Y-108492857D01*
X130678571Y-108516666D01*
X105626190Y-109069047D02*
X105126190Y-109069047D01*
X105126190Y-108950000D01*
X105150000Y-108878571D01*
X105197619Y-108830952D01*
X105245238Y-108807142D01*
X105340476Y-108783333D01*
X105411904Y-108783333D01*
X105507142Y-108807142D01*
X105554761Y-108830952D01*
X105602380Y-108878571D01*
X105626190Y-108950000D01*
X105626190Y-109069047D01*
X105292857Y-108354761D02*
X105626190Y-108354761D01*
X105102380Y-108473809D02*
X105459523Y-108592857D01*
X105459523Y-108283333D01*
D10*
X139157142Y-112666666D02*
X139204761Y-112714285D01*
X139252380Y-112857142D01*
X139252380Y-112952380D01*
X139204761Y-113095238D01*
X139109523Y-113190476D01*
X139014285Y-113238095D01*
X138823809Y-113285714D01*
X138680952Y-113285714D01*
X138490476Y-113238095D01*
X138395238Y-113190476D01*
X138300000Y-113095238D01*
X138252380Y-112952380D01*
X138252380Y-112857142D01*
X138300000Y-112714285D01*
X138347619Y-112666666D01*
X138252380Y-111761904D02*
X138252380Y-112238095D01*
X138728571Y-112285714D01*
X138680952Y-112238095D01*
X138633333Y-112142857D01*
X138633333Y-111904761D01*
X138680952Y-111809523D01*
X138728571Y-111761904D01*
X138823809Y-111714285D01*
X139061904Y-111714285D01*
X139157142Y-111761904D01*
X139204761Y-111809523D01*
X139252380Y-111904761D01*
X139252380Y-112142857D01*
X139204761Y-112238095D01*
X139157142Y-112285714D01*
X140757142Y-112666666D02*
X140804761Y-112714285D01*
X140852380Y-112857142D01*
X140852380Y-112952380D01*
X140804761Y-113095238D01*
X140709523Y-113190476D01*
X140614285Y-113238095D01*
X140423809Y-113285714D01*
X140280952Y-113285714D01*
X140090476Y-113238095D01*
X139995238Y-113190476D01*
X139900000Y-113095238D01*
X139852380Y-112952380D01*
X139852380Y-112857142D01*
X139900000Y-112714285D01*
X139947619Y-112666666D01*
X140185714Y-111809523D02*
X140852380Y-111809523D01*
X139804761Y-112047619D02*
X140519047Y-112285714D01*
X140519047Y-111666666D01*
X170048861Y-107379219D02*
X169953623Y-107331600D01*
X169858385Y-107236361D01*
X169715528Y-107093504D01*
X169620290Y-107045885D01*
X169525052Y-107045885D01*
X169572671Y-107283980D02*
X169477433Y-107236361D01*
X169382195Y-107141123D01*
X169334576Y-106950647D01*
X169334576Y-106617314D01*
X169382195Y-106426838D01*
X169477433Y-106331600D01*
X169572671Y-106283980D01*
X169763147Y-106283980D01*
X169858385Y-106331600D01*
X169953623Y-106426838D01*
X170001242Y-106617314D01*
X170001242Y-106950647D01*
X169953623Y-107141123D01*
X169858385Y-107236361D01*
X169763147Y-107283980D01*
X169572671Y-107283980D01*
X170334576Y-106283980D02*
X170953623Y-106283980D01*
X170620290Y-106664933D01*
X170763147Y-106664933D01*
X170858385Y-106712552D01*
X170906004Y-106760171D01*
X170953623Y-106855409D01*
X170953623Y-107093504D01*
X170906004Y-107188742D01*
X170858385Y-107236361D01*
X170763147Y-107283980D01*
X170477433Y-107283980D01*
X170382195Y-107236361D01*
X170334576Y-107188742D01*
X181657142Y-118752380D02*
X181323809Y-118276190D01*
X181085714Y-118752380D02*
X181085714Y-117752380D01*
X181466666Y-117752380D01*
X181561904Y-117800000D01*
X181609523Y-117847619D01*
X181657142Y-117942857D01*
X181657142Y-118085714D01*
X181609523Y-118180952D01*
X181561904Y-118228571D01*
X181466666Y-118276190D01*
X181085714Y-118276190D01*
X182609523Y-118752380D02*
X182038095Y-118752380D01*
X182323809Y-118752380D02*
X182323809Y-117752380D01*
X182228571Y-117895238D01*
X182133333Y-117990476D01*
X182038095Y-118038095D01*
X183180952Y-118180952D02*
X183085714Y-118133333D01*
X183038095Y-118085714D01*
X182990476Y-117990476D01*
X182990476Y-117942857D01*
X183038095Y-117847619D01*
X183085714Y-117800000D01*
X183180952Y-117752380D01*
X183371428Y-117752380D01*
X183466666Y-117800000D01*
X183514285Y-117847619D01*
X183561904Y-117942857D01*
X183561904Y-117990476D01*
X183514285Y-118085714D01*
X183466666Y-118133333D01*
X183371428Y-118180952D01*
X183180952Y-118180952D01*
X183085714Y-118228571D01*
X183038095Y-118276190D01*
X182990476Y-118371428D01*
X182990476Y-118561904D01*
X183038095Y-118657142D01*
X183085714Y-118704761D01*
X183180952Y-118752380D01*
X183371428Y-118752380D01*
X183466666Y-118704761D01*
X183514285Y-118657142D01*
X183561904Y-118561904D01*
X183561904Y-118371428D01*
X183514285Y-118276190D01*
X183466666Y-118228571D01*
X183371428Y-118180952D01*
X177652380Y-102942857D02*
X177176190Y-103276190D01*
X177652380Y-103514285D02*
X176652380Y-103514285D01*
X176652380Y-103133333D01*
X176700000Y-103038095D01*
X176747619Y-102990476D01*
X176842857Y-102942857D01*
X176985714Y-102942857D01*
X177080952Y-102990476D01*
X177128571Y-103038095D01*
X177176190Y-103133333D01*
X177176190Y-103514285D01*
X177652380Y-101990476D02*
X177652380Y-102561904D01*
X177652380Y-102276190D02*
X176652380Y-102276190D01*
X176795238Y-102371428D01*
X176890476Y-102466666D01*
X176938095Y-102561904D01*
X176652380Y-101657142D02*
X176652380Y-100990476D01*
X177652380Y-101419047D01*
X171557142Y-118052380D02*
X171223809Y-117576190D01*
X170985714Y-118052380D02*
X170985714Y-117052380D01*
X171366666Y-117052380D01*
X171461904Y-117100000D01*
X171509523Y-117147619D01*
X171557142Y-117242857D01*
X171557142Y-117385714D01*
X171509523Y-117480952D01*
X171461904Y-117528571D01*
X171366666Y-117576190D01*
X170985714Y-117576190D01*
X172509523Y-118052380D02*
X171938095Y-118052380D01*
X172223809Y-118052380D02*
X172223809Y-117052380D01*
X172128571Y-117195238D01*
X172033333Y-117290476D01*
X171938095Y-117338095D01*
X172842857Y-117052380D02*
X173461904Y-117052380D01*
X173128571Y-117433333D01*
X173271428Y-117433333D01*
X173366666Y-117480952D01*
X173414285Y-117528571D01*
X173461904Y-117623809D01*
X173461904Y-117861904D01*
X173414285Y-117957142D01*
X173366666Y-118004761D01*
X173271428Y-118052380D01*
X172985714Y-118052380D01*
X172890476Y-118004761D01*
X172842857Y-117957142D01*
X176052380Y-102942857D02*
X175576190Y-103276190D01*
X176052380Y-103514285D02*
X175052380Y-103514285D01*
X175052380Y-103133333D01*
X175100000Y-103038095D01*
X175147619Y-102990476D01*
X175242857Y-102942857D01*
X175385714Y-102942857D01*
X175480952Y-102990476D01*
X175528571Y-103038095D01*
X175576190Y-103133333D01*
X175576190Y-103514285D01*
X176052380Y-101990476D02*
X176052380Y-102561904D01*
X176052380Y-102276190D02*
X175052380Y-102276190D01*
X175195238Y-102371428D01*
X175290476Y-102466666D01*
X175338095Y-102561904D01*
X175147619Y-101609523D02*
X175100000Y-101561904D01*
X175052380Y-101466666D01*
X175052380Y-101228571D01*
X175100000Y-101133333D01*
X175147619Y-101085714D01*
X175242857Y-101038095D01*
X175338095Y-101038095D01*
X175480952Y-101085714D01*
X176052380Y-101657142D01*
X176052380Y-101038095D01*
X179252380Y-102966666D02*
X178776190Y-103300000D01*
X179252380Y-103538095D02*
X178252380Y-103538095D01*
X178252380Y-103157142D01*
X178300000Y-103061904D01*
X178347619Y-103014285D01*
X178442857Y-102966666D01*
X178585714Y-102966666D01*
X178680952Y-103014285D01*
X178728571Y-103061904D01*
X178776190Y-103157142D01*
X178776190Y-103538095D01*
X178252380Y-102633333D02*
X178252380Y-101966666D01*
X179252380Y-102395238D01*
X178904761Y-118247619D02*
X178809523Y-118200000D01*
X178714285Y-118104761D01*
X178571428Y-117961904D01*
X178476190Y-117914285D01*
X178380952Y-117914285D01*
X178428571Y-118152380D02*
X178333333Y-118104761D01*
X178238095Y-118009523D01*
X178190476Y-117819047D01*
X178190476Y-117485714D01*
X178238095Y-117295238D01*
X178333333Y-117200000D01*
X178428571Y-117152380D01*
X178619047Y-117152380D01*
X178714285Y-117200000D01*
X178809523Y-117295238D01*
X178857142Y-117485714D01*
X178857142Y-117819047D01*
X178809523Y-118009523D01*
X178714285Y-118104761D01*
X178619047Y-118152380D01*
X178428571Y-118152380D01*
X179714285Y-117152380D02*
X179523809Y-117152380D01*
X179428571Y-117200000D01*
X179380952Y-117247619D01*
X179285714Y-117390476D01*
X179238095Y-117580952D01*
X179238095Y-117961904D01*
X179285714Y-118057142D01*
X179333333Y-118104761D01*
X179428571Y-118152380D01*
X179619047Y-118152380D01*
X179714285Y-118104761D01*
X179761904Y-118057142D01*
X179809523Y-117961904D01*
X179809523Y-117723809D01*
X179761904Y-117628571D01*
X179714285Y-117580952D01*
X179619047Y-117533333D01*
X179428571Y-117533333D01*
X179333333Y-117580952D01*
X179285714Y-117628571D01*
X179238095Y-117723809D01*
X175304761Y-118247619D02*
X175209523Y-118200000D01*
X175114285Y-118104761D01*
X174971428Y-117961904D01*
X174876190Y-117914285D01*
X174780952Y-117914285D01*
X174828571Y-118152380D02*
X174733333Y-118104761D01*
X174638095Y-118009523D01*
X174590476Y-117819047D01*
X174590476Y-117485714D01*
X174638095Y-117295238D01*
X174733333Y-117200000D01*
X174828571Y-117152380D01*
X175019047Y-117152380D01*
X175114285Y-117200000D01*
X175209523Y-117295238D01*
X175257142Y-117485714D01*
X175257142Y-117819047D01*
X175209523Y-118009523D01*
X175114285Y-118104761D01*
X175019047Y-118152380D01*
X174828571Y-118152380D01*
X176161904Y-117152380D02*
X175685714Y-117152380D01*
X175638095Y-117628571D01*
X175685714Y-117580952D01*
X175780952Y-117533333D01*
X176019047Y-117533333D01*
X176114285Y-117580952D01*
X176161904Y-117628571D01*
X176209523Y-117723809D01*
X176209523Y-117961904D01*
X176161904Y-118057142D01*
X176114285Y-118104761D01*
X176019047Y-118152380D01*
X175780952Y-118152380D01*
X175685714Y-118104761D01*
X175638095Y-118057142D01*
X170004761Y-110947619D02*
X169909523Y-110900000D01*
X169814285Y-110804761D01*
X169671428Y-110661904D01*
X169576190Y-110614285D01*
X169480952Y-110614285D01*
X169528571Y-110852380D02*
X169433333Y-110804761D01*
X169338095Y-110709523D01*
X169290476Y-110519047D01*
X169290476Y-110185714D01*
X169338095Y-109995238D01*
X169433333Y-109900000D01*
X169528571Y-109852380D01*
X169719047Y-109852380D01*
X169814285Y-109900000D01*
X169909523Y-109995238D01*
X169957142Y-110185714D01*
X169957142Y-110519047D01*
X169909523Y-110709523D01*
X169814285Y-110804761D01*
X169719047Y-110852380D01*
X169528571Y-110852380D01*
X170814285Y-110185714D02*
X170814285Y-110852380D01*
X170576190Y-109804761D02*
X170338095Y-110519047D01*
X170957142Y-110519047D01*
X182404761Y-104847619D02*
X182309523Y-104800000D01*
X182214285Y-104704761D01*
X182071428Y-104561904D01*
X181976190Y-104514285D01*
X181880952Y-104514285D01*
X181928571Y-104752380D02*
X181833333Y-104704761D01*
X181738095Y-104609523D01*
X181690476Y-104419047D01*
X181690476Y-104085714D01*
X181738095Y-103895238D01*
X181833333Y-103800000D01*
X181928571Y-103752380D01*
X182119047Y-103752380D01*
X182214285Y-103800000D01*
X182309523Y-103895238D01*
X182357142Y-104085714D01*
X182357142Y-104419047D01*
X182309523Y-104609523D01*
X182214285Y-104704761D01*
X182119047Y-104752380D01*
X181928571Y-104752380D01*
X183309523Y-104752380D02*
X182738095Y-104752380D01*
X183023809Y-104752380D02*
X183023809Y-103752380D01*
X182928571Y-103895238D01*
X182833333Y-103990476D01*
X182738095Y-104038095D01*
X108657142Y-117552380D02*
X108323809Y-117076190D01*
X108085714Y-117552380D02*
X108085714Y-116552380D01*
X108466666Y-116552380D01*
X108561904Y-116600000D01*
X108609523Y-116647619D01*
X108657142Y-116742857D01*
X108657142Y-116885714D01*
X108609523Y-116980952D01*
X108561904Y-117028571D01*
X108466666Y-117076190D01*
X108085714Y-117076190D01*
X109038095Y-116647619D02*
X109085714Y-116600000D01*
X109180952Y-116552380D01*
X109419047Y-116552380D01*
X109514285Y-116600000D01*
X109561904Y-116647619D01*
X109609523Y-116742857D01*
X109609523Y-116838095D01*
X109561904Y-116980952D01*
X108990476Y-117552380D01*
X109609523Y-117552380D01*
X110180952Y-116980952D02*
X110085714Y-116933333D01*
X110038095Y-116885714D01*
X109990476Y-116790476D01*
X109990476Y-116742857D01*
X110038095Y-116647619D01*
X110085714Y-116600000D01*
X110180952Y-116552380D01*
X110371428Y-116552380D01*
X110466666Y-116600000D01*
X110514285Y-116647619D01*
X110561904Y-116742857D01*
X110561904Y-116790476D01*
X110514285Y-116885714D01*
X110466666Y-116933333D01*
X110371428Y-116980952D01*
X110180952Y-116980952D01*
X110085714Y-117028571D01*
X110038095Y-117076190D01*
X109990476Y-117171428D01*
X109990476Y-117361904D01*
X110038095Y-117457142D01*
X110085714Y-117504761D01*
X110180952Y-117552380D01*
X110371428Y-117552380D01*
X110466666Y-117504761D01*
X110514285Y-117457142D01*
X110561904Y-117361904D01*
X110561904Y-117171428D01*
X110514285Y-117076190D01*
X110466666Y-117028571D01*
X110371428Y-116980952D01*
X133757142Y-117752380D02*
X133423809Y-117276190D01*
X133185714Y-117752380D02*
X133185714Y-116752380D01*
X133566666Y-116752380D01*
X133661904Y-116800000D01*
X133709523Y-116847619D01*
X133757142Y-116942857D01*
X133757142Y-117085714D01*
X133709523Y-117180952D01*
X133661904Y-117228571D01*
X133566666Y-117276190D01*
X133185714Y-117276190D01*
X134138095Y-116847619D02*
X134185714Y-116800000D01*
X134280952Y-116752380D01*
X134519047Y-116752380D01*
X134614285Y-116800000D01*
X134661904Y-116847619D01*
X134709523Y-116942857D01*
X134709523Y-117038095D01*
X134661904Y-117180952D01*
X134090476Y-117752380D01*
X134709523Y-117752380D01*
X135042857Y-116752380D02*
X135709523Y-116752380D01*
X135280952Y-117752380D01*
X156801642Y-118866980D02*
X156468309Y-118390790D01*
X156230214Y-118866980D02*
X156230214Y-117866980D01*
X156611166Y-117866980D01*
X156706404Y-117914600D01*
X156754023Y-117962219D01*
X156801642Y-118057457D01*
X156801642Y-118200314D01*
X156754023Y-118295552D01*
X156706404Y-118343171D01*
X156611166Y-118390790D01*
X156230214Y-118390790D01*
X157182595Y-117962219D02*
X157230214Y-117914600D01*
X157325452Y-117866980D01*
X157563547Y-117866980D01*
X157658785Y-117914600D01*
X157706404Y-117962219D01*
X157754023Y-118057457D01*
X157754023Y-118152695D01*
X157706404Y-118295552D01*
X157134976Y-118866980D01*
X157754023Y-118866980D01*
X158611166Y-117866980D02*
X158420690Y-117866980D01*
X158325452Y-117914600D01*
X158277833Y-117962219D01*
X158182595Y-118105076D01*
X158134976Y-118295552D01*
X158134976Y-118676504D01*
X158182595Y-118771742D01*
X158230214Y-118819361D01*
X158325452Y-118866980D01*
X158515928Y-118866980D01*
X158611166Y-118819361D01*
X158658785Y-118771742D01*
X158706404Y-118676504D01*
X158706404Y-118438409D01*
X158658785Y-118343171D01*
X158611166Y-118295552D01*
X158515928Y-118247933D01*
X158325452Y-118247933D01*
X158230214Y-118295552D01*
X158182595Y-118343171D01*
X158134976Y-118438409D01*
X102652380Y-102842857D02*
X102176190Y-103176190D01*
X102652380Y-103414285D02*
X101652380Y-103414285D01*
X101652380Y-103033333D01*
X101700000Y-102938095D01*
X101747619Y-102890476D01*
X101842857Y-102842857D01*
X101985714Y-102842857D01*
X102080952Y-102890476D01*
X102128571Y-102938095D01*
X102176190Y-103033333D01*
X102176190Y-103414285D01*
X101747619Y-102461904D02*
X101700000Y-102414285D01*
X101652380Y-102319047D01*
X101652380Y-102080952D01*
X101700000Y-101985714D01*
X101747619Y-101938095D01*
X101842857Y-101890476D01*
X101938095Y-101890476D01*
X102080952Y-101938095D01*
X102652380Y-102509523D01*
X102652380Y-101890476D01*
X101652380Y-100985714D02*
X101652380Y-101461904D01*
X102128571Y-101509523D01*
X102080952Y-101461904D01*
X102033333Y-101366666D01*
X102033333Y-101128571D01*
X102080952Y-101033333D01*
X102128571Y-100985714D01*
X102223809Y-100938095D01*
X102461904Y-100938095D01*
X102557142Y-100985714D01*
X102604761Y-101033333D01*
X102652380Y-101128571D01*
X102652380Y-101366666D01*
X102604761Y-101461904D01*
X102557142Y-101509523D01*
X127652380Y-102942857D02*
X127176190Y-103276190D01*
X127652380Y-103514285D02*
X126652380Y-103514285D01*
X126652380Y-103133333D01*
X126700000Y-103038095D01*
X126747619Y-102990476D01*
X126842857Y-102942857D01*
X126985714Y-102942857D01*
X127080952Y-102990476D01*
X127128571Y-103038095D01*
X127176190Y-103133333D01*
X127176190Y-103514285D01*
X126747619Y-102561904D02*
X126700000Y-102514285D01*
X126652380Y-102419047D01*
X126652380Y-102180952D01*
X126700000Y-102085714D01*
X126747619Y-102038095D01*
X126842857Y-101990476D01*
X126938095Y-101990476D01*
X127080952Y-102038095D01*
X127652380Y-102609523D01*
X127652380Y-101990476D01*
X126985714Y-101133333D02*
X127652380Y-101133333D01*
X126604761Y-101371428D02*
X127319047Y-101609523D01*
X127319047Y-100990476D01*
X152652380Y-102942857D02*
X152176190Y-103276190D01*
X152652380Y-103514285D02*
X151652380Y-103514285D01*
X151652380Y-103133333D01*
X151700000Y-103038095D01*
X151747619Y-102990476D01*
X151842857Y-102942857D01*
X151985714Y-102942857D01*
X152080952Y-102990476D01*
X152128571Y-103038095D01*
X152176190Y-103133333D01*
X152176190Y-103514285D01*
X151747619Y-102561904D02*
X151700000Y-102514285D01*
X151652380Y-102419047D01*
X151652380Y-102180952D01*
X151700000Y-102085714D01*
X151747619Y-102038095D01*
X151842857Y-101990476D01*
X151938095Y-101990476D01*
X152080952Y-102038095D01*
X152652380Y-102609523D01*
X152652380Y-101990476D01*
X151652380Y-101657142D02*
X151652380Y-101038095D01*
X152033333Y-101371428D01*
X152033333Y-101228571D01*
X152080952Y-101133333D01*
X152128571Y-101085714D01*
X152223809Y-101038095D01*
X152461904Y-101038095D01*
X152557142Y-101085714D01*
X152604761Y-101133333D01*
X152652380Y-101228571D01*
X152652380Y-101514285D01*
X152604761Y-101609523D01*
X152557142Y-101657142D01*
X96657142Y-118052380D02*
X96323809Y-117576190D01*
X96085714Y-118052380D02*
X96085714Y-117052380D01*
X96466666Y-117052380D01*
X96561904Y-117100000D01*
X96609523Y-117147619D01*
X96657142Y-117242857D01*
X96657142Y-117385714D01*
X96609523Y-117480952D01*
X96561904Y-117528571D01*
X96466666Y-117576190D01*
X96085714Y-117576190D01*
X97038095Y-117147619D02*
X97085714Y-117100000D01*
X97180952Y-117052380D01*
X97419047Y-117052380D01*
X97514285Y-117100000D01*
X97561904Y-117147619D01*
X97609523Y-117242857D01*
X97609523Y-117338095D01*
X97561904Y-117480952D01*
X96990476Y-118052380D01*
X97609523Y-118052380D01*
X98228571Y-117052380D02*
X98323809Y-117052380D01*
X98419047Y-117100000D01*
X98466666Y-117147619D01*
X98514285Y-117242857D01*
X98561904Y-117433333D01*
X98561904Y-117671428D01*
X98514285Y-117861904D01*
X98466666Y-117957142D01*
X98419047Y-118004761D01*
X98323809Y-118052380D01*
X98228571Y-118052380D01*
X98133333Y-118004761D01*
X98085714Y-117957142D01*
X98038095Y-117861904D01*
X97990476Y-117671428D01*
X97990476Y-117433333D01*
X98038095Y-117242857D01*
X98085714Y-117147619D01*
X98133333Y-117100000D01*
X98228571Y-117052380D01*
X121287080Y-115806357D02*
X120810890Y-116139690D01*
X121287080Y-116377785D02*
X120287080Y-116377785D01*
X120287080Y-115996833D01*
X120334700Y-115901595D01*
X120382319Y-115853976D01*
X120477557Y-115806357D01*
X120620414Y-115806357D01*
X120715652Y-115853976D01*
X120763271Y-115901595D01*
X120810890Y-115996833D01*
X120810890Y-116377785D01*
X121287080Y-114853976D02*
X121287080Y-115425404D01*
X121287080Y-115139690D02*
X120287080Y-115139690D01*
X120429938Y-115234928D01*
X120525176Y-115330166D01*
X120572795Y-115425404D01*
X121287080Y-114377785D02*
X121287080Y-114187309D01*
X121239461Y-114092071D01*
X121191842Y-114044452D01*
X121048985Y-113949214D01*
X120858509Y-113901595D01*
X120477557Y-113901595D01*
X120382319Y-113949214D01*
X120334700Y-113996833D01*
X120287080Y-114092071D01*
X120287080Y-114282547D01*
X120334700Y-114377785D01*
X120382319Y-114425404D01*
X120477557Y-114473023D01*
X120715652Y-114473023D01*
X120810890Y-114425404D01*
X120858509Y-114377785D01*
X120906128Y-114282547D01*
X120906128Y-114092071D01*
X120858509Y-113996833D01*
X120810890Y-113949214D01*
X120715652Y-113901595D01*
X146657142Y-118152380D02*
X146323809Y-117676190D01*
X146085714Y-118152380D02*
X146085714Y-117152380D01*
X146466666Y-117152380D01*
X146561904Y-117200000D01*
X146609523Y-117247619D01*
X146657142Y-117342857D01*
X146657142Y-117485714D01*
X146609523Y-117580952D01*
X146561904Y-117628571D01*
X146466666Y-117676190D01*
X146085714Y-117676190D01*
X147609523Y-118152380D02*
X147038095Y-118152380D01*
X147323809Y-118152380D02*
X147323809Y-117152380D01*
X147228571Y-117295238D01*
X147133333Y-117390476D01*
X147038095Y-117438095D01*
X148466666Y-117152380D02*
X148276190Y-117152380D01*
X148180952Y-117200000D01*
X148133333Y-117247619D01*
X148038095Y-117390476D01*
X147990476Y-117580952D01*
X147990476Y-117961904D01*
X148038095Y-118057142D01*
X148085714Y-118104761D01*
X148180952Y-118152380D01*
X148371428Y-118152380D01*
X148466666Y-118104761D01*
X148514285Y-118057142D01*
X148561904Y-117961904D01*
X148561904Y-117723809D01*
X148514285Y-117628571D01*
X148466666Y-117580952D01*
X148371428Y-117533333D01*
X148180952Y-117533333D01*
X148085714Y-117580952D01*
X148038095Y-117628571D01*
X147990476Y-117723809D01*
X100952380Y-102842857D02*
X100476190Y-103176190D01*
X100952380Y-103414285D02*
X99952380Y-103414285D01*
X99952380Y-103033333D01*
X100000000Y-102938095D01*
X100047619Y-102890476D01*
X100142857Y-102842857D01*
X100285714Y-102842857D01*
X100380952Y-102890476D01*
X100428571Y-102938095D01*
X100476190Y-103033333D01*
X100476190Y-103414285D01*
X100952380Y-101890476D02*
X100952380Y-102461904D01*
X100952380Y-102176190D02*
X99952380Y-102176190D01*
X100095238Y-102271428D01*
X100190476Y-102366666D01*
X100238095Y-102461904D01*
X99952380Y-100985714D02*
X99952380Y-101461904D01*
X100428571Y-101509523D01*
X100380952Y-101461904D01*
X100333333Y-101366666D01*
X100333333Y-101128571D01*
X100380952Y-101033333D01*
X100428571Y-100985714D01*
X100523809Y-100938095D01*
X100761904Y-100938095D01*
X100857142Y-100985714D01*
X100904761Y-101033333D01*
X100952380Y-101128571D01*
X100952380Y-101366666D01*
X100904761Y-101461904D01*
X100857142Y-101509523D01*
X126028580Y-102942857D02*
X125552390Y-103276190D01*
X126028580Y-103514285D02*
X125028580Y-103514285D01*
X125028580Y-103133333D01*
X125076200Y-103038095D01*
X125123819Y-102990476D01*
X125219057Y-102942857D01*
X125361914Y-102942857D01*
X125457152Y-102990476D01*
X125504771Y-103038095D01*
X125552390Y-103133333D01*
X125552390Y-103514285D01*
X126028580Y-101990476D02*
X126028580Y-102561904D01*
X126028580Y-102276190D02*
X125028580Y-102276190D01*
X125171438Y-102371428D01*
X125266676Y-102466666D01*
X125314295Y-102561904D01*
X125361914Y-101133333D02*
X126028580Y-101133333D01*
X124980961Y-101371428D02*
X125695247Y-101609523D01*
X125695247Y-100990476D01*
X151130180Y-102942857D02*
X150653990Y-103276190D01*
X151130180Y-103514285D02*
X150130180Y-103514285D01*
X150130180Y-103133333D01*
X150177800Y-103038095D01*
X150225419Y-102990476D01*
X150320657Y-102942857D01*
X150463514Y-102942857D01*
X150558752Y-102990476D01*
X150606371Y-103038095D01*
X150653990Y-103133333D01*
X150653990Y-103514285D01*
X151130180Y-101990476D02*
X151130180Y-102561904D01*
X151130180Y-102276190D02*
X150130180Y-102276190D01*
X150273038Y-102371428D01*
X150368276Y-102466666D01*
X150415895Y-102561904D01*
X151130180Y-101038095D02*
X151130180Y-101609523D01*
X151130180Y-101323809D02*
X150130180Y-101323809D01*
X150273038Y-101419047D01*
X150368276Y-101514285D01*
X150415895Y-101609523D01*
X110033333Y-113652380D02*
X109700000Y-113176190D01*
X109461904Y-113652380D02*
X109461904Y-112652380D01*
X109842857Y-112652380D01*
X109938095Y-112700000D01*
X109985714Y-112747619D01*
X110033333Y-112842857D01*
X110033333Y-112985714D01*
X109985714Y-113080952D01*
X109938095Y-113128571D01*
X109842857Y-113176190D01*
X109461904Y-113176190D01*
X110890476Y-112652380D02*
X110700000Y-112652380D01*
X110604761Y-112700000D01*
X110557142Y-112747619D01*
X110461904Y-112890476D01*
X110414285Y-113080952D01*
X110414285Y-113461904D01*
X110461904Y-113557142D01*
X110509523Y-113604761D01*
X110604761Y-113652380D01*
X110795238Y-113652380D01*
X110890476Y-113604761D01*
X110938095Y-113557142D01*
X110985714Y-113461904D01*
X110985714Y-113223809D01*
X110938095Y-113128571D01*
X110890476Y-113080952D01*
X110795238Y-113033333D01*
X110604761Y-113033333D01*
X110509523Y-113080952D01*
X110461904Y-113128571D01*
X110414285Y-113223809D01*
X135033333Y-113652380D02*
X134700000Y-113176190D01*
X134461904Y-113652380D02*
X134461904Y-112652380D01*
X134842857Y-112652380D01*
X134938095Y-112700000D01*
X134985714Y-112747619D01*
X135033333Y-112842857D01*
X135033333Y-112985714D01*
X134985714Y-113080952D01*
X134938095Y-113128571D01*
X134842857Y-113176190D01*
X134461904Y-113176190D01*
X135938095Y-112652380D02*
X135461904Y-112652380D01*
X135414285Y-113128571D01*
X135461904Y-113080952D01*
X135557142Y-113033333D01*
X135795238Y-113033333D01*
X135890476Y-113080952D01*
X135938095Y-113128571D01*
X135985714Y-113223809D01*
X135985714Y-113461904D01*
X135938095Y-113557142D01*
X135890476Y-113604761D01*
X135795238Y-113652380D01*
X135557142Y-113652380D01*
X135461904Y-113604761D01*
X135414285Y-113557142D01*
X160033333Y-113652380D02*
X159700000Y-113176190D01*
X159461904Y-113652380D02*
X159461904Y-112652380D01*
X159842857Y-112652380D01*
X159938095Y-112700000D01*
X159985714Y-112747619D01*
X160033333Y-112842857D01*
X160033333Y-112985714D01*
X159985714Y-113080952D01*
X159938095Y-113128571D01*
X159842857Y-113176190D01*
X159461904Y-113176190D01*
X160890476Y-112985714D02*
X160890476Y-113652380D01*
X160652380Y-112604761D02*
X160414285Y-113319047D01*
X161033333Y-113319047D01*
X104252380Y-102800000D02*
X103776190Y-103133333D01*
X104252380Y-103371428D02*
X103252380Y-103371428D01*
X103252380Y-102990476D01*
X103300000Y-102895238D01*
X103347619Y-102847619D01*
X103442857Y-102800000D01*
X103585714Y-102800000D01*
X103680952Y-102847619D01*
X103728571Y-102895238D01*
X103776190Y-102990476D01*
X103776190Y-103371428D01*
X104252380Y-102371428D02*
X103585714Y-102371428D01*
X103776190Y-102371428D02*
X103680952Y-102323809D01*
X103633333Y-102276190D01*
X103585714Y-102180952D01*
X103585714Y-102085714D01*
X129252380Y-102966666D02*
X128776190Y-103300000D01*
X129252380Y-103538095D02*
X128252380Y-103538095D01*
X128252380Y-103157142D01*
X128300000Y-103061904D01*
X128347619Y-103014285D01*
X128442857Y-102966666D01*
X128585714Y-102966666D01*
X128680952Y-103014285D01*
X128728571Y-103061904D01*
X128776190Y-103157142D01*
X128776190Y-103538095D01*
X128347619Y-102585714D02*
X128300000Y-102538095D01*
X128252380Y-102442857D01*
X128252380Y-102204761D01*
X128300000Y-102109523D01*
X128347619Y-102061904D01*
X128442857Y-102014285D01*
X128538095Y-102014285D01*
X128680952Y-102061904D01*
X129252380Y-102633333D01*
X129252380Y-102014285D01*
X154190880Y-102966666D02*
X153714690Y-103300000D01*
X154190880Y-103538095D02*
X153190880Y-103538095D01*
X153190880Y-103157142D01*
X153238500Y-103061904D01*
X153286119Y-103014285D01*
X153381357Y-102966666D01*
X153524214Y-102966666D01*
X153619452Y-103014285D01*
X153667071Y-103061904D01*
X153714690Y-103157142D01*
X153714690Y-103538095D01*
X154190880Y-102014285D02*
X154190880Y-102585714D01*
X154190880Y-102300000D02*
X153190880Y-102300000D01*
X153333738Y-102395238D01*
X153428976Y-102490476D01*
X153476595Y-102585714D01*
X103528571Y-118647619D02*
X103433333Y-118600000D01*
X103338095Y-118504761D01*
X103195238Y-118361904D01*
X103100000Y-118314285D01*
X103004761Y-118314285D01*
X103052380Y-118552380D02*
X102957142Y-118504761D01*
X102861904Y-118409523D01*
X102814285Y-118219047D01*
X102814285Y-117885714D01*
X102861904Y-117695238D01*
X102957142Y-117600000D01*
X103052380Y-117552380D01*
X103242857Y-117552380D01*
X103338095Y-117600000D01*
X103433333Y-117695238D01*
X103480952Y-117885714D01*
X103480952Y-118219047D01*
X103433333Y-118409523D01*
X103338095Y-118504761D01*
X103242857Y-118552380D01*
X103052380Y-118552380D01*
X103861904Y-117647619D02*
X103909523Y-117600000D01*
X104004761Y-117552380D01*
X104242857Y-117552380D01*
X104338095Y-117600000D01*
X104385714Y-117647619D01*
X104433333Y-117742857D01*
X104433333Y-117838095D01*
X104385714Y-117980952D01*
X103814285Y-118552380D01*
X104433333Y-118552380D01*
X105338095Y-117552380D02*
X104861904Y-117552380D01*
X104814285Y-118028571D01*
X104861904Y-117980952D01*
X104957142Y-117933333D01*
X105195238Y-117933333D01*
X105290476Y-117980952D01*
X105338095Y-118028571D01*
X105385714Y-118123809D01*
X105385714Y-118361904D01*
X105338095Y-118457142D01*
X105290476Y-118504761D01*
X105195238Y-118552380D01*
X104957142Y-118552380D01*
X104861904Y-118504761D01*
X104814285Y-118457142D01*
X128424371Y-118297519D02*
X128329133Y-118249900D01*
X128233895Y-118154661D01*
X128091038Y-118011804D01*
X127995800Y-117964185D01*
X127900561Y-117964185D01*
X127948180Y-118202280D02*
X127852942Y-118154661D01*
X127757704Y-118059423D01*
X127710085Y-117868947D01*
X127710085Y-117535614D01*
X127757704Y-117345138D01*
X127852942Y-117249900D01*
X127948180Y-117202280D01*
X128138657Y-117202280D01*
X128233895Y-117249900D01*
X128329133Y-117345138D01*
X128376752Y-117535614D01*
X128376752Y-117868947D01*
X128329133Y-118059423D01*
X128233895Y-118154661D01*
X128138657Y-118202280D01*
X127948180Y-118202280D01*
X128757704Y-117297519D02*
X128805323Y-117249900D01*
X128900561Y-117202280D01*
X129138657Y-117202280D01*
X129233895Y-117249900D01*
X129281514Y-117297519D01*
X129329133Y-117392757D01*
X129329133Y-117487995D01*
X129281514Y-117630852D01*
X128710085Y-118202280D01*
X129329133Y-118202280D01*
X130186276Y-117535614D02*
X130186276Y-118202280D01*
X129948180Y-117154661D02*
X129710085Y-117868947D01*
X130329133Y-117868947D01*
X153449771Y-118234019D02*
X153354533Y-118186400D01*
X153259295Y-118091161D01*
X153116438Y-117948304D01*
X153021200Y-117900685D01*
X152925961Y-117900685D01*
X152973580Y-118138780D02*
X152878342Y-118091161D01*
X152783104Y-117995923D01*
X152735485Y-117805447D01*
X152735485Y-117472114D01*
X152783104Y-117281638D01*
X152878342Y-117186400D01*
X152973580Y-117138780D01*
X153164057Y-117138780D01*
X153259295Y-117186400D01*
X153354533Y-117281638D01*
X153402152Y-117472114D01*
X153402152Y-117805447D01*
X153354533Y-117995923D01*
X153259295Y-118091161D01*
X153164057Y-118138780D01*
X152973580Y-118138780D01*
X153783104Y-117234019D02*
X153830723Y-117186400D01*
X153925961Y-117138780D01*
X154164057Y-117138780D01*
X154259295Y-117186400D01*
X154306914Y-117234019D01*
X154354533Y-117329257D01*
X154354533Y-117424495D01*
X154306914Y-117567352D01*
X153735485Y-118138780D01*
X154354533Y-118138780D01*
X154687866Y-117138780D02*
X155306914Y-117138780D01*
X154973580Y-117519733D01*
X155116438Y-117519733D01*
X155211676Y-117567352D01*
X155259295Y-117614971D01*
X155306914Y-117710209D01*
X155306914Y-117948304D01*
X155259295Y-118043542D01*
X155211676Y-118091161D01*
X155116438Y-118138780D01*
X154830723Y-118138780D01*
X154735485Y-118091161D01*
X154687866Y-118043542D01*
X99855671Y-118247619D02*
X99760433Y-118200000D01*
X99665195Y-118104761D01*
X99522338Y-117961904D01*
X99427100Y-117914285D01*
X99331861Y-117914285D01*
X99379480Y-118152380D02*
X99284242Y-118104761D01*
X99189004Y-118009523D01*
X99141385Y-117819047D01*
X99141385Y-117485714D01*
X99189004Y-117295238D01*
X99284242Y-117200000D01*
X99379480Y-117152380D01*
X99569957Y-117152380D01*
X99665195Y-117200000D01*
X99760433Y-117295238D01*
X99808052Y-117485714D01*
X99808052Y-117819047D01*
X99760433Y-118009523D01*
X99665195Y-118104761D01*
X99569957Y-118152380D01*
X99379480Y-118152380D01*
X100189004Y-117247619D02*
X100236623Y-117200000D01*
X100331861Y-117152380D01*
X100569957Y-117152380D01*
X100665195Y-117200000D01*
X100712814Y-117247619D01*
X100760433Y-117342857D01*
X100760433Y-117438095D01*
X100712814Y-117580952D01*
X100141385Y-118152380D01*
X100760433Y-118152380D01*
X101141385Y-117247619D02*
X101189004Y-117200000D01*
X101284242Y-117152380D01*
X101522338Y-117152380D01*
X101617576Y-117200000D01*
X101665195Y-117247619D01*
X101712814Y-117342857D01*
X101712814Y-117438095D01*
X101665195Y-117580952D01*
X101093766Y-118152380D01*
X101712814Y-118152380D01*
X124828571Y-118247619D02*
X124733333Y-118200000D01*
X124638095Y-118104761D01*
X124495238Y-117961904D01*
X124400000Y-117914285D01*
X124304761Y-117914285D01*
X124352380Y-118152380D02*
X124257142Y-118104761D01*
X124161904Y-118009523D01*
X124114285Y-117819047D01*
X124114285Y-117485714D01*
X124161904Y-117295238D01*
X124257142Y-117200000D01*
X124352380Y-117152380D01*
X124542857Y-117152380D01*
X124638095Y-117200000D01*
X124733333Y-117295238D01*
X124780952Y-117485714D01*
X124780952Y-117819047D01*
X124733333Y-118009523D01*
X124638095Y-118104761D01*
X124542857Y-118152380D01*
X124352380Y-118152380D01*
X125161904Y-117247619D02*
X125209523Y-117200000D01*
X125304761Y-117152380D01*
X125542857Y-117152380D01*
X125638095Y-117200000D01*
X125685714Y-117247619D01*
X125733333Y-117342857D01*
X125733333Y-117438095D01*
X125685714Y-117580952D01*
X125114285Y-118152380D01*
X125733333Y-118152380D01*
X126685714Y-118152380D02*
X126114285Y-118152380D01*
X126400000Y-118152380D02*
X126400000Y-117152380D01*
X126304761Y-117295238D01*
X126209523Y-117390476D01*
X126114285Y-117438095D01*
X149795471Y-118223819D02*
X149700233Y-118176200D01*
X149604995Y-118080961D01*
X149462138Y-117938104D01*
X149366900Y-117890485D01*
X149271661Y-117890485D01*
X149319280Y-118128580D02*
X149224042Y-118080961D01*
X149128804Y-117985723D01*
X149081185Y-117795247D01*
X149081185Y-117461914D01*
X149128804Y-117271438D01*
X149224042Y-117176200D01*
X149319280Y-117128580D01*
X149509757Y-117128580D01*
X149604995Y-117176200D01*
X149700233Y-117271438D01*
X149747852Y-117461914D01*
X149747852Y-117795247D01*
X149700233Y-117985723D01*
X149604995Y-118080961D01*
X149509757Y-118128580D01*
X149319280Y-118128580D01*
X150128804Y-117223819D02*
X150176423Y-117176200D01*
X150271661Y-117128580D01*
X150509757Y-117128580D01*
X150604995Y-117176200D01*
X150652614Y-117223819D01*
X150700233Y-117319057D01*
X150700233Y-117414295D01*
X150652614Y-117557152D01*
X150081185Y-118128580D01*
X150700233Y-118128580D01*
X151319280Y-117128580D02*
X151414519Y-117128580D01*
X151509757Y-117176200D01*
X151557376Y-117223819D01*
X151604995Y-117319057D01*
X151652614Y-117509533D01*
X151652614Y-117747628D01*
X151604995Y-117938104D01*
X151557376Y-118033342D01*
X151509757Y-118080961D01*
X151414519Y-118128580D01*
X151319280Y-118128580D01*
X151224042Y-118080961D01*
X151176423Y-118033342D01*
X151128804Y-117938104D01*
X151081185Y-117747628D01*
X151081185Y-117509533D01*
X151128804Y-117319057D01*
X151176423Y-117223819D01*
X151224042Y-117176200D01*
X151319280Y-117128580D01*
X120947619Y-112171428D02*
X120900000Y-112266666D01*
X120804761Y-112361904D01*
X120661904Y-112504761D01*
X120614285Y-112600000D01*
X120614285Y-112695238D01*
X120852380Y-112647619D02*
X120804761Y-112742857D01*
X120709523Y-112838095D01*
X120519047Y-112885714D01*
X120185714Y-112885714D01*
X119995238Y-112838095D01*
X119900000Y-112742857D01*
X119852380Y-112647619D01*
X119852380Y-112457142D01*
X119900000Y-112361904D01*
X119995238Y-112266666D01*
X120185714Y-112219047D01*
X120519047Y-112219047D01*
X120709523Y-112266666D01*
X120804761Y-112361904D01*
X120852380Y-112457142D01*
X120852380Y-112647619D01*
X120852380Y-111266666D02*
X120852380Y-111838095D01*
X120852380Y-111552380D02*
X119852380Y-111552380D01*
X119995238Y-111647619D01*
X120090476Y-111742857D01*
X120138095Y-111838095D01*
X120280952Y-110695238D02*
X120233333Y-110790476D01*
X120185714Y-110838095D01*
X120090476Y-110885714D01*
X120042857Y-110885714D01*
X119947619Y-110838095D01*
X119900000Y-110790476D01*
X119852380Y-110695238D01*
X119852380Y-110504761D01*
X119900000Y-110409523D01*
X119947619Y-110361904D01*
X120042857Y-110314285D01*
X120090476Y-110314285D01*
X120185714Y-110361904D01*
X120233333Y-110409523D01*
X120280952Y-110504761D01*
X120280952Y-110695238D01*
X120328571Y-110790476D01*
X120376190Y-110838095D01*
X120471428Y-110885714D01*
X120661904Y-110885714D01*
X120757142Y-110838095D01*
X120804761Y-110790476D01*
X120852380Y-110695238D01*
X120852380Y-110504761D01*
X120804761Y-110409523D01*
X120757142Y-110361904D01*
X120661904Y-110314285D01*
X120471428Y-110314285D01*
X120376190Y-110361904D01*
X120328571Y-110409523D01*
X120280952Y-110504761D01*
X144028571Y-111447619D02*
X143933333Y-111400000D01*
X143838095Y-111304761D01*
X143695238Y-111161904D01*
X143600000Y-111114285D01*
X143504761Y-111114285D01*
X143552380Y-111352380D02*
X143457142Y-111304761D01*
X143361904Y-111209523D01*
X143314285Y-111019047D01*
X143314285Y-110685714D01*
X143361904Y-110495238D01*
X143457142Y-110400000D01*
X143552380Y-110352380D01*
X143742857Y-110352380D01*
X143838095Y-110400000D01*
X143933333Y-110495238D01*
X143980952Y-110685714D01*
X143980952Y-111019047D01*
X143933333Y-111209523D01*
X143838095Y-111304761D01*
X143742857Y-111352380D01*
X143552380Y-111352380D01*
X144933333Y-111352380D02*
X144361904Y-111352380D01*
X144647619Y-111352380D02*
X144647619Y-110352380D01*
X144552380Y-110495238D01*
X144457142Y-110590476D01*
X144361904Y-110638095D01*
X145266666Y-110352380D02*
X145933333Y-110352380D01*
X145504761Y-111352380D01*
X97328571Y-105947619D02*
X97233333Y-105900000D01*
X97138095Y-105804761D01*
X96995238Y-105661904D01*
X96900000Y-105614285D01*
X96804761Y-105614285D01*
X96852380Y-105852380D02*
X96757142Y-105804761D01*
X96661904Y-105709523D01*
X96614285Y-105519047D01*
X96614285Y-105185714D01*
X96661904Y-104995238D01*
X96757142Y-104900000D01*
X96852380Y-104852380D01*
X97042857Y-104852380D01*
X97138095Y-104900000D01*
X97233333Y-104995238D01*
X97280952Y-105185714D01*
X97280952Y-105519047D01*
X97233333Y-105709523D01*
X97138095Y-105804761D01*
X97042857Y-105852380D01*
X96852380Y-105852380D01*
X98233333Y-105852380D02*
X97661904Y-105852380D01*
X97947619Y-105852380D02*
X97947619Y-104852380D01*
X97852380Y-104995238D01*
X97757142Y-105090476D01*
X97661904Y-105138095D01*
X99090476Y-104852380D02*
X98900000Y-104852380D01*
X98804761Y-104900000D01*
X98757142Y-104947619D01*
X98661904Y-105090476D01*
X98614285Y-105280952D01*
X98614285Y-105661904D01*
X98661904Y-105757142D01*
X98709523Y-105804761D01*
X98804761Y-105852380D01*
X98995238Y-105852380D01*
X99090476Y-105804761D01*
X99138095Y-105757142D01*
X99185714Y-105661904D01*
X99185714Y-105423809D01*
X99138095Y-105328571D01*
X99090476Y-105280952D01*
X98995238Y-105233333D01*
X98804761Y-105233333D01*
X98709523Y-105280952D01*
X98661904Y-105328571D01*
X98614285Y-105423809D01*
X120947619Y-108571428D02*
X120900000Y-108666666D01*
X120804761Y-108761904D01*
X120661904Y-108904761D01*
X120614285Y-109000000D01*
X120614285Y-109095238D01*
X120852380Y-109047619D02*
X120804761Y-109142857D01*
X120709523Y-109238095D01*
X120519047Y-109285714D01*
X120185714Y-109285714D01*
X119995238Y-109238095D01*
X119900000Y-109142857D01*
X119852380Y-109047619D01*
X119852380Y-108857142D01*
X119900000Y-108761904D01*
X119995238Y-108666666D01*
X120185714Y-108619047D01*
X120519047Y-108619047D01*
X120709523Y-108666666D01*
X120804761Y-108761904D01*
X120852380Y-108857142D01*
X120852380Y-109047619D01*
X120852380Y-107666666D02*
X120852380Y-108238095D01*
X120852380Y-107952380D02*
X119852380Y-107952380D01*
X119995238Y-108047619D01*
X120090476Y-108142857D01*
X120138095Y-108238095D01*
X119852380Y-106761904D02*
X119852380Y-107238095D01*
X120328571Y-107285714D01*
X120280952Y-107238095D01*
X120233333Y-107142857D01*
X120233333Y-106904761D01*
X120280952Y-106809523D01*
X120328571Y-106761904D01*
X120423809Y-106714285D01*
X120661904Y-106714285D01*
X120757142Y-106761904D01*
X120804761Y-106809523D01*
X120852380Y-106904761D01*
X120852380Y-107142857D01*
X120804761Y-107238095D01*
X120757142Y-107285714D01*
X144013871Y-108712719D02*
X143918633Y-108665100D01*
X143823395Y-108569861D01*
X143680538Y-108427004D01*
X143585300Y-108379385D01*
X143490061Y-108379385D01*
X143537680Y-108617480D02*
X143442442Y-108569861D01*
X143347204Y-108474623D01*
X143299585Y-108284147D01*
X143299585Y-107950814D01*
X143347204Y-107760338D01*
X143442442Y-107665100D01*
X143537680Y-107617480D01*
X143728157Y-107617480D01*
X143823395Y-107665100D01*
X143918633Y-107760338D01*
X143966252Y-107950814D01*
X143966252Y-108284147D01*
X143918633Y-108474623D01*
X143823395Y-108569861D01*
X143728157Y-108617480D01*
X143537680Y-108617480D01*
X144918633Y-108617480D02*
X144347204Y-108617480D01*
X144632919Y-108617480D02*
X144632919Y-107617480D01*
X144537680Y-107760338D01*
X144442442Y-107855576D01*
X144347204Y-107903195D01*
X145775776Y-107950814D02*
X145775776Y-108617480D01*
X145537680Y-107569861D02*
X145299585Y-108284147D01*
X145918633Y-108284147D01*
X110547619Y-110871428D02*
X110500000Y-110966666D01*
X110404761Y-111061904D01*
X110261904Y-111204761D01*
X110214285Y-111300000D01*
X110214285Y-111395238D01*
X110452380Y-111347619D02*
X110404761Y-111442857D01*
X110309523Y-111538095D01*
X110119047Y-111585714D01*
X109785714Y-111585714D01*
X109595238Y-111538095D01*
X109500000Y-111442857D01*
X109452380Y-111347619D01*
X109452380Y-111157142D01*
X109500000Y-111061904D01*
X109595238Y-110966666D01*
X109785714Y-110919047D01*
X110119047Y-110919047D01*
X110309523Y-110966666D01*
X110404761Y-111061904D01*
X110452380Y-111157142D01*
X110452380Y-111347619D01*
X110452380Y-109966666D02*
X110452380Y-110538095D01*
X110452380Y-110252380D02*
X109452380Y-110252380D01*
X109595238Y-110347619D01*
X109690476Y-110442857D01*
X109738095Y-110538095D01*
X109452380Y-109633333D02*
X109452380Y-109014285D01*
X109833333Y-109347619D01*
X109833333Y-109204761D01*
X109880952Y-109109523D01*
X109928571Y-109061904D01*
X110023809Y-109014285D01*
X110261904Y-109014285D01*
X110357142Y-109061904D01*
X110404761Y-109109523D01*
X110452380Y-109204761D01*
X110452380Y-109490476D01*
X110404761Y-109585714D01*
X110357142Y-109633333D01*
X160128571Y-110047619D02*
X160033333Y-110000000D01*
X159938095Y-109904761D01*
X159795238Y-109761904D01*
X159700000Y-109714285D01*
X159604761Y-109714285D01*
X159652380Y-109952380D02*
X159557142Y-109904761D01*
X159461904Y-109809523D01*
X159414285Y-109619047D01*
X159414285Y-109285714D01*
X159461904Y-109095238D01*
X159557142Y-109000000D01*
X159652380Y-108952380D01*
X159842857Y-108952380D01*
X159938095Y-109000000D01*
X160033333Y-109095238D01*
X160080952Y-109285714D01*
X160080952Y-109619047D01*
X160033333Y-109809523D01*
X159938095Y-109904761D01*
X159842857Y-109952380D01*
X159652380Y-109952380D01*
X161033333Y-109952380D02*
X160461904Y-109952380D01*
X160747619Y-109952380D02*
X160747619Y-108952380D01*
X160652380Y-109095238D01*
X160557142Y-109190476D01*
X160461904Y-109238095D01*
X161985714Y-109952380D02*
X161414285Y-109952380D01*
X161700000Y-109952380D02*
X161700000Y-108952380D01*
X161604761Y-109095238D01*
X161509523Y-109190476D01*
X161414285Y-109238095D01*
X106828571Y-104847619D02*
X106733333Y-104800000D01*
X106638095Y-104704761D01*
X106495238Y-104561904D01*
X106400000Y-104514285D01*
X106304761Y-104514285D01*
X106352380Y-104752380D02*
X106257142Y-104704761D01*
X106161904Y-104609523D01*
X106114285Y-104419047D01*
X106114285Y-104085714D01*
X106161904Y-103895238D01*
X106257142Y-103800000D01*
X106352380Y-103752380D01*
X106542857Y-103752380D01*
X106638095Y-103800000D01*
X106733333Y-103895238D01*
X106780952Y-104085714D01*
X106780952Y-104419047D01*
X106733333Y-104609523D01*
X106638095Y-104704761D01*
X106542857Y-104752380D01*
X106352380Y-104752380D01*
X107733333Y-104752380D02*
X107161904Y-104752380D01*
X107447619Y-104752380D02*
X107447619Y-103752380D01*
X107352380Y-103895238D01*
X107257142Y-103990476D01*
X107161904Y-104038095D01*
X108352380Y-103752380D02*
X108447619Y-103752380D01*
X108542857Y-103800000D01*
X108590476Y-103847619D01*
X108638095Y-103942857D01*
X108685714Y-104133333D01*
X108685714Y-104371428D01*
X108638095Y-104561904D01*
X108590476Y-104657142D01*
X108542857Y-104704761D01*
X108447619Y-104752380D01*
X108352380Y-104752380D01*
X108257142Y-104704761D01*
X108209523Y-104657142D01*
X108161904Y-104561904D01*
X108114285Y-104371428D01*
X108114285Y-104133333D01*
X108161904Y-103942857D01*
X108209523Y-103847619D01*
X108257142Y-103800000D01*
X108352380Y-103752380D01*
X132404761Y-104847619D02*
X132309523Y-104800000D01*
X132214285Y-104704761D01*
X132071428Y-104561904D01*
X131976190Y-104514285D01*
X131880952Y-104514285D01*
X131928571Y-104752380D02*
X131833333Y-104704761D01*
X131738095Y-104609523D01*
X131690476Y-104419047D01*
X131690476Y-104085714D01*
X131738095Y-103895238D01*
X131833333Y-103800000D01*
X131928571Y-103752380D01*
X132119047Y-103752380D01*
X132214285Y-103800000D01*
X132309523Y-103895238D01*
X132357142Y-104085714D01*
X132357142Y-104419047D01*
X132309523Y-104609523D01*
X132214285Y-104704761D01*
X132119047Y-104752380D01*
X131928571Y-104752380D01*
X132833333Y-104752380D02*
X133023809Y-104752380D01*
X133119047Y-104704761D01*
X133166666Y-104657142D01*
X133261904Y-104514285D01*
X133309523Y-104323809D01*
X133309523Y-103942857D01*
X133261904Y-103847619D01*
X133214285Y-103800000D01*
X133119047Y-103752380D01*
X132928571Y-103752380D01*
X132833333Y-103800000D01*
X132785714Y-103847619D01*
X132738095Y-103942857D01*
X132738095Y-104180952D01*
X132785714Y-104276190D01*
X132833333Y-104323809D01*
X132928571Y-104371428D01*
X133119047Y-104371428D01*
X133214285Y-104323809D01*
X133261904Y-104276190D01*
X133309523Y-104180952D01*
X160104761Y-106247619D02*
X160009523Y-106200000D01*
X159914285Y-106104761D01*
X159771428Y-105961904D01*
X159676190Y-105914285D01*
X159580952Y-105914285D01*
X159628571Y-106152380D02*
X159533333Y-106104761D01*
X159438095Y-106009523D01*
X159390476Y-105819047D01*
X159390476Y-105485714D01*
X159438095Y-105295238D01*
X159533333Y-105200000D01*
X159628571Y-105152380D01*
X159819047Y-105152380D01*
X159914285Y-105200000D01*
X160009523Y-105295238D01*
X160057142Y-105485714D01*
X160057142Y-105819047D01*
X160009523Y-106009523D01*
X159914285Y-106104761D01*
X159819047Y-106152380D01*
X159628571Y-106152380D01*
X160628571Y-105580952D02*
X160533333Y-105533333D01*
X160485714Y-105485714D01*
X160438095Y-105390476D01*
X160438095Y-105342857D01*
X160485714Y-105247619D01*
X160533333Y-105200000D01*
X160628571Y-105152380D01*
X160819047Y-105152380D01*
X160914285Y-105200000D01*
X160961904Y-105247619D01*
X161009523Y-105342857D01*
X161009523Y-105390476D01*
X160961904Y-105485714D01*
X160914285Y-105533333D01*
X160819047Y-105580952D01*
X160628571Y-105580952D01*
X160533333Y-105628571D01*
X160485714Y-105676190D01*
X160438095Y-105771428D01*
X160438095Y-105961904D01*
X160485714Y-106057142D01*
X160533333Y-106104761D01*
X160628571Y-106152380D01*
X160819047Y-106152380D01*
X160914285Y-106104761D01*
X160961904Y-106057142D01*
X161009523Y-105961904D01*
X161009523Y-105771428D01*
X160961904Y-105676190D01*
X160914285Y-105628571D01*
X160819047Y-105580952D01*
M02*
