M48
; DRILL file {KiCad (5.1.2)-2} date 3/5/2020 7:46:50 PM
; FORMAT={-:-/ absolute / metric / decimal}
; #@! TF.CreationDate,2020-03-05T19:46:50-05:00
; #@! TF.GenerationSoftware,Kicad,Pcbnew,(5.1.2)-2
; #@! TF.FileFunction,Plated,1,2,PTH
FMAT,2
METRIC
T1C0.300
T2C0.400
T3C1.000
T4C1.700
%
G90
G05
T1
X111.25Y-111.35
X111.25Y-112.35
X111.25Y-113.35
X111.25Y-114.35
X111.25Y-115.35
X112.25Y-111.35
X112.25Y-112.35
X112.25Y-113.35
X112.25Y-114.35
X112.25Y-115.35
X113.25Y-111.35
X113.25Y-112.35
X113.25Y-113.35
X113.25Y-114.35
X113.25Y-115.35
X114.25Y-111.35
X114.25Y-112.35
X114.25Y-113.35
X114.25Y-114.35
X114.25Y-115.35
X115.25Y-111.35
X115.25Y-112.35
X115.25Y-113.35
X115.25Y-114.35
X115.25Y-115.35
X116.25Y-111.35
X116.25Y-112.35
X116.25Y-113.35
X116.25Y-114.35
X116.25Y-115.35
X117.25Y-111.35
X117.25Y-112.35
X117.25Y-113.35
X117.25Y-114.35
X117.25Y-115.35
X118.25Y-111.35
X118.25Y-112.35
X118.25Y-113.35
X118.25Y-114.35
X118.25Y-115.35
X119.25Y-111.35
X119.25Y-112.35
X119.25Y-113.35
X119.25Y-114.35
X119.25Y-115.35
X138.862Y-109.2
X140.45Y-109.2
X161.45Y-111.35
X161.45Y-112.35
X161.45Y-113.35
X161.45Y-114.35
X161.45Y-115.35
X162.45Y-111.35
X162.45Y-112.35
X162.45Y-113.35
X162.45Y-114.35
X162.45Y-115.35
X163.45Y-111.35
X163.45Y-112.35
X163.45Y-113.35
X163.45Y-114.35
X163.45Y-115.35
X164.45Y-111.35
X164.45Y-112.35
X164.45Y-113.35
X164.45Y-114.35
X164.45Y-115.35
X165.45Y-111.35
X165.45Y-112.35
X165.45Y-113.35
X165.45Y-114.35
X165.45Y-115.35
X166.45Y-111.35
X166.45Y-112.35
X166.45Y-113.35
X166.45Y-114.35
X166.45Y-115.35
X167.45Y-111.35
X167.45Y-112.35
X167.45Y-113.35
X167.45Y-114.35
X167.45Y-115.35
X168.45Y-111.35
X168.45Y-112.35
X168.45Y-113.35
X168.45Y-114.35
X168.45Y-115.35
X169.45Y-111.35
X169.45Y-112.35
X169.45Y-113.35
X169.45Y-114.35
X169.45Y-115.35
T2
X100.576Y-103.1
X100.7Y-107.1
X101.9Y-107.1
X102.189Y-101.4
X103.1Y-107.1
X103.1Y-113.1
X103.764Y-102.25
X104.2Y-107.1
X125.576Y-103.1
X126.0Y-107.1
X127.0Y-107.1
X127.189Y-101.4
X128.1Y-107.1
X128.1Y-113.1
X128.764Y-102.25
X136.35Y-114.55
X137.35Y-115.15
X139.3Y-116.55
X139.3Y-118.8
X140.05Y-101.4
X140.05Y-105.0
X140.65Y-116.55
X144.45Y-102.7
X145.175Y-109.567
X150.576Y-103.1
X150.6Y-107.1
X151.9Y-107.1
X152.189Y-101.4
X153.1Y-107.1
X153.123Y-113.1
X153.764Y-102.25
X154.2Y-107.1
X175.576Y-103.1
X175.6Y-107.1
X176.9Y-107.1
X177.189Y-101.4
X178.1Y-107.1
X178.1Y-113.1
X178.764Y-102.25
X179.2Y-107.1
T3
X188.0Y-108.5
X188.0Y-111.5
X92.0Y-108.5
X92.0Y-111.5
T4
X186.5Y-105.6
X186.5Y-114.4
X93.5Y-105.6
X93.5Y-114.4
T0
M30
