G04 #@! TF.GenerationSoftware,KiCad,Pcbnew,(5.1.4)-1*
G04 #@! TF.CreationDate,2020-03-11T16:36:07-04:00*
G04 #@! TF.ProjectId,MicSwitchBoard,4d696353-7769-4746-9368-426f6172642e,rev?*
G04 #@! TF.SameCoordinates,Original*
G04 #@! TF.FileFunction,Copper,L1,Top*
G04 #@! TF.FilePolarity,Positive*
%FSLAX46Y46*%
G04 Gerber Fmt 4.6, Leading zero omitted, Abs format (unit mm)*
G04 Created by KiCad (PCBNEW (5.1.4)-1) date 2020-03-11 16:36:07*
%MOMM*%
%LPD*%
G04 APERTURE LIST*
%ADD10O,3.000000X2.000000*%
%ADD11O,1.700000X1.700000*%
%ADD12R,1.700000X1.700000*%
%ADD13C,0.800000*%
%ADD14C,0.508000*%
%ADD15C,0.250000*%
%ADD16C,0.254000*%
G04 APERTURE END LIST*
D10*
X132300000Y-68835000D03*
X131760000Y-66165000D03*
X128350000Y-68835000D03*
X127810000Y-66165000D03*
X124400000Y-68835000D03*
X123860000Y-66165000D03*
D11*
X116000000Y-65420000D03*
X116000000Y-67960000D03*
D12*
X116000000Y-70500000D03*
D11*
X136500000Y-77790000D03*
D12*
X136500000Y-75250000D03*
D13*
X130500000Y-72750000D03*
X116500000Y-78250000D03*
X120250000Y-77250000D03*
X126750000Y-79000000D03*
X132800000Y-78200000D03*
X126500000Y-76500000D03*
D14*
X127850000Y-66725000D02*
X128410000Y-66165000D01*
X127850000Y-68835000D02*
X127850000Y-66725000D01*
D15*
X126000000Y-76000000D02*
X126500000Y-76500000D01*
X120400000Y-76000000D02*
X126000000Y-76000000D01*
X116000000Y-70500000D02*
X116000000Y-71600000D01*
X116000000Y-71600000D02*
X120400000Y-76000000D01*
D14*
X131800000Y-66725000D02*
X132360000Y-66165000D01*
X131800000Y-68835000D02*
X131800000Y-66725000D01*
X116430000Y-65850000D02*
X116000000Y-65420000D01*
X124200000Y-65850000D02*
X116430000Y-65850000D01*
X123900000Y-66725000D02*
X124460000Y-66165000D01*
X123900000Y-68835000D02*
X123900000Y-66725000D01*
D16*
G36*
X133585241Y-62685363D02*
G01*
X133385363Y-62885241D01*
X133228320Y-63120273D01*
X133120147Y-63381426D01*
X133065000Y-63658665D01*
X133065000Y-63941335D01*
X133120147Y-64218574D01*
X133228320Y-64479727D01*
X133385363Y-64714759D01*
X133585241Y-64914637D01*
X133820273Y-65071680D01*
X134081426Y-65179853D01*
X134358665Y-65235000D01*
X134641335Y-65235000D01*
X134918574Y-65179853D01*
X135179727Y-65071680D01*
X135414759Y-64914637D01*
X135614637Y-64714759D01*
X135771680Y-64479727D01*
X135879853Y-64218574D01*
X135935000Y-63941335D01*
X135935000Y-63658665D01*
X135879853Y-63381426D01*
X135771680Y-63120273D01*
X135614637Y-62885241D01*
X135414759Y-62685363D01*
X135227140Y-62560000D01*
X137517721Y-62560000D01*
X137654270Y-62573389D01*
X137754573Y-62603672D01*
X137847080Y-62652859D01*
X137928273Y-62719079D01*
X137995057Y-62799808D01*
X138044888Y-62891967D01*
X138075871Y-62992056D01*
X138090001Y-63126494D01*
X138090000Y-78767720D01*
X138076611Y-78904269D01*
X138046327Y-79004575D01*
X137997142Y-79097080D01*
X137930921Y-79178274D01*
X137850195Y-79245056D01*
X137758031Y-79294889D01*
X137657945Y-79325871D01*
X137523515Y-79340000D01*
X115232280Y-79340000D01*
X115095731Y-79326611D01*
X114995425Y-79296327D01*
X114902920Y-79247142D01*
X114821726Y-79180921D01*
X114754944Y-79100195D01*
X114705111Y-79008031D01*
X114674129Y-78907945D01*
X114660000Y-78773515D01*
X114660000Y-77790000D01*
X135007815Y-77790000D01*
X135036487Y-78081111D01*
X135121401Y-78361034D01*
X135259294Y-78619014D01*
X135444866Y-78845134D01*
X135670986Y-79030706D01*
X135928966Y-79168599D01*
X136208889Y-79253513D01*
X136427050Y-79275000D01*
X136572950Y-79275000D01*
X136791111Y-79253513D01*
X137071034Y-79168599D01*
X137329014Y-79030706D01*
X137555134Y-78845134D01*
X137740706Y-78619014D01*
X137878599Y-78361034D01*
X137963513Y-78081111D01*
X137992185Y-77790000D01*
X137963513Y-77498889D01*
X137878599Y-77218966D01*
X137740706Y-76960986D01*
X137555134Y-76734866D01*
X137525313Y-76710393D01*
X137594180Y-76689502D01*
X137704494Y-76630537D01*
X137801185Y-76551185D01*
X137880537Y-76454494D01*
X137939502Y-76344180D01*
X137975812Y-76224482D01*
X137988072Y-76100000D01*
X137988072Y-74400000D01*
X137975812Y-74275518D01*
X137939502Y-74155820D01*
X137880537Y-74045506D01*
X137801185Y-73948815D01*
X137704494Y-73869463D01*
X137594180Y-73810498D01*
X137474482Y-73774188D01*
X137350000Y-73761928D01*
X135650000Y-73761928D01*
X135525518Y-73774188D01*
X135405820Y-73810498D01*
X135295506Y-73869463D01*
X135198815Y-73948815D01*
X135119463Y-74045506D01*
X135060498Y-74155820D01*
X135024188Y-74275518D01*
X135011928Y-74400000D01*
X135011928Y-76100000D01*
X135024188Y-76224482D01*
X135060498Y-76344180D01*
X135119463Y-76454494D01*
X135198815Y-76551185D01*
X135295506Y-76630537D01*
X135405820Y-76689502D01*
X135474687Y-76710393D01*
X135444866Y-76734866D01*
X135259294Y-76960986D01*
X135121401Y-77218966D01*
X135036487Y-77498889D01*
X135007815Y-77790000D01*
X114660000Y-77790000D01*
X114660000Y-71753889D01*
X114698815Y-71801185D01*
X114795506Y-71880537D01*
X114905820Y-71939502D01*
X115025518Y-71975812D01*
X115150000Y-71988072D01*
X115345674Y-71988072D01*
X115365026Y-72024276D01*
X115436201Y-72111002D01*
X115460000Y-72140001D01*
X115488998Y-72163799D01*
X119836200Y-76511002D01*
X119859999Y-76540001D01*
X119975724Y-76634974D01*
X120107753Y-76705546D01*
X120251014Y-76749003D01*
X120362667Y-76760000D01*
X120362675Y-76760000D01*
X120400000Y-76763676D01*
X120437325Y-76760000D01*
X125496440Y-76760000D01*
X125504774Y-76801898D01*
X125582795Y-76990256D01*
X125696063Y-77159774D01*
X125840226Y-77303937D01*
X126009744Y-77417205D01*
X126198102Y-77495226D01*
X126398061Y-77535000D01*
X126601939Y-77535000D01*
X126801898Y-77495226D01*
X126990256Y-77417205D01*
X127159774Y-77303937D01*
X127303937Y-77159774D01*
X127417205Y-76990256D01*
X127495226Y-76801898D01*
X127535000Y-76601939D01*
X127535000Y-76398061D01*
X127495226Y-76198102D01*
X127417205Y-76009744D01*
X127303937Y-75840226D01*
X127159774Y-75696063D01*
X126990256Y-75582795D01*
X126801898Y-75504774D01*
X126601939Y-75465000D01*
X126544105Y-75465000D01*
X126540001Y-75459999D01*
X126424276Y-75365026D01*
X126292247Y-75294454D01*
X126148986Y-75250997D01*
X126037333Y-75240000D01*
X126037322Y-75240000D01*
X126000000Y-75236324D01*
X125962678Y-75240000D01*
X120714802Y-75240000D01*
X117287345Y-71812543D01*
X117301185Y-71801185D01*
X117380537Y-71704494D01*
X117439502Y-71594180D01*
X117475812Y-71474482D01*
X117488072Y-71350000D01*
X117488072Y-71058665D01*
X120065000Y-71058665D01*
X120065000Y-71341335D01*
X120120147Y-71618574D01*
X120228320Y-71879727D01*
X120385363Y-72114759D01*
X120585241Y-72314637D01*
X120820273Y-72471680D01*
X121081426Y-72579853D01*
X121358665Y-72635000D01*
X121641335Y-72635000D01*
X121918574Y-72579853D01*
X122179727Y-72471680D01*
X122414759Y-72314637D01*
X122614637Y-72114759D01*
X122771680Y-71879727D01*
X122879853Y-71618574D01*
X122935000Y-71341335D01*
X122935000Y-71058665D01*
X122879853Y-70781426D01*
X122771680Y-70520273D01*
X122614637Y-70285241D01*
X122414759Y-70085363D01*
X122179727Y-69928320D01*
X121918574Y-69820147D01*
X121641335Y-69765000D01*
X121358665Y-69765000D01*
X121081426Y-69820147D01*
X120820273Y-69928320D01*
X120585241Y-70085363D01*
X120385363Y-70285241D01*
X120228320Y-70520273D01*
X120120147Y-70781426D01*
X120065000Y-71058665D01*
X117488072Y-71058665D01*
X117488072Y-69650000D01*
X117475812Y-69525518D01*
X117439502Y-69405820D01*
X117380537Y-69295506D01*
X117301185Y-69198815D01*
X117204494Y-69119463D01*
X117094180Y-69060498D01*
X117006123Y-69033786D01*
X117154855Y-68880795D01*
X117312303Y-68637801D01*
X117407207Y-68408659D01*
X117301281Y-68183000D01*
X116223000Y-68183000D01*
X116223000Y-68203000D01*
X115777000Y-68203000D01*
X115777000Y-68183000D01*
X115757000Y-68183000D01*
X115757000Y-67737000D01*
X115777000Y-67737000D01*
X115777000Y-67717000D01*
X116223000Y-67717000D01*
X116223000Y-67737000D01*
X117301281Y-67737000D01*
X117407207Y-67511341D01*
X117312303Y-67282199D01*
X117154855Y-67039205D01*
X116953027Y-66831597D01*
X116818593Y-66739000D01*
X121825550Y-66739000D01*
X121842148Y-66793715D01*
X121993969Y-67077752D01*
X122198286Y-67326714D01*
X122447248Y-67531031D01*
X122730694Y-67682536D01*
X122533969Y-67922248D01*
X122382148Y-68206285D01*
X122288657Y-68514484D01*
X122257089Y-68835000D01*
X122288657Y-69155516D01*
X122382148Y-69463715D01*
X122533969Y-69747752D01*
X122738286Y-69996714D01*
X122987248Y-70201031D01*
X123271285Y-70352852D01*
X123579484Y-70446343D01*
X123819678Y-70470000D01*
X124980322Y-70470000D01*
X125220516Y-70446343D01*
X125528715Y-70352852D01*
X125812752Y-70201031D01*
X126061714Y-69996714D01*
X126266031Y-69747752D01*
X126372003Y-69549493D01*
X126373307Y-69553495D01*
X126541853Y-69827778D01*
X126760670Y-70063909D01*
X127021349Y-70252814D01*
X127313873Y-70387233D01*
X127627000Y-70462000D01*
X128127000Y-70462000D01*
X128127000Y-69058000D01*
X128107000Y-69058000D01*
X128107000Y-68612000D01*
X128127000Y-68612000D01*
X128127000Y-68592000D01*
X128573000Y-68592000D01*
X128573000Y-68612000D01*
X128593000Y-68612000D01*
X128593000Y-69058000D01*
X128573000Y-69058000D01*
X128573000Y-70462000D01*
X129073000Y-70462000D01*
X129386127Y-70387233D01*
X129678651Y-70252814D01*
X129939330Y-70063909D01*
X130158147Y-69827778D01*
X130326693Y-69553495D01*
X130327997Y-69549493D01*
X130433969Y-69747752D01*
X130638286Y-69996714D01*
X130887248Y-70201031D01*
X131171285Y-70352852D01*
X131479484Y-70446343D01*
X131719678Y-70470000D01*
X132880322Y-70470000D01*
X133120516Y-70446343D01*
X133317682Y-70386534D01*
X133228320Y-70520273D01*
X133120147Y-70781426D01*
X133065000Y-71058665D01*
X133065000Y-71341335D01*
X133120147Y-71618574D01*
X133228320Y-71879727D01*
X133385363Y-72114759D01*
X133585241Y-72314637D01*
X133820273Y-72471680D01*
X134081426Y-72579853D01*
X134358665Y-72635000D01*
X134641335Y-72635000D01*
X134918574Y-72579853D01*
X135179727Y-72471680D01*
X135414759Y-72314637D01*
X135614637Y-72114759D01*
X135771680Y-71879727D01*
X135879853Y-71618574D01*
X135935000Y-71341335D01*
X135935000Y-71058665D01*
X135879853Y-70781426D01*
X135771680Y-70520273D01*
X135614637Y-70285241D01*
X135414759Y-70085363D01*
X135179727Y-69928320D01*
X134918574Y-69820147D01*
X134641335Y-69765000D01*
X134358665Y-69765000D01*
X134111533Y-69814158D01*
X134166031Y-69747752D01*
X134317852Y-69463715D01*
X134411343Y-69155516D01*
X134442911Y-68835000D01*
X134411343Y-68514484D01*
X134317852Y-68206285D01*
X134166031Y-67922248D01*
X133961714Y-67673286D01*
X133712752Y-67468969D01*
X133429306Y-67317464D01*
X133626031Y-67077752D01*
X133777852Y-66793715D01*
X133871343Y-66485516D01*
X133902911Y-66165000D01*
X133871343Y-65844484D01*
X133777852Y-65536285D01*
X133626031Y-65252248D01*
X133421714Y-65003286D01*
X133172752Y-64798969D01*
X132888715Y-64647148D01*
X132580516Y-64553657D01*
X132340322Y-64530000D01*
X131179678Y-64530000D01*
X130939484Y-64553657D01*
X130631285Y-64647148D01*
X130347248Y-64798969D01*
X130098286Y-65003286D01*
X129893969Y-65252248D01*
X129787997Y-65450507D01*
X129786693Y-65446505D01*
X129618147Y-65172222D01*
X129399330Y-64936091D01*
X129138651Y-64747186D01*
X128846127Y-64612767D01*
X128533000Y-64538000D01*
X128033000Y-64538000D01*
X128033000Y-65942000D01*
X128053000Y-65942000D01*
X128053000Y-66388000D01*
X128033000Y-66388000D01*
X128033000Y-66408000D01*
X127587000Y-66408000D01*
X127587000Y-66388000D01*
X127567000Y-66388000D01*
X127567000Y-65942000D01*
X127587000Y-65942000D01*
X127587000Y-64538000D01*
X127087000Y-64538000D01*
X126773873Y-64612767D01*
X126481349Y-64747186D01*
X126220670Y-64936091D01*
X126001853Y-65172222D01*
X125833307Y-65446505D01*
X125832003Y-65450507D01*
X125726031Y-65252248D01*
X125521714Y-65003286D01*
X125272752Y-64798969D01*
X124988715Y-64647148D01*
X124680516Y-64553657D01*
X124440322Y-64530000D01*
X123279678Y-64530000D01*
X123039484Y-64553657D01*
X122731285Y-64647148D01*
X122620106Y-64706575D01*
X122771680Y-64479727D01*
X122879853Y-64218574D01*
X122935000Y-63941335D01*
X122935000Y-63658665D01*
X122879853Y-63381426D01*
X122771680Y-63120273D01*
X122614637Y-62885241D01*
X122414759Y-62685363D01*
X122227140Y-62560000D01*
X133772860Y-62560000D01*
X133585241Y-62685363D01*
X133585241Y-62685363D01*
G37*
X133585241Y-62685363D02*
X133385363Y-62885241D01*
X133228320Y-63120273D01*
X133120147Y-63381426D01*
X133065000Y-63658665D01*
X133065000Y-63941335D01*
X133120147Y-64218574D01*
X133228320Y-64479727D01*
X133385363Y-64714759D01*
X133585241Y-64914637D01*
X133820273Y-65071680D01*
X134081426Y-65179853D01*
X134358665Y-65235000D01*
X134641335Y-65235000D01*
X134918574Y-65179853D01*
X135179727Y-65071680D01*
X135414759Y-64914637D01*
X135614637Y-64714759D01*
X135771680Y-64479727D01*
X135879853Y-64218574D01*
X135935000Y-63941335D01*
X135935000Y-63658665D01*
X135879853Y-63381426D01*
X135771680Y-63120273D01*
X135614637Y-62885241D01*
X135414759Y-62685363D01*
X135227140Y-62560000D01*
X137517721Y-62560000D01*
X137654270Y-62573389D01*
X137754573Y-62603672D01*
X137847080Y-62652859D01*
X137928273Y-62719079D01*
X137995057Y-62799808D01*
X138044888Y-62891967D01*
X138075871Y-62992056D01*
X138090001Y-63126494D01*
X138090000Y-78767720D01*
X138076611Y-78904269D01*
X138046327Y-79004575D01*
X137997142Y-79097080D01*
X137930921Y-79178274D01*
X137850195Y-79245056D01*
X137758031Y-79294889D01*
X137657945Y-79325871D01*
X137523515Y-79340000D01*
X115232280Y-79340000D01*
X115095731Y-79326611D01*
X114995425Y-79296327D01*
X114902920Y-79247142D01*
X114821726Y-79180921D01*
X114754944Y-79100195D01*
X114705111Y-79008031D01*
X114674129Y-78907945D01*
X114660000Y-78773515D01*
X114660000Y-77790000D01*
X135007815Y-77790000D01*
X135036487Y-78081111D01*
X135121401Y-78361034D01*
X135259294Y-78619014D01*
X135444866Y-78845134D01*
X135670986Y-79030706D01*
X135928966Y-79168599D01*
X136208889Y-79253513D01*
X136427050Y-79275000D01*
X136572950Y-79275000D01*
X136791111Y-79253513D01*
X137071034Y-79168599D01*
X137329014Y-79030706D01*
X137555134Y-78845134D01*
X137740706Y-78619014D01*
X137878599Y-78361034D01*
X137963513Y-78081111D01*
X137992185Y-77790000D01*
X137963513Y-77498889D01*
X137878599Y-77218966D01*
X137740706Y-76960986D01*
X137555134Y-76734866D01*
X137525313Y-76710393D01*
X137594180Y-76689502D01*
X137704494Y-76630537D01*
X137801185Y-76551185D01*
X137880537Y-76454494D01*
X137939502Y-76344180D01*
X137975812Y-76224482D01*
X137988072Y-76100000D01*
X137988072Y-74400000D01*
X137975812Y-74275518D01*
X137939502Y-74155820D01*
X137880537Y-74045506D01*
X137801185Y-73948815D01*
X137704494Y-73869463D01*
X137594180Y-73810498D01*
X137474482Y-73774188D01*
X137350000Y-73761928D01*
X135650000Y-73761928D01*
X135525518Y-73774188D01*
X135405820Y-73810498D01*
X135295506Y-73869463D01*
X135198815Y-73948815D01*
X135119463Y-74045506D01*
X135060498Y-74155820D01*
X135024188Y-74275518D01*
X135011928Y-74400000D01*
X135011928Y-76100000D01*
X135024188Y-76224482D01*
X135060498Y-76344180D01*
X135119463Y-76454494D01*
X135198815Y-76551185D01*
X135295506Y-76630537D01*
X135405820Y-76689502D01*
X135474687Y-76710393D01*
X135444866Y-76734866D01*
X135259294Y-76960986D01*
X135121401Y-77218966D01*
X135036487Y-77498889D01*
X135007815Y-77790000D01*
X114660000Y-77790000D01*
X114660000Y-71753889D01*
X114698815Y-71801185D01*
X114795506Y-71880537D01*
X114905820Y-71939502D01*
X115025518Y-71975812D01*
X115150000Y-71988072D01*
X115345674Y-71988072D01*
X115365026Y-72024276D01*
X115436201Y-72111002D01*
X115460000Y-72140001D01*
X115488998Y-72163799D01*
X119836200Y-76511002D01*
X119859999Y-76540001D01*
X119975724Y-76634974D01*
X120107753Y-76705546D01*
X120251014Y-76749003D01*
X120362667Y-76760000D01*
X120362675Y-76760000D01*
X120400000Y-76763676D01*
X120437325Y-76760000D01*
X125496440Y-76760000D01*
X125504774Y-76801898D01*
X125582795Y-76990256D01*
X125696063Y-77159774D01*
X125840226Y-77303937D01*
X126009744Y-77417205D01*
X126198102Y-77495226D01*
X126398061Y-77535000D01*
X126601939Y-77535000D01*
X126801898Y-77495226D01*
X126990256Y-77417205D01*
X127159774Y-77303937D01*
X127303937Y-77159774D01*
X127417205Y-76990256D01*
X127495226Y-76801898D01*
X127535000Y-76601939D01*
X127535000Y-76398061D01*
X127495226Y-76198102D01*
X127417205Y-76009744D01*
X127303937Y-75840226D01*
X127159774Y-75696063D01*
X126990256Y-75582795D01*
X126801898Y-75504774D01*
X126601939Y-75465000D01*
X126544105Y-75465000D01*
X126540001Y-75459999D01*
X126424276Y-75365026D01*
X126292247Y-75294454D01*
X126148986Y-75250997D01*
X126037333Y-75240000D01*
X126037322Y-75240000D01*
X126000000Y-75236324D01*
X125962678Y-75240000D01*
X120714802Y-75240000D01*
X117287345Y-71812543D01*
X117301185Y-71801185D01*
X117380537Y-71704494D01*
X117439502Y-71594180D01*
X117475812Y-71474482D01*
X117488072Y-71350000D01*
X117488072Y-71058665D01*
X120065000Y-71058665D01*
X120065000Y-71341335D01*
X120120147Y-71618574D01*
X120228320Y-71879727D01*
X120385363Y-72114759D01*
X120585241Y-72314637D01*
X120820273Y-72471680D01*
X121081426Y-72579853D01*
X121358665Y-72635000D01*
X121641335Y-72635000D01*
X121918574Y-72579853D01*
X122179727Y-72471680D01*
X122414759Y-72314637D01*
X122614637Y-72114759D01*
X122771680Y-71879727D01*
X122879853Y-71618574D01*
X122935000Y-71341335D01*
X122935000Y-71058665D01*
X122879853Y-70781426D01*
X122771680Y-70520273D01*
X122614637Y-70285241D01*
X122414759Y-70085363D01*
X122179727Y-69928320D01*
X121918574Y-69820147D01*
X121641335Y-69765000D01*
X121358665Y-69765000D01*
X121081426Y-69820147D01*
X120820273Y-69928320D01*
X120585241Y-70085363D01*
X120385363Y-70285241D01*
X120228320Y-70520273D01*
X120120147Y-70781426D01*
X120065000Y-71058665D01*
X117488072Y-71058665D01*
X117488072Y-69650000D01*
X117475812Y-69525518D01*
X117439502Y-69405820D01*
X117380537Y-69295506D01*
X117301185Y-69198815D01*
X117204494Y-69119463D01*
X117094180Y-69060498D01*
X117006123Y-69033786D01*
X117154855Y-68880795D01*
X117312303Y-68637801D01*
X117407207Y-68408659D01*
X117301281Y-68183000D01*
X116223000Y-68183000D01*
X116223000Y-68203000D01*
X115777000Y-68203000D01*
X115777000Y-68183000D01*
X115757000Y-68183000D01*
X115757000Y-67737000D01*
X115777000Y-67737000D01*
X115777000Y-67717000D01*
X116223000Y-67717000D01*
X116223000Y-67737000D01*
X117301281Y-67737000D01*
X117407207Y-67511341D01*
X117312303Y-67282199D01*
X117154855Y-67039205D01*
X116953027Y-66831597D01*
X116818593Y-66739000D01*
X121825550Y-66739000D01*
X121842148Y-66793715D01*
X121993969Y-67077752D01*
X122198286Y-67326714D01*
X122447248Y-67531031D01*
X122730694Y-67682536D01*
X122533969Y-67922248D01*
X122382148Y-68206285D01*
X122288657Y-68514484D01*
X122257089Y-68835000D01*
X122288657Y-69155516D01*
X122382148Y-69463715D01*
X122533969Y-69747752D01*
X122738286Y-69996714D01*
X122987248Y-70201031D01*
X123271285Y-70352852D01*
X123579484Y-70446343D01*
X123819678Y-70470000D01*
X124980322Y-70470000D01*
X125220516Y-70446343D01*
X125528715Y-70352852D01*
X125812752Y-70201031D01*
X126061714Y-69996714D01*
X126266031Y-69747752D01*
X126372003Y-69549493D01*
X126373307Y-69553495D01*
X126541853Y-69827778D01*
X126760670Y-70063909D01*
X127021349Y-70252814D01*
X127313873Y-70387233D01*
X127627000Y-70462000D01*
X128127000Y-70462000D01*
X128127000Y-69058000D01*
X128107000Y-69058000D01*
X128107000Y-68612000D01*
X128127000Y-68612000D01*
X128127000Y-68592000D01*
X128573000Y-68592000D01*
X128573000Y-68612000D01*
X128593000Y-68612000D01*
X128593000Y-69058000D01*
X128573000Y-69058000D01*
X128573000Y-70462000D01*
X129073000Y-70462000D01*
X129386127Y-70387233D01*
X129678651Y-70252814D01*
X129939330Y-70063909D01*
X130158147Y-69827778D01*
X130326693Y-69553495D01*
X130327997Y-69549493D01*
X130433969Y-69747752D01*
X130638286Y-69996714D01*
X130887248Y-70201031D01*
X131171285Y-70352852D01*
X131479484Y-70446343D01*
X131719678Y-70470000D01*
X132880322Y-70470000D01*
X133120516Y-70446343D01*
X133317682Y-70386534D01*
X133228320Y-70520273D01*
X133120147Y-70781426D01*
X133065000Y-71058665D01*
X133065000Y-71341335D01*
X133120147Y-71618574D01*
X133228320Y-71879727D01*
X133385363Y-72114759D01*
X133585241Y-72314637D01*
X133820273Y-72471680D01*
X134081426Y-72579853D01*
X134358665Y-72635000D01*
X134641335Y-72635000D01*
X134918574Y-72579853D01*
X135179727Y-72471680D01*
X135414759Y-72314637D01*
X135614637Y-72114759D01*
X135771680Y-71879727D01*
X135879853Y-71618574D01*
X135935000Y-71341335D01*
X135935000Y-71058665D01*
X135879853Y-70781426D01*
X135771680Y-70520273D01*
X135614637Y-70285241D01*
X135414759Y-70085363D01*
X135179727Y-69928320D01*
X134918574Y-69820147D01*
X134641335Y-69765000D01*
X134358665Y-69765000D01*
X134111533Y-69814158D01*
X134166031Y-69747752D01*
X134317852Y-69463715D01*
X134411343Y-69155516D01*
X134442911Y-68835000D01*
X134411343Y-68514484D01*
X134317852Y-68206285D01*
X134166031Y-67922248D01*
X133961714Y-67673286D01*
X133712752Y-67468969D01*
X133429306Y-67317464D01*
X133626031Y-67077752D01*
X133777852Y-66793715D01*
X133871343Y-66485516D01*
X133902911Y-66165000D01*
X133871343Y-65844484D01*
X133777852Y-65536285D01*
X133626031Y-65252248D01*
X133421714Y-65003286D01*
X133172752Y-64798969D01*
X132888715Y-64647148D01*
X132580516Y-64553657D01*
X132340322Y-64530000D01*
X131179678Y-64530000D01*
X130939484Y-64553657D01*
X130631285Y-64647148D01*
X130347248Y-64798969D01*
X130098286Y-65003286D01*
X129893969Y-65252248D01*
X129787997Y-65450507D01*
X129786693Y-65446505D01*
X129618147Y-65172222D01*
X129399330Y-64936091D01*
X129138651Y-64747186D01*
X128846127Y-64612767D01*
X128533000Y-64538000D01*
X128033000Y-64538000D01*
X128033000Y-65942000D01*
X128053000Y-65942000D01*
X128053000Y-66388000D01*
X128033000Y-66388000D01*
X128033000Y-66408000D01*
X127587000Y-66408000D01*
X127587000Y-66388000D01*
X127567000Y-66388000D01*
X127567000Y-65942000D01*
X127587000Y-65942000D01*
X127587000Y-64538000D01*
X127087000Y-64538000D01*
X126773873Y-64612767D01*
X126481349Y-64747186D01*
X126220670Y-64936091D01*
X126001853Y-65172222D01*
X125833307Y-65446505D01*
X125832003Y-65450507D01*
X125726031Y-65252248D01*
X125521714Y-65003286D01*
X125272752Y-64798969D01*
X124988715Y-64647148D01*
X124680516Y-64553657D01*
X124440322Y-64530000D01*
X123279678Y-64530000D01*
X123039484Y-64553657D01*
X122731285Y-64647148D01*
X122620106Y-64706575D01*
X122771680Y-64479727D01*
X122879853Y-64218574D01*
X122935000Y-63941335D01*
X122935000Y-63658665D01*
X122879853Y-63381426D01*
X122771680Y-63120273D01*
X122614637Y-62885241D01*
X122414759Y-62685363D01*
X122227140Y-62560000D01*
X133772860Y-62560000D01*
X133585241Y-62685363D01*
M02*
