M48
; DRILL file {KiCad (5.1.4)-1} date 3/11/2020 4:36:06 PM
; FORMAT={-:-/ absolute / metric / decimal}
; #@! TF.CreationDate,2020-03-11T16:36:06-04:00
; #@! TF.GenerationSoftware,Kicad,Pcbnew,(5.1.4)-1
; #@! TF.FileFunction,Plated,1,2,PTH
FMAT,2
METRIC
T1C0.400
T2C1.000
T3C1.500
%
G90
G05
T1
X116.5Y-78.25
X120.25Y-77.25
X126.5Y-76.5
X126.75Y-79.0
X130.5Y-72.75
X132.8Y-78.2
T2
X136.5Y-75.25
X136.5Y-77.79
X116.0Y-65.42
X116.0Y-67.96
X116.0Y-70.5
T3
G00X123.36Y-66.165
M15
G01X124.36Y-66.165
M16
G05
G00X123.9Y-68.835
M15
G01X124.9Y-68.835
M16
G05
G00X127.31Y-66.165
M15
G01X128.31Y-66.165
M16
G05
G00X127.85Y-68.835
M15
G01X128.85Y-68.835
M16
G05
G00X131.26Y-66.165
M15
G01X132.26Y-66.165
M16
G05
G00X131.8Y-68.835
M15
G01X132.8Y-68.835
M16
G05
T0
M30
