G04 #@! TF.GenerationSoftware,KiCad,Pcbnew,(5.1.4)-1*
G04 #@! TF.CreationDate,2020-03-11T16:36:07-04:00*
G04 #@! TF.ProjectId,MicSwitchBoard,4d696353-7769-4746-9368-426f6172642e,rev?*
G04 #@! TF.SameCoordinates,Original*
G04 #@! TF.FileFunction,Legend,Top*
G04 #@! TF.FilePolarity,Positive*
%FSLAX46Y46*%
G04 Gerber Fmt 4.6, Leading zero omitted, Abs format (unit mm)*
G04 Created by KiCad (PCBNEW (5.1.4)-1) date 2020-03-11 16:36:07*
%MOMM*%
%LPD*%
G04 APERTURE LIST*
%ADD10C,0.150000*%
%ADD11C,0.120000*%
G04 APERTURE END LIST*
D10*
X117638095Y-70766666D02*
X118114285Y-70766666D01*
X117542857Y-71052380D02*
X117876190Y-70052380D01*
X118209523Y-71052380D01*
X118542857Y-70052380D02*
X118542857Y-70861904D01*
X118590476Y-70957142D01*
X118638095Y-71004761D01*
X118733333Y-71052380D01*
X118923809Y-71052380D01*
X119019047Y-71004761D01*
X119066666Y-70957142D01*
X119114285Y-70861904D01*
X119114285Y-70052380D01*
X119590476Y-71052380D02*
X119590476Y-70052380D01*
X119828571Y-70052380D01*
X119971428Y-70100000D01*
X120066666Y-70195238D01*
X120114285Y-70290476D01*
X120161904Y-70480952D01*
X120161904Y-70623809D01*
X120114285Y-70814285D01*
X120066666Y-70909523D01*
X119971428Y-71004761D01*
X119828571Y-71052380D01*
X119590476Y-71052380D01*
X118138095Y-67500000D02*
X118042857Y-67452380D01*
X117900000Y-67452380D01*
X117757142Y-67500000D01*
X117661904Y-67595238D01*
X117614285Y-67690476D01*
X117566666Y-67880952D01*
X117566666Y-68023809D01*
X117614285Y-68214285D01*
X117661904Y-68309523D01*
X117757142Y-68404761D01*
X117900000Y-68452380D01*
X117995238Y-68452380D01*
X118138095Y-68404761D01*
X118185714Y-68357142D01*
X118185714Y-68023809D01*
X117995238Y-68023809D01*
X118614285Y-68452380D02*
X118614285Y-67452380D01*
X119185714Y-68452380D01*
X119185714Y-67452380D01*
X119661904Y-68452380D02*
X119661904Y-67452380D01*
X119900000Y-67452380D01*
X120042857Y-67500000D01*
X120138095Y-67595238D01*
X120185714Y-67690476D01*
X120233333Y-67880952D01*
X120233333Y-68023809D01*
X120185714Y-68214285D01*
X120138095Y-68309523D01*
X120042857Y-68404761D01*
X119900000Y-68452380D01*
X119661904Y-68452380D01*
X117776190Y-65852380D02*
X117776190Y-64852380D01*
X118157142Y-64852380D01*
X118252380Y-64900000D01*
X118300000Y-64947619D01*
X118347619Y-65042857D01*
X118347619Y-65185714D01*
X118300000Y-65280952D01*
X118252380Y-65328571D01*
X118157142Y-65376190D01*
X117776190Y-65376190D01*
X118633333Y-64852380D02*
X119204761Y-64852380D01*
X118919047Y-65852380D02*
X118919047Y-64852380D01*
X119395238Y-64852380D02*
X119966666Y-64852380D01*
X119680952Y-65852380D02*
X119680952Y-64852380D01*
X123247619Y-74752380D02*
X123247619Y-73752380D01*
X123485714Y-73752380D01*
X123628571Y-73800000D01*
X123723809Y-73895238D01*
X123771428Y-73990476D01*
X123819047Y-74180952D01*
X123819047Y-74323809D01*
X123771428Y-74514285D01*
X123723809Y-74609523D01*
X123628571Y-74704761D01*
X123485714Y-74752380D01*
X123247619Y-74752380D01*
X124438095Y-74276190D02*
X124438095Y-74752380D01*
X124104761Y-73752380D02*
X124438095Y-74276190D01*
X124771428Y-73752380D01*
X125104761Y-74752380D02*
X125104761Y-73752380D01*
X125676190Y-74752380D01*
X125676190Y-73752380D01*
X126104761Y-74466666D02*
X126580952Y-74466666D01*
X126009523Y-74752380D02*
X126342857Y-73752380D01*
X126676190Y-74752380D01*
X127009523Y-74752380D02*
X127009523Y-73752380D01*
X127342857Y-74466666D01*
X127676190Y-73752380D01*
X127676190Y-74752380D01*
X128152380Y-74752380D02*
X128152380Y-73752380D01*
X129200000Y-74657142D02*
X129152380Y-74704761D01*
X129009523Y-74752380D01*
X128914285Y-74752380D01*
X128771428Y-74704761D01*
X128676190Y-74609523D01*
X128628571Y-74514285D01*
X128580952Y-74323809D01*
X128580952Y-74180952D01*
X128628571Y-73990476D01*
X128676190Y-73895238D01*
X128771428Y-73800000D01*
X128914285Y-73752380D01*
X129009523Y-73752380D01*
X129152380Y-73800000D01*
X129200000Y-73847619D01*
D11*
X136940800Y-67500000D02*
X136331200Y-66941200D01*
X136940800Y-67500000D02*
X136382000Y-68109600D01*
X118842800Y-64146400D02*
X118842800Y-63232000D01*
X118842800Y-63232000D02*
X119655600Y-63232000D01*
X119718800Y-71729600D02*
X118804400Y-71729600D01*
X118804400Y-71729600D02*
X118804400Y-70916800D01*
X137157200Y-70853600D02*
X137157200Y-71768000D01*
X137157200Y-71768000D02*
X136344400Y-71768000D01*
X136940800Y-67500000D02*
X133334000Y-67500000D01*
X137194800Y-63283600D02*
X137194800Y-64096400D01*
X136280400Y-63283600D02*
X137194800Y-63283600D01*
X117330000Y-71830000D02*
X116000000Y-71830000D01*
X117330000Y-70500000D02*
X117330000Y-71830000D01*
X117330000Y-69230000D02*
X114670000Y-69230000D01*
X114670000Y-69230000D02*
X114670000Y-64090000D01*
X117330000Y-69230000D02*
X117330000Y-64090000D01*
X117330000Y-64090000D02*
X114670000Y-64090000D01*
X135170000Y-73920000D02*
X136500000Y-73920000D01*
X135170000Y-75250000D02*
X135170000Y-73920000D01*
X135170000Y-76520000D02*
X137830000Y-76520000D01*
X137830000Y-76520000D02*
X137830000Y-79120000D01*
X135170000Y-76520000D02*
X135170000Y-79120000D01*
X135170000Y-79120000D02*
X137830000Y-79120000D01*
M02*
