G04 #@! TF.GenerationSoftware,KiCad,Pcbnew,(5.1.4)-1*
G04 #@! TF.CreationDate,2020-03-11T16:36:07-04:00*
G04 #@! TF.ProjectId,MicSwitchBoard,4d696353-7769-4746-9368-426f6172642e,rev?*
G04 #@! TF.SameCoordinates,Original*
G04 #@! TF.FileFunction,Soldermask,Bot*
G04 #@! TF.FilePolarity,Negative*
%FSLAX46Y46*%
G04 Gerber Fmt 4.6, Leading zero omitted, Abs format (unit mm)*
G04 Created by KiCad (PCBNEW (5.1.4)-1) date 2020-03-11 16:36:07*
%MOMM*%
%LPD*%
G04 APERTURE LIST*
%ADD10C,0.100000*%
G04 APERTURE END LIST*
D10*
G36*
X117205997Y-76953051D02*
G01*
X117239652Y-76963261D01*
X117270665Y-76979838D01*
X117297851Y-77002149D01*
X117320162Y-77029335D01*
X117336739Y-77060348D01*
X117346949Y-77094003D01*
X117351000Y-77135138D01*
X117351000Y-79464862D01*
X117346949Y-79505997D01*
X117336739Y-79539652D01*
X117320162Y-79570665D01*
X117297851Y-79597851D01*
X117270665Y-79620162D01*
X117239652Y-79636739D01*
X117205997Y-79646949D01*
X117164862Y-79651000D01*
X115835138Y-79651000D01*
X115794003Y-79646949D01*
X115760348Y-79636739D01*
X115729335Y-79620162D01*
X115702149Y-79597851D01*
X115679838Y-79570665D01*
X115663261Y-79539652D01*
X115653051Y-79505997D01*
X115649000Y-79464862D01*
X115649000Y-77135138D01*
X115653051Y-77094003D01*
X115663261Y-77060348D01*
X115679838Y-77029335D01*
X115702149Y-77002149D01*
X115729335Y-76979838D01*
X115760348Y-76963261D01*
X115794003Y-76953051D01*
X115835138Y-76949000D01*
X117164862Y-76949000D01*
X117205997Y-76953051D01*
X117205997Y-76953051D01*
G37*
G36*
X128379591Y-78303085D02*
G01*
X128413569Y-78313393D01*
X128444890Y-78330134D01*
X128472339Y-78352661D01*
X128494866Y-78380110D01*
X128511607Y-78411431D01*
X128521915Y-78445409D01*
X128526000Y-78486890D01*
X128526000Y-79088110D01*
X128521915Y-79129591D01*
X128511607Y-79163569D01*
X128494866Y-79194890D01*
X128472339Y-79222339D01*
X128444890Y-79244866D01*
X128413569Y-79261607D01*
X128379591Y-79271915D01*
X128338110Y-79276000D01*
X127661890Y-79276000D01*
X127620409Y-79271915D01*
X127586431Y-79261607D01*
X127555110Y-79244866D01*
X127527661Y-79222339D01*
X127505134Y-79194890D01*
X127488393Y-79163569D01*
X127478085Y-79129591D01*
X127474000Y-79088110D01*
X127474000Y-78486890D01*
X127478085Y-78445409D01*
X127488393Y-78411431D01*
X127505134Y-78380110D01*
X127527661Y-78352661D01*
X127555110Y-78330134D01*
X127586431Y-78313393D01*
X127620409Y-78303085D01*
X127661890Y-78299000D01*
X128338110Y-78299000D01*
X128379591Y-78303085D01*
X128379591Y-78303085D01*
G37*
G36*
X130354591Y-77678085D02*
G01*
X130388569Y-77688393D01*
X130419890Y-77705134D01*
X130447339Y-77727661D01*
X130469866Y-77755110D01*
X130486607Y-77786431D01*
X130496915Y-77820409D01*
X130501000Y-77861890D01*
X130501000Y-78538110D01*
X130496915Y-78579591D01*
X130486607Y-78613569D01*
X130469866Y-78644890D01*
X130447339Y-78672339D01*
X130419890Y-78694866D01*
X130388569Y-78711607D01*
X130354591Y-78721915D01*
X130313110Y-78726000D01*
X129711890Y-78726000D01*
X129670409Y-78721915D01*
X129636431Y-78711607D01*
X129605110Y-78694866D01*
X129577661Y-78672339D01*
X129555134Y-78644890D01*
X129538393Y-78613569D01*
X129528085Y-78579591D01*
X129524000Y-78538110D01*
X129524000Y-77861890D01*
X129528085Y-77820409D01*
X129538393Y-77786431D01*
X129555134Y-77755110D01*
X129577661Y-77727661D01*
X129605110Y-77705134D01*
X129636431Y-77688393D01*
X129670409Y-77678085D01*
X129711890Y-77674000D01*
X130313110Y-77674000D01*
X130354591Y-77678085D01*
X130354591Y-77678085D01*
G37*
G36*
X131929591Y-77678085D02*
G01*
X131963569Y-77688393D01*
X131994890Y-77705134D01*
X132022339Y-77727661D01*
X132044866Y-77755110D01*
X132061607Y-77786431D01*
X132071915Y-77820409D01*
X132076000Y-77861890D01*
X132076000Y-78538110D01*
X132071915Y-78579591D01*
X132061607Y-78613569D01*
X132044866Y-78644890D01*
X132022339Y-78672339D01*
X131994890Y-78694866D01*
X131963569Y-78711607D01*
X131929591Y-78721915D01*
X131888110Y-78726000D01*
X131286890Y-78726000D01*
X131245409Y-78721915D01*
X131211431Y-78711607D01*
X131180110Y-78694866D01*
X131152661Y-78672339D01*
X131130134Y-78644890D01*
X131113393Y-78613569D01*
X131103085Y-78579591D01*
X131099000Y-78538110D01*
X131099000Y-77861890D01*
X131103085Y-77820409D01*
X131113393Y-77786431D01*
X131130134Y-77755110D01*
X131152661Y-77727661D01*
X131180110Y-77705134D01*
X131211431Y-77688393D01*
X131245409Y-77678085D01*
X131286890Y-77674000D01*
X131888110Y-77674000D01*
X131929591Y-77678085D01*
X131929591Y-77678085D01*
G37*
G36*
X136610443Y-76895519D02*
G01*
X136676627Y-76902037D01*
X136846466Y-76953557D01*
X136846468Y-76953558D01*
X136875812Y-76969243D01*
X137002991Y-77037222D01*
X137031170Y-77060348D01*
X137140186Y-77149814D01*
X137193630Y-77214937D01*
X137252778Y-77287009D01*
X137336443Y-77443534D01*
X137387963Y-77613373D01*
X137405359Y-77790000D01*
X137387963Y-77966627D01*
X137336443Y-78136466D01*
X137252778Y-78292991D01*
X137244494Y-78303085D01*
X137140186Y-78430186D01*
X137038729Y-78513448D01*
X137002991Y-78542778D01*
X136846466Y-78626443D01*
X136676627Y-78677963D01*
X136610443Y-78684481D01*
X136544260Y-78691000D01*
X136455740Y-78691000D01*
X136389557Y-78684481D01*
X136323373Y-78677963D01*
X136153534Y-78626443D01*
X135997009Y-78542778D01*
X135961271Y-78513448D01*
X135859814Y-78430186D01*
X135755506Y-78303085D01*
X135747222Y-78292991D01*
X135663557Y-78136466D01*
X135612037Y-77966627D01*
X135594641Y-77790000D01*
X135612037Y-77613373D01*
X135663557Y-77443534D01*
X135747222Y-77287009D01*
X135806370Y-77214937D01*
X135859814Y-77149814D01*
X135968830Y-77060348D01*
X135997009Y-77037222D01*
X136124188Y-76969243D01*
X136153532Y-76953558D01*
X136153534Y-76953557D01*
X136323373Y-76902037D01*
X136389557Y-76895519D01*
X136455740Y-76889000D01*
X136544260Y-76889000D01*
X136610443Y-76895519D01*
X136610443Y-76895519D01*
G37*
G36*
X125405997Y-76403051D02*
G01*
X125439652Y-76413261D01*
X125470665Y-76429838D01*
X125497851Y-76452149D01*
X125520162Y-76479335D01*
X125536739Y-76510348D01*
X125546949Y-76544003D01*
X125551000Y-76585138D01*
X125551000Y-77914862D01*
X125546949Y-77955997D01*
X125536739Y-77989652D01*
X125520162Y-78020665D01*
X125497851Y-78047851D01*
X125470665Y-78070162D01*
X125439652Y-78086739D01*
X125405997Y-78096949D01*
X125364862Y-78101000D01*
X123035138Y-78101000D01*
X122994003Y-78096949D01*
X122960348Y-78086739D01*
X122929335Y-78070162D01*
X122902149Y-78047851D01*
X122879838Y-78020665D01*
X122863261Y-77989652D01*
X122853051Y-77955997D01*
X122849000Y-77914862D01*
X122849000Y-76585138D01*
X122853051Y-76544003D01*
X122863261Y-76510348D01*
X122879838Y-76479335D01*
X122902149Y-76452149D01*
X122929335Y-76429838D01*
X122960348Y-76413261D01*
X122994003Y-76403051D01*
X123035138Y-76399000D01*
X125364862Y-76399000D01*
X125405997Y-76403051D01*
X125405997Y-76403051D01*
G37*
G36*
X121805997Y-76403051D02*
G01*
X121839652Y-76413261D01*
X121870665Y-76429838D01*
X121897851Y-76452149D01*
X121920162Y-76479335D01*
X121936739Y-76510348D01*
X121946949Y-76544003D01*
X121951000Y-76585138D01*
X121951000Y-77914862D01*
X121946949Y-77955997D01*
X121936739Y-77989652D01*
X121920162Y-78020665D01*
X121897851Y-78047851D01*
X121870665Y-78070162D01*
X121839652Y-78086739D01*
X121805997Y-78096949D01*
X121764862Y-78101000D01*
X119435138Y-78101000D01*
X119394003Y-78096949D01*
X119360348Y-78086739D01*
X119329335Y-78070162D01*
X119302149Y-78047851D01*
X119279838Y-78020665D01*
X119263261Y-77989652D01*
X119253051Y-77955997D01*
X119249000Y-77914862D01*
X119249000Y-76585138D01*
X119253051Y-76544003D01*
X119263261Y-76510348D01*
X119279838Y-76479335D01*
X119302149Y-76452149D01*
X119329335Y-76429838D01*
X119360348Y-76413261D01*
X119394003Y-76403051D01*
X119435138Y-76399000D01*
X121764862Y-76399000D01*
X121805997Y-76403051D01*
X121805997Y-76403051D01*
G37*
G36*
X128379591Y-76728085D02*
G01*
X128413569Y-76738393D01*
X128444890Y-76755134D01*
X128472339Y-76777661D01*
X128494866Y-76805110D01*
X128511607Y-76836431D01*
X128521915Y-76870409D01*
X128526000Y-76911890D01*
X128526000Y-77513110D01*
X128521915Y-77554591D01*
X128511607Y-77588569D01*
X128494866Y-77619890D01*
X128472339Y-77647339D01*
X128444890Y-77669866D01*
X128413569Y-77686607D01*
X128379591Y-77696915D01*
X128338110Y-77701000D01*
X127661890Y-77701000D01*
X127620409Y-77696915D01*
X127586431Y-77686607D01*
X127555110Y-77669866D01*
X127527661Y-77647339D01*
X127505134Y-77619890D01*
X127488393Y-77588569D01*
X127478085Y-77554591D01*
X127474000Y-77513110D01*
X127474000Y-76911890D01*
X127478085Y-76870409D01*
X127488393Y-76836431D01*
X127505134Y-76805110D01*
X127527661Y-76777661D01*
X127555110Y-76755134D01*
X127586431Y-76738393D01*
X127620409Y-76728085D01*
X127661890Y-76724000D01*
X128338110Y-76724000D01*
X128379591Y-76728085D01*
X128379591Y-76728085D01*
G37*
G36*
X132751000Y-76901000D02*
G01*
X131749000Y-76901000D01*
X131749000Y-75999000D01*
X132751000Y-75999000D01*
X132751000Y-76901000D01*
X132751000Y-76901000D01*
G37*
G36*
X134129591Y-75840585D02*
G01*
X134163569Y-75850893D01*
X134194890Y-75867634D01*
X134222339Y-75890161D01*
X134244866Y-75917610D01*
X134261607Y-75948931D01*
X134271915Y-75982909D01*
X134276000Y-76024390D01*
X134276000Y-76625610D01*
X134271915Y-76667091D01*
X134261607Y-76701069D01*
X134244866Y-76732390D01*
X134222339Y-76759839D01*
X134194890Y-76782366D01*
X134163569Y-76799107D01*
X134129591Y-76809415D01*
X134088110Y-76813500D01*
X133411890Y-76813500D01*
X133370409Y-76809415D01*
X133336431Y-76799107D01*
X133305110Y-76782366D01*
X133277661Y-76759839D01*
X133255134Y-76732390D01*
X133238393Y-76701069D01*
X133228085Y-76667091D01*
X133224000Y-76625610D01*
X133224000Y-76024390D01*
X133228085Y-75982909D01*
X133238393Y-75948931D01*
X133255134Y-75917610D01*
X133277661Y-75890161D01*
X133305110Y-75867634D01*
X133336431Y-75850893D01*
X133370409Y-75840585D01*
X133411890Y-75836500D01*
X134088110Y-75836500D01*
X134129591Y-75840585D01*
X134129591Y-75840585D01*
G37*
G36*
X137401000Y-76151000D02*
G01*
X135599000Y-76151000D01*
X135599000Y-74349000D01*
X137401000Y-74349000D01*
X137401000Y-76151000D01*
X137401000Y-76151000D01*
G37*
G36*
X117205997Y-73353051D02*
G01*
X117239652Y-73363261D01*
X117270665Y-73379838D01*
X117297851Y-73402149D01*
X117320162Y-73429335D01*
X117336739Y-73460348D01*
X117346949Y-73494003D01*
X117351000Y-73535138D01*
X117351000Y-75864862D01*
X117346949Y-75905997D01*
X117336739Y-75939652D01*
X117320162Y-75970665D01*
X117297851Y-75997851D01*
X117270665Y-76020162D01*
X117239652Y-76036739D01*
X117205997Y-76046949D01*
X117164862Y-76051000D01*
X115835138Y-76051000D01*
X115794003Y-76046949D01*
X115760348Y-76036739D01*
X115729335Y-76020162D01*
X115702149Y-75997851D01*
X115679838Y-75970665D01*
X115663261Y-75939652D01*
X115653051Y-75905997D01*
X115649000Y-75864862D01*
X115649000Y-73535138D01*
X115653051Y-73494003D01*
X115663261Y-73460348D01*
X115679838Y-73429335D01*
X115702149Y-73402149D01*
X115729335Y-73379838D01*
X115760348Y-73363261D01*
X115794003Y-73353051D01*
X115835138Y-73349000D01*
X117164862Y-73349000D01*
X117205997Y-73353051D01*
X117205997Y-73353051D01*
G37*
G36*
X130751000Y-75951000D02*
G01*
X129749000Y-75951000D01*
X129749000Y-75049000D01*
X130751000Y-75049000D01*
X130751000Y-75951000D01*
X130751000Y-75951000D01*
G37*
G36*
X129129591Y-74803085D02*
G01*
X129163569Y-74813393D01*
X129194890Y-74830134D01*
X129222339Y-74852661D01*
X129244866Y-74880110D01*
X129261607Y-74911431D01*
X129271915Y-74945409D01*
X129276000Y-74986890D01*
X129276000Y-75588110D01*
X129271915Y-75629591D01*
X129261607Y-75663569D01*
X129244866Y-75694890D01*
X129222339Y-75722339D01*
X129194890Y-75744866D01*
X129163569Y-75761607D01*
X129129591Y-75771915D01*
X129088110Y-75776000D01*
X128411890Y-75776000D01*
X128370409Y-75771915D01*
X128336431Y-75761607D01*
X128305110Y-75744866D01*
X128277661Y-75722339D01*
X128255134Y-75694890D01*
X128238393Y-75663569D01*
X128228085Y-75629591D01*
X128224000Y-75588110D01*
X128224000Y-74986890D01*
X128228085Y-74945409D01*
X128238393Y-74911431D01*
X128255134Y-74880110D01*
X128277661Y-74852661D01*
X128305110Y-74830134D01*
X128336431Y-74813393D01*
X128370409Y-74803085D01*
X128411890Y-74799000D01*
X129088110Y-74799000D01*
X129129591Y-74803085D01*
X129129591Y-74803085D01*
G37*
G36*
X125754591Y-74478085D02*
G01*
X125788569Y-74488393D01*
X125819890Y-74505134D01*
X125847339Y-74527661D01*
X125869866Y-74555110D01*
X125886607Y-74586431D01*
X125896915Y-74620409D01*
X125901000Y-74661890D01*
X125901000Y-75338110D01*
X125896915Y-75379591D01*
X125886607Y-75413569D01*
X125869866Y-75444890D01*
X125847339Y-75472339D01*
X125819890Y-75494866D01*
X125788569Y-75511607D01*
X125754591Y-75521915D01*
X125713110Y-75526000D01*
X125111890Y-75526000D01*
X125070409Y-75521915D01*
X125036431Y-75511607D01*
X125005110Y-75494866D01*
X124977661Y-75472339D01*
X124955134Y-75444890D01*
X124938393Y-75413569D01*
X124928085Y-75379591D01*
X124924000Y-75338110D01*
X124924000Y-74661890D01*
X124928085Y-74620409D01*
X124938393Y-74586431D01*
X124955134Y-74555110D01*
X124977661Y-74527661D01*
X125005110Y-74505134D01*
X125036431Y-74488393D01*
X125070409Y-74478085D01*
X125111890Y-74474000D01*
X125713110Y-74474000D01*
X125754591Y-74478085D01*
X125754591Y-74478085D01*
G37*
G36*
X127329591Y-74478085D02*
G01*
X127363569Y-74488393D01*
X127394890Y-74505134D01*
X127422339Y-74527661D01*
X127444866Y-74555110D01*
X127461607Y-74586431D01*
X127471915Y-74620409D01*
X127476000Y-74661890D01*
X127476000Y-75338110D01*
X127471915Y-75379591D01*
X127461607Y-75413569D01*
X127444866Y-75444890D01*
X127422339Y-75472339D01*
X127394890Y-75494866D01*
X127363569Y-75511607D01*
X127329591Y-75521915D01*
X127288110Y-75526000D01*
X126686890Y-75526000D01*
X126645409Y-75521915D01*
X126611431Y-75511607D01*
X126580110Y-75494866D01*
X126552661Y-75472339D01*
X126530134Y-75444890D01*
X126513393Y-75413569D01*
X126503085Y-75379591D01*
X126499000Y-75338110D01*
X126499000Y-74661890D01*
X126503085Y-74620409D01*
X126513393Y-74586431D01*
X126530134Y-74555110D01*
X126552661Y-74527661D01*
X126580110Y-74505134D01*
X126611431Y-74488393D01*
X126645409Y-74478085D01*
X126686890Y-74474000D01*
X127288110Y-74474000D01*
X127329591Y-74478085D01*
X127329591Y-74478085D01*
G37*
G36*
X134129591Y-74265585D02*
G01*
X134163569Y-74275893D01*
X134194890Y-74292634D01*
X134222339Y-74315161D01*
X134244866Y-74342610D01*
X134261607Y-74373931D01*
X134271915Y-74407909D01*
X134276000Y-74449390D01*
X134276000Y-75050610D01*
X134271915Y-75092091D01*
X134261607Y-75126069D01*
X134244866Y-75157390D01*
X134222339Y-75184839D01*
X134194890Y-75207366D01*
X134163569Y-75224107D01*
X134129591Y-75234415D01*
X134088110Y-75238500D01*
X133411890Y-75238500D01*
X133370409Y-75234415D01*
X133336431Y-75224107D01*
X133305110Y-75207366D01*
X133277661Y-75184839D01*
X133255134Y-75157390D01*
X133238393Y-75126069D01*
X133228085Y-75092091D01*
X133224000Y-75050610D01*
X133224000Y-74449390D01*
X133228085Y-74407909D01*
X133238393Y-74373931D01*
X133255134Y-74342610D01*
X133277661Y-74315161D01*
X133305110Y-74292634D01*
X133336431Y-74275893D01*
X133370409Y-74265585D01*
X133411890Y-74261500D01*
X134088110Y-74261500D01*
X134129591Y-74265585D01*
X134129591Y-74265585D01*
G37*
G36*
X132751000Y-75001000D02*
G01*
X131749000Y-75001000D01*
X131749000Y-74099000D01*
X132751000Y-74099000D01*
X132751000Y-75001000D01*
X132751000Y-75001000D01*
G37*
G36*
X129129591Y-73228085D02*
G01*
X129163569Y-73238393D01*
X129194890Y-73255134D01*
X129222339Y-73277661D01*
X129244866Y-73305110D01*
X129261607Y-73336431D01*
X129271915Y-73370409D01*
X129276000Y-73411890D01*
X129276000Y-74013110D01*
X129271915Y-74054591D01*
X129261607Y-74088569D01*
X129244866Y-74119890D01*
X129222339Y-74147339D01*
X129194890Y-74169866D01*
X129163569Y-74186607D01*
X129129591Y-74196915D01*
X129088110Y-74201000D01*
X128411890Y-74201000D01*
X128370409Y-74196915D01*
X128336431Y-74186607D01*
X128305110Y-74169866D01*
X128277661Y-74147339D01*
X128255134Y-74119890D01*
X128238393Y-74088569D01*
X128228085Y-74054591D01*
X128224000Y-74013110D01*
X128224000Y-73411890D01*
X128228085Y-73370409D01*
X128238393Y-73336431D01*
X128255134Y-73305110D01*
X128277661Y-73277661D01*
X128305110Y-73255134D01*
X128336431Y-73238393D01*
X128370409Y-73228085D01*
X128411890Y-73224000D01*
X129088110Y-73224000D01*
X129129591Y-73228085D01*
X129129591Y-73228085D01*
G37*
G36*
X127329591Y-72978085D02*
G01*
X127363569Y-72988393D01*
X127394890Y-73005134D01*
X127422339Y-73027661D01*
X127444866Y-73055110D01*
X127461607Y-73086431D01*
X127471915Y-73120409D01*
X127476000Y-73161890D01*
X127476000Y-73838110D01*
X127471915Y-73879591D01*
X127461607Y-73913569D01*
X127444866Y-73944890D01*
X127422339Y-73972339D01*
X127394890Y-73994866D01*
X127363569Y-74011607D01*
X127329591Y-74021915D01*
X127288110Y-74026000D01*
X126686890Y-74026000D01*
X126645409Y-74021915D01*
X126611431Y-74011607D01*
X126580110Y-73994866D01*
X126552661Y-73972339D01*
X126530134Y-73944890D01*
X126513393Y-73913569D01*
X126503085Y-73879591D01*
X126499000Y-73838110D01*
X126499000Y-73161890D01*
X126503085Y-73120409D01*
X126513393Y-73086431D01*
X126530134Y-73055110D01*
X126552661Y-73027661D01*
X126580110Y-73005134D01*
X126611431Y-72988393D01*
X126645409Y-72978085D01*
X126686890Y-72974000D01*
X127288110Y-72974000D01*
X127329591Y-72978085D01*
X127329591Y-72978085D01*
G37*
G36*
X125754591Y-72978085D02*
G01*
X125788569Y-72988393D01*
X125819890Y-73005134D01*
X125847339Y-73027661D01*
X125869866Y-73055110D01*
X125886607Y-73086431D01*
X125896915Y-73120409D01*
X125901000Y-73161890D01*
X125901000Y-73838110D01*
X125896915Y-73879591D01*
X125886607Y-73913569D01*
X125869866Y-73944890D01*
X125847339Y-73972339D01*
X125819890Y-73994866D01*
X125788569Y-74011607D01*
X125754591Y-74021915D01*
X125713110Y-74026000D01*
X125111890Y-74026000D01*
X125070409Y-74021915D01*
X125036431Y-74011607D01*
X125005110Y-73994866D01*
X124977661Y-73972339D01*
X124955134Y-73944890D01*
X124938393Y-73913569D01*
X124928085Y-73879591D01*
X124924000Y-73838110D01*
X124924000Y-73161890D01*
X124928085Y-73120409D01*
X124938393Y-73086431D01*
X124955134Y-73055110D01*
X124977661Y-73027661D01*
X125005110Y-73005134D01*
X125036431Y-72988393D01*
X125070409Y-72978085D01*
X125111890Y-72974000D01*
X125713110Y-72974000D01*
X125754591Y-72978085D01*
X125754591Y-72978085D01*
G37*
G36*
X132151000Y-73401000D02*
G01*
X131449000Y-73401000D01*
X131449000Y-72599000D01*
X132151000Y-72599000D01*
X132151000Y-73401000D01*
X132151000Y-73401000D01*
G37*
G36*
X133551000Y-73401000D02*
G01*
X132849000Y-73401000D01*
X132849000Y-72599000D01*
X133551000Y-72599000D01*
X133551000Y-73401000D01*
X133551000Y-73401000D01*
G37*
G36*
X134748228Y-70381703D02*
G01*
X134903100Y-70445853D01*
X135042481Y-70538985D01*
X135161015Y-70657519D01*
X135254147Y-70796900D01*
X135318297Y-70951772D01*
X135351000Y-71116184D01*
X135351000Y-71283816D01*
X135318297Y-71448228D01*
X135254147Y-71603100D01*
X135161015Y-71742481D01*
X135042481Y-71861015D01*
X134903100Y-71954147D01*
X134748228Y-72018297D01*
X134583816Y-72051000D01*
X134416184Y-72051000D01*
X134251772Y-72018297D01*
X134096900Y-71954147D01*
X133957519Y-71861015D01*
X133838985Y-71742481D01*
X133745853Y-71603100D01*
X133681703Y-71448228D01*
X133649000Y-71283816D01*
X133649000Y-71116184D01*
X133681703Y-70951772D01*
X133745853Y-70796900D01*
X133838985Y-70657519D01*
X133957519Y-70538985D01*
X134096900Y-70445853D01*
X134251772Y-70381703D01*
X134416184Y-70349000D01*
X134583816Y-70349000D01*
X134748228Y-70381703D01*
X134748228Y-70381703D01*
G37*
G36*
X121748228Y-70381703D02*
G01*
X121903100Y-70445853D01*
X122042481Y-70538985D01*
X122161015Y-70657519D01*
X122254147Y-70796900D01*
X122318297Y-70951772D01*
X122351000Y-71116184D01*
X122351000Y-71283816D01*
X122318297Y-71448228D01*
X122254147Y-71603100D01*
X122161015Y-71742481D01*
X122042481Y-71861015D01*
X121903100Y-71954147D01*
X121748228Y-72018297D01*
X121583816Y-72051000D01*
X121416184Y-72051000D01*
X121251772Y-72018297D01*
X121096900Y-71954147D01*
X120957519Y-71861015D01*
X120838985Y-71742481D01*
X120745853Y-71603100D01*
X120681703Y-71448228D01*
X120649000Y-71283816D01*
X120649000Y-71116184D01*
X120681703Y-70951772D01*
X120745853Y-70796900D01*
X120838985Y-70657519D01*
X120957519Y-70538985D01*
X121096900Y-70445853D01*
X121251772Y-70381703D01*
X121416184Y-70349000D01*
X121583816Y-70349000D01*
X121748228Y-70381703D01*
X121748228Y-70381703D01*
G37*
G36*
X116901000Y-71401000D02*
G01*
X115099000Y-71401000D01*
X115099000Y-69599000D01*
X116901000Y-69599000D01*
X116901000Y-71401000D01*
X116901000Y-71401000D01*
G37*
G36*
X132903097Y-67789069D02*
G01*
X133006032Y-67799207D01*
X133204146Y-67859305D01*
X133204149Y-67859306D01*
X133300975Y-67911061D01*
X133386729Y-67956897D01*
X133546765Y-68088235D01*
X133678103Y-68248271D01*
X133709210Y-68306468D01*
X133775694Y-68430851D01*
X133775695Y-68430854D01*
X133835793Y-68628968D01*
X133856085Y-68835000D01*
X133835793Y-69041032D01*
X133775695Y-69239146D01*
X133775694Y-69239149D01*
X133723939Y-69335975D01*
X133678103Y-69421729D01*
X133546765Y-69581765D01*
X133386729Y-69713103D01*
X133300975Y-69758939D01*
X133204149Y-69810694D01*
X133204146Y-69810695D01*
X133006032Y-69870793D01*
X132903097Y-69880931D01*
X132851631Y-69886000D01*
X131748369Y-69886000D01*
X131696903Y-69880931D01*
X131593968Y-69870793D01*
X131395854Y-69810695D01*
X131395851Y-69810694D01*
X131299025Y-69758939D01*
X131213271Y-69713103D01*
X131053235Y-69581765D01*
X130921897Y-69421729D01*
X130876061Y-69335975D01*
X130824306Y-69239149D01*
X130824305Y-69239146D01*
X130764207Y-69041032D01*
X130743915Y-68835000D01*
X130764207Y-68628968D01*
X130824305Y-68430854D01*
X130824306Y-68430851D01*
X130890790Y-68306468D01*
X130921897Y-68248271D01*
X131053235Y-68088235D01*
X131213271Y-67956897D01*
X131299025Y-67911061D01*
X131395851Y-67859306D01*
X131395854Y-67859305D01*
X131593968Y-67799207D01*
X131696903Y-67789069D01*
X131748369Y-67784000D01*
X132851631Y-67784000D01*
X132903097Y-67789069D01*
X132903097Y-67789069D01*
G37*
G36*
X128953097Y-67789069D02*
G01*
X129056032Y-67799207D01*
X129254146Y-67859305D01*
X129254149Y-67859306D01*
X129350975Y-67911061D01*
X129436729Y-67956897D01*
X129596765Y-68088235D01*
X129728103Y-68248271D01*
X129759210Y-68306468D01*
X129825694Y-68430851D01*
X129825695Y-68430854D01*
X129885793Y-68628968D01*
X129906085Y-68835000D01*
X129885793Y-69041032D01*
X129825695Y-69239146D01*
X129825694Y-69239149D01*
X129773939Y-69335975D01*
X129728103Y-69421729D01*
X129596765Y-69581765D01*
X129436729Y-69713103D01*
X129350975Y-69758939D01*
X129254149Y-69810694D01*
X129254146Y-69810695D01*
X129056032Y-69870793D01*
X128953097Y-69880931D01*
X128901631Y-69886000D01*
X127798369Y-69886000D01*
X127746903Y-69880931D01*
X127643968Y-69870793D01*
X127445854Y-69810695D01*
X127445851Y-69810694D01*
X127349025Y-69758939D01*
X127263271Y-69713103D01*
X127103235Y-69581765D01*
X126971897Y-69421729D01*
X126926061Y-69335975D01*
X126874306Y-69239149D01*
X126874305Y-69239146D01*
X126814207Y-69041032D01*
X126793915Y-68835000D01*
X126814207Y-68628968D01*
X126874305Y-68430854D01*
X126874306Y-68430851D01*
X126940790Y-68306468D01*
X126971897Y-68248271D01*
X127103235Y-68088235D01*
X127263271Y-67956897D01*
X127349025Y-67911061D01*
X127445851Y-67859306D01*
X127445854Y-67859305D01*
X127643968Y-67799207D01*
X127746903Y-67789069D01*
X127798369Y-67784000D01*
X128901631Y-67784000D01*
X128953097Y-67789069D01*
X128953097Y-67789069D01*
G37*
G36*
X125003097Y-67789069D02*
G01*
X125106032Y-67799207D01*
X125304146Y-67859305D01*
X125304149Y-67859306D01*
X125400975Y-67911061D01*
X125486729Y-67956897D01*
X125646765Y-68088235D01*
X125778103Y-68248271D01*
X125809210Y-68306468D01*
X125875694Y-68430851D01*
X125875695Y-68430854D01*
X125935793Y-68628968D01*
X125956085Y-68835000D01*
X125935793Y-69041032D01*
X125875695Y-69239146D01*
X125875694Y-69239149D01*
X125823939Y-69335975D01*
X125778103Y-69421729D01*
X125646765Y-69581765D01*
X125486729Y-69713103D01*
X125400975Y-69758939D01*
X125304149Y-69810694D01*
X125304146Y-69810695D01*
X125106032Y-69870793D01*
X125003097Y-69880931D01*
X124951631Y-69886000D01*
X123848369Y-69886000D01*
X123796903Y-69880931D01*
X123693968Y-69870793D01*
X123495854Y-69810695D01*
X123495851Y-69810694D01*
X123399025Y-69758939D01*
X123313271Y-69713103D01*
X123153235Y-69581765D01*
X123021897Y-69421729D01*
X122976061Y-69335975D01*
X122924306Y-69239149D01*
X122924305Y-69239146D01*
X122864207Y-69041032D01*
X122843915Y-68835000D01*
X122864207Y-68628968D01*
X122924305Y-68430854D01*
X122924306Y-68430851D01*
X122990790Y-68306468D01*
X123021897Y-68248271D01*
X123153235Y-68088235D01*
X123313271Y-67956897D01*
X123399025Y-67911061D01*
X123495851Y-67859306D01*
X123495854Y-67859305D01*
X123693968Y-67799207D01*
X123796903Y-67789069D01*
X123848369Y-67784000D01*
X124951631Y-67784000D01*
X125003097Y-67789069D01*
X125003097Y-67789069D01*
G37*
G36*
X116110442Y-67065518D02*
G01*
X116176627Y-67072037D01*
X116346466Y-67123557D01*
X116502991Y-67207222D01*
X116538729Y-67236552D01*
X116640186Y-67319814D01*
X116723448Y-67421271D01*
X116752778Y-67457009D01*
X116836443Y-67613534D01*
X116887963Y-67783373D01*
X116905359Y-67960000D01*
X116887963Y-68136627D01*
X116836443Y-68306466D01*
X116752778Y-68462991D01*
X116723448Y-68498729D01*
X116640186Y-68600186D01*
X116538729Y-68683448D01*
X116502991Y-68712778D01*
X116346466Y-68796443D01*
X116176627Y-68847963D01*
X116110442Y-68854482D01*
X116044260Y-68861000D01*
X115955740Y-68861000D01*
X115889558Y-68854482D01*
X115823373Y-68847963D01*
X115653534Y-68796443D01*
X115497009Y-68712778D01*
X115461271Y-68683448D01*
X115359814Y-68600186D01*
X115276552Y-68498729D01*
X115247222Y-68462991D01*
X115163557Y-68306466D01*
X115112037Y-68136627D01*
X115094641Y-67960000D01*
X115112037Y-67783373D01*
X115163557Y-67613534D01*
X115247222Y-67457009D01*
X115276552Y-67421271D01*
X115359814Y-67319814D01*
X115461271Y-67236552D01*
X115497009Y-67207222D01*
X115653534Y-67123557D01*
X115823373Y-67072037D01*
X115889558Y-67065518D01*
X115955740Y-67059000D01*
X116044260Y-67059000D01*
X116110442Y-67065518D01*
X116110442Y-67065518D01*
G37*
G36*
X132363097Y-65119069D02*
G01*
X132466032Y-65129207D01*
X132664146Y-65189305D01*
X132664149Y-65189306D01*
X132760975Y-65241061D01*
X132846729Y-65286897D01*
X133006765Y-65418235D01*
X133138103Y-65578271D01*
X133147913Y-65596625D01*
X133235694Y-65760851D01*
X133235695Y-65760854D01*
X133295793Y-65958968D01*
X133316085Y-66165000D01*
X133295793Y-66371032D01*
X133235695Y-66569146D01*
X133235694Y-66569149D01*
X133183939Y-66665975D01*
X133138103Y-66751729D01*
X133006765Y-66911765D01*
X132846729Y-67043103D01*
X132792597Y-67072037D01*
X132664149Y-67140694D01*
X132664146Y-67140695D01*
X132466032Y-67200793D01*
X132363097Y-67210931D01*
X132311631Y-67216000D01*
X131208369Y-67216000D01*
X131156903Y-67210931D01*
X131053968Y-67200793D01*
X130855854Y-67140695D01*
X130855851Y-67140694D01*
X130727403Y-67072037D01*
X130673271Y-67043103D01*
X130513235Y-66911765D01*
X130381897Y-66751729D01*
X130336061Y-66665975D01*
X130284306Y-66569149D01*
X130284305Y-66569146D01*
X130224207Y-66371032D01*
X130203915Y-66165000D01*
X130224207Y-65958968D01*
X130284305Y-65760854D01*
X130284306Y-65760851D01*
X130372087Y-65596625D01*
X130381897Y-65578271D01*
X130513235Y-65418235D01*
X130673271Y-65286897D01*
X130759025Y-65241061D01*
X130855851Y-65189306D01*
X130855854Y-65189305D01*
X131053968Y-65129207D01*
X131156903Y-65119069D01*
X131208369Y-65114000D01*
X132311631Y-65114000D01*
X132363097Y-65119069D01*
X132363097Y-65119069D01*
G37*
G36*
X128413097Y-65119069D02*
G01*
X128516032Y-65129207D01*
X128714146Y-65189305D01*
X128714149Y-65189306D01*
X128810975Y-65241061D01*
X128896729Y-65286897D01*
X129056765Y-65418235D01*
X129188103Y-65578271D01*
X129197913Y-65596625D01*
X129285694Y-65760851D01*
X129285695Y-65760854D01*
X129345793Y-65958968D01*
X129366085Y-66165000D01*
X129345793Y-66371032D01*
X129285695Y-66569146D01*
X129285694Y-66569149D01*
X129233939Y-66665975D01*
X129188103Y-66751729D01*
X129056765Y-66911765D01*
X128896729Y-67043103D01*
X128842597Y-67072037D01*
X128714149Y-67140694D01*
X128714146Y-67140695D01*
X128516032Y-67200793D01*
X128413097Y-67210931D01*
X128361631Y-67216000D01*
X127258369Y-67216000D01*
X127206903Y-67210931D01*
X127103968Y-67200793D01*
X126905854Y-67140695D01*
X126905851Y-67140694D01*
X126777403Y-67072037D01*
X126723271Y-67043103D01*
X126563235Y-66911765D01*
X126431897Y-66751729D01*
X126386061Y-66665975D01*
X126334306Y-66569149D01*
X126334305Y-66569146D01*
X126274207Y-66371032D01*
X126253915Y-66165000D01*
X126274207Y-65958968D01*
X126334305Y-65760854D01*
X126334306Y-65760851D01*
X126422087Y-65596625D01*
X126431897Y-65578271D01*
X126563235Y-65418235D01*
X126723271Y-65286897D01*
X126809025Y-65241061D01*
X126905851Y-65189306D01*
X126905854Y-65189305D01*
X127103968Y-65129207D01*
X127206903Y-65119069D01*
X127258369Y-65114000D01*
X128361631Y-65114000D01*
X128413097Y-65119069D01*
X128413097Y-65119069D01*
G37*
G36*
X124463097Y-65119069D02*
G01*
X124566032Y-65129207D01*
X124764146Y-65189305D01*
X124764149Y-65189306D01*
X124860975Y-65241061D01*
X124946729Y-65286897D01*
X125106765Y-65418235D01*
X125238103Y-65578271D01*
X125247913Y-65596625D01*
X125335694Y-65760851D01*
X125335695Y-65760854D01*
X125395793Y-65958968D01*
X125416085Y-66165000D01*
X125395793Y-66371032D01*
X125335695Y-66569146D01*
X125335694Y-66569149D01*
X125283939Y-66665975D01*
X125238103Y-66751729D01*
X125106765Y-66911765D01*
X124946729Y-67043103D01*
X124892597Y-67072037D01*
X124764149Y-67140694D01*
X124764146Y-67140695D01*
X124566032Y-67200793D01*
X124463097Y-67210931D01*
X124411631Y-67216000D01*
X123308369Y-67216000D01*
X123256903Y-67210931D01*
X123153968Y-67200793D01*
X122955854Y-67140695D01*
X122955851Y-67140694D01*
X122827403Y-67072037D01*
X122773271Y-67043103D01*
X122613235Y-66911765D01*
X122481897Y-66751729D01*
X122436061Y-66665975D01*
X122384306Y-66569149D01*
X122384305Y-66569146D01*
X122324207Y-66371032D01*
X122303915Y-66165000D01*
X122324207Y-65958968D01*
X122384305Y-65760854D01*
X122384306Y-65760851D01*
X122472087Y-65596625D01*
X122481897Y-65578271D01*
X122613235Y-65418235D01*
X122773271Y-65286897D01*
X122859025Y-65241061D01*
X122955851Y-65189306D01*
X122955854Y-65189305D01*
X123153968Y-65129207D01*
X123256903Y-65119069D01*
X123308369Y-65114000D01*
X124411631Y-65114000D01*
X124463097Y-65119069D01*
X124463097Y-65119069D01*
G37*
G36*
X116110443Y-64525519D02*
G01*
X116176627Y-64532037D01*
X116346466Y-64583557D01*
X116502991Y-64667222D01*
X116538729Y-64696552D01*
X116640186Y-64779814D01*
X116723448Y-64881271D01*
X116752778Y-64917009D01*
X116836443Y-65073534D01*
X116887963Y-65243373D01*
X116905359Y-65420000D01*
X116887963Y-65596627D01*
X116836443Y-65766466D01*
X116752778Y-65922991D01*
X116723448Y-65958729D01*
X116640186Y-66060186D01*
X116538729Y-66143448D01*
X116502991Y-66172778D01*
X116346466Y-66256443D01*
X116176627Y-66307963D01*
X116110443Y-66314481D01*
X116044260Y-66321000D01*
X115955740Y-66321000D01*
X115889557Y-66314481D01*
X115823373Y-66307963D01*
X115653534Y-66256443D01*
X115497009Y-66172778D01*
X115461271Y-66143448D01*
X115359814Y-66060186D01*
X115276552Y-65958729D01*
X115247222Y-65922991D01*
X115163557Y-65766466D01*
X115112037Y-65596627D01*
X115094641Y-65420000D01*
X115112037Y-65243373D01*
X115163557Y-65073534D01*
X115247222Y-64917009D01*
X115276552Y-64881271D01*
X115359814Y-64779814D01*
X115461271Y-64696552D01*
X115497009Y-64667222D01*
X115653534Y-64583557D01*
X115823373Y-64532037D01*
X115889557Y-64525519D01*
X115955740Y-64519000D01*
X116044260Y-64519000D01*
X116110443Y-64525519D01*
X116110443Y-64525519D01*
G37*
G36*
X121748228Y-62981703D02*
G01*
X121903100Y-63045853D01*
X122042481Y-63138985D01*
X122161015Y-63257519D01*
X122254147Y-63396900D01*
X122318297Y-63551772D01*
X122351000Y-63716184D01*
X122351000Y-63883816D01*
X122318297Y-64048228D01*
X122254147Y-64203100D01*
X122161015Y-64342481D01*
X122042481Y-64461015D01*
X121903100Y-64554147D01*
X121748228Y-64618297D01*
X121583816Y-64651000D01*
X121416184Y-64651000D01*
X121251772Y-64618297D01*
X121096900Y-64554147D01*
X120957519Y-64461015D01*
X120838985Y-64342481D01*
X120745853Y-64203100D01*
X120681703Y-64048228D01*
X120649000Y-63883816D01*
X120649000Y-63716184D01*
X120681703Y-63551772D01*
X120745853Y-63396900D01*
X120838985Y-63257519D01*
X120957519Y-63138985D01*
X121096900Y-63045853D01*
X121251772Y-62981703D01*
X121416184Y-62949000D01*
X121583816Y-62949000D01*
X121748228Y-62981703D01*
X121748228Y-62981703D01*
G37*
G36*
X134748228Y-62981703D02*
G01*
X134903100Y-63045853D01*
X135042481Y-63138985D01*
X135161015Y-63257519D01*
X135254147Y-63396900D01*
X135318297Y-63551772D01*
X135351000Y-63716184D01*
X135351000Y-63883816D01*
X135318297Y-64048228D01*
X135254147Y-64203100D01*
X135161015Y-64342481D01*
X135042481Y-64461015D01*
X134903100Y-64554147D01*
X134748228Y-64618297D01*
X134583816Y-64651000D01*
X134416184Y-64651000D01*
X134251772Y-64618297D01*
X134096900Y-64554147D01*
X133957519Y-64461015D01*
X133838985Y-64342481D01*
X133745853Y-64203100D01*
X133681703Y-64048228D01*
X133649000Y-63883816D01*
X133649000Y-63716184D01*
X133681703Y-63551772D01*
X133745853Y-63396900D01*
X133838985Y-63257519D01*
X133957519Y-63138985D01*
X134096900Y-63045853D01*
X134251772Y-62981703D01*
X134416184Y-62949000D01*
X134583816Y-62949000D01*
X134748228Y-62981703D01*
X134748228Y-62981703D01*
G37*
M02*
