G04 #@! TF.GenerationSoftware,KiCad,Pcbnew,(5.1.4)-1*
G04 #@! TF.CreationDate,2020-03-11T16:36:07-04:00*
G04 #@! TF.ProjectId,MicSwitchBoard,4d696353-7769-4746-9368-426f6172642e,rev?*
G04 #@! TF.SameCoordinates,Original*
G04 #@! TF.FileFunction,Paste,Bot*
G04 #@! TF.FilePolarity,Positive*
%FSLAX46Y46*%
G04 Gerber Fmt 4.6, Leading zero omitted, Abs format (unit mm)*
G04 Created by KiCad (PCBNEW (5.1.4)-1) date 2020-03-11 16:36:07*
%MOMM*%
%LPD*%
G04 APERTURE LIST*
%ADD10R,0.600000X0.700000*%
%ADD11C,0.100000*%
%ADD12C,1.600000*%
%ADD13C,0.875000*%
%ADD14R,0.900000X0.800000*%
G04 APERTURE END LIST*
D10*
X131800000Y-73000000D03*
X133200000Y-73000000D03*
D11*
G36*
X121674504Y-76451204D02*
G01*
X121698773Y-76454804D01*
X121722571Y-76460765D01*
X121745671Y-76469030D01*
X121767849Y-76479520D01*
X121788893Y-76492133D01*
X121808598Y-76506747D01*
X121826777Y-76523223D01*
X121843253Y-76541402D01*
X121857867Y-76561107D01*
X121870480Y-76582151D01*
X121880970Y-76604329D01*
X121889235Y-76627429D01*
X121895196Y-76651227D01*
X121898796Y-76675496D01*
X121900000Y-76700000D01*
X121900000Y-77800000D01*
X121898796Y-77824504D01*
X121895196Y-77848773D01*
X121889235Y-77872571D01*
X121880970Y-77895671D01*
X121870480Y-77917849D01*
X121857867Y-77938893D01*
X121843253Y-77958598D01*
X121826777Y-77976777D01*
X121808598Y-77993253D01*
X121788893Y-78007867D01*
X121767849Y-78020480D01*
X121745671Y-78030970D01*
X121722571Y-78039235D01*
X121698773Y-78045196D01*
X121674504Y-78048796D01*
X121650000Y-78050000D01*
X119550000Y-78050000D01*
X119525496Y-78048796D01*
X119501227Y-78045196D01*
X119477429Y-78039235D01*
X119454329Y-78030970D01*
X119432151Y-78020480D01*
X119411107Y-78007867D01*
X119391402Y-77993253D01*
X119373223Y-77976777D01*
X119356747Y-77958598D01*
X119342133Y-77938893D01*
X119329520Y-77917849D01*
X119319030Y-77895671D01*
X119310765Y-77872571D01*
X119304804Y-77848773D01*
X119301204Y-77824504D01*
X119300000Y-77800000D01*
X119300000Y-76700000D01*
X119301204Y-76675496D01*
X119304804Y-76651227D01*
X119310765Y-76627429D01*
X119319030Y-76604329D01*
X119329520Y-76582151D01*
X119342133Y-76561107D01*
X119356747Y-76541402D01*
X119373223Y-76523223D01*
X119391402Y-76506747D01*
X119411107Y-76492133D01*
X119432151Y-76479520D01*
X119454329Y-76469030D01*
X119477429Y-76460765D01*
X119501227Y-76454804D01*
X119525496Y-76451204D01*
X119550000Y-76450000D01*
X121650000Y-76450000D01*
X121674504Y-76451204D01*
X121674504Y-76451204D01*
G37*
D12*
X120600000Y-77250000D03*
D11*
G36*
X125274504Y-76451204D02*
G01*
X125298773Y-76454804D01*
X125322571Y-76460765D01*
X125345671Y-76469030D01*
X125367849Y-76479520D01*
X125388893Y-76492133D01*
X125408598Y-76506747D01*
X125426777Y-76523223D01*
X125443253Y-76541402D01*
X125457867Y-76561107D01*
X125470480Y-76582151D01*
X125480970Y-76604329D01*
X125489235Y-76627429D01*
X125495196Y-76651227D01*
X125498796Y-76675496D01*
X125500000Y-76700000D01*
X125500000Y-77800000D01*
X125498796Y-77824504D01*
X125495196Y-77848773D01*
X125489235Y-77872571D01*
X125480970Y-77895671D01*
X125470480Y-77917849D01*
X125457867Y-77938893D01*
X125443253Y-77958598D01*
X125426777Y-77976777D01*
X125408598Y-77993253D01*
X125388893Y-78007867D01*
X125367849Y-78020480D01*
X125345671Y-78030970D01*
X125322571Y-78039235D01*
X125298773Y-78045196D01*
X125274504Y-78048796D01*
X125250000Y-78050000D01*
X123150000Y-78050000D01*
X123125496Y-78048796D01*
X123101227Y-78045196D01*
X123077429Y-78039235D01*
X123054329Y-78030970D01*
X123032151Y-78020480D01*
X123011107Y-78007867D01*
X122991402Y-77993253D01*
X122973223Y-77976777D01*
X122956747Y-77958598D01*
X122942133Y-77938893D01*
X122929520Y-77917849D01*
X122919030Y-77895671D01*
X122910765Y-77872571D01*
X122904804Y-77848773D01*
X122901204Y-77824504D01*
X122900000Y-77800000D01*
X122900000Y-76700000D01*
X122901204Y-76675496D01*
X122904804Y-76651227D01*
X122910765Y-76627429D01*
X122919030Y-76604329D01*
X122929520Y-76582151D01*
X122942133Y-76561107D01*
X122956747Y-76541402D01*
X122973223Y-76523223D01*
X122991402Y-76506747D01*
X123011107Y-76492133D01*
X123032151Y-76479520D01*
X123054329Y-76469030D01*
X123077429Y-76460765D01*
X123101227Y-76454804D01*
X123125496Y-76451204D01*
X123150000Y-76450000D01*
X125250000Y-76450000D01*
X125274504Y-76451204D01*
X125274504Y-76451204D01*
G37*
D12*
X124200000Y-77250000D03*
D11*
G36*
X117074504Y-77001204D02*
G01*
X117098773Y-77004804D01*
X117122571Y-77010765D01*
X117145671Y-77019030D01*
X117167849Y-77029520D01*
X117188893Y-77042133D01*
X117208598Y-77056747D01*
X117226777Y-77073223D01*
X117243253Y-77091402D01*
X117257867Y-77111107D01*
X117270480Y-77132151D01*
X117280970Y-77154329D01*
X117289235Y-77177429D01*
X117295196Y-77201227D01*
X117298796Y-77225496D01*
X117300000Y-77250000D01*
X117300000Y-79350000D01*
X117298796Y-79374504D01*
X117295196Y-79398773D01*
X117289235Y-79422571D01*
X117280970Y-79445671D01*
X117270480Y-79467849D01*
X117257867Y-79488893D01*
X117243253Y-79508598D01*
X117226777Y-79526777D01*
X117208598Y-79543253D01*
X117188893Y-79557867D01*
X117167849Y-79570480D01*
X117145671Y-79580970D01*
X117122571Y-79589235D01*
X117098773Y-79595196D01*
X117074504Y-79598796D01*
X117050000Y-79600000D01*
X115950000Y-79600000D01*
X115925496Y-79598796D01*
X115901227Y-79595196D01*
X115877429Y-79589235D01*
X115854329Y-79580970D01*
X115832151Y-79570480D01*
X115811107Y-79557867D01*
X115791402Y-79543253D01*
X115773223Y-79526777D01*
X115756747Y-79508598D01*
X115742133Y-79488893D01*
X115729520Y-79467849D01*
X115719030Y-79445671D01*
X115710765Y-79422571D01*
X115704804Y-79398773D01*
X115701204Y-79374504D01*
X115700000Y-79350000D01*
X115700000Y-77250000D01*
X115701204Y-77225496D01*
X115704804Y-77201227D01*
X115710765Y-77177429D01*
X115719030Y-77154329D01*
X115729520Y-77132151D01*
X115742133Y-77111107D01*
X115756747Y-77091402D01*
X115773223Y-77073223D01*
X115791402Y-77056747D01*
X115811107Y-77042133D01*
X115832151Y-77029520D01*
X115854329Y-77019030D01*
X115877429Y-77010765D01*
X115901227Y-77004804D01*
X115925496Y-77001204D01*
X115950000Y-77000000D01*
X117050000Y-77000000D01*
X117074504Y-77001204D01*
X117074504Y-77001204D01*
G37*
D12*
X116500000Y-78300000D03*
D11*
G36*
X117074504Y-73401204D02*
G01*
X117098773Y-73404804D01*
X117122571Y-73410765D01*
X117145671Y-73419030D01*
X117167849Y-73429520D01*
X117188893Y-73442133D01*
X117208598Y-73456747D01*
X117226777Y-73473223D01*
X117243253Y-73491402D01*
X117257867Y-73511107D01*
X117270480Y-73532151D01*
X117280970Y-73554329D01*
X117289235Y-73577429D01*
X117295196Y-73601227D01*
X117298796Y-73625496D01*
X117300000Y-73650000D01*
X117300000Y-75750000D01*
X117298796Y-75774504D01*
X117295196Y-75798773D01*
X117289235Y-75822571D01*
X117280970Y-75845671D01*
X117270480Y-75867849D01*
X117257867Y-75888893D01*
X117243253Y-75908598D01*
X117226777Y-75926777D01*
X117208598Y-75943253D01*
X117188893Y-75957867D01*
X117167849Y-75970480D01*
X117145671Y-75980970D01*
X117122571Y-75989235D01*
X117098773Y-75995196D01*
X117074504Y-75998796D01*
X117050000Y-76000000D01*
X115950000Y-76000000D01*
X115925496Y-75998796D01*
X115901227Y-75995196D01*
X115877429Y-75989235D01*
X115854329Y-75980970D01*
X115832151Y-75970480D01*
X115811107Y-75957867D01*
X115791402Y-75943253D01*
X115773223Y-75926777D01*
X115756747Y-75908598D01*
X115742133Y-75888893D01*
X115729520Y-75867849D01*
X115719030Y-75845671D01*
X115710765Y-75822571D01*
X115704804Y-75798773D01*
X115701204Y-75774504D01*
X115700000Y-75750000D01*
X115700000Y-73650000D01*
X115701204Y-73625496D01*
X115704804Y-73601227D01*
X115710765Y-73577429D01*
X115719030Y-73554329D01*
X115729520Y-73532151D01*
X115742133Y-73511107D01*
X115756747Y-73491402D01*
X115773223Y-73473223D01*
X115791402Y-73456747D01*
X115811107Y-73442133D01*
X115832151Y-73429520D01*
X115854329Y-73419030D01*
X115877429Y-73410765D01*
X115901227Y-73404804D01*
X115925496Y-73401204D01*
X115950000Y-73400000D01*
X117050000Y-73400000D01*
X117074504Y-73401204D01*
X117074504Y-73401204D01*
G37*
D12*
X116500000Y-74700000D03*
D11*
G36*
X131827691Y-77726053D02*
G01*
X131848926Y-77729203D01*
X131869750Y-77734419D01*
X131889962Y-77741651D01*
X131909368Y-77750830D01*
X131927781Y-77761866D01*
X131945024Y-77774654D01*
X131960930Y-77789070D01*
X131975346Y-77804976D01*
X131988134Y-77822219D01*
X131999170Y-77840632D01*
X132008349Y-77860038D01*
X132015581Y-77880250D01*
X132020797Y-77901074D01*
X132023947Y-77922309D01*
X132025000Y-77943750D01*
X132025000Y-78456250D01*
X132023947Y-78477691D01*
X132020797Y-78498926D01*
X132015581Y-78519750D01*
X132008349Y-78539962D01*
X131999170Y-78559368D01*
X131988134Y-78577781D01*
X131975346Y-78595024D01*
X131960930Y-78610930D01*
X131945024Y-78625346D01*
X131927781Y-78638134D01*
X131909368Y-78649170D01*
X131889962Y-78658349D01*
X131869750Y-78665581D01*
X131848926Y-78670797D01*
X131827691Y-78673947D01*
X131806250Y-78675000D01*
X131368750Y-78675000D01*
X131347309Y-78673947D01*
X131326074Y-78670797D01*
X131305250Y-78665581D01*
X131285038Y-78658349D01*
X131265632Y-78649170D01*
X131247219Y-78638134D01*
X131229976Y-78625346D01*
X131214070Y-78610930D01*
X131199654Y-78595024D01*
X131186866Y-78577781D01*
X131175830Y-78559368D01*
X131166651Y-78539962D01*
X131159419Y-78519750D01*
X131154203Y-78498926D01*
X131151053Y-78477691D01*
X131150000Y-78456250D01*
X131150000Y-77943750D01*
X131151053Y-77922309D01*
X131154203Y-77901074D01*
X131159419Y-77880250D01*
X131166651Y-77860038D01*
X131175830Y-77840632D01*
X131186866Y-77822219D01*
X131199654Y-77804976D01*
X131214070Y-77789070D01*
X131229976Y-77774654D01*
X131247219Y-77761866D01*
X131265632Y-77750830D01*
X131285038Y-77741651D01*
X131305250Y-77734419D01*
X131326074Y-77729203D01*
X131347309Y-77726053D01*
X131368750Y-77725000D01*
X131806250Y-77725000D01*
X131827691Y-77726053D01*
X131827691Y-77726053D01*
G37*
D13*
X131587500Y-78200000D03*
D11*
G36*
X130252691Y-77726053D02*
G01*
X130273926Y-77729203D01*
X130294750Y-77734419D01*
X130314962Y-77741651D01*
X130334368Y-77750830D01*
X130352781Y-77761866D01*
X130370024Y-77774654D01*
X130385930Y-77789070D01*
X130400346Y-77804976D01*
X130413134Y-77822219D01*
X130424170Y-77840632D01*
X130433349Y-77860038D01*
X130440581Y-77880250D01*
X130445797Y-77901074D01*
X130448947Y-77922309D01*
X130450000Y-77943750D01*
X130450000Y-78456250D01*
X130448947Y-78477691D01*
X130445797Y-78498926D01*
X130440581Y-78519750D01*
X130433349Y-78539962D01*
X130424170Y-78559368D01*
X130413134Y-78577781D01*
X130400346Y-78595024D01*
X130385930Y-78610930D01*
X130370024Y-78625346D01*
X130352781Y-78638134D01*
X130334368Y-78649170D01*
X130314962Y-78658349D01*
X130294750Y-78665581D01*
X130273926Y-78670797D01*
X130252691Y-78673947D01*
X130231250Y-78675000D01*
X129793750Y-78675000D01*
X129772309Y-78673947D01*
X129751074Y-78670797D01*
X129730250Y-78665581D01*
X129710038Y-78658349D01*
X129690632Y-78649170D01*
X129672219Y-78638134D01*
X129654976Y-78625346D01*
X129639070Y-78610930D01*
X129624654Y-78595024D01*
X129611866Y-78577781D01*
X129600830Y-78559368D01*
X129591651Y-78539962D01*
X129584419Y-78519750D01*
X129579203Y-78498926D01*
X129576053Y-78477691D01*
X129575000Y-78456250D01*
X129575000Y-77943750D01*
X129576053Y-77922309D01*
X129579203Y-77901074D01*
X129584419Y-77880250D01*
X129591651Y-77860038D01*
X129600830Y-77840632D01*
X129611866Y-77822219D01*
X129624654Y-77804976D01*
X129639070Y-77789070D01*
X129654976Y-77774654D01*
X129672219Y-77761866D01*
X129690632Y-77750830D01*
X129710038Y-77741651D01*
X129730250Y-77734419D01*
X129751074Y-77729203D01*
X129772309Y-77726053D01*
X129793750Y-77725000D01*
X130231250Y-77725000D01*
X130252691Y-77726053D01*
X130252691Y-77726053D01*
G37*
D13*
X130012500Y-78200000D03*
D11*
G36*
X134027691Y-74313553D02*
G01*
X134048926Y-74316703D01*
X134069750Y-74321919D01*
X134089962Y-74329151D01*
X134109368Y-74338330D01*
X134127781Y-74349366D01*
X134145024Y-74362154D01*
X134160930Y-74376570D01*
X134175346Y-74392476D01*
X134188134Y-74409719D01*
X134199170Y-74428132D01*
X134208349Y-74447538D01*
X134215581Y-74467750D01*
X134220797Y-74488574D01*
X134223947Y-74509809D01*
X134225000Y-74531250D01*
X134225000Y-74968750D01*
X134223947Y-74990191D01*
X134220797Y-75011426D01*
X134215581Y-75032250D01*
X134208349Y-75052462D01*
X134199170Y-75071868D01*
X134188134Y-75090281D01*
X134175346Y-75107524D01*
X134160930Y-75123430D01*
X134145024Y-75137846D01*
X134127781Y-75150634D01*
X134109368Y-75161670D01*
X134089962Y-75170849D01*
X134069750Y-75178081D01*
X134048926Y-75183297D01*
X134027691Y-75186447D01*
X134006250Y-75187500D01*
X133493750Y-75187500D01*
X133472309Y-75186447D01*
X133451074Y-75183297D01*
X133430250Y-75178081D01*
X133410038Y-75170849D01*
X133390632Y-75161670D01*
X133372219Y-75150634D01*
X133354976Y-75137846D01*
X133339070Y-75123430D01*
X133324654Y-75107524D01*
X133311866Y-75090281D01*
X133300830Y-75071868D01*
X133291651Y-75052462D01*
X133284419Y-75032250D01*
X133279203Y-75011426D01*
X133276053Y-74990191D01*
X133275000Y-74968750D01*
X133275000Y-74531250D01*
X133276053Y-74509809D01*
X133279203Y-74488574D01*
X133284419Y-74467750D01*
X133291651Y-74447538D01*
X133300830Y-74428132D01*
X133311866Y-74409719D01*
X133324654Y-74392476D01*
X133339070Y-74376570D01*
X133354976Y-74362154D01*
X133372219Y-74349366D01*
X133390632Y-74338330D01*
X133410038Y-74329151D01*
X133430250Y-74321919D01*
X133451074Y-74316703D01*
X133472309Y-74313553D01*
X133493750Y-74312500D01*
X134006250Y-74312500D01*
X134027691Y-74313553D01*
X134027691Y-74313553D01*
G37*
D13*
X133750000Y-74750000D03*
D11*
G36*
X134027691Y-75888553D02*
G01*
X134048926Y-75891703D01*
X134069750Y-75896919D01*
X134089962Y-75904151D01*
X134109368Y-75913330D01*
X134127781Y-75924366D01*
X134145024Y-75937154D01*
X134160930Y-75951570D01*
X134175346Y-75967476D01*
X134188134Y-75984719D01*
X134199170Y-76003132D01*
X134208349Y-76022538D01*
X134215581Y-76042750D01*
X134220797Y-76063574D01*
X134223947Y-76084809D01*
X134225000Y-76106250D01*
X134225000Y-76543750D01*
X134223947Y-76565191D01*
X134220797Y-76586426D01*
X134215581Y-76607250D01*
X134208349Y-76627462D01*
X134199170Y-76646868D01*
X134188134Y-76665281D01*
X134175346Y-76682524D01*
X134160930Y-76698430D01*
X134145024Y-76712846D01*
X134127781Y-76725634D01*
X134109368Y-76736670D01*
X134089962Y-76745849D01*
X134069750Y-76753081D01*
X134048926Y-76758297D01*
X134027691Y-76761447D01*
X134006250Y-76762500D01*
X133493750Y-76762500D01*
X133472309Y-76761447D01*
X133451074Y-76758297D01*
X133430250Y-76753081D01*
X133410038Y-76745849D01*
X133390632Y-76736670D01*
X133372219Y-76725634D01*
X133354976Y-76712846D01*
X133339070Y-76698430D01*
X133324654Y-76682524D01*
X133311866Y-76665281D01*
X133300830Y-76646868D01*
X133291651Y-76627462D01*
X133284419Y-76607250D01*
X133279203Y-76586426D01*
X133276053Y-76565191D01*
X133275000Y-76543750D01*
X133275000Y-76106250D01*
X133276053Y-76084809D01*
X133279203Y-76063574D01*
X133284419Y-76042750D01*
X133291651Y-76022538D01*
X133300830Y-76003132D01*
X133311866Y-75984719D01*
X133324654Y-75967476D01*
X133339070Y-75951570D01*
X133354976Y-75937154D01*
X133372219Y-75924366D01*
X133390632Y-75913330D01*
X133410038Y-75904151D01*
X133430250Y-75896919D01*
X133451074Y-75891703D01*
X133472309Y-75888553D01*
X133493750Y-75887500D01*
X134006250Y-75887500D01*
X134027691Y-75888553D01*
X134027691Y-75888553D01*
G37*
D13*
X133750000Y-76325000D03*
D11*
G36*
X129027691Y-74851053D02*
G01*
X129048926Y-74854203D01*
X129069750Y-74859419D01*
X129089962Y-74866651D01*
X129109368Y-74875830D01*
X129127781Y-74886866D01*
X129145024Y-74899654D01*
X129160930Y-74914070D01*
X129175346Y-74929976D01*
X129188134Y-74947219D01*
X129199170Y-74965632D01*
X129208349Y-74985038D01*
X129215581Y-75005250D01*
X129220797Y-75026074D01*
X129223947Y-75047309D01*
X129225000Y-75068750D01*
X129225000Y-75506250D01*
X129223947Y-75527691D01*
X129220797Y-75548926D01*
X129215581Y-75569750D01*
X129208349Y-75589962D01*
X129199170Y-75609368D01*
X129188134Y-75627781D01*
X129175346Y-75645024D01*
X129160930Y-75660930D01*
X129145024Y-75675346D01*
X129127781Y-75688134D01*
X129109368Y-75699170D01*
X129089962Y-75708349D01*
X129069750Y-75715581D01*
X129048926Y-75720797D01*
X129027691Y-75723947D01*
X129006250Y-75725000D01*
X128493750Y-75725000D01*
X128472309Y-75723947D01*
X128451074Y-75720797D01*
X128430250Y-75715581D01*
X128410038Y-75708349D01*
X128390632Y-75699170D01*
X128372219Y-75688134D01*
X128354976Y-75675346D01*
X128339070Y-75660930D01*
X128324654Y-75645024D01*
X128311866Y-75627781D01*
X128300830Y-75609368D01*
X128291651Y-75589962D01*
X128284419Y-75569750D01*
X128279203Y-75548926D01*
X128276053Y-75527691D01*
X128275000Y-75506250D01*
X128275000Y-75068750D01*
X128276053Y-75047309D01*
X128279203Y-75026074D01*
X128284419Y-75005250D01*
X128291651Y-74985038D01*
X128300830Y-74965632D01*
X128311866Y-74947219D01*
X128324654Y-74929976D01*
X128339070Y-74914070D01*
X128354976Y-74899654D01*
X128372219Y-74886866D01*
X128390632Y-74875830D01*
X128410038Y-74866651D01*
X128430250Y-74859419D01*
X128451074Y-74854203D01*
X128472309Y-74851053D01*
X128493750Y-74850000D01*
X129006250Y-74850000D01*
X129027691Y-74851053D01*
X129027691Y-74851053D01*
G37*
D13*
X128750000Y-75287500D03*
D11*
G36*
X129027691Y-73276053D02*
G01*
X129048926Y-73279203D01*
X129069750Y-73284419D01*
X129089962Y-73291651D01*
X129109368Y-73300830D01*
X129127781Y-73311866D01*
X129145024Y-73324654D01*
X129160930Y-73339070D01*
X129175346Y-73354976D01*
X129188134Y-73372219D01*
X129199170Y-73390632D01*
X129208349Y-73410038D01*
X129215581Y-73430250D01*
X129220797Y-73451074D01*
X129223947Y-73472309D01*
X129225000Y-73493750D01*
X129225000Y-73931250D01*
X129223947Y-73952691D01*
X129220797Y-73973926D01*
X129215581Y-73994750D01*
X129208349Y-74014962D01*
X129199170Y-74034368D01*
X129188134Y-74052781D01*
X129175346Y-74070024D01*
X129160930Y-74085930D01*
X129145024Y-74100346D01*
X129127781Y-74113134D01*
X129109368Y-74124170D01*
X129089962Y-74133349D01*
X129069750Y-74140581D01*
X129048926Y-74145797D01*
X129027691Y-74148947D01*
X129006250Y-74150000D01*
X128493750Y-74150000D01*
X128472309Y-74148947D01*
X128451074Y-74145797D01*
X128430250Y-74140581D01*
X128410038Y-74133349D01*
X128390632Y-74124170D01*
X128372219Y-74113134D01*
X128354976Y-74100346D01*
X128339070Y-74085930D01*
X128324654Y-74070024D01*
X128311866Y-74052781D01*
X128300830Y-74034368D01*
X128291651Y-74014962D01*
X128284419Y-73994750D01*
X128279203Y-73973926D01*
X128276053Y-73952691D01*
X128275000Y-73931250D01*
X128275000Y-73493750D01*
X128276053Y-73472309D01*
X128279203Y-73451074D01*
X128284419Y-73430250D01*
X128291651Y-73410038D01*
X128300830Y-73390632D01*
X128311866Y-73372219D01*
X128324654Y-73354976D01*
X128339070Y-73339070D01*
X128354976Y-73324654D01*
X128372219Y-73311866D01*
X128390632Y-73300830D01*
X128410038Y-73291651D01*
X128430250Y-73284419D01*
X128451074Y-73279203D01*
X128472309Y-73276053D01*
X128493750Y-73275000D01*
X129006250Y-73275000D01*
X129027691Y-73276053D01*
X129027691Y-73276053D01*
G37*
D13*
X128750000Y-73712500D03*
D11*
G36*
X125652691Y-74526053D02*
G01*
X125673926Y-74529203D01*
X125694750Y-74534419D01*
X125714962Y-74541651D01*
X125734368Y-74550830D01*
X125752781Y-74561866D01*
X125770024Y-74574654D01*
X125785930Y-74589070D01*
X125800346Y-74604976D01*
X125813134Y-74622219D01*
X125824170Y-74640632D01*
X125833349Y-74660038D01*
X125840581Y-74680250D01*
X125845797Y-74701074D01*
X125848947Y-74722309D01*
X125850000Y-74743750D01*
X125850000Y-75256250D01*
X125848947Y-75277691D01*
X125845797Y-75298926D01*
X125840581Y-75319750D01*
X125833349Y-75339962D01*
X125824170Y-75359368D01*
X125813134Y-75377781D01*
X125800346Y-75395024D01*
X125785930Y-75410930D01*
X125770024Y-75425346D01*
X125752781Y-75438134D01*
X125734368Y-75449170D01*
X125714962Y-75458349D01*
X125694750Y-75465581D01*
X125673926Y-75470797D01*
X125652691Y-75473947D01*
X125631250Y-75475000D01*
X125193750Y-75475000D01*
X125172309Y-75473947D01*
X125151074Y-75470797D01*
X125130250Y-75465581D01*
X125110038Y-75458349D01*
X125090632Y-75449170D01*
X125072219Y-75438134D01*
X125054976Y-75425346D01*
X125039070Y-75410930D01*
X125024654Y-75395024D01*
X125011866Y-75377781D01*
X125000830Y-75359368D01*
X124991651Y-75339962D01*
X124984419Y-75319750D01*
X124979203Y-75298926D01*
X124976053Y-75277691D01*
X124975000Y-75256250D01*
X124975000Y-74743750D01*
X124976053Y-74722309D01*
X124979203Y-74701074D01*
X124984419Y-74680250D01*
X124991651Y-74660038D01*
X125000830Y-74640632D01*
X125011866Y-74622219D01*
X125024654Y-74604976D01*
X125039070Y-74589070D01*
X125054976Y-74574654D01*
X125072219Y-74561866D01*
X125090632Y-74550830D01*
X125110038Y-74541651D01*
X125130250Y-74534419D01*
X125151074Y-74529203D01*
X125172309Y-74526053D01*
X125193750Y-74525000D01*
X125631250Y-74525000D01*
X125652691Y-74526053D01*
X125652691Y-74526053D01*
G37*
D13*
X125412500Y-75000000D03*
D11*
G36*
X127227691Y-74526053D02*
G01*
X127248926Y-74529203D01*
X127269750Y-74534419D01*
X127289962Y-74541651D01*
X127309368Y-74550830D01*
X127327781Y-74561866D01*
X127345024Y-74574654D01*
X127360930Y-74589070D01*
X127375346Y-74604976D01*
X127388134Y-74622219D01*
X127399170Y-74640632D01*
X127408349Y-74660038D01*
X127415581Y-74680250D01*
X127420797Y-74701074D01*
X127423947Y-74722309D01*
X127425000Y-74743750D01*
X127425000Y-75256250D01*
X127423947Y-75277691D01*
X127420797Y-75298926D01*
X127415581Y-75319750D01*
X127408349Y-75339962D01*
X127399170Y-75359368D01*
X127388134Y-75377781D01*
X127375346Y-75395024D01*
X127360930Y-75410930D01*
X127345024Y-75425346D01*
X127327781Y-75438134D01*
X127309368Y-75449170D01*
X127289962Y-75458349D01*
X127269750Y-75465581D01*
X127248926Y-75470797D01*
X127227691Y-75473947D01*
X127206250Y-75475000D01*
X126768750Y-75475000D01*
X126747309Y-75473947D01*
X126726074Y-75470797D01*
X126705250Y-75465581D01*
X126685038Y-75458349D01*
X126665632Y-75449170D01*
X126647219Y-75438134D01*
X126629976Y-75425346D01*
X126614070Y-75410930D01*
X126599654Y-75395024D01*
X126586866Y-75377781D01*
X126575830Y-75359368D01*
X126566651Y-75339962D01*
X126559419Y-75319750D01*
X126554203Y-75298926D01*
X126551053Y-75277691D01*
X126550000Y-75256250D01*
X126550000Y-74743750D01*
X126551053Y-74722309D01*
X126554203Y-74701074D01*
X126559419Y-74680250D01*
X126566651Y-74660038D01*
X126575830Y-74640632D01*
X126586866Y-74622219D01*
X126599654Y-74604976D01*
X126614070Y-74589070D01*
X126629976Y-74574654D01*
X126647219Y-74561866D01*
X126665632Y-74550830D01*
X126685038Y-74541651D01*
X126705250Y-74534419D01*
X126726074Y-74529203D01*
X126747309Y-74526053D01*
X126768750Y-74525000D01*
X127206250Y-74525000D01*
X127227691Y-74526053D01*
X127227691Y-74526053D01*
G37*
D13*
X126987500Y-75000000D03*
D11*
G36*
X125652691Y-73026053D02*
G01*
X125673926Y-73029203D01*
X125694750Y-73034419D01*
X125714962Y-73041651D01*
X125734368Y-73050830D01*
X125752781Y-73061866D01*
X125770024Y-73074654D01*
X125785930Y-73089070D01*
X125800346Y-73104976D01*
X125813134Y-73122219D01*
X125824170Y-73140632D01*
X125833349Y-73160038D01*
X125840581Y-73180250D01*
X125845797Y-73201074D01*
X125848947Y-73222309D01*
X125850000Y-73243750D01*
X125850000Y-73756250D01*
X125848947Y-73777691D01*
X125845797Y-73798926D01*
X125840581Y-73819750D01*
X125833349Y-73839962D01*
X125824170Y-73859368D01*
X125813134Y-73877781D01*
X125800346Y-73895024D01*
X125785930Y-73910930D01*
X125770024Y-73925346D01*
X125752781Y-73938134D01*
X125734368Y-73949170D01*
X125714962Y-73958349D01*
X125694750Y-73965581D01*
X125673926Y-73970797D01*
X125652691Y-73973947D01*
X125631250Y-73975000D01*
X125193750Y-73975000D01*
X125172309Y-73973947D01*
X125151074Y-73970797D01*
X125130250Y-73965581D01*
X125110038Y-73958349D01*
X125090632Y-73949170D01*
X125072219Y-73938134D01*
X125054976Y-73925346D01*
X125039070Y-73910930D01*
X125024654Y-73895024D01*
X125011866Y-73877781D01*
X125000830Y-73859368D01*
X124991651Y-73839962D01*
X124984419Y-73819750D01*
X124979203Y-73798926D01*
X124976053Y-73777691D01*
X124975000Y-73756250D01*
X124975000Y-73243750D01*
X124976053Y-73222309D01*
X124979203Y-73201074D01*
X124984419Y-73180250D01*
X124991651Y-73160038D01*
X125000830Y-73140632D01*
X125011866Y-73122219D01*
X125024654Y-73104976D01*
X125039070Y-73089070D01*
X125054976Y-73074654D01*
X125072219Y-73061866D01*
X125090632Y-73050830D01*
X125110038Y-73041651D01*
X125130250Y-73034419D01*
X125151074Y-73029203D01*
X125172309Y-73026053D01*
X125193750Y-73025000D01*
X125631250Y-73025000D01*
X125652691Y-73026053D01*
X125652691Y-73026053D01*
G37*
D13*
X125412500Y-73500000D03*
D11*
G36*
X127227691Y-73026053D02*
G01*
X127248926Y-73029203D01*
X127269750Y-73034419D01*
X127289962Y-73041651D01*
X127309368Y-73050830D01*
X127327781Y-73061866D01*
X127345024Y-73074654D01*
X127360930Y-73089070D01*
X127375346Y-73104976D01*
X127388134Y-73122219D01*
X127399170Y-73140632D01*
X127408349Y-73160038D01*
X127415581Y-73180250D01*
X127420797Y-73201074D01*
X127423947Y-73222309D01*
X127425000Y-73243750D01*
X127425000Y-73756250D01*
X127423947Y-73777691D01*
X127420797Y-73798926D01*
X127415581Y-73819750D01*
X127408349Y-73839962D01*
X127399170Y-73859368D01*
X127388134Y-73877781D01*
X127375346Y-73895024D01*
X127360930Y-73910930D01*
X127345024Y-73925346D01*
X127327781Y-73938134D01*
X127309368Y-73949170D01*
X127289962Y-73958349D01*
X127269750Y-73965581D01*
X127248926Y-73970797D01*
X127227691Y-73973947D01*
X127206250Y-73975000D01*
X126768750Y-73975000D01*
X126747309Y-73973947D01*
X126726074Y-73970797D01*
X126705250Y-73965581D01*
X126685038Y-73958349D01*
X126665632Y-73949170D01*
X126647219Y-73938134D01*
X126629976Y-73925346D01*
X126614070Y-73910930D01*
X126599654Y-73895024D01*
X126586866Y-73877781D01*
X126575830Y-73859368D01*
X126566651Y-73839962D01*
X126559419Y-73819750D01*
X126554203Y-73798926D01*
X126551053Y-73777691D01*
X126550000Y-73756250D01*
X126550000Y-73243750D01*
X126551053Y-73222309D01*
X126554203Y-73201074D01*
X126559419Y-73180250D01*
X126566651Y-73160038D01*
X126575830Y-73140632D01*
X126586866Y-73122219D01*
X126599654Y-73104976D01*
X126614070Y-73089070D01*
X126629976Y-73074654D01*
X126647219Y-73061866D01*
X126665632Y-73050830D01*
X126685038Y-73041651D01*
X126705250Y-73034419D01*
X126726074Y-73029203D01*
X126747309Y-73026053D01*
X126768750Y-73025000D01*
X127206250Y-73025000D01*
X127227691Y-73026053D01*
X127227691Y-73026053D01*
G37*
D13*
X126987500Y-73500000D03*
D14*
X130250000Y-75500000D03*
X132250000Y-76450000D03*
X132250000Y-74550000D03*
D11*
G36*
X128277691Y-78351053D02*
G01*
X128298926Y-78354203D01*
X128319750Y-78359419D01*
X128339962Y-78366651D01*
X128359368Y-78375830D01*
X128377781Y-78386866D01*
X128395024Y-78399654D01*
X128410930Y-78414070D01*
X128425346Y-78429976D01*
X128438134Y-78447219D01*
X128449170Y-78465632D01*
X128458349Y-78485038D01*
X128465581Y-78505250D01*
X128470797Y-78526074D01*
X128473947Y-78547309D01*
X128475000Y-78568750D01*
X128475000Y-79006250D01*
X128473947Y-79027691D01*
X128470797Y-79048926D01*
X128465581Y-79069750D01*
X128458349Y-79089962D01*
X128449170Y-79109368D01*
X128438134Y-79127781D01*
X128425346Y-79145024D01*
X128410930Y-79160930D01*
X128395024Y-79175346D01*
X128377781Y-79188134D01*
X128359368Y-79199170D01*
X128339962Y-79208349D01*
X128319750Y-79215581D01*
X128298926Y-79220797D01*
X128277691Y-79223947D01*
X128256250Y-79225000D01*
X127743750Y-79225000D01*
X127722309Y-79223947D01*
X127701074Y-79220797D01*
X127680250Y-79215581D01*
X127660038Y-79208349D01*
X127640632Y-79199170D01*
X127622219Y-79188134D01*
X127604976Y-79175346D01*
X127589070Y-79160930D01*
X127574654Y-79145024D01*
X127561866Y-79127781D01*
X127550830Y-79109368D01*
X127541651Y-79089962D01*
X127534419Y-79069750D01*
X127529203Y-79048926D01*
X127526053Y-79027691D01*
X127525000Y-79006250D01*
X127525000Y-78568750D01*
X127526053Y-78547309D01*
X127529203Y-78526074D01*
X127534419Y-78505250D01*
X127541651Y-78485038D01*
X127550830Y-78465632D01*
X127561866Y-78447219D01*
X127574654Y-78429976D01*
X127589070Y-78414070D01*
X127604976Y-78399654D01*
X127622219Y-78386866D01*
X127640632Y-78375830D01*
X127660038Y-78366651D01*
X127680250Y-78359419D01*
X127701074Y-78354203D01*
X127722309Y-78351053D01*
X127743750Y-78350000D01*
X128256250Y-78350000D01*
X128277691Y-78351053D01*
X128277691Y-78351053D01*
G37*
D13*
X128000000Y-78787500D03*
D11*
G36*
X128277691Y-76776053D02*
G01*
X128298926Y-76779203D01*
X128319750Y-76784419D01*
X128339962Y-76791651D01*
X128359368Y-76800830D01*
X128377781Y-76811866D01*
X128395024Y-76824654D01*
X128410930Y-76839070D01*
X128425346Y-76854976D01*
X128438134Y-76872219D01*
X128449170Y-76890632D01*
X128458349Y-76910038D01*
X128465581Y-76930250D01*
X128470797Y-76951074D01*
X128473947Y-76972309D01*
X128475000Y-76993750D01*
X128475000Y-77431250D01*
X128473947Y-77452691D01*
X128470797Y-77473926D01*
X128465581Y-77494750D01*
X128458349Y-77514962D01*
X128449170Y-77534368D01*
X128438134Y-77552781D01*
X128425346Y-77570024D01*
X128410930Y-77585930D01*
X128395024Y-77600346D01*
X128377781Y-77613134D01*
X128359368Y-77624170D01*
X128339962Y-77633349D01*
X128319750Y-77640581D01*
X128298926Y-77645797D01*
X128277691Y-77648947D01*
X128256250Y-77650000D01*
X127743750Y-77650000D01*
X127722309Y-77648947D01*
X127701074Y-77645797D01*
X127680250Y-77640581D01*
X127660038Y-77633349D01*
X127640632Y-77624170D01*
X127622219Y-77613134D01*
X127604976Y-77600346D01*
X127589070Y-77585930D01*
X127574654Y-77570024D01*
X127561866Y-77552781D01*
X127550830Y-77534368D01*
X127541651Y-77514962D01*
X127534419Y-77494750D01*
X127529203Y-77473926D01*
X127526053Y-77452691D01*
X127525000Y-77431250D01*
X127525000Y-76993750D01*
X127526053Y-76972309D01*
X127529203Y-76951074D01*
X127534419Y-76930250D01*
X127541651Y-76910038D01*
X127550830Y-76890632D01*
X127561866Y-76872219D01*
X127574654Y-76854976D01*
X127589070Y-76839070D01*
X127604976Y-76824654D01*
X127622219Y-76811866D01*
X127640632Y-76800830D01*
X127660038Y-76791651D01*
X127680250Y-76784419D01*
X127701074Y-76779203D01*
X127722309Y-76776053D01*
X127743750Y-76775000D01*
X128256250Y-76775000D01*
X128277691Y-76776053D01*
X128277691Y-76776053D01*
G37*
D13*
X128000000Y-77212500D03*
M02*
