G04 #@! TF.GenerationSoftware,KiCad,Pcbnew,(5.1.4)-1*
G04 #@! TF.CreationDate,2019-11-25T16:57:10-05:00*
G04 #@! TF.ProjectId,preamplifier,70726561-6d70-46c6-9966-6965722e6b69,rev?*
G04 #@! TF.SameCoordinates,Original*
G04 #@! TF.FileFunction,Soldermask,Bot*
G04 #@! TF.FilePolarity,Negative*
%FSLAX46Y46*%
G04 Gerber Fmt 4.6, Leading zero omitted, Abs format (unit mm)*
G04 Created by KiCad (PCBNEW (5.1.4)-1) date 2019-11-25 16:57:10*
%MOMM*%
%LPD*%
G04 APERTURE LIST*
%ADD10C,0.150000*%
G04 APERTURE END LIST*
D10*
G36*
X103424942Y-71876518D02*
G01*
X103491127Y-71883037D01*
X103660966Y-71934557D01*
X103817491Y-72018222D01*
X103853229Y-72047552D01*
X103954686Y-72130814D01*
X104034754Y-72228379D01*
X104067278Y-72268009D01*
X104150943Y-72424534D01*
X104202463Y-72594373D01*
X104219859Y-72771000D01*
X104202463Y-72947627D01*
X104150943Y-73117466D01*
X104067278Y-73273991D01*
X104037948Y-73309729D01*
X103954686Y-73411186D01*
X103853229Y-73494448D01*
X103817491Y-73523778D01*
X103660966Y-73607443D01*
X103491127Y-73658963D01*
X103424942Y-73665482D01*
X103358760Y-73672000D01*
X103270240Y-73672000D01*
X103204058Y-73665482D01*
X103137873Y-73658963D01*
X102968034Y-73607443D01*
X102811509Y-73523778D01*
X102775771Y-73494448D01*
X102674314Y-73411186D01*
X102591052Y-73309729D01*
X102561722Y-73273991D01*
X102478057Y-73117466D01*
X102426537Y-72947627D01*
X102409141Y-72771000D01*
X102426537Y-72594373D01*
X102478057Y-72424534D01*
X102561722Y-72268009D01*
X102594246Y-72228379D01*
X102674314Y-72130814D01*
X102775771Y-72047552D01*
X102811509Y-72018222D01*
X102968034Y-71934557D01*
X103137873Y-71883037D01*
X103204058Y-71876518D01*
X103270240Y-71870000D01*
X103358760Y-71870000D01*
X103424942Y-71876518D01*
X103424942Y-71876518D01*
G37*
G36*
X64931243Y-70581119D02*
G01*
X64997427Y-70587637D01*
X65167266Y-70639157D01*
X65323791Y-70722822D01*
X65359529Y-70752152D01*
X65460986Y-70835414D01*
X65544248Y-70936871D01*
X65573578Y-70972609D01*
X65657243Y-71129134D01*
X65708763Y-71298973D01*
X65726159Y-71475600D01*
X65708763Y-71652227D01*
X65657243Y-71822066D01*
X65573578Y-71978591D01*
X65544248Y-72014329D01*
X65460986Y-72115786D01*
X65359529Y-72199048D01*
X65323791Y-72228378D01*
X65167266Y-72312043D01*
X64997427Y-72363563D01*
X64931243Y-72370081D01*
X64865060Y-72376600D01*
X64776540Y-72376600D01*
X64710357Y-72370081D01*
X64644173Y-72363563D01*
X64474334Y-72312043D01*
X64317809Y-72228378D01*
X64282071Y-72199048D01*
X64180614Y-72115786D01*
X64097352Y-72014329D01*
X64068022Y-71978591D01*
X63984357Y-71822066D01*
X63932837Y-71652227D01*
X63915441Y-71475600D01*
X63932837Y-71298973D01*
X63984357Y-71129134D01*
X64068022Y-70972609D01*
X64097352Y-70936871D01*
X64180614Y-70835414D01*
X64282071Y-70752152D01*
X64317809Y-70722822D01*
X64474334Y-70639157D01*
X64644173Y-70587637D01*
X64710357Y-70581119D01*
X64776540Y-70574600D01*
X64865060Y-70574600D01*
X64931243Y-70581119D01*
X64931243Y-70581119D01*
G37*
G36*
X104215500Y-71132000D02*
G01*
X102413500Y-71132000D01*
X102413500Y-69330000D01*
X104215500Y-69330000D01*
X104215500Y-71132000D01*
X104215500Y-71132000D01*
G37*
G36*
X65721800Y-69836600D02*
G01*
X63919800Y-69836600D01*
X63919800Y-68034600D01*
X65721800Y-68034600D01*
X65721800Y-69836600D01*
X65721800Y-69836600D01*
G37*
G36*
X102519444Y-55364018D02*
G01*
X102585628Y-55370536D01*
X102755467Y-55422056D01*
X102911992Y-55505721D01*
X102947730Y-55535051D01*
X103049187Y-55618313D01*
X103132449Y-55719770D01*
X103161779Y-55755508D01*
X103245444Y-55912033D01*
X103296964Y-56081872D01*
X103314360Y-56258499D01*
X103296964Y-56435126D01*
X103245444Y-56604965D01*
X103161779Y-56761490D01*
X103132449Y-56797228D01*
X103049187Y-56898685D01*
X102947730Y-56981947D01*
X102911992Y-57011277D01*
X102755467Y-57094942D01*
X102585628Y-57146462D01*
X102519444Y-57152980D01*
X102453261Y-57159499D01*
X102364741Y-57159499D01*
X102298558Y-57152980D01*
X102232374Y-57146462D01*
X102062535Y-57094942D01*
X101906010Y-57011277D01*
X101870272Y-56981947D01*
X101768815Y-56898685D01*
X101685553Y-56797228D01*
X101656223Y-56761490D01*
X101572558Y-56604965D01*
X101521038Y-56435126D01*
X101503642Y-56258499D01*
X101521038Y-56081872D01*
X101572558Y-55912033D01*
X101656223Y-55755508D01*
X101685553Y-55719770D01*
X101768815Y-55618313D01*
X101870272Y-55535051D01*
X101906010Y-55505721D01*
X102062535Y-55422056D01*
X102232374Y-55370536D01*
X102298558Y-55364018D01*
X102364741Y-55357499D01*
X102453261Y-55357499D01*
X102519444Y-55364018D01*
X102519444Y-55364018D01*
G37*
G36*
X100770001Y-57159499D02*
G01*
X98968001Y-57159499D01*
X98968001Y-55357499D01*
X100770001Y-55357499D01*
X100770001Y-57159499D01*
X100770001Y-57159499D01*
G37*
M02*
