G04 #@! TF.GenerationSoftware,KiCad,Pcbnew,(5.1.4)-1*
G04 #@! TF.CreationDate,2019-11-25T16:57:10-05:00*
G04 #@! TF.ProjectId,preamplifier,70726561-6d70-46c6-9966-6965722e6b69,rev?*
G04 #@! TF.SameCoordinates,Original*
G04 #@! TF.FileFunction,Soldermask,Top*
G04 #@! TF.FilePolarity,Negative*
%FSLAX46Y46*%
G04 Gerber Fmt 4.6, Leading zero omitted, Abs format (unit mm)*
G04 Created by KiCad (PCBNEW (5.1.4)-1) date 2019-11-25 16:57:10*
%MOMM*%
%LPD*%
G04 APERTURE LIST*
%ADD10C,0.150000*%
G04 APERTURE END LIST*
D10*
G36*
X78509991Y-74394985D02*
G01*
X78543969Y-74405293D01*
X78575290Y-74422034D01*
X78602739Y-74444561D01*
X78625266Y-74472010D01*
X78642007Y-74503331D01*
X78652315Y-74537309D01*
X78656400Y-74578790D01*
X78656400Y-75180010D01*
X78652315Y-75221491D01*
X78642007Y-75255469D01*
X78625266Y-75286790D01*
X78602739Y-75314239D01*
X78575290Y-75336766D01*
X78543969Y-75353507D01*
X78509991Y-75363815D01*
X78468510Y-75367900D01*
X77792290Y-75367900D01*
X77750809Y-75363815D01*
X77716831Y-75353507D01*
X77685510Y-75336766D01*
X77658061Y-75314239D01*
X77635534Y-75286790D01*
X77618793Y-75255469D01*
X77608485Y-75221491D01*
X77604400Y-75180010D01*
X77604400Y-74578790D01*
X77608485Y-74537309D01*
X77618793Y-74503331D01*
X77635534Y-74472010D01*
X77658061Y-74444561D01*
X77685510Y-74422034D01*
X77716831Y-74405293D01*
X77750809Y-74394985D01*
X77792290Y-74390900D01*
X78468510Y-74390900D01*
X78509991Y-74394985D01*
X78509991Y-74394985D01*
G37*
G36*
X81710391Y-74394885D02*
G01*
X81744369Y-74405193D01*
X81775690Y-74421934D01*
X81803139Y-74444461D01*
X81825666Y-74471910D01*
X81842407Y-74503231D01*
X81852715Y-74537209D01*
X81856800Y-74578690D01*
X81856800Y-75179910D01*
X81852715Y-75221391D01*
X81842407Y-75255369D01*
X81825666Y-75286690D01*
X81803139Y-75314139D01*
X81775690Y-75336666D01*
X81744369Y-75353407D01*
X81710391Y-75363715D01*
X81668910Y-75367800D01*
X80992690Y-75367800D01*
X80951209Y-75363715D01*
X80917231Y-75353407D01*
X80885910Y-75336666D01*
X80858461Y-75314139D01*
X80835934Y-75286690D01*
X80819193Y-75255369D01*
X80808885Y-75221391D01*
X80804800Y-75179910D01*
X80804800Y-74578690D01*
X80808885Y-74537209D01*
X80819193Y-74503231D01*
X80835934Y-74471910D01*
X80858461Y-74444461D01*
X80885910Y-74421934D01*
X80917231Y-74405193D01*
X80951209Y-74394885D01*
X80992690Y-74390800D01*
X81668910Y-74390800D01*
X81710391Y-74394885D01*
X81710391Y-74394885D01*
G37*
G36*
X76922491Y-74394885D02*
G01*
X76956469Y-74405193D01*
X76987790Y-74421934D01*
X77015239Y-74444461D01*
X77037766Y-74471910D01*
X77054507Y-74503231D01*
X77064815Y-74537209D01*
X77068900Y-74578690D01*
X77068900Y-75179910D01*
X77064815Y-75221391D01*
X77054507Y-75255369D01*
X77037766Y-75286690D01*
X77015239Y-75314139D01*
X76987790Y-75336666D01*
X76956469Y-75353407D01*
X76922491Y-75363715D01*
X76881010Y-75367800D01*
X76204790Y-75367800D01*
X76163309Y-75363715D01*
X76129331Y-75353407D01*
X76098010Y-75336666D01*
X76070561Y-75314139D01*
X76048034Y-75286690D01*
X76031293Y-75255369D01*
X76020985Y-75221391D01*
X76016900Y-75179910D01*
X76016900Y-74578690D01*
X76020985Y-74537209D01*
X76031293Y-74503231D01*
X76048034Y-74471910D01*
X76070561Y-74444461D01*
X76098010Y-74421934D01*
X76129331Y-74405193D01*
X76163309Y-74394885D01*
X76204790Y-74390800D01*
X76881010Y-74390800D01*
X76922491Y-74394885D01*
X76922491Y-74394885D01*
G37*
G36*
X80160991Y-74394885D02*
G01*
X80194969Y-74405193D01*
X80226290Y-74421934D01*
X80253739Y-74444461D01*
X80276266Y-74471910D01*
X80293007Y-74503231D01*
X80303315Y-74537209D01*
X80307400Y-74578690D01*
X80307400Y-75179910D01*
X80303315Y-75221391D01*
X80293007Y-75255369D01*
X80276266Y-75286690D01*
X80253739Y-75314139D01*
X80226290Y-75336666D01*
X80194969Y-75353407D01*
X80160991Y-75363715D01*
X80119510Y-75367800D01*
X79443290Y-75367800D01*
X79401809Y-75363715D01*
X79367831Y-75353407D01*
X79336510Y-75336666D01*
X79309061Y-75314139D01*
X79286534Y-75286690D01*
X79269793Y-75255369D01*
X79259485Y-75221391D01*
X79255400Y-75179910D01*
X79255400Y-74578690D01*
X79259485Y-74537209D01*
X79269793Y-74503231D01*
X79286534Y-74471910D01*
X79309061Y-74444461D01*
X79336510Y-74421934D01*
X79367831Y-74405193D01*
X79401809Y-74394885D01*
X79443290Y-74390800D01*
X80119510Y-74390800D01*
X80160991Y-74394885D01*
X80160991Y-74394885D01*
G37*
G36*
X72099198Y-73091047D02*
G01*
X72134767Y-73101837D01*
X72167539Y-73119354D01*
X72196269Y-73142931D01*
X72219846Y-73171661D01*
X72237363Y-73204433D01*
X72248153Y-73240002D01*
X72252400Y-73283125D01*
X72252400Y-74392475D01*
X72248153Y-74435598D01*
X72237363Y-74471167D01*
X72219846Y-74503939D01*
X72196269Y-74532669D01*
X72167539Y-74556246D01*
X72134767Y-74573763D01*
X72099198Y-74584553D01*
X72056075Y-74588800D01*
X70996725Y-74588800D01*
X70953602Y-74584553D01*
X70918033Y-74573763D01*
X70885261Y-74556246D01*
X70856531Y-74532669D01*
X70832954Y-74503939D01*
X70815437Y-74471167D01*
X70804647Y-74435598D01*
X70800400Y-74392475D01*
X70800400Y-73283125D01*
X70804647Y-73240002D01*
X70815437Y-73204433D01*
X70832954Y-73171661D01*
X70856531Y-73142931D01*
X70885261Y-73119354D01*
X70918033Y-73101837D01*
X70953602Y-73091047D01*
X70996725Y-73086800D01*
X72056075Y-73086800D01*
X72099198Y-73091047D01*
X72099198Y-73091047D01*
G37*
G36*
X97788591Y-73328085D02*
G01*
X97822569Y-73338393D01*
X97853890Y-73355134D01*
X97881339Y-73377661D01*
X97903866Y-73405110D01*
X97920607Y-73436431D01*
X97930915Y-73470409D01*
X97935000Y-73511890D01*
X97935000Y-74113110D01*
X97930915Y-74154591D01*
X97920607Y-74188569D01*
X97903866Y-74219890D01*
X97881339Y-74247339D01*
X97853890Y-74269866D01*
X97822569Y-74286607D01*
X97788591Y-74296915D01*
X97747110Y-74301000D01*
X97070890Y-74301000D01*
X97029409Y-74296915D01*
X96995431Y-74286607D01*
X96964110Y-74269866D01*
X96936661Y-74247339D01*
X96914134Y-74219890D01*
X96897393Y-74188569D01*
X96887085Y-74154591D01*
X96883000Y-74113110D01*
X96883000Y-73511890D01*
X96887085Y-73470409D01*
X96897393Y-73436431D01*
X96914134Y-73405110D01*
X96936661Y-73377661D01*
X96964110Y-73355134D01*
X96995431Y-73338393D01*
X97029409Y-73328085D01*
X97070890Y-73324000D01*
X97747110Y-73324000D01*
X97788591Y-73328085D01*
X97788591Y-73328085D01*
G37*
G36*
X78509991Y-72819985D02*
G01*
X78543969Y-72830293D01*
X78575290Y-72847034D01*
X78602739Y-72869561D01*
X78625266Y-72897010D01*
X78642007Y-72928331D01*
X78652315Y-72962309D01*
X78656400Y-73003790D01*
X78656400Y-73605010D01*
X78652315Y-73646491D01*
X78642007Y-73680469D01*
X78625266Y-73711790D01*
X78602739Y-73739239D01*
X78575290Y-73761766D01*
X78543969Y-73778507D01*
X78509991Y-73788815D01*
X78468510Y-73792900D01*
X77792290Y-73792900D01*
X77750809Y-73788815D01*
X77716831Y-73778507D01*
X77685510Y-73761766D01*
X77658061Y-73739239D01*
X77635534Y-73711790D01*
X77618793Y-73680469D01*
X77608485Y-73646491D01*
X77604400Y-73605010D01*
X77604400Y-73003790D01*
X77608485Y-72962309D01*
X77618793Y-72928331D01*
X77635534Y-72897010D01*
X77658061Y-72869561D01*
X77685510Y-72847034D01*
X77716831Y-72830293D01*
X77750809Y-72819985D01*
X77792290Y-72815900D01*
X78468510Y-72815900D01*
X78509991Y-72819985D01*
X78509991Y-72819985D01*
G37*
G36*
X81710391Y-72819885D02*
G01*
X81744369Y-72830193D01*
X81775690Y-72846934D01*
X81803139Y-72869461D01*
X81825666Y-72896910D01*
X81842407Y-72928231D01*
X81852715Y-72962209D01*
X81856800Y-73003690D01*
X81856800Y-73604910D01*
X81852715Y-73646391D01*
X81842407Y-73680369D01*
X81825666Y-73711690D01*
X81803139Y-73739139D01*
X81775690Y-73761666D01*
X81744369Y-73778407D01*
X81710391Y-73788715D01*
X81668910Y-73792800D01*
X80992690Y-73792800D01*
X80951209Y-73788715D01*
X80917231Y-73778407D01*
X80885910Y-73761666D01*
X80858461Y-73739139D01*
X80835934Y-73711690D01*
X80819193Y-73680369D01*
X80808885Y-73646391D01*
X80804800Y-73604910D01*
X80804800Y-73003690D01*
X80808885Y-72962209D01*
X80819193Y-72928231D01*
X80835934Y-72896910D01*
X80858461Y-72869461D01*
X80885910Y-72846934D01*
X80917231Y-72830193D01*
X80951209Y-72819885D01*
X80992690Y-72815800D01*
X81668910Y-72815800D01*
X81710391Y-72819885D01*
X81710391Y-72819885D01*
G37*
G36*
X80160991Y-72819885D02*
G01*
X80194969Y-72830193D01*
X80226290Y-72846934D01*
X80253739Y-72869461D01*
X80276266Y-72896910D01*
X80293007Y-72928231D01*
X80303315Y-72962209D01*
X80307400Y-73003690D01*
X80307400Y-73604910D01*
X80303315Y-73646391D01*
X80293007Y-73680369D01*
X80276266Y-73711690D01*
X80253739Y-73739139D01*
X80226290Y-73761666D01*
X80194969Y-73778407D01*
X80160991Y-73788715D01*
X80119510Y-73792800D01*
X79443290Y-73792800D01*
X79401809Y-73788715D01*
X79367831Y-73778407D01*
X79336510Y-73761666D01*
X79309061Y-73739139D01*
X79286534Y-73711690D01*
X79269793Y-73680369D01*
X79259485Y-73646391D01*
X79255400Y-73604910D01*
X79255400Y-73003690D01*
X79259485Y-72962209D01*
X79269793Y-72928231D01*
X79286534Y-72896910D01*
X79309061Y-72869461D01*
X79336510Y-72846934D01*
X79367831Y-72830193D01*
X79401809Y-72819885D01*
X79443290Y-72815800D01*
X80119510Y-72815800D01*
X80160991Y-72819885D01*
X80160991Y-72819885D01*
G37*
G36*
X76922491Y-72819885D02*
G01*
X76956469Y-72830193D01*
X76987790Y-72846934D01*
X77015239Y-72869461D01*
X77037766Y-72896910D01*
X77054507Y-72928231D01*
X77064815Y-72962209D01*
X77068900Y-73003690D01*
X77068900Y-73604910D01*
X77064815Y-73646391D01*
X77054507Y-73680369D01*
X77037766Y-73711690D01*
X77015239Y-73739139D01*
X76987790Y-73761666D01*
X76956469Y-73778407D01*
X76922491Y-73788715D01*
X76881010Y-73792800D01*
X76204790Y-73792800D01*
X76163309Y-73788715D01*
X76129331Y-73778407D01*
X76098010Y-73761666D01*
X76070561Y-73739139D01*
X76048034Y-73711690D01*
X76031293Y-73680369D01*
X76020985Y-73646391D01*
X76016900Y-73604910D01*
X76016900Y-73003690D01*
X76020985Y-72962209D01*
X76031293Y-72928231D01*
X76048034Y-72896910D01*
X76070561Y-72869461D01*
X76098010Y-72846934D01*
X76129331Y-72830193D01*
X76163309Y-72819885D01*
X76204790Y-72815800D01*
X76881010Y-72815800D01*
X76922491Y-72819885D01*
X76922491Y-72819885D01*
G37*
G36*
X103424942Y-71876518D02*
G01*
X103491127Y-71883037D01*
X103660966Y-71934557D01*
X103817491Y-72018222D01*
X103853229Y-72047552D01*
X103954686Y-72130814D01*
X104034754Y-72228379D01*
X104067278Y-72268009D01*
X104150943Y-72424534D01*
X104202463Y-72594373D01*
X104219859Y-72771000D01*
X104202463Y-72947627D01*
X104150943Y-73117466D01*
X104067278Y-73273991D01*
X104043281Y-73303231D01*
X103954686Y-73411186D01*
X103882521Y-73470409D01*
X103817491Y-73523778D01*
X103660966Y-73607443D01*
X103491127Y-73658963D01*
X103424942Y-73665482D01*
X103358760Y-73672000D01*
X103270240Y-73672000D01*
X103204058Y-73665482D01*
X103137873Y-73658963D01*
X102968034Y-73607443D01*
X102811509Y-73523778D01*
X102746479Y-73470409D01*
X102674314Y-73411186D01*
X102585719Y-73303231D01*
X102561722Y-73273991D01*
X102478057Y-73117466D01*
X102426537Y-72947627D01*
X102409141Y-72771000D01*
X102426537Y-72594373D01*
X102478057Y-72424534D01*
X102561722Y-72268009D01*
X102594246Y-72228379D01*
X102674314Y-72130814D01*
X102775771Y-72047552D01*
X102811509Y-72018222D01*
X102968034Y-71934557D01*
X103137873Y-71883037D01*
X103204058Y-71876518D01*
X103270240Y-71870000D01*
X103358760Y-71870000D01*
X103424942Y-71876518D01*
X103424942Y-71876518D01*
G37*
G36*
X97788591Y-71753085D02*
G01*
X97822569Y-71763393D01*
X97853890Y-71780134D01*
X97881339Y-71802661D01*
X97903866Y-71830110D01*
X97920607Y-71861431D01*
X97930915Y-71895409D01*
X97935000Y-71936889D01*
X97935000Y-72538110D01*
X97930915Y-72579591D01*
X97920607Y-72613569D01*
X97903866Y-72644890D01*
X97881339Y-72672339D01*
X97853890Y-72694866D01*
X97822569Y-72711607D01*
X97788591Y-72721915D01*
X97747110Y-72726000D01*
X97070890Y-72726000D01*
X97029409Y-72721915D01*
X96995431Y-72711607D01*
X96964110Y-72694866D01*
X96936661Y-72672339D01*
X96914134Y-72644890D01*
X96897393Y-72613569D01*
X96887085Y-72579591D01*
X96883000Y-72538110D01*
X96883000Y-71936889D01*
X96887085Y-71895409D01*
X96897393Y-71861431D01*
X96914134Y-71830110D01*
X96936661Y-71802661D01*
X96964110Y-71780134D01*
X96995431Y-71763393D01*
X97029409Y-71753085D01*
X97070890Y-71749000D01*
X97747110Y-71749000D01*
X97788591Y-71753085D01*
X97788591Y-71753085D01*
G37*
G36*
X64905956Y-70578628D02*
G01*
X64997427Y-70587637D01*
X65167266Y-70639157D01*
X65323791Y-70722822D01*
X65347899Y-70742607D01*
X65460986Y-70835414D01*
X65543970Y-70936532D01*
X65573578Y-70972609D01*
X65657243Y-71129134D01*
X65708763Y-71298973D01*
X65726159Y-71475600D01*
X65708763Y-71652227D01*
X65658332Y-71818476D01*
X65657242Y-71822068D01*
X65623843Y-71884553D01*
X65573578Y-71978591D01*
X65544248Y-72014329D01*
X65460986Y-72115786D01*
X65359529Y-72199048D01*
X65323791Y-72228378D01*
X65167266Y-72312043D01*
X64997427Y-72363563D01*
X64931243Y-72370081D01*
X64865060Y-72376600D01*
X64776540Y-72376600D01*
X64710357Y-72370081D01*
X64644173Y-72363563D01*
X64474334Y-72312043D01*
X64317809Y-72228378D01*
X64282071Y-72199048D01*
X64180614Y-72115786D01*
X64097352Y-72014329D01*
X64068022Y-71978591D01*
X64017757Y-71884553D01*
X63984358Y-71822068D01*
X63983268Y-71818476D01*
X63932837Y-71652227D01*
X63915441Y-71475600D01*
X63932837Y-71298973D01*
X63984357Y-71129134D01*
X64068022Y-70972609D01*
X64097630Y-70936532D01*
X64180614Y-70835414D01*
X64293701Y-70742607D01*
X64317809Y-70722822D01*
X64474334Y-70639157D01*
X64644173Y-70587637D01*
X64735644Y-70578628D01*
X64776540Y-70574600D01*
X64865060Y-70574600D01*
X64905956Y-70578628D01*
X64905956Y-70578628D01*
G37*
G36*
X72099198Y-70391047D02*
G01*
X72134767Y-70401837D01*
X72167539Y-70419354D01*
X72196269Y-70442931D01*
X72219846Y-70471661D01*
X72237363Y-70504433D01*
X72248153Y-70540002D01*
X72252400Y-70583125D01*
X72252400Y-71692475D01*
X72248153Y-71735598D01*
X72237363Y-71771167D01*
X72219846Y-71803939D01*
X72196269Y-71832669D01*
X72167539Y-71856246D01*
X72134767Y-71873763D01*
X72099198Y-71884553D01*
X72056075Y-71888800D01*
X70996725Y-71888800D01*
X70953602Y-71884553D01*
X70918033Y-71873763D01*
X70885261Y-71856246D01*
X70856531Y-71832669D01*
X70832954Y-71803939D01*
X70815437Y-71771167D01*
X70804647Y-71735598D01*
X70800400Y-71692475D01*
X70800400Y-70583125D01*
X70804647Y-70540002D01*
X70815437Y-70504433D01*
X70832954Y-70471661D01*
X70856531Y-70442931D01*
X70885261Y-70419354D01*
X70918033Y-70401837D01*
X70953602Y-70391047D01*
X70996725Y-70386800D01*
X72056075Y-70386800D01*
X72099198Y-70391047D01*
X72099198Y-70391047D01*
G37*
G36*
X76245928Y-71152764D02*
G01*
X76267009Y-71159160D01*
X76286445Y-71169548D01*
X76303476Y-71183524D01*
X76317452Y-71200555D01*
X76327840Y-71219991D01*
X76334236Y-71241072D01*
X76337000Y-71269140D01*
X76337000Y-71732860D01*
X76334236Y-71760928D01*
X76327840Y-71782009D01*
X76317452Y-71801445D01*
X76303476Y-71818476D01*
X76286445Y-71832452D01*
X76267009Y-71842840D01*
X76245928Y-71849236D01*
X76217860Y-71852000D01*
X74404140Y-71852000D01*
X74376072Y-71849236D01*
X74354991Y-71842840D01*
X74335555Y-71832452D01*
X74318524Y-71818476D01*
X74304548Y-71801445D01*
X74294160Y-71782009D01*
X74287764Y-71760928D01*
X74285000Y-71732860D01*
X74285000Y-71269140D01*
X74287764Y-71241072D01*
X74294160Y-71219991D01*
X74304548Y-71200555D01*
X74318524Y-71183524D01*
X74335555Y-71169548D01*
X74354991Y-71159160D01*
X74376072Y-71152764D01*
X74404140Y-71150000D01*
X76217860Y-71150000D01*
X76245928Y-71152764D01*
X76245928Y-71152764D01*
G37*
G36*
X81195928Y-71152764D02*
G01*
X81217009Y-71159160D01*
X81236445Y-71169548D01*
X81253476Y-71183524D01*
X81267452Y-71200555D01*
X81277840Y-71219991D01*
X81284236Y-71241072D01*
X81287000Y-71269140D01*
X81287000Y-71732860D01*
X81284236Y-71760928D01*
X81277840Y-71782009D01*
X81267452Y-71801445D01*
X81253476Y-71818476D01*
X81236445Y-71832452D01*
X81217009Y-71842840D01*
X81195928Y-71849236D01*
X81167860Y-71852000D01*
X79354140Y-71852000D01*
X79326072Y-71849236D01*
X79304991Y-71842840D01*
X79285555Y-71832452D01*
X79268524Y-71818476D01*
X79254548Y-71801445D01*
X79244160Y-71782009D01*
X79237764Y-71760928D01*
X79235000Y-71732860D01*
X79235000Y-71269140D01*
X79237764Y-71241072D01*
X79244160Y-71219991D01*
X79254548Y-71200555D01*
X79268524Y-71183524D01*
X79285555Y-71169548D01*
X79304991Y-71159160D01*
X79326072Y-71152764D01*
X79354140Y-71150000D01*
X81167860Y-71150000D01*
X81195928Y-71152764D01*
X81195928Y-71152764D01*
G37*
G36*
X78850336Y-68048733D02*
G01*
X78880883Y-68057999D01*
X78909033Y-68073046D01*
X78933706Y-68093294D01*
X78953954Y-68117967D01*
X78969001Y-68146117D01*
X78978267Y-68176664D01*
X78982000Y-68214567D01*
X78982000Y-70977433D01*
X78978267Y-71015336D01*
X78969001Y-71045883D01*
X78953954Y-71074033D01*
X78933706Y-71098706D01*
X78909033Y-71118954D01*
X78880883Y-71134001D01*
X78850336Y-71143267D01*
X78812433Y-71147000D01*
X76759567Y-71147000D01*
X76721664Y-71143267D01*
X76691117Y-71134001D01*
X76662967Y-71118954D01*
X76638294Y-71098706D01*
X76618046Y-71074033D01*
X76602999Y-71045883D01*
X76593733Y-71015336D01*
X76590000Y-70977433D01*
X76590000Y-68214567D01*
X76593733Y-68176664D01*
X76602999Y-68146117D01*
X76618046Y-68117967D01*
X76638294Y-68093294D01*
X76662967Y-68073046D01*
X76691117Y-68057999D01*
X76721664Y-68048733D01*
X76759567Y-68045000D01*
X78812433Y-68045000D01*
X78850336Y-68048733D01*
X78850336Y-68048733D01*
G37*
G36*
X104215500Y-71132000D02*
G01*
X102413500Y-71132000D01*
X102413500Y-69330000D01*
X104215500Y-69330000D01*
X104215500Y-71132000D01*
X104215500Y-71132000D01*
G37*
G36*
X95323298Y-69509247D02*
G01*
X95358867Y-69520037D01*
X95391639Y-69537554D01*
X95420369Y-69561131D01*
X95443946Y-69589861D01*
X95461463Y-69622633D01*
X95472253Y-69658202D01*
X95476500Y-69701325D01*
X95476500Y-70760675D01*
X95472253Y-70803798D01*
X95461463Y-70839367D01*
X95443946Y-70872139D01*
X95420369Y-70900869D01*
X95391639Y-70924446D01*
X95358867Y-70941963D01*
X95323298Y-70952753D01*
X95280175Y-70957000D01*
X94170825Y-70957000D01*
X94127702Y-70952753D01*
X94092133Y-70941963D01*
X94059361Y-70924446D01*
X94030631Y-70900869D01*
X94007054Y-70872139D01*
X93989537Y-70839367D01*
X93978747Y-70803798D01*
X93974500Y-70760675D01*
X93974500Y-69701325D01*
X93978747Y-69658202D01*
X93989537Y-69622633D01*
X94007054Y-69589861D01*
X94030631Y-69561131D01*
X94059361Y-69537554D01*
X94092133Y-69520037D01*
X94127702Y-69509247D01*
X94170825Y-69505000D01*
X95280175Y-69505000D01*
X95323298Y-69509247D01*
X95323298Y-69509247D01*
G37*
G36*
X98023298Y-69509247D02*
G01*
X98058867Y-69520037D01*
X98091639Y-69537554D01*
X98120369Y-69561131D01*
X98143946Y-69589861D01*
X98161463Y-69622633D01*
X98172253Y-69658202D01*
X98176500Y-69701325D01*
X98176500Y-70760675D01*
X98172253Y-70803798D01*
X98161463Y-70839367D01*
X98143946Y-70872139D01*
X98120369Y-70900869D01*
X98091639Y-70924446D01*
X98058867Y-70941963D01*
X98023298Y-70952753D01*
X97980175Y-70957000D01*
X96870825Y-70957000D01*
X96827702Y-70952753D01*
X96792133Y-70941963D01*
X96759361Y-70924446D01*
X96730631Y-70900869D01*
X96707054Y-70872139D01*
X96689537Y-70839367D01*
X96678747Y-70803798D01*
X96674500Y-70760675D01*
X96674500Y-69701325D01*
X96678747Y-69658202D01*
X96689537Y-69622633D01*
X96707054Y-69589861D01*
X96730631Y-69561131D01*
X96759361Y-69537554D01*
X96792133Y-69520037D01*
X96827702Y-69509247D01*
X96870825Y-69505000D01*
X97980175Y-69505000D01*
X98023298Y-69509247D01*
X98023298Y-69509247D01*
G37*
G36*
X87438591Y-69709085D02*
G01*
X87472569Y-69719393D01*
X87503890Y-69736134D01*
X87531339Y-69758661D01*
X87553866Y-69786110D01*
X87570607Y-69817431D01*
X87580915Y-69851409D01*
X87585000Y-69892890D01*
X87585000Y-70569110D01*
X87580915Y-70610591D01*
X87570607Y-70644569D01*
X87553866Y-70675890D01*
X87531339Y-70703339D01*
X87503890Y-70725866D01*
X87472569Y-70742607D01*
X87438591Y-70752915D01*
X87397110Y-70757000D01*
X86795890Y-70757000D01*
X86754409Y-70752915D01*
X86720431Y-70742607D01*
X86689110Y-70725866D01*
X86661661Y-70703339D01*
X86639134Y-70675890D01*
X86622393Y-70644569D01*
X86612085Y-70610591D01*
X86608000Y-70569110D01*
X86608000Y-69892890D01*
X86612085Y-69851409D01*
X86622393Y-69817431D01*
X86639134Y-69786110D01*
X86661661Y-69758661D01*
X86689110Y-69736134D01*
X86720431Y-69719393D01*
X86754409Y-69709085D01*
X86795890Y-69705000D01*
X87397110Y-69705000D01*
X87438591Y-69709085D01*
X87438591Y-69709085D01*
G37*
G36*
X89013591Y-69709085D02*
G01*
X89047569Y-69719393D01*
X89078890Y-69736134D01*
X89106339Y-69758661D01*
X89128866Y-69786110D01*
X89145607Y-69817431D01*
X89155915Y-69851409D01*
X89160000Y-69892890D01*
X89160000Y-70569110D01*
X89155915Y-70610591D01*
X89145607Y-70644569D01*
X89128866Y-70675890D01*
X89106339Y-70703339D01*
X89078890Y-70725866D01*
X89047569Y-70742607D01*
X89013591Y-70752915D01*
X88972110Y-70757000D01*
X88370890Y-70757000D01*
X88329409Y-70752915D01*
X88295431Y-70742607D01*
X88264110Y-70725866D01*
X88236661Y-70703339D01*
X88214134Y-70675890D01*
X88197393Y-70644569D01*
X88187085Y-70610591D01*
X88183000Y-70569110D01*
X88183000Y-69892890D01*
X88187085Y-69851409D01*
X88197393Y-69817431D01*
X88214134Y-69786110D01*
X88236661Y-69758661D01*
X88264110Y-69736134D01*
X88295431Y-69719393D01*
X88329409Y-69709085D01*
X88370890Y-69705000D01*
X88972110Y-69705000D01*
X89013591Y-69709085D01*
X89013591Y-69709085D01*
G37*
G36*
X81195928Y-69882764D02*
G01*
X81217009Y-69889160D01*
X81236445Y-69899548D01*
X81253476Y-69913524D01*
X81267452Y-69930555D01*
X81277840Y-69949991D01*
X81284236Y-69971072D01*
X81287000Y-69999140D01*
X81287000Y-70462860D01*
X81284236Y-70490928D01*
X81277840Y-70512009D01*
X81267452Y-70531445D01*
X81253476Y-70548476D01*
X81236445Y-70562452D01*
X81217009Y-70572840D01*
X81195928Y-70579236D01*
X81167860Y-70582000D01*
X79354140Y-70582000D01*
X79326072Y-70579236D01*
X79304991Y-70572840D01*
X79285555Y-70562452D01*
X79268524Y-70548476D01*
X79254548Y-70531445D01*
X79244160Y-70512009D01*
X79237764Y-70490928D01*
X79235000Y-70462860D01*
X79235000Y-69999140D01*
X79237764Y-69971072D01*
X79244160Y-69949991D01*
X79254548Y-69930555D01*
X79268524Y-69913524D01*
X79285555Y-69899548D01*
X79304991Y-69889160D01*
X79326072Y-69882764D01*
X79354140Y-69880000D01*
X81167860Y-69880000D01*
X81195928Y-69882764D01*
X81195928Y-69882764D01*
G37*
G36*
X76245928Y-69882764D02*
G01*
X76267009Y-69889160D01*
X76286445Y-69899548D01*
X76303476Y-69913524D01*
X76317452Y-69930555D01*
X76327840Y-69949991D01*
X76334236Y-69971072D01*
X76337000Y-69999140D01*
X76337000Y-70462860D01*
X76334236Y-70490928D01*
X76327840Y-70512009D01*
X76317452Y-70531445D01*
X76303476Y-70548476D01*
X76286445Y-70562452D01*
X76267009Y-70572840D01*
X76245928Y-70579236D01*
X76217860Y-70582000D01*
X74404140Y-70582000D01*
X74376072Y-70579236D01*
X74354991Y-70572840D01*
X74335555Y-70562452D01*
X74318524Y-70548476D01*
X74304548Y-70531445D01*
X74294160Y-70512009D01*
X74287764Y-70490928D01*
X74285000Y-70462860D01*
X74285000Y-69999140D01*
X74287764Y-69971072D01*
X74294160Y-69949991D01*
X74304548Y-69930555D01*
X74318524Y-69913524D01*
X74335555Y-69899548D01*
X74354991Y-69889160D01*
X74376072Y-69882764D01*
X74404140Y-69880000D01*
X76217860Y-69880000D01*
X76245928Y-69882764D01*
X76245928Y-69882764D01*
G37*
G36*
X65721800Y-69836600D02*
G01*
X63919800Y-69836600D01*
X63919800Y-68034600D01*
X65721800Y-68034600D01*
X65721800Y-69836600D01*
X65721800Y-69836600D01*
G37*
G36*
X70012198Y-68290047D02*
G01*
X70047767Y-68300837D01*
X70080539Y-68318354D01*
X70109269Y-68341931D01*
X70132846Y-68370661D01*
X70150363Y-68403433D01*
X70161153Y-68439002D01*
X70165400Y-68482125D01*
X70165400Y-69541475D01*
X70161153Y-69584598D01*
X70150363Y-69620167D01*
X70132846Y-69652939D01*
X70109269Y-69681669D01*
X70080539Y-69705246D01*
X70047767Y-69722763D01*
X70012198Y-69733553D01*
X69969075Y-69737800D01*
X68859725Y-69737800D01*
X68816602Y-69733553D01*
X68781033Y-69722763D01*
X68748261Y-69705246D01*
X68719531Y-69681669D01*
X68695954Y-69652939D01*
X68678437Y-69620167D01*
X68667647Y-69584598D01*
X68663400Y-69541475D01*
X68663400Y-68482125D01*
X68667647Y-68439002D01*
X68678437Y-68403433D01*
X68695954Y-68370661D01*
X68719531Y-68341931D01*
X68748261Y-68318354D01*
X68781033Y-68300837D01*
X68816602Y-68290047D01*
X68859725Y-68285800D01*
X69969075Y-68285800D01*
X70012198Y-68290047D01*
X70012198Y-68290047D01*
G37*
G36*
X72712198Y-68290047D02*
G01*
X72747767Y-68300837D01*
X72780539Y-68318354D01*
X72809269Y-68341931D01*
X72832846Y-68370661D01*
X72850363Y-68403433D01*
X72861153Y-68439002D01*
X72865400Y-68482125D01*
X72865400Y-69541475D01*
X72861153Y-69584598D01*
X72850363Y-69620167D01*
X72832846Y-69652939D01*
X72809269Y-69681669D01*
X72780539Y-69705246D01*
X72747767Y-69722763D01*
X72712198Y-69733553D01*
X72669075Y-69737800D01*
X71559725Y-69737800D01*
X71516602Y-69733553D01*
X71481033Y-69722763D01*
X71448261Y-69705246D01*
X71419531Y-69681669D01*
X71395954Y-69652939D01*
X71378437Y-69620167D01*
X71367647Y-69584598D01*
X71363400Y-69541475D01*
X71363400Y-68482125D01*
X71367647Y-68439002D01*
X71378437Y-68403433D01*
X71395954Y-68370661D01*
X71419531Y-68341931D01*
X71448261Y-68318354D01*
X71481033Y-68300837D01*
X71516602Y-68290047D01*
X71559725Y-68285800D01*
X72669075Y-68285800D01*
X72712198Y-68290047D01*
X72712198Y-68290047D01*
G37*
G36*
X81195928Y-68612764D02*
G01*
X81217009Y-68619160D01*
X81236445Y-68629548D01*
X81253476Y-68643524D01*
X81267452Y-68660555D01*
X81277840Y-68679991D01*
X81284236Y-68701072D01*
X81287000Y-68729140D01*
X81287000Y-69192860D01*
X81284236Y-69220928D01*
X81277840Y-69242009D01*
X81267452Y-69261445D01*
X81253476Y-69278476D01*
X81236445Y-69292452D01*
X81217009Y-69302840D01*
X81195928Y-69309236D01*
X81167860Y-69312000D01*
X79354140Y-69312000D01*
X79326072Y-69309236D01*
X79304991Y-69302840D01*
X79285555Y-69292452D01*
X79268524Y-69278476D01*
X79254548Y-69261445D01*
X79244160Y-69242009D01*
X79237764Y-69220928D01*
X79235000Y-69192860D01*
X79235000Y-68729140D01*
X79237764Y-68701072D01*
X79244160Y-68679991D01*
X79254548Y-68660555D01*
X79268524Y-68643524D01*
X79285555Y-68629548D01*
X79304991Y-68619160D01*
X79326072Y-68612764D01*
X79354140Y-68610000D01*
X81167860Y-68610000D01*
X81195928Y-68612764D01*
X81195928Y-68612764D01*
G37*
G36*
X76245928Y-68612764D02*
G01*
X76267009Y-68619160D01*
X76286445Y-68629548D01*
X76303476Y-68643524D01*
X76317452Y-68660555D01*
X76327840Y-68679991D01*
X76334236Y-68701072D01*
X76337000Y-68729140D01*
X76337000Y-69192860D01*
X76334236Y-69220928D01*
X76327840Y-69242009D01*
X76317452Y-69261445D01*
X76303476Y-69278476D01*
X76286445Y-69292452D01*
X76267009Y-69302840D01*
X76245928Y-69309236D01*
X76217860Y-69312000D01*
X74404140Y-69312000D01*
X74376072Y-69309236D01*
X74354991Y-69302840D01*
X74335555Y-69292452D01*
X74318524Y-69278476D01*
X74304548Y-69261445D01*
X74294160Y-69242009D01*
X74287764Y-69220928D01*
X74285000Y-69192860D01*
X74285000Y-68729140D01*
X74287764Y-68701072D01*
X74294160Y-68679991D01*
X74304548Y-68660555D01*
X74318524Y-68643524D01*
X74335555Y-68629548D01*
X74354991Y-68619160D01*
X74376072Y-68612764D01*
X74404140Y-68610000D01*
X76217860Y-68610000D01*
X76245928Y-68612764D01*
X76245928Y-68612764D01*
G37*
G36*
X81195928Y-67342764D02*
G01*
X81217009Y-67349160D01*
X81236445Y-67359548D01*
X81253476Y-67373524D01*
X81267452Y-67390555D01*
X81277840Y-67409991D01*
X81284236Y-67431072D01*
X81287000Y-67459140D01*
X81287000Y-67922860D01*
X81284236Y-67950928D01*
X81277840Y-67972009D01*
X81267452Y-67991445D01*
X81253476Y-68008476D01*
X81236445Y-68022452D01*
X81217009Y-68032840D01*
X81195928Y-68039236D01*
X81167860Y-68042000D01*
X79354140Y-68042000D01*
X79326072Y-68039236D01*
X79304991Y-68032840D01*
X79285555Y-68022452D01*
X79268524Y-68008476D01*
X79254548Y-67991445D01*
X79244160Y-67972009D01*
X79237764Y-67950928D01*
X79235000Y-67922860D01*
X79235000Y-67459140D01*
X79237764Y-67431072D01*
X79244160Y-67409991D01*
X79254548Y-67390555D01*
X79268524Y-67373524D01*
X79285555Y-67359548D01*
X79304991Y-67349160D01*
X79326072Y-67342764D01*
X79354140Y-67340000D01*
X81167860Y-67340000D01*
X81195928Y-67342764D01*
X81195928Y-67342764D01*
G37*
G36*
X76245928Y-67342764D02*
G01*
X76267009Y-67349160D01*
X76286445Y-67359548D01*
X76303476Y-67373524D01*
X76317452Y-67390555D01*
X76327840Y-67409991D01*
X76334236Y-67431072D01*
X76337000Y-67459140D01*
X76337000Y-67922860D01*
X76334236Y-67950928D01*
X76327840Y-67972009D01*
X76317452Y-67991445D01*
X76303476Y-68008476D01*
X76286445Y-68022452D01*
X76267009Y-68032840D01*
X76245928Y-68039236D01*
X76217860Y-68042000D01*
X74404140Y-68042000D01*
X74376072Y-68039236D01*
X74354991Y-68032840D01*
X74335555Y-68022452D01*
X74318524Y-68008476D01*
X74304548Y-67991445D01*
X74294160Y-67972009D01*
X74287764Y-67950928D01*
X74285000Y-67922860D01*
X74285000Y-67459140D01*
X74287764Y-67431072D01*
X74294160Y-67409991D01*
X74304548Y-67390555D01*
X74318524Y-67373524D01*
X74335555Y-67359548D01*
X74354991Y-67349160D01*
X74376072Y-67342764D01*
X74404140Y-67340000D01*
X76217860Y-67340000D01*
X76245928Y-67342764D01*
X76245928Y-67342764D01*
G37*
G36*
X70420091Y-66597085D02*
G01*
X70454069Y-66607393D01*
X70485390Y-66624134D01*
X70512839Y-66646661D01*
X70535366Y-66674110D01*
X70552107Y-66705431D01*
X70562415Y-66739409D01*
X70566500Y-66780890D01*
X70566500Y-67382110D01*
X70562415Y-67423591D01*
X70552107Y-67457569D01*
X70535366Y-67488890D01*
X70512839Y-67516339D01*
X70485390Y-67538866D01*
X70454069Y-67555607D01*
X70420091Y-67565915D01*
X70378610Y-67570000D01*
X69702390Y-67570000D01*
X69660909Y-67565915D01*
X69626931Y-67555607D01*
X69595610Y-67538866D01*
X69568161Y-67516339D01*
X69545634Y-67488890D01*
X69528893Y-67457569D01*
X69518585Y-67423591D01*
X69514500Y-67382110D01*
X69514500Y-66780890D01*
X69518585Y-66739409D01*
X69528893Y-66705431D01*
X69545634Y-66674110D01*
X69568161Y-66646661D01*
X69595610Y-66624134D01*
X69626931Y-66607393D01*
X69660909Y-66597085D01*
X69702390Y-66593000D01*
X70378610Y-66593000D01*
X70420091Y-66597085D01*
X70420091Y-66597085D01*
G37*
G36*
X75132491Y-65492685D02*
G01*
X75166469Y-65502993D01*
X75197790Y-65519734D01*
X75225239Y-65542261D01*
X75247766Y-65569710D01*
X75264507Y-65601031D01*
X75274815Y-65635009D01*
X75278900Y-65676490D01*
X75278900Y-66352710D01*
X75274815Y-66394191D01*
X75264507Y-66428169D01*
X75247766Y-66459490D01*
X75225239Y-66486939D01*
X75197790Y-66509466D01*
X75166469Y-66526207D01*
X75132491Y-66536515D01*
X75091010Y-66540600D01*
X74489790Y-66540600D01*
X74448309Y-66536515D01*
X74414331Y-66526207D01*
X74383010Y-66509466D01*
X74355561Y-66486939D01*
X74333034Y-66459490D01*
X74316293Y-66428169D01*
X74305985Y-66394191D01*
X74301900Y-66352710D01*
X74301900Y-65676490D01*
X74305985Y-65635009D01*
X74316293Y-65601031D01*
X74333034Y-65569710D01*
X74355561Y-65542261D01*
X74383010Y-65519734D01*
X74414331Y-65502993D01*
X74448309Y-65492685D01*
X74489790Y-65488600D01*
X75091010Y-65488600D01*
X75132491Y-65492685D01*
X75132491Y-65492685D01*
G37*
G36*
X73557491Y-65492685D02*
G01*
X73591469Y-65502993D01*
X73622790Y-65519734D01*
X73650239Y-65542261D01*
X73672766Y-65569710D01*
X73689507Y-65601031D01*
X73699815Y-65635009D01*
X73703900Y-65676490D01*
X73703900Y-66352710D01*
X73699815Y-66394191D01*
X73689507Y-66428169D01*
X73672766Y-66459490D01*
X73650239Y-66486939D01*
X73622790Y-66509466D01*
X73591469Y-66526207D01*
X73557491Y-66536515D01*
X73516010Y-66540600D01*
X72914790Y-66540600D01*
X72873309Y-66536515D01*
X72839331Y-66526207D01*
X72808010Y-66509466D01*
X72780561Y-66486939D01*
X72758034Y-66459490D01*
X72741293Y-66428169D01*
X72730985Y-66394191D01*
X72726900Y-66352710D01*
X72726900Y-65676490D01*
X72730985Y-65635009D01*
X72741293Y-65601031D01*
X72758034Y-65569710D01*
X72780561Y-65542261D01*
X72808010Y-65519734D01*
X72839331Y-65502993D01*
X72873309Y-65492685D01*
X72914790Y-65488600D01*
X73516010Y-65488600D01*
X73557491Y-65492685D01*
X73557491Y-65492685D01*
G37*
G36*
X70420091Y-65022085D02*
G01*
X70454069Y-65032393D01*
X70485390Y-65049134D01*
X70512839Y-65071661D01*
X70535366Y-65099110D01*
X70552107Y-65130431D01*
X70562415Y-65164409D01*
X70566500Y-65205890D01*
X70566500Y-65807110D01*
X70562415Y-65848591D01*
X70552107Y-65882569D01*
X70535366Y-65913890D01*
X70512839Y-65941339D01*
X70485390Y-65963866D01*
X70454069Y-65980607D01*
X70420091Y-65990915D01*
X70378610Y-65995000D01*
X69702390Y-65995000D01*
X69660909Y-65990915D01*
X69626931Y-65980607D01*
X69595610Y-65963866D01*
X69568161Y-65941339D01*
X69545634Y-65913890D01*
X69528893Y-65882569D01*
X69518585Y-65848591D01*
X69514500Y-65807110D01*
X69514500Y-65205890D01*
X69518585Y-65164409D01*
X69528893Y-65130431D01*
X69545634Y-65099110D01*
X69568161Y-65071661D01*
X69595610Y-65049134D01*
X69626931Y-65032393D01*
X69660909Y-65022085D01*
X69702390Y-65018000D01*
X70378610Y-65018000D01*
X70420091Y-65022085D01*
X70420091Y-65022085D01*
G37*
G36*
X73557491Y-63841685D02*
G01*
X73591469Y-63851993D01*
X73622790Y-63868734D01*
X73650239Y-63891261D01*
X73672766Y-63918710D01*
X73689507Y-63950031D01*
X73699815Y-63984009D01*
X73703900Y-64025490D01*
X73703900Y-64701710D01*
X73699815Y-64743191D01*
X73689507Y-64777169D01*
X73672766Y-64808490D01*
X73650239Y-64835939D01*
X73622790Y-64858466D01*
X73591469Y-64875207D01*
X73557491Y-64885515D01*
X73516010Y-64889600D01*
X72914790Y-64889600D01*
X72873309Y-64885515D01*
X72839331Y-64875207D01*
X72808010Y-64858466D01*
X72780561Y-64835939D01*
X72758034Y-64808490D01*
X72741293Y-64777169D01*
X72730985Y-64743191D01*
X72726900Y-64701710D01*
X72726900Y-64025490D01*
X72730985Y-63984009D01*
X72741293Y-63950031D01*
X72758034Y-63918710D01*
X72780561Y-63891261D01*
X72808010Y-63868734D01*
X72839331Y-63851993D01*
X72873309Y-63841685D01*
X72914790Y-63837600D01*
X73516010Y-63837600D01*
X73557491Y-63841685D01*
X73557491Y-63841685D01*
G37*
G36*
X75132491Y-63841685D02*
G01*
X75166469Y-63851993D01*
X75197790Y-63868734D01*
X75225239Y-63891261D01*
X75247766Y-63918710D01*
X75264507Y-63950031D01*
X75274815Y-63984009D01*
X75278900Y-64025490D01*
X75278900Y-64701710D01*
X75274815Y-64743191D01*
X75264507Y-64777169D01*
X75247766Y-64808490D01*
X75225239Y-64835939D01*
X75197790Y-64858466D01*
X75166469Y-64875207D01*
X75132491Y-64885515D01*
X75091010Y-64889600D01*
X74489790Y-64889600D01*
X74448309Y-64885515D01*
X74414331Y-64875207D01*
X74383010Y-64858466D01*
X74355561Y-64835939D01*
X74333034Y-64808490D01*
X74316293Y-64777169D01*
X74305985Y-64743191D01*
X74301900Y-64701710D01*
X74301900Y-64025490D01*
X74305985Y-63984009D01*
X74316293Y-63950031D01*
X74333034Y-63918710D01*
X74355561Y-63891261D01*
X74383010Y-63868734D01*
X74414331Y-63851993D01*
X74448309Y-63841685D01*
X74489790Y-63837600D01*
X75091010Y-63837600D01*
X75132491Y-63841685D01*
X75132491Y-63841685D01*
G37*
G36*
X79168000Y-63282400D02*
G01*
X76276000Y-63282400D01*
X76276000Y-61990400D01*
X79168000Y-61990400D01*
X79168000Y-63282400D01*
X79168000Y-63282400D01*
G37*
G36*
X74117400Y-63282400D02*
G01*
X71225400Y-63282400D01*
X71225400Y-61990400D01*
X74117400Y-61990400D01*
X74117400Y-63282400D01*
X74117400Y-63282400D01*
G37*
G36*
X69287400Y-60742400D02*
G01*
X66395400Y-60742400D01*
X66395400Y-59450400D01*
X69287400Y-59450400D01*
X69287400Y-60742400D01*
X69287400Y-60742400D01*
G37*
G36*
X83998000Y-60742400D02*
G01*
X81106000Y-60742400D01*
X81106000Y-59450400D01*
X83998000Y-59450400D01*
X83998000Y-60742400D01*
X83998000Y-60742400D01*
G37*
G36*
X100530298Y-58714247D02*
G01*
X100565867Y-58725037D01*
X100598639Y-58742554D01*
X100627369Y-58766131D01*
X100650946Y-58794861D01*
X100668463Y-58827633D01*
X100679253Y-58863202D01*
X100683500Y-58906325D01*
X100683500Y-59965675D01*
X100679253Y-60008798D01*
X100668463Y-60044367D01*
X100650946Y-60077139D01*
X100627369Y-60105869D01*
X100598639Y-60129446D01*
X100565867Y-60146963D01*
X100530298Y-60157753D01*
X100487175Y-60162000D01*
X99377825Y-60162000D01*
X99334702Y-60157753D01*
X99299133Y-60146963D01*
X99266361Y-60129446D01*
X99237631Y-60105869D01*
X99214054Y-60077139D01*
X99196537Y-60044367D01*
X99185747Y-60008798D01*
X99181500Y-59965675D01*
X99181500Y-58906325D01*
X99185747Y-58863202D01*
X99196537Y-58827633D01*
X99214054Y-58794861D01*
X99237631Y-58766131D01*
X99266361Y-58742554D01*
X99299133Y-58725037D01*
X99334702Y-58714247D01*
X99377825Y-58710000D01*
X100487175Y-58710000D01*
X100530298Y-58714247D01*
X100530298Y-58714247D01*
G37*
G36*
X103230298Y-58714247D02*
G01*
X103265867Y-58725037D01*
X103298639Y-58742554D01*
X103327369Y-58766131D01*
X103350946Y-58794861D01*
X103368463Y-58827633D01*
X103379253Y-58863202D01*
X103383500Y-58906325D01*
X103383500Y-59965675D01*
X103379253Y-60008798D01*
X103368463Y-60044367D01*
X103350946Y-60077139D01*
X103327369Y-60105869D01*
X103298639Y-60129446D01*
X103265867Y-60146963D01*
X103230298Y-60157753D01*
X103187175Y-60162000D01*
X102077825Y-60162000D01*
X102034702Y-60157753D01*
X101999133Y-60146963D01*
X101966361Y-60129446D01*
X101937631Y-60105869D01*
X101914054Y-60077139D01*
X101896537Y-60044367D01*
X101885747Y-60008798D01*
X101881500Y-59965675D01*
X101881500Y-58906325D01*
X101885747Y-58863202D01*
X101896537Y-58827633D01*
X101914054Y-58794861D01*
X101937631Y-58766131D01*
X101966361Y-58742554D01*
X101999133Y-58725037D01*
X102034702Y-58714247D01*
X102077825Y-58710000D01*
X103187175Y-58710000D01*
X103230298Y-58714247D01*
X103230298Y-58714247D01*
G37*
G36*
X79168000Y-58202400D02*
G01*
X76276000Y-58202400D01*
X76276000Y-56910400D01*
X79168000Y-56910400D01*
X79168000Y-58202400D01*
X79168000Y-58202400D01*
G37*
G36*
X74117400Y-58202400D02*
G01*
X71225400Y-58202400D01*
X71225400Y-56910400D01*
X74117400Y-56910400D01*
X74117400Y-58202400D01*
X74117400Y-58202400D01*
G37*
G36*
X102519444Y-55364018D02*
G01*
X102585628Y-55370536D01*
X102755467Y-55422056D01*
X102911992Y-55505721D01*
X102947730Y-55535051D01*
X103049187Y-55618313D01*
X103132449Y-55719770D01*
X103161779Y-55755508D01*
X103245444Y-55912033D01*
X103296964Y-56081872D01*
X103314360Y-56258499D01*
X103296964Y-56435126D01*
X103245444Y-56604965D01*
X103161779Y-56761490D01*
X103132449Y-56797228D01*
X103049187Y-56898685D01*
X102947730Y-56981947D01*
X102911992Y-57011277D01*
X102755467Y-57094942D01*
X102585628Y-57146462D01*
X102519444Y-57152980D01*
X102453261Y-57159499D01*
X102364741Y-57159499D01*
X102298558Y-57152980D01*
X102232374Y-57146462D01*
X102062535Y-57094942D01*
X101906010Y-57011277D01*
X101870272Y-56981947D01*
X101768815Y-56898685D01*
X101685553Y-56797228D01*
X101656223Y-56761490D01*
X101572558Y-56604965D01*
X101521038Y-56435126D01*
X101503642Y-56258499D01*
X101521038Y-56081872D01*
X101572558Y-55912033D01*
X101656223Y-55755508D01*
X101685553Y-55719770D01*
X101768815Y-55618313D01*
X101870272Y-55535051D01*
X101906010Y-55505721D01*
X102062535Y-55422056D01*
X102232374Y-55370536D01*
X102298558Y-55364018D01*
X102364741Y-55357499D01*
X102453261Y-55357499D01*
X102519444Y-55364018D01*
X102519444Y-55364018D01*
G37*
G36*
X100770001Y-57159499D02*
G01*
X98968001Y-57159499D01*
X98968001Y-55357499D01*
X100770001Y-55357499D01*
X100770001Y-57159499D01*
X100770001Y-57159499D01*
G37*
M02*
