M48
; DRILL file {KiCad (5.1.4)-1} date 2/14/2020 11:12:33 AM
; FORMAT={-:-/ absolute / metric / decimal}
; #@! TF.CreationDate,2020-02-14T11:12:33-05:00
; #@! TF.GenerationSoftware,Kicad,Pcbnew,(5.1.4)-1
; #@! TF.FileFunction,Plated,1,2,PTH
FMAT,2
METRIC
T1C0.760
T2C1.000
T3C2.000
T4C3.100
%
G90
G05
T1
X122.96Y-66.11
X122.96Y-68.65
X122.96Y-71.19
X122.96Y-73.73
X125.5Y-67.38
X125.5Y-69.92
X125.5Y-72.46
X125.5Y-75.0
X67.6Y-66.0
X67.6Y-68.54
X67.6Y-71.08
X67.6Y-73.62
X70.14Y-67.27
X70.14Y-69.81
X70.14Y-72.35
X70.14Y-74.89
T2
X78.0Y-61.25
X78.0Y-79.25
X92.0Y-61.25
X92.0Y-79.25
T3
X108.5Y-65.25
X108.5Y-75.25
T4
X61.25Y-57.75
X132.25Y-57.25
X61.25Y-82.75
X131.5Y-82.5
T0
M30
