G04 #@! TF.GenerationSoftware,KiCad,Pcbnew,(5.1.4)-1*
G04 #@! TF.CreationDate,2020-02-14T11:12:35-05:00*
G04 #@! TF.ProjectId,PowerFilter,506f7765-7246-4696-9c74-65722e6b6963,rev?*
G04 #@! TF.SameCoordinates,Original*
G04 #@! TF.FileFunction,Legend,Top*
G04 #@! TF.FilePolarity,Positive*
%FSLAX46Y46*%
G04 Gerber Fmt 4.6, Leading zero omitted, Abs format (unit mm)*
G04 Created by KiCad (PCBNEW (5.1.4)-1) date 2020-02-14 11:12:35*
%MOMM*%
%LPD*%
G04 APERTURE LIST*
%ADD10C,0.150000*%
%ADD11C,0.120000*%
G04 APERTURE END LIST*
D10*
X122750000Y-60702380D02*
X122940476Y-60702380D01*
X123035714Y-60750000D01*
X123130952Y-60845238D01*
X123178571Y-61035714D01*
X123178571Y-61369047D01*
X123130952Y-61559523D01*
X123035714Y-61654761D01*
X122940476Y-61702380D01*
X122750000Y-61702380D01*
X122654761Y-61654761D01*
X122559523Y-61559523D01*
X122511904Y-61369047D01*
X122511904Y-61035714D01*
X122559523Y-60845238D01*
X122654761Y-60750000D01*
X122750000Y-60702380D01*
X123607142Y-60702380D02*
X123607142Y-61511904D01*
X123654761Y-61607142D01*
X123702380Y-61654761D01*
X123797619Y-61702380D01*
X123988095Y-61702380D01*
X124083333Y-61654761D01*
X124130952Y-61607142D01*
X124178571Y-61511904D01*
X124178571Y-60702380D01*
X124511904Y-60702380D02*
X125083333Y-60702380D01*
X124797619Y-61702380D02*
X124797619Y-60702380D01*
X64976190Y-59452380D02*
X64976190Y-58452380D01*
X65452380Y-59452380D02*
X65452380Y-58452380D01*
X66023809Y-59452380D01*
X66023809Y-58452380D01*
D11*
X88566666Y-81450000D02*
X95700000Y-81450000D01*
X88566666Y-81090000D02*
X88566666Y-81450000D01*
X81433334Y-81090000D02*
X88566666Y-81090000D01*
X81433334Y-81450000D02*
X81433334Y-81090000D01*
X74300000Y-81450000D02*
X81433334Y-81450000D01*
X74300000Y-59050000D02*
X74300000Y-81450000D01*
X95700000Y-59050000D02*
X74300000Y-59050000D01*
X95700000Y-81450000D02*
X95700000Y-59050000D01*
X121620000Y-78315000D02*
X139580000Y-78315000D01*
X121620000Y-62795000D02*
X121620000Y-78315000D01*
X121620000Y-62795000D02*
X139580000Y-62795000D01*
X139580000Y-78315000D02*
X139580000Y-62795000D01*
X125500000Y-78500000D02*
X125000000Y-79000000D01*
X125000000Y-79000000D02*
X126000000Y-79000000D01*
X126000000Y-79000000D02*
X125500000Y-78500000D01*
X71480000Y-62685000D02*
X53520000Y-62685000D01*
X71480000Y-78205000D02*
X71480000Y-62685000D01*
X71480000Y-78205000D02*
X53520000Y-78205000D01*
X53520000Y-62685000D02*
X53520000Y-78205000D01*
X67600000Y-62500000D02*
X68100000Y-62000000D01*
X68100000Y-62000000D02*
X67100000Y-62000000D01*
X67100000Y-62000000D02*
X67600000Y-62500000D01*
X115835000Y-59450663D02*
X113635000Y-59450663D01*
X114735000Y-58350663D02*
X114735000Y-60550663D01*
X108540000Y-81370000D02*
X108460000Y-81370000D01*
X109403000Y-81330000D02*
X107597000Y-81330000D01*
X109792000Y-81290000D02*
X107208000Y-81290000D01*
X110090000Y-81250000D02*
X106910000Y-81250000D01*
X110340000Y-81210000D02*
X106660000Y-81210000D01*
X110560000Y-81170000D02*
X106440000Y-81170000D01*
X110758000Y-81130000D02*
X106242000Y-81130000D01*
X110940000Y-81090000D02*
X106060000Y-81090000D01*
X111109000Y-81050000D02*
X105891000Y-81050000D01*
X111267000Y-81010000D02*
X105733000Y-81010000D01*
X111416000Y-80970000D02*
X105584000Y-80970000D01*
X111558000Y-80930000D02*
X105442000Y-80930000D01*
X111692000Y-80890000D02*
X105308000Y-80890000D01*
X111821000Y-80850000D02*
X105179000Y-80850000D01*
X111945000Y-80810000D02*
X105055000Y-80810000D01*
X112064000Y-80770000D02*
X104936000Y-80770000D01*
X112179000Y-80730000D02*
X104821000Y-80730000D01*
X112289000Y-80690000D02*
X104711000Y-80690000D01*
X112397000Y-80650000D02*
X104603000Y-80650000D01*
X112501000Y-80610000D02*
X104499000Y-80610000D01*
X112602000Y-80570000D02*
X104398000Y-80570000D01*
X112700000Y-80530000D02*
X104300000Y-80530000D01*
X112796000Y-80490000D02*
X104204000Y-80490000D01*
X112889000Y-80450000D02*
X104111000Y-80450000D01*
X112980000Y-80410000D02*
X104020000Y-80410000D01*
X113069000Y-80370000D02*
X103931000Y-80370000D01*
X113156000Y-80330000D02*
X103844000Y-80330000D01*
X113241000Y-80290000D02*
X103759000Y-80290000D01*
X113324000Y-80250000D02*
X103676000Y-80250000D01*
X113405000Y-80210000D02*
X103595000Y-80210000D01*
X113485000Y-80170000D02*
X103515000Y-80170000D01*
X113563000Y-80130000D02*
X103437000Y-80130000D01*
X113640000Y-80090000D02*
X103360000Y-80090000D01*
X113715000Y-80050000D02*
X103285000Y-80050000D01*
X113789000Y-80010000D02*
X103211000Y-80010000D01*
X113862000Y-79970000D02*
X103138000Y-79970000D01*
X113933000Y-79930000D02*
X103067000Y-79930000D01*
X114003000Y-79890000D02*
X102997000Y-79890000D01*
X114072000Y-79850000D02*
X102928000Y-79850000D01*
X114140000Y-79810000D02*
X102860000Y-79810000D01*
X114207000Y-79770000D02*
X102793000Y-79770000D01*
X114273000Y-79730000D02*
X102727000Y-79730000D01*
X114338000Y-79690000D02*
X102662000Y-79690000D01*
X114401000Y-79650000D02*
X102599000Y-79650000D01*
X114464000Y-79610000D02*
X102536000Y-79610000D01*
X114526000Y-79570000D02*
X102474000Y-79570000D01*
X114587000Y-79530000D02*
X102413000Y-79530000D01*
X114647000Y-79490000D02*
X102353000Y-79490000D01*
X114707000Y-79450000D02*
X102293000Y-79450000D01*
X114765000Y-79410000D02*
X102235000Y-79410000D01*
X114823000Y-79370000D02*
X102177000Y-79370000D01*
X114880000Y-79330000D02*
X102120000Y-79330000D01*
X114936000Y-79290000D02*
X102064000Y-79290000D01*
X114992000Y-79250000D02*
X102008000Y-79250000D01*
X115046000Y-79210000D02*
X101954000Y-79210000D01*
X115100000Y-79170000D02*
X101900000Y-79170000D01*
X115154000Y-79130000D02*
X101846000Y-79130000D01*
X115207000Y-79090000D02*
X101793000Y-79090000D01*
X115259000Y-79050000D02*
X101741000Y-79050000D01*
X115310000Y-79010000D02*
X101690000Y-79010000D01*
X115361000Y-78970000D02*
X101639000Y-78970000D01*
X115411000Y-78930000D02*
X101589000Y-78930000D01*
X115461000Y-78890000D02*
X101539000Y-78890000D01*
X115510000Y-78850000D02*
X101490000Y-78850000D01*
X115558000Y-78810000D02*
X101442000Y-78810000D01*
X115606000Y-78770000D02*
X101394000Y-78770000D01*
X115654000Y-78730000D02*
X101346000Y-78730000D01*
X115701000Y-78690000D02*
X101299000Y-78690000D01*
X115747000Y-78650000D02*
X101253000Y-78650000D01*
X115793000Y-78610000D02*
X101207000Y-78610000D01*
X115838000Y-78570000D02*
X101162000Y-78570000D01*
X115883000Y-78530000D02*
X101117000Y-78530000D01*
X115928000Y-78490000D02*
X101072000Y-78490000D01*
X115971000Y-78450000D02*
X101029000Y-78450000D01*
X116015000Y-78411000D02*
X100985000Y-78411000D01*
X116058000Y-78371000D02*
X100942000Y-78371000D01*
X116100000Y-78331000D02*
X100900000Y-78331000D01*
X116142000Y-78291000D02*
X100858000Y-78291000D01*
X116184000Y-78251000D02*
X100816000Y-78251000D01*
X116225000Y-78211000D02*
X100775000Y-78211000D01*
X116266000Y-78171000D02*
X100734000Y-78171000D01*
X116307000Y-78131000D02*
X100693000Y-78131000D01*
X116346000Y-78091000D02*
X100654000Y-78091000D01*
X116386000Y-78051000D02*
X100614000Y-78051000D01*
X116425000Y-78011000D02*
X100575000Y-78011000D01*
X116464000Y-77971000D02*
X100536000Y-77971000D01*
X116502000Y-77931000D02*
X100498000Y-77931000D01*
X116540000Y-77891000D02*
X100460000Y-77891000D01*
X116578000Y-77851000D02*
X100422000Y-77851000D01*
X116615000Y-77811000D02*
X100385000Y-77811000D01*
X116652000Y-77771000D02*
X100348000Y-77771000D01*
X116689000Y-77731000D02*
X100311000Y-77731000D01*
X116725000Y-77691000D02*
X100275000Y-77691000D01*
X116761000Y-77651000D02*
X100239000Y-77651000D01*
X116796000Y-77611000D02*
X100204000Y-77611000D01*
X116831000Y-77571000D02*
X100169000Y-77571000D01*
X116866000Y-77531000D02*
X100134000Y-77531000D01*
X116901000Y-77491000D02*
X100099000Y-77491000D01*
X106260000Y-77451000D02*
X100065000Y-77451000D01*
X116935000Y-77451000D02*
X110740000Y-77451000D01*
X106260000Y-77411000D02*
X100031000Y-77411000D01*
X116969000Y-77411000D02*
X110740000Y-77411000D01*
X106260000Y-77371000D02*
X99998000Y-77371000D01*
X117002000Y-77371000D02*
X110740000Y-77371000D01*
X106260000Y-77331000D02*
X99965000Y-77331000D01*
X117035000Y-77331000D02*
X110740000Y-77331000D01*
X106260000Y-77291000D02*
X99932000Y-77291000D01*
X117068000Y-77291000D02*
X110740000Y-77291000D01*
X106260000Y-77251000D02*
X99899000Y-77251000D01*
X117101000Y-77251000D02*
X110740000Y-77251000D01*
X106260000Y-77211000D02*
X99867000Y-77211000D01*
X117133000Y-77211000D02*
X110740000Y-77211000D01*
X106260000Y-77171000D02*
X99835000Y-77171000D01*
X117165000Y-77171000D02*
X110740000Y-77171000D01*
X106260000Y-77131000D02*
X99803000Y-77131000D01*
X117197000Y-77131000D02*
X110740000Y-77131000D01*
X106260000Y-77091000D02*
X99772000Y-77091000D01*
X117228000Y-77091000D02*
X110740000Y-77091000D01*
X106260000Y-77051000D02*
X99741000Y-77051000D01*
X117259000Y-77051000D02*
X110740000Y-77051000D01*
X106260000Y-77011000D02*
X99710000Y-77011000D01*
X117290000Y-77011000D02*
X110740000Y-77011000D01*
X106260000Y-76971000D02*
X99680000Y-76971000D01*
X117320000Y-76971000D02*
X110740000Y-76971000D01*
X106260000Y-76931000D02*
X99650000Y-76931000D01*
X117350000Y-76931000D02*
X110740000Y-76931000D01*
X106260000Y-76891000D02*
X99620000Y-76891000D01*
X117380000Y-76891000D02*
X110740000Y-76891000D01*
X106260000Y-76851000D02*
X99590000Y-76851000D01*
X117410000Y-76851000D02*
X110740000Y-76851000D01*
X106260000Y-76811000D02*
X99561000Y-76811000D01*
X117439000Y-76811000D02*
X110740000Y-76811000D01*
X106260000Y-76771000D02*
X99532000Y-76771000D01*
X117468000Y-76771000D02*
X110740000Y-76771000D01*
X106260000Y-76731000D02*
X99503000Y-76731000D01*
X117497000Y-76731000D02*
X110740000Y-76731000D01*
X106260000Y-76691000D02*
X99474000Y-76691000D01*
X117526000Y-76691000D02*
X110740000Y-76691000D01*
X106260000Y-76651000D02*
X99446000Y-76651000D01*
X117554000Y-76651000D02*
X110740000Y-76651000D01*
X106260000Y-76611000D02*
X99418000Y-76611000D01*
X117582000Y-76611000D02*
X110740000Y-76611000D01*
X106260000Y-76571000D02*
X99390000Y-76571000D01*
X117610000Y-76571000D02*
X110740000Y-76571000D01*
X106260000Y-76531000D02*
X99363000Y-76531000D01*
X117637000Y-76531000D02*
X110740000Y-76531000D01*
X106260000Y-76491000D02*
X99335000Y-76491000D01*
X117665000Y-76491000D02*
X110740000Y-76491000D01*
X106260000Y-76451000D02*
X99308000Y-76451000D01*
X117692000Y-76451000D02*
X110740000Y-76451000D01*
X106260000Y-76411000D02*
X99282000Y-76411000D01*
X117718000Y-76411000D02*
X110740000Y-76411000D01*
X106260000Y-76371000D02*
X99255000Y-76371000D01*
X117745000Y-76371000D02*
X110740000Y-76371000D01*
X106260000Y-76331000D02*
X99229000Y-76331000D01*
X117771000Y-76331000D02*
X110740000Y-76331000D01*
X106260000Y-76291000D02*
X99203000Y-76291000D01*
X117797000Y-76291000D02*
X110740000Y-76291000D01*
X106260000Y-76251000D02*
X99177000Y-76251000D01*
X117823000Y-76251000D02*
X110740000Y-76251000D01*
X106260000Y-76211000D02*
X99152000Y-76211000D01*
X117848000Y-76211000D02*
X110740000Y-76211000D01*
X106260000Y-76171000D02*
X99126000Y-76171000D01*
X117874000Y-76171000D02*
X110740000Y-76171000D01*
X106260000Y-76131000D02*
X99101000Y-76131000D01*
X117899000Y-76131000D02*
X110740000Y-76131000D01*
X106260000Y-76091000D02*
X99076000Y-76091000D01*
X117924000Y-76091000D02*
X110740000Y-76091000D01*
X106260000Y-76051000D02*
X99052000Y-76051000D01*
X117948000Y-76051000D02*
X110740000Y-76051000D01*
X106260000Y-76011000D02*
X99028000Y-76011000D01*
X117972000Y-76011000D02*
X110740000Y-76011000D01*
X106260000Y-75971000D02*
X99003000Y-75971000D01*
X117997000Y-75971000D02*
X110740000Y-75971000D01*
X106260000Y-75931000D02*
X98980000Y-75931000D01*
X118020000Y-75931000D02*
X110740000Y-75931000D01*
X106260000Y-75891000D02*
X98956000Y-75891000D01*
X118044000Y-75891000D02*
X110740000Y-75891000D01*
X106260000Y-75851000D02*
X98933000Y-75851000D01*
X118067000Y-75851000D02*
X110740000Y-75851000D01*
X106260000Y-75811000D02*
X98909000Y-75811000D01*
X118091000Y-75811000D02*
X110740000Y-75811000D01*
X106260000Y-75771000D02*
X98886000Y-75771000D01*
X118114000Y-75771000D02*
X110740000Y-75771000D01*
X106260000Y-75731000D02*
X98864000Y-75731000D01*
X118136000Y-75731000D02*
X110740000Y-75731000D01*
X106260000Y-75691000D02*
X98841000Y-75691000D01*
X118159000Y-75691000D02*
X110740000Y-75691000D01*
X106260000Y-75651000D02*
X98819000Y-75651000D01*
X118181000Y-75651000D02*
X110740000Y-75651000D01*
X106260000Y-75611000D02*
X98797000Y-75611000D01*
X118203000Y-75611000D02*
X110740000Y-75611000D01*
X106260000Y-75571000D02*
X98775000Y-75571000D01*
X118225000Y-75571000D02*
X110740000Y-75571000D01*
X106260000Y-75531000D02*
X98753000Y-75531000D01*
X118247000Y-75531000D02*
X110740000Y-75531000D01*
X106260000Y-75491000D02*
X98732000Y-75491000D01*
X118268000Y-75491000D02*
X110740000Y-75491000D01*
X106260000Y-75451000D02*
X98710000Y-75451000D01*
X118290000Y-75451000D02*
X110740000Y-75451000D01*
X106260000Y-75411000D02*
X98689000Y-75411000D01*
X118311000Y-75411000D02*
X110740000Y-75411000D01*
X106260000Y-75371000D02*
X98668000Y-75371000D01*
X118332000Y-75371000D02*
X110740000Y-75371000D01*
X106260000Y-75331000D02*
X98648000Y-75331000D01*
X118352000Y-75331000D02*
X110740000Y-75331000D01*
X106260000Y-75291000D02*
X98627000Y-75291000D01*
X118373000Y-75291000D02*
X110740000Y-75291000D01*
X106260000Y-75251000D02*
X98607000Y-75251000D01*
X118393000Y-75251000D02*
X110740000Y-75251000D01*
X106260000Y-75211000D02*
X98587000Y-75211000D01*
X118413000Y-75211000D02*
X110740000Y-75211000D01*
X106260000Y-75171000D02*
X98567000Y-75171000D01*
X118433000Y-75171000D02*
X110740000Y-75171000D01*
X106260000Y-75131000D02*
X98548000Y-75131000D01*
X118452000Y-75131000D02*
X110740000Y-75131000D01*
X106260000Y-75091000D02*
X98528000Y-75091000D01*
X118472000Y-75091000D02*
X110740000Y-75091000D01*
X106260000Y-75051000D02*
X98509000Y-75051000D01*
X118491000Y-75051000D02*
X110740000Y-75051000D01*
X106260000Y-75011000D02*
X98490000Y-75011000D01*
X118510000Y-75011000D02*
X110740000Y-75011000D01*
X106260000Y-74971000D02*
X98471000Y-74971000D01*
X118529000Y-74971000D02*
X110740000Y-74971000D01*
X106260000Y-74931000D02*
X98452000Y-74931000D01*
X118548000Y-74931000D02*
X110740000Y-74931000D01*
X106260000Y-74891000D02*
X98434000Y-74891000D01*
X118566000Y-74891000D02*
X110740000Y-74891000D01*
X106260000Y-74851000D02*
X98416000Y-74851000D01*
X118584000Y-74851000D02*
X110740000Y-74851000D01*
X106260000Y-74811000D02*
X98397000Y-74811000D01*
X118603000Y-74811000D02*
X110740000Y-74811000D01*
X106260000Y-74771000D02*
X98380000Y-74771000D01*
X118620000Y-74771000D02*
X110740000Y-74771000D01*
X106260000Y-74731000D02*
X98362000Y-74731000D01*
X118638000Y-74731000D02*
X110740000Y-74731000D01*
X106260000Y-74691000D02*
X98344000Y-74691000D01*
X118656000Y-74691000D02*
X110740000Y-74691000D01*
X106260000Y-74651000D02*
X98327000Y-74651000D01*
X118673000Y-74651000D02*
X110740000Y-74651000D01*
X106260000Y-74611000D02*
X98310000Y-74611000D01*
X118690000Y-74611000D02*
X110740000Y-74611000D01*
X106260000Y-74571000D02*
X98293000Y-74571000D01*
X118707000Y-74571000D02*
X110740000Y-74571000D01*
X106260000Y-74531000D02*
X98276000Y-74531000D01*
X118724000Y-74531000D02*
X110740000Y-74531000D01*
X106260000Y-74491000D02*
X98260000Y-74491000D01*
X118740000Y-74491000D02*
X110740000Y-74491000D01*
X106260000Y-74451000D02*
X98243000Y-74451000D01*
X118757000Y-74451000D02*
X110740000Y-74451000D01*
X106260000Y-74411000D02*
X98227000Y-74411000D01*
X118773000Y-74411000D02*
X110740000Y-74411000D01*
X106260000Y-74371000D02*
X98211000Y-74371000D01*
X118789000Y-74371000D02*
X110740000Y-74371000D01*
X106260000Y-74331000D02*
X98195000Y-74331000D01*
X118805000Y-74331000D02*
X110740000Y-74331000D01*
X106260000Y-74291000D02*
X98179000Y-74291000D01*
X118821000Y-74291000D02*
X110740000Y-74291000D01*
X106260000Y-74251000D02*
X98164000Y-74251000D01*
X118836000Y-74251000D02*
X110740000Y-74251000D01*
X106260000Y-74211000D02*
X98149000Y-74211000D01*
X118851000Y-74211000D02*
X110740000Y-74211000D01*
X106260000Y-74171000D02*
X98133000Y-74171000D01*
X118867000Y-74171000D02*
X110740000Y-74171000D01*
X106260000Y-74131000D02*
X98118000Y-74131000D01*
X118882000Y-74131000D02*
X110740000Y-74131000D01*
X106260000Y-74091000D02*
X98104000Y-74091000D01*
X118896000Y-74091000D02*
X110740000Y-74091000D01*
X106260000Y-74051000D02*
X98089000Y-74051000D01*
X118911000Y-74051000D02*
X110740000Y-74051000D01*
X106260000Y-74011000D02*
X98074000Y-74011000D01*
X118926000Y-74011000D02*
X110740000Y-74011000D01*
X106260000Y-73971000D02*
X98060000Y-73971000D01*
X118940000Y-73971000D02*
X110740000Y-73971000D01*
X106260000Y-73931000D02*
X98046000Y-73931000D01*
X118954000Y-73931000D02*
X110740000Y-73931000D01*
X106260000Y-73891000D02*
X98032000Y-73891000D01*
X118968000Y-73891000D02*
X110740000Y-73891000D01*
X106260000Y-73851000D02*
X98018000Y-73851000D01*
X118982000Y-73851000D02*
X110740000Y-73851000D01*
X106260000Y-73811000D02*
X98005000Y-73811000D01*
X118995000Y-73811000D02*
X110740000Y-73811000D01*
X106260000Y-73771000D02*
X97991000Y-73771000D01*
X119009000Y-73771000D02*
X110740000Y-73771000D01*
X106260000Y-73731000D02*
X97978000Y-73731000D01*
X119022000Y-73731000D02*
X110740000Y-73731000D01*
X106260000Y-73691000D02*
X97965000Y-73691000D01*
X119035000Y-73691000D02*
X110740000Y-73691000D01*
X106260000Y-73651000D02*
X97952000Y-73651000D01*
X119048000Y-73651000D02*
X110740000Y-73651000D01*
X106260000Y-73611000D02*
X97939000Y-73611000D01*
X119061000Y-73611000D02*
X110740000Y-73611000D01*
X106260000Y-73571000D02*
X97927000Y-73571000D01*
X119073000Y-73571000D02*
X110740000Y-73571000D01*
X106260000Y-73531000D02*
X97914000Y-73531000D01*
X119086000Y-73531000D02*
X110740000Y-73531000D01*
X106260000Y-73491000D02*
X97902000Y-73491000D01*
X119098000Y-73491000D02*
X110740000Y-73491000D01*
X106260000Y-73451000D02*
X97890000Y-73451000D01*
X119110000Y-73451000D02*
X110740000Y-73451000D01*
X106260000Y-73411000D02*
X97878000Y-73411000D01*
X119122000Y-73411000D02*
X110740000Y-73411000D01*
X106260000Y-73371000D02*
X97866000Y-73371000D01*
X119134000Y-73371000D02*
X110740000Y-73371000D01*
X106260000Y-73331000D02*
X97855000Y-73331000D01*
X119145000Y-73331000D02*
X110740000Y-73331000D01*
X106260000Y-73291000D02*
X97843000Y-73291000D01*
X119157000Y-73291000D02*
X110740000Y-73291000D01*
X106260000Y-73251000D02*
X97832000Y-73251000D01*
X119168000Y-73251000D02*
X110740000Y-73251000D01*
X106260000Y-73211000D02*
X97821000Y-73211000D01*
X119179000Y-73211000D02*
X110740000Y-73211000D01*
X106260000Y-73171000D02*
X97810000Y-73171000D01*
X119190000Y-73171000D02*
X110740000Y-73171000D01*
X106260000Y-73131000D02*
X97799000Y-73131000D01*
X119201000Y-73131000D02*
X110740000Y-73131000D01*
X106260000Y-73091000D02*
X97788000Y-73091000D01*
X119212000Y-73091000D02*
X110740000Y-73091000D01*
X106260000Y-73051000D02*
X97778000Y-73051000D01*
X119222000Y-73051000D02*
X110740000Y-73051000D01*
X106260000Y-73011000D02*
X97767000Y-73011000D01*
X119233000Y-73011000D02*
X110740000Y-73011000D01*
X119243000Y-72971000D02*
X97757000Y-72971000D01*
X119253000Y-72931000D02*
X97747000Y-72931000D01*
X119263000Y-72891000D02*
X97737000Y-72891000D01*
X119272000Y-72851000D02*
X97728000Y-72851000D01*
X119282000Y-72811000D02*
X97718000Y-72811000D01*
X119291000Y-72771000D02*
X97709000Y-72771000D01*
X119300000Y-72731000D02*
X97700000Y-72731000D01*
X119309000Y-72691000D02*
X97691000Y-72691000D01*
X119318000Y-72651000D02*
X97682000Y-72651000D01*
X119327000Y-72611000D02*
X97673000Y-72611000D01*
X119336000Y-72571000D02*
X97664000Y-72571000D01*
X119344000Y-72531000D02*
X97656000Y-72531000D01*
X119353000Y-72491000D02*
X97647000Y-72491000D01*
X119361000Y-72451000D02*
X97639000Y-72451000D01*
X119369000Y-72411000D02*
X97631000Y-72411000D01*
X119377000Y-72371000D02*
X97623000Y-72371000D01*
X119384000Y-72331000D02*
X97616000Y-72331000D01*
X119392000Y-72291000D02*
X97608000Y-72291000D01*
X119399000Y-72251000D02*
X97601000Y-72251000D01*
X119406000Y-72211000D02*
X97594000Y-72211000D01*
X119413000Y-72171000D02*
X97587000Y-72171000D01*
X119420000Y-72131000D02*
X97580000Y-72131000D01*
X119427000Y-72091000D02*
X97573000Y-72091000D01*
X119434000Y-72051000D02*
X97566000Y-72051000D01*
X119440000Y-72011000D02*
X97560000Y-72011000D01*
X119447000Y-71971000D02*
X97553000Y-71971000D01*
X119453000Y-71931000D02*
X97547000Y-71931000D01*
X119459000Y-71891000D02*
X97541000Y-71891000D01*
X119465000Y-71851000D02*
X97535000Y-71851000D01*
X119471000Y-71811000D02*
X97529000Y-71811000D01*
X119476000Y-71771000D02*
X97524000Y-71771000D01*
X119482000Y-71731000D02*
X97518000Y-71731000D01*
X119487000Y-71691000D02*
X97513000Y-71691000D01*
X119492000Y-71651000D02*
X97508000Y-71651000D01*
X119497000Y-71611000D02*
X97503000Y-71611000D01*
X119502000Y-71571000D02*
X97498000Y-71571000D01*
X119507000Y-71531000D02*
X97493000Y-71531000D01*
X119511000Y-71491000D02*
X97489000Y-71491000D01*
X119516000Y-71451000D02*
X97484000Y-71451000D01*
X119520000Y-71411000D02*
X97480000Y-71411000D01*
X119524000Y-71371000D02*
X97476000Y-71371000D01*
X119528000Y-71331000D02*
X97472000Y-71331000D01*
X119532000Y-71291000D02*
X97468000Y-71291000D01*
X119535000Y-71251000D02*
X97465000Y-71251000D01*
X119539000Y-71211000D02*
X97461000Y-71211000D01*
X119542000Y-71171000D02*
X97458000Y-71171000D01*
X119546000Y-71131000D02*
X97454000Y-71131000D01*
X119549000Y-71091000D02*
X97451000Y-71091000D01*
X119552000Y-71051000D02*
X97448000Y-71051000D01*
X119554000Y-71011000D02*
X97446000Y-71011000D01*
X119557000Y-70971000D02*
X97443000Y-70971000D01*
X119560000Y-70930000D02*
X97440000Y-70930000D01*
X119562000Y-70890000D02*
X97438000Y-70890000D01*
X119564000Y-70850000D02*
X97436000Y-70850000D01*
X119566000Y-70810000D02*
X97434000Y-70810000D01*
X119568000Y-70770000D02*
X97432000Y-70770000D01*
X119570000Y-70730000D02*
X97430000Y-70730000D01*
X119572000Y-70690000D02*
X97428000Y-70690000D01*
X119573000Y-70650000D02*
X97427000Y-70650000D01*
X119575000Y-70610000D02*
X97425000Y-70610000D01*
X119576000Y-70570000D02*
X97424000Y-70570000D01*
X119577000Y-70530000D02*
X97423000Y-70530000D01*
X119578000Y-70490000D02*
X97422000Y-70490000D01*
X119579000Y-70450000D02*
X97421000Y-70450000D01*
X119579000Y-70410000D02*
X97421000Y-70410000D01*
X119580000Y-70370000D02*
X97420000Y-70370000D01*
X119580000Y-70330000D02*
X97420000Y-70330000D01*
X119580000Y-70290000D02*
X97420000Y-70290000D01*
X119581000Y-70250000D02*
X97419000Y-70250000D01*
X119620000Y-70250000D02*
G75*
G03X119620000Y-70250000I-11120000J0D01*
G01*
D10*
X84261904Y-82378571D02*
X83928571Y-82378571D01*
X83928571Y-82902380D02*
X83928571Y-81902380D01*
X84404761Y-81902380D01*
X85261904Y-82902380D02*
X84785714Y-82902380D01*
X84785714Y-81902380D01*
X86119047Y-82902380D02*
X85547619Y-82902380D01*
X85833333Y-82902380D02*
X85833333Y-81902380D01*
X85738095Y-82045238D01*
X85642857Y-82140476D01*
X85547619Y-82188095D01*
X81395219Y-79465380D02*
X81395219Y-78465380D01*
X81871409Y-79465380D02*
X81871409Y-78465380D01*
X82442838Y-79465380D01*
X82442838Y-78465380D01*
X82919028Y-79465380D02*
X82919028Y-78465380D01*
X83157123Y-78465380D01*
X83299980Y-78513000D01*
X83395219Y-78608238D01*
X83442838Y-78703476D01*
X83490457Y-78893952D01*
X83490457Y-79036809D01*
X83442838Y-79227285D01*
X83395219Y-79322523D01*
X83299980Y-79417761D01*
X83157123Y-79465380D01*
X82919028Y-79465380D01*
X83919028Y-78465380D02*
X83919028Y-79274904D01*
X83966647Y-79370142D01*
X84014266Y-79417761D01*
X84109504Y-79465380D01*
X84299980Y-79465380D01*
X84395219Y-79417761D01*
X84442838Y-79370142D01*
X84490457Y-79274904D01*
X84490457Y-78465380D01*
X85538076Y-79370142D02*
X85490457Y-79417761D01*
X85347600Y-79465380D01*
X85252361Y-79465380D01*
X85109504Y-79417761D01*
X85014266Y-79322523D01*
X84966647Y-79227285D01*
X84919028Y-79036809D01*
X84919028Y-78893952D01*
X84966647Y-78703476D01*
X85014266Y-78608238D01*
X85109504Y-78513000D01*
X85252361Y-78465380D01*
X85347600Y-78465380D01*
X85490457Y-78513000D01*
X85538076Y-78560619D01*
X85823790Y-78465380D02*
X86395219Y-78465380D01*
X86109504Y-79465380D02*
X86109504Y-78465380D01*
X86919028Y-78465380D02*
X87109504Y-78465380D01*
X87204742Y-78513000D01*
X87299980Y-78608238D01*
X87347600Y-78798714D01*
X87347600Y-79132047D01*
X87299980Y-79322523D01*
X87204742Y-79417761D01*
X87109504Y-79465380D01*
X86919028Y-79465380D01*
X86823790Y-79417761D01*
X86728552Y-79322523D01*
X86680933Y-79132047D01*
X86680933Y-78798714D01*
X86728552Y-78608238D01*
X86823790Y-78513000D01*
X86919028Y-78465380D01*
X88347600Y-79465380D02*
X88014266Y-78989190D01*
X87776171Y-79465380D02*
X87776171Y-78465380D01*
X88157123Y-78465380D01*
X88252361Y-78513000D01*
X88299980Y-78560619D01*
X88347600Y-78655857D01*
X88347600Y-78798714D01*
X88299980Y-78893952D01*
X88252361Y-78941571D01*
X88157123Y-78989190D01*
X87776171Y-78989190D01*
X81395219Y-61863180D02*
X81395219Y-60863180D01*
X81871409Y-61863180D02*
X81871409Y-60863180D01*
X82442838Y-61863180D01*
X82442838Y-60863180D01*
X82919028Y-61863180D02*
X82919028Y-60863180D01*
X83157123Y-60863180D01*
X83299980Y-60910800D01*
X83395219Y-61006038D01*
X83442838Y-61101276D01*
X83490457Y-61291752D01*
X83490457Y-61434609D01*
X83442838Y-61625085D01*
X83395219Y-61720323D01*
X83299980Y-61815561D01*
X83157123Y-61863180D01*
X82919028Y-61863180D01*
X83919028Y-60863180D02*
X83919028Y-61672704D01*
X83966647Y-61767942D01*
X84014266Y-61815561D01*
X84109504Y-61863180D01*
X84299980Y-61863180D01*
X84395219Y-61815561D01*
X84442838Y-61767942D01*
X84490457Y-61672704D01*
X84490457Y-60863180D01*
X85538076Y-61767942D02*
X85490457Y-61815561D01*
X85347600Y-61863180D01*
X85252361Y-61863180D01*
X85109504Y-61815561D01*
X85014266Y-61720323D01*
X84966647Y-61625085D01*
X84919028Y-61434609D01*
X84919028Y-61291752D01*
X84966647Y-61101276D01*
X85014266Y-61006038D01*
X85109504Y-60910800D01*
X85252361Y-60863180D01*
X85347600Y-60863180D01*
X85490457Y-60910800D01*
X85538076Y-60958419D01*
X85823790Y-60863180D02*
X86395219Y-60863180D01*
X86109504Y-61863180D02*
X86109504Y-60863180D01*
X86919028Y-60863180D02*
X87109504Y-60863180D01*
X87204742Y-60910800D01*
X87299980Y-61006038D01*
X87347600Y-61196514D01*
X87347600Y-61529847D01*
X87299980Y-61720323D01*
X87204742Y-61815561D01*
X87109504Y-61863180D01*
X86919028Y-61863180D01*
X86823790Y-61815561D01*
X86728552Y-61720323D01*
X86680933Y-61529847D01*
X86680933Y-61196514D01*
X86728552Y-61006038D01*
X86823790Y-60910800D01*
X86919028Y-60863180D01*
X88347600Y-61863180D02*
X88014266Y-61386990D01*
X87776171Y-61863180D02*
X87776171Y-60863180D01*
X88157123Y-60863180D01*
X88252361Y-60910800D01*
X88299980Y-60958419D01*
X88347600Y-61053657D01*
X88347600Y-61196514D01*
X88299980Y-61291752D01*
X88252361Y-61339371D01*
X88157123Y-61386990D01*
X87776171Y-61386990D01*
X119952380Y-70888333D02*
X120666666Y-70888333D01*
X120809523Y-70935952D01*
X120904761Y-71031190D01*
X120952380Y-71174047D01*
X120952380Y-71269285D01*
X120047619Y-70459761D02*
X120000000Y-70412142D01*
X119952380Y-70316904D01*
X119952380Y-70078809D01*
X120000000Y-69983571D01*
X120047619Y-69935952D01*
X120142857Y-69888333D01*
X120238095Y-69888333D01*
X120380952Y-69935952D01*
X120952380Y-70507380D01*
X120952380Y-69888333D01*
X72052380Y-70778333D02*
X72766666Y-70778333D01*
X72909523Y-70825952D01*
X73004761Y-70921190D01*
X73052380Y-71064047D01*
X73052380Y-71159285D01*
X73052380Y-69778333D02*
X73052380Y-70349761D01*
X73052380Y-70064047D02*
X72052380Y-70064047D01*
X72195238Y-70159285D01*
X72290476Y-70254523D01*
X72338095Y-70349761D01*
X121107142Y-70416666D02*
X121154761Y-70464285D01*
X121202380Y-70607142D01*
X121202380Y-70702380D01*
X121154761Y-70845238D01*
X121059523Y-70940476D01*
X120964285Y-70988095D01*
X120773809Y-71035714D01*
X120630952Y-71035714D01*
X120440476Y-70988095D01*
X120345238Y-70940476D01*
X120250000Y-70845238D01*
X120202380Y-70702380D01*
X120202380Y-70607142D01*
X120250000Y-70464285D01*
X120297619Y-70416666D01*
X121202380Y-69464285D02*
X121202380Y-70035714D01*
X121202380Y-69750000D02*
X120202380Y-69750000D01*
X120345238Y-69845238D01*
X120440476Y-69940476D01*
X120488095Y-70035714D01*
M02*
