G04 #@! TF.GenerationSoftware,KiCad,Pcbnew,(5.1.4)-1*
G04 #@! TF.CreationDate,2020-02-14T11:12:35-05:00*
G04 #@! TF.ProjectId,PowerFilter,506f7765-7246-4696-9c74-65722e6b6963,rev?*
G04 #@! TF.SameCoordinates,Original*
G04 #@! TF.FileFunction,Soldermask,Top*
G04 #@! TF.FilePolarity,Negative*
%FSLAX46Y46*%
G04 Gerber Fmt 4.6, Leading zero omitted, Abs format (unit mm)*
G04 Created by KiCad (PCBNEW (5.1.4)-1) date 2020-02-14 11:12:35*
%MOMM*%
%LPD*%
G04 APERTURE LIST*
%ADD10C,0.100000*%
G04 APERTURE END LIST*
D10*
G36*
X61819085Y-80873975D02*
G01*
X62174143Y-81021045D01*
X62174145Y-81021046D01*
X62493690Y-81234559D01*
X62765441Y-81506310D01*
X62978954Y-81825855D01*
X62978955Y-81825857D01*
X63126025Y-82180915D01*
X63201000Y-82557842D01*
X63201000Y-82942158D01*
X63126025Y-83319085D01*
X62978955Y-83674143D01*
X62978954Y-83674145D01*
X62765441Y-83993690D01*
X62493690Y-84265441D01*
X62174145Y-84478954D01*
X62174144Y-84478955D01*
X62174143Y-84478955D01*
X61819085Y-84626025D01*
X61442158Y-84701000D01*
X61057842Y-84701000D01*
X60680915Y-84626025D01*
X60325857Y-84478955D01*
X60325856Y-84478955D01*
X60325855Y-84478954D01*
X60006310Y-84265441D01*
X59734559Y-83993690D01*
X59521046Y-83674145D01*
X59521045Y-83674143D01*
X59373975Y-83319085D01*
X59299000Y-82942158D01*
X59299000Y-82557842D01*
X59373975Y-82180915D01*
X59521045Y-81825857D01*
X59521046Y-81825855D01*
X59734559Y-81506310D01*
X60006310Y-81234559D01*
X60325855Y-81021046D01*
X60325857Y-81021045D01*
X60680915Y-80873975D01*
X61057842Y-80799000D01*
X61442158Y-80799000D01*
X61819085Y-80873975D01*
X61819085Y-80873975D01*
G37*
G36*
X132069085Y-80623975D02*
G01*
X132424143Y-80771045D01*
X132424145Y-80771046D01*
X132743690Y-80984559D01*
X133015441Y-81256310D01*
X133182486Y-81506311D01*
X133228955Y-81575857D01*
X133376025Y-81930915D01*
X133451000Y-82307842D01*
X133451000Y-82692158D01*
X133376025Y-83069085D01*
X133272471Y-83319085D01*
X133228954Y-83424145D01*
X133015441Y-83743690D01*
X132743690Y-84015441D01*
X132424145Y-84228954D01*
X132424144Y-84228955D01*
X132424143Y-84228955D01*
X132069085Y-84376025D01*
X131692158Y-84451000D01*
X131307842Y-84451000D01*
X130930915Y-84376025D01*
X130575857Y-84228955D01*
X130575856Y-84228955D01*
X130575855Y-84228954D01*
X130256310Y-84015441D01*
X129984559Y-83743690D01*
X129771046Y-83424145D01*
X129727529Y-83319085D01*
X129623975Y-83069085D01*
X129549000Y-82692158D01*
X129549000Y-82307842D01*
X129623975Y-81930915D01*
X129771045Y-81575857D01*
X129817514Y-81506311D01*
X129984559Y-81256310D01*
X130256310Y-80984559D01*
X130575855Y-80771046D01*
X130575857Y-80771045D01*
X130930915Y-80623975D01*
X131307842Y-80549000D01*
X131692158Y-80549000D01*
X132069085Y-80623975D01*
X132069085Y-80623975D01*
G37*
G36*
X92219059Y-78527860D02*
G01*
X92355732Y-78584472D01*
X92478735Y-78666660D01*
X92583340Y-78771265D01*
X92665528Y-78894268D01*
X92722140Y-79030941D01*
X92751000Y-79176033D01*
X92751000Y-79323967D01*
X92722140Y-79469059D01*
X92665528Y-79605732D01*
X92583340Y-79728735D01*
X92478735Y-79833340D01*
X92355732Y-79915528D01*
X92355731Y-79915529D01*
X92355730Y-79915529D01*
X92219059Y-79972140D01*
X92073968Y-80001000D01*
X91926032Y-80001000D01*
X91780941Y-79972140D01*
X91644270Y-79915529D01*
X91644269Y-79915529D01*
X91644268Y-79915528D01*
X91521265Y-79833340D01*
X91416660Y-79728735D01*
X91334472Y-79605732D01*
X91277860Y-79469059D01*
X91249000Y-79323967D01*
X91249000Y-79176033D01*
X91277860Y-79030941D01*
X91334472Y-78894268D01*
X91416660Y-78771265D01*
X91521265Y-78666660D01*
X91644268Y-78584472D01*
X91780941Y-78527860D01*
X91926032Y-78499000D01*
X92073968Y-78499000D01*
X92219059Y-78527860D01*
X92219059Y-78527860D01*
G37*
G36*
X78219059Y-78527860D02*
G01*
X78355732Y-78584472D01*
X78478735Y-78666660D01*
X78583340Y-78771265D01*
X78665528Y-78894268D01*
X78722140Y-79030941D01*
X78751000Y-79176033D01*
X78751000Y-79323967D01*
X78722140Y-79469059D01*
X78665528Y-79605732D01*
X78583340Y-79728735D01*
X78478735Y-79833340D01*
X78355732Y-79915528D01*
X78355731Y-79915529D01*
X78355730Y-79915529D01*
X78219059Y-79972140D01*
X78073968Y-80001000D01*
X77926032Y-80001000D01*
X77780941Y-79972140D01*
X77644270Y-79915529D01*
X77644269Y-79915529D01*
X77644268Y-79915528D01*
X77521265Y-79833340D01*
X77416660Y-79728735D01*
X77334472Y-79605732D01*
X77277860Y-79469059D01*
X77249000Y-79323967D01*
X77249000Y-79176033D01*
X77277860Y-79030941D01*
X77334472Y-78894268D01*
X77416660Y-78771265D01*
X77521265Y-78666660D01*
X77644268Y-78584472D01*
X77780941Y-78527860D01*
X77926032Y-78499000D01*
X78073968Y-78499000D01*
X78219059Y-78527860D01*
X78219059Y-78527860D01*
G37*
G36*
X132200416Y-74656357D02*
G01*
X132331579Y-74682447D01*
X132632042Y-74806903D01*
X132902451Y-74987585D01*
X133132415Y-75217549D01*
X133313097Y-75487958D01*
X133437553Y-75788421D01*
X133449455Y-75848255D01*
X133501000Y-76107389D01*
X133501000Y-76432611D01*
X133459434Y-76641578D01*
X133437553Y-76751579D01*
X133313097Y-77052042D01*
X133132415Y-77322451D01*
X132902451Y-77552415D01*
X132632042Y-77733097D01*
X132331579Y-77857553D01*
X132225256Y-77878702D01*
X132012611Y-77921000D01*
X131687389Y-77921000D01*
X131474744Y-77878702D01*
X131368421Y-77857553D01*
X131067958Y-77733097D01*
X130797549Y-77552415D01*
X130567585Y-77322451D01*
X130386903Y-77052042D01*
X130262447Y-76751579D01*
X130240566Y-76641578D01*
X130199000Y-76432611D01*
X130199000Y-76107389D01*
X130250545Y-75848255D01*
X130262447Y-75788421D01*
X130386903Y-75487958D01*
X130567585Y-75217549D01*
X130797549Y-74987585D01*
X131067958Y-74806903D01*
X131368421Y-74682447D01*
X131499584Y-74656357D01*
X131687389Y-74619000D01*
X132012611Y-74619000D01*
X132200416Y-74656357D01*
X132200416Y-74656357D01*
G37*
G36*
X61625256Y-74551298D02*
G01*
X61731579Y-74572447D01*
X62032042Y-74696903D01*
X62302451Y-74877585D01*
X62532415Y-75107549D01*
X62713097Y-75377958D01*
X62837553Y-75678421D01*
X62901000Y-75997391D01*
X62901000Y-76322609D01*
X62837553Y-76641579D01*
X62713097Y-76942042D01*
X62532415Y-77212451D01*
X62302451Y-77442415D01*
X62032042Y-77623097D01*
X61731579Y-77747553D01*
X61625256Y-77768702D01*
X61412611Y-77811000D01*
X61087389Y-77811000D01*
X60874744Y-77768702D01*
X60768421Y-77747553D01*
X60467958Y-77623097D01*
X60197549Y-77442415D01*
X59967585Y-77212451D01*
X59786903Y-76942042D01*
X59662447Y-76641579D01*
X59599000Y-76322609D01*
X59599000Y-75997391D01*
X59662447Y-75678421D01*
X59786903Y-75377958D01*
X59967585Y-75107549D01*
X60197549Y-74877585D01*
X60467958Y-74696903D01*
X60768421Y-74572447D01*
X60874744Y-74551298D01*
X61087389Y-74509000D01*
X61412611Y-74509000D01*
X61625256Y-74551298D01*
X61625256Y-74551298D01*
G37*
G36*
X109098254Y-73277818D02*
G01*
X109471511Y-73432426D01*
X109471513Y-73432427D01*
X109807436Y-73656884D01*
X110093116Y-73942564D01*
X110218763Y-74130607D01*
X110317574Y-74278489D01*
X110472182Y-74651746D01*
X110551000Y-75047993D01*
X110551000Y-75452007D01*
X110472182Y-75848254D01*
X110410408Y-75997389D01*
X110317573Y-76221513D01*
X110093116Y-76557436D01*
X109807436Y-76843116D01*
X109471513Y-77067573D01*
X109471512Y-77067574D01*
X109471511Y-77067574D01*
X109098254Y-77222182D01*
X108702007Y-77301000D01*
X108297993Y-77301000D01*
X107901746Y-77222182D01*
X107528489Y-77067574D01*
X107528488Y-77067574D01*
X107528487Y-77067573D01*
X107192564Y-76843116D01*
X106906884Y-76557436D01*
X106682427Y-76221513D01*
X106589592Y-75997389D01*
X106527818Y-75848254D01*
X106449000Y-75452007D01*
X106449000Y-75047993D01*
X106527818Y-74651746D01*
X106682426Y-74278489D01*
X106781238Y-74130607D01*
X106906884Y-73942564D01*
X107192564Y-73656884D01*
X107528487Y-73432427D01*
X107528489Y-73432426D01*
X107901746Y-73277818D01*
X108297993Y-73199000D01*
X108702007Y-73199000D01*
X109098254Y-73277818D01*
X109098254Y-73277818D01*
G37*
G36*
X126301000Y-75801000D02*
G01*
X124699000Y-75801000D01*
X124699000Y-74199000D01*
X126301000Y-74199000D01*
X126301000Y-75801000D01*
X126301000Y-75801000D01*
G37*
G36*
X70373642Y-74119781D02*
G01*
X70519414Y-74180162D01*
X70519416Y-74180163D01*
X70650608Y-74267822D01*
X70762178Y-74379392D01*
X70849837Y-74510584D01*
X70849838Y-74510586D01*
X70910219Y-74656358D01*
X70941000Y-74811107D01*
X70941000Y-74968893D01*
X70910219Y-75123642D01*
X70871321Y-75217549D01*
X70849837Y-75269416D01*
X70762178Y-75400608D01*
X70650608Y-75512178D01*
X70519416Y-75599837D01*
X70519415Y-75599838D01*
X70519414Y-75599838D01*
X70373642Y-75660219D01*
X70218893Y-75691000D01*
X70061107Y-75691000D01*
X69906358Y-75660219D01*
X69760586Y-75599838D01*
X69760585Y-75599838D01*
X69760584Y-75599837D01*
X69629392Y-75512178D01*
X69517822Y-75400608D01*
X69430163Y-75269416D01*
X69408679Y-75217549D01*
X69369781Y-75123642D01*
X69339000Y-74968893D01*
X69339000Y-74811107D01*
X69369781Y-74656358D01*
X69430162Y-74510586D01*
X69430163Y-74510584D01*
X69517822Y-74379392D01*
X69629392Y-74267822D01*
X69760584Y-74180163D01*
X69760586Y-74180162D01*
X69906358Y-74119781D01*
X70061107Y-74089000D01*
X70218893Y-74089000D01*
X70373642Y-74119781D01*
X70373642Y-74119781D01*
G37*
G36*
X123193642Y-72959781D02*
G01*
X123339414Y-73020162D01*
X123339416Y-73020163D01*
X123470608Y-73107822D01*
X123582178Y-73219392D01*
X123621217Y-73277819D01*
X123669838Y-73350586D01*
X123730219Y-73496358D01*
X123761000Y-73651107D01*
X123761000Y-73808893D01*
X123730219Y-73963642D01*
X123678294Y-74089000D01*
X123669837Y-74109416D01*
X123582178Y-74240608D01*
X123470608Y-74352178D01*
X123339416Y-74439837D01*
X123339415Y-74439838D01*
X123339414Y-74439838D01*
X123193642Y-74500219D01*
X123038893Y-74531000D01*
X122881107Y-74531000D01*
X122726358Y-74500219D01*
X122580586Y-74439838D01*
X122580585Y-74439838D01*
X122580584Y-74439837D01*
X122449392Y-74352178D01*
X122337822Y-74240608D01*
X122250163Y-74109416D01*
X122241706Y-74089000D01*
X122189781Y-73963642D01*
X122159000Y-73808893D01*
X122159000Y-73651107D01*
X122189781Y-73496358D01*
X122250162Y-73350586D01*
X122298783Y-73277819D01*
X122337822Y-73219392D01*
X122449392Y-73107822D01*
X122580584Y-73020163D01*
X122580586Y-73020162D01*
X122726358Y-72959781D01*
X122881107Y-72929000D01*
X123038893Y-72929000D01*
X123193642Y-72959781D01*
X123193642Y-72959781D01*
G37*
G36*
X67833642Y-72849781D02*
G01*
X67979414Y-72910162D01*
X67979416Y-72910163D01*
X68110608Y-72997822D01*
X68222178Y-73109392D01*
X68302911Y-73230219D01*
X68309838Y-73240586D01*
X68370219Y-73386358D01*
X68401000Y-73541107D01*
X68401000Y-73698893D01*
X68370219Y-73853642D01*
X68333386Y-73942564D01*
X68309837Y-73999416D01*
X68222178Y-74130608D01*
X68110608Y-74242178D01*
X67979416Y-74329837D01*
X67979415Y-74329838D01*
X67979414Y-74329838D01*
X67833642Y-74390219D01*
X67678893Y-74421000D01*
X67521107Y-74421000D01*
X67366358Y-74390219D01*
X67220586Y-74329838D01*
X67220585Y-74329838D01*
X67220584Y-74329837D01*
X67089392Y-74242178D01*
X66977822Y-74130608D01*
X66890163Y-73999416D01*
X66866614Y-73942564D01*
X66829781Y-73853642D01*
X66799000Y-73698893D01*
X66799000Y-73541107D01*
X66829781Y-73386358D01*
X66890162Y-73240586D01*
X66897089Y-73230219D01*
X66977822Y-73109392D01*
X67089392Y-72997822D01*
X67220584Y-72910163D01*
X67220586Y-72910162D01*
X67366358Y-72849781D01*
X67521107Y-72819000D01*
X67678893Y-72819000D01*
X67833642Y-72849781D01*
X67833642Y-72849781D01*
G37*
G36*
X125733642Y-71689781D02*
G01*
X125879414Y-71750162D01*
X125879416Y-71750163D01*
X126010608Y-71837822D01*
X126122178Y-71949392D01*
X126136339Y-71970586D01*
X126209838Y-72080586D01*
X126270219Y-72226358D01*
X126301000Y-72381107D01*
X126301000Y-72538893D01*
X126270219Y-72693642D01*
X126218294Y-72819000D01*
X126209837Y-72839416D01*
X126122178Y-72970608D01*
X126010608Y-73082178D01*
X125879416Y-73169837D01*
X125879415Y-73169838D01*
X125879414Y-73169838D01*
X125733642Y-73230219D01*
X125578893Y-73261000D01*
X125421107Y-73261000D01*
X125266358Y-73230219D01*
X125120586Y-73169838D01*
X125120585Y-73169838D01*
X125120584Y-73169837D01*
X124989392Y-73082178D01*
X124877822Y-72970608D01*
X124790163Y-72839416D01*
X124781706Y-72819000D01*
X124729781Y-72693642D01*
X124699000Y-72538893D01*
X124699000Y-72381107D01*
X124729781Y-72226358D01*
X124790162Y-72080586D01*
X124863661Y-71970586D01*
X124877822Y-71949392D01*
X124989392Y-71837822D01*
X125120584Y-71750163D01*
X125120586Y-71750162D01*
X125266358Y-71689781D01*
X125421107Y-71659000D01*
X125578893Y-71659000D01*
X125733642Y-71689781D01*
X125733642Y-71689781D01*
G37*
G36*
X70373642Y-71579781D02*
G01*
X70519414Y-71640162D01*
X70519416Y-71640163D01*
X70650608Y-71727822D01*
X70762178Y-71839392D01*
X70842911Y-71960219D01*
X70849838Y-71970586D01*
X70910219Y-72116358D01*
X70941000Y-72271107D01*
X70941000Y-72428893D01*
X70910219Y-72583642D01*
X70864655Y-72693642D01*
X70849837Y-72729416D01*
X70762178Y-72860608D01*
X70650608Y-72972178D01*
X70519416Y-73059837D01*
X70519415Y-73059838D01*
X70519414Y-73059838D01*
X70373642Y-73120219D01*
X70218893Y-73151000D01*
X70061107Y-73151000D01*
X69906358Y-73120219D01*
X69760586Y-73059838D01*
X69760585Y-73059838D01*
X69760584Y-73059837D01*
X69629392Y-72972178D01*
X69517822Y-72860608D01*
X69430163Y-72729416D01*
X69415345Y-72693642D01*
X69369781Y-72583642D01*
X69339000Y-72428893D01*
X69339000Y-72271107D01*
X69369781Y-72116358D01*
X69430162Y-71970586D01*
X69437089Y-71960219D01*
X69517822Y-71839392D01*
X69629392Y-71727822D01*
X69760584Y-71640163D01*
X69760586Y-71640162D01*
X69906358Y-71579781D01*
X70061107Y-71549000D01*
X70218893Y-71549000D01*
X70373642Y-71579781D01*
X70373642Y-71579781D01*
G37*
G36*
X123193642Y-70419781D02*
G01*
X123339414Y-70480162D01*
X123339416Y-70480163D01*
X123470608Y-70567822D01*
X123582178Y-70679392D01*
X123596339Y-70700586D01*
X123669838Y-70810586D01*
X123730219Y-70956358D01*
X123761000Y-71111107D01*
X123761000Y-71268893D01*
X123730219Y-71423642D01*
X123678294Y-71549000D01*
X123669837Y-71569416D01*
X123582178Y-71700608D01*
X123470608Y-71812178D01*
X123339416Y-71899837D01*
X123339415Y-71899838D01*
X123339414Y-71899838D01*
X123193642Y-71960219D01*
X123038893Y-71991000D01*
X122881107Y-71991000D01*
X122726358Y-71960219D01*
X122580586Y-71899838D01*
X122580585Y-71899838D01*
X122580584Y-71899837D01*
X122449392Y-71812178D01*
X122337822Y-71700608D01*
X122250163Y-71569416D01*
X122241706Y-71549000D01*
X122189781Y-71423642D01*
X122159000Y-71268893D01*
X122159000Y-71111107D01*
X122189781Y-70956358D01*
X122250162Y-70810586D01*
X122323661Y-70700586D01*
X122337822Y-70679392D01*
X122449392Y-70567822D01*
X122580584Y-70480163D01*
X122580586Y-70480162D01*
X122726358Y-70419781D01*
X122881107Y-70389000D01*
X123038893Y-70389000D01*
X123193642Y-70419781D01*
X123193642Y-70419781D01*
G37*
G36*
X67833642Y-70309781D02*
G01*
X67979414Y-70370162D01*
X67979416Y-70370163D01*
X68110608Y-70457822D01*
X68222178Y-70569392D01*
X68302911Y-70690219D01*
X68309838Y-70700586D01*
X68370219Y-70846358D01*
X68401000Y-71001107D01*
X68401000Y-71158893D01*
X68370219Y-71313642D01*
X68324655Y-71423642D01*
X68309837Y-71459416D01*
X68222178Y-71590608D01*
X68110608Y-71702178D01*
X67979416Y-71789837D01*
X67979415Y-71789838D01*
X67979414Y-71789838D01*
X67833642Y-71850219D01*
X67678893Y-71881000D01*
X67521107Y-71881000D01*
X67366358Y-71850219D01*
X67220586Y-71789838D01*
X67220585Y-71789838D01*
X67220584Y-71789837D01*
X67089392Y-71702178D01*
X66977822Y-71590608D01*
X66890163Y-71459416D01*
X66875345Y-71423642D01*
X66829781Y-71313642D01*
X66799000Y-71158893D01*
X66799000Y-71001107D01*
X66829781Y-70846358D01*
X66890162Y-70700586D01*
X66897089Y-70690219D01*
X66977822Y-70569392D01*
X67089392Y-70457822D01*
X67220584Y-70370163D01*
X67220586Y-70370162D01*
X67366358Y-70309781D01*
X67521107Y-70279000D01*
X67678893Y-70279000D01*
X67833642Y-70309781D01*
X67833642Y-70309781D01*
G37*
G36*
X125733642Y-69149781D02*
G01*
X125879414Y-69210162D01*
X125879416Y-69210163D01*
X126010608Y-69297822D01*
X126122178Y-69409392D01*
X126136339Y-69430586D01*
X126209838Y-69540586D01*
X126270219Y-69686358D01*
X126301000Y-69841107D01*
X126301000Y-69998893D01*
X126270219Y-70153642D01*
X126218294Y-70279000D01*
X126209837Y-70299416D01*
X126122178Y-70430608D01*
X126010608Y-70542178D01*
X125879416Y-70629837D01*
X125879415Y-70629838D01*
X125879414Y-70629838D01*
X125733642Y-70690219D01*
X125578893Y-70721000D01*
X125421107Y-70721000D01*
X125266358Y-70690219D01*
X125120586Y-70629838D01*
X125120585Y-70629838D01*
X125120584Y-70629837D01*
X124989392Y-70542178D01*
X124877822Y-70430608D01*
X124790163Y-70299416D01*
X124781706Y-70279000D01*
X124729781Y-70153642D01*
X124699000Y-69998893D01*
X124699000Y-69841107D01*
X124729781Y-69686358D01*
X124790162Y-69540586D01*
X124863661Y-69430586D01*
X124877822Y-69409392D01*
X124989392Y-69297822D01*
X125120584Y-69210163D01*
X125120586Y-69210162D01*
X125266358Y-69149781D01*
X125421107Y-69119000D01*
X125578893Y-69119000D01*
X125733642Y-69149781D01*
X125733642Y-69149781D01*
G37*
G36*
X70373642Y-69039781D02*
G01*
X70519414Y-69100162D01*
X70519416Y-69100163D01*
X70650608Y-69187822D01*
X70762178Y-69299392D01*
X70842911Y-69420219D01*
X70849838Y-69430586D01*
X70910219Y-69576358D01*
X70941000Y-69731107D01*
X70941000Y-69888893D01*
X70910219Y-70043642D01*
X70864655Y-70153642D01*
X70849837Y-70189416D01*
X70762178Y-70320608D01*
X70650608Y-70432178D01*
X70519416Y-70519837D01*
X70519415Y-70519838D01*
X70519414Y-70519838D01*
X70373642Y-70580219D01*
X70218893Y-70611000D01*
X70061107Y-70611000D01*
X69906358Y-70580219D01*
X69760586Y-70519838D01*
X69760585Y-70519838D01*
X69760584Y-70519837D01*
X69629392Y-70432178D01*
X69517822Y-70320608D01*
X69430163Y-70189416D01*
X69415345Y-70153642D01*
X69369781Y-70043642D01*
X69339000Y-69888893D01*
X69339000Y-69731107D01*
X69369781Y-69576358D01*
X69430162Y-69430586D01*
X69437089Y-69420219D01*
X69517822Y-69299392D01*
X69629392Y-69187822D01*
X69760584Y-69100163D01*
X69760586Y-69100162D01*
X69906358Y-69039781D01*
X70061107Y-69009000D01*
X70218893Y-69009000D01*
X70373642Y-69039781D01*
X70373642Y-69039781D01*
G37*
G36*
X123193642Y-67879781D02*
G01*
X123339414Y-67940162D01*
X123339416Y-67940163D01*
X123470608Y-68027822D01*
X123582178Y-68139392D01*
X123596339Y-68160586D01*
X123669838Y-68270586D01*
X123730219Y-68416358D01*
X123761000Y-68571107D01*
X123761000Y-68728893D01*
X123730219Y-68883642D01*
X123678294Y-69009000D01*
X123669837Y-69029416D01*
X123582178Y-69160608D01*
X123470608Y-69272178D01*
X123339416Y-69359837D01*
X123339415Y-69359838D01*
X123339414Y-69359838D01*
X123193642Y-69420219D01*
X123038893Y-69451000D01*
X122881107Y-69451000D01*
X122726358Y-69420219D01*
X122580586Y-69359838D01*
X122580585Y-69359838D01*
X122580584Y-69359837D01*
X122449392Y-69272178D01*
X122337822Y-69160608D01*
X122250163Y-69029416D01*
X122241706Y-69009000D01*
X122189781Y-68883642D01*
X122159000Y-68728893D01*
X122159000Y-68571107D01*
X122189781Y-68416358D01*
X122250162Y-68270586D01*
X122323661Y-68160586D01*
X122337822Y-68139392D01*
X122449392Y-68027822D01*
X122580584Y-67940163D01*
X122580586Y-67940162D01*
X122726358Y-67879781D01*
X122881107Y-67849000D01*
X123038893Y-67849000D01*
X123193642Y-67879781D01*
X123193642Y-67879781D01*
G37*
G36*
X67833642Y-67769781D02*
G01*
X67979414Y-67830162D01*
X67979416Y-67830163D01*
X68110608Y-67917822D01*
X68222178Y-68029392D01*
X68302911Y-68150219D01*
X68309838Y-68160586D01*
X68370219Y-68306358D01*
X68401000Y-68461107D01*
X68401000Y-68618893D01*
X68370219Y-68773642D01*
X68324655Y-68883642D01*
X68309837Y-68919416D01*
X68222178Y-69050608D01*
X68110608Y-69162178D01*
X67979416Y-69249837D01*
X67979415Y-69249838D01*
X67979414Y-69249838D01*
X67833642Y-69310219D01*
X67678893Y-69341000D01*
X67521107Y-69341000D01*
X67366358Y-69310219D01*
X67220586Y-69249838D01*
X67220585Y-69249838D01*
X67220584Y-69249837D01*
X67089392Y-69162178D01*
X66977822Y-69050608D01*
X66890163Y-68919416D01*
X66875345Y-68883642D01*
X66829781Y-68773642D01*
X66799000Y-68618893D01*
X66799000Y-68461107D01*
X66829781Y-68306358D01*
X66890162Y-68160586D01*
X66897089Y-68150219D01*
X66977822Y-68029392D01*
X67089392Y-67917822D01*
X67220584Y-67830163D01*
X67220586Y-67830162D01*
X67366358Y-67769781D01*
X67521107Y-67739000D01*
X67678893Y-67739000D01*
X67833642Y-67769781D01*
X67833642Y-67769781D01*
G37*
G36*
X125733642Y-66609781D02*
G01*
X125879414Y-66670162D01*
X125879416Y-66670163D01*
X126010608Y-66757822D01*
X126122178Y-66869392D01*
X126136339Y-66890586D01*
X126209838Y-67000586D01*
X126270219Y-67146358D01*
X126301000Y-67301107D01*
X126301000Y-67458893D01*
X126270219Y-67613642D01*
X126218294Y-67739000D01*
X126209837Y-67759416D01*
X126122178Y-67890608D01*
X126010608Y-68002178D01*
X125879416Y-68089837D01*
X125879415Y-68089838D01*
X125879414Y-68089838D01*
X125733642Y-68150219D01*
X125578893Y-68181000D01*
X125421107Y-68181000D01*
X125266358Y-68150219D01*
X125120586Y-68089838D01*
X125120585Y-68089838D01*
X125120584Y-68089837D01*
X124989392Y-68002178D01*
X124877822Y-67890608D01*
X124790163Y-67759416D01*
X124781706Y-67739000D01*
X124729781Y-67613642D01*
X124699000Y-67458893D01*
X124699000Y-67301107D01*
X124729781Y-67146358D01*
X124790162Y-67000586D01*
X124863661Y-66890586D01*
X124877822Y-66869392D01*
X124989392Y-66757822D01*
X125120584Y-66670163D01*
X125120586Y-66670162D01*
X125266358Y-66609781D01*
X125421107Y-66579000D01*
X125578893Y-66579000D01*
X125733642Y-66609781D01*
X125733642Y-66609781D01*
G37*
G36*
X70373642Y-66499781D02*
G01*
X70519414Y-66560162D01*
X70519416Y-66560163D01*
X70650608Y-66647822D01*
X70762178Y-66759392D01*
X70842911Y-66880219D01*
X70849838Y-66890586D01*
X70910219Y-67036358D01*
X70941000Y-67191107D01*
X70941000Y-67348893D01*
X70910219Y-67503642D01*
X70864655Y-67613642D01*
X70849837Y-67649416D01*
X70762178Y-67780608D01*
X70650608Y-67892178D01*
X70519416Y-67979837D01*
X70519415Y-67979838D01*
X70519414Y-67979838D01*
X70373642Y-68040219D01*
X70218893Y-68071000D01*
X70061107Y-68071000D01*
X69906358Y-68040219D01*
X69760586Y-67979838D01*
X69760585Y-67979838D01*
X69760584Y-67979837D01*
X69629392Y-67892178D01*
X69517822Y-67780608D01*
X69430163Y-67649416D01*
X69415345Y-67613642D01*
X69369781Y-67503642D01*
X69339000Y-67348893D01*
X69339000Y-67191107D01*
X69369781Y-67036358D01*
X69430162Y-66890586D01*
X69437089Y-66880219D01*
X69517822Y-66759392D01*
X69629392Y-66647822D01*
X69760584Y-66560163D01*
X69760586Y-66560162D01*
X69906358Y-66499781D01*
X70061107Y-66469000D01*
X70218893Y-66469000D01*
X70373642Y-66499781D01*
X70373642Y-66499781D01*
G37*
G36*
X110551000Y-67301000D02*
G01*
X106449000Y-67301000D01*
X106449000Y-63199000D01*
X110551000Y-63199000D01*
X110551000Y-67301000D01*
X110551000Y-67301000D01*
G37*
G36*
X123193642Y-65339781D02*
G01*
X123339414Y-65400162D01*
X123339416Y-65400163D01*
X123470608Y-65487822D01*
X123582178Y-65599392D01*
X123597312Y-65622042D01*
X123669838Y-65730586D01*
X123730219Y-65876358D01*
X123761000Y-66031107D01*
X123761000Y-66188893D01*
X123730219Y-66343642D01*
X123678294Y-66469000D01*
X123669837Y-66489416D01*
X123582178Y-66620608D01*
X123470608Y-66732178D01*
X123339416Y-66819837D01*
X123339415Y-66819838D01*
X123339414Y-66819838D01*
X123193642Y-66880219D01*
X123038893Y-66911000D01*
X122881107Y-66911000D01*
X122726358Y-66880219D01*
X122580586Y-66819838D01*
X122580585Y-66819838D01*
X122580584Y-66819837D01*
X122449392Y-66732178D01*
X122337822Y-66620608D01*
X122250163Y-66489416D01*
X122241706Y-66469000D01*
X122189781Y-66343642D01*
X122159000Y-66188893D01*
X122159000Y-66031107D01*
X122189781Y-65876358D01*
X122250162Y-65730586D01*
X122322688Y-65622042D01*
X122337822Y-65599392D01*
X122449392Y-65487822D01*
X122580584Y-65400163D01*
X122580586Y-65400162D01*
X122726358Y-65339781D01*
X122881107Y-65309000D01*
X123038893Y-65309000D01*
X123193642Y-65339781D01*
X123193642Y-65339781D01*
G37*
G36*
X68401000Y-66801000D02*
G01*
X66799000Y-66801000D01*
X66799000Y-65199000D01*
X68401000Y-65199000D01*
X68401000Y-66801000D01*
X68401000Y-66801000D01*
G37*
G36*
X132225256Y-63231298D02*
G01*
X132331579Y-63252447D01*
X132632042Y-63376903D01*
X132902451Y-63557585D01*
X133132415Y-63787549D01*
X133313097Y-64057958D01*
X133437553Y-64358421D01*
X133501000Y-64677391D01*
X133501000Y-65002609D01*
X133437553Y-65321579D01*
X133313097Y-65622042D01*
X133132415Y-65892451D01*
X132902451Y-66122415D01*
X132632042Y-66303097D01*
X132331579Y-66427553D01*
X132225256Y-66448702D01*
X132012611Y-66491000D01*
X131687389Y-66491000D01*
X131474744Y-66448702D01*
X131368421Y-66427553D01*
X131067958Y-66303097D01*
X130797549Y-66122415D01*
X130567585Y-65892451D01*
X130386903Y-65622042D01*
X130262447Y-65321579D01*
X130199000Y-65002609D01*
X130199000Y-64677391D01*
X130262447Y-64358421D01*
X130386903Y-64057958D01*
X130567585Y-63787549D01*
X130797549Y-63557585D01*
X131067958Y-63376903D01*
X131368421Y-63252447D01*
X131474744Y-63231298D01*
X131687389Y-63189000D01*
X132012611Y-63189000D01*
X132225256Y-63231298D01*
X132225256Y-63231298D01*
G37*
G36*
X61625256Y-63121298D02*
G01*
X61731579Y-63142447D01*
X62032042Y-63266903D01*
X62302451Y-63447585D01*
X62532415Y-63677549D01*
X62713097Y-63947958D01*
X62837553Y-64248421D01*
X62901000Y-64567391D01*
X62901000Y-64892609D01*
X62837553Y-65211579D01*
X62713097Y-65512042D01*
X62532415Y-65782451D01*
X62302451Y-66012415D01*
X62032042Y-66193097D01*
X61731579Y-66317553D01*
X61625256Y-66338702D01*
X61412611Y-66381000D01*
X61087389Y-66381000D01*
X60874744Y-66338702D01*
X60768421Y-66317553D01*
X60467958Y-66193097D01*
X60197549Y-66012415D01*
X59967585Y-65782451D01*
X59786903Y-65512042D01*
X59662447Y-65211579D01*
X59599000Y-64892609D01*
X59599000Y-64567391D01*
X59662447Y-64248421D01*
X59786903Y-63947958D01*
X59967585Y-63677549D01*
X60197549Y-63447585D01*
X60467958Y-63266903D01*
X60768421Y-63142447D01*
X60874744Y-63121298D01*
X61087389Y-63079000D01*
X61412611Y-63079000D01*
X61625256Y-63121298D01*
X61625256Y-63121298D01*
G37*
G36*
X78219059Y-60527860D02*
G01*
X78355732Y-60584472D01*
X78478735Y-60666660D01*
X78583340Y-60771265D01*
X78665528Y-60894268D01*
X78722140Y-61030941D01*
X78751000Y-61176033D01*
X78751000Y-61323967D01*
X78722140Y-61469059D01*
X78665528Y-61605732D01*
X78583340Y-61728735D01*
X78478735Y-61833340D01*
X78355732Y-61915528D01*
X78355731Y-61915529D01*
X78355730Y-61915529D01*
X78219059Y-61972140D01*
X78073968Y-62001000D01*
X77926032Y-62001000D01*
X77780941Y-61972140D01*
X77644270Y-61915529D01*
X77644269Y-61915529D01*
X77644268Y-61915528D01*
X77521265Y-61833340D01*
X77416660Y-61728735D01*
X77334472Y-61605732D01*
X77277860Y-61469059D01*
X77249000Y-61323967D01*
X77249000Y-61176033D01*
X77277860Y-61030941D01*
X77334472Y-60894268D01*
X77416660Y-60771265D01*
X77521265Y-60666660D01*
X77644268Y-60584472D01*
X77780941Y-60527860D01*
X77926032Y-60499000D01*
X78073968Y-60499000D01*
X78219059Y-60527860D01*
X78219059Y-60527860D01*
G37*
G36*
X92219059Y-60527860D02*
G01*
X92355732Y-60584472D01*
X92478735Y-60666660D01*
X92583340Y-60771265D01*
X92665528Y-60894268D01*
X92722140Y-61030941D01*
X92751000Y-61176033D01*
X92751000Y-61323967D01*
X92722140Y-61469059D01*
X92665528Y-61605732D01*
X92583340Y-61728735D01*
X92478735Y-61833340D01*
X92355732Y-61915528D01*
X92355731Y-61915529D01*
X92355730Y-61915529D01*
X92219059Y-61972140D01*
X92073968Y-62001000D01*
X91926032Y-62001000D01*
X91780941Y-61972140D01*
X91644270Y-61915529D01*
X91644269Y-61915529D01*
X91644268Y-61915528D01*
X91521265Y-61833340D01*
X91416660Y-61728735D01*
X91334472Y-61605732D01*
X91277860Y-61469059D01*
X91249000Y-61323967D01*
X91249000Y-61176033D01*
X91277860Y-61030941D01*
X91334472Y-60894268D01*
X91416660Y-60771265D01*
X91521265Y-60666660D01*
X91644268Y-60584472D01*
X91780941Y-60527860D01*
X91926032Y-60499000D01*
X92073968Y-60499000D01*
X92219059Y-60527860D01*
X92219059Y-60527860D01*
G37*
G36*
X61819085Y-55873975D02*
G01*
X62138572Y-56006311D01*
X62174145Y-56021046D01*
X62493690Y-56234559D01*
X62765441Y-56506310D01*
X62882108Y-56680915D01*
X62978955Y-56825857D01*
X63126025Y-57180915D01*
X63201000Y-57557842D01*
X63201000Y-57942158D01*
X63126025Y-58319085D01*
X63053701Y-58493690D01*
X62978954Y-58674145D01*
X62765441Y-58993690D01*
X62493690Y-59265441D01*
X62174145Y-59478954D01*
X62174144Y-59478955D01*
X62174143Y-59478955D01*
X61819085Y-59626025D01*
X61442158Y-59701000D01*
X61057842Y-59701000D01*
X60680915Y-59626025D01*
X60325857Y-59478955D01*
X60325856Y-59478955D01*
X60325855Y-59478954D01*
X60006310Y-59265441D01*
X59734559Y-58993690D01*
X59521046Y-58674145D01*
X59446299Y-58493690D01*
X59373975Y-58319085D01*
X59299000Y-57942158D01*
X59299000Y-57557842D01*
X59373975Y-57180915D01*
X59521045Y-56825857D01*
X59617892Y-56680915D01*
X59734559Y-56506310D01*
X60006310Y-56234559D01*
X60325855Y-56021046D01*
X60361428Y-56006311D01*
X60680915Y-55873975D01*
X61057842Y-55799000D01*
X61442158Y-55799000D01*
X61819085Y-55873975D01*
X61819085Y-55873975D01*
G37*
G36*
X132819085Y-55373975D02*
G01*
X133174143Y-55521045D01*
X133174145Y-55521046D01*
X133493690Y-55734559D01*
X133765441Y-56006310D01*
X133775287Y-56021046D01*
X133978955Y-56325857D01*
X134126025Y-56680915D01*
X134201000Y-57057842D01*
X134201000Y-57442158D01*
X134126025Y-57819085D01*
X134075046Y-57942158D01*
X133978954Y-58174145D01*
X133765441Y-58493690D01*
X133493690Y-58765441D01*
X133174145Y-58978954D01*
X133174144Y-58978955D01*
X133174143Y-58978955D01*
X132819085Y-59126025D01*
X132442158Y-59201000D01*
X132057842Y-59201000D01*
X131680915Y-59126025D01*
X131325857Y-58978955D01*
X131325856Y-58978955D01*
X131325855Y-58978954D01*
X131006310Y-58765441D01*
X130734559Y-58493690D01*
X130521046Y-58174145D01*
X130424954Y-57942158D01*
X130373975Y-57819085D01*
X130299000Y-57442158D01*
X130299000Y-57057842D01*
X130373975Y-56680915D01*
X130521045Y-56325857D01*
X130724713Y-56021046D01*
X130734559Y-56006310D01*
X131006310Y-55734559D01*
X131325855Y-55521046D01*
X131325857Y-55521045D01*
X131680915Y-55373975D01*
X132057842Y-55299000D01*
X132442158Y-55299000D01*
X132819085Y-55373975D01*
X132819085Y-55373975D01*
G37*
M02*
