G04 #@! TF.GenerationSoftware,KiCad,Pcbnew,(5.1.4)-1*
G04 #@! TF.CreationDate,2020-03-30T14:48:19-04:00*
G04 #@! TF.ProjectId,ProgAdapter,50726f67-4164-4617-9074-65722e6b6963,rev?*
G04 #@! TF.SameCoordinates,Original*
G04 #@! TF.FileFunction,Copper,L1,Top*
G04 #@! TF.FilePolarity,Positive*
%FSLAX46Y46*%
G04 Gerber Fmt 4.6, Leading zero omitted, Abs format (unit mm)*
G04 Created by KiCad (PCBNEW (5.1.4)-1) date 2020-03-30 14:48:19*
%MOMM*%
%LPD*%
G04 APERTURE LIST*
%ADD10R,3.150000X1.000000*%
%ADD11C,0.800000*%
%ADD12C,0.250000*%
G04 APERTURE END LIST*
D10*
X116125000Y-89680000D03*
X111075000Y-89680000D03*
X116125000Y-87140000D03*
X111075000Y-87140000D03*
X116125000Y-84600000D03*
X111075000Y-84600000D03*
X116125000Y-82060000D03*
X111075000Y-82060000D03*
X116125000Y-79520000D03*
X111075000Y-79520000D03*
D11*
X118550000Y-79550000D03*
X113550000Y-79500000D03*
X118374990Y-84500000D03*
X108600000Y-82050000D03*
X115350000Y-84550000D03*
X113500000Y-84600000D03*
X116100000Y-88450000D03*
X110400000Y-85900000D03*
X113600000Y-89650000D03*
X109100002Y-88450000D03*
D12*
X118520000Y-79520000D02*
X118550000Y-79550000D01*
X116125000Y-79520000D02*
X118520000Y-79520000D01*
X111055000Y-79500000D02*
X111075000Y-79520000D01*
X113530000Y-79520000D02*
X113550000Y-79500000D01*
X111075000Y-79520000D02*
X113530000Y-79520000D01*
X118374990Y-83234990D02*
X118374990Y-83934315D01*
X118374990Y-83934315D02*
X118374990Y-84500000D01*
X117200000Y-82060000D02*
X118374990Y-83234990D01*
X116125000Y-82060000D02*
X117200000Y-82060000D01*
X111065000Y-82050000D02*
X111075000Y-82060000D01*
X108600000Y-82050000D02*
X111065000Y-82050000D01*
X116125000Y-84600000D02*
X116124900Y-84600000D01*
X111075000Y-84600000D02*
X113500000Y-84600000D01*
X116125000Y-88425000D02*
X116100000Y-88450000D01*
X116125000Y-87140000D02*
X116125000Y-88425000D01*
X111075000Y-87140000D02*
X111075000Y-86390000D01*
X111075000Y-86390000D02*
X110585000Y-85900000D01*
X110585000Y-85900000D02*
X110400000Y-85900000D01*
X113630000Y-89680000D02*
X113600000Y-89650000D01*
X116125000Y-89680000D02*
X113630000Y-89680000D01*
X111075000Y-89680000D02*
X110000000Y-89680000D01*
X109100002Y-88780002D02*
X109100002Y-88450000D01*
X110000000Y-89680000D02*
X109100002Y-88780002D01*
M02*
