G04 #@! TF.GenerationSoftware,KiCad,Pcbnew,(5.1.4)-1*
G04 #@! TF.CreationDate,2020-03-30T14:48:19-04:00*
G04 #@! TF.ProjectId,ProgAdapter,50726f67-4164-4617-9074-65722e6b6963,rev?*
G04 #@! TF.SameCoordinates,Original*
G04 #@! TF.FileFunction,Copper,L2,Bot*
G04 #@! TF.FilePolarity,Positive*
%FSLAX46Y46*%
G04 Gerber Fmt 4.6, Leading zero omitted, Abs format (unit mm)*
G04 Created by KiCad (PCBNEW (5.1.4)-1) date 2020-03-30 14:48:19*
%MOMM*%
%LPD*%
G04 APERTURE LIST*
%ADD10R,0.740000X2.400000*%
%ADD11C,0.800000*%
%ADD12C,0.250000*%
G04 APERTURE END LIST*
D10*
X117040000Y-86550000D03*
X117040000Y-82650000D03*
X115770000Y-86550000D03*
X115770000Y-82650000D03*
X114500000Y-86550000D03*
X114500000Y-82650000D03*
X113230000Y-86550000D03*
X113230000Y-82650000D03*
X111960000Y-86550000D03*
X111960000Y-82650000D03*
D11*
X118550000Y-79550000D03*
X113550000Y-79500000D03*
X118374990Y-84500000D03*
X108600000Y-82050000D03*
X115350000Y-84550000D03*
X113500000Y-84600000D03*
X116100000Y-88450000D03*
X110400000Y-85900000D03*
X113600000Y-89650000D03*
X109100002Y-88450000D03*
D12*
X119100000Y-85110000D02*
X117660000Y-86550000D01*
X119100000Y-80100000D02*
X119100000Y-85110000D01*
X118550000Y-79550000D02*
X119100000Y-80100000D01*
X117660000Y-86550000D02*
X117040000Y-86550000D01*
X117040000Y-81820000D02*
X117040000Y-82650000D01*
X115119999Y-79899999D02*
X117040000Y-81820000D01*
X113949999Y-79899999D02*
X115119999Y-79899999D01*
X113550000Y-79500000D02*
X113949999Y-79899999D01*
X115770000Y-86550000D02*
X115770000Y-85720000D01*
X115770000Y-85720000D02*
X116990000Y-84500000D01*
X117809305Y-84500000D02*
X118374990Y-84500000D01*
X116990000Y-84500000D02*
X117809305Y-84500000D01*
X115770000Y-81820000D02*
X115770000Y-82650000D01*
X114850000Y-80900000D02*
X115770000Y-81820000D01*
X109750000Y-80900000D02*
X114850000Y-80900000D01*
X108600000Y-82050000D02*
X109750000Y-80900000D01*
X114500000Y-86550000D02*
X114500000Y-85720000D01*
X114500000Y-85400000D02*
X114500000Y-86550000D01*
X115350000Y-84550000D02*
X114500000Y-85400000D01*
X114500000Y-83600000D02*
X114500000Y-82650000D01*
X113500000Y-84600000D02*
X114500000Y-83600000D01*
X113230000Y-87380000D02*
X113230000Y-86550000D01*
X114300000Y-88450000D02*
X113230000Y-87380000D01*
X116100000Y-88450000D02*
X114300000Y-88450000D01*
X111275001Y-85024999D02*
X110799999Y-85500001D01*
X110799999Y-85500001D02*
X110400000Y-85900000D01*
X111685001Y-85024999D02*
X111275001Y-85024999D01*
X113230000Y-83480000D02*
X111685001Y-85024999D01*
X113230000Y-82650000D02*
X113230000Y-83480000D01*
X111960000Y-88010000D02*
X111960000Y-86550000D01*
X113600000Y-89650000D02*
X111960000Y-88010000D01*
X111340000Y-82650000D02*
X111960000Y-82650000D01*
X109100002Y-84889998D02*
X111340000Y-82650000D01*
X109100002Y-88450000D02*
X109100002Y-84889998D01*
M02*
