G04 #@! TF.GenerationSoftware,KiCad,Pcbnew,(5.1.4)-1*
G04 #@! TF.CreationDate,2020-03-30T14:48:19-04:00*
G04 #@! TF.ProjectId,ProgAdapter,50726f67-4164-4617-9074-65722e6b6963,rev?*
G04 #@! TF.SameCoordinates,Original*
G04 #@! TF.FileFunction,Soldermask,Bot*
G04 #@! TF.FilePolarity,Negative*
%FSLAX46Y46*%
G04 Gerber Fmt 4.6, Leading zero omitted, Abs format (unit mm)*
G04 Created by KiCad (PCBNEW (5.1.4)-1) date 2020-03-30 14:48:19*
%MOMM*%
%LPD*%
G04 APERTURE LIST*
%ADD10C,0.100000*%
G04 APERTURE END LIST*
D10*
G36*
X116191000Y-87801000D02*
G01*
X115349000Y-87801000D01*
X115349000Y-85299000D01*
X116191000Y-85299000D01*
X116191000Y-87801000D01*
X116191000Y-87801000D01*
G37*
G36*
X112381000Y-87801000D02*
G01*
X111539000Y-87801000D01*
X111539000Y-85299000D01*
X112381000Y-85299000D01*
X112381000Y-87801000D01*
X112381000Y-87801000D01*
G37*
G36*
X113651000Y-87801000D02*
G01*
X112809000Y-87801000D01*
X112809000Y-85299000D01*
X113651000Y-85299000D01*
X113651000Y-87801000D01*
X113651000Y-87801000D01*
G37*
G36*
X114921000Y-87801000D02*
G01*
X114079000Y-87801000D01*
X114079000Y-85299000D01*
X114921000Y-85299000D01*
X114921000Y-87801000D01*
X114921000Y-87801000D01*
G37*
G36*
X117461000Y-87801000D02*
G01*
X116619000Y-87801000D01*
X116619000Y-85299000D01*
X117461000Y-85299000D01*
X117461000Y-87801000D01*
X117461000Y-87801000D01*
G37*
G36*
X116191000Y-83901000D02*
G01*
X115349000Y-83901000D01*
X115349000Y-81399000D01*
X116191000Y-81399000D01*
X116191000Y-83901000D01*
X116191000Y-83901000D01*
G37*
G36*
X114921000Y-83901000D02*
G01*
X114079000Y-83901000D01*
X114079000Y-81399000D01*
X114921000Y-81399000D01*
X114921000Y-83901000D01*
X114921000Y-83901000D01*
G37*
G36*
X113651000Y-83901000D02*
G01*
X112809000Y-83901000D01*
X112809000Y-81399000D01*
X113651000Y-81399000D01*
X113651000Y-83901000D01*
X113651000Y-83901000D01*
G37*
G36*
X112381000Y-83901000D02*
G01*
X111539000Y-83901000D01*
X111539000Y-81399000D01*
X112381000Y-81399000D01*
X112381000Y-83901000D01*
X112381000Y-83901000D01*
G37*
G36*
X117461000Y-83901000D02*
G01*
X116619000Y-83901000D01*
X116619000Y-81399000D01*
X117461000Y-81399000D01*
X117461000Y-83901000D01*
X117461000Y-83901000D01*
G37*
M02*
