G04 #@! TF.GenerationSoftware,KiCad,Pcbnew,(5.1.4)-1*
G04 #@! TF.CreationDate,2020-03-30T14:48:19-04:00*
G04 #@! TF.ProjectId,ProgAdapter,50726f67-4164-4617-9074-65722e6b6963,rev?*
G04 #@! TF.SameCoordinates,Original*
G04 #@! TF.FileFunction,Soldermask,Top*
G04 #@! TF.FilePolarity,Negative*
%FSLAX46Y46*%
G04 Gerber Fmt 4.6, Leading zero omitted, Abs format (unit mm)*
G04 Created by KiCad (PCBNEW (5.1.4)-1) date 2020-03-30 14:48:19*
%MOMM*%
%LPD*%
G04 APERTURE LIST*
%ADD10C,0.100000*%
G04 APERTURE END LIST*
D10*
G36*
X112701000Y-90231000D02*
G01*
X109449000Y-90231000D01*
X109449000Y-89129000D01*
X112701000Y-89129000D01*
X112701000Y-90231000D01*
X112701000Y-90231000D01*
G37*
G36*
X117751000Y-90231000D02*
G01*
X114499000Y-90231000D01*
X114499000Y-89129000D01*
X117751000Y-89129000D01*
X117751000Y-90231000D01*
X117751000Y-90231000D01*
G37*
G36*
X112701000Y-87691000D02*
G01*
X109449000Y-87691000D01*
X109449000Y-86589000D01*
X112701000Y-86589000D01*
X112701000Y-87691000D01*
X112701000Y-87691000D01*
G37*
G36*
X117751000Y-87691000D02*
G01*
X114499000Y-87691000D01*
X114499000Y-86589000D01*
X117751000Y-86589000D01*
X117751000Y-87691000D01*
X117751000Y-87691000D01*
G37*
G36*
X117751000Y-85151000D02*
G01*
X114499000Y-85151000D01*
X114499000Y-84049000D01*
X117751000Y-84049000D01*
X117751000Y-85151000D01*
X117751000Y-85151000D01*
G37*
G36*
X112701000Y-85151000D02*
G01*
X109449000Y-85151000D01*
X109449000Y-84049000D01*
X112701000Y-84049000D01*
X112701000Y-85151000D01*
X112701000Y-85151000D01*
G37*
G36*
X112701000Y-82611000D02*
G01*
X109449000Y-82611000D01*
X109449000Y-81509000D01*
X112701000Y-81509000D01*
X112701000Y-82611000D01*
X112701000Y-82611000D01*
G37*
G36*
X117751000Y-82611000D02*
G01*
X114499000Y-82611000D01*
X114499000Y-81509000D01*
X117751000Y-81509000D01*
X117751000Y-82611000D01*
X117751000Y-82611000D01*
G37*
G36*
X112701000Y-80071000D02*
G01*
X109449000Y-80071000D01*
X109449000Y-78969000D01*
X112701000Y-78969000D01*
X112701000Y-80071000D01*
X112701000Y-80071000D01*
G37*
G36*
X117751000Y-80071000D02*
G01*
X114499000Y-80071000D01*
X114499000Y-78969000D01*
X117751000Y-78969000D01*
X117751000Y-80071000D01*
X117751000Y-80071000D01*
G37*
M02*
