G04 #@! TF.GenerationSoftware,KiCad,Pcbnew,(5.1.2)-2*
G04 #@! TF.CreationDate,2019-09-25T22:48:14-04:00*
G04 #@! TF.ProjectId,LEDWall,4c454457-616c-46c2-9e6b-696361645f70,rev?*
G04 #@! TF.SameCoordinates,Original*
G04 #@! TF.FileFunction,Soldermask,Top*
G04 #@! TF.FilePolarity,Negative*
%FSLAX46Y46*%
G04 Gerber Fmt 4.6, Leading zero omitted, Abs format (unit mm)*
G04 Created by KiCad (PCBNEW (5.1.2)-2) date 2019-09-25 22:48:14*
%MOMM*%
%LPD*%
G04 APERTURE LIST*
%ADD10C,0.150000*%
G04 APERTURE END LIST*
D10*
G36*
X140067000Y-152379500D02*
G01*
X138465000Y-152379500D01*
X138465000Y-151277500D01*
X140067000Y-151277500D01*
X140067000Y-152379500D01*
X140067000Y-152379500D01*
G37*
G36*
X135167000Y-152379500D02*
G01*
X133565000Y-152379500D01*
X133565000Y-151277500D01*
X135167000Y-151277500D01*
X135167000Y-152379500D01*
X135167000Y-152379500D01*
G37*
G36*
X140067000Y-149179500D02*
G01*
X138465000Y-149179500D01*
X138465000Y-148077500D01*
X140067000Y-148077500D01*
X140067000Y-149179500D01*
X140067000Y-149179500D01*
G37*
G36*
X135167000Y-149179500D02*
G01*
X133565000Y-149179500D01*
X133565000Y-148077500D01*
X135167000Y-148077500D01*
X135167000Y-149179500D01*
X135167000Y-149179500D01*
G37*
G36*
X134722968Y-145494065D02*
G01*
X134761638Y-145505796D01*
X134797277Y-145524846D01*
X134828517Y-145550483D01*
X134854154Y-145581723D01*
X134873204Y-145617362D01*
X134884935Y-145656032D01*
X134889500Y-145702388D01*
X134889500Y-146778612D01*
X134884935Y-146824968D01*
X134873204Y-146863638D01*
X134854154Y-146899277D01*
X134828517Y-146930517D01*
X134797277Y-146956154D01*
X134761638Y-146975204D01*
X134722968Y-146986935D01*
X134676612Y-146991500D01*
X134025388Y-146991500D01*
X133979032Y-146986935D01*
X133940362Y-146975204D01*
X133904723Y-146956154D01*
X133873483Y-146930517D01*
X133847846Y-146899277D01*
X133828796Y-146863638D01*
X133817065Y-146824968D01*
X133812500Y-146778612D01*
X133812500Y-145702388D01*
X133817065Y-145656032D01*
X133828796Y-145617362D01*
X133847846Y-145581723D01*
X133873483Y-145550483D01*
X133904723Y-145524846D01*
X133940362Y-145505796D01*
X133979032Y-145494065D01*
X134025388Y-145489500D01*
X134676612Y-145489500D01*
X134722968Y-145494065D01*
X134722968Y-145494065D01*
G37*
G36*
X132847968Y-145494065D02*
G01*
X132886638Y-145505796D01*
X132922277Y-145524846D01*
X132953517Y-145550483D01*
X132979154Y-145581723D01*
X132998204Y-145617362D01*
X133009935Y-145656032D01*
X133014500Y-145702388D01*
X133014500Y-146778612D01*
X133009935Y-146824968D01*
X132998204Y-146863638D01*
X132979154Y-146899277D01*
X132953517Y-146930517D01*
X132922277Y-146956154D01*
X132886638Y-146975204D01*
X132847968Y-146986935D01*
X132801612Y-146991500D01*
X132150388Y-146991500D01*
X132104032Y-146986935D01*
X132065362Y-146975204D01*
X132029723Y-146956154D01*
X131998483Y-146930517D01*
X131972846Y-146899277D01*
X131953796Y-146863638D01*
X131942065Y-146824968D01*
X131937500Y-146778612D01*
X131937500Y-145702388D01*
X131942065Y-145656032D01*
X131953796Y-145617362D01*
X131972846Y-145581723D01*
X131998483Y-145550483D01*
X132029723Y-145524846D01*
X132065362Y-145505796D01*
X132104032Y-145494065D01*
X132150388Y-145489500D01*
X132801612Y-145489500D01*
X132847968Y-145494065D01*
X132847968Y-145494065D01*
G37*
G36*
X120995521Y-141396351D02*
G01*
X122384481Y-141901891D01*
X122384481Y-141901892D01*
X122240545Y-142297351D01*
X121768161Y-143595217D01*
X121768160Y-143595217D01*
X121316303Y-143430754D01*
X120074835Y-142978897D01*
X120691155Y-141285571D01*
X120691156Y-141285571D01*
X120995521Y-141396351D01*
X120995521Y-141396351D01*
G37*
G36*
X118953282Y-140677182D02*
G01*
X119019466Y-140683700D01*
X119189305Y-140735220D01*
X119345830Y-140818885D01*
X119381568Y-140848215D01*
X119483025Y-140931477D01*
X119566287Y-141032934D01*
X119595617Y-141068672D01*
X119679282Y-141225197D01*
X119730802Y-141395036D01*
X119748198Y-141571663D01*
X119730802Y-141748290D01*
X119679282Y-141918129D01*
X119595617Y-142074654D01*
X119566287Y-142110392D01*
X119483025Y-142211849D01*
X119394725Y-142284314D01*
X119345830Y-142324441D01*
X119189305Y-142408106D01*
X119019466Y-142459626D01*
X118953281Y-142466145D01*
X118887099Y-142472663D01*
X118798579Y-142472663D01*
X118732397Y-142466145D01*
X118666212Y-142459626D01*
X118496373Y-142408106D01*
X118339848Y-142324441D01*
X118290953Y-142284314D01*
X118202653Y-142211849D01*
X118119391Y-142110392D01*
X118090061Y-142074654D01*
X118006396Y-141918129D01*
X117954876Y-141748290D01*
X117937480Y-141571663D01*
X117954876Y-141395036D01*
X118006396Y-141225197D01*
X118090061Y-141068672D01*
X118119391Y-141032934D01*
X118202653Y-140931477D01*
X118304110Y-140848215D01*
X118339848Y-140818885D01*
X118496373Y-140735220D01*
X118666212Y-140683700D01*
X118732396Y-140677182D01*
X118798579Y-140670663D01*
X118887099Y-140670663D01*
X118953282Y-140677182D01*
X118953282Y-140677182D01*
G37*
G36*
X155969877Y-140501869D02*
G01*
X156036062Y-140508388D01*
X156205901Y-140559908D01*
X156362426Y-140643573D01*
X156393856Y-140669367D01*
X156499621Y-140756165D01*
X156582883Y-140857622D01*
X156612213Y-140893360D01*
X156695878Y-141049885D01*
X156747398Y-141219724D01*
X156764794Y-141396351D01*
X156747398Y-141572978D01*
X156695878Y-141742817D01*
X156612213Y-141899342D01*
X156596793Y-141918131D01*
X156499621Y-142036537D01*
X156398164Y-142119799D01*
X156362426Y-142149129D01*
X156205901Y-142232794D01*
X156036062Y-142284314D01*
X155969877Y-142290833D01*
X155903695Y-142297351D01*
X155815175Y-142297351D01*
X155748993Y-142290833D01*
X155682808Y-142284314D01*
X155512969Y-142232794D01*
X155356444Y-142149129D01*
X155320706Y-142119799D01*
X155219249Y-142036537D01*
X155122077Y-141918131D01*
X155106657Y-141899342D01*
X155022992Y-141742817D01*
X154971472Y-141572978D01*
X154954076Y-141396351D01*
X154971472Y-141219724D01*
X155022992Y-141049885D01*
X155106657Y-140893360D01*
X155135987Y-140857622D01*
X155219249Y-140756165D01*
X155325014Y-140669367D01*
X155356444Y-140643573D01*
X155512969Y-140559908D01*
X155682808Y-140508388D01*
X155748993Y-140501869D01*
X155815175Y-140495351D01*
X155903695Y-140495351D01*
X155969877Y-140501869D01*
X155969877Y-140501869D01*
G37*
G36*
X116566461Y-139808450D02*
G01*
X116632646Y-139814969D01*
X116802485Y-139866489D01*
X116959010Y-139950154D01*
X116991031Y-139976433D01*
X117096205Y-140062746D01*
X117179467Y-140164203D01*
X117208797Y-140199941D01*
X117292462Y-140356466D01*
X117343982Y-140526305D01*
X117361378Y-140702932D01*
X117343982Y-140879559D01*
X117292462Y-141049398D01*
X117208797Y-141205923D01*
X117192979Y-141225197D01*
X117096205Y-141343118D01*
X117032939Y-141395038D01*
X116959010Y-141455710D01*
X116802485Y-141539375D01*
X116632646Y-141590895D01*
X116566462Y-141597413D01*
X116500279Y-141603932D01*
X116411759Y-141603932D01*
X116345576Y-141597413D01*
X116279392Y-141590895D01*
X116109553Y-141539375D01*
X115953028Y-141455710D01*
X115879099Y-141395038D01*
X115815833Y-141343118D01*
X115719059Y-141225197D01*
X115703241Y-141205923D01*
X115619576Y-141049398D01*
X115568056Y-140879559D01*
X115550660Y-140702932D01*
X115568056Y-140526305D01*
X115619576Y-140356466D01*
X115703241Y-140199941D01*
X115732571Y-140164203D01*
X115815833Y-140062746D01*
X115921007Y-139976433D01*
X115953028Y-139950154D01*
X116109553Y-139866489D01*
X116279392Y-139814969D01*
X116345577Y-139808450D01*
X116411759Y-139801932D01*
X116500279Y-139801932D01*
X116566461Y-139808450D01*
X116566461Y-139808450D01*
G37*
G36*
X158271899Y-139428420D02*
G01*
X158338083Y-139434938D01*
X158507922Y-139486458D01*
X158664447Y-139570123D01*
X158695876Y-139595916D01*
X158801642Y-139682715D01*
X158884904Y-139784172D01*
X158914234Y-139819910D01*
X158997899Y-139976435D01*
X159049419Y-140146274D01*
X159066815Y-140322901D01*
X159049419Y-140499528D01*
X158997899Y-140669367D01*
X158914234Y-140825892D01*
X158884904Y-140861630D01*
X158801642Y-140963087D01*
X158700185Y-141046349D01*
X158664447Y-141075679D01*
X158507922Y-141159344D01*
X158338083Y-141210864D01*
X158271899Y-141217382D01*
X158205716Y-141223901D01*
X158117196Y-141223901D01*
X158051013Y-141217382D01*
X157984829Y-141210864D01*
X157814990Y-141159344D01*
X157658465Y-141075679D01*
X157622727Y-141046349D01*
X157521270Y-140963087D01*
X157438008Y-140861630D01*
X157408678Y-140825892D01*
X157325013Y-140669367D01*
X157273493Y-140499528D01*
X157256097Y-140322901D01*
X157273493Y-140146274D01*
X157325013Y-139976435D01*
X157408678Y-139819910D01*
X157438008Y-139784172D01*
X157521270Y-139682715D01*
X157627036Y-139595916D01*
X157658465Y-139570123D01*
X157814990Y-139486458D01*
X157984829Y-139434938D01*
X158051013Y-139428420D01*
X158117196Y-139421901D01*
X158205716Y-139421901D01*
X158271899Y-139428420D01*
X158271899Y-139428420D01*
G37*
G36*
X114179643Y-138939720D02*
G01*
X114245827Y-138946238D01*
X114415666Y-138997758D01*
X114572191Y-139081423D01*
X114607929Y-139110753D01*
X114709386Y-139194015D01*
X114792648Y-139295472D01*
X114821978Y-139331210D01*
X114905643Y-139487735D01*
X114957163Y-139657574D01*
X114974559Y-139834201D01*
X114957163Y-140010828D01*
X114905643Y-140180667D01*
X114821978Y-140337192D01*
X114806160Y-140356466D01*
X114709386Y-140474387D01*
X114646120Y-140526307D01*
X114572191Y-140586979D01*
X114415666Y-140670644D01*
X114245827Y-140722164D01*
X114179642Y-140728683D01*
X114113460Y-140735201D01*
X114024940Y-140735201D01*
X113958758Y-140728683D01*
X113892573Y-140722164D01*
X113722734Y-140670644D01*
X113566209Y-140586979D01*
X113492280Y-140526307D01*
X113429014Y-140474387D01*
X113332240Y-140356466D01*
X113316422Y-140337192D01*
X113232757Y-140180667D01*
X113181237Y-140010828D01*
X113163841Y-139834201D01*
X113181237Y-139657574D01*
X113232757Y-139487735D01*
X113316422Y-139331210D01*
X113345752Y-139295472D01*
X113429014Y-139194015D01*
X113530471Y-139110753D01*
X113566209Y-139081423D01*
X113722734Y-138997758D01*
X113892573Y-138946238D01*
X113958757Y-138939720D01*
X114024940Y-138933201D01*
X114113460Y-138933201D01*
X114179643Y-138939720D01*
X114179643Y-138939720D01*
G37*
G36*
X160573921Y-138354969D02*
G01*
X160640105Y-138361487D01*
X160809944Y-138413007D01*
X160966469Y-138496672D01*
X161002207Y-138526002D01*
X161103664Y-138609264D01*
X161186926Y-138710721D01*
X161216256Y-138746459D01*
X161299921Y-138902984D01*
X161351441Y-139072823D01*
X161368837Y-139249450D01*
X161351441Y-139426077D01*
X161299921Y-139595916D01*
X161216256Y-139752441D01*
X161186926Y-139788179D01*
X161103664Y-139889636D01*
X161002207Y-139972898D01*
X160966469Y-140002228D01*
X160809944Y-140085893D01*
X160640105Y-140137413D01*
X160573920Y-140143932D01*
X160507738Y-140150450D01*
X160419218Y-140150450D01*
X160353036Y-140143932D01*
X160286851Y-140137413D01*
X160117012Y-140085893D01*
X159960487Y-140002228D01*
X159924749Y-139972898D01*
X159823292Y-139889636D01*
X159740030Y-139788179D01*
X159710700Y-139752441D01*
X159627035Y-139595916D01*
X159575515Y-139426077D01*
X159558119Y-139249450D01*
X159575515Y-139072823D01*
X159627035Y-138902984D01*
X159710700Y-138746459D01*
X159740030Y-138710721D01*
X159823292Y-138609264D01*
X159924749Y-138526002D01*
X159960487Y-138496672D01*
X160117012Y-138413007D01*
X160286851Y-138361487D01*
X160353035Y-138354969D01*
X160419218Y-138348450D01*
X160507738Y-138348450D01*
X160573921Y-138354969D01*
X160573921Y-138354969D01*
G37*
G36*
X163962862Y-138611804D02*
G01*
X162329696Y-139373362D01*
X161568138Y-137740196D01*
X163201304Y-136978638D01*
X163962862Y-138611804D01*
X163962862Y-138611804D01*
G37*
G36*
X183337000Y-133850000D02*
G01*
X181735000Y-133850000D01*
X181735000Y-132748000D01*
X183337000Y-132748000D01*
X183337000Y-133850000D01*
X183337000Y-133850000D01*
G37*
G36*
X178437000Y-133850000D02*
G01*
X176835000Y-133850000D01*
X176835000Y-132748000D01*
X178437000Y-132748000D01*
X178437000Y-133850000D01*
X178437000Y-133850000D01*
G37*
G36*
X90073500Y-132283000D02*
G01*
X88971500Y-132283000D01*
X88971500Y-130681000D01*
X90073500Y-130681000D01*
X90073500Y-132283000D01*
X90073500Y-132283000D01*
G37*
G36*
X93273500Y-132283000D02*
G01*
X92171500Y-132283000D01*
X92171500Y-130681000D01*
X93273500Y-130681000D01*
X93273500Y-132283000D01*
X93273500Y-132283000D01*
G37*
G36*
X183337000Y-130650000D02*
G01*
X181735000Y-130650000D01*
X181735000Y-129548000D01*
X183337000Y-129548000D01*
X183337000Y-130650000D01*
X183337000Y-130650000D01*
G37*
G36*
X178437000Y-130650000D02*
G01*
X176835000Y-130650000D01*
X176835000Y-129548000D01*
X178437000Y-129548000D01*
X178437000Y-130650000D01*
X178437000Y-130650000D01*
G37*
G36*
X177932968Y-127206065D02*
G01*
X177971638Y-127217796D01*
X178007277Y-127236846D01*
X178038517Y-127262483D01*
X178064154Y-127293723D01*
X178083204Y-127329362D01*
X178094935Y-127368032D01*
X178099500Y-127414388D01*
X178099500Y-128490612D01*
X178094935Y-128536968D01*
X178083204Y-128575638D01*
X178064154Y-128611277D01*
X178038517Y-128642517D01*
X178007277Y-128668154D01*
X177971638Y-128687204D01*
X177932968Y-128698935D01*
X177886612Y-128703500D01*
X177235388Y-128703500D01*
X177189032Y-128698935D01*
X177150362Y-128687204D01*
X177114723Y-128668154D01*
X177083483Y-128642517D01*
X177057846Y-128611277D01*
X177038796Y-128575638D01*
X177027065Y-128536968D01*
X177022500Y-128490612D01*
X177022500Y-127414388D01*
X177027065Y-127368032D01*
X177038796Y-127329362D01*
X177057846Y-127293723D01*
X177083483Y-127262483D01*
X177114723Y-127236846D01*
X177150362Y-127217796D01*
X177189032Y-127206065D01*
X177235388Y-127201500D01*
X177886612Y-127201500D01*
X177932968Y-127206065D01*
X177932968Y-127206065D01*
G37*
G36*
X179807968Y-127206065D02*
G01*
X179846638Y-127217796D01*
X179882277Y-127236846D01*
X179913517Y-127262483D01*
X179939154Y-127293723D01*
X179958204Y-127329362D01*
X179969935Y-127368032D01*
X179974500Y-127414388D01*
X179974500Y-128490612D01*
X179969935Y-128536968D01*
X179958204Y-128575638D01*
X179939154Y-128611277D01*
X179913517Y-128642517D01*
X179882277Y-128668154D01*
X179846638Y-128687204D01*
X179807968Y-128698935D01*
X179761612Y-128703500D01*
X179110388Y-128703500D01*
X179064032Y-128698935D01*
X179025362Y-128687204D01*
X178989723Y-128668154D01*
X178958483Y-128642517D01*
X178932846Y-128611277D01*
X178913796Y-128575638D01*
X178902065Y-128536968D01*
X178897500Y-128490612D01*
X178897500Y-127414388D01*
X178902065Y-127368032D01*
X178913796Y-127329362D01*
X178932846Y-127293723D01*
X178958483Y-127262483D01*
X178989723Y-127236846D01*
X179025362Y-127217796D01*
X179064032Y-127206065D01*
X179110388Y-127201500D01*
X179761612Y-127201500D01*
X179807968Y-127206065D01*
X179807968Y-127206065D01*
G37*
G36*
X90073500Y-127383000D02*
G01*
X88971500Y-127383000D01*
X88971500Y-125781000D01*
X90073500Y-125781000D01*
X90073500Y-127383000D01*
X90073500Y-127383000D01*
G37*
G36*
X93273500Y-127383000D02*
G01*
X92171500Y-127383000D01*
X92171500Y-125781000D01*
X93273500Y-125781000D01*
X93273500Y-127383000D01*
X93273500Y-127383000D01*
G37*
G36*
X91206968Y-123523065D02*
G01*
X91245638Y-123534796D01*
X91281277Y-123553846D01*
X91312517Y-123579483D01*
X91338154Y-123610723D01*
X91357204Y-123646362D01*
X91368935Y-123685032D01*
X91373500Y-123731388D01*
X91373500Y-124807612D01*
X91368935Y-124853968D01*
X91357204Y-124892638D01*
X91338154Y-124928277D01*
X91312517Y-124959517D01*
X91281277Y-124985154D01*
X91245638Y-125004204D01*
X91206968Y-125015935D01*
X91160612Y-125020500D01*
X90509388Y-125020500D01*
X90463032Y-125015935D01*
X90424362Y-125004204D01*
X90388723Y-124985154D01*
X90357483Y-124959517D01*
X90331846Y-124928277D01*
X90312796Y-124892638D01*
X90301065Y-124853968D01*
X90296500Y-124807612D01*
X90296500Y-123731388D01*
X90301065Y-123685032D01*
X90312796Y-123646362D01*
X90331846Y-123610723D01*
X90357483Y-123579483D01*
X90388723Y-123553846D01*
X90424362Y-123534796D01*
X90463032Y-123523065D01*
X90509388Y-123518500D01*
X91160612Y-123518500D01*
X91206968Y-123523065D01*
X91206968Y-123523065D01*
G37*
G36*
X93081968Y-123523065D02*
G01*
X93120638Y-123534796D01*
X93156277Y-123553846D01*
X93187517Y-123579483D01*
X93213154Y-123610723D01*
X93232204Y-123646362D01*
X93243935Y-123685032D01*
X93248500Y-123731388D01*
X93248500Y-124807612D01*
X93243935Y-124853968D01*
X93232204Y-124892638D01*
X93213154Y-124928277D01*
X93187517Y-124959517D01*
X93156277Y-124985154D01*
X93120638Y-125004204D01*
X93081968Y-125015935D01*
X93035612Y-125020500D01*
X92384388Y-125020500D01*
X92338032Y-125015935D01*
X92299362Y-125004204D01*
X92263723Y-124985154D01*
X92232483Y-124959517D01*
X92206846Y-124928277D01*
X92187796Y-124892638D01*
X92176065Y-124853968D01*
X92171500Y-124807612D01*
X92171500Y-123731388D01*
X92176065Y-123685032D01*
X92187796Y-123646362D01*
X92206846Y-123610723D01*
X92232483Y-123579483D01*
X92263723Y-123553846D01*
X92299362Y-123534796D01*
X92338032Y-123523065D01*
X92384388Y-123518500D01*
X93035612Y-123518500D01*
X93081968Y-123523065D01*
X93081968Y-123523065D01*
G37*
G36*
X169762254Y-114956818D02*
G01*
X170135511Y-115111426D01*
X170135513Y-115111427D01*
X170471436Y-115335884D01*
X170757116Y-115621564D01*
X170981574Y-115957489D01*
X171136182Y-116330746D01*
X171215000Y-116726993D01*
X171215000Y-117131007D01*
X171136182Y-117527254D01*
X170981574Y-117900511D01*
X170981573Y-117900513D01*
X170757116Y-118236436D01*
X170471436Y-118522116D01*
X170135513Y-118746573D01*
X170135512Y-118746574D01*
X170135511Y-118746574D01*
X169762254Y-118901182D01*
X169366007Y-118980000D01*
X168961993Y-118980000D01*
X168565746Y-118901182D01*
X168192489Y-118746574D01*
X168192488Y-118746574D01*
X168192487Y-118746573D01*
X167856564Y-118522116D01*
X167570884Y-118236436D01*
X167346427Y-117900513D01*
X167346426Y-117900511D01*
X167191818Y-117527254D01*
X167113000Y-117131007D01*
X167113000Y-116726993D01*
X167191818Y-116330746D01*
X167346426Y-115957489D01*
X167570884Y-115621564D01*
X167856564Y-115335884D01*
X168192487Y-115111427D01*
X168192489Y-115111426D01*
X168565746Y-114956818D01*
X168961993Y-114878000D01*
X169366007Y-114878000D01*
X169762254Y-114956818D01*
X169762254Y-114956818D01*
G37*
G36*
X104762254Y-114956818D02*
G01*
X105135511Y-115111426D01*
X105135513Y-115111427D01*
X105471436Y-115335884D01*
X105757116Y-115621564D01*
X105981574Y-115957489D01*
X106136182Y-116330746D01*
X106215000Y-116726993D01*
X106215000Y-117131007D01*
X106136182Y-117527254D01*
X105981574Y-117900511D01*
X105981573Y-117900513D01*
X105757116Y-118236436D01*
X105471436Y-118522116D01*
X105135513Y-118746573D01*
X105135512Y-118746574D01*
X105135511Y-118746574D01*
X104762254Y-118901182D01*
X104366007Y-118980000D01*
X103961993Y-118980000D01*
X103565746Y-118901182D01*
X103192489Y-118746574D01*
X103192488Y-118746574D01*
X103192487Y-118746573D01*
X102856564Y-118522116D01*
X102570884Y-118236436D01*
X102346427Y-117900513D01*
X102346426Y-117900511D01*
X102191818Y-117527254D01*
X102113000Y-117131007D01*
X102113000Y-116726993D01*
X102191818Y-116330746D01*
X102346426Y-115957489D01*
X102570884Y-115621564D01*
X102856564Y-115335884D01*
X103192487Y-115111427D01*
X103192489Y-115111426D01*
X103565746Y-114956818D01*
X103961993Y-114878000D01*
X104366007Y-114878000D01*
X104762254Y-114956818D01*
X104762254Y-114956818D01*
G37*
G36*
X90041362Y-116521304D02*
G01*
X88408196Y-117282862D01*
X87646638Y-115649696D01*
X89279804Y-114888138D01*
X90041362Y-116521304D01*
X90041362Y-116521304D01*
G37*
G36*
X87880993Y-112888997D02*
G01*
X87947177Y-112895515D01*
X88117016Y-112947035D01*
X88273541Y-113030700D01*
X88309279Y-113060030D01*
X88410736Y-113143292D01*
X88493998Y-113244749D01*
X88523328Y-113280487D01*
X88606993Y-113437012D01*
X88658513Y-113606851D01*
X88675909Y-113783478D01*
X88658513Y-113960105D01*
X88606993Y-114129944D01*
X88523328Y-114286469D01*
X88493998Y-114322207D01*
X88410736Y-114423664D01*
X88309279Y-114506926D01*
X88273541Y-114536256D01*
X88117016Y-114619921D01*
X87947177Y-114671441D01*
X87880993Y-114677959D01*
X87814810Y-114684478D01*
X87726290Y-114684478D01*
X87660107Y-114677959D01*
X87593923Y-114671441D01*
X87424084Y-114619921D01*
X87267559Y-114536256D01*
X87231821Y-114506926D01*
X87130364Y-114423664D01*
X87047102Y-114322207D01*
X87017772Y-114286469D01*
X86934107Y-114129944D01*
X86882587Y-113960105D01*
X86865191Y-113783478D01*
X86882587Y-113606851D01*
X86934107Y-113437012D01*
X87017772Y-113280487D01*
X87047102Y-113244749D01*
X87130364Y-113143292D01*
X87231821Y-113060030D01*
X87267559Y-113030700D01*
X87424084Y-112947035D01*
X87593923Y-112895515D01*
X87660107Y-112888997D01*
X87726290Y-112882478D01*
X87814810Y-112882478D01*
X87880993Y-112888997D01*
X87880993Y-112888997D01*
G37*
G36*
X186624643Y-112056318D02*
G01*
X186690828Y-112062837D01*
X186860667Y-112114357D01*
X187017192Y-112198022D01*
X187052930Y-112227352D01*
X187154387Y-112310614D01*
X187202646Y-112369419D01*
X187266979Y-112447809D01*
X187350644Y-112604334D01*
X187402164Y-112774173D01*
X187419560Y-112950800D01*
X187402164Y-113127427D01*
X187350644Y-113297266D01*
X187266979Y-113453791D01*
X187237649Y-113489529D01*
X187154387Y-113590986D01*
X187052930Y-113674248D01*
X187017192Y-113703578D01*
X186860667Y-113787243D01*
X186690828Y-113838763D01*
X186624643Y-113845282D01*
X186558461Y-113851800D01*
X186469941Y-113851800D01*
X186403759Y-113845282D01*
X186337574Y-113838763D01*
X186167735Y-113787243D01*
X186011210Y-113703578D01*
X185975472Y-113674248D01*
X185874015Y-113590986D01*
X185790753Y-113489529D01*
X185761423Y-113453791D01*
X185677758Y-113297266D01*
X185626238Y-113127427D01*
X185608842Y-112950800D01*
X185626238Y-112774173D01*
X185677758Y-112604334D01*
X185761423Y-112447809D01*
X185825756Y-112369419D01*
X185874015Y-112310614D01*
X185975472Y-112227352D01*
X186011210Y-112198022D01*
X186167735Y-112114357D01*
X186337574Y-112062837D01*
X186403759Y-112056318D01*
X186469941Y-112049800D01*
X186558461Y-112049800D01*
X186624643Y-112056318D01*
X186624643Y-112056318D01*
G37*
G36*
X86807541Y-110586974D02*
G01*
X86873726Y-110593493D01*
X87043565Y-110645013D01*
X87200090Y-110728678D01*
X87235828Y-110758008D01*
X87337285Y-110841270D01*
X87420547Y-110942727D01*
X87449877Y-110978465D01*
X87533542Y-111134990D01*
X87585062Y-111304829D01*
X87602458Y-111481456D01*
X87585062Y-111658083D01*
X87533542Y-111827922D01*
X87449877Y-111984447D01*
X87420547Y-112020185D01*
X87337285Y-112121642D01*
X87244214Y-112198022D01*
X87200090Y-112234234D01*
X87043565Y-112317899D01*
X86873726Y-112369419D01*
X86807541Y-112375938D01*
X86741359Y-112382456D01*
X86652839Y-112382456D01*
X86586657Y-112375938D01*
X86520472Y-112369419D01*
X86350633Y-112317899D01*
X86194108Y-112234234D01*
X86149984Y-112198022D01*
X86056913Y-112121642D01*
X85973651Y-112020185D01*
X85944321Y-111984447D01*
X85860656Y-111827922D01*
X85809136Y-111658083D01*
X85791740Y-111481456D01*
X85809136Y-111304829D01*
X85860656Y-111134990D01*
X85944321Y-110978465D01*
X85973651Y-110942727D01*
X86056913Y-110841270D01*
X86158370Y-110758008D01*
X86194108Y-110728678D01*
X86350633Y-110645013D01*
X86520472Y-110593493D01*
X86586657Y-110586974D01*
X86652839Y-110580456D01*
X86741359Y-110580456D01*
X86807541Y-110586974D01*
X86807541Y-110586974D01*
G37*
G36*
X187493374Y-109669499D02*
G01*
X187559559Y-109676018D01*
X187729398Y-109727538D01*
X187885923Y-109811203D01*
X187896179Y-109819620D01*
X188023118Y-109923795D01*
X188098687Y-110015878D01*
X188135710Y-110060990D01*
X188219375Y-110217515D01*
X188270895Y-110387354D01*
X188288291Y-110563981D01*
X188270895Y-110740608D01*
X188219375Y-110910447D01*
X188135710Y-111066972D01*
X188106380Y-111102710D01*
X188023118Y-111204167D01*
X187921661Y-111287429D01*
X187885923Y-111316759D01*
X187729398Y-111400424D01*
X187559559Y-111451944D01*
X187493375Y-111458462D01*
X187427192Y-111464981D01*
X187338672Y-111464981D01*
X187272489Y-111458462D01*
X187206305Y-111451944D01*
X187036466Y-111400424D01*
X186879941Y-111316759D01*
X186844203Y-111287429D01*
X186742746Y-111204167D01*
X186659484Y-111102710D01*
X186630154Y-111066972D01*
X186546489Y-110910447D01*
X186494969Y-110740608D01*
X186477573Y-110563981D01*
X186494969Y-110387354D01*
X186546489Y-110217515D01*
X186630154Y-110060990D01*
X186667177Y-110015878D01*
X186742746Y-109923795D01*
X186869685Y-109819620D01*
X186879941Y-109811203D01*
X187036466Y-109727538D01*
X187206305Y-109676018D01*
X187272490Y-109669499D01*
X187338672Y-109662981D01*
X187427192Y-109662981D01*
X187493374Y-109669499D01*
X187493374Y-109669499D01*
G37*
G36*
X159969000Y-111434500D02*
G01*
X158367000Y-111434500D01*
X158367000Y-110332500D01*
X159969000Y-110332500D01*
X159969000Y-111434500D01*
X159969000Y-111434500D01*
G37*
G36*
X155069000Y-111434500D02*
G01*
X153467000Y-111434500D01*
X153467000Y-110332500D01*
X155069000Y-110332500D01*
X155069000Y-111434500D01*
X155069000Y-111434500D01*
G37*
G36*
X119075000Y-110228000D02*
G01*
X117473000Y-110228000D01*
X117473000Y-109126000D01*
X119075000Y-109126000D01*
X119075000Y-110228000D01*
X119075000Y-110228000D01*
G37*
G36*
X114175000Y-110228000D02*
G01*
X112573000Y-110228000D01*
X112573000Y-109126000D01*
X114175000Y-109126000D01*
X114175000Y-110228000D01*
X114175000Y-110228000D01*
G37*
G36*
X85734091Y-108284953D02*
G01*
X85800276Y-108291472D01*
X85970115Y-108342992D01*
X86126640Y-108426657D01*
X86162378Y-108455987D01*
X86263835Y-108539249D01*
X86347097Y-108640706D01*
X86376427Y-108676444D01*
X86460092Y-108832969D01*
X86511612Y-109002808D01*
X86529008Y-109179435D01*
X86511612Y-109356062D01*
X86460092Y-109525901D01*
X86376427Y-109682426D01*
X86347097Y-109718164D01*
X86263835Y-109819621D01*
X86162378Y-109902883D01*
X86126640Y-109932213D01*
X85970115Y-110015878D01*
X85800276Y-110067398D01*
X85734091Y-110073917D01*
X85667909Y-110080435D01*
X85579389Y-110080435D01*
X85513207Y-110073917D01*
X85447022Y-110067398D01*
X85277183Y-110015878D01*
X85120658Y-109932213D01*
X85084920Y-109902883D01*
X84983463Y-109819621D01*
X84900201Y-109718164D01*
X84870871Y-109682426D01*
X84787206Y-109525901D01*
X84735686Y-109356062D01*
X84718290Y-109179435D01*
X84735686Y-109002808D01*
X84787206Y-108832969D01*
X84870871Y-108676444D01*
X84900201Y-108640706D01*
X84983463Y-108539249D01*
X85084920Y-108455987D01*
X85120658Y-108426657D01*
X85277183Y-108342992D01*
X85447022Y-108291472D01*
X85513207Y-108284953D01*
X85579389Y-108278435D01*
X85667909Y-108278435D01*
X85734091Y-108284953D01*
X85734091Y-108284953D01*
G37*
G36*
X188362106Y-107282680D02*
G01*
X188428290Y-107289198D01*
X188598129Y-107340718D01*
X188754654Y-107424383D01*
X188790392Y-107453713D01*
X188891849Y-107536975D01*
X188975111Y-107638432D01*
X189004441Y-107674170D01*
X189088106Y-107830695D01*
X189139626Y-108000534D01*
X189157022Y-108177161D01*
X189139626Y-108353788D01*
X189088106Y-108523627D01*
X189004441Y-108680152D01*
X188975111Y-108715890D01*
X188891849Y-108817347D01*
X188790392Y-108900609D01*
X188754654Y-108929939D01*
X188598129Y-109013604D01*
X188428290Y-109065124D01*
X188362105Y-109071643D01*
X188295923Y-109078161D01*
X188207403Y-109078161D01*
X188141221Y-109071643D01*
X188075036Y-109065124D01*
X187905197Y-109013604D01*
X187748672Y-108929939D01*
X187712934Y-108900609D01*
X187611477Y-108817347D01*
X187528215Y-108715890D01*
X187498885Y-108680152D01*
X187415220Y-108523627D01*
X187363700Y-108353788D01*
X187346304Y-108177161D01*
X187363700Y-108000534D01*
X187415220Y-107830695D01*
X187498885Y-107674170D01*
X187528215Y-107638432D01*
X187611477Y-107536975D01*
X187712934Y-107453713D01*
X187748672Y-107424383D01*
X187905197Y-107340718D01*
X188075036Y-107289198D01*
X188141220Y-107282680D01*
X188207403Y-107276161D01*
X188295923Y-107276161D01*
X188362106Y-107282680D01*
X188362106Y-107282680D01*
G37*
G36*
X159969000Y-108234500D02*
G01*
X158367000Y-108234500D01*
X158367000Y-107132500D01*
X159969000Y-107132500D01*
X159969000Y-108234500D01*
X159969000Y-108234500D01*
G37*
G36*
X155069000Y-108234500D02*
G01*
X153467000Y-108234500D01*
X153467000Y-107132500D01*
X155069000Y-107132500D01*
X155069000Y-108234500D01*
X155069000Y-108234500D01*
G37*
G36*
X114175000Y-107028000D02*
G01*
X112573000Y-107028000D01*
X112573000Y-105926000D01*
X114175000Y-105926000D01*
X114175000Y-107028000D01*
X114175000Y-107028000D01*
G37*
G36*
X119075000Y-107028000D02*
G01*
X117473000Y-107028000D01*
X117473000Y-105926000D01*
X119075000Y-105926000D01*
X119075000Y-107028000D01*
X119075000Y-107028000D01*
G37*
G36*
X188962925Y-104774204D02*
G01*
X190275217Y-105251839D01*
X189658897Y-106945165D01*
X189658896Y-106945165D01*
X189207039Y-106780702D01*
X187965571Y-106328845D01*
X188026662Y-106161000D01*
X188475346Y-104928250D01*
X188581891Y-104635519D01*
X188581892Y-104635519D01*
X188962925Y-104774204D01*
X188962925Y-104774204D01*
G37*
G36*
X156518468Y-104663565D02*
G01*
X156557138Y-104675296D01*
X156592777Y-104694346D01*
X156624017Y-104719983D01*
X156649654Y-104751223D01*
X156668704Y-104786862D01*
X156680435Y-104825532D01*
X156685000Y-104871888D01*
X156685000Y-105948112D01*
X156680435Y-105994468D01*
X156668704Y-106033138D01*
X156649654Y-106068777D01*
X156624017Y-106100017D01*
X156592777Y-106125654D01*
X156557138Y-106144704D01*
X156518468Y-106156435D01*
X156472112Y-106161000D01*
X155820888Y-106161000D01*
X155774532Y-106156435D01*
X155735862Y-106144704D01*
X155700223Y-106125654D01*
X155668983Y-106100017D01*
X155643346Y-106068777D01*
X155624296Y-106033138D01*
X155612565Y-105994468D01*
X155608000Y-105948112D01*
X155608000Y-104871888D01*
X155612565Y-104825532D01*
X155624296Y-104786862D01*
X155643346Y-104751223D01*
X155668983Y-104719983D01*
X155700223Y-104694346D01*
X155735862Y-104675296D01*
X155774532Y-104663565D01*
X155820888Y-104659000D01*
X156472112Y-104659000D01*
X156518468Y-104663565D01*
X156518468Y-104663565D01*
G37*
G36*
X154643468Y-104663565D02*
G01*
X154682138Y-104675296D01*
X154717777Y-104694346D01*
X154749017Y-104719983D01*
X154774654Y-104751223D01*
X154793704Y-104786862D01*
X154805435Y-104825532D01*
X154810000Y-104871888D01*
X154810000Y-105948112D01*
X154805435Y-105994468D01*
X154793704Y-106033138D01*
X154774654Y-106068777D01*
X154749017Y-106100017D01*
X154717777Y-106125654D01*
X154682138Y-106144704D01*
X154643468Y-106156435D01*
X154597112Y-106161000D01*
X153945888Y-106161000D01*
X153899532Y-106156435D01*
X153860862Y-106144704D01*
X153825223Y-106125654D01*
X153793983Y-106100017D01*
X153768346Y-106068777D01*
X153749296Y-106033138D01*
X153737565Y-105994468D01*
X153733000Y-105948112D01*
X153733000Y-104871888D01*
X153737565Y-104825532D01*
X153749296Y-104786862D01*
X153768346Y-104751223D01*
X153793983Y-104719983D01*
X153825223Y-104694346D01*
X153860862Y-104675296D01*
X153899532Y-104663565D01*
X153945888Y-104659000D01*
X154597112Y-104659000D01*
X154643468Y-104663565D01*
X154643468Y-104663565D01*
G37*
G36*
X113931968Y-103718065D02*
G01*
X113970638Y-103729796D01*
X114006277Y-103748846D01*
X114037517Y-103774483D01*
X114063154Y-103805723D01*
X114082204Y-103841362D01*
X114093935Y-103880032D01*
X114098500Y-103926388D01*
X114098500Y-104577612D01*
X114093935Y-104623968D01*
X114082204Y-104662638D01*
X114063154Y-104698277D01*
X114037517Y-104729517D01*
X114006277Y-104755154D01*
X113970638Y-104774204D01*
X113931968Y-104785935D01*
X113885612Y-104790500D01*
X112809388Y-104790500D01*
X112763032Y-104785935D01*
X112724362Y-104774204D01*
X112688723Y-104755154D01*
X112657483Y-104729517D01*
X112631846Y-104698277D01*
X112612796Y-104662638D01*
X112601065Y-104623968D01*
X112596500Y-104577612D01*
X112596500Y-103926388D01*
X112601065Y-103880032D01*
X112612796Y-103841362D01*
X112631846Y-103805723D01*
X112657483Y-103774483D01*
X112688723Y-103748846D01*
X112724362Y-103729796D01*
X112763032Y-103718065D01*
X112809388Y-103713500D01*
X113885612Y-103713500D01*
X113931968Y-103718065D01*
X113931968Y-103718065D01*
G37*
G36*
X113931968Y-101843065D02*
G01*
X113970638Y-101854796D01*
X114006277Y-101873846D01*
X114037517Y-101899483D01*
X114063154Y-101930723D01*
X114082204Y-101966362D01*
X114093935Y-102005032D01*
X114098500Y-102051388D01*
X114098500Y-102702612D01*
X114093935Y-102748968D01*
X114082204Y-102787638D01*
X114063154Y-102823277D01*
X114037517Y-102854517D01*
X114006277Y-102880154D01*
X113970638Y-102899204D01*
X113931968Y-102910935D01*
X113885612Y-102915500D01*
X112809388Y-102915500D01*
X112763032Y-102910935D01*
X112724362Y-102899204D01*
X112688723Y-102880154D01*
X112657483Y-102854517D01*
X112631846Y-102823277D01*
X112612796Y-102787638D01*
X112601065Y-102748968D01*
X112596500Y-102702612D01*
X112596500Y-102051388D01*
X112601065Y-102005032D01*
X112612796Y-101966362D01*
X112631846Y-101930723D01*
X112657483Y-101899483D01*
X112688723Y-101873846D01*
X112724362Y-101854796D01*
X112763032Y-101843065D01*
X112809388Y-101838500D01*
X113885612Y-101838500D01*
X113931968Y-101843065D01*
X113931968Y-101843065D01*
G37*
G36*
X78986000Y-93421000D02*
G01*
X77884000Y-93421000D01*
X77884000Y-91819000D01*
X78986000Y-91819000D01*
X78986000Y-93421000D01*
X78986000Y-93421000D01*
G37*
G36*
X195801000Y-93421000D02*
G01*
X194699000Y-93421000D01*
X194699000Y-91819000D01*
X195801000Y-91819000D01*
X195801000Y-93421000D01*
X195801000Y-93421000D01*
G37*
G36*
X75786000Y-93421000D02*
G01*
X74684000Y-93421000D01*
X74684000Y-91819000D01*
X75786000Y-91819000D01*
X75786000Y-93421000D01*
X75786000Y-93421000D01*
G37*
G36*
X199001000Y-93421000D02*
G01*
X197899000Y-93421000D01*
X197899000Y-91819000D01*
X199001000Y-91819000D01*
X199001000Y-93421000D01*
X199001000Y-93421000D01*
G37*
G36*
X193284968Y-91900065D02*
G01*
X193323638Y-91911796D01*
X193359277Y-91930846D01*
X193390517Y-91956483D01*
X193416154Y-91987723D01*
X193435204Y-92023362D01*
X193446935Y-92062032D01*
X193451500Y-92108388D01*
X193451500Y-93184612D01*
X193446935Y-93230968D01*
X193435204Y-93269638D01*
X193416154Y-93305277D01*
X193390517Y-93336517D01*
X193359277Y-93362154D01*
X193323638Y-93381204D01*
X193284968Y-93392935D01*
X193238612Y-93397500D01*
X192587388Y-93397500D01*
X192541032Y-93392935D01*
X192502362Y-93381204D01*
X192466723Y-93362154D01*
X192435483Y-93336517D01*
X192409846Y-93305277D01*
X192390796Y-93269638D01*
X192379065Y-93230968D01*
X192374500Y-93184612D01*
X192374500Y-92108388D01*
X192379065Y-92062032D01*
X192390796Y-92023362D01*
X192409846Y-91987723D01*
X192435483Y-91956483D01*
X192466723Y-91930846D01*
X192502362Y-91911796D01*
X192541032Y-91900065D01*
X192587388Y-91895500D01*
X193238612Y-91895500D01*
X193284968Y-91900065D01*
X193284968Y-91900065D01*
G37*
G36*
X191409968Y-91900065D02*
G01*
X191448638Y-91911796D01*
X191484277Y-91930846D01*
X191515517Y-91956483D01*
X191541154Y-91987723D01*
X191560204Y-92023362D01*
X191571935Y-92062032D01*
X191576500Y-92108388D01*
X191576500Y-93184612D01*
X191571935Y-93230968D01*
X191560204Y-93269638D01*
X191541154Y-93305277D01*
X191515517Y-93336517D01*
X191484277Y-93362154D01*
X191448638Y-93381204D01*
X191409968Y-93392935D01*
X191363612Y-93397500D01*
X190712388Y-93397500D01*
X190666032Y-93392935D01*
X190627362Y-93381204D01*
X190591723Y-93362154D01*
X190560483Y-93336517D01*
X190534846Y-93305277D01*
X190515796Y-93269638D01*
X190504065Y-93230968D01*
X190499500Y-93184612D01*
X190499500Y-92108388D01*
X190504065Y-92062032D01*
X190515796Y-92023362D01*
X190534846Y-91987723D01*
X190560483Y-91956483D01*
X190591723Y-91930846D01*
X190627362Y-91911796D01*
X190666032Y-91900065D01*
X190712388Y-91895500D01*
X191363612Y-91895500D01*
X191409968Y-91900065D01*
X191409968Y-91900065D01*
G37*
G36*
X78986000Y-88521000D02*
G01*
X77884000Y-88521000D01*
X77884000Y-86919000D01*
X78986000Y-86919000D01*
X78986000Y-88521000D01*
X78986000Y-88521000D01*
G37*
G36*
X195801000Y-88521000D02*
G01*
X194699000Y-88521000D01*
X194699000Y-86919000D01*
X195801000Y-86919000D01*
X195801000Y-88521000D01*
X195801000Y-88521000D01*
G37*
G36*
X75786000Y-88521000D02*
G01*
X74684000Y-88521000D01*
X74684000Y-86919000D01*
X75786000Y-86919000D01*
X75786000Y-88521000D01*
X75786000Y-88521000D01*
G37*
G36*
X199001000Y-88521000D02*
G01*
X197899000Y-88521000D01*
X197899000Y-86919000D01*
X199001000Y-86919000D01*
X199001000Y-88521000D01*
X199001000Y-88521000D01*
G37*
G36*
X80684468Y-84724565D02*
G01*
X80723138Y-84736296D01*
X80758777Y-84755346D01*
X80790017Y-84780983D01*
X80815654Y-84812223D01*
X80834704Y-84847862D01*
X80846435Y-84886532D01*
X80851000Y-84932888D01*
X80851000Y-86009112D01*
X80846435Y-86055468D01*
X80834704Y-86094138D01*
X80815654Y-86129777D01*
X80790017Y-86161017D01*
X80758777Y-86186654D01*
X80723138Y-86205704D01*
X80684468Y-86217435D01*
X80638112Y-86222000D01*
X79986888Y-86222000D01*
X79940532Y-86217435D01*
X79901862Y-86205704D01*
X79866223Y-86186654D01*
X79834983Y-86161017D01*
X79809346Y-86129777D01*
X79790296Y-86094138D01*
X79778565Y-86055468D01*
X79774000Y-86009112D01*
X79774000Y-84932888D01*
X79778565Y-84886532D01*
X79790296Y-84847862D01*
X79809346Y-84812223D01*
X79834983Y-84780983D01*
X79866223Y-84755346D01*
X79901862Y-84736296D01*
X79940532Y-84724565D01*
X79986888Y-84720000D01*
X80638112Y-84720000D01*
X80684468Y-84724565D01*
X80684468Y-84724565D01*
G37*
G36*
X78809468Y-84724565D02*
G01*
X78848138Y-84736296D01*
X78883777Y-84755346D01*
X78915017Y-84780983D01*
X78940654Y-84812223D01*
X78959704Y-84847862D01*
X78971435Y-84886532D01*
X78976000Y-84932888D01*
X78976000Y-86009112D01*
X78971435Y-86055468D01*
X78959704Y-86094138D01*
X78940654Y-86129777D01*
X78915017Y-86161017D01*
X78883777Y-86186654D01*
X78848138Y-86205704D01*
X78809468Y-86217435D01*
X78763112Y-86222000D01*
X78111888Y-86222000D01*
X78065532Y-86217435D01*
X78026862Y-86205704D01*
X77991223Y-86186654D01*
X77959983Y-86161017D01*
X77934346Y-86129777D01*
X77915296Y-86094138D01*
X77903565Y-86055468D01*
X77899000Y-86009112D01*
X77899000Y-84932888D01*
X77903565Y-84886532D01*
X77915296Y-84847862D01*
X77934346Y-84812223D01*
X77959983Y-84780983D01*
X77991223Y-84755346D01*
X78026862Y-84736296D01*
X78065532Y-84724565D01*
X78111888Y-84720000D01*
X78763112Y-84720000D01*
X78809468Y-84724565D01*
X78809468Y-84724565D01*
G37*
G36*
X155524468Y-76794065D02*
G01*
X155563138Y-76805796D01*
X155598777Y-76824846D01*
X155630017Y-76850483D01*
X155655654Y-76881723D01*
X155674704Y-76917362D01*
X155686435Y-76956032D01*
X155691000Y-77002388D01*
X155691000Y-77653612D01*
X155686435Y-77699968D01*
X155674704Y-77738638D01*
X155655654Y-77774277D01*
X155630017Y-77805517D01*
X155598777Y-77831154D01*
X155563138Y-77850204D01*
X155524468Y-77861935D01*
X155478112Y-77866500D01*
X154401888Y-77866500D01*
X154355532Y-77861935D01*
X154316862Y-77850204D01*
X154281223Y-77831154D01*
X154249983Y-77805517D01*
X154224346Y-77774277D01*
X154205296Y-77738638D01*
X154193565Y-77699968D01*
X154189000Y-77653612D01*
X154189000Y-77002388D01*
X154193565Y-76956032D01*
X154205296Y-76917362D01*
X154224346Y-76881723D01*
X154249983Y-76850483D01*
X154281223Y-76824846D01*
X154316862Y-76805796D01*
X154355532Y-76794065D01*
X154401888Y-76789500D01*
X155478112Y-76789500D01*
X155524468Y-76794065D01*
X155524468Y-76794065D01*
G37*
G36*
X155524468Y-74919065D02*
G01*
X155563138Y-74930796D01*
X155598777Y-74949846D01*
X155630017Y-74975483D01*
X155655654Y-75006723D01*
X155674704Y-75042362D01*
X155686435Y-75081032D01*
X155691000Y-75127388D01*
X155691000Y-75778612D01*
X155686435Y-75824968D01*
X155674704Y-75863638D01*
X155655654Y-75899277D01*
X155630017Y-75930517D01*
X155598777Y-75956154D01*
X155563138Y-75975204D01*
X155524468Y-75986935D01*
X155478112Y-75991500D01*
X154401888Y-75991500D01*
X154355532Y-75986935D01*
X154316862Y-75975204D01*
X154281223Y-75956154D01*
X154249983Y-75930517D01*
X154224346Y-75899277D01*
X154205296Y-75863638D01*
X154193565Y-75824968D01*
X154189000Y-75778612D01*
X154189000Y-75127388D01*
X154193565Y-75081032D01*
X154205296Y-75042362D01*
X154224346Y-75006723D01*
X154249983Y-74975483D01*
X154281223Y-74949846D01*
X154316862Y-74930796D01*
X154355532Y-74919065D01*
X154401888Y-74914500D01*
X155478112Y-74914500D01*
X155524468Y-74919065D01*
X155524468Y-74919065D01*
G37*
G36*
X84348510Y-73506722D02*
G01*
X85734429Y-74011155D01*
X85118109Y-75704481D01*
X85118108Y-75704481D01*
X84666251Y-75540018D01*
X83424783Y-75088161D01*
X83427378Y-75081032D01*
X83816781Y-74011155D01*
X84041103Y-73394835D01*
X84041104Y-73394835D01*
X84348510Y-73506722D01*
X84348510Y-73506722D01*
G37*
G36*
X118583500Y-74866500D02*
G01*
X117481500Y-74866500D01*
X117481500Y-73264500D01*
X118583500Y-73264500D01*
X118583500Y-74866500D01*
X118583500Y-74866500D01*
G37*
G36*
X115383500Y-74866500D02*
G01*
X114281500Y-74866500D01*
X114281500Y-73264500D01*
X115383500Y-73264500D01*
X115383500Y-74866500D01*
X115383500Y-74866500D01*
G37*
G36*
X112878968Y-73294565D02*
G01*
X112917638Y-73306296D01*
X112953277Y-73325346D01*
X112984517Y-73350983D01*
X113010154Y-73382223D01*
X113029204Y-73417862D01*
X113040935Y-73456532D01*
X113045500Y-73502888D01*
X113045500Y-74579112D01*
X113040935Y-74625468D01*
X113029204Y-74664138D01*
X113010154Y-74699777D01*
X112984517Y-74731017D01*
X112953277Y-74756654D01*
X112917638Y-74775704D01*
X112878968Y-74787435D01*
X112832612Y-74792000D01*
X112181388Y-74792000D01*
X112135032Y-74787435D01*
X112096362Y-74775704D01*
X112060723Y-74756654D01*
X112029483Y-74731017D01*
X112003846Y-74699777D01*
X111984796Y-74664138D01*
X111973065Y-74625468D01*
X111968500Y-74579112D01*
X111968500Y-73502888D01*
X111973065Y-73456532D01*
X111984796Y-73417862D01*
X112003846Y-73382223D01*
X112029483Y-73350983D01*
X112060723Y-73325346D01*
X112096362Y-73306296D01*
X112135032Y-73294565D01*
X112181388Y-73290000D01*
X112832612Y-73290000D01*
X112878968Y-73294565D01*
X112878968Y-73294565D01*
G37*
G36*
X111003968Y-73294565D02*
G01*
X111042638Y-73306296D01*
X111078277Y-73325346D01*
X111109517Y-73350983D01*
X111135154Y-73382223D01*
X111154204Y-73417862D01*
X111165935Y-73456532D01*
X111170500Y-73502888D01*
X111170500Y-74579112D01*
X111165935Y-74625468D01*
X111154204Y-74664138D01*
X111135154Y-74699777D01*
X111109517Y-74731017D01*
X111078277Y-74756654D01*
X111042638Y-74775704D01*
X111003968Y-74787435D01*
X110957612Y-74792000D01*
X110306388Y-74792000D01*
X110260032Y-74787435D01*
X110221362Y-74775704D01*
X110185723Y-74756654D01*
X110154483Y-74731017D01*
X110128846Y-74699777D01*
X110109796Y-74664138D01*
X110098065Y-74625468D01*
X110093500Y-74579112D01*
X110093500Y-73502888D01*
X110098065Y-73456532D01*
X110109796Y-73417862D01*
X110128846Y-73382223D01*
X110154483Y-73350983D01*
X110185723Y-73325346D01*
X110221362Y-73306296D01*
X110260032Y-73294565D01*
X110306388Y-73290000D01*
X110957612Y-73290000D01*
X111003968Y-73294565D01*
X111003968Y-73294565D01*
G37*
G36*
X158742000Y-74053500D02*
G01*
X157640000Y-74053500D01*
X157640000Y-72451500D01*
X158742000Y-72451500D01*
X158742000Y-74053500D01*
X158742000Y-74053500D01*
G37*
G36*
X155542000Y-74053500D02*
G01*
X154440000Y-74053500D01*
X154440000Y-72451500D01*
X155542000Y-72451500D01*
X155542000Y-74053500D01*
X155542000Y-74053500D01*
G37*
G36*
X85558779Y-71268357D02*
G01*
X85624964Y-71274876D01*
X85794803Y-71326396D01*
X85951328Y-71410061D01*
X85987066Y-71439391D01*
X86088523Y-71522653D01*
X86171785Y-71624110D01*
X86201115Y-71659848D01*
X86284780Y-71816373D01*
X86336300Y-71986212D01*
X86353696Y-72162839D01*
X86336300Y-72339466D01*
X86284780Y-72509305D01*
X86201115Y-72665830D01*
X86171785Y-72701568D01*
X86088523Y-72803025D01*
X85987066Y-72886287D01*
X85951328Y-72915617D01*
X85794803Y-72999282D01*
X85624964Y-73050802D01*
X85558779Y-73057321D01*
X85492597Y-73063839D01*
X85404077Y-73063839D01*
X85337895Y-73057321D01*
X85271710Y-73050802D01*
X85101871Y-72999282D01*
X84945346Y-72915617D01*
X84909608Y-72886287D01*
X84808151Y-72803025D01*
X84724889Y-72701568D01*
X84695559Y-72665830D01*
X84611894Y-72509305D01*
X84560374Y-72339466D01*
X84542978Y-72162839D01*
X84560374Y-71986212D01*
X84611894Y-71816373D01*
X84695559Y-71659848D01*
X84724889Y-71624110D01*
X84808151Y-71522653D01*
X84909608Y-71439391D01*
X84945346Y-71410061D01*
X85101871Y-71326396D01*
X85271710Y-71274876D01*
X85337895Y-71268357D01*
X85404077Y-71261839D01*
X85492597Y-71261839D01*
X85558779Y-71268357D01*
X85558779Y-71268357D01*
G37*
G36*
X188186794Y-70266084D02*
G01*
X188252978Y-70272602D01*
X188422817Y-70324122D01*
X188579342Y-70407787D01*
X188589598Y-70416204D01*
X188716537Y-70520379D01*
X188792106Y-70612462D01*
X188829129Y-70657574D01*
X188912794Y-70814099D01*
X188964314Y-70983938D01*
X188981710Y-71160565D01*
X188964314Y-71337192D01*
X188912794Y-71507031D01*
X188829129Y-71663556D01*
X188799799Y-71699294D01*
X188716537Y-71800751D01*
X188615080Y-71884013D01*
X188579342Y-71913343D01*
X188422817Y-71997008D01*
X188252978Y-72048528D01*
X188186793Y-72055047D01*
X188120611Y-72061565D01*
X188032091Y-72061565D01*
X187965909Y-72055047D01*
X187899724Y-72048528D01*
X187729885Y-71997008D01*
X187573360Y-71913343D01*
X187537622Y-71884013D01*
X187436165Y-71800751D01*
X187352903Y-71699294D01*
X187323573Y-71663556D01*
X187239908Y-71507031D01*
X187188388Y-71337192D01*
X187170992Y-71160565D01*
X187188388Y-70983938D01*
X187239908Y-70814099D01*
X187323573Y-70657574D01*
X187360596Y-70612462D01*
X187436165Y-70520379D01*
X187563104Y-70416204D01*
X187573360Y-70407787D01*
X187729885Y-70324122D01*
X187899724Y-70272602D01*
X187965908Y-70266084D01*
X188032091Y-70259565D01*
X188120611Y-70259565D01*
X188186794Y-70266084D01*
X188186794Y-70266084D01*
G37*
G36*
X86427510Y-68881537D02*
G01*
X86493695Y-68888056D01*
X86663534Y-68939576D01*
X86820059Y-69023241D01*
X86855797Y-69052571D01*
X86957254Y-69135833D01*
X87040516Y-69237290D01*
X87069846Y-69273028D01*
X87153511Y-69429553D01*
X87205031Y-69599392D01*
X87222427Y-69776019D01*
X87205031Y-69952646D01*
X87153511Y-70122485D01*
X87069846Y-70279010D01*
X87040516Y-70314748D01*
X86957254Y-70416205D01*
X86855797Y-70499467D01*
X86820059Y-70528797D01*
X86663534Y-70612462D01*
X86493695Y-70663982D01*
X86427511Y-70670500D01*
X86361328Y-70677019D01*
X86272808Y-70677019D01*
X86206625Y-70670500D01*
X86140441Y-70663982D01*
X85970602Y-70612462D01*
X85814077Y-70528797D01*
X85778339Y-70499467D01*
X85676882Y-70416205D01*
X85593620Y-70314748D01*
X85564290Y-70279010D01*
X85480625Y-70122485D01*
X85429105Y-69952646D01*
X85411709Y-69776019D01*
X85429105Y-69599392D01*
X85480625Y-69429553D01*
X85564290Y-69273028D01*
X85593620Y-69237290D01*
X85676882Y-69135833D01*
X85778339Y-69052571D01*
X85814077Y-69023241D01*
X85970602Y-68939576D01*
X86140441Y-68888056D01*
X86206626Y-68881537D01*
X86272808Y-68875019D01*
X86361328Y-68875019D01*
X86427510Y-68881537D01*
X86427510Y-68881537D01*
G37*
G36*
X115383500Y-69966500D02*
G01*
X114281500Y-69966500D01*
X114281500Y-68364500D01*
X115383500Y-68364500D01*
X115383500Y-69966500D01*
X115383500Y-69966500D01*
G37*
G36*
X118583500Y-69966500D02*
G01*
X117481500Y-69966500D01*
X117481500Y-68364500D01*
X118583500Y-68364500D01*
X118583500Y-69966500D01*
X118583500Y-69966500D01*
G37*
G36*
X187113344Y-67964063D02*
G01*
X187179528Y-67970581D01*
X187349367Y-68022101D01*
X187505892Y-68105766D01*
X187541630Y-68135096D01*
X187643087Y-68218358D01*
X187691346Y-68277163D01*
X187755679Y-68355553D01*
X187839344Y-68512078D01*
X187890864Y-68681917D01*
X187908260Y-68858544D01*
X187890864Y-69035171D01*
X187839344Y-69205010D01*
X187755679Y-69361535D01*
X187726349Y-69397273D01*
X187643087Y-69498730D01*
X187541630Y-69581992D01*
X187505892Y-69611322D01*
X187349367Y-69694987D01*
X187179528Y-69746507D01*
X187113344Y-69753025D01*
X187047161Y-69759544D01*
X186958641Y-69759544D01*
X186892458Y-69753025D01*
X186826274Y-69746507D01*
X186656435Y-69694987D01*
X186499910Y-69611322D01*
X186464172Y-69581992D01*
X186362715Y-69498730D01*
X186279453Y-69397273D01*
X186250123Y-69361535D01*
X186166458Y-69205010D01*
X186114938Y-69035171D01*
X186097542Y-68858544D01*
X186114938Y-68681917D01*
X186166458Y-68512078D01*
X186250123Y-68355553D01*
X186314456Y-68277163D01*
X186362715Y-68218358D01*
X186464172Y-68135096D01*
X186499910Y-68105766D01*
X186656435Y-68022101D01*
X186826274Y-67970581D01*
X186892458Y-67964063D01*
X186958641Y-67957544D01*
X187047161Y-67957544D01*
X187113344Y-67964063D01*
X187113344Y-67964063D01*
G37*
G36*
X155542000Y-69153500D02*
G01*
X154440000Y-69153500D01*
X154440000Y-67551500D01*
X155542000Y-67551500D01*
X155542000Y-69153500D01*
X155542000Y-69153500D01*
G37*
G36*
X158742000Y-69153500D02*
G01*
X157640000Y-69153500D01*
X157640000Y-67551500D01*
X158742000Y-67551500D01*
X158742000Y-69153500D01*
X158742000Y-69153500D01*
G37*
G36*
X169762254Y-64956818D02*
G01*
X170135511Y-65111426D01*
X170135513Y-65111427D01*
X170471436Y-65335884D01*
X170757116Y-65621564D01*
X170954077Y-65916336D01*
X170981574Y-65957489D01*
X171136182Y-66330746D01*
X171215000Y-66726993D01*
X171215000Y-67131007D01*
X171136182Y-67527254D01*
X171049855Y-67735666D01*
X170981573Y-67900513D01*
X170757116Y-68236436D01*
X170471436Y-68522116D01*
X170135513Y-68746573D01*
X170135512Y-68746574D01*
X170135511Y-68746574D01*
X169762254Y-68901182D01*
X169366007Y-68980000D01*
X168961993Y-68980000D01*
X168565746Y-68901182D01*
X168192489Y-68746574D01*
X168192488Y-68746574D01*
X168192487Y-68746573D01*
X167856564Y-68522116D01*
X167570884Y-68236436D01*
X167346427Y-67900513D01*
X167278145Y-67735666D01*
X167191818Y-67527254D01*
X167113000Y-67131007D01*
X167113000Y-66726993D01*
X167191818Y-66330746D01*
X167346426Y-65957489D01*
X167373924Y-65916336D01*
X167570884Y-65621564D01*
X167856564Y-65335884D01*
X168192487Y-65111427D01*
X168192489Y-65111426D01*
X168565746Y-64956818D01*
X168961993Y-64878000D01*
X169366007Y-64878000D01*
X169762254Y-64956818D01*
X169762254Y-64956818D01*
G37*
G36*
X104762254Y-64956818D02*
G01*
X105135511Y-65111426D01*
X105135513Y-65111427D01*
X105471436Y-65335884D01*
X105757116Y-65621564D01*
X105954077Y-65916336D01*
X105981574Y-65957489D01*
X106136182Y-66330746D01*
X106215000Y-66726993D01*
X106215000Y-67131007D01*
X106136182Y-67527254D01*
X106049855Y-67735666D01*
X105981573Y-67900513D01*
X105757116Y-68236436D01*
X105471436Y-68522116D01*
X105135513Y-68746573D01*
X105135512Y-68746574D01*
X105135511Y-68746574D01*
X104762254Y-68901182D01*
X104366007Y-68980000D01*
X103961993Y-68980000D01*
X103565746Y-68901182D01*
X103192489Y-68746574D01*
X103192488Y-68746574D01*
X103192487Y-68746573D01*
X102856564Y-68522116D01*
X102570884Y-68236436D01*
X102346427Y-67900513D01*
X102278145Y-67735666D01*
X102191818Y-67527254D01*
X102113000Y-67131007D01*
X102113000Y-66726993D01*
X102191818Y-66330746D01*
X102346426Y-65957489D01*
X102373924Y-65916336D01*
X102570884Y-65621564D01*
X102856564Y-65335884D01*
X103192487Y-65111427D01*
X103192489Y-65111426D01*
X103565746Y-64956818D01*
X103961993Y-64878000D01*
X104366007Y-64878000D01*
X104762254Y-64956818D01*
X104762254Y-64956818D01*
G37*
G36*
X87296242Y-66494719D02*
G01*
X87362426Y-66501237D01*
X87532265Y-66552757D01*
X87688790Y-66636422D01*
X87724528Y-66665752D01*
X87825985Y-66749014D01*
X87909247Y-66850471D01*
X87938577Y-66886209D01*
X88022242Y-67042734D01*
X88073762Y-67212573D01*
X88091158Y-67389200D01*
X88073762Y-67565827D01*
X88022242Y-67735666D01*
X87938577Y-67892191D01*
X87931747Y-67900513D01*
X87825985Y-68029386D01*
X87732914Y-68105766D01*
X87688790Y-68141978D01*
X87532265Y-68225643D01*
X87362426Y-68277163D01*
X87296241Y-68283682D01*
X87230059Y-68290200D01*
X87141539Y-68290200D01*
X87075357Y-68283682D01*
X87009172Y-68277163D01*
X86839333Y-68225643D01*
X86682808Y-68141978D01*
X86638684Y-68105766D01*
X86545613Y-68029386D01*
X86439851Y-67900513D01*
X86433021Y-67892191D01*
X86349356Y-67735666D01*
X86297836Y-67565827D01*
X86280440Y-67389200D01*
X86297836Y-67212573D01*
X86349356Y-67042734D01*
X86433021Y-66886209D01*
X86462351Y-66850471D01*
X86545613Y-66749014D01*
X86647070Y-66665752D01*
X86682808Y-66636422D01*
X86839333Y-66552757D01*
X87009172Y-66501237D01*
X87075356Y-66494719D01*
X87141539Y-66488200D01*
X87230059Y-66488200D01*
X87296242Y-66494719D01*
X87296242Y-66494719D01*
G37*
G36*
X186039892Y-65662040D02*
G01*
X186106077Y-65668559D01*
X186275916Y-65720079D01*
X186432441Y-65803744D01*
X186468179Y-65833074D01*
X186569636Y-65916336D01*
X186652898Y-66017793D01*
X186682228Y-66053531D01*
X186765893Y-66210056D01*
X186817413Y-66379895D01*
X186834809Y-66556522D01*
X186817413Y-66733149D01*
X186765893Y-66902988D01*
X186682228Y-67059513D01*
X186652898Y-67095251D01*
X186569636Y-67196708D01*
X186468179Y-67279970D01*
X186432441Y-67309300D01*
X186275916Y-67392965D01*
X186106077Y-67444485D01*
X186039893Y-67451003D01*
X185973710Y-67457522D01*
X185885190Y-67457522D01*
X185819007Y-67451003D01*
X185752823Y-67444485D01*
X185582984Y-67392965D01*
X185426459Y-67309300D01*
X185390721Y-67279970D01*
X185289264Y-67196708D01*
X185206002Y-67095251D01*
X185176672Y-67059513D01*
X185093007Y-66902988D01*
X185041487Y-66733149D01*
X185024091Y-66556522D01*
X185041487Y-66379895D01*
X185093007Y-66210056D01*
X185176672Y-66053531D01*
X185206002Y-66017793D01*
X185289264Y-65916336D01*
X185390721Y-65833074D01*
X185426459Y-65803744D01*
X185582984Y-65720079D01*
X185752823Y-65668559D01*
X185819008Y-65662040D01*
X185885190Y-65655522D01*
X185973710Y-65655522D01*
X186039892Y-65662040D01*
X186039892Y-65662040D01*
G37*
G36*
X186053362Y-64690304D02*
G01*
X184420196Y-65451862D01*
X183658638Y-63818696D01*
X185291804Y-63057138D01*
X186053362Y-64690304D01*
X186053362Y-64690304D01*
G37*
G36*
X133362000Y-64591500D02*
G01*
X131560000Y-64591500D01*
X131560000Y-62789500D01*
X133362000Y-62789500D01*
X133362000Y-64591500D01*
X133362000Y-64591500D01*
G37*
G36*
X133228968Y-57991065D02*
G01*
X133267638Y-58002796D01*
X133303277Y-58021846D01*
X133334517Y-58047483D01*
X133360154Y-58078723D01*
X133379204Y-58114362D01*
X133390935Y-58153032D01*
X133395500Y-58199388D01*
X133395500Y-59275612D01*
X133390935Y-59321968D01*
X133379204Y-59360638D01*
X133360154Y-59396277D01*
X133334517Y-59427517D01*
X133303277Y-59453154D01*
X133267638Y-59472204D01*
X133228968Y-59483935D01*
X133182612Y-59488500D01*
X132531388Y-59488500D01*
X132485032Y-59483935D01*
X132446362Y-59472204D01*
X132410723Y-59453154D01*
X132379483Y-59427517D01*
X132353846Y-59396277D01*
X132334796Y-59360638D01*
X132323065Y-59321968D01*
X132318500Y-59275612D01*
X132318500Y-58199388D01*
X132323065Y-58153032D01*
X132334796Y-58114362D01*
X132353846Y-58078723D01*
X132379483Y-58047483D01*
X132410723Y-58021846D01*
X132446362Y-58002796D01*
X132485032Y-57991065D01*
X132531388Y-57986500D01*
X133182612Y-57986500D01*
X133228968Y-57991065D01*
X133228968Y-57991065D01*
G37*
G36*
X135103968Y-57991065D02*
G01*
X135142638Y-58002796D01*
X135178277Y-58021846D01*
X135209517Y-58047483D01*
X135235154Y-58078723D01*
X135254204Y-58114362D01*
X135265935Y-58153032D01*
X135270500Y-58199388D01*
X135270500Y-59275612D01*
X135265935Y-59321968D01*
X135254204Y-59360638D01*
X135235154Y-59396277D01*
X135209517Y-59427517D01*
X135178277Y-59453154D01*
X135142638Y-59472204D01*
X135103968Y-59483935D01*
X135057612Y-59488500D01*
X134406388Y-59488500D01*
X134360032Y-59483935D01*
X134321362Y-59472204D01*
X134285723Y-59453154D01*
X134254483Y-59427517D01*
X134228846Y-59396277D01*
X134209796Y-59360638D01*
X134198065Y-59321968D01*
X134193500Y-59275612D01*
X134193500Y-58199388D01*
X134198065Y-58153032D01*
X134209796Y-58114362D01*
X134228846Y-58078723D01*
X134254483Y-58047483D01*
X134285723Y-58021846D01*
X134321362Y-58002796D01*
X134360032Y-57991065D01*
X134406388Y-57986500D01*
X135057612Y-57986500D01*
X135103968Y-57991065D01*
X135103968Y-57991065D01*
G37*
G36*
X144474500Y-57987500D02*
G01*
X142672500Y-57987500D01*
X142672500Y-56185500D01*
X144474500Y-56185500D01*
X144474500Y-57987500D01*
X144474500Y-57987500D01*
G37*
G36*
X95516968Y-55013565D02*
G01*
X95555638Y-55025296D01*
X95591277Y-55044346D01*
X95622517Y-55069983D01*
X95648154Y-55101223D01*
X95667204Y-55136862D01*
X95678935Y-55175532D01*
X95683500Y-55221888D01*
X95683500Y-55873112D01*
X95678935Y-55919468D01*
X95667204Y-55958138D01*
X95648154Y-55993777D01*
X95622517Y-56025017D01*
X95591277Y-56050654D01*
X95555638Y-56069704D01*
X95516968Y-56081435D01*
X95470612Y-56086000D01*
X94394388Y-56086000D01*
X94348032Y-56081435D01*
X94309362Y-56069704D01*
X94273723Y-56050654D01*
X94242483Y-56025017D01*
X94216846Y-55993777D01*
X94197796Y-55958138D01*
X94186065Y-55919468D01*
X94181500Y-55873112D01*
X94181500Y-55221888D01*
X94186065Y-55175532D01*
X94197796Y-55136862D01*
X94216846Y-55101223D01*
X94242483Y-55069983D01*
X94273723Y-55044346D01*
X94309362Y-55025296D01*
X94348032Y-55013565D01*
X94394388Y-55009000D01*
X95470612Y-55009000D01*
X95516968Y-55013565D01*
X95516968Y-55013565D01*
G37*
G36*
X143683942Y-53652018D02*
G01*
X143750127Y-53658537D01*
X143919966Y-53710057D01*
X144076491Y-53793722D01*
X144112229Y-53823052D01*
X144213686Y-53906314D01*
X144296948Y-54007771D01*
X144326278Y-54043509D01*
X144326279Y-54043511D01*
X144382517Y-54148723D01*
X144409943Y-54200034D01*
X144461463Y-54369873D01*
X144478859Y-54546500D01*
X144461463Y-54723127D01*
X144409943Y-54892966D01*
X144326278Y-55049491D01*
X144307381Y-55072517D01*
X144213686Y-55186686D01*
X144112229Y-55269948D01*
X144076491Y-55299278D01*
X143919966Y-55382943D01*
X143750127Y-55434463D01*
X143683943Y-55440981D01*
X143617760Y-55447500D01*
X143529240Y-55447500D01*
X143463057Y-55440981D01*
X143396873Y-55434463D01*
X143227034Y-55382943D01*
X143070509Y-55299278D01*
X143034771Y-55269948D01*
X142933314Y-55186686D01*
X142839619Y-55072517D01*
X142820722Y-55049491D01*
X142737057Y-54892966D01*
X142685537Y-54723127D01*
X142668141Y-54546500D01*
X142685537Y-54369873D01*
X142737057Y-54200034D01*
X142764484Y-54148723D01*
X142820721Y-54043511D01*
X142820722Y-54043509D01*
X142850052Y-54007771D01*
X142933314Y-53906314D01*
X143034771Y-53823052D01*
X143070509Y-53793722D01*
X143227034Y-53710057D01*
X143396873Y-53658537D01*
X143463058Y-53652018D01*
X143529240Y-53645500D01*
X143617760Y-53645500D01*
X143683942Y-53652018D01*
X143683942Y-53652018D01*
G37*
G36*
X178638468Y-54061065D02*
G01*
X178677138Y-54072796D01*
X178712777Y-54091846D01*
X178744017Y-54117483D01*
X178769654Y-54148723D01*
X178788704Y-54184362D01*
X178800435Y-54223032D01*
X178805000Y-54269388D01*
X178805000Y-54920612D01*
X178800435Y-54966968D01*
X178788704Y-55005638D01*
X178769654Y-55041277D01*
X178744017Y-55072517D01*
X178712777Y-55098154D01*
X178677138Y-55117204D01*
X178638468Y-55128935D01*
X178592112Y-55133500D01*
X177515888Y-55133500D01*
X177469532Y-55128935D01*
X177430862Y-55117204D01*
X177395223Y-55098154D01*
X177363983Y-55072517D01*
X177338346Y-55041277D01*
X177319296Y-55005638D01*
X177307565Y-54966968D01*
X177303000Y-54920612D01*
X177303000Y-54269388D01*
X177307565Y-54223032D01*
X177319296Y-54184362D01*
X177338346Y-54148723D01*
X177363983Y-54117483D01*
X177395223Y-54091846D01*
X177430862Y-54072796D01*
X177469532Y-54061065D01*
X177515888Y-54056500D01*
X178592112Y-54056500D01*
X178638468Y-54061065D01*
X178638468Y-54061065D01*
G37*
G36*
X136329500Y-54906500D02*
G01*
X135577500Y-54906500D01*
X135577500Y-53104500D01*
X136329500Y-53104500D01*
X136329500Y-54906500D01*
X136329500Y-54906500D01*
G37*
G36*
X135059500Y-54906500D02*
G01*
X134307500Y-54906500D01*
X134307500Y-53104500D01*
X135059500Y-53104500D01*
X135059500Y-54906500D01*
X135059500Y-54906500D01*
G37*
G36*
X138869500Y-54906500D02*
G01*
X138117500Y-54906500D01*
X138117500Y-53104500D01*
X138869500Y-53104500D01*
X138869500Y-54906500D01*
X138869500Y-54906500D01*
G37*
G36*
X137599500Y-54906500D02*
G01*
X136847500Y-54906500D01*
X136847500Y-53104500D01*
X137599500Y-53104500D01*
X137599500Y-54906500D01*
X137599500Y-54906500D01*
G37*
G36*
X95516968Y-53138565D02*
G01*
X95555638Y-53150296D01*
X95591277Y-53169346D01*
X95622517Y-53194983D01*
X95648154Y-53226223D01*
X95667204Y-53261862D01*
X95678935Y-53300532D01*
X95683500Y-53346888D01*
X95683500Y-53998112D01*
X95678935Y-54044468D01*
X95667204Y-54083138D01*
X95648154Y-54118777D01*
X95622517Y-54150017D01*
X95591277Y-54175654D01*
X95555638Y-54194704D01*
X95516968Y-54206435D01*
X95470612Y-54211000D01*
X94394388Y-54211000D01*
X94348032Y-54206435D01*
X94309362Y-54194704D01*
X94273723Y-54175654D01*
X94242483Y-54150017D01*
X94216846Y-54118777D01*
X94197796Y-54083138D01*
X94186065Y-54044468D01*
X94181500Y-53998112D01*
X94181500Y-53346888D01*
X94186065Y-53300532D01*
X94197796Y-53261862D01*
X94216846Y-53226223D01*
X94242483Y-53194983D01*
X94273723Y-53169346D01*
X94309362Y-53150296D01*
X94348032Y-53138565D01*
X94394388Y-53134000D01*
X95470612Y-53134000D01*
X95516968Y-53138565D01*
X95516968Y-53138565D01*
G37*
G36*
X178638468Y-52186065D02*
G01*
X178677138Y-52197796D01*
X178712777Y-52216846D01*
X178744017Y-52242483D01*
X178769654Y-52273723D01*
X178788704Y-52309362D01*
X178800435Y-52348032D01*
X178805000Y-52394388D01*
X178805000Y-53045612D01*
X178800435Y-53091968D01*
X178788704Y-53130638D01*
X178769654Y-53166277D01*
X178744017Y-53197517D01*
X178712777Y-53223154D01*
X178677138Y-53242204D01*
X178638468Y-53253935D01*
X178592112Y-53258500D01*
X177515888Y-53258500D01*
X177469532Y-53253935D01*
X177430862Y-53242204D01*
X177395223Y-53223154D01*
X177363983Y-53197517D01*
X177338346Y-53166277D01*
X177319296Y-53130638D01*
X177307565Y-53091968D01*
X177303000Y-53045612D01*
X177303000Y-52394388D01*
X177307565Y-52348032D01*
X177319296Y-52309362D01*
X177338346Y-52273723D01*
X177363983Y-52242483D01*
X177395223Y-52216846D01*
X177430862Y-52197796D01*
X177469532Y-52186065D01*
X177515888Y-52181500D01*
X178592112Y-52181500D01*
X178638468Y-52186065D01*
X178638468Y-52186065D01*
G37*
G36*
X143683942Y-51112018D02*
G01*
X143750127Y-51118537D01*
X143919966Y-51170057D01*
X144076491Y-51253722D01*
X144112229Y-51283052D01*
X144213686Y-51366314D01*
X144296948Y-51467771D01*
X144326278Y-51503509D01*
X144409943Y-51660034D01*
X144461463Y-51829873D01*
X144478859Y-52006500D01*
X144461463Y-52183127D01*
X144409943Y-52352966D01*
X144326278Y-52509491D01*
X144296948Y-52545229D01*
X144213686Y-52646686D01*
X144112229Y-52729948D01*
X144076491Y-52759278D01*
X143919966Y-52842943D01*
X143750127Y-52894463D01*
X143683943Y-52900981D01*
X143617760Y-52907500D01*
X143529240Y-52907500D01*
X143463057Y-52900981D01*
X143396873Y-52894463D01*
X143227034Y-52842943D01*
X143070509Y-52759278D01*
X143034771Y-52729948D01*
X142933314Y-52646686D01*
X142850052Y-52545229D01*
X142820722Y-52509491D01*
X142737057Y-52352966D01*
X142685537Y-52183127D01*
X142668141Y-52006500D01*
X142685537Y-51829873D01*
X142737057Y-51660034D01*
X142820722Y-51503509D01*
X142850052Y-51467771D01*
X142933314Y-51366314D01*
X143034771Y-51283052D01*
X143070509Y-51253722D01*
X143227034Y-51170057D01*
X143396873Y-51118537D01*
X143463058Y-51112018D01*
X143529240Y-51105500D01*
X143617760Y-51105500D01*
X143683942Y-51112018D01*
X143683942Y-51112018D01*
G37*
G36*
X90807000Y-51998500D02*
G01*
X89205000Y-51998500D01*
X89205000Y-50896500D01*
X90807000Y-50896500D01*
X90807000Y-51998500D01*
X90807000Y-51998500D01*
G37*
G36*
X95707000Y-51998500D02*
G01*
X94105000Y-51998500D01*
X94105000Y-50896500D01*
X95707000Y-50896500D01*
X95707000Y-51998500D01*
X95707000Y-51998500D01*
G37*
G36*
X178629500Y-51371500D02*
G01*
X177527500Y-51371500D01*
X177527500Y-49769500D01*
X178629500Y-49769500D01*
X178629500Y-51371500D01*
X178629500Y-51371500D01*
G37*
G36*
X181829500Y-51371500D02*
G01*
X180727500Y-51371500D01*
X180727500Y-49769500D01*
X181829500Y-49769500D01*
X181829500Y-51371500D01*
X181829500Y-51371500D01*
G37*
G36*
X143683942Y-48572018D02*
G01*
X143750127Y-48578537D01*
X143919966Y-48630057D01*
X144076491Y-48713722D01*
X144094226Y-48728277D01*
X144213686Y-48826314D01*
X144296948Y-48927771D01*
X144326278Y-48963509D01*
X144409943Y-49120034D01*
X144461463Y-49289873D01*
X144478859Y-49466500D01*
X144461463Y-49643127D01*
X144409943Y-49812966D01*
X144326278Y-49969491D01*
X144296948Y-50005229D01*
X144213686Y-50106686D01*
X144112229Y-50189948D01*
X144076491Y-50219278D01*
X143919966Y-50302943D01*
X143750127Y-50354463D01*
X143683943Y-50360981D01*
X143617760Y-50367500D01*
X143529240Y-50367500D01*
X143463057Y-50360981D01*
X143396873Y-50354463D01*
X143227034Y-50302943D01*
X143070509Y-50219278D01*
X143034771Y-50189948D01*
X142933314Y-50106686D01*
X142850052Y-50005229D01*
X142820722Y-49969491D01*
X142737057Y-49812966D01*
X142685537Y-49643127D01*
X142668141Y-49466500D01*
X142685537Y-49289873D01*
X142737057Y-49120034D01*
X142820722Y-48963509D01*
X142850052Y-48927771D01*
X142933314Y-48826314D01*
X143052774Y-48728277D01*
X143070509Y-48713722D01*
X143227034Y-48630057D01*
X143396873Y-48578537D01*
X143463057Y-48572019D01*
X143529240Y-48565500D01*
X143617760Y-48565500D01*
X143683942Y-48572018D01*
X143683942Y-48572018D01*
G37*
G36*
X132881468Y-47323065D02*
G01*
X132920138Y-47334796D01*
X132955777Y-47353846D01*
X132987017Y-47379483D01*
X133012654Y-47410723D01*
X133031704Y-47446362D01*
X133043435Y-47485032D01*
X133048000Y-47531388D01*
X133048000Y-48607612D01*
X133043435Y-48653968D01*
X133031704Y-48692638D01*
X133012654Y-48728277D01*
X132987017Y-48759517D01*
X132955777Y-48785154D01*
X132920138Y-48804204D01*
X132881468Y-48815935D01*
X132835112Y-48820500D01*
X132183888Y-48820500D01*
X132137532Y-48815935D01*
X132098862Y-48804204D01*
X132063223Y-48785154D01*
X132031983Y-48759517D01*
X132006346Y-48728277D01*
X131987296Y-48692638D01*
X131975565Y-48653968D01*
X131971000Y-48607612D01*
X131971000Y-47531388D01*
X131975565Y-47485032D01*
X131987296Y-47446362D01*
X132006346Y-47410723D01*
X132031983Y-47379483D01*
X132063223Y-47353846D01*
X132098862Y-47334796D01*
X132137532Y-47323065D01*
X132183888Y-47318500D01*
X132835112Y-47318500D01*
X132881468Y-47323065D01*
X132881468Y-47323065D01*
G37*
G36*
X131006468Y-47323065D02*
G01*
X131045138Y-47334796D01*
X131080777Y-47353846D01*
X131112017Y-47379483D01*
X131137654Y-47410723D01*
X131156704Y-47446362D01*
X131168435Y-47485032D01*
X131173000Y-47531388D01*
X131173000Y-48607612D01*
X131168435Y-48653968D01*
X131156704Y-48692638D01*
X131137654Y-48728277D01*
X131112017Y-48759517D01*
X131080777Y-48785154D01*
X131045138Y-48804204D01*
X131006468Y-48815935D01*
X130960112Y-48820500D01*
X130308888Y-48820500D01*
X130262532Y-48815935D01*
X130223862Y-48804204D01*
X130188223Y-48785154D01*
X130156983Y-48759517D01*
X130131346Y-48728277D01*
X130112296Y-48692638D01*
X130100565Y-48653968D01*
X130096000Y-48607612D01*
X130096000Y-47531388D01*
X130100565Y-47485032D01*
X130112296Y-47446362D01*
X130131346Y-47410723D01*
X130156983Y-47379483D01*
X130188223Y-47353846D01*
X130223862Y-47334796D01*
X130262532Y-47323065D01*
X130308888Y-47318500D01*
X130960112Y-47318500D01*
X131006468Y-47323065D01*
X131006468Y-47323065D01*
G37*
G36*
X95707000Y-48798500D02*
G01*
X94105000Y-48798500D01*
X94105000Y-47696500D01*
X95707000Y-47696500D01*
X95707000Y-48798500D01*
X95707000Y-48798500D01*
G37*
G36*
X90807000Y-48798500D02*
G01*
X89205000Y-48798500D01*
X89205000Y-47696500D01*
X90807000Y-47696500D01*
X90807000Y-48798500D01*
X90807000Y-48798500D01*
G37*
G36*
X143683943Y-46032019D02*
G01*
X143750127Y-46038537D01*
X143919966Y-46090057D01*
X144076491Y-46173722D01*
X144112229Y-46203052D01*
X144213686Y-46286314D01*
X144296948Y-46387771D01*
X144326278Y-46423509D01*
X144409943Y-46580034D01*
X144461463Y-46749873D01*
X144478859Y-46926500D01*
X144461463Y-47103127D01*
X144409943Y-47272966D01*
X144409942Y-47272968D01*
X144368111Y-47351228D01*
X144326278Y-47429491D01*
X144319161Y-47438163D01*
X144213686Y-47566686D01*
X144112229Y-47649948D01*
X144076491Y-47679278D01*
X143919966Y-47762943D01*
X143750127Y-47814463D01*
X143683942Y-47820982D01*
X143617760Y-47827500D01*
X143529240Y-47827500D01*
X143463058Y-47820982D01*
X143396873Y-47814463D01*
X143227034Y-47762943D01*
X143070509Y-47679278D01*
X143034771Y-47649948D01*
X142933314Y-47566686D01*
X142827839Y-47438163D01*
X142820722Y-47429491D01*
X142778889Y-47351228D01*
X142737058Y-47272968D01*
X142737057Y-47272966D01*
X142685537Y-47103127D01*
X142668141Y-46926500D01*
X142685537Y-46749873D01*
X142737057Y-46580034D01*
X142820722Y-46423509D01*
X142850052Y-46387771D01*
X142933314Y-46286314D01*
X143034771Y-46203052D01*
X143070509Y-46173722D01*
X143227034Y-46090057D01*
X143396873Y-46038537D01*
X143463057Y-46032019D01*
X143529240Y-46025500D01*
X143617760Y-46025500D01*
X143683943Y-46032019D01*
X143683943Y-46032019D01*
G37*
G36*
X136329500Y-47606500D02*
G01*
X135577500Y-47606500D01*
X135577500Y-45804500D01*
X136329500Y-45804500D01*
X136329500Y-47606500D01*
X136329500Y-47606500D01*
G37*
G36*
X135059500Y-47606500D02*
G01*
X134307500Y-47606500D01*
X134307500Y-45804500D01*
X135059500Y-45804500D01*
X135059500Y-47606500D01*
X135059500Y-47606500D01*
G37*
G36*
X137599500Y-47606500D02*
G01*
X136847500Y-47606500D01*
X136847500Y-45804500D01*
X137599500Y-45804500D01*
X137599500Y-47606500D01*
X137599500Y-47606500D01*
G37*
G36*
X138869500Y-47606500D02*
G01*
X138117500Y-47606500D01*
X138117500Y-45804500D01*
X138869500Y-45804500D01*
X138869500Y-47606500D01*
X138869500Y-47606500D01*
G37*
G36*
X131006468Y-45291065D02*
G01*
X131045138Y-45302796D01*
X131080777Y-45321846D01*
X131112017Y-45347483D01*
X131137654Y-45378723D01*
X131156704Y-45414362D01*
X131168435Y-45453032D01*
X131173000Y-45499388D01*
X131173000Y-46575612D01*
X131168435Y-46621968D01*
X131156704Y-46660638D01*
X131137654Y-46696277D01*
X131112017Y-46727517D01*
X131080777Y-46753154D01*
X131045138Y-46772204D01*
X131006468Y-46783935D01*
X130960112Y-46788500D01*
X130308888Y-46788500D01*
X130262532Y-46783935D01*
X130223862Y-46772204D01*
X130188223Y-46753154D01*
X130156983Y-46727517D01*
X130131346Y-46696277D01*
X130112296Y-46660638D01*
X130100565Y-46621968D01*
X130096000Y-46575612D01*
X130096000Y-45499388D01*
X130100565Y-45453032D01*
X130112296Y-45414362D01*
X130131346Y-45378723D01*
X130156983Y-45347483D01*
X130188223Y-45321846D01*
X130223862Y-45302796D01*
X130262532Y-45291065D01*
X130308888Y-45286500D01*
X130960112Y-45286500D01*
X131006468Y-45291065D01*
X131006468Y-45291065D01*
G37*
G36*
X132881468Y-45291065D02*
G01*
X132920138Y-45302796D01*
X132955777Y-45321846D01*
X132987017Y-45347483D01*
X133012654Y-45378723D01*
X133031704Y-45414362D01*
X133043435Y-45453032D01*
X133048000Y-45499388D01*
X133048000Y-46575612D01*
X133043435Y-46621968D01*
X133031704Y-46660638D01*
X133012654Y-46696277D01*
X132987017Y-46727517D01*
X132955777Y-46753154D01*
X132920138Y-46772204D01*
X132881468Y-46783935D01*
X132835112Y-46788500D01*
X132183888Y-46788500D01*
X132137532Y-46783935D01*
X132098862Y-46772204D01*
X132063223Y-46753154D01*
X132031983Y-46727517D01*
X132006346Y-46696277D01*
X131987296Y-46660638D01*
X131975565Y-46621968D01*
X131971000Y-46575612D01*
X131971000Y-45499388D01*
X131975565Y-45453032D01*
X131987296Y-45414362D01*
X132006346Y-45378723D01*
X132031983Y-45347483D01*
X132063223Y-45321846D01*
X132098862Y-45302796D01*
X132137532Y-45291065D01*
X132183888Y-45286500D01*
X132835112Y-45286500D01*
X132881468Y-45291065D01*
X132881468Y-45291065D01*
G37*
G36*
X178629500Y-46471500D02*
G01*
X177527500Y-46471500D01*
X177527500Y-44869500D01*
X178629500Y-44869500D01*
X178629500Y-46471500D01*
X178629500Y-46471500D01*
G37*
G36*
X181829500Y-46471500D02*
G01*
X180727500Y-46471500D01*
X180727500Y-44869500D01*
X181829500Y-44869500D01*
X181829500Y-46471500D01*
X181829500Y-46471500D01*
G37*
G36*
X143683943Y-43492019D02*
G01*
X143750127Y-43498537D01*
X143919966Y-43550057D01*
X144076491Y-43633722D01*
X144112229Y-43663052D01*
X144213686Y-43746314D01*
X144296948Y-43847771D01*
X144326278Y-43883509D01*
X144409943Y-44040034D01*
X144461463Y-44209873D01*
X144478859Y-44386500D01*
X144461463Y-44563127D01*
X144409943Y-44732966D01*
X144326278Y-44889491D01*
X144296948Y-44925229D01*
X144213686Y-45026686D01*
X144112229Y-45109948D01*
X144076491Y-45139278D01*
X143919966Y-45222943D01*
X143750127Y-45274463D01*
X143683943Y-45280981D01*
X143617760Y-45287500D01*
X143529240Y-45287500D01*
X143463057Y-45280981D01*
X143396873Y-45274463D01*
X143227034Y-45222943D01*
X143070509Y-45139278D01*
X143034771Y-45109948D01*
X142933314Y-45026686D01*
X142850052Y-44925229D01*
X142820722Y-44889491D01*
X142737057Y-44732966D01*
X142685537Y-44563127D01*
X142668141Y-44386500D01*
X142685537Y-44209873D01*
X142737057Y-44040034D01*
X142820722Y-43883509D01*
X142850052Y-43847771D01*
X142933314Y-43746314D01*
X143034771Y-43663052D01*
X143070509Y-43633722D01*
X143227034Y-43550057D01*
X143396873Y-43498537D01*
X143463057Y-43492019D01*
X143529240Y-43485500D01*
X143617760Y-43485500D01*
X143683943Y-43492019D01*
X143683943Y-43492019D01*
G37*
G36*
X131006468Y-43259065D02*
G01*
X131045138Y-43270796D01*
X131080777Y-43289846D01*
X131112017Y-43315483D01*
X131137654Y-43346723D01*
X131156704Y-43382362D01*
X131168435Y-43421032D01*
X131173000Y-43467388D01*
X131173000Y-44543612D01*
X131168435Y-44589968D01*
X131156704Y-44628638D01*
X131137654Y-44664277D01*
X131112017Y-44695517D01*
X131080777Y-44721154D01*
X131045138Y-44740204D01*
X131006468Y-44751935D01*
X130960112Y-44756500D01*
X130308888Y-44756500D01*
X130262532Y-44751935D01*
X130223862Y-44740204D01*
X130188223Y-44721154D01*
X130156983Y-44695517D01*
X130131346Y-44664277D01*
X130112296Y-44628638D01*
X130100565Y-44589968D01*
X130096000Y-44543612D01*
X130096000Y-43467388D01*
X130100565Y-43421032D01*
X130112296Y-43382362D01*
X130131346Y-43346723D01*
X130156983Y-43315483D01*
X130188223Y-43289846D01*
X130223862Y-43270796D01*
X130262532Y-43259065D01*
X130308888Y-43254500D01*
X130960112Y-43254500D01*
X131006468Y-43259065D01*
X131006468Y-43259065D01*
G37*
G36*
X132881468Y-43259065D02*
G01*
X132920138Y-43270796D01*
X132955777Y-43289846D01*
X132987017Y-43315483D01*
X133012654Y-43346723D01*
X133031704Y-43382362D01*
X133043435Y-43421032D01*
X133048000Y-43467388D01*
X133048000Y-44543612D01*
X133043435Y-44589968D01*
X133031704Y-44628638D01*
X133012654Y-44664277D01*
X132987017Y-44695517D01*
X132955777Y-44721154D01*
X132920138Y-44740204D01*
X132881468Y-44751935D01*
X132835112Y-44756500D01*
X132183888Y-44756500D01*
X132137532Y-44751935D01*
X132098862Y-44740204D01*
X132063223Y-44721154D01*
X132031983Y-44695517D01*
X132006346Y-44664277D01*
X131987296Y-44628638D01*
X131975565Y-44589968D01*
X131971000Y-44543612D01*
X131971000Y-43467388D01*
X131975565Y-43421032D01*
X131987296Y-43382362D01*
X132006346Y-43346723D01*
X132031983Y-43315483D01*
X132063223Y-43289846D01*
X132098862Y-43270796D01*
X132137532Y-43259065D01*
X132183888Y-43254500D01*
X132835112Y-43254500D01*
X132881468Y-43259065D01*
X132881468Y-43259065D01*
G37*
G36*
X112131862Y-42599804D02*
G01*
X110498696Y-43361362D01*
X109737138Y-41728196D01*
X111370304Y-40966638D01*
X112131862Y-42599804D01*
X112131862Y-42599804D01*
G37*
G36*
X113346965Y-40196069D02*
G01*
X113413149Y-40202587D01*
X113582988Y-40254107D01*
X113739513Y-40337772D01*
X113770942Y-40363565D01*
X113876708Y-40450364D01*
X113959970Y-40551821D01*
X113989300Y-40587559D01*
X114072965Y-40744084D01*
X114124485Y-40913923D01*
X114141881Y-41090550D01*
X114124485Y-41267177D01*
X114072965Y-41437016D01*
X113989300Y-41593541D01*
X113959970Y-41629279D01*
X113876708Y-41730736D01*
X113775251Y-41813998D01*
X113739513Y-41843328D01*
X113582988Y-41926993D01*
X113413149Y-41978513D01*
X113346965Y-41985031D01*
X113280782Y-41991550D01*
X113192262Y-41991550D01*
X113126079Y-41985031D01*
X113059895Y-41978513D01*
X112890056Y-41926993D01*
X112733531Y-41843328D01*
X112697793Y-41813998D01*
X112596336Y-41730736D01*
X112513074Y-41629279D01*
X112483744Y-41593541D01*
X112400079Y-41437016D01*
X112348559Y-41267177D01*
X112331163Y-41090550D01*
X112348559Y-40913923D01*
X112400079Y-40744084D01*
X112483744Y-40587559D01*
X112513074Y-40551821D01*
X112596336Y-40450364D01*
X112702102Y-40363565D01*
X112733531Y-40337772D01*
X112890056Y-40254107D01*
X113059895Y-40202587D01*
X113126079Y-40196069D01*
X113192262Y-40189550D01*
X113280782Y-40189550D01*
X113346965Y-40196069D01*
X113346965Y-40196069D01*
G37*
G36*
X159741243Y-39611318D02*
G01*
X159807427Y-39617836D01*
X159977266Y-39669356D01*
X160133791Y-39753021D01*
X160166776Y-39780091D01*
X160270986Y-39865613D01*
X160354248Y-39967070D01*
X160383578Y-40002808D01*
X160467243Y-40159333D01*
X160518763Y-40329172D01*
X160536159Y-40505799D01*
X160518763Y-40682426D01*
X160467243Y-40852265D01*
X160383578Y-41008790D01*
X160354248Y-41044528D01*
X160270986Y-41145985D01*
X160169529Y-41229247D01*
X160133791Y-41258577D01*
X159977266Y-41342242D01*
X159807427Y-41393762D01*
X159741243Y-41400280D01*
X159675060Y-41406799D01*
X159586540Y-41406799D01*
X159520357Y-41400280D01*
X159454173Y-41393762D01*
X159284334Y-41342242D01*
X159127809Y-41258577D01*
X159092071Y-41229247D01*
X158990614Y-41145985D01*
X158907352Y-41044528D01*
X158878022Y-41008790D01*
X158794357Y-40852265D01*
X158742837Y-40682426D01*
X158725441Y-40505799D01*
X158742837Y-40329172D01*
X158794357Y-40159333D01*
X158878022Y-40002808D01*
X158907352Y-39967070D01*
X158990614Y-39865613D01*
X159094824Y-39780091D01*
X159127809Y-39753021D01*
X159284334Y-39669356D01*
X159454173Y-39617836D01*
X159520357Y-39611318D01*
X159586540Y-39604799D01*
X159675060Y-39604799D01*
X159741243Y-39611318D01*
X159741243Y-39611318D01*
G37*
G36*
X115648986Y-39122617D02*
G01*
X115715171Y-39129136D01*
X115885010Y-39180656D01*
X116041535Y-39264321D01*
X116072965Y-39290115D01*
X116178730Y-39376913D01*
X116247280Y-39460443D01*
X116291322Y-39514108D01*
X116374987Y-39670633D01*
X116426507Y-39840472D01*
X116443903Y-40017099D01*
X116426507Y-40193726D01*
X116374987Y-40363565D01*
X116291322Y-40520090D01*
X116261992Y-40555828D01*
X116178730Y-40657285D01*
X116077273Y-40740547D01*
X116041535Y-40769877D01*
X115885010Y-40853542D01*
X115715171Y-40905062D01*
X115648987Y-40911580D01*
X115582804Y-40918099D01*
X115494284Y-40918099D01*
X115428101Y-40911580D01*
X115361917Y-40905062D01*
X115192078Y-40853542D01*
X115035553Y-40769877D01*
X114999815Y-40740547D01*
X114898358Y-40657285D01*
X114815096Y-40555828D01*
X114785766Y-40520090D01*
X114702101Y-40363565D01*
X114650581Y-40193726D01*
X114633185Y-40017099D01*
X114650581Y-39840472D01*
X114702101Y-39670633D01*
X114785766Y-39514108D01*
X114829808Y-39460443D01*
X114898358Y-39376913D01*
X115004123Y-39290115D01*
X115035553Y-39264321D01*
X115192078Y-39180656D01*
X115361917Y-39129136D01*
X115428102Y-39122617D01*
X115494284Y-39116099D01*
X115582804Y-39116099D01*
X115648986Y-39122617D01*
X115648986Y-39122617D01*
G37*
G36*
X157354424Y-38742587D02*
G01*
X157420608Y-38749105D01*
X157590447Y-38800625D01*
X157746972Y-38884290D01*
X157782710Y-38913620D01*
X157884167Y-38996882D01*
X157967429Y-39098339D01*
X157996759Y-39134077D01*
X158080424Y-39290602D01*
X158131944Y-39460441D01*
X158149340Y-39637068D01*
X158131944Y-39813695D01*
X158080424Y-39983534D01*
X158080423Y-39983536D01*
X158038591Y-40061797D01*
X157996759Y-40140059D01*
X157980941Y-40159333D01*
X157884167Y-40277254D01*
X157782710Y-40360516D01*
X157746972Y-40389846D01*
X157590447Y-40473511D01*
X157420608Y-40525031D01*
X157354424Y-40531549D01*
X157288241Y-40538068D01*
X157199721Y-40538068D01*
X157133538Y-40531549D01*
X157067354Y-40525031D01*
X156897515Y-40473511D01*
X156740990Y-40389846D01*
X156705252Y-40360516D01*
X156603795Y-40277254D01*
X156507021Y-40159333D01*
X156491203Y-40140059D01*
X156449371Y-40061797D01*
X156407539Y-39983536D01*
X156407538Y-39983534D01*
X156356018Y-39813695D01*
X156338622Y-39637068D01*
X156356018Y-39460441D01*
X156407538Y-39290602D01*
X156491203Y-39134077D01*
X156520533Y-39098339D01*
X156603795Y-38996882D01*
X156705252Y-38913620D01*
X156740990Y-38884290D01*
X156897515Y-38800625D01*
X157067354Y-38749105D01*
X157133539Y-38742586D01*
X157199721Y-38736068D01*
X157288241Y-38736068D01*
X157354424Y-38742587D01*
X157354424Y-38742587D01*
G37*
G36*
X135134604Y-38955347D02*
G01*
X135171144Y-38966432D01*
X135204821Y-38984433D01*
X135234341Y-39008659D01*
X135258567Y-39038179D01*
X135276568Y-39071856D01*
X135287653Y-39108396D01*
X135292000Y-39152538D01*
X135292000Y-40101462D01*
X135287653Y-40145604D01*
X135276568Y-40182144D01*
X135258567Y-40215821D01*
X135234341Y-40245341D01*
X135204821Y-40269567D01*
X135171144Y-40287568D01*
X135134604Y-40298653D01*
X135090462Y-40303000D01*
X133641538Y-40303000D01*
X133597396Y-40298653D01*
X133560856Y-40287568D01*
X133527179Y-40269567D01*
X133497659Y-40245341D01*
X133473433Y-40215821D01*
X133455432Y-40182144D01*
X133444347Y-40145604D01*
X133440000Y-40101462D01*
X133440000Y-39152538D01*
X133444347Y-39108396D01*
X133455432Y-39071856D01*
X133473433Y-39038179D01*
X133497659Y-39008659D01*
X133527179Y-38984433D01*
X133560856Y-38966432D01*
X133597396Y-38955347D01*
X133641538Y-38951000D01*
X135090462Y-38951000D01*
X135134604Y-38955347D01*
X135134604Y-38955347D01*
G37*
G36*
X117951008Y-38049168D02*
G01*
X118017192Y-38055686D01*
X118187031Y-38107206D01*
X118343556Y-38190871D01*
X118379294Y-38220201D01*
X118480751Y-38303463D01*
X118564013Y-38404920D01*
X118593343Y-38440658D01*
X118677008Y-38597183D01*
X118728528Y-38767022D01*
X118745924Y-38943649D01*
X118728528Y-39120276D01*
X118677008Y-39290115D01*
X118593343Y-39446640D01*
X118582015Y-39460443D01*
X118480751Y-39583835D01*
X118415885Y-39637068D01*
X118343556Y-39696427D01*
X118187031Y-39780092D01*
X118017192Y-39831612D01*
X117951008Y-39838130D01*
X117884825Y-39844649D01*
X117796305Y-39844649D01*
X117730122Y-39838130D01*
X117663938Y-39831612D01*
X117494099Y-39780092D01*
X117337574Y-39696427D01*
X117265245Y-39637068D01*
X117200379Y-39583835D01*
X117099115Y-39460443D01*
X117087787Y-39446640D01*
X117004122Y-39290115D01*
X116952602Y-39120276D01*
X116935206Y-38943649D01*
X116952602Y-38767022D01*
X117004122Y-38597183D01*
X117087787Y-38440658D01*
X117117117Y-38404920D01*
X117200379Y-38303463D01*
X117301836Y-38220201D01*
X117337574Y-38190871D01*
X117494099Y-38107206D01*
X117663938Y-38055686D01*
X117730122Y-38049168D01*
X117796305Y-38042649D01*
X117884825Y-38042649D01*
X117951008Y-38049168D01*
X117951008Y-38049168D01*
G37*
G36*
X154967603Y-37873855D02*
G01*
X155033788Y-37880374D01*
X155203627Y-37931894D01*
X155360152Y-38015559D01*
X155393161Y-38042649D01*
X155497347Y-38128151D01*
X155548818Y-38190870D01*
X155609939Y-38265346D01*
X155693604Y-38421871D01*
X155745124Y-38591710D01*
X155762520Y-38768337D01*
X155745124Y-38944964D01*
X155693604Y-39114803D01*
X155609939Y-39271328D01*
X155594121Y-39290602D01*
X155497347Y-39408523D01*
X155434081Y-39460443D01*
X155360152Y-39521115D01*
X155203627Y-39604780D01*
X155033788Y-39656300D01*
X154967603Y-39662819D01*
X154901421Y-39669337D01*
X154812901Y-39669337D01*
X154746718Y-39662818D01*
X154680534Y-39656300D01*
X154510695Y-39604780D01*
X154354170Y-39521115D01*
X154280241Y-39460443D01*
X154216975Y-39408523D01*
X154120201Y-39290602D01*
X154104383Y-39271328D01*
X154020718Y-39114803D01*
X153969198Y-38944964D01*
X153951802Y-38768337D01*
X153969198Y-38591710D01*
X154020718Y-38421871D01*
X154104383Y-38265346D01*
X154165504Y-38190870D01*
X154216975Y-38128151D01*
X154321161Y-38042649D01*
X154354170Y-38015559D01*
X154510695Y-37931894D01*
X154680534Y-37880374D01*
X154746718Y-37873856D01*
X154812901Y-37867337D01*
X154901421Y-37867337D01*
X154967603Y-37873855D01*
X154967603Y-37873855D01*
G37*
G36*
X152383697Y-36909246D02*
G01*
X153625165Y-37361103D01*
X153625165Y-37361104D01*
X153579136Y-37487568D01*
X153008845Y-39054429D01*
X153008844Y-39054429D01*
X152311524Y-38800625D01*
X151315519Y-38438109D01*
X151364526Y-38303464D01*
X151657762Y-37497804D01*
X151931839Y-36744783D01*
X151931840Y-36744783D01*
X152383697Y-36909246D01*
X152383697Y-36909246D01*
G37*
G36*
X135134604Y-36155347D02*
G01*
X135171144Y-36166432D01*
X135204821Y-36184433D01*
X135234341Y-36208659D01*
X135258567Y-36238179D01*
X135276568Y-36271856D01*
X135287653Y-36308396D01*
X135292000Y-36352538D01*
X135292000Y-37301462D01*
X135287653Y-37345604D01*
X135276568Y-37382144D01*
X135258567Y-37415821D01*
X135234341Y-37445341D01*
X135204821Y-37469567D01*
X135171144Y-37487568D01*
X135134604Y-37498653D01*
X135090462Y-37503000D01*
X133641538Y-37503000D01*
X133597396Y-37498653D01*
X133560856Y-37487568D01*
X133527179Y-37469567D01*
X133497659Y-37445341D01*
X133473433Y-37415821D01*
X133455432Y-37382144D01*
X133444347Y-37345604D01*
X133440000Y-37301462D01*
X133440000Y-36352538D01*
X133444347Y-36308396D01*
X133455432Y-36271856D01*
X133473433Y-36238179D01*
X133497659Y-36208659D01*
X133527179Y-36184433D01*
X133560856Y-36166432D01*
X133597396Y-36155347D01*
X133641538Y-36151000D01*
X135090462Y-36151000D01*
X135134604Y-36155347D01*
X135134604Y-36155347D01*
G37*
G36*
X140030468Y-35265065D02*
G01*
X140069138Y-35276796D01*
X140104777Y-35295846D01*
X140136017Y-35321483D01*
X140161654Y-35352723D01*
X140180704Y-35388362D01*
X140192435Y-35427032D01*
X140197000Y-35473388D01*
X140197000Y-36124612D01*
X140192435Y-36170968D01*
X140180704Y-36209638D01*
X140161654Y-36245277D01*
X140136017Y-36276517D01*
X140104777Y-36302154D01*
X140069138Y-36321204D01*
X140030468Y-36332935D01*
X139984112Y-36337500D01*
X138907888Y-36337500D01*
X138861532Y-36332935D01*
X138822862Y-36321204D01*
X138787223Y-36302154D01*
X138755983Y-36276517D01*
X138730346Y-36245277D01*
X138711296Y-36209638D01*
X138699565Y-36170968D01*
X138695000Y-36124612D01*
X138695000Y-35473388D01*
X138699565Y-35427032D01*
X138711296Y-35388362D01*
X138730346Y-35352723D01*
X138755983Y-35321483D01*
X138787223Y-35295846D01*
X138822862Y-35276796D01*
X138861532Y-35265065D01*
X138907888Y-35260500D01*
X139984112Y-35260500D01*
X140030468Y-35265065D01*
X140030468Y-35265065D01*
G37*
G36*
X140030468Y-33390065D02*
G01*
X140069138Y-33401796D01*
X140104777Y-33420846D01*
X140136017Y-33446483D01*
X140161654Y-33477723D01*
X140180704Y-33513362D01*
X140192435Y-33552032D01*
X140197000Y-33598388D01*
X140197000Y-34249612D01*
X140192435Y-34295968D01*
X140180704Y-34334638D01*
X140161654Y-34370277D01*
X140136017Y-34401517D01*
X140104777Y-34427154D01*
X140069138Y-34446204D01*
X140030468Y-34457935D01*
X139984112Y-34462500D01*
X138907888Y-34462500D01*
X138861532Y-34457935D01*
X138822862Y-34446204D01*
X138787223Y-34427154D01*
X138755983Y-34401517D01*
X138730346Y-34370277D01*
X138711296Y-34334638D01*
X138699565Y-34295968D01*
X138695000Y-34249612D01*
X138695000Y-33598388D01*
X138699565Y-33552032D01*
X138711296Y-33513362D01*
X138730346Y-33477723D01*
X138755983Y-33446483D01*
X138787223Y-33420846D01*
X138822862Y-33401796D01*
X138861532Y-33390065D01*
X138907888Y-33385500D01*
X139984112Y-33385500D01*
X140030468Y-33390065D01*
X140030468Y-33390065D01*
G37*
G36*
X135193500Y-32377000D02*
G01*
X133591500Y-32377000D01*
X133591500Y-31275000D01*
X135193500Y-31275000D01*
X135193500Y-32377000D01*
X135193500Y-32377000D01*
G37*
G36*
X140093500Y-32377000D02*
G01*
X138491500Y-32377000D01*
X138491500Y-31275000D01*
X140093500Y-31275000D01*
X140093500Y-32377000D01*
X140093500Y-32377000D01*
G37*
G36*
X135193500Y-29177000D02*
G01*
X133591500Y-29177000D01*
X133591500Y-28075000D01*
X135193500Y-28075000D01*
X135193500Y-29177000D01*
X135193500Y-29177000D01*
G37*
G36*
X140093500Y-29177000D02*
G01*
X138491500Y-29177000D01*
X138491500Y-28075000D01*
X140093500Y-28075000D01*
X140093500Y-29177000D01*
X140093500Y-29177000D01*
G37*
M02*
