M48
; DRILL file {KiCad (5.1.2)-2} date 9/25/2019 10:48:08 PM
; FORMAT={-:-/ absolute / metric / decimal}
; #@! TF.CreationDate,2019-09-25T22:48:08-04:00
; #@! TF.GenerationSoftware,Kicad,Pcbnew,(5.1.2)-2
; #@! TF.FileFunction,Plated,1,2,PTH
FMAT,2
METRIC
T1C0.400
T2C1.000
T3C3.200
%
G90
G05
T1
X75.248Y-90.995
X81.534Y-85.471
X86.296Y-82.931
X86.296Y-84.836
X86.296Y-86.931
X86.296Y-89.09
X86.296Y-91.821
X89.662Y-124.269
X90.106Y-82.931
X90.106Y-84.836
X90.106Y-86.931
X90.106Y-89.09
X90.106Y-91.821
X90.805Y-131.445
X91.63Y-48.197
X94.932Y-56.706
X96.584Y-59.055
X98.108Y-57.34
X98.108Y-61.912
X99.631Y-56.07
X99.949Y-60.198
X100.901Y-54.61
X101.917Y-58.991
X102.997Y-52.578
X103.378Y-57.594
X104.838Y-50.419
X106.172Y-55.054
X106.934Y-48.45
X108.331Y-53.276
X109.347Y-74.041
X110.363Y-51.117
X113.347Y-101.092
X116.649Y-109.664
X117.983Y-70.548
X124.333Y-40.195
X124.333Y-42.989
X125.539Y-40.195
X125.539Y-42.989
X126.809Y-40.195
X126.809Y-43.053
X129.413Y-44.005
X129.413Y-46.038
X129.413Y-48.069
X131.255Y-146.304
X134.683Y-55.753
X135.89Y-28.638
X135.953Y-48.26
X135.953Y-52.451
X136.017Y-58.737
X137.224Y-48.26
X137.287Y-55.753
X137.668Y-151.892
X138.493Y-45.148
X139.446Y-37.02
X139.573Y-53.149
X154.94Y-78.867
X157.416Y-105.41
X157.543Y-110.871
X158.178Y-69.85
X162.369Y-129.159
X163.322Y-49.466
X164.401Y-50.8
X165.1Y-132.588
X165.481Y-52.006
X165.798Y-125.73
X166.243Y-47.053
X166.56Y-53.404
X167.45Y-48.133
X168.148Y-54.864
X168.529Y-129.159
X168.719Y-49.53
X169.545Y-121.92
X170.053Y-50.99
X171.323Y-52.324
X172.275Y-125.349
X172.784Y-118.808
X175.704Y-121.856
X176.149Y-115.316
X178.054Y-55.816
X178.562Y-112.966
X179.07Y-118.364
X180.657Y-128.016
X181.038Y-133.286
X181.292Y-47.117
X181.483Y-116.014
X189.865Y-92.71
X198.501Y-89.218
T2
X85.624Y-109.179
X86.697Y-111.481
X87.771Y-113.783
X88.844Y-116.085
X186.514Y-112.951
X187.383Y-110.564
X188.252Y-108.177
X189.12Y-105.79
X132.461Y-63.691
X84.58Y-74.55
X85.448Y-72.163
X86.317Y-69.776
X87.186Y-67.389
X114.069Y-139.834
X116.456Y-140.703
X118.843Y-141.572
X121.23Y-142.44
X184.856Y-64.254
X185.929Y-66.557
X187.003Y-68.859
X188.076Y-71.161
X110.934Y-42.164
X113.237Y-41.091
X115.539Y-40.017
X117.841Y-38.944
X152.47Y-37.9
X154.857Y-38.768
X157.244Y-39.637
X159.631Y-40.506
X143.573Y-44.386
X143.573Y-46.926
X143.573Y-49.466
X143.573Y-52.006
X143.573Y-54.546
X143.573Y-57.087
X155.859Y-141.396
X158.161Y-140.323
X160.463Y-139.249
X162.766Y-138.176
T3
X169.164Y-116.929
X104.164Y-66.929
X104.164Y-116.929
X169.164Y-66.929
T0
M30
