G04 #@! TF.GenerationSoftware,KiCad,Pcbnew,(5.1.2)-2*
G04 #@! TF.CreationDate,2019-09-25T22:48:14-04:00*
G04 #@! TF.ProjectId,LEDWall,4c454457-616c-46c2-9e6b-696361645f70,rev?*
G04 #@! TF.SameCoordinates,Original*
G04 #@! TF.FileFunction,Paste,Top*
G04 #@! TF.FilePolarity,Positive*
%FSLAX46Y46*%
G04 Gerber Fmt 4.6, Leading zero omitted, Abs format (unit mm)*
G04 Created by KiCad (PCBNEW (5.1.2)-2) date 2019-09-25 22:48:14*
%MOMM*%
%LPD*%
G04 APERTURE LIST*
%ADD10R,1.500000X1.000000*%
%ADD11C,0.150000*%
%ADD12C,0.975000*%
%ADD13R,0.650000X1.700000*%
%ADD14C,1.250000*%
%ADD15R,1.000000X1.500000*%
G04 APERTURE END LIST*
D10*
G04 #@! TO.C,D12*
X113374000Y-106477000D03*
X113374000Y-109677000D03*
X118274000Y-106477000D03*
X118274000Y-109677000D03*
G04 #@! TD*
G04 #@! TO.C,D11*
X154268000Y-107683500D03*
X154268000Y-110883500D03*
X159168000Y-107683500D03*
X159168000Y-110883500D03*
G04 #@! TD*
D11*
G04 #@! TO.C,C12*
G36*
X113827642Y-101890674D02*
G01*
X113851303Y-101894184D01*
X113874507Y-101899996D01*
X113897029Y-101908054D01*
X113918653Y-101918282D01*
X113939170Y-101930579D01*
X113958383Y-101944829D01*
X113976107Y-101960893D01*
X113992171Y-101978617D01*
X114006421Y-101997830D01*
X114018718Y-102018347D01*
X114028946Y-102039971D01*
X114037004Y-102062493D01*
X114042816Y-102085697D01*
X114046326Y-102109358D01*
X114047500Y-102133250D01*
X114047500Y-102620750D01*
X114046326Y-102644642D01*
X114042816Y-102668303D01*
X114037004Y-102691507D01*
X114028946Y-102714029D01*
X114018718Y-102735653D01*
X114006421Y-102756170D01*
X113992171Y-102775383D01*
X113976107Y-102793107D01*
X113958383Y-102809171D01*
X113939170Y-102823421D01*
X113918653Y-102835718D01*
X113897029Y-102845946D01*
X113874507Y-102854004D01*
X113851303Y-102859816D01*
X113827642Y-102863326D01*
X113803750Y-102864500D01*
X112891250Y-102864500D01*
X112867358Y-102863326D01*
X112843697Y-102859816D01*
X112820493Y-102854004D01*
X112797971Y-102845946D01*
X112776347Y-102835718D01*
X112755830Y-102823421D01*
X112736617Y-102809171D01*
X112718893Y-102793107D01*
X112702829Y-102775383D01*
X112688579Y-102756170D01*
X112676282Y-102735653D01*
X112666054Y-102714029D01*
X112657996Y-102691507D01*
X112652184Y-102668303D01*
X112648674Y-102644642D01*
X112647500Y-102620750D01*
X112647500Y-102133250D01*
X112648674Y-102109358D01*
X112652184Y-102085697D01*
X112657996Y-102062493D01*
X112666054Y-102039971D01*
X112676282Y-102018347D01*
X112688579Y-101997830D01*
X112702829Y-101978617D01*
X112718893Y-101960893D01*
X112736617Y-101944829D01*
X112755830Y-101930579D01*
X112776347Y-101918282D01*
X112797971Y-101908054D01*
X112820493Y-101899996D01*
X112843697Y-101894184D01*
X112867358Y-101890674D01*
X112891250Y-101889500D01*
X113803750Y-101889500D01*
X113827642Y-101890674D01*
X113827642Y-101890674D01*
G37*
D12*
X113347500Y-102377000D03*
D11*
G36*
X113827642Y-103765674D02*
G01*
X113851303Y-103769184D01*
X113874507Y-103774996D01*
X113897029Y-103783054D01*
X113918653Y-103793282D01*
X113939170Y-103805579D01*
X113958383Y-103819829D01*
X113976107Y-103835893D01*
X113992171Y-103853617D01*
X114006421Y-103872830D01*
X114018718Y-103893347D01*
X114028946Y-103914971D01*
X114037004Y-103937493D01*
X114042816Y-103960697D01*
X114046326Y-103984358D01*
X114047500Y-104008250D01*
X114047500Y-104495750D01*
X114046326Y-104519642D01*
X114042816Y-104543303D01*
X114037004Y-104566507D01*
X114028946Y-104589029D01*
X114018718Y-104610653D01*
X114006421Y-104631170D01*
X113992171Y-104650383D01*
X113976107Y-104668107D01*
X113958383Y-104684171D01*
X113939170Y-104698421D01*
X113918653Y-104710718D01*
X113897029Y-104720946D01*
X113874507Y-104729004D01*
X113851303Y-104734816D01*
X113827642Y-104738326D01*
X113803750Y-104739500D01*
X112891250Y-104739500D01*
X112867358Y-104738326D01*
X112843697Y-104734816D01*
X112820493Y-104729004D01*
X112797971Y-104720946D01*
X112776347Y-104710718D01*
X112755830Y-104698421D01*
X112736617Y-104684171D01*
X112718893Y-104668107D01*
X112702829Y-104650383D01*
X112688579Y-104631170D01*
X112676282Y-104610653D01*
X112666054Y-104589029D01*
X112657996Y-104566507D01*
X112652184Y-104543303D01*
X112648674Y-104519642D01*
X112647500Y-104495750D01*
X112647500Y-104008250D01*
X112648674Y-103984358D01*
X112652184Y-103960697D01*
X112657996Y-103937493D01*
X112666054Y-103914971D01*
X112676282Y-103893347D01*
X112688579Y-103872830D01*
X112702829Y-103853617D01*
X112718893Y-103835893D01*
X112736617Y-103819829D01*
X112755830Y-103805579D01*
X112776347Y-103793282D01*
X112797971Y-103783054D01*
X112820493Y-103774996D01*
X112843697Y-103769184D01*
X112867358Y-103765674D01*
X112891250Y-103764500D01*
X113803750Y-103764500D01*
X113827642Y-103765674D01*
X113827642Y-103765674D01*
G37*
D12*
X113347500Y-104252000D03*
G04 #@! TD*
D11*
G04 #@! TO.C,C11*
G36*
X156414142Y-104711174D02*
G01*
X156437803Y-104714684D01*
X156461007Y-104720496D01*
X156483529Y-104728554D01*
X156505153Y-104738782D01*
X156525670Y-104751079D01*
X156544883Y-104765329D01*
X156562607Y-104781393D01*
X156578671Y-104799117D01*
X156592921Y-104818330D01*
X156605218Y-104838847D01*
X156615446Y-104860471D01*
X156623504Y-104882993D01*
X156629316Y-104906197D01*
X156632826Y-104929858D01*
X156634000Y-104953750D01*
X156634000Y-105866250D01*
X156632826Y-105890142D01*
X156629316Y-105913803D01*
X156623504Y-105937007D01*
X156615446Y-105959529D01*
X156605218Y-105981153D01*
X156592921Y-106001670D01*
X156578671Y-106020883D01*
X156562607Y-106038607D01*
X156544883Y-106054671D01*
X156525670Y-106068921D01*
X156505153Y-106081218D01*
X156483529Y-106091446D01*
X156461007Y-106099504D01*
X156437803Y-106105316D01*
X156414142Y-106108826D01*
X156390250Y-106110000D01*
X155902750Y-106110000D01*
X155878858Y-106108826D01*
X155855197Y-106105316D01*
X155831993Y-106099504D01*
X155809471Y-106091446D01*
X155787847Y-106081218D01*
X155767330Y-106068921D01*
X155748117Y-106054671D01*
X155730393Y-106038607D01*
X155714329Y-106020883D01*
X155700079Y-106001670D01*
X155687782Y-105981153D01*
X155677554Y-105959529D01*
X155669496Y-105937007D01*
X155663684Y-105913803D01*
X155660174Y-105890142D01*
X155659000Y-105866250D01*
X155659000Y-104953750D01*
X155660174Y-104929858D01*
X155663684Y-104906197D01*
X155669496Y-104882993D01*
X155677554Y-104860471D01*
X155687782Y-104838847D01*
X155700079Y-104818330D01*
X155714329Y-104799117D01*
X155730393Y-104781393D01*
X155748117Y-104765329D01*
X155767330Y-104751079D01*
X155787847Y-104738782D01*
X155809471Y-104728554D01*
X155831993Y-104720496D01*
X155855197Y-104714684D01*
X155878858Y-104711174D01*
X155902750Y-104710000D01*
X156390250Y-104710000D01*
X156414142Y-104711174D01*
X156414142Y-104711174D01*
G37*
D12*
X156146500Y-105410000D03*
D11*
G36*
X154539142Y-104711174D02*
G01*
X154562803Y-104714684D01*
X154586007Y-104720496D01*
X154608529Y-104728554D01*
X154630153Y-104738782D01*
X154650670Y-104751079D01*
X154669883Y-104765329D01*
X154687607Y-104781393D01*
X154703671Y-104799117D01*
X154717921Y-104818330D01*
X154730218Y-104838847D01*
X154740446Y-104860471D01*
X154748504Y-104882993D01*
X154754316Y-104906197D01*
X154757826Y-104929858D01*
X154759000Y-104953750D01*
X154759000Y-105866250D01*
X154757826Y-105890142D01*
X154754316Y-105913803D01*
X154748504Y-105937007D01*
X154740446Y-105959529D01*
X154730218Y-105981153D01*
X154717921Y-106001670D01*
X154703671Y-106020883D01*
X154687607Y-106038607D01*
X154669883Y-106054671D01*
X154650670Y-106068921D01*
X154630153Y-106081218D01*
X154608529Y-106091446D01*
X154586007Y-106099504D01*
X154562803Y-106105316D01*
X154539142Y-106108826D01*
X154515250Y-106110000D01*
X154027750Y-106110000D01*
X154003858Y-106108826D01*
X153980197Y-106105316D01*
X153956993Y-106099504D01*
X153934471Y-106091446D01*
X153912847Y-106081218D01*
X153892330Y-106068921D01*
X153873117Y-106054671D01*
X153855393Y-106038607D01*
X153839329Y-106020883D01*
X153825079Y-106001670D01*
X153812782Y-105981153D01*
X153802554Y-105959529D01*
X153794496Y-105937007D01*
X153788684Y-105913803D01*
X153785174Y-105890142D01*
X153784000Y-105866250D01*
X153784000Y-104953750D01*
X153785174Y-104929858D01*
X153788684Y-104906197D01*
X153794496Y-104882993D01*
X153802554Y-104860471D01*
X153812782Y-104838847D01*
X153825079Y-104818330D01*
X153839329Y-104799117D01*
X153855393Y-104781393D01*
X153873117Y-104765329D01*
X153892330Y-104751079D01*
X153912847Y-104738782D01*
X153934471Y-104728554D01*
X153956993Y-104720496D01*
X153980197Y-104714684D01*
X154003858Y-104711174D01*
X154027750Y-104710000D01*
X154515250Y-104710000D01*
X154539142Y-104711174D01*
X154539142Y-104711174D01*
G37*
D12*
X154271500Y-105410000D03*
G04 #@! TD*
D13*
G04 #@! TO.C,U1*
X134683500Y-46705500D03*
X135953500Y-46705500D03*
X137223500Y-46705500D03*
X138493500Y-46705500D03*
X138493500Y-54005500D03*
X137223500Y-54005500D03*
X135953500Y-54005500D03*
X134683500Y-54005500D03*
G04 #@! TD*
D11*
G04 #@! TO.C,R2*
G36*
X135015504Y-39003204D02*
G01*
X135039773Y-39006804D01*
X135063571Y-39012765D01*
X135086671Y-39021030D01*
X135108849Y-39031520D01*
X135129893Y-39044133D01*
X135149598Y-39058747D01*
X135167777Y-39075223D01*
X135184253Y-39093402D01*
X135198867Y-39113107D01*
X135211480Y-39134151D01*
X135221970Y-39156329D01*
X135230235Y-39179429D01*
X135236196Y-39203227D01*
X135239796Y-39227496D01*
X135241000Y-39252000D01*
X135241000Y-40002000D01*
X135239796Y-40026504D01*
X135236196Y-40050773D01*
X135230235Y-40074571D01*
X135221970Y-40097671D01*
X135211480Y-40119849D01*
X135198867Y-40140893D01*
X135184253Y-40160598D01*
X135167777Y-40178777D01*
X135149598Y-40195253D01*
X135129893Y-40209867D01*
X135108849Y-40222480D01*
X135086671Y-40232970D01*
X135063571Y-40241235D01*
X135039773Y-40247196D01*
X135015504Y-40250796D01*
X134991000Y-40252000D01*
X133741000Y-40252000D01*
X133716496Y-40250796D01*
X133692227Y-40247196D01*
X133668429Y-40241235D01*
X133645329Y-40232970D01*
X133623151Y-40222480D01*
X133602107Y-40209867D01*
X133582402Y-40195253D01*
X133564223Y-40178777D01*
X133547747Y-40160598D01*
X133533133Y-40140893D01*
X133520520Y-40119849D01*
X133510030Y-40097671D01*
X133501765Y-40074571D01*
X133495804Y-40050773D01*
X133492204Y-40026504D01*
X133491000Y-40002000D01*
X133491000Y-39252000D01*
X133492204Y-39227496D01*
X133495804Y-39203227D01*
X133501765Y-39179429D01*
X133510030Y-39156329D01*
X133520520Y-39134151D01*
X133533133Y-39113107D01*
X133547747Y-39093402D01*
X133564223Y-39075223D01*
X133582402Y-39058747D01*
X133602107Y-39044133D01*
X133623151Y-39031520D01*
X133645329Y-39021030D01*
X133668429Y-39012765D01*
X133692227Y-39006804D01*
X133716496Y-39003204D01*
X133741000Y-39002000D01*
X134991000Y-39002000D01*
X135015504Y-39003204D01*
X135015504Y-39003204D01*
G37*
D14*
X134366000Y-39627000D03*
D11*
G36*
X135015504Y-36203204D02*
G01*
X135039773Y-36206804D01*
X135063571Y-36212765D01*
X135086671Y-36221030D01*
X135108849Y-36231520D01*
X135129893Y-36244133D01*
X135149598Y-36258747D01*
X135167777Y-36275223D01*
X135184253Y-36293402D01*
X135198867Y-36313107D01*
X135211480Y-36334151D01*
X135221970Y-36356329D01*
X135230235Y-36379429D01*
X135236196Y-36403227D01*
X135239796Y-36427496D01*
X135241000Y-36452000D01*
X135241000Y-37202000D01*
X135239796Y-37226504D01*
X135236196Y-37250773D01*
X135230235Y-37274571D01*
X135221970Y-37297671D01*
X135211480Y-37319849D01*
X135198867Y-37340893D01*
X135184253Y-37360598D01*
X135167777Y-37378777D01*
X135149598Y-37395253D01*
X135129893Y-37409867D01*
X135108849Y-37422480D01*
X135086671Y-37432970D01*
X135063571Y-37441235D01*
X135039773Y-37447196D01*
X135015504Y-37450796D01*
X134991000Y-37452000D01*
X133741000Y-37452000D01*
X133716496Y-37450796D01*
X133692227Y-37447196D01*
X133668429Y-37441235D01*
X133645329Y-37432970D01*
X133623151Y-37422480D01*
X133602107Y-37409867D01*
X133582402Y-37395253D01*
X133564223Y-37378777D01*
X133547747Y-37360598D01*
X133533133Y-37340893D01*
X133520520Y-37319849D01*
X133510030Y-37297671D01*
X133501765Y-37274571D01*
X133495804Y-37250773D01*
X133492204Y-37226504D01*
X133491000Y-37202000D01*
X133491000Y-36452000D01*
X133492204Y-36427496D01*
X133495804Y-36403227D01*
X133501765Y-36379429D01*
X133510030Y-36356329D01*
X133520520Y-36334151D01*
X133533133Y-36313107D01*
X133547747Y-36293402D01*
X133564223Y-36275223D01*
X133582402Y-36258747D01*
X133602107Y-36244133D01*
X133623151Y-36231520D01*
X133645329Y-36221030D01*
X133668429Y-36212765D01*
X133692227Y-36206804D01*
X133716496Y-36203204D01*
X133741000Y-36202000D01*
X134991000Y-36202000D01*
X135015504Y-36203204D01*
X135015504Y-36203204D01*
G37*
D14*
X134366000Y-36827000D03*
G04 #@! TD*
D11*
G04 #@! TO.C,R1*
G36*
X134999642Y-58038674D02*
G01*
X135023303Y-58042184D01*
X135046507Y-58047996D01*
X135069029Y-58056054D01*
X135090653Y-58066282D01*
X135111170Y-58078579D01*
X135130383Y-58092829D01*
X135148107Y-58108893D01*
X135164171Y-58126617D01*
X135178421Y-58145830D01*
X135190718Y-58166347D01*
X135200946Y-58187971D01*
X135209004Y-58210493D01*
X135214816Y-58233697D01*
X135218326Y-58257358D01*
X135219500Y-58281250D01*
X135219500Y-59193750D01*
X135218326Y-59217642D01*
X135214816Y-59241303D01*
X135209004Y-59264507D01*
X135200946Y-59287029D01*
X135190718Y-59308653D01*
X135178421Y-59329170D01*
X135164171Y-59348383D01*
X135148107Y-59366107D01*
X135130383Y-59382171D01*
X135111170Y-59396421D01*
X135090653Y-59408718D01*
X135069029Y-59418946D01*
X135046507Y-59427004D01*
X135023303Y-59432816D01*
X134999642Y-59436326D01*
X134975750Y-59437500D01*
X134488250Y-59437500D01*
X134464358Y-59436326D01*
X134440697Y-59432816D01*
X134417493Y-59427004D01*
X134394971Y-59418946D01*
X134373347Y-59408718D01*
X134352830Y-59396421D01*
X134333617Y-59382171D01*
X134315893Y-59366107D01*
X134299829Y-59348383D01*
X134285579Y-59329170D01*
X134273282Y-59308653D01*
X134263054Y-59287029D01*
X134254996Y-59264507D01*
X134249184Y-59241303D01*
X134245674Y-59217642D01*
X134244500Y-59193750D01*
X134244500Y-58281250D01*
X134245674Y-58257358D01*
X134249184Y-58233697D01*
X134254996Y-58210493D01*
X134263054Y-58187971D01*
X134273282Y-58166347D01*
X134285579Y-58145830D01*
X134299829Y-58126617D01*
X134315893Y-58108893D01*
X134333617Y-58092829D01*
X134352830Y-58078579D01*
X134373347Y-58066282D01*
X134394971Y-58056054D01*
X134417493Y-58047996D01*
X134440697Y-58042184D01*
X134464358Y-58038674D01*
X134488250Y-58037500D01*
X134975750Y-58037500D01*
X134999642Y-58038674D01*
X134999642Y-58038674D01*
G37*
D12*
X134732000Y-58737500D03*
D11*
G36*
X133124642Y-58038674D02*
G01*
X133148303Y-58042184D01*
X133171507Y-58047996D01*
X133194029Y-58056054D01*
X133215653Y-58066282D01*
X133236170Y-58078579D01*
X133255383Y-58092829D01*
X133273107Y-58108893D01*
X133289171Y-58126617D01*
X133303421Y-58145830D01*
X133315718Y-58166347D01*
X133325946Y-58187971D01*
X133334004Y-58210493D01*
X133339816Y-58233697D01*
X133343326Y-58257358D01*
X133344500Y-58281250D01*
X133344500Y-59193750D01*
X133343326Y-59217642D01*
X133339816Y-59241303D01*
X133334004Y-59264507D01*
X133325946Y-59287029D01*
X133315718Y-59308653D01*
X133303421Y-59329170D01*
X133289171Y-59348383D01*
X133273107Y-59366107D01*
X133255383Y-59382171D01*
X133236170Y-59396421D01*
X133215653Y-59408718D01*
X133194029Y-59418946D01*
X133171507Y-59427004D01*
X133148303Y-59432816D01*
X133124642Y-59436326D01*
X133100750Y-59437500D01*
X132613250Y-59437500D01*
X132589358Y-59436326D01*
X132565697Y-59432816D01*
X132542493Y-59427004D01*
X132519971Y-59418946D01*
X132498347Y-59408718D01*
X132477830Y-59396421D01*
X132458617Y-59382171D01*
X132440893Y-59366107D01*
X132424829Y-59348383D01*
X132410579Y-59329170D01*
X132398282Y-59308653D01*
X132388054Y-59287029D01*
X132379996Y-59264507D01*
X132374184Y-59241303D01*
X132370674Y-59217642D01*
X132369500Y-59193750D01*
X132369500Y-58281250D01*
X132370674Y-58257358D01*
X132374184Y-58233697D01*
X132379996Y-58210493D01*
X132388054Y-58187971D01*
X132398282Y-58166347D01*
X132410579Y-58145830D01*
X132424829Y-58126617D01*
X132440893Y-58108893D01*
X132458617Y-58092829D01*
X132477830Y-58078579D01*
X132498347Y-58066282D01*
X132519971Y-58056054D01*
X132542493Y-58047996D01*
X132565697Y-58042184D01*
X132589358Y-58038674D01*
X132613250Y-58037500D01*
X133100750Y-58037500D01*
X133124642Y-58038674D01*
X133124642Y-58038674D01*
G37*
D12*
X132857000Y-58737500D03*
G04 #@! TD*
D15*
G04 #@! TO.C,D10*
X154991000Y-73252500D03*
X158191000Y-73252500D03*
X154991000Y-68352500D03*
X158191000Y-68352500D03*
G04 #@! TD*
G04 #@! TO.C,D9*
X114832500Y-74065500D03*
X118032500Y-74065500D03*
X114832500Y-69165500D03*
X118032500Y-69165500D03*
G04 #@! TD*
D10*
G04 #@! TO.C,D8*
X94906000Y-51447500D03*
X94906000Y-48247500D03*
X90006000Y-51447500D03*
X90006000Y-48247500D03*
G04 #@! TD*
D15*
G04 #@! TO.C,D7*
X78435000Y-87720000D03*
X75235000Y-87720000D03*
X78435000Y-92620000D03*
X75235000Y-92620000D03*
G04 #@! TD*
G04 #@! TO.C,D6*
X92722500Y-126582000D03*
X89522500Y-126582000D03*
X92722500Y-131482000D03*
X89522500Y-131482000D03*
G04 #@! TD*
D10*
G04 #@! TO.C,D5*
X134366000Y-148628500D03*
X134366000Y-151828500D03*
X139266000Y-148628500D03*
X139266000Y-151828500D03*
G04 #@! TD*
G04 #@! TO.C,D4*
X177636000Y-130099000D03*
X177636000Y-133299000D03*
X182536000Y-130099000D03*
X182536000Y-133299000D03*
G04 #@! TD*
D15*
G04 #@! TO.C,D3*
X195250000Y-92620000D03*
X198450000Y-92620000D03*
X195250000Y-87720000D03*
X198450000Y-87720000D03*
G04 #@! TD*
G04 #@! TO.C,D2*
X178078500Y-50570500D03*
X181278500Y-50570500D03*
X178078500Y-45670500D03*
X181278500Y-45670500D03*
G04 #@! TD*
D10*
G04 #@! TO.C,D1*
X139292500Y-31826000D03*
X139292500Y-28626000D03*
X134392500Y-31826000D03*
X134392500Y-28626000D03*
G04 #@! TD*
D11*
G04 #@! TO.C,C15*
G36*
X130902142Y-47370674D02*
G01*
X130925803Y-47374184D01*
X130949007Y-47379996D01*
X130971529Y-47388054D01*
X130993153Y-47398282D01*
X131013670Y-47410579D01*
X131032883Y-47424829D01*
X131050607Y-47440893D01*
X131066671Y-47458617D01*
X131080921Y-47477830D01*
X131093218Y-47498347D01*
X131103446Y-47519971D01*
X131111504Y-47542493D01*
X131117316Y-47565697D01*
X131120826Y-47589358D01*
X131122000Y-47613250D01*
X131122000Y-48525750D01*
X131120826Y-48549642D01*
X131117316Y-48573303D01*
X131111504Y-48596507D01*
X131103446Y-48619029D01*
X131093218Y-48640653D01*
X131080921Y-48661170D01*
X131066671Y-48680383D01*
X131050607Y-48698107D01*
X131032883Y-48714171D01*
X131013670Y-48728421D01*
X130993153Y-48740718D01*
X130971529Y-48750946D01*
X130949007Y-48759004D01*
X130925803Y-48764816D01*
X130902142Y-48768326D01*
X130878250Y-48769500D01*
X130390750Y-48769500D01*
X130366858Y-48768326D01*
X130343197Y-48764816D01*
X130319993Y-48759004D01*
X130297471Y-48750946D01*
X130275847Y-48740718D01*
X130255330Y-48728421D01*
X130236117Y-48714171D01*
X130218393Y-48698107D01*
X130202329Y-48680383D01*
X130188079Y-48661170D01*
X130175782Y-48640653D01*
X130165554Y-48619029D01*
X130157496Y-48596507D01*
X130151684Y-48573303D01*
X130148174Y-48549642D01*
X130147000Y-48525750D01*
X130147000Y-47613250D01*
X130148174Y-47589358D01*
X130151684Y-47565697D01*
X130157496Y-47542493D01*
X130165554Y-47519971D01*
X130175782Y-47498347D01*
X130188079Y-47477830D01*
X130202329Y-47458617D01*
X130218393Y-47440893D01*
X130236117Y-47424829D01*
X130255330Y-47410579D01*
X130275847Y-47398282D01*
X130297471Y-47388054D01*
X130319993Y-47379996D01*
X130343197Y-47374184D01*
X130366858Y-47370674D01*
X130390750Y-47369500D01*
X130878250Y-47369500D01*
X130902142Y-47370674D01*
X130902142Y-47370674D01*
G37*
D12*
X130634500Y-48069500D03*
D11*
G36*
X132777142Y-47370674D02*
G01*
X132800803Y-47374184D01*
X132824007Y-47379996D01*
X132846529Y-47388054D01*
X132868153Y-47398282D01*
X132888670Y-47410579D01*
X132907883Y-47424829D01*
X132925607Y-47440893D01*
X132941671Y-47458617D01*
X132955921Y-47477830D01*
X132968218Y-47498347D01*
X132978446Y-47519971D01*
X132986504Y-47542493D01*
X132992316Y-47565697D01*
X132995826Y-47589358D01*
X132997000Y-47613250D01*
X132997000Y-48525750D01*
X132995826Y-48549642D01*
X132992316Y-48573303D01*
X132986504Y-48596507D01*
X132978446Y-48619029D01*
X132968218Y-48640653D01*
X132955921Y-48661170D01*
X132941671Y-48680383D01*
X132925607Y-48698107D01*
X132907883Y-48714171D01*
X132888670Y-48728421D01*
X132868153Y-48740718D01*
X132846529Y-48750946D01*
X132824007Y-48759004D01*
X132800803Y-48764816D01*
X132777142Y-48768326D01*
X132753250Y-48769500D01*
X132265750Y-48769500D01*
X132241858Y-48768326D01*
X132218197Y-48764816D01*
X132194993Y-48759004D01*
X132172471Y-48750946D01*
X132150847Y-48740718D01*
X132130330Y-48728421D01*
X132111117Y-48714171D01*
X132093393Y-48698107D01*
X132077329Y-48680383D01*
X132063079Y-48661170D01*
X132050782Y-48640653D01*
X132040554Y-48619029D01*
X132032496Y-48596507D01*
X132026684Y-48573303D01*
X132023174Y-48549642D01*
X132022000Y-48525750D01*
X132022000Y-47613250D01*
X132023174Y-47589358D01*
X132026684Y-47565697D01*
X132032496Y-47542493D01*
X132040554Y-47519971D01*
X132050782Y-47498347D01*
X132063079Y-47477830D01*
X132077329Y-47458617D01*
X132093393Y-47440893D01*
X132111117Y-47424829D01*
X132130330Y-47410579D01*
X132150847Y-47398282D01*
X132172471Y-47388054D01*
X132194993Y-47379996D01*
X132218197Y-47374184D01*
X132241858Y-47370674D01*
X132265750Y-47369500D01*
X132753250Y-47369500D01*
X132777142Y-47370674D01*
X132777142Y-47370674D01*
G37*
D12*
X132509500Y-48069500D03*
G04 #@! TD*
D11*
G04 #@! TO.C,C14*
G36*
X130902142Y-43306674D02*
G01*
X130925803Y-43310184D01*
X130949007Y-43315996D01*
X130971529Y-43324054D01*
X130993153Y-43334282D01*
X131013670Y-43346579D01*
X131032883Y-43360829D01*
X131050607Y-43376893D01*
X131066671Y-43394617D01*
X131080921Y-43413830D01*
X131093218Y-43434347D01*
X131103446Y-43455971D01*
X131111504Y-43478493D01*
X131117316Y-43501697D01*
X131120826Y-43525358D01*
X131122000Y-43549250D01*
X131122000Y-44461750D01*
X131120826Y-44485642D01*
X131117316Y-44509303D01*
X131111504Y-44532507D01*
X131103446Y-44555029D01*
X131093218Y-44576653D01*
X131080921Y-44597170D01*
X131066671Y-44616383D01*
X131050607Y-44634107D01*
X131032883Y-44650171D01*
X131013670Y-44664421D01*
X130993153Y-44676718D01*
X130971529Y-44686946D01*
X130949007Y-44695004D01*
X130925803Y-44700816D01*
X130902142Y-44704326D01*
X130878250Y-44705500D01*
X130390750Y-44705500D01*
X130366858Y-44704326D01*
X130343197Y-44700816D01*
X130319993Y-44695004D01*
X130297471Y-44686946D01*
X130275847Y-44676718D01*
X130255330Y-44664421D01*
X130236117Y-44650171D01*
X130218393Y-44634107D01*
X130202329Y-44616383D01*
X130188079Y-44597170D01*
X130175782Y-44576653D01*
X130165554Y-44555029D01*
X130157496Y-44532507D01*
X130151684Y-44509303D01*
X130148174Y-44485642D01*
X130147000Y-44461750D01*
X130147000Y-43549250D01*
X130148174Y-43525358D01*
X130151684Y-43501697D01*
X130157496Y-43478493D01*
X130165554Y-43455971D01*
X130175782Y-43434347D01*
X130188079Y-43413830D01*
X130202329Y-43394617D01*
X130218393Y-43376893D01*
X130236117Y-43360829D01*
X130255330Y-43346579D01*
X130275847Y-43334282D01*
X130297471Y-43324054D01*
X130319993Y-43315996D01*
X130343197Y-43310184D01*
X130366858Y-43306674D01*
X130390750Y-43305500D01*
X130878250Y-43305500D01*
X130902142Y-43306674D01*
X130902142Y-43306674D01*
G37*
D12*
X130634500Y-44005500D03*
D11*
G36*
X132777142Y-43306674D02*
G01*
X132800803Y-43310184D01*
X132824007Y-43315996D01*
X132846529Y-43324054D01*
X132868153Y-43334282D01*
X132888670Y-43346579D01*
X132907883Y-43360829D01*
X132925607Y-43376893D01*
X132941671Y-43394617D01*
X132955921Y-43413830D01*
X132968218Y-43434347D01*
X132978446Y-43455971D01*
X132986504Y-43478493D01*
X132992316Y-43501697D01*
X132995826Y-43525358D01*
X132997000Y-43549250D01*
X132997000Y-44461750D01*
X132995826Y-44485642D01*
X132992316Y-44509303D01*
X132986504Y-44532507D01*
X132978446Y-44555029D01*
X132968218Y-44576653D01*
X132955921Y-44597170D01*
X132941671Y-44616383D01*
X132925607Y-44634107D01*
X132907883Y-44650171D01*
X132888670Y-44664421D01*
X132868153Y-44676718D01*
X132846529Y-44686946D01*
X132824007Y-44695004D01*
X132800803Y-44700816D01*
X132777142Y-44704326D01*
X132753250Y-44705500D01*
X132265750Y-44705500D01*
X132241858Y-44704326D01*
X132218197Y-44700816D01*
X132194993Y-44695004D01*
X132172471Y-44686946D01*
X132150847Y-44676718D01*
X132130330Y-44664421D01*
X132111117Y-44650171D01*
X132093393Y-44634107D01*
X132077329Y-44616383D01*
X132063079Y-44597170D01*
X132050782Y-44576653D01*
X132040554Y-44555029D01*
X132032496Y-44532507D01*
X132026684Y-44509303D01*
X132023174Y-44485642D01*
X132022000Y-44461750D01*
X132022000Y-43549250D01*
X132023174Y-43525358D01*
X132026684Y-43501697D01*
X132032496Y-43478493D01*
X132040554Y-43455971D01*
X132050782Y-43434347D01*
X132063079Y-43413830D01*
X132077329Y-43394617D01*
X132093393Y-43376893D01*
X132111117Y-43360829D01*
X132130330Y-43346579D01*
X132150847Y-43334282D01*
X132172471Y-43324054D01*
X132194993Y-43315996D01*
X132218197Y-43310184D01*
X132241858Y-43306674D01*
X132265750Y-43305500D01*
X132753250Y-43305500D01*
X132777142Y-43306674D01*
X132777142Y-43306674D01*
G37*
D12*
X132509500Y-44005500D03*
G04 #@! TD*
D11*
G04 #@! TO.C,C13*
G36*
X130902142Y-45338674D02*
G01*
X130925803Y-45342184D01*
X130949007Y-45347996D01*
X130971529Y-45356054D01*
X130993153Y-45366282D01*
X131013670Y-45378579D01*
X131032883Y-45392829D01*
X131050607Y-45408893D01*
X131066671Y-45426617D01*
X131080921Y-45445830D01*
X131093218Y-45466347D01*
X131103446Y-45487971D01*
X131111504Y-45510493D01*
X131117316Y-45533697D01*
X131120826Y-45557358D01*
X131122000Y-45581250D01*
X131122000Y-46493750D01*
X131120826Y-46517642D01*
X131117316Y-46541303D01*
X131111504Y-46564507D01*
X131103446Y-46587029D01*
X131093218Y-46608653D01*
X131080921Y-46629170D01*
X131066671Y-46648383D01*
X131050607Y-46666107D01*
X131032883Y-46682171D01*
X131013670Y-46696421D01*
X130993153Y-46708718D01*
X130971529Y-46718946D01*
X130949007Y-46727004D01*
X130925803Y-46732816D01*
X130902142Y-46736326D01*
X130878250Y-46737500D01*
X130390750Y-46737500D01*
X130366858Y-46736326D01*
X130343197Y-46732816D01*
X130319993Y-46727004D01*
X130297471Y-46718946D01*
X130275847Y-46708718D01*
X130255330Y-46696421D01*
X130236117Y-46682171D01*
X130218393Y-46666107D01*
X130202329Y-46648383D01*
X130188079Y-46629170D01*
X130175782Y-46608653D01*
X130165554Y-46587029D01*
X130157496Y-46564507D01*
X130151684Y-46541303D01*
X130148174Y-46517642D01*
X130147000Y-46493750D01*
X130147000Y-45581250D01*
X130148174Y-45557358D01*
X130151684Y-45533697D01*
X130157496Y-45510493D01*
X130165554Y-45487971D01*
X130175782Y-45466347D01*
X130188079Y-45445830D01*
X130202329Y-45426617D01*
X130218393Y-45408893D01*
X130236117Y-45392829D01*
X130255330Y-45378579D01*
X130275847Y-45366282D01*
X130297471Y-45356054D01*
X130319993Y-45347996D01*
X130343197Y-45342184D01*
X130366858Y-45338674D01*
X130390750Y-45337500D01*
X130878250Y-45337500D01*
X130902142Y-45338674D01*
X130902142Y-45338674D01*
G37*
D12*
X130634500Y-46037500D03*
D11*
G36*
X132777142Y-45338674D02*
G01*
X132800803Y-45342184D01*
X132824007Y-45347996D01*
X132846529Y-45356054D01*
X132868153Y-45366282D01*
X132888670Y-45378579D01*
X132907883Y-45392829D01*
X132925607Y-45408893D01*
X132941671Y-45426617D01*
X132955921Y-45445830D01*
X132968218Y-45466347D01*
X132978446Y-45487971D01*
X132986504Y-45510493D01*
X132992316Y-45533697D01*
X132995826Y-45557358D01*
X132997000Y-45581250D01*
X132997000Y-46493750D01*
X132995826Y-46517642D01*
X132992316Y-46541303D01*
X132986504Y-46564507D01*
X132978446Y-46587029D01*
X132968218Y-46608653D01*
X132955921Y-46629170D01*
X132941671Y-46648383D01*
X132925607Y-46666107D01*
X132907883Y-46682171D01*
X132888670Y-46696421D01*
X132868153Y-46708718D01*
X132846529Y-46718946D01*
X132824007Y-46727004D01*
X132800803Y-46732816D01*
X132777142Y-46736326D01*
X132753250Y-46737500D01*
X132265750Y-46737500D01*
X132241858Y-46736326D01*
X132218197Y-46732816D01*
X132194993Y-46727004D01*
X132172471Y-46718946D01*
X132150847Y-46708718D01*
X132130330Y-46696421D01*
X132111117Y-46682171D01*
X132093393Y-46666107D01*
X132077329Y-46648383D01*
X132063079Y-46629170D01*
X132050782Y-46608653D01*
X132040554Y-46587029D01*
X132032496Y-46564507D01*
X132026684Y-46541303D01*
X132023174Y-46517642D01*
X132022000Y-46493750D01*
X132022000Y-45581250D01*
X132023174Y-45557358D01*
X132026684Y-45533697D01*
X132032496Y-45510493D01*
X132040554Y-45487971D01*
X132050782Y-45466347D01*
X132063079Y-45445830D01*
X132077329Y-45426617D01*
X132093393Y-45408893D01*
X132111117Y-45392829D01*
X132130330Y-45378579D01*
X132150847Y-45366282D01*
X132172471Y-45356054D01*
X132194993Y-45347996D01*
X132218197Y-45342184D01*
X132241858Y-45338674D01*
X132265750Y-45337500D01*
X132753250Y-45337500D01*
X132777142Y-45338674D01*
X132777142Y-45338674D01*
G37*
D12*
X132509500Y-46037500D03*
G04 #@! TD*
D11*
G04 #@! TO.C,C10*
G36*
X155420142Y-76841674D02*
G01*
X155443803Y-76845184D01*
X155467007Y-76850996D01*
X155489529Y-76859054D01*
X155511153Y-76869282D01*
X155531670Y-76881579D01*
X155550883Y-76895829D01*
X155568607Y-76911893D01*
X155584671Y-76929617D01*
X155598921Y-76948830D01*
X155611218Y-76969347D01*
X155621446Y-76990971D01*
X155629504Y-77013493D01*
X155635316Y-77036697D01*
X155638826Y-77060358D01*
X155640000Y-77084250D01*
X155640000Y-77571750D01*
X155638826Y-77595642D01*
X155635316Y-77619303D01*
X155629504Y-77642507D01*
X155621446Y-77665029D01*
X155611218Y-77686653D01*
X155598921Y-77707170D01*
X155584671Y-77726383D01*
X155568607Y-77744107D01*
X155550883Y-77760171D01*
X155531670Y-77774421D01*
X155511153Y-77786718D01*
X155489529Y-77796946D01*
X155467007Y-77805004D01*
X155443803Y-77810816D01*
X155420142Y-77814326D01*
X155396250Y-77815500D01*
X154483750Y-77815500D01*
X154459858Y-77814326D01*
X154436197Y-77810816D01*
X154412993Y-77805004D01*
X154390471Y-77796946D01*
X154368847Y-77786718D01*
X154348330Y-77774421D01*
X154329117Y-77760171D01*
X154311393Y-77744107D01*
X154295329Y-77726383D01*
X154281079Y-77707170D01*
X154268782Y-77686653D01*
X154258554Y-77665029D01*
X154250496Y-77642507D01*
X154244684Y-77619303D01*
X154241174Y-77595642D01*
X154240000Y-77571750D01*
X154240000Y-77084250D01*
X154241174Y-77060358D01*
X154244684Y-77036697D01*
X154250496Y-77013493D01*
X154258554Y-76990971D01*
X154268782Y-76969347D01*
X154281079Y-76948830D01*
X154295329Y-76929617D01*
X154311393Y-76911893D01*
X154329117Y-76895829D01*
X154348330Y-76881579D01*
X154368847Y-76869282D01*
X154390471Y-76859054D01*
X154412993Y-76850996D01*
X154436197Y-76845184D01*
X154459858Y-76841674D01*
X154483750Y-76840500D01*
X155396250Y-76840500D01*
X155420142Y-76841674D01*
X155420142Y-76841674D01*
G37*
D12*
X154940000Y-77328000D03*
D11*
G36*
X155420142Y-74966674D02*
G01*
X155443803Y-74970184D01*
X155467007Y-74975996D01*
X155489529Y-74984054D01*
X155511153Y-74994282D01*
X155531670Y-75006579D01*
X155550883Y-75020829D01*
X155568607Y-75036893D01*
X155584671Y-75054617D01*
X155598921Y-75073830D01*
X155611218Y-75094347D01*
X155621446Y-75115971D01*
X155629504Y-75138493D01*
X155635316Y-75161697D01*
X155638826Y-75185358D01*
X155640000Y-75209250D01*
X155640000Y-75696750D01*
X155638826Y-75720642D01*
X155635316Y-75744303D01*
X155629504Y-75767507D01*
X155621446Y-75790029D01*
X155611218Y-75811653D01*
X155598921Y-75832170D01*
X155584671Y-75851383D01*
X155568607Y-75869107D01*
X155550883Y-75885171D01*
X155531670Y-75899421D01*
X155511153Y-75911718D01*
X155489529Y-75921946D01*
X155467007Y-75930004D01*
X155443803Y-75935816D01*
X155420142Y-75939326D01*
X155396250Y-75940500D01*
X154483750Y-75940500D01*
X154459858Y-75939326D01*
X154436197Y-75935816D01*
X154412993Y-75930004D01*
X154390471Y-75921946D01*
X154368847Y-75911718D01*
X154348330Y-75899421D01*
X154329117Y-75885171D01*
X154311393Y-75869107D01*
X154295329Y-75851383D01*
X154281079Y-75832170D01*
X154268782Y-75811653D01*
X154258554Y-75790029D01*
X154250496Y-75767507D01*
X154244684Y-75744303D01*
X154241174Y-75720642D01*
X154240000Y-75696750D01*
X154240000Y-75209250D01*
X154241174Y-75185358D01*
X154244684Y-75161697D01*
X154250496Y-75138493D01*
X154258554Y-75115971D01*
X154268782Y-75094347D01*
X154281079Y-75073830D01*
X154295329Y-75054617D01*
X154311393Y-75036893D01*
X154329117Y-75020829D01*
X154348330Y-75006579D01*
X154368847Y-74994282D01*
X154390471Y-74984054D01*
X154412993Y-74975996D01*
X154436197Y-74970184D01*
X154459858Y-74966674D01*
X154483750Y-74965500D01*
X155396250Y-74965500D01*
X155420142Y-74966674D01*
X155420142Y-74966674D01*
G37*
D12*
X154940000Y-75453000D03*
G04 #@! TD*
D11*
G04 #@! TO.C,C9*
G36*
X110899642Y-73342174D02*
G01*
X110923303Y-73345684D01*
X110946507Y-73351496D01*
X110969029Y-73359554D01*
X110990653Y-73369782D01*
X111011170Y-73382079D01*
X111030383Y-73396329D01*
X111048107Y-73412393D01*
X111064171Y-73430117D01*
X111078421Y-73449330D01*
X111090718Y-73469847D01*
X111100946Y-73491471D01*
X111109004Y-73513993D01*
X111114816Y-73537197D01*
X111118326Y-73560858D01*
X111119500Y-73584750D01*
X111119500Y-74497250D01*
X111118326Y-74521142D01*
X111114816Y-74544803D01*
X111109004Y-74568007D01*
X111100946Y-74590529D01*
X111090718Y-74612153D01*
X111078421Y-74632670D01*
X111064171Y-74651883D01*
X111048107Y-74669607D01*
X111030383Y-74685671D01*
X111011170Y-74699921D01*
X110990653Y-74712218D01*
X110969029Y-74722446D01*
X110946507Y-74730504D01*
X110923303Y-74736316D01*
X110899642Y-74739826D01*
X110875750Y-74741000D01*
X110388250Y-74741000D01*
X110364358Y-74739826D01*
X110340697Y-74736316D01*
X110317493Y-74730504D01*
X110294971Y-74722446D01*
X110273347Y-74712218D01*
X110252830Y-74699921D01*
X110233617Y-74685671D01*
X110215893Y-74669607D01*
X110199829Y-74651883D01*
X110185579Y-74632670D01*
X110173282Y-74612153D01*
X110163054Y-74590529D01*
X110154996Y-74568007D01*
X110149184Y-74544803D01*
X110145674Y-74521142D01*
X110144500Y-74497250D01*
X110144500Y-73584750D01*
X110145674Y-73560858D01*
X110149184Y-73537197D01*
X110154996Y-73513993D01*
X110163054Y-73491471D01*
X110173282Y-73469847D01*
X110185579Y-73449330D01*
X110199829Y-73430117D01*
X110215893Y-73412393D01*
X110233617Y-73396329D01*
X110252830Y-73382079D01*
X110273347Y-73369782D01*
X110294971Y-73359554D01*
X110317493Y-73351496D01*
X110340697Y-73345684D01*
X110364358Y-73342174D01*
X110388250Y-73341000D01*
X110875750Y-73341000D01*
X110899642Y-73342174D01*
X110899642Y-73342174D01*
G37*
D12*
X110632000Y-74041000D03*
D11*
G36*
X112774642Y-73342174D02*
G01*
X112798303Y-73345684D01*
X112821507Y-73351496D01*
X112844029Y-73359554D01*
X112865653Y-73369782D01*
X112886170Y-73382079D01*
X112905383Y-73396329D01*
X112923107Y-73412393D01*
X112939171Y-73430117D01*
X112953421Y-73449330D01*
X112965718Y-73469847D01*
X112975946Y-73491471D01*
X112984004Y-73513993D01*
X112989816Y-73537197D01*
X112993326Y-73560858D01*
X112994500Y-73584750D01*
X112994500Y-74497250D01*
X112993326Y-74521142D01*
X112989816Y-74544803D01*
X112984004Y-74568007D01*
X112975946Y-74590529D01*
X112965718Y-74612153D01*
X112953421Y-74632670D01*
X112939171Y-74651883D01*
X112923107Y-74669607D01*
X112905383Y-74685671D01*
X112886170Y-74699921D01*
X112865653Y-74712218D01*
X112844029Y-74722446D01*
X112821507Y-74730504D01*
X112798303Y-74736316D01*
X112774642Y-74739826D01*
X112750750Y-74741000D01*
X112263250Y-74741000D01*
X112239358Y-74739826D01*
X112215697Y-74736316D01*
X112192493Y-74730504D01*
X112169971Y-74722446D01*
X112148347Y-74712218D01*
X112127830Y-74699921D01*
X112108617Y-74685671D01*
X112090893Y-74669607D01*
X112074829Y-74651883D01*
X112060579Y-74632670D01*
X112048282Y-74612153D01*
X112038054Y-74590529D01*
X112029996Y-74568007D01*
X112024184Y-74544803D01*
X112020674Y-74521142D01*
X112019500Y-74497250D01*
X112019500Y-73584750D01*
X112020674Y-73560858D01*
X112024184Y-73537197D01*
X112029996Y-73513993D01*
X112038054Y-73491471D01*
X112048282Y-73469847D01*
X112060579Y-73449330D01*
X112074829Y-73430117D01*
X112090893Y-73412393D01*
X112108617Y-73396329D01*
X112127830Y-73382079D01*
X112148347Y-73369782D01*
X112169971Y-73359554D01*
X112192493Y-73351496D01*
X112215697Y-73345684D01*
X112239358Y-73342174D01*
X112263250Y-73341000D01*
X112750750Y-73341000D01*
X112774642Y-73342174D01*
X112774642Y-73342174D01*
G37*
D12*
X112507000Y-74041000D03*
G04 #@! TD*
D11*
G04 #@! TO.C,C8*
G36*
X95412642Y-55061174D02*
G01*
X95436303Y-55064684D01*
X95459507Y-55070496D01*
X95482029Y-55078554D01*
X95503653Y-55088782D01*
X95524170Y-55101079D01*
X95543383Y-55115329D01*
X95561107Y-55131393D01*
X95577171Y-55149117D01*
X95591421Y-55168330D01*
X95603718Y-55188847D01*
X95613946Y-55210471D01*
X95622004Y-55232993D01*
X95627816Y-55256197D01*
X95631326Y-55279858D01*
X95632500Y-55303750D01*
X95632500Y-55791250D01*
X95631326Y-55815142D01*
X95627816Y-55838803D01*
X95622004Y-55862007D01*
X95613946Y-55884529D01*
X95603718Y-55906153D01*
X95591421Y-55926670D01*
X95577171Y-55945883D01*
X95561107Y-55963607D01*
X95543383Y-55979671D01*
X95524170Y-55993921D01*
X95503653Y-56006218D01*
X95482029Y-56016446D01*
X95459507Y-56024504D01*
X95436303Y-56030316D01*
X95412642Y-56033826D01*
X95388750Y-56035000D01*
X94476250Y-56035000D01*
X94452358Y-56033826D01*
X94428697Y-56030316D01*
X94405493Y-56024504D01*
X94382971Y-56016446D01*
X94361347Y-56006218D01*
X94340830Y-55993921D01*
X94321617Y-55979671D01*
X94303893Y-55963607D01*
X94287829Y-55945883D01*
X94273579Y-55926670D01*
X94261282Y-55906153D01*
X94251054Y-55884529D01*
X94242996Y-55862007D01*
X94237184Y-55838803D01*
X94233674Y-55815142D01*
X94232500Y-55791250D01*
X94232500Y-55303750D01*
X94233674Y-55279858D01*
X94237184Y-55256197D01*
X94242996Y-55232993D01*
X94251054Y-55210471D01*
X94261282Y-55188847D01*
X94273579Y-55168330D01*
X94287829Y-55149117D01*
X94303893Y-55131393D01*
X94321617Y-55115329D01*
X94340830Y-55101079D01*
X94361347Y-55088782D01*
X94382971Y-55078554D01*
X94405493Y-55070496D01*
X94428697Y-55064684D01*
X94452358Y-55061174D01*
X94476250Y-55060000D01*
X95388750Y-55060000D01*
X95412642Y-55061174D01*
X95412642Y-55061174D01*
G37*
D12*
X94932500Y-55547500D03*
D11*
G36*
X95412642Y-53186174D02*
G01*
X95436303Y-53189684D01*
X95459507Y-53195496D01*
X95482029Y-53203554D01*
X95503653Y-53213782D01*
X95524170Y-53226079D01*
X95543383Y-53240329D01*
X95561107Y-53256393D01*
X95577171Y-53274117D01*
X95591421Y-53293330D01*
X95603718Y-53313847D01*
X95613946Y-53335471D01*
X95622004Y-53357993D01*
X95627816Y-53381197D01*
X95631326Y-53404858D01*
X95632500Y-53428750D01*
X95632500Y-53916250D01*
X95631326Y-53940142D01*
X95627816Y-53963803D01*
X95622004Y-53987007D01*
X95613946Y-54009529D01*
X95603718Y-54031153D01*
X95591421Y-54051670D01*
X95577171Y-54070883D01*
X95561107Y-54088607D01*
X95543383Y-54104671D01*
X95524170Y-54118921D01*
X95503653Y-54131218D01*
X95482029Y-54141446D01*
X95459507Y-54149504D01*
X95436303Y-54155316D01*
X95412642Y-54158826D01*
X95388750Y-54160000D01*
X94476250Y-54160000D01*
X94452358Y-54158826D01*
X94428697Y-54155316D01*
X94405493Y-54149504D01*
X94382971Y-54141446D01*
X94361347Y-54131218D01*
X94340830Y-54118921D01*
X94321617Y-54104671D01*
X94303893Y-54088607D01*
X94287829Y-54070883D01*
X94273579Y-54051670D01*
X94261282Y-54031153D01*
X94251054Y-54009529D01*
X94242996Y-53987007D01*
X94237184Y-53963803D01*
X94233674Y-53940142D01*
X94232500Y-53916250D01*
X94232500Y-53428750D01*
X94233674Y-53404858D01*
X94237184Y-53381197D01*
X94242996Y-53357993D01*
X94251054Y-53335471D01*
X94261282Y-53313847D01*
X94273579Y-53293330D01*
X94287829Y-53274117D01*
X94303893Y-53256393D01*
X94321617Y-53240329D01*
X94340830Y-53226079D01*
X94361347Y-53213782D01*
X94382971Y-53203554D01*
X94405493Y-53195496D01*
X94428697Y-53189684D01*
X94452358Y-53186174D01*
X94476250Y-53185000D01*
X95388750Y-53185000D01*
X95412642Y-53186174D01*
X95412642Y-53186174D01*
G37*
D12*
X94932500Y-53672500D03*
G04 #@! TD*
D11*
G04 #@! TO.C,C7*
G36*
X80580142Y-84772174D02*
G01*
X80603803Y-84775684D01*
X80627007Y-84781496D01*
X80649529Y-84789554D01*
X80671153Y-84799782D01*
X80691670Y-84812079D01*
X80710883Y-84826329D01*
X80728607Y-84842393D01*
X80744671Y-84860117D01*
X80758921Y-84879330D01*
X80771218Y-84899847D01*
X80781446Y-84921471D01*
X80789504Y-84943993D01*
X80795316Y-84967197D01*
X80798826Y-84990858D01*
X80800000Y-85014750D01*
X80800000Y-85927250D01*
X80798826Y-85951142D01*
X80795316Y-85974803D01*
X80789504Y-85998007D01*
X80781446Y-86020529D01*
X80771218Y-86042153D01*
X80758921Y-86062670D01*
X80744671Y-86081883D01*
X80728607Y-86099607D01*
X80710883Y-86115671D01*
X80691670Y-86129921D01*
X80671153Y-86142218D01*
X80649529Y-86152446D01*
X80627007Y-86160504D01*
X80603803Y-86166316D01*
X80580142Y-86169826D01*
X80556250Y-86171000D01*
X80068750Y-86171000D01*
X80044858Y-86169826D01*
X80021197Y-86166316D01*
X79997993Y-86160504D01*
X79975471Y-86152446D01*
X79953847Y-86142218D01*
X79933330Y-86129921D01*
X79914117Y-86115671D01*
X79896393Y-86099607D01*
X79880329Y-86081883D01*
X79866079Y-86062670D01*
X79853782Y-86042153D01*
X79843554Y-86020529D01*
X79835496Y-85998007D01*
X79829684Y-85974803D01*
X79826174Y-85951142D01*
X79825000Y-85927250D01*
X79825000Y-85014750D01*
X79826174Y-84990858D01*
X79829684Y-84967197D01*
X79835496Y-84943993D01*
X79843554Y-84921471D01*
X79853782Y-84899847D01*
X79866079Y-84879330D01*
X79880329Y-84860117D01*
X79896393Y-84842393D01*
X79914117Y-84826329D01*
X79933330Y-84812079D01*
X79953847Y-84799782D01*
X79975471Y-84789554D01*
X79997993Y-84781496D01*
X80021197Y-84775684D01*
X80044858Y-84772174D01*
X80068750Y-84771000D01*
X80556250Y-84771000D01*
X80580142Y-84772174D01*
X80580142Y-84772174D01*
G37*
D12*
X80312500Y-85471000D03*
D11*
G36*
X78705142Y-84772174D02*
G01*
X78728803Y-84775684D01*
X78752007Y-84781496D01*
X78774529Y-84789554D01*
X78796153Y-84799782D01*
X78816670Y-84812079D01*
X78835883Y-84826329D01*
X78853607Y-84842393D01*
X78869671Y-84860117D01*
X78883921Y-84879330D01*
X78896218Y-84899847D01*
X78906446Y-84921471D01*
X78914504Y-84943993D01*
X78920316Y-84967197D01*
X78923826Y-84990858D01*
X78925000Y-85014750D01*
X78925000Y-85927250D01*
X78923826Y-85951142D01*
X78920316Y-85974803D01*
X78914504Y-85998007D01*
X78906446Y-86020529D01*
X78896218Y-86042153D01*
X78883921Y-86062670D01*
X78869671Y-86081883D01*
X78853607Y-86099607D01*
X78835883Y-86115671D01*
X78816670Y-86129921D01*
X78796153Y-86142218D01*
X78774529Y-86152446D01*
X78752007Y-86160504D01*
X78728803Y-86166316D01*
X78705142Y-86169826D01*
X78681250Y-86171000D01*
X78193750Y-86171000D01*
X78169858Y-86169826D01*
X78146197Y-86166316D01*
X78122993Y-86160504D01*
X78100471Y-86152446D01*
X78078847Y-86142218D01*
X78058330Y-86129921D01*
X78039117Y-86115671D01*
X78021393Y-86099607D01*
X78005329Y-86081883D01*
X77991079Y-86062670D01*
X77978782Y-86042153D01*
X77968554Y-86020529D01*
X77960496Y-85998007D01*
X77954684Y-85974803D01*
X77951174Y-85951142D01*
X77950000Y-85927250D01*
X77950000Y-85014750D01*
X77951174Y-84990858D01*
X77954684Y-84967197D01*
X77960496Y-84943993D01*
X77968554Y-84921471D01*
X77978782Y-84899847D01*
X77991079Y-84879330D01*
X78005329Y-84860117D01*
X78021393Y-84842393D01*
X78039117Y-84826329D01*
X78058330Y-84812079D01*
X78078847Y-84799782D01*
X78100471Y-84789554D01*
X78122993Y-84781496D01*
X78146197Y-84775684D01*
X78169858Y-84772174D01*
X78193750Y-84771000D01*
X78681250Y-84771000D01*
X78705142Y-84772174D01*
X78705142Y-84772174D01*
G37*
D12*
X78437500Y-85471000D03*
G04 #@! TD*
D11*
G04 #@! TO.C,C6*
G36*
X91102642Y-123570674D02*
G01*
X91126303Y-123574184D01*
X91149507Y-123579996D01*
X91172029Y-123588054D01*
X91193653Y-123598282D01*
X91214170Y-123610579D01*
X91233383Y-123624829D01*
X91251107Y-123640893D01*
X91267171Y-123658617D01*
X91281421Y-123677830D01*
X91293718Y-123698347D01*
X91303946Y-123719971D01*
X91312004Y-123742493D01*
X91317816Y-123765697D01*
X91321326Y-123789358D01*
X91322500Y-123813250D01*
X91322500Y-124725750D01*
X91321326Y-124749642D01*
X91317816Y-124773303D01*
X91312004Y-124796507D01*
X91303946Y-124819029D01*
X91293718Y-124840653D01*
X91281421Y-124861170D01*
X91267171Y-124880383D01*
X91251107Y-124898107D01*
X91233383Y-124914171D01*
X91214170Y-124928421D01*
X91193653Y-124940718D01*
X91172029Y-124950946D01*
X91149507Y-124959004D01*
X91126303Y-124964816D01*
X91102642Y-124968326D01*
X91078750Y-124969500D01*
X90591250Y-124969500D01*
X90567358Y-124968326D01*
X90543697Y-124964816D01*
X90520493Y-124959004D01*
X90497971Y-124950946D01*
X90476347Y-124940718D01*
X90455830Y-124928421D01*
X90436617Y-124914171D01*
X90418893Y-124898107D01*
X90402829Y-124880383D01*
X90388579Y-124861170D01*
X90376282Y-124840653D01*
X90366054Y-124819029D01*
X90357996Y-124796507D01*
X90352184Y-124773303D01*
X90348674Y-124749642D01*
X90347500Y-124725750D01*
X90347500Y-123813250D01*
X90348674Y-123789358D01*
X90352184Y-123765697D01*
X90357996Y-123742493D01*
X90366054Y-123719971D01*
X90376282Y-123698347D01*
X90388579Y-123677830D01*
X90402829Y-123658617D01*
X90418893Y-123640893D01*
X90436617Y-123624829D01*
X90455830Y-123610579D01*
X90476347Y-123598282D01*
X90497971Y-123588054D01*
X90520493Y-123579996D01*
X90543697Y-123574184D01*
X90567358Y-123570674D01*
X90591250Y-123569500D01*
X91078750Y-123569500D01*
X91102642Y-123570674D01*
X91102642Y-123570674D01*
G37*
D12*
X90835000Y-124269500D03*
D11*
G36*
X92977642Y-123570674D02*
G01*
X93001303Y-123574184D01*
X93024507Y-123579996D01*
X93047029Y-123588054D01*
X93068653Y-123598282D01*
X93089170Y-123610579D01*
X93108383Y-123624829D01*
X93126107Y-123640893D01*
X93142171Y-123658617D01*
X93156421Y-123677830D01*
X93168718Y-123698347D01*
X93178946Y-123719971D01*
X93187004Y-123742493D01*
X93192816Y-123765697D01*
X93196326Y-123789358D01*
X93197500Y-123813250D01*
X93197500Y-124725750D01*
X93196326Y-124749642D01*
X93192816Y-124773303D01*
X93187004Y-124796507D01*
X93178946Y-124819029D01*
X93168718Y-124840653D01*
X93156421Y-124861170D01*
X93142171Y-124880383D01*
X93126107Y-124898107D01*
X93108383Y-124914171D01*
X93089170Y-124928421D01*
X93068653Y-124940718D01*
X93047029Y-124950946D01*
X93024507Y-124959004D01*
X93001303Y-124964816D01*
X92977642Y-124968326D01*
X92953750Y-124969500D01*
X92466250Y-124969500D01*
X92442358Y-124968326D01*
X92418697Y-124964816D01*
X92395493Y-124959004D01*
X92372971Y-124950946D01*
X92351347Y-124940718D01*
X92330830Y-124928421D01*
X92311617Y-124914171D01*
X92293893Y-124898107D01*
X92277829Y-124880383D01*
X92263579Y-124861170D01*
X92251282Y-124840653D01*
X92241054Y-124819029D01*
X92232996Y-124796507D01*
X92227184Y-124773303D01*
X92223674Y-124749642D01*
X92222500Y-124725750D01*
X92222500Y-123813250D01*
X92223674Y-123789358D01*
X92227184Y-123765697D01*
X92232996Y-123742493D01*
X92241054Y-123719971D01*
X92251282Y-123698347D01*
X92263579Y-123677830D01*
X92277829Y-123658617D01*
X92293893Y-123640893D01*
X92311617Y-123624829D01*
X92330830Y-123610579D01*
X92351347Y-123598282D01*
X92372971Y-123588054D01*
X92395493Y-123579996D01*
X92418697Y-123574184D01*
X92442358Y-123570674D01*
X92466250Y-123569500D01*
X92953750Y-123569500D01*
X92977642Y-123570674D01*
X92977642Y-123570674D01*
G37*
D12*
X92710000Y-124269500D03*
G04 #@! TD*
D11*
G04 #@! TO.C,C5*
G36*
X132743642Y-145541674D02*
G01*
X132767303Y-145545184D01*
X132790507Y-145550996D01*
X132813029Y-145559054D01*
X132834653Y-145569282D01*
X132855170Y-145581579D01*
X132874383Y-145595829D01*
X132892107Y-145611893D01*
X132908171Y-145629617D01*
X132922421Y-145648830D01*
X132934718Y-145669347D01*
X132944946Y-145690971D01*
X132953004Y-145713493D01*
X132958816Y-145736697D01*
X132962326Y-145760358D01*
X132963500Y-145784250D01*
X132963500Y-146696750D01*
X132962326Y-146720642D01*
X132958816Y-146744303D01*
X132953004Y-146767507D01*
X132944946Y-146790029D01*
X132934718Y-146811653D01*
X132922421Y-146832170D01*
X132908171Y-146851383D01*
X132892107Y-146869107D01*
X132874383Y-146885171D01*
X132855170Y-146899421D01*
X132834653Y-146911718D01*
X132813029Y-146921946D01*
X132790507Y-146930004D01*
X132767303Y-146935816D01*
X132743642Y-146939326D01*
X132719750Y-146940500D01*
X132232250Y-146940500D01*
X132208358Y-146939326D01*
X132184697Y-146935816D01*
X132161493Y-146930004D01*
X132138971Y-146921946D01*
X132117347Y-146911718D01*
X132096830Y-146899421D01*
X132077617Y-146885171D01*
X132059893Y-146869107D01*
X132043829Y-146851383D01*
X132029579Y-146832170D01*
X132017282Y-146811653D01*
X132007054Y-146790029D01*
X131998996Y-146767507D01*
X131993184Y-146744303D01*
X131989674Y-146720642D01*
X131988500Y-146696750D01*
X131988500Y-145784250D01*
X131989674Y-145760358D01*
X131993184Y-145736697D01*
X131998996Y-145713493D01*
X132007054Y-145690971D01*
X132017282Y-145669347D01*
X132029579Y-145648830D01*
X132043829Y-145629617D01*
X132059893Y-145611893D01*
X132077617Y-145595829D01*
X132096830Y-145581579D01*
X132117347Y-145569282D01*
X132138971Y-145559054D01*
X132161493Y-145550996D01*
X132184697Y-145545184D01*
X132208358Y-145541674D01*
X132232250Y-145540500D01*
X132719750Y-145540500D01*
X132743642Y-145541674D01*
X132743642Y-145541674D01*
G37*
D12*
X132476000Y-146240500D03*
D11*
G36*
X134618642Y-145541674D02*
G01*
X134642303Y-145545184D01*
X134665507Y-145550996D01*
X134688029Y-145559054D01*
X134709653Y-145569282D01*
X134730170Y-145581579D01*
X134749383Y-145595829D01*
X134767107Y-145611893D01*
X134783171Y-145629617D01*
X134797421Y-145648830D01*
X134809718Y-145669347D01*
X134819946Y-145690971D01*
X134828004Y-145713493D01*
X134833816Y-145736697D01*
X134837326Y-145760358D01*
X134838500Y-145784250D01*
X134838500Y-146696750D01*
X134837326Y-146720642D01*
X134833816Y-146744303D01*
X134828004Y-146767507D01*
X134819946Y-146790029D01*
X134809718Y-146811653D01*
X134797421Y-146832170D01*
X134783171Y-146851383D01*
X134767107Y-146869107D01*
X134749383Y-146885171D01*
X134730170Y-146899421D01*
X134709653Y-146911718D01*
X134688029Y-146921946D01*
X134665507Y-146930004D01*
X134642303Y-146935816D01*
X134618642Y-146939326D01*
X134594750Y-146940500D01*
X134107250Y-146940500D01*
X134083358Y-146939326D01*
X134059697Y-146935816D01*
X134036493Y-146930004D01*
X134013971Y-146921946D01*
X133992347Y-146911718D01*
X133971830Y-146899421D01*
X133952617Y-146885171D01*
X133934893Y-146869107D01*
X133918829Y-146851383D01*
X133904579Y-146832170D01*
X133892282Y-146811653D01*
X133882054Y-146790029D01*
X133873996Y-146767507D01*
X133868184Y-146744303D01*
X133864674Y-146720642D01*
X133863500Y-146696750D01*
X133863500Y-145784250D01*
X133864674Y-145760358D01*
X133868184Y-145736697D01*
X133873996Y-145713493D01*
X133882054Y-145690971D01*
X133892282Y-145669347D01*
X133904579Y-145648830D01*
X133918829Y-145629617D01*
X133934893Y-145611893D01*
X133952617Y-145595829D01*
X133971830Y-145581579D01*
X133992347Y-145569282D01*
X134013971Y-145559054D01*
X134036493Y-145550996D01*
X134059697Y-145545184D01*
X134083358Y-145541674D01*
X134107250Y-145540500D01*
X134594750Y-145540500D01*
X134618642Y-145541674D01*
X134618642Y-145541674D01*
G37*
D12*
X134351000Y-146240500D03*
G04 #@! TD*
D11*
G04 #@! TO.C,C4*
G36*
X179703642Y-127253674D02*
G01*
X179727303Y-127257184D01*
X179750507Y-127262996D01*
X179773029Y-127271054D01*
X179794653Y-127281282D01*
X179815170Y-127293579D01*
X179834383Y-127307829D01*
X179852107Y-127323893D01*
X179868171Y-127341617D01*
X179882421Y-127360830D01*
X179894718Y-127381347D01*
X179904946Y-127402971D01*
X179913004Y-127425493D01*
X179918816Y-127448697D01*
X179922326Y-127472358D01*
X179923500Y-127496250D01*
X179923500Y-128408750D01*
X179922326Y-128432642D01*
X179918816Y-128456303D01*
X179913004Y-128479507D01*
X179904946Y-128502029D01*
X179894718Y-128523653D01*
X179882421Y-128544170D01*
X179868171Y-128563383D01*
X179852107Y-128581107D01*
X179834383Y-128597171D01*
X179815170Y-128611421D01*
X179794653Y-128623718D01*
X179773029Y-128633946D01*
X179750507Y-128642004D01*
X179727303Y-128647816D01*
X179703642Y-128651326D01*
X179679750Y-128652500D01*
X179192250Y-128652500D01*
X179168358Y-128651326D01*
X179144697Y-128647816D01*
X179121493Y-128642004D01*
X179098971Y-128633946D01*
X179077347Y-128623718D01*
X179056830Y-128611421D01*
X179037617Y-128597171D01*
X179019893Y-128581107D01*
X179003829Y-128563383D01*
X178989579Y-128544170D01*
X178977282Y-128523653D01*
X178967054Y-128502029D01*
X178958996Y-128479507D01*
X178953184Y-128456303D01*
X178949674Y-128432642D01*
X178948500Y-128408750D01*
X178948500Y-127496250D01*
X178949674Y-127472358D01*
X178953184Y-127448697D01*
X178958996Y-127425493D01*
X178967054Y-127402971D01*
X178977282Y-127381347D01*
X178989579Y-127360830D01*
X179003829Y-127341617D01*
X179019893Y-127323893D01*
X179037617Y-127307829D01*
X179056830Y-127293579D01*
X179077347Y-127281282D01*
X179098971Y-127271054D01*
X179121493Y-127262996D01*
X179144697Y-127257184D01*
X179168358Y-127253674D01*
X179192250Y-127252500D01*
X179679750Y-127252500D01*
X179703642Y-127253674D01*
X179703642Y-127253674D01*
G37*
D12*
X179436000Y-127952500D03*
D11*
G36*
X177828642Y-127253674D02*
G01*
X177852303Y-127257184D01*
X177875507Y-127262996D01*
X177898029Y-127271054D01*
X177919653Y-127281282D01*
X177940170Y-127293579D01*
X177959383Y-127307829D01*
X177977107Y-127323893D01*
X177993171Y-127341617D01*
X178007421Y-127360830D01*
X178019718Y-127381347D01*
X178029946Y-127402971D01*
X178038004Y-127425493D01*
X178043816Y-127448697D01*
X178047326Y-127472358D01*
X178048500Y-127496250D01*
X178048500Y-128408750D01*
X178047326Y-128432642D01*
X178043816Y-128456303D01*
X178038004Y-128479507D01*
X178029946Y-128502029D01*
X178019718Y-128523653D01*
X178007421Y-128544170D01*
X177993171Y-128563383D01*
X177977107Y-128581107D01*
X177959383Y-128597171D01*
X177940170Y-128611421D01*
X177919653Y-128623718D01*
X177898029Y-128633946D01*
X177875507Y-128642004D01*
X177852303Y-128647816D01*
X177828642Y-128651326D01*
X177804750Y-128652500D01*
X177317250Y-128652500D01*
X177293358Y-128651326D01*
X177269697Y-128647816D01*
X177246493Y-128642004D01*
X177223971Y-128633946D01*
X177202347Y-128623718D01*
X177181830Y-128611421D01*
X177162617Y-128597171D01*
X177144893Y-128581107D01*
X177128829Y-128563383D01*
X177114579Y-128544170D01*
X177102282Y-128523653D01*
X177092054Y-128502029D01*
X177083996Y-128479507D01*
X177078184Y-128456303D01*
X177074674Y-128432642D01*
X177073500Y-128408750D01*
X177073500Y-127496250D01*
X177074674Y-127472358D01*
X177078184Y-127448697D01*
X177083996Y-127425493D01*
X177092054Y-127402971D01*
X177102282Y-127381347D01*
X177114579Y-127360830D01*
X177128829Y-127341617D01*
X177144893Y-127323893D01*
X177162617Y-127307829D01*
X177181830Y-127293579D01*
X177202347Y-127281282D01*
X177223971Y-127271054D01*
X177246493Y-127262996D01*
X177269697Y-127257184D01*
X177293358Y-127253674D01*
X177317250Y-127252500D01*
X177804750Y-127252500D01*
X177828642Y-127253674D01*
X177828642Y-127253674D01*
G37*
D12*
X177561000Y-127952500D03*
G04 #@! TD*
D11*
G04 #@! TO.C,C3*
G36*
X191305642Y-91947674D02*
G01*
X191329303Y-91951184D01*
X191352507Y-91956996D01*
X191375029Y-91965054D01*
X191396653Y-91975282D01*
X191417170Y-91987579D01*
X191436383Y-92001829D01*
X191454107Y-92017893D01*
X191470171Y-92035617D01*
X191484421Y-92054830D01*
X191496718Y-92075347D01*
X191506946Y-92096971D01*
X191515004Y-92119493D01*
X191520816Y-92142697D01*
X191524326Y-92166358D01*
X191525500Y-92190250D01*
X191525500Y-93102750D01*
X191524326Y-93126642D01*
X191520816Y-93150303D01*
X191515004Y-93173507D01*
X191506946Y-93196029D01*
X191496718Y-93217653D01*
X191484421Y-93238170D01*
X191470171Y-93257383D01*
X191454107Y-93275107D01*
X191436383Y-93291171D01*
X191417170Y-93305421D01*
X191396653Y-93317718D01*
X191375029Y-93327946D01*
X191352507Y-93336004D01*
X191329303Y-93341816D01*
X191305642Y-93345326D01*
X191281750Y-93346500D01*
X190794250Y-93346500D01*
X190770358Y-93345326D01*
X190746697Y-93341816D01*
X190723493Y-93336004D01*
X190700971Y-93327946D01*
X190679347Y-93317718D01*
X190658830Y-93305421D01*
X190639617Y-93291171D01*
X190621893Y-93275107D01*
X190605829Y-93257383D01*
X190591579Y-93238170D01*
X190579282Y-93217653D01*
X190569054Y-93196029D01*
X190560996Y-93173507D01*
X190555184Y-93150303D01*
X190551674Y-93126642D01*
X190550500Y-93102750D01*
X190550500Y-92190250D01*
X190551674Y-92166358D01*
X190555184Y-92142697D01*
X190560996Y-92119493D01*
X190569054Y-92096971D01*
X190579282Y-92075347D01*
X190591579Y-92054830D01*
X190605829Y-92035617D01*
X190621893Y-92017893D01*
X190639617Y-92001829D01*
X190658830Y-91987579D01*
X190679347Y-91975282D01*
X190700971Y-91965054D01*
X190723493Y-91956996D01*
X190746697Y-91951184D01*
X190770358Y-91947674D01*
X190794250Y-91946500D01*
X191281750Y-91946500D01*
X191305642Y-91947674D01*
X191305642Y-91947674D01*
G37*
D12*
X191038000Y-92646500D03*
D11*
G36*
X193180642Y-91947674D02*
G01*
X193204303Y-91951184D01*
X193227507Y-91956996D01*
X193250029Y-91965054D01*
X193271653Y-91975282D01*
X193292170Y-91987579D01*
X193311383Y-92001829D01*
X193329107Y-92017893D01*
X193345171Y-92035617D01*
X193359421Y-92054830D01*
X193371718Y-92075347D01*
X193381946Y-92096971D01*
X193390004Y-92119493D01*
X193395816Y-92142697D01*
X193399326Y-92166358D01*
X193400500Y-92190250D01*
X193400500Y-93102750D01*
X193399326Y-93126642D01*
X193395816Y-93150303D01*
X193390004Y-93173507D01*
X193381946Y-93196029D01*
X193371718Y-93217653D01*
X193359421Y-93238170D01*
X193345171Y-93257383D01*
X193329107Y-93275107D01*
X193311383Y-93291171D01*
X193292170Y-93305421D01*
X193271653Y-93317718D01*
X193250029Y-93327946D01*
X193227507Y-93336004D01*
X193204303Y-93341816D01*
X193180642Y-93345326D01*
X193156750Y-93346500D01*
X192669250Y-93346500D01*
X192645358Y-93345326D01*
X192621697Y-93341816D01*
X192598493Y-93336004D01*
X192575971Y-93327946D01*
X192554347Y-93317718D01*
X192533830Y-93305421D01*
X192514617Y-93291171D01*
X192496893Y-93275107D01*
X192480829Y-93257383D01*
X192466579Y-93238170D01*
X192454282Y-93217653D01*
X192444054Y-93196029D01*
X192435996Y-93173507D01*
X192430184Y-93150303D01*
X192426674Y-93126642D01*
X192425500Y-93102750D01*
X192425500Y-92190250D01*
X192426674Y-92166358D01*
X192430184Y-92142697D01*
X192435996Y-92119493D01*
X192444054Y-92096971D01*
X192454282Y-92075347D01*
X192466579Y-92054830D01*
X192480829Y-92035617D01*
X192496893Y-92017893D01*
X192514617Y-92001829D01*
X192533830Y-91987579D01*
X192554347Y-91975282D01*
X192575971Y-91965054D01*
X192598493Y-91956996D01*
X192621697Y-91951184D01*
X192645358Y-91947674D01*
X192669250Y-91946500D01*
X193156750Y-91946500D01*
X193180642Y-91947674D01*
X193180642Y-91947674D01*
G37*
D12*
X192913000Y-92646500D03*
G04 #@! TD*
D11*
G04 #@! TO.C,C2*
G36*
X178534142Y-54108674D02*
G01*
X178557803Y-54112184D01*
X178581007Y-54117996D01*
X178603529Y-54126054D01*
X178625153Y-54136282D01*
X178645670Y-54148579D01*
X178664883Y-54162829D01*
X178682607Y-54178893D01*
X178698671Y-54196617D01*
X178712921Y-54215830D01*
X178725218Y-54236347D01*
X178735446Y-54257971D01*
X178743504Y-54280493D01*
X178749316Y-54303697D01*
X178752826Y-54327358D01*
X178754000Y-54351250D01*
X178754000Y-54838750D01*
X178752826Y-54862642D01*
X178749316Y-54886303D01*
X178743504Y-54909507D01*
X178735446Y-54932029D01*
X178725218Y-54953653D01*
X178712921Y-54974170D01*
X178698671Y-54993383D01*
X178682607Y-55011107D01*
X178664883Y-55027171D01*
X178645670Y-55041421D01*
X178625153Y-55053718D01*
X178603529Y-55063946D01*
X178581007Y-55072004D01*
X178557803Y-55077816D01*
X178534142Y-55081326D01*
X178510250Y-55082500D01*
X177597750Y-55082500D01*
X177573858Y-55081326D01*
X177550197Y-55077816D01*
X177526993Y-55072004D01*
X177504471Y-55063946D01*
X177482847Y-55053718D01*
X177462330Y-55041421D01*
X177443117Y-55027171D01*
X177425393Y-55011107D01*
X177409329Y-54993383D01*
X177395079Y-54974170D01*
X177382782Y-54953653D01*
X177372554Y-54932029D01*
X177364496Y-54909507D01*
X177358684Y-54886303D01*
X177355174Y-54862642D01*
X177354000Y-54838750D01*
X177354000Y-54351250D01*
X177355174Y-54327358D01*
X177358684Y-54303697D01*
X177364496Y-54280493D01*
X177372554Y-54257971D01*
X177382782Y-54236347D01*
X177395079Y-54215830D01*
X177409329Y-54196617D01*
X177425393Y-54178893D01*
X177443117Y-54162829D01*
X177462330Y-54148579D01*
X177482847Y-54136282D01*
X177504471Y-54126054D01*
X177526993Y-54117996D01*
X177550197Y-54112184D01*
X177573858Y-54108674D01*
X177597750Y-54107500D01*
X178510250Y-54107500D01*
X178534142Y-54108674D01*
X178534142Y-54108674D01*
G37*
D12*
X178054000Y-54595000D03*
D11*
G36*
X178534142Y-52233674D02*
G01*
X178557803Y-52237184D01*
X178581007Y-52242996D01*
X178603529Y-52251054D01*
X178625153Y-52261282D01*
X178645670Y-52273579D01*
X178664883Y-52287829D01*
X178682607Y-52303893D01*
X178698671Y-52321617D01*
X178712921Y-52340830D01*
X178725218Y-52361347D01*
X178735446Y-52382971D01*
X178743504Y-52405493D01*
X178749316Y-52428697D01*
X178752826Y-52452358D01*
X178754000Y-52476250D01*
X178754000Y-52963750D01*
X178752826Y-52987642D01*
X178749316Y-53011303D01*
X178743504Y-53034507D01*
X178735446Y-53057029D01*
X178725218Y-53078653D01*
X178712921Y-53099170D01*
X178698671Y-53118383D01*
X178682607Y-53136107D01*
X178664883Y-53152171D01*
X178645670Y-53166421D01*
X178625153Y-53178718D01*
X178603529Y-53188946D01*
X178581007Y-53197004D01*
X178557803Y-53202816D01*
X178534142Y-53206326D01*
X178510250Y-53207500D01*
X177597750Y-53207500D01*
X177573858Y-53206326D01*
X177550197Y-53202816D01*
X177526993Y-53197004D01*
X177504471Y-53188946D01*
X177482847Y-53178718D01*
X177462330Y-53166421D01*
X177443117Y-53152171D01*
X177425393Y-53136107D01*
X177409329Y-53118383D01*
X177395079Y-53099170D01*
X177382782Y-53078653D01*
X177372554Y-53057029D01*
X177364496Y-53034507D01*
X177358684Y-53011303D01*
X177355174Y-52987642D01*
X177354000Y-52963750D01*
X177354000Y-52476250D01*
X177355174Y-52452358D01*
X177358684Y-52428697D01*
X177364496Y-52405493D01*
X177372554Y-52382971D01*
X177382782Y-52361347D01*
X177395079Y-52340830D01*
X177409329Y-52321617D01*
X177425393Y-52303893D01*
X177443117Y-52287829D01*
X177462330Y-52273579D01*
X177482847Y-52261282D01*
X177504471Y-52251054D01*
X177526993Y-52242996D01*
X177550197Y-52237184D01*
X177573858Y-52233674D01*
X177597750Y-52232500D01*
X178510250Y-52232500D01*
X178534142Y-52233674D01*
X178534142Y-52233674D01*
G37*
D12*
X178054000Y-52720000D03*
G04 #@! TD*
D11*
G04 #@! TO.C,C1*
G36*
X139926142Y-35312674D02*
G01*
X139949803Y-35316184D01*
X139973007Y-35321996D01*
X139995529Y-35330054D01*
X140017153Y-35340282D01*
X140037670Y-35352579D01*
X140056883Y-35366829D01*
X140074607Y-35382893D01*
X140090671Y-35400617D01*
X140104921Y-35419830D01*
X140117218Y-35440347D01*
X140127446Y-35461971D01*
X140135504Y-35484493D01*
X140141316Y-35507697D01*
X140144826Y-35531358D01*
X140146000Y-35555250D01*
X140146000Y-36042750D01*
X140144826Y-36066642D01*
X140141316Y-36090303D01*
X140135504Y-36113507D01*
X140127446Y-36136029D01*
X140117218Y-36157653D01*
X140104921Y-36178170D01*
X140090671Y-36197383D01*
X140074607Y-36215107D01*
X140056883Y-36231171D01*
X140037670Y-36245421D01*
X140017153Y-36257718D01*
X139995529Y-36267946D01*
X139973007Y-36276004D01*
X139949803Y-36281816D01*
X139926142Y-36285326D01*
X139902250Y-36286500D01*
X138989750Y-36286500D01*
X138965858Y-36285326D01*
X138942197Y-36281816D01*
X138918993Y-36276004D01*
X138896471Y-36267946D01*
X138874847Y-36257718D01*
X138854330Y-36245421D01*
X138835117Y-36231171D01*
X138817393Y-36215107D01*
X138801329Y-36197383D01*
X138787079Y-36178170D01*
X138774782Y-36157653D01*
X138764554Y-36136029D01*
X138756496Y-36113507D01*
X138750684Y-36090303D01*
X138747174Y-36066642D01*
X138746000Y-36042750D01*
X138746000Y-35555250D01*
X138747174Y-35531358D01*
X138750684Y-35507697D01*
X138756496Y-35484493D01*
X138764554Y-35461971D01*
X138774782Y-35440347D01*
X138787079Y-35419830D01*
X138801329Y-35400617D01*
X138817393Y-35382893D01*
X138835117Y-35366829D01*
X138854330Y-35352579D01*
X138874847Y-35340282D01*
X138896471Y-35330054D01*
X138918993Y-35321996D01*
X138942197Y-35316184D01*
X138965858Y-35312674D01*
X138989750Y-35311500D01*
X139902250Y-35311500D01*
X139926142Y-35312674D01*
X139926142Y-35312674D01*
G37*
D12*
X139446000Y-35799000D03*
D11*
G36*
X139926142Y-33437674D02*
G01*
X139949803Y-33441184D01*
X139973007Y-33446996D01*
X139995529Y-33455054D01*
X140017153Y-33465282D01*
X140037670Y-33477579D01*
X140056883Y-33491829D01*
X140074607Y-33507893D01*
X140090671Y-33525617D01*
X140104921Y-33544830D01*
X140117218Y-33565347D01*
X140127446Y-33586971D01*
X140135504Y-33609493D01*
X140141316Y-33632697D01*
X140144826Y-33656358D01*
X140146000Y-33680250D01*
X140146000Y-34167750D01*
X140144826Y-34191642D01*
X140141316Y-34215303D01*
X140135504Y-34238507D01*
X140127446Y-34261029D01*
X140117218Y-34282653D01*
X140104921Y-34303170D01*
X140090671Y-34322383D01*
X140074607Y-34340107D01*
X140056883Y-34356171D01*
X140037670Y-34370421D01*
X140017153Y-34382718D01*
X139995529Y-34392946D01*
X139973007Y-34401004D01*
X139949803Y-34406816D01*
X139926142Y-34410326D01*
X139902250Y-34411500D01*
X138989750Y-34411500D01*
X138965858Y-34410326D01*
X138942197Y-34406816D01*
X138918993Y-34401004D01*
X138896471Y-34392946D01*
X138874847Y-34382718D01*
X138854330Y-34370421D01*
X138835117Y-34356171D01*
X138817393Y-34340107D01*
X138801329Y-34322383D01*
X138787079Y-34303170D01*
X138774782Y-34282653D01*
X138764554Y-34261029D01*
X138756496Y-34238507D01*
X138750684Y-34215303D01*
X138747174Y-34191642D01*
X138746000Y-34167750D01*
X138746000Y-33680250D01*
X138747174Y-33656358D01*
X138750684Y-33632697D01*
X138756496Y-33609493D01*
X138764554Y-33586971D01*
X138774782Y-33565347D01*
X138787079Y-33544830D01*
X138801329Y-33525617D01*
X138817393Y-33507893D01*
X138835117Y-33491829D01*
X138854330Y-33477579D01*
X138874847Y-33465282D01*
X138896471Y-33455054D01*
X138918993Y-33446996D01*
X138942197Y-33441184D01*
X138965858Y-33437674D01*
X138989750Y-33436500D01*
X139902250Y-33436500D01*
X139926142Y-33437674D01*
X139926142Y-33437674D01*
G37*
D12*
X139446000Y-33924000D03*
G04 #@! TD*
M02*
