G04 #@! TF.GenerationSoftware,KiCad,Pcbnew,(5.1.2)-2*
G04 #@! TF.CreationDate,2019-09-25T22:48:14-04:00*
G04 #@! TF.ProjectId,LEDWall,4c454457-616c-46c2-9e6b-696361645f70,rev?*
G04 #@! TF.SameCoordinates,Original*
G04 #@! TF.FileFunction,Copper,L2,Bot*
G04 #@! TF.FilePolarity,Positive*
%FSLAX46Y46*%
G04 Gerber Fmt 4.6, Leading zero omitted, Abs format (unit mm)*
G04 Created by KiCad (PCBNEW (5.1.2)-2) date 2019-09-25 22:48:14*
%MOMM*%
%LPD*%
G04 APERTURE LIST*
G04 #@! TA.AperFunction,ComponentPad*
%ADD10C,4.000000*%
G04 #@! TD*
G04 #@! TA.AperFunction,ComponentPad*
%ADD11C,1.700000*%
G04 #@! TD*
G04 #@! TA.AperFunction,Conductor*
%ADD12C,0.150000*%
G04 #@! TD*
G04 #@! TA.AperFunction,Conductor*
%ADD13C,1.700000*%
G04 #@! TD*
G04 #@! TA.AperFunction,ComponentPad*
%ADD14R,1.700000X1.700000*%
G04 #@! TD*
G04 #@! TA.AperFunction,ComponentPad*
%ADD15O,1.700000X1.700000*%
G04 #@! TD*
G04 #@! TA.AperFunction,ViaPad*
%ADD16C,0.800000*%
G04 #@! TD*
G04 #@! TA.AperFunction,Conductor*
%ADD17C,0.381000*%
G04 #@! TD*
G04 #@! TA.AperFunction,Conductor*
%ADD18C,0.254000*%
G04 #@! TD*
G04 APERTURE END LIST*
D10*
G04 #@! TO.P,REF\002A\002A,1*
G04 #@! TO.N,N/C*
X104164000Y-116929000D03*
G04 #@! TD*
G04 #@! TO.P,REF\002A\002A,1*
G04 #@! TO.N,N/C*
X169164000Y-116929000D03*
G04 #@! TD*
G04 #@! TO.P,REF\002A\002A,1*
G04 #@! TO.N,N/C*
X104164000Y-66929000D03*
G04 #@! TD*
D11*
G04 #@! TO.P,J2,1*
G04 #@! TO.N,GND*
X152470342Y-37899606D03*
D12*
G04 #@! TD*
G04 #@! TO.N,GND*
G04 #@! TO.C,J2*
G36*
X152978364Y-38989062D02*
G01*
X151380886Y-38407628D01*
X151962320Y-36810150D01*
X153559798Y-37391584D01*
X152978364Y-38989062D01*
X152978364Y-38989062D01*
G37*
D11*
G04 #@! TO.P,J2,2*
G04 #@! TO.N,/SDA*
X154857161Y-38768337D03*
D13*
G04 #@! TD*
G04 #@! TO.N,/SDA*
G04 #@! TO.C,J2*
X154857161Y-38768337D02*
X154857161Y-38768337D01*
D11*
G04 #@! TO.P,J2,3*
G04 #@! TO.N,/SCL*
X157243981Y-39637068D03*
D13*
G04 #@! TD*
G04 #@! TO.N,/SCL*
G04 #@! TO.C,J2*
X157243981Y-39637068D02*
X157243981Y-39637068D01*
D11*
G04 #@! TO.P,J2,4*
G04 #@! TO.N,+5V*
X159630800Y-40505799D03*
D13*
G04 #@! TD*
G04 #@! TO.N,+5V*
G04 #@! TO.C,J2*
X159630800Y-40505799D02*
X159630800Y-40505799D01*
D11*
G04 #@! TO.P,J2,1*
G04 #@! TO.N,GND*
X184856000Y-64254500D03*
D12*
G04 #@! TD*
G04 #@! TO.N,GND*
G04 #@! TO.C,J2*
G36*
X184444864Y-65384087D02*
G01*
X183726413Y-63843364D01*
X185267136Y-63124913D01*
X185985587Y-64665636D01*
X184444864Y-65384087D01*
X184444864Y-65384087D01*
G37*
D11*
G04 #@! TO.P,J2,2*
G04 #@! TO.N,/SDA*
X185929450Y-66556522D03*
D13*
G04 #@! TD*
G04 #@! TO.N,/SDA*
G04 #@! TO.C,J2*
X185929450Y-66556522D02*
X185929450Y-66556522D01*
D11*
G04 #@! TO.P,J2,3*
G04 #@! TO.N,/SCL*
X187002901Y-68858544D03*
D13*
G04 #@! TD*
G04 #@! TO.N,/SCL*
G04 #@! TO.C,J2*
X187002901Y-68858544D02*
X187002901Y-68858544D01*
D11*
G04 #@! TO.P,J2,4*
G04 #@! TO.N,+5V*
X188076351Y-71160565D03*
D13*
G04 #@! TD*
G04 #@! TO.N,+5V*
G04 #@! TO.C,J2*
X188076351Y-71160565D02*
X188076351Y-71160565D01*
D11*
G04 #@! TO.P,J2,1*
G04 #@! TO.N,GND*
X189120394Y-105790342D03*
D12*
G04 #@! TD*
G04 #@! TO.N,GND*
G04 #@! TO.C,J2*
G36*
X188030938Y-106298364D02*
G01*
X188612372Y-104700886D01*
X190209850Y-105282320D01*
X189628416Y-106879798D01*
X188030938Y-106298364D01*
X188030938Y-106298364D01*
G37*
D11*
G04 #@! TO.P,J2,2*
G04 #@! TO.N,/SDA*
X188251663Y-108177161D03*
D13*
G04 #@! TD*
G04 #@! TO.N,/SDA*
G04 #@! TO.C,J2*
X188251663Y-108177161D02*
X188251663Y-108177161D01*
D11*
G04 #@! TO.P,J2,3*
G04 #@! TO.N,/SCL*
X187382932Y-110563981D03*
D13*
G04 #@! TD*
G04 #@! TO.N,/SCL*
G04 #@! TO.C,J2*
X187382932Y-110563981D02*
X187382932Y-110563981D01*
D11*
G04 #@! TO.P,J2,4*
G04 #@! TO.N,+5V*
X186514201Y-112950800D03*
D13*
G04 #@! TD*
G04 #@! TO.N,+5V*
G04 #@! TO.C,J2*
X186514201Y-112950800D02*
X186514201Y-112950800D01*
D11*
G04 #@! TO.P,J2,1*
G04 #@! TO.N,GND*
X162765500Y-138176000D03*
D12*
G04 #@! TD*
G04 #@! TO.N,GND*
G04 #@! TO.C,J2*
G36*
X161635913Y-137764864D02*
G01*
X163176636Y-137046413D01*
X163895087Y-138587136D01*
X162354364Y-139305587D01*
X161635913Y-137764864D01*
X161635913Y-137764864D01*
G37*
D11*
G04 #@! TO.P,J2,2*
G04 #@! TO.N,/SDA*
X160463478Y-139249450D03*
D13*
G04 #@! TD*
G04 #@! TO.N,/SDA*
G04 #@! TO.C,J2*
X160463478Y-139249450D02*
X160463478Y-139249450D01*
D11*
G04 #@! TO.P,J2,3*
G04 #@! TO.N,/SCL*
X158161456Y-140322901D03*
D13*
G04 #@! TD*
G04 #@! TO.N,/SCL*
G04 #@! TO.C,J2*
X158161456Y-140322901D02*
X158161456Y-140322901D01*
D11*
G04 #@! TO.P,J2,4*
G04 #@! TO.N,+5V*
X155859435Y-141396351D03*
D13*
G04 #@! TD*
G04 #@! TO.N,+5V*
G04 #@! TO.C,J2*
X155859435Y-141396351D02*
X155859435Y-141396351D01*
D11*
G04 #@! TO.P,J2,1*
G04 #@! TO.N,GND*
X121229658Y-142440394D03*
D12*
G04 #@! TD*
G04 #@! TO.N,GND*
G04 #@! TO.C,J2*
G36*
X120721636Y-141350938D02*
G01*
X122319114Y-141932372D01*
X121737680Y-143529850D01*
X120140202Y-142948416D01*
X120721636Y-141350938D01*
X120721636Y-141350938D01*
G37*
D11*
G04 #@! TO.P,J2,2*
G04 #@! TO.N,/SDA*
X118842839Y-141571663D03*
D13*
G04 #@! TD*
G04 #@! TO.N,/SDA*
G04 #@! TO.C,J2*
X118842839Y-141571663D02*
X118842839Y-141571663D01*
D11*
G04 #@! TO.P,J2,3*
G04 #@! TO.N,/SCL*
X116456019Y-140702932D03*
D13*
G04 #@! TD*
G04 #@! TO.N,/SCL*
G04 #@! TO.C,J2*
X116456019Y-140702932D02*
X116456019Y-140702932D01*
D11*
G04 #@! TO.P,J2,4*
G04 #@! TO.N,+5V*
X114069200Y-139834201D03*
D13*
G04 #@! TD*
G04 #@! TO.N,+5V*
G04 #@! TO.C,J2*
X114069200Y-139834201D02*
X114069200Y-139834201D01*
D11*
G04 #@! TO.P,J2,1*
G04 #@! TO.N,GND*
X88844000Y-116085500D03*
D12*
G04 #@! TD*
G04 #@! TO.N,GND*
G04 #@! TO.C,J2*
G36*
X89255136Y-114955913D02*
G01*
X89973587Y-116496636D01*
X88432864Y-117215087D01*
X87714413Y-115674364D01*
X89255136Y-114955913D01*
X89255136Y-114955913D01*
G37*
D11*
G04 #@! TO.P,J2,2*
G04 #@! TO.N,/SDA*
X87770550Y-113783478D03*
D13*
G04 #@! TD*
G04 #@! TO.N,/SDA*
G04 #@! TO.C,J2*
X87770550Y-113783478D02*
X87770550Y-113783478D01*
D11*
G04 #@! TO.P,J2,3*
G04 #@! TO.N,/SCL*
X86697099Y-111481456D03*
D13*
G04 #@! TD*
G04 #@! TO.N,/SCL*
G04 #@! TO.C,J2*
X86697099Y-111481456D02*
X86697099Y-111481456D01*
D11*
G04 #@! TO.P,J2,4*
G04 #@! TO.N,+5V*
X85623649Y-109179435D03*
D13*
G04 #@! TD*
G04 #@! TO.N,+5V*
G04 #@! TO.C,J2*
X85623649Y-109179435D02*
X85623649Y-109179435D01*
D11*
G04 #@! TO.P,J2,1*
G04 #@! TO.N,GND*
X84579606Y-74549658D03*
D12*
G04 #@! TD*
G04 #@! TO.N,GND*
G04 #@! TO.C,J2*
G36*
X85669062Y-74041636D02*
G01*
X85087628Y-75639114D01*
X83490150Y-75057680D01*
X84071584Y-73460202D01*
X85669062Y-74041636D01*
X85669062Y-74041636D01*
G37*
D11*
G04 #@! TO.P,J2,2*
G04 #@! TO.N,/SDA*
X85448337Y-72162839D03*
D13*
G04 #@! TD*
G04 #@! TO.N,/SDA*
G04 #@! TO.C,J2*
X85448337Y-72162839D02*
X85448337Y-72162839D01*
D11*
G04 #@! TO.P,J2,3*
G04 #@! TO.N,/SCL*
X86317068Y-69776019D03*
D13*
G04 #@! TD*
G04 #@! TO.N,/SCL*
G04 #@! TO.C,J2*
X86317068Y-69776019D02*
X86317068Y-69776019D01*
D11*
G04 #@! TO.P,J2,4*
G04 #@! TO.N,+5V*
X87185799Y-67389200D03*
D13*
G04 #@! TD*
G04 #@! TO.N,+5V*
G04 #@! TO.C,J2*
X87185799Y-67389200D02*
X87185799Y-67389200D01*
D14*
G04 #@! TO.P,J3,1*
G04 #@! TO.N,Net-(J1-Pad2)*
X132461000Y-63690500D03*
G04 #@! TD*
D11*
G04 #@! TO.P,J2,4*
G04 #@! TO.N,+5V*
X117840565Y-38943649D03*
D13*
G04 #@! TD*
G04 #@! TO.N,+5V*
G04 #@! TO.C,J2*
X117840565Y-38943649D02*
X117840565Y-38943649D01*
D11*
G04 #@! TO.P,J2,3*
G04 #@! TO.N,/SCL*
X115538544Y-40017099D03*
D13*
G04 #@! TD*
G04 #@! TO.N,/SCL*
G04 #@! TO.C,J2*
X115538544Y-40017099D02*
X115538544Y-40017099D01*
D11*
G04 #@! TO.P,J2,2*
G04 #@! TO.N,/SDA*
X113236522Y-41090550D03*
D13*
G04 #@! TD*
G04 #@! TO.N,/SDA*
G04 #@! TO.C,J2*
X113236522Y-41090550D02*
X113236522Y-41090550D01*
D11*
G04 #@! TO.P,J2,1*
G04 #@! TO.N,GND*
X110934500Y-42164000D03*
D12*
G04 #@! TD*
G04 #@! TO.N,GND*
G04 #@! TO.C,J2*
G36*
X112064087Y-42575136D02*
G01*
X110523364Y-43293587D01*
X109804913Y-41752864D01*
X111345636Y-41034413D01*
X112064087Y-42575136D01*
X112064087Y-42575136D01*
G37*
D15*
G04 #@! TO.P,J1,6*
G04 #@! TO.N,/SDA*
X143573500Y-44386500D03*
G04 #@! TO.P,J1,5*
G04 #@! TO.N,Net-(J1-Pad5)*
X143573500Y-46926500D03*
G04 #@! TO.P,J1,4*
G04 #@! TO.N,/SCL*
X143573500Y-49466500D03*
G04 #@! TO.P,J1,3*
G04 #@! TO.N,Net-(J1-Pad3)*
X143573500Y-52006500D03*
G04 #@! TO.P,J1,2*
G04 #@! TO.N,Net-(J1-Pad2)*
X143573500Y-54546500D03*
D14*
G04 #@! TO.P,J1,1*
G04 #@! TO.N,Net-(J1-Pad1)*
X143573500Y-57086500D03*
G04 #@! TD*
D10*
G04 #@! TO.P,REF\002A\002A,1*
G04 #@! TO.N,N/C*
X169164000Y-66929000D03*
G04 #@! TD*
D16*
G04 #@! TO.N,GND*
X165100000Y-132588000D03*
X168529000Y-129159000D03*
X172275500Y-125349000D03*
X175704500Y-121856500D03*
X179070000Y-118364000D03*
X181483000Y-116014500D03*
X162369500Y-129159000D03*
X169545000Y-121920000D03*
X165798500Y-125730000D03*
X176149000Y-115316000D03*
X172783500Y-118808500D03*
X178562000Y-112966500D03*
X86296500Y-82931000D03*
X86296500Y-84836000D03*
X86296500Y-86931500D03*
X86296500Y-89090500D03*
X86296500Y-91821000D03*
X90106500Y-82931000D03*
X90106500Y-84836000D03*
X90106500Y-89090500D03*
X90106500Y-86931500D03*
X90106500Y-91821000D03*
X100901500Y-54610000D03*
X103378000Y-57594500D03*
X98107500Y-61912500D03*
X99949000Y-60198000D03*
X101917500Y-58991500D03*
X106172000Y-55054500D03*
X108331000Y-53276500D03*
X110363000Y-51117500D03*
X96583500Y-59055000D03*
X98107500Y-57340500D03*
X99631500Y-56070500D03*
X102997000Y-52578000D03*
X104838500Y-50419000D03*
X106934000Y-48450500D03*
X166243000Y-47053500D03*
X167449500Y-48133000D03*
X168719500Y-49530000D03*
X170053000Y-50990500D03*
X171323000Y-52324000D03*
X163322000Y-49466500D03*
X164401500Y-50800000D03*
X165481000Y-52006500D03*
X166560500Y-53403500D03*
X168148000Y-54864000D03*
X124333000Y-42989500D03*
X125539500Y-42989500D03*
X126809500Y-43053000D03*
X129413000Y-48069500D03*
X129413000Y-46037500D03*
X129413000Y-44005500D03*
X139573000Y-53149500D03*
G04 #@! TO.N,Net-(J1-Pad1)*
X136017000Y-58737500D03*
G04 #@! TO.N,GND*
X116649500Y-109664500D03*
X117983000Y-70548500D03*
X158178500Y-69850000D03*
X157543500Y-110871000D03*
X181292500Y-47117000D03*
X135890000Y-28638500D03*
X91630500Y-48196500D03*
X75247500Y-90995500D03*
X90805000Y-131445000D03*
X137668000Y-151892000D03*
X181038500Y-133286500D03*
X198501000Y-89217500D03*
G04 #@! TO.N,Net-(J1-Pad1)*
X134683500Y-55753000D03*
G04 #@! TO.N,Net-(J1-Pad3)*
X135953500Y-52451000D03*
G04 #@! TO.N,/SCL*
X135953500Y-48260000D03*
G04 #@! TO.N,/SDA*
X138493500Y-45148500D03*
G04 #@! TO.N,GND*
X157416500Y-105410000D03*
X154940000Y-78867000D03*
X109347000Y-74041000D03*
X113347500Y-101092000D03*
X139446000Y-37020500D03*
X189865000Y-92710000D03*
X180657500Y-128016000D03*
X131254500Y-146304000D03*
X89662000Y-124269500D03*
X81534000Y-85471000D03*
X94932500Y-56705500D03*
X178054000Y-55816500D03*
X124333000Y-40195500D03*
X125539500Y-40195500D03*
X126809500Y-40195500D03*
G04 #@! TO.N,Net-(J1-Pad2)*
X137287000Y-55753000D03*
G04 #@! TO.N,Net-(J1-Pad5)*
X137223500Y-48260000D03*
G04 #@! TD*
D17*
G04 #@! TO.N,Net-(J1-Pad3)*
X136398000Y-52006500D02*
X135953500Y-52451000D01*
X143573500Y-52006500D02*
X136398000Y-52006500D01*
G04 #@! TO.N,Net-(J1-Pad2)*
X138938000Y-54546500D02*
X143573500Y-54546500D01*
X137287000Y-55753000D02*
X138938000Y-54546500D01*
G04 #@! TO.N,Net-(J1-Pad1)*
X136017000Y-57086500D02*
X134683500Y-55753000D01*
X136416999Y-57512001D02*
X136842500Y-57086500D01*
X136416999Y-58337501D02*
X136416999Y-57512001D01*
X136017000Y-58737500D02*
X136416999Y-58337501D01*
X143573500Y-57086500D02*
X136842500Y-57086500D01*
X136842500Y-57086500D02*
X136017000Y-57086500D01*
G04 #@! TO.N,/SDA*
X160463478Y-138047369D02*
X160463478Y-139249450D01*
X160463478Y-134763265D02*
X160463478Y-138047369D01*
X187049582Y-108177161D02*
X160463478Y-134763265D01*
X188251663Y-108177161D02*
X187049582Y-108177161D01*
X119692838Y-140721664D02*
X118842839Y-141571663D01*
X122015051Y-138399451D02*
X119692838Y-140721664D01*
X159613479Y-138399451D02*
X122015051Y-138399451D01*
X160463478Y-139249450D02*
X159613479Y-138399451D01*
X88972631Y-113783478D02*
X87770550Y-113783478D01*
X92256735Y-113783478D02*
X88972631Y-113783478D01*
X118842839Y-140369582D02*
X92256735Y-113783478D01*
X118842839Y-141571663D02*
X118842839Y-140369582D01*
X86298336Y-73012838D02*
X85448337Y-72162839D01*
X87937600Y-74652102D02*
X86298336Y-73012838D01*
X87937600Y-112076897D02*
X87937600Y-74652102D01*
X87770550Y-112243947D02*
X87937600Y-112076897D01*
X87770550Y-113783478D02*
X87770550Y-112243947D01*
X113236522Y-42292631D02*
X113236522Y-41090550D01*
X113236522Y-44692507D02*
X113236522Y-42292631D01*
X86616189Y-71312840D02*
X113236522Y-44692507D01*
X86298336Y-71312840D02*
X86616189Y-71312840D01*
X85448337Y-72162839D02*
X86298336Y-71312840D01*
X154007162Y-39618336D02*
X154857161Y-38768337D01*
X151684949Y-41940549D02*
X154007162Y-39618336D01*
X113236522Y-41090550D02*
X114086521Y-41940549D01*
X184727369Y-66556522D02*
X185929450Y-66556522D01*
X182327493Y-66556522D02*
X184727369Y-66556522D01*
X155707160Y-39936189D02*
X182327493Y-66556522D01*
X155707160Y-39618336D02*
X155707160Y-39936189D01*
X154857161Y-38768337D02*
X155707160Y-39618336D01*
X187401664Y-107327162D02*
X188251663Y-108177161D01*
X185079451Y-105004949D02*
X187401664Y-107327162D01*
X185079451Y-67406521D02*
X185079451Y-105004949D01*
X185929450Y-66556522D02*
X185079451Y-67406521D01*
X139255500Y-44386500D02*
X138493500Y-45148500D01*
X143573500Y-44386500D02*
X139255500Y-44386500D01*
X144817370Y-41940549D02*
X146652049Y-41940549D01*
X146652049Y-41940549D02*
X151684949Y-41940549D01*
X114086521Y-41940549D02*
X142780951Y-41940549D01*
X142780951Y-41940549D02*
X143669951Y-41940549D01*
X143669951Y-41940549D02*
X146652049Y-41940549D01*
X143573500Y-42989500D02*
X143669951Y-41940549D01*
X143573500Y-44386500D02*
X143573500Y-42989500D01*
G04 #@! TO.N,Net-(J1-Pad5)*
X142240000Y-48260000D02*
X137223500Y-48260000D01*
X143573500Y-46926500D02*
X142240000Y-48260000D01*
G04 #@! TO.N,/SCL*
X157243981Y-38434987D02*
X157243981Y-39637068D01*
X155228634Y-36419640D02*
X157243981Y-38434987D01*
X151800564Y-36419640D02*
X155228634Y-36419640D01*
X146860665Y-41359539D02*
X151800564Y-36419640D01*
X116880984Y-41359539D02*
X146860665Y-41359539D01*
X115538544Y-40017099D02*
X116880984Y-41359539D01*
X137160000Y-49466500D02*
X135953500Y-48260000D01*
X143573500Y-49466500D02*
X137160000Y-49466500D01*
G04 #@! TD*
D18*
G04 #@! TO.N,GND*
G36*
X140495423Y-24966826D02*
G01*
X143676231Y-25222748D01*
X146840740Y-25633746D01*
X149981394Y-26198838D01*
X153090693Y-26916677D01*
X156161214Y-27785547D01*
X159185625Y-28803373D01*
X162156705Y-29967727D01*
X165067360Y-31275827D01*
X167910639Y-32724550D01*
X170679754Y-34310437D01*
X173368093Y-36029701D01*
X175969236Y-37878238D01*
X178476974Y-39851633D01*
X180885317Y-41945174D01*
X183188517Y-44153863D01*
X185381073Y-46472426D01*
X187457750Y-48895326D01*
X189413589Y-51416780D01*
X191243922Y-54030765D01*
X192944376Y-56731041D01*
X194510893Y-59511160D01*
X195939731Y-62364483D01*
X197227479Y-65284199D01*
X198371062Y-68263335D01*
X199367750Y-71294779D01*
X200215162Y-74371291D01*
X200911276Y-77485526D01*
X201454430Y-80630048D01*
X201843325Y-83797349D01*
X202077035Y-86979866D01*
X202155000Y-90170000D01*
X202129539Y-91993423D01*
X201962530Y-95180136D01*
X201640051Y-98354887D01*
X201162870Y-101510094D01*
X200532129Y-104638225D01*
X199749331Y-107731809D01*
X198816348Y-110783460D01*
X197735406Y-113785893D01*
X196509086Y-116731936D01*
X195140317Y-119614558D01*
X193632366Y-122426874D01*
X191988835Y-125162169D01*
X190213648Y-127813912D01*
X188311042Y-130375773D01*
X186285562Y-132841633D01*
X184142043Y-135205604D01*
X181885604Y-137462043D01*
X179521633Y-139605562D01*
X177055773Y-141631042D01*
X174493912Y-143533648D01*
X171842169Y-145308835D01*
X169106874Y-146952366D01*
X166294558Y-148460317D01*
X163411936Y-149829086D01*
X160465893Y-151055406D01*
X157463460Y-152136348D01*
X154411809Y-153069331D01*
X151318225Y-153852129D01*
X148190094Y-154482870D01*
X145034887Y-154960051D01*
X141860136Y-155282530D01*
X138673423Y-155449539D01*
X135482355Y-155460678D01*
X132294553Y-155315920D01*
X129117629Y-155015613D01*
X125959167Y-154560471D01*
X122826709Y-153951583D01*
X119727736Y-153190402D01*
X116669645Y-152278746D01*
X113659740Y-151218791D01*
X110705206Y-150013068D01*
X107813100Y-148664457D01*
X104990325Y-147176176D01*
X102243622Y-145551781D01*
X99579550Y-143795149D01*
X97004470Y-141910475D01*
X94524530Y-139902259D01*
X92145651Y-137775296D01*
X89873514Y-135534665D01*
X87713544Y-133185715D01*
X85670899Y-130734056D01*
X83750455Y-128185541D01*
X81956798Y-125546255D01*
X80294211Y-122822500D01*
X78766664Y-120020780D01*
X77377804Y-117147785D01*
X77303216Y-116972066D01*
X87618896Y-116972066D01*
X87854574Y-117484748D01*
X87918294Y-117592386D01*
X88001789Y-117685524D01*
X88101850Y-117760582D01*
X88214630Y-117814679D01*
X88335798Y-117845733D01*
X88460696Y-117852552D01*
X88584524Y-117834874D01*
X88702525Y-117793377D01*
X89212611Y-117552130D01*
X89289396Y-117341163D01*
X88782571Y-116254274D01*
X87695682Y-116761099D01*
X87618896Y-116972066D01*
X77303216Y-116972066D01*
X76130947Y-114210374D01*
X75029070Y-111215561D01*
X74074805Y-108170498D01*
X73270430Y-105082454D01*
X72617865Y-101958803D01*
X72118669Y-98807004D01*
X71774034Y-95634582D01*
X71584782Y-92449112D01*
X71551366Y-89258200D01*
X71673864Y-86069465D01*
X71951986Y-82890521D01*
X72385066Y-79728959D01*
X72972071Y-76592327D01*
X73331045Y-75085512D01*
X82852685Y-75085512D01*
X82870364Y-75209341D01*
X82911861Y-75327340D01*
X82975580Y-75434977D01*
X83059074Y-75528116D01*
X83159135Y-75603175D01*
X83271917Y-75657271D01*
X83803189Y-75847369D01*
X83820360Y-75839362D01*
X84245343Y-75839362D01*
X84340223Y-76042834D01*
X84869394Y-76238705D01*
X84990562Y-76269760D01*
X85115460Y-76276579D01*
X85239289Y-76258900D01*
X85357288Y-76217403D01*
X85464925Y-76153684D01*
X85558064Y-76070190D01*
X85633123Y-75970129D01*
X85687219Y-75857347D01*
X85877317Y-75326075D01*
X85782437Y-75122603D01*
X84655510Y-74712436D01*
X84245343Y-75839362D01*
X83820360Y-75839362D01*
X84006661Y-75752489D01*
X84416828Y-74625562D01*
X83289902Y-74215395D01*
X83086430Y-74310275D01*
X82890559Y-74839446D01*
X82859504Y-74960614D01*
X82852685Y-75085512D01*
X73331045Y-75085512D01*
X73643672Y-73773241D01*
X83281895Y-73773241D01*
X83376775Y-73976713D01*
X84503702Y-74386880D01*
X84510542Y-74368087D01*
X84749225Y-74454959D01*
X84742384Y-74473754D01*
X85869310Y-74883921D01*
X86072782Y-74789041D01*
X86268653Y-74259870D01*
X86290948Y-74172882D01*
X87112101Y-74994036D01*
X87112100Y-109141524D01*
X87087162Y-108888324D01*
X87002248Y-108608401D01*
X86864355Y-108350421D01*
X86678783Y-108124301D01*
X86452663Y-107938729D01*
X86194683Y-107800836D01*
X85914760Y-107715922D01*
X85696599Y-107694435D01*
X85550699Y-107694435D01*
X85332538Y-107715922D01*
X85052615Y-107800836D01*
X84794635Y-107938729D01*
X84568515Y-108124301D01*
X84382943Y-108350421D01*
X84245050Y-108608401D01*
X84160136Y-108888324D01*
X84131464Y-109179435D01*
X84160136Y-109470546D01*
X84245050Y-109750469D01*
X84382943Y-110008449D01*
X84568515Y-110234569D01*
X84794635Y-110420141D01*
X85052615Y-110558034D01*
X85332538Y-110642948D01*
X85455020Y-110655011D01*
X85318500Y-110910422D01*
X85233586Y-111190345D01*
X85204914Y-111481456D01*
X85233586Y-111772567D01*
X85318500Y-112052490D01*
X85456393Y-112310470D01*
X85641965Y-112536590D01*
X85868085Y-112722162D01*
X86126065Y-112860055D01*
X86405988Y-112944969D01*
X86528471Y-112957033D01*
X86391951Y-113212444D01*
X86307037Y-113492367D01*
X86278365Y-113783478D01*
X86307037Y-114074589D01*
X86391951Y-114354512D01*
X86529844Y-114612492D01*
X86715416Y-114838612D01*
X86941536Y-115024184D01*
X87199516Y-115162077D01*
X87300422Y-115192687D01*
X87243976Y-115243289D01*
X87168918Y-115343350D01*
X87114821Y-115456130D01*
X87083767Y-115577298D01*
X87076948Y-115702196D01*
X87094626Y-115826024D01*
X87136123Y-115944025D01*
X87377370Y-116454111D01*
X87588337Y-116530896D01*
X88411756Y-116146929D01*
X89012774Y-116146929D01*
X89519599Y-117233818D01*
X89730566Y-117310604D01*
X90243248Y-117074926D01*
X90350886Y-117011206D01*
X90444024Y-116927711D01*
X90519082Y-116827650D01*
X90573179Y-116714870D01*
X90604233Y-116593702D01*
X90611052Y-116468804D01*
X90593374Y-116344976D01*
X90551877Y-116226975D01*
X90310630Y-115716889D01*
X90099663Y-115640104D01*
X89012774Y-116146929D01*
X88411756Y-116146929D01*
X88675226Y-116024071D01*
X88666774Y-116005945D01*
X88896977Y-115898600D01*
X88905429Y-115916726D01*
X89992318Y-115409901D01*
X90069104Y-115198934D01*
X89833426Y-114686252D01*
X89787681Y-114608978D01*
X91914803Y-114608978D01*
X116523755Y-139217932D01*
X116383069Y-139217932D01*
X116164908Y-139239419D01*
X115884985Y-139324333D01*
X115627005Y-139462226D01*
X115531868Y-139540303D01*
X115447799Y-139263167D01*
X115309906Y-139005187D01*
X115124334Y-138779067D01*
X114898214Y-138593495D01*
X114640234Y-138455602D01*
X114360311Y-138370688D01*
X114142150Y-138349201D01*
X113996250Y-138349201D01*
X113778089Y-138370688D01*
X113498166Y-138455602D01*
X113240186Y-138593495D01*
X113014066Y-138779067D01*
X112828494Y-139005187D01*
X112690601Y-139263167D01*
X112605687Y-139543090D01*
X112577015Y-139834201D01*
X112605687Y-140125312D01*
X112690601Y-140405235D01*
X112828494Y-140663215D01*
X113014066Y-140889335D01*
X113240186Y-141074907D01*
X113498166Y-141212800D01*
X113778089Y-141297714D01*
X113996250Y-141319201D01*
X114142150Y-141319201D01*
X114360311Y-141297714D01*
X114640234Y-141212800D01*
X114898214Y-141074907D01*
X114993351Y-140996830D01*
X115077420Y-141273966D01*
X115215313Y-141531946D01*
X115400885Y-141758066D01*
X115627005Y-141943638D01*
X115884985Y-142081531D01*
X116164908Y-142166445D01*
X116383069Y-142187932D01*
X116528969Y-142187932D01*
X116747130Y-142166445D01*
X117027053Y-142081531D01*
X117285033Y-141943638D01*
X117380171Y-141865560D01*
X117464240Y-142142697D01*
X117602133Y-142400677D01*
X117787705Y-142626797D01*
X118013825Y-142812369D01*
X118271805Y-142950262D01*
X118551728Y-143035176D01*
X118769889Y-143056663D01*
X118915789Y-143056663D01*
X119133950Y-143035176D01*
X119413873Y-142950262D01*
X119506870Y-142900554D01*
X119502737Y-142976248D01*
X119520416Y-143100077D01*
X119561913Y-143218076D01*
X119625632Y-143325713D01*
X119709126Y-143418852D01*
X119809187Y-143493911D01*
X119921969Y-143548007D01*
X120453241Y-143738105D01*
X120470412Y-143730098D01*
X120895395Y-143730098D01*
X120990275Y-143933570D01*
X121519446Y-144129441D01*
X121640614Y-144160496D01*
X121765512Y-144167315D01*
X121889341Y-144149636D01*
X122007340Y-144108139D01*
X122114977Y-144044420D01*
X122208116Y-143960926D01*
X122283175Y-143860865D01*
X122337271Y-143748083D01*
X122527369Y-143216811D01*
X122432489Y-143013339D01*
X121305562Y-142603172D01*
X120895395Y-143730098D01*
X120470412Y-143730098D01*
X120656713Y-143643225D01*
X121066880Y-142516298D01*
X121048087Y-142509458D01*
X121100850Y-142364490D01*
X121392436Y-142364490D01*
X122519362Y-142774657D01*
X122722834Y-142679777D01*
X122918705Y-142150606D01*
X122949760Y-142029438D01*
X122956579Y-141904540D01*
X122938900Y-141780711D01*
X122897403Y-141662712D01*
X122833684Y-141555075D01*
X122750190Y-141461936D01*
X122650129Y-141386877D01*
X122537347Y-141332781D01*
X122006075Y-141142683D01*
X121802603Y-141237563D01*
X121392436Y-142364490D01*
X121100850Y-142364490D01*
X121134959Y-142270775D01*
X121153754Y-142277616D01*
X121563921Y-141150690D01*
X121469041Y-140947218D01*
X120939870Y-140751347D01*
X120852882Y-140729052D01*
X122356984Y-139224951D01*
X157158493Y-139224951D01*
X157106322Y-139267767D01*
X156920750Y-139493887D01*
X156782857Y-139751867D01*
X156697943Y-140031790D01*
X156685880Y-140154272D01*
X156430469Y-140017752D01*
X156150546Y-139932838D01*
X155932385Y-139911351D01*
X155786485Y-139911351D01*
X155568324Y-139932838D01*
X155288401Y-140017752D01*
X155030421Y-140155645D01*
X154804301Y-140341217D01*
X154618729Y-140567337D01*
X154480836Y-140825317D01*
X154395922Y-141105240D01*
X154367250Y-141396351D01*
X154395922Y-141687462D01*
X154480836Y-141967385D01*
X154618729Y-142225365D01*
X154804301Y-142451485D01*
X155030421Y-142637057D01*
X155288401Y-142774950D01*
X155568324Y-142859864D01*
X155786485Y-142881351D01*
X155932385Y-142881351D01*
X156150546Y-142859864D01*
X156430469Y-142774950D01*
X156688449Y-142637057D01*
X156914569Y-142451485D01*
X157100141Y-142225365D01*
X157238034Y-141967385D01*
X157322948Y-141687462D01*
X157335011Y-141564980D01*
X157590422Y-141701500D01*
X157870345Y-141786414D01*
X158088506Y-141807901D01*
X158234406Y-141807901D01*
X158452567Y-141786414D01*
X158732490Y-141701500D01*
X158990470Y-141563607D01*
X159216590Y-141378035D01*
X159402162Y-141151915D01*
X159540055Y-140893935D01*
X159624969Y-140614012D01*
X159637033Y-140491529D01*
X159892444Y-140628049D01*
X160172367Y-140712963D01*
X160390528Y-140734450D01*
X160536428Y-140734450D01*
X160754589Y-140712963D01*
X161034512Y-140628049D01*
X161292492Y-140490156D01*
X161518612Y-140304584D01*
X161704184Y-140078464D01*
X161842077Y-139820484D01*
X161872687Y-139719578D01*
X161923289Y-139776024D01*
X162023350Y-139851082D01*
X162136130Y-139905179D01*
X162257298Y-139936233D01*
X162382196Y-139943052D01*
X162506024Y-139925374D01*
X162624025Y-139883877D01*
X163134111Y-139642630D01*
X163210896Y-139431663D01*
X162704071Y-138344774D01*
X162685945Y-138353226D01*
X162631949Y-138237429D01*
X162934274Y-138237429D01*
X163441099Y-139324318D01*
X163652066Y-139401104D01*
X164164748Y-139165426D01*
X164272386Y-139101706D01*
X164365524Y-139018211D01*
X164440582Y-138918150D01*
X164494679Y-138805370D01*
X164525733Y-138684202D01*
X164532552Y-138559304D01*
X164514874Y-138435476D01*
X164473377Y-138317475D01*
X164232130Y-137807389D01*
X164021163Y-137730604D01*
X162934274Y-138237429D01*
X162631949Y-138237429D01*
X162578600Y-138123023D01*
X162596726Y-138114571D01*
X162089901Y-137027682D01*
X161878934Y-136950896D01*
X161366252Y-137186574D01*
X161288978Y-137232319D01*
X161288978Y-136920337D01*
X162320104Y-136920337D01*
X162826929Y-138007226D01*
X163913818Y-137500401D01*
X163990604Y-137289434D01*
X163754926Y-136776752D01*
X163691206Y-136669114D01*
X163607711Y-136575976D01*
X163507650Y-136500918D01*
X163394870Y-136446821D01*
X163273702Y-136415767D01*
X163148804Y-136408948D01*
X163024976Y-136426626D01*
X162906975Y-136468123D01*
X162396889Y-136709370D01*
X162320104Y-136920337D01*
X161288978Y-136920337D01*
X161288978Y-135105197D01*
X185897362Y-110496815D01*
X185890747Y-110563981D01*
X185919419Y-110855092D01*
X186004333Y-111135015D01*
X186142226Y-111392995D01*
X186220303Y-111488132D01*
X185943167Y-111572201D01*
X185685187Y-111710094D01*
X185459067Y-111895666D01*
X185273495Y-112121786D01*
X185135602Y-112379766D01*
X185050688Y-112659689D01*
X185022016Y-112950800D01*
X185050688Y-113241911D01*
X185135602Y-113521834D01*
X185273495Y-113779814D01*
X185459067Y-114005934D01*
X185685187Y-114191506D01*
X185943167Y-114329399D01*
X186223090Y-114414313D01*
X186441251Y-114435800D01*
X186587151Y-114435800D01*
X186805312Y-114414313D01*
X187085235Y-114329399D01*
X187343215Y-114191506D01*
X187569335Y-114005934D01*
X187754907Y-113779814D01*
X187892800Y-113521834D01*
X187977714Y-113241911D01*
X188006386Y-112950800D01*
X187977714Y-112659689D01*
X187892800Y-112379766D01*
X187754907Y-112121786D01*
X187676830Y-112026649D01*
X187953966Y-111942580D01*
X188211946Y-111804687D01*
X188438066Y-111619115D01*
X188623638Y-111392995D01*
X188761531Y-111135015D01*
X188846445Y-110855092D01*
X188875117Y-110563981D01*
X188846445Y-110272870D01*
X188761531Y-109992947D01*
X188623638Y-109734967D01*
X188545560Y-109639829D01*
X188822697Y-109555760D01*
X189080677Y-109417867D01*
X189306797Y-109232295D01*
X189492369Y-109006175D01*
X189630262Y-108748195D01*
X189715176Y-108468272D01*
X189743848Y-108177161D01*
X189715176Y-107886050D01*
X189630262Y-107606127D01*
X189580554Y-107513130D01*
X189656248Y-107517263D01*
X189780077Y-107499584D01*
X189898076Y-107458087D01*
X190005713Y-107394368D01*
X190098852Y-107310874D01*
X190173911Y-107210813D01*
X190228007Y-107098031D01*
X190418105Y-106566759D01*
X190323225Y-106363287D01*
X189196298Y-105953120D01*
X189189458Y-105971913D01*
X188950775Y-105885041D01*
X188957616Y-105866246D01*
X188540527Y-105714438D01*
X189283172Y-105714438D01*
X190410098Y-106124605D01*
X190613570Y-106029725D01*
X190809441Y-105500554D01*
X190840496Y-105379386D01*
X190847315Y-105254488D01*
X190829636Y-105130659D01*
X190788139Y-105012660D01*
X190724420Y-104905023D01*
X190640926Y-104811884D01*
X190540865Y-104736825D01*
X190428083Y-104682729D01*
X189896811Y-104492631D01*
X189693339Y-104587511D01*
X189283172Y-105714438D01*
X188540527Y-105714438D01*
X187830690Y-105456079D01*
X187627218Y-105550959D01*
X187431347Y-106080130D01*
X187409052Y-106167118D01*
X186255859Y-105013925D01*
X187822683Y-105013925D01*
X187917563Y-105217397D01*
X189044490Y-105627564D01*
X189454657Y-104500638D01*
X189359777Y-104297166D01*
X188830606Y-104101295D01*
X188709438Y-104070240D01*
X188584540Y-104063421D01*
X188460711Y-104081100D01*
X188342712Y-104122597D01*
X188235075Y-104186316D01*
X188141936Y-104269810D01*
X188066877Y-104369871D01*
X188012781Y-104482653D01*
X187822683Y-105013925D01*
X186255859Y-105013925D01*
X185904951Y-104663017D01*
X185904951Y-69861507D01*
X185947767Y-69913678D01*
X186173887Y-70099250D01*
X186431867Y-70237143D01*
X186711790Y-70322057D01*
X186834272Y-70334120D01*
X186697752Y-70589531D01*
X186612838Y-70869454D01*
X186584166Y-71160565D01*
X186612838Y-71451676D01*
X186697752Y-71731599D01*
X186835645Y-71989579D01*
X187021217Y-72215699D01*
X187247337Y-72401271D01*
X187505317Y-72539164D01*
X187785240Y-72624078D01*
X188003401Y-72645565D01*
X188149301Y-72645565D01*
X188367462Y-72624078D01*
X188647385Y-72539164D01*
X188905365Y-72401271D01*
X189131485Y-72215699D01*
X189317057Y-71989579D01*
X189454950Y-71731599D01*
X189539864Y-71451676D01*
X189568536Y-71160565D01*
X189539864Y-70869454D01*
X189454950Y-70589531D01*
X189317057Y-70331551D01*
X189131485Y-70105431D01*
X188905365Y-69919859D01*
X188647385Y-69781966D01*
X188367462Y-69697052D01*
X188244980Y-69684989D01*
X188381500Y-69429578D01*
X188466414Y-69149655D01*
X188495086Y-68858544D01*
X188466414Y-68567433D01*
X188381500Y-68287510D01*
X188243607Y-68029530D01*
X188058035Y-67803410D01*
X187831915Y-67617838D01*
X187573935Y-67479945D01*
X187294012Y-67395031D01*
X187171529Y-67382967D01*
X187308049Y-67127556D01*
X187392963Y-66847633D01*
X187421635Y-66556522D01*
X187392963Y-66265411D01*
X187308049Y-65985488D01*
X187170156Y-65727508D01*
X186984584Y-65501388D01*
X186758464Y-65315816D01*
X186500484Y-65177923D01*
X186399578Y-65147313D01*
X186456024Y-65096711D01*
X186531082Y-64996650D01*
X186585179Y-64883870D01*
X186616233Y-64762702D01*
X186623052Y-64637804D01*
X186605374Y-64513976D01*
X186563877Y-64395975D01*
X186322630Y-63885889D01*
X186111663Y-63809104D01*
X185024774Y-64315929D01*
X185033226Y-64334055D01*
X184803023Y-64441400D01*
X184794571Y-64423274D01*
X183707682Y-64930099D01*
X183630896Y-65141066D01*
X183866574Y-65653748D01*
X183912319Y-65731022D01*
X182669426Y-65731022D01*
X180809600Y-63871196D01*
X183088948Y-63871196D01*
X183106626Y-63995024D01*
X183148123Y-64113025D01*
X183389370Y-64623111D01*
X183600337Y-64699896D01*
X184687226Y-64193071D01*
X184180401Y-63106182D01*
X183969434Y-63029396D01*
X183456752Y-63265074D01*
X183349114Y-63328794D01*
X183255976Y-63412289D01*
X183180918Y-63512350D01*
X183126821Y-63625130D01*
X183095767Y-63746298D01*
X183088948Y-63871196D01*
X180809600Y-63871196D01*
X179937241Y-62998837D01*
X184410604Y-62998837D01*
X184917429Y-64085726D01*
X186004318Y-63578901D01*
X186081104Y-63367934D01*
X185845426Y-62855252D01*
X185781706Y-62747614D01*
X185698211Y-62654476D01*
X185598150Y-62579418D01*
X185485370Y-62525321D01*
X185364202Y-62494267D01*
X185239304Y-62487448D01*
X185115476Y-62505126D01*
X184997475Y-62546623D01*
X184487389Y-62787870D01*
X184410604Y-62998837D01*
X179937241Y-62998837D01*
X157905634Y-40967230D01*
X158072995Y-40877774D01*
X158168132Y-40799697D01*
X158252201Y-41076833D01*
X158390094Y-41334813D01*
X158575666Y-41560933D01*
X158801786Y-41746505D01*
X159059766Y-41884398D01*
X159339689Y-41969312D01*
X159557850Y-41990799D01*
X159703750Y-41990799D01*
X159921911Y-41969312D01*
X160201834Y-41884398D01*
X160459814Y-41746505D01*
X160685934Y-41560933D01*
X160871506Y-41334813D01*
X161009399Y-41076833D01*
X161094313Y-40796910D01*
X161122985Y-40505799D01*
X161094313Y-40214688D01*
X161009399Y-39934765D01*
X160871506Y-39676785D01*
X160685934Y-39450665D01*
X160459814Y-39265093D01*
X160201834Y-39127200D01*
X159921911Y-39042286D01*
X159703750Y-39020799D01*
X159557850Y-39020799D01*
X159339689Y-39042286D01*
X159059766Y-39127200D01*
X158801786Y-39265093D01*
X158706649Y-39343170D01*
X158622580Y-39066034D01*
X158484687Y-38808054D01*
X158299115Y-38581934D01*
X158072995Y-38396362D01*
X158069486Y-38394486D01*
X158067332Y-38372615D01*
X158057537Y-38273161D01*
X158010334Y-38117553D01*
X157980845Y-38062384D01*
X157933680Y-37974144D01*
X157883158Y-37912583D01*
X157830522Y-37848446D01*
X157799022Y-37822595D01*
X155841032Y-35864606D01*
X155815175Y-35833099D01*
X155689476Y-35729941D01*
X155546068Y-35653287D01*
X155390460Y-35606084D01*
X155269187Y-35594140D01*
X155269184Y-35594140D01*
X155228634Y-35590146D01*
X155188084Y-35594140D01*
X151841114Y-35594140D01*
X151800563Y-35590146D01*
X151760013Y-35594140D01*
X151760011Y-35594140D01*
X151638738Y-35606084D01*
X151483130Y-35653287D01*
X151339721Y-35729941D01*
X151278160Y-35780463D01*
X151214023Y-35833099D01*
X151188171Y-35864600D01*
X146518733Y-40534039D01*
X117222918Y-40534039D01*
X117000901Y-40312022D01*
X117002057Y-40308210D01*
X117014120Y-40185728D01*
X117269531Y-40322248D01*
X117549454Y-40407162D01*
X117767615Y-40428649D01*
X117913515Y-40428649D01*
X118131676Y-40407162D01*
X118411599Y-40322248D01*
X118669579Y-40184355D01*
X118895699Y-39998783D01*
X119081271Y-39772663D01*
X119219164Y-39514683D01*
X119304078Y-39234760D01*
X119332750Y-38943649D01*
X119304078Y-38652538D01*
X119219164Y-38372615D01*
X119081271Y-38114635D01*
X118895699Y-37888515D01*
X118669579Y-37702943D01*
X118411599Y-37565050D01*
X118131676Y-37480136D01*
X117913515Y-37458649D01*
X117767615Y-37458649D01*
X117549454Y-37480136D01*
X117269531Y-37565050D01*
X117011551Y-37702943D01*
X116785431Y-37888515D01*
X116599859Y-38114635D01*
X116461966Y-38372615D01*
X116377052Y-38652538D01*
X116364989Y-38775020D01*
X116109578Y-38638500D01*
X115829655Y-38553586D01*
X115611494Y-38532099D01*
X115465594Y-38532099D01*
X115247433Y-38553586D01*
X114967510Y-38638500D01*
X114709530Y-38776393D01*
X114483410Y-38961965D01*
X114297838Y-39188085D01*
X114159945Y-39446065D01*
X114075031Y-39725988D01*
X114062967Y-39848471D01*
X113807556Y-39711951D01*
X113527633Y-39627037D01*
X113309472Y-39605550D01*
X113163572Y-39605550D01*
X112945411Y-39627037D01*
X112665488Y-39711951D01*
X112407508Y-39849844D01*
X112181388Y-40035416D01*
X111995816Y-40261536D01*
X111857923Y-40519516D01*
X111827313Y-40620422D01*
X111776711Y-40563976D01*
X111676650Y-40488918D01*
X111563870Y-40434821D01*
X111442702Y-40403767D01*
X111317804Y-40396948D01*
X111193976Y-40414626D01*
X111075975Y-40456123D01*
X110565889Y-40697370D01*
X110489104Y-40908337D01*
X110995929Y-41995226D01*
X111014055Y-41986774D01*
X111121400Y-42216977D01*
X111103274Y-42225429D01*
X111610099Y-43312318D01*
X111821066Y-43389104D01*
X112333748Y-43153426D01*
X112411023Y-43107681D01*
X112411022Y-44350574D01*
X87647230Y-69114366D01*
X87557774Y-68947005D01*
X87479697Y-68851868D01*
X87756833Y-68767799D01*
X88014813Y-68629906D01*
X88240933Y-68444334D01*
X88426505Y-68218214D01*
X88564398Y-67960234D01*
X88649312Y-67680311D01*
X88677984Y-67389200D01*
X88649312Y-67098089D01*
X88564398Y-66818166D01*
X88426505Y-66560186D01*
X88240933Y-66334066D01*
X88014813Y-66148494D01*
X87756833Y-66010601D01*
X87476910Y-65925687D01*
X87258749Y-65904200D01*
X87112849Y-65904200D01*
X86894688Y-65925687D01*
X86614765Y-66010601D01*
X86356785Y-66148494D01*
X86130665Y-66334066D01*
X85945093Y-66560186D01*
X85807200Y-66818166D01*
X85722286Y-67098089D01*
X85693614Y-67389200D01*
X85722286Y-67680311D01*
X85807200Y-67960234D01*
X85945093Y-68218214D01*
X86023170Y-68313351D01*
X85746034Y-68397420D01*
X85488054Y-68535313D01*
X85261934Y-68720885D01*
X85076362Y-68947005D01*
X84938469Y-69204985D01*
X84853555Y-69484908D01*
X84824883Y-69776019D01*
X84853555Y-70067130D01*
X84938469Y-70347053D01*
X85076362Y-70605033D01*
X85154440Y-70700171D01*
X84877303Y-70784240D01*
X84619323Y-70922133D01*
X84393203Y-71107705D01*
X84207631Y-71333825D01*
X84069738Y-71591805D01*
X83984824Y-71871728D01*
X83956152Y-72162839D01*
X83984824Y-72453950D01*
X84069738Y-72733873D01*
X84119446Y-72826870D01*
X84043752Y-72822737D01*
X83919923Y-72840416D01*
X83801924Y-72881913D01*
X83694287Y-72945632D01*
X83601148Y-73029126D01*
X83526089Y-73129187D01*
X83471993Y-73241969D01*
X83281895Y-73773241D01*
X73643672Y-73773241D01*
X73711599Y-73488115D01*
X74601883Y-70423734D01*
X75640800Y-67406502D01*
X76825867Y-64443624D01*
X78154255Y-61542172D01*
X79622792Y-58709076D01*
X81227973Y-55951100D01*
X82965963Y-53274830D01*
X84832614Y-50686655D01*
X86823468Y-48192755D01*
X88933771Y-45799086D01*
X91158486Y-43511362D01*
X91652628Y-43050566D01*
X109709396Y-43050566D01*
X109945074Y-43563248D01*
X110008794Y-43670886D01*
X110092289Y-43764024D01*
X110192350Y-43839082D01*
X110305130Y-43893179D01*
X110426298Y-43924233D01*
X110551196Y-43931052D01*
X110675024Y-43913374D01*
X110793025Y-43871877D01*
X111303111Y-43630630D01*
X111379896Y-43419663D01*
X110873071Y-42332774D01*
X109786182Y-42839599D01*
X109709396Y-43050566D01*
X91652628Y-43050566D01*
X93014397Y-41780696D01*
X109167448Y-41780696D01*
X109185126Y-41904524D01*
X109226623Y-42022525D01*
X109467870Y-42532611D01*
X109678837Y-42609396D01*
X110765726Y-42102571D01*
X110258901Y-41015682D01*
X110047934Y-40938896D01*
X109535252Y-41174574D01*
X109427614Y-41238294D01*
X109334476Y-41321789D01*
X109259418Y-41421850D01*
X109205321Y-41534630D01*
X109174267Y-41655798D01*
X109167448Y-41780696D01*
X93014397Y-41780696D01*
X93492299Y-41335046D01*
X95929638Y-39275334D01*
X98464684Y-37337145D01*
X101091384Y-35525107D01*
X103803465Y-33843545D01*
X106594452Y-32296475D01*
X109457682Y-30887592D01*
X112386316Y-29620258D01*
X115373364Y-28497501D01*
X118411691Y-27522001D01*
X121494044Y-26696087D01*
X124613063Y-26021731D01*
X127761301Y-25500544D01*
X130931239Y-25133769D01*
X134115310Y-24922284D01*
X137305911Y-24866591D01*
X140495423Y-24966826D01*
X140495423Y-24966826D01*
G37*
X140495423Y-24966826D02*
X143676231Y-25222748D01*
X146840740Y-25633746D01*
X149981394Y-26198838D01*
X153090693Y-26916677D01*
X156161214Y-27785547D01*
X159185625Y-28803373D01*
X162156705Y-29967727D01*
X165067360Y-31275827D01*
X167910639Y-32724550D01*
X170679754Y-34310437D01*
X173368093Y-36029701D01*
X175969236Y-37878238D01*
X178476974Y-39851633D01*
X180885317Y-41945174D01*
X183188517Y-44153863D01*
X185381073Y-46472426D01*
X187457750Y-48895326D01*
X189413589Y-51416780D01*
X191243922Y-54030765D01*
X192944376Y-56731041D01*
X194510893Y-59511160D01*
X195939731Y-62364483D01*
X197227479Y-65284199D01*
X198371062Y-68263335D01*
X199367750Y-71294779D01*
X200215162Y-74371291D01*
X200911276Y-77485526D01*
X201454430Y-80630048D01*
X201843325Y-83797349D01*
X202077035Y-86979866D01*
X202155000Y-90170000D01*
X202129539Y-91993423D01*
X201962530Y-95180136D01*
X201640051Y-98354887D01*
X201162870Y-101510094D01*
X200532129Y-104638225D01*
X199749331Y-107731809D01*
X198816348Y-110783460D01*
X197735406Y-113785893D01*
X196509086Y-116731936D01*
X195140317Y-119614558D01*
X193632366Y-122426874D01*
X191988835Y-125162169D01*
X190213648Y-127813912D01*
X188311042Y-130375773D01*
X186285562Y-132841633D01*
X184142043Y-135205604D01*
X181885604Y-137462043D01*
X179521633Y-139605562D01*
X177055773Y-141631042D01*
X174493912Y-143533648D01*
X171842169Y-145308835D01*
X169106874Y-146952366D01*
X166294558Y-148460317D01*
X163411936Y-149829086D01*
X160465893Y-151055406D01*
X157463460Y-152136348D01*
X154411809Y-153069331D01*
X151318225Y-153852129D01*
X148190094Y-154482870D01*
X145034887Y-154960051D01*
X141860136Y-155282530D01*
X138673423Y-155449539D01*
X135482355Y-155460678D01*
X132294553Y-155315920D01*
X129117629Y-155015613D01*
X125959167Y-154560471D01*
X122826709Y-153951583D01*
X119727736Y-153190402D01*
X116669645Y-152278746D01*
X113659740Y-151218791D01*
X110705206Y-150013068D01*
X107813100Y-148664457D01*
X104990325Y-147176176D01*
X102243622Y-145551781D01*
X99579550Y-143795149D01*
X97004470Y-141910475D01*
X94524530Y-139902259D01*
X92145651Y-137775296D01*
X89873514Y-135534665D01*
X87713544Y-133185715D01*
X85670899Y-130734056D01*
X83750455Y-128185541D01*
X81956798Y-125546255D01*
X80294211Y-122822500D01*
X78766664Y-120020780D01*
X77377804Y-117147785D01*
X77303216Y-116972066D01*
X87618896Y-116972066D01*
X87854574Y-117484748D01*
X87918294Y-117592386D01*
X88001789Y-117685524D01*
X88101850Y-117760582D01*
X88214630Y-117814679D01*
X88335798Y-117845733D01*
X88460696Y-117852552D01*
X88584524Y-117834874D01*
X88702525Y-117793377D01*
X89212611Y-117552130D01*
X89289396Y-117341163D01*
X88782571Y-116254274D01*
X87695682Y-116761099D01*
X87618896Y-116972066D01*
X77303216Y-116972066D01*
X76130947Y-114210374D01*
X75029070Y-111215561D01*
X74074805Y-108170498D01*
X73270430Y-105082454D01*
X72617865Y-101958803D01*
X72118669Y-98807004D01*
X71774034Y-95634582D01*
X71584782Y-92449112D01*
X71551366Y-89258200D01*
X71673864Y-86069465D01*
X71951986Y-82890521D01*
X72385066Y-79728959D01*
X72972071Y-76592327D01*
X73331045Y-75085512D01*
X82852685Y-75085512D01*
X82870364Y-75209341D01*
X82911861Y-75327340D01*
X82975580Y-75434977D01*
X83059074Y-75528116D01*
X83159135Y-75603175D01*
X83271917Y-75657271D01*
X83803189Y-75847369D01*
X83820360Y-75839362D01*
X84245343Y-75839362D01*
X84340223Y-76042834D01*
X84869394Y-76238705D01*
X84990562Y-76269760D01*
X85115460Y-76276579D01*
X85239289Y-76258900D01*
X85357288Y-76217403D01*
X85464925Y-76153684D01*
X85558064Y-76070190D01*
X85633123Y-75970129D01*
X85687219Y-75857347D01*
X85877317Y-75326075D01*
X85782437Y-75122603D01*
X84655510Y-74712436D01*
X84245343Y-75839362D01*
X83820360Y-75839362D01*
X84006661Y-75752489D01*
X84416828Y-74625562D01*
X83289902Y-74215395D01*
X83086430Y-74310275D01*
X82890559Y-74839446D01*
X82859504Y-74960614D01*
X82852685Y-75085512D01*
X73331045Y-75085512D01*
X73643672Y-73773241D01*
X83281895Y-73773241D01*
X83376775Y-73976713D01*
X84503702Y-74386880D01*
X84510542Y-74368087D01*
X84749225Y-74454959D01*
X84742384Y-74473754D01*
X85869310Y-74883921D01*
X86072782Y-74789041D01*
X86268653Y-74259870D01*
X86290948Y-74172882D01*
X87112101Y-74994036D01*
X87112100Y-109141524D01*
X87087162Y-108888324D01*
X87002248Y-108608401D01*
X86864355Y-108350421D01*
X86678783Y-108124301D01*
X86452663Y-107938729D01*
X86194683Y-107800836D01*
X85914760Y-107715922D01*
X85696599Y-107694435D01*
X85550699Y-107694435D01*
X85332538Y-107715922D01*
X85052615Y-107800836D01*
X84794635Y-107938729D01*
X84568515Y-108124301D01*
X84382943Y-108350421D01*
X84245050Y-108608401D01*
X84160136Y-108888324D01*
X84131464Y-109179435D01*
X84160136Y-109470546D01*
X84245050Y-109750469D01*
X84382943Y-110008449D01*
X84568515Y-110234569D01*
X84794635Y-110420141D01*
X85052615Y-110558034D01*
X85332538Y-110642948D01*
X85455020Y-110655011D01*
X85318500Y-110910422D01*
X85233586Y-111190345D01*
X85204914Y-111481456D01*
X85233586Y-111772567D01*
X85318500Y-112052490D01*
X85456393Y-112310470D01*
X85641965Y-112536590D01*
X85868085Y-112722162D01*
X86126065Y-112860055D01*
X86405988Y-112944969D01*
X86528471Y-112957033D01*
X86391951Y-113212444D01*
X86307037Y-113492367D01*
X86278365Y-113783478D01*
X86307037Y-114074589D01*
X86391951Y-114354512D01*
X86529844Y-114612492D01*
X86715416Y-114838612D01*
X86941536Y-115024184D01*
X87199516Y-115162077D01*
X87300422Y-115192687D01*
X87243976Y-115243289D01*
X87168918Y-115343350D01*
X87114821Y-115456130D01*
X87083767Y-115577298D01*
X87076948Y-115702196D01*
X87094626Y-115826024D01*
X87136123Y-115944025D01*
X87377370Y-116454111D01*
X87588337Y-116530896D01*
X88411756Y-116146929D01*
X89012774Y-116146929D01*
X89519599Y-117233818D01*
X89730566Y-117310604D01*
X90243248Y-117074926D01*
X90350886Y-117011206D01*
X90444024Y-116927711D01*
X90519082Y-116827650D01*
X90573179Y-116714870D01*
X90604233Y-116593702D01*
X90611052Y-116468804D01*
X90593374Y-116344976D01*
X90551877Y-116226975D01*
X90310630Y-115716889D01*
X90099663Y-115640104D01*
X89012774Y-116146929D01*
X88411756Y-116146929D01*
X88675226Y-116024071D01*
X88666774Y-116005945D01*
X88896977Y-115898600D01*
X88905429Y-115916726D01*
X89992318Y-115409901D01*
X90069104Y-115198934D01*
X89833426Y-114686252D01*
X89787681Y-114608978D01*
X91914803Y-114608978D01*
X116523755Y-139217932D01*
X116383069Y-139217932D01*
X116164908Y-139239419D01*
X115884985Y-139324333D01*
X115627005Y-139462226D01*
X115531868Y-139540303D01*
X115447799Y-139263167D01*
X115309906Y-139005187D01*
X115124334Y-138779067D01*
X114898214Y-138593495D01*
X114640234Y-138455602D01*
X114360311Y-138370688D01*
X114142150Y-138349201D01*
X113996250Y-138349201D01*
X113778089Y-138370688D01*
X113498166Y-138455602D01*
X113240186Y-138593495D01*
X113014066Y-138779067D01*
X112828494Y-139005187D01*
X112690601Y-139263167D01*
X112605687Y-139543090D01*
X112577015Y-139834201D01*
X112605687Y-140125312D01*
X112690601Y-140405235D01*
X112828494Y-140663215D01*
X113014066Y-140889335D01*
X113240186Y-141074907D01*
X113498166Y-141212800D01*
X113778089Y-141297714D01*
X113996250Y-141319201D01*
X114142150Y-141319201D01*
X114360311Y-141297714D01*
X114640234Y-141212800D01*
X114898214Y-141074907D01*
X114993351Y-140996830D01*
X115077420Y-141273966D01*
X115215313Y-141531946D01*
X115400885Y-141758066D01*
X115627005Y-141943638D01*
X115884985Y-142081531D01*
X116164908Y-142166445D01*
X116383069Y-142187932D01*
X116528969Y-142187932D01*
X116747130Y-142166445D01*
X117027053Y-142081531D01*
X117285033Y-141943638D01*
X117380171Y-141865560D01*
X117464240Y-142142697D01*
X117602133Y-142400677D01*
X117787705Y-142626797D01*
X118013825Y-142812369D01*
X118271805Y-142950262D01*
X118551728Y-143035176D01*
X118769889Y-143056663D01*
X118915789Y-143056663D01*
X119133950Y-143035176D01*
X119413873Y-142950262D01*
X119506870Y-142900554D01*
X119502737Y-142976248D01*
X119520416Y-143100077D01*
X119561913Y-143218076D01*
X119625632Y-143325713D01*
X119709126Y-143418852D01*
X119809187Y-143493911D01*
X119921969Y-143548007D01*
X120453241Y-143738105D01*
X120470412Y-143730098D01*
X120895395Y-143730098D01*
X120990275Y-143933570D01*
X121519446Y-144129441D01*
X121640614Y-144160496D01*
X121765512Y-144167315D01*
X121889341Y-144149636D01*
X122007340Y-144108139D01*
X122114977Y-144044420D01*
X122208116Y-143960926D01*
X122283175Y-143860865D01*
X122337271Y-143748083D01*
X122527369Y-143216811D01*
X122432489Y-143013339D01*
X121305562Y-142603172D01*
X120895395Y-143730098D01*
X120470412Y-143730098D01*
X120656713Y-143643225D01*
X121066880Y-142516298D01*
X121048087Y-142509458D01*
X121100850Y-142364490D01*
X121392436Y-142364490D01*
X122519362Y-142774657D01*
X122722834Y-142679777D01*
X122918705Y-142150606D01*
X122949760Y-142029438D01*
X122956579Y-141904540D01*
X122938900Y-141780711D01*
X122897403Y-141662712D01*
X122833684Y-141555075D01*
X122750190Y-141461936D01*
X122650129Y-141386877D01*
X122537347Y-141332781D01*
X122006075Y-141142683D01*
X121802603Y-141237563D01*
X121392436Y-142364490D01*
X121100850Y-142364490D01*
X121134959Y-142270775D01*
X121153754Y-142277616D01*
X121563921Y-141150690D01*
X121469041Y-140947218D01*
X120939870Y-140751347D01*
X120852882Y-140729052D01*
X122356984Y-139224951D01*
X157158493Y-139224951D01*
X157106322Y-139267767D01*
X156920750Y-139493887D01*
X156782857Y-139751867D01*
X156697943Y-140031790D01*
X156685880Y-140154272D01*
X156430469Y-140017752D01*
X156150546Y-139932838D01*
X155932385Y-139911351D01*
X155786485Y-139911351D01*
X155568324Y-139932838D01*
X155288401Y-140017752D01*
X155030421Y-140155645D01*
X154804301Y-140341217D01*
X154618729Y-140567337D01*
X154480836Y-140825317D01*
X154395922Y-141105240D01*
X154367250Y-141396351D01*
X154395922Y-141687462D01*
X154480836Y-141967385D01*
X154618729Y-142225365D01*
X154804301Y-142451485D01*
X155030421Y-142637057D01*
X155288401Y-142774950D01*
X155568324Y-142859864D01*
X155786485Y-142881351D01*
X155932385Y-142881351D01*
X156150546Y-142859864D01*
X156430469Y-142774950D01*
X156688449Y-142637057D01*
X156914569Y-142451485D01*
X157100141Y-142225365D01*
X157238034Y-141967385D01*
X157322948Y-141687462D01*
X157335011Y-141564980D01*
X157590422Y-141701500D01*
X157870345Y-141786414D01*
X158088506Y-141807901D01*
X158234406Y-141807901D01*
X158452567Y-141786414D01*
X158732490Y-141701500D01*
X158990470Y-141563607D01*
X159216590Y-141378035D01*
X159402162Y-141151915D01*
X159540055Y-140893935D01*
X159624969Y-140614012D01*
X159637033Y-140491529D01*
X159892444Y-140628049D01*
X160172367Y-140712963D01*
X160390528Y-140734450D01*
X160536428Y-140734450D01*
X160754589Y-140712963D01*
X161034512Y-140628049D01*
X161292492Y-140490156D01*
X161518612Y-140304584D01*
X161704184Y-140078464D01*
X161842077Y-139820484D01*
X161872687Y-139719578D01*
X161923289Y-139776024D01*
X162023350Y-139851082D01*
X162136130Y-139905179D01*
X162257298Y-139936233D01*
X162382196Y-139943052D01*
X162506024Y-139925374D01*
X162624025Y-139883877D01*
X163134111Y-139642630D01*
X163210896Y-139431663D01*
X162704071Y-138344774D01*
X162685945Y-138353226D01*
X162631949Y-138237429D01*
X162934274Y-138237429D01*
X163441099Y-139324318D01*
X163652066Y-139401104D01*
X164164748Y-139165426D01*
X164272386Y-139101706D01*
X164365524Y-139018211D01*
X164440582Y-138918150D01*
X164494679Y-138805370D01*
X164525733Y-138684202D01*
X164532552Y-138559304D01*
X164514874Y-138435476D01*
X164473377Y-138317475D01*
X164232130Y-137807389D01*
X164021163Y-137730604D01*
X162934274Y-138237429D01*
X162631949Y-138237429D01*
X162578600Y-138123023D01*
X162596726Y-138114571D01*
X162089901Y-137027682D01*
X161878934Y-136950896D01*
X161366252Y-137186574D01*
X161288978Y-137232319D01*
X161288978Y-136920337D01*
X162320104Y-136920337D01*
X162826929Y-138007226D01*
X163913818Y-137500401D01*
X163990604Y-137289434D01*
X163754926Y-136776752D01*
X163691206Y-136669114D01*
X163607711Y-136575976D01*
X163507650Y-136500918D01*
X163394870Y-136446821D01*
X163273702Y-136415767D01*
X163148804Y-136408948D01*
X163024976Y-136426626D01*
X162906975Y-136468123D01*
X162396889Y-136709370D01*
X162320104Y-136920337D01*
X161288978Y-136920337D01*
X161288978Y-135105197D01*
X185897362Y-110496815D01*
X185890747Y-110563981D01*
X185919419Y-110855092D01*
X186004333Y-111135015D01*
X186142226Y-111392995D01*
X186220303Y-111488132D01*
X185943167Y-111572201D01*
X185685187Y-111710094D01*
X185459067Y-111895666D01*
X185273495Y-112121786D01*
X185135602Y-112379766D01*
X185050688Y-112659689D01*
X185022016Y-112950800D01*
X185050688Y-113241911D01*
X185135602Y-113521834D01*
X185273495Y-113779814D01*
X185459067Y-114005934D01*
X185685187Y-114191506D01*
X185943167Y-114329399D01*
X186223090Y-114414313D01*
X186441251Y-114435800D01*
X186587151Y-114435800D01*
X186805312Y-114414313D01*
X187085235Y-114329399D01*
X187343215Y-114191506D01*
X187569335Y-114005934D01*
X187754907Y-113779814D01*
X187892800Y-113521834D01*
X187977714Y-113241911D01*
X188006386Y-112950800D01*
X187977714Y-112659689D01*
X187892800Y-112379766D01*
X187754907Y-112121786D01*
X187676830Y-112026649D01*
X187953966Y-111942580D01*
X188211946Y-111804687D01*
X188438066Y-111619115D01*
X188623638Y-111392995D01*
X188761531Y-111135015D01*
X188846445Y-110855092D01*
X188875117Y-110563981D01*
X188846445Y-110272870D01*
X188761531Y-109992947D01*
X188623638Y-109734967D01*
X188545560Y-109639829D01*
X188822697Y-109555760D01*
X189080677Y-109417867D01*
X189306797Y-109232295D01*
X189492369Y-109006175D01*
X189630262Y-108748195D01*
X189715176Y-108468272D01*
X189743848Y-108177161D01*
X189715176Y-107886050D01*
X189630262Y-107606127D01*
X189580554Y-107513130D01*
X189656248Y-107517263D01*
X189780077Y-107499584D01*
X189898076Y-107458087D01*
X190005713Y-107394368D01*
X190098852Y-107310874D01*
X190173911Y-107210813D01*
X190228007Y-107098031D01*
X190418105Y-106566759D01*
X190323225Y-106363287D01*
X189196298Y-105953120D01*
X189189458Y-105971913D01*
X188950775Y-105885041D01*
X188957616Y-105866246D01*
X188540527Y-105714438D01*
X189283172Y-105714438D01*
X190410098Y-106124605D01*
X190613570Y-106029725D01*
X190809441Y-105500554D01*
X190840496Y-105379386D01*
X190847315Y-105254488D01*
X190829636Y-105130659D01*
X190788139Y-105012660D01*
X190724420Y-104905023D01*
X190640926Y-104811884D01*
X190540865Y-104736825D01*
X190428083Y-104682729D01*
X189896811Y-104492631D01*
X189693339Y-104587511D01*
X189283172Y-105714438D01*
X188540527Y-105714438D01*
X187830690Y-105456079D01*
X187627218Y-105550959D01*
X187431347Y-106080130D01*
X187409052Y-106167118D01*
X186255859Y-105013925D01*
X187822683Y-105013925D01*
X187917563Y-105217397D01*
X189044490Y-105627564D01*
X189454657Y-104500638D01*
X189359777Y-104297166D01*
X188830606Y-104101295D01*
X188709438Y-104070240D01*
X188584540Y-104063421D01*
X188460711Y-104081100D01*
X188342712Y-104122597D01*
X188235075Y-104186316D01*
X188141936Y-104269810D01*
X188066877Y-104369871D01*
X188012781Y-104482653D01*
X187822683Y-105013925D01*
X186255859Y-105013925D01*
X185904951Y-104663017D01*
X185904951Y-69861507D01*
X185947767Y-69913678D01*
X186173887Y-70099250D01*
X186431867Y-70237143D01*
X186711790Y-70322057D01*
X186834272Y-70334120D01*
X186697752Y-70589531D01*
X186612838Y-70869454D01*
X186584166Y-71160565D01*
X186612838Y-71451676D01*
X186697752Y-71731599D01*
X186835645Y-71989579D01*
X187021217Y-72215699D01*
X187247337Y-72401271D01*
X187505317Y-72539164D01*
X187785240Y-72624078D01*
X188003401Y-72645565D01*
X188149301Y-72645565D01*
X188367462Y-72624078D01*
X188647385Y-72539164D01*
X188905365Y-72401271D01*
X189131485Y-72215699D01*
X189317057Y-71989579D01*
X189454950Y-71731599D01*
X189539864Y-71451676D01*
X189568536Y-71160565D01*
X189539864Y-70869454D01*
X189454950Y-70589531D01*
X189317057Y-70331551D01*
X189131485Y-70105431D01*
X188905365Y-69919859D01*
X188647385Y-69781966D01*
X188367462Y-69697052D01*
X188244980Y-69684989D01*
X188381500Y-69429578D01*
X188466414Y-69149655D01*
X188495086Y-68858544D01*
X188466414Y-68567433D01*
X188381500Y-68287510D01*
X188243607Y-68029530D01*
X188058035Y-67803410D01*
X187831915Y-67617838D01*
X187573935Y-67479945D01*
X187294012Y-67395031D01*
X187171529Y-67382967D01*
X187308049Y-67127556D01*
X187392963Y-66847633D01*
X187421635Y-66556522D01*
X187392963Y-66265411D01*
X187308049Y-65985488D01*
X187170156Y-65727508D01*
X186984584Y-65501388D01*
X186758464Y-65315816D01*
X186500484Y-65177923D01*
X186399578Y-65147313D01*
X186456024Y-65096711D01*
X186531082Y-64996650D01*
X186585179Y-64883870D01*
X186616233Y-64762702D01*
X186623052Y-64637804D01*
X186605374Y-64513976D01*
X186563877Y-64395975D01*
X186322630Y-63885889D01*
X186111663Y-63809104D01*
X185024774Y-64315929D01*
X185033226Y-64334055D01*
X184803023Y-64441400D01*
X184794571Y-64423274D01*
X183707682Y-64930099D01*
X183630896Y-65141066D01*
X183866574Y-65653748D01*
X183912319Y-65731022D01*
X182669426Y-65731022D01*
X180809600Y-63871196D01*
X183088948Y-63871196D01*
X183106626Y-63995024D01*
X183148123Y-64113025D01*
X183389370Y-64623111D01*
X183600337Y-64699896D01*
X184687226Y-64193071D01*
X184180401Y-63106182D01*
X183969434Y-63029396D01*
X183456752Y-63265074D01*
X183349114Y-63328794D01*
X183255976Y-63412289D01*
X183180918Y-63512350D01*
X183126821Y-63625130D01*
X183095767Y-63746298D01*
X183088948Y-63871196D01*
X180809600Y-63871196D01*
X179937241Y-62998837D01*
X184410604Y-62998837D01*
X184917429Y-64085726D01*
X186004318Y-63578901D01*
X186081104Y-63367934D01*
X185845426Y-62855252D01*
X185781706Y-62747614D01*
X185698211Y-62654476D01*
X185598150Y-62579418D01*
X185485370Y-62525321D01*
X185364202Y-62494267D01*
X185239304Y-62487448D01*
X185115476Y-62505126D01*
X184997475Y-62546623D01*
X184487389Y-62787870D01*
X184410604Y-62998837D01*
X179937241Y-62998837D01*
X157905634Y-40967230D01*
X158072995Y-40877774D01*
X158168132Y-40799697D01*
X158252201Y-41076833D01*
X158390094Y-41334813D01*
X158575666Y-41560933D01*
X158801786Y-41746505D01*
X159059766Y-41884398D01*
X159339689Y-41969312D01*
X159557850Y-41990799D01*
X159703750Y-41990799D01*
X159921911Y-41969312D01*
X160201834Y-41884398D01*
X160459814Y-41746505D01*
X160685934Y-41560933D01*
X160871506Y-41334813D01*
X161009399Y-41076833D01*
X161094313Y-40796910D01*
X161122985Y-40505799D01*
X161094313Y-40214688D01*
X161009399Y-39934765D01*
X160871506Y-39676785D01*
X160685934Y-39450665D01*
X160459814Y-39265093D01*
X160201834Y-39127200D01*
X159921911Y-39042286D01*
X159703750Y-39020799D01*
X159557850Y-39020799D01*
X159339689Y-39042286D01*
X159059766Y-39127200D01*
X158801786Y-39265093D01*
X158706649Y-39343170D01*
X158622580Y-39066034D01*
X158484687Y-38808054D01*
X158299115Y-38581934D01*
X158072995Y-38396362D01*
X158069486Y-38394486D01*
X158067332Y-38372615D01*
X158057537Y-38273161D01*
X158010334Y-38117553D01*
X157980845Y-38062384D01*
X157933680Y-37974144D01*
X157883158Y-37912583D01*
X157830522Y-37848446D01*
X157799022Y-37822595D01*
X155841032Y-35864606D01*
X155815175Y-35833099D01*
X155689476Y-35729941D01*
X155546068Y-35653287D01*
X155390460Y-35606084D01*
X155269187Y-35594140D01*
X155269184Y-35594140D01*
X155228634Y-35590146D01*
X155188084Y-35594140D01*
X151841114Y-35594140D01*
X151800563Y-35590146D01*
X151760013Y-35594140D01*
X151760011Y-35594140D01*
X151638738Y-35606084D01*
X151483130Y-35653287D01*
X151339721Y-35729941D01*
X151278160Y-35780463D01*
X151214023Y-35833099D01*
X151188171Y-35864600D01*
X146518733Y-40534039D01*
X117222918Y-40534039D01*
X117000901Y-40312022D01*
X117002057Y-40308210D01*
X117014120Y-40185728D01*
X117269531Y-40322248D01*
X117549454Y-40407162D01*
X117767615Y-40428649D01*
X117913515Y-40428649D01*
X118131676Y-40407162D01*
X118411599Y-40322248D01*
X118669579Y-40184355D01*
X118895699Y-39998783D01*
X119081271Y-39772663D01*
X119219164Y-39514683D01*
X119304078Y-39234760D01*
X119332750Y-38943649D01*
X119304078Y-38652538D01*
X119219164Y-38372615D01*
X119081271Y-38114635D01*
X118895699Y-37888515D01*
X118669579Y-37702943D01*
X118411599Y-37565050D01*
X118131676Y-37480136D01*
X117913515Y-37458649D01*
X117767615Y-37458649D01*
X117549454Y-37480136D01*
X117269531Y-37565050D01*
X117011551Y-37702943D01*
X116785431Y-37888515D01*
X116599859Y-38114635D01*
X116461966Y-38372615D01*
X116377052Y-38652538D01*
X116364989Y-38775020D01*
X116109578Y-38638500D01*
X115829655Y-38553586D01*
X115611494Y-38532099D01*
X115465594Y-38532099D01*
X115247433Y-38553586D01*
X114967510Y-38638500D01*
X114709530Y-38776393D01*
X114483410Y-38961965D01*
X114297838Y-39188085D01*
X114159945Y-39446065D01*
X114075031Y-39725988D01*
X114062967Y-39848471D01*
X113807556Y-39711951D01*
X113527633Y-39627037D01*
X113309472Y-39605550D01*
X113163572Y-39605550D01*
X112945411Y-39627037D01*
X112665488Y-39711951D01*
X112407508Y-39849844D01*
X112181388Y-40035416D01*
X111995816Y-40261536D01*
X111857923Y-40519516D01*
X111827313Y-40620422D01*
X111776711Y-40563976D01*
X111676650Y-40488918D01*
X111563870Y-40434821D01*
X111442702Y-40403767D01*
X111317804Y-40396948D01*
X111193976Y-40414626D01*
X111075975Y-40456123D01*
X110565889Y-40697370D01*
X110489104Y-40908337D01*
X110995929Y-41995226D01*
X111014055Y-41986774D01*
X111121400Y-42216977D01*
X111103274Y-42225429D01*
X111610099Y-43312318D01*
X111821066Y-43389104D01*
X112333748Y-43153426D01*
X112411023Y-43107681D01*
X112411022Y-44350574D01*
X87647230Y-69114366D01*
X87557774Y-68947005D01*
X87479697Y-68851868D01*
X87756833Y-68767799D01*
X88014813Y-68629906D01*
X88240933Y-68444334D01*
X88426505Y-68218214D01*
X88564398Y-67960234D01*
X88649312Y-67680311D01*
X88677984Y-67389200D01*
X88649312Y-67098089D01*
X88564398Y-66818166D01*
X88426505Y-66560186D01*
X88240933Y-66334066D01*
X88014813Y-66148494D01*
X87756833Y-66010601D01*
X87476910Y-65925687D01*
X87258749Y-65904200D01*
X87112849Y-65904200D01*
X86894688Y-65925687D01*
X86614765Y-66010601D01*
X86356785Y-66148494D01*
X86130665Y-66334066D01*
X85945093Y-66560186D01*
X85807200Y-66818166D01*
X85722286Y-67098089D01*
X85693614Y-67389200D01*
X85722286Y-67680311D01*
X85807200Y-67960234D01*
X85945093Y-68218214D01*
X86023170Y-68313351D01*
X85746034Y-68397420D01*
X85488054Y-68535313D01*
X85261934Y-68720885D01*
X85076362Y-68947005D01*
X84938469Y-69204985D01*
X84853555Y-69484908D01*
X84824883Y-69776019D01*
X84853555Y-70067130D01*
X84938469Y-70347053D01*
X85076362Y-70605033D01*
X85154440Y-70700171D01*
X84877303Y-70784240D01*
X84619323Y-70922133D01*
X84393203Y-71107705D01*
X84207631Y-71333825D01*
X84069738Y-71591805D01*
X83984824Y-71871728D01*
X83956152Y-72162839D01*
X83984824Y-72453950D01*
X84069738Y-72733873D01*
X84119446Y-72826870D01*
X84043752Y-72822737D01*
X83919923Y-72840416D01*
X83801924Y-72881913D01*
X83694287Y-72945632D01*
X83601148Y-73029126D01*
X83526089Y-73129187D01*
X83471993Y-73241969D01*
X83281895Y-73773241D01*
X73643672Y-73773241D01*
X73711599Y-73488115D01*
X74601883Y-70423734D01*
X75640800Y-67406502D01*
X76825867Y-64443624D01*
X78154255Y-61542172D01*
X79622792Y-58709076D01*
X81227973Y-55951100D01*
X82965963Y-53274830D01*
X84832614Y-50686655D01*
X86823468Y-48192755D01*
X88933771Y-45799086D01*
X91158486Y-43511362D01*
X91652628Y-43050566D01*
X109709396Y-43050566D01*
X109945074Y-43563248D01*
X110008794Y-43670886D01*
X110092289Y-43764024D01*
X110192350Y-43839082D01*
X110305130Y-43893179D01*
X110426298Y-43924233D01*
X110551196Y-43931052D01*
X110675024Y-43913374D01*
X110793025Y-43871877D01*
X111303111Y-43630630D01*
X111379896Y-43419663D01*
X110873071Y-42332774D01*
X109786182Y-42839599D01*
X109709396Y-43050566D01*
X91652628Y-43050566D01*
X93014397Y-41780696D01*
X109167448Y-41780696D01*
X109185126Y-41904524D01*
X109226623Y-42022525D01*
X109467870Y-42532611D01*
X109678837Y-42609396D01*
X110765726Y-42102571D01*
X110258901Y-41015682D01*
X110047934Y-40938896D01*
X109535252Y-41174574D01*
X109427614Y-41238294D01*
X109334476Y-41321789D01*
X109259418Y-41421850D01*
X109205321Y-41534630D01*
X109174267Y-41655798D01*
X109167448Y-41780696D01*
X93014397Y-41780696D01*
X93492299Y-41335046D01*
X95929638Y-39275334D01*
X98464684Y-37337145D01*
X101091384Y-35525107D01*
X103803465Y-33843545D01*
X106594452Y-32296475D01*
X109457682Y-30887592D01*
X112386316Y-29620258D01*
X115373364Y-28497501D01*
X118411691Y-27522001D01*
X121494044Y-26696087D01*
X124613063Y-26021731D01*
X127761301Y-25500544D01*
X130931239Y-25133769D01*
X134115310Y-24922284D01*
X137305911Y-24866591D01*
X140495423Y-24966826D01*
G36*
X154566050Y-40231850D02*
G01*
X154784211Y-40253337D01*
X154930111Y-40253337D01*
X154940412Y-40252322D01*
X154940807Y-40253623D01*
X155017461Y-40397031D01*
X155120619Y-40522730D01*
X155152125Y-40548586D01*
X181715100Y-67111562D01*
X181740952Y-67143063D01*
X181796348Y-67188525D01*
X181866650Y-67246221D01*
X182010059Y-67322875D01*
X182165667Y-67370078D01*
X182286940Y-67382022D01*
X182286942Y-67382022D01*
X182327493Y-67386016D01*
X182368043Y-67382022D01*
X184252370Y-67382022D01*
X184249957Y-67406521D01*
X184253951Y-67447071D01*
X184253952Y-104964388D01*
X184249957Y-105004949D01*
X184265896Y-105166775D01*
X184313098Y-105322382D01*
X184389752Y-105465791D01*
X184418282Y-105500554D01*
X184492911Y-105591490D01*
X184524412Y-105617342D01*
X186482071Y-107575002D01*
X186463041Y-107590620D01*
X186437193Y-107622116D01*
X159908444Y-134150867D01*
X159876937Y-134176724D01*
X159807692Y-134261100D01*
X159773779Y-134302423D01*
X159697126Y-134445831D01*
X159697125Y-134445832D01*
X159649922Y-134601440D01*
X159637978Y-134722712D01*
X159633984Y-134763265D01*
X159637978Y-134803816D01*
X159637979Y-137572370D01*
X159613479Y-137569957D01*
X159572929Y-137573951D01*
X122055601Y-137573951D01*
X122015050Y-137569957D01*
X121974500Y-137573951D01*
X121974498Y-137573951D01*
X121853225Y-137585895D01*
X121697617Y-137633098D01*
X121554208Y-137709752D01*
X121492647Y-137760274D01*
X121428510Y-137812910D01*
X121402657Y-137844412D01*
X119444998Y-139802072D01*
X119429380Y-139783041D01*
X119397884Y-139757193D01*
X96310165Y-116669475D01*
X101529000Y-116669475D01*
X101529000Y-117188525D01*
X101630261Y-117697601D01*
X101828893Y-118177141D01*
X102117262Y-118608715D01*
X102484285Y-118975738D01*
X102915859Y-119264107D01*
X103395399Y-119462739D01*
X103904475Y-119564000D01*
X104423525Y-119564000D01*
X104932601Y-119462739D01*
X105412141Y-119264107D01*
X105843715Y-118975738D01*
X106210738Y-118608715D01*
X106499107Y-118177141D01*
X106697739Y-117697601D01*
X106799000Y-117188525D01*
X106799000Y-116669475D01*
X166529000Y-116669475D01*
X166529000Y-117188525D01*
X166630261Y-117697601D01*
X166828893Y-118177141D01*
X167117262Y-118608715D01*
X167484285Y-118975738D01*
X167915859Y-119264107D01*
X168395399Y-119462739D01*
X168904475Y-119564000D01*
X169423525Y-119564000D01*
X169932601Y-119462739D01*
X170412141Y-119264107D01*
X170843715Y-118975738D01*
X171210738Y-118608715D01*
X171499107Y-118177141D01*
X171697739Y-117697601D01*
X171799000Y-117188525D01*
X171799000Y-116669475D01*
X171697739Y-116160399D01*
X171499107Y-115680859D01*
X171210738Y-115249285D01*
X170843715Y-114882262D01*
X170412141Y-114593893D01*
X169932601Y-114395261D01*
X169423525Y-114294000D01*
X168904475Y-114294000D01*
X168395399Y-114395261D01*
X167915859Y-114593893D01*
X167484285Y-114882262D01*
X167117262Y-115249285D01*
X166828893Y-115680859D01*
X166630261Y-116160399D01*
X166529000Y-116669475D01*
X106799000Y-116669475D01*
X106697739Y-116160399D01*
X106499107Y-115680859D01*
X106210738Y-115249285D01*
X105843715Y-114882262D01*
X105412141Y-114593893D01*
X104932601Y-114395261D01*
X104423525Y-114294000D01*
X103904475Y-114294000D01*
X103395399Y-114395261D01*
X102915859Y-114593893D01*
X102484285Y-114882262D01*
X102117262Y-115249285D01*
X101828893Y-115680859D01*
X101630261Y-116160399D01*
X101529000Y-116669475D01*
X96310165Y-116669475D01*
X92869133Y-113228444D01*
X92843276Y-113196937D01*
X92717577Y-113093779D01*
X92574169Y-113017125D01*
X92418561Y-112969922D01*
X92297288Y-112957978D01*
X92297285Y-112957978D01*
X92256735Y-112953984D01*
X92216185Y-112957978D01*
X89013134Y-112957978D01*
X89011256Y-112954464D01*
X88825684Y-112728344D01*
X88613669Y-112554348D01*
X88627299Y-112537739D01*
X88703953Y-112394331D01*
X88751156Y-112238723D01*
X88763100Y-112117450D01*
X88763100Y-112117441D01*
X88767093Y-112076898D01*
X88763100Y-112036355D01*
X88763100Y-74692644D01*
X88767093Y-74652101D01*
X88763100Y-74611558D01*
X88763100Y-74611549D01*
X88751156Y-74490276D01*
X88703953Y-74334668D01*
X88627299Y-74191260D01*
X88524141Y-74065561D01*
X88492639Y-74039708D01*
X86910731Y-72457801D01*
X86910727Y-72457796D01*
X86910693Y-72457762D01*
X86911850Y-72453950D01*
X86940522Y-72162839D01*
X86932322Y-72079588D01*
X86933623Y-72079193D01*
X87077031Y-72002539D01*
X87202730Y-71899381D01*
X87228587Y-71867874D01*
X92426986Y-66669475D01*
X101529000Y-66669475D01*
X101529000Y-67188525D01*
X101630261Y-67697601D01*
X101828893Y-68177141D01*
X102117262Y-68608715D01*
X102484285Y-68975738D01*
X102915859Y-69264107D01*
X103395399Y-69462739D01*
X103904475Y-69564000D01*
X104423525Y-69564000D01*
X104932601Y-69462739D01*
X105412141Y-69264107D01*
X105843715Y-68975738D01*
X106210738Y-68608715D01*
X106499107Y-68177141D01*
X106697739Y-67697601D01*
X106799000Y-67188525D01*
X106799000Y-66669475D01*
X166529000Y-66669475D01*
X166529000Y-67188525D01*
X166630261Y-67697601D01*
X166828893Y-68177141D01*
X167117262Y-68608715D01*
X167484285Y-68975738D01*
X167915859Y-69264107D01*
X168395399Y-69462739D01*
X168904475Y-69564000D01*
X169423525Y-69564000D01*
X169932601Y-69462739D01*
X170412141Y-69264107D01*
X170843715Y-68975738D01*
X171210738Y-68608715D01*
X171499107Y-68177141D01*
X171697739Y-67697601D01*
X171799000Y-67188525D01*
X171799000Y-66669475D01*
X171697739Y-66160399D01*
X171499107Y-65680859D01*
X171210738Y-65249285D01*
X170843715Y-64882262D01*
X170412141Y-64593893D01*
X169932601Y-64395261D01*
X169423525Y-64294000D01*
X168904475Y-64294000D01*
X168395399Y-64395261D01*
X167915859Y-64593893D01*
X167484285Y-64882262D01*
X167117262Y-65249285D01*
X166828893Y-65680859D01*
X166630261Y-66160399D01*
X166529000Y-66669475D01*
X106799000Y-66669475D01*
X106697739Y-66160399D01*
X106499107Y-65680859D01*
X106210738Y-65249285D01*
X105843715Y-64882262D01*
X105412141Y-64593893D01*
X104932601Y-64395261D01*
X104423525Y-64294000D01*
X103904475Y-64294000D01*
X103395399Y-64395261D01*
X102915859Y-64593893D01*
X102484285Y-64882262D01*
X102117262Y-65249285D01*
X101828893Y-65680859D01*
X101630261Y-66160399D01*
X101529000Y-66669475D01*
X92426986Y-66669475D01*
X96255961Y-62840500D01*
X130972928Y-62840500D01*
X130972928Y-64540500D01*
X130985188Y-64664982D01*
X131021498Y-64784680D01*
X131080463Y-64894994D01*
X131159815Y-64991685D01*
X131256506Y-65071037D01*
X131366820Y-65130002D01*
X131486518Y-65166312D01*
X131611000Y-65178572D01*
X133311000Y-65178572D01*
X133435482Y-65166312D01*
X133555180Y-65130002D01*
X133665494Y-65071037D01*
X133762185Y-64991685D01*
X133841537Y-64894994D01*
X133900502Y-64784680D01*
X133936812Y-64664982D01*
X133949072Y-64540500D01*
X133949072Y-62840500D01*
X133936812Y-62716018D01*
X133900502Y-62596320D01*
X133841537Y-62486006D01*
X133762185Y-62389315D01*
X133665494Y-62309963D01*
X133555180Y-62250998D01*
X133435482Y-62214688D01*
X133311000Y-62202428D01*
X131611000Y-62202428D01*
X131486518Y-62214688D01*
X131366820Y-62250998D01*
X131256506Y-62309963D01*
X131159815Y-62389315D01*
X131080463Y-62486006D01*
X131021498Y-62596320D01*
X130985188Y-62716018D01*
X130972928Y-62840500D01*
X96255961Y-62840500D01*
X113791563Y-45304899D01*
X113823063Y-45279048D01*
X113887890Y-45200056D01*
X113926221Y-45153350D01*
X114002875Y-45009941D01*
X114018772Y-44957534D01*
X114050078Y-44854333D01*
X114062022Y-44733060D01*
X114062022Y-44733058D01*
X114066016Y-44692507D01*
X114062022Y-44651957D01*
X114062022Y-42767630D01*
X114086520Y-42770043D01*
X114127071Y-42766049D01*
X142765064Y-42766049D01*
X142751705Y-42911336D01*
X142748001Y-42948947D01*
X142748001Y-42951622D01*
X142747755Y-42954297D01*
X142748001Y-42992238D01*
X142748001Y-43143915D01*
X142744486Y-43145794D01*
X142518366Y-43331366D01*
X142332794Y-43557486D01*
X142330916Y-43561000D01*
X139296050Y-43561000D01*
X139255500Y-43557006D01*
X139214949Y-43561000D01*
X139214947Y-43561000D01*
X139093674Y-43572944D01*
X138938066Y-43620147D01*
X138794657Y-43696801D01*
X138700458Y-43774108D01*
X138700455Y-43774111D01*
X138668959Y-43799959D01*
X138643111Y-43831456D01*
X138353495Y-44121072D01*
X138191602Y-44153274D01*
X138003244Y-44231295D01*
X137833726Y-44344563D01*
X137689563Y-44488726D01*
X137576295Y-44658244D01*
X137498274Y-44846602D01*
X137458500Y-45046561D01*
X137458500Y-45250439D01*
X137498274Y-45450398D01*
X137576295Y-45638756D01*
X137689563Y-45808274D01*
X137833726Y-45952437D01*
X138003244Y-46065705D01*
X138191602Y-46143726D01*
X138391561Y-46183500D01*
X138595439Y-46183500D01*
X138795398Y-46143726D01*
X138983756Y-46065705D01*
X139153274Y-45952437D01*
X139297437Y-45808274D01*
X139410705Y-45638756D01*
X139488726Y-45450398D01*
X139520928Y-45288505D01*
X139597433Y-45212000D01*
X142330916Y-45212000D01*
X142332794Y-45215514D01*
X142518366Y-45441634D01*
X142744486Y-45627206D01*
X142799291Y-45656500D01*
X142744486Y-45685794D01*
X142518366Y-45871366D01*
X142332794Y-46097486D01*
X142194901Y-46355466D01*
X142109987Y-46635389D01*
X142081315Y-46926500D01*
X142109987Y-47217611D01*
X142111144Y-47221424D01*
X141898068Y-47434500D01*
X137851003Y-47434500D01*
X137713756Y-47342795D01*
X137525398Y-47264774D01*
X137325439Y-47225000D01*
X137121561Y-47225000D01*
X136921602Y-47264774D01*
X136733244Y-47342795D01*
X136588500Y-47439510D01*
X136443756Y-47342795D01*
X136255398Y-47264774D01*
X136055439Y-47225000D01*
X135851561Y-47225000D01*
X135651602Y-47264774D01*
X135463244Y-47342795D01*
X135293726Y-47456063D01*
X135149563Y-47600226D01*
X135036295Y-47769744D01*
X134958274Y-47958102D01*
X134918500Y-48158061D01*
X134918500Y-48361939D01*
X134958274Y-48561898D01*
X135036295Y-48750256D01*
X135149563Y-48919774D01*
X135293726Y-49063937D01*
X135463244Y-49177205D01*
X135651602Y-49255226D01*
X135813496Y-49287428D01*
X136547611Y-50021545D01*
X136573459Y-50053041D01*
X136604955Y-50078889D01*
X136604958Y-50078892D01*
X136699157Y-50156199D01*
X136842566Y-50232853D01*
X136998174Y-50280056D01*
X137119447Y-50292000D01*
X137119449Y-50292000D01*
X137160000Y-50295994D01*
X137200550Y-50292000D01*
X142330916Y-50292000D01*
X142332794Y-50295514D01*
X142518366Y-50521634D01*
X142744486Y-50707206D01*
X142799291Y-50736500D01*
X142744486Y-50765794D01*
X142518366Y-50951366D01*
X142332794Y-51177486D01*
X142330916Y-51181000D01*
X136438550Y-51181000D01*
X136398000Y-51177006D01*
X136357449Y-51181000D01*
X136357447Y-51181000D01*
X136236174Y-51192944D01*
X136080566Y-51240147D01*
X135937158Y-51316801D01*
X135811459Y-51419959D01*
X135807519Y-51424761D01*
X135651602Y-51455774D01*
X135463244Y-51533795D01*
X135293726Y-51647063D01*
X135149563Y-51791226D01*
X135036295Y-51960744D01*
X134958274Y-52149102D01*
X134918500Y-52349061D01*
X134918500Y-52552939D01*
X134958274Y-52752898D01*
X135036295Y-52941256D01*
X135149563Y-53110774D01*
X135293726Y-53254937D01*
X135463244Y-53368205D01*
X135651602Y-53446226D01*
X135851561Y-53486000D01*
X136055439Y-53486000D01*
X136255398Y-53446226D01*
X136443756Y-53368205D01*
X136613274Y-53254937D01*
X136757437Y-53110774D01*
X136870705Y-52941256D01*
X136915961Y-52832000D01*
X142330916Y-52832000D01*
X142332794Y-52835514D01*
X142518366Y-53061634D01*
X142744486Y-53247206D01*
X142799291Y-53276500D01*
X142744486Y-53305794D01*
X142518366Y-53491366D01*
X142332794Y-53717486D01*
X142330916Y-53721000D01*
X138961172Y-53721000D01*
X138903146Y-53717739D01*
X138839826Y-53726675D01*
X138776174Y-53732944D01*
X138759445Y-53738019D01*
X138742132Y-53740462D01*
X138681762Y-53761584D01*
X138620566Y-53780147D01*
X138605148Y-53788388D01*
X138588645Y-53794162D01*
X138533555Y-53826656D01*
X138477158Y-53856801D01*
X138432230Y-53893672D01*
X137304204Y-54718000D01*
X137185061Y-54718000D01*
X136985102Y-54757774D01*
X136796744Y-54835795D01*
X136627226Y-54949063D01*
X136483063Y-55093226D01*
X136369795Y-55262744D01*
X136291774Y-55451102D01*
X136252000Y-55651061D01*
X136252000Y-55854939D01*
X136291774Y-56054898D01*
X136369795Y-56243256D01*
X136381651Y-56261000D01*
X136358934Y-56261000D01*
X135710928Y-55612996D01*
X135678726Y-55451102D01*
X135600705Y-55262744D01*
X135487437Y-55093226D01*
X135343274Y-54949063D01*
X135173756Y-54835795D01*
X134985398Y-54757774D01*
X134785439Y-54718000D01*
X134581561Y-54718000D01*
X134381602Y-54757774D01*
X134193244Y-54835795D01*
X134023726Y-54949063D01*
X133879563Y-55093226D01*
X133766295Y-55262744D01*
X133688274Y-55451102D01*
X133648500Y-55651061D01*
X133648500Y-55854939D01*
X133688274Y-56054898D01*
X133766295Y-56243256D01*
X133879563Y-56412774D01*
X134023726Y-56556937D01*
X134193244Y-56670205D01*
X134381602Y-56748226D01*
X134543496Y-56780428D01*
X135404611Y-57641545D01*
X135430459Y-57673041D01*
X135461955Y-57698889D01*
X135461958Y-57698892D01*
X135556157Y-57776199D01*
X135589794Y-57794179D01*
X135526744Y-57820295D01*
X135357226Y-57933563D01*
X135213063Y-58077726D01*
X135099795Y-58247244D01*
X135021774Y-58435602D01*
X134982000Y-58635561D01*
X134982000Y-58839439D01*
X135021774Y-59039398D01*
X135099795Y-59227756D01*
X135213063Y-59397274D01*
X135357226Y-59541437D01*
X135526744Y-59654705D01*
X135715102Y-59732726D01*
X135915061Y-59772500D01*
X136118939Y-59772500D01*
X136318898Y-59732726D01*
X136507256Y-59654705D01*
X136676774Y-59541437D01*
X136820937Y-59397274D01*
X136934205Y-59227756D01*
X137012226Y-59039398D01*
X137045291Y-58873168D01*
X137106698Y-58798343D01*
X137183352Y-58654935D01*
X137230555Y-58499327D01*
X137242499Y-58378054D01*
X137242499Y-58378052D01*
X137246493Y-58337502D01*
X137242499Y-58296951D01*
X137242499Y-57912000D01*
X142085428Y-57912000D01*
X142085428Y-57936500D01*
X142097688Y-58060982D01*
X142133998Y-58180680D01*
X142192963Y-58290994D01*
X142272315Y-58387685D01*
X142369006Y-58467037D01*
X142479320Y-58526002D01*
X142599018Y-58562312D01*
X142723500Y-58574572D01*
X144423500Y-58574572D01*
X144547982Y-58562312D01*
X144667680Y-58526002D01*
X144777994Y-58467037D01*
X144874685Y-58387685D01*
X144954037Y-58290994D01*
X145013002Y-58180680D01*
X145049312Y-58060982D01*
X145061572Y-57936500D01*
X145061572Y-56236500D01*
X145049312Y-56112018D01*
X145013002Y-55992320D01*
X144954037Y-55882006D01*
X144874685Y-55785315D01*
X144777994Y-55705963D01*
X144667680Y-55646998D01*
X144598813Y-55626107D01*
X144628634Y-55601634D01*
X144814206Y-55375514D01*
X144952099Y-55117534D01*
X145037013Y-54837611D01*
X145065685Y-54546500D01*
X145037013Y-54255389D01*
X144952099Y-53975466D01*
X144814206Y-53717486D01*
X144628634Y-53491366D01*
X144402514Y-53305794D01*
X144347709Y-53276500D01*
X144402514Y-53247206D01*
X144628634Y-53061634D01*
X144814206Y-52835514D01*
X144952099Y-52577534D01*
X145037013Y-52297611D01*
X145065685Y-52006500D01*
X145037013Y-51715389D01*
X144952099Y-51435466D01*
X144814206Y-51177486D01*
X144628634Y-50951366D01*
X144402514Y-50765794D01*
X144347709Y-50736500D01*
X144402514Y-50707206D01*
X144628634Y-50521634D01*
X144814206Y-50295514D01*
X144952099Y-50037534D01*
X145037013Y-49757611D01*
X145065685Y-49466500D01*
X145037013Y-49175389D01*
X144952099Y-48895466D01*
X144814206Y-48637486D01*
X144628634Y-48411366D01*
X144402514Y-48225794D01*
X144347709Y-48196500D01*
X144402514Y-48167206D01*
X144628634Y-47981634D01*
X144814206Y-47755514D01*
X144952099Y-47497534D01*
X145037013Y-47217611D01*
X145065685Y-46926500D01*
X145037013Y-46635389D01*
X144952099Y-46355466D01*
X144814206Y-46097486D01*
X144628634Y-45871366D01*
X144402514Y-45685794D01*
X144347709Y-45656500D01*
X144402514Y-45627206D01*
X144628634Y-45441634D01*
X144814206Y-45215514D01*
X144952099Y-44957534D01*
X145037013Y-44677611D01*
X145065685Y-44386500D01*
X145037013Y-44095389D01*
X144952099Y-43815466D01*
X144814206Y-43557486D01*
X144628634Y-43331366D01*
X144402514Y-43145794D01*
X144399000Y-43143916D01*
X144399000Y-43027371D01*
X144423028Y-42766049D01*
X151644399Y-42766049D01*
X151684949Y-42770043D01*
X151725499Y-42766049D01*
X151725502Y-42766049D01*
X151846775Y-42754105D01*
X152002383Y-42706902D01*
X152145791Y-42630248D01*
X152271490Y-42527090D01*
X152297347Y-42495583D01*
X154562237Y-40230693D01*
X154566050Y-40231850D01*
X154566050Y-40231850D01*
G37*
X154566050Y-40231850D02*
X154784211Y-40253337D01*
X154930111Y-40253337D01*
X154940412Y-40252322D01*
X154940807Y-40253623D01*
X155017461Y-40397031D01*
X155120619Y-40522730D01*
X155152125Y-40548586D01*
X181715100Y-67111562D01*
X181740952Y-67143063D01*
X181796348Y-67188525D01*
X181866650Y-67246221D01*
X182010059Y-67322875D01*
X182165667Y-67370078D01*
X182286940Y-67382022D01*
X182286942Y-67382022D01*
X182327493Y-67386016D01*
X182368043Y-67382022D01*
X184252370Y-67382022D01*
X184249957Y-67406521D01*
X184253951Y-67447071D01*
X184253952Y-104964388D01*
X184249957Y-105004949D01*
X184265896Y-105166775D01*
X184313098Y-105322382D01*
X184389752Y-105465791D01*
X184418282Y-105500554D01*
X184492911Y-105591490D01*
X184524412Y-105617342D01*
X186482071Y-107575002D01*
X186463041Y-107590620D01*
X186437193Y-107622116D01*
X159908444Y-134150867D01*
X159876937Y-134176724D01*
X159807692Y-134261100D01*
X159773779Y-134302423D01*
X159697126Y-134445831D01*
X159697125Y-134445832D01*
X159649922Y-134601440D01*
X159637978Y-134722712D01*
X159633984Y-134763265D01*
X159637978Y-134803816D01*
X159637979Y-137572370D01*
X159613479Y-137569957D01*
X159572929Y-137573951D01*
X122055601Y-137573951D01*
X122015050Y-137569957D01*
X121974500Y-137573951D01*
X121974498Y-137573951D01*
X121853225Y-137585895D01*
X121697617Y-137633098D01*
X121554208Y-137709752D01*
X121492647Y-137760274D01*
X121428510Y-137812910D01*
X121402657Y-137844412D01*
X119444998Y-139802072D01*
X119429380Y-139783041D01*
X119397884Y-139757193D01*
X96310165Y-116669475D01*
X101529000Y-116669475D01*
X101529000Y-117188525D01*
X101630261Y-117697601D01*
X101828893Y-118177141D01*
X102117262Y-118608715D01*
X102484285Y-118975738D01*
X102915859Y-119264107D01*
X103395399Y-119462739D01*
X103904475Y-119564000D01*
X104423525Y-119564000D01*
X104932601Y-119462739D01*
X105412141Y-119264107D01*
X105843715Y-118975738D01*
X106210738Y-118608715D01*
X106499107Y-118177141D01*
X106697739Y-117697601D01*
X106799000Y-117188525D01*
X106799000Y-116669475D01*
X166529000Y-116669475D01*
X166529000Y-117188525D01*
X166630261Y-117697601D01*
X166828893Y-118177141D01*
X167117262Y-118608715D01*
X167484285Y-118975738D01*
X167915859Y-119264107D01*
X168395399Y-119462739D01*
X168904475Y-119564000D01*
X169423525Y-119564000D01*
X169932601Y-119462739D01*
X170412141Y-119264107D01*
X170843715Y-118975738D01*
X171210738Y-118608715D01*
X171499107Y-118177141D01*
X171697739Y-117697601D01*
X171799000Y-117188525D01*
X171799000Y-116669475D01*
X171697739Y-116160399D01*
X171499107Y-115680859D01*
X171210738Y-115249285D01*
X170843715Y-114882262D01*
X170412141Y-114593893D01*
X169932601Y-114395261D01*
X169423525Y-114294000D01*
X168904475Y-114294000D01*
X168395399Y-114395261D01*
X167915859Y-114593893D01*
X167484285Y-114882262D01*
X167117262Y-115249285D01*
X166828893Y-115680859D01*
X166630261Y-116160399D01*
X166529000Y-116669475D01*
X106799000Y-116669475D01*
X106697739Y-116160399D01*
X106499107Y-115680859D01*
X106210738Y-115249285D01*
X105843715Y-114882262D01*
X105412141Y-114593893D01*
X104932601Y-114395261D01*
X104423525Y-114294000D01*
X103904475Y-114294000D01*
X103395399Y-114395261D01*
X102915859Y-114593893D01*
X102484285Y-114882262D01*
X102117262Y-115249285D01*
X101828893Y-115680859D01*
X101630261Y-116160399D01*
X101529000Y-116669475D01*
X96310165Y-116669475D01*
X92869133Y-113228444D01*
X92843276Y-113196937D01*
X92717577Y-113093779D01*
X92574169Y-113017125D01*
X92418561Y-112969922D01*
X92297288Y-112957978D01*
X92297285Y-112957978D01*
X92256735Y-112953984D01*
X92216185Y-112957978D01*
X89013134Y-112957978D01*
X89011256Y-112954464D01*
X88825684Y-112728344D01*
X88613669Y-112554348D01*
X88627299Y-112537739D01*
X88703953Y-112394331D01*
X88751156Y-112238723D01*
X88763100Y-112117450D01*
X88763100Y-112117441D01*
X88767093Y-112076898D01*
X88763100Y-112036355D01*
X88763100Y-74692644D01*
X88767093Y-74652101D01*
X88763100Y-74611558D01*
X88763100Y-74611549D01*
X88751156Y-74490276D01*
X88703953Y-74334668D01*
X88627299Y-74191260D01*
X88524141Y-74065561D01*
X88492639Y-74039708D01*
X86910731Y-72457801D01*
X86910727Y-72457796D01*
X86910693Y-72457762D01*
X86911850Y-72453950D01*
X86940522Y-72162839D01*
X86932322Y-72079588D01*
X86933623Y-72079193D01*
X87077031Y-72002539D01*
X87202730Y-71899381D01*
X87228587Y-71867874D01*
X92426986Y-66669475D01*
X101529000Y-66669475D01*
X101529000Y-67188525D01*
X101630261Y-67697601D01*
X101828893Y-68177141D01*
X102117262Y-68608715D01*
X102484285Y-68975738D01*
X102915859Y-69264107D01*
X103395399Y-69462739D01*
X103904475Y-69564000D01*
X104423525Y-69564000D01*
X104932601Y-69462739D01*
X105412141Y-69264107D01*
X105843715Y-68975738D01*
X106210738Y-68608715D01*
X106499107Y-68177141D01*
X106697739Y-67697601D01*
X106799000Y-67188525D01*
X106799000Y-66669475D01*
X166529000Y-66669475D01*
X166529000Y-67188525D01*
X166630261Y-67697601D01*
X166828893Y-68177141D01*
X167117262Y-68608715D01*
X167484285Y-68975738D01*
X167915859Y-69264107D01*
X168395399Y-69462739D01*
X168904475Y-69564000D01*
X169423525Y-69564000D01*
X169932601Y-69462739D01*
X170412141Y-69264107D01*
X170843715Y-68975738D01*
X171210738Y-68608715D01*
X171499107Y-68177141D01*
X171697739Y-67697601D01*
X171799000Y-67188525D01*
X171799000Y-66669475D01*
X171697739Y-66160399D01*
X171499107Y-65680859D01*
X171210738Y-65249285D01*
X170843715Y-64882262D01*
X170412141Y-64593893D01*
X169932601Y-64395261D01*
X169423525Y-64294000D01*
X168904475Y-64294000D01*
X168395399Y-64395261D01*
X167915859Y-64593893D01*
X167484285Y-64882262D01*
X167117262Y-65249285D01*
X166828893Y-65680859D01*
X166630261Y-66160399D01*
X166529000Y-66669475D01*
X106799000Y-66669475D01*
X106697739Y-66160399D01*
X106499107Y-65680859D01*
X106210738Y-65249285D01*
X105843715Y-64882262D01*
X105412141Y-64593893D01*
X104932601Y-64395261D01*
X104423525Y-64294000D01*
X103904475Y-64294000D01*
X103395399Y-64395261D01*
X102915859Y-64593893D01*
X102484285Y-64882262D01*
X102117262Y-65249285D01*
X101828893Y-65680859D01*
X101630261Y-66160399D01*
X101529000Y-66669475D01*
X92426986Y-66669475D01*
X96255961Y-62840500D01*
X130972928Y-62840500D01*
X130972928Y-64540500D01*
X130985188Y-64664982D01*
X131021498Y-64784680D01*
X131080463Y-64894994D01*
X131159815Y-64991685D01*
X131256506Y-65071037D01*
X131366820Y-65130002D01*
X131486518Y-65166312D01*
X131611000Y-65178572D01*
X133311000Y-65178572D01*
X133435482Y-65166312D01*
X133555180Y-65130002D01*
X133665494Y-65071037D01*
X133762185Y-64991685D01*
X133841537Y-64894994D01*
X133900502Y-64784680D01*
X133936812Y-64664982D01*
X133949072Y-64540500D01*
X133949072Y-62840500D01*
X133936812Y-62716018D01*
X133900502Y-62596320D01*
X133841537Y-62486006D01*
X133762185Y-62389315D01*
X133665494Y-62309963D01*
X133555180Y-62250998D01*
X133435482Y-62214688D01*
X133311000Y-62202428D01*
X131611000Y-62202428D01*
X131486518Y-62214688D01*
X131366820Y-62250998D01*
X131256506Y-62309963D01*
X131159815Y-62389315D01*
X131080463Y-62486006D01*
X131021498Y-62596320D01*
X130985188Y-62716018D01*
X130972928Y-62840500D01*
X96255961Y-62840500D01*
X113791563Y-45304899D01*
X113823063Y-45279048D01*
X113887890Y-45200056D01*
X113926221Y-45153350D01*
X114002875Y-45009941D01*
X114018772Y-44957534D01*
X114050078Y-44854333D01*
X114062022Y-44733060D01*
X114062022Y-44733058D01*
X114066016Y-44692507D01*
X114062022Y-44651957D01*
X114062022Y-42767630D01*
X114086520Y-42770043D01*
X114127071Y-42766049D01*
X142765064Y-42766049D01*
X142751705Y-42911336D01*
X142748001Y-42948947D01*
X142748001Y-42951622D01*
X142747755Y-42954297D01*
X142748001Y-42992238D01*
X142748001Y-43143915D01*
X142744486Y-43145794D01*
X142518366Y-43331366D01*
X142332794Y-43557486D01*
X142330916Y-43561000D01*
X139296050Y-43561000D01*
X139255500Y-43557006D01*
X139214949Y-43561000D01*
X139214947Y-43561000D01*
X139093674Y-43572944D01*
X138938066Y-43620147D01*
X138794657Y-43696801D01*
X138700458Y-43774108D01*
X138700455Y-43774111D01*
X138668959Y-43799959D01*
X138643111Y-43831456D01*
X138353495Y-44121072D01*
X138191602Y-44153274D01*
X138003244Y-44231295D01*
X137833726Y-44344563D01*
X137689563Y-44488726D01*
X137576295Y-44658244D01*
X137498274Y-44846602D01*
X137458500Y-45046561D01*
X137458500Y-45250439D01*
X137498274Y-45450398D01*
X137576295Y-45638756D01*
X137689563Y-45808274D01*
X137833726Y-45952437D01*
X138003244Y-46065705D01*
X138191602Y-46143726D01*
X138391561Y-46183500D01*
X138595439Y-46183500D01*
X138795398Y-46143726D01*
X138983756Y-46065705D01*
X139153274Y-45952437D01*
X139297437Y-45808274D01*
X139410705Y-45638756D01*
X139488726Y-45450398D01*
X139520928Y-45288505D01*
X139597433Y-45212000D01*
X142330916Y-45212000D01*
X142332794Y-45215514D01*
X142518366Y-45441634D01*
X142744486Y-45627206D01*
X142799291Y-45656500D01*
X142744486Y-45685794D01*
X142518366Y-45871366D01*
X142332794Y-46097486D01*
X142194901Y-46355466D01*
X142109987Y-46635389D01*
X142081315Y-46926500D01*
X142109987Y-47217611D01*
X142111144Y-47221424D01*
X141898068Y-47434500D01*
X137851003Y-47434500D01*
X137713756Y-47342795D01*
X137525398Y-47264774D01*
X137325439Y-47225000D01*
X137121561Y-47225000D01*
X136921602Y-47264774D01*
X136733244Y-47342795D01*
X136588500Y-47439510D01*
X136443756Y-47342795D01*
X136255398Y-47264774D01*
X136055439Y-47225000D01*
X135851561Y-47225000D01*
X135651602Y-47264774D01*
X135463244Y-47342795D01*
X135293726Y-47456063D01*
X135149563Y-47600226D01*
X135036295Y-47769744D01*
X134958274Y-47958102D01*
X134918500Y-48158061D01*
X134918500Y-48361939D01*
X134958274Y-48561898D01*
X135036295Y-48750256D01*
X135149563Y-48919774D01*
X135293726Y-49063937D01*
X135463244Y-49177205D01*
X135651602Y-49255226D01*
X135813496Y-49287428D01*
X136547611Y-50021545D01*
X136573459Y-50053041D01*
X136604955Y-50078889D01*
X136604958Y-50078892D01*
X136699157Y-50156199D01*
X136842566Y-50232853D01*
X136998174Y-50280056D01*
X137119447Y-50292000D01*
X137119449Y-50292000D01*
X137160000Y-50295994D01*
X137200550Y-50292000D01*
X142330916Y-50292000D01*
X142332794Y-50295514D01*
X142518366Y-50521634D01*
X142744486Y-50707206D01*
X142799291Y-50736500D01*
X142744486Y-50765794D01*
X142518366Y-50951366D01*
X142332794Y-51177486D01*
X142330916Y-51181000D01*
X136438550Y-51181000D01*
X136398000Y-51177006D01*
X136357449Y-51181000D01*
X136357447Y-51181000D01*
X136236174Y-51192944D01*
X136080566Y-51240147D01*
X135937158Y-51316801D01*
X135811459Y-51419959D01*
X135807519Y-51424761D01*
X135651602Y-51455774D01*
X135463244Y-51533795D01*
X135293726Y-51647063D01*
X135149563Y-51791226D01*
X135036295Y-51960744D01*
X134958274Y-52149102D01*
X134918500Y-52349061D01*
X134918500Y-52552939D01*
X134958274Y-52752898D01*
X135036295Y-52941256D01*
X135149563Y-53110774D01*
X135293726Y-53254937D01*
X135463244Y-53368205D01*
X135651602Y-53446226D01*
X135851561Y-53486000D01*
X136055439Y-53486000D01*
X136255398Y-53446226D01*
X136443756Y-53368205D01*
X136613274Y-53254937D01*
X136757437Y-53110774D01*
X136870705Y-52941256D01*
X136915961Y-52832000D01*
X142330916Y-52832000D01*
X142332794Y-52835514D01*
X142518366Y-53061634D01*
X142744486Y-53247206D01*
X142799291Y-53276500D01*
X142744486Y-53305794D01*
X142518366Y-53491366D01*
X142332794Y-53717486D01*
X142330916Y-53721000D01*
X138961172Y-53721000D01*
X138903146Y-53717739D01*
X138839826Y-53726675D01*
X138776174Y-53732944D01*
X138759445Y-53738019D01*
X138742132Y-53740462D01*
X138681762Y-53761584D01*
X138620566Y-53780147D01*
X138605148Y-53788388D01*
X138588645Y-53794162D01*
X138533555Y-53826656D01*
X138477158Y-53856801D01*
X138432230Y-53893672D01*
X137304204Y-54718000D01*
X137185061Y-54718000D01*
X136985102Y-54757774D01*
X136796744Y-54835795D01*
X136627226Y-54949063D01*
X136483063Y-55093226D01*
X136369795Y-55262744D01*
X136291774Y-55451102D01*
X136252000Y-55651061D01*
X136252000Y-55854939D01*
X136291774Y-56054898D01*
X136369795Y-56243256D01*
X136381651Y-56261000D01*
X136358934Y-56261000D01*
X135710928Y-55612996D01*
X135678726Y-55451102D01*
X135600705Y-55262744D01*
X135487437Y-55093226D01*
X135343274Y-54949063D01*
X135173756Y-54835795D01*
X134985398Y-54757774D01*
X134785439Y-54718000D01*
X134581561Y-54718000D01*
X134381602Y-54757774D01*
X134193244Y-54835795D01*
X134023726Y-54949063D01*
X133879563Y-55093226D01*
X133766295Y-55262744D01*
X133688274Y-55451102D01*
X133648500Y-55651061D01*
X133648500Y-55854939D01*
X133688274Y-56054898D01*
X133766295Y-56243256D01*
X133879563Y-56412774D01*
X134023726Y-56556937D01*
X134193244Y-56670205D01*
X134381602Y-56748226D01*
X134543496Y-56780428D01*
X135404611Y-57641545D01*
X135430459Y-57673041D01*
X135461955Y-57698889D01*
X135461958Y-57698892D01*
X135556157Y-57776199D01*
X135589794Y-57794179D01*
X135526744Y-57820295D01*
X135357226Y-57933563D01*
X135213063Y-58077726D01*
X135099795Y-58247244D01*
X135021774Y-58435602D01*
X134982000Y-58635561D01*
X134982000Y-58839439D01*
X135021774Y-59039398D01*
X135099795Y-59227756D01*
X135213063Y-59397274D01*
X135357226Y-59541437D01*
X135526744Y-59654705D01*
X135715102Y-59732726D01*
X135915061Y-59772500D01*
X136118939Y-59772500D01*
X136318898Y-59732726D01*
X136507256Y-59654705D01*
X136676774Y-59541437D01*
X136820937Y-59397274D01*
X136934205Y-59227756D01*
X137012226Y-59039398D01*
X137045291Y-58873168D01*
X137106698Y-58798343D01*
X137183352Y-58654935D01*
X137230555Y-58499327D01*
X137242499Y-58378054D01*
X137242499Y-58378052D01*
X137246493Y-58337502D01*
X137242499Y-58296951D01*
X137242499Y-57912000D01*
X142085428Y-57912000D01*
X142085428Y-57936500D01*
X142097688Y-58060982D01*
X142133998Y-58180680D01*
X142192963Y-58290994D01*
X142272315Y-58387685D01*
X142369006Y-58467037D01*
X142479320Y-58526002D01*
X142599018Y-58562312D01*
X142723500Y-58574572D01*
X144423500Y-58574572D01*
X144547982Y-58562312D01*
X144667680Y-58526002D01*
X144777994Y-58467037D01*
X144874685Y-58387685D01*
X144954037Y-58290994D01*
X145013002Y-58180680D01*
X145049312Y-58060982D01*
X145061572Y-57936500D01*
X145061572Y-56236500D01*
X145049312Y-56112018D01*
X145013002Y-55992320D01*
X144954037Y-55882006D01*
X144874685Y-55785315D01*
X144777994Y-55705963D01*
X144667680Y-55646998D01*
X144598813Y-55626107D01*
X144628634Y-55601634D01*
X144814206Y-55375514D01*
X144952099Y-55117534D01*
X145037013Y-54837611D01*
X145065685Y-54546500D01*
X145037013Y-54255389D01*
X144952099Y-53975466D01*
X144814206Y-53717486D01*
X144628634Y-53491366D01*
X144402514Y-53305794D01*
X144347709Y-53276500D01*
X144402514Y-53247206D01*
X144628634Y-53061634D01*
X144814206Y-52835514D01*
X144952099Y-52577534D01*
X145037013Y-52297611D01*
X145065685Y-52006500D01*
X145037013Y-51715389D01*
X144952099Y-51435466D01*
X144814206Y-51177486D01*
X144628634Y-50951366D01*
X144402514Y-50765794D01*
X144347709Y-50736500D01*
X144402514Y-50707206D01*
X144628634Y-50521634D01*
X144814206Y-50295514D01*
X144952099Y-50037534D01*
X145037013Y-49757611D01*
X145065685Y-49466500D01*
X145037013Y-49175389D01*
X144952099Y-48895466D01*
X144814206Y-48637486D01*
X144628634Y-48411366D01*
X144402514Y-48225794D01*
X144347709Y-48196500D01*
X144402514Y-48167206D01*
X144628634Y-47981634D01*
X144814206Y-47755514D01*
X144952099Y-47497534D01*
X145037013Y-47217611D01*
X145065685Y-46926500D01*
X145037013Y-46635389D01*
X144952099Y-46355466D01*
X144814206Y-46097486D01*
X144628634Y-45871366D01*
X144402514Y-45685794D01*
X144347709Y-45656500D01*
X144402514Y-45627206D01*
X144628634Y-45441634D01*
X144814206Y-45215514D01*
X144952099Y-44957534D01*
X145037013Y-44677611D01*
X145065685Y-44386500D01*
X145037013Y-44095389D01*
X144952099Y-43815466D01*
X144814206Y-43557486D01*
X144628634Y-43331366D01*
X144402514Y-43145794D01*
X144399000Y-43143916D01*
X144399000Y-43027371D01*
X144423028Y-42766049D01*
X151644399Y-42766049D01*
X151684949Y-42770043D01*
X151725499Y-42766049D01*
X151725502Y-42766049D01*
X151846775Y-42754105D01*
X152002383Y-42706902D01*
X152145791Y-42630248D01*
X152271490Y-42527090D01*
X152297347Y-42495583D01*
X154562237Y-40230693D01*
X154566050Y-40231850D01*
G36*
X152639961Y-37804908D02*
G01*
X152633120Y-37823702D01*
X152651913Y-37830542D01*
X152565041Y-38069225D01*
X152546246Y-38062384D01*
X152136079Y-39189310D01*
X152230959Y-39392782D01*
X152760130Y-39588653D01*
X152847118Y-39610948D01*
X151343017Y-41115049D01*
X148272587Y-41115049D01*
X150778596Y-38609040D01*
X150802597Y-38677288D01*
X150866316Y-38784925D01*
X150949810Y-38878064D01*
X151049871Y-38953123D01*
X151162653Y-39007219D01*
X151693925Y-39197317D01*
X151897397Y-39102437D01*
X152307564Y-37975510D01*
X152288771Y-37968670D01*
X152375643Y-37729987D01*
X152394438Y-37736828D01*
X152401278Y-37718035D01*
X152639961Y-37804908D01*
X152639961Y-37804908D01*
G37*
X152639961Y-37804908D02*
X152633120Y-37823702D01*
X152651913Y-37830542D01*
X152565041Y-38069225D01*
X152546246Y-38062384D01*
X152136079Y-39189310D01*
X152230959Y-39392782D01*
X152760130Y-39588653D01*
X152847118Y-39610948D01*
X151343017Y-41115049D01*
X148272587Y-41115049D01*
X150778596Y-38609040D01*
X150802597Y-38677288D01*
X150866316Y-38784925D01*
X150949810Y-38878064D01*
X151049871Y-38953123D01*
X151162653Y-39007219D01*
X151693925Y-39197317D01*
X151897397Y-39102437D01*
X152307564Y-37975510D01*
X152288771Y-37968670D01*
X152375643Y-37729987D01*
X152394438Y-37736828D01*
X152401278Y-37718035D01*
X152639961Y-37804908D01*
G04 #@! TD*
M02*
